<?xml version="1.0" encoding="UTF-8"?>
<!--Generator: Apple Native CoreSVG 232.5-->
<!DOCTYPE svg
PUBLIC "-//W3C//DTD SVG 1.1//EN"
       "http://www.w3.org/Graphics/SVG/1.1/DTD/svg11.dtd">
<svg version="1.1" xmlns="http://www.w3.org/2000/svg" xmlns:xlink="http://www.w3.org/1999/xlink" width="3300" height="2200">
 <!--glyph: "", point size: 100.0, font version: "19.2d2e1", template writer version: "128"-->
 <style>.monochrome-0 {-sfsymbols-motion-group:0}
.monochrome-1 {-sfsymbols-motion-group:0}
.monochrome-2 {-sfsymbols-motion-group:0}
.monochrome-3 {opacity:0.0;-sfsymbols-clear-behind:true;-sfsymbols-motion-group:0}
.monochrome-4 {opacity:0.0;-sfsymbols-clear-behind:true;-sfsymbols-motion-group:0}

.multicolor-0:tintColor {opacity:0.6;-sfsymbols-motion-group:0}
.multicolor-1:tintColor {-sfsymbols-motion-group:0}
.multicolor-2:tintColor {-sfsymbols-motion-group:0}
.multicolor-3:systemBlueColor {-sfsymbols-motion-group:0}
.multicolor-4:custom {fill:#CBCBCB;-sfsymbols-motion-group:0}

.hierarchical-0:tertiary {-sfsymbols-motion-group:0}
.hierarchical-1:secondary {-sfsymbols-motion-group:0}
.hierarchical-2:primary {-sfsymbols-motion-group:0}
.hierarchical-3:primary {-sfsymbols-motion-group:0}
.hierarchical-4:primary {opacity:0.0;-sfsymbols-clear-behind:true;-sfsymbols-motion-group:0}

.SFSymbolsPreviewWireframe {fill:none;opacity:1.0;stroke:black;stroke-width:0.5}
</style>
 <g id="Notes">
  <rect height="2200" id="artboard" style="fill:white;opacity:1" width="3300" x="0" y="0"/>
  <line style="fill:none;stroke:black;opacity:1;stroke-width:0.5;" x1="263" x2="3036" y1="292" y2="292"/>
  <text style="stroke:none;fill:black;font-family:sans-serif;font-size:13;font-weight:bold;" transform="matrix(1 0 0 1 263 322)">Weight/Scale Variations</text>
  <text style="stroke:none;fill:black;font-family:sans-serif;font-size:13;text-anchor:middle;" transform="matrix(1 0 0 1 559.711 322)">Ultralight</text>
  <text style="stroke:none;fill:black;font-family:sans-serif;font-size:13;text-anchor:middle;" transform="matrix(1 0 0 1 856.422 322)">Thin</text>
  <text style="stroke:none;fill:black;font-family:sans-serif;font-size:13;text-anchor:middle;" transform="matrix(1 0 0 1 1153.13 322)">Light</text>
  <text style="stroke:none;fill:black;font-family:sans-serif;font-size:13;text-anchor:middle;" transform="matrix(1 0 0 1 1449.84 322)">Regular</text>
  <text style="stroke:none;fill:black;font-family:sans-serif;font-size:13;text-anchor:middle;" transform="matrix(1 0 0 1 1746.56 322)">Medium</text>
  <text style="stroke:none;fill:black;font-family:sans-serif;font-size:13;text-anchor:middle;" transform="matrix(1 0 0 1 2043.27 322)">Semibold</text>
  <text style="stroke:none;fill:black;font-family:sans-serif;font-size:13;text-anchor:middle;" transform="matrix(1 0 0 1 2339.98 322)">Bold</text>
  <text style="stroke:none;fill:black;font-family:sans-serif;font-size:13;text-anchor:middle;" transform="matrix(1 0 0 1 2636.69 322)">Heavy</text>
  <text style="stroke:none;fill:black;font-family:sans-serif;font-size:13;text-anchor:middle;" transform="matrix(1 0 0 1 2933.4 322)">Black</text>
  <line style="fill:none;stroke:black;opacity:1;stroke-width:0.5;" x1="263" x2="3036" y1="1903" y2="1903"/>
  <g transform="matrix(0.2 0 0 0.2 263 1933)">
   <path d="m46.2402 4.15039c21.5332 0 39.4531-17.8711 39.4531-39.4043s-17.9688-39.4043-39.502-39.4043c-21.4844 0-39.3555 17.8711-39.3555 39.4043s17.9199 39.4043 39.4043 39.4043Zm0-7.42188c-17.7246 0-31.8848-14.209-31.8848-31.9824s14.1113-31.9824 31.8359-31.9824c17.7734 0 32.0312 14.209 32.0312 31.9824s-14.209 31.9824-31.9824 31.9824Zm-17.9688-31.9824c0 2.14844 1.51367 3.61328 3.75977 3.61328h10.498v10.5957c0 2.19727 1.46484 3.71094 3.61328 3.71094 2.24609 0 3.71094-1.51367 3.71094-3.71094v-10.5957h10.5957c2.19727 0 3.71094-1.46484 3.71094-3.61328 0-2.19727-1.51367-3.71094-3.71094-3.71094h-10.5957v-10.5469c0-2.24609-1.46484-3.75977-3.71094-3.75977-2.14844 0-3.61328 1.51367-3.61328 3.75977v10.5469h-10.498c-2.24609 0-3.75977 1.51367-3.75977 3.71094Z"/>
  </g>
  <g transform="matrix(0.2 0 0 0.2 281.506 1933)">
   <path d="m58.5449 14.5508c27.2461 0 49.8047-22.6074 49.8047-49.8047 0-27.2461-22.6074-49.8047-49.8535-49.8047-27.1973 0-49.7559 22.5586-49.7559 49.8047 0 27.1973 22.6074 49.8047 49.8047 49.8047Zm0-8.30078c-23.0469 0-41.4551-18.457-41.4551-41.5039s18.3594-41.5039 41.4062-41.5039 41.5527 18.457 41.5527 41.5039-18.457 41.5039-41.5039 41.5039Zm-22.6562-41.5039c0 2.39258 1.66016 4.00391 4.15039 4.00391h14.3555v14.4043c0 2.44141 1.66016 4.15039 4.05273 4.15039 2.44141 0 4.15039-1.66016 4.15039-4.15039v-14.4043h14.4043c2.44141 0 4.15039-1.61133 4.15039-4.00391 0-2.44141-1.70898-4.15039-4.15039-4.15039h-14.4043v-14.3555c0-2.49023-1.70898-4.19922-4.15039-4.19922-2.39258 0-4.05273 1.70898-4.05273 4.19922v14.3555h-14.3555c-2.49023 0-4.15039 1.70898-4.15039 4.15039Z"/>
  </g>
  <g transform="matrix(0.2 0 0 0.2 304.924 1933)">
   <path d="m74.8535 28.3203c34.8145 0 63.623-28.8086 63.623-63.5742 0-34.8145-28.8574-63.623-63.6719-63.623-34.7656 0-63.5254 28.8086-63.5254 63.623 0 34.7656 28.8086 63.5742 63.5742 63.5742Zm0-9.08203c-30.1758 0-54.4434-24.3164-54.4434-54.4922 0-30.2246 24.2188-54.4922 54.3945-54.4922 30.2246 0 54.541 24.2676 54.541 54.4922 0 30.1758-24.2676 54.4922-54.4922 54.4922Zm-28.8574-54.4922c0 2.58789 1.85547 4.39453 4.58984 4.39453h19.7266v19.7754c0 2.68555 1.85547 4.58984 4.44336 4.58984 2.68555 0 4.54102-1.85547 4.54102-4.58984v-19.7754h19.7754c2.68555 0 4.58984-1.80664 4.58984-4.39453 0-2.73438-1.85547-4.58984-4.58984-4.58984h-19.7754v-19.7266c0-2.73438-1.85547-4.63867-4.54102-4.63867-2.58789 0-4.44336 1.9043-4.44336 4.63867v19.7266h-19.7266c-2.73438 0-4.58984 1.85547-4.58984 4.58984Z"/>
  </g>
  <text style="stroke:none;fill:black;font-family:sans-serif;font-size:13;font-weight:bold;" transform="matrix(1 0 0 1 263 1953)">Design Variations</text>
  <text style="stroke:none;fill:black;font-family:sans-serif;font-size:13;" transform="matrix(1 0 0 1 263 1971)">Symbols are supported in up to nine weights and three scales.</text>
  <text style="stroke:none;fill:black;font-family:sans-serif;font-size:13;" transform="matrix(1 0 0 1 263 1989)">For optimal layout with text and other symbols, vertically align</text>
  <text style="stroke:none;fill:black;font-family:sans-serif;font-size:13;" transform="matrix(1 0 0 1 263 2007)">symbols with the adjacent text.</text>
  <line style="fill:none;stroke:#00AEEF;stroke-width:0.5;opacity:1.0;" x1="776" x2="776" y1="1919" y2="1933"/>
  <g transform="matrix(0.2 0 0 0.2 776 1933)">
   <path d="m16.5527 0.78125c2.58789 0 3.85742-0.976562 4.78516-3.71094l6.29883-17.2363h28.8086l6.29883 17.2363c0.927734 2.73438 2.19727 3.71094 4.73633 3.71094 2.58789 0 4.24805-1.5625 4.24805-4.00391 0-0.830078-0.146484-1.61133-0.537109-2.63672l-22.9004-60.9863c-1.12305-2.97852-3.125-4.49219-6.25-4.49219-3.02734 0-5.07812 1.46484-6.15234 4.44336l-22.9004 61.084c-0.390625 1.02539-0.537109 1.80664-0.537109 2.63672 0 2.44141 1.5625 3.95508 4.10156 3.95508Zm13.4766-28.3691 11.8652-32.8613h0.244141l11.8652 32.8613Z"/>
  </g>
  <line style="fill:none;stroke:#00AEEF;stroke-width:0.5;opacity:1.0;" x1="792.836" x2="792.836" y1="1919" y2="1933"/>
  <text style="stroke:none;fill:black;font-family:sans-serif;font-size:13;font-weight:bold;" transform="matrix(1 0 0 1 776 1953)">Margins</text>
  <text style="stroke:none;fill:black;font-family:sans-serif;font-size:13;" transform="matrix(1 0 0 1 776 1971)">Leading and trailing margins on the left and right side of each symbol</text>
  <text style="stroke:none;fill:black;font-family:sans-serif;font-size:13;" transform="matrix(1 0 0 1 776 1989)">can be adjusted by modifying the x-location of the margin guidelines.</text>
  <text style="stroke:none;fill:black;font-family:sans-serif;font-size:13;" transform="matrix(1 0 0 1 776 2007)">Modifications are automatically applied proportionally to all</text>
  <text style="stroke:none;fill:black;font-family:sans-serif;font-size:13;" transform="matrix(1 0 0 1 776 2025)">scales and weights.</text>
  <g transform="matrix(0.2 0 0 0.2 1289 1933)">
   <path d="m14.209 9.32617 8.49609 8.54492c4.29688 4.3457 9.22852 4.05273 13.8672-1.07422l53.4668-58.9355-4.83398-4.88281-53.0762 58.3984c-1.75781 2.00195-3.41797 2.49023-5.76172 0.146484l-5.85938-5.81055c-2.34375-2.29492-1.80664-4.00391 0.195312-5.81055l57.373-54.0039-4.88281-4.83398-57.959 54.4434c-4.93164 4.58984-5.32227 9.47266-1.02539 13.8184Zm32.0801-90.9668c-2.09961 2.05078-2.24609 4.93164-1.07422 6.88477 1.17188 1.80664 3.4668 2.97852 6.68945 2.14844 7.32422-1.70898 14.9414-2.00195 22.0703 2.68555l-2.92969 7.27539c-1.70898 4.15039-0.830078 7.08008 1.85547 9.81445l11.4746 11.5723c2.44141 2.44141 4.49219 2.53906 7.32422 2.05078l5.32227-0.976562 3.32031 3.36914-0.195312 2.7832c-0.195312 2.49023 0.439453 4.39453 2.88086 6.78711l3.80859 3.71094c2.39258 2.39258 5.46875 2.53906 7.8125 0.195312l14.5508-14.5996c2.34375-2.34375 2.24609-5.32227-0.146484-7.71484l-3.85742-3.80859c-2.39258-2.39258-4.24805-3.17383-6.64062-2.97852l-2.88086 0.244141-3.22266-3.17383 1.2207-5.61523c0.634766-2.83203-0.146484-5.0293-3.07617-7.95898l-10.9863-10.9375c-16.6992-16.6016-38.8672-16.2109-53.3203-1.75781Zm7.4707 1.85547c12.1582-8.88672 28.6133-7.37305 39.7461 3.75977l12.1582 12.0605c1.17188 1.17188 1.36719 2.09961 1.02539 3.80859l-1.61133 7.42188 7.51953 7.42188 4.93164-0.292969c1.26953-0.0488281 1.66016 0.0488281 2.63672 1.02539l2.88086 2.88086-12.207 12.207-2.88086-2.88086c-0.976562-0.976562-1.12305-1.36719-1.07422-2.68555l0.341797-4.88281-7.4707-7.42188-7.61719 1.26953c-1.61133 0.341797-2.34375 0.195312-3.56445-0.976562l-10.0098-10.0098c-1.26953-1.17188-1.41602-2.00195-0.634766-3.85742l4.39453-10.4492c-7.8125-7.27539-17.9688-10.4004-28.125-7.42188-0.78125 0.195312-1.07422-0.439453-0.439453-0.976562Z"/>
  </g>
  <text style="stroke:none;fill:black;font-family:sans-serif;font-size:13;font-weight:bold;" transform="matrix(1 0 0 1 1289 1953)">Exporting</text>
  <text style="stroke:none;fill:black;font-family:sans-serif;font-size:13;" transform="matrix(1 0 0 1 1289 1971)">Symbols should be outlined when exporting to ensure the</text>
  <text style="stroke:none;fill:black;font-family:sans-serif;font-size:13;" transform="matrix(1 0 0 1 1289 1989)">design is preserved when submitting to Xcode.</text>
  <text id="template-version" style="stroke:none;fill:black;font-family:sans-serif;font-size:13;text-anchor:end;" transform="matrix(1 0 0 1 3036 1933)">Template v.5.0</text>
  <text style="stroke:none;fill:black;font-family:sans-serif;font-size:13;text-anchor:end;" transform="matrix(1 0 0 1 3036 1951)">Requires Xcode 15 or greater</text>
  <text id="descriptive-name" style="stroke:none;fill:black;font-family:sans-serif;font-size:13;text-anchor:end;" transform="matrix(1 0 0 1 3036 1969)">Generated from cable.connector.usbc</text>
  <text style="stroke:none;fill:black;font-family:sans-serif;font-size:13;text-anchor:end;" transform="matrix(1 0 0 1 3036 1987)">Typeset at 100.0 points</text>
  <text style="stroke:none;fill:black;font-family:sans-serif;font-size:13;" transform="matrix(1 0 0 1 263 726)">Small</text>
  <text style="stroke:none;fill:black;font-family:sans-serif;font-size:13;" transform="matrix(1 0 0 1 263 1156)">Medium</text>
  <text style="stroke:none;fill:black;font-family:sans-serif;font-size:13;" transform="matrix(1 0 0 1 263 1586)">Large</text>
 </g>
 <g id="Guides">
  <g id="H-reference" style="fill:#27AAE1;stroke:none;" transform="matrix(1 0 0 1 339 696)">
   <path d="M0.993654 0L3.63775 0L29.3281-67.1323L30.0303-67.1323L30.0303-70.459L28.1226-70.459ZM11.6885-24.4799L46.9815-24.4799L46.2315-26.7285L12.4385-26.7285ZM55.1196 0L57.7637 0L30.6382-70.459L29.4326-70.459L29.4326-67.1323Z"/>
  </g>
  <line id="Baseline-S" style="fill:none;stroke:#27AAE1;opacity:1;stroke-width:0.5;" x1="263" x2="3036" y1="696" y2="696"/>
  <line id="Capline-S" style="fill:none;stroke:#27AAE1;opacity:1;stroke-width:0.5;" x1="263" x2="3036" y1="625.541" y2="625.541"/>
  <g id="H-reference" style="fill:#27AAE1;stroke:none;" transform="matrix(1 0 0 1 339 1126)">
   <path d="M0.993654 0L3.63775 0L29.3281-67.1323L30.0303-67.1323L30.0303-70.459L28.1226-70.459ZM11.6885-24.4799L46.9815-24.4799L46.2315-26.7285L12.4385-26.7285ZM55.1196 0L57.7637 0L30.6382-70.459L29.4326-70.459L29.4326-67.1323Z"/>
  </g>
  <line id="Baseline-M" style="fill:none;stroke:#27AAE1;opacity:1;stroke-width:0.5;" x1="263" x2="3036" y1="1126" y2="1126"/>
  <line id="Capline-M" style="fill:none;stroke:#27AAE1;opacity:1;stroke-width:0.5;" x1="263" x2="3036" y1="1055.54" y2="1055.54"/>
  <g id="H-reference" style="fill:#27AAE1;stroke:none;" transform="matrix(1 0 0 1 339 1556)">
   <path d="M0.993654 0L3.63775 0L29.3281-67.1323L30.0303-67.1323L30.0303-70.459L28.1226-70.459ZM11.6885-24.4799L46.9815-24.4799L46.2315-26.7285L12.4385-26.7285ZM55.1196 0L57.7637 0L30.6382-70.459L29.4326-70.459L29.4326-67.1323Z"/>
  </g>
  <line id="Baseline-L" style="fill:none;stroke:#27AAE1;opacity:1;stroke-width:0.5;" x1="263" x2="3036" y1="1556" y2="1556"/>
  <line id="Capline-L" style="fill:none;stroke:#27AAE1;opacity:1;stroke-width:0.5;" x1="263" x2="3036" y1="1485.54" y2="1485.54"/>
  <line id="left-margin-Ultralight-S" style="fill:none;stroke:#00AEEF;stroke-width:0.5;opacity:1.0;" x1="538.184" x2="538.184" y1="600.785" y2="720.121"/>
  <line id="right-margin-Ultralight-S" style="fill:none;stroke:#00AEEF;stroke-width:0.5;opacity:1.0;" x1="581.238" x2="581.238" y1="600.785" y2="720.121"/>
  <line id="left-margin-Regular-S" style="fill:none;stroke:#00AEEF;stroke-width:0.5;opacity:1.0;" x1="1427.43" x2="1427.43" y1="600.785" y2="720.121"/>
  <line id="right-margin-Regular-S" style="fill:none;stroke:#00AEEF;stroke-width:0.5;opacity:1.0;" x1="1472.26" x2="1472.26" y1="600.785" y2="720.121"/>
  <line id="left-margin-Black-S" style="fill:none;stroke:#00AEEF;stroke-width:0.5;opacity:1.0;" x1="2908.94" x2="2908.94" y1="600.785" y2="720.121"/>
  <line id="right-margin-Black-S" style="fill:none;stroke:#00AEEF;stroke-width:0.5;opacity:1.0;" x1="2957.86" x2="2957.86" y1="600.785" y2="720.121"/>
 </g>
 <g id="Symbols">
  <g id="Black-S" transform="matrix(1 0 0 1 2908.94 696)">
   <path class="monochrome-0 multicolor-0:tintColor hierarchical-0:tertiary SFSymbolsPreviewWireframe" d="M17.5485-5.404L31.3023-5.404L31.3023 5.88642C31.3023 9.68411 28.2231 12.7633 24.4254 12.7633C20.6277 12.7633 17.5485 9.68411 17.5485 5.88642L17.5485-5.404Z"/>
   <path class="monochrome-1 multicolor-1:tintColor hierarchical-1:secondary SFSymbolsPreviewWireframe" d="M7.28448-61.3429C5.33432-59.8033 4-57.4426 4-54.774C4-50.2577 7.69505-46.5627 12.2113-46.5627L36.6396-46.5627C41.1558-46.5627 44.8508-50.2577 44.8508-54.774C44.8508-57.4426 43.5165-59.8033 41.5663-61.3429L41.5663-63.8063L41.5663-76.431L41.5663-78.1759L41.5663-78.2785L41.5663-78.2785C41.4636-80.8445 39.3082-83 36.7423-83L12.2113-83C9.54258-83 7.38713-80.9472 7.38713-78.2785L7.38713-78.2785L7.38713-78.0732L7.38713-76.3283L7.38713-63.7037L7.38713-61.3429L7.28448-61.3429ZM12.2113-7.44628C7.69505-7.44628 4-11.0387 4-15.5548L4-48.605C5.84753-46.1416 8.82409-44.4994 12.2113-44.4994L36.537-44.4994C39.924-44.4994 42.9006-46.1416 44.7481-48.605L44.7481-15.6575C44.7481-11.1413 41.0531-7.44628 36.537-7.44628L30.1733-7.44628L18.5749-7.44628L12.2113-7.44628Z"/>
   <path class="monochrome-2 multicolor-2:tintColor hierarchical-2:primary SFSymbolsPreviewWireframe" d="M12.2113-80.9472L36.6396-80.9472C38.1792-80.9472 39.5135-79.7155 39.5135-78.0732L39.5135-76.3283C39.5135-74.7887 38.2818-73.4544 36.6396-73.4544L12.2113-73.4544C10.6716-73.4544 9.33729-74.6861 9.33729-76.3283L9.33729-78.1759C9.33729-79.7155 10.6716-80.9472 12.2113-80.9472Z"/>
   <path class="monochrome-3 multicolor-3:systemBlueColor hierarchical-3:primary SFSymbolsPreviewWireframe" d="M24.6151-15.4739C29.2756-15.4739 32.6513-18.4087 32.8024-22.5653L28.3687-22.5653C28.1042-20.613 26.6179-19.3282 24.6277-19.3282C22.0834-19.3282 20.5341-21.5199 20.5341-25.0719C20.5341-28.6113 22.0834-30.7778 24.6151-30.7778C26.6053-30.7778 28.1042-29.4426 28.3435-27.4651L32.7898-27.4651C32.6513-31.5839 29.1874-34.6321 24.6151-34.6321C19.1612-34.6321 15.8233-30.9919 15.8233-25.0593C15.8233-19.1267 19.1738-15.4739 24.6151-15.4739Z"/>
   <path class="monochrome-4 multicolor-4:custom hierarchical-4:primary SFSymbolsPreviewWireframe" d="M9.33729-72.4281C10.1584-71.8122 11.0822-71.5043 12.2113-71.5043L36.6396-71.5043C37.666-71.5043 38.6924-71.8122 39.5135-72.4281L39.5135-55.2871C39.5135-53.2344 37.8713-51.5921 35.8185-51.5921L13.0323-51.5921C10.9795-51.5921 9.33729-53.2344 9.33729-55.2871L9.33729-72.4281Z"/>
   <path class="monochrome-2 monochrome-4 multicolor-2:tintColor multicolor-4:custom hierarchical-2:primary hierarchical-4:primary SFSymbolsPreviewWireframe" d="M13.0323-74.994C11.698-74.994 10.6716-76.1232 10.7743-77.4575C10.8769-78.6891 12.006-79.5102 13.135-79.5102L35.7158-79.5102C36.9475-79.5102 37.9739-78.5865 38.0766-77.4575C38.1792-76.1232 37.1528-74.994 35.8185-74.994L13.0323-74.994Z"/>
  </g>
  <g id="Regular-S" transform="matrix(1 0 0 1 1427.43 696)">
   <path class="monochrome-0 multicolor-0:tintColor hierarchical-0:tertiary SFSymbolsPreviewWireframe" d="M15.6266-7.68413L28.4445-7.68413L28.4445 2.83803C28.4445 6.37729 25.5748 9.24696 22.0356 9.24696C18.4962 9.24696 15.6266 6.37729 15.6266 2.83803L15.6266-7.68413Z"/>
   <path class="monochrome-1 multicolor-1:tintColor hierarchical-1:secondary SFSymbolsPreviewWireframe" d="M6.06098-59.8166C4.24352-58.3817 3-56.1817 3-53.6947C3-49.4857 6.44362-46.0422 10.6525-46.0422L33.4186-46.0422C37.6275-46.0422 41.071-49.4857 41.071-53.6947C41.071-56.1817 39.8275-58.3817 38.01-59.8166L38.01-62.1124L38.01-73.878L38.01-75.5042L38.01-75.5998L38.01-75.5998C37.9144-77.9912 35.9057-80 33.5143-80L10.6525-80C8.16542-80 6.15665-78.0868 6.15665-75.5998L6.15665-75.5998L6.15665-75.4085L6.15665-73.7823L6.15665-62.0167L6.15665-59.8166L6.06098-59.8166ZM10.6525-9.58743C6.44362-9.58743 3-12.9354 3-17.1442L3-47.9455C4.72181-45.6497 7.49582-44.1192 10.6525-44.1192L33.323-44.1192C36.4795-44.1192 39.2535-45.6497 40.9754-47.9455L40.9754-17.2399C40.9754-13.031 37.5318-9.58743 33.323-9.58743L27.3923-9.58743L16.5831-9.58743L10.6525-9.58743Z"/>
   <path class="monochrome-2 multicolor-2:tintColor hierarchical-2:primary SFSymbolsPreviewWireframe" d="M10.6525-78.0868L33.4186-78.0868C34.8535-78.0868 36.097-76.939 36.097-75.4085L36.097-73.7823C36.097-72.3475 34.949-71.104 33.4186-71.104L10.6525-71.104C9.21763-71.104 7.97411-72.2518 7.97411-73.7823L7.97411-75.5042C7.97411-76.939 9.21763-78.0868 10.6525-78.0868Z"/>
   <path class="monochrome-3 multicolor-3:systemBlueColor hierarchical-3:primary SFSymbolsPreviewWireframe" d="M22.2124-17.0688C26.5557-17.0688 29.7017-19.8039 29.8425-23.6777L25.7105-23.6777C25.464-21.8582 24.0788-20.6608 22.2241-20.6608C19.8529-20.6608 18.409-22.7034 18.409-26.0137C18.409-29.3122 19.8529-31.3313 22.2124-31.3313C24.0671-31.3313 25.464-30.087 25.687-28.244L29.8308-28.244C29.7017-32.0826 26.4735-34.9234 22.2124-34.9234C17.1295-34.9234 14.0187-31.5309 14.0187-26.0019C14.0187-20.473 17.1412-17.0688 22.2124-17.0688Z"/>
   <path class="monochrome-4 multicolor-4:custom hierarchical-4:primary SFSymbolsPreviewWireframe" d="M7.97411-70.1474C8.73936-69.5735 9.60026-69.2866 10.6525-69.2866L33.4186-69.2866C34.3751-69.2866 35.3317-69.5735 36.097-70.1474L36.097-54.1729C36.097-52.2598 34.5665-50.7293 32.6533-50.7293L11.4177-50.7293C9.5046-50.7293 7.97411-52.2598 7.97411-54.1729L7.97411-70.1474Z"/>
   <path class="monochrome-2 monochrome-4 multicolor-2:tintColor multicolor-4:custom hierarchical-2:primary hierarchical-4:primary SFSymbolsPreviewWireframe" d="M11.4177-72.5388C10.1742-72.5388 9.21763-73.5911 9.3133-74.8346C9.40895-75.9825 10.4612-76.7477 11.5134-76.7477L32.5577-76.7477C33.7055-76.7477 34.6621-75.8868 34.7578-74.8346C34.8535-73.5911 33.8968-72.5388 32.6533-72.5388L11.4177-72.5388Z"/>
  </g>
  <g id="Ultralight-S" transform="matrix(1 0 0 1 538.184 696)">
   <path class="monochrome-0 multicolor-0:tintColor hierarchical-0:tertiary SFSymbolsPreviewWireframe" d="M16.1646-10.0874L27.8475-10.0874L27.8475-0.496942C27.8475 2.72894 25.2319 5.34451 22.0061 5.34451C18.7801 5.34451 16.1646 2.72894 16.1646-0.496942L16.1646-10.0874Z"/>
   <path class="monochrome-1 multicolor-1:tintColor hierarchical-1:secondary SFSymbolsPreviewWireframe" d="M7.44597-57.6037C5.78944-56.2959 4.65603-54.2907 4.65603-52.0239C4.65603-48.1876 7.79472-45.049 11.6309-45.049L32.3812-45.049C36.2174-45.049 39.356-48.1876 39.356-52.0239C39.356-54.2907 38.2226-56.2959 36.5661-57.6037L36.5661-59.6963L36.5661-70.4201L36.5661-71.9022L36.5661-71.9894L36.5661-71.9894C36.4789-74.1691 34.648-76 32.4684-76L11.6309-76C9.36407-76 7.53317-74.2562 7.53317-71.9894L7.53317-71.9894L7.53317-71.8151L7.53317-70.3329L7.53317-59.6091L7.53317-57.6037L7.44597-57.6037ZM11.6309-11.8222C7.79472-11.8222 4.65603-14.8737 4.65603-18.7098L4.65603-46.7838C6.22538-44.6913 8.75376-43.2963 11.6309-43.2963L32.294-43.2963C35.1711-43.2963 37.6995-44.6913 39.2688-46.7838L39.2688-18.797C39.2688-14.9609 36.1302-11.8222 32.294-11.8222L26.8885-11.8222L17.0364-11.8222L11.6309-11.8222Z"/>
   <path class="monochrome-2 multicolor-2:tintColor hierarchical-2:primary SFSymbolsPreviewWireframe" d="M11.6309-74.2562L32.3812-74.2562C33.689-74.2562 34.8224-73.21 34.8224-71.8151L34.8224-70.3329C34.8224-69.0251 33.7761-67.8917 32.3812-67.8917L11.6309-67.8917C10.3231-67.8917 9.1897-68.9379 9.1897-70.3329L9.1897-71.9022C9.1897-73.21 10.3231-74.2562 11.6309-74.2562Z"/>
   <path class="monochrome-3 multicolor-3:systemBlueColor hierarchical-3:primary SFSymbolsPreviewWireframe" d="M22.1672-18.6411C26.1259-18.6411 28.9934-21.134 29.1217-24.6648L25.3556-24.6648C25.1309-23.0064 23.8684-21.9151 22.1779-21.9151C20.0166-21.9151 18.7006-23.7767 18.7006-26.7939C18.7006-29.8004 20.0166-31.6407 22.1672-31.6407C23.8577-31.6407 25.1309-30.5066 25.3342-28.8268L29.111-28.8268C28.9934-32.3255 26.0511-34.9147 22.1672-34.9147C17.5344-34.9147 14.6991-31.8226 14.6991-26.7832C14.6991-21.7439 17.5451-18.6411 22.1672-18.6411Z"/>
   <path class="monochrome-4 multicolor-4:custom hierarchical-4:primary SFSymbolsPreviewWireframe" d="M9.1897-67.0199C9.88719-66.4967 10.6719-66.2352 11.6309-66.2352L32.3812-66.2352C33.253-66.2352 34.1249-66.4967 34.8224-67.0199L34.8224-52.4598C34.8224-50.7161 33.4274-49.3211 31.6837-49.3211L12.3284-49.3211C10.5847-49.3211 9.1897-50.7161 9.1897-52.4598L9.1897-67.0199Z"/>
   <path class="monochrome-2 monochrome-4 multicolor-2:tintColor multicolor-4:custom hierarchical-2:primary hierarchical-4:primary SFSymbolsPreviewWireframe" d="M12.3284-69.1995C11.195-69.1995 10.3231-70.1586 10.4103-71.292C10.4975-72.3382 11.4566-73.0357 12.4156-73.0357L31.5965-73.0357C32.6427-73.0357 33.5146-72.251 33.6018-71.292C33.689-70.1586 32.8171-69.1995 31.6837-69.1995L12.3284-69.1995Z"/>
  </g>
 </g>
</svg>
