<?xml version="1.0" encoding="UTF-8"?>
<!--Generator: Apple Native CoreSVG 341-->
<!DOCTYPE svg
PUBLIC "-//W3C//DTD SVG 1.1//EN"
       "http://www.w3.org/Graphics/SVG/1.1/DTD/svg11.dtd">
<svg version="1.1" xmlns="http://www.w3.org/2000/svg" xmlns:xlink="http://www.w3.org/1999/xlink" viewBox="0 0 3300 2200">
 <g id="Notes">
  <rect height="2200" id="artboard" style="fill:white;opacity:1" width="3300" x="0" y="0"/>
  <line style="fill:none;stroke:black;opacity:1;stroke-width:0.5;" x1="263" x2="3036" y1="292" y2="292"/>
  <text style="stroke:none;fill:black;font-family:sans-serif;font-size:13;font-weight:bold;" transform="matrix(1 0 0 1 263 322)">Weight/Scale Variations</text>
  <text style="stroke:none;fill:black;font-family:sans-serif;font-size:13;text-anchor:middle;" transform="matrix(1 0 0 1 559.711 322)">Ultralight</text>
  <text style="stroke:none;fill:black;font-family:sans-serif;font-size:13;text-anchor:middle;" transform="matrix(1 0 0 1 856.422 322)">Thin</text>
  <text style="stroke:none;fill:black;font-family:sans-serif;font-size:13;text-anchor:middle;" transform="matrix(1 0 0 1 1153.13 322)">Light</text>
  <text style="stroke:none;fill:black;font-family:sans-serif;font-size:13;text-anchor:middle;" transform="matrix(1 0 0 1 1449.84 322)">Regular</text>
  <text style="stroke:none;fill:black;font-family:sans-serif;font-size:13;text-anchor:middle;" transform="matrix(1 0 0 1 1746.56 322)">Medium</text>
  <text style="stroke:none;fill:black;font-family:sans-serif;font-size:13;text-anchor:middle;" transform="matrix(1 0 0 1 2043.27 322)">Semibold</text>
  <text style="stroke:none;fill:black;font-family:sans-serif;font-size:13;text-anchor:middle;" transform="matrix(1 0 0 1 2339.98 322)">Bold</text>
  <text style="stroke:none;fill:black;font-family:sans-serif;font-size:13;text-anchor:middle;" transform="matrix(1 0 0 1 2636.69 322)">Heavy</text>
  <text style="stroke:none;fill:black;font-family:sans-serif;font-size:13;text-anchor:middle;" transform="matrix(1 0 0 1 2933.4 322)">Black</text>
  <line style="fill:none;stroke:black;opacity:1;stroke-width:0.5;" x1="263" x2="3036" y1="1903" y2="1903"/>
  <g transform="matrix(0.2 0 0 0.2 263 1933)">
   <path d="m46.2402 4.15039c21.7773 0 39.4531-17.627 39.4531-39.4043s-17.6758-39.4043-39.4531-39.4043c-21.7285 0-39.4043 17.627-39.4043 39.4043s17.6758 39.4043 39.4043 39.4043Zm0-7.42188c-17.6758 0-31.9336-14.3066-31.9336-31.9824s14.2578-31.9824 31.9336-31.9824 31.9824 14.3066 31.9824 31.9824-14.3066 31.9824-31.9824 31.9824Zm3.61328-17.7734v-28.4668c0-2.24609-1.46484-3.75977-3.71094-3.75977-2.14844 0-3.61328 1.51367-3.61328 3.75977v28.4668c0 2.19727 1.46484 3.71094 3.61328 3.71094 2.24609 0 3.71094-1.51367 3.71094-3.71094Zm-17.8223-10.5957h28.418c2.19727 0 3.71094-1.46484 3.71094-3.61328 0-2.19727-1.51367-3.71094-3.71094-3.71094h-28.418c-2.24609 0-3.75977 1.51367-3.75977 3.71094 0 2.14844 1.51367 3.61328 3.75977 3.61328Z"/>
  </g>
  <g transform="matrix(0.2 0 0 0.2 281.506 1933)">
   <path d="m58.5449 14.5508c27.4902 0 49.8047-22.3145 49.8047-49.8047s-22.3145-49.8047-49.8047-49.8047-49.8047 22.3145-49.8047 49.8047 22.3145 49.8047 49.8047 49.8047Zm0-8.30078c-22.9492 0-41.5039-18.5547-41.5039-41.5039s18.5547-41.5039 41.5039-41.5039 41.5039 18.5547 41.5039 41.5039-18.5547 41.5039-41.5039 41.5039Zm4.05273-23.0957v-36.9141c0-2.49023-1.70898-4.19922-4.15039-4.19922-2.39258 0-4.05273 1.70898-4.05273 4.19922v36.9141c0 2.44141 1.66016 4.15039 4.05273 4.15039 2.44141 0 4.15039-1.66016 4.15039-4.15039Zm-22.5586-14.4043h36.9629c2.44141 0 4.15039-1.61133 4.15039-4.00391 0-2.44141-1.70898-4.15039-4.15039-4.15039h-36.9629c-2.49023 0-4.15039 1.70898-4.15039 4.15039 0 2.39258 1.66016 4.00391 4.15039 4.00391Z"/>
  </g>
  <g transform="matrix(0.2 0 0 0.2 304.924 1933)">
   <path d="m74.8535 28.3203c35.1074 0 63.623-28.4668 63.623-63.5742s-28.5156-63.623-63.623-63.623-63.5742 28.5156-63.5742 63.623 28.4668 63.5742 63.5742 63.5742Zm0-9.08203c-30.127 0-54.4922-24.3652-54.4922-54.4922s24.3652-54.4922 54.4922-54.4922 54.4922 24.3652 54.4922 54.4922-24.3652 54.4922-54.4922 54.4922Zm4.44336-30.3223v-48.4863c0-2.73438-1.85547-4.63867-4.54102-4.63867-2.58789 0-4.44336 1.9043-4.44336 4.63867v48.4863c0 2.68555 1.85547 4.58984 4.44336 4.58984 2.68555 0 4.54102-1.85547 4.54102-4.58984Zm-28.7109-19.7754h48.4863c2.68555 0 4.58984-1.80664 4.58984-4.39453 0-2.73438-1.85547-4.58984-4.58984-4.58984h-48.4863c-2.73438 0-4.58984 1.85547-4.58984 4.58984 0 2.58789 1.85547 4.39453 4.58984 4.39453Z"/>
  </g>
  <text style="stroke:none;fill:black;font-family:sans-serif;font-size:13;font-weight:bold;" transform="matrix(1 0 0 1 263 1953)">Design Variations</text>
  <text style="stroke:none;fill:black;font-family:sans-serif;font-size:13;" transform="matrix(1 0 0 1 263 1971)">Symbols are supported in up to nine weights and three scales.</text>
  <text style="stroke:none;fill:black;font-family:sans-serif;font-size:13;" transform="matrix(1 0 0 1 263 1989)">For optimal layout with text and other symbols, vertically align</text>
  <text style="stroke:none;fill:black;font-family:sans-serif;font-size:13;" transform="matrix(1 0 0 1 263 2007)">symbols with the adjacent text.</text>
  <line style="fill:none;stroke:#00AEEF;stroke-width:0.5;opacity:1.0;" x1="776" x2="776" y1="1919" y2="1933"/>
  <g transform="matrix(0.2 0 0 0.2 776 1933)">
   <path d="m16.5527 0.78125c2.58789 0 3.85742-0.976562 4.78516-3.71094l20.5566-57.5195h0.244141l20.6055 57.5195c0.927734 2.73438 2.19727 3.71094 4.73633 3.71094 2.58789 0 4.24805-1.5625 4.24805-4.00391 0-0.830078-0.146484-1.61133-0.537109-2.63672l-22.9004-60.9863c-1.12305-2.97852-3.125-4.49219-6.25-4.49219-3.02734 0-5.07812 1.46484-6.15234 4.44336l-22.9004 61.084c-0.390625 1.02539-0.537109 1.80664-0.537109 2.63672 0 2.44141 1.5625 3.95508 4.10156 3.95508Zm10.2051-20.9473h30.6641c2.00195 0 3.66211-1.66016 3.66211-3.66211 0-2.05078-1.66016-3.66211-3.66211-3.66211h-30.6641c-2.00195 0-3.66211 1.61133-3.66211 3.66211 0 2.00195 1.66016 3.66211 3.66211 3.66211Z"/>
  </g>
  <line style="fill:none;stroke:#00AEEF;stroke-width:0.5;opacity:1.0;" x1="792.836" x2="792.836" y1="1919" y2="1933"/>
  <text style="stroke:none;fill:black;font-family:sans-serif;font-size:13;font-weight:bold;" transform="matrix(1 0 0 1 776 1953)">Margins</text>
  <text style="stroke:none;fill:black;font-family:sans-serif;font-size:13;" transform="matrix(1 0 0 1 776 1971)">Leading and trailing margins on the left and right side of each symbol</text>
  <text style="stroke:none;fill:black;font-family:sans-serif;font-size:13;" transform="matrix(1 0 0 1 776 1989)">can be adjusted by modifying the x-location of the margin guidelines.</text>
  <text style="stroke:none;fill:black;font-family:sans-serif;font-size:13;" transform="matrix(1 0 0 1 776 2007)">Modifications are automatically applied proportionally to all</text>
  <text style="stroke:none;fill:black;font-family:sans-serif;font-size:13;" transform="matrix(1 0 0 1 776 2025)">scales and weights.</text>
  <g transform="matrix(0.2 0 0 0.2 1289 1933)">
   <path d="m14.209 13.1348 7.86133 7.86133c4.29688 4.39453 9.32617 4.10156 13.8672-1.02539l60.6934-68.2129-4.88281-4.88281-60.2539 67.6758c-1.80664 1.95312-3.4668 2.44141-5.81055 0.0976562l-5.17578-5.12695c-2.29492-2.29492-1.80664-3.95508 0.195312-5.81055l67.4805-62.1582-4.88281-4.83398-68.0664 62.5977c-4.98047 4.58984-5.32227 9.47266-1.02539 13.8184Zm44.873-97.4609c-2.05078 2.00195-2.24609 4.88281-1.07422 6.78711 1.12305 1.80664 3.4668 3.02734 6.5918 2.24609 5.85938-1.66016 12.5977-2.39258 18.8965 0.927734l-2.68555 7.12891c-1.61133 4.00391-0.732422 6.88477 1.70898 9.42383l10.2539 10.3027c2.34375 2.39258 4.54102 2.44141 7.08008 1.95312l4.44336-0.732422 2.58789 2.53906-0.195312 2.24609c-0.0976562 2.29492 0.537109 4.29688 2.7832 6.49414l3.36914 3.32031c2.29492 2.29492 5.51758 2.49023 7.8125 0.195312l12.9883-13.0371c2.29492-2.34375 2.14844-5.37109-0.195312-7.66602l-3.41797-3.41797c-2.19727-2.19727-4.05273-3.02734-6.34766-2.88086l-2.34375 0.244141-2.44141-2.44141 1.02539-4.6875c0.634766-2.73438-0.244141-4.98047-2.88086-7.61719l-11.2793-11.1816c-12.9395-12.8418-35.5957-11.0352-46.6797-0.146484Zm7.08008 2.05078c8.78906-6.39648 25.9766-5.66406 33.6914 1.95312l12.3047 12.207c1.02539 1.02539 1.2207 1.80664 0.927734 3.32031l-1.46484 6.64062 6.73828 6.68945 4.39453-0.244141c1.12305-0.0488281 1.51367 0.0488281 2.34375 0.878906l2.53906 2.49023-10.8398 10.8398-2.49023-2.49023c-0.830078-0.878906-0.976562-1.2207-0.927734-2.39258l0.292969-4.3457-6.68945-6.73828-6.83594 1.17188c-1.41602 0.292969-2.05078 0.195312-3.17383-0.878906l-8.93555-8.88672c-1.07422-1.02539-1.17188-1.70898-0.488281-3.36914l4.58984-11.4746c-6.10352-6.34766-17.041-7.51953-25.5859-4.58984-0.683594 0.244141-0.927734-0.390625-0.390625-0.78125Z"/>
  </g>
  <text style="stroke:none;fill:black;font-family:sans-serif;font-size:13;font-weight:bold;" transform="matrix(1 0 0 1 1289 1953)">Exporting</text>
  <text style="stroke:none;fill:black;font-family:sans-serif;font-size:13;" transform="matrix(1 0 0 1 1289 1971)">Symbols should be outlined when exporting to ensure the</text>
  <text style="stroke:none;fill:black;font-family:sans-serif;font-size:13;" transform="matrix(1 0 0 1 1289 1989)">design is preserved when submitting to Xcode.</text>
  <text id="template-version" style="stroke:none;fill:black;font-family:sans-serif;font-size:13;text-anchor:end;" transform="matrix(1 0 0 1 3036 1933)">Template v.2.0</text>
  <text style="stroke:none;fill:black;font-family:sans-serif;font-size:13;text-anchor:end;" transform="matrix(1 0 0 1 3036 1951)">Requires Xcode 12 or greater</text>
  <text id="descriptive-name" style="stroke:none;fill:black;font-family:sans-serif;font-size:13;text-anchor:end;" transform="matrix(1 0 0 1 3036 1969)">Generated from ethernet.legacy</text>
  <text style="stroke:none;fill:black;font-family:sans-serif;font-size:13;text-anchor:end;" transform="matrix(1 0 0 1 3036 1987)">Typeset at 100.0 points</text>
  <text style="stroke:none;fill:black;font-family:sans-serif;font-size:13;" transform="matrix(1 0 0 1 263 726)">Small</text>
  <text style="stroke:none;fill:black;font-family:sans-serif;font-size:13;" transform="matrix(1 0 0 1 263 1156)">Medium</text>
  <text style="stroke:none;fill:black;font-family:sans-serif;font-size:13;" transform="matrix(1 0 0 1 263 1586)">Large</text>
 </g>
 <g id="Guides">
  <g id="H-reference" style="fill:#27AAE1;stroke:none;" transform="matrix(1 0 0 1 339 696)">
   <path d="M0.993654 0L3.63775 0L29.3281-67.1323L30.0303-67.1323L30.0303-70.459L28.1226-70.459ZM11.6885-24.4799L46.9815-24.4799L46.2315-26.7285L12.4385-26.7285ZM55.1196 0L57.7637 0L30.6382-70.459L29.4326-70.459L29.4326-67.1323Z"/>
  </g>
  <line id="Baseline-S" style="fill:none;stroke:#27AAE1;opacity:1;stroke-width:0.5;" x1="263" x2="3036" y1="696" y2="696"/>
  <line id="Capline-S" style="fill:none;stroke:#27AAE1;opacity:1;stroke-width:0.5;" x1="263" x2="3036" y1="625.541" y2="625.541"/>
  <g id="H-reference" style="fill:#27AAE1;stroke:none;" transform="matrix(1 0 0 1 339 1126)">
   <path d="M0.993654 0L3.63775 0L29.3281-67.1323L30.0303-67.1323L30.0303-70.459L28.1226-70.459ZM11.6885-24.4799L46.9815-24.4799L46.2315-26.7285L12.4385-26.7285ZM55.1196 0L57.7637 0L30.6382-70.459L29.4326-70.459L29.4326-67.1323Z"/>
  </g>
  <line id="Baseline-M" style="fill:none;stroke:#27AAE1;opacity:1;stroke-width:0.5;" x1="263" x2="3036" y1="1126" y2="1126"/>
  <line id="Capline-M" style="fill:none;stroke:#27AAE1;opacity:1;stroke-width:0.5;" x1="263" x2="3036" y1="1055.54" y2="1055.54"/>
  <g id="H-reference" style="fill:#27AAE1;stroke:none;" transform="matrix(1 0 0 1 339 1556)">
   <path d="M0.993654 0L3.63775 0L29.3281-67.1323L30.0303-67.1323L30.0303-70.459L28.1226-70.459ZM11.6885-24.4799L46.9815-24.4799L46.2315-26.7285L12.4385-26.7285ZM55.1196 0L57.7637 0L30.6382-70.459L29.4326-70.459L29.4326-67.1323Z"/>
  </g>
  <line id="Baseline-L" style="fill:none;stroke:#27AAE1;opacity:1;stroke-width:0.5;" x1="263" x2="3036" y1="1556" y2="1556"/>
  <line id="Capline-L" style="fill:none;stroke:#27AAE1;opacity:1;stroke-width:0.5;" x1="263" x2="3036" y1="1485.54" y2="1485.54"/>
  <line id="right-margin" style="fill:none;stroke:#00AEEF;stroke-width:0.5;opacity:1.0;" x1="1508.37" x2="1508.37" y1="1030.79" y2="1150.12"/>
  <line id="left-margin" style="fill:none;stroke:#00AEEF;stroke-width:0.5;opacity:1.0;" x1="1391.32" x2="1391.32" y1="1030.79" y2="1150.12"/>
 </g>
 <g id="Symbols">
  <g id="Black-L" transform="matrix(1 0 0 1 2854.19 1556)">
   <path d="M49.9948-30.5325C48.4927-30.5325 47.114-30.9051 45.8585-31.6504C44.6029-32.3957 43.6026-33.3961 42.8573-34.6516C42.112-35.9071 41.7394-37.2859 41.7394-38.7879C41.7394-40.3128 42.112-41.6973 42.8573-42.9414C43.6026-44.1854 44.6029-45.1801 45.8585-45.9254C47.114-46.6706 48.4927-47.0433 49.9948-47.0433C51.5083-47.0433 52.8899-46.6706 54.1397-45.9254C55.3894-45.1801 56.3869-44.1854 57.1322-42.9414C57.8775-41.6973 58.2501-40.3128 58.2501-38.7879C58.2501-37.2859 57.8775-35.9071 57.1322-34.6516C56.3869-33.3961 55.3894-32.3957 54.1397-31.6504C52.8899-30.9051 51.5083-30.5325 49.9948-30.5325ZM80.5741-30.5325C79.0721-30.5325 77.6933-30.9051 76.4378-31.6504C75.1823-32.3957 74.1819-33.3961 73.4366-34.6516C72.6914-35.9071 72.3187-37.2859 72.3187-38.7879C72.3187-40.3128 72.6914-41.6973 73.4366-42.9414C74.1819-44.1854 75.1823-45.1801 76.4378-45.9254C77.6933-46.6706 79.0721-47.0433 80.5741-47.0433C82.0876-47.0433 83.4692-46.6706 84.719-45.9254C85.9688-45.1801 86.9663-44.1854 87.7116-42.9414C88.4569-41.6973 88.8295-40.3128 88.8295-38.7879C88.8295-37.2859 88.4569-35.9071 87.7116-34.6516C86.9663-33.3961 85.9688-32.3957 84.719-31.6504C83.4692-30.9051 82.0876-30.5325 80.5741-30.5325ZM111.153-30.5325C109.651-30.5325 108.273-30.9051 107.017-31.6504C105.762-32.3957 104.761-33.3961 104.016-34.6516C103.271-35.9071 102.898-37.2859 102.898-38.7879C102.898-40.3128 103.271-41.6973 104.016-42.9414C104.761-44.1854 105.762-45.1801 107.017-45.9254C108.273-46.6706 109.651-47.0433 111.153-47.0433C112.667-47.0433 114.049-46.6706 115.298-45.9254C116.548-45.1801 117.546-44.1854 118.291-42.9414C119.036-41.6973 119.409-40.3128 119.409-38.7879C119.409-37.2859 119.036-35.9071 118.291-34.6516C117.546-33.3961 116.548-32.3957 115.298-31.6504C114.049-30.9051 112.667-30.5325 111.153-30.5325ZM22.0413-35.6946L52.9662 2.96151L44.6952 9.57835L11.4911-31.9267L8.47681-35.6946L11.4911-39.4625L44.6952-80.9675L52.9662-74.3507L22.0413-35.6946ZM147.646-39.4625L150.66-35.6946L147.646-31.9267L114.442 9.57835L106.17 2.96151L137.095-35.6946L106.17-74.3507L114.442-80.9675L147.646-39.4625Z"/>
  </g>
  <g id="Heavy-L" transform="matrix(1 0 0 1 2558.42 1556)">
   <path d="M48.9533-30.5325C47.4513-30.5325 46.0726-30.9051 44.8171-31.6504C43.5615-32.3957 42.5612-33.3961 41.8159-34.6516C41.0706-35.9071 40.698-37.2859 40.698-38.7879C40.698-40.3128 41.0706-41.6973 41.8159-42.9414C42.5612-44.1854 43.5615-45.1801 44.8171-45.9254C46.0726-46.6706 47.4513-47.0433 48.9533-47.0433C50.4668-47.0433 51.8485-46.6706 53.0982-45.9254C54.348-45.1801 55.3455-44.1854 56.0908-42.9414C56.8361-41.6973 57.2087-40.3128 57.2087-38.7879C57.2087-37.2859 56.8361-35.9071 56.0908-34.6516C55.3455-33.3961 54.348-32.3957 53.0982-31.6504C51.8485-30.9051 50.4668-30.5325 48.9533-30.5325ZM79.5327-30.5325C78.0307-30.5325 76.6519-30.9051 75.3964-31.6504C74.1409-32.3957 73.1405-33.3961 72.3952-34.6516C71.6499-35.9071 71.2773-37.2859 71.2773-38.7879C71.2773-40.3128 71.6499-41.6973 72.3952-42.9414C73.1405-44.1854 74.1409-45.1801 75.3964-45.9254C76.6519-46.6706 78.0307-47.0433 79.5327-47.0433C81.0462-47.0433 82.4278-46.6706 83.6776-45.9254C84.9274-45.1801 85.9249-44.1854 86.6702-42.9414C87.4155-41.6973 87.7881-40.3128 87.7881-38.7879C87.7881-37.2859 87.4155-35.9071 86.6702-34.6516C85.9249-33.3961 84.9274-32.3957 83.6776-31.6504C82.4278-30.9051 81.0462-30.5325 79.5327-30.5325ZM110.112-30.5325C108.61-30.5325 107.231-30.9051 105.976-31.6504C104.72-32.3957 103.72-33.3961 102.975-34.6516C102.229-35.9071 101.857-37.2859 101.857-38.7879C101.857-40.3128 102.229-41.6973 102.975-42.9414C103.72-44.1854 104.72-45.1801 105.976-45.9254C107.231-46.6706 108.61-47.0433 110.112-47.0433C111.626-47.0433 113.007-46.6706 114.257-45.9254C115.507-45.1801 116.504-44.1854 117.25-42.9414C117.995-41.6973 118.367-40.3128 118.367-38.7879C118.367-37.2859 117.995-35.9071 117.25-34.6516C116.504-33.3961 115.507-32.3957 114.257-31.6504C113.007-30.9051 111.626-30.5325 110.112-30.5325ZM20.9999-35.6946L51.9248 2.96151L43.6537 9.57835L10.4497-31.9267L7.4354-35.6946L10.4497-39.4625L43.6537-80.9675L51.9248-74.3507L20.9999-35.6946ZM146.604-39.4625L149.618-35.6946L146.604-31.9267L113.4 9.57835L105.129 2.96151L136.054-35.6946L105.129-74.3507L113.4-80.9675L146.604-39.4625Z"/>
  </g>
  <g id="Bold-L" transform="matrix(1 0 0 1 2262.89 1556)">
   <path d="M47.6705-30.5325C46.1685-30.5325 44.7897-30.9051 43.5342-31.6504C42.2787-32.3957 41.2783-33.3961 40.533-34.6516C39.7877-35.9071 39.4151-37.2859 39.4151-38.7879C39.4151-40.3128 39.7877-41.6973 40.533-42.9414C41.2783-44.1854 42.2787-45.1801 43.5342-45.9254C44.7897-46.6706 46.1685-47.0433 47.6705-47.0433C49.184-47.0433 50.5656-46.6706 51.8154-45.9254C53.0652-45.1801 54.0627-44.1854 54.808-42.9414C55.5533-41.6973 55.9259-40.3128 55.9259-38.7879C55.9259-37.2859 55.5533-35.9071 54.808-34.6516C54.0627-33.3961 53.0652-32.3957 51.8154-31.6504C50.5656-30.9051 49.184-30.5325 47.6705-30.5325ZM78.2499-30.5325C76.7478-30.5325 75.3691-30.9051 74.1136-31.6504C72.858-32.3957 71.8577-33.3961 71.1124-34.6516C70.3671-35.9071 69.9945-37.2859 69.9945-38.7879C69.9945-40.3128 70.3671-41.6973 71.1124-42.9414C71.8577-44.1854 72.858-45.1801 74.1136-45.9254C75.3691-46.6706 76.7478-47.0433 78.2499-47.0433C79.7633-47.0433 81.145-46.6706 82.3947-45.9254C83.6445-45.1801 84.642-44.1854 85.3873-42.9414C86.1326-41.6973 86.5052-40.3128 86.5052-38.7879C86.5052-37.2859 86.1326-35.9071 85.3873-34.6516C84.642-33.3961 83.6445-32.3957 82.3947-31.6504C81.145-30.9051 79.7633-30.5325 78.2499-30.5325ZM108.829-30.5325C107.327-30.5325 105.948-30.9051 104.693-31.6504C103.437-32.3957 102.437-33.3961 101.692-34.6516C100.946-35.9071 100.574-37.2859 100.574-38.7879C100.574-40.3128 100.946-41.6973 101.692-42.9414C102.437-44.1854 103.437-45.1801 104.693-45.9254C105.948-46.6706 107.327-47.0433 108.829-47.0433C110.343-47.0433 111.724-46.6706 112.974-45.9254C114.224-45.1801 115.221-44.1854 115.967-42.9414C116.712-41.6973 117.085-40.3128 117.085-38.7879C117.085-37.2859 116.712-35.9071 115.967-34.6516C115.221-33.3961 114.224-32.3957 112.974-31.6504C111.724-30.9051 110.343-30.5325 108.829-30.5325ZM19.7171-35.6946L50.6419 2.96151L42.3709 9.57835L9.16689-31.9267L6.15255-35.6946L9.16689-39.4625L42.3709-80.9675L50.6419-74.3507L19.7171-35.6946ZM145.321-39.4625L148.336-35.6946L145.321-31.9267L112.117 9.57835L103.846 2.96151L134.771-35.6946L103.846-74.3507L112.117-80.9675L145.321-39.4625Z"/>
  </g>
  <g id="Semibold-L" transform="matrix(1 0 0 1 1966.99 1556)">
   <path d="M46.7861-30.5325C45.2841-30.5325 43.9053-30.9051 42.6498-31.6504C41.3943-32.3957 40.3939-33.3961 39.6486-34.6516C38.9033-35.9071 38.5307-37.2859 38.5307-38.7879C38.5307-40.3128 38.9033-41.6973 39.6486-42.9414C40.3939-44.1854 41.3943-45.1801 42.6498-45.9254C43.9053-46.6706 45.2841-47.0433 46.7861-47.0433C48.2996-47.0433 49.6812-46.6706 50.931-45.9254C52.1808-45.1801 53.1783-44.1854 53.9236-42.9414C54.6689-41.6973 55.0415-40.3128 55.0415-38.7879C55.0415-37.2859 54.6689-35.9071 53.9236-34.6516C53.1783-33.3961 52.1808-32.3957 50.931-31.6504C49.6812-30.9051 48.2996-30.5325 46.7861-30.5325ZM77.3655-30.5325C75.8634-30.5325 74.4847-30.9051 73.2292-31.6504C71.9737-32.3957 70.9733-33.3961 70.228-34.6516C69.4827-35.9071 69.1101-37.2859 69.1101-38.7879C69.1101-40.3128 69.4827-41.6973 70.228-42.9414C70.9733-44.1854 71.9737-45.1801 73.2292-45.9254C74.4847-46.6706 75.8634-47.0433 77.3655-47.0433C78.879-47.0433 80.2606-46.6706 81.5104-45.9254C82.7601-45.1801 83.7577-44.1854 84.5029-42.9414C85.2482-41.6973 85.6209-40.3128 85.6209-38.7879C85.6209-37.2859 85.2482-35.9071 84.5029-34.6516C83.7577-33.3961 82.7601-32.3957 81.5104-31.6504C80.2606-30.9051 78.879-30.5325 77.3655-30.5325ZM107.945-30.5325C106.443-30.5325 105.064-30.9051 103.809-31.6504C102.553-32.3957 101.553-33.3961 100.807-34.6516C100.062-35.9071 99.6894-37.2859 99.6894-38.7879C99.6894-40.3128 100.062-41.6973 100.807-42.9414C101.553-44.1854 102.553-45.1801 103.809-45.9254C105.064-46.6706 106.443-47.0433 107.945-47.0433C109.458-47.0433 110.84-46.6706 112.09-45.9254C113.339-45.1801 114.337-44.1854 115.082-42.9414C115.828-41.6973 116.2-40.3128 116.2-38.7879C116.2-37.2859 115.828-35.9071 115.082-34.6516C114.337-33.3961 113.339-32.3957 112.09-31.6504C110.84-30.9051 109.458-30.5325 107.945-30.5325ZM18.8327-35.6946L49.7576 2.96151L41.4865 9.57835L8.2825-31.9267L5.26816-35.6946L8.2825-39.4625L41.4865-80.9675L49.7576-74.3507L18.8327-35.6946ZM144.437-39.4625L147.451-35.6946L144.437-31.9267L111.233 9.57835L102.962 2.96151L133.887-35.6946L102.962-74.3507L111.233-80.9675L144.437-39.4625Z"/>
  </g>
  <g id="Medium-L" transform="matrix(1 0 0 1 1670.89 1556)">
   <path d="M46.1155-30.5325C44.6135-30.5325 43.2347-30.9051 41.9792-31.6504C40.7237-32.3957 39.7233-33.3961 38.9781-34.6516C38.2328-35.9071 37.8601-37.2859 37.8601-38.7879C37.8601-40.3128 38.2328-41.6973 38.9781-42.9414C39.7233-44.1854 40.7237-45.1801 41.9792-45.9254C43.2347-46.6706 44.6135-47.0433 46.1155-47.0433C47.629-47.0433 49.0106-46.6706 50.2604-45.9254C51.5102-45.1801 52.5077-44.1854 53.253-42.9414C53.9983-41.6973 54.3709-40.3128 54.3709-38.7879C54.3709-37.2859 53.9983-35.9071 53.253-34.6516C52.5077-33.3961 51.5102-32.3957 50.2604-31.6504C49.0106-30.9051 47.629-30.5325 46.1155-30.5325ZM76.6949-30.5325C75.1929-30.5325 73.8141-30.9051 72.5586-31.6504C71.3031-32.3957 70.3027-33.3961 69.5574-34.6516C68.8121-35.9071 68.4395-37.2859 68.4395-38.7879C68.4395-40.3128 68.8121-41.6973 69.5574-42.9414C70.3027-44.1854 71.3031-45.1801 72.5586-45.9254C73.8141-46.6706 75.1929-47.0433 76.6949-47.0433C78.2084-47.0433 79.59-46.6706 80.8398-45.9254C82.0896-45.1801 83.0871-44.1854 83.8324-42.9414C84.5776-41.6973 84.9503-40.3128 84.9503-38.7879C84.9503-37.2859 84.5776-35.9071 83.8324-34.6516C83.0871-33.3961 82.0896-32.3957 80.8398-31.6504C79.59-30.9051 78.2084-30.5325 76.6949-30.5325ZM107.274-30.5325C105.772-30.5325 104.393-30.9051 103.138-31.6504C101.882-32.3957 100.882-33.3961 100.137-34.6516C99.3915-35.9071 99.0188-37.2859 99.0188-38.7879C99.0188-40.3128 99.3915-41.6973 100.137-42.9414C100.882-44.1854 101.882-45.1801 103.138-45.9254C104.393-46.6706 105.772-47.0433 107.274-47.0433C108.788-47.0433 110.169-46.6706 111.419-45.9254C112.669-45.1801 113.666-44.1854 114.412-42.9414C115.157-41.6973 115.53-40.3128 115.53-38.7879C115.53-37.2859 115.157-35.9071 114.412-34.6516C113.666-33.3961 112.669-32.3957 111.419-31.6504C110.169-30.9051 108.788-30.5325 107.274-30.5325ZM18.1621-35.6946L49.087 2.96151L40.8159 9.57835L7.61192-31.9267L4.59758-35.6946L7.61192-39.4625L40.8159-80.9675L49.087-74.3507L18.1621-35.6946ZM143.766-39.4625L146.781-35.6946L143.766-31.9267L110.562 9.57835L102.291 2.96151L133.216-35.6946L102.291-74.3507L110.562-80.9675L143.766-39.4625Z"/>
  </g>
  <g id="Regular-L" transform="matrix(1 0 0 1 1374.99 1556)">
   <path d="M45.2409-30.5325C43.7388-30.5325 42.3601-30.9051 41.1046-31.6504C39.849-32.3957 38.8487-33.3961 38.1034-34.6516C37.3581-35.9071 36.9855-37.2859 36.9855-38.7879C36.9855-40.3128 37.3581-41.6973 38.1034-42.9414C38.8487-44.1854 39.849-45.1801 41.1046-45.9254C42.3601-46.6706 43.7388-47.0433 45.2409-47.0433C46.7544-47.0433 48.136-46.6706 49.3858-45.9254C50.6355-45.1801 51.633-44.1854 52.3783-42.9414C53.1236-41.6973 53.4962-40.3128 53.4962-38.7879C53.4962-37.2859 53.1236-35.9071 52.3783-34.6516C51.633-33.3961 50.6355-32.3957 49.3858-31.6504C48.136-30.9051 46.7544-30.5325 45.2409-30.5325ZM75.8202-30.5325C74.3182-30.5325 72.9394-30.9051 71.6839-31.6504C70.4284-32.3957 69.428-33.3961 68.6827-34.6516C67.9375-35.9071 67.5648-37.2859 67.5648-38.7879C67.5648-40.3128 67.9375-41.6973 68.6827-42.9414C69.428-44.1854 70.4284-45.1801 71.6839-45.9254C72.9394-46.6706 74.3182-47.0433 75.8202-47.0433C77.3337-47.0433 78.7153-46.6706 79.9651-45.9254C81.2149-45.1801 82.2124-44.1854 82.9577-42.9414C83.703-41.6973 84.0756-40.3128 84.0756-38.7879C84.0756-37.2859 83.703-35.9071 82.9577-34.6516C82.2124-33.3961 81.2149-32.3957 79.9651-31.6504C78.7153-30.9051 77.3337-30.5325 75.8202-30.5325ZM106.4-30.5325C104.898-30.5325 103.519-30.9051 102.263-31.6504C101.008-32.3957 100.007-33.3961 99.2621-34.6516C98.5168-35.9071 98.1442-37.2859 98.1442-38.7879C98.1442-40.3128 98.5168-41.6973 99.2621-42.9414C100.007-44.1854 101.008-45.1801 102.263-45.9254C103.519-46.6706 104.898-47.0433 106.4-47.0433C107.913-47.0433 109.295-46.6706 110.544-45.9254C111.794-45.1801 112.792-44.1854 113.537-42.9414C114.282-41.6973 114.655-40.3128 114.655-38.7879C114.655-37.2859 114.282-35.9071 113.537-34.6516C112.792-33.3961 111.794-32.3957 110.544-31.6504C109.295-30.9051 107.913-30.5325 106.4-30.5325ZM17.2874-35.6946L48.2123 2.96151L39.9413 9.57835L6.73725-31.9267L3.72291-35.6946L6.73725-39.4625L39.9413-80.9675L48.2123-74.3507L17.2874-35.6946ZM142.892-39.4625L145.906-35.6946L142.892-31.9267L109.688 9.57835L101.417 2.96151L132.341-35.6946L101.417-74.3507L109.688-80.9675L142.892-39.4625Z"/>
  </g>
  <g id="Light-L" transform="matrix(1 0 0 1 1079.2 1556)">
   <path d="M44.4003-30.5325C42.8982-30.5325 41.5195-30.9051 40.264-31.6504C39.0085-32.3957 38.0081-33.3961 37.2628-34.6516C36.5175-35.9071 36.1449-37.2859 36.1449-38.7879C36.1449-40.3128 36.5175-41.6973 37.2628-42.9414C38.0081-44.1854 39.0085-45.1801 40.264-45.9254C41.5195-46.6706 42.8982-47.0433 44.4003-47.0433C45.9138-47.0433 47.2954-46.6706 48.5452-45.9254C49.795-45.1801 50.7925-44.1854 51.5378-42.9414C52.283-41.6973 52.6557-40.3128 52.6557-38.7879C52.6557-37.2859 52.283-35.9071 51.5378-34.6516C50.7925-33.3961 49.795-32.3957 48.5452-31.6504C47.2954-30.9051 45.9138-30.5325 44.4003-30.5325ZM74.9796-30.5325C73.4776-30.5325 72.0988-30.9051 70.8433-31.6504C69.5878-32.3957 68.5874-33.3961 67.8422-34.6516C67.0969-35.9071 66.7242-37.2859 66.7242-38.7879C66.7242-40.3128 67.0969-41.6973 67.8422-42.9414C68.5874-44.1854 69.5878-45.1801 70.8433-45.9254C72.0988-46.6706 73.4776-47.0433 74.9796-47.0433C76.4931-47.0433 77.8747-46.6706 79.1245-45.9254C80.3743-45.1801 81.3718-44.1854 82.1171-42.9414C82.8624-41.6973 83.235-40.3128 83.235-38.7879C83.235-37.2859 82.8624-35.9071 82.1171-34.6516C81.3718-33.3961 80.3743-32.3957 79.1245-31.6504C77.8747-30.9051 76.4931-30.5325 74.9796-30.5325ZM105.559-30.5325C104.057-30.5325 102.678-30.9051 101.423-31.6504C100.167-32.3957 99.1668-33.3961 98.4215-34.6516C97.6762-35.9071 97.3036-37.2859 97.3036-38.7879C97.3036-40.3128 97.6762-41.6973 98.4215-42.9414C99.1668-44.1854 100.167-45.1801 101.423-45.9254C102.678-46.6706 104.057-47.0433 105.559-47.0433C107.072-47.0433 108.454-46.6706 109.704-45.9254C110.954-45.1801 111.951-44.1854 112.696-42.9414C113.442-41.6973 113.814-40.3128 113.814-38.7879C113.814-37.2859 113.442-35.9071 112.696-34.6516C111.951-33.3961 110.954-32.3957 109.704-31.6504C108.454-30.9051 107.072-30.5325 105.559-30.5325ZM16.4469-35.6946L47.3717 2.96151L39.1007 9.57835L5.89667-31.9267L2.88233-35.6946L5.89667-39.4625L39.1007-80.9675L47.3717-74.3507L16.4469-35.6946ZM142.051-39.4625L145.065-35.6946L142.051-31.9267L108.847 9.57835L100.576 2.96151L131.501-35.6946L100.576-74.3507L108.847-80.9675L142.051-39.4625Z"/>
  </g>
  <g id="Thin-L" transform="matrix(1 0 0 1 783.716 1556)">
   <path d="M43.2885-30.5325C41.7865-30.5325 40.4078-30.9051 39.1522-31.6504C37.8967-32.3957 36.8963-33.3961 36.1511-34.6516C35.4058-35.9071 35.0331-37.2859 35.0331-38.7879C35.0331-40.3128 35.4058-41.6973 36.1511-42.9414C36.8963-44.1854 37.8967-45.1801 39.1522-45.9254C40.4078-46.6706 41.7865-47.0433 43.2885-47.0433C44.802-47.0433 46.1837-46.6706 47.4334-45.9254C48.6832-45.1801 49.6807-44.1854 50.426-42.9414C51.1713-41.6973 51.5439-40.3128 51.5439-38.7879C51.5439-37.2859 51.1713-35.9071 50.426-34.6516C49.6807-33.3961 48.6832-32.3957 47.4334-31.6504C46.1837-30.9051 44.802-30.5325 43.2885-30.5325ZM73.8679-30.5325C72.3659-30.5325 70.9871-30.9051 69.7316-31.6504C68.4761-32.3957 67.4757-33.3961 66.7304-34.6516C65.9851-35.9071 65.6125-37.2859 65.6125-38.7879C65.6125-40.3128 65.9851-41.6973 66.7304-42.9414C67.4757-44.1854 68.4761-45.1801 69.7316-45.9254C70.9871-46.6706 72.3659-47.0433 73.8679-47.0433C75.3814-47.0433 76.763-46.6706 78.0128-45.9254C79.2626-45.1801 80.2601-44.1854 81.0054-42.9414C81.7507-41.6973 82.1233-40.3128 82.1233-38.7879C82.1233-37.2859 81.7507-35.9071 81.0054-34.6516C80.2601-33.3961 79.2626-32.3957 78.0128-31.6504C76.763-30.9051 75.3814-30.5325 73.8679-30.5325ZM104.447-30.5325C102.945-30.5325 101.566-30.9051 100.311-31.6504C99.0554-32.3957 98.0551-33.3961 97.3098-34.6516C96.5645-35.9071 96.1919-37.2859 96.1919-38.7879C96.1919-40.3128 96.5645-41.6973 97.3098-42.9414C98.0551-44.1854 99.0554-45.1801 100.311-45.9254C101.566-46.6706 102.945-47.0433 104.447-47.0433C105.961-47.0433 107.342-46.6706 108.592-45.9254C109.842-45.1801 110.839-44.1854 111.585-42.9414C112.33-41.6973 112.703-40.3128 112.703-38.7879C112.703-37.2859 112.33-35.9071 111.585-34.6516C110.839-33.3961 109.842-32.3957 108.592-31.6504C107.342-30.9051 105.961-30.5325 104.447-30.5325ZM15.3351-35.6946L46.26 2.96151L37.9889 9.57835L4.78493-31.9267L1.77059-35.6946L4.78493-39.4625L37.9889-80.9675L46.26-74.3507L15.3351-35.6946ZM140.939-39.4625L143.954-35.6946L140.939-31.9267L107.735 9.57835L99.4643 2.96151L130.389-35.6946L99.4643-74.3507L107.735-80.9675L140.939-39.4625Z"/>
  </g>
  <g id="Ultralight-L" transform="matrix(1 0 0 1 487.632 1556)">
   <path d="M42.7191-30.5325C41.2171-30.5325 39.8383-30.9051 38.5828-31.6504C37.3273-32.3957 36.3269-33.3961 35.5816-34.6516C34.8364-35.9071 34.4637-37.2859 34.4637-38.7879C34.4637-40.3128 34.8364-41.6973 35.5816-42.9414C36.3269-44.1854 37.3273-45.1801 38.5828-45.9254C39.8383-46.6706 41.2171-47.0433 42.7191-47.0433C44.2326-47.0433 45.6142-46.6706 46.864-45.9254C48.1138-45.1801 49.1113-44.1854 49.8566-42.9414C50.6019-41.6973 50.9745-40.3128 50.9745-38.7879C50.9745-37.2859 50.6019-35.9071 49.8566-34.6516C49.1113-33.3961 48.1138-32.3957 46.864-31.6504C45.6142-30.9051 44.2326-30.5325 42.7191-30.5325ZM73.2985-30.5325C71.7964-30.5325 70.4177-30.9051 69.1622-31.6504C67.9067-32.3957 66.9063-33.3961 66.161-34.6516C65.4157-35.9071 65.0431-37.2859 65.0431-38.7879C65.0431-40.3128 65.4157-41.6973 66.161-42.9414C66.9063-44.1854 67.9067-45.1801 69.1622-45.9254C70.4177-46.6706 71.7964-47.0433 73.2985-47.0433C74.812-47.0433 76.1936-46.6706 77.4434-45.9254C78.6931-45.1801 79.6907-44.1854 80.4359-42.9414C81.1812-41.6973 81.5539-40.3128 81.5539-38.7879C81.5539-37.2859 81.1812-35.9071 80.4359-34.6516C79.6907-33.3961 78.6931-32.3957 77.4434-31.6504C76.1936-30.9051 74.812-30.5325 73.2985-30.5325ZM103.878-30.5325C102.376-30.5325 100.997-30.9051 99.7415-31.6504C98.486-32.3957 97.4856-33.3961 96.7403-34.6516C95.9951-35.9071 95.6224-37.2859 95.6224-38.7879C95.6224-40.3128 95.9951-41.6973 96.7403-42.9414C97.4856-44.1854 98.486-45.1801 99.7415-45.9254C100.997-46.6706 102.376-47.0433 103.878-47.0433C105.391-47.0433 106.773-46.6706 108.023-45.9254C109.273-45.1801 110.27-44.1854 111.015-42.9414C111.761-41.6973 112.133-40.3128 112.133-38.7879C112.133-37.2859 111.761-35.9071 111.015-34.6516C110.27-33.3961 109.273-32.3957 108.023-31.6504C106.773-30.9051 105.391-30.5325 103.878-30.5325ZM14.7657-35.6946L45.6906 2.96151L37.4195 9.57835L4.21551-31.9267L1.20117-35.6946L4.21551-39.4625L37.4195-80.9675L45.6906-74.3507L14.7657-35.6946ZM140.37-39.4625L143.384-35.6946L140.37-31.9267L107.166 9.57835L98.8948 2.96151L129.82-35.6946L98.8948-74.3507L107.166-80.9675L140.37-39.4625Z"/>
  </g>
  <g id="Black-M" transform="matrix(1 0 0 1 2871.35 1126)">
   <path d="M39.5142-31.5905C38.3505-31.5905 37.2823-31.8792 36.3096-32.4566C35.3369-33.034 34.5619-33.8091 33.9845-34.7818C33.4071-35.7545 33.1184-36.8226 33.1184-37.9863C33.1184-39.1678 33.4071-40.2404 33.9845-41.2042C34.5619-42.168 35.3369-42.9386 36.3096-43.516C37.2823-44.0934 38.3505-44.3821 39.5142-44.3821C40.6867-44.3821 41.7571-44.0934 42.7254-43.516C43.6936-42.9386 44.4665-42.168 45.0439-41.2042C45.6213-40.2404 45.91-39.1678 45.91-37.9863C45.91-36.8226 45.6213-35.7545 45.0439-34.7818C44.4665-33.8091 43.6936-33.034 42.7254-32.4566C41.7571-31.8792 40.6867-31.5905 39.5142-31.5905ZM63.2053-31.5905C62.0416-31.5905 60.9734-31.8792 60.0007-32.4566C59.028-33.034 58.253-33.8091 57.6756-34.7818C57.0982-35.7545 56.8095-36.8226 56.8095-37.9863C56.8095-39.1678 57.0982-40.2404 57.6756-41.2042C58.253-42.168 59.028-42.9386 60.0007-43.516C60.9734-44.0934 62.0416-44.3821 63.2053-44.3821C64.3778-44.3821 65.4482-44.0934 66.4165-43.516C67.3848-42.9386 68.1576-42.168 68.735-41.2042C69.3124-40.2404 69.6011-39.1678 69.6011-37.9863C69.6011-36.8226 69.3124-35.7545 68.735-34.7818C68.1576-33.8091 67.3848-33.034 66.4165-32.4566C65.4482-31.8792 64.3778-31.5905 63.2053-31.5905ZM86.8964-31.5905C85.7327-31.5905 84.6645-31.8792 83.6918-32.4566C82.7191-33.034 81.9441-33.8091 81.3667-34.7818C80.7893-35.7545 80.5006-36.8226 80.5006-37.9863C80.5006-39.1678 80.7893-40.2404 81.3667-41.2042C81.9441-42.168 82.7191-42.9386 83.6918-43.516C84.6645-44.0934 85.7327-44.3821 86.8964-44.3821C88.069-44.3821 89.1393-44.0934 90.1076-43.516C91.0759-42.9386 91.8487-42.168 92.4261-41.2042C93.0035-40.2404 93.2922-39.1678 93.2922-37.9863C93.2922-36.8226 93.0035-35.7545 92.4261-34.7818C91.8487-33.8091 91.0759-33.034 90.1076-32.4566C89.1393-31.8792 88.069-31.5905 86.8964-31.5905ZM17.8575-35.5898L41.8163-5.64132L35.4083-0.514978L9.6838-32.6706L7.34847-35.5898L9.6838-38.509L35.4083-70.6647L41.8163-65.5383L17.8575-35.5898ZM115.168-38.509L117.504-35.5898L115.168-32.6706L89.4438-0.514978L83.0359-5.64132L106.995-35.5898L83.0359-65.5383L89.4438-70.6647L115.168-38.509Z"/>
  </g>
  <g id="Heavy-M" transform="matrix(1 0 0 1 2575.47 1126)">
   <path d="M38.5737-31.5905C37.41-31.5905 36.3418-31.8792 35.3691-32.4566C34.3964-33.034 33.6214-33.8091 33.044-34.7818C32.4666-35.7545 32.1779-36.8226 32.1779-37.9863C32.1779-39.1678 32.4666-40.2404 33.044-41.2042C33.6214-42.168 34.3964-42.9386 35.3691-43.516C36.3418-44.0934 37.41-44.3821 38.5737-44.3821C39.7462-44.3821 40.8166-44.0934 41.7849-43.516C42.7531-42.9386 43.526-42.168 44.1034-41.2042C44.6808-40.2404 44.9695-39.1678 44.9695-37.9863C44.9695-36.8226 44.6808-35.7545 44.1034-34.7818C43.526-33.8091 42.7531-33.034 41.7849-32.4566C40.8166-31.8792 39.7462-31.5905 38.5737-31.5905ZM62.2648-31.5905C61.1011-31.5905 60.0329-31.8792 59.0602-32.4566C58.0875-33.034 57.3125-33.8091 56.7351-34.7818C56.1577-35.7545 55.869-36.8226 55.869-37.9863C55.869-39.1678 56.1577-40.2404 56.7351-41.2042C57.3125-42.168 58.0875-42.9386 59.0602-43.516C60.0329-44.0934 61.1011-44.3821 62.2648-44.3821C63.4373-44.3821 64.5077-44.0934 65.476-43.516C66.4443-42.9386 67.2171-42.168 67.7945-41.2042C68.3719-40.2404 68.6606-39.1678 68.6606-37.9863C68.6606-36.8226 68.3719-35.7545 67.7945-34.7818C67.2171-33.8091 66.4443-33.034 65.476-32.4566C64.5077-31.8792 63.4373-31.5905 62.2648-31.5905ZM85.9559-31.5905C84.7922-31.5905 83.724-31.8792 82.7513-32.4566C81.7786-33.034 81.0036-33.8091 80.4262-34.7818C79.8488-35.7545 79.5601-36.8226 79.5601-37.9863C79.5601-39.1678 79.8488-40.2404 80.4262-41.2042C81.0036-42.168 81.7786-42.9386 82.7513-43.516C83.724-44.0934 84.7922-44.3821 85.9559-44.3821C87.1284-44.3821 88.1988-44.0934 89.1671-43.516C90.1354-42.9386 90.9082-42.168 91.4856-41.2042C92.063-40.2404 92.3517-39.1678 92.3517-37.9863C92.3517-36.8226 92.063-35.7545 91.4856-34.7818C90.9082-33.8091 90.1354-33.034 89.1671-32.4566C88.1988-31.8792 87.1284-31.5905 85.9559-31.5905ZM16.917-35.5898L40.8758-5.64132L34.4678-0.514978L8.7433-32.6706L6.40797-35.5898L8.7433-38.509L34.4678-70.6647L40.8758-65.5383L16.917-35.5898ZM114.228-38.509L116.563-35.5898L114.228-32.6706L88.5033-0.514978L82.0954-5.64132L106.054-35.5898L82.0954-65.5383L88.5033-70.6647L114.228-38.509Z"/>
  </g>
  <g id="Bold-M" transform="matrix(1 0 0 1 2279.69 1126)">
   <path d="M37.5216-31.5905C36.3579-31.5905 35.2897-31.8792 34.317-32.4566C33.3443-33.034 32.5693-33.8091 31.9919-34.7818C31.4145-35.7545 31.1258-36.8226 31.1258-37.9863C31.1258-39.1678 31.4145-40.2404 31.9919-41.2042C32.5693-42.168 33.3443-42.9386 34.317-43.516C35.2897-44.0934 36.3579-44.3821 37.5216-44.3821C38.6941-44.3821 39.7645-44.0934 40.7328-43.516C41.7011-42.9386 42.4739-42.168 43.0513-41.2042C43.6287-40.2404 43.9174-39.1678 43.9174-37.9863C43.9174-36.8226 43.6287-35.7545 43.0513-34.7818C42.4739-33.8091 41.7011-33.034 40.7328-32.4566C39.7645-31.8792 38.6941-31.5905 37.5216-31.5905ZM61.2127-31.5905C60.049-31.5905 58.9808-31.8792 58.0081-32.4566C57.0354-33.034 56.2604-33.8091 55.683-34.7818C55.1056-35.7545 54.8169-36.8226 54.8169-37.9863C54.8169-39.1678 55.1056-40.2404 55.683-41.2042C56.2604-42.168 57.0354-42.9386 58.0081-43.516C58.9808-44.0934 60.049-44.3821 61.2127-44.3821C62.3853-44.3821 63.4557-44.0934 64.4239-43.516C65.3922-42.9386 66.165-42.168 66.7424-41.2042C67.3198-40.2404 67.6085-39.1678 67.6085-37.9863C67.6085-36.8226 67.3198-35.7545 66.7424-34.7818C66.165-33.8091 65.3922-33.034 64.4239-32.4566C63.4557-31.8792 62.3853-31.5905 61.2127-31.5905ZM84.9038-31.5905C83.7401-31.5905 82.6719-31.8792 81.6992-32.4566C80.7265-33.034 79.9515-33.8091 79.3741-34.7818C78.7967-35.7545 78.508-36.8226 78.508-37.9863C78.508-39.1678 78.7967-40.2404 79.3741-41.2042C79.9515-42.168 80.7265-42.9386 81.6992-43.516C82.6719-44.0934 83.7401-44.3821 84.9038-44.3821C86.0764-44.3821 87.1468-44.0934 88.115-43.516C89.0833-42.9386 89.8561-42.168 90.4335-41.2042C91.0109-40.2404 91.2996-39.1678 91.2996-37.9863C91.2996-36.8226 91.0109-35.7545 90.4335-34.7818C89.8561-33.8091 89.0833-33.034 88.115-32.4566C87.1468-31.8792 86.0764-31.5905 84.9038-31.5905ZM15.8649-35.5898L39.8237-5.64132L33.4158-0.514978L7.69122-32.6706L5.35588-35.5898L7.69122-38.509L33.4158-70.6647L39.8237-65.5383L15.8649-35.5898ZM113.176-38.509L115.511-35.5898L113.176-32.6706L87.4512-0.514978L81.0433-5.64132L105.002-35.5898L81.0433-65.5383L87.4512-70.6647L113.176-38.509Z"/>
  </g>
  <g id="Semibold-M" transform="matrix(1 0 0 1 1983.62 1126)">
   <path d="M36.7963-31.5905C35.6326-31.5905 34.5644-31.8792 33.5917-32.4566C32.619-33.034 31.844-33.8091 31.2666-34.7818C30.6892-35.7545 30.4005-36.8226 30.4005-37.9863C30.4005-39.1678 30.6892-40.2404 31.2666-41.2042C31.844-42.168 32.619-42.9386 33.5917-43.516C34.5644-44.0934 35.6326-44.3821 36.7963-44.3821C37.9688-44.3821 39.0392-44.0934 40.0075-43.516C40.9758-42.9386 41.7486-42.168 42.326-41.2042C42.9034-40.2404 43.1921-39.1678 43.1921-37.9863C43.1921-36.8226 42.9034-35.7545 42.326-34.7818C41.7486-33.8091 40.9758-33.034 40.0075-32.4566C39.0392-31.8792 37.9688-31.5905 36.7963-31.5905ZM60.4874-31.5905C59.3237-31.5905 58.2555-31.8792 57.2828-32.4566C56.3101-33.034 55.5351-33.8091 54.9577-34.7818C54.3803-35.7545 54.0916-36.8226 54.0916-37.9863C54.0916-39.1678 54.3803-40.2404 54.9577-41.2042C55.5351-42.168 56.3101-42.9386 57.2828-43.516C58.2555-44.0934 59.3237-44.3821 60.4874-44.3821C61.66-44.3821 62.7304-44.0934 63.6986-43.516C64.6669-42.9386 65.4397-42.168 66.0171-41.2042C66.5945-40.2404 66.8832-39.1678 66.8832-37.9863C66.8832-36.8226 66.5945-35.7545 66.0171-34.7818C65.4397-33.8091 64.6669-33.034 63.6986-32.4566C62.7304-31.8792 61.66-31.5905 60.4874-31.5905ZM84.1785-31.5905C83.0148-31.5905 81.9466-31.8792 80.9739-32.4566C80.0012-33.034 79.2262-33.8091 78.6488-34.7818C78.0714-35.7545 77.7827-36.8226 77.7827-37.9863C77.7827-39.1678 78.0714-40.2404 78.6488-41.2042C79.2262-42.168 80.0012-42.9386 80.9739-43.516C81.9466-44.0934 83.0148-44.3821 84.1785-44.3821C85.3511-44.3821 86.4215-44.0934 87.3897-43.516C88.358-42.9386 89.1308-42.168 89.7082-41.2042C90.2856-40.2404 90.5743-39.1678 90.5743-37.9863C90.5743-36.8226 90.2856-35.7545 89.7082-34.7818C89.1308-33.8091 88.358-33.034 87.3897-32.4566C86.4215-31.8792 85.3511-31.5905 84.1785-31.5905ZM15.1396-35.5898L39.0984-5.64132L32.6905-0.514978L6.96592-32.6706L4.63058-35.5898L6.96592-38.509L32.6905-70.6647L39.0984-65.5383L15.1396-35.5898ZM112.45-38.509L114.786-35.5898L112.45-32.6706L86.7259-0.514978L80.318-5.64132L104.277-35.5898L80.318-65.5383L86.7259-70.6647L112.45-38.509Z"/>
  </g>
  <g id="Medium-M" transform="matrix(1 0 0 1 1687.4 1126)">
   <path d="M36.2463-31.5905C35.0826-31.5905 34.0145-31.8792 33.0418-32.4566C32.0691-33.034 31.294-33.8091 30.7166-34.7818C30.1392-35.7545 29.8505-36.8226 29.8505-37.9863C29.8505-39.1678 30.1392-40.2404 30.7166-41.2042C31.294-42.168 32.0691-42.9386 33.0418-43.516C34.0145-44.0934 35.0826-44.3821 36.2463-44.3821C37.4189-44.3821 38.4893-44.0934 39.4575-43.516C40.4258-42.9386 41.1986-42.168 41.776-41.2042C42.3534-40.2404 42.6421-39.1678 42.6421-37.9863C42.6421-36.8226 42.3534-35.7545 41.776-34.7818C41.1986-33.8091 40.4258-33.034 39.4575-32.4566C38.4893-31.8792 37.4189-31.5905 36.2463-31.5905ZM59.9374-31.5905C58.7737-31.5905 57.7056-31.8792 56.7329-32.4566C55.7602-33.034 54.9851-33.8091 54.4077-34.7818C53.8303-35.7545 53.5416-36.8226 53.5416-37.9863C53.5416-39.1678 53.8303-40.2404 54.4077-41.2042C54.9851-42.168 55.7602-42.9386 56.7329-43.516C57.7056-44.0934 58.7737-44.3821 59.9374-44.3821C61.11-44.3821 62.1804-44.0934 63.1487-43.516C64.1169-42.9386 64.8897-42.168 65.4671-41.2042C66.0445-40.2404 66.3332-39.1678 66.3332-37.9863C66.3332-36.8226 66.0445-35.7545 65.4671-34.7818C64.8897-33.8091 64.1169-33.034 63.1487-32.4566C62.1804-31.8792 61.11-31.5905 59.9374-31.5905ZM83.6285-31.5905C82.4649-31.5905 81.3967-31.8792 80.424-32.4566C79.4513-33.034 78.6762-33.8091 78.0988-34.7818C77.5214-35.7545 77.2327-36.8226 77.2327-37.9863C77.2327-39.1678 77.5214-40.2404 78.0988-41.2042C78.6762-42.168 79.4513-42.9386 80.424-43.516C81.3967-44.0934 82.4649-44.3821 83.6285-44.3821C84.8011-44.3821 85.8715-44.0934 86.8398-43.516C87.808-42.9386 88.5808-42.168 89.1582-41.2042C89.7356-40.2404 90.0243-39.1678 90.0243-37.9863C90.0243-36.8226 89.7356-35.7545 89.1582-34.7818C88.5808-33.8091 87.808-33.034 86.8398-32.4566C85.8715-31.8792 84.8011-31.5905 83.6285-31.5905ZM14.5896-35.5898L38.5484-5.64132L32.1405-0.514978L6.41596-32.6706L4.08063-35.5898L6.41596-38.509L32.1405-70.6647L38.5484-65.5383L14.5896-35.5898ZM111.9-38.509L114.236-35.5898L111.9-32.6706L86.176-0.514978L79.768-5.64132L103.727-35.5898L79.768-65.5383L86.176-70.6647L111.9-38.509Z"/>
  </g>
  <g id="Regular-M" transform="matrix(1 0 0 1 1391.32 1126)">
   <path d="M35.529-31.5905C34.3653-31.5905 33.2971-31.8792 32.3244-32.4566C31.3517-33.034 30.5767-33.8091 29.9993-34.7818C29.4219-35.7545 29.1332-36.8226 29.1332-37.9863C29.1332-39.1678 29.4219-40.2404 29.9993-41.2042C30.5767-42.168 31.3517-42.9386 32.3244-43.516C33.2971-44.0934 34.3653-44.3821 35.529-44.3821C36.7016-44.3821 37.772-44.0934 38.7402-43.516C39.7085-42.9386 40.4813-42.168 41.0587-41.2042C41.6361-40.2404 41.9248-39.1678 41.9248-37.9863C41.9248-36.8226 41.6361-35.7545 41.0587-34.7818C40.4813-33.8091 39.7085-33.034 38.7402-32.4566C37.772-31.8792 36.7016-31.5905 35.529-31.5905ZM59.2201-31.5905C58.0564-31.5905 56.9882-31.8792 56.0155-32.4566C55.0428-33.034 54.2678-33.8091 53.6904-34.7818C53.113-35.7545 52.8243-36.8226 52.8243-37.9863C52.8243-39.1678 53.113-40.2404 53.6904-41.2042C54.2678-42.168 55.0428-42.9386 56.0155-43.516C56.9882-44.0934 58.0564-44.3821 59.2201-44.3821C60.3927-44.3821 61.4631-44.0934 62.4313-43.516C63.3996-42.9386 64.1724-42.168 64.7498-41.2042C65.3272-40.2404 65.6159-39.1678 65.6159-37.9863C65.6159-36.8226 65.3272-35.7545 64.7498-34.7818C64.1724-33.8091 63.3996-33.034 62.4313-32.4566C61.4631-31.8792 60.3927-31.5905 59.2201-31.5905ZM82.9112-31.5905C81.7475-31.5905 80.6793-31.8792 79.7066-32.4566C78.7339-33.034 77.9589-33.8091 77.3815-34.7818C76.8041-35.7545 76.5154-36.8226 76.5154-37.9863C76.5154-39.1678 76.8041-40.2404 77.3815-41.2042C77.9589-42.168 78.7339-42.9386 79.7066-43.516C80.6793-44.0934 81.7475-44.3821 82.9112-44.3821C84.0838-44.3821 85.1542-44.0934 86.1224-43.516C87.0907-42.9386 87.8635-42.168 88.4409-41.2042C89.0183-40.2404 89.307-39.1678 89.307-37.9863C89.307-36.8226 89.0183-35.7545 88.4409-34.7818C87.8635-33.8091 87.0907-33.034 86.1224-32.4566C85.1542-31.8792 84.0838-31.5905 82.9112-31.5905ZM13.8723-35.5898L37.8311-5.64132L31.4232-0.514978L5.69863-32.6706L3.3633-35.5898L5.69863-38.509L31.4232-70.6647L37.8311-65.5383L13.8723-35.5898ZM111.183-38.509L113.518-35.5898L111.183-32.6706L85.4586-0.514978L79.0507-5.64132L103.009-35.5898L79.0507-65.5383L85.4586-70.6647L111.183-38.509Z"/>
  </g>
  <g id="Light-M" transform="matrix(1 0 0 1 1095.44 1126)">
   <path d="M34.7754-31.5905C33.6117-31.5905 32.5435-31.8792 31.5708-32.4566C30.5981-33.034 29.8231-33.8091 29.2457-34.7818C28.6683-35.7545 28.3796-36.8226 28.3796-37.9863C28.3796-39.1678 28.6683-40.2404 29.2457-41.2042C29.8231-42.168 30.5981-42.9386 31.5708-43.516C32.5435-44.0934 33.6117-44.3821 34.7754-44.3821C35.9479-44.3821 37.0183-44.0934 37.9866-43.516C38.9549-42.9386 39.7277-42.168 40.3051-41.2042C40.8825-40.2404 41.1712-39.1678 41.1712-37.9863C41.1712-36.8226 40.8825-35.7545 40.3051-34.7818C39.7277-33.8091 38.9549-33.034 37.9866-32.4566C37.0183-31.8792 35.9479-31.5905 34.7754-31.5905ZM58.4665-31.5905C57.3028-31.5905 56.2346-31.8792 55.2619-32.4566C54.2892-33.034 53.5142-33.8091 52.9368-34.7818C52.3594-35.7545 52.0707-36.8226 52.0707-37.9863C52.0707-39.1678 52.3594-40.2404 52.9368-41.2042C53.5142-42.168 54.2892-42.9386 55.2619-43.516C56.2346-44.0934 57.3028-44.3821 58.4665-44.3821C59.639-44.3821 60.7094-44.0934 61.6777-43.516C62.646-42.9386 63.4188-42.168 63.9962-41.2042C64.5736-40.2404 64.8623-39.1678 64.8623-37.9863C64.8623-36.8226 64.5736-35.7545 63.9962-34.7818C63.4188-33.8091 62.646-33.034 61.6777-32.4566C60.7094-31.8792 59.639-31.5905 58.4665-31.5905ZM82.1576-31.5905C80.9939-31.5905 79.9257-31.8792 78.953-32.4566C77.9803-33.034 77.2053-33.8091 76.6279-34.7818C76.0505-35.7545 75.7618-36.8226 75.7618-37.9863C75.7618-39.1678 76.0505-40.2404 76.6279-41.2042C77.2053-42.168 77.9803-42.9386 78.953-43.516C79.9257-44.0934 80.9939-44.3821 82.1576-44.3821C83.3302-44.3821 84.4006-44.0934 85.3688-43.516C86.3371-42.9386 87.1099-42.168 87.6873-41.2042C88.2647-40.2404 88.5534-39.1678 88.5534-37.9863C88.5534-36.8226 88.2647-35.7545 87.6873-34.7818C87.1099-33.8091 86.3371-33.034 85.3688-32.4566C84.4006-31.8792 83.3302-31.5905 82.1576-31.5905ZM13.1187-35.5898L37.0775-5.64132L30.6695-0.514978L4.94501-32.6706L2.60967-35.5898L4.94501-38.509L30.6695-70.6647L37.0775-65.5383L13.1187-35.5898ZM110.43-38.509L112.765-35.5898L110.43-32.6706L84.705-0.514978L78.2971-5.64132L102.256-35.5898L78.2971-65.5383L84.705-70.6647L110.43-38.509Z"/>
  </g>
  <g id="Thin-M" transform="matrix(1 0 0 1 799.828 1126)">
   <path d="M33.7786-31.5905C32.615-31.5905 31.5468-31.8792 30.5741-32.4566C29.6014-33.034 28.8263-33.8091 28.2489-34.7818C27.6715-35.7545 27.3828-36.8226 27.3828-37.9863C27.3828-39.1678 27.6715-40.2404 28.2489-41.2042C28.8263-42.168 29.6014-42.9386 30.5741-43.516C31.5468-44.0934 32.615-44.3821 33.7786-44.3821C34.9512-44.3821 36.0216-44.0934 36.9899-43.516C37.9581-42.9386 38.7309-42.168 39.3083-41.2042C39.8857-40.2404 40.1744-39.1678 40.1744-37.9863C40.1744-36.8226 39.8857-35.7545 39.3083-34.7818C38.7309-33.8091 37.9581-33.034 36.9899-32.4566C36.0216-31.8792 34.9512-31.5905 33.7786-31.5905ZM57.4698-31.5905C56.3061-31.5905 55.2379-31.8792 54.2652-32.4566C53.2925-33.034 52.5175-33.8091 51.94-34.7818C51.3626-35.7545 51.074-36.8226 51.074-37.9863C51.074-39.1678 51.3626-40.2404 51.94-41.2042C52.5175-42.168 53.2925-42.9386 54.2652-43.516C55.2379-44.0934 56.3061-44.3821 57.4698-44.3821C58.6423-44.3821 59.7127-44.0934 60.681-43.516C61.6492-42.9386 62.4221-42.168 62.9995-41.2042C63.5769-40.2404 63.8656-39.1678 63.8656-37.9863C63.8656-36.8226 63.5769-35.7545 62.9995-34.7818C62.4221-33.8091 61.6492-33.034 60.681-32.4566C59.7127-31.8792 58.6423-31.5905 57.4698-31.5905ZM81.1609-31.5905C79.9972-31.5905 78.929-31.8792 77.9563-32.4566C76.9836-33.034 76.2086-33.8091 75.6312-34.7818C75.0538-35.7545 74.7651-36.8226 74.7651-37.9863C74.7651-39.1678 75.0538-40.2404 75.6312-41.2042C76.2086-42.168 76.9836-42.9386 77.9563-43.516C78.929-44.0934 79.9972-44.3821 81.1609-44.3821C82.3334-44.3821 83.4038-44.0934 84.3721-43.516C85.3403-42.9386 86.1132-42.168 86.6906-41.2042C87.268-40.2404 87.5567-39.1678 87.5567-37.9863C87.5567-36.8226 87.268-35.7545 86.6906-34.7818C86.1132-33.8091 85.3403-33.034 84.3721-32.4566C83.4038-31.8792 82.3334-31.5905 81.1609-31.5905ZM12.122-35.5898L36.0808-5.64132L29.6728-0.514978L3.94828-32.6706L1.61295-35.5898L3.94828-38.509L29.6728-70.6647L36.0808-65.5383L12.122-35.5898ZM109.433-38.509L111.768-35.5898L109.433-32.6706L83.7083-0.514978L77.3003-5.64132L101.259-35.5898L77.3003-65.5383L83.7083-70.6647L109.433-38.509Z"/>
  </g>
  <g id="Ultralight-M" transform="matrix(1 0 0 1 503.679 1126)">
   <path d="M33.2681-31.5905C32.1044-31.5905 31.0363-31.8792 30.0636-32.4566C29.0909-33.034 28.3158-33.8091 27.7384-34.7818C27.161-35.7545 26.8723-36.8226 26.8723-37.9863C26.8723-39.1678 27.161-40.2404 27.7384-41.2042C28.3158-42.168 29.0909-42.9386 30.0636-43.516C31.0363-44.0934 32.1044-44.3821 33.2681-44.3821C34.4407-44.3821 35.5111-44.0934 36.4793-43.516C37.4476-42.9386 38.2204-42.168 38.7978-41.2042C39.3752-40.2404 39.6639-39.1678 39.6639-37.9863C39.6639-36.8226 39.3752-35.7545 38.7978-34.7818C38.2204-33.8091 37.4476-33.034 36.4793-32.4566C35.5111-31.8792 34.4407-31.5905 33.2681-31.5905ZM56.9592-31.5905C55.7955-31.5905 54.7274-31.8792 53.7547-32.4566C52.782-33.034 52.0069-33.8091 51.4295-34.7818C50.8521-35.7545 50.5634-36.8226 50.5634-37.9863C50.5634-39.1678 50.8521-40.2404 51.4295-41.2042C52.0069-42.168 52.782-42.9386 53.7547-43.516C54.7274-44.0934 55.7955-44.3821 56.9592-44.3821C58.1318-44.3821 59.2022-44.0934 60.1705-43.516C61.1387-42.9386 61.9115-42.168 62.4889-41.2042C63.0663-40.2404 63.355-39.1678 63.355-37.9863C63.355-36.8226 63.0663-35.7545 62.4889-34.7818C61.9115-33.8091 61.1387-33.034 60.1705-32.4566C59.2022-31.8792 58.1318-31.5905 56.9592-31.5905ZM80.6503-31.5905C79.4867-31.5905 78.4185-31.8792 77.4458-32.4566C76.4731-33.034 75.698-33.8091 75.1206-34.7818C74.5432-35.7545 74.2545-36.8226 74.2545-37.9863C74.2545-39.1678 74.5432-40.2404 75.1206-41.2042C75.698-42.168 76.4731-42.9386 77.4458-43.516C78.4185-44.0934 79.4867-44.3821 80.6503-44.3821C81.8229-44.3821 82.8933-44.0934 83.8616-43.516C84.8298-42.9386 85.6026-42.168 86.18-41.2042C86.7574-40.2404 87.0461-39.1678 87.0461-37.9863C87.0461-36.8226 86.7574-35.7545 86.18-34.7818C85.6026-33.8091 84.8298-33.034 83.8616-32.4566C82.8933-31.8792 81.8229-31.5905 80.6503-31.5905ZM11.6114-35.5898L35.5702-5.64132L29.1623-0.514978L3.43776-32.6706L1.10243-35.5898L3.43776-38.509L29.1623-70.6647L35.5702-65.5383L11.6114-35.5898ZM108.922-38.509L111.258-35.5898L108.922-32.6706L83.1978-0.514978L76.7898-5.64132L100.749-35.5898L76.7898-65.5383L83.1978-70.6647L108.922-38.509Z"/>
  </g>
  <g id="Black-S" transform="matrix(1 0 0 1 2884.57 696)">
   <path d="M31.2082-32.3776C30.2962-32.3776 29.4591-32.6039 28.6968-33.0564C27.9345-33.5089 27.3271-34.1163 26.8746-34.8786C26.4221-35.6409 26.1958-36.478 26.1958-37.39C26.1958-38.3159 26.4221-39.1565 26.8746-39.9119C27.3271-40.6672 27.9345-41.2711 28.6968-41.7236C29.4591-42.1762 30.2962-42.4024 31.2082-42.4024C32.1272-42.4024 32.966-42.1762 33.7249-41.7236C34.4837-41.2711 35.0893-40.6672 35.5418-39.9119C35.9944-39.1565 36.2206-38.3159 36.2206-37.39C36.2206-36.478 35.9944-35.6409 35.5418-34.8786C35.0893-34.1163 34.4837-33.5089 33.7249-33.0564C32.966-32.6039 32.1272-32.3776 31.2082-32.3776ZM49.7749-32.3776C48.8629-32.3776 48.0258-32.6039 47.2635-33.0564C46.5012-33.5089 45.8938-34.1163 45.4413-34.8786C44.9888-35.6409 44.7625-36.478 44.7625-37.39C44.7625-38.3159 44.9888-39.1565 45.4413-39.9119C45.8938-40.6672 46.5012-41.2711 47.2635-41.7236C48.0258-42.1762 48.8629-42.4024 49.7749-42.4024C50.6939-42.4024 51.5327-42.1762 52.2916-41.7236C53.0504-41.2711 53.656-40.6672 54.1085-39.9119C54.5611-39.1565 54.7873-38.3159 54.7873-37.39C54.7873-36.478 54.5611-35.6409 54.1085-34.8786C53.656-34.1163 53.0504-33.5089 52.2916-33.0564C51.5327-32.6039 50.6939-32.3776 49.7749-32.3776ZM68.3416-32.3776C67.4296-32.3776 66.5925-32.6039 65.8302-33.0564C65.0679-33.5089 64.4605-34.1163 64.008-34.8786C63.5555-35.6409 63.3292-36.478 63.3292-37.39C63.3292-38.3159 63.5555-39.1565 64.008-39.9119C64.4605-40.6672 65.0679-41.2711 65.8302-41.7236C66.5925-42.1762 67.4296-42.4024 68.3416-42.4024C69.2606-42.4024 70.0994-42.1762 70.8583-41.7236C71.6171-41.2711 72.2227-40.6672 72.6752-39.9119C73.1278-39.1565 73.354-38.3159 73.354-37.39C73.354-36.478 73.1278-35.6409 72.6752-34.8786C72.2227-34.1163 71.6171-33.5089 70.8583-33.0564C70.0994-32.6039 69.2606-32.3776 68.3416-32.3776ZM14.2359-35.5119L33.0124-12.0413L27.9905-8.02376L7.8302-33.2241L6-35.5119L7.8302-37.7996L27.9905-63L33.0124-58.9825L14.2359-35.5119ZM90.4983-37.7996L92.3285-35.5119L90.4983-33.2241L70.338-8.02376L65.3161-12.0413L84.0926-35.5119L65.3161-58.9825L70.338-63L90.4983-37.7996Z"/>
  </g>
  <g id="Heavy-S" transform="matrix(1 0 0 1 2588.46 696)">
   <path d="M30.5002-32.3776C29.5882-32.3776 28.7511-32.6039 27.9888-33.0564C27.2264-33.5089 26.619-34.1163 26.1665-34.8786C25.714-35.6409 25.4878-36.478 25.4878-37.39C25.4878-38.3159 25.714-39.1565 26.1665-39.9119C26.619-40.6672 27.2264-41.2711 27.9888-41.7236C28.7511-42.1762 29.5882-42.4024 30.5002-42.4024C31.4191-42.4024 32.258-42.1762 33.0168-41.7236C33.7756-41.2711 34.3813-40.6672 34.8338-39.9119C35.2863-39.1565 35.5125-38.3159 35.5125-37.39C35.5125-36.478 35.2863-35.6409 34.8338-34.8786C34.3813-34.1163 33.7756-33.5089 33.0168-33.0564C32.258-32.6039 31.4191-32.3776 30.5002-32.3776ZM49.0669-32.3776C48.1549-32.3776 47.3178-32.6039 46.5554-33.0564C45.7931-33.5089 45.1857-34.1163 44.7332-34.8786C44.2807-35.6409 44.0545-36.478 44.0545-37.39C44.0545-38.3159 44.2807-39.1565 44.7332-39.9119C45.1857-40.6672 45.7931-41.2711 46.5554-41.7236C47.3178-42.1762 48.1549-42.4024 49.0669-42.4024C49.9858-42.4024 50.8247-42.1762 51.5835-41.7236C52.3423-41.2711 52.948-40.6672 53.4005-39.9119C53.853-39.1565 54.0792-38.3159 54.0792-37.39C54.0792-36.478 53.853-35.6409 53.4005-34.8786C52.948-34.1163 52.3423-33.5089 51.5835-33.0564C50.8247-32.6039 49.9858-32.3776 49.0669-32.3776ZM67.6336-32.3776C66.7216-32.3776 65.8845-32.6039 65.1221-33.0564C64.3598-33.5089 63.7524-34.1163 63.2999-34.8786C62.8474-35.6409 62.6212-36.478 62.6212-37.39C62.6212-38.3159 62.8474-39.1565 63.2999-39.9119C63.7524-40.6672 64.3598-41.2711 65.1221-41.7236C65.8845-42.1762 66.7216-42.4024 67.6336-42.4024C68.5525-42.4024 69.3914-42.1762 70.1502-41.7236C70.909-41.2711 71.5147-40.6672 71.9672-39.9119C72.4197-39.1565 72.6459-38.3159 72.6459-37.39C72.6459-36.478 72.4197-35.6409 71.9672-34.8786C71.5147-34.1163 70.909-33.5089 70.1502-33.0564C69.3914-32.6039 68.5525-32.3776 67.6336-32.3776ZM13.5278-35.5119L32.3043-12.0413L27.2824-8.02376L7.12214-33.2241L5.29194-35.5119L7.12214-37.7996L27.2824-63L32.3043-58.9825L13.5278-35.5119ZM89.7903-37.7996L91.6205-35.5119L89.7903-33.2241L69.63-8.02376L64.6081-12.0413L83.3846-35.5119L64.6081-58.9825L69.63-63L89.7903-37.7996Z"/>
  </g>
  <g id="Bold-S" transform="matrix(1 0 0 1 2292.43 696)">
   <path d="M29.7082-32.3776C28.7962-32.3776 27.9591-32.6039 27.1968-33.0564C26.4345-33.5089 25.8271-34.1163 25.3746-34.8786C24.9221-35.6409 24.6958-36.478 24.6958-37.39C24.6958-38.3159 24.9221-39.1565 25.3746-39.9119C25.8271-40.6672 26.4345-41.2711 27.1968-41.7236C27.9591-42.1762 28.7962-42.4024 29.7082-42.4024C30.6272-42.4024 31.466-42.1762 32.2249-41.7236C32.9837-41.2711 33.5893-40.6672 34.0418-39.9119C34.4944-39.1565 34.7206-38.3159 34.7206-37.39C34.7206-36.478 34.4944-35.6409 34.0418-34.8786C33.5893-34.1163 32.9837-33.5089 32.2249-33.0564C31.466-32.6039 30.6272-32.3776 29.7082-32.3776ZM48.2749-32.3776C47.3629-32.3776 46.5258-32.6039 45.7635-33.0564C45.0012-33.5089 44.3938-34.1163 43.9413-34.8786C43.4888-35.6409 43.2625-36.478 43.2625-37.39C43.2625-38.3159 43.4888-39.1565 43.9413-39.9119C44.3938-40.6672 45.0012-41.2711 45.7635-41.7236C46.5258-42.1762 47.3629-42.4024 48.2749-42.4024C49.1939-42.4024 50.0327-42.1762 50.7916-41.7236C51.5504-41.2711 52.156-40.6672 52.6085-39.9119C53.0611-39.1565 53.2873-38.3159 53.2873-37.39C53.2873-36.478 53.0611-35.6409 52.6085-34.8786C52.156-34.1163 51.5504-33.5089 50.7916-33.0564C50.0327-32.6039 49.1939-32.3776 48.2749-32.3776ZM66.8416-32.3776C65.9296-32.3776 65.0925-32.6039 64.3302-33.0564C63.5679-33.5089 62.9605-34.1163 62.508-34.8786C62.0555-35.6409 61.8292-36.478 61.8292-37.39C61.8292-38.3159 62.0555-39.1565 62.508-39.9119C62.9605-40.6672 63.5679-41.2711 64.3302-41.7236C65.0925-42.1762 65.9296-42.4024 66.8416-42.4024C67.7606-42.4024 68.5994-42.1762 69.3583-41.7236C70.1171-41.2711 70.7227-40.6672 71.1752-39.9119C71.6278-39.1565 71.854-38.3159 71.854-37.39C71.854-36.478 71.6278-35.6409 71.1752-34.8786C70.7227-34.1163 70.1171-33.5089 69.3583-33.0564C68.5994-32.6039 67.7606-32.3776 66.8416-32.3776ZM12.7359-35.5119L31.5124-12.0413L26.4905-8.02376L6.3302-33.2241L4.5-35.5119L6.3302-37.7996L26.4905-63L31.5124-58.9825L12.7359-35.5119ZM88.9983-37.7996L90.8285-35.5119L88.9983-33.2241L68.838-8.02376L63.8161-12.0413L82.5926-35.5119L63.8161-58.9825L68.838-63L88.9983-37.7996Z"/>
  </g>
  <g id="Semibold-S" transform="matrix(1 0 0 1 1996.19 696)">
   <path d="M29.1622-32.3776C28.2502-32.3776 27.4131-32.6039 26.6508-33.0564C25.8885-33.5089 25.2811-34.1163 24.8286-34.8786C24.3761-35.6409 24.1498-36.478 24.1498-37.39C24.1498-38.3159 24.3761-39.1565 24.8286-39.9119C25.2811-40.6672 25.8885-41.2711 26.6508-41.7236C27.4131-42.1762 28.2502-42.4024 29.1622-42.4024C30.0812-42.4024 30.92-42.1762 31.6789-41.7236C32.4377-41.2711 33.0433-40.6672 33.4958-39.9119C33.9484-39.1565 34.1746-38.3159 34.1746-37.39C34.1746-36.478 33.9484-35.6409 33.4958-34.8786C33.0433-34.1163 32.4377-33.5089 31.6789-33.0564C30.92-32.6039 30.0812-32.3776 29.1622-32.3776ZM47.7289-32.3776C46.8169-32.3776 45.9798-32.6039 45.2175-33.0564C44.4552-33.5089 43.8478-34.1163 43.3953-34.8786C42.9428-35.6409 42.7165-36.478 42.7165-37.39C42.7165-38.3159 42.9428-39.1565 43.3953-39.9119C43.8478-40.6672 44.4552-41.2711 45.2175-41.7236C45.9798-42.1762 46.8169-42.4024 47.7289-42.4024C48.6479-42.4024 49.4867-42.1762 50.2456-41.7236C51.0044-41.2711 51.61-40.6672 52.0625-39.9119C52.5151-39.1565 52.7413-38.3159 52.7413-37.39C52.7413-36.478 52.5151-35.6409 52.0625-34.8786C51.61-34.1163 51.0044-33.5089 50.2456-33.0564C49.4867-32.6039 48.6479-32.3776 47.7289-32.3776ZM66.2956-32.3776C65.3836-32.3776 64.5465-32.6039 63.7842-33.0564C63.0219-33.5089 62.4145-34.1163 61.962-34.8786C61.5095-35.6409 61.2832-36.478 61.2832-37.39C61.2832-38.3159 61.5095-39.1565 61.962-39.9119C62.4145-40.6672 63.0219-41.2711 63.7842-41.7236C64.5465-42.1762 65.3836-42.4024 66.2956-42.4024C67.2146-42.4024 68.0534-42.1762 68.8123-41.7236C69.5711-41.2711 70.1767-40.6672 70.6292-39.9119C71.0818-39.1565 71.308-38.3159 71.308-37.39C71.308-36.478 71.0818-35.6409 70.6292-34.8786C70.1767-34.1163 69.5711-33.5089 68.8123-33.0564C68.0534-32.6039 67.2146-32.3776 66.2956-32.3776ZM12.1899-35.5119L30.9664-12.0413L25.9445-8.02376L5.7842-33.2241L3.954-35.5119L5.7842-37.7996L25.9445-63L30.9664-58.9825L12.1899-35.5119ZM88.4523-37.7996L90.2825-35.5119L88.4523-33.2241L68.292-8.02376L63.2701-12.0413L82.0466-35.5119L63.2701-58.9825L68.292-63L88.4523-37.7996Z"/>
  </g>
  <g id="Medium-S" transform="matrix(1 0 0 1 1699.83 696)">
   <path d="M28.7482-32.3776C27.8362-32.3776 26.9991-32.6039 26.2368-33.0564C25.4745-33.5089 24.8671-34.1163 24.4146-34.8786C23.9621-35.6409 23.7358-36.478 23.7358-37.39C23.7358-38.3159 23.9621-39.1565 24.4146-39.9119C24.8671-40.6672 25.4745-41.2711 26.2368-41.7236C26.9991-42.1762 27.8362-42.4024 28.7482-42.4024C29.6672-42.4024 30.506-42.1762 31.2649-41.7236C32.0237-41.2711 32.6293-40.6672 33.0818-39.9119C33.5344-39.1565 33.7606-38.3159 33.7606-37.39C33.7606-36.478 33.5344-35.6409 33.0818-34.8786C32.6293-34.1163 32.0237-33.5089 31.2649-33.0564C30.506-32.6039 29.6672-32.3776 28.7482-32.3776ZM47.3149-32.3776C46.4029-32.3776 45.5658-32.6039 44.8035-33.0564C44.0412-33.5089 43.4338-34.1163 42.9813-34.8786C42.5288-35.6409 42.3025-36.478 42.3025-37.39C42.3025-38.3159 42.5288-39.1565 42.9813-39.9119C43.4338-40.6672 44.0412-41.2711 44.8035-41.7236C45.5658-42.1762 46.4029-42.4024 47.3149-42.4024C48.2339-42.4024 49.0727-42.1762 49.8316-41.7236C50.5904-41.2711 51.196-40.6672 51.6485-39.9119C52.1011-39.1565 52.3273-38.3159 52.3273-37.39C52.3273-36.478 52.1011-35.6409 51.6485-34.8786C51.196-34.1163 50.5904-33.5089 49.8316-33.0564C49.0727-32.6039 48.2339-32.3776 47.3149-32.3776ZM65.8816-32.3776C64.9696-32.3776 64.1325-32.6039 63.3702-33.0564C62.6079-33.5089 62.0005-34.1163 61.548-34.8786C61.0955-35.6409 60.8692-36.478 60.8692-37.39C60.8692-38.3159 61.0955-39.1565 61.548-39.9119C62.0005-40.6672 62.6079-41.2711 63.3702-41.7236C64.1325-42.1762 64.9696-42.4024 65.8816-42.4024C66.8006-42.4024 67.6394-42.1762 68.3983-41.7236C69.1571-41.2711 69.7627-40.6672 70.2152-39.9119C70.6678-39.1565 70.894-38.3159 70.894-37.39C70.894-36.478 70.6678-35.6409 70.2152-34.8786C69.7627-34.1163 69.1571-33.5089 68.3983-33.0564C67.6394-32.6039 66.8006-32.3776 65.8816-32.3776ZM11.7759-35.5119L30.5524-12.0413L25.5305-8.02376L5.3702-33.2241L3.54-35.5119L5.3702-37.7996L25.5305-63L30.5524-58.9825L11.7759-35.5119ZM88.0383-37.7996L89.8685-35.5119L88.0383-33.2241L67.878-8.02376L62.8561-12.0413L81.6326-35.5119L62.8561-58.9825L67.878-63L88.0383-37.7996Z"/>
  </g>
  <g id="Regular-S" transform="matrix(1 0 0 1 1403.58 696)">
   <path d="M28.2082-32.3776C27.2962-32.3776 26.4591-32.6039 25.6968-33.0564C24.9345-33.5089 24.3271-34.1163 23.8746-34.8786C23.4221-35.6409 23.1958-36.478 23.1958-37.39C23.1958-38.3159 23.4221-39.1565 23.8746-39.9119C24.3271-40.6672 24.9345-41.2711 25.6968-41.7236C26.4591-42.1762 27.2962-42.4024 28.2082-42.4024C29.1272-42.4024 29.966-42.1762 30.7249-41.7236C31.4837-41.2711 32.0893-40.6672 32.5418-39.9119C32.9944-39.1565 33.2206-38.3159 33.2206-37.39C33.2206-36.478 32.9944-35.6409 32.5418-34.8786C32.0893-34.1163 31.4837-33.5089 30.7249-33.0564C29.966-32.6039 29.1272-32.3776 28.2082-32.3776ZM46.7749-32.3776C45.8629-32.3776 45.0258-32.6039 44.2635-33.0564C43.5012-33.5089 42.8938-34.1163 42.4413-34.8786C41.9888-35.6409 41.7625-36.478 41.7625-37.39C41.7625-38.3159 41.9888-39.1565 42.4413-39.9119C42.8938-40.6672 43.5012-41.2711 44.2635-41.7236C45.0258-42.1762 45.8629-42.4024 46.7749-42.4024C47.6939-42.4024 48.5327-42.1762 49.2916-41.7236C50.0504-41.2711 50.656-40.6672 51.1085-39.9119C51.5611-39.1565 51.7873-38.3159 51.7873-37.39C51.7873-36.478 51.5611-35.6409 51.1085-34.8786C50.656-34.1163 50.0504-33.5089 49.2916-33.0564C48.5327-32.6039 47.6939-32.3776 46.7749-32.3776ZM65.3416-32.3776C64.4296-32.3776 63.5925-32.6039 62.8302-33.0564C62.0679-33.5089 61.4605-34.1163 61.008-34.8786C60.5555-35.6409 60.3292-36.478 60.3292-37.39C60.3292-38.3159 60.5555-39.1565 61.008-39.9119C61.4605-40.6672 62.0679-41.2711 62.8302-41.7236C63.5925-42.1762 64.4296-42.4024 65.3416-42.4024C66.2606-42.4024 67.0994-42.1762 67.8583-41.7236C68.6171-41.2711 69.2227-40.6672 69.6752-39.9119C70.1278-39.1565 70.354-38.3159 70.354-37.39C70.354-36.478 70.1278-35.6409 69.6752-34.8786C69.2227-34.1163 68.6171-33.5089 67.8583-33.0564C67.0994-32.6039 66.2606-32.3776 65.3416-32.3776ZM11.2359-35.5119L30.0124-12.0413L24.9905-8.02376L4.8302-33.2241L3-35.5119L4.8302-37.7996L24.9905-63L30.0124-58.9825L11.2359-35.5119ZM87.4983-37.7996L89.3285-35.5119L87.4983-33.2241L67.338-8.02376L62.3161-12.0413L81.0926-35.5119L62.3161-58.9825L67.338-63L87.4983-37.7996Z"/>
  </g>
  <g id="Light-S" transform="matrix(1 0 0 1 1107.6 696)">
   <path d="M27.5416-32.3776C26.6296-32.3776 25.7925-32.6039 25.0301-33.0564C24.2678-33.5089 23.6604-34.1163 23.2079-34.8786C22.7554-35.6409 22.5292-36.478 22.5292-37.39C22.5292-38.3159 22.7554-39.1565 23.2079-39.9119C23.6604-40.6672 24.2678-41.2711 25.0301-41.7236C25.7925-42.1762 26.6296-42.4024 27.5416-42.4024C28.4605-42.4024 29.2994-42.1762 30.0582-41.7236C30.817-41.2711 31.4227-40.6672 31.8752-39.9119C32.3277-39.1565 32.5539-38.3159 32.5539-37.39C32.5539-36.478 32.3277-35.6409 31.8752-34.8786C31.4227-34.1163 30.817-33.5089 30.0582-33.0564C29.2994-32.6039 28.4605-32.3776 27.5416-32.3776ZM46.1083-32.3776C45.1963-32.3776 44.3592-32.6039 43.5968-33.0564C42.8345-33.5089 42.2271-34.1163 41.7746-34.8786C41.3221-35.6409 41.0959-36.478 41.0959-37.39C41.0959-38.3159 41.3221-39.1565 41.7746-39.9119C42.2271-40.6672 42.8345-41.2711 43.5968-41.7236C44.3592-42.1762 45.1963-42.4024 46.1083-42.4024C47.0272-42.4024 47.8661-42.1762 48.6249-41.7236C49.3837-41.2711 49.9894-40.6672 50.4419-39.9119C50.8944-39.1565 51.1206-38.3159 51.1206-37.39C51.1206-36.478 50.8944-35.6409 50.4419-34.8786C49.9894-34.1163 49.3837-33.5089 48.6249-33.0564C47.8661-32.6039 47.0272-32.3776 46.1083-32.3776ZM64.675-32.3776C63.763-32.3776 62.9258-32.6039 62.1635-33.0564C61.4012-33.5089 60.7938-34.1163 60.3413-34.8786C59.8888-35.6409 59.6626-36.478 59.6626-37.39C59.6626-38.3159 59.8888-39.1565 60.3413-39.9119C60.7938-40.6672 61.4012-41.2711 62.1635-41.7236C62.9258-42.1762 63.763-42.4024 64.675-42.4024C65.5939-42.4024 66.4328-42.1762 67.1916-41.7236C67.9504-41.2711 68.5561-40.6672 69.0086-39.9119C69.4611-39.1565 69.6873-38.3159 69.6873-37.39C69.6873-36.478 69.4611-35.6409 69.0086-34.8786C68.5561-34.1163 67.9504-33.5089 67.1916-33.0564C66.4328-32.6039 65.5939-32.3776 64.675-32.3776ZM10.5692-35.5119L29.3457-12.0413L24.3238-8.02376L4.16353-33.2241L2.33333-35.5119L4.16353-37.7996L24.3238-63L29.3457-58.9825L10.5692-35.5119ZM86.8317-37.7996L88.6619-35.5119L86.8317-33.2241L66.6714-8.02376L61.6495-12.0413L80.426-35.5119L61.6495-58.9825L66.6714-63L86.8317-37.7996Z"/>
  </g>
  <g id="Thin-S" transform="matrix(1 0 0 1 811.863 696)">
   <path d="M26.6598-32.3776C25.7479-32.3776 24.9107-32.6039 24.1484-33.0564C23.3861-33.5089 22.7787-34.1163 22.3262-34.8786C21.8737-35.6409 21.6475-36.478 21.6475-37.39C21.6475-38.3159 21.8737-39.1565 22.3262-39.9119C22.7787-40.6672 23.3861-41.2711 24.1484-41.7236C24.9107-42.1762 25.7479-42.4024 26.6598-42.4024C27.5788-42.4024 28.4176-42.1762 29.1765-41.7236C29.9353-41.2711 30.541-40.6672 30.9935-39.9119C31.446-39.1565 31.6722-38.3159 31.6722-37.39C31.6722-36.478 31.446-35.6409 30.9935-34.8786C30.541-34.1163 29.9353-33.5089 29.1765-33.0564C28.4176-32.6039 27.5788-32.3776 26.6598-32.3776ZM45.2265-32.3776C44.3146-32.3776 43.4774-32.6039 42.7151-33.0564C41.9528-33.5089 41.3454-34.1163 40.8929-34.8786C40.4404-35.6409 40.2142-36.478 40.2142-37.39C40.2142-38.3159 40.4404-39.1565 40.8929-39.9119C41.3454-40.6672 41.9528-41.2711 42.7151-41.7236C43.4774-42.1762 44.3146-42.4024 45.2265-42.4024C46.1455-42.4024 46.9843-42.1762 47.7432-41.7236C48.502-41.2711 49.1077-40.6672 49.5602-39.9119C50.0127-39.1565 50.2389-38.3159 50.2389-37.39C50.2389-36.478 50.0127-35.6409 49.5602-34.8786C49.1077-34.1163 48.502-33.5089 47.7432-33.0564C46.9843-32.6039 46.1455-32.3776 45.2265-32.3776ZM63.7932-32.3776C62.8813-32.3776 62.0441-32.6039 61.2818-33.0564C60.5195-33.5089 59.9121-34.1163 59.4596-34.8786C59.0071-35.6409 58.7809-36.478 58.7809-37.39C58.7809-38.3159 59.0071-39.1565 59.4596-39.9119C59.9121-40.6672 60.5195-41.2711 61.2818-41.7236C62.0441-42.1762 62.8813-42.4024 63.7932-42.4024C64.7122-42.4024 65.551-42.1762 66.3099-41.7236C67.0687-41.2711 67.6744-40.6672 68.1269-39.9119C68.5794-39.1565 68.8056-38.3159 68.8056-37.39C68.8056-36.478 68.5794-35.6409 68.1269-34.8786C67.6744-34.1163 67.0687-33.5089 66.3099-33.0564C65.551-32.6039 64.7122-32.3776 63.7932-32.3776ZM9.68751-35.5119L28.464-12.0413L23.4421-8.02376L3.28181-33.2241L1.45161-35.5119L3.28181-37.7996L23.4421-63L28.464-58.9825L9.68751-35.5119ZM85.9499-37.7996L87.7801-35.5119L85.9499-33.2241L65.7896-8.02376L60.7678-12.0413L79.5442-35.5119L60.7678-58.9825L65.7896-63L85.9499-37.7996Z"/>
  </g>
  <g id="Ultralight-S" transform="matrix(1 0 0 1 515.649 696)">
   <path d="M26.2082-32.3776C25.2962-32.3776 24.4591-32.6039 23.6968-33.0564C22.9345-33.5089 22.3271-34.1163 21.8746-34.8786C21.4221-35.6409 21.1958-36.478 21.1958-37.39C21.1958-38.3159 21.4221-39.1565 21.8746-39.9119C22.3271-40.6672 22.9345-41.2711 23.6968-41.7236C24.4591-42.1762 25.2962-42.4024 26.2082-42.4024C27.1272-42.4024 27.966-42.1762 28.7249-41.7236C29.4837-41.2711 30.0893-40.6672 30.5418-39.9119C30.9944-39.1565 31.2206-38.3159 31.2206-37.39C31.2206-36.478 30.9944-35.6409 30.5418-34.8786C30.0893-34.1163 29.4837-33.5089 28.7249-33.0564C27.966-32.6039 27.1272-32.3776 26.2082-32.3776ZM44.7749-32.3776C43.8629-32.3776 43.0258-32.6039 42.2635-33.0564C41.5012-33.5089 40.8938-34.1163 40.4413-34.8786C39.9888-35.6409 39.7625-36.478 39.7625-37.39C39.7625-38.3159 39.9888-39.1565 40.4413-39.9119C40.8938-40.6672 41.5012-41.2711 42.2635-41.7236C43.0258-42.1762 43.8629-42.4024 44.7749-42.4024C45.6939-42.4024 46.5327-42.1762 47.2916-41.7236C48.0504-41.2711 48.656-40.6672 49.1085-39.9119C49.5611-39.1565 49.7873-38.3159 49.7873-37.39C49.7873-36.478 49.5611-35.6409 49.1085-34.8786C48.656-34.1163 48.0504-33.5089 47.2916-33.0564C46.5327-32.6039 45.6939-32.3776 44.7749-32.3776ZM63.3416-32.3776C62.4296-32.3776 61.5925-32.6039 60.8302-33.0564C60.0679-33.5089 59.4605-34.1163 59.008-34.8786C58.5555-35.6409 58.3292-36.478 58.3292-37.39C58.3292-38.3159 58.5555-39.1565 59.008-39.9119C59.4605-40.6672 60.0679-41.2711 60.8302-41.7236C61.5925-42.1762 62.4296-42.4024 63.3416-42.4024C64.2606-42.4024 65.0994-42.1762 65.8583-41.7236C66.6171-41.2711 67.2227-40.6672 67.6752-39.9119C68.1278-39.1565 68.354-38.3159 68.354-37.39C68.354-36.478 68.1278-35.6409 67.6752-34.8786C67.2227-34.1163 66.6171-33.5089 65.8583-33.0564C65.0994-32.6039 64.2606-32.3776 63.3416-32.3776ZM9.2359-35.5119L28.0124-12.0413L22.9905-8.02376L2.8302-33.2241L1-35.5119L2.8302-37.7996L22.9905-63L28.0124-58.9825L9.2359-35.5119ZM85.4983-37.7996L87.3285-35.5119L85.4983-33.2241L65.338-8.02376L60.3161-12.0413L79.0926-35.5119L60.3161-58.9825L65.338-63L85.4983-37.7996Z"/>
  </g>
 </g>
</svg>
