<?xml version="1.0" encoding="UTF-8"?>
<!--Generator: Apple Native CoreSVG 232.5-->
<!DOCTYPE svg
PUBLIC "-//W3C//DTD SVG 1.1//EN"
       "http://www.w3.org/Graphics/SVG/1.1/DTD/svg11.dtd">
<svg version="1.1" xmlns="http://www.w3.org/2000/svg" xmlns:xlink="http://www.w3.org/1999/xlink" width="3300" height="2200">
 <!--glyph: "uni101A81.medium", point size: 100.0, font version: "19.2d2e1", template writer version: "128"-->
 <style>.monochrome-0 {-sfsymbols-motion-group:1}
.monochrome-1 {opacity:0.0;-sfsymbols-clear-behind:true;-sfsymbols-motion-group:0}
.monochrome-2 {-sfsymbols-motion-group:0}

.multicolor-0:systemRedColor {-sfsymbols-motion-group:1}
.multicolor-1:tintColor {opacity:0.0;-sfsymbols-clear-behind:true;-sfsymbols-motion-group:0}
.multicolor-2:systemRedColor {-sfsymbols-motion-group:0}

.hierarchical-0:secondary {-sfsymbols-motion-group:1}
.hierarchical-1:primary {opacity:0.0;-sfsymbols-clear-behind:true;-sfsymbols-motion-group:0}
.hierarchical-2:primary {-sfsymbols-motion-group:0}

.SFSymbolsPreviewWireframe {fill:none;opacity:1.0;stroke:black;stroke-width:0.5}
</style>
 <g id="Notes">
  <rect height="2200" id="artboard" style="fill:white;opacity:1" width="3300" x="0" y="0"/>
  <line style="fill:none;stroke:black;opacity:1;stroke-width:0.5;" x1="263" x2="3036" y1="292" y2="292"/>
  <text style="stroke:none;fill:black;font-family:sans-serif;font-size:13;font-weight:bold;" transform="matrix(1 0 0 1 263 322)">Weight/Scale Variations</text>
  <text style="stroke:none;fill:black;font-family:sans-serif;font-size:13;text-anchor:middle;" transform="matrix(1 0 0 1 559.711 322)">Ultralight</text>
  <text style="stroke:none;fill:black;font-family:sans-serif;font-size:13;text-anchor:middle;" transform="matrix(1 0 0 1 856.422 322)">Thin</text>
  <text style="stroke:none;fill:black;font-family:sans-serif;font-size:13;text-anchor:middle;" transform="matrix(1 0 0 1 1153.13 322)">Light</text>
  <text style="stroke:none;fill:black;font-family:sans-serif;font-size:13;text-anchor:middle;" transform="matrix(1 0 0 1 1449.84 322)">Regular</text>
  <text style="stroke:none;fill:black;font-family:sans-serif;font-size:13;text-anchor:middle;" transform="matrix(1 0 0 1 1746.56 322)">Medium</text>
  <text style="stroke:none;fill:black;font-family:sans-serif;font-size:13;text-anchor:middle;" transform="matrix(1 0 0 1 2043.27 322)">Semibold</text>
  <text style="stroke:none;fill:black;font-family:sans-serif;font-size:13;text-anchor:middle;" transform="matrix(1 0 0 1 2339.98 322)">Bold</text>
  <text style="stroke:none;fill:black;font-family:sans-serif;font-size:13;text-anchor:middle;" transform="matrix(1 0 0 1 2636.69 322)">Heavy</text>
  <text style="stroke:none;fill:black;font-family:sans-serif;font-size:13;text-anchor:middle;" transform="matrix(1 0 0 1 2933.4 322)">Black</text>
  <line style="fill:none;stroke:black;opacity:1;stroke-width:0.5;" x1="263" x2="3036" y1="1903" y2="1903"/>
  <g transform="matrix(0.2 0 0 0.2 263 1933)">
   <path d="m46.2402 4.15039c21.5332 0 39.4531-17.8711 39.4531-39.4043s-17.9688-39.4043-39.502-39.4043c-21.4844 0-39.3555 17.8711-39.3555 39.4043s17.9199 39.4043 39.4043 39.4043Zm0-7.42188c-17.7246 0-31.8848-14.209-31.8848-31.9824s14.1113-31.9824 31.8359-31.9824c17.7734 0 32.0312 14.209 32.0312 31.9824s-14.209 31.9824-31.9824 31.9824Zm-17.9688-31.9824c0 2.14844 1.51367 3.61328 3.75977 3.61328h10.498v10.5957c0 2.19727 1.46484 3.71094 3.61328 3.71094 2.24609 0 3.71094-1.51367 3.71094-3.71094v-10.5957h10.5957c2.19727 0 3.71094-1.46484 3.71094-3.61328 0-2.19727-1.51367-3.71094-3.71094-3.71094h-10.5957v-10.5469c0-2.24609-1.46484-3.75977-3.71094-3.75977-2.14844 0-3.61328 1.51367-3.61328 3.75977v10.5469h-10.498c-2.24609 0-3.75977 1.51367-3.75977 3.71094Z"/>
  </g>
  <g transform="matrix(0.2 0 0 0.2 281.506 1933)">
   <path d="m58.5449 14.5508c27.2461 0 49.8047-22.6074 49.8047-49.8047 0-27.2461-22.6074-49.8047-49.8535-49.8047-27.1973 0-49.7559 22.5586-49.7559 49.8047 0 27.1973 22.6074 49.8047 49.8047 49.8047Zm0-8.30078c-23.0469 0-41.4551-18.457-41.4551-41.5039s18.3594-41.5039 41.4062-41.5039 41.5527 18.457 41.5527 41.5039-18.457 41.5039-41.5039 41.5039Zm-22.6562-41.5039c0 2.39258 1.66016 4.00391 4.15039 4.00391h14.3555v14.4043c0 2.44141 1.66016 4.15039 4.05273 4.15039 2.44141 0 4.15039-1.66016 4.15039-4.15039v-14.4043h14.4043c2.44141 0 4.15039-1.61133 4.15039-4.00391 0-2.44141-1.70898-4.15039-4.15039-4.15039h-14.4043v-14.3555c0-2.49023-1.70898-4.19922-4.15039-4.19922-2.39258 0-4.05273 1.70898-4.05273 4.19922v14.3555h-14.3555c-2.49023 0-4.15039 1.70898-4.15039 4.15039Z"/>
  </g>
  <g transform="matrix(0.2 0 0 0.2 304.924 1933)">
   <path d="m74.8535 28.3203c34.8145 0 63.623-28.8086 63.623-63.5742 0-34.8145-28.8574-63.623-63.6719-63.623-34.7656 0-63.5254 28.8086-63.5254 63.623 0 34.7656 28.8086 63.5742 63.5742 63.5742Zm0-9.08203c-30.1758 0-54.4434-24.3164-54.4434-54.4922 0-30.2246 24.2188-54.4922 54.3945-54.4922 30.2246 0 54.541 24.2676 54.541 54.4922 0 30.1758-24.2676 54.4922-54.4922 54.4922Zm-28.8574-54.4922c0 2.58789 1.85547 4.39453 4.58984 4.39453h19.7266v19.7754c0 2.68555 1.85547 4.58984 4.44336 4.58984 2.68555 0 4.54102-1.85547 4.54102-4.58984v-19.7754h19.7754c2.68555 0 4.58984-1.80664 4.58984-4.39453 0-2.73438-1.85547-4.58984-4.58984-4.58984h-19.7754v-19.7266c0-2.73438-1.85547-4.63867-4.54102-4.63867-2.58789 0-4.44336 1.9043-4.44336 4.63867v19.7266h-19.7266c-2.73438 0-4.58984 1.85547-4.58984 4.58984Z"/>
  </g>
  <text style="stroke:none;fill:black;font-family:sans-serif;font-size:13;font-weight:bold;" transform="matrix(1 0 0 1 263 1953)">Design Variations</text>
  <text style="stroke:none;fill:black;font-family:sans-serif;font-size:13;" transform="matrix(1 0 0 1 263 1971)">Symbols are supported in up to nine weights and three scales.</text>
  <text style="stroke:none;fill:black;font-family:sans-serif;font-size:13;" transform="matrix(1 0 0 1 263 1989)">For optimal layout with text and other symbols, vertically align</text>
  <text style="stroke:none;fill:black;font-family:sans-serif;font-size:13;" transform="matrix(1 0 0 1 263 2007)">symbols with the adjacent text.</text>
  <line style="fill:none;stroke:#00AEEF;stroke-width:0.5;opacity:1.0;" x1="776" x2="776" y1="1919" y2="1933"/>
  <g transform="matrix(0.2 0 0 0.2 776 1933)">
   <path d="m16.5527 0.78125c2.58789 0 3.85742-0.976562 4.78516-3.71094l6.29883-17.2363h28.8086l6.29883 17.2363c0.927734 2.73438 2.19727 3.71094 4.73633 3.71094 2.58789 0 4.24805-1.5625 4.24805-4.00391 0-0.830078-0.146484-1.61133-0.537109-2.63672l-22.9004-60.9863c-1.12305-2.97852-3.125-4.49219-6.25-4.49219-3.02734 0-5.07812 1.46484-6.15234 4.44336l-22.9004 61.084c-0.390625 1.02539-0.537109 1.80664-0.537109 2.63672 0 2.44141 1.5625 3.95508 4.10156 3.95508Zm13.4766-28.3691 11.8652-32.8613h0.244141l11.8652 32.8613Z"/>
  </g>
  <line style="fill:none;stroke:#00AEEF;stroke-width:0.5;opacity:1.0;" x1="792.836" x2="792.836" y1="1919" y2="1933"/>
  <text style="stroke:none;fill:black;font-family:sans-serif;font-size:13;font-weight:bold;" transform="matrix(1 0 0 1 776 1953)">Margins</text>
  <text style="stroke:none;fill:black;font-family:sans-serif;font-size:13;" transform="matrix(1 0 0 1 776 1971)">Leading and trailing margins on the left and right side of each symbol</text>
  <text style="stroke:none;fill:black;font-family:sans-serif;font-size:13;" transform="matrix(1 0 0 1 776 1989)">can be adjusted by modifying the x-location of the margin guidelines.</text>
  <text style="stroke:none;fill:black;font-family:sans-serif;font-size:13;" transform="matrix(1 0 0 1 776 2007)">Modifications are automatically applied proportionally to all</text>
  <text style="stroke:none;fill:black;font-family:sans-serif;font-size:13;" transform="matrix(1 0 0 1 776 2025)">scales and weights.</text>
  <g transform="matrix(0.2 0 0 0.2 1289 1933)">
   <path d="m14.209 9.32617 8.49609 8.54492c4.29688 4.3457 9.22852 4.05273 13.8672-1.07422l53.4668-58.9355-4.83398-4.88281-53.0762 58.3984c-1.75781 2.00195-3.41797 2.49023-5.76172 0.146484l-5.85938-5.81055c-2.34375-2.29492-1.80664-4.00391 0.195312-5.81055l57.373-54.0039-4.88281-4.83398-57.959 54.4434c-4.93164 4.58984-5.32227 9.47266-1.02539 13.8184Zm32.0801-90.9668c-2.09961 2.05078-2.24609 4.93164-1.07422 6.88477 1.17188 1.80664 3.4668 2.97852 6.68945 2.14844 7.32422-1.70898 14.9414-2.00195 22.0703 2.68555l-2.92969 7.27539c-1.70898 4.15039-0.830078 7.08008 1.85547 9.81445l11.4746 11.5723c2.44141 2.44141 4.49219 2.53906 7.32422 2.05078l5.32227-0.976562 3.32031 3.36914-0.195312 2.7832c-0.195312 2.49023 0.439453 4.39453 2.88086 6.78711l3.80859 3.71094c2.39258 2.39258 5.46875 2.53906 7.8125 0.195312l14.5508-14.5996c2.34375-2.34375 2.24609-5.32227-0.146484-7.71484l-3.85742-3.80859c-2.39258-2.39258-4.24805-3.17383-6.64062-2.97852l-2.88086 0.244141-3.22266-3.17383 1.2207-5.61523c0.634766-2.83203-0.146484-5.0293-3.07617-7.95898l-10.9863-10.9375c-16.6992-16.6016-38.8672-16.2109-53.3203-1.75781Zm7.4707 1.85547c12.1582-8.88672 28.6133-7.37305 39.7461 3.75977l12.1582 12.0605c1.17188 1.17188 1.36719 2.09961 1.02539 3.80859l-1.61133 7.42188 7.51953 7.42188 4.93164-0.292969c1.26953-0.0488281 1.66016 0.0488281 2.63672 1.02539l2.88086 2.88086-12.207 12.207-2.88086-2.88086c-0.976562-0.976562-1.12305-1.36719-1.07422-2.68555l0.341797-4.88281-7.4707-7.42188-7.61719 1.26953c-1.61133 0.341797-2.34375 0.195312-3.56445-0.976562l-10.0098-10.0098c-1.26953-1.17188-1.41602-2.00195-0.634766-3.85742l4.39453-10.4492c-7.8125-7.27539-17.9688-10.4004-28.125-7.42188-0.78125 0.195312-1.07422-0.439453-0.439453-0.976562Z"/>
  </g>
  <text style="stroke:none;fill:black;font-family:sans-serif;font-size:13;font-weight:bold;" transform="matrix(1 0 0 1 1289 1953)">Exporting</text>
  <text style="stroke:none;fill:black;font-family:sans-serif;font-size:13;" transform="matrix(1 0 0 1 1289 1971)">Symbols should be outlined when exporting to ensure the</text>
  <text style="stroke:none;fill:black;font-family:sans-serif;font-size:13;" transform="matrix(1 0 0 1 1289 1989)">design is preserved when submitting to Xcode.</text>
  <text id="template-version" style="stroke:none;fill:black;font-family:sans-serif;font-size:13;text-anchor:end;" transform="matrix(1 0 0 1 3036 1933)">Template v.5.0</text>
  <text style="stroke:none;fill:black;font-family:sans-serif;font-size:13;text-anchor:end;" transform="matrix(1 0 0 1 3036 1951)">Requires Xcode 15 or greater</text>
  <text id="descriptive-name" style="stroke:none;fill:black;font-family:sans-serif;font-size:13;text-anchor:end;" transform="matrix(1 0 0 1 3036 1969)">Generated from bell.slash</text>
  <text style="stroke:none;fill:black;font-family:sans-serif;font-size:13;text-anchor:end;" transform="matrix(1 0 0 1 3036 1987)">Typeset at 100.0 points</text>
  <text style="stroke:none;fill:black;font-family:sans-serif;font-size:13;" transform="matrix(1 0 0 1 263 726)">Small</text>
  <text style="stroke:none;fill:black;font-family:sans-serif;font-size:13;" transform="matrix(1 0 0 1 263 1156)">Medium</text>
  <text style="stroke:none;fill:black;font-family:sans-serif;font-size:13;" transform="matrix(1 0 0 1 263 1586)">Large</text>
 </g>
 <g id="Guides">
  <g id="H-reference" style="fill:#27AAE1;stroke:none;" transform="matrix(1 0 0 1 339 696)">
   <path d="M0.993654 0L3.63775 0L29.3281-67.1323L30.0303-67.1323L30.0303-70.459L28.1226-70.459ZM11.6885-24.4799L46.9815-24.4799L46.2315-26.7285L12.4385-26.7285ZM55.1196 0L57.7637 0L30.6382-70.459L29.4326-70.459L29.4326-67.1323Z"/>
  </g>
  <line id="Baseline-S" style="fill:none;stroke:#27AAE1;opacity:1;stroke-width:0.5;" x1="263" x2="3036" y1="696" y2="696"/>
  <line id="Capline-S" style="fill:none;stroke:#27AAE1;opacity:1;stroke-width:0.5;" x1="263" x2="3036" y1="625.541" y2="625.541"/>
  <g id="H-reference" style="fill:#27AAE1;stroke:none;" transform="matrix(1 0 0 1 339 1126)">
   <path d="M0.993654 0L3.63775 0L29.3281-67.1323L30.0303-67.1323L30.0303-70.459L28.1226-70.459ZM11.6885-24.4799L46.9815-24.4799L46.2315-26.7285L12.4385-26.7285ZM55.1196 0L57.7637 0L30.6382-70.459L29.4326-70.459L29.4326-67.1323Z"/>
  </g>
  <line id="Baseline-M" style="fill:none;stroke:#27AAE1;opacity:1;stroke-width:0.5;" x1="263" x2="3036" y1="1126" y2="1126"/>
  <line id="Capline-M" style="fill:none;stroke:#27AAE1;opacity:1;stroke-width:0.5;" x1="263" x2="3036" y1="1055.54" y2="1055.54"/>
  <g id="H-reference" style="fill:#27AAE1;stroke:none;" transform="matrix(1 0 0 1 339 1556)">
   <path d="M0.993654 0L3.63775 0L29.3281-67.1323L30.0303-67.1323L30.0303-70.459L28.1226-70.459ZM11.6885-24.4799L46.9815-24.4799L46.2315-26.7285L12.4385-26.7285ZM55.1196 0L57.7637 0L30.6382-70.459L29.4326-70.459L29.4326-67.1323Z"/>
  </g>
  <line id="Baseline-L" style="fill:none;stroke:#27AAE1;opacity:1;stroke-width:0.5;" x1="263" x2="3036" y1="1556" y2="1556"/>
  <line id="Capline-L" style="fill:none;stroke:#27AAE1;opacity:1;stroke-width:0.5;" x1="263" x2="3036" y1="1485.54" y2="1485.54"/>
  <line id="left-margin-Ultralight-S" style="fill:none;stroke:#00AEEF;stroke-width:0.5;opacity:1.0;" x1="515.431" x2="515.431" y1="600.785" y2="720.121"/>
  <line id="right-margin-Ultralight-S" style="fill:none;stroke:#00AEEF;stroke-width:0.5;opacity:1.0;" x1="603.991" x2="603.991" y1="600.785" y2="720.121"/>
  <line id="left-margin-Regular-S" style="fill:none;stroke:#00AEEF;stroke-width:0.5;opacity:1.0;" x1="1405.65" x2="1405.65" y1="600.785" y2="720.121"/>
  <line id="right-margin-Regular-S" style="fill:none;stroke:#00AEEF;stroke-width:0.5;opacity:1.0;" x1="1494.03" x2="1494.03" y1="600.785" y2="720.121"/>
  <line id="left-margin-Black-S" style="fill:none;stroke:#00AEEF;stroke-width:0.5;opacity:1.0;" x1="2885.3" x2="2885.3" y1="600.785" y2="720.121"/>
  <line id="right-margin-Black-S" style="fill:none;stroke:#00AEEF;stroke-width:0.5;opacity:1.0;" x1="2981.5" x2="2981.5" y1="600.785" y2="720.121"/>
 </g>
 <g id="Symbols">
  <g id="Black-S" transform="matrix(1 0 0 1 2885.3 696)">
   <path class="monochrome-0 multicolor-0:systemRedColor hierarchical-0:secondary SFSymbolsPreviewWireframe" d="M5.85938-16.3086C5.85938-10.8398 9.61914-7.17773 15.2832-7.17773L29.1504-7.17773C29.4434 0 36.4258 7.71484 48.0957 7.71484C59.7656 7.71484 66.748 0 67.041-7.17773L80.9082-7.17773C86.5723-7.17773 90.332-10.8398 90.332-16.3086C90.332-21.582 87.3535-25.293 83.2031-28.3203C79.5898-30.957 79.1504-35.5469 77.6855-45.3125C75.9766-56.7383 70.2637-66.1133 61.1816-69.3359C58.9355-74.9023 54.0527-78.2227 48.0957-78.2227C42.1387-78.2227 37.2559-74.9023 35.0098-69.3359C25.9277-66.1133 20.2148-56.7383 18.5059-45.3125C17.041-35.5469 16.6016-30.957 12.9883-28.3203C8.83789-25.293 5.85938-21.582 5.85938-16.3086ZM23.4863-20.2637L23.4863-20.6543C25.9277-21.6309 27.832-22.7051 29.1504-24.5117C31.25-27.3438 32.1289-35.8887 32.8613-42.1875C33.9355-51.5625 37.6465-56.0059 41.8945-57.1289C42.7246-57.3242 43.2617-57.666 43.5059-59.082C43.9941-62.4512 45.6055-64.209 48.0957-64.209C50.5859-64.209 52.1973-62.4512 52.6855-59.082C52.9297-57.666 53.4668-57.3242 54.2969-57.1289C58.5449-56.0059 62.2559-51.5625 63.3301-42.1875C64.0625-35.8887 65.0391-27.3438 67.041-24.5117C68.3105-22.7051 69.7754-21.6309 72.2168-20.6543L72.2168-20.2637ZM42.5781-7.17773L53.6133-7.17773C53.3691-4.24805 51.0742-2.09961 48.0957-2.09961C45.1172-2.09961 42.8223-4.24805 42.5781-7.17773Z"/>
   <path class="monochrome-1 multicolor-1:tintColor hierarchical-1:primary SFSymbolsPreviewWireframe" d="M6.44531-64.1113L79.7852 9.13086C83.4961 12.793 89.502 12.793 93.0664 9.0332C96.5332 5.46875 96.7285-0.390625 93.0176-4.10156L19.7266-77.3438C16.0645-81.0059 10.1074-81.0059 6.44531-77.3438C2.83203-73.7305 2.83203-67.7246 6.44531-64.1113Z"/>
   <path class="monochrome-2 multicolor-2:systemRedColor hierarchical-2:primary SFSymbolsPreviewWireframe" d="M10.5957-68.2617L83.9355 4.98047C85.3027 6.34766 87.5488 6.34766 88.8672 4.98047C90.1855 3.61328 90.2344 1.41602 88.8672 0.0488281L15.5762-73.1934C14.209-74.5605 11.9629-74.5605 10.5957-73.1934C9.27734-71.875 9.27734-69.5801 10.5957-68.2617Z"/>
  </g>
  <g id="Regular-S" transform="matrix(1 0 0 1 1405.65 696)">
   <path class="monochrome-0 multicolor-0:systemRedColor hierarchical-0:secondary SFSymbolsPreviewWireframe" d="M7.76367-14.8438C7.76367-11.7188 10.2051-9.61914 14.3555-9.61914L29.2969-9.61914C29.6875-2.14844 35.7422 4.63867 44.1895 4.63867C52.6855 4.63867 58.7402-2.09961 59.082-9.61914L74.0234-9.61914C78.1738-9.61914 80.6152-11.7188 80.6152-14.8438C80.6152-18.6523 76.6602-22.168 73.2422-25.5371C71.0938-27.7344 70.166-32.2754 70.1172-35.6934C70.0195-52.002 66.1133-62.207 55.6641-66.2109C54.248-71.0938 50.0488-75.1465 44.1895-75.1465C38.3301-75.1465 34.1309-71.0938 32.7148-66.2109C22.2656-62.207 18.3594-52.002 18.2617-35.6934C18.2129-32.2754 17.334-27.7344 15.1367-25.5371C11.7676-22.168 7.76367-18.6523 7.76367-14.8438ZM16.3086-16.2109L16.3086-16.6992C17.1387-17.5781 19.2383-19.5312 21.1426-21.6797C23.4375-24.3164 25.1465-28.0762 25.2441-35.2051C25.293-53.4668 30.6152-58.6426 37.1094-60.4492C37.9883-60.6445 38.4766-61.1328 38.4766-62.0117C38.4766-66.0645 40.7227-68.75 44.1895-68.75C47.6562-68.75 49.9023-66.0645 49.9023-62.0117C49.9512-61.1328 50.3906-60.6445 51.2695-60.4492C57.7637-58.6426 63.0859-53.4668 63.1348-35.2051C63.2324-28.0762 64.9414-24.3164 67.2363-21.6797C69.1406-19.5312 71.2402-17.5781 72.0703-16.6992L72.0703-16.2109ZM36.084-9.61914L52.2949-9.61914C52.002-4.63867 48.7305-1.46484 44.1895-1.46484C39.6484-1.46484 36.377-4.63867 36.084-9.61914Z"/>
   <path class="monochrome-1 multicolor-1:tintColor hierarchical-1:primary SFSymbolsPreviewWireframe" d="M5.27344-62.9883L73.4863 5.12695C76.709 8.30078 81.9336 8.30078 85.0586 5.0293C88.1348 1.85547 88.1348-3.22266 85.0098-6.39648L16.8457-74.5117C13.6719-77.6855 8.49609-77.6855 5.27344-74.5117C2.14844-71.3867 2.14844-66.1133 5.27344-62.9883Z"/>
   <path class="monochrome-2 multicolor-2:systemRedColor hierarchical-2:primary SFSymbolsPreviewWireframe" d="M8.69141-66.3574L76.8555 1.70898C78.1738 3.02734 80.3223 3.02734 81.5918 1.70898C82.8613 0.390625 82.9102-1.70898 81.5918-3.02734L13.4766-71.0938C12.1582-72.4121 10.0098-72.4121 8.69141-71.0938C7.42188-69.8242 7.42188-67.627 8.69141-66.3574Z"/>
  </g>
  <g id="Ultralight-S" transform="matrix(1 0 0 1 515.431 696)">
   <path class="monochrome-0 multicolor-0:systemRedColor hierarchical-0:secondary SFSymbolsPreviewWireframe" d="M9.67088-11.3018C9.67088-10.0386 10.5229-9.21045 11.8125-9.21045L33.3383-9.21045C33.4565-2.4209 37.9219 2.459 44.2803 2.459C50.6421 2.459 55.1075-2.41748 55.2222-9.21045L76.748-9.21045C78.0376-9.21045 78.8897-10.0386 78.8897-11.3018C78.8897-15.2012 75.4341-18.399 72.4702-21.7681C68.3238-26.4175 68.6221-35.8628 67.3926-44.7299C66.1143-54.3179 62.2989-61.9346 53.3936-64.1675C52.6587-69.5044 49.0498-72.9668 44.2803-72.9668C39.5561-72.9668 35.9018-69.5044 35.167-64.1675C26.2617-61.9346 22.4463-54.3179 21.1679-44.7299C19.9385-35.8628 20.2402-26.4175 16.0903-21.7681C13.1299-18.399 9.67088-15.2012 9.67088-11.3018ZM12.1763-11.3975L12.1763-11.795C12.2344-14.0362 15.2876-17.5786 17.7823-20.1812C22.5747-25.1338 21.9678-35.2963 23.3823-44.287C24.8389-54.0571 28.2085-59.9141 35.0205-61.7661C36.3989-62.1431 37.2051-62.6313 37.3867-63.8735C37.9771-67.6992 40.314-70.7934 44.2803-70.7934C48.2466-70.7934 50.5835-67.6992 51.1738-63.8735C51.3589-62.6313 52.1616-62.1431 53.54-61.7661C60.352-59.9141 63.7217-54.0571 65.1782-44.287C66.5927-35.2963 66.0312-25.1338 70.7783-20.1812C73.2729-17.5786 76.3261-14.0362 76.3842-11.795L76.3842-11.3975ZM35.5391-9.21045L53.0215-9.21045C52.7285-3.3672 49.1392 0.396958 44.2803 0.396958C39.4214 0.396958 35.832-3.3672 35.5391-9.21045Z"/>
   <path class="monochrome-1 multicolor-1:tintColor hierarchical-1:primary SFSymbolsPreviewWireframe" d="M8.86081-67.7109L79.9345 3.35597C81.5224 4.98587 84.1587 4.98587 85.7397 3.34913C87.4536 1.71924 87.4082-0.861347 85.7363-2.44583L14.666-73.5581C13.127-75.0972 10.6304-75.2334 8.90622-73.6489C7.18893-71.977 7.18893-69.3374 8.86081-67.7109Z"/>
   <path class="monochrome-2 multicolor-2:systemRedColor hierarchical-2:primary SFSymbolsPreviewWireframe" d="M10.9619-69.854L82.0322 1.25489C82.4878 1.66505 83.1831 1.66505 83.6352 1.25489C84.1328 0.753903 84.0908 0.107408 83.6352-0.348166L12.5684-71.4116C12.1582-71.8218 11.5083-71.9126 10.9619-71.4116C10.5097-71.0049 10.5097-70.2607 10.9619-69.854Z"/>
  </g>
 </g>
</svg>
