<?xml version="1.0" encoding="UTF-8"?>
<!--Generator: Apple Native CoreSVG 232.5-->
<!DOCTYPE svg
PUBLIC "-//W3C//DTD SVG 1.1//EN"
       "http://www.w3.org/Graphics/SVG/1.1/DTD/svg11.dtd">
<svg version="1.1" xmlns="http://www.w3.org/2000/svg" xmlns:xlink="http://www.w3.org/1999/xlink" width="3300" height="2200">
 <!--glyph: "uni100A62.medium", point size: 100.0, font version: "19.2d2e1", template writer version: "128"-->
 <style>.monochrome-0 {-sfsymbols-motion-group:1}
.monochrome-1 {-sfsymbols-motion-group:0}

.multicolor-0:tintColor {-sfsymbols-motion-group:1}
.multicolor-1:tintColor {-sfsymbols-motion-group:0}

.hierarchical-0:primary {-sfsymbols-motion-group:1}
.hierarchical-1:secondary {-sfsymbols-motion-group:0}

.SFSymbolsPreviewWireframe {fill:none;opacity:1.0;stroke:black;stroke-width:0.5}
</style>
 <g id="Notes">
  <rect height="2200" id="artboard" style="fill:white;opacity:1" width="3300" x="0" y="0"/>
  <line style="fill:none;stroke:black;opacity:1;stroke-width:0.5;" x1="263" x2="3036" y1="292" y2="292"/>
  <text style="stroke:none;fill:black;font-family:sans-serif;font-size:13;font-weight:bold;" transform="matrix(1 0 0 1 263 322)">Weight/Scale Variations</text>
  <text style="stroke:none;fill:black;font-family:sans-serif;font-size:13;text-anchor:middle;" transform="matrix(1 0 0 1 559.711 322)">Ultralight</text>
  <text style="stroke:none;fill:black;font-family:sans-serif;font-size:13;text-anchor:middle;" transform="matrix(1 0 0 1 856.422 322)">Thin</text>
  <text style="stroke:none;fill:black;font-family:sans-serif;font-size:13;text-anchor:middle;" transform="matrix(1 0 0 1 1153.13 322)">Light</text>
  <text style="stroke:none;fill:black;font-family:sans-serif;font-size:13;text-anchor:middle;" transform="matrix(1 0 0 1 1449.84 322)">Regular</text>
  <text style="stroke:none;fill:black;font-family:sans-serif;font-size:13;text-anchor:middle;" transform="matrix(1 0 0 1 1746.56 322)">Medium</text>
  <text style="stroke:none;fill:black;font-family:sans-serif;font-size:13;text-anchor:middle;" transform="matrix(1 0 0 1 2043.27 322)">Semibold</text>
  <text style="stroke:none;fill:black;font-family:sans-serif;font-size:13;text-anchor:middle;" transform="matrix(1 0 0 1 2339.98 322)">Bold</text>
  <text style="stroke:none;fill:black;font-family:sans-serif;font-size:13;text-anchor:middle;" transform="matrix(1 0 0 1 2636.69 322)">Heavy</text>
  <text style="stroke:none;fill:black;font-family:sans-serif;font-size:13;text-anchor:middle;" transform="matrix(1 0 0 1 2933.4 322)">Black</text>
  <line style="fill:none;stroke:black;opacity:1;stroke-width:0.5;" x1="263" x2="3036" y1="1903" y2="1903"/>
  <g transform="matrix(0.2 0 0 0.2 263 1933)">
   <path d="m46.2402 4.15039c21.5332 0 39.4531-17.8711 39.4531-39.4043s-17.9688-39.4043-39.502-39.4043c-21.4844 0-39.3555 17.8711-39.3555 39.4043s17.9199 39.4043 39.4043 39.4043Zm0-7.42188c-17.7246 0-31.8848-14.209-31.8848-31.9824s14.1113-31.9824 31.8359-31.9824c17.7734 0 32.0312 14.209 32.0312 31.9824s-14.209 31.9824-31.9824 31.9824Zm-17.9688-31.9824c0 2.14844 1.51367 3.61328 3.75977 3.61328h10.498v10.5957c0 2.19727 1.46484 3.71094 3.61328 3.71094 2.24609 0 3.71094-1.51367 3.71094-3.71094v-10.5957h10.5957c2.19727 0 3.71094-1.46484 3.71094-3.61328 0-2.19727-1.51367-3.71094-3.71094-3.71094h-10.5957v-10.5469c0-2.24609-1.46484-3.75977-3.71094-3.75977-2.14844 0-3.61328 1.51367-3.61328 3.75977v10.5469h-10.498c-2.24609 0-3.75977 1.51367-3.75977 3.71094Z"/>
  </g>
  <g transform="matrix(0.2 0 0 0.2 281.506 1933)">
   <path d="m58.5449 14.5508c27.2461 0 49.8047-22.6074 49.8047-49.8047 0-27.2461-22.6074-49.8047-49.8535-49.8047-27.1973 0-49.7559 22.5586-49.7559 49.8047 0 27.1973 22.6074 49.8047 49.8047 49.8047Zm0-8.30078c-23.0469 0-41.4551-18.457-41.4551-41.5039s18.3594-41.5039 41.4062-41.5039 41.5527 18.457 41.5527 41.5039-18.457 41.5039-41.5039 41.5039Zm-22.6562-41.5039c0 2.39258 1.66016 4.00391 4.15039 4.00391h14.3555v14.4043c0 2.44141 1.66016 4.15039 4.05273 4.15039 2.44141 0 4.15039-1.66016 4.15039-4.15039v-14.4043h14.4043c2.44141 0 4.15039-1.61133 4.15039-4.00391 0-2.44141-1.70898-4.15039-4.15039-4.15039h-14.4043v-14.3555c0-2.49023-1.70898-4.19922-4.15039-4.19922-2.39258 0-4.05273 1.70898-4.05273 4.19922v14.3555h-14.3555c-2.49023 0-4.15039 1.70898-4.15039 4.15039Z"/>
  </g>
  <g transform="matrix(0.2 0 0 0.2 304.924 1933)">
   <path d="m74.8535 28.3203c34.8145 0 63.623-28.8086 63.623-63.5742 0-34.8145-28.8574-63.623-63.6719-63.623-34.7656 0-63.5254 28.8086-63.5254 63.623 0 34.7656 28.8086 63.5742 63.5742 63.5742Zm0-9.08203c-30.1758 0-54.4434-24.3164-54.4434-54.4922 0-30.2246 24.2188-54.4922 54.3945-54.4922 30.2246 0 54.541 24.2676 54.541 54.4922 0 30.1758-24.2676 54.4922-54.4922 54.4922Zm-28.8574-54.4922c0 2.58789 1.85547 4.39453 4.58984 4.39453h19.7266v19.7754c0 2.68555 1.85547 4.58984 4.44336 4.58984 2.68555 0 4.54102-1.85547 4.54102-4.58984v-19.7754h19.7754c2.68555 0 4.58984-1.80664 4.58984-4.39453 0-2.73438-1.85547-4.58984-4.58984-4.58984h-19.7754v-19.7266c0-2.73438-1.85547-4.63867-4.54102-4.63867-2.58789 0-4.44336 1.9043-4.44336 4.63867v19.7266h-19.7266c-2.73438 0-4.58984 1.85547-4.58984 4.58984Z"/>
  </g>
  <text style="stroke:none;fill:black;font-family:sans-serif;font-size:13;font-weight:bold;" transform="matrix(1 0 0 1 263 1953)">Design Variations</text>
  <text style="stroke:none;fill:black;font-family:sans-serif;font-size:13;" transform="matrix(1 0 0 1 263 1971)">Symbols are supported in up to nine weights and three scales.</text>
  <text style="stroke:none;fill:black;font-family:sans-serif;font-size:13;" transform="matrix(1 0 0 1 263 1989)">For optimal layout with text and other symbols, vertically align</text>
  <text style="stroke:none;fill:black;font-family:sans-serif;font-size:13;" transform="matrix(1 0 0 1 263 2007)">symbols with the adjacent text.</text>
  <line style="fill:none;stroke:#00AEEF;stroke-width:0.5;opacity:1.0;" x1="776" x2="776" y1="1919" y2="1933"/>
  <g transform="matrix(0.2 0 0 0.2 776 1933)">
   <path d="m16.5527 0.78125c2.58789 0 3.85742-0.976562 4.78516-3.71094l6.29883-17.2363h28.8086l6.29883 17.2363c0.927734 2.73438 2.19727 3.71094 4.73633 3.71094 2.58789 0 4.24805-1.5625 4.24805-4.00391 0-0.830078-0.146484-1.61133-0.537109-2.63672l-22.9004-60.9863c-1.12305-2.97852-3.125-4.49219-6.25-4.49219-3.02734 0-5.07812 1.46484-6.15234 4.44336l-22.9004 61.084c-0.390625 1.02539-0.537109 1.80664-0.537109 2.63672 0 2.44141 1.5625 3.95508 4.10156 3.95508Zm13.4766-28.3691 11.8652-32.8613h0.244141l11.8652 32.8613Z"/>
  </g>
  <line style="fill:none;stroke:#00AEEF;stroke-width:0.5;opacity:1.0;" x1="792.836" x2="792.836" y1="1919" y2="1933"/>
  <text style="stroke:none;fill:black;font-family:sans-serif;font-size:13;font-weight:bold;" transform="matrix(1 0 0 1 776 1953)">Margins</text>
  <text style="stroke:none;fill:black;font-family:sans-serif;font-size:13;" transform="matrix(1 0 0 1 776 1971)">Leading and trailing margins on the left and right side of each symbol</text>
  <text style="stroke:none;fill:black;font-family:sans-serif;font-size:13;" transform="matrix(1 0 0 1 776 1989)">can be adjusted by modifying the x-location of the margin guidelines.</text>
  <text style="stroke:none;fill:black;font-family:sans-serif;font-size:13;" transform="matrix(1 0 0 1 776 2007)">Modifications are automatically applied proportionally to all</text>
  <text style="stroke:none;fill:black;font-family:sans-serif;font-size:13;" transform="matrix(1 0 0 1 776 2025)">scales and weights.</text>
  <g transform="matrix(0.2 0 0 0.2 1289 1933)">
   <path d="m14.209 9.32617 8.49609 8.54492c4.29688 4.3457 9.22852 4.05273 13.8672-1.07422l53.4668-58.9355-4.83398-4.88281-53.0762 58.3984c-1.75781 2.00195-3.41797 2.49023-5.76172 0.146484l-5.85938-5.81055c-2.34375-2.29492-1.80664-4.00391 0.195312-5.81055l57.373-54.0039-4.88281-4.83398-57.959 54.4434c-4.93164 4.58984-5.32227 9.47266-1.02539 13.8184Zm32.0801-90.9668c-2.09961 2.05078-2.24609 4.93164-1.07422 6.88477 1.17188 1.80664 3.4668 2.97852 6.68945 2.14844 7.32422-1.70898 14.9414-2.00195 22.0703 2.68555l-2.92969 7.27539c-1.70898 4.15039-0.830078 7.08008 1.85547 9.81445l11.4746 11.5723c2.44141 2.44141 4.49219 2.53906 7.32422 2.05078l5.32227-0.976562 3.32031 3.36914-0.195312 2.7832c-0.195312 2.49023 0.439453 4.39453 2.88086 6.78711l3.80859 3.71094c2.39258 2.39258 5.46875 2.53906 7.8125 0.195312l14.5508-14.5996c2.34375-2.34375 2.24609-5.32227-0.146484-7.71484l-3.85742-3.80859c-2.39258-2.39258-4.24805-3.17383-6.64062-2.97852l-2.88086 0.244141-3.22266-3.17383 1.2207-5.61523c0.634766-2.83203-0.146484-5.0293-3.07617-7.95898l-10.9863-10.9375c-16.6992-16.6016-38.8672-16.2109-53.3203-1.75781Zm7.4707 1.85547c12.1582-8.88672 28.6133-7.37305 39.7461 3.75977l12.1582 12.0605c1.17188 1.17188 1.36719 2.09961 1.02539 3.80859l-1.61133 7.42188 7.51953 7.42188 4.93164-0.292969c1.26953-0.0488281 1.66016 0.0488281 2.63672 1.02539l2.88086 2.88086-12.207 12.207-2.88086-2.88086c-0.976562-0.976562-1.12305-1.36719-1.07422-2.68555l0.341797-4.88281-7.4707-7.42188-7.61719 1.26953c-1.61133 0.341797-2.34375 0.195312-3.56445-0.976562l-10.0098-10.0098c-1.26953-1.17188-1.41602-2.00195-0.634766-3.85742l4.39453-10.4492c-7.8125-7.27539-17.9688-10.4004-28.125-7.42188-0.78125 0.195312-1.07422-0.439453-0.439453-0.976562Z"/>
  </g>
  <text style="stroke:none;fill:black;font-family:sans-serif;font-size:13;font-weight:bold;" transform="matrix(1 0 0 1 1289 1953)">Exporting</text>
  <text style="stroke:none;fill:black;font-family:sans-serif;font-size:13;" transform="matrix(1 0 0 1 1289 1971)">Symbols should be outlined when exporting to ensure the</text>
  <text style="stroke:none;fill:black;font-family:sans-serif;font-size:13;" transform="matrix(1 0 0 1 1289 1989)">design is preserved when submitting to Xcode.</text>
  <text id="template-version" style="stroke:none;fill:black;font-family:sans-serif;font-size:13;text-anchor:end;" transform="matrix(1 0 0 1 3036 1933)">Template v.5.0</text>
  <text style="stroke:none;fill:black;font-family:sans-serif;font-size:13;text-anchor:end;" transform="matrix(1 0 0 1 3036 1951)">Requires Xcode 15 or greater</text>
  <text id="descriptive-name" style="stroke:none;fill:black;font-family:sans-serif;font-size:13;text-anchor:end;" transform="matrix(1 0 0 1 3036 1969)">Generated from squareshape.dotted.squareshape</text>
  <text style="stroke:none;fill:black;font-family:sans-serif;font-size:13;text-anchor:end;" transform="matrix(1 0 0 1 3036 1987)">Typeset at 100.0 points</text>
  <text style="stroke:none;fill:black;font-family:sans-serif;font-size:13;" transform="matrix(1 0 0 1 263 726)">Small</text>
  <text style="stroke:none;fill:black;font-family:sans-serif;font-size:13;" transform="matrix(1 0 0 1 263 1156)">Medium</text>
  <text style="stroke:none;fill:black;font-family:sans-serif;font-size:13;" transform="matrix(1 0 0 1 263 1586)">Large</text>
 </g>
 <g id="Guides">
  <g id="H-reference" style="fill:#27AAE1;stroke:none;" transform="matrix(1 0 0 1 339 696)">
   <path d="M0.993654 0L3.63775 0L29.3281-67.1323L30.0303-67.1323L30.0303-70.459L28.1226-70.459ZM11.6885-24.4799L46.9815-24.4799L46.2315-26.7285L12.4385-26.7285ZM55.1196 0L57.7637 0L30.6382-70.459L29.4326-70.459L29.4326-67.1323Z"/>
  </g>
  <line id="Baseline-S" style="fill:none;stroke:#27AAE1;opacity:1;stroke-width:0.5;" x1="263" x2="3036" y1="696" y2="696"/>
  <line id="Capline-S" style="fill:none;stroke:#27AAE1;opacity:1;stroke-width:0.5;" x1="263" x2="3036" y1="625.541" y2="625.541"/>
  <g id="H-reference" style="fill:#27AAE1;stroke:none;" transform="matrix(1 0 0 1 339 1126)">
   <path d="M0.993654 0L3.63775 0L29.3281-67.1323L30.0303-67.1323L30.0303-70.459L28.1226-70.459ZM11.6885-24.4799L46.9815-24.4799L46.2315-26.7285L12.4385-26.7285ZM55.1196 0L57.7637 0L30.6382-70.459L29.4326-70.459L29.4326-67.1323Z"/>
  </g>
  <line id="Baseline-M" style="fill:none;stroke:#27AAE1;opacity:1;stroke-width:0.5;" x1="263" x2="3036" y1="1126" y2="1126"/>
  <line id="Capline-M" style="fill:none;stroke:#27AAE1;opacity:1;stroke-width:0.5;" x1="263" x2="3036" y1="1055.54" y2="1055.54"/>
  <g id="H-reference" style="fill:#27AAE1;stroke:none;" transform="matrix(1 0 0 1 339 1556)">
   <path d="M0.993654 0L3.63775 0L29.3281-67.1323L30.0303-67.1323L30.0303-70.459L28.1226-70.459ZM11.6885-24.4799L46.9815-24.4799L46.2315-26.7285L12.4385-26.7285ZM55.1196 0L57.7637 0L30.6382-70.459L29.4326-70.459L29.4326-67.1323Z"/>
  </g>
  <line id="Baseline-L" style="fill:none;stroke:#27AAE1;opacity:1;stroke-width:0.5;" x1="263" x2="3036" y1="1556" y2="1556"/>
  <line id="Capline-L" style="fill:none;stroke:#27AAE1;opacity:1;stroke-width:0.5;" x1="263" x2="3036" y1="1485.54" y2="1485.54"/>
  <line id="left-margin-Ultralight-S" style="fill:none;stroke:#00AEEF;stroke-width:0.5;opacity:1.0;" x1="516.35" x2="516.35" y1="600.785" y2="720.121"/>
  <line id="right-margin-Ultralight-S" style="fill:none;stroke:#00AEEF;stroke-width:0.5;opacity:1.0;" x1="603.073" x2="603.073" y1="600.785" y2="720.121"/>
  <line id="left-margin-Regular-S" style="fill:none;stroke:#00AEEF;stroke-width:0.5;opacity:1.0;" x1="1404.51" x2="1404.51" y1="600.785" y2="720.121"/>
  <line id="right-margin-Regular-S" style="fill:none;stroke:#00AEEF;stroke-width:0.5;opacity:1.0;" x1="1495.18" x2="1495.18" y1="600.785" y2="720.121"/>
  <line id="left-margin-Black-S" style="fill:none;stroke:#00AEEF;stroke-width:0.5;opacity:1.0;" x1="2885.5" x2="2885.5" y1="600.785" y2="720.121"/>
  <line id="right-margin-Black-S" style="fill:none;stroke:#00AEEF;stroke-width:0.5;opacity:1.0;" x1="2981.3" x2="2981.3" y1="600.785" y2="720.121"/>
 </g>
 <g id="Symbols">
  <g id="Black-S" transform="matrix(1 0 0 1 2885.5 696)">
   <path class="monochrome-0 multicolor-0:tintColor hierarchical-0:primary SFSymbolsPreviewWireframe" d="M9.76562-1.51367C9.76562 1.12305 11.5234 2.88086 14.1602 2.88086L81.6406 2.88086C84.2773 2.88086 86.0352 1.12305 86.0352-1.51367L86.0352-68.9941C86.0352-71.6309 84.2773-73.3887 81.6406-73.3887L14.1602-73.3887C11.5234-73.3887 9.76562-71.6309 9.76562-68.9941ZM23.9258-12.2559L23.9258-58.252C23.9258-58.8379 24.3164-59.2285 24.9023-59.2285L70.8984-59.2285C71.4844-59.2285 71.875-58.8379 71.875-58.252L71.875-12.2559C71.875-11.6699 71.4844-11.2793 70.8984-11.2793L24.9023-11.2793C24.3164-11.2793 23.9258-11.6699 23.9258-12.2559Z"/>
   <path class="monochrome-1 multicolor-1:tintColor hierarchical-1:secondary SFSymbolsPreviewWireframe" d="M32.666-47.1191C34.5703-47.1191 36.084-48.6328 36.084-50.5371C36.084-52.4414 34.5703-53.9551 32.666-53.9551C30.7617-53.9551 29.248-52.4414 29.248-50.5371C29.248-48.6328 30.7617-47.1191 32.666-47.1191ZM40.2832-47.1191C42.1875-47.1191 43.7012-48.6328 43.7012-50.5371C43.7012-52.4414 42.1875-53.9551 40.2832-53.9551C38.3789-53.9551 36.8652-52.4414 36.8652-50.5371C36.8652-48.6328 38.3789-47.1191 40.2832-47.1191ZM47.9004-47.1191C49.8047-47.1191 51.3184-48.6328 51.3184-50.5371C51.3184-52.4414 49.8047-53.9551 47.9004-53.9551C45.9961-53.9551 44.4824-52.4414 44.4824-50.5371C44.4824-48.6328 45.9961-47.1191 47.9004-47.1191ZM55.5176-47.1191C57.4219-47.1191 58.9355-48.6328 58.9355-50.5371C58.9355-52.4414 57.4219-53.9551 55.5176-53.9551C53.6133-53.9551 52.0996-52.4414 52.0996-50.5371C52.0996-48.6328 53.6133-47.1191 55.5176-47.1191ZM63.1348-47.1191C65.0391-47.1191 66.5527-48.6328 66.5527-50.5371C66.5527-52.4414 65.0391-53.9551 63.1348-53.9551C61.2305-53.9551 59.7168-52.4414 59.7168-50.5371C59.7168-48.6328 61.2305-47.1191 63.1348-47.1191ZM63.1348-39.502C65.0391-39.502 66.5527-41.0156 66.5527-42.9199C66.5527-44.8242 65.0391-46.3379 63.1348-46.3379C61.2305-46.3379 59.7168-44.8242 59.7168-42.9199C59.7168-41.0156 61.2305-39.502 63.1348-39.502ZM63.1348-31.8848C65.0391-31.8848 66.5527-33.3984 66.5527-35.3027C66.5527-37.207 65.0391-38.7207 63.1348-38.7207C61.2305-38.7207 59.7168-37.207 59.7168-35.3027C59.7168-33.3984 61.2305-31.8848 63.1348-31.8848ZM63.1348-24.2676C65.0391-24.2676 66.5527-25.7812 66.5527-27.6855C66.5527-29.5898 65.0391-31.1035 63.1348-31.1035C61.2305-31.1035 59.7168-29.5898 59.7168-27.6855C59.7168-25.7812 61.2305-24.2676 63.1348-24.2676ZM63.1348-16.6504C65.0391-16.6504 66.5527-18.1641 66.5527-20.0684C66.5527-21.9727 65.0391-23.4863 63.1348-23.4863C61.2305-23.4863 59.7168-21.9727 59.7168-20.0684C59.7168-18.1641 61.2305-16.6504 63.1348-16.6504ZM55.5176-16.6504C57.4219-16.6504 58.9355-18.1641 58.9355-20.0684C58.9355-21.9727 57.4219-23.4863 55.5176-23.4863C53.6133-23.4863 52.0996-21.9727 52.0996-20.0684C52.0996-18.1641 53.6133-16.6504 55.5176-16.6504ZM47.9004-16.6504C49.8047-16.6504 51.3184-18.1641 51.3184-20.0684C51.3184-21.9727 49.8047-23.4863 47.9004-23.4863C45.9961-23.4863 44.4824-21.9727 44.4824-20.0684C44.4824-18.1641 45.9961-16.6504 47.9004-16.6504ZM40.2832-16.6504C42.1875-16.6504 43.7012-18.1641 43.7012-20.0684C43.7012-21.9727 42.1875-23.4863 40.2832-23.4863C38.3789-23.4863 36.8652-21.9727 36.8652-20.0684C36.8652-18.1641 38.3789-16.6504 40.2832-16.6504ZM32.666-16.6504C34.5703-16.6504 36.084-18.1641 36.084-20.0684C36.084-21.9727 34.5703-23.4863 32.666-23.4863C30.7617-23.4863 29.248-21.9727 29.248-20.0684C29.248-18.1641 30.7617-16.6504 32.666-16.6504ZM32.666-24.2676C34.5703-24.2676 36.084-25.7812 36.084-27.6855C36.084-29.5898 34.5703-31.1035 32.666-31.1035C30.7617-31.1035 29.248-29.5898 29.248-27.6855C29.248-25.7812 30.7617-24.2676 32.666-24.2676ZM32.666-31.8848C34.5703-31.8848 36.084-33.3984 36.084-35.3027C36.084-37.207 34.5703-38.7207 32.666-38.7207C30.7617-38.7207 29.248-37.207 29.248-35.3027C29.248-33.3984 30.7617-31.8848 32.666-31.8848ZM32.666-39.502C34.5703-39.502 36.084-41.0156 36.084-42.9199C36.084-44.8242 34.5703-46.3379 32.666-46.3379C30.7617-46.3379 29.248-44.8242 29.248-42.9199C29.248-41.0156 30.7617-39.502 32.666-39.502Z"/>
  </g>
  <g id="Regular-S" transform="matrix(1 0 0 1 1404.51 696)">
   <path class="monochrome-0 multicolor-0:tintColor hierarchical-0:primary SFSymbolsPreviewWireframe" d="M9.76562-3.02734C9.76562-1.02539 11.084 0.341797 13.0859 0.341797L77.5879 0.341797C79.5898 0.341797 80.9082-1.02539 80.9082-3.02734L80.9082-67.4805C80.9082-69.4824 79.5898-70.8496 77.5879-70.8496L13.0859-70.8496C11.084-70.8496 9.76562-69.4824 9.76562-67.4805ZM16.7969-7.91016L16.7969-62.5977C16.7969-63.4766 17.0898-63.7695 18.0176-63.7695L72.7051-63.7695C73.584-63.7695 73.877-63.4766 73.877-62.5977L73.877-7.91016C73.877-7.03125 73.584-6.73828 72.7051-6.73828L18.0176-6.73828C17.0898-6.73828 16.7969-7.03125 16.7969-7.91016Z"/>
   <path class="monochrome-1 multicolor-1:tintColor hierarchical-1:secondary SFSymbolsPreviewWireframe" d="M26.709-50.3418C28.7598-50.3418 30.2734-51.8555 30.2734-53.9062C30.2734-55.957 28.7598-57.4707 26.709-57.4707C24.6582-57.4707 23.1445-55.957 23.1445-53.9062C23.1445-51.8555 24.6582-50.3418 26.709-50.3418ZM36.0352-50.3418C38.0859-50.3418 39.5996-51.8555 39.5996-53.9062C39.5996-55.957 38.0859-57.4707 36.0352-57.4707C33.9844-57.4707 32.4707-55.957 32.4707-53.9062C32.4707-51.8555 33.9844-50.3418 36.0352-50.3418ZM45.3613-50.3418C47.4121-50.3418 48.9258-51.8555 48.9258-53.9062C48.9258-55.957 47.4121-57.4707 45.3613-57.4707C43.3105-57.4707 41.748-55.957 41.748-53.9062C41.748-51.8555 43.3105-50.3418 45.3613-50.3418ZM54.6875-50.3418C56.6895-50.3418 58.252-51.8555 58.252-53.9062C58.252-55.957 56.6895-57.4707 54.6875-57.4707C52.6367-57.4707 51.0742-55.957 51.0742-53.9062C51.0742-51.8555 52.6367-50.3418 54.6875-50.3418ZM64.0137-50.3418C66.0156-50.3418 67.5781-51.8555 67.5781-53.9062C67.5781-55.957 66.0156-57.4707 64.0137-57.4707C61.9629-57.4707 60.4004-55.957 60.4004-53.9062C60.4004-51.8555 61.9629-50.3418 64.0137-50.3418ZM64.0137-41.0156C66.0156-41.0156 67.5781-42.5293 67.5781-44.5801C67.5781-46.6309 66.0156-48.1445 64.0137-48.1445C61.9629-48.1445 60.4004-46.6309 60.4004-44.5801C60.4004-42.5293 61.9629-41.0156 64.0137-41.0156ZM64.0137-31.6895C66.0156-31.6895 67.5781-33.2031 67.5781-35.2539C67.5781-37.3047 66.0156-38.8184 64.0137-38.8184C61.9629-38.8184 60.4004-37.3047 60.4004-35.2539C60.4004-33.2031 61.9629-31.6895 64.0137-31.6895ZM64.0137-22.3633C66.0156-22.3633 67.5781-23.877 67.5781-25.9277C67.5781-27.9785 66.0156-29.4922 64.0137-29.4922C61.9629-29.4922 60.4004-27.9785 60.4004-25.9277C60.4004-23.877 61.9629-22.3633 64.0137-22.3633ZM64.0137-13.0371C66.0156-13.0371 67.5781-14.5508 67.5781-16.6016C67.5781-18.6523 66.0156-20.166 64.0137-20.166C61.9629-20.166 60.4004-18.6523 60.4004-16.6016C60.4004-14.5508 61.9629-13.0371 64.0137-13.0371ZM54.6875-13.0371C56.6895-13.0371 58.252-14.5508 58.252-16.6016C58.252-18.6523 56.6895-20.166 54.6875-20.166C52.6367-20.166 51.0742-18.6523 51.0742-16.6016C51.0742-14.5508 52.6367-13.0371 54.6875-13.0371ZM45.3613-13.0371C47.4121-13.0371 48.9258-14.5508 48.9258-16.6016C48.9258-18.6523 47.4121-20.166 45.3613-20.166C43.3105-20.166 41.748-18.6523 41.748-16.6016C41.748-14.5508 43.3105-13.0371 45.3613-13.0371ZM36.0352-13.0371C38.0859-13.0371 39.5996-14.5508 39.5996-16.6016C39.5996-18.6523 38.0859-20.166 36.0352-20.166C33.9844-20.166 32.4707-18.6523 32.4707-16.6016C32.4707-14.5508 33.9844-13.0371 36.0352-13.0371ZM26.709-13.0371C28.7598-13.0371 30.2734-14.5508 30.2734-16.6016C30.2734-18.6523 28.7598-20.166 26.709-20.166C24.6582-20.166 23.1445-18.6523 23.1445-16.6016C23.1445-14.5508 24.6582-13.0371 26.709-13.0371ZM26.709-22.3633C28.7598-22.3633 30.2734-23.877 30.2734-25.9277C30.2734-27.9785 28.7598-29.4922 26.709-29.4922C24.6582-29.4922 23.1445-27.9785 23.1445-25.9277C23.1445-23.877 24.6582-22.3633 26.709-22.3633ZM26.709-31.6895C28.7598-31.6895 30.2734-33.2031 30.2734-35.2539C30.2734-37.3047 28.7598-38.8184 26.709-38.8184C24.6582-38.8184 23.1445-37.3047 23.1445-35.2539C23.1445-33.2031 24.6582-31.6895 26.709-31.6895ZM26.709-41.0156C28.7598-41.0156 30.2734-42.5293 30.2734-44.5801C30.2734-46.6309 28.7598-48.1445 26.709-48.1445C24.6582-48.1445 23.1445-46.6309 23.1445-44.5801C23.1445-42.5293 24.6582-41.0156 26.709-41.0156Z"/>
  </g>
  <g id="Ultralight-S" transform="matrix(1 0 0 1 516.35 696)">
   <path class="monochrome-0 multicolor-0:tintColor hierarchical-0:primary SFSymbolsPreviewWireframe" d="M9.76562-3.43603C9.76562-2.34227 10.4482-1.65623 11.542-1.65623L75.1812-1.65623C76.2749-1.65623 76.9576-2.34227 76.9576-3.43603L76.9576-67.0718C76.9576-68.1655 76.2749-68.8516 75.1812-68.8516L11.542-68.8516C10.4482-68.8516 9.76562-68.1655 9.76562-67.0718ZM11.9834-4.59524L11.9834-65.9126C11.9834-66.3374 12.2764-66.6303 12.7046-66.6303L74.022-66.6303C74.4468-66.6303 74.7397-66.3374 74.7397-65.9126L74.7397-4.59524C74.7397-4.17043 74.4468-3.87746 74.022-3.87746L12.7046-3.87746C12.2764-3.87746 11.9834-4.17043 11.9834-4.59524Z"/>
   <path class="monochrome-1 multicolor-1:tintColor hierarchical-1:secondary SFSymbolsPreviewWireframe" d="M21.4414-55.1098C22.584-55.1098 23.5074-56.0332 23.5074-57.1758C23.5074-58.2729 22.584-59.1963 21.4414-59.1963C20.3443-59.1963 19.4209-58.2729 19.4209-57.1758C19.4209-56.0332 20.3443-55.1098 21.4414-55.1098ZM32.4024-55.1098C33.545-55.1098 34.4683-56.0332 34.4683-57.1758C34.4683-58.2729 33.545-59.1963 32.4024-59.1963C31.3052-59.1963 30.3819-58.2729 30.3819-57.1758C30.3819-56.0332 31.3052-55.1098 32.4024-55.1098ZM43.3633-55.1098C44.5059-55.1098 45.3838-56.0332 45.3838-57.1758C45.3838-58.2729 44.5059-59.1963 43.3633-59.1963C42.2207-59.1963 41.3394-58.2729 41.3394-57.1758C41.3394-56.0332 42.2207-55.1098 43.3633-55.1098ZM54.3242-55.1098C55.418-55.1098 56.3447-56.0332 56.3447-57.1758C56.3447-58.2729 55.418-59.1963 54.3242-59.1963C53.1816-59.1963 52.3003-58.2729 52.3003-57.1758C52.3003-56.0332 53.1816-55.1098 54.3242-55.1098ZM65.3306-55.1098C66.4243-55.1098 67.3511-56.0332 67.3511-57.1758C67.3511-58.2729 66.4243-59.1963 65.3306-59.1963C64.188-59.1963 63.2612-58.2729 63.2612-57.1758C63.2612-56.0332 64.188-55.1098 65.3306-55.1098ZM65.3306-44.1943C66.4243-44.1943 67.3511-45.0722 67.3511-46.2148C67.3511-47.312 66.4243-48.2354 65.3306-48.2354C64.188-48.2354 63.2612-47.312 63.2612-46.2148C63.2612-45.0722 64.188-44.1943 65.3306-44.1943ZM65.3306-33.2334C66.4243-33.2334 67.3511-34.1113 67.3511-35.2539C67.3511-36.3965 66.4243-37.2744 65.3306-37.2744C64.188-37.2744 63.2612-36.3965 63.2612-35.2539C63.2612-34.1113 64.188-33.2334 65.3306-33.2334ZM65.3306-22.2725C66.4243-22.2725 67.3511-23.1958 67.3511-24.293C67.3511-25.4356 66.4243-26.3135 65.3306-26.3135C64.188-26.3135 63.2612-25.4356 63.2612-24.293C63.2612-23.1958 64.188-22.2725 65.3306-22.2725ZM65.3306-11.3115C66.4243-11.3115 67.3511-12.2349 67.3511-13.3321C67.3511-14.4746 66.4243-15.398 65.3306-15.398C64.188-15.398 63.2612-14.4746 63.2612-13.3321C63.2612-12.2349 64.188-11.3115 65.3306-11.3115ZM54.3242-11.3115C55.418-11.3115 56.3447-12.2349 56.3447-13.3321C56.3447-14.4746 55.418-15.398 54.3242-15.398C53.1816-15.398 52.3003-14.4746 52.3003-13.3321C52.3003-12.2349 53.1816-11.3115 54.3242-11.3115ZM43.3633-11.3115C44.5059-11.3115 45.3838-12.2349 45.3838-13.3321C45.3838-14.4746 44.5059-15.398 43.3633-15.398C42.2207-15.398 41.3394-14.4746 41.3394-13.3321C41.3394-12.2349 42.2207-11.3115 43.3633-11.3115ZM32.4024-11.3115C33.545-11.3115 34.4683-12.2349 34.4683-13.3321C34.4683-14.4746 33.545-15.398 32.4024-15.398C31.3052-15.398 30.3819-14.4746 30.3819-13.3321C30.3819-12.2349 31.3052-11.3115 32.4024-11.3115ZM21.4414-11.3115C22.584-11.3115 23.5074-12.2349 23.5074-13.3321C23.5074-14.4746 22.584-15.398 21.4414-15.398C20.3443-15.398 19.4209-14.4746 19.4209-13.3321C19.4209-12.2349 20.3443-11.3115 21.4414-11.3115ZM21.4414-22.2725C22.584-22.2725 23.5074-23.1958 23.5074-24.293C23.5074-25.4356 22.584-26.3135 21.4414-26.3135C20.3443-26.3135 19.4209-25.4356 19.4209-24.293C19.4209-23.1958 20.3443-22.2725 21.4414-22.2725ZM21.4414-33.2334C22.584-33.2334 23.5074-34.1113 23.5074-35.2539C23.5074-36.3965 22.584-37.2744 21.4414-37.2744C20.3443-37.2744 19.4209-36.3965 19.4209-35.2539C19.4209-34.1113 20.3443-33.2334 21.4414-33.2334ZM21.4414-44.1943C22.584-44.1943 23.5074-45.0722 23.5074-46.2148C23.5074-47.312 22.584-48.2354 21.4414-48.2354C20.3443-48.2354 19.4209-47.312 19.4209-46.2148C19.4209-45.0722 20.3443-44.1943 21.4414-44.1943Z"/>
  </g>
 </g>
</svg>
