<?xml version="1.0" encoding="UTF-8"?>
<!--Generator: Apple Native CoreSVG 232.5-->
<!DOCTYPE svg
PUBLIC "-//W3C//DTD SVG 1.1//EN"
       "http://www.w3.org/Graphics/SVG/1.1/DTD/svg11.dtd">
<svg version="1.1" xmlns="http://www.w3.org/2000/svg" xmlns:xlink="http://www.w3.org/1999/xlink" width="3300" height="2200">
 <g id="Notes">
  <rect height="2200" id="artboard" style="fill:white;opacity:1" width="3300" x="0" y="0"/>
  <line style="fill:none;stroke:black;opacity:1;stroke-width:0.5;" x1="263" x2="3036" y1="292" y2="292"/>
  <text style="stroke:none;fill:black;font-family:sans-serif;font-size:13;font-weight:bold;" transform="matrix(1 0 0 1 263 322)">Weight/Scale Variations</text>
  <text style="stroke:none;fill:black;font-family:sans-serif;font-size:13;text-anchor:middle;" transform="matrix(1 0 0 1 559.711 322)">Ultralight</text>
  <text style="stroke:none;fill:black;font-family:sans-serif;font-size:13;text-anchor:middle;" transform="matrix(1 0 0 1 856.422 322)">Thin</text>
  <text style="stroke:none;fill:black;font-family:sans-serif;font-size:13;text-anchor:middle;" transform="matrix(1 0 0 1 1153.13 322)">Light</text>
  <text style="stroke:none;fill:black;font-family:sans-serif;font-size:13;text-anchor:middle;" transform="matrix(1 0 0 1 1449.84 322)">Regular</text>
  <text style="stroke:none;fill:black;font-family:sans-serif;font-size:13;text-anchor:middle;" transform="matrix(1 0 0 1 1746.56 322)">Medium</text>
  <text style="stroke:none;fill:black;font-family:sans-serif;font-size:13;text-anchor:middle;" transform="matrix(1 0 0 1 2043.27 322)">Semibold</text>
  <text style="stroke:none;fill:black;font-family:sans-serif;font-size:13;text-anchor:middle;" transform="matrix(1 0 0 1 2339.98 322)">Bold</text>
  <text style="stroke:none;fill:black;font-family:sans-serif;font-size:13;text-anchor:middle;" transform="matrix(1 0 0 1 2636.69 322)">Heavy</text>
  <text style="stroke:none;fill:black;font-family:sans-serif;font-size:13;text-anchor:middle;" transform="matrix(1 0 0 1 2933.4 322)">Black</text>
  <line style="fill:none;stroke:black;opacity:1;stroke-width:0.5;" x1="263" x2="3036" y1="1903" y2="1903"/>
  <g transform="matrix(0.2 0 0 0.2 263 1933)">
   <path d="m46.2402 4.15039c21.5332 0 39.4531-17.8711 39.4531-39.4043s-17.9688-39.4043-39.502-39.4043c-21.4844 0-39.3555 17.8711-39.3555 39.4043s17.9199 39.4043 39.4043 39.4043Zm0-7.42188c-17.7246 0-31.8848-14.209-31.8848-31.9824s14.1113-31.9824 31.8359-31.9824c17.7734 0 32.0312 14.209 32.0312 31.9824s-14.209 31.9824-31.9824 31.9824Zm-17.9688-31.9824c0 2.14844 1.51367 3.61328 3.75977 3.61328h10.498v10.5957c0 2.19727 1.46484 3.71094 3.61328 3.71094 2.24609 0 3.71094-1.51367 3.71094-3.71094v-10.5957h10.5957c2.19727 0 3.71094-1.46484 3.71094-3.61328 0-2.19727-1.51367-3.71094-3.71094-3.71094h-10.5957v-10.5469c0-2.24609-1.46484-3.75977-3.71094-3.75977-2.14844 0-3.61328 1.51367-3.61328 3.75977v10.5469h-10.498c-2.24609 0-3.75977 1.51367-3.75977 3.71094Z"/>
  </g>
  <g transform="matrix(0.2 0 0 0.2 281.506 1933)">
   <path d="m58.5449 14.5508c27.2461 0 49.8047-22.6074 49.8047-49.8047 0-27.2461-22.6074-49.8047-49.8535-49.8047-27.1973 0-49.7559 22.5586-49.7559 49.8047 0 27.1973 22.6074 49.8047 49.8047 49.8047Zm0-8.30078c-23.0469 0-41.4551-18.457-41.4551-41.5039s18.3594-41.5039 41.4062-41.5039 41.5527 18.457 41.5527 41.5039-18.457 41.5039-41.5039 41.5039Zm-22.6562-41.5039c0 2.39258 1.66016 4.00391 4.15039 4.00391h14.3555v14.4043c0 2.44141 1.66016 4.15039 4.05273 4.15039 2.44141 0 4.15039-1.66016 4.15039-4.15039v-14.4043h14.4043c2.44141 0 4.15039-1.61133 4.15039-4.00391 0-2.44141-1.70898-4.15039-4.15039-4.15039h-14.4043v-14.3555c0-2.49023-1.70898-4.19922-4.15039-4.19922-2.39258 0-4.05273 1.70898-4.05273 4.19922v14.3555h-14.3555c-2.49023 0-4.15039 1.70898-4.15039 4.15039Z"/>
  </g>
  <g transform="matrix(0.2 0 0 0.2 304.924 1933)">
   <path d="m74.8535 28.3203c34.8145 0 63.623-28.8086 63.623-63.5742 0-34.8145-28.8574-63.623-63.6719-63.623-34.7656 0-63.5254 28.8086-63.5254 63.623 0 34.7656 28.8086 63.5742 63.5742 63.5742Zm0-9.08203c-30.1758 0-54.4434-24.3164-54.4434-54.4922 0-30.2246 24.2188-54.4922 54.3945-54.4922 30.2246 0 54.541 24.2676 54.541 54.4922 0 30.1758-24.2676 54.4922-54.4922 54.4922Zm-28.8574-54.4922c0 2.58789 1.85547 4.39453 4.58984 4.39453h19.7266v19.7754c0 2.68555 1.85547 4.58984 4.44336 4.58984 2.68555 0 4.54102-1.85547 4.54102-4.58984v-19.7754h19.7754c2.68555 0 4.58984-1.80664 4.58984-4.39453 0-2.73438-1.85547-4.58984-4.58984-4.58984h-19.7754v-19.7266c0-2.73438-1.85547-4.63867-4.54102-4.63867-2.58789 0-4.44336 1.9043-4.44336 4.63867v19.7266h-19.7266c-2.73438 0-4.58984 1.85547-4.58984 4.58984Z"/>
  </g>
  <text style="stroke:none;fill:black;font-family:sans-serif;font-size:13;font-weight:bold;" transform="matrix(1 0 0 1 263 1953)">Design Variations</text>
  <text style="stroke:none;fill:black;font-family:sans-serif;font-size:13;" transform="matrix(1 0 0 1 263 1971)">Symbols are supported in up to nine weights and three scales.</text>
  <text style="stroke:none;fill:black;font-family:sans-serif;font-size:13;" transform="matrix(1 0 0 1 263 1989)">For optimal layout with text and other symbols, vertically align</text>
  <text style="stroke:none;fill:black;font-family:sans-serif;font-size:13;" transform="matrix(1 0 0 1 263 2007)">symbols with the adjacent text.</text>
  <line style="fill:none;stroke:#00AEEF;stroke-width:0.5;opacity:1.0;" x1="776" x2="776" y1="1919" y2="1933"/>
  <g transform="matrix(0.2 0 0 0.2 776 1933)">
   <path d="m16.5527 0.78125c2.58789 0 3.85742-0.976562 4.78516-3.71094l6.29883-17.2363h28.8086l6.29883 17.2363c0.927734 2.73438 2.19727 3.71094 4.73633 3.71094 2.58789 0 4.24805-1.5625 4.24805-4.00391 0-0.830078-0.146484-1.61133-0.537109-2.63672l-22.9004-60.9863c-1.12305-2.97852-3.125-4.49219-6.25-4.49219-3.02734 0-5.07812 1.46484-6.15234 4.44336l-22.9004 61.084c-0.390625 1.02539-0.537109 1.80664-0.537109 2.63672 0 2.44141 1.5625 3.95508 4.10156 3.95508Zm13.4766-28.3691 11.8652-32.8613h0.244141l11.8652 32.8613Z"/>
  </g>
  <line style="fill:none;stroke:#00AEEF;stroke-width:0.5;opacity:1.0;" x1="792.836" x2="792.836" y1="1919" y2="1933"/>
  <text style="stroke:none;fill:black;font-family:sans-serif;font-size:13;font-weight:bold;" transform="matrix(1 0 0 1 776 1953)">Margins</text>
  <text style="stroke:none;fill:black;font-family:sans-serif;font-size:13;" transform="matrix(1 0 0 1 776 1971)">Leading and trailing margins on the left and right side of each symbol</text>
  <text style="stroke:none;fill:black;font-family:sans-serif;font-size:13;" transform="matrix(1 0 0 1 776 1989)">can be adjusted by modifying the x-location of the margin guidelines.</text>
  <text style="stroke:none;fill:black;font-family:sans-serif;font-size:13;" transform="matrix(1 0 0 1 776 2007)">Modifications are automatically applied proportionally to all</text>
  <text style="stroke:none;fill:black;font-family:sans-serif;font-size:13;" transform="matrix(1 0 0 1 776 2025)">scales and weights.</text>
  <g transform="matrix(0.2 0 0 0.2 1289 1933)">
   <path d="m14.209 9.32617 8.49609 8.54492c4.29688 4.3457 9.22852 4.05273 13.8672-1.07422l53.4668-58.9355-4.83398-4.88281-53.0762 58.3984c-1.75781 2.00195-3.41797 2.49023-5.76172 0.146484l-5.85938-5.81055c-2.34375-2.29492-1.80664-4.00391 0.195312-5.81055l57.373-54.0039-4.88281-4.83398-57.959 54.4434c-4.93164 4.58984-5.32227 9.47266-1.02539 13.8184Zm32.0801-90.9668c-2.09961 2.05078-2.24609 4.93164-1.07422 6.88477 1.17188 1.80664 3.4668 2.97852 6.68945 2.14844 7.32422-1.70898 14.9414-2.00195 22.0703 2.68555l-2.92969 7.27539c-1.70898 4.15039-0.830078 7.08008 1.85547 9.81445l11.4746 11.5723c2.44141 2.44141 4.49219 2.53906 7.32422 2.05078l5.32227-0.976562 3.32031 3.36914-0.195312 2.7832c-0.195312 2.49023 0.439453 4.39453 2.88086 6.78711l3.80859 3.71094c2.39258 2.39258 5.46875 2.53906 7.8125 0.195312l14.5508-14.5996c2.34375-2.34375 2.24609-5.32227-0.146484-7.71484l-3.85742-3.80859c-2.39258-2.39258-4.24805-3.17383-6.64062-2.97852l-2.88086 0.244141-3.22266-3.17383 1.2207-5.61523c0.634766-2.83203-0.146484-5.0293-3.07617-7.95898l-10.9863-10.9375c-16.6992-16.6016-38.8672-16.2109-53.3203-1.75781Zm7.4707 1.85547c12.1582-8.88672 28.6133-7.37305 39.7461 3.75977l12.1582 12.0605c1.17188 1.17188 1.36719 2.09961 1.02539 3.80859l-1.61133 7.42188 7.51953 7.42188 4.93164-0.292969c1.26953-0.0488281 1.66016 0.0488281 2.63672 1.02539l2.88086 2.88086-12.207 12.207-2.88086-2.88086c-0.976562-0.976562-1.12305-1.36719-1.07422-2.68555l0.341797-4.88281-7.4707-7.42188-7.61719 1.26953c-1.61133 0.341797-2.34375 0.195312-3.56445-0.976562l-10.0098-10.0098c-1.26953-1.17188-1.41602-2.00195-0.634766-3.85742l4.39453-10.4492c-7.8125-7.27539-17.9688-10.4004-28.125-7.42188-0.78125 0.195312-1.07422-0.439453-0.439453-0.976562Z"/>
  </g>
  <text style="stroke:none;fill:black;font-family:sans-serif;font-size:13;font-weight:bold;" transform="matrix(1 0 0 1 1289 1953)">Exporting</text>
  <text style="stroke:none;fill:black;font-family:sans-serif;font-size:13;" transform="matrix(1 0 0 1 1289 1971)">Symbols should be outlined when exporting to ensure the</text>
  <text style="stroke:none;fill:black;font-family:sans-serif;font-size:13;" transform="matrix(1 0 0 1 1289 1989)">design is preserved when submitting to Xcode.</text>
  <text id="template-version" style="stroke:none;fill:black;font-family:sans-serif;font-size:13;text-anchor:end;" transform="matrix(1 0 0 1 3036 1933)">Template v.2.0</text>
  <text style="stroke:none;fill:black;font-family:sans-serif;font-size:13;text-anchor:end;" transform="matrix(1 0 0 1 3036 1951)">Requires Xcode 12 or greater</text>
  <text id="descriptive-name" style="stroke:none;fill:black;font-family:sans-serif;font-size:13;text-anchor:end;" transform="matrix(1 0 0 1 3036 1969)">Generated from magsafe</text>
  <text style="stroke:none;fill:black;font-family:sans-serif;font-size:13;text-anchor:end;" transform="matrix(1 0 0 1 3036 1987)">Typeset at 100.0 points</text>
  <text style="stroke:none;fill:black;font-family:sans-serif;font-size:13;" transform="matrix(1 0 0 1 263 726)">Small</text>
  <text style="stroke:none;fill:black;font-family:sans-serif;font-size:13;" transform="matrix(1 0 0 1 263 1156)">Medium</text>
  <text style="stroke:none;fill:black;font-family:sans-serif;font-size:13;" transform="matrix(1 0 0 1 263 1586)">Large</text>
 </g>
 <g id="Guides">
  <g id="H-reference" style="fill:#27AAE1;stroke:none;" transform="matrix(1 0 0 1 339 696)">
   <path d="M0.993654 0L3.63775 0L29.3281-67.1323L30.0303-67.1323L30.0303-70.459L28.1226-70.459ZM11.6885-24.4799L46.9815-24.4799L46.2315-26.7285L12.4385-26.7285ZM55.1196 0L57.7637 0L30.6382-70.459L29.4326-70.459L29.4326-67.1323Z"/>
  </g>
  <line id="Baseline-S" style="fill:none;stroke:#27AAE1;opacity:1;stroke-width:0.5;" x1="263" x2="3036" y1="696" y2="696"/>
  <line id="Capline-S" style="fill:none;stroke:#27AAE1;opacity:1;stroke-width:0.5;" x1="263" x2="3036" y1="625.541" y2="625.541"/>
  <g id="H-reference" style="fill:#27AAE1;stroke:none;" transform="matrix(1 0 0 1 339 1126)">
   <path d="M0.993654 0L3.63775 0L29.3281-67.1323L30.0303-67.1323L30.0303-70.459L28.1226-70.459ZM11.6885-24.4799L46.9815-24.4799L46.2315-26.7285L12.4385-26.7285ZM55.1196 0L57.7637 0L30.6382-70.459L29.4326-70.459L29.4326-67.1323Z"/>
  </g>
  <line id="Baseline-M" style="fill:none;stroke:#27AAE1;opacity:1;stroke-width:0.5;" x1="263" x2="3036" y1="1126" y2="1126"/>
  <line id="Capline-M" style="fill:none;stroke:#27AAE1;opacity:1;stroke-width:0.5;" x1="263" x2="3036" y1="1055.54" y2="1055.54"/>
  <g id="H-reference" style="fill:#27AAE1;stroke:none;" transform="matrix(1 0 0 1 339 1556)">
   <path d="M0.993654 0L3.63775 0L29.3281-67.1323L30.0303-67.1323L30.0303-70.459L28.1226-70.459ZM11.6885-24.4799L46.9815-24.4799L46.2315-26.7285L12.4385-26.7285ZM55.1196 0L57.7637 0L30.6382-70.459L29.4326-70.459L29.4326-67.1323Z"/>
  </g>
  <line id="Baseline-L" style="fill:none;stroke:#27AAE1;opacity:1;stroke-width:0.5;" x1="263" x2="3036" y1="1556" y2="1556"/>
  <line id="Capline-L" style="fill:none;stroke:#27AAE1;opacity:1;stroke-width:0.5;" x1="263" x2="3036" y1="1485.54" y2="1485.54"/>
  <line id="left-margin" style="fill:none;stroke:#00AEEF;stroke-width:0.5;opacity:1.0;" x1="1418.12" x2="1418.12" y1="1030.79" y2="1150.12"/>
  <line id="right-margin" style="fill:none;stroke:#00AEEF;stroke-width:0.5;opacity:1.0;" x1="1481.57" x2="1481.57" y1="1030.79" y2="1150.12"/>
 </g>
 <g id="Symbols">
  <g id="Black-L" transform="matrix(1 0 0 1 2890.97 1556)">
   <path d="M42.997-13.2981C21.1544-13.2981 3.44747-30.9944 3.44747-52.8241C3.44747-74.6537 21.1544-92.3501 42.997-92.3501C64.8395-92.3501 82.5466-74.6537 82.5466-52.8241C82.5466-30.9944 64.8395-13.2981 42.997-13.2981ZM42.997-21.8476C60.1149-21.8476 73.9918-35.7162 73.9918-52.8241C73.9918-69.9319 60.1149-83.8006 42.997-83.8006C25.8789-83.8006 12.0021-69.9319 12.0021-52.8241C12.0021-35.7162 25.8789-21.8476 42.997-21.8476ZM43.009-8.86585C45.8866-8.86585 48.2193-6.5331 48.2193-3.65552L48.2193 15.6766C48.2193 18.5542 45.8866 20.887 43.009 20.887C40.1314 20.887 37.7987 18.5542 37.7987 15.6766L37.7987-3.65552C37.7987-6.5331 40.1314-8.86585 43.009-8.86585Z"/>
  </g>
  <g id="Heavy-L" transform="matrix(1 0 0 1 2594.64 1556)">
   <path d="M42.5691-13.3434C20.7641-13.3434 3.08767-31.0093 3.08767-52.8013C3.08767-74.5934 20.7641-92.2593 42.5691-92.2593C64.374-92.2593 82.0506-74.5934 82.0506-52.8013C82.0506-31.0093 64.374-13.3434 42.5691-13.3434ZM42.5691-21.8782C59.6575-21.8782 73.5105-35.723 73.5105-52.8013C73.5105-69.8797 59.6575-83.7245 42.5691-83.7245C25.4805-83.7245 11.6276-69.8797 11.6276-52.8013C11.6276-35.723 25.4805-21.8782 42.5691-21.8782ZM42.5811-8.9188C45.4537-8.9188 47.7824-6.59007 47.7824-3.71745L47.7824 15.5814C47.7824 18.4541 45.4537 20.7828 42.5811 20.7828C39.7084 20.7828 37.3797 18.4541 37.3797 15.5814L37.3797-3.71745C37.3797-6.59007 39.7084-8.9188 42.5811-8.9188Z"/>
  </g>
  <g id="Bold-L" transform="matrix(1 0 0 1 2298.42 1556)">
   <path d="M42.0352-13.4062C20.276-13.4062 2.63668-31.0351 2.63668-52.7814C2.63668-74.5277 20.276-92.1565 42.0352-92.1565C63.7944-92.1565 81.4339-74.5277 81.4339-52.7814C81.4339-31.0351 63.7944-13.4062 42.0352-13.4062ZM42.0352-21.9231C59.0878-21.9231 72.9117-35.7389 72.9117-52.7814C72.9117-69.8239 59.0878-83.6396 42.0352-83.6396C24.9825-83.6396 11.1586-69.8239 11.1586-52.7814C11.1586-35.7389 24.9825-21.9231 42.0352-21.9231ZM42.0472-8.99095C44.9138-8.99095 47.2376-6.66711 47.2376-3.80051L47.2376 15.4579C47.2376 18.3245 44.9138 20.6483 42.0472 20.6483C39.1806 20.6483 36.8567 18.3245 36.8567 15.4579L36.8567-3.80051C36.8567-6.66711 39.1806-8.99095 42.0472-8.99095Z"/>
  </g>
  <g id="Semibold-L" transform="matrix(1 0 0 1 2002.05 1556)">
   <path d="M41.6672-13.4496C19.9395-13.4496 2.32576-31.0528 2.32576-52.7676C2.32576-74.4824 19.9395-92.0857 41.6672-92.0857C63.3948-92.0857 81.0088-74.4824 81.0088-52.7676C81.0088-31.0528 63.3948-13.4496 41.6672-13.4496ZM41.6672-21.9541C58.6951-21.9541 72.4989-35.7498 72.4989-52.7676C72.4989-69.7855 58.6951-83.5811 41.6672-83.5811C24.6392-83.5811 10.8354-69.7855 10.8354-52.7676C10.8354-35.7498 24.6392-21.9541 41.6672-21.9541ZM41.6791-9.04068C44.5416-9.04068 46.862-6.72021 46.862-3.85777L46.862 15.3727C46.862 18.2351 44.5416 20.5556 41.6791 20.5556C38.8167 20.5556 36.4962 18.2351 36.4962 15.3727L36.4962-3.85777C36.4962-6.72021 38.8167-9.04068 41.6791-9.04068Z"/>
  </g>
  <g id="Medium-L" transform="matrix(1 0 0 1 1705.59 1556)">
   <path d="M41.3881-13.4824C19.6844-13.4824 2.09002-31.0663 2.09002-52.7572C2.09002-74.4481 19.6844-92.032 41.3881-92.032C63.0918-92.032 80.6864-74.4481 80.6864-52.7572C80.6864-31.0663 63.0918-13.4824 41.3881-13.4824ZM41.3881-21.9776C58.3973-21.9776 72.1859-35.7581 72.1859-52.7572C72.1859-69.7563 58.3973-83.5368 41.3881-83.5368C24.3789-83.5368 10.5902-69.7563 10.5902-52.7572C10.5902-35.7581 24.3789-21.9776 41.3881-21.9776ZM41.4001-9.0784C44.2594-9.0784 46.5772-6.76048 46.5772-3.90119L46.5772 15.3081C46.5772 18.1674 44.2594 20.4853 41.4001 20.4853C38.5408 20.4853 36.2229 18.1674 36.2229 15.3081L36.2229-3.90119C36.2229-6.76048 38.5408-9.0784 41.4001-9.0784Z"/>
  </g>
  <g id="Regular-L" transform="matrix(1 0 0 1 1409.22 1556)">
   <path d="M41.0241-13.5253C19.3516-13.5253 1.78252-31.0839 1.78252-52.7436C1.78252-74.4033 19.3516-91.9619 41.0241-91.9619C62.6966-91.9619 80.2659-74.4033 80.2659-52.7436C80.2659-31.0839 62.6966-13.5253 41.0241-13.5253ZM41.0241-22.0083C58.0088-22.0083 71.7777-35.769 71.7777-52.7436C71.7777-69.7183 58.0088-83.4789 41.0241-83.4789C24.0394-83.4789 10.2705-69.7183 10.2705-52.7436C10.2705-35.769 24.0394-22.0083 41.0241-22.0083ZM41.036-9.12759C43.8912-9.12759 46.2058-6.813 46.2058-3.95782L46.2058 15.2239C46.2058 18.079 43.8912 20.3936 41.036 20.3936C38.1809 20.3936 35.8663 18.079 35.8663 15.2239L35.8663-3.95782C35.8663-6.813 38.1809-9.12759 41.036-9.12759Z"/>
  </g>
  <g id="Light-L" transform="matrix(1 0 0 1 1112.94 1556)">
   <path d="M40.6307-13.612C18.9845-13.612 1.4367-31.1493 1.4367-52.7828C1.4367-74.4162 18.9845-91.9535 40.6307-91.9535C62.2769-91.9535 79.8249-74.4162 79.8249-52.7828C79.8249-31.1493 62.2769-13.612 40.6307-13.612ZM40.6307-22.0847C57.5948-22.0847 71.347-35.8287 71.347-52.7828C71.347-69.7368 57.5948-83.4808 40.6307-83.4808C23.6666-83.4808 9.91443-69.7368 9.91443-52.7828C9.91443-35.8287 23.6666-22.0847 40.6307-22.0847ZM40.6426-9.21962C43.4944-9.21962 45.8061-6.90784 45.8061-4.05612L45.8061 15.1023C45.8061 17.954 43.4944 20.2658 40.6426 20.2658C37.7909 20.2658 35.4791 17.954 35.4791 15.1023L35.4791-4.05612C35.4791-6.90784 37.7909-9.21962 40.6426-9.21962Z"/>
  </g>
  <g id="Thin-L" transform="matrix(1 0 0 1 816.815 1556)">
   <path d="M40.1104-13.7267C18.4989-13.7267 0.979322-31.2359 0.979322-52.8346C0.979322-74.4333 18.4989-91.9425 40.1104-91.9425C61.7219-91.9425 79.2416-74.4333 79.2416-52.8346C79.2416-31.2359 61.7219-13.7267 40.1104-13.7267ZM40.1104-22.1858C57.0473-22.1858 70.7774-35.9077 70.7774-52.8346C70.7774-69.7614 57.0473-83.4834 40.1104-83.4834C23.1735-83.4834 9.44345-69.7614 9.44345-52.8346C9.44345-35.9077 23.1735-22.1858 40.1104-22.1858ZM40.1223-9.34134C42.9695-9.34134 45.2775-7.03328 45.2775-4.18613L45.2775 14.9415C45.2775 17.7887 42.9695 20.0967 40.1223 20.0967C37.2752 20.0967 34.9671 17.7887 34.9671 14.9415L34.9671-4.18613C34.9671-7.03328 37.2752-9.34134 40.1223-9.34134Z"/>
  </g>
  <g id="Ultralight-L" transform="matrix(1 0 0 1 520.401 1556)">
   <path d="M39.8439-13.7854C18.2502-13.7854 0.745056-31.2802 0.745056-52.8611C0.745056-74.442 18.2502-91.9368 39.8439-91.9368C61.4376-91.9368 78.9428-74.442 78.9428-52.8611C78.9428-31.2802 61.4376-13.7854 39.8439-13.7854ZM39.8439-22.2375C56.7668-22.2375 70.4857-35.9482 70.4857-52.8611C70.4857-69.774 56.7668-83.4847 39.8439-83.4847C22.9209-83.4847 9.20222-69.774 9.20222-52.8611C9.20222-35.9482 22.9209-22.2375 39.8439-22.2375ZM39.8558-9.40369C42.7007-9.40369 45.0068-7.09752 45.0068-4.25272L45.0068 14.8592C45.0068 17.704 42.7007 20.0101 39.8558 20.0101C37.011 20.0101 34.7048 17.704 34.7048 14.8592L34.7048-4.25272C34.7048-7.09752 37.011-9.40369 39.8558-9.40369Z"/>
  </g>
  <g id="Black-M" transform="matrix(1 0 0 1 2900.26 1126)">
   <path d="M33.626-18.2111C16.6748-18.2111 2.93327-31.9445 2.93327-48.8856C2.93327-65.8267 16.6748-79.5601 33.626-79.5601C50.5771-79.5601 64.3188-65.8267 64.3188-48.8856C64.3188-31.9445 50.5771-18.2111 33.626-18.2111ZM33.626-24.846C46.9106-24.846 57.6798-35.6089 57.6798-48.8856C57.6798-62.1623 46.9106-72.9252 33.626-72.9252C20.3414-72.9252 9.57217-62.1623 9.57217-48.8856C9.57217-35.6089 20.3414-24.846 33.626-24.846ZM33.6353-14.7714C35.8685-14.7714 37.6788-12.9611 37.6788-10.7279L37.6788 4.27499C37.6788 6.50817 35.8685 8.31853 33.6353 8.31853C31.4022 8.31853 29.5918 6.50817 29.5918 4.27499L29.5918-10.7279C29.5918-12.9611 31.4022-14.7714 33.6353-14.7714Z"/>
  </g>
  <g id="Heavy-M" transform="matrix(1 0 0 1 2603.88 1126)">
   <path d="M33.244-18.2474C16.3272-18.2474 2.61344-31.953 2.61344-48.8598C2.61344-65.7665 16.3272-79.4721 33.244-79.4721C50.1608-79.4721 63.8746-65.7665 63.8746-48.8598C63.8746-31.953 50.1608-18.2474 33.244-18.2474ZM33.244-24.8689C46.5016-24.8689 57.249-35.61 57.249-48.8598C57.249-62.1096 46.5016-72.8506 33.244-72.8506C19.9863-72.8506 9.23888-62.1096 9.23888-48.8598C9.23888-35.61 19.9863-24.8689 33.244-24.8689ZM33.2533-14.8147C35.482-14.8147 37.2886-13.008 37.2886-10.7794L37.2886 4.19312C37.2886 6.42177 35.482 8.22846 33.2533 8.22846C31.0247 8.22846 29.218 6.42177 29.218 4.19312L29.218-10.7794C29.218-13.008 31.0247-14.8147 33.2533-14.8147Z"/>
  </g>
  <g id="Bold-M" transform="matrix(1 0 0 1 2307.54 1126)">
   <path d="M32.8167-18.288C15.9383-18.288 2.25567-31.9625 2.25567-48.8309C2.25567-65.6992 15.9383-79.3737 32.8167-79.3737C49.695-79.3737 63.3778-65.6992 63.3778-48.8309C63.3778-31.9625 49.695-18.288 32.8167-18.288ZM32.8167-24.8945C46.0442-24.8945 56.7672-35.6112 56.7672-48.8309C56.7672-62.0506 46.0442-72.7672 32.8167-72.7672C19.5891-72.7672 8.86605-62.0506 8.86605-48.8309C8.86605-35.6112 19.5891-24.8945 32.8167-24.8945ZM32.8259-14.8631C35.0495-14.8631 36.8521-13.0605 36.8521-10.837L36.8521 4.10155C36.8521 6.32513 35.0495 8.12771 32.8259 8.12771C30.6024 8.12771 28.7998 6.32513 28.7998 4.10155L28.7998-10.837C28.7998-13.0605 30.6024-14.8631 32.8259-14.8631Z"/>
  </g>
  <g id="Semibold-M" transform="matrix(1 0 0 1 2011.09 1126)">
   <path d="M32.522-18.316C15.6702-18.316 2.00902-31.969 2.00902-48.8109C2.00902-65.6528 15.6702-79.3058 32.522-79.3058C49.3739-79.3058 63.0352-65.6528 63.0352-48.8109C63.0352-31.969 49.3739-18.316 32.522-18.316ZM32.522-24.9121C45.7288-24.9121 56.435-35.612 56.435-48.8109C56.435-62.0099 45.7288-72.7097 32.522-72.7097C19.3153-72.7097 8.60903-62.0099 8.60903-48.8109C8.60903-35.612 19.3153-24.9121 32.522-24.9121ZM32.5313-14.8965C34.7514-14.8965 36.5511-13.0967 36.5511-10.8766L36.5511 4.03841C36.5511 6.25851 34.7514 8.05825 32.5313 8.05825C30.3112 8.05825 28.5115 6.25851 28.5115 4.03841L28.5115-10.8766C28.5115-13.0967 30.3112-14.8965 32.5313-14.8965Z"/>
  </g>
  <g id="Medium-M" transform="matrix(1 0 0 1 1714.57 1126)">
   <path d="M32.2987-18.3372C15.4669-18.3372 1.822-31.974 1.822-48.7958C1.822-65.6176 15.4669-79.2544 32.2987-79.2544C49.1304-79.2544 62.7755-65.6176 62.7755-48.7958C62.7755-31.974 49.1304-18.3372 32.2987-18.3372ZM32.2987-24.9255C45.4897-24.9255 56.1831-35.6126 56.1831-48.7958C56.1831-61.979 45.4897-72.6661 32.2987-72.6661C19.1076-72.6661 8.41414-61.979 8.41414-48.7958C8.41414-35.6126 19.1076-24.9255 32.2987-24.9255ZM32.3079-14.9218C34.5254-14.9218 36.323-13.1242 36.323-10.9067L36.323 3.99054C36.323 6.20799 34.5254 8.00559 32.3079 8.00559C30.0905 8.00559 28.2929 6.20799 28.2929 3.99054L28.2929-10.9067C28.2929-13.1242 30.0905-14.9218 32.3079-14.9218Z"/>
  </g>
  <g id="Regular-M" transform="matrix(1 0 0 1 1418.12 1126)">
   <path d="M32.0073-18.3649C15.2017-18.3649 1.57806-31.9805 1.57806-48.7761C1.57806-65.5717 15.2017-79.1873 32.0073-79.1873C48.8129-79.1873 62.4367-65.5717 62.4367-48.7761C62.4367-31.9805 48.8129-18.3649 32.0073-18.3649ZM32.0073-24.9429C45.1778-24.9429 55.8546-35.6134 55.8546-48.7761C55.8546-61.9388 45.1778-72.6093 32.0073-72.6093C18.8368-72.6093 8.15993-61.9388 8.15993-48.7761C8.15993-35.6134 18.8368-24.9429 32.0073-24.9429ZM32.0165-14.9548C34.2305-14.9548 36.0253-13.16 36.0253-10.946L36.0253 3.92811C36.0253 6.1421 34.2305 7.93689 32.0165 7.93689C29.8026 7.93689 28.0078 6.1421 28.0078 3.92811L28.0078-10.946C28.0078-13.16 29.8026-14.9548 32.0165-14.9548Z"/>
  </g>
  <g id="Light-M" transform="matrix(1 0 0 1 1121.8 1126)">
   <path d="M31.6546-18.4427C14.8725-18.4427 1.26801-32.0391 1.26801-48.8112C1.26801-65.5833 14.8725-79.1798 31.6546-79.1798C48.4366-79.1798 62.0413-65.5833 62.0413-48.8112C62.0413-32.0391 48.4366-18.4427 31.6546-18.4427ZM31.6546-25.0114C44.8066-25.0114 55.4685-35.667 55.4685-48.8112C55.4685-61.9555 44.8066-72.611 31.6546-72.611C18.5025-72.611 7.84067-61.9555 7.84067-48.8112C7.84067-35.667 18.5025-25.0114 31.6546-25.0114ZM31.6638-15.0373C33.8747-15.0373 35.667-13.245 35.667-11.0341L35.667 3.81911C35.667 6.03002 33.8747 7.82229 31.6638 7.82229C29.4529 7.82229 27.6606 6.03002 27.6606 3.81911L27.6606-11.0341C27.6606-13.245 29.4529-15.0373 31.6638-15.0373Z"/>
  </g>
  <g id="Thin-M" transform="matrix(1 0 0 1 825.611 1126)">
   <path d="M31.1881-18.5455C14.4372-18.5455 0.857951-32.1167 0.857951-48.8576C0.857951-65.5986 14.4372-79.1698 31.1881-79.1698C47.939-79.1698 61.5183-65.5986 61.5183-48.8576C61.5183-32.1167 47.939-18.5455 31.1881-18.5455ZM31.1881-25.102C44.3157-25.102 54.9578-35.7378 54.9578-48.8576C54.9578-61.9775 44.3157-72.6132 31.1881-72.6132C18.0604-72.6132 7.41842-61.9775 7.41842-48.8576C7.41842-35.7378 18.0604-25.102 31.1881-25.102ZM31.1973-15.1464C33.4041-15.1464 35.1931-13.3575 35.1931-11.1507L35.1931 3.67496C35.1931 5.88179 33.4041 7.67072 31.1973 7.67072C28.9906 7.67072 27.2016 5.88179 27.2016 3.67496L27.2016-11.1507C27.2016-13.3575 28.9906-15.1464 31.1973-15.1464Z"/>
  </g>
  <g id="Ultralight-M" transform="matrix(1 0 0 1 529.166 1126)">
   <path d="M30.9492-18.5981C14.2142-18.5981 0.647919-32.1564 0.647919-48.8814C0.647919-65.6064 14.2142-79.1647 30.9492-79.1647C47.6841-79.1647 61.2504-65.6064 61.2504-48.8814C61.2504-32.1564 47.6841-18.5981 30.9492-18.5981ZM30.9492-25.1484C44.0643-25.1484 54.6962-35.7741 54.6962-48.8814C54.6962-61.9888 44.0643-72.6144 30.9492-72.6144C17.834-72.6144 7.20214-61.9888 7.20214-48.8814C7.20214-35.7741 17.834-25.1484 30.9492-25.1484ZM30.9584-15.2023C33.1631-15.2023 34.9503-13.4151 34.9503-11.2104L34.9503 3.60113C34.9503 5.80587 33.1631 7.59308 30.9584 7.59308C28.7537 7.59308 26.9664 5.80587 26.9664 3.60113L26.9664-11.2104C26.9664-13.4151 28.7537-15.2023 30.9584-15.2023Z"/>
  </g>
  <g id="Black-S" transform="matrix(1 0 0 1 2907.35 696)">
   <path d="M26.4479-21.8857C13.1542-21.8857 2.37763-32.6559 2.37763-45.9417C2.37763-59.2274 13.1542-69.9976 26.4479-69.9976C39.7415-69.9976 50.5181-59.2274 50.5181-45.9417C50.5181-32.6559 39.7415-21.8857 26.4479-21.8857ZM26.4479-27.089C36.866-27.089 45.3116-35.5296 45.3116-45.9417C45.3116-56.3537 36.866-64.7943 26.4479-64.7943C16.0296-64.7943 7.58407-56.3537 7.58407-45.9417C7.58407-35.5296 16.0296-27.089 26.4479-27.089ZM26.4552-19.1882C28.2065-19.1882 29.6262-17.7685 29.6262-16.0172L29.6262-4.25142C29.6262-2.50008 28.2065-1.08034 26.4552-1.08034C24.7038-1.08034 23.2841-2.50008 23.2841-4.25142L23.2841-16.0172C23.2841-17.7685 24.7038-19.1882 26.4552-19.1882Z"/>
  </g>
  <g id="Heavy-S" transform="matrix(1 0 0 1 2610.87 696)">
   <path d="M26.1662-21.9068C12.8989-21.9068 2.14372-32.6557 2.14372-45.9151C2.14372-59.1744 12.8989-69.9233 26.1662-69.9233C39.4334-69.9233 50.1888-59.1744 50.1888-45.9151C50.1888-32.6557 39.4334-21.9068 26.1662-21.9068ZM26.1662-27.0998C36.5637-27.0998 44.9925-35.5237 44.9925-45.9151C44.9925-56.3064 36.5637-64.7303 26.1662-64.7303C15.7687-64.7303 7.33982-56.3064 7.33982-45.9151C7.33982-35.5237 15.7687-27.0998 26.1662-27.0998ZM26.1735-19.2147C27.9214-19.2147 29.3383-17.7978 29.3383-16.0499L29.3383-4.3075C29.3383-2.55965 27.9214-1.14272 26.1735-1.14272C24.4257-1.14272 23.0087-2.55965 23.0087-4.3075L23.0087-16.0499C23.0087-17.7978 24.4257-19.2147 26.1735-19.2147Z"/>
  </g>
  <g id="Bold-S" transform="matrix(1 0 0 1 2314.43 696)">
   <path d="M25.8512-21.9304C12.6134-21.9304 1.88209-32.6554 1.88209-45.8853C1.88209-59.1152 12.6134-69.8402 25.8512-69.8402C39.0889-69.8402 49.8204-59.1152 49.8204-45.8853C49.8204-32.6554 39.0889-21.9304 25.8512-21.9304ZM25.8512-27.1119C36.2256-27.1119 44.6357-35.5171 44.6357-45.8853C44.6357-56.2536 36.2256-64.6587 25.8512-64.6587C15.4768-64.6587 7.06664-56.2536 7.06664-45.8853C7.06664-35.5171 15.4768-27.1119 25.8512-27.1119ZM25.8585-19.2443C27.6024-19.2443 29.0162-17.8305 29.0162-16.0866L29.0162-4.37023C29.0162-2.62627 27.6024-1.2125 25.8585-1.2125C24.1145-1.2125 22.7007-2.62627 22.7007-4.37023L22.7007-16.0866C22.7007-17.8305 24.1145-19.2443 25.8585-19.2443Z"/>
  </g>
  <g id="Semibold-S" transform="matrix(1 0 0 1 2017.9 696)">
   <path d="M25.634-21.9467C12.4166-21.9467 1.70172-32.6552 1.70172-45.8648C1.70172-59.0744 12.4166-69.7829 25.634-69.7829C38.8514-69.7829 49.5664-59.0744 49.5664-45.8648C49.5664-32.6552 38.8514-21.9467 25.634-21.9467ZM25.634-27.1202C35.9925-27.1202 44.3897-35.5125 44.3897-45.8648C44.3897-56.2172 35.9925-64.6094 25.634-64.6094C15.2755-64.6094 6.8783-56.2172 6.8783-45.8648C6.8783-35.5125 15.2755-27.1202 25.634-27.1202ZM25.6413-19.2647C27.3826-19.2647 28.7941-17.8531 28.7941-16.1118L28.7941-4.41348C28.7941-2.6722 27.3826-1.2606 25.6413-1.2606C23.9-1.2606 22.4884-2.6722 22.4884-4.41348L22.4884-16.1118C22.4884-17.8531 23.9-19.2647 25.6413-19.2647Z"/>
  </g>
  <g id="Medium-S" transform="matrix(1 0 0 1 1721.32 696)">
   <path d="M25.4693-21.9591C12.2673-21.9591 1.56495-32.6551 1.56495-45.8493C1.56495-59.0435 12.2673-69.7395 25.4693-69.7395C38.6713-69.7395 49.3739-59.0435 49.3739-45.8493C49.3739-32.6551 38.6713-21.9591 25.4693-21.9591ZM25.4693-27.1266C35.8157-27.1266 44.2031-35.509 44.2031-45.8493C44.2031-56.1895 35.8157-64.572 25.4693-64.572C15.1229-64.572 6.73549-56.1895 6.73549-45.8493C6.73549-35.509 15.1229-27.1266 25.4693-27.1266ZM25.4766-19.2802C27.2158-19.2802 28.6258-17.8702 28.6258-16.131L28.6258-4.44628C28.6258-2.70703 27.2158-1.29708 25.4766-1.29708C23.7373-1.29708 22.3274-2.70703 22.3274-4.44628L22.3274-16.131C22.3274-17.8702 23.7373-19.2802 25.4766-19.2802Z"/>
  </g>
  <g id="Regular-S" transform="matrix(1 0 0 1 1424.79 696)">
   <path d="M25.2545-21.9752C12.0726-21.9752 1.38656-32.6549 1.38656-45.829C1.38656-59.0031 12.0726-69.6828 25.2545-69.6828C38.4364-69.6828 49.1227-59.0031 49.1227-45.829C49.1227-32.6549 38.4364-21.9752 25.2545-21.9752ZM25.2545-27.1348C35.5851-27.1348 43.9598-35.5045 43.9598-45.829C43.9598-56.1535 35.5851-64.5232 25.2545-64.5232C14.9239-64.5232 6.54922-56.1535 6.54922-45.829C6.54922-35.5045 14.9239-27.1348 25.2545-27.1348ZM25.2618-19.3004C26.9984-19.3004 28.4062-17.8926 28.4062-16.156L28.4062-4.48905C28.4062-2.75246 26.9984-1.34466 25.2618-1.34466C23.5252-1.34466 22.1174-2.75246 22.1174-4.48905L22.1174-16.156C22.1174-17.8926 23.5252-19.3004 25.2618-19.3004Z"/>
  </g>
  <g id="Light-S" transform="matrix(1 0 0 1 1128.43 696)">
   <path d="M24.9425-22.044C11.7814-22.044 1.11228-32.7068 1.11228-45.86C1.11228-59.0133 11.7814-69.6761 24.9425-69.6761C38.1036-69.6761 48.7729-59.0133 48.7729-45.86C48.7729-32.7068 38.1036-22.044 24.9425-22.044ZM24.9425-27.1954C35.2568-27.1954 43.6182-35.5519 43.6182-45.86C43.6182-56.1682 35.2568-64.5247 24.9425-64.5247C14.6282-64.5247 6.26679-56.1682 6.26679-45.86C6.26679-35.5519 14.6282-27.1954 24.9425-27.1954ZM24.9498-19.3734C26.6836-19.3734 28.0892-17.9678 28.0892-16.2339L28.0892-4.58547C28.0892-2.8516 26.6836-1.44604 24.9498-1.44604C23.2159-1.44604 21.8103-2.8516 21.8103-4.58547L21.8103-16.2339C21.8103-17.9678 23.2159-19.3734 24.9498-19.3734Z"/>
  </g>
  <g id="Thin-S" transform="matrix(1 0 0 1 832.177 696)">
   <path d="M24.5299-22.1349C11.3963-22.1349 0.749535-32.7754 0.749535-45.9011C0.749535-59.0269 11.3963-69.6673 24.5299-69.6673C37.6634-69.6673 48.3103-59.0269 48.3103-45.9011C48.3103-32.7754 37.6634-22.1349 24.5299-22.1349ZM24.5299-27.2756C34.8226-27.2756 43.1665-35.6145 43.1665-45.9011C43.1665-56.1877 34.8226-64.5267 24.5299-64.5267C14.2371-64.5267 5.89326-56.1877 5.89326-45.9011C5.89326-35.6145 14.2371-27.2756 24.5299-27.2756ZM24.5371-19.4699C26.2673-19.4699 27.67-18.0673 27.67-16.337L27.67-4.71298C27.67-2.98273 26.2673-1.58012 24.5371-1.58012C22.8069-1.58012 21.4042-2.98273 21.4042-4.71298L21.4042-16.337C21.4042-18.0673 22.8069-19.4699 24.5371-19.4699Z"/>
  </g>
  <g id="Ultralight-S" transform="matrix(1 0 0 1 535.702 696)">
   <path d="M24.3185-22.1815C11.1991-22.1815 0.563737-32.8105 0.563737-45.9222C0.563737-59.0338 11.1991-69.6628 24.3185-69.6628C37.4379-69.6628 48.0733-59.0338 48.0733-45.9222C48.0733-32.8105 37.4379-22.1815 24.3185-22.1815ZM24.3185-27.3166C34.6001-27.3166 42.9351-35.6466 42.9351-45.9222C42.9351-56.1977 34.6001-64.5277 24.3185-64.5277C14.0368-64.5277 5.70194-56.1977 5.70194-45.9222C5.70194-35.6466 14.0368-27.3166 24.3185-27.3166ZM24.3257-19.5193C26.0541-19.5193 27.4552-18.1182 27.4552-16.3898L27.4552-4.7783C27.4552-3.04989 26.0541-1.6488 24.3257-1.6488C22.5974-1.6488 21.1962-3.04989 21.1962-4.7783L21.1962-16.3898C21.1962-18.1182 22.5974-19.5193 24.3257-19.5193Z"/>
  </g>
 </g>
</svg>
