<?xml version="1.0" encoding="UTF-8"?>
<!--Generator: Apple Native CoreSVG 341-->
<!DOCTYPE svg
PUBLIC "-//W3C//DTD SVG 1.1//EN"
       "http://www.w3.org/Graphics/SVG/1.1/DTD/svg11.dtd">
<svg version="1.1" xmlns="http://www.w3.org/2000/svg" xmlns:xlink="http://www.w3.org/1999/xlink" viewBox="0 0 3300 2200">
 <g id="Notes">
  <rect height="2200" id="artboard" style="fill:white;opacity:1" width="3300" x="0" y="0"/>
  <line style="fill:none;stroke:black;opacity:1;stroke-width:0.5;" x1="263" x2="3036" y1="292" y2="292"/>
  <text style="stroke:none;fill:black;font-family:sans-serif;font-size:13;font-weight:bold;" transform="matrix(1 0 0 1 263 322)">Weight/Scale Variations</text>
  <text style="stroke:none;fill:black;font-family:sans-serif;font-size:13;text-anchor:middle;" transform="matrix(1 0 0 1 559.711 322)">Ultralight</text>
  <text style="stroke:none;fill:black;font-family:sans-serif;font-size:13;text-anchor:middle;" transform="matrix(1 0 0 1 856.422 322)">Thin</text>
  <text style="stroke:none;fill:black;font-family:sans-serif;font-size:13;text-anchor:middle;" transform="matrix(1 0 0 1 1153.13 322)">Light</text>
  <text style="stroke:none;fill:black;font-family:sans-serif;font-size:13;text-anchor:middle;" transform="matrix(1 0 0 1 1449.84 322)">Regular</text>
  <text style="stroke:none;fill:black;font-family:sans-serif;font-size:13;text-anchor:middle;" transform="matrix(1 0 0 1 1746.56 322)">Medium</text>
  <text style="stroke:none;fill:black;font-family:sans-serif;font-size:13;text-anchor:middle;" transform="matrix(1 0 0 1 2043.27 322)">Semibold</text>
  <text style="stroke:none;fill:black;font-family:sans-serif;font-size:13;text-anchor:middle;" transform="matrix(1 0 0 1 2339.98 322)">Bold</text>
  <text style="stroke:none;fill:black;font-family:sans-serif;font-size:13;text-anchor:middle;" transform="matrix(1 0 0 1 2636.69 322)">Heavy</text>
  <text style="stroke:none;fill:black;font-family:sans-serif;font-size:13;text-anchor:middle;" transform="matrix(1 0 0 1 2933.4 322)">Black</text>
  <line style="fill:none;stroke:black;opacity:1;stroke-width:0.5;" x1="263" x2="3036" y1="1903" y2="1903"/>
  <g transform="matrix(0.2 0 0 0.2 263 1933)">
   <path d="m46.2402 4.15039c21.7773 0 39.4531-17.627 39.4531-39.4043s-17.6758-39.4043-39.4531-39.4043c-21.7285 0-39.4043 17.627-39.4043 39.4043s17.6758 39.4043 39.4043 39.4043Zm0-7.42188c-17.6758 0-31.9336-14.3066-31.9336-31.9824s14.2578-31.9824 31.9336-31.9824 31.9824 14.3066 31.9824 31.9824-14.3066 31.9824-31.9824 31.9824Zm-17.9688-31.9824c0 2.14844 1.51367 3.61328 3.75977 3.61328h10.498v10.5957c0 2.19727 1.46484 3.71094 3.61328 3.71094 2.24609 0 3.71094-1.51367 3.71094-3.71094v-10.5957h10.5957c2.19727 0 3.71094-1.46484 3.71094-3.61328 0-2.19727-1.51367-3.71094-3.71094-3.71094h-10.5957v-10.5469c0-2.24609-1.46484-3.75977-3.71094-3.75977-2.14844 0-3.61328 1.51367-3.61328 3.75977v10.5469h-10.498c-2.24609 0-3.75977 1.51367-3.75977 3.71094Z"/>
  </g>
  <g transform="matrix(0.2 0 0 0.2 281.506 1933)">
   <path d="m58.5449 14.5508c27.4902 0 49.8047-22.3145 49.8047-49.8047s-22.3145-49.8047-49.8047-49.8047-49.8047 22.3145-49.8047 49.8047 22.3145 49.8047 49.8047 49.8047Zm0-8.30078c-22.9492 0-41.5039-18.5547-41.5039-41.5039s18.5547-41.5039 41.5039-41.5039 41.5039 18.5547 41.5039 41.5039-18.5547 41.5039-41.5039 41.5039Zm-22.6562-41.5039c0 2.39258 1.66016 4.00391 4.15039 4.00391h14.3555v14.4043c0 2.44141 1.66016 4.15039 4.05273 4.15039 2.44141 0 4.15039-1.66016 4.15039-4.15039v-14.4043h14.4043c2.44141 0 4.15039-1.61133 4.15039-4.00391 0-2.44141-1.70898-4.15039-4.15039-4.15039h-14.4043v-14.3555c0-2.49023-1.70898-4.19922-4.15039-4.19922-2.39258 0-4.05273 1.70898-4.05273 4.19922v14.3555h-14.3555c-2.49023 0-4.15039 1.70898-4.15039 4.15039Z"/>
  </g>
  <g transform="matrix(0.2 0 0 0.2 304.924 1933)">
   <path d="m74.8535 28.3203c35.1074 0 63.623-28.4668 63.623-63.5742s-28.5156-63.623-63.623-63.623-63.5742 28.5156-63.5742 63.623 28.4668 63.5742 63.5742 63.5742Zm0-9.08203c-30.127 0-54.4922-24.3652-54.4922-54.4922s24.3652-54.4922 54.4922-54.4922 54.4922 24.3652 54.4922 54.4922-24.3652 54.4922-54.4922 54.4922Zm-28.8574-54.4922c0 2.58789 1.85547 4.39453 4.58984 4.39453h19.7266v19.7754c0 2.68555 1.85547 4.58984 4.44336 4.58984 2.68555 0 4.54102-1.85547 4.54102-4.58984v-19.7754h19.7754c2.68555 0 4.58984-1.80664 4.58984-4.39453 0-2.73438-1.85547-4.58984-4.58984-4.58984h-19.7754v-19.7266c0-2.73438-1.85547-4.63867-4.54102-4.63867-2.58789 0-4.44336 1.9043-4.44336 4.63867v19.7266h-19.7266c-2.73438 0-4.58984 1.85547-4.58984 4.58984Z"/>
  </g>
  <text style="stroke:none;fill:black;font-family:sans-serif;font-size:13;font-weight:bold;" transform="matrix(1 0 0 1 263 1953)">Design Variations</text>
  <text style="stroke:none;fill:black;font-family:sans-serif;font-size:13;" transform="matrix(1 0 0 1 263 1971)">Symbols are supported in up to nine weights and three scales.</text>
  <text style="stroke:none;fill:black;font-family:sans-serif;font-size:13;" transform="matrix(1 0 0 1 263 1989)">For optimal layout with text and other symbols, vertically align</text>
  <text style="stroke:none;fill:black;font-family:sans-serif;font-size:13;" transform="matrix(1 0 0 1 263 2007)">symbols with the adjacent text.</text>
  <line style="fill:none;stroke:#00AEEF;stroke-width:0.5;opacity:1.0;" x1="776" x2="776" y1="1919" y2="1933"/>
  <g transform="matrix(0.2 0 0 0.2 776 1933)">
   <path d="m16.5527 0.78125c2.58789 0 3.85742-0.976562 4.78516-3.71094l6.29883-17.2363h28.8086l6.29883 17.2363c0.927734 2.73438 2.19727 3.71094 4.73633 3.71094 2.58789 0 4.24805-1.5625 4.24805-4.00391 0-0.830078-0.146484-1.61133-0.537109-2.63672l-22.9004-60.9863c-1.12305-2.97852-3.125-4.49219-6.25-4.49219-3.02734 0-5.07812 1.46484-6.15234 4.44336l-22.9004 61.084c-0.390625 1.02539-0.537109 1.80664-0.537109 2.63672 0 2.44141 1.5625 3.95508 4.10156 3.95508Zm13.4766-28.3691 11.8652-32.8613h0.244141l11.8652 32.8613Z"/>
  </g>
  <line style="fill:none;stroke:#00AEEF;stroke-width:0.5;opacity:1.0;" x1="792.836" x2="792.836" y1="1919" y2="1933"/>
  <text style="stroke:none;fill:black;font-family:sans-serif;font-size:13;font-weight:bold;" transform="matrix(1 0 0 1 776 1953)">Margins</text>
  <text style="stroke:none;fill:black;font-family:sans-serif;font-size:13;" transform="matrix(1 0 0 1 776 1971)">Leading and trailing margins on the left and right side of each symbol</text>
  <text style="stroke:none;fill:black;font-family:sans-serif;font-size:13;" transform="matrix(1 0 0 1 776 1989)">can be adjusted by modifying the x-location of the margin guidelines.</text>
  <text style="stroke:none;fill:black;font-family:sans-serif;font-size:13;" transform="matrix(1 0 0 1 776 2007)">Modifications are automatically applied proportionally to all</text>
  <text style="stroke:none;fill:black;font-family:sans-serif;font-size:13;" transform="matrix(1 0 0 1 776 2025)">scales and weights.</text>
  <g transform="matrix(0.2 0 0 0.2 1289 1933)">
   <path d="m14.209 9.32617 8.49609 8.54492c4.29688 4.3457 9.22852 4.05273 13.8672-1.07422l53.4668-58.9355-4.83398-4.88281-53.0762 58.3984c-1.75781 2.00195-3.41797 2.49023-5.76172 0.146484l-5.85938-5.81055c-2.34375-2.29492-1.80664-4.00391 0.195312-5.81055l57.373-54.0039-4.88281-4.83398-57.959 54.4434c-4.93164 4.58984-5.32227 9.47266-1.02539 13.8184Zm32.0801-90.9668c-2.09961 2.05078-2.24609 4.93164-1.07422 6.88477 1.17188 1.80664 3.4668 2.97852 6.68945 2.14844 7.32422-1.70898 14.9414-2.00195 22.0703 2.68555l-2.92969 7.27539c-1.70898 4.15039-0.830078 7.08008 1.85547 9.81445l11.4746 11.5723c2.44141 2.44141 4.49219 2.53906 7.32422 2.05078l5.32227-0.976562 3.32031 3.36914-0.195312 2.7832c-0.195312 2.49023 0.439453 4.39453 2.88086 6.78711l3.80859 3.71094c2.39258 2.39258 5.46875 2.53906 7.8125 0.195312l14.5508-14.5996c2.34375-2.34375 2.24609-5.32227-0.146484-7.71484l-3.85742-3.80859c-2.39258-2.39258-4.24805-3.17383-6.64062-2.97852l-2.88086 0.244141-3.22266-3.17383 1.2207-5.61523c0.634766-2.83203-0.146484-5.0293-3.07617-7.95898l-10.9863-10.9375c-16.6992-16.6016-38.8672-16.2109-53.3203-1.75781Zm7.4707 1.85547c12.1582-8.88672 28.6133-7.37305 39.7461 3.75977l12.1582 12.0605c1.17188 1.17188 1.36719 2.09961 1.02539 3.80859l-1.61133 7.42188 7.51953 7.42188 4.93164-0.292969c1.26953-0.0488281 1.66016 0.0488281 2.63672 1.02539l2.88086 2.88086-12.207 12.207-2.88086-2.88086c-0.976562-0.976562-1.12305-1.36719-1.07422-2.68555l0.341797-4.88281-7.4707-7.42188-7.61719 1.26953c-1.61133 0.341797-2.34375 0.195312-3.56445-0.976562l-10.0098-10.0098c-1.26953-1.17188-1.41602-2.00195-0.634766-3.85742l4.39453-10.4492c-7.8125-7.27539-17.9688-10.4004-28.125-7.42188-0.78125 0.195312-1.07422-0.439453-0.439453-0.976562Z"/>
  </g>
  <text style="stroke:none;fill:black;font-family:sans-serif;font-size:13;font-weight:bold;" transform="matrix(1 0 0 1 1289 1953)">Exporting</text>
  <text style="stroke:none;fill:black;font-family:sans-serif;font-size:13;" transform="matrix(1 0 0 1 1289 1971)">Symbols should be outlined when exporting to ensure the</text>
  <text style="stroke:none;fill:black;font-family:sans-serif;font-size:13;" transform="matrix(1 0 0 1 1289 1989)">design is preserved when submitting to Xcode.</text>
  <text id="template-version" style="stroke:none;fill:black;font-family:sans-serif;font-size:13;text-anchor:end;" transform="matrix(1 0 0 1 3036 1933)">Template v.2.0</text>
  <text style="stroke:none;fill:black;font-family:sans-serif;font-size:13;text-anchor:end;" transform="matrix(1 0 0 1 3036 1951)">Requires Xcode 12 or greater</text>
  <text id="descriptive-name" style="stroke:none;fill:black;font-family:sans-serif;font-size:13;text-anchor:end;" transform="matrix(1 0 0 1 3036 1969)">Generated from figure.fall</text>
  <text style="stroke:none;fill:black;font-family:sans-serif;font-size:13;text-anchor:end;" transform="matrix(1 0 0 1 3036 1987)">Typeset at 100.0 points</text>
  <text style="stroke:none;fill:black;font-family:sans-serif;font-size:13;" transform="matrix(1 0 0 1 263 726)">Small</text>
  <text style="stroke:none;fill:black;font-family:sans-serif;font-size:13;" transform="matrix(1 0 0 1 263 1156)">Medium</text>
  <text style="stroke:none;fill:black;font-family:sans-serif;font-size:13;" transform="matrix(1 0 0 1 263 1586)">Large</text>
 </g>
 <g id="Guides">
  <g id="H-reference" style="fill:#27AAE1;stroke:none;" transform="matrix(1 0 0 1 339 696)">
   <path d="M0.993654 0L3.63775 0L29.3281-67.1323L30.0303-67.1323L30.0303-70.459L28.1226-70.459ZM11.6885-24.4799L46.9815-24.4799L46.2315-26.7285L12.4385-26.7285ZM55.1196 0L57.7637 0L30.6382-70.459L29.4326-70.459L29.4326-67.1323Z"/>
  </g>
  <line id="Baseline-S" style="fill:none;stroke:#27AAE1;opacity:1;stroke-width:0.5;" x1="263" x2="3036" y1="696" y2="696"/>
  <line id="Capline-S" style="fill:none;stroke:#27AAE1;opacity:1;stroke-width:0.5;" x1="263" x2="3036" y1="625.541" y2="625.541"/>
  <g id="H-reference" style="fill:#27AAE1;stroke:none;" transform="matrix(1 0 0 1 339 1126)">
   <path d="M0.993654 0L3.63775 0L29.3281-67.1323L30.0303-67.1323L30.0303-70.459L28.1226-70.459ZM11.6885-24.4799L46.9815-24.4799L46.2315-26.7285L12.4385-26.7285ZM55.1196 0L57.7637 0L30.6382-70.459L29.4326-70.459L29.4326-67.1323Z"/>
  </g>
  <line id="Baseline-M" style="fill:none;stroke:#27AAE1;opacity:1;stroke-width:0.5;" x1="263" x2="3036" y1="1126" y2="1126"/>
  <line id="Capline-M" style="fill:none;stroke:#27AAE1;opacity:1;stroke-width:0.5;" x1="263" x2="3036" y1="1055.54" y2="1055.54"/>
  <g id="H-reference" style="fill:#27AAE1;stroke:none;" transform="matrix(1 0 0 1 339 1556)">
   <path d="M0.993654 0L3.63775 0L29.3281-67.1323L30.0303-67.1323L30.0303-70.459L28.1226-70.459ZM11.6885-24.4799L46.9815-24.4799L46.2315-26.7285L12.4385-26.7285ZM55.1196 0L57.7637 0L30.6382-70.459L29.4326-70.459L29.4326-67.1323Z"/>
  </g>
  <line id="Baseline-L" style="fill:none;stroke:#27AAE1;opacity:1;stroke-width:0.5;" x1="263" x2="3036" y1="1556" y2="1556"/>
  <line id="Capline-L" style="fill:none;stroke:#27AAE1;opacity:1;stroke-width:0.5;" x1="263" x2="3036" y1="1485.54" y2="1485.54"/>
  <line id="right-margin" style="fill:none;stroke:#00AEEF;stroke-width:0.5;opacity:1.0;" x1="1509.53" x2="1509.53" y1="1030.79" y2="1150.12"/>
  <line id="left-margin" style="fill:none;stroke:#00AEEF;stroke-width:0.5;opacity:1.0;" x1="1390.16" x2="1390.16" y1="1030.79" y2="1150.12"/>
 </g>
 <g id="Symbols">
  <g id="Black-L" transform="matrix(1 0 0 1 2852.02 1556)">
   <path d="M42.3841-65.0415C50.9309-65.0415 57.873-72.0043 57.873-80.5304C57.873-89.0772 50.9309-96.0193 42.3841-96.0193C33.858-96.0193 26.916-89.0772 26.916-80.5304C26.916-72.0043 33.858-65.0415 42.3841-65.0415ZM16.2448-37.301L20.1938-13.5363C21.8714-3.51241 35.7254-5.6261 34.127-15.5112L30.9126-35.2522L43.6522-40.2554C45.2343-40.8636 46.6299-40.4631 47.3381-39.0247L59.5959-14.7503C63.4216-7.15724 66.626-4.81427 69.7136-2.58811L109.782 26.8495C117.83 32.7801 127.475 21.0226 118.485 14.3902L87.303-8.41299C86.3423-9.10921 86.4239-10.4188 87.4871-11.0126L108.296-22.894L135.664-9.85393C144.711-5.52051 151.94-18.3939 141.434-23.4071L111.733-37.5862C108.031-39.3078 104.331-38.9445 100.876-36.9076L86.9374-28.8036C85.6962-28.0514 84.8356-28.2603 84.3663-29.2586L73.1955-52.141C72.3837-53.7826 72.7441-55.3831 74.2926-56.0769L84.5007-60.7485C88.202-62.4493 89.5811-63.8648 90.5802-67.3444L97.077-89.9052C99.8924-99.6295 86.6378-103.262 83.8223-93.5381L77.6216-71.9235L21.3592-47.2314C17.1206-45.3721 15.465-42.0585 16.2448-37.301Z"/>
  </g>
  <g id="Heavy-L" transform="matrix(1 0 0 1 2556.45 1556)">
   <path d="M41.9626-64.6973C50.2817-64.6973 57.0093-71.455 57.0093-79.7439C57.0093-88.0629 50.2817-94.7905 41.9626-94.7905C33.6737-94.7905 26.9462-88.0629 26.9462-79.7439C26.9462-71.455 33.6737-64.6973 41.9626-64.6973ZM16.2448-37.3104L20.1304-13.8673C21.7396-4.27241 34.9726-6.28132 33.4382-15.7512L30.2327-35.4033L42.9601-40.4026C44.6337-41.0428 46.0937-40.6754 46.8389-39.1493L58.966-15.1364C62.7051-7.70272 65.8367-5.41435 68.879-3.21523L108.399 25.8054C116.105 31.4851 125.339 20.2476 116.71 13.8799L85.9671-8.61494C84.9011-9.39828 84.9872-10.8733 86.1694-11.5404L106.785-23.3181L133.868-10.4226C142.536-6.27168 149.464-18.5611 139.387-23.3641L110.089-37.3529C106.473-39.0337 102.892-38.6517 99.5973-36.7064L85.8442-28.6972C84.4878-27.8805 83.5268-28.1589 83.0116-29.2393L71.9904-51.809C71.1234-53.5328 71.4651-55.2253 73.1702-55.9974L83.2377-60.6011C86.8248-62.2518 88.1537-63.5895 89.1164-66.96L95.5227-89.208C98.2196-98.517 85.5583-101.985 82.8614-92.6765L76.7241-71.2511L21.1585-46.8574C17.0611-45.0572 15.4876-41.8992 16.2448-37.3104Z"/>
  </g>
  <g id="Bold-L" transform="matrix(1 0 0 1 2261.21 1556)">
   <path d="M41.4029-64.2373C49.4377-64.2373 55.9039-70.7414 55.9039-78.7382C55.9039-86.7731 49.4377-93.2392 41.4029-93.2392C33.406-93.2392 26.9399-86.7731 26.9399-78.7382C26.9399-70.7414 33.406-64.2373 41.4029-64.2373ZM16.2448-37.3182L20.046-14.3044C21.5707-5.23233 34.0503-7.11064 32.5928-16.0731L29.4024-35.5803L42.0921-40.5646C43.8735-41.2432 45.403-40.8994 46.1868-39.2807L58.1302-15.6352C61.7617-8.40125 64.8012-6.18199 67.7822-4.02114L106.574 24.4474C113.864 29.8196 122.599 19.22 114.408 13.1753L84.2479-8.91312C83.0588-9.79659 83.1524-11.4567 84.4732-12.2085L104.813-23.8407L131.506-11.1443C139.713-7.21637 146.272-18.7909 136.717-23.3402L107.956-37.0759C104.462-38.703 101.027-38.3054 97.9175-36.4678L84.4098-28.5889C82.9298-27.7027 81.8458-28.0507 81.2768-29.2311L70.4549-51.3867C69.5263-53.2105 69.8524-55.0033 71.7273-55.8603L81.6106-60.3721C85.0593-61.9612 86.3268-63.2066 87.2433-66.4388L93.5271-88.2727C96.0779-97.0744 84.1393-100.343 81.5884-91.5414L75.5355-70.3839L20.9125-46.3963C16.9918-44.6728 15.5183-41.6994 16.2448-37.3182Z"/>
  </g>
  <g id="Semibold-L" transform="matrix(1 0 0 1 1965.51 1556)">
   <path d="M41.017-63.9201C48.8559-63.9201 55.1418-70.2494 55.1418-78.045C55.1418-85.8839 48.8559-92.1698 41.017-92.1698C33.2215-92.1698 26.9355-85.8839 26.9355-78.045C26.9355-70.2494 33.2215-63.9201 41.017-63.9201ZM16.2448-37.3236L19.9879-14.6058C21.4543-5.89409 33.4144-7.68236 32.0099-16.2951L28.8301-35.7024L41.4938-40.6763C43.3494-41.3814 44.9268-41.0539 45.7373-39.3712L57.554-15.9791C61.1114-8.88281 64.0873-6.7112 67.026-4.57673L105.316 23.5111C112.32 28.6714 120.71 18.5117 112.821 12.6895L83.0627-9.11869C81.7886-10.0712 81.8875-11.8588 83.3039-12.669L103.454-24.2009L129.877-11.6419C137.766-7.86763 144.071-18.9493 134.877-23.3236L106.486-36.885C103.076-38.4751 99.7415-38.0667 96.7595-36.3034L83.4209-28.5143C81.8558-27.5801 80.687-27.9762 80.0809-29.2255L69.3964-51.0956C68.4252-52.9883 68.7406-54.8503 70.7325-55.7658L80.4889-60.2141C83.8422-61.7609 85.0673-62.9427 85.9521-66.0796L92.1513-87.628C94.6015-96.0799 83.1611-99.2107 80.7109-90.7588L74.7161-69.7861L20.7429-46.0785C16.944-44.4078 15.5394-41.5618 16.2448-37.3236Z"/>
  </g>
  <g id="Medium-L" transform="matrix(1 0 0 1 1669.57 1556)">
   <path d="M40.7244-63.6797C48.4147-63.6797 54.564-69.8764 54.564-77.5193C54.564-85.2096 48.4147-91.3589 40.7244-91.3589C33.0815-91.3589 26.9322-85.2096 26.9322-77.5193C26.9322-69.8764 33.0815-63.6797 40.7244-63.6797ZM16.2448-37.3276L19.9438-14.8343C21.366-6.39586 32.9322-8.11587 31.5679-16.4634L28.3961-35.7949L41.0401-40.761C42.952-41.4862 44.5658-41.171 45.3964-39.4399L57.117-16.2398C60.6182-9.24795 63.546-7.11246 66.4527-4.998L104.362 22.8013C111.149 27.8008 119.277 17.9745 111.618 12.3211L82.1641-9.27455C80.8256-10.2794 80.9285-12.1637 82.4173-13.0183L102.423-24.4741L128.642-12.0192C136.29-8.36144 142.402-19.0694 133.481-23.3111L105.371-36.7402C102.025-38.3022 98.7668-37.8856 95.8814-36.1787L82.6711-28.4576C81.0414-27.4872 79.8083-27.9197 79.1741-29.2212L68.5938-50.8749C67.5903-52.8198 67.8976-54.7342 69.9782-55.6941L79.6384-60.0944C82.9194-61.609 84.1123-62.7425 84.973-65.8072L91.1081-87.1392C93.482-95.3258 82.4193-98.3521 80.0455-90.1655L74.0947-69.3327L20.6144-45.8374C16.9078-44.2069 15.5555-41.4574 16.2448-37.3276Z"/>
  </g>
  <g id="Regular-L" transform="matrix(1 0 0 1 1373.86 1556)">
   <path d="M40.3427-63.3661C47.8393-63.3661 53.8103-69.3899 53.8103-76.8337C53.8103-84.3302 47.8393-90.3012 40.3427-90.3012C32.899-90.3012 26.9279-84.3302 26.9279-76.8337C26.9279-69.3899 32.899-63.3661 40.3427-63.3661ZM16.2448-37.333L19.8863-15.1324C21.2509-7.05035 32.3033-8.68131 30.9915-16.6829L27.83-35.9156L40.4483-40.8714C42.4337-41.6229 44.0948-41.3238 44.9518-39.5294L56.5472-16.5799C59.975-9.72422 62.8399-7.63585 65.7048-5.54748L103.117 21.8753C109.621 26.6652 117.409 17.2739 110.048 11.8407L80.9919-9.47786C79.5694-10.551 79.6775-12.5615 81.2608-13.4737L101.079-24.8304L127.032-12.5113C134.365-9.00554 140.225-19.2261 131.661-23.2948L103.916-36.5513C100.654-38.0767 97.4954-37.6495 94.736-36.016L81.6931-28.3838C79.9792-27.366 78.6623-27.846 77.9912-29.2157L67.5468-50.587C66.5014-52.6 66.798-54.5828 68.9944-55.6006L78.5291-59.9382C81.7157-61.4109 82.8666-62.4814 83.6959-65.4519L89.7475-86.5015C92.0218-94.3422 81.4518-97.2323 79.1775-89.3915L73.2843-68.7415L20.4467-45.523C16.8605-43.9449 15.5764-41.3212 16.2448-37.333Z"/>
  </g>
  <g id="Light-L" transform="matrix(1 0 0 1 1078.57 1556)">
   <path d="M39.7129-62.8317C46.9995-62.8317 52.8179-68.6838 52.8179-75.9366C52.8179-83.2232 46.9995-89.0416 39.7129-89.0416C32.46-89.0416 26.6416-83.2232 26.6416-75.9366C26.6416-68.6838 32.46-62.8317 39.7129-62.8317ZM16.2448-37.3139L19.7909-15.6095C21.0982-7.83285 31.7307-9.36838 30.4571-17.0646L27.3338-35.9729L39.7803-40.8524C41.8039-41.6229 43.4459-41.2283 44.2838-39.4722L55.612-17.057C58.9635-10.354 61.7521-8.32292 64.5406-6.29181L101.132 20.5203C107.407 25.1193 114.909 16.1288 107.796 10.8864L79.3887-9.99316C77.9281-11.0854 78.0553-13.0959 79.6767-14.0272L99.0751-25.1739L124.512-13.122C131.578-9.74986 137.21-19.5315 128.951-23.4666L101.817-36.4368C98.7458-37.905 95.6823-37.5159 92.9611-35.9206L80.1854-28.4601C78.5096-27.4614 77.1163-27.8841 76.4262-29.3111L66.2109-50.2243C65.1654-52.2946 65.5002-54.2584 67.6584-55.2571L77.0022-59.4802C80.1125-60.9147 81.2253-61.9471 82.0164-64.803L87.9153-85.3946C90.0942-92.9299 79.9441-95.7054 77.7652-88.1701L71.9674-67.9208L20.294-45.2177C16.8414-43.7158 15.6145-41.1685 16.2448-37.3139Z"/>
  </g>
  <g id="Thin-L" transform="matrix(1 0 0 1 783.737 1556)">
   <path d="M38.88-62.1249C45.8889-62.1249 51.5053-67.7498 51.5053-74.7503C51.5053-81.7592 45.8889-87.3757 38.88-87.3757C31.8795-87.3757 26.263-81.7592 26.263-74.7503C26.263-67.7498 31.8795-62.1249 38.88-62.1249ZM16.2448-37.2886L19.6646-16.2405C20.8962-8.86777 30.9735-10.2771 29.7503-17.5694L26.6775-36.0486L38.8968-40.8271C40.9709-41.6229 42.5877-41.1021 43.4003-39.3964L54.3751-17.6881C57.6257-11.187 60.3133-9.23163 63.0009-7.27624L98.5071 18.7281C104.479 23.0747 111.602 14.6143 104.818 9.62432L77.2684-10.6747C75.7573-11.7921 75.9097-13.8026 77.5816-14.7592L96.4247-25.6283L121.181-13.9297C127.893-10.7343 133.222-19.9354 125.366-23.6937L99.0403-36.2854C96.2216-37.6778 93.2843-37.3393 90.6136-35.7944L78.1913-28.5611C76.566-27.5876 75.0718-27.9346 74.3564-29.4373L64.4439-49.7447C63.3985-51.8908 63.7837-53.8293 65.8915-54.8028L74.9829-58.8744C77.9922-60.2584 79.0545-61.2403 79.7952-63.9448L85.492-83.9305C87.5447-91.062 77.95-93.6861 75.8973-86.5546L70.2257-66.8354L20.092-44.8138C16.8162-43.4129 15.665-40.9666 16.2448-37.2886Z"/>
  </g>
  <g id="Ultralight-L" transform="matrix(1 0 0 1 487.99 1556)">
   <path d="M38.4533-61.7629C45.32-61.7629 50.833-67.2714 50.833-74.1426C50.833-81.0093 45.32-86.5224 38.4533-86.5224C31.5821-86.5224 26.0691-81.0093 26.0691-74.1426C26.0691-67.2714 31.5821-61.7629 38.4533-61.7629ZM16.2448-37.2757L19.6-16.5638C20.7928-9.39784 30.5856-10.7425 29.3883-17.828L26.3413-36.0874L38.4443-40.8142C40.5442-41.6229 42.1481-41.0375 42.9478-39.3576L53.7416-18.0113C56.9405-11.6137 59.5763-9.69706 62.2122-7.78046L97.1626 17.8102C102.979 22.0275 109.908 13.8386 103.292 8.97789L76.1824-11.0238C74.6454-12.1541 74.8108-14.1646 76.5086-15.1342L95.0671-25.861L119.474-14.3434C126.005-11.2385 131.179-20.1422 123.53-23.8101L97.6181-36.2078C94.9288-37.5614 92.0561-37.2488 89.4112-35.7298L77.1699-28.6128C75.5705-27.6523 74.0245-27.9605 73.2963-29.5019L63.5389-49.4991C62.4935-51.6839 62.9046-53.6095 64.9865-54.57L73.9486-58.5641C76.9062-59.9222 77.9426-60.8783 78.6574-63.5052L84.2509-83.1807C86.2389-90.1053 76.9286-92.6518 74.9406-85.7271L69.3337-66.2795L19.9886-44.607C16.8033-43.2578 15.6909-40.8632 16.2448-37.2757Z"/>
  </g>
  <g id="Black-M" transform="matrix(1 0 0 1 2869.57 1126)">
   <path d="M33.1136-58.5495C39.9025-58.5495 45.4445-64.097 45.4445-70.8804C45.4445-77.6693 39.9025-83.2113 33.1136-83.2113C26.3301-83.2113 20.7882-77.6693 20.7882-70.8804C20.7882-64.097 26.3301-58.5495 33.1136-58.5495ZM12.5855-36.8238L15.6866-18.2031C17.0373-10.1098 28.2474-11.8245 26.9592-19.7984L24.4665-35.125L34.3236-38.9942C35.4757-39.4405 36.4989-39.0889 37.0133-38.055L46.5861-19.0962C49.6142-13.0973 52.1489-11.2429 54.5695-9.50273L85.9725 13.5795C92.4708 18.364 100.258 8.86226 93.0165 3.52226L68.5682-14.3499C67.9092-14.817 67.9713-15.6894 68.6977-16.089L84.929-25.3547L106.307-15.164C113.605-11.668 119.434-22.084 110.967-26.1304L87.6925-37.2403C84.7769-38.6014 81.8214-38.3412 79.0121-36.6897L68.0894-30.3529C67.232-29.8281 66.6411-29.9225 66.3142-30.6331L57.5623-48.5678C56.9808-49.7768 57.2813-50.935 58.3412-51.4027L66.3449-55.0647C69.3002-56.4203 70.4066-57.5787 71.2067-60.3528L76.2972-78.0383C78.5674-85.8876 67.8453-88.8279 65.5751-80.9786L60.7296-64.1245L16.6997-44.8078C13.3127-43.327 11.9671-40.6365 12.5855-36.8238Z"/>
  </g>
  <g id="Heavy-M" transform="matrix(1 0 0 1 2573.84 1126)">
   <path d="M32.7597-58.2623C39.3453-58.2623 44.6917-63.6251 44.6917-70.1943C44.6917-76.7799 39.3453-82.1263 32.7597-82.1263C26.1905-82.1263 20.8441-76.7799 20.8441-70.1943C20.8441-63.6251 26.1905-58.2623 32.7597-58.2623ZM12.5855-36.8347L15.6334-18.4826C16.9225-10.7806 27.5643-12.4016 26.3352-19.9978L23.8475-35.2674L33.7086-39.1399C34.9467-39.6156 36.0347-39.3052 36.5869-38.1821L46.0566-19.4296C49.007-13.5724 51.4777-11.7661 53.8611-10.0471L84.8038 12.6838C90.9884 17.2406 98.3999 8.21029 91.4886 3.11145L67.4102-14.4998C66.6518-15.0503 66.7164-16.0844 67.5557-16.5539L83.6365-25.7376L104.784-15.6636C111.736-12.3336 117.292-22.2192 109.216-26.0725L86.2793-37.0228C83.4298-38.3493 80.5813-38.0673 77.9254-36.5017L67.1597-30.2418C66.1862-29.6522 65.5042-29.8198 65.1344-30.6054L56.5075-48.2767C55.872-49.5607 56.1507-50.8107 57.3672-51.3566L65.251-54.9629C68.1018-56.273 69.1627-57.3588 69.9307-60.0368L74.9468-77.4588C77.1099-84.9304 66.9292-87.7205 64.7661-80.249L59.9737-63.5429L16.5176-44.4705C13.2562-43.0403 11.9857-40.4948 12.5855-36.8347Z"/>
  </g>
  <g id="Bold-M" transform="matrix(1 0 0 1 2278.22 1126)">
   <path d="M32.3638-57.941C38.7221-57.941 43.8496-63.0972 43.8496-69.4268C43.8496-75.785 38.7221-80.9125 32.3638-80.9125C26.0343-80.9125 20.9067-75.785 20.9067-69.4268C20.9067-63.0972 26.0343-57.941 32.3638-57.941ZM12.5855-36.8469L15.5738-18.7953C16.7941-11.5309 26.8002-13.0472 25.6371-20.2208L23.1552-35.4267L33.0206-39.3028C34.3549-39.8116 35.5154-39.5471 36.11-38.3242L45.4643-19.8026C48.3279-14.1039 50.7268-12.3515 53.0686-10.6561L83.4964 11.6818C89.3302 15.9839 96.3219 7.48096 89.7794 2.65189L66.1148-14.6674C65.2452-15.3112 65.3126-16.5263 66.2783-17.074L82.1906-26.1659L103.08-16.2224C109.646-13.0783 114.895-22.3705 107.257-26.0078L84.6985-36.7795C81.9228-38.0673 79.1942-37.7609 76.7097-36.2915L66.1198-30.1176C65.0163-29.4555 64.2325-29.705 63.8146-30.5745L55.3275-47.951C54.6317-49.319 54.886-50.6716 56.2777-51.3051L64.0274-54.849C66.7612-56.1082 67.7711-57.113 68.5033-59.6833L73.4362-76.8106C75.4795-83.8595 65.9043-86.4818 63.861-79.4329L59.1282-62.8924L16.3138-44.0931C13.193-42.7196 12.0065-40.3363 12.5855-36.8469Z"/>
  </g>
  <g id="Semibold-M" transform="matrix(1 0 0 1 1982.27 1126)">
   <path d="M32.0909-57.7196C38.2924-57.7196 43.269-62.7333 43.269-68.8976C43.269-75.0991 38.2924-80.0757 32.0909-80.0757C25.9266-80.0757 20.9499-75.0991 20.9499-68.8976C20.9499-62.7333 25.9266-57.7196 32.0909-57.7196ZM12.5855-36.8553L15.5328-19.0109C16.7056-12.0482 26.2734-13.4923 25.1558-20.3745L22.6778-35.5365L32.5463-39.4151C33.9469-39.9467 35.1574-39.7139 35.7812-38.4222L45.0559-20.0597C47.8597-14.4704 50.2091-12.755 52.5223-11.0759L82.5951 10.9911C88.187 15.1176 94.8894 6.97816 88.6011 2.33508L65.2217-14.783C64.2754-15.4911 64.3449-16.8309 65.3976-17.4326L81.1938-26.4612L101.905-16.6076C108.204-13.5916 113.243-22.4748 105.907-25.9632L83.6088-36.6118C80.8839-37.8729 78.2379-37.5496 75.8717-36.1465L65.4029-30.032C64.2098-29.3199 63.3558-29.6258 62.9047-30.5532L54.514-47.7265C53.7767-49.1523 54.0141-50.5757 55.5266-51.2697L63.1838-54.7706C65.8369-55.9946 66.8118-56.9434 67.5192-59.4396L72.3948-76.3637C74.3555-83.1213 65.1978-85.6278 63.2371-78.8702L58.5453-62.4439L16.1733-43.8329C13.1495-42.4985 12.0209-40.227 12.5855-36.8553Z"/>
  </g>
  <g id="Medium-M" transform="matrix(1 0 0 1 1686.13 1126)">
   <path d="M31.884-57.5516C37.9666-57.5516 42.8288-62.4573 42.8288-68.4964C42.8288-74.579 37.9666-79.4413 31.884-79.4413C25.8449-79.4413 20.9826-74.579 20.9826-68.4964C20.9826-62.4573 25.8449-57.5516 31.884-57.5516ZM12.5855-36.8617L15.5017-19.1743C16.6385-12.4404 25.874-13.8298 24.7909-20.4911L22.3159-35.6198L32.1867-39.5003C33.6375-40.0491 34.886-39.8404 35.5319-38.4965L44.7463-20.2547C47.5046-14.7482 49.8166-13.0609 52.108-11.3942L81.9117 10.4673C87.3202 14.4607 93.8032 6.59692 87.7076 2.09486L64.5446-14.8707C63.5402-15.6276 63.6111-17.0618 64.7298-17.7044L80.4379-26.6851L101.014-16.8997C107.111-13.9808 111.991-22.5539 104.883-25.9294L82.7824-36.4847C80.0962-37.7255 77.5128-37.3895 75.2363-36.0366L64.8593-29.967C63.5983-29.2171 62.691-29.5657 62.2148-30.537L53.8972-47.5562C53.1284-49.026 53.353-50.503 54.957-51.2427L62.5441-54.711C65.1362-55.9085 66.0844-56.8149 66.7731-59.2548L71.6051-76.0248C73.5032-82.5615 64.6621-84.9803 62.764-78.4436L58.1033-62.1038L16.0668-43.6357C13.1165-42.3308 12.0317-40.1441 12.5855-36.8617Z"/>
  </g>
  <g id="Regular-M" transform="matrix(1 0 0 1 1390.16 1126)">
   <path d="M31.6141-57.3326C37.5416-57.3326 42.2547-62.0974 42.2547-67.9731C42.2547-73.9006 37.5416-78.6137 31.6141-78.6137C25.7384-78.6137 21.0253-73.9006 21.0253-67.9731C21.0253-62.0974 25.7384-57.3326 31.6141-57.3326ZM12.5855-36.87L15.4611-19.3875C16.5509-12.952 25.353-14.27 24.3149-20.6431L21.8438-35.7284L31.7176-39.6114C33.234-40.1827 34.5319-40.0054 35.2067-38.5934L44.3424-20.509C47.0416-15.1106 49.3046-13.46 51.5677-11.8094L81.0203 9.78418C86.1896 13.6039 92.3864 6.09965 86.5423 1.78153L63.6614-14.985C62.5811-15.8055 62.6539-17.3631 63.8588-18.059L79.4521-26.9771L99.8524-17.2807C105.686-14.4885 110.357-22.657 103.547-25.8853L81.7046-36.3188C79.0687-37.5333 76.567-37.1805 74.4074-35.8932L64.1503-29.8823C62.8007-29.0829 61.8239-29.4874 61.3149-30.5159L53.0927-47.3342C52.2827-48.8612 52.4907-50.4082 54.2142-51.2076L61.7098-54.6334C64.2221-55.7961 65.1356-56.6472 65.7998-59.0138L70.5752-75.5829C72.3916-81.8314 63.9633-84.1357 62.147-77.8871L57.5269-61.6603L15.9279-43.3784C13.0734-42.1122 12.0459-40.036 12.5855-36.87Z"/>
  </g>
  <g id="Light-M" transform="matrix(1 0 0 1 1094.73 1126)">
   <path d="M31.0495-56.8535C36.7887-56.8535 41.3649-61.4643 41.3649-67.1689C41.3649-72.9082 36.7887-77.4844 31.0495-77.4844C25.3448-77.4844 20.7687-72.9082 20.7687-67.1689C20.7687-61.4643 25.3448-56.8535 31.0495-56.8535ZM12.5855-36.8529L15.3756-19.8153C16.4141-13.6536 24.8397-14.886 23.8358-20.9854L21.399-35.7798L31.1187-39.5943C32.6694-40.1827 33.9501-39.9198 34.6078-38.5421L43.5039-20.9368C46.1347-15.6752 48.3293-14.076 50.5239-12.4768L79.2407 8.5693C84.2047 12.2179 90.1448 5.073 84.5232 0.925983L62.2241-15.447C61.1095-16.2846 61.1995-17.8422 62.4386-18.5552L77.6555-27.2851L97.5937-17.8282C103.188-15.1559 107.653-22.9308 101.118-26.0393L79.8224-36.2162C77.3576-37.3793 74.9414-37.0608 72.8161-35.8077L62.7985-29.9508C61.4831-29.1685 60.4379-29.5216 59.9118-30.6015L51.8949-47.0091C51.085-48.5874 51.3272-50.1173 53.0164-50.8996L60.3409-54.2227C62.7848-55.3512 63.664-56.1681 64.2941-58.4321L68.9325-74.5904C70.6634-80.5652 62.6116-82.7668 60.8807-76.792L56.3462-60.9245L15.791-43.1046C13.0563-41.9068 12.0801-39.8991 12.5855-36.8529Z"/>
  </g>
  <g id="Thin-M" transform="matrix(1 0 0 1 799.702 1126)">
   <path d="M30.3026-56.2198C35.793-56.2198 40.1881-60.627 40.1881-66.1053C40.1881-71.5956 35.793-75.9907 30.3026-75.9907C24.8243-75.9907 20.4292-71.5956 20.4292-66.1053C20.4292-60.627 24.8243-56.2198 30.3026-56.2198ZM12.5855-36.8303L15.2624-20.381C16.233-14.5814 24.1608-15.7007 23.2022-21.438L20.8106-35.8477L30.3267-39.5717C31.9226-40.1827 33.1807-39.8066 33.8157-38.4742L42.395-21.5025C44.9353-16.4221 47.0394-14.8907 49.1435-13.3594L76.8872 6.96253C81.5795 10.3848 87.1802 3.71516 81.8528-0.205547L60.3231-16.058C59.1633-16.9183 59.2759-18.4759 60.5603-19.2115L75.2792-27.6925L94.6065-18.5524C99.8837-16.0385 104.078-23.2929 97.9042-26.243L77.3331-36.0804C75.0946-37.1756 72.7915-36.9023 70.7115-35.6945L61.0107-30.0413C59.7406-29.2816 58.6048-29.5669 58.0561-30.7146L50.3108-46.5791C49.5008-48.2253 49.7883-49.7326 51.4323-50.4923L58.5305-53.6796C60.8838-54.7628 61.7178-55.5345 62.3026-57.6626L66.76-73.2779C68.3777-78.8906 60.8238-80.9564 59.2061-75.3437L54.7847-59.9514L15.61-42.7425C13.0337-41.6353 12.1254-39.7181 12.5855-36.8303Z"/>
  </g>
  <g id="Ultralight-M" transform="matrix(1 0 0 1 503.855 1126)">
   <path d="M29.9201-55.8953C35.283-55.8953 39.5854-60.1981 39.5854-65.5605C39.5854-70.9233 35.283-75.2257 29.9201-75.2257C24.5577-75.2257 20.2553-70.9233 20.2553-65.5605C20.2553-60.1981 24.5577-55.8953 29.9201-55.8953ZM12.5855-36.8187L15.2044-20.6708C16.1403-15.0567 23.813-16.118 22.8776-21.6698L20.5092-35.8824L29.921-39.5601C31.5401-40.1827 32.7866-39.7487 33.41-38.4394L41.8271-21.7923C44.3209-16.8046 46.3787-15.308 48.4364-13.8114L75.6817 6.13955C80.2349 9.4459 85.6618 3.01968 80.485-0.785111L59.3494-16.371C58.1665-17.2428 58.2907-18.8004 59.5982-19.5477L74.0622-27.9011L93.0764-18.9233C98.1913-16.4905 102.246-23.4783 96.2582-26.3473L76.058-36.0108C73.9354-37.0713 71.6904-36.8212 69.6335-35.6366L60.095-30.0877C58.848-29.3396 57.6659-29.5901 57.1056-30.7726L49.4994-46.3589C48.6894-48.0398 49.0001-49.5356 50.6209-50.2836L57.6032-53.4014C59.9102-54.4614 60.721-55.2099 61.2825-57.2685L65.6472-72.6056C67.207-78.0328 59.9081-80.0291 58.3483-74.6018L53.9849-59.453L15.5172-42.557C13.0221-41.4962 12.1486-39.6253 12.5855-36.8187Z"/>
  </g>
  <g id="Black-S" transform="matrix(1 0 0 1 2883.16 696)">
   <path d="M26.0254-53.5645C31.3965-53.5645 35.791-57.959 35.791-63.3301C35.791-68.7012 31.3965-73.0957 26.0254-73.0957C20.6543-73.0957 16.2598-68.7012 16.2598-63.3301C16.2598-57.959 20.6543-53.5645 26.0254-53.5645ZM9.86328-36.4746L12.3047-21.8262C13.3789-15.3809 22.3145-16.748 21.2891-23.0957L19.3359-35.1074L27.0508-38.1348C27.9297-38.4766 28.7109-38.1836 29.1016-37.4023L36.6211-22.5098C39.0137-17.7734 41.0156-16.3086 42.9199-14.9414L67.627 3.22266C72.8027 7.03125 79.0039-0.537109 73.2422-4.78516L54.0039-18.8477C53.5156-19.1895 53.5645-19.8242 54.1016-20.1172L66.8457-27.3926L83.6426-19.3848C89.4531-16.6016 94.0918-24.9023 87.3535-28.125L69.043-36.8652C66.748-37.9395 64.4043-37.7441 62.1582-36.4258L53.5645-31.4453C52.9297-31.0547 52.4902-31.1035 52.2461-31.6406L45.3613-45.752C44.9219-46.6797 45.166-47.5586 45.9473-47.9004L52.2461-50.7812C54.5898-51.8555 55.4688-52.7832 56.1035-54.9805L60.1074-68.8965C61.9141-75.1465 53.3691-77.4902 51.5625-71.2402L47.7539-58.0078L13.1348-42.8223C10.4492-41.6504 9.375-39.502 9.86328-36.4746Z"/>
  </g>
  <g id="Heavy-S" transform="matrix(1 0 0 1 2587.12 696)">
   <path d="M25.7949-53.3801C31.0162-53.3801 35.2609-57.6363 35.2609-62.8461C35.2609-68.0673 31.0162-72.312 25.7949-72.312C20.5852-72.312 16.3404-68.0673 16.3404-62.8461C16.3404-57.6363 20.5852-53.3801 25.7949-53.3801ZM9.86328-36.4861L12.2701-22.0106C13.2982-15.8649 21.7959-17.1629 20.8166-23.2225L18.8634-35.2227L26.6013-38.2615C27.5494-38.6264 28.3883-38.3795 28.8135-37.5176L36.2754-22.7403C38.6103-18.1076 40.5662-16.6774 42.4474-15.3217L66.8548 2.61186C71.7886 6.24759 77.7016-0.963515 72.1935-5.02717L53.1972-18.9168C52.6282-19.3277 52.6771-20.1008 53.3064-20.4514L65.9698-27.6807L82.6284-19.742C88.1739-17.0856 92.6051-24.983 86.1665-28.0559L68.0749-36.6924C65.8146-37.7435 63.5515-37.5252 61.4322-36.276L52.9421-31.3416C52.2036-30.8933 51.695-31.0113 51.4163-31.6061L44.6122-45.5445C44.1267-46.5299 44.3478-47.4894 45.2673-47.9004L51.4855-50.7467C53.7486-51.7863 54.5929-52.6564 55.2046-54.7846L59.1624-68.5277C60.8884-74.4896 52.7583-76.7181 51.0324-70.7562L47.2584-57.6045L12.9965-42.5687C10.4031-41.4314 9.38652-39.3982 9.86328-36.4861Z"/>
  </g>
  <g id="Bold-S" transform="matrix(1 0 0 1 2291.16 696)">
   <path d="M25.5371-53.1738C30.5908-53.1738 34.668-57.2754 34.668-62.3047C34.668-67.3584 30.5908-71.4355 25.5371-71.4355C20.5078-71.4355 16.4307-67.3584 16.4307-62.3047C16.4307-57.2754 20.5078-53.1738 25.5371-53.1738ZM9.86328-36.499L12.2314-22.2168C13.208-16.4062 21.2158-17.627 20.2881-23.3643L18.335-35.3516L26.0986-38.4033C27.124-38.7939 28.0273-38.5986 28.4912-37.6465L35.8887-22.998C38.1592-18.4814 40.0635-17.0898 41.9189-15.7471L65.9912 1.92871C70.6543 5.37109 76.2451-1.44043 71.0205-5.29785L52.2949-18.9941C51.6357-19.4824 51.6846-20.4102 52.417-20.8252L64.9902-28.0029L81.4941-20.1416C86.7432-17.627 90.9424-25.0732 84.8389-27.9785L66.9922-36.499C64.7705-37.5244 62.5977-37.2803 60.6201-36.1084L52.2461-31.2256C51.3916-30.7129 50.8057-30.9082 50.4883-31.5674L43.7744-45.3125C43.2373-46.3623 43.4326-47.4121 44.5068-47.9004L50.6348-50.708C52.8076-51.709 53.6133-52.5146 54.1992-54.5654L58.1055-68.1152C59.7412-73.7549 52.0752-75.8545 50.4395-70.2148L46.7041-57.1533L12.8418-42.2852C10.3516-41.1865 9.39941-39.2822 9.86328-36.499Z"/>
  </g>
  <g id="Semibold-S" transform="matrix(1 0 0 1 1994.97 696)">
   <path d="M25.3594-53.0316C30.2976-53.0316 34.2592-57.0266 34.2592-61.9314C34.2592-66.8696 30.2976-70.8312 25.3594-70.8312C20.4545-70.8312 16.4929-66.8696 16.4929-61.9314C16.4929-57.0266 20.4545-53.0316 25.3594-53.0316ZM9.86328-36.5079L12.2048-22.359C13.1458-16.7795 20.8159-17.9469 19.9237-23.462L17.9706-35.4404L25.7521-38.5011C26.8308-38.9095 27.7785-38.7497 28.269-37.7354L35.6221-23.1758C37.8481-18.7392 39.7169-17.3742 41.5546-16.0403L65.3958 1.45771C69.8723 4.7668 75.2409-1.76924 70.2118-5.48447L51.6729-19.0475C50.9515-19.5891 51.0003-20.6234 51.8038-21.0829L64.3148-28.2251L80.7121-20.4171C85.7567-18.0002 89.796-25.1354 83.9235-27.9252L66.2457-36.3657C64.0507-37.3733 61.94-37.1114 60.0603-35.9929L51.7662-31.1456C50.8317-30.5885 50.1925-30.8371 49.8484-31.5407L43.1968-45.1525C42.6241-46.2468 42.8017-47.3588 43.9825-47.9004L50.0482-50.6813C52.1589-51.6557 52.9379-52.4169 53.5061-54.4144L57.3768-67.8309C58.9503-73.2483 51.6042-75.2591 50.0307-69.8416L46.322-56.8423L12.7352-42.0896C10.316-41.0177 9.4083-39.2022 9.86328-36.5079Z"/>
  </g>
  <g id="Medium-S" transform="matrix(1 0 0 1 1698.65 696)">
   <path d="M25.2246-52.9238C30.0752-52.9238 33.9492-56.8379 33.9492-61.6484C33.9492-66.499 30.0752-70.373 25.2246-70.373C20.4141-70.373 16.54-66.499 16.54-61.6484C16.54-56.8379 20.4141-52.9238 25.2246-52.9238ZM9.86328-36.5146L12.1846-22.4668C13.0986-17.0625 20.5127-18.1895 19.6475-23.5361L17.6943-35.5078L25.4893-38.5752C26.6084-38.9971 27.5898-38.8643 28.1006-37.8027L35.4199-23.3105C37.6123-18.9346 39.4541-17.5898 41.2783-16.2627L64.9443 1.10059C69.2793 4.30859 74.4795-2.01855 69.5986-5.62598L51.2012-19.0879C50.4326-19.6699 50.4814-20.7852 51.3389-21.2783L63.8027-28.3936L80.1191-20.626C85.0088-18.2832 88.9268-25.1826 83.2295-27.8848L65.6797-36.2646C63.5049-37.2588 61.4414-36.9834 59.6357-35.9053L51.4023-31.085C50.4072-30.4941 49.7275-30.7832 49.3633-31.5205L42.7588-45.0312C42.1592-46.1592 42.3232-47.3184 43.585-47.9004L49.6035-50.6611C51.667-51.6152 52.4258-52.3428 52.9805-54.2998L56.8242-67.6152C58.3506-72.8643 51.2471-74.8076 49.7207-69.5586L46.0322-56.6064L12.6543-41.9414C10.2891-40.8896 9.41504-39.1416 9.86328-36.5146Z"/>
  </g>
  <g id="Regular-S" transform="matrix(1 0 0 1 1402.46 696)">
   <path d="M25.0488-52.7832C29.7852-52.7832 33.5449-56.5918 33.5449-61.2793C33.5449-66.0156 29.7852-69.7754 25.0488-69.7754C20.3613-69.7754 16.6016-66.0156 16.6016-61.2793C16.6016-56.5918 20.3613-52.7832 25.0488-52.7832ZM9.86328-36.5234L12.1582-22.6074C13.0371-17.4316 20.1172-18.5059 19.2871-23.6328L17.334-35.5957L25.1465-38.6719C26.3184-39.1113 27.3438-39.0137 27.8809-37.8906L35.1562-23.4863C37.3047-19.1895 39.1113-17.8711 40.918-16.5527L64.3555 0.634766C68.5059 3.71094 73.4863-2.34375 68.7988-5.81055L50.5859-19.1406C49.7559-19.7754 49.8047-20.9961 50.7324-21.5332L63.1348-28.6133L79.3457-20.8984C84.0332-18.6523 87.793-25.2441 82.3242-27.832L64.9414-36.1328C62.793-37.1094 60.791-36.8164 59.082-35.791L50.9277-31.0059C49.8535-30.3711 49.1211-30.7129 48.7305-31.4941L42.1875-44.873C41.5527-46.0449 41.6992-47.2656 43.0664-47.9004L49.0234-50.6348C51.0254-51.5625 51.7578-52.2461 52.2949-54.1504L56.1035-67.334C57.5684-72.3633 50.7812-74.2188 49.3164-69.1895L45.6543-56.2988L12.5488-41.748C10.2539-40.7227 9.42383-39.0625 9.86328-36.5234Z"/>
  </g>
  <g id="Light-S" transform="matrix(1 0 0 1 1106.87 696)">
   <path d="M24.5493-52.3594C29.1191-52.3594 32.7578-56.0317 32.7578-60.5679C32.7578-65.1377 29.1191-68.7764 24.5493-68.7764C20.0132-68.7764 16.3745-65.1377 16.3745-60.5679C16.3745-56.0317 20.0132-52.3594 24.5493-52.3594ZM9.86328-36.5083L12.0825-22.9858C12.916-18.0522 19.6631-19.0508 18.8633-23.9355L16.9404-35.6411L24.6167-38.6567C25.8189-39.1113 26.8291-38.938 27.3511-37.8452L34.4146-23.8647C36.5024-19.689 38.2485-18.416 39.9946-17.1431L62.7813-0.439933C66.75 2.48487 71.5034-3.25195 67.0127-6.56738L49.3145-19.5493C48.4541-20.1992 48.5181-21.4199 49.4761-21.9722L61.5454-28.8857L77.3477-21.3828C81.8233-19.2427 85.4014-25.4863 80.1748-27.9683L63.2764-36.042C61.2793-36.9731 59.353-36.7105 57.6743-35.7153L49.7319-31.0664C48.688-30.4468 47.895-30.7432 47.4893-31.5698L41.1279-44.5855C40.4932-45.8027 40.6699-47.0083 42.0068-47.6279L47.8125-50.2715C49.7539-51.1689 50.4561-51.8223 50.9629-53.6357L54.6504-66.4561C56.0396-71.2432 49.5855-73.0078 48.1963-68.2207L44.6099-55.648L12.4277-41.5059C10.2388-40.541 9.4541-38.9414 9.86328-36.5083Z"/>
  </g>
  <g id="Thin-S" transform="matrix(1 0 0 1 811.654 696)">
   <path d="M23.8887-51.7988C28.2383-51.7988 31.7168-55.291 31.7168-59.627C31.7168-63.9766 28.2383-67.4551 23.8887-67.4551C19.5527-67.4551 16.0742-63.9766 16.0742-59.627C16.0742-55.291 19.5527-51.7988 23.8887-51.7988ZM9.86328-36.4883L11.9824-23.4863C12.7559-18.873 19.0625-19.7715 18.3027-24.3359L16.4199-35.7012L23.916-38.6367C25.1582-39.1113 26.1484-38.8379 26.6504-37.7852L33.4336-24.3652C35.4414-20.3496 37.1074-19.1367 38.7735-17.9238L60.6992-1.86131C64.4278 0.863304 68.8809-4.45311 64.6504-7.56835L47.6328-20.0898C46.7324-20.7598 46.8164-21.9805 47.8145-22.5527L59.4434-29.2461L74.7051-22.0234C78.9004-20.0234 82.2383-25.8066 77.3321-28.1484L61.0742-35.9219C59.2774-36.793 57.4512-36.5703 55.8125-35.6152L48.1504-31.1465C47.1465-30.5469 46.2735-30.7832 45.8477-31.6699L39.7266-44.2051C39.0918-45.4824 39.3086-46.668 40.6055-47.2676L46.211-49.791C48.0723-50.6484 48.7344-51.2617 49.2012-52.9551L52.7285-65.2949C54.0176-69.7617 48.0039-71.4063 46.7149-66.9395L43.2285-54.7871L12.2676-41.1856C10.2188-40.3008 9.49414-38.7813 9.86328-36.4883Z"/>
  </g>
  <g id="Ultralight-S" transform="matrix(1 0 0 1 515.706 696)">
   <path d="M23.5503-51.5117C27.7871-51.5117 31.1836-54.9116 31.1836-59.145C31.1836-63.3819 27.7871-66.7783 23.5503-66.7783C19.3169-66.7783 15.9204-63.3819 15.9204-59.145C15.9204-54.9116 19.3169-51.5117 23.5503-51.5117ZM9.86328-36.478L11.9312-23.7427C12.6738-19.2934 18.7549-20.1406 18.0156-24.541L16.1533-35.7319L23.5571-38.6265C24.8198-39.1113 25.7998-38.7866 26.2915-37.7544L32.9312-24.6216C34.898-20.688 36.523-19.5058 38.148-18.3237L59.6328-2.58933C63.2383 0.0327438 67.5376-5.06834 63.4405-8.08104L46.7715-20.3667C45.8506-21.0469 45.9449-22.2676 46.9634-22.8501L58.3667-29.4307L73.3516-22.3516C77.4034-20.4233 80.6182-25.9707 75.876-28.2407L59.9463-35.8604C58.252-36.7007 56.4771-36.4985 54.8589-35.564L47.3404-31.1875C46.357-30.5981 45.4429-30.8037 45.0069-31.7212L39.0088-44.0103C38.374-45.3184 38.6114-46.4937 39.8877-47.083L45.3907-49.5449C47.211-50.3818 47.8526-50.9746 48.2989-52.6065L51.7442-64.7002C52.982-69.003 47.1939-70.586 45.9561-66.2832L42.521-54.3462L12.1855-41.0215C10.2085-40.1777 9.51465-38.6992 9.86328-36.478Z"/>
  </g>
 </g>
</svg>
