<?xml version="1.0" encoding="UTF-8"?>
<!--Generator: Apple Native CoreSVG 232.5-->
<!DOCTYPE svg
PUBLIC "-//W3C//DTD SVG 1.1//EN"
       "http://www.w3.org/Graphics/SVG/1.1/DTD/svg11.dtd">
<svg version="1.1" xmlns="http://www.w3.org/2000/svg" xmlns:xlink="http://www.w3.org/1999/xlink" width="3300" height="2200">
 <g id="Notes">
  <rect height="2200" id="artboard" style="fill:white;opacity:1" width="3300" x="0" y="0"/>
  <line style="fill:none;stroke:black;opacity:1;stroke-width:0.5;" x1="263" x2="3036" y1="292" y2="292"/>
  <text style="stroke:none;fill:black;font-family:sans-serif;font-size:13;font-weight:bold;" transform="matrix(1 0 0 1 263 322)">Weight/Scale Variations</text>
  <text style="stroke:none;fill:black;font-family:sans-serif;font-size:13;text-anchor:middle;" transform="matrix(1 0 0 1 559.711 322)">Ultralight</text>
  <text style="stroke:none;fill:black;font-family:sans-serif;font-size:13;text-anchor:middle;" transform="matrix(1 0 0 1 856.422 322)">Thin</text>
  <text style="stroke:none;fill:black;font-family:sans-serif;font-size:13;text-anchor:middle;" transform="matrix(1 0 0 1 1153.13 322)">Light</text>
  <text style="stroke:none;fill:black;font-family:sans-serif;font-size:13;text-anchor:middle;" transform="matrix(1 0 0 1 1449.84 322)">Regular</text>
  <text style="stroke:none;fill:black;font-family:sans-serif;font-size:13;text-anchor:middle;" transform="matrix(1 0 0 1 1746.56 322)">Medium</text>
  <text style="stroke:none;fill:black;font-family:sans-serif;font-size:13;text-anchor:middle;" transform="matrix(1 0 0 1 2043.27 322)">Semibold</text>
  <text style="stroke:none;fill:black;font-family:sans-serif;font-size:13;text-anchor:middle;" transform="matrix(1 0 0 1 2339.98 322)">Bold</text>
  <text style="stroke:none;fill:black;font-family:sans-serif;font-size:13;text-anchor:middle;" transform="matrix(1 0 0 1 2636.69 322)">Heavy</text>
  <text style="stroke:none;fill:black;font-family:sans-serif;font-size:13;text-anchor:middle;" transform="matrix(1 0 0 1 2933.4 322)">Black</text>
  <line style="fill:none;stroke:black;opacity:1;stroke-width:0.5;" x1="263" x2="3036" y1="1903" y2="1903"/>
  <g transform="matrix(0.2 0 0 0.2 263 1933)">
   <path d="m46.2402 4.15039c21.5332 0 39.4531-17.8711 39.4531-39.4043s-17.9688-39.4043-39.502-39.4043c-21.4844 0-39.3555 17.8711-39.3555 39.4043s17.9199 39.4043 39.4043 39.4043Zm0-7.42188c-17.7246 0-31.8848-14.209-31.8848-31.9824s14.1113-31.9824 31.8359-31.9824c17.7734 0 32.0312 14.209 32.0312 31.9824s-14.209 31.9824-31.9824 31.9824Zm-17.9688-31.9824c0 2.14844 1.51367 3.61328 3.75977 3.61328h10.498v10.5957c0 2.19727 1.46484 3.71094 3.61328 3.71094 2.24609 0 3.71094-1.51367 3.71094-3.71094v-10.5957h10.5957c2.19727 0 3.71094-1.46484 3.71094-3.61328 0-2.19727-1.51367-3.71094-3.71094-3.71094h-10.5957v-10.5469c0-2.24609-1.46484-3.75977-3.71094-3.75977-2.14844 0-3.61328 1.51367-3.61328 3.75977v10.5469h-10.498c-2.24609 0-3.75977 1.51367-3.75977 3.71094Z"/>
  </g>
  <g transform="matrix(0.2 0 0 0.2 281.506 1933)">
   <path d="m58.5449 14.5508c27.2461 0 49.8047-22.6074 49.8047-49.8047 0-27.2461-22.6074-49.8047-49.8535-49.8047-27.1973 0-49.7559 22.5586-49.7559 49.8047 0 27.1973 22.6074 49.8047 49.8047 49.8047Zm0-8.30078c-23.0469 0-41.4551-18.457-41.4551-41.5039s18.3594-41.5039 41.4062-41.5039 41.5527 18.457 41.5527 41.5039-18.457 41.5039-41.5039 41.5039Zm-22.6562-41.5039c0 2.39258 1.66016 4.00391 4.15039 4.00391h14.3555v14.4043c0 2.44141 1.66016 4.15039 4.05273 4.15039 2.44141 0 4.15039-1.66016 4.15039-4.15039v-14.4043h14.4043c2.44141 0 4.15039-1.61133 4.15039-4.00391 0-2.44141-1.70898-4.15039-4.15039-4.15039h-14.4043v-14.3555c0-2.49023-1.70898-4.19922-4.15039-4.19922-2.39258 0-4.05273 1.70898-4.05273 4.19922v14.3555h-14.3555c-2.49023 0-4.15039 1.70898-4.15039 4.15039Z"/>
  </g>
  <g transform="matrix(0.2 0 0 0.2 304.924 1933)">
   <path d="m74.8535 28.3203c34.8145 0 63.623-28.8086 63.623-63.5742 0-34.8145-28.8574-63.623-63.6719-63.623-34.7656 0-63.5254 28.8086-63.5254 63.623 0 34.7656 28.8086 63.5742 63.5742 63.5742Zm0-9.08203c-30.1758 0-54.4434-24.3164-54.4434-54.4922 0-30.2246 24.2188-54.4922 54.3945-54.4922 30.2246 0 54.541 24.2676 54.541 54.4922 0 30.1758-24.2676 54.4922-54.4922 54.4922Zm-28.8574-54.4922c0 2.58789 1.85547 4.39453 4.58984 4.39453h19.7266v19.7754c0 2.68555 1.85547 4.58984 4.44336 4.58984 2.68555 0 4.54102-1.85547 4.54102-4.58984v-19.7754h19.7754c2.68555 0 4.58984-1.80664 4.58984-4.39453 0-2.73438-1.85547-4.58984-4.58984-4.58984h-19.7754v-19.7266c0-2.73438-1.85547-4.63867-4.54102-4.63867-2.58789 0-4.44336 1.9043-4.44336 4.63867v19.7266h-19.7266c-2.73438 0-4.58984 1.85547-4.58984 4.58984Z"/>
  </g>
  <text style="stroke:none;fill:black;font-family:sans-serif;font-size:13;font-weight:bold;" transform="matrix(1 0 0 1 263 1953)">Design Variations</text>
  <text style="stroke:none;fill:black;font-family:sans-serif;font-size:13;" transform="matrix(1 0 0 1 263 1971)">Symbols are supported in up to nine weights and three scales.</text>
  <text style="stroke:none;fill:black;font-family:sans-serif;font-size:13;" transform="matrix(1 0 0 1 263 1989)">For optimal layout with text and other symbols, vertically align</text>
  <text style="stroke:none;fill:black;font-family:sans-serif;font-size:13;" transform="matrix(1 0 0 1 263 2007)">symbols with the adjacent text.</text>
  <line style="fill:none;stroke:#00AEEF;stroke-width:0.5;opacity:1.0;" x1="776" x2="776" y1="1919" y2="1933"/>
  <g transform="matrix(0.2 0 0 0.2 776 1933)">
   <path d="m16.5527 0.78125c2.58789 0 3.85742-0.976562 4.78516-3.71094l6.29883-17.2363h28.8086l6.29883 17.2363c0.927734 2.73438 2.19727 3.71094 4.73633 3.71094 2.58789 0 4.24805-1.5625 4.24805-4.00391 0-0.830078-0.146484-1.61133-0.537109-2.63672l-22.9004-60.9863c-1.12305-2.97852-3.125-4.49219-6.25-4.49219-3.02734 0-5.07812 1.46484-6.15234 4.44336l-22.9004 61.084c-0.390625 1.02539-0.537109 1.80664-0.537109 2.63672 0 2.44141 1.5625 3.95508 4.10156 3.95508Zm13.4766-28.3691 11.8652-32.8613h0.244141l11.8652 32.8613Z"/>
  </g>
  <line style="fill:none;stroke:#00AEEF;stroke-width:0.5;opacity:1.0;" x1="792.836" x2="792.836" y1="1919" y2="1933"/>
  <text style="stroke:none;fill:black;font-family:sans-serif;font-size:13;font-weight:bold;" transform="matrix(1 0 0 1 776 1953)">Margins</text>
  <text style="stroke:none;fill:black;font-family:sans-serif;font-size:13;" transform="matrix(1 0 0 1 776 1971)">Leading and trailing margins on the left and right side of each symbol</text>
  <text style="stroke:none;fill:black;font-family:sans-serif;font-size:13;" transform="matrix(1 0 0 1 776 1989)">can be adjusted by modifying the x-location of the margin guidelines.</text>
  <text style="stroke:none;fill:black;font-family:sans-serif;font-size:13;" transform="matrix(1 0 0 1 776 2007)">Modifications are automatically applied proportionally to all</text>
  <text style="stroke:none;fill:black;font-family:sans-serif;font-size:13;" transform="matrix(1 0 0 1 776 2025)">scales and weights.</text>
  <g transform="matrix(0.2 0 0 0.2 1289 1933)">
   <path d="m14.209 9.32617 8.49609 8.54492c4.29688 4.3457 9.22852 4.05273 13.8672-1.07422l53.4668-58.9355-4.83398-4.88281-53.0762 58.3984c-1.75781 2.00195-3.41797 2.49023-5.76172 0.146484l-5.85938-5.81055c-2.34375-2.29492-1.80664-4.00391 0.195312-5.81055l57.373-54.0039-4.88281-4.83398-57.959 54.4434c-4.93164 4.58984-5.32227 9.47266-1.02539 13.8184Zm32.0801-90.9668c-2.09961 2.05078-2.24609 4.93164-1.07422 6.88477 1.17188 1.80664 3.4668 2.97852 6.68945 2.14844 7.32422-1.70898 14.9414-2.00195 22.0703 2.68555l-2.92969 7.27539c-1.70898 4.15039-0.830078 7.08008 1.85547 9.81445l11.4746 11.5723c2.44141 2.44141 4.49219 2.53906 7.32422 2.05078l5.32227-0.976562 3.32031 3.36914-0.195312 2.7832c-0.195312 2.49023 0.439453 4.39453 2.88086 6.78711l3.80859 3.71094c2.39258 2.39258 5.46875 2.53906 7.8125 0.195312l14.5508-14.5996c2.34375-2.34375 2.24609-5.32227-0.146484-7.71484l-3.85742-3.80859c-2.39258-2.39258-4.24805-3.17383-6.64062-2.97852l-2.88086 0.244141-3.22266-3.17383 1.2207-5.61523c0.634766-2.83203-0.146484-5.0293-3.07617-7.95898l-10.9863-10.9375c-16.6992-16.6016-38.8672-16.2109-53.3203-1.75781Zm7.4707 1.85547c12.1582-8.88672 28.6133-7.37305 39.7461 3.75977l12.1582 12.0605c1.17188 1.17188 1.36719 2.09961 1.02539 3.80859l-1.61133 7.42188 7.51953 7.42188 4.93164-0.292969c1.26953-0.0488281 1.66016 0.0488281 2.63672 1.02539l2.88086 2.88086-12.207 12.207-2.88086-2.88086c-0.976562-0.976562-1.12305-1.36719-1.07422-2.68555l0.341797-4.88281-7.4707-7.42188-7.61719 1.26953c-1.61133 0.341797-2.34375 0.195312-3.56445-0.976562l-10.0098-10.0098c-1.26953-1.17188-1.41602-2.00195-0.634766-3.85742l4.39453-10.4492c-7.8125-7.27539-17.9688-10.4004-28.125-7.42188-0.78125 0.195312-1.07422-0.439453-0.439453-0.976562Z"/>
  </g>
  <text style="stroke:none;fill:black;font-family:sans-serif;font-size:13;font-weight:bold;" transform="matrix(1 0 0 1 1289 1953)">Exporting</text>
  <text style="stroke:none;fill:black;font-family:sans-serif;font-size:13;" transform="matrix(1 0 0 1 1289 1971)">Symbols should be outlined when exporting to ensure the</text>
  <text style="stroke:none;fill:black;font-family:sans-serif;font-size:13;" transform="matrix(1 0 0 1 1289 1989)">design is preserved when submitting to Xcode.</text>
  <text id="template-version" style="stroke:none;fill:black;font-family:sans-serif;font-size:13;text-anchor:end;" transform="matrix(1 0 0 1 3036 1933)">Template v.2.0</text>
  <text style="stroke:none;fill:black;font-family:sans-serif;font-size:13;text-anchor:end;" transform="matrix(1 0 0 1 3036 1951)">Requires Xcode 12 or greater</text>
  <text id="descriptive-name" style="stroke:none;fill:black;font-family:sans-serif;font-size:13;text-anchor:end;" transform="matrix(1 0 0 1 3036 1969)">Generated from car.side.rear.and.collision.and.car.side.front</text>
  <text style="stroke:none;fill:black;font-family:sans-serif;font-size:13;text-anchor:end;" transform="matrix(1 0 0 1 3036 1987)">Typeset at 100.0 points</text>
  <text style="stroke:none;fill:black;font-family:sans-serif;font-size:13;" transform="matrix(1 0 0 1 263 726)">Small</text>
  <text style="stroke:none;fill:black;font-family:sans-serif;font-size:13;" transform="matrix(1 0 0 1 263 1156)">Medium</text>
  <text style="stroke:none;fill:black;font-family:sans-serif;font-size:13;" transform="matrix(1 0 0 1 263 1586)">Large</text>
 </g>
 <g id="Guides">
  <g id="H-reference" style="fill:#27AAE1;stroke:none;" transform="matrix(1 0 0 1 339 696)">
   <path d="M0.993654 0L3.63775 0L29.3281-67.1323L30.0303-67.1323L30.0303-70.459L28.1226-70.459ZM11.6885-24.4799L46.9815-24.4799L46.2315-26.7285L12.4385-26.7285ZM55.1196 0L57.7637 0L30.6382-70.459L29.4326-70.459L29.4326-67.1323Z"/>
  </g>
  <line id="Baseline-S" style="fill:none;stroke:#27AAE1;opacity:1;stroke-width:0.5;" x1="263" x2="3036" y1="696" y2="696"/>
  <line id="Capline-S" style="fill:none;stroke:#27AAE1;opacity:1;stroke-width:0.5;" x1="263" x2="3036" y1="625.541" y2="625.541"/>
  <g id="H-reference" style="fill:#27AAE1;stroke:none;" transform="matrix(1 0 0 1 339 1126)">
   <path d="M0.993654 0L3.63775 0L29.3281-67.1323L30.0303-67.1323L30.0303-70.459L28.1226-70.459ZM11.6885-24.4799L46.9815-24.4799L46.2315-26.7285L12.4385-26.7285ZM55.1196 0L57.7637 0L30.6382-70.459L29.4326-70.459L29.4326-67.1323Z"/>
  </g>
  <line id="Baseline-M" style="fill:none;stroke:#27AAE1;opacity:1;stroke-width:0.5;" x1="263" x2="3036" y1="1126" y2="1126"/>
  <line id="Capline-M" style="fill:none;stroke:#27AAE1;opacity:1;stroke-width:0.5;" x1="263" x2="3036" y1="1055.54" y2="1055.54"/>
  <g id="H-reference" style="fill:#27AAE1;stroke:none;" transform="matrix(1 0 0 1 339 1556)">
   <path d="M0.993654 0L3.63775 0L29.3281-67.1323L30.0303-67.1323L30.0303-70.459L28.1226-70.459ZM11.6885-24.4799L46.9815-24.4799L46.2315-26.7285L12.4385-26.7285ZM55.1196 0L57.7637 0L30.6382-70.459L29.4326-70.459L29.4326-67.1323Z"/>
  </g>
  <line id="Baseline-L" style="fill:none;stroke:#27AAE1;opacity:1;stroke-width:0.5;" x1="263" x2="3036" y1="1556" y2="1556"/>
  <line id="Capline-L" style="fill:none;stroke:#27AAE1;opacity:1;stroke-width:0.5;" x1="263" x2="3036" y1="1485.54" y2="1485.54"/>
  <line id="left-margin" style="fill:none;stroke:#00AEEF;stroke-width:0.5;opacity:1.0;" x1="1370.73" x2="1370.73" y1="1030.79" y2="1150.12"/>
  <line id="right-margin" style="fill:none;stroke:#00AEEF;stroke-width:0.5;opacity:1.0;" x1="1528.95" x2="1528.95" y1="1030.79" y2="1150.12"/>
 </g>
 <g id="Symbols">
  <g id="Black-L" transform="matrix(1 0 0 1 2827.14 1556)">
   <path d="M196.429-36.0548L196.429-56.4779C193.974-55.2116 191.442-53.7844 188.787-52.1339L166.144-37.9175L140.628-34.7424C122.469-32.5263 112.154-21.728 112.154-5.617L112.154 6.03793C112.154 18.5455 119.568 25.3367 131.132 25.3367L150.713 25.3367L150.713 7.7498L134.161 7.7498C131.374 7.7498 129.741 6.01367 129.741 3.05574L129.741-6.66832C129.741-12.8085 133.496-16.162 141.201-17.119L172.157-20.9031L194.977-35.1601C195.469-35.5006 195.941-35.7607 196.429-36.0548ZM194.093 25.3367L194.093 7.7498L176.135 7.7498L176.135 25.3367ZM164.226 38.376C177.189 38.376 187.687 27.8772 187.687 14.9145C187.687 1.81305 177.189-8.74179 164.226-8.74179C151.225-8.74179 140.648 1.81305 140.648 14.9145C140.648 27.8772 151.225 38.376 164.226 38.376ZM164.226 22.5413C160.048 22.5413 156.775 19.2664 156.775 15.0897C156.775 10.8923 160.048 7.61861 164.226 7.61861C168.365 7.61861 171.677 10.8923 171.677 15.0897C171.677 19.2664 168.365 22.5413 164.226 22.5413ZM49.349 38.376C62.3117 38.376 72.8689 27.8772 72.8689 14.9145C72.8689 1.81305 62.3117-8.74179 49.349-8.74179C36.3268-8.74179 25.8291 1.81305 25.8291 14.9145C25.8291 27.8772 36.3268 38.376 49.349 38.376ZM49.349 22.5413C45.1515 22.5413 41.8975 19.2664 41.8975 15.0897C41.8975 10.8923 45.1515 7.61861 49.349 7.61861C53.4673 7.61861 56.8006 10.8923 56.8006 15.0897C56.8006 19.2664 53.4673 22.5413 49.349 22.5413ZM16.084-63.9756L16.084-46.3302L24.0981-46.3302C39.2467-46.3302 50.5264-40.4443 61.1847-25.0261L76.6867-21.0396C79.399-20.3161 80.6244-18.3091 80.6244-15.7083L80.6244 3.11006C80.6244 6.19009 79.1324 7.7498 76.2225 7.7498L62.4688 7.7498L62.4688 25.3367L80.6925 25.3367C91.409 25.3367 98.1529 18.3371 98.1529 7.57548L98.1529-15.7083C98.1529-24.73 95.534-33.873 81.8123-38.3381L71.0847-41.8138C63.0175-51.1737 48.8197-63.9756 24.0981-63.9756ZM16.084 7.7498L16.084 25.3367L39.5274 25.3367L39.5274 7.7498ZM118.294-110.182L115.583-99.0753L101.238-113.762C99.8578-115.221 97.6093-114.025 98.2891-111.967L103.348-97.172L97.3887-99.8887C95.2583-100.824 93.8975-99.1154 95.3155-97.2382L98.5188-93.1265L81.7915-95.4348C79.4754-95.7553 78.6948-93.0875 80.5953-91.9472L96.4559-82.3883L87.5078-78.993C85.3517-78.1744 85.7098-75.643 88.0255-75.4822L98.1155-74.7972L83.9569-65.199C81.9241-63.8239 82.841-61.1109 85.51-61.709L103.508-65.7477L103.728-49.9596C103.728-47.6903 105.825-47.7059 106.701-49.141L119.049-69.3702L138.922-51.4467C140.741-49.8471 143.249-51.7035 142.09-53.8989L130.426-75.8402L142.642-79.4912C144.037-79.9297 144.153-81.6669 142.76-82.2442L131.908-86.6774L139.672-108.92C140.271-110.58 138.358-112.272 136.881-110.774L124.496-98.9948L121.603-110.242C121.143-112.083 118.813-112.261 118.294-110.182Z"/>
  </g>
  <g id="Heavy-L" transform="matrix(1 0 0 1 2531.61 1556)">
   <path d="M194.082-37.5896L194.082-55.5177C191.551-54.2321 188.98-52.7856 186.268-51.0878L163.569-36.8433L138.116-33.6869C120.597-31.5618 110.579-21.2087 110.579-5.76663L110.579 5.77186C110.579 17.5863 117.498 24.0383 128.53 24.0383L147.497 24.0383L147.497 8.56693L130.958 8.56693C127.83 8.56693 126.051 6.64278 126.051 3.25071L126.051-6.56984C126.051-13.2862 130.348-17.1575 138.806-18.2067L168.853-21.8854L192.072-36.3606C192.746-36.8247 193.425-37.2083 194.082-37.5896ZM192.298 24.0383L192.298 8.56693L173.237 8.56693L173.237 24.0383ZM160.914 37.0516C173.352 37.0516 183.361 27.037 183.361 14.5988C183.361 2.03559 173.352-8.01245 160.914-8.01245C148.455-8.01245 138.371 2.03559 138.371 14.5988C138.371 27.037 148.455 37.0516 160.914 37.0516ZM160.914 22.9189C156.319 22.9189 152.727 19.3219 152.727 14.7327C152.727 10.1132 156.319 6.52188 160.914 6.52188C165.488 6.52188 169.094 10.1132 169.094 14.7327C169.094 19.3219 165.488 22.9189 160.914 22.9189ZM49.6876 37.0516C62.1258 37.0516 72.185 27.037 72.185 14.5988C72.185 2.03559 62.1258-8.01245 49.6876-8.01245C37.1992-8.01245 27.1901 2.03559 27.1901 14.5988C27.1901 27.037 37.1992 37.0516 49.6876 37.0516ZM49.6876 22.9189C45.0681 22.9189 41.5013 19.3219 41.5013 14.7327C41.5013 10.1132 45.0681 6.52188 49.6876 6.52188C54.2322 6.52188 57.8738 10.1132 57.8738 14.7327C57.8738 19.3219 54.2322 22.9189 49.6876 22.9189ZM16.084-62.6929L16.084-47.1768L24.0894-47.1768C39.3069-47.1768 50.8662-41.1806 61.5476-25.8992L76.6559-21.9992C79.9476-21.1286 81.2437-18.8646 81.2437-15.8392L81.2437 3.43806C81.2437 6.78226 79.6011 8.56693 76.5152 8.56693L62.7414 8.56693L62.7414 24.0383L80.2684 24.0383C90.3595 24.0383 96.6705 17.513 96.6705 7.34475L96.6705-15.8392C96.6705-24.578 94.0724-33.1165 81.1902-37.2644L70.2377-40.7649C62.3608-49.9565 48.4999-62.6929 24.0894-62.6929ZM16.084 8.56693L16.084 24.0383L38.9914 24.0383L38.9914 8.56693ZM115.797-108.906L113.081-97.7521L98.7982-112.381C97.4636-113.791 95.3756-112.658 96.0278-110.683L101.084-95.8803L94.9885-98.6538C92.9954-99.5202 91.6854-97.9538 93.0344-96.1637L96.3363-91.9066L79.5691-94.2208C77.339-94.5369 76.6053-92.0334 78.4368-90.9345L94.3093-81.3625L85.2417-77.9424C83.1959-77.1652 83.5264-74.7755 85.7275-74.6147L95.9286-73.911L81.7124-64.2898C79.813-63.0068 80.6605-60.4261 83.1695-60.9923L101.245-65.0557L101.45-49.3478C101.45-47.2296 103.452-47.2082 104.268-48.5705L116.478-68.5971L136.333-50.6976C138.078-49.1575 140.426-50.9175 139.308-53.0124L127.643-74.9452L139.792-78.5796C141.099-78.9905 141.189-80.6499 139.887-81.1859L129.094-85.5887L136.815-107.666C137.387-109.262 135.588-110.844 134.194-109.415L121.822-97.6717L118.909-108.956C118.463-110.737 116.289-110.888 115.797-108.906Z"/>
  </g>
  <g id="Bold-L" transform="matrix(1 0 0 1 2236.56 1556)">
   <path d="M190.753-39.4429L190.753-54.3044C188.174-53.0106 185.587-51.556 182.843-49.8265L160.097-35.5587L134.662-32.4178C117.986-30.4079 108.382-20.6304 108.382-6.03305L108.382 5.3297C108.382 16.3581 114.671 22.3503 125.094 22.3503L143.203 22.3503L143.203 9.49172L126.829 9.49172C123.204 9.49172 121.24 7.35189 121.24 3.36978L121.24-6.55871C121.24-13.9599 126.146-18.4318 135.452-19.5812L164.481-23.1368L188.081-37.8214C188.978-38.4317 189.895-38.9615 190.753-39.4429ZM189.585 22.3503L189.585 9.49172L169.418 9.49172L169.418 22.3503ZM156.587 35.3105C168.379 35.3105 177.796 25.8803 177.796 14.0877C177.796 2.18549 168.379-7.24744 156.587-7.24744C144.79-7.24744 135.305 2.18549 135.305 14.0877C135.305 25.8803 144.79 35.3105 156.587 35.3105ZM156.587 23.328C151.44 23.328 147.434 19.3091 147.434 14.1753C147.434 9.00356 151.44 4.99792 156.587 4.99792C161.729 4.99792 165.726 9.00356 165.726 14.1753C165.726 19.3091 161.729 23.328 156.587 23.328ZM49.812 35.3105C61.6046 35.3105 71.064 25.8803 71.064 14.0877C71.064 2.18549 61.6046-7.24744 49.812-7.24744C37.977-7.24744 28.56 2.18549 28.56 14.0877C28.56 25.8803 37.977 35.3105 49.812 35.3105ZM49.812 23.328C44.6402 23.328 40.6593 19.3091 40.6593 14.1753C40.6593 9.00356 44.6402 4.99792 49.812 4.99792C54.9166 4.99792 58.9647 9.00356 58.9647 14.1753C58.9647 19.3091 54.9166 23.328 49.812 23.328ZM16.084-61.1321L16.084-48.2443L23.8655-48.2443C39.1601-48.2443 51.0428-42.1248 61.7474-27.0124L76.3939-23.22C80.3258-22.1873 81.7438-19.6306 81.7438-16.09L81.7438 3.77821C81.7438 7.45273 79.9167 9.49172 76.5858 9.49172L62.8857 9.49172L62.8857 22.3503L79.4701 22.3503C88.8 22.3503 94.5732 16.4091 94.5732 6.96352L94.5732-16.09C94.5732-24.4829 91.961-32.2461 80.1758-35.9723L68.969-39.4737C61.3451-48.4504 47.9067-61.1321 23.8655-61.1321ZM16.084 9.49172L16.084 22.3503L38.092 22.3503L38.092 9.49172ZM112.544-107.189L109.843-96.0632L95.7261-110.526C94.4455-111.874 92.5423-110.819 93.1636-108.943L98.1825-94.2372L91.9851-97.0501C90.1535-97.8395 88.8976-96.4348 90.1695-94.7449L93.5496-90.3706L76.8554-92.6701C74.7403-92.9786 74.0456-90.675 75.8-89.6224L91.5761-80.0946L82.4445-76.6736C80.522-75.9426 80.8217-73.7222 82.8917-73.5613L93.1343-72.842L78.9606-63.2647C77.2078-62.082 77.9856-59.6628 80.3024-60.1905L98.3434-64.2548L98.5334-48.7436C98.5334-46.8025 100.427-46.7425 101.174-48.0127L113.148-67.6814L132.853-49.9318C134.513-48.4611 136.669-50.1131 135.605-52.085L124.015-73.861L136.004-77.45C137.211-77.8301 137.27-79.3972 136.076-79.887L125.427-84.229L133.049-105.98C133.59-107.506 131.922-108.958 130.621-107.605L118.347-95.9828L115.433-107.231C115.002-108.943 113.005-109.071 112.544-107.189Z"/>
  </g>
  <g id="Semibold-L" transform="matrix(1 0 0 1 1941 1556)">
   <path d="M188.458-40.7205L188.458-53.468C185.846-52.1685 183.247-50.7083 180.481-48.957L157.704-34.673L132.28-31.543C116.186-29.6124 106.867-20.2317 106.867-6.21672L106.867 5.02487C106.867 15.5114 112.721 21.1867 122.725 21.1867L140.244 21.1867L140.244 10.1293L123.982 10.1293C120.014 10.1293 117.924 7.84074 117.924 3.45186L117.924-6.55104C117.924-14.4243 123.25-19.3102 133.141-20.5289L161.468-23.9995L185.329-38.8284C186.38-39.5395 187.462-40.1701 188.458-40.7205ZM187.715 21.1867L187.715 10.1293L166.785 10.1293L166.785 21.1867ZM153.604 34.1102C164.951 34.1102 173.96 25.0829 173.96 13.7354C173.96 2.28884 164.951-6.72004 153.604-6.72004C142.263-6.72004 133.192 2.28884 133.192 13.7354C133.192 25.0829 142.263 34.1102 153.604 34.1102ZM153.604 23.61C148.076 23.61 143.785 19.3003 143.785 13.7911C143.785 8.23856 148.076 3.94731 153.604 3.94731C159.138 3.94731 163.404 8.23856 163.404 13.7911C163.404 19.3003 159.138 23.61 153.604 23.61ZM49.8978 34.1102C61.2453 34.1102 70.2912 25.0829 70.2912 13.7354C70.2912 2.28884 61.2453-6.72004 49.8978-6.72004C38.5132-6.72004 29.5044 2.28884 29.5044 13.7354C29.5044 25.0829 38.5132 34.1102 49.8978 34.1102ZM49.8978 23.61C44.3452 23.61 40.0789 19.3003 40.0789 13.7911C40.0789 8.23856 44.3452 3.94731 49.8978 3.94731C55.3884 3.94731 59.7167 8.23856 59.7167 13.7911C59.7167 19.3003 55.3884 23.61 49.8978 23.61ZM16.084-60.0562L16.084-48.9802L23.7111-48.9802C39.0589-48.9802 51.1646-42.7756 61.8852-27.7798L76.2133-24.0616C80.5865-22.9172 82.0885-20.1586 82.0885-16.2629L82.0885 4.01271C82.0885 7.91494 80.1343 10.1293 76.6344 10.1293L62.9852 10.1293L62.9852 21.1867L78.9197 21.1867C87.7249 21.1867 93.1273 15.6481 93.1273 6.7007L93.1273-16.2629C93.1273-24.4173 90.5054-31.6461 79.4765-35.0815L68.0943-38.5836C60.6449-47.4121 47.4978-60.0562 23.7111-60.0562ZM16.084 10.1293L16.084 21.1867L37.472 21.1867L37.472 10.1293ZM110.302-106.005L107.61-94.8989L93.6083-109.247C92.3648-110.553 90.589-109.55 91.1891-107.744L96.1823-93.1046L89.9145-95.9446C88.1944-96.6808 86.9757-95.3877 88.1945-93.7667L91.6285-89.3116L74.9846-91.6011C72.9488-91.9043 72.281-89.7385 73.9823-88.7178L89.6919-79.2205L80.5161-75.7988C78.6786-75.0997 78.9571-72.996 80.9368-72.8352L91.2079-72.1051L77.0636-62.558C75.4118-61.4445 76.1416-59.1365 78.3259-59.6377L96.3431-63.7027L96.5225-48.3272C96.5225-46.508 98.3414-46.4214 99.0405-47.6281L110.852-67.0501L130.453-49.4039C132.056-47.981 134.079-49.5585 133.052-51.4457L121.513-73.1136L133.393-76.6713C134.531-77.0302 134.568-78.5336 133.448-78.9915L122.899-83.2916L130.453-104.817C130.973-106.296 129.395-107.657 128.158-106.358L115.951-94.8184L113.036-106.042C112.616-107.706 110.741-107.818 110.302-106.005Z"/>
  </g>
  <g id="Medium-L" transform="matrix(1 0 0 1 1645.15 1556)">
   <path d="M186.717-41.6893L186.717-52.8337C184.081-51.53 181.474-50.0655 178.691-48.2978L155.889-34.0015L130.474-30.8796C114.821-29.0093 105.718-19.9294 105.718-6.35598L105.718 4.79374C105.718 14.8694 111.244 20.3043 120.929 20.3043L137.999 20.3043L137.999 10.6127L121.824 10.6127C117.596 10.6127 115.41 8.21141 115.41 3.5141L115.41-6.54522C115.41-14.7764 121.054-19.9763 131.388-21.2474L159.183-24.6537L183.243-39.592C184.41-40.3795 185.617-41.0866 186.717-41.6893ZM186.297 20.3043L186.297 10.6127L164.788 10.6127L164.788 20.3043ZM151.342 33.2001C162.352 33.2001 171.051 24.4783 171.051 13.4682C171.051 2.3672 162.352-6.32015 151.342-6.32015C140.346-6.32015 131.589 2.3672 131.589 13.4682C131.589 24.4783 140.346 33.2001 151.342 33.2001ZM151.342 23.8238C145.526 23.8238 141.018 19.2936 141.018 13.4998C141.018 7.65851 145.526 3.15069 151.342 3.15069C157.173 3.15069 161.644 7.65851 161.644 13.4998C161.644 19.2936 157.173 23.8238 151.342 23.8238ZM49.9628 33.2001C60.9729 33.2001 69.7052 24.4783 69.7052 13.4682C69.7052 2.3672 60.9729-6.32015 49.9628-6.32015C38.9198-6.32015 30.2205 2.3672 30.2205 13.4682C30.2205 24.4783 38.9198 33.2001 49.9628 33.2001ZM49.9628 23.8238C44.1216 23.8238 39.6387 19.2936 39.6387 13.4998C39.6387 7.65851 44.1216 3.15069 49.9628 3.15069C55.7461 3.15069 60.2869 7.65851 60.2869 13.4998C60.2869 19.2936 55.7461 23.8238 49.9628 23.8238ZM16.084-59.2404L16.084-49.5382L23.5941-49.5382C38.9821-49.5382 51.2569-43.2692 61.9897-28.3617L76.0764-24.6997C80.7842-23.4707 82.3499-20.559 82.3499-16.394L82.3499 4.19051C82.3499 8.26541 80.2993 10.6127 76.6713 10.6127L63.0607 10.6127L63.0607 20.3043L78.5024 20.3043C86.9098 20.3043 92.031 15.0711 92.031 6.50142L92.031-16.394C92.031-24.3676 89.4017-31.1911 78.9463-34.4061L67.4311-37.9087C60.114-46.6249 47.1877-59.2404 23.5941-59.2404ZM16.084 10.6127L16.084 20.3043L37.0019 20.3043L37.0019 10.6127ZM108.601-105.108L105.917-94.016L92.0025-108.278C90.7871-109.551 89.108-108.589 89.6919-106.834L94.6656-92.2457L88.3445-95.1063C86.7088-95.8022 85.5185-94.5937 86.6969-93.0251L90.1719-88.5087L73.5661-90.7905C71.5904-91.0897 70.943-89.0284 72.604-88.0319L88.2632-78.5577L79.0538-75.1356C77.2809-74.4607 77.5432-72.4454 79.4545-72.2845L89.7473-71.5463L75.6252-62.0221C74.05-60.961 74.7434-58.7375 76.8272-59.2186L94.8264-63.2841L94.9978-48.0114C94.9978-46.2848 96.7602-46.178 97.4231-47.3365L109.111-66.5715L128.634-49.0036C130.192-47.6169 132.115-49.138 131.116-50.9609L119.616-72.5468L131.413-76.0809C132.499-76.4236 132.52-77.8788 131.456-78.3125L120.982-82.5808L128.485-103.936C128.988-105.378 127.479-106.671 126.29-105.412L114.134-93.9356L111.219-105.141C110.806-106.769 109.024-106.867 108.601-105.108Z"/>
  </g>
  <g id="Regular-L" transform="matrix(1 0 0 1 1349.58 1556)">
   <path d="M184.447-42.9529L184.447-52.0065C181.779-50.6972 179.16-49.2271 176.356-47.4378L153.521-33.1256L128.119-30.0144C113.04-28.2226 104.22-19.5351 104.22-6.53763L104.22 4.49226C104.22 14.032 109.316 19.1534 118.587 19.1534L135.072 19.1534L135.072 11.2432L119.009 11.2432C114.442 11.2432 112.13 8.69489 112.13 3.59528L112.13-6.53763C112.13-15.2357 118.189-20.8451 129.101-22.1846L156.203-25.5069L180.522-40.588C181.841-41.4752 183.211-42.2819 184.447-42.9529ZM184.447 19.1534L184.447 11.2432L162.184 11.2432L162.184 19.1534ZM148.392 32.0129C158.962 32.0129 167.258 23.6897 167.258 13.1197C167.258 2.4694 158.962-5.79855 148.392-5.79855C137.847-5.79855 129.499 2.4694 129.499 13.1197C129.499 23.6897 137.847 32.0129 148.392 32.0129ZM148.392 24.1028C142.199 24.1028 137.409 19.2848 137.409 13.1197C137.409 6.90191 142.199 2.11163 148.392 2.11163C154.61 2.11163 159.347 6.90191 159.347 13.1197C159.347 19.2848 154.61 24.1028 148.392 24.1028ZM50.0477 32.0129C60.6176 32.0129 68.9409 23.6897 68.9409 13.1197C68.9409 2.4694 60.6176-5.79855 50.0477-5.79855C39.4501-5.79855 31.1545 2.4694 31.1545 13.1197C31.1545 23.6897 39.4501 32.0129 50.0477 32.0129ZM50.0477 24.1028C43.8298 24.1028 39.0647 19.2848 39.0647 13.1197C39.0647 6.90191 43.8298 2.11163 50.0477 2.11163C56.2127 2.11163 61.0307 6.90191 61.0307 13.1197C61.0307 19.2848 56.2127 24.1028 50.0477 24.1028ZM16.084-58.1762L16.084-50.2661L23.4414-50.2661C38.882-50.2661 51.3773-43.9129 62.126-29.1207L75.8978-25.532C81.0421-24.1925 82.6909-21.0813 82.6909-16.565L82.6909 4.42243C82.6909 8.72255 80.5145 11.2432 76.7194 11.2432L63.1591 11.2432L63.1591 19.1534L77.9581 19.1534C85.8465 19.1534 90.6011 14.3184 90.6011 6.24149L90.6011-16.565C90.6011-24.3028 87.9621-30.5977 78.2547-33.5252L66.5661-37.0283C59.4215-45.598 46.7832-58.1762 23.4414-58.1762ZM16.084 11.2432L16.084 19.1534L36.3886 19.1534L36.3886 11.2432ZM106.383-103.937L103.71-92.8645L89.9079-107.013C88.7293-108.244 87.1762-107.335 87.7391-105.648L92.6873-91.1255L86.2966-94.0129C84.7712-94.6563 83.6177-93.5581 84.7436-92.0577L88.2718-87.4614L71.7159-89.7332C69.8186-90.0272 69.1978-88.1023 70.8062-87.1372L86.3996-77.6932L77.1466-74.2704C75.4578-73.6271 75.6991-71.7272 77.5211-71.5663L87.8421-70.8175L73.749-61.3232C72.2738-60.3305 72.9197-58.217 74.8723-58.6719L92.8481-62.738L93.009-47.5995C93.009-45.9936 94.6978-45.8604 95.3135-46.9561L106.841-65.9472L126.262-48.4815C127.762-47.142 129.554-48.5896 128.591-50.3286L117.142-71.8076L128.83-75.3108C129.848-75.6325 129.848-77.0247 128.858-77.4268L118.481-81.6538L125.917-102.786C126.4-104.181 124.98-105.384 123.854-104.178L111.764-92.7841L108.849-103.965C108.447-105.545 106.785-105.628 106.383-103.937Z"/>
  </g>
  <g id="Light-L" transform="matrix(1 0 0 1 1055.38 1556)">
   <path d="M179.428-43.9263L179.428-51.014C177.026-49.8002 174.599-48.4255 172.023-46.7889L149.304-32.534L123.519-29.3845C109.357-27.6882 101.109-19.5541 101.109-7.24378L101.109 3.46165C101.109 12.9251 105.671 17.4739 114.846 17.4739L130.11 17.4739L130.11 11.3196L115.116 11.3196C109.728 11.3196 107.263 8.73306 107.263 2.88913L107.263-7.24378C107.263-16.2282 113.341-21.9902 124.292-23.3106L151.393-26.5948L175.235-41.4278C176.688-42.3722 178.115-43.2362 179.428-43.9263ZM179.428 17.4739L179.428 11.3196L158.062 11.3196L158.062 17.4739ZM143.964 30.1617C154.114 30.1617 162.085 22.1438 162.085 11.9937C162.085 1.76325 154.114-6.16117 143.964-6.16117C133.801-6.16117 125.796 1.76325 125.796 11.9937C125.796 22.1438 133.801 30.1617 143.964 30.1617ZM143.964 24.0073C137.161 24.0073 131.951 18.7504 131.951 11.9937C131.951 5.20332 137.161-0.00683752 143.964-0.00683752C150.755-0.00683752 155.931 5.20332 155.931 11.9937C155.931 18.7504 150.755 24.0073 143.964 24.0073ZM48.2346 30.1617C58.3846 30.1617 66.4025 22.1438 66.4025 11.9937C66.4025 1.76325 58.3846-6.16117 48.2346-6.16117C38.0378-6.16117 30.0666 1.76325 30.0666 11.9937C30.0666 22.1438 38.0378 30.1617 48.2346 30.1617ZM48.2346 24.0073C41.4442 24.0073 36.2209 18.7504 36.2209 11.9937C36.2209 5.20332 41.4442-0.00683752 48.2346-0.00683752C54.9913-0.00683752 60.2482 5.20332 60.2482 11.9937C60.2482 18.7504 54.9913 24.0073 48.2346 24.0073ZM16.084-57.2792L16.084-51.1249L21.9146-51.1249C37.3552-51.1249 49.9269-44.7717 60.6564-30.0941L74.2755-26.5817C79.3626-25.2613 81.3168-22.1119 81.3168-17.3093L81.3168 4.23158C81.3168 8.7798 79.0258 11.3196 74.8872 11.3196L62.0139 11.3196L62.0139 17.4739L75.6488 17.4739C83.0982 17.4739 87.4711 13.0206 87.4711 5.36357L87.4711-17.3093C87.4711-24.8372 84.5649-30.4259 75.9835-32.8763L64.2759-36.1886C57.4175-44.5674 45.1037-57.2792 21.9146-57.2792ZM16.084 11.3196L16.084 17.4739L34.2511 17.4739L34.2511 11.3196ZM103.101-101.876L100.58-91.3758L87.465-104.799C86.3054-105.992 84.7905-105.121 85.3534-103.492L90.0535-89.7131L84.0255-92.4288C82.5573-93.0722 81.3847-91.9931 82.5106-90.5118L85.8098-86.24L70.0937-88.3591C68.33-88.634 67.6137-86.8235 69.2221-85.8585L84.0331-76.8343L75.2763-73.6024C73.5875-72.9591 73.8287-71.1355 75.6316-70.9747L85.361-70.264L72.0313-61.266C70.537-60.2542 71.2402-58.2361 73.0974-58.6719L90.2144-62.5472L90.3752-48.172C90.3752-46.6234 92.064-46.5093 92.6606-47.5286L103.596-65.5845L122.101-48.9968C123.582-47.6764 125.279-49.124 124.373-50.7867L113.458-71.216L124.555-74.5283C125.554-74.85 125.554-76.204 124.602-76.6061L114.779-80.6422L121.852-100.763C122.335-102.177 120.934-103.323 119.808-102.117L108.309-91.2954L105.547-101.922C105.145-103.484 103.503-103.624 103.101-101.876Z"/>
  </g>
  <g id="Thin-L" transform="matrix(1 0 0 1 761.986 1556)">
   <path d="M172.789-45.2136L172.789-49.7014C170.741-48.6138 168.566-47.3653 166.293-45.9307L143.725-31.7515L117.436-28.5516C104.485-26.9814 96.9944-19.5794 96.9944-8.17773L96.9944 2.09859C96.9944 11.461 100.849 15.2526 109.899 15.2526L123.547 15.2526L123.547 11.4205L109.966 11.4205C103.493 11.4205 100.826 8.78354 100.826 1.95518L100.826-8.17773C100.826-17.5407 106.93-23.5047 117.931-24.7999L145.032-28.0336L168.243-42.5384C169.873-43.5586 171.376-44.4983 172.789-45.2136ZM172.789 15.2526L172.789 11.4205L152.61 11.4205L152.61 15.2526ZM138.108 27.7132C147.703 27.7132 155.245 20.0992 155.245 10.5044C155.245 0.829301 147.703-6.64076 138.108-6.64076C128.45-6.64076 120.899 0.829301 120.899 10.5044C120.899 20.0992 128.45 27.7132 138.108 27.7132ZM138.108 23.8811C130.497 23.8811 124.731 18.0437 124.731 10.5044C124.731 2.9568 130.497-2.80868 138.108-2.80868C145.656-2.80868 151.413 2.9568 151.413 10.5044C151.413 18.0437 145.656 23.8811 138.108 23.8811ZM45.8366 27.7132C55.4313 27.7132 63.0453 20.0992 63.0453 10.5044C63.0453 0.829301 55.4313-6.64076 45.8366-6.64076C36.1699-6.64076 28.6278 0.829301 28.6278 10.5044C28.6278 20.0992 36.1699 27.7132 45.8366 27.7132ZM45.8366 23.8811C38.2889 23.8811 32.4599 18.0437 32.4599 10.5044C32.4599 2.9568 38.2889-2.80868 45.8366-2.80868C53.3758-2.80868 59.2133 2.9568 59.2133 10.5044C59.2133 18.0437 53.3758 23.8811 45.8366 23.8811ZM16.084-56.0929L16.084-52.2608L19.8953-52.2608C35.3359-52.2608 48.0085-45.9076 58.7128-31.3814L72.13-27.97C77.1413-26.6749 79.4993-23.4749 79.4993-18.2938L79.4993 3.97916C79.4993 8.85553 77.0569 11.4205 72.464 11.4205L60.4994 11.4205L60.4994 15.2526L72.5945 15.2526C79.4634 15.2526 83.3314 11.3042 83.3314 4.20244L83.3314-18.2938C83.3314-25.5439 80.0719-30.1988 72.9797-32.0181L61.2469-35.078C54.7671-43.2043 42.8824-56.0929 19.8953-56.0929ZM16.084 11.4205L16.084 15.2526L31.424 15.2526L31.424 11.4205ZM98.7591-99.1496L96.4399-89.407L84.234-101.871C83.0997-103.014 81.6353-102.193 82.1982-100.639L86.5701-87.8452L81.0217-90.3338C79.6293-90.9771 78.4314-89.9232 79.5573-88.4672L82.5536-84.6245L67.9481-86.5417C66.3611-86.7914 65.5187-85.1323 67.1271-84.1673L80.9031-75.6985L72.8026-72.719C71.1138-72.0756 71.355-70.353 73.1327-70.1922L82.0796-69.532L69.7595-61.1902C68.24-60.1532 69.0189-58.2614 70.7499-58.6719L86.731-62.2947L86.8918-48.9293C86.8918-47.4564 88.5806-47.3675 89.152-48.2859L99.3052-65.1049L116.598-49.6784C118.054-48.3832 119.624-49.8308 118.795-51.3925L108.587-70.4335L118.901-73.4934C119.874-73.815 119.874-75.1186 118.973-75.5207L109.882-79.3044L116.476-98.0873C116.958-99.5264 115.583-100.597 114.457-99.3909L103.741-89.3266L101.18-99.2216C100.778-100.758 99.1612-100.974 98.7591-99.1496Z"/>
  </g>
  <g id="Ultralight-L" transform="matrix(1 0 0 1 466.975 1556)">
   <path d="M169.389-45.873L169.389-49.0292C167.522-48.0062 165.476-46.8223 163.359-45.4911L140.868-31.3507L114.32-28.1249C101.99-26.6194 94.887-19.5923 94.887-8.65609L94.887 1.40044C94.887 10.7112 98.3801 14.1149 107.365 14.1149L120.186 14.1149L120.186 11.4722L107.329 11.4722C100.3 11.4722 97.5296 8.8094 97.5296 1.47682L97.5296-8.65609C97.5296-18.213 103.646-24.2805 114.673-25.5627L141.774-28.7705L164.662-43.1073C166.382-44.1662 167.924-45.1447 169.389-45.873ZM169.389 14.1149L169.389 11.4722L149.817 11.4722L149.817 14.1149ZM135.109 26.4591C144.419 26.4591 151.741 19.0519 151.741 9.74165C151.741 0.350938 144.419-6.88641 135.109-6.88641C125.709-6.88641 118.391 0.350938 118.391 9.74165C118.391 19.0519 125.709 26.4591 135.109 26.4591ZM135.109 23.8165C127.084 23.8165 121.034 17.6817 121.034 9.74165C121.034 1.80614 127.084-4.24377 135.109-4.24377C143.044-4.24377 149.099 1.80614 149.099 9.74165C149.099 17.6817 143.044 23.8165 135.109 23.8165ZM44.6084 26.4591C53.9187 26.4591 61.3258 19.0519 61.3258 9.74165C61.3258 0.350938 53.9187-6.88641 44.6084-6.88641C35.2132-6.88641 27.8909 0.350938 27.8909 9.74165C27.8909 19.0519 35.2132 26.4591 44.6084 26.4591ZM44.6084 23.8165C36.6729 23.8165 30.5335 17.6817 30.5335 9.74165C30.5335 1.80614 36.6729-4.24377 44.6084-4.24377C52.5484-4.24377 58.6832 1.80614 58.6832 9.74165C58.6832 17.6817 52.5484 23.8165 44.6084 23.8165ZM16.084-55.4852L16.084-52.8426L18.861-52.8426C34.3016-52.8426 47.0259-46.4894 57.7173-32.0408L71.031-28.6811C76.0036-27.3989 78.5685-24.1731 78.5685-18.798L78.5685 3.84987C78.5685 8.89431 76.0485 11.4722 71.2229 11.4722L59.7237 11.4722L59.7237 14.1149L71.0301 14.1149C77.6017 14.1149 81.2111 10.425 81.2111 3.60772L81.2111-18.798C81.2111-25.9059 77.7706-30.0824 71.4412-31.5785L59.6954-34.5091C53.4096-42.5062 41.7447-55.4852 18.861-55.4852ZM16.084 11.4722L16.084 14.1149L29.976 14.1149L29.976 11.4722ZM96.5354-97.7533L94.3196-88.3985L82.5791-100.371C81.4578-101.488 80.0192-100.693 80.5821-99.1784L84.786-86.8885L79.4832-89.2607C78.1295-89.904 76.9188-88.8631 78.0446-87.42L80.8858-83.7971L66.8492-85.6108C65.3527-85.8476 64.4456-84.2661 66.054-83.3011L79.2999-75.1167L71.5356-72.2665C69.8467-71.6231 70.088-69.9523 71.8527-69.7914L80.3988-69.157L68.596-61.1514C67.0635-60.1015 67.8812-58.2743 69.5475-58.6719L84.9468-62.1655L85.1077-49.3171C85.1077-47.883 86.7965-47.8071 87.3549-48.6738L97.1073-64.8593L113.78-50.0274C115.223-48.7452 116.728-50.1928 115.938-51.7028L106.091-70.0327L116.005-72.9633C116.965-73.285 116.965-74.5627 116.09-74.9648L107.374-78.6192L113.722-96.7168C114.204-98.1689 112.842-99.2009 111.716-97.9946L101.401-88.3181L98.9435-97.8382C98.5414-99.3617 96.9375-99.6164 96.5354-97.7533Z"/>
  </g>
  <g id="Black-M" transform="matrix(1 0 0 1 2850.41 1126)">
   <path d="M153.519-34.6818L153.519-52.3823C151.719-51.4307 149.815-50.3545 147.839-49.1372L130.361-38.1551L110.486-35.6739C95.9923-33.8917 87.8221-25.2183 87.8221-12.2545L87.8221-3.16886C87.8221 7.10655 93.9198 12.582 103.323 12.582L118.855 12.582L118.855-2.62356L106.165-2.62356C104.189-2.62356 103.028-3.81219 103.028-5.83155L103.028-13.2823C103.028-17.5828 105.473-19.7566 110.801-20.4164L135.566-23.4334L152.837-34.2577C153.079-34.4231 153.276-34.5262 153.519-34.6818ZM151.235 12.582L151.235-2.62356L138.391-2.62356L138.391 12.582ZM129.48 22.6832C139.917 22.6832 148.426 14.1745 148.426 3.73796C148.426-6.81801 139.917-15.3843 129.48-15.3843C118.992-15.3843 110.421-6.81801 110.421 3.73796C110.421 14.1745 118.992 22.6832 129.48 22.6832ZM129.48 9.19045C126.519 9.19045 124.199 6.87065 124.199 3.90925C124.199 0.942347 126.519-1.37773 129.48-1.37773C132.39-1.37773 134.762 0.942347 134.762 3.90925C134.762 6.87065 132.39 9.19045 129.48 9.19045ZM37.6962 22.6832C48.1327 22.6832 56.6985 14.1745 56.6985 3.73796C56.6985-6.81801 48.1327-15.3843 37.6962-15.3843C27.2028-15.3843 18.6939-6.81801 18.6939 3.73796C18.6939 14.1745 27.2028 22.6832 37.6962 22.6832ZM37.6962 9.19045C34.7293 9.19045 32.415 6.87065 32.415 3.90925C32.415 0.942347 34.7293-1.37773 37.6962-1.37773C40.6005-1.37773 42.9774 0.942347 42.9774 3.90925C42.9774 6.87065 40.6005 9.19045 37.6962 9.19045ZM12.4609-58.4812L12.4609-43.2185L18.4704-43.2185C30.1474-43.2185 38.6564-38.7532 46.8913-26.706L59.2191-23.5534C60.8146-23.122 61.7447-21.7827 61.7447-20.0939L61.7447-5.83399C61.7447-3.64118 60.7026-2.62356 58.5529-2.62356L48.0078-2.62356L48.0078 12.582L62.5675 12.582C71.348 12.582 76.8932 6.80326 76.8932-1.98734L76.8932-20.0939C76.8932-27.2982 74.81-34.8054 63.6103-38.4727L55.49-41.1183C49.1152-48.4886 37.8699-58.4812 18.4704-58.4812ZM12.4609-2.62356L12.4609 12.582L30.7946 12.582L30.7946-2.62356ZM93.3479-94.1163L91.274-85.6289L80.1994-96.9585C79.0932-98.1272 77.2185-97.1506 77.7688-95.4936L81.6562-84.1377L77.2062-86.1705C75.4454-86.9544 74.345-85.5109 75.5028-83.9842L77.8687-80.9678L65.0576-82.7302C63.2073-82.9797 62.5494-80.7871 64.081-79.8682L76.2526-72.5306L69.4901-69.9472C67.7249-69.2775 68.026-67.2049 69.9161-67.0803L77.5575-66.5709L66.7412-59.2218C65.0491-58.0747 65.8269-55.872 68.0192-56.3603L81.7809-59.4421L81.9626-47.2449C81.9626-45.3647 83.6706-45.4111 84.3977-46.5752L94.0014-62.2951L109.29-48.5073C110.76-47.2195 112.828-48.7406 111.903-50.5173L102.938-67.3814L112.381-70.1984C113.534-70.5618 113.648-71.9693 112.495-72.4521L104.112-75.8869L110.114-93.124C110.602-94.4684 109.024-95.8658 107.809-94.6458L98.2827-85.5666L96.079-94.1731C95.7104-95.6479 93.7736-95.8183 93.3479-94.1163Z"/>
  </g>
  <g id="Heavy-M" transform="matrix(1 0 0 1 2554.61 1126)">
   <path d="M151.688-36.0923L151.688-51.5352C149.788-50.556 147.83-49.4521 145.776-48.1744L128.232-37.1596L108.455-34.7002C94.5017-32.9981 86.5699-24.7088 86.5699-12.3357L86.5699-3.33388C86.5699 6.27105 92.2322 11.4677 101.124 11.4677L116.169 11.4677L116.169-1.8318L103.393-1.8318C101.158-1.8318 99.8694-3.20071 99.8694-5.57581L99.8694-13.1209C99.8694-17.9583 102.843-20.6242 108.903-21.3757L132.779-24.2933L150.485-35.3539C150.893-35.6347 151.286-35.8533 151.688-36.0923ZM149.943 11.4677L149.943-1.8318L135.939-1.8318L135.939 11.4677ZM126.65 21.5593C136.613 21.5593 144.674 13.4958 144.674 3.5332C144.674-6.53532 136.613-14.6379 126.65-14.6379C116.658-14.6379 108.537-6.53532 108.537 3.5332C108.537 13.4958 116.658 21.5593 126.65 21.5593ZM126.65 9.56843C123.338 9.56843 120.746 6.97423 120.746 3.66407C120.746 0.337495 123.338-2.25443 126.65-2.25443C129.933-2.25443 132.552 0.337495 132.552 3.66407C132.552 6.97423 129.933 9.56843 126.65 9.56843ZM38.1944 21.5593C48.157 21.5593 56.2641 13.4958 56.2641 3.5332C56.2641-6.53532 48.157-14.6379 38.1944-14.6379C28.1859-14.6379 20.1247-6.53532 20.1247 3.5332C20.1247 13.4958 28.1859 21.5593 38.1944 21.5593ZM38.1944 9.56843C34.8678 9.56843 32.29 6.97423 32.29 3.66407C32.29 0.337495 34.8678-2.25443 38.1944-2.25443C41.4609-2.25443 44.0987 0.337495 44.0987 3.66407C44.0987 6.97423 41.4609 9.56843 38.1944 9.56843ZM12.4609-57.31L12.4609-43.9669L18.6028-43.9669C30.3471-43.9669 39.1224-39.3938 47.3817-27.4698L59.3386-24.3947C61.5059-23.8177 62.4769-22.2307 62.4769-20.1532L62.4769-5.49574C62.4769-3.06757 61.2982-1.8318 59.0081-1.8318L48.3799-1.8318L48.3799 11.4677L62.3659 11.4677C70.5756 11.4677 75.7327 6.11736 75.7327-2.1319L75.7327-20.1532C75.7327-27.1003 73.6946-34.0817 63.2117-37.4829L54.8732-40.1704C48.6581-47.3938 37.7123-57.31 18.6028-57.31ZM12.4609-1.8318L12.4609 11.4677L30.4678 11.4677L30.4678-1.8318ZM91.2103-93.0586L89.1164-84.4728L78.0395-95.813C76.9764-96.9362 75.255-96.0186 75.7784-94.4366L79.6864-83.0053L75.0694-85.1093C73.4375-85.8259 72.3885-84.5197 73.4789-83.0764L75.9624-79.8878L63.0346-81.6702C61.2561-81.9172 60.6528-79.8747 62.117-78.9962L74.3725-71.6071L67.4474-68.9819C65.79-68.3526 66.0642-66.4115 67.8439-66.2869L75.6486-65.7556L64.7055-58.3383C63.1455-57.283 63.8502-55.2008 65.895-55.6596L79.811-58.7832L79.9793-46.594C79.9793-44.8562 81.593-44.8647 82.2637-45.9647L91.7881-61.5727L107.143-47.7274C108.542-46.496 110.463-47.9229 109.572-49.6085L100.558-66.561L109.989-69.3794C111.059-69.7158 111.146-71.0509 110.079-71.4933L101.702-74.916L107.696-92.085C108.158-93.3645 106.689-94.6599 105.555-93.5072L95.9874-84.4105L93.7502-93.1045C93.395-94.5228 91.6091-94.6605 91.2103-93.0586Z"/>
  </g>
  <g id="Bold-M" transform="matrix(1 0 0 1 2258.93 1126)">
   <path d="M149.639-37.6702L149.639-50.5876C147.629-49.5774 145.609-48.4426 143.469-47.0974L125.852-36.0459L106.183-33.6109C92.8342-31.9986 85.1691-24.1389 85.1691-12.4264L85.1691-3.51848C85.1691 5.33641 90.3444 10.2212 98.6646 10.2212L113.164 10.2212L113.164-0.946098L100.292-0.946098C97.7689-0.946098 96.3363-2.51669 96.3363-5.28973L96.3363-12.9403C96.3363-18.3784 99.9009-21.5947 106.781-22.4489L129.662-25.2553L147.854-36.5801C148.448-36.9901 149.061-37.3379 149.639-37.6702ZM148.497 10.2212L148.497-0.946098L133.195-0.946098L133.195 10.2212ZM123.484 20.3021C132.917 20.3021 140.477 12.7366 140.477 3.30416C140.477-6.21909 132.917-13.8029 123.484-13.8029C114.047-13.8029 106.429-6.21909 106.429 3.30416C106.429 12.7366 114.047 20.3021 123.484 20.3021ZM123.484 9.99126C119.779 9.99126 116.883 7.0901 116.883 3.3898C116.883-0.339119 119.779-3.23514 123.484-3.23514C127.185-3.23514 130.081-0.339119 130.081 3.3898C130.081 7.0901 127.185 9.99126 123.484 9.99126ZM38.7517 20.3021C48.1841 20.3021 55.7781 12.7366 55.7781 3.30416C55.7781-6.21909 48.1841-13.8029 38.7517-13.8029C29.2856-13.8029 21.7252-6.21909 21.7252 3.30416C21.7252 12.7366 29.2856 20.3021 38.7517 20.3021ZM38.7517 9.99126C35.0228 9.99126 32.1502 7.0901 32.1502 3.3898C32.1502-0.339119 35.0228-3.23514 38.7517-3.23514C42.4234-3.23514 45.3531-0.339119 45.3531 3.3898C45.3531 7.0901 42.4234 9.99126 38.7517 9.99126ZM12.4609-55.9998L12.4609-44.804L18.7508-44.804C30.5705-44.804 39.6436-40.1103 47.9302-28.3241L59.4724-25.3359C62.2792-24.5958 63.2959-22.7319 63.2959-20.2196L63.2959-5.11736C63.2959-2.42591 61.9644-0.946098 59.5174-0.946098L48.7962-0.946098L48.7962 10.2212L62.1404 10.2212C69.7115 10.2212 74.4346 5.35007 74.4346-2.29362L74.4346-20.2196C74.4346-26.8789 72.4469-33.2722 62.7658-36.3758L54.1833-39.11C48.1467-46.1691 37.5359-55.9998 18.7508-55.9998ZM12.4609-0.946098L12.4609 10.2212L30.1022 10.2212L30.1022-0.946098ZM88.8191-91.8754L86.7029-83.1795L75.6234-94.5316C74.6084-95.6039 73.0585-94.7523 73.5517-93.2542L77.4829-81.7385L72.679-83.9223C71.1914-84.5635 70.1998-83.4109 71.2148-82.0609L73.8298-78.6798L60.7717-80.4845C59.0735-80.7286 58.5313-78.854 59.9201-78.0207L72.2693-70.574L65.1623-67.902C63.6255-67.3179 63.8696-65.5239 65.5258-65.3993L73.5131-64.8436L62.4282-57.3499C61.0161-56.3973 61.639-54.45 63.5187-54.8758L77.6075-58.0462L77.7607-45.8658C77.7607-44.2874 79.2689-44.2535 79.8764-45.2818L89.3122-60.7647L104.741-46.855C106.062-45.6868 107.817-47.0081 106.966-48.5919L97.8959-65.6433L107.314-68.4632C108.29-68.7695 108.347-70.0235 107.376-70.4206L99.0071-73.8298L104.992-90.9226C105.423-92.1296 104.078-93.311 103.035-92.2336L93.4197-83.1172L91.1451-91.9091C90.805-93.2643 89.1877-93.3653 88.8191-91.8754Z"/>
  </g>
  <g id="Semibold-M" transform="matrix(1 0 0 1 1962.92 1126)">
   <path d="M148.227-38.7579L148.227-49.9343C146.14-48.9028 144.078-47.7467 141.878-46.3549L124.211-35.2781L104.617-32.86C91.6847-31.3095 84.2034-23.746 84.2034-12.489L84.2034-3.64574C84.2034 4.69208 89.0429 9.3618 96.9688 9.3618L111.093 9.3618L111.093-0.335502L98.1548-0.335502C95.4322-0.335502 93.9007-2.04512 93.9007-5.09251L93.9007-12.8158C93.9007-18.668 97.8726-22.2638 105.317-23.1887L127.512-25.9184L146.04-37.4254C146.762-37.9245 147.526-38.3613 148.227-38.7579ZM147.501 9.3618L147.501-0.335502L131.304-0.335502L131.304 9.3618ZM121.302 19.4354C130.369 19.4354 137.584 12.2131 137.584 3.14626C137.584-6.00109 130.369-13.2272 121.302-13.2272C112.247-13.2272 104.977-6.00109 104.977 3.14626C104.977 12.2131 112.247 19.4354 121.302 19.4354ZM121.302 10.2828C117.326 10.2828 114.22 7.16998 114.22 3.20073C114.22-0.805573 117.326-3.91124 121.302-3.91124C125.29-3.91124 128.377-0.805573 128.377 3.20073C128.377 7.16998 125.29 10.2828 121.302 10.2828ZM39.1359 19.4354C48.2028 19.4354 55.4432 12.2131 55.4432 3.14626C55.4432-6.00109 48.2028-13.2272 39.1359-13.2272C30.0438-13.2272 22.8287-6.00109 22.8287 3.14626C22.8287 12.2131 30.0438 19.4354 39.1359 19.4354ZM39.1359 10.2828C35.1296 10.2828 32.0539 7.16998 32.0539 3.20073C32.0539-0.805573 35.1296-3.91124 39.1359-3.91124C43.087-3.91124 46.2179-0.805573 46.2179 3.20073C46.2179 7.16998 43.087 10.2828 39.1359 10.2828ZM12.4609-55.0966L12.4609-45.3811L18.8528-45.3811C30.7245-45.3811 40.0029-40.6043 48.3083-28.913L59.5646-25.9847C62.8123-25.1323 63.8606-23.0773 63.8606-20.2653L63.8606-4.8565C63.8606-1.98355 62.4237-0.335502 59.8684-0.335502L49.0831-0.335502L49.0831 9.3618L61.985 9.3618C69.1158 9.3618 73.5397 4.82111 73.5397-2.4051L73.5397-20.2653C73.5397-26.7263 71.5868-32.7141 62.4585-35.6125L53.7077-38.379C47.7942-45.3248 37.4144-55.0966 18.8528-55.0966ZM12.4609-0.335502L12.4609 9.3618L29.8502 9.3618L29.8502-0.335502ZM87.1706-91.0598L85.039-82.2879L73.9578-93.6482C72.9759-94.6853 71.5443-93.8793 72.0167-92.4391L75.9638-80.8652L71.0311-83.104C69.6429-83.6932 68.691-82.6465 69.654-81.3609L72.3596-77.847L59.2116-79.6671C57.5688-79.9092 57.0687-78.1504 58.4055-77.3482L70.8194-69.8617L63.587-67.1576C62.1334-66.6046 62.3566-64.912 63.9278-64.7874L72.041-64.2149L60.8583-56.6685C59.5482-55.7867 60.1145-53.9324 61.8805-54.3355L76.0884-57.5381L76.2312-45.3638C76.2312-43.8952 77.6667-43.8322 78.2307-44.8109L87.6053-60.2077L103.085-46.2536C104.352-45.1289 105.993-46.3775 105.168-47.891L96.0606-65.0107L105.469-67.8316C106.381-68.1171 106.417-69.3152 105.512-69.6812L97.1489-73.081L103.128-90.1213C103.538-91.2783 102.278-92.381 101.297-91.3556L91.6496-82.2256L89.3492-91.085C89.0195-92.3967 87.5185-92.4724 87.1706-91.0598Z"/>
  </g>
  <g id="Medium-M" transform="matrix(1 0 0 1 1666.75 1126)">
   <path d="M147.156-39.5827L147.156-49.439C145.012-48.3913 142.917-47.2191 140.672-45.7919L122.966-34.696L103.429-32.2907C90.813-30.787 83.4712-23.4481 83.4712-12.5364L83.4712-3.74223C83.4712 4.20351 88.0561 8.7102 95.683 8.7102L109.522 8.7102L109.522 0.127478L96.534 0.127478C93.6604 0.127478 92.0539-1.68756 92.0539-4.94296L92.0539-12.7214C92.0539-18.8875 96.3345-22.7711 104.208-23.7497L125.883-26.4212L144.664-38.0664C145.484-38.633 146.363-39.1373 147.156-39.5827ZM146.745 8.7102L146.745 0.127478L129.87 0.127478L129.87 8.7102ZM119.647 18.7782C128.437 18.7782 135.39 11.8163 135.39 3.02653C135.39-5.83578 128.437-12.7908 119.647-12.7908C110.882-12.7908 103.875-5.83578 103.875 3.02653C103.875 11.8163 110.882 18.7782 119.647 18.7782ZM119.647 10.5038C115.465 10.5038 112.201 7.23055 112.201 3.05736C112.201-1.15926 115.465-4.42388 119.647-4.42388C123.853-4.42388 127.085-1.15926 127.085 3.05736C127.085 7.23055 123.853 10.5038 119.647 10.5038ZM39.4272 18.7782C48.217 18.7782 55.1892 11.8163 55.1892 3.02653C55.1892-5.83578 48.217-12.7908 39.4272-12.7908C30.6186-12.7908 23.6653-5.83578 23.6653 3.02653C23.6653 11.8163 30.6186 18.7782 39.4272 18.7782ZM39.4272 10.5038C35.2106 10.5038 31.9808 7.23055 31.9808 3.05736C31.9808-1.15926 35.2106-4.42388 39.4272-4.42388C43.5901-4.42388 46.8736-1.15926 46.8736 3.05736C46.8736 7.23055 43.5901 10.5038 39.4272 10.5038ZM12.4609-54.4117L12.4609-45.8188L18.9302-45.8188C30.8413-45.8188 40.2754-40.9789 48.595-29.3596L59.6345-26.4766C63.2165-25.5391 64.2887-23.3393 64.2887-20.3L64.2887-4.65871C64.2887-1.64813 62.772 0.127478 60.1346 0.127478L49.3007 0.127478L49.3007 8.7102L61.8671 8.7102C68.6641 8.7102 72.8612 4.42003 72.8612-2.48964L72.8612-20.3C72.8612-26.6105 70.9345-32.2909 62.2254-35.0337L53.347-37.8247C47.5269-44.6847 37.3222-54.4117 18.9302-54.4117ZM12.4609 0.127478L12.4609 8.7102L29.6591 8.7102L29.6591 0.127478ZM85.9207-90.4413L83.7773-81.6118L72.6949-92.9784C71.738-93.9889 70.3961-93.2173 70.8528-91.821L74.812-80.203L69.7816-82.4835C68.4688-83.0333 67.5469-82.0669 68.4705-80.83L71.2449-77.2155L58.0287-79.0473C56.4279-79.2879 55.9597-77.6168 57.2571-76.8383L69.72-69.3217L62.3926-66.5931C61.0019-66.0638 61.2094-64.4481 62.716-64.3235L70.9248-63.7382L59.6679-56.1519C58.4351-55.3237 58.9587-53.5399 60.6384-53.9257L74.9366-57.1528L75.0715-44.9832C75.0715-43.5978 76.4518-43.5127 76.9828-44.4539L86.3111-59.7853L101.829-45.7976C103.056-44.7059 104.611-45.8993 103.806-47.3596L94.6689-64.531L104.07-67.3527C104.933-67.6225 104.954-68.7781 104.1-69.1205L95.74-72.5133L101.714-89.5137C102.108-90.6328 100.913-91.6758 99.9793-90.6899L90.3074-81.5495L87.9874-90.4602C87.6656-91.7388 86.2527-91.7954 85.9207-90.4413Z"/>
  </g>
  <g id="Regular-M" transform="matrix(1 0 0 1 1370.73 1126)">
   <path d="M145.759-40.6585L145.759-48.7928C143.54-47.7241 141.402-46.5308 139.099-45.0576L121.343-33.9367L101.88-31.548C89.6761-30.1054 82.5161-23.0595 82.5161-12.5983L82.5161-3.8681C82.5161 3.56626 86.7689 7.86028 94.0058 7.86028L107.474 7.86028L107.474 0.731364L94.4199 0.731364C91.3494 0.731364 89.645-1.22118 89.645-4.74791L89.645-12.5983C89.645-19.1739 94.3284-23.4328 102.761-24.4814L123.757-27.0771L142.87-38.9024C143.816-39.5571 144.845-40.1495 145.759-40.6585ZM145.759 7.86028L145.759 0.731364L128 0.731364L128 7.86028ZM117.489 17.921C125.917 17.921 132.529 11.2986 132.529 2.87036C132.529-5.62017 125.917-12.2215 117.489-12.2215C109.102-12.2215 102.438-5.62017 102.438 2.87036C102.438 11.2986 109.102 17.921 117.489 17.921ZM117.489 10.7921C113.039 10.7921 109.567 7.30955 109.567 2.87036C109.567-1.62059 113.039-5.09255 117.489-5.09255C121.98-5.09255 125.4-1.62059 125.4 2.87036C125.4 7.30955 121.98 10.7921 117.489 10.7921ZM39.8072 17.921C48.2355 17.921 54.8578 11.2986 54.8578 2.87036C54.8578-5.62017 48.2355-12.2215 39.8072-12.2215C31.3684-12.2215 24.7566-5.62017 24.7566 2.87036C24.7566 11.2986 31.3684 17.921 39.8072 17.921ZM39.8072 10.7921C35.3163 10.7921 31.8855 7.30955 31.8855 2.87036C31.8855-1.62059 35.3163-5.09255 39.8072-5.09255C44.2464-5.09255 47.7289-1.62059 47.7289 2.87036C47.7289 7.30955 44.2464 10.7921 39.8072 10.7921ZM12.4609-53.5185L12.4609-46.3895L19.0311-46.3895C30.9936-46.3895 40.6307-41.4675 48.969-29.9421L59.7256-27.1183C63.7438-26.0697 64.8472-23.681 64.8472-20.3452L64.8472-4.40073C64.8472-1.21063 63.2262 0.731364 60.4818 0.731364L49.5845 0.731364L49.5845 7.86028L61.7134 7.86028C68.075 7.86028 71.9761 3.89688 71.9761-2.5999L71.9761-20.3452C71.9761-26.4596 70.0838-31.7389 61.9214-34.2789L52.8766-37.1017C47.1783-43.8497 37.202-53.5185 19.0311-53.5185ZM12.4609 0.731364L12.4609 7.86028L29.4099 7.86028L29.4099 0.731364ZM84.2903-89.6346L82.1317-80.73L71.0475-92.1047C70.1235-93.0805 68.8985-92.3539 69.3346-91.0149L73.3096-79.3392L68.1518-81.6742C66.9374-82.1726 66.0546-81.3109 66.9269-80.1377L69.7909-76.3918L56.4858-78.2389C54.9397-78.4775 54.5131-76.9209 55.7592-76.1733L68.286-68.6173L60.8346-65.8568C59.5262-65.3584 59.7131-63.8429 61.1355-63.7183L69.4688-63.1164L58.1153-55.478C56.9832-54.7198 57.451-53.028 59.0182-53.3913L73.4342-56.6503L73.5588-44.4867C73.5588-43.21 74.8672-43.0959 75.3551-43.9883L84.6229-59.2344L100.191-45.2027C101.364-44.1541 102.807-45.2756 102.029-46.6664L92.8537-63.9052L102.246-66.7281C103.046-66.9773 103.046-68.0777 102.257-68.3892L93.9023-71.7727L99.87-88.7211C100.244-89.7909 99.1329-90.7561 98.2606-89.8215L88.5567-80.6677L86.2112-89.6452C85.8997-90.8807 84.6018-90.9124 84.2903-89.6346Z"/>
  </g>
  <g id="Light-M" transform="matrix(1 0 0 1 1076.27 1126)">
   <path d="M141.259-41.5312L141.259-47.9031C139.279-46.9199 137.313-45.8121 135.215-44.4758L117.562-33.4062L97.7561-30.9833C86.3737-29.6263 79.727-23.0766 79.727-13.2314L79.727-4.79209C79.727 2.57383 83.5007 6.35452 90.6521 6.35452L103.025 6.35452L103.025 0.799808L90.9292 0.799808C87.123 0.799808 85.2817-1.18696 85.2817-5.38101L85.2817-13.2314C85.2817-20.0637 89.9823-24.4594 98.4487-25.4909L119.445-28.0524L138.131-39.6553C139.197-40.3613 140.276-41.0051 141.259-41.5312ZM141.259 6.35452L141.259 0.799808L124.304 0.799808L124.304 6.35452ZM113.519 16.2612C121.571 16.2612 127.892 9.9126 127.892 1.86081C127.892-6.25328 121.571-12.5466 113.519-12.5466C105.474-12.5466 99.1185-6.25328 99.1185 1.86081C99.1185 9.9126 105.474 16.2612 113.519 16.2612ZM113.519 10.7065C108.522 10.7065 104.673 6.83045 104.673 1.86081C104.673-3.14346 108.522-6.99187 113.519-6.99187C118.523-6.99187 122.337-3.14346 122.337 1.86081C122.337 6.83045 118.523 10.7065 113.519 10.7065ZM38.1817 16.2612C46.2335 16.2612 52.5821 9.9126 52.5821 1.86081C52.5821-6.25328 46.2335-12.5466 38.1817-12.5466C30.1022-12.5466 23.7813-6.25328 23.7813 1.86081C23.7813 9.9126 30.1022 16.2612 38.1817 16.2612ZM38.1817 10.7065C33.1774 10.7065 29.336 6.83045 29.336 1.86081C29.336-3.14346 33.1774-6.99187 38.1817-6.99187C43.1513-6.99187 47.0274-3.14346 47.0274 1.86081C47.0274 6.83045 43.1513 10.7065 38.1817 10.7065ZM12.4609-52.7142L12.4609-47.1595L17.6622-47.1595C29.6247-47.1595 39.3303-42.2375 47.6515-30.8148L58.2712-28.0594C62.238-27.0279 63.6152-24.605 63.6152-21.0125L63.6152-4.57183C63.6152-1.1593 61.8916 0.799808 58.8392 0.799808L48.5579 0.799808L48.5579 6.35452L59.6429 6.35452C65.611 6.35452 69.1699 2.73334 69.1699-3.387L69.1699-21.0125C69.1699-26.9387 67.0381-31.5849 59.8852-33.6971L50.8233-36.3488C45.3816-42.9257 35.6962-52.7142 17.6622-52.7142ZM12.4609 0.799808L12.4609 6.35452L27.4935 6.35452L27.4935 0.799808ZM81.3472-87.7866L79.3255-79.3954L68.8573-90.1198C67.9504-91.0614 66.7596-90.369 67.1958-89.0813L70.9483-78.073L66.1156-80.254C64.9525-80.7524 64.0526-79.9078 64.9249-78.7517L67.5836-75.2967L55.0313-77.0069C53.6051-77.2284 53.0929-75.7745 54.339-75.0268L66.1643-67.8473L59.1577-65.2579C57.8493-64.7595 58.0362-63.3125 59.4415-63.1879L67.2444-62.6202L56.5753-55.4267C55.4261-54.6514 55.9452-53.0451 57.4269-53.3913L71.0729-56.4791L71.1975-45.0001C71.1975-43.7747 72.5059-43.6777 72.9767-44.5016L81.7141-58.9093L96.4609-45.6647C97.617-44.6332 98.974-45.7547 98.2471-47.0771L89.5513-63.3748L98.4133-66.0265C99.1956-66.2757 99.1956-67.3419 98.4409-67.6534L90.5828-70.8658L96.2254-86.9074C96.5992-87.9942 95.5054-88.9081 94.6331-87.9735L85.4596-79.3331L83.251-87.8143C82.9395-89.0327 81.6587-89.1157 81.3472-87.7866Z"/>
  </g>
  <g id="Thin-M" transform="matrix(1 0 0 1 782.538 1126)">
   <path d="M135.307-42.6853L135.307-46.7263C133.644-45.8563 131.904-44.8616 130.078-43.7064L112.56-32.7047L92.3021-30.2365C82.006-28.9927 76.0382-23.0992 76.0382-14.0687L76.0382-6.01414C76.0382 1.26125 79.1783 4.36302 86.2165 4.36302L97.1409 4.36302L97.1409 0.89033L86.3126 0.89033C81.5332 0.89033 79.5109-1.1417 79.5109-6.21834L79.5109-14.0687C79.5109-21.2405 84.2341-25.8173 92.7458-26.8261L113.742-29.3424L131.862-40.6511C133.086-41.425 134.234-42.1366 135.307-42.6853ZM135.307 4.36302L135.307 0.89033L119.416 0.89033L119.416 4.36302ZM108.269 14.0661C115.823 14.0661 121.759 8.07952 121.759 0.525609C121.759-7.09061 115.823-12.9766 108.269-12.9766C100.676-12.9766 94.7282-7.09061 94.7282 0.525609C94.7282 8.07952 100.676 14.0661 108.269 14.0661ZM108.269 10.5934C102.547 10.5934 98.2009 6.19679 98.2009 0.525609C98.2009-5.15758 102.547-9.50386 108.269-9.50386C113.952-9.50386 118.286-5.15758 118.286 0.525609C118.286 6.19679 113.952 10.5934 108.269 10.5934ZM36.0318 14.0661C43.5857 14.0661 49.5722 8.07952 49.5722 0.525609C49.5722-7.09061 43.5857-12.9766 36.0318-12.9766C28.4276-12.9766 22.4913-7.09061 22.4913 0.525609C22.4913 8.07952 28.4276 14.0661 36.0318 14.0661ZM36.0318 10.5934C30.3486 10.5934 25.964 6.19679 25.964 0.525609C25.964-5.15758 30.3486-9.50386 36.0318-9.50386C41.703-9.50386 46.0995-5.15758 46.0995 0.525609C46.0995 6.19679 41.703 10.5934 36.0318 10.5934ZM12.4609-51.6506L12.4609-48.1779L15.8518-48.1779C27.8143-48.1779 37.6104-43.2558 45.9089-31.9689L56.3476-29.3041C60.2465-28.2952 61.9858-25.827 61.9858-21.8951L61.9858-4.79814C61.9858-1.09141 60.1264 0.89033 56.6666 0.89033L47.2 0.89033L47.2 4.36302L56.9046 4.36302C62.3522 4.36302 65.4585 1.19446 65.4585-4.42801L65.4585-21.8951C65.4585-27.5724 63.0098-31.3813 57.1921-32.9277L48.1077-35.353C43.0054-41.7036 33.7047-51.6506 15.8518-51.6506ZM12.4609 0.89033L12.4609 4.36302L24.9588 4.36302L24.9588 0.89033ZM77.4548-85.3425L75.6141-77.6302L65.9606-87.4947C65.0763-88.391 63.9308-87.7439 64.3669-86.5241L67.8253-76.3984L63.4226-78.3756C62.3274-78.8741 61.4048-78.0521 62.2771-76.9186L64.6642-73.8484L53.1077-75.3775C51.8399-75.5764 51.2146-74.2582 52.4607-73.5106L63.3581-66.8289L56.9399-64.4658C55.6315-63.9674 55.8184-62.6109 57.2011-62.4863L64.3024-61.9639L54.5385-55.3588C53.3667-54.5608 53.9537-53.0678 55.3222-53.3913L67.9499-56.2528L68.0745-45.679C68.0745-44.5215 69.3829-44.4472 69.831-45.1806L77.8669-58.4793L91.5274-46.2758C92.6609-45.2669 93.9048-46.3884 93.2457-47.6202L85.1836-62.6733L93.344-65.0986C94.1037-65.3479 94.1037-66.3688 93.3943-66.6803L86.1925-69.6664L91.4051-84.5085C91.7789-85.618 90.7077-86.464 89.8354-85.5294L81.3635-77.5679L79.3359-85.3928C79.0244-86.5886 77.7663-86.7395 77.4548-85.3425Z"/>
  </g>
  <g id="Ultralight-M" transform="matrix(1 0 0 1 487.351 1126)">
   <path d="M132.259-43.2765L132.259-46.1235C130.758-45.3115 129.134-44.3748 127.446-43.3123L109.998-32.3454L89.5086-29.854C79.7689-28.6681 74.1489-23.1108 74.1489-14.4976L74.1489-6.64007C74.1489 0.588959 76.9644 3.34299 83.9446 3.34299L94.1272 3.34299L94.1272 0.936696L83.948 0.936696C78.6702 0.936696 76.5552-1.11852 76.5552-6.64722L76.5552-14.4976C76.5552-21.8433 81.2899-26.5127 89.8248-27.51L110.821-30.0031L128.651-41.1611C129.957-41.9698 131.139-42.7162 132.259-43.2765ZM132.259 3.34299L132.259 0.936696L116.912 0.936696L116.912 3.34299ZM105.579 12.9417C112.878 12.9417 118.618 7.14063 118.618-0.158276C118.618-7.51949 112.878-13.1968 105.579-13.1968C98.2191-13.1968 92.4795-7.51949 92.4795-0.158276C92.4795 7.14063 98.2191 12.9417 105.579 12.9417ZM105.579 10.5354C99.4871 10.5354 94.8858 5.87223 94.8858-0.158276C94.8858-6.18921 99.4871-10.7905 105.579-10.7905C111.61-10.7905 116.211-6.18921 116.211-0.158276C116.211 5.87223 111.61 10.5354 105.579 10.5354ZM34.9306 12.9417C42.2295 12.9417 48.0306 7.14063 48.0306-0.158276C48.0306-7.51949 42.2295-13.1968 34.9306-13.1968C27.5698-13.1968 21.8306-7.51949 21.8306-0.158276C21.8306 7.14063 27.5698 12.9417 34.9306 12.9417ZM34.9306 10.5354C28.8997 10.5354 24.2369 5.87223 24.2369-0.158276C24.2369-6.18921 28.8997-10.7905 34.9306-10.7905C40.9611-10.7905 45.6243-6.18921 45.6243-0.158276C45.6243 5.87223 40.9611 10.5354 34.9306 10.5354ZM12.4609-51.1058L12.4609-48.6995L14.9245-48.6995C26.887-48.6995 36.7294-43.7774 45.0164-32.5601L55.3623-29.9416C59.2265-28.9443 61.1512-26.453 61.1512-22.3472L61.1512-4.91405C61.1512-1.05663 59.2223 0.936696 55.5539 0.936696L46.5045 0.936696L46.5045 3.34299L55.5021 3.34299C60.6831 3.34299 63.5575 0.406253 63.5575-4.96121L63.5575-22.3472C63.5575-27.8969 60.9466-31.2769 55.8128-32.5335L46.7167-34.843C41.7883-41.0777 32.6847-51.1058 14.9245-51.1058ZM12.4609 0.936696L12.4609 3.34299L23.6606 3.34299L23.6606 0.936696ZM75.4611-84.0907L73.7132-76.7261L64.4769-86.1501C63.6042-87.0232 62.4819-86.3993 62.918-85.2143L66.2257-75.5406L62.0432-77.4135C60.9828-77.912 60.0487-77.1016 60.9209-75.9797L63.1689-73.1065L52.1225-74.5429C50.9358-74.7302 50.2525-73.4816 51.4986-72.734L61.9207-66.3073L55.8039-64.0601C54.4955-63.5617 54.6825-62.2516 56.0536-62.127L62.7955-61.6277L53.4953-55.324C52.3119-54.5145 52.9337-53.0794 54.2442-53.3913L66.3503-56.1369L66.4749-46.0267C66.4749-44.904 67.7833-44.8413 68.2198-45.5283L75.8963-58.2591L89.0005-46.5887C90.1224-45.5914 91.3083-46.7129 90.684-47.8984L82.9465-62.3139L90.7476-64.6234C91.4957-64.8726 91.4957-65.8703 90.8095-66.1819L83.9438-69.0521L88.9361-83.2799C89.31-84.4009 88.2503-85.2121 87.3781-84.2776L79.2654-76.6638L77.3306-84.1525C77.0191-85.3368 75.7726-85.5224 75.4611-84.0907Z"/>
  </g>
  <g id="Black-S" transform="matrix(1 0 0 1 2868.21 696)">
   <path d="M120.605-34.4238L120.605-48.877C119.238-48.1445 117.773-47.3145 116.26-46.3867L102.588-37.793L86.9629-35.8398C75.4883-34.4238 69.043-27.5391 69.043-17.2363L69.043-10.1074C69.043-1.85547 73.9258 2.49023 81.4453 2.49023L93.7012 2.49023L93.7012-9.91211L83.8379-9.91211C82.3242-9.91211 81.4453-10.791 81.4453-12.3047L81.4453-18.1152C81.4453-21.3379 83.2031-22.9004 87.1582-23.3887L106.836-25.7812L120.215-34.1797C120.361-34.2773 120.459-34.3262 120.605-34.4238ZM118.652 2.49023L118.652-9.91211L108.984-9.91211L108.984 2.49023ZM102.1 10.4004C110.4 10.4004 117.188 3.61328 117.188-4.6875C117.188-13.0859 110.4-19.9219 102.1-19.9219C93.75-19.9219 86.9141-13.0859 86.9141-4.6875C86.9141 3.61328 93.75 10.4004 102.1 10.4004ZM102.1-0.537109C99.8535-0.537109 98.0957-2.29492 98.0957-4.54102C98.0957-6.78711 99.8535-8.54492 102.1-8.54492C104.297-8.54492 106.104-6.78711 106.104-4.54102C106.104-2.29492 104.297-0.537109 102.1-0.537109ZM29.2969 10.4004C37.5977 10.4004 44.4336 3.61328 44.4336-4.6875C44.4336-13.0859 37.5977-19.9219 29.2969-19.9219C20.9473-19.9219 14.1602-13.0859 14.1602-4.6875C14.1602 3.61328 20.9473 10.4004 29.2969 10.4004ZM29.2969-0.537109C27.0508-0.537109 25.293-2.29492 25.293-4.54102C25.293-6.78711 27.0508-8.54492 29.2969-8.54492C31.4941-8.54492 33.3008-6.78711 33.3008-4.54102C33.3008-2.29492 31.4941-0.537109 29.2969-0.537109ZM9.76562-53.7598L9.76562-41.3086L14.3555-41.3086C23.4863-41.3086 30.0781-37.8418 36.5234-28.3691L46.2891-25.8789C47.3633-25.5859 48.0957-24.6094 48.0957-23.3887L48.0957-12.3047C48.0957-10.6445 47.3145-9.91211 45.6543-9.91211L37.4512-9.91211L37.4512 2.49023L48.9746 2.49023C56.0059 2.49023 60.4492-2.14844 60.4492-9.17969L60.4492-23.3887C60.4492-29.1016 58.7891-35.1074 49.8535-38.0371L43.5547-40.0879C38.5254-45.8984 29.6387-53.7598 14.3555-53.7598ZM9.76562-9.91211L9.76562 2.49023L24.1211 2.49023L24.1211-9.91211ZM73.6328-81.5918L72.0215-75L63.3789-83.8379C62.5-84.7656 60.9863-83.9844 61.4258-82.666L64.4531-73.8281L61.0352-75.3906C59.6191-76.0254 58.7402-74.8535 59.668-73.6328L61.4746-71.3379L51.5137-72.7051C50.0488-72.9004 49.5117-71.1426 50.7324-70.4102L60.2051-64.6973L54.9805-62.6953C53.5645-62.1582 53.8086-60.498 55.3223-60.4004L61.2305-60.0098L52.832-54.2969C51.4648-53.3691 52.0996-51.6113 53.8574-52.002L64.5508-54.3945L64.6973-44.873C64.6973-43.3594 66.0645-43.4082 66.6504-44.3359L74.1699-56.6406L86.084-45.8984C87.2559-44.873 88.916-46.0938 88.1836-47.5098L81.2012-60.6445L88.5742-62.8418C89.502-63.1348 89.5996-64.2578 88.6719-64.6484L82.1289-67.334L86.8164-80.8105C87.207-81.8848 85.9375-83.0078 84.9609-82.0312L77.5391-74.9512L75.8301-81.6406C75.5371-82.8125 73.9746-82.959 73.6328-81.5918Z"/>
  </g>
  <g id="Heavy-S" transform="matrix(1 0 0 1 2572 696)">
   <path d="M119.614-35.5187L119.614-48.2662C118.132-47.4992 116.598-46.6345 114.992-45.6376L101.251-37.0093L85.7528-35.0792C74.6355-33.7208 68.3285-27.1011 68.3285-17.2248L68.3285-10.1305C68.3285-2.44322 72.9001 1.72962 79.9932 1.72962L91.9725 1.72962L91.9725-9.24369L81.9133-9.24369C80.2729-9.24369 79.3018-10.2724 79.3018-12.0051L79.3018-17.8963C79.3018-21.5453 81.509-23.5112 86.0864-24.0801L105.004-26.392L118.809-35.021C119.082-35.2108 119.341-35.3518 119.614-35.5187ZM118.122 1.72962L118.122-9.24369L107.359-9.24369L107.359 1.72962ZM100.187 9.6513C108.13 9.6513 114.571 3.20992 114.571-4.7336C114.571-12.7633 108.13-19.2419 100.187-19.2419C92.2172-19.2419 85.727-12.7633 85.727-4.7336C85.727 3.20992 92.2172 9.6513 100.187 9.6513ZM100.187-0.2029C97.71-0.2029 95.7678-2.1451 95.7678-4.62169C95.7678-7.10979 97.71-9.052 100.187-9.052C102.637-9.052 104.605-7.10979 104.605-4.62169C104.605-2.1451 102.637-0.2029 100.187-0.2029ZM29.9307 9.6513C37.8742 9.6513 44.3529 3.20992 44.3529-4.7336C44.3529-12.7633 37.8742-19.2419 29.9307-19.2419C21.9499-19.2419 15.5085-12.7633 15.5085-4.7336C15.5085 3.20992 21.9499 9.6513 29.9307 9.6513ZM29.9307-0.2029C27.4426-0.2029 25.5119-2.1451 25.5119-4.62169C25.5119-7.10979 27.4426-9.052 29.9307-9.052C32.37-9.052 34.3495-7.10979 34.3495-4.62169C34.3495-2.1451 32.37-0.2029 29.9307-0.2029ZM9.76562-52.8609L9.76562-41.8502L14.6436-41.8502C23.8321-41.8502 30.6428-38.2913 37.1112-28.9108L46.5772-26.4782C48.1469-26.0584 48.8794-24.8744 48.8794-23.3541L48.8794-11.9935C48.8794-10.1605 47.9944-9.24369 46.2536-9.24369L37.9006-9.24369L37.9006 1.72962L49.0668 1.72962C55.6601 1.72962 59.8154-2.58637 59.8154-9.20274L59.8154-23.3541C59.8154-28.8711 58.2244-34.5081 49.7728-37.265L43.2896-39.3734C38.364-45.0802 29.6963-52.8609 14.6436-52.8609ZM9.76562-9.24369L9.76562 1.72962L24.0865 1.72962L24.0865-9.24369ZM72.1807-80.9234L70.5348-74.1818L61.8116-83.1118C60.9672-84.005 59.5803-83.2699 59.9967-82.0091L63.0702-73.0214L59.4678-74.6646C58.1555-75.2417 57.3227-74.1851 58.1928-73.0335L60.1262-70.5542L49.9694-71.956C48.5506-72.1513 48.0712-70.5087 49.2342-69.8109L58.8682-64.0058L53.4477-61.9462C52.1239-61.4437 52.345-59.8873 53.7665-59.7896L59.8821-59.3759L51.2878-53.5478C50.0358-52.7007 50.6014-51.0351 52.244-51.4027L63.1678-53.8529L63.3028-44.2507C63.3028-42.8523 64.5893-42.8666 65.1292-43.7482L72.6487-56.0644L84.7241-45.1724C85.8384-44.1931 87.3833-45.3331 86.6739-46.68L79.5877-60.0107L87.0184-62.231C87.877-62.5009 87.9516-63.5663 87.093-63.9224L80.4924-66.6195L85.2145-80.1537C85.5821-81.1702 84.4047-82.2126 83.4973-81.2937L75.9717-74.1329L74.2167-80.9607C73.9352-82.0865 72.4995-82.1984 72.1807-80.9234Z"/>
  </g>
  <g id="Bold-S" transform="matrix(1 0 0 1 2275.84 696)">
   <path d="M118.506-36.7432L118.506-47.583C116.895-46.7773 115.283-45.874 113.574-44.7998L99.7559-36.1328L84.3994-34.2285C73.6816-32.9346 67.5293-26.6113 67.5293-17.2119L67.5293-10.1562C67.5293-3.10059 71.7529 0.878906 78.3691 0.878906L90.0391 0.878906L90.0391-8.49609L79.7607-8.49609C77.9785-8.49609 76.9043-9.69238 76.9043-11.6699L76.9043-17.6514C76.9043-21.7773 79.6143-24.1943 84.8877-24.8535L102.954-27.0752L117.236-35.9619C117.651-36.2549 118.091-36.499 118.506-36.7432ZM117.529 0.878906L117.529-8.49609L105.542-8.49609L105.542 0.878906ZM98.0469 8.81348C105.591 8.81348 111.646 2.75879 111.646-4.78516C111.646-12.4023 105.591-18.4814 98.0469-18.4814C90.5029-18.4814 84.3994-12.4023 84.3994-4.78516C84.3994 2.75879 90.5029 8.81348 98.0469 8.81348ZM98.0469 0.170898C95.3125 0.170898 93.1641-1.97754 93.1641-4.71191C93.1641-7.4707 95.3125-9.61914 98.0469-9.61914C100.781-9.61914 102.93-7.4707 102.93-4.71191C102.93-1.97754 100.781 0.170898 98.0469 0.170898ZM30.6396 8.81348C38.1836 8.81348 44.2627 2.75879 44.2627-4.78516C44.2627-12.4023 38.1836-18.4814 30.6396-18.4814C23.0713-18.4814 17.0166-12.4023 17.0166-4.78516C17.0166 2.75879 23.0713 8.81348 30.6396 8.81348ZM30.6396 0.170898C27.8809 0.170898 25.7568-1.97754 25.7568-4.71191C25.7568-7.4707 27.8809-9.61914 30.6396-9.61914C33.3496-9.61914 35.5225-7.4707 35.5225-4.71191C35.5225-1.97754 33.3496 0.170898 30.6396 0.170898ZM9.76562-51.8555L9.76562-42.4561L14.9658-42.4561C24.2188-42.4561 31.2744-38.7939 37.7686-29.5166L46.8994-27.1484C49.0234-26.5869 49.7559-25.1709 49.7559-23.3154L49.7559-11.6455C49.7559-9.61914 48.7549-8.49609 46.9238-8.49609L38.4033-8.49609L38.4033 0.878906L49.1699 0.878906C55.2734 0.878906 59.1064-3.07617 59.1064-9.22852L59.1064-23.3154C59.1064-28.6133 57.5928-33.8379 49.6826-36.4014L42.9932-38.5742C38.1836-44.165 29.7607-51.8555 14.9658-51.8555ZM9.76562-8.49609L9.76562 0.878906L24.0479 0.878906L24.0479-8.49609ZM70.5566-80.1758L68.8721-73.2666L60.0586-82.2998C59.2529-83.1543 58.0078-82.4707 58.3984-81.2744L61.5234-72.1191L57.7148-73.8525C56.5186-74.3652 55.7373-73.4375 56.543-72.3633L58.6182-69.6777L48.2422-71.1182C46.875-71.3135 46.46-69.7998 47.5586-69.1406L57.373-63.2324L51.7334-61.1084C50.5127-60.6445 50.708-59.2041 52.0264-59.1064L58.374-58.667L49.5605-52.71C48.4375-51.9531 48.9258-50.3906 50.4395-50.7324L61.6211-53.2471L61.7432-43.5547C61.7432-42.2852 62.9395-42.2607 63.4277-43.0908L70.9473-55.4199L83.2031-44.3604C84.2529-43.4326 85.6689-44.4824 84.9854-45.752L77.7832-59.3018L85.2783-61.5479C86.0596-61.792 86.1084-62.793 85.3271-63.1104L78.6621-65.8203L83.4229-79.4189C83.7646-80.3711 82.6904-81.3232 81.8604-80.4688L74.2188-73.2178L72.4121-80.2002C72.1436-81.2744 70.8496-81.3477 70.5566-80.1758Z"/>
  </g>
  <g id="Semibold-S" transform="matrix(1 0 0 1 1979.51 696)">
   <path d="M117.742-37.5874L117.742-47.112C116.041-46.2797 114.377-45.3497 112.597-44.2222L98.725-35.5285L83.4663-33.642C73.024-32.3925 66.9783-26.2736 66.9783-17.203L66.9783-10.174C66.9783-3.55381 70.962 0.292383 77.2494 0.292383L88.7061 0.292383L88.7061-7.98066L78.2767-7.98066C76.3967-7.98066 75.2514-9.29248 75.2514-11.4389L75.2514-17.4825C75.2514-21.9373 78.3079-24.6653 84.0612-25.3867L101.541-27.5462L116.152-36.6106C116.665-36.9747 117.229-37.2899 117.742-37.5874ZM117.121 0.292383L117.121-7.98066L104.289-7.98066L104.289 0.292383ZM96.5717 8.23584C103.84 8.23584 109.628 2.44775 109.628-4.8207C109.628-12.1535 103.84-17.9571 96.5717-17.9571C89.321-17.9571 83.4841-12.1535 83.4841-4.8207C83.4841 2.44775 89.321 8.23584 96.5717 8.23584ZM96.5717 0.428613C93.6596 0.428613 91.3689-1.86201 91.3689-4.77412C91.3689-7.71953 93.6596-10.0102 96.5717-10.0102C99.5016-10.0102 101.774-7.71953 101.774-4.77412C101.774-1.86201 99.5016 0.428613 96.5717 0.428613ZM31.1284 8.23584C38.3969 8.23584 44.2005 2.44775 44.2005-4.8207C44.2005-12.1535 38.3969-17.9571 31.1284-17.9571C23.8444-17.9571 18.0563-12.1535 18.0563-4.8207C18.0563 2.44775 23.8444 8.23584 31.1284 8.23584ZM31.1284 0.428613C28.183 0.428613 25.9257-1.86201 25.9257-4.77412C25.9257-7.71953 28.183-10.0102 31.1284-10.0102C34.025-10.0102 36.3312-7.71953 36.3312-4.77412C36.3312-1.86201 34.025 0.428613 31.1284 0.428613ZM9.76562-51.1623L9.76562-42.8737L15.188-42.8737C24.4854-42.8737 31.7099-39.1405 38.2218-29.9343L47.1216-27.6105C49.6277-26.9513 50.3602-25.3753 50.3602-23.2888L50.3602-11.4056C50.3602-9.2459 49.2792-7.98066 47.3859-7.98066L38.7499-7.98066L38.7499 0.292383L49.241 0.292383C55.0068 0.292383 58.6177-3.41387 58.6177-9.24629L58.6177-23.2888C58.6177-28.4355 57.1573-33.3758 49.6204-35.806L42.7888-38.0232C38.0592-43.5341 29.8052-51.1623 15.188-51.1623ZM9.76562-7.98066L9.76562 0.292383L24.0212 0.292383L24.0212-7.98066ZM69.4369-79.6604L67.7257-72.6356L58.85-81.7399C58.071-82.5678 56.9236-81.9197 57.2965-80.7679L60.457-71.4971L56.5063-73.2927C55.3899-73.7609 54.6442-72.9221 55.4055-71.9012L57.5784-69.0734L47.0514-70.5405C45.7197-70.7358 45.3491-69.311 46.4033-68.6785L56.3422-62.6992L50.5515-60.5308C49.4019-60.0936 49.5794-58.7331 50.8267-58.6354L57.3343-58.1782L48.3697-52.1323C47.3355-51.4377 47.7705-49.9463 49.1953-50.2703L60.5547-52.8294L60.6679-43.0748C60.6679-41.8941 61.802-41.8431 62.2547-42.6376L69.7742-54.9756L82.1545-43.8005C83.1599-42.9083 84.487-43.8959 83.8212-45.1121L76.5391-58.813L84.0786-61.0769C84.8065-61.3032 84.8376-62.2598 84.1097-62.5505L77.4002-65.2693L82.1876-78.9124C82.5116-79.8201 81.5085-80.7101 80.7317-79.9L73.0102-72.5868L71.168-79.6759C70.9083-80.7146 69.7121-80.7611 69.4369-79.6604Z"/>
  </g>
  <g id="Medium-S" transform="matrix(1 0 0 1 1683.09 696)">
   <path d="M117.162-38.2275L117.162-46.7549C115.395-45.9023 113.689-44.9521 111.855-43.7842L97.9434-35.0703L82.7588-33.1973C72.5254-31.9814 66.5605-26.0176 66.5605-17.1963L66.5605-10.1875C66.5605-3.89746 70.3623-0.152344 76.4004-0.152344L87.6953-0.152344L87.6953-7.58984L77.1514-7.58984C75.1973-7.58984 73.998-8.98926 73.998-11.2637L73.998-17.3545C73.998-22.0586 77.3174-25.0225 83.4346-25.791L100.47-27.9033L115.33-37.1025C115.917-37.5205 116.575-37.8896 117.162-38.2275ZM116.811-0.152344L116.811-7.58984L103.339-7.58984L103.339-0.152344ZM95.4531 7.79785C102.513 7.79785 108.099 2.21191 108.099-4.84766C108.099-11.9648 102.513-17.5596 95.4531-17.5596C88.4248-17.5596 82.79-11.9648 82.79-4.84766C82.79 2.21191 88.4248 7.79785 95.4531 7.79785ZM95.4531 0.624023C92.4062 0.624023 90.0078-1.77441 90.0078-4.82129C90.0078-7.9082 92.4062-10.3066 95.4531-10.3066C98.5312-10.3066 100.898-7.9082 100.898-4.82129C100.898-1.77441 98.5312 0.624023 95.4531 0.624023ZM31.499 7.79785C38.5586 7.79785 44.1533 2.21191 44.1533-4.84766C44.1533-11.9648 38.5586-17.5596 31.499-17.5596C24.4307-17.5596 18.8447-11.9648 18.8447-4.84766C18.8447 2.21191 24.4307 7.79785 31.499 7.79785ZM31.499 0.624023C28.4121 0.624023 26.0537-1.77441 26.0537-4.82129C26.0537-7.9082 28.4121-10.3066 31.499-10.3066C34.5371-10.3066 36.9443-7.9082 36.9443-4.82129C36.9443-1.77441 34.5371 0.624023 31.499 0.624023ZM9.76562-50.6367L9.76562-43.1904L15.3564-43.1904C24.6875-43.1904 32.04-39.4033 38.5654-30.251L47.29-27.9609C50.0859-27.2275 50.8184-25.5303 50.8184-23.2686L50.8184-11.2236C50.8184-8.96289 49.6768-7.58984 47.7363-7.58984L39.0127-7.58984L39.0127-0.152344L49.2949-0.152344C54.8047-0.152344 58.2471-3.66992 58.2471-9.25977L58.2471-23.2686C58.2471-28.3008 56.8271-33.0254 49.5732-35.3545L42.6338-37.6055C37.9648-43.0557 29.8389-50.6367 15.3564-50.6367ZM9.76562-7.58984L9.76562-0.152344L24.001-0.152344L24.001-7.58984ZM68.5879-79.2695L66.8564-72.1572L57.9336-81.3154C57.1748-82.123 56.1016-81.502 56.4609-80.3838L59.6484-71.0254L55.5898-72.8682C54.5342-73.3027 53.8154-72.5312 54.543-71.5508L56.79-68.6152L46.1484-70.1025C44.8438-70.2979 44.5068-68.9404 45.5273-68.3281L55.5605-62.2949L49.6553-60.0928C48.5596-59.6758 48.7236-58.376 49.917-58.2783L56.5459-57.8076L47.4668-51.6943C46.5-51.0469 46.8945-49.6094 48.252-49.9199L59.7461-52.5127L59.8525-42.7109C59.8525-41.5977 60.9395-41.5264 61.3652-42.2939L68.8848-54.6387L81.3594-43.376C82.3311-42.5107 83.5908-43.4512 82.9385-44.627L75.5957-58.4424L83.1689-60.7197C83.8564-60.9326 83.874-61.8555 83.1865-62.126L76.4434-64.8516L81.251-78.5283C81.5615-79.4023 80.6123-80.2451 79.876-79.4688L72.0938-72.1084L70.2246-79.2783C69.9717-80.29 68.8496-80.3164 68.5879-79.2695Z"/>
  </g>
  <g id="Regular-S" transform="matrix(1 0 0 1 1386.76 696)">
   <path d="M116.406-39.0625L116.406-46.2891C114.551-45.4102 112.793-44.4336 110.889-43.2129L96.9238-34.4727L81.8359-32.6172C71.875-31.4453 66.0156-25.6836 66.0156-17.1875L66.0156-10.2051C66.0156-4.3457 69.5801-0.732422 75.293-0.732422L86.377-0.732422L86.377-7.08008L75.6836-7.08008C73.6328-7.08008 72.3633-8.59375 72.3633-11.0352L72.3633-17.1875C72.3633-22.2168 76.0254-25.4883 82.6172-26.3184L99.0723-28.3691L114.258-37.7441C114.941-38.2324 115.723-38.6719 116.406-39.0625ZM116.406-0.732422L116.406-7.08008L102.1-7.08008L102.1-0.732422ZM93.9941 7.22656C100.781 7.22656 106.104 1.9043 106.104-4.88281C106.104-11.7188 100.781-17.041 93.9941-17.041C87.2559-17.041 81.8848-11.7188 81.8848-4.88281C81.8848 1.9043 87.2559 7.22656 93.9941 7.22656ZM93.9941 0.878906C90.7715 0.878906 88.2324-1.66016 88.2324-4.88281C88.2324-8.1543 90.7715-10.6934 93.9941-10.6934C97.2656-10.6934 99.7559-8.1543 99.7559-4.88281C99.7559-1.66016 97.2656 0.878906 93.9941 0.878906ZM31.9824 7.22656C38.7695 7.22656 44.0918 1.9043 44.0918-4.88281C44.0918-11.7188 38.7695-17.041 31.9824-17.041C25.1953-17.041 19.873-11.7188 19.873-4.88281C19.873 1.9043 25.1953 7.22656 31.9824 7.22656ZM31.9824 0.878906C28.7109 0.878906 26.2207-1.66016 26.2207-4.88281C26.2207-8.1543 28.7109-10.6934 31.9824-10.6934C35.2051-10.6934 37.7441-8.1543 37.7441-4.88281C37.7441-1.66016 35.2051 0.878906 31.9824 0.878906ZM9.76562-49.9512L9.76562-43.6035L15.5762-43.6035C24.9512-43.6035 32.4707-39.7461 39.0137-30.6641L47.5098-28.418C50.6836-27.5879 51.416-25.7324 51.416-23.2422L51.416-10.9863C51.416-8.59375 50.1953-7.08008 48.1934-7.08008L39.3555-7.08008L39.3555-0.732422L49.3652-0.732422C54.541-0.732422 57.7637-4.00391 57.7637-9.27734L57.7637-23.2422C57.7637-28.125 56.3965-32.5684 49.5117-34.7656L42.4316-37.0605C37.8418-42.4316 29.8828-49.9512 15.5762-49.9512ZM9.76562-7.08008L9.76562-0.732422L23.9746-0.732422L23.9746-7.08008ZM67.4805-78.7598L65.7227-71.5332L56.7383-80.7617C56.0059-81.543 55.0293-80.957 55.3711-79.8828L58.5938-70.4102L54.3945-72.3145C53.418-72.7051 52.7344-72.0215 53.418-71.0938L55.7617-68.0176L44.9707-69.5312C43.7012-69.7266 43.4082-68.457 44.3848-67.8711L54.541-61.7676L48.4863-59.5215C47.4609-59.1309 47.6074-57.9102 48.7305-57.8125L55.5176-57.3242L46.2891-51.123C45.4102-50.5371 45.752-49.1699 47.0215-49.4629L58.6914-52.0996L58.7891-42.2363C58.7891-41.2109 59.8145-41.1133 60.2051-41.8457L67.7246-54.1992L80.3223-42.8223C81.25-41.9922 82.4219-42.8711 81.7871-43.9941L74.3652-57.959L81.9824-60.2539C82.6172-60.4492 82.6172-61.3281 81.9824-61.5723L75.1953-64.3066L80.0293-78.0273C80.3223-78.8574 79.4434-79.6387 78.7598-78.9062L70.8984-71.4844L68.9941-78.7598C68.75-79.7363 67.7246-79.7363 67.4805-78.7598Z"/>
  </g>
  <g id="Light-S" transform="matrix(1 0 0 1 1092.04 696)">
   <path d="M112.425-39.8345L112.425-45.502C110.782-44.6987 109.175-43.7979 107.453-42.6982L93.5786-34.0034L78.188-32.1177C68.9536-31.0215 63.5484-25.6987 63.5484-17.7476L63.5484-11.0225C63.5484-5.22363 66.689-2.06444 72.3262-2.06444L82.4414-2.06444L82.4414-7.01953L72.5957-7.01953C69.8941-7.01953 68.5034-8.56348 68.5034-11.5952L68.5034-17.7476C68.5034-23.0039 72.1807-26.3965 78.8028-27.2114L95.2578-29.2319L110.065-38.4102C110.855-38.9438 111.681-39.4287 112.425-39.8345ZM112.425-2.06444L112.425-7.01953L98.8301-7.01953L98.8301-2.06444ZM90.4824 5.75831C96.9366 5.75831 102.001 0.678232 102.001-5.77587C102.001-12.2788 96.9366-17.3286 90.4824-17.3286C84.0469-17.3286 78.9483-12.2788 78.9483-5.77587C78.9483 0.678232 84.0469 5.75831 90.4824 5.75831ZM90.4824 0.803223C86.7754 0.803223 83.9034-2.08398 83.9034-5.77587C83.9034-9.50145 86.7754-12.3735 90.4824-12.3735C94.208-12.3735 97.0464-9.50145 97.0464-5.77587C97.0464-2.08398 94.208 0.803223 90.4824 0.803223ZM30.5444 5.75831C36.9985 5.75831 42.0786 0.678232 42.0786-5.77587C42.0786-12.2788 36.9985-17.3286 30.5444-17.3286C24.0752-17.3286 19.0103-12.2788 19.0103-5.77587C19.0103 0.678232 24.0752 5.75831 30.5444 5.75831ZM30.5444 0.803223C26.8189 0.803223 23.9653-2.08398 23.9653-5.77587C23.9653-9.50145 26.8189-12.3735 30.5444-12.3735C34.2363-12.3735 37.1235-9.50145 37.1235-5.77587C37.1235-2.08398 34.2363 0.803223 30.5444 0.803223ZM9.76562-49.2398L9.76562-44.2847L14.3652-44.2847C23.7402-44.2847 31.3203-40.4272 37.8482-31.436L46.2232-29.2505C49.3516-28.4355 50.3262-26.5498 50.3262-23.8325L50.3262-11.1377C50.3262-8.54834 49.0147-7.01953 46.7402-7.01953L38.4473-7.01953L38.4473-2.06444L47.5337-2.06444C52.3613-2.06444 55.2813-5.0332 55.2813-9.97363L55.2813-23.8325C55.2813-28.5488 53.7022-32.4321 47.7105-34.251L40.6152-36.3945C36.2525-41.6143 28.5508-49.2398 14.3652-49.2398ZM9.76562-7.01953L9.76562-2.06444L22.2793-2.06444L22.2793-7.01953ZM64.877-77.125L63.2403-70.3525L54.8008-79.0059C54.0835-79.7569 53.1372-79.2012 53.479-78.1724L56.5049-69.29L52.5933-71.0581C51.6621-71.4487 50.9634-70.7803 51.647-69.8677L53.8091-67.0488L43.6841-68.4414C42.5205-68.6216 42.1519-67.4429 43.1284-66.8569L52.6641-61.0864L47.0029-58.9917C45.9776-58.6011 46.124-57.4409 47.2319-57.3433L53.5498-56.8853L44.9268-51.0776C44.0327-50.4766 44.4199-49.1851 45.6138-49.4629L56.6026-51.9482L56.7002-42.6904C56.7002-41.7104 57.7256-41.6279 58.1011-42.2998L65.1514-53.9116L77.0225-43.231C77.9351-42.416 79.0313-43.2949 78.4419-44.3574L71.4439-57.4897L78.5918-59.6333C79.2115-59.8286 79.2115-60.6773 78.607-60.9214L72.2588-63.5044L76.8052-76.4229C77.0982-77.2681 76.2344-78.0039 75.5508-77.2715L68.1587-70.3037L66.3755-77.1401C66.1314-78.1016 65.1211-78.147 64.877-77.125Z"/>
  </g>
  <g id="Thin-S" transform="matrix(1 0 0 1 797.959 696)">
   <path d="M107.16-40.8555L107.16-44.461C105.797-43.7578 104.391-42.957 102.908-42.0176L89.1544-33.3828L73.3633-31.457C65.0899-30.4609 60.2852-25.7187 60.2852-18.4883L60.2852-12.1035C60.2852-6.38475 62.8653-3.82615 68.4024-3.82615L77.2364-3.82615L77.2364-6.93945L68.5118-6.93945C64.9493-6.93945 63.3985-8.52344 63.3985-12.3359L63.3985-18.4883C63.3985-24.0449 67.0958-27.5976 73.7579-28.3926L90.213-30.373L104.52-39.291C105.449-39.8848 106.336-40.4297 107.16-40.8555ZM107.16-3.82615L107.16-6.93945L94.5059-6.93945L94.5059-3.82615ZM85.838 3.81643C91.8516 3.81643 96.5762-0.943337 96.5762-6.95701C96.5762-13.0195 91.8516-17.709 85.838-17.709C79.8028-17.709 75.0645-13.0195 75.0645-6.95701C75.0645-0.943337 79.8028 3.81643 85.838 3.81643ZM85.838 0.703126C81.4903 0.703126 78.1778-2.64452 78.1778-6.95701C78.1778-11.2832 81.4903-14.5957 85.838-14.5957C90.1641-14.5957 93.4629-11.2832 93.4629-6.95701C93.4629-2.64452 90.1641 0.703126 85.838 0.703126ZM28.6426 3.81643C34.6563 3.81643 39.4161-0.943337 39.4161-6.95701C39.4161-13.0195 34.6563-17.709 28.6426-17.709C22.5938-17.709 17.8692-13.0195 17.8692-6.95701C17.8692-0.943337 22.5938 3.81643 28.6426 3.81643ZM28.6426 0.703126C24.3164 0.703126 20.9825-2.64452 20.9825-6.95701C20.9825-11.2832 24.3164-14.5957 28.6426-14.5957C32.9551-14.5957 36.3027-11.2832 36.3027-6.95701C36.3027-2.64452 32.9551 0.703126 28.6426 0.703126ZM9.76562-48.2988L9.76562-45.1855L12.7637-45.1855C22.1387-45.1855 29.7988-41.3281 36.3067-32.457L44.5215-30.3515C47.5899-29.5566 48.8848-27.6308 48.8848-24.6133L48.8848-11.3379C48.8848-8.48828 47.4531-6.93945 44.8184-6.93945L37.2461-6.93945L37.2461-3.82615L45.1114-3.82615C49.4786-3.82615 51.9981-6.39451 51.9981-10.8945L51.9981-24.6133C51.9981-29.1094 50.1387-32.252 45.3282-33.5703L38.2129-35.5137C34.1504-40.5332 26.7891-48.2988 12.7637-48.2988ZM9.76562-6.93945L9.76562-3.82615L20.0371-3.82615L20.0371-6.93945ZM61.4336-74.9629L59.9571-68.791L52.2383-76.6836C51.5411-77.3946 50.6348-76.8789 50.9766-75.9102L53.7422-67.8086L50.211-69.3965C49.3399-69.7871 48.6211-69.1387 49.3047-68.2461L51.2266-65.7676L41.9824-67C40.959-67.1602 40.4903-66.1016 41.4668-65.5156L50.1817-60.1856L45.041-58.291C44.0157-57.9004 44.1621-56.8203 45.25-56.7227L50.9473-56.3047L43.125-51.0176C42.211-50.3965 42.6582-49.2051 43.752-49.4629L53.8399-51.748L53.9375-43.291C53.9375-42.3711 54.9629-42.3086 55.3184-42.9004L61.7481-53.5313L72.6583-43.7715C73.5508-42.9766 74.5469-43.8555 74.0176-44.8379L67.5801-56.8691L74.1075-58.8125C74.7071-59.0078 74.7071-59.8164 74.1426-60.0606L68.3751-62.4434L72.5411-74.3008C72.834-75.166 71.9903-75.8418 71.3067-75.1094L64.5352-68.7422L62.9122-74.9981C62.668-75.9395 61.6778-76.045 61.4336-74.9629Z"/>
  </g>
  <g id="Ultralight-S" transform="matrix(1 0 0 1 502.597 696)">
   <path d="M104.463-41.3784L104.463-43.9278C103.244-43.2759 101.94-42.5264 100.581-41.669L86.8883-33.065L70.8922-31.1187C63.1109-30.1738 58.6138-25.729 58.6138-18.8677L58.6138-12.6572C58.6138-6.97947 60.9068-4.72848 66.3926-4.72848L74.5704-4.72848L74.5704-6.89844L66.42-6.89844C62.4166-6.89844 60.7838-8.50293 60.7838-12.7153L60.7838-18.8677C60.7838-24.5781 64.4913-28.2129 71.1739-28.9975L87.629-30.9575L101.679-39.7422C102.681-40.3667 103.598-40.9424 104.463-41.3784ZM104.463-4.72848L104.463-6.89844L92.2911-6.89844L92.2911-4.72848ZM83.4591 2.82181C89.2472 2.82181 93.7975-1.7739 93.7975-7.56199C93.7975-13.3989 89.2472-17.9038 83.4591-17.9038C77.629-17.9038 73.0753-13.3989 73.0753-7.56199C73.0753-1.7739 77.629 2.82181 83.4591 2.82181ZM83.4591 0.651857C78.7833 0.651857 75.2452-2.93163 75.2452-7.56199C75.2452-12.1958 78.7833-15.7338 83.4591-15.7338C88.0928-15.7338 91.6275-12.1958 91.6275-7.56199C91.6275-2.93163 88.0928 0.651857 83.4591 0.651857ZM27.6685 2.82181C33.4566 2.82181 38.0523-1.7739 38.0523-7.56199C38.0523-13.3989 33.4566-17.9038 27.6685-17.9038C21.835-17.9038 17.2847-13.3989 17.2847-7.56199C17.2847-1.7739 21.835 2.82181 27.6685 2.82181ZM27.6685 0.651857C23.0347 0.651857 19.4546-2.93163 19.4546-7.56199C19.4546-12.1958 23.0347-15.7338 27.6685-15.7338C32.2989-15.7338 35.8823-12.1958 35.8823-7.56199C35.8823-2.93163 32.2989 0.651857 27.6685 0.651857ZM9.76562-47.8169L9.76562-45.647L11.9434-45.647C21.3184-45.647 29.0196-41.7895 35.5171-32.98L43.6499-30.9155C46.6875-30.1308 48.1465-28.1846 48.1465-25.0132L48.1465-11.4404C48.1465-8.45752 46.6533-6.89844 43.834-6.89844L36.6309-6.89844L36.6309-4.72848L43.8706-4.72848C48.002-4.72848 50.3165-7.09177 50.3165-11.3662L50.3165-25.0132C50.3165-29.3965 48.3135-32.1597 44.108-33.2217L36.9825-35.0625C33.0738-39.9795 25.8868-47.8169 11.9434-47.8169ZM9.76562-6.89844L9.76562-4.72848L18.8887-4.72848L18.8887-6.89844ZM59.67-73.8555L58.2754-67.9912L50.9258-75.4942C50.2388-76.1846 49.3531-75.6895 49.6949-74.7515L52.3272-67.0498L48.9908-68.5454C48.1504-68.9361 47.4214-68.2979 48.105-67.4156L49.9039-65.1114L41.1109-66.2617C40.1592-66.4116 39.6392-65.4146 40.6158-64.8286L48.9102-59.7241L44.0362-57.9321C43.0108-57.5415 43.1573-56.5025 44.2349-56.4048L49.6143-56.0073L42.2022-50.9868C41.2779-50.3555 41.7559-49.2153 42.7984-49.4629L52.4249-51.6455L52.5225-43.5986C52.5225-42.7095 53.5479-42.6572 53.8931-43.208L60.0049-53.3364L70.4229-44.0483C71.3053-43.2637 72.2501-44.1426 71.7515-45.084L65.6011-56.5513L71.8106-58.3921C72.4-58.5874 72.4-59.3755 71.856-59.6196L66.3858-61.8999L70.357-73.2139C70.65-74.0894 69.8165-74.7344 69.1329-74.002L62.6793-67.9424L61.1382-73.9009C60.8941-74.8321 59.9141-74.9683 59.67-73.8555Z"/>
  </g>
 </g>
</svg>
