<?xml version="1.0" encoding="UTF-8"?>
<!--Generator: Apple Native CoreSVG 232.5-->
<!DOCTYPE svg
PUBLIC "-//W3C//DTD SVG 1.1//EN"
       "http://www.w3.org/Graphics/SVG/1.1/DTD/svg11.dtd">
<svg version="1.1" xmlns="http://www.w3.org/2000/svg" xmlns:xlink="http://www.w3.org/1999/xlink" width="3300" height="2200">
 <!--glyph: "uni101D74.medium", point size: 100.0, font version: "19.2d2e1", template writer version: "128"-->
 <style>.monochrome-0 {-sfsymbols-motion-group:1}
.monochrome-1 {-sfsymbols-motion-group:0}

.multicolor-0:tintColor {-sfsymbols-motion-group:1}
.multicolor-1:tintColor {-sfsymbols-motion-group:0}

.hierarchical-0:secondary {-sfsymbols-motion-group:1}
.hierarchical-1:primary {-sfsymbols-motion-group:0}

.SFSymbolsPreviewWireframe {fill:none;opacity:1.0;stroke:black;stroke-width:0.5}
</style>
 <g id="Notes">
  <rect height="2200" id="artboard" style="fill:white;opacity:1" width="3300" x="0" y="0"/>
  <line style="fill:none;stroke:black;opacity:1;stroke-width:0.5;" x1="263" x2="3036" y1="292" y2="292"/>
  <text style="stroke:none;fill:black;font-family:sans-serif;font-size:13;font-weight:bold;" transform="matrix(1 0 0 1 263 322)">Weight/Scale Variations</text>
  <text style="stroke:none;fill:black;font-family:sans-serif;font-size:13;text-anchor:middle;" transform="matrix(1 0 0 1 559.711 322)">Ultralight</text>
  <text style="stroke:none;fill:black;font-family:sans-serif;font-size:13;text-anchor:middle;" transform="matrix(1 0 0 1 856.422 322)">Thin</text>
  <text style="stroke:none;fill:black;font-family:sans-serif;font-size:13;text-anchor:middle;" transform="matrix(1 0 0 1 1153.13 322)">Light</text>
  <text style="stroke:none;fill:black;font-family:sans-serif;font-size:13;text-anchor:middle;" transform="matrix(1 0 0 1 1449.84 322)">Regular</text>
  <text style="stroke:none;fill:black;font-family:sans-serif;font-size:13;text-anchor:middle;" transform="matrix(1 0 0 1 1746.56 322)">Medium</text>
  <text style="stroke:none;fill:black;font-family:sans-serif;font-size:13;text-anchor:middle;" transform="matrix(1 0 0 1 2043.27 322)">Semibold</text>
  <text style="stroke:none;fill:black;font-family:sans-serif;font-size:13;text-anchor:middle;" transform="matrix(1 0 0 1 2339.98 322)">Bold</text>
  <text style="stroke:none;fill:black;font-family:sans-serif;font-size:13;text-anchor:middle;" transform="matrix(1 0 0 1 2636.69 322)">Heavy</text>
  <text style="stroke:none;fill:black;font-family:sans-serif;font-size:13;text-anchor:middle;" transform="matrix(1 0 0 1 2933.4 322)">Black</text>
  <line style="fill:none;stroke:black;opacity:1;stroke-width:0.5;" x1="263" x2="3036" y1="1903" y2="1903"/>
  <g transform="matrix(0.2 0 0 0.2 263 1933)">
   <path d="m46.2402 4.15039c21.5332 0 39.4531-17.8711 39.4531-39.4043s-17.9688-39.4043-39.502-39.4043c-21.4844 0-39.3555 17.8711-39.3555 39.4043s17.9199 39.4043 39.4043 39.4043Zm0-7.42188c-17.7246 0-31.8848-14.209-31.8848-31.9824s14.1113-31.9824 31.8359-31.9824c17.7734 0 32.0312 14.209 32.0312 31.9824s-14.209 31.9824-31.9824 31.9824Zm-17.9688-31.9824c0 2.14844 1.51367 3.61328 3.75977 3.61328h10.498v10.5957c0 2.19727 1.46484 3.71094 3.61328 3.71094 2.24609 0 3.71094-1.51367 3.71094-3.71094v-10.5957h10.5957c2.19727 0 3.71094-1.46484 3.71094-3.61328 0-2.19727-1.51367-3.71094-3.71094-3.71094h-10.5957v-10.5469c0-2.24609-1.46484-3.75977-3.71094-3.75977-2.14844 0-3.61328 1.51367-3.61328 3.75977v10.5469h-10.498c-2.24609 0-3.75977 1.51367-3.75977 3.71094Z"/>
  </g>
  <g transform="matrix(0.2 0 0 0.2 281.506 1933)">
   <path d="m58.5449 14.5508c27.2461 0 49.8047-22.6074 49.8047-49.8047 0-27.2461-22.6074-49.8047-49.8535-49.8047-27.1973 0-49.7559 22.5586-49.7559 49.8047 0 27.1973 22.6074 49.8047 49.8047 49.8047Zm0-8.30078c-23.0469 0-41.4551-18.457-41.4551-41.5039s18.3594-41.5039 41.4062-41.5039 41.5527 18.457 41.5527 41.5039-18.457 41.5039-41.5039 41.5039Zm-22.6562-41.5039c0 2.39258 1.66016 4.00391 4.15039 4.00391h14.3555v14.4043c0 2.44141 1.66016 4.15039 4.05273 4.15039 2.44141 0 4.15039-1.66016 4.15039-4.15039v-14.4043h14.4043c2.44141 0 4.15039-1.61133 4.15039-4.00391 0-2.44141-1.70898-4.15039-4.15039-4.15039h-14.4043v-14.3555c0-2.49023-1.70898-4.19922-4.15039-4.19922-2.39258 0-4.05273 1.70898-4.05273 4.19922v14.3555h-14.3555c-2.49023 0-4.15039 1.70898-4.15039 4.15039Z"/>
  </g>
  <g transform="matrix(0.2 0 0 0.2 304.924 1933)">
   <path d="m74.8535 28.3203c34.8145 0 63.623-28.8086 63.623-63.5742 0-34.8145-28.8574-63.623-63.6719-63.623-34.7656 0-63.5254 28.8086-63.5254 63.623 0 34.7656 28.8086 63.5742 63.5742 63.5742Zm0-9.08203c-30.1758 0-54.4434-24.3164-54.4434-54.4922 0-30.2246 24.2188-54.4922 54.3945-54.4922 30.2246 0 54.541 24.2676 54.541 54.4922 0 30.1758-24.2676 54.4922-54.4922 54.4922Zm-28.8574-54.4922c0 2.58789 1.85547 4.39453 4.58984 4.39453h19.7266v19.7754c0 2.68555 1.85547 4.58984 4.44336 4.58984 2.68555 0 4.54102-1.85547 4.54102-4.58984v-19.7754h19.7754c2.68555 0 4.58984-1.80664 4.58984-4.39453 0-2.73438-1.85547-4.58984-4.58984-4.58984h-19.7754v-19.7266c0-2.73438-1.85547-4.63867-4.54102-4.63867-2.58789 0-4.44336 1.9043-4.44336 4.63867v19.7266h-19.7266c-2.73438 0-4.58984 1.85547-4.58984 4.58984Z"/>
  </g>
  <text style="stroke:none;fill:black;font-family:sans-serif;font-size:13;font-weight:bold;" transform="matrix(1 0 0 1 263 1953)">Design Variations</text>
  <text style="stroke:none;fill:black;font-family:sans-serif;font-size:13;" transform="matrix(1 0 0 1 263 1971)">Symbols are supported in up to nine weights and three scales.</text>
  <text style="stroke:none;fill:black;font-family:sans-serif;font-size:13;" transform="matrix(1 0 0 1 263 1989)">For optimal layout with text and other symbols, vertically align</text>
  <text style="stroke:none;fill:black;font-family:sans-serif;font-size:13;" transform="matrix(1 0 0 1 263 2007)">symbols with the adjacent text.</text>
  <line style="fill:none;stroke:#00AEEF;stroke-width:0.5;opacity:1.0;" x1="776" x2="776" y1="1919" y2="1933"/>
  <g transform="matrix(0.2 0 0 0.2 776 1933)">
   <path d="m16.5527 0.78125c2.58789 0 3.85742-0.976562 4.78516-3.71094l6.29883-17.2363h28.8086l6.29883 17.2363c0.927734 2.73438 2.19727 3.71094 4.73633 3.71094 2.58789 0 4.24805-1.5625 4.24805-4.00391 0-0.830078-0.146484-1.61133-0.537109-2.63672l-22.9004-60.9863c-1.12305-2.97852-3.125-4.49219-6.25-4.49219-3.02734 0-5.07812 1.46484-6.15234 4.44336l-22.9004 61.084c-0.390625 1.02539-0.537109 1.80664-0.537109 2.63672 0 2.44141 1.5625 3.95508 4.10156 3.95508Zm13.4766-28.3691 11.8652-32.8613h0.244141l11.8652 32.8613Z"/>
  </g>
  <line style="fill:none;stroke:#00AEEF;stroke-width:0.5;opacity:1.0;" x1="792.836" x2="792.836" y1="1919" y2="1933"/>
  <text style="stroke:none;fill:black;font-family:sans-serif;font-size:13;font-weight:bold;" transform="matrix(1 0 0 1 776 1953)">Margins</text>
  <text style="stroke:none;fill:black;font-family:sans-serif;font-size:13;" transform="matrix(1 0 0 1 776 1971)">Leading and trailing margins on the left and right side of each symbol</text>
  <text style="stroke:none;fill:black;font-family:sans-serif;font-size:13;" transform="matrix(1 0 0 1 776 1989)">can be adjusted by modifying the x-location of the margin guidelines.</text>
  <text style="stroke:none;fill:black;font-family:sans-serif;font-size:13;" transform="matrix(1 0 0 1 776 2007)">Modifications are automatically applied proportionally to all</text>
  <text style="stroke:none;fill:black;font-family:sans-serif;font-size:13;" transform="matrix(1 0 0 1 776 2025)">scales and weights.</text>
  <g transform="matrix(0.2 0 0 0.2 1289 1933)">
   <path d="m14.209 9.32617 8.49609 8.54492c4.29688 4.3457 9.22852 4.05273 13.8672-1.07422l53.4668-58.9355-4.83398-4.88281-53.0762 58.3984c-1.75781 2.00195-3.41797 2.49023-5.76172 0.146484l-5.85938-5.81055c-2.34375-2.29492-1.80664-4.00391 0.195312-5.81055l57.373-54.0039-4.88281-4.83398-57.959 54.4434c-4.93164 4.58984-5.32227 9.47266-1.02539 13.8184Zm32.0801-90.9668c-2.09961 2.05078-2.24609 4.93164-1.07422 6.88477 1.17188 1.80664 3.4668 2.97852 6.68945 2.14844 7.32422-1.70898 14.9414-2.00195 22.0703 2.68555l-2.92969 7.27539c-1.70898 4.15039-0.830078 7.08008 1.85547 9.81445l11.4746 11.5723c2.44141 2.44141 4.49219 2.53906 7.32422 2.05078l5.32227-0.976562 3.32031 3.36914-0.195312 2.7832c-0.195312 2.49023 0.439453 4.39453 2.88086 6.78711l3.80859 3.71094c2.39258 2.39258 5.46875 2.53906 7.8125 0.195312l14.5508-14.5996c2.34375-2.34375 2.24609-5.32227-0.146484-7.71484l-3.85742-3.80859c-2.39258-2.39258-4.24805-3.17383-6.64062-2.97852l-2.88086 0.244141-3.22266-3.17383 1.2207-5.61523c0.634766-2.83203-0.146484-5.0293-3.07617-7.95898l-10.9863-10.9375c-16.6992-16.6016-38.8672-16.2109-53.3203-1.75781Zm7.4707 1.85547c12.1582-8.88672 28.6133-7.37305 39.7461 3.75977l12.1582 12.0605c1.17188 1.17188 1.36719 2.09961 1.02539 3.80859l-1.61133 7.42188 7.51953 7.42188 4.93164-0.292969c1.26953-0.0488281 1.66016 0.0488281 2.63672 1.02539l2.88086 2.88086-12.207 12.207-2.88086-2.88086c-0.976562-0.976562-1.12305-1.36719-1.07422-2.68555l0.341797-4.88281-7.4707-7.42188-7.61719 1.26953c-1.61133 0.341797-2.34375 0.195312-3.56445-0.976562l-10.0098-10.0098c-1.26953-1.17188-1.41602-2.00195-0.634766-3.85742l4.39453-10.4492c-7.8125-7.27539-17.9688-10.4004-28.125-7.42188-0.78125 0.195312-1.07422-0.439453-0.439453-0.976562Z"/>
  </g>
  <text style="stroke:none;fill:black;font-family:sans-serif;font-size:13;font-weight:bold;" transform="matrix(1 0 0 1 1289 1953)">Exporting</text>
  <text style="stroke:none;fill:black;font-family:sans-serif;font-size:13;" transform="matrix(1 0 0 1 1289 1971)">Symbols should be outlined when exporting to ensure the</text>
  <text style="stroke:none;fill:black;font-family:sans-serif;font-size:13;" transform="matrix(1 0 0 1 1289 1989)">design is preserved when submitting to Xcode.</text>
  <text id="template-version" style="stroke:none;fill:black;font-family:sans-serif;font-size:13;text-anchor:end;" transform="matrix(1 0 0 1 3036 1933)">Template v.5.0</text>
  <text style="stroke:none;fill:black;font-family:sans-serif;font-size:13;text-anchor:end;" transform="matrix(1 0 0 1 3036 1951)">Requires Xcode 15 or greater</text>
  <text id="descriptive-name" style="stroke:none;fill:black;font-family:sans-serif;font-size:13;text-anchor:end;" transform="matrix(1 0 0 1 3036 1969)">Generated from car.side.rear.and.collision.and.car.side.front</text>
  <text style="stroke:none;fill:black;font-family:sans-serif;font-size:13;text-anchor:end;" transform="matrix(1 0 0 1 3036 1987)">Typeset at 100.0 points</text>
  <text style="stroke:none;fill:black;font-family:sans-serif;font-size:13;" transform="matrix(1 0 0 1 263 726)">Small</text>
  <text style="stroke:none;fill:black;font-family:sans-serif;font-size:13;" transform="matrix(1 0 0 1 263 1156)">Medium</text>
  <text style="stroke:none;fill:black;font-family:sans-serif;font-size:13;" transform="matrix(1 0 0 1 263 1586)">Large</text>
 </g>
 <g id="Guides">
  <g id="H-reference" style="fill:#27AAE1;stroke:none;" transform="matrix(1 0 0 1 339 696)">
   <path d="M0.993654 0L3.63775 0L29.3281-67.1323L30.0303-67.1323L30.0303-70.459L28.1226-70.459ZM11.6885-24.4799L46.9815-24.4799L46.2315-26.7285L12.4385-26.7285ZM55.1196 0L57.7637 0L30.6382-70.459L29.4326-70.459L29.4326-67.1323Z"/>
  </g>
  <line id="Baseline-S" style="fill:none;stroke:#27AAE1;opacity:1;stroke-width:0.5;" x1="263" x2="3036" y1="696" y2="696"/>
  <line id="Capline-S" style="fill:none;stroke:#27AAE1;opacity:1;stroke-width:0.5;" x1="263" x2="3036" y1="625.541" y2="625.541"/>
  <g id="H-reference" style="fill:#27AAE1;stroke:none;" transform="matrix(1 0 0 1 339 1126)">
   <path d="M0.993654 0L3.63775 0L29.3281-67.1323L30.0303-67.1323L30.0303-70.459L28.1226-70.459ZM11.6885-24.4799L46.9815-24.4799L46.2315-26.7285L12.4385-26.7285ZM55.1196 0L57.7637 0L30.6382-70.459L29.4326-70.459L29.4326-67.1323Z"/>
  </g>
  <line id="Baseline-M" style="fill:none;stroke:#27AAE1;opacity:1;stroke-width:0.5;" x1="263" x2="3036" y1="1126" y2="1126"/>
  <line id="Capline-M" style="fill:none;stroke:#27AAE1;opacity:1;stroke-width:0.5;" x1="263" x2="3036" y1="1055.54" y2="1055.54"/>
  <g id="H-reference" style="fill:#27AAE1;stroke:none;" transform="matrix(1 0 0 1 339 1556)">
   <path d="M0.993654 0L3.63775 0L29.3281-67.1323L30.0303-67.1323L30.0303-70.459L28.1226-70.459ZM11.6885-24.4799L46.9815-24.4799L46.2315-26.7285L12.4385-26.7285ZM55.1196 0L57.7637 0L30.6382-70.459L29.4326-70.459L29.4326-67.1323Z"/>
  </g>
  <line id="Baseline-L" style="fill:none;stroke:#27AAE1;opacity:1;stroke-width:0.5;" x1="263" x2="3036" y1="1556" y2="1556"/>
  <line id="Capline-L" style="fill:none;stroke:#27AAE1;opacity:1;stroke-width:0.5;" x1="263" x2="3036" y1="1485.54" y2="1485.54"/>
  <line id="left-margin-Ultralight-S" style="fill:none;stroke:#00AEEF;stroke-width:0.5;opacity:1.0;" x1="502.597" x2="502.597" y1="600.785" y2="720.121"/>
  <line id="right-margin-Ultralight-S" style="fill:none;stroke:#00AEEF;stroke-width:0.5;opacity:1.0;" x1="616.826" x2="616.826" y1="600.785" y2="720.121"/>
  <line id="left-margin-Regular-S" style="fill:none;stroke:#00AEEF;stroke-width:0.5;opacity:1.0;" x1="1386.76" x2="1386.76" y1="600.785" y2="720.121"/>
  <line id="right-margin-Regular-S" style="fill:none;stroke:#00AEEF;stroke-width:0.5;opacity:1.0;" x1="1512.93" x2="1512.93" y1="600.785" y2="720.121"/>
  <line id="left-margin-Black-S" style="fill:none;stroke:#00AEEF;stroke-width:0.5;opacity:1.0;" x1="2868.21" x2="2868.21" y1="600.785" y2="720.121"/>
  <line id="right-margin-Black-S" style="fill:none;stroke:#00AEEF;stroke-width:0.5;opacity:1.0;" x1="2998.59" x2="2998.59" y1="600.785" y2="720.121"/>
 </g>
 <g id="Symbols">
  <g id="Black-S" transform="matrix(1 0 0 1 2868.21 696)">
   <path class="monochrome-0 multicolor-0:tintColor hierarchical-0:secondary SFSymbolsPreviewWireframe" d="M120.605-34.4238L120.605-48.877C119.238-48.1445 117.773-47.3145 116.26-46.3867L102.588-37.793L86.9629-35.8398C75.4883-34.4238 69.043-27.5391 69.043-17.2363L69.043-10.1074C69.043-1.85547 73.9258 2.49023 81.4453 2.49023L93.7012 2.49023L93.7012-9.91211L83.8379-9.91211C82.3242-9.91211 81.4453-10.791 81.4453-12.3047L81.4453-18.1152C81.4453-21.3379 83.2031-22.9004 87.1582-23.3887L106.836-25.7812L120.215-34.1797C120.361-34.2773 120.459-34.3262 120.605-34.4238ZM118.652 2.49023L118.652-9.91211L108.984-9.91211L108.984 2.49023ZM102.1 10.4004C110.4 10.4004 117.188 3.61328 117.188-4.6875C117.188-13.0859 110.4-19.9219 102.1-19.9219C93.75-19.9219 86.9141-13.0859 86.9141-4.6875C86.9141 3.61328 93.75 10.4004 102.1 10.4004ZM102.1-0.537109C99.8535-0.537109 98.0957-2.29492 98.0957-4.54102C98.0957-6.78711 99.8535-8.54492 102.1-8.54492C104.297-8.54492 106.104-6.78711 106.104-4.54102C106.104-2.29492 104.297-0.537109 102.1-0.537109ZM29.2969 10.4004C37.5977 10.4004 44.4336 3.61328 44.4336-4.6875C44.4336-13.0859 37.5977-19.9219 29.2969-19.9219C20.9473-19.9219 14.1602-13.0859 14.1602-4.6875C14.1602 3.61328 20.9473 10.4004 29.2969 10.4004ZM29.2969-0.537109C27.0508-0.537109 25.293-2.29492 25.293-4.54102C25.293-6.78711 27.0508-8.54492 29.2969-8.54492C31.4941-8.54492 33.3008-6.78711 33.3008-4.54102C33.3008-2.29492 31.4941-0.537109 29.2969-0.537109ZM9.76562-53.7598L9.76562-41.3086L14.3555-41.3086C23.4863-41.3086 30.0781-37.8418 36.5234-28.3691L46.2891-25.8789C47.3633-25.5859 48.0957-24.6094 48.0957-23.3887L48.0957-12.3047C48.0957-10.6445 47.3145-9.91211 45.6543-9.91211L37.4512-9.91211L37.4512 2.49023L48.9746 2.49023C56.0059 2.49023 60.4492-2.14844 60.4492-9.17969L60.4492-23.3887C60.4492-29.1016 58.7891-35.1074 49.8535-38.0371L43.5547-40.0879C38.5254-45.8984 29.6387-53.7598 14.3555-53.7598ZM9.76562-9.91211L9.76562 2.49023L24.1211 2.49023L24.1211-9.91211Z"/>
   <path class="monochrome-1 multicolor-1:tintColor hierarchical-1:primary SFSymbolsPreviewWireframe" d="M73.6328-81.5918L72.0215-75L63.3789-83.8379C62.5-84.7656 60.9863-83.9844 61.4258-82.666L64.4531-73.8281L61.0352-75.3906C59.6191-76.0254 58.7402-74.8535 59.668-73.6328L61.4746-71.3379L51.5137-72.7051C50.0488-72.9004 49.5117-71.1426 50.7324-70.4102L60.2051-64.6973L54.9805-62.6953C53.5645-62.1582 53.8086-60.498 55.3223-60.4004L61.2305-60.0098L52.832-54.2969C51.4648-53.3691 52.0996-51.6113 53.8574-52.002L64.5508-54.3945L64.6973-44.873C64.6973-43.3594 66.0645-43.4082 66.6504-44.3359L74.1699-56.6406L86.084-45.8984C87.2559-44.873 88.916-46.0938 88.1836-47.5098L81.2012-60.6445L88.5742-62.8418C89.502-63.1348 89.5996-64.2578 88.6719-64.6484L82.1289-67.334L86.8164-80.8105C87.207-81.8848 85.9375-83.0078 84.9609-82.0312L77.5391-74.9512L75.8301-81.6406C75.5371-82.8125 73.9746-82.959 73.6328-81.5918Z"/>
  </g>
  <g id="Regular-S" transform="matrix(1 0 0 1 1386.76 696)">
   <path class="monochrome-0 multicolor-0:tintColor hierarchical-0:secondary SFSymbolsPreviewWireframe" d="M116.406-39.0625L116.406-46.2891C114.551-45.4102 112.793-44.4336 110.889-43.2129L96.9238-34.4727L81.8359-32.6172C71.875-31.4453 66.0156-25.6836 66.0156-17.1875L66.0156-10.2051C66.0156-4.3457 69.5801-0.732422 75.293-0.732422L86.377-0.732422L86.377-7.08008L75.6836-7.08008C73.6328-7.08008 72.3633-8.59375 72.3633-11.0352L72.3633-17.1875C72.3633-22.2168 76.0254-25.4883 82.6172-26.3184L99.0723-28.3691L114.258-37.7441C114.941-38.2324 115.723-38.6719 116.406-39.0625ZM116.406-0.732422L116.406-7.08008L102.1-7.08008L102.1-0.732422ZM93.9941 7.22656C100.781 7.22656 106.104 1.9043 106.104-4.88281C106.104-11.7188 100.781-17.041 93.9941-17.041C87.2559-17.041 81.8848-11.7188 81.8848-4.88281C81.8848 1.9043 87.2559 7.22656 93.9941 7.22656ZM93.9941 0.878906C90.7715 0.878906 88.2324-1.66016 88.2324-4.88281C88.2324-8.1543 90.7715-10.6934 93.9941-10.6934C97.2656-10.6934 99.7559-8.1543 99.7559-4.88281C99.7559-1.66016 97.2656 0.878906 93.9941 0.878906ZM31.9824 7.22656C38.7695 7.22656 44.0918 1.9043 44.0918-4.88281C44.0918-11.7188 38.7695-17.041 31.9824-17.041C25.1953-17.041 19.873-11.7188 19.873-4.88281C19.873 1.9043 25.1953 7.22656 31.9824 7.22656ZM31.9824 0.878906C28.7109 0.878906 26.2207-1.66016 26.2207-4.88281C26.2207-8.1543 28.7109-10.6934 31.9824-10.6934C35.2051-10.6934 37.7441-8.1543 37.7441-4.88281C37.7441-1.66016 35.2051 0.878906 31.9824 0.878906ZM9.76562-49.9512L9.76562-43.6035L15.5762-43.6035C24.9512-43.6035 32.4707-39.7461 39.0137-30.6641L47.5098-28.418C50.6836-27.5879 51.416-25.7324 51.416-23.2422L51.416-10.9863C51.416-8.59375 50.1953-7.08008 48.1934-7.08008L39.3555-7.08008L39.3555-0.732422L49.3652-0.732422C54.541-0.732422 57.7637-4.00391 57.7637-9.27734L57.7637-23.2422C57.7637-28.125 56.3965-32.5684 49.5117-34.7656L42.4316-37.0605C37.8418-42.4316 29.8828-49.9512 15.5762-49.9512ZM9.76562-7.08008L9.76562-0.732422L23.9746-0.732422L23.9746-7.08008Z"/>
   <path class="monochrome-1 multicolor-1:tintColor hierarchical-1:primary SFSymbolsPreviewWireframe" d="M67.4805-78.7598L65.7227-71.5332L56.7383-80.7617C56.0059-81.543 55.0293-80.957 55.3711-79.8828L58.5938-70.4102L54.3945-72.3145C53.418-72.7051 52.7344-72.0215 53.418-71.0938L55.7617-68.0176L44.9707-69.5312C43.7012-69.7266 43.4082-68.457 44.3848-67.8711L54.541-61.7676L48.4863-59.5215C47.4609-59.1309 47.6074-57.9102 48.7305-57.8125L55.5176-57.3242L46.2891-51.123C45.4102-50.5371 45.752-49.1699 47.0215-49.4629L58.6914-52.0996L58.7891-42.2363C58.7891-41.2109 59.8145-41.1133 60.2051-41.8457L67.7246-54.1992L80.3223-42.8223C81.25-41.9922 82.4219-42.8711 81.7871-43.9941L74.3652-57.959L81.9824-60.2539C82.6172-60.4492 82.6172-61.3281 81.9824-61.5723L75.1953-64.3066L80.0293-78.0273C80.3223-78.8574 79.4434-79.6387 78.7598-78.9062L70.8984-71.4844L68.9941-78.7598C68.75-79.7363 67.7246-79.7363 67.4805-78.7598Z"/>
  </g>
  <g id="Ultralight-S" transform="matrix(1 0 0 1 502.597 696)">
   <path class="monochrome-0 multicolor-0:tintColor hierarchical-0:secondary SFSymbolsPreviewWireframe" d="M104.463-41.3784L104.463-43.9278C103.244-43.2759 101.94-42.5264 100.581-41.669L86.8883-33.065L70.8922-31.1187C63.1109-30.1738 58.6138-25.729 58.6138-18.8677L58.6138-12.6572C58.6138-6.97947 60.9068-4.72848 66.3926-4.72848L74.5704-4.72848L74.5704-6.89844L66.42-6.89844C62.4166-6.89844 60.7838-8.50293 60.7838-12.7153L60.7838-18.8677C60.7838-24.5781 64.4913-28.2129 71.1739-28.9975L87.629-30.9575L101.679-39.7422C102.681-40.3667 103.598-40.9424 104.463-41.3784ZM104.463-4.72848L104.463-6.89844L92.2911-6.89844L92.2911-4.72848ZM83.4591 2.82181C89.2472 2.82181 93.7975-1.7739 93.7975-7.56199C93.7975-13.3989 89.2472-17.9038 83.4591-17.9038C77.629-17.9038 73.0753-13.3989 73.0753-7.56199C73.0753-1.7739 77.629 2.82181 83.4591 2.82181ZM83.4591 0.651857C78.7833 0.651857 75.2452-2.93163 75.2452-7.56199C75.2452-12.1958 78.7833-15.7338 83.4591-15.7338C88.0928-15.7338 91.6275-12.1958 91.6275-7.56199C91.6275-2.93163 88.0928 0.651857 83.4591 0.651857ZM27.6685 2.82181C33.4566 2.82181 38.0523-1.7739 38.0523-7.56199C38.0523-13.3989 33.4566-17.9038 27.6685-17.9038C21.835-17.9038 17.2847-13.3989 17.2847-7.56199C17.2847-1.7739 21.835 2.82181 27.6685 2.82181ZM27.6685 0.651857C23.0347 0.651857 19.4546-2.93163 19.4546-7.56199C19.4546-12.1958 23.0347-15.7338 27.6685-15.7338C32.2989-15.7338 35.8823-12.1958 35.8823-7.56199C35.8823-2.93163 32.2989 0.651857 27.6685 0.651857ZM9.76562-47.8169L9.76562-45.647L11.9434-45.647C21.3184-45.647 29.0196-41.7895 35.5171-32.98L43.6499-30.9155C46.6875-30.1308 48.1465-28.1846 48.1465-25.0132L48.1465-11.4404C48.1465-8.45752 46.6533-6.89844 43.834-6.89844L36.6309-6.89844L36.6309-4.72848L43.8706-4.72848C48.002-4.72848 50.3165-7.09177 50.3165-11.3662L50.3165-25.0132C50.3165-29.3965 48.3135-32.1597 44.108-33.2217L36.9825-35.0625C33.0738-39.9795 25.8868-47.8169 11.9434-47.8169ZM9.76562-6.89844L9.76562-4.72848L18.8887-4.72848L18.8887-6.89844Z"/>
   <path class="monochrome-1 multicolor-1:tintColor hierarchical-1:primary SFSymbolsPreviewWireframe" d="M59.67-73.8555L58.2754-67.9912L50.9258-75.4942C50.2388-76.1846 49.3531-75.6895 49.6949-74.7515L52.3272-67.0498L48.9908-68.5454C48.1504-68.9361 47.4214-68.2979 48.105-67.4156L49.9039-65.1114L41.1109-66.2617C40.1592-66.4116 39.6392-65.4146 40.6158-64.8286L48.9102-59.7241L44.0362-57.9321C43.0108-57.5415 43.1573-56.5025 44.2349-56.4048L49.6143-56.0073L42.2022-50.9868C41.2779-50.3555 41.7559-49.2153 42.7984-49.4629L52.4249-51.6455L52.5225-43.5986C52.5225-42.7095 53.5479-42.6572 53.8931-43.208L60.0049-53.3364L70.4229-44.0483C71.3053-43.2637 72.2501-44.1426 71.7515-45.084L65.6011-56.5513L71.8106-58.3921C72.4-58.5874 72.4-59.3755 71.856-59.6196L66.3858-61.8999L70.357-73.2139C70.65-74.0894 69.8165-74.7344 69.1329-74.002L62.6793-67.9424L61.1382-73.9009C60.8941-74.8321 59.9141-74.9683 59.67-73.8555Z"/>
  </g>
 </g>
</svg>
