<?xml version="1.0" encoding="UTF-8"?>
<!--Generator: Apple Native CoreSVG 341-->
<!DOCTYPE svg
PUBLIC "-//W3C//DTD SVG 1.1//EN"
       "http://www.w3.org/Graphics/SVG/1.1/DTD/svg11.dtd">
<svg version="1.1" xmlns="http://www.w3.org/2000/svg" xmlns:xlink="http://www.w3.org/1999/xlink" viewBox="0 0 3300 2200">
 <g id="Notes">
  <rect height="2200" id="artboard" style="fill:white;opacity:1" width="3300" x="0" y="0"/>
  <line style="fill:none;stroke:black;opacity:1;stroke-width:0.5;" x1="263" x2="3036" y1="292" y2="292"/>
  <text style="stroke:none;fill:black;font-family:sans-serif;font-size:13;font-weight:bold;" transform="matrix(1 0 0 1 263 322)">Weight/Scale Variations</text>
  <text style="stroke:none;fill:black;font-family:sans-serif;font-size:13;text-anchor:middle;" transform="matrix(1 0 0 1 559.711 322)">Ultralight</text>
  <text style="stroke:none;fill:black;font-family:sans-serif;font-size:13;text-anchor:middle;" transform="matrix(1 0 0 1 856.422 322)">Thin</text>
  <text style="stroke:none;fill:black;font-family:sans-serif;font-size:13;text-anchor:middle;" transform="matrix(1 0 0 1 1153.13 322)">Light</text>
  <text style="stroke:none;fill:black;font-family:sans-serif;font-size:13;text-anchor:middle;" transform="matrix(1 0 0 1 1449.84 322)">Regular</text>
  <text style="stroke:none;fill:black;font-family:sans-serif;font-size:13;text-anchor:middle;" transform="matrix(1 0 0 1 1746.56 322)">Medium</text>
  <text style="stroke:none;fill:black;font-family:sans-serif;font-size:13;text-anchor:middle;" transform="matrix(1 0 0 1 2043.27 322)">Semibold</text>
  <text style="stroke:none;fill:black;font-family:sans-serif;font-size:13;text-anchor:middle;" transform="matrix(1 0 0 1 2339.98 322)">Bold</text>
  <text style="stroke:none;fill:black;font-family:sans-serif;font-size:13;text-anchor:middle;" transform="matrix(1 0 0 1 2636.69 322)">Heavy</text>
  <text style="stroke:none;fill:black;font-family:sans-serif;font-size:13;text-anchor:middle;" transform="matrix(1 0 0 1 2933.4 322)">Black</text>
  <line style="fill:none;stroke:black;opacity:1;stroke-width:0.5;" x1="263" x2="3036" y1="1903" y2="1903"/>
  <g transform="matrix(0.2 0 0 0.2 263 1933)">
   <path d="m46.2402 4.15039c21.7773 0 39.4531-17.627 39.4531-39.4043s-17.6758-39.4043-39.4531-39.4043c-21.7285 0-39.4043 17.627-39.4043 39.4043s17.6758 39.4043 39.4043 39.4043Zm0-7.42188c-17.6758 0-31.9336-14.3066-31.9336-31.9824s14.2578-31.9824 31.9336-31.9824 31.9824 14.3066 31.9824 31.9824-14.3066 31.9824-31.9824 31.9824Zm3.61328-17.7734v-28.4668c0-2.24609-1.46484-3.75977-3.71094-3.75977-2.14844 0-3.61328 1.51367-3.61328 3.75977v28.4668c0 2.19727 1.46484 3.71094 3.61328 3.71094 2.24609 0 3.71094-1.51367 3.71094-3.71094Zm-17.8223-10.5957h28.418c2.19727 0 3.71094-1.46484 3.71094-3.61328 0-2.19727-1.51367-3.71094-3.71094-3.71094h-28.418c-2.24609 0-3.75977 1.51367-3.75977 3.71094 0 2.14844 1.51367 3.61328 3.75977 3.61328Z"/>
  </g>
  <g transform="matrix(0.2 0 0 0.2 281.506 1933)">
   <path d="m58.5449 14.5508c27.4902 0 49.8047-22.3145 49.8047-49.8047s-22.3145-49.8047-49.8047-49.8047-49.8047 22.3145-49.8047 49.8047 22.3145 49.8047 49.8047 49.8047Zm0-8.30078c-22.9492 0-41.5039-18.5547-41.5039-41.5039s18.5547-41.5039 41.5039-41.5039 41.5039 18.5547 41.5039 41.5039-18.5547 41.5039-41.5039 41.5039Zm4.05273-23.0957v-36.9141c0-2.49023-1.70898-4.19922-4.15039-4.19922-2.39258 0-4.05273 1.70898-4.05273 4.19922v36.9141c0 2.44141 1.66016 4.15039 4.05273 4.15039 2.44141 0 4.15039-1.66016 4.15039-4.15039Zm-22.5586-14.4043h36.9629c2.44141 0 4.15039-1.61133 4.15039-4.00391 0-2.44141-1.70898-4.15039-4.15039-4.15039h-36.9629c-2.49023 0-4.15039 1.70898-4.15039 4.15039 0 2.39258 1.66016 4.00391 4.15039 4.00391Z"/>
  </g>
  <g transform="matrix(0.2 0 0 0.2 304.924 1933)">
   <path d="m74.8535 28.3203c35.1074 0 63.623-28.4668 63.623-63.5742s-28.5156-63.623-63.623-63.623-63.5742 28.5156-63.5742 63.623 28.4668 63.5742 63.5742 63.5742Zm0-9.08203c-30.127 0-54.4922-24.3652-54.4922-54.4922s24.3652-54.4922 54.4922-54.4922 54.4922 24.3652 54.4922 54.4922-24.3652 54.4922-54.4922 54.4922Zm4.44336-30.3223v-48.4863c0-2.73438-1.85547-4.63867-4.54102-4.63867-2.58789 0-4.44336 1.9043-4.44336 4.63867v48.4863c0 2.68555 1.85547 4.58984 4.44336 4.58984 2.68555 0 4.54102-1.85547 4.54102-4.58984Zm-28.7109-19.7754h48.4863c2.68555 0 4.58984-1.80664 4.58984-4.39453 0-2.73438-1.85547-4.58984-4.58984-4.58984h-48.4863c-2.73438 0-4.58984 1.85547-4.58984 4.58984 0 2.58789 1.85547 4.39453 4.58984 4.39453Z"/>
  </g>
  <text style="stroke:none;fill:black;font-family:sans-serif;font-size:13;font-weight:bold;" transform="matrix(1 0 0 1 263 1953)">Design Variations</text>
  <text style="stroke:none;fill:black;font-family:sans-serif;font-size:13;" transform="matrix(1 0 0 1 263 1971)">Symbols are supported in up to nine weights and three scales.</text>
  <text style="stroke:none;fill:black;font-family:sans-serif;font-size:13;" transform="matrix(1 0 0 1 263 1989)">For optimal layout with text and other symbols, vertically align</text>
  <text style="stroke:none;fill:black;font-family:sans-serif;font-size:13;" transform="matrix(1 0 0 1 263 2007)">symbols with the adjacent text.</text>
  <line style="fill:none;stroke:#00AEEF;stroke-width:0.5;opacity:1.0;" x1="776" x2="776" y1="1919" y2="1933"/>
  <g transform="matrix(0.2 0 0 0.2 776 1933)">
   <path d="m16.5527 0.78125c2.58789 0 3.85742-0.976562 4.78516-3.71094l20.5566-57.5195h0.244141l20.6055 57.5195c0.927734 2.73438 2.19727 3.71094 4.73633 3.71094 2.58789 0 4.24805-1.5625 4.24805-4.00391 0-0.830078-0.146484-1.61133-0.537109-2.63672l-22.9004-60.9863c-1.12305-2.97852-3.125-4.49219-6.25-4.49219-3.02734 0-5.07812 1.46484-6.15234 4.44336l-22.9004 61.084c-0.390625 1.02539-0.537109 1.80664-0.537109 2.63672 0 2.44141 1.5625 3.95508 4.10156 3.95508Zm10.2051-20.9473h30.6641c2.00195 0 3.66211-1.66016 3.66211-3.66211 0-2.05078-1.66016-3.66211-3.66211-3.66211h-30.6641c-2.00195 0-3.66211 1.61133-3.66211 3.66211 0 2.00195 1.66016 3.66211 3.66211 3.66211Z"/>
  </g>
  <line style="fill:none;stroke:#00AEEF;stroke-width:0.5;opacity:1.0;" x1="792.836" x2="792.836" y1="1919" y2="1933"/>
  <text style="stroke:none;fill:black;font-family:sans-serif;font-size:13;font-weight:bold;" transform="matrix(1 0 0 1 776 1953)">Margins</text>
  <text style="stroke:none;fill:black;font-family:sans-serif;font-size:13;" transform="matrix(1 0 0 1 776 1971)">Leading and trailing margins on the left and right side of each symbol</text>
  <text style="stroke:none;fill:black;font-family:sans-serif;font-size:13;" transform="matrix(1 0 0 1 776 1989)">can be adjusted by modifying the x-location of the margin guidelines.</text>
  <text style="stroke:none;fill:black;font-family:sans-serif;font-size:13;" transform="matrix(1 0 0 1 776 2007)">Modifications are automatically applied proportionally to all</text>
  <text style="stroke:none;fill:black;font-family:sans-serif;font-size:13;" transform="matrix(1 0 0 1 776 2025)">scales and weights.</text>
  <g transform="matrix(0.2 0 0 0.2 1289 1933)">
   <path d="m14.209 13.1348 7.86133 7.86133c4.29688 4.39453 9.32617 4.10156 13.8672-1.02539l60.6934-68.2129-4.88281-4.88281-60.2539 67.6758c-1.80664 1.95312-3.4668 2.44141-5.81055 0.0976562l-5.17578-5.12695c-2.29492-2.29492-1.80664-3.95508 0.195312-5.81055l67.4805-62.1582-4.88281-4.83398-68.0664 62.5977c-4.98047 4.58984-5.32227 9.47266-1.02539 13.8184Zm44.873-97.4609c-2.05078 2.00195-2.24609 4.88281-1.07422 6.78711 1.12305 1.80664 3.4668 3.02734 6.5918 2.24609 5.85938-1.66016 12.5977-2.39258 18.8965 0.927734l-2.68555 7.12891c-1.61133 4.00391-0.732422 6.88477 1.70898 9.42383l10.2539 10.3027c2.34375 2.39258 4.54102 2.44141 7.08008 1.95312l4.44336-0.732422 2.58789 2.53906-0.195312 2.24609c-0.0976562 2.29492 0.537109 4.29688 2.7832 6.49414l3.36914 3.32031c2.29492 2.29492 5.51758 2.49023 7.8125 0.195312l12.9883-13.0371c2.29492-2.34375 2.14844-5.37109-0.195312-7.66602l-3.41797-3.41797c-2.19727-2.19727-4.05273-3.02734-6.34766-2.88086l-2.34375 0.244141-2.44141-2.44141 1.02539-4.6875c0.634766-2.73438-0.244141-4.98047-2.88086-7.61719l-11.2793-11.1816c-12.9395-12.8418-35.5957-11.0352-46.6797-0.146484Zm7.08008 2.05078c8.78906-6.39648 25.9766-5.66406 33.6914 1.95312l12.3047 12.207c1.02539 1.02539 1.2207 1.80664 0.927734 3.32031l-1.46484 6.64062 6.73828 6.68945 4.39453-0.244141c1.12305-0.0488281 1.51367 0.0488281 2.34375 0.878906l2.53906 2.49023-10.8398 10.8398-2.49023-2.49023c-0.830078-0.878906-0.976562-1.2207-0.927734-2.39258l0.292969-4.3457-6.68945-6.73828-6.83594 1.17188c-1.41602 0.292969-2.05078 0.195312-3.17383-0.878906l-8.93555-8.88672c-1.07422-1.02539-1.17188-1.70898-0.488281-3.36914l4.58984-11.4746c-6.10352-6.34766-17.041-7.51953-25.5859-4.58984-0.683594 0.244141-0.927734-0.390625-0.390625-0.78125Z"/>
  </g>
  <text style="stroke:none;fill:black;font-family:sans-serif;font-size:13;font-weight:bold;" transform="matrix(1 0 0 1 1289 1953)">Exporting</text>
  <text style="stroke:none;fill:black;font-family:sans-serif;font-size:13;" transform="matrix(1 0 0 1 1289 1971)">Symbols should be outlined when exporting to ensure the</text>
  <text style="stroke:none;fill:black;font-family:sans-serif;font-size:13;" transform="matrix(1 0 0 1 1289 1989)">design is preserved when submitting to Xcode.</text>
  <text id="template-version" style="stroke:none;fill:black;font-family:sans-serif;font-size:13;text-anchor:end;" transform="matrix(1 0 0 1 3036 1933)">Template v.2.0</text>
  <text style="stroke:none;fill:black;font-family:sans-serif;font-size:13;text-anchor:end;" transform="matrix(1 0 0 1 3036 1951)">Requires Xcode 12 or greater</text>
  <text id="descriptive-name" style="stroke:none;fill:black;font-family:sans-serif;font-size:13;text-anchor:end;" transform="matrix(1 0 0 1 3036 1969)">Generated from usbc</text>
  <text style="stroke:none;fill:black;font-family:sans-serif;font-size:13;text-anchor:end;" transform="matrix(1 0 0 1 3036 1987)">Typeset at 100.0 points</text>
  <text style="stroke:none;fill:black;font-family:sans-serif;font-size:13;" transform="matrix(1 0 0 1 263 726)">Small</text>
  <text style="stroke:none;fill:black;font-family:sans-serif;font-size:13;" transform="matrix(1 0 0 1 263 1156)">Medium</text>
  <text style="stroke:none;fill:black;font-family:sans-serif;font-size:13;" transform="matrix(1 0 0 1 263 1586)">Large</text>
 </g>
 <g id="Guides">
  <g id="H-reference" style="fill:#27AAE1;stroke:none;" transform="matrix(1 0 0 1 339 696)">
   <path d="M0.993654 0L3.63775 0L29.3281-67.1323L30.0303-67.1323L30.0303-70.459L28.1226-70.459ZM11.6885-24.4799L46.9815-24.4799L46.2315-26.7285L12.4385-26.7285ZM55.1196 0L57.7637 0L30.6382-70.459L29.4326-70.459L29.4326-67.1323Z"/>
  </g>
  <line id="Baseline-S" style="fill:none;stroke:#27AAE1;opacity:1;stroke-width:0.5;" x1="263" x2="3036" y1="696" y2="696"/>
  <line id="Capline-S" style="fill:none;stroke:#27AAE1;opacity:1;stroke-width:0.5;" x1="263" x2="3036" y1="625.541" y2="625.541"/>
  <g id="H-reference" style="fill:#27AAE1;stroke:none;" transform="matrix(1 0 0 1 339 1126)">
   <path d="M0.993654 0L3.63775 0L29.3281-67.1323L30.0303-67.1323L30.0303-70.459L28.1226-70.459ZM11.6885-24.4799L46.9815-24.4799L46.2315-26.7285L12.4385-26.7285ZM55.1196 0L57.7637 0L30.6382-70.459L29.4326-70.459L29.4326-67.1323Z"/>
  </g>
  <line id="Baseline-M" style="fill:none;stroke:#27AAE1;opacity:1;stroke-width:0.5;" x1="263" x2="3036" y1="1126" y2="1126"/>
  <line id="Capline-M" style="fill:none;stroke:#27AAE1;opacity:1;stroke-width:0.5;" x1="263" x2="3036" y1="1055.54" y2="1055.54"/>
  <g id="H-reference" style="fill:#27AAE1;stroke:none;" transform="matrix(1 0 0 1 339 1556)">
   <path d="M0.993654 0L3.63775 0L29.3281-67.1323L30.0303-67.1323L30.0303-70.459L28.1226-70.459ZM11.6885-24.4799L46.9815-24.4799L46.2315-26.7285L12.4385-26.7285ZM55.1196 0L57.7637 0L30.6382-70.459L29.4326-70.459L29.4326-67.1323Z"/>
  </g>
  <line id="Baseline-L" style="fill:none;stroke:#27AAE1;opacity:1;stroke-width:0.5;" x1="263" x2="3036" y1="1556" y2="1556"/>
  <line id="Capline-L" style="fill:none;stroke:#27AAE1;opacity:1;stroke-width:0.5;" x1="263" x2="3036" y1="1485.54" y2="1485.54"/>
  <line id="right-margin" style="fill:none;stroke:#00AEEF;stroke-width:0.5;opacity:1.0;" x1="1511.36" x2="1511.36" y1="1030.79" y2="1150.12"/>
  <line id="left-margin" style="fill:none;stroke:#00AEEF;stroke-width:0.5;opacity:1.0;" x1="1388.33" x2="1388.33" y1="1030.79" y2="1150.12"/>
 </g>
 <g id="Symbols">
  <g id="Black-L" transform="matrix(1 0 0 1 2845.51 1556)">
   <path d="M41.7891-34.4766L133.329-34.4766L133.329-39.0535L41.7891-39.0535L41.7891-34.4766ZM40.2674-60.345C27.1205-60.345 16.4629-49.6874 16.4629-36.5405C16.4629-23.3936 27.1205-12.7359 40.2674-12.7359L134.346-12.7359C147.493-12.7359 158.151-23.3936 158.151-36.5405C158.151-49.6874 147.493-60.345 134.346-60.345L40.2674-60.345ZM40.2674-64.922L134.346-64.922C150.021-64.922 162.728-52.2152 162.728-36.5405C162.728-20.8658 150.021-8.15893 134.346-8.15893L40.2674-8.15893C24.5927-8.15893 11.8859-20.8658 11.8859-36.5405C11.8859-52.2152 24.5927-64.922 40.2674-64.922Z"/>
  </g>
  <g id="Heavy-L" transform="matrix(1 0 0 1 2550.84 1556)">
   <path d="M39.9432-34.6616L131.483-34.6616L131.483-39.2386L39.9432-39.2386L39.9432-34.6616ZM38.4215-60.5301C25.2746-60.5301 14.6169-49.8724 14.6169-36.7255C14.6169-23.5786 25.2746-12.9209 38.4215-12.9209L132.5-12.9209C145.647-12.9209 156.305-23.5786 156.305-36.7255C156.305-49.8724 145.647-60.5301 132.5-60.5301L38.4215-60.5301ZM38.4215-65.107L132.5-65.107C148.175-65.107 160.882-52.4002 160.882-36.7255C160.882-21.0508 148.175-8.34396 132.5-8.34396L38.4215-8.34396C22.7468-8.34396 10.0399-21.0508 10.0399-36.7255C10.0399-52.4002 22.7468-65.107 38.4215-65.107Z"/>
  </g>
  <g id="Bold-L" transform="matrix(1 0 0 1 2256.48 1556)">
   <path d="M37.7603-34.8096L129.3-34.8096L129.3-39.3866L37.7603-39.3866L37.7603-34.8096ZM36.2386-60.6781C23.0917-60.6781 12.4341-50.0204 12.4341-36.8735C12.4341-23.7266 23.0917-13.069 36.2386-13.069L130.318-13.069C143.464-13.069 154.122-23.7266 154.122-36.8735C154.122-50.0204 143.464-60.6781 130.318-60.6781L36.2386-60.6781ZM36.2386-65.2551L130.318-65.2551C145.992-65.2551 158.699-52.5482 158.699-36.8735C158.699-21.1989 145.992-8.49201 130.318-8.49201L36.2386-8.49201C20.5639-8.49201 7.85709-21.1989 7.85709-36.8735C7.85709-52.5482 20.5639-65.2551 36.2386-65.2551Z"/>
  </g>
  <g id="Semibold-L" transform="matrix(1 0 0 1 1961.39 1556)">
   <path d="M36.2555-34.9117L127.795-34.9117L127.795-39.4887L36.2555-39.4887L36.2555-34.9117ZM34.7338-60.7802C21.5869-60.7802 10.9292-50.1225 10.9292-36.9756C10.9292-23.8287 21.5869-13.171 34.7338-13.171L128.813-13.171C141.96-13.171 152.617-23.8287 152.617-36.9756C152.617-50.1225 141.96-60.7802 128.813-60.7802L34.7338-60.7802ZM34.7338-65.3571L128.813-65.3571C144.487-65.3571 157.194-52.6503 157.194-36.9756C157.194-21.3009 144.487-8.59407 128.813-8.59407L34.7338-8.59407C19.0591-8.59407 6.35225-21.3009 6.35225-36.9756C6.35225-52.6503 19.0591-65.3571 34.7338-65.3571Z"/>
  </g>
  <g id="Medium-L" transform="matrix(1 0 0 1 1665.91 1556)">
   <path d="M35.1145-34.9891L126.654-34.9891L126.654-39.5661L35.1145-39.5661L35.1145-34.9891ZM33.5928-60.8576C20.4459-60.8576 9.78819-50.1999 9.78819-37.053C9.78819-23.9061 20.4459-13.2484 33.5928-13.2484L127.672-13.2484C140.819-13.2484 151.476-23.9061 151.476-37.053C151.476-50.1999 140.819-60.8576 127.672-60.8576L33.5928-60.8576ZM33.5928-65.4345L127.672-65.4345C143.346-65.4345 156.053-52.7277 156.053-37.053C156.053-21.3783 143.346-8.67145 127.672-8.67145L33.5928-8.67145C17.9181-8.67145 5.21121-21.3783 5.21121-37.053C5.21121-52.7277 17.9181-65.4345 33.5928-65.4345Z"/>
  </g>
  <g id="Regular-L" transform="matrix(1 0 0 1 1370.8 1556)">
   <path d="M33.6261-35.09L125.166-35.09L125.166-39.667L33.6261-39.667L33.6261-35.09ZM32.1044-60.9585C18.9576-60.9585 8.29989-50.3008 8.29989-37.1539C8.29989-24.007 18.9576-13.3494 32.1044-13.3494L126.183-13.3494C139.33-13.3494 149.988-24.007 149.988-37.1539C149.988-50.3008 139.33-60.9585 126.183-60.9585L32.1044-60.9585ZM32.1044-65.5355L126.183-65.5355C141.858-65.5355 154.565-52.8286 154.565-37.1539C154.565-21.4792 141.858-8.77239 126.183-8.77239L32.1044-8.77239C16.4298-8.77239 3.72291-21.4792 3.72291-37.1539C3.72291-52.8286 16.4298-65.5355 32.1044-65.5355Z"/>
  </g>
  <g id="Light-L" transform="matrix(1 0 0 1 1074.56 1556)">
   <path d="M32.7856-34.6697L124.325-34.6697L124.325-39.2467L32.7856-39.2467L32.7856-34.6697ZM31.2639-60.5382C18.117-60.5382 7.45931-49.8805 7.45931-36.7336C7.45931-23.5867 18.117-12.9291 31.2639-12.9291L125.343-12.9291C138.49-12.9291 149.147-23.5867 149.147-36.7336C149.147-49.8805 138.49-60.5382 125.343-60.5382L31.2639-60.5382ZM31.2639-65.1152L125.343-65.1152C141.017-65.1152 153.724-52.4083 153.724-36.7336C153.724-21.059 141.017-8.3521 125.343-8.3521L31.2639-8.3521C15.5892-8.3521 2.88233-21.059 2.88233-36.7336C2.88233-52.4083 15.5892-65.1152 31.2639-65.1152Z"/>
  </g>
  <g id="Thin-L" transform="matrix(1 0 0 1 778.485 1556)">
   <path d="M31.6738-34.1139L123.213-34.1139L123.213-38.6909L31.6738-38.6909L31.6738-34.1139ZM30.1521-59.9823C17.0052-59.9823 6.34757-49.3247 6.34757-36.1778C6.34757-23.0309 17.0052-12.3732 30.1521-12.3732L124.231-12.3732C137.378-12.3732 148.036-23.0309 148.036-36.1778C148.036-49.3247 137.378-59.9823 124.231-59.9823L30.1521-59.9823ZM30.1521-64.5593L124.231-64.5593C139.906-64.5593 152.613-51.8525 152.613-36.1778C152.613-20.5031 139.906-7.79624 124.231-7.79624L30.1521-7.79624C14.4774-7.79624 1.77059-20.5031 1.77059-36.1778C1.77059-51.8525 14.4774-64.5593 30.1521-64.5593Z"/>
  </g>
  <g id="Ultralight-L" transform="matrix(1 0 0 1 482.098 1556)">
   <path d="M31.1044-33.8292L122.644-33.8292L122.644-38.4061L31.1044-38.4061L31.1044-33.8292ZM29.5827-59.6976C16.4358-59.6976 5.77815-49.04 5.77815-35.8931C5.77815-22.7462 16.4358-12.0885 29.5827-12.0885L123.662-12.0885C136.809-12.0885 147.466-22.7462 147.466-35.8931C147.466-49.04 136.809-59.6976 123.662-59.6976L29.5827-59.6976ZM29.5827-64.2746L123.662-64.2746C139.336-64.2746 152.043-51.5678 152.043-35.8931C152.043-20.2184 139.336-7.51152 123.662-7.51152L29.5827-7.51152C13.908-7.51152 1.20117-20.2184 1.20117-35.8931C1.20117-51.5678 13.908-64.2746 29.5827-64.2746Z"/>
  </g>
  <g id="Black-M" transform="matrix(1 0 0 1 2863.62 1126)">
   <path d="M33.8484-34.4302L104.768-34.4302L104.768-37.9762L33.8484-37.9762L33.8484-34.4302ZM32.6694-54.4716C22.484-54.4716 14.227-46.2146 14.227-36.0292C14.227-25.8437 22.484-17.5868 32.6694-17.5868L105.556-17.5868C115.742-17.5868 123.999-25.8437 123.999-36.0292C123.999-46.2146 115.742-54.4716 105.556-54.4716L32.6694-54.4716ZM32.6694-58.0176L105.556-58.0176C117.7-58.0176 127.545-48.173 127.545-36.0292C127.545-23.8853 117.7-14.0408 105.556-14.0408L32.6694-14.0408C20.5256-14.0408 10.6811-23.8853 10.6811-36.0292C10.6811-48.173 20.5256-58.0176 32.6694-58.0176Z"/>
  </g>
  <g id="Heavy-M" transform="matrix(1 0 0 1 2568.86 1126)">
   <path d="M32.1214-34.6499L103.041-34.6499L103.041-38.1958L32.1214-38.1958L32.1214-34.6499ZM30.9424-54.6912C20.757-54.6912 12.5001-46.4343 12.5001-36.2488C12.5001-26.0634 20.757-17.8065 30.9424-17.8065L103.829-17.8065C114.015-17.8065 122.272-26.0634 122.272-36.2488C122.272-46.4343 114.015-54.6912 103.829-54.6912L30.9424-54.6912ZM30.9424-58.2372L103.829-58.2372C115.973-58.2372 125.818-48.3927 125.818-36.2488C125.818-24.105 115.973-14.2605 103.829-14.2605L30.9424-14.2605C18.7986-14.2605 8.95407-24.105 8.95407-36.2488C8.95407-48.3927 18.7986-58.2372 30.9424-58.2372Z"/>
  </g>
  <g id="Bold-M" transform="matrix(1 0 0 1 2274.33 1126)">
   <path d="M30.1895-34.8956L101.109-34.8956L101.109-38.4416L30.1895-38.4416L30.1895-34.8956ZM29.0106-54.937C18.8251-54.937 10.5682-46.68 10.5682-36.4946C10.5682-26.3091 18.8251-18.0522 29.0106-18.0522L101.897-18.0522C112.083-18.0522 120.34-26.3091 120.34-36.4946C120.34-46.68 112.083-54.937 101.897-54.937L29.0106-54.937ZM29.0106-58.4829L101.897-58.4829C114.041-58.4829 123.886-48.6384 123.886-36.4946C123.886-24.3507 114.041-14.5062 101.897-14.5062L29.0106-14.5062C16.8667-14.5062 7.02218-24.3507 7.02218-36.4946C7.02218-48.6384 16.8667-58.4829 29.0106-58.4829Z"/>
  </g>
  <g id="Semibold-M" transform="matrix(1 0 0 1 1979.13 1126)">
   <path d="M28.8576-35.065L99.7772-35.065L99.7772-38.6109L28.8576-38.6109L28.8576-35.065ZM27.6787-55.1064C17.4933-55.1064 9.23633-46.8494 9.23633-36.664C9.23633-26.4785 17.4933-18.2216 27.6787-18.2216L100.566-18.2216C110.751-18.2216 119.008-26.4785 119.008-36.664C119.008-46.8494 110.751-55.1064 100.566-55.1064L27.6787-55.1064ZM27.6787-58.6523L100.566-58.6523C112.709-58.6523 122.554-48.8078 122.554-36.664C122.554-24.5201 112.709-14.6756 100.566-14.6756L27.6787-14.6756C15.5349-14.6756 5.69035-24.5201 5.69035-36.664C5.69035-48.8078 15.5349-58.6523 27.6787-58.6523Z"/>
  </g>
  <g id="Medium-M" transform="matrix(1 0 0 1 1683.55 1126)">
   <path d="M27.8478-35.1934L98.7674-35.1934L98.7674-38.7394L27.8478-38.7394L27.8478-35.1934ZM26.6689-55.2348C16.4834-55.2348 8.22647-46.9779 8.22647-36.7924C8.22647-26.607 16.4834-18.35 26.6689-18.35L99.5557-18.35C109.741-18.35 117.998-26.607 117.998-36.7924C117.998-46.9779 109.741-55.2348 99.5557-55.2348L26.6689-55.2348ZM26.6689-58.7808L99.5557-58.7808C111.7-58.7808 121.544-48.9362 121.544-36.7924C121.544-24.6486 111.7-14.804 99.5557-14.804L26.6689-14.804C14.525-14.804 4.6805-24.6486 4.6805-36.7924C4.6805-48.9362 14.525-58.7808 26.6689-58.7808Z"/>
  </g>
  <g id="Regular-M" transform="matrix(1 0 0 1 1388.33 1126)">
   <path d="M26.5306-35.3609L97.4502-35.3609L97.4502-38.9069L26.5306-38.9069L26.5306-35.3609ZM25.3517-55.4023C15.1662-55.4023 6.90928-47.1454 6.90928-36.9599C6.90928-26.7745 15.1662-18.5175 25.3517-18.5175L98.2385-18.5175C108.424-18.5175 116.681-26.7745 116.681-36.9599C116.681-47.1454 108.424-55.4023 98.2385-55.4023L25.3517-55.4023ZM25.3517-58.9483L98.2385-58.9483C110.382-58.9483 120.227-49.1038 120.227-36.9599C120.227-24.8161 110.382-14.9716 98.2385-14.9716L25.3517-14.9716C13.2078-14.9716 3.3633-24.8161 3.3633-36.9599C3.3633-49.1038 13.2078-58.9483 25.3517-58.9483Z"/>
  </g>
  <g id="Light-M" transform="matrix(1 0 0 1 1092.05 1126)">
   <path d="M25.777-34.9841L96.6965-34.9841L96.6965-38.5301L25.777-38.5301L25.777-34.9841ZM24.598-55.0255C14.4126-55.0255 6.15565-46.7686 6.15565-36.5831C6.15565-26.3977 14.4126-18.1407 24.598-18.1407L97.4849-18.1407C107.67-18.1407 115.927-26.3977 115.927-36.5831C115.927-46.7686 107.67-55.0255 97.4849-55.0255L24.598-55.0255ZM24.598-58.5715L97.4849-58.5715C109.629-58.5715 119.473-48.727 119.473-36.5831C119.473-24.4393 109.629-14.5948 97.4849-14.5948L24.598-14.5948C12.4542-14.5948 2.60967-24.4393 2.60967-36.5831C2.60967-48.727 12.4542-58.5715 24.598-58.5715Z"/>
  </g>
  <g id="Thin-M" transform="matrix(1 0 0 1 795.904 1126)">
   <path d="M24.7802-34.4858L95.6998-34.4858L95.6998-38.0318L24.7802-38.0318L24.7802-34.4858ZM23.6013-54.5272C13.4159-54.5272 5.15892-46.2702 5.15892-36.0848C5.15892-25.8993 13.4159-17.6424 23.6013-17.6424L96.4882-17.6424C106.674-17.6424 114.931-25.8993 114.931-36.0848C114.931-46.2702 106.674-54.5272 96.4882-54.5272L23.6013-54.5272ZM23.6013-58.0731L96.4882-58.0731C108.632-58.0731 118.477-48.2286 118.477-36.0848C118.477-23.9409 108.632-14.0964 96.4882-14.0964L23.6013-14.0964C11.4575-14.0964 1.61295-23.9409 1.61295-36.0848C1.61295-48.2286 11.4575-58.0731 23.6013-58.0731Z"/>
  </g>
  <g id="Ultralight-M" transform="matrix(1 0 0 1 499.483 1126)">
   <path d="M24.2697-34.2305L95.1893-34.2305L95.1893-37.7765L24.2697-37.7765L24.2697-34.2305ZM23.0908-54.2719C12.9053-54.2719 4.64841-46.015 4.64841-35.8295C4.64841-25.6441 12.9053-17.3871 23.0908-17.3871L95.9777-17.3871C106.163-17.3871 114.42-25.6441 114.42-35.8295C114.42-46.015 106.163-54.2719 95.9777-54.2719L23.0908-54.2719ZM23.0908-57.8179L95.9777-57.8179C108.122-57.8179 117.966-47.9733 117.966-35.8295C117.966-23.6857 108.122-13.8411 95.9777-13.8411L23.0908-13.8411C10.947-13.8411 1.10243-23.6857 1.10243-35.8295C1.10243-47.9733 10.947-57.8179 23.0908-57.8179Z"/>
  </g>
  <g id="Black-S" transform="matrix(1 0 0 1 2878.15 696)">
   <path d="M27.0062-34.5146L82.5858-34.5146L82.5858-37.2936L27.0062-37.2936L27.0062-34.5146ZM26.0823-50.221C18.0999-50.221 11.629-43.7501 11.629-35.7677C11.629-27.7854 18.0999-21.3145 26.0823-21.3145L83.2036-21.3145C91.186-21.3145 97.6569-27.7854 97.6569-35.7677C97.6569-43.7501 91.186-50.221 83.2036-50.221L26.0823-50.221ZM26.0823-53L83.2036-53C92.7208-53 100.436-45.2849 100.436-35.7677C100.436-26.2506 92.7208-18.5355 83.2036-18.5355L26.0823-18.5355C16.5651-18.5355 8.85-26.2506 8.85-35.7677C8.85-45.2849 16.5651-53 26.0823-53Z"/>
  </g>
  <g id="Heavy-S" transform="matrix(1 0 0 1 2583.05 696)">
   <path d="M25.6255-34.7506L81.2051-34.7506L81.2051-37.5296L25.6255-37.5296L25.6255-34.7506ZM24.7015-50.457C16.7192-50.457 10.2483-43.9861 10.2483-36.0038C10.2483-28.0214 16.7192-21.5505 24.7015-21.5505L81.8229-21.5505C89.8052-21.5505 96.2762-28.0214 96.2762-36.0038C96.2762-43.9861 89.8052-50.457 81.8229-50.457L24.7015-50.457ZM24.7015-53.236L81.8229-53.236C91.34-53.236 99.0552-45.5209 99.0552-36.0038C99.0552-26.4866 91.34-18.7715 81.8229-18.7715L24.7015-18.7715C15.1844-18.7715 7.46928-26.4866 7.46928-36.0038C7.46928-45.5209 15.1844-53.236 24.7015-53.236Z"/>
  </g>
  <g id="Bold-S" transform="matrix(1 0 0 1 2288.15 696)">
   <path d="M24.0812-35.0146L79.6608-35.0146L79.6608-37.7936L24.0812-37.7936L24.0812-35.0146ZM23.1573-50.721C15.1749-50.721 8.70398-44.2501 8.70398-36.2677C8.70398-28.2854 15.1749-21.8145 23.1573-21.8145L80.2786-21.8145C88.261-21.8145 94.7319-28.2854 94.7319-36.2677C94.7319-44.2501 88.261-50.721 80.2786-50.721L23.1573-50.721ZM23.1573-53.5L80.2786-53.5C89.7958-53.5 97.5109-45.7849 97.5109-36.2677C97.5109-26.7506 89.7958-19.0355 80.2786-19.0355L23.1573-19.0355C13.6401-19.0355 5.925-26.7506 5.925-36.2677C5.925-45.7849 13.6401-53.5 23.1573-53.5Z"/>
  </g>
  <g id="Semibold-S" transform="matrix(1 0 0 1 1992.68 696)">
   <path d="M23.0165-35.1966L78.5961-35.1966L78.5961-37.9756L23.0165-37.9756L23.0165-35.1966ZM22.0926-50.903C14.1102-50.903 7.63928-44.4321 7.63928-36.4497C7.63928-28.4674 14.1102-21.9965 22.0926-21.9965L79.2139-21.9965C87.1963-21.9965 93.6672-28.4674 93.6672-36.4497C93.6672-44.4321 87.1963-50.903 79.2139-50.903L22.0926-50.903ZM22.0926-53.682L79.2139-53.682C88.7311-53.682 96.4462-45.9669 96.4462-36.4497C96.4462-26.9326 88.7311-19.2175 79.2139-19.2175L22.0926-19.2175C12.5754-19.2175 4.8603-26.9326 4.8603-36.4497C4.8603-45.9669 12.5754-53.682 22.0926-53.682Z"/>
  </g>
  <g id="Medium-S" transform="matrix(1 0 0 1 1696.91 696)">
   <path d="M22.2092-35.3346L77.7888-35.3346L77.7888-38.1136L22.2092-38.1136L22.2092-35.3346ZM21.2853-51.041C13.3029-51.041 6.83198-44.5701 6.83198-36.5877C6.83198-28.6054 13.3029-22.1345 21.2853-22.1345L78.4066-22.1345C86.389-22.1345 92.8599-28.6054 92.8599-36.5877C92.8599-44.5701 86.389-51.041 78.4066-51.041L21.2853-51.041ZM21.2853-53.82L78.4066-53.82C87.9238-53.82 95.6389-46.1049 95.6389-36.5877C95.6389-27.0706 87.9238-19.3555 78.4066-19.3555L21.2853-19.3555C11.7681-19.3555 4.053-27.0706 4.053-36.5877C4.053-46.1049 11.7681-53.82 21.2853-53.82Z"/>
  </g>
  <g id="Regular-S" transform="matrix(1 0 0 1 1401.43 696)">
   <path d="M21.1562-35.5146L76.7358-35.5146L76.7358-38.2936L21.1562-38.2936L21.1562-35.5146ZM20.2323-51.221C12.2499-51.221 5.77898-44.7501 5.77898-36.7677C5.77898-28.7854 12.2499-22.3145 20.2323-22.3145L77.3536-22.3145C85.336-22.3145 91.8069-28.7854 91.8069-36.7677C91.8069-44.7501 85.336-51.221 77.3536-51.221L20.2323-51.221ZM20.2323-54L77.3536-54C86.8708-54 94.5859-46.2849 94.5859-36.7677C94.5859-27.2506 86.8708-19.5355 77.3536-19.5355L20.2323-19.5355C10.7151-19.5355 3-27.2506 3-36.7677C3-46.2849 10.7151-54 20.2323-54Z"/>
  </g>
  <g id="Light-S" transform="matrix(1 0 0 1 1105.1 696)">
   <path d="M20.4895-35.1813L76.0691-35.1813L76.0691-37.9603L20.4895-37.9603L20.4895-35.1813ZM19.5656-50.8877C11.5833-50.8877 5.11231-44.4167 5.11231-36.4344C5.11231-28.4521 11.5833-21.9811 19.5656-21.9811L76.687-21.9811C84.6693-21.9811 91.1403-28.4521 91.1403-36.4344C91.1403-44.4167 84.6693-50.8877 76.687-50.8877L19.5656-50.8877ZM19.5656-53.6667L76.687-53.6667C86.2041-53.6667 93.9192-45.9515 93.9192-36.4344C93.9192-26.9173 86.2041-19.2021 76.687-19.2021L19.5656-19.2021C10.0485-19.2021 2.33333-26.9173 2.33333-36.4344C2.33333-45.9515 10.0485-53.6667 19.5656-53.6667Z"/>
  </g>
  <g id="Thin-S" transform="matrix(1 0 0 1 808.887 696)">
   <path d="M19.6078-34.7404L75.1874-34.7404L75.1874-37.5194L19.6078-37.5194L19.6078-34.7404ZM18.6839-50.4468C10.7015-50.4468 4.23059-43.9759 4.23059-35.9935C4.23059-28.0112 10.7015-21.5403 18.6839-21.5403L75.8053-21.5403C83.7876-21.5403 90.2585-28.0112 90.2585-35.9935C90.2585-43.9759 83.7876-50.4468 75.8053-50.4468L18.6839-50.4468ZM18.6839-53.2258L75.8053-53.2258C85.3224-53.2258 93.0375-45.5107 93.0375-35.9935C93.0375-26.4764 85.3224-18.7613 75.8053-18.7613L18.6839-18.7613C9.16676-18.7613 1.45161-26.4764 1.45161-35.9935C1.45161-45.5107 9.16676-53.2258 18.6839-53.2258Z"/>
  </g>
  <g id="Ultralight-S" transform="matrix(1 0 0 1 512.433 696)">
   <path d="M19.1562-34.5146L74.7358-34.5146L74.7358-37.2936L19.1562-37.2936L19.1562-34.5146ZM18.2323-50.221C10.2499-50.221 3.77898-43.7501 3.77898-35.7677C3.77898-27.7854 10.2499-21.3145 18.2323-21.3145L75.3536-21.3145C83.336-21.3145 89.8069-27.7854 89.8069-35.7677C89.8069-43.7501 83.336-50.221 75.3536-50.221L18.2323-50.221ZM18.2323-53L75.3536-53C84.8708-53 92.5859-45.2849 92.5859-35.7677C92.5859-26.2506 84.8708-18.5355 75.3536-18.5355L18.2323-18.5355C8.71515-18.5355 1-26.2506 1-35.7677C1-45.2849 8.71515-53 18.2323-53Z"/>
  </g>
 </g>
</svg>
