<?xml version="1.0" encoding="UTF-8"?>
<!--Generator: Apple Native CoreSVG 341-->
<!DOCTYPE svg
PUBLIC "-//W3C//DTD SVG 1.1//EN"
       "http://www.w3.org/Graphics/SVG/1.1/DTD/svg11.dtd">
<svg version="1.1" xmlns="http://www.w3.org/2000/svg" xmlns:xlink="http://www.w3.org/1999/xlink" viewBox="0 0 3300 2200">
 <g id="Notes">
  <rect height="2200" id="artboard" style="fill:white;opacity:1" width="3300" x="0" y="0"/>
  <line style="fill:none;stroke:black;opacity:1;stroke-width:0.5;" x1="263" x2="3036" y1="292" y2="292"/>
  <text style="stroke:none;fill:black;font-family:sans-serif;font-size:13;font-weight:bold;" transform="matrix(1 0 0 1 263 322)">Weight/Scale Variations</text>
  <text style="stroke:none;fill:black;font-family:sans-serif;font-size:13;text-anchor:middle;" transform="matrix(1 0 0 1 559.711 322)">Ultralight</text>
  <text style="stroke:none;fill:black;font-family:sans-serif;font-size:13;text-anchor:middle;" transform="matrix(1 0 0 1 856.422 322)">Thin</text>
  <text style="stroke:none;fill:black;font-family:sans-serif;font-size:13;text-anchor:middle;" transform="matrix(1 0 0 1 1153.13 322)">Light</text>
  <text style="stroke:none;fill:black;font-family:sans-serif;font-size:13;text-anchor:middle;" transform="matrix(1 0 0 1 1449.84 322)">Regular</text>
  <text style="stroke:none;fill:black;font-family:sans-serif;font-size:13;text-anchor:middle;" transform="matrix(1 0 0 1 1746.56 322)">Medium</text>
  <text style="stroke:none;fill:black;font-family:sans-serif;font-size:13;text-anchor:middle;" transform="matrix(1 0 0 1 2043.27 322)">Semibold</text>
  <text style="stroke:none;fill:black;font-family:sans-serif;font-size:13;text-anchor:middle;" transform="matrix(1 0 0 1 2339.98 322)">Bold</text>
  <text style="stroke:none;fill:black;font-family:sans-serif;font-size:13;text-anchor:middle;" transform="matrix(1 0 0 1 2636.69 322)">Heavy</text>
  <text style="stroke:none;fill:black;font-family:sans-serif;font-size:13;text-anchor:middle;" transform="matrix(1 0 0 1 2933.4 322)">Black</text>
  <line style="fill:none;stroke:black;opacity:1;stroke-width:0.5;" x1="263" x2="3036" y1="1903" y2="1903"/>
  <g transform="matrix(0.2 0 0 0.2 263 1933)">
   <path d="m46.2402 4.15039c21.7773 0 39.4531-17.627 39.4531-39.4043s-17.6758-39.4043-39.4531-39.4043c-21.7285 0-39.4043 17.627-39.4043 39.4043s17.6758 39.4043 39.4043 39.4043Zm0-7.42188c-17.6758 0-31.9336-14.3066-31.9336-31.9824s14.2578-31.9824 31.9336-31.9824 31.9824 14.3066 31.9824 31.9824-14.3066 31.9824-31.9824 31.9824Zm3.61328-17.7734v-28.4668c0-2.24609-1.46484-3.75977-3.71094-3.75977-2.14844 0-3.61328 1.51367-3.61328 3.75977v28.4668c0 2.19727 1.46484 3.71094 3.61328 3.71094 2.24609 0 3.71094-1.51367 3.71094-3.71094Zm-17.8223-10.5957h28.418c2.19727 0 3.71094-1.46484 3.71094-3.61328 0-2.19727-1.51367-3.71094-3.71094-3.71094h-28.418c-2.24609 0-3.75977 1.51367-3.75977 3.71094 0 2.14844 1.51367 3.61328 3.75977 3.61328Z"/>
  </g>
  <g transform="matrix(0.2 0 0 0.2 281.506 1933)">
   <path d="m58.5449 14.5508c27.4902 0 49.8047-22.3145 49.8047-49.8047s-22.3145-49.8047-49.8047-49.8047-49.8047 22.3145-49.8047 49.8047 22.3145 49.8047 49.8047 49.8047Zm0-8.30078c-22.9492 0-41.5039-18.5547-41.5039-41.5039s18.5547-41.5039 41.5039-41.5039 41.5039 18.5547 41.5039 41.5039-18.5547 41.5039-41.5039 41.5039Zm4.05273-23.0957v-36.9141c0-2.49023-1.70898-4.19922-4.15039-4.19922-2.39258 0-4.05273 1.70898-4.05273 4.19922v36.9141c0 2.44141 1.66016 4.15039 4.05273 4.15039 2.44141 0 4.15039-1.66016 4.15039-4.15039Zm-22.5586-14.4043h36.9629c2.44141 0 4.15039-1.61133 4.15039-4.00391 0-2.44141-1.70898-4.15039-4.15039-4.15039h-36.9629c-2.49023 0-4.15039 1.70898-4.15039 4.15039 0 2.39258 1.66016 4.00391 4.15039 4.00391Z"/>
  </g>
  <g transform="matrix(0.2 0 0 0.2 304.924 1933)">
   <path d="m74.8535 28.3203c35.1074 0 63.623-28.4668 63.623-63.5742s-28.5156-63.623-63.623-63.623-63.5742 28.5156-63.5742 63.623 28.4668 63.5742 63.5742 63.5742Zm0-9.08203c-30.127 0-54.4922-24.3652-54.4922-54.4922s24.3652-54.4922 54.4922-54.4922 54.4922 24.3652 54.4922 54.4922-24.3652 54.4922-54.4922 54.4922Zm4.44336-30.3223v-48.4863c0-2.73438-1.85547-4.63867-4.54102-4.63867-2.58789 0-4.44336 1.9043-4.44336 4.63867v48.4863c0 2.68555 1.85547 4.58984 4.44336 4.58984 2.68555 0 4.54102-1.85547 4.54102-4.58984Zm-28.7109-19.7754h48.4863c2.68555 0 4.58984-1.80664 4.58984-4.39453 0-2.73438-1.85547-4.58984-4.58984-4.58984h-48.4863c-2.73438 0-4.58984 1.85547-4.58984 4.58984 0 2.58789 1.85547 4.39453 4.58984 4.39453Z"/>
  </g>
  <text style="stroke:none;fill:black;font-family:sans-serif;font-size:13;font-weight:bold;" transform="matrix(1 0 0 1 263 1953)">Design Variations</text>
  <text style="stroke:none;fill:black;font-family:sans-serif;font-size:13;" transform="matrix(1 0 0 1 263 1971)">Symbols are supported in up to nine weights and three scales.</text>
  <text style="stroke:none;fill:black;font-family:sans-serif;font-size:13;" transform="matrix(1 0 0 1 263 1989)">For optimal layout with text and other symbols, vertically align</text>
  <text style="stroke:none;fill:black;font-family:sans-serif;font-size:13;" transform="matrix(1 0 0 1 263 2007)">symbols with the adjacent text.</text>
  <line style="fill:none;stroke:#00AEEF;stroke-width:0.5;opacity:1.0;" x1="776" x2="776" y1="1919" y2="1933"/>
  <g transform="matrix(0.2 0 0 0.2 776 1933)">
   <path d="m16.5527 0.78125c2.58789 0 3.85742-0.976562 4.78516-3.71094l20.5566-57.5195h0.244141l20.6055 57.5195c0.927734 2.73438 2.19727 3.71094 4.73633 3.71094 2.58789 0 4.24805-1.5625 4.24805-4.00391 0-0.830078-0.146484-1.61133-0.537109-2.63672l-22.9004-60.9863c-1.12305-2.97852-3.125-4.49219-6.25-4.49219-3.02734 0-5.07812 1.46484-6.15234 4.44336l-22.9004 61.084c-0.390625 1.02539-0.537109 1.80664-0.537109 2.63672 0 2.44141 1.5625 3.95508 4.10156 3.95508Zm10.2051-20.9473h30.6641c2.00195 0 3.66211-1.66016 3.66211-3.66211 0-2.05078-1.66016-3.66211-3.66211-3.66211h-30.6641c-2.00195 0-3.66211 1.61133-3.66211 3.66211 0 2.00195 1.66016 3.66211 3.66211 3.66211Z"/>
  </g>
  <line style="fill:none;stroke:#00AEEF;stroke-width:0.5;opacity:1.0;" x1="792.836" x2="792.836" y1="1919" y2="1933"/>
  <text style="stroke:none;fill:black;font-family:sans-serif;font-size:13;font-weight:bold;" transform="matrix(1 0 0 1 776 1953)">Margins</text>
  <text style="stroke:none;fill:black;font-family:sans-serif;font-size:13;" transform="matrix(1 0 0 1 776 1971)">Leading and trailing margins on the left and right side of each symbol</text>
  <text style="stroke:none;fill:black;font-family:sans-serif;font-size:13;" transform="matrix(1 0 0 1 776 1989)">can be adjusted by modifying the x-location of the margin guidelines.</text>
  <text style="stroke:none;fill:black;font-family:sans-serif;font-size:13;" transform="matrix(1 0 0 1 776 2007)">Modifications are automatically applied proportionally to all</text>
  <text style="stroke:none;fill:black;font-family:sans-serif;font-size:13;" transform="matrix(1 0 0 1 776 2025)">scales and weights.</text>
  <g transform="matrix(0.2 0 0 0.2 1289 1933)">
   <path d="m14.209 13.1348 7.86133 7.86133c4.29688 4.39453 9.32617 4.10156 13.8672-1.02539l60.6934-68.2129-4.88281-4.88281-60.2539 67.6758c-1.80664 1.95312-3.4668 2.44141-5.81055 0.0976562l-5.17578-5.12695c-2.29492-2.29492-1.80664-3.95508 0.195312-5.81055l67.4805-62.1582-4.88281-4.83398-68.0664 62.5977c-4.98047 4.58984-5.32227 9.47266-1.02539 13.8184Zm44.873-97.4609c-2.05078 2.00195-2.24609 4.88281-1.07422 6.78711 1.12305 1.80664 3.4668 3.02734 6.5918 2.24609 5.85938-1.66016 12.5977-2.39258 18.8965 0.927734l-2.68555 7.12891c-1.61133 4.00391-0.732422 6.88477 1.70898 9.42383l10.2539 10.3027c2.34375 2.39258 4.54102 2.44141 7.08008 1.95312l4.44336-0.732422 2.58789 2.53906-0.195312 2.24609c-0.0976562 2.29492 0.537109 4.29688 2.7832 6.49414l3.36914 3.32031c2.29492 2.29492 5.51758 2.49023 7.8125 0.195312l12.9883-13.0371c2.29492-2.34375 2.14844-5.37109-0.195312-7.66602l-3.41797-3.41797c-2.19727-2.19727-4.05273-3.02734-6.34766-2.88086l-2.34375 0.244141-2.44141-2.44141 1.02539-4.6875c0.634766-2.73438-0.244141-4.98047-2.88086-7.61719l-11.2793-11.1816c-12.9395-12.8418-35.5957-11.0352-46.6797-0.146484Zm7.08008 2.05078c8.78906-6.39648 25.9766-5.66406 33.6914 1.95312l12.3047 12.207c1.02539 1.02539 1.2207 1.80664 0.927734 3.32031l-1.46484 6.64062 6.73828 6.68945 4.39453-0.244141c1.12305-0.0488281 1.51367 0.0488281 2.34375 0.878906l2.53906 2.49023-10.8398 10.8398-2.49023-2.49023c-0.830078-0.878906-0.976562-1.2207-0.927734-2.39258l0.292969-4.3457-6.68945-6.73828-6.83594 1.17188c-1.41602 0.292969-2.05078 0.195312-3.17383-0.878906l-8.93555-8.88672c-1.07422-1.02539-1.17188-1.70898-0.488281-3.36914l4.58984-11.4746c-6.10352-6.34766-17.041-7.51953-25.5859-4.58984-0.683594 0.244141-0.927734-0.390625-0.390625-0.78125Z"/>
  </g>
  <text style="stroke:none;fill:black;font-family:sans-serif;font-size:13;font-weight:bold;" transform="matrix(1 0 0 1 1289 1953)">Exporting</text>
  <text style="stroke:none;fill:black;font-family:sans-serif;font-size:13;" transform="matrix(1 0 0 1 1289 1971)">Symbols should be outlined when exporting to ensure the</text>
  <text style="stroke:none;fill:black;font-family:sans-serif;font-size:13;" transform="matrix(1 0 0 1 1289 1989)">design is preserved when submitting to Xcode.</text>
  <text id="template-version" style="stroke:none;fill:black;font-family:sans-serif;font-size:13;text-anchor:end;" transform="matrix(1 0 0 1 3036 1933)">Template v.2.0</text>
  <text style="stroke:none;fill:black;font-family:sans-serif;font-size:13;text-anchor:end;" transform="matrix(1 0 0 1 3036 1951)">Requires Xcode 12 or greater</text>
  <text id="descriptive-name" style="stroke:none;fill:black;font-family:sans-serif;font-size:13;text-anchor:end;" transform="matrix(1 0 0 1 3036 1969)">Generated from fast.bolt.battery</text>
  <text style="stroke:none;fill:black;font-family:sans-serif;font-size:13;text-anchor:end;" transform="matrix(1 0 0 1 3036 1987)">Typeset at 100.0 points</text>
  <text style="stroke:none;fill:black;font-family:sans-serif;font-size:13;" transform="matrix(1 0 0 1 263 726)">Small</text>
  <text style="stroke:none;fill:black;font-family:sans-serif;font-size:13;" transform="matrix(1 0 0 1 263 1156)">Medium</text>
  <text style="stroke:none;fill:black;font-family:sans-serif;font-size:13;" transform="matrix(1 0 0 1 263 1586)">Large</text>
 </g>
 <g id="Guides">
  <g id="H-reference" style="fill:#27AAE1;stroke:none;" transform="matrix(1 0 0 1 339 696)">
   <path d="M0.993654 0L3.63775 0L29.3281-67.1323L30.0303-67.1323L30.0303-70.459L28.1226-70.459ZM11.6885-24.4799L46.9815-24.4799L46.2315-26.7285L12.4385-26.7285ZM55.1196 0L57.7637 0L30.6382-70.459L29.4326-70.459L29.4326-67.1323Z"/>
  </g>
  <line id="Baseline-S" style="fill:none;stroke:#27AAE1;opacity:1;stroke-width:0.5;" x1="263" x2="3036" y1="696" y2="696"/>
  <line id="Capline-S" style="fill:none;stroke:#27AAE1;opacity:1;stroke-width:0.5;" x1="263" x2="3036" y1="625.541" y2="625.541"/>
  <g id="H-reference" style="fill:#27AAE1;stroke:none;" transform="matrix(1 0 0 1 339 1126)">
   <path d="M0.993654 0L3.63775 0L29.3281-67.1323L30.0303-67.1323L30.0303-70.459L28.1226-70.459ZM11.6885-24.4799L46.9815-24.4799L46.2315-26.7285L12.4385-26.7285ZM55.1196 0L57.7637 0L30.6382-70.459L29.4326-70.459L29.4326-67.1323Z"/>
  </g>
  <line id="Baseline-M" style="fill:none;stroke:#27AAE1;opacity:1;stroke-width:0.5;" x1="263" x2="3036" y1="1126" y2="1126"/>
  <line id="Capline-M" style="fill:none;stroke:#27AAE1;opacity:1;stroke-width:0.5;" x1="263" x2="3036" y1="1055.54" y2="1055.54"/>
  <g id="H-reference" style="fill:#27AAE1;stroke:none;" transform="matrix(1 0 0 1 339 1556)">
   <path d="M0.993654 0L3.63775 0L29.3281-67.1323L30.0303-67.1323L30.0303-70.459L28.1226-70.459ZM11.6885-24.4799L46.9815-24.4799L46.2315-26.7285L12.4385-26.7285ZM55.1196 0L57.7637 0L30.6382-70.459L29.4326-70.459L29.4326-67.1323Z"/>
  </g>
  <line id="Baseline-L" style="fill:none;stroke:#27AAE1;opacity:1;stroke-width:0.5;" x1="263" x2="3036" y1="1556" y2="1556"/>
  <line id="Capline-L" style="fill:none;stroke:#27AAE1;opacity:1;stroke-width:0.5;" x1="263" x2="3036" y1="1485.54" y2="1485.54"/>
  <line id="right-margin" style="fill:none;stroke:#00AEEF;stroke-width:0.5;opacity:1.0;" x1="1534.56" x2="1534.56" y1="1030.79" y2="1150.12"/>
  <line id="left-margin" style="fill:none;stroke:#00AEEF;stroke-width:0.5;opacity:1.0;" x1="1365.13" x2="1365.13" y1="1030.79" y2="1150.12"/>
 </g>
 <g id="Symbols">
  <g id="Black-L" transform="matrix(1 0 0 1 2817.53 1556)">
   <path d="M152.655-83.9237C166.449-83.9237 175.251-81.8098 181.971-75.133C188.61-68.5354 190.593-59.8829 190.597-46.1138L190.597-23.729C190.597-9.93866 188.6-1.27321 181.935 5.3969C175.27 12.0669 166.399 14.1273 152.673 14.1273L105.53 14.1273L106.048 11.0366L120.185-5.84662L154.4-5.8564C160.986-5.8564 164.79-6.773 167.232-9.26777C169.672-11.7626 170.564-15.3738 170.564-22.0037L170.564-47.7668C170.564-54.4187 169.755-58.0069 167.255-60.4975C164.754-62.9881 160.962-63.9231 154.375-63.9231L126.776-63.9231L129.109-69.9619C131.221-75.4767 130.283-80.3192 127.699-83.9237L152.655-83.9237ZM201.896-15.0242L201.896-54.7721C207.974-54.3931 216.174-46.5913 216.174-34.8982C216.174-23.205 207.974-15.4032 201.896-15.0242ZM81.0703-83.9998L81.0703-73.4252L15.2856-73.4252L15.2856-83.9998L81.0703-83.9998ZM69.4736 3.29764L69.4736 13.8723L15.2856 13.8723L15.2856 3.29764L69.4736 3.29764ZM66.4475-62.1754L66.4475-51.6008L15.2856-51.6008L15.2856-62.1754L66.4475-62.1754ZM59.3332-18.5267L59.3332-7.95208L15.2856-7.95208L15.2856-18.5267L59.3332-18.5267ZM57.0407-40.3511L57.0407-29.7764L15.2856-29.7764L15.2856-40.3511L57.0407-40.3511ZM73.543-30.3758C73.543-28.0553 75.5055-26.1952 77.9647-26.1952L99.0826-26.1952L87.8452 3.0823C85.6622 8.80161 91.9321 12.2292 95.819 7.56489L132.632-36.6992C133.451-37.6995 133.966-38.9298 133.966-40.1588C133.966-42.4794 132.024-44.3394 129.566-44.3394L108.447-44.3394L119.684-73.5961C121.867-79.3154 115.599-82.7638 111.711-78.0996L74.8977-33.8342C74.0791-32.8339 73.543-31.6048 73.543-30.3758Z"/>
  </g>
  <g id="Heavy-L" transform="matrix(1 0 0 1 2522.54 1556)">
   <path d="M151.639-82.3784C164.626-82.3784 173.504-80.3142 179.965-73.7653C186.352-67.2908 188.076-58.8138 188.095-46.2085L188.095-23.9623C188.095-11.2573 186.301-2.48984 179.797 4.02756C173.294 10.5449 164.393 12.4251 151.723 12.4251L104.117 12.4251L104.86 9.53756L117.016-5.04182L153.278-5.08771C159.696-5.08771 164.151-6.02815 166.908-8.82617C169.664-11.6243 170.554-15.9485 170.554-22.3993L170.554-47.4999C170.554-53.9864 169.825-58.041 167.019-60.981C164.212-63.921 159.581-64.8536 153.164-64.8536L124.946-64.8536L126.908-69.9556C128.829-74.9995 128.126-78.9828 125.897-82.3784L151.639-82.3784ZM198.697-16.0092L198.697-53.9437C204.495-53.5829 212.312-46.1412 212.312-34.9764C212.312-23.8117 204.495-16.37 198.697-16.0092ZM80.418-82.4816L80.418-72.666L14.8023-72.666L14.8023-82.4816L80.418-82.4816ZM69.4595 2.35349L69.4595 12.169L14.8023 12.169L14.8023 2.35349L69.4595 2.35349ZM65.8322-61.2728L65.8322-51.4573L14.8023-51.4573L14.8023-61.2728L65.8322-61.2728ZM59.2065-18.8553L59.2065-9.03975L14.8023-9.03975L14.8023-18.8553L59.2065-18.8553ZM56.5468-40.064L56.5468-30.2485L14.8023-30.2485L14.8023-40.064L56.5468-40.064ZM72.9913-30.3785C72.9913-28.2493 74.79-26.5669 77.0442-26.5669L98.2444-26.5669L86.9506 3.10574C84.9408 8.40148 90.7143 11.5141 94.2681 7.21441L130.619-36.916C131.396-37.8843 131.87-39.0142 131.87-40.1384C131.87-42.2677 130.102-43.9501 127.853-43.9501L106.648-43.9501L117.941-73.5925C119.951-78.8882 114.183-82.0311 110.624-77.7314L74.2733-33.5953C73.4961-32.627 72.9913-31.5027 72.9913-30.3785Z"/>
  </g>
  <g id="Bold-L" transform="matrix(1 0 0 1 2228.1 1556)">
   <path d="M150.472-80.4289C162.556-80.4289 171.458-78.2836 177.469-71.9719C183.412-65.7264 184.859-57.6691 184.904-46.5614L184.904-24.0698C184.904-12.7269 183.293-3.90882 177.073 2.3285C170.853 8.56579 162.008 10.3108 150.671 10.3108L102.346 10.3108L103.268 7.69075L113.013-4.05208L151.93-4.16025C158.158-4.16025 163.293-5.16688 166.404-8.30412C169.514-11.4415 170.434-16.5362 170.434-22.7865L170.434-47.2374C170.434-53.5389 169.817-57.9551 166.666-61.4698C163.514-64.9844 157.888-65.963 151.66-65.963L122.569-65.963L124.112-70.0031C125.818-74.5203 125.402-77.2671 123.572-80.4289L150.472-80.4289ZM194.584-17.2208L194.584-52.8965C200.033-52.5589 207.376-45.5628 207.376-35.0587C207.376-24.5545 200.033-17.5585 194.584-17.2208ZM79.8051-80.5475L79.8051-71.699L14.4192-71.699L14.4192-80.5475L79.8051-80.5475ZM69.4319 1.23838L69.4319 10.0868L14.4192 10.0868L14.4192 1.23838L69.4319 1.23838ZM65.3236-60.101L65.3236-51.2525L14.4192-51.2525L14.4192-60.101L65.3236-60.101ZM59.0888-19.2081L59.0888-10.3596L14.4192-10.3596L14.4192-19.2081L59.0888-19.2081ZM56.0453-39.6545L56.0453-30.8061L14.4192-30.8061L14.4192-39.6545L56.0453-39.6545ZM72.2111-30.3413C72.2111-28.4503 73.8024-26.9906 75.803-26.9906L97.1702-26.9906L85.7626 3.26311C83.9679 8.02883 89.1192 10.7571 92.2656 6.91067L128.211-37.2148C128.942-38.1446 129.363-39.1515 129.363-40.1451C129.363-42.0362 127.81-43.4959 125.822-43.4959L104.442-43.4959L115.85-73.7116C117.644-78.4773 112.506-81.2436 109.347-77.3972L73.4008-33.2585C72.6699-32.3287 72.2111-31.3349 72.2111-30.3413Z"/>
  </g>
  <g id="Semibold-L" transform="matrix(1 0 0 1 1932.95 1556)">
   <path d="M149.667-79.0849C161.129-79.0849 170.049-76.8837 175.748-70.7355C181.385-64.6479 182.641-56.88 182.704-46.8046L182.704-24.1438C182.704-13.7401 181.219-4.88705 175.195 1.15718C169.171 7.2014 160.363 8.85316 149.945 8.85316L101.125 8.85316L102.171 6.41756L110.254-3.36976L151.001-3.52086C157.099-3.52086 162.702-4.57313 166.057-7.94423C169.41-11.3154 170.351-16.9413 170.351-23.0534L170.351-47.0564C170.351-53.2303 169.811-57.8959 166.422-61.8067C163.033-65.7174 156.721-66.7277 150.623-66.7277L120.93-66.7277L122.184-70.0359C123.742-74.1899 123.524-76.0843 121.969-79.0849L149.667-79.0849ZM191.749-18.056L191.749-52.1747C196.957-51.8529 203.974-45.1641 203.974-35.1154C203.974-25.0666 196.957-18.3778 191.749-18.056ZM79.3826-79.2141L79.3826-71.0323L14.1551-71.0323L14.1551-79.2141L79.3826-79.2141ZM69.4129 0.469633L69.4129 8.65141L14.1551 8.65141L14.1551 0.469633L69.4129 0.469633ZM64.973-59.2931L64.973-51.1114L14.1551-51.1114L14.1551-59.2931L64.973-59.2931ZM59.0076-19.4513L59.0076-11.2695L14.1551-11.2695L14.1551-19.4513L59.0076-19.4513ZM55.6997-39.3722L55.6997-31.1904L14.1551-31.1904L14.1551-39.3722L55.6997-39.3722ZM71.6732-30.3157C71.6732-28.5889 73.1216-27.2828 74.9473-27.2828L96.4297-27.2828L84.9435 3.37161C83.2972 7.77192 88.0196 10.2352 90.8851 6.70128L126.552-37.4207C127.251-38.324 127.635-39.2462 127.635-40.1498C127.635-41.8766 126.23-43.1828 124.422-43.1828L102.922-43.1828L114.408-73.7937C116.054-78.194 111.35-80.7007 108.466-77.1668L72.7994-33.0263C72.1003-32.123 71.6732-31.2193 71.6732-30.3157Z"/>
  </g>
  <g id="Medium-L" transform="matrix(1 0 0 1 1637.43 1556)">
   <path d="M149.057-78.0659C160.047-78.0659 168.979-75.8222 174.443-69.7981C179.849-63.8301 180.959-56.2816 181.036-46.989L181.036-24.2C181.036-14.5083 179.646-5.62879 173.771 0.269036C167.896 6.16685 159.116 7.74793 149.395 7.74793L100.199 7.74793L101.338 5.45218L108.161-2.8524L150.296-3.03606C156.295-3.03606 162.254-4.12292 165.793-7.67134C169.332-11.2199 170.288-17.2485 170.288-23.2558L170.288-46.9191C170.288-52.9964 169.807-57.851 166.238-62.0622C162.669-66.2733 155.837-67.3076 149.837-67.3076L119.688-67.3076L120.722-70.0608C122.168-73.9394 122.101-75.1874 120.753-78.0659L149.057-78.0659ZM189.599-18.6894L189.599-51.6273C194.624-51.3176 201.394-44.8617 201.394-35.1583C201.394-25.4549 194.624-18.9991 189.599-18.6894ZM79.0622-78.2031L79.0622-70.5268L13.9549-70.5268L13.9549-78.2031L79.0622-78.2031ZM69.3984-0.113264L69.3984 7.563L13.9549 7.563L13.9549-0.113264L69.3984-0.113264ZM64.7072-58.6806L64.7072-51.0043L13.9549-51.0043L13.9549-58.6806L64.7072-58.6806ZM58.9461-19.6357L58.9461-11.9594L13.9549-11.9594L13.9549-19.6357L58.9461-19.6357ZM55.4376-39.1582L55.4376-31.4819L13.9549-31.4819L13.9549-39.1582L55.4376-39.1582ZM71.2653-30.2963C71.2653-28.694 72.6053-27.5043 74.2985-27.5043L95.8682-27.5043L84.3225 3.45387C82.7886 7.57713 87.1858 9.83949 89.8383 6.54251L125.294-37.5769C125.968-38.4601 126.324-39.3179 126.324-40.1533C126.324-41.7556 125.032-42.9453 123.361-42.9453L101.769-42.9453L113.314-73.856C114.848-77.9792 110.474-80.289 107.799-76.9921L72.3434-32.8502C71.6685-31.967 71.2653-31.1316 71.2653-30.2963Z"/>
  </g>
  <g id="Regular-L" transform="matrix(1 0 0 1 1342.27 1556)">
   <path d="M148.261-76.7367C158.636-76.7367 167.585-74.4377 172.741-68.5753C177.844-62.7635 178.766-55.5011 178.86-47.2296L178.86-24.2732C178.86-15.5103 177.595-6.59628 171.913-0.889413C166.232 4.81745 157.49 6.30633 148.677 6.30633L98.9911 6.30633L100.253 4.19299L105.432-2.17758L149.376-2.4037C155.247-2.4037 161.67-3.5357 165.449-7.3154C169.229-11.0953 170.206-17.6491 170.206-23.5199L170.206-46.7402C170.206-52.6913 169.801-57.7925 165.997-62.3954C162.193-66.9983 154.682-68.064 148.812-68.064L118.067-68.064L118.816-70.0933C120.115-73.6127 120.244-74.0176 119.168-76.7367L148.261-76.7367ZM186.794-19.5154L186.794-50.9133C191.582-50.6193 198.029-44.4674 198.029-35.2144C198.029-25.9614 191.582-19.8094 186.794-19.5154ZM78.6443-76.8843L78.6443-69.8674L13.6937-69.8674L13.6937-76.8843L78.6443-76.8843ZM69.3796-0.873565L69.3796 6.14334L13.6937 6.14334L13.6937-0.873565L69.3796-0.873565ZM64.3604-57.8816L64.3604-50.8647L13.6937-50.8647L13.6937-57.8816L64.3604-57.8816ZM58.8658-19.8763L58.8658-12.8593L13.6937-12.8593L13.6937-19.8763L58.8658-19.8763ZM55.0957-38.8789L55.0957-31.862L13.6937-31.862L13.6937-38.8789L55.0957-38.8789ZM70.7333-30.2709C70.7333-28.831 71.9319-27.7932 73.4522-27.7932L95.1358-27.7932L83.5125 3.56117C82.1253 7.32304 86.0982 9.32334 88.473 6.33542L123.652-37.7806C124.295-38.6376 124.615-39.4116 124.615-40.1578C124.615-41.5978 123.469-42.6356 121.976-42.6356L100.265-42.6356L111.888-73.9372C113.275-77.699 109.33-79.7521 106.928-76.7642L71.7485-32.6205C71.1052-31.7636 70.7333-31.0172 70.7333-30.2709Z"/>
  </g>
  <g id="Light-L" transform="matrix(1 0 0 1 1047.96 1556)">
   <path d="M148.043-75.1623C158.418-75.1623 166.939-71.8873 170.935-66.6965C174.899-61.5358 175.9-55.8658 176.06-48.9898L176.06-23.1779C176.06-15.4714 174.478-7.0099 169.537-2.08202C164.595 2.84586 156.481 4.8072 148.746 4.8072L97.6359 4.8072L98.3801 2.98146L102.168-1.53979L148.707-1.92195C154.577-1.92195 160.659-3.33571 164.439-7.11541C168.219-10.8953 169.426-17.2548 169.426-23.1255L169.426-46.9972C169.426-52.9483 169.185-56.9082 165.365-62.0236C161.544-67.139 153.623-68.5517 147.753-68.5517L115.715-68.5517L116.425-70.4829C117.725-74.0024 118.033-72.4432 116.957-75.1623L148.043-75.1623ZM182.978-20.2979L182.978-50.0545C187.517-49.7796 193.639-43.933 193.639-35.1762C193.639-26.4195 187.517-20.5729 182.978-20.2979ZM79.4773-75.2032L79.4773-69.0268L14.8179-69.0268L14.8179-75.2032L79.4773-75.2032ZM69.2957-1.29385L69.2957 4.88247L14.8179 4.88247L14.8179-1.29385L69.2957-1.29385ZM65.642-56.7258L65.642-50.5495L14.8179-50.5495L14.8179-56.7258L65.642-56.7258ZM59.0377-19.7712L59.0377-13.5949L14.8179-13.5949L14.8179-19.7712L59.0377-19.7712ZM55.4604-38.2485L55.4604-32.0722L14.8179-32.0722L14.8179-38.2485L55.4604-38.2485ZM69.5695-29.9847C69.5695-28.7165 70.5964-27.8505 71.9449-27.8505L94.1628-27.8505L82.1769 4.49636C80.9424 7.85743 84.4382 9.6287 86.5648 6.96525L122.546-38.1814C123.189-39.0193 123.451-39.7169 123.451-40.3678C123.451-41.6359 122.458-42.502 121.156-42.502L98.8911-42.502L110.877-74.8151C112.112-78.1761 108.663-79.9812 106.489-77.3177L70.5084-32.1243C69.8651-31.2865 69.5695-30.6355 69.5695-29.9847Z"/>
  </g>
  <g id="Thin-L" transform="matrix(1 0 0 1 754.432 1556)">
   <path d="M147.755-73.0801C158.129-73.0801 166.085-68.5142 168.546-64.2116C171.004-59.9121 172.111-56.3482 172.357-51.3178L172.357-21.7292C172.357-15.4198 170.356-7.55694 166.393-3.65934C162.431 0.23826 155.147 2.82448 148.838 2.82448L95.8435 2.82448L95.9032 1.37912L97.8501-0.696259L147.821-1.28479C153.692-1.28479 159.323-3.07122 163.103-6.85092C166.883-10.6308 168.395-16.7332 168.395-22.6039L168.395-47.3371C168.395-53.2883 168.371-55.7386 164.528-61.5318C160.685-67.3251 152.223-69.1968 146.352-69.1968L112.604-69.1968L113.263-70.9983C114.563-74.5177 115.108-70.3609 114.032-73.0801L147.755-73.0801ZM177.93-21.3329L177.93-48.9187C182.142-48.669 187.834-43.2262 187.834-35.1258C187.834-27.0253 182.142-21.5825 177.93-21.3329ZM80.5789-72.9797L80.5789-67.9151L16.3047-67.9151L16.3047-72.9797L80.5789-72.9797ZM69.1847-1.84972L69.1847 3.21487L16.3047 3.21487L16.3047-1.84972L69.1847-1.84972ZM67.3369-55.1972L67.3369-50.1326L16.3047-50.1326L16.3047-55.1972L67.3369-55.1972ZM59.2651-19.6322L59.2651-14.5676L16.3047-14.5676L16.3047-19.6322L59.2651-19.6322ZM55.9427-37.4147L55.9427-32.3501L16.3047-32.3501L16.3047-37.4147L55.9427-37.4147ZM68.0303-29.6061C68.0303-28.5651 68.83-27.9262 69.9513-27.9262L92.8761-27.9262L80.4105 5.73322C79.378 8.5642 82.2428 10.0326 84.0412 7.79824L121.082-38.7115C121.725-39.5241 121.912-40.1208 121.912-40.6454C121.912-41.6864 121.12-42.3253 120.071-42.3253L97.0742-42.3253L109.54-75.9762C110.572-78.8072 107.78-80.2841 105.909-78.0497L68.8682-31.4681C68.2249-30.6554 68.0303-30.1307 68.0303-29.6061Z"/>
  </g>
  <g id="Ultralight-L" transform="matrix(1 0 0 1 459.351 1556)">
   <path d="M147.607-72.0136C157.982-72.0136 165.647-66.7865 167.323-62.9389C169.009-59.0805 170.17-56.5953 170.46-52.5102L170.46-20.9871C170.46-15.3934 168.244-7.83714 164.783-4.46724C161.322-1.09734 154.464 1.80895 148.885 1.80895L94.9255 1.80895L94.6345 0.558405L95.6387-0.264208L147.368-0.958448C153.238-0.958448 158.638-2.93574 162.418-6.71544C166.199-10.4953 167.867-16.466 167.867-22.3367L167.867-47.5113C167.867-53.4624 167.954-55.1395 164.1-61.28C160.245-67.4204 151.505-69.5272 145.635-69.5272L111.01-69.5272L111.644-71.2622C112.943-74.7817 113.611-69.2944 112.535-72.0136L147.607-72.0136ZM175.344-21.8629L175.344-48.3369C179.388-48.1001 184.86-42.8642 184.86-35.0999C184.86-27.3356 179.388-22.0997 175.344-21.8629ZM81.1431-71.8409L81.1431-67.3457L17.0662-67.3457L17.0662-71.8409L81.1431-71.8409ZM69.1278-2.13443L69.1278 2.36073L17.0662 2.36073L17.0662-2.13443L69.1278-2.13443ZM68.2051-54.4142L68.2051-49.9191L17.0662-49.9191L17.0662-54.4142L68.2051-54.4142ZM59.3815-19.561L59.3815-15.0659L17.0662-15.0659L17.0662-19.561L59.3815-19.561ZM56.1898-36.9876L56.1898-32.4925L17.0662-32.4925L17.0662-36.9876L56.1898-36.9876ZM67.2419-29.4122C67.2419-28.4876 67.9253-27.965 68.9302-27.965L92.217-27.965L79.5058 6.36673C78.5767 8.9262 81.1183 10.2394 82.7486 8.2249L120.333-38.983C120.976-39.7827 121.123-40.3277 121.123-40.7876C121.123-41.7122 120.435-42.2348 119.515-42.2348L96.1437-42.2348L108.855-76.5709C109.784-79.1304 107.327-80.4393 105.612-78.4246L68.0281-31.1319C67.3848-30.3322 67.2419-29.8721 67.2419-29.4122Z"/>
  </g>
  <g id="Black-M" transform="matrix(1 0 0 1 2842.47 1126)">
   <path d="M119.112-74.0698C130.492-74.0698 137.188-72.2569 142.459-67.0653C147.667-61.9362 149.435-55.2977 149.434-43.8191L149.434-25.9706C149.434-14.4971 147.669-7.93257 142.467-2.73926C137.266 2.454 130.504 4.26906 119.108 4.26906L82.7898 4.26906L82.9278 1.73898L95.3931-13.0706L120.493-13.0683C125.741-13.0683 128.083-13.7961 129.703-15.4683C131.322-17.1405 132.046-19.299 132.046-24.5895L132.046-45.2069C132.046-50.5026 131.373-52.727 129.697-54.3397C128.02-55.9525 125.747-56.726 120.499-56.726L99.4729-56.726L101.593-62.1964C103.395-66.8736 102.491-71.0976 100.182-74.0698L119.112-74.0698ZM158.649-18.8351L158.649-50.9655C163.566-50.6589 170.203-44.3463 170.203-34.9003C170.203-25.4543 163.566-19.1418 158.649-18.8351ZM63.482-74.0909L63.482-65.3598L12.4101-65.3598L12.4101-74.0909L63.482-74.0909ZM53.8249-4.62643L53.8249 4.10471L12.4101 4.10471L12.4101-4.62643L53.8249-4.62643ZM52.1821-56.7248L52.1821-47.9937L12.4101-47.9937L12.4101-56.7248L52.1821-56.7248ZM46.1002-21.9926L46.1002-13.2614L12.4101-13.2614L12.4101-21.9926L46.1002-21.9926ZM44.6657-39.3587L44.6657-30.6275L12.4101-30.6275L12.4101-39.3587L44.6657-39.3587ZM57.2932-31.4281C57.2932-29.4891 58.9312-27.9186 60.9895-27.9186L77.3521-27.9186L68.6453-5.44117C66.8259-0.700468 72.0454 2.19459 75.3094-1.68834L104.336-36.2361C105.006-37.036 105.432-38.0651 105.432-39.0943C105.432-41.0334 103.8-42.6038 101.741-42.6038L85.3788-42.6038L94.0856-65.0757C95.905-69.8165 90.6852-72.7171 87.4215-68.8341L58.395-34.2866C57.7253-33.4867 57.2932-32.4573 57.2932-31.4281Z"/>
  </g>
  <g id="Heavy-M" transform="matrix(1 0 0 1 2547.23 1126)">
   <path d="M118.139-72.7043C128.73-72.7043 135.54-71.0302 140.665-65.9016C145.73-60.8328 147.239-54.219 147.247-43.7493L147.247-26.2998C147.247-15.7897 145.71-9.08375 140.597-3.96786C135.485 1.14799 128.636 2.74338 118.173 2.74338L81.5331 2.74338L81.9388 0.385327L92.5965-12.3427L119.459-12.3613C124.541-12.3613 127.551-13.0864 129.48-15.055C131.407-17.0237 132.109-19.8973 132.109-25.0126L132.109-44.9222C132.109-50.0562 131.498-52.8419 129.525-54.8467C127.55-56.8515 124.495-57.5906 119.412-57.5906L97.9009-57.5906L99.6626-62.1542C101.277-66.3711 100.586-69.9364 98.6253-72.7043L118.139-72.7043ZM155.874-19.7258L155.874-50.235C160.54-49.9443 166.833-43.9557 166.833-34.9804C166.833-26.0051 160.54-20.0164 155.874-19.7258ZM62.7675-72.7619L62.7675-64.6953L11.8339-64.6953L11.8339-72.7619L62.7675-72.7619ZM53.8188-5.51062L53.8188 2.55598L11.8339 2.55598L11.8339-5.51062L53.8188-5.51062ZM51.4624-55.949L51.4624-47.8824L11.8339-47.8824L11.8339-55.949L51.4624-55.949ZM45.9604-22.3234L45.9604-14.2568L11.8339-14.2568L11.8339-22.3234L45.9604-22.3234ZM44.1492-39.1362L44.1492-31.0696L11.8339-31.0696L11.8339-39.1362L44.1492-39.1362ZM56.8613-31.4571C56.8613-29.6893 58.355-28.2766 60.2286-28.2766L76.6224-28.2766L67.8939-5.50454C66.2298-1.14092 71.0081 1.46744 73.9693-2.08907L102.47-36.4111C103.099-37.1814 103.491-38.1194 103.491-39.0551C103.491-40.8229 102.014-42.2356 100.142-42.2356L83.7464-42.2356L92.4749-64.9912C94.1391-69.3549 89.3631-71.9797 86.3996-68.4232L57.899-34.0988C57.2697-33.3285 56.8613-32.3927 56.8613-31.4571Z"/>
  </g>
  <g id="Bold-M" transform="matrix(1 0 0 1 2252.15 1126)">
   <path d="M117.05-71.1769C126.759-71.1769 133.696-69.658 138.659-64.5999C143.564-59.5985 144.783-53.0123 144.8-43.6713L144.8-26.668C144.8-17.2357 143.518-10.3715 138.505-5.34222C133.492-0.312966 126.546 1.03669 117.127 1.03669L80.1273 1.03669L80.8326-1.12893L89.4681-11.5284L118.301-11.5704C123.199-11.5704 126.955-12.2925 129.23-14.5928C131.503-16.8931 132.178-20.5665 132.178-25.4859L132.178-44.6038C132.178-49.557 131.638-52.9705 129.331-55.4138C127.024-57.8572 123.095-58.5579 118.197-58.5579L96.1424-58.5579L97.5033-62.1071C98.9077-65.8091 98.4543-68.6375 96.8833-71.1769L117.05-71.1769ZM152.771-20.7222L152.771-49.4177C157.154-49.145 163.063-43.5187 163.063-35.0699C163.063-26.6212 157.154-20.9949 152.771-20.7222ZM61.9682-71.2751L61.9682-63.9519L11.1893-63.9519L11.1893-71.2751L61.9682-71.2751ZM53.812-6.49972L53.812 0.823496L11.1893 0.823496L11.1893-6.49972L53.812-6.49972ZM50.6573-55.0812L50.6573-47.758L11.1893-47.758L11.1893-55.0812L50.6573-55.0812ZM45.804-22.6936L45.804-15.3703L11.1893-15.3703L11.1893-22.6936L45.804-22.6936ZM43.5714-38.8874L43.5714-31.5642L11.1893-31.5642L11.1893-38.8874L43.5714-38.8874ZM56.3782-31.4896C56.3782-29.9133 57.7104-28.6772 59.3775-28.6772L75.8061-28.6772L67.0535-5.57541C65.5629-1.63362 69.8476 0.654018 72.4702-2.53733L100.382-36.6068C100.967-37.3442 101.32-38.1803 101.32-39.0112C101.32-40.5875 100.016-41.8236 98.3542-41.8236L81.9205-41.8236L90.6731-64.8967C92.1637-68.8385 87.8841-71.1548 85.2564-67.9634L57.3441-33.8888C56.7601-33.1514 56.3782-32.3205 56.3782-31.4896Z"/>
  </g>
  <g id="Semibold-M" transform="matrix(1 0 0 1 1956.57 1126)">
   <path d="M116.3-70.1239C125.4-70.1239 132.424-68.712 137.275-63.7025C142.071-58.7476 143.089-52.1804 143.113-43.6174L143.113-26.9219C143.113-18.2326 142.007-11.2593 137.063-6.2897C132.119-1.32014 125.106-0.139888 116.407-0.139888L79.1582-0.139888L80.0699-2.17286L87.3114-10.9671L117.504-11.0252C122.274-11.0252 126.545-11.7452 129.057-14.2741C131.569-16.803 132.226-21.0279 132.226-25.8122L132.226-44.3843C132.226-49.2128 131.734-53.0591 129.198-55.8048C126.661-58.5505 122.129-59.2247 117.359-59.2247L94.9302-59.2247L96.0147-62.0746C97.2745-65.4216 96.985-67.742 95.6824-70.1239L116.3-70.1239ZM150.631-21.4091L150.631-48.8543C154.821-48.594 160.464-43.2174 160.464-35.1317C160.464-27.046 154.821-21.6694 150.631-21.4091ZM61.4172-70.2501L61.4172-63.4394L10.7449-63.4394L10.7449-70.2501L61.4172-70.2501ZM53.8073-7.1816L53.8073-0.370865L10.7449-0.370865L10.7449-7.1816L53.8073-7.1816ZM50.1022-54.483L50.1022-47.6723L10.7449-47.6723L10.7449-54.483L50.1022-54.483ZM45.6962-22.9487L45.6962-16.138L10.7449-16.138L10.7449-22.9487L45.6962-22.9487ZM43.1731-38.7159L43.1731-31.9051L10.7449-31.9051L10.7449-38.7159L43.1731-38.7159ZM56.0452-31.5119C56.0452-30.0677 57.2661-28.9533 58.7907-28.9533L75.2433-28.9533L66.4741-5.62428C65.1032-1.97329 69.0476 0.0932476 71.4368-2.84636L98.9434-36.7418C99.4963-37.4563 99.8228-38.2222 99.8228-38.9809C99.8228-40.4251 98.639-41.5397 97.1214-41.5397L80.6616-41.5397L89.431-64.8315C90.8019-68.4825 86.8646-70.5861 84.4683-67.6465L56.9616-33.744C56.4087-33.0294 56.0452-32.2706 56.0452-31.5119Z"/>
  </g>
  <g id="Medium-M" transform="matrix(1 0 0 1 1660.72 1126)">
   <path d="M115.731-69.3255C124.37-69.3255 131.461-67.9947 136.227-63.022C140.939-58.1024 141.805-51.5497 141.834-43.5766L141.834-27.1143C141.834-18.9885 140.861-11.9324 135.969-7.00812C131.078-2.08382 124.014-1.03202 115.86-1.03202L78.4233-1.03202L79.4916-2.9644L85.6761-10.5414L116.899-10.6117C121.573-10.6117 126.234-11.3302 128.927-14.0324C131.619-16.7347 132.263-21.3777 132.263-26.0596L132.263-44.2179C132.263-48.9518 131.808-53.1263 129.097-56.1013C126.386-59.0763 121.397-59.7303 116.723-59.7303L94.011-59.7303L94.886-62.05C96.0361-65.1278 95.8709-67.0631 94.7719-69.3255L115.731-69.3255ZM149.008-21.9299L149.008-48.4271C153.051-48.1762 158.493-42.989 158.493-35.1785C158.493-27.368 153.051-22.1808 149.008-21.9299ZM60.9994-69.473L60.9994-63.0508L10.408-63.0508L10.408-69.473L60.9994-69.473ZM53.8038-7.69863L53.8038-1.27648L10.408-1.27648L10.408-7.69863L53.8038-7.69863ZM49.6814-54.0294L49.6814-47.6072L10.408-47.6072L10.408-54.0294L49.6814-54.0294ZM45.6145-23.1422L45.6145-16.7201L10.408-16.7201L10.408-23.1422L45.6145-23.1422ZM42.8711-38.5858L42.8711-32.1636L10.408-32.1636L10.408-38.5858L42.8711-38.5858ZM55.7926-31.5289C55.7926-30.1848 56.9292-29.1626 58.3458-29.1626L74.8167-29.1626L66.0347-5.66133C64.7546-2.23084 68.441-0.331952 70.6532-3.08068L97.8523-36.8441C98.3815-37.5414 98.6878-38.254 98.6878-38.958C98.6878-40.3021 97.5947-41.3243 96.1866-41.3243L79.7072-41.3243L88.4892-64.7821C89.7693-68.2126 86.0915-70.1549 83.8708-67.4062L56.6716-33.6342C56.1424-32.9369 55.7926-32.2329 55.7926-31.5289Z"/>
  </g>
  <g id="Regular-M" transform="matrix(1 0 0 1 1365.13 1126)">
   <path d="M114.989-68.284C123.026-68.284 130.203-67.0591 134.859-62.1345C139.462-57.2608 140.13-50.7269 140.166-43.5234L140.166-27.3654C140.166-19.9744 139.367-12.8104 134.543-7.94518C129.719-3.07993 122.589-2.19567 115.147-2.19567L77.4649-2.19567L78.7374-3.99685L83.5431-9.98623L116.11-10.0725C120.658-10.0725 125.828-10.7889 128.756-13.7172C131.685-16.6457 132.31-21.834 132.31-26.3823L132.31-44.0008C132.31-48.6114 131.903-53.2139 128.965-56.4879C126.028-59.762 120.443-60.3898 115.894-60.3898L92.812-60.3898L93.4138-62.0179C94.4208-64.7446 94.4177-66.1774 93.5842-68.284L114.989-68.284ZM146.892-22.6093L146.892-47.8698C150.743-47.6312 155.922-42.691 155.922-35.2395C155.922-27.7881 150.743-22.8479 146.892-22.6093ZM60.4544-68.4593L60.4544-62.544L9.96848-62.544L9.96848-68.4593L60.4544-68.4593ZM53.7991-8.37301L53.7991-2.45771L9.96848-2.45771L9.96848-8.37301L53.7991-8.37301ZM49.1324-53.4377L49.1324-47.5224L9.96848-47.5224L9.96848-53.4377L49.1324-53.4377ZM45.5079-23.3946L45.5079-17.4793L9.96848-17.4793L9.96848-23.3946L45.5079-23.3946ZM42.4772-38.4161L42.4772-32.5008L9.96848-32.5008L9.96848-38.4161L42.4772-38.4161ZM55.4632-31.551C55.4632-30.3376 56.4897-29.4357 57.7655-29.4357L74.2601-29.4357L65.4617-5.70965C64.3-2.56678 67.6498-0.886559 69.6311-3.38631L96.4291-36.9776C96.9275-37.6523 97.2073-38.2955 97.2073-38.9281C97.2073-40.1415 96.2326-41.0435 94.9674-41.0435L78.4622-41.0435L87.2607-64.7177C88.4224-67.8605 85.0831-69.5925 83.0913-67.0928L56.2933-33.491C55.7949-32.8162 55.4632-32.1836 55.4632-31.551Z"/>
  </g>
  <g id="Light-M" transform="matrix(1 0 0 1 1070.57 1126)">
   <path d="M114.793-66.8725C122.83-66.8725 129.624-64.7725 133.239-60.4501C136.821-56.1601 137.561-51.0539 137.656-45.1015L137.656-26.3834C137.656-19.9395 136.572-13.1813 132.412-9.01442C128.252-4.84757 121.685-3.53972 115.209-3.53972L76.2498-3.53972L77.0583-5.08305L80.6163-9.41442L115.509-9.64058C120.058-9.64058 124.922-10.6096 127.851-13.5379C130.779-16.4664 131.611-21.4804 131.611-26.0287L131.611-44.2313C131.611-48.8418 131.351-52.4211 128.398-56.1546C125.446-59.8881 119.493-60.8271 114.945-60.8271L90.7031-60.8271L91.2704-62.3672C92.2774-65.0939 92.4354-64.7659 91.6019-66.8725L114.793-66.8725ZM143.471-23.3108L143.471-47.0998C147.099-46.8783 151.987-42.2119 151.987-35.2053C151.987-28.1988 147.099-23.5323 143.471-23.3108ZM61.2012-66.952L61.2012-61.7903L10.9764-61.7903L10.9764-66.952L61.2012-66.952ZM53.7239-8.74982L53.7239-3.58815L10.9764-3.58815L10.9764-8.74982L53.7239-8.74982ZM50.2814-52.4015L50.2814-47.2398L10.9764-47.2398L10.9764-52.4015L50.2814-52.4015ZM45.662-23.3004L45.662-18.1387L10.9764-18.1387L10.9764-23.3004L45.662-23.3004ZM42.8041-37.8509L42.8041-32.6892L10.9764-32.6892L10.9764-37.8509L42.8041-37.8509ZM54.4198-31.2944C54.4198-30.2349 55.2924-29.487 56.4141-29.487L73.3878-29.487L64.2643-4.87121C63.2395-2.08767 66.1616-0.612783 67.9203-2.82164L95.437-37.3369C95.9354-37.9946 96.1639-38.5693 96.1639-39.1163C96.1639-40.1757 95.3261-40.9237 94.232-40.9237L77.2306-40.9237L86.3542-65.5048C87.379-68.2883 84.4846-69.7979 82.6982-67.589L55.1814-33.0461C54.683-32.3884 54.4198-31.8414 54.4198-31.2944Z"/>
  </g>
  <g id="Thin-M" transform="matrix(1 0 0 1 776.716 1126)">
   <path d="M114.535-65.0057C122.572-65.0057 128.858-61.7483 131.098-58.2223C133.329-54.7044 134.164-51.4864 134.335-47.1887L134.335-25.0845C134.335-19.8933 132.876-13.6717 129.594-10.4286C126.311-7.18541 120.488-5.31733 115.291-5.31733L74.6429-5.31733L74.8376-6.51963L76.7453-8.65815L114.716-9.06934C119.264-9.06934 123.724-10.3725 126.652-13.3008C129.581-16.2292 130.687-21.0128 130.687-25.5611L130.687-44.536C130.687-49.1466 130.621-51.3725 127.648-55.7137C124.676-60.0549 118.237-61.4055 113.689-61.4055L87.9139-61.4055L88.4356-62.8292C89.4427-65.5559 89.8137-62.899 88.9801-65.0057L114.535-65.0057ZM138.945-24.2387L138.945-46.0815C142.279-45.8826 146.782-41.5782 146.782-35.1601C146.782-28.7419 142.279-24.4376 138.945-24.2387ZM62.1888-64.9586L62.1888-60.7936L12.3094-60.7936L12.3094-64.9586L62.1888-64.9586ZM53.6244-9.24819L53.6244-5.08324L12.3094-5.08324L12.3094-9.24819L53.6244-9.24819ZM51.801-51.031L51.801-46.866L12.3094-46.866L12.3094-51.031L51.801-51.031ZM45.8658-23.1758L45.8658-19.0108L12.3094-19.0108L12.3094-23.1758L45.8658-23.1758ZM43.2365-37.1034L43.2365-32.9384L12.3094-32.9384L12.3094-37.1034L43.2365-37.1034ZM53.0399-30.9549C53.0399-30.0992 53.7087-29.5549 54.6267-29.5549L72.2342-29.5549L62.6806-3.7623C61.8369-1.45402 64.1932-0.250692 65.6578-2.07482L94.1249-37.8121C94.6233-38.4472 94.784-38.9314 94.784-39.3652C94.784-40.221 94.1271-40.7653 93.2594-40.7653L75.6017-40.7653L85.1553-66.5457C85.9991-68.854 83.693-70.0695 82.1782-68.2453L53.7109-32.4577C53.2125-31.8227 53.0399-31.3888 53.0399-30.9549Z"/>
  </g>
  <g id="Ultralight-M" transform="matrix(1 0 0 1 481.466 1126)">
   <path d="M114.402-64.0495C122.439-64.0495 128.466-60.1994 130.001-57.0812C131.541-53.9588 132.424-51.7079 132.635-48.2578L132.635-24.4193C132.635-19.8696 130.983-13.9229 128.15-11.1529C125.317-8.38285 119.876-6.22781 115.333-6.22781L73.8198-6.22781L73.7001-7.25545L74.7626-8.2708L114.309-8.77676C118.857-8.77676 123.11-10.2511 126.039-13.1793C128.968-16.1078 130.213-20.7733 130.213-25.3216L130.213-44.6922C130.213-49.3027 130.247-50.8354 127.264-55.4879C124.282-60.1404 117.594-61.7017 113.046-61.7017L86.4853-61.7017L86.9837-63.0659C87.9907-65.7926 88.4708-61.9428 87.6372-64.0495L114.402-64.0495ZM136.627-24.7139L136.627-45.5599C139.81-45.3726 144.116-41.2537 144.116-35.1369C144.116-29.0201 139.81-24.9012 136.627-24.7139ZM62.6947-63.9375L62.6947-60.2831L12.9921-60.2831L12.9921-63.9375L62.6947-63.9375ZM53.5734-9.50345L53.5734-5.84902L12.9921-5.84902L12.9921-9.50345L53.5734-9.50345ZM52.5794-50.329L52.5794-46.6746L12.9921-46.6746L12.9921-50.329L52.5794-50.329ZM45.9702-23.112L45.9702-19.4575L12.9921-19.4575L12.9921-23.112L45.9702-23.112ZM43.458-36.7205L43.458-33.0661L12.9921-33.0661L12.9921-36.7205L43.458-36.7205ZM52.3331-30.7811C52.3331-30.0296 52.8976-29.5897 53.7113-29.5897L71.6433-29.5897L61.8695-3.19432C61.1185-1.12946 63.1851-0.0652306 64.4989-1.6923L93.4529-38.0555C93.9513-38.679 94.0771-39.1169 94.0771-39.4927C94.0771-40.2442 93.513-40.6841 92.7612-40.6841L74.7673-40.6841L84.5412-67.0789C85.2923-69.1438 83.2875-70.2086 81.9118-68.5814L52.9577-32.1564C52.4593-31.5329 52.3331-31.1569 52.3331-30.7811Z"/>
  </g>
  <g id="Black-S" transform="matrix(1 0 0 1 2861.82 696)">
   <path d="M93.6312-66C102.789-66 107.98-64.4863 112.094-60.4336C116.159-56.4297 117.628-51.3027 117.628-42.0742L117.628-27.8164C117.628-18.5879 116.159-13.5098 112.094-9.45702C108.029-5.40429 102.789-3.89062 93.6312-3.89062L65.1922-3.89062L65.1922-5.91053L75.4362-18.0508L94.7086-18.0508C98.8713-18.0508 100.487-18.6367 101.663-19.8574C102.838-21.0781 103.425-22.543 103.425-26.7422L103.425-43.1484C103.425-47.3476 102.887-48.8613 101.663-50.0332C100.438-51.2051 98.8713-51.8398 94.7086-51.8398L78.3102-51.8398L80.0781-56.3965C81.547-60.2015 80.7837-63.6088 78.8692-66L93.6312-66ZM124.974-22.1523L124.974-47.7383C128.891-47.4941 134.18-42.4648 134.18-34.9453C134.18-27.4258 128.891-22.3965 124.974-22.1523ZM50.0107-66L50.0107-59L9.95906-59L9.95906-66L50.0107-66ZM42.18-11L42.18-4L9.95906-4L9.95906-11L42.18-11ZM41.18-52.25L41.18-45.25L9.95906-45.25L9.95906-52.25L41.18-52.25ZM36.18-24.75L36.18-17.75L9.95906-17.75L9.95906-24.75L36.18-24.75ZM35.18-38.5L35.18-31.5L9.95906-31.5L9.95906-38.5L35.18-38.5ZM44.9707-32.2266C44.9707-30.6641 46.2891-29.3945 47.9492-29.3945L60.791-29.3945L53.9551-11.8164C52.4902-8.00781 56.6895-5.66406 59.3262-8.78906L82.2754-35.9863C82.8125-36.6211 83.1543-37.4512 83.1543-38.2812C83.1543-39.8438 81.8359-41.1133 80.1758-41.1133L67.334-41.1133L74.1699-58.6914C75.6348-62.5 71.4355-64.8438 68.7988-61.7188L45.8496-34.5215C45.3125-33.8867 44.9707-33.0566 44.9707-32.2266Z"/>
  </g>
  <g id="Heavy-S" transform="matrix(1 0 0 1 2566.09 696)">
   <path d="M92.8239-65.0126C101.307-65.0126 106.644-63.7294 110.767-59.6536C114.84-55.6267 116.078-50.3383 116.078-41.8128L116.078-28.2234C116.078-19.6979 114.84-14.447 110.767-10.3711C106.693-6.29537 101.307-5.02371 92.8239-5.02371L64.2727-5.02371L64.561-6.92945L73.4184-17.5013L93.9006-17.5013C97.9221-17.5013 100.148-18.0526 101.588-19.5269C103.027-21.0011 103.568-23.0998 103.568-27.1492L103.568-42.8755C103.568-46.9364 103.064-49.0609 101.588-50.5094C100.11-51.9579 97.9221-52.5234 93.9006-52.5234L77.2353-52.5234L78.7012-56.3158C80.0096-59.7271 79.4075-62.7961 77.7907-65.0126L92.8239-65.0126ZM123.038-22.8244L123.038-47.2119C126.768-46.9792 131.8-42.1919 131.8-35.0181C131.8-27.8444 126.768-23.0571 123.038-22.8244ZM49.3042-65.0559L49.3042-58.528L9.33742-58.528L9.33742-65.0559L49.3042-65.0559ZM42.1844-11.7081L42.1844-5.18011L9.33742-5.18011L9.33742-11.7081L42.1844-11.7081ZM40.4176-51.719L40.4176-45.191L9.33742-45.191L9.33742-51.719L40.4176-51.719ZM36.0407-25.045L36.0407-18.5171L9.33742-18.5171L9.33742-25.045L36.0407-25.045ZM34.6965-38.382L34.6965-31.854L9.33742-31.854L9.33742-38.382L34.6965-38.382ZM44.7347-32.2842C44.7347-30.8485 45.9493-29.6942 47.4712-29.6942L60.2784-29.6942L53.4655-11.9777C52.1159-8.44574 55.9925-6.32096 58.3987-9.20395L80.8063-36.09C81.3088-36.7018 81.6275-37.4627 81.6275-38.2236C81.6275-39.6594 80.4244-40.8137 78.9026-40.8137L66.0953-40.8137L72.9082-58.5185C74.2579-62.0505 70.3813-64.1869 67.975-61.3039L45.5675-34.4178C45.065-33.806 44.7347-33.0451 44.7347-32.2842Z"/>
  </g>
  <g id="Bold-S" transform="matrix(1 0 0 1 2270.47 696)">
   <path d="M91.921-63.9082C99.6494-63.9082 105.15-62.8828 109.282-58.7812C113.365-54.7285 114.344-49.2597 114.344-41.5205L114.344-28.6787C114.344-20.9394 113.365-15.4952 109.282-11.3936C105.199-7.29199 99.6494-6.29102 91.921-6.29102L63.2442-6.29102L63.855-8.06907L71.1616-16.8868L92.9969-16.8868C96.8604-16.8868 99.768-17.3994 101.503-19.1572C103.238-20.915 103.727-23.7226 103.727-27.6045L103.727-42.5703C103.727-46.4766 103.263-49.2842 101.503-51.042C99.7435-52.7998 96.8604-53.288 92.9969-53.288L76.033-53.288L77.1611-56.2256C78.2901-59.1966 77.8683-61.8871 76.5845-63.9082L91.921-63.9082ZM120.873-23.5761L120.873-46.623C124.394-46.4033 129.139-41.8867 129.139-35.0996C129.139-28.3125 124.394-23.7959 120.873-23.5761ZM48.5139-64L48.5139-58L8.64214-58L8.64214-64L48.5139-64ZM42.1893-12.5L42.1893-6.5L8.64214-6.5L8.64214-12.5L42.1893-12.5ZM39.5649-51.125L39.5649-45.125L8.64214-45.125L8.64214-51.125L39.5649-51.125ZM35.885-25.375L35.885-19.375L8.64214-19.375L8.64214-25.375L35.885-25.375ZM34.1556-38.25L34.1556-32.25L8.64214-32.25L8.64214-38.25L34.1556-38.25ZM44.4707-32.3486C44.4707-31.0547 45.5693-30.0293 46.9365-30.0293L59.705-30.0293L52.918-12.1582C51.6972-8.93554 55.2129-7.05566 57.3613-9.66798L79.1631-36.2061C79.6269-36.792 79.9199-37.4756 79.9199-38.1592C79.9199-39.4531 78.8457-40.4785 77.4785-40.4785L64.7099-40.4785L71.497-58.3252C72.7178-61.5478 69.2021-63.4522 67.0537-60.8399L45.2519-34.3017C44.7881-33.7158 44.4707-33.0322 44.4707-32.3486Z"/>
  </g>
  <g id="Semibold-S" transform="matrix(1 0 0 1 1974.51 696)">
   <path d="M91.2986-63.1468C98.5066-63.1468 104.12-62.2991 108.259-58.1798C112.349-54.1093 113.149-48.5161 113.149-41.319L113.149-28.9926C113.149-21.7954 112.349-16.2178 108.259-12.0985C104.17-7.97912 98.5066-7.16476 91.2986-7.16476L62.5352-7.16476L63.3683-8.85477L69.6056-16.463L92.3738-16.463C96.1285-16.463 99.5063-16.949 101.445-18.9023C103.384-20.8557 103.837-24.152 103.837-27.9184L103.837-42.3599C103.837-46.1595 103.4-49.4381 101.445-51.4092C99.4907-53.3803 96.1285-53.8152 92.3738-53.8152L75.2041-53.8152L76.0993-56.1634C77.1047-58.8307 76.8072-61.2605 75.7529-63.1468L91.2986-63.1468ZM119.381-24.0944L119.381-46.2171C122.758-46.0062 127.304-41.6763 127.304-35.1558C127.304-28.6353 122.758-24.3053 119.381-24.0944ZM47.9691-63.272L47.9691-57.636L8.16279-57.636L8.16279-63.272L47.9691-63.272ZM42.1928-13.046L42.1928-7.41L8.16279-7.41L8.16279-13.046L42.1928-13.046ZM38.977-50.7155L38.977-45.0795L8.16279-45.0795L8.16279-50.7155L38.977-50.7155ZM35.7776-25.6025L35.7776-19.9665L8.16279-19.9665L8.16279-25.6025L35.7776-25.6025ZM33.7828-38.159L33.7828-32.523L8.16279-32.523L8.16279-38.159L33.7828-38.159ZM44.2887-32.3931C44.2887-31.1969 45.3074-30.2604 46.5679-30.2604L59.3098-30.2604L52.5405-12.2826C51.4086-9.27324 54.6754-7.56221 56.6461-9.98791L78.0302-36.286C78.4674-36.8542 78.7426-37.4845 78.7426-38.1147C78.7426-39.311 77.7573-40.2475 76.4967-40.2475L63.7548-40.2475L70.5241-58.1919C71.656-61.2013 68.3892-62.9456 66.4185-60.5199L45.0344-34.2218C44.5972-33.6536 44.2887-33.0233 44.2887-32.3931Z"/>
  </g>
  <g id="Medium-S" transform="matrix(1 0 0 1 1678.37 696)">
   <path d="M90.8266-62.5694C97.6401-62.5694 103.339-61.8566 107.483-57.7237C111.578-53.6397 112.243-47.9523 112.243-41.1661L112.243-29.2306C112.243-22.4444 111.578-16.7658 107.483-12.6329C103.389-8.50013 97.6401-7.82727 90.8266-7.82727L61.9976-7.82727L62.9992-9.45053L68.4259-16.1418L91.9014-16.1418C95.5735-16.1418 99.3078-16.6075 101.401-18.7091C103.495-20.8107 103.92-24.4776 103.92-28.1564L103.92-42.2003C103.92-45.9191 103.504-49.5548 101.401-51.6876C99.299-53.8205 95.5735-54.2149 91.9014-54.2149L74.5756-54.2149L75.2942-56.1162C76.2058-58.5534 76.0025-60.7853 75.1223-62.5694L90.8266-62.5694ZM118.249-24.4874L118.249-45.9093C121.517-45.7052 125.913-41.5167 125.913-35.1984C125.913-28.88 121.517-24.6915 118.249-24.4874ZM47.556-62.72L47.556-57.36L7.79932-57.36L7.79932-62.72L47.556-62.72ZM42.1953-13.46L42.1953-8.1L7.79932-8.1L7.79932-13.46L42.1953-13.46ZM38.5312-50.405L38.5312-45.045L7.79932-45.045L7.79932-50.405L38.5312-50.405ZM35.6962-25.775L35.6962-20.415L7.79932-20.415L7.79932-25.775L35.6962-25.775ZM33.5001-38.09L33.5001-32.73L7.79932-32.73L7.79932-38.09L33.5001-38.09ZM44.1507-32.4268C44.1507-31.3047 45.1087-30.4356 46.2884-30.4356L59.01-30.4356L52.2543-12.377C51.1898-9.5293 54.2679-7.94629 56.1038-10.2305L77.1712-36.3467C77.5882-36.9014 77.8499-37.4912 77.8499-38.081C77.8499-39.2031 76.932-40.0723 75.7522-40.0723L63.0306-40.0723L69.7864-58.0908C70.8509-60.9385 67.7728-62.5615 65.9368-60.2773L44.8695-34.1611C44.4525-33.6064 44.1507-33.0166 44.1507-32.4268Z"/>
  </g>
  <g id="Regular-S" transform="matrix(1 0 0 1 1382.41 696)">
   <path d="M90.2109-61.8164C96.5098-61.8164 102.32-61.2793 106.471-57.1289C110.572-53.0273 111.061-47.2168 111.061-40.9668L111.061-29.541C111.061-23.291 110.572-17.4805 106.471-13.3301C102.37-9.1797 96.5098-8.69141 90.2109-8.69141L61.2963-8.69141L62.5178-10.2276L66.887-15.7227L91.2852-15.7227C94.8496-15.7227 99.049-16.1621 101.344-18.457C103.639-20.752 104.029-24.9023 104.029-28.4668L104.029-41.9922C104.029-45.6055 103.639-49.707 101.344-52.0508C99.049-54.3946 94.8496-54.7363 91.2852-54.7363L73.7558-54.7363L74.2441-56.0547C75.0333-58.1916 74.953-60.1655 74.2998-61.8164L90.2109-61.8164ZM116.773-25L116.773-45.5078C119.898-45.3125 124.098-41.3086 124.098-35.2539C124.098-29.1992 119.898-25.1953 116.773-25ZM47.0172-62L47.0172-57L7.32523-57L7.32523-62L47.0172-62ZM42.1987-14L42.1987-9L7.32523-9L7.32523-14L42.1987-14ZM37.9498-50L37.9498-45L7.32523-45L7.32523-50L37.9498-50ZM35.59-26L35.59-21L7.32523-21L7.32523-26L35.59-26ZM33.1313-38L33.1313-33L7.32523-33L7.32523-38L33.1313-38ZM43.9707-32.4707C43.9707-31.4453 44.8496-30.6641 45.9238-30.6641L58.6191-30.6641L51.8809-12.5C50.9043-9.86328 53.7363-8.44727 55.3965-10.5469L76.0508-36.4258C76.4414-36.9629 76.6855-37.5 76.6855-38.0371C76.6855-39.0625 75.8555-39.8438 74.7812-39.8438L62.0859-39.8438L68.8242-57.959C69.8008-60.5957 66.9688-62.0605 65.3086-59.9609L44.6543-34.082C44.2637-33.5449 43.9707-33.0078 43.9707-32.4707Z"/>
  </g>
  <g id="Light-S" transform="matrix(1 0 0 1 1087.61 696)">
   <path d="M90.038-60.5678C96.3369-60.5678 101.808-59.2566 105.039-55.6388C108.236-52.0536 108.789-47.5061 108.84-42.3628L108.84-28.6723C108.84-23.2601 108.1-17.8085 104.586-14.276C101.072-10.7434 95.7098-9.88037 90.2657-9.88037L60.2215-9.88037L61.0325-11.1885L64.2979-15.2169L90.7542-15.3406C94.3186-15.3406 98.2477-16.0035 100.543-18.2984C102.838-20.5934 103.411-24.5895 103.411-28.154L103.411-42.1961C103.411-45.8094 103.151-49.0056 100.842-51.7559C98.5341-54.5062 94.0096-55.1231 90.4452-55.1231L71.8902-55.1231L72.348-56.3637C73.1372-58.5006 73.1994-58.9168 72.5462-60.5678L90.038-60.5678ZM113.746-25.6206L113.746-44.8267C116.674-44.6465 120.617-40.8848 120.617-35.2236C120.617-29.5625 116.674-25.8008 113.746-25.6206ZM47.6778-60.6667L47.6778-56.3333L8.21682-56.3333L8.21682-60.6667L47.6778-60.6667ZM42.1321-14.3333L42.1321-10L8.21682-10L8.21682-14.3333L42.1321-14.3333ZM38.9662-49.0833L38.9662-44.75L8.21682-44.75L8.21682-49.0833L38.9662-49.0833ZM35.7263-25.9167L35.7263-21.5833L8.21682-21.5833L8.21682-25.9167L35.7263-25.9167ZM33.4205-37.5L33.4205-33.1667L8.21682-33.1667L8.21682-37.5L33.4205-37.5ZM43.0477-32.2437C43.0477-31.3545 43.7904-30.7095 44.7283-30.7095L57.8475-30.7095L50.8217-11.7583C49.9662-9.43946 52.4198-8.20508 53.8832-10.0474L75.1732-36.7437C75.5638-37.2656 75.7625-37.7422 75.7625-38.2036C75.7625-39.0928 75.0536-39.7378 74.1307-39.7378L60.9964-39.7378L68.0223-58.6553C68.8778-60.9741 66.4393-62.2422 64.9608-60.3999L43.6707-33.6885C43.2801-33.1665 43.0477-32.7051 43.0477-32.2437Z"/>
  </g>
  <g id="Thin-S" transform="matrix(1 0 0 1 793.419 696)">
   <path d="M89.8092-58.9163C96.1081-58.9163 101.13-56.5813 103.144-53.6681C105.147-50.7659 105.783-47.8886 105.903-44.2092L105.903-27.5233C105.903-23.2192 104.83-18.2424 102.093-15.5269C99.3553-12.8115 94.6517-11.4529 90.3381-11.4529L58.7999-11.4529L59.068-12.4593L60.8736-14.5479L90.0518-14.8353C93.6162-14.8353 97.1878-15.7937 99.4828-18.0886C101.778-20.3836 102.593-24.1759 102.593-27.7404L102.593-42.4657C102.593-46.079 102.505-48.0781 100.179-51.3659C97.8532-54.6538 92.8986-55.6348 89.3342-55.6348L69.4229-55.6348L69.8403-56.7725C70.6295-58.9094 70.8802-57.2654 70.2269-58.9163L89.8092-58.9163ZM109.743-26.4414L109.743-43.9258C112.411-43.7657 116.012-40.3242 116.012-35.1836C116.012-30.043 112.411-26.6015 109.743-26.4414ZM48.5515-58.9032L48.5515-55.4516L9.39602-55.4516L9.39602-58.9032L48.5515-58.9032ZM42.0441-14.7742L42.0441-11.3226L9.39602-11.3226L9.39602-14.7742L42.0441-14.7742ZM40.3105-47.871L40.3105-44.4194L9.39602-44.4194L9.39602-47.871L40.3105-47.871ZM35.9066-25.8065L35.9066-22.3548L9.39602-22.3548L9.39602-25.8065L35.9066-25.8065ZM33.8031-36.8387L33.8031-33.3871L9.39602-33.3871L9.39602-36.8387L33.8031-36.8387ZM41.827-31.9434C41.827-31.2344 42.3894-30.7695 43.1472-30.7695L56.8269-30.7695L49.4207-10.7773C48.7254-8.87892 50.6785-7.88477 51.8817-9.38673L74.0125-37.1641C74.4031-37.666 74.5418-38.0625 74.5418-38.4238C74.5418-39.1328 73.9929-39.5977 73.2703-39.5977L59.5554-39.5977L66.9617-59.5761C67.6571-61.4746 65.7391-62.4824 64.5008-60.9804L42.3699-33.168C41.9793-32.666 41.827-32.3047 41.827-31.9434Z"/>
  </g>
  <g id="Ultralight-S" transform="matrix(1 0 0 1 498.001 696)">
   <path d="M89.6921-58.0705C95.991-58.0705 100.783-55.2111 102.174-52.6587C103.565-50.1063 104.244-48.0846 104.399-45.1549L104.399-26.9348C104.399-23.1983 103.156-18.4646 100.816-16.1677C98.476-13.8707 94.1098-12.2583 90.3752-12.2583L58.0718-12.2583L58.0618-13.1102L59.1197-14.2052L89.6921-14.5765C93.2565-14.5765 96.645-15.6863 98.94-17.9812C101.235-20.2762 102.174-23.964 102.174-27.5285L102.174-42.6038C102.174-46.2171 102.174-47.6029 99.8392-51.1662C97.5044-54.7294 92.3296-55.8968 88.7652-55.8968L68.1591-55.8968L68.5559-56.9818C69.3451-59.1187 69.6923-56.4195 69.039-58.0705L89.6921-58.0705ZM107.692-26.8618L107.692-43.4644C110.227-43.3145 113.654-40.0371 113.654-35.1631C113.654-30.2891 110.227-27.0117 107.692-26.8618ZM48.999-58L48.999-55L10-55L10-58L48.999-58ZM41.999-15L41.999-12L10-12L10-15L41.999-15ZM40.999-47.25L40.999-44.25L10-44.25L10-47.25L40.999-47.25ZM35.999-25.75L35.999-22.75L10-22.75L10-25.75L35.999-25.75ZM33.999-36.5L33.999-33.5L10-33.5L10-36.5L33.999-36.5ZM41.2017-31.7896C41.2017-31.1729 41.6719-30.8003 42.3374-30.8003L56.3042-30.8003L48.7032-10.2749C48.0899-8.59181 49.7867-7.72071 50.8565-9.04835L73.418-37.3794C73.8086-37.8711 73.9165-38.2266 73.9165-38.5366C73.9165-39.1533 73.4497-39.5259 72.8296-39.5259L58.8174-39.5259L66.4185-60.0478C67.0318-61.7309 65.3804-62.6055 64.2652-61.2778L41.7036-32.9014C41.313-32.4097 41.2017-32.0996 41.2017-31.7896Z"/>
  </g>
 </g>
</svg>
