<?xml version="1.0" encoding="UTF-8"?>
<!--Generator: Apple Native CoreSVG 232.5-->
<!DOCTYPE svg
PUBLIC "-//W3C//DTD SVG 1.1//EN"
       "http://www.w3.org/Graphics/SVG/1.1/DTD/svg11.dtd">
<svg version="1.1" xmlns="http://www.w3.org/2000/svg" xmlns:xlink="http://www.w3.org/1999/xlink" width="3300" height="2200">
 <g id="Notes">
  <rect height="2200" id="artboard" style="fill:white;opacity:1" width="3300" x="0" y="0"/>
  <line style="fill:none;stroke:black;opacity:1;stroke-width:0.5;" x1="263" x2="3036" y1="292" y2="292"/>
  <text style="stroke:none;fill:black;font-family:sans-serif;font-size:13;font-weight:bold;" transform="matrix(1 0 0 1 263 322)">Weight/Scale Variations</text>
  <text style="stroke:none;fill:black;font-family:sans-serif;font-size:13;text-anchor:middle;" transform="matrix(1 0 0 1 559.711 322)">Ultralight</text>
  <text style="stroke:none;fill:black;font-family:sans-serif;font-size:13;text-anchor:middle;" transform="matrix(1 0 0 1 856.422 322)">Thin</text>
  <text style="stroke:none;fill:black;font-family:sans-serif;font-size:13;text-anchor:middle;" transform="matrix(1 0 0 1 1153.13 322)">Light</text>
  <text style="stroke:none;fill:black;font-family:sans-serif;font-size:13;text-anchor:middle;" transform="matrix(1 0 0 1 1449.84 322)">Regular</text>
  <text style="stroke:none;fill:black;font-family:sans-serif;font-size:13;text-anchor:middle;" transform="matrix(1 0 0 1 1746.56 322)">Medium</text>
  <text style="stroke:none;fill:black;font-family:sans-serif;font-size:13;text-anchor:middle;" transform="matrix(1 0 0 1 2043.27 322)">Semibold</text>
  <text style="stroke:none;fill:black;font-family:sans-serif;font-size:13;text-anchor:middle;" transform="matrix(1 0 0 1 2339.98 322)">Bold</text>
  <text style="stroke:none;fill:black;font-family:sans-serif;font-size:13;text-anchor:middle;" transform="matrix(1 0 0 1 2636.69 322)">Heavy</text>
  <text style="stroke:none;fill:black;font-family:sans-serif;font-size:13;text-anchor:middle;" transform="matrix(1 0 0 1 2933.4 322)">Black</text>
  <line style="fill:none;stroke:black;opacity:1;stroke-width:0.5;" x1="263" x2="3036" y1="1903" y2="1903"/>
  <g transform="matrix(0.2 0 0 0.2 263 1933)">
   <path d="m46.2402 4.15039c21.5332 0 39.4531-17.8711 39.4531-39.4043s-17.9688-39.4043-39.502-39.4043c-21.4844 0-39.3555 17.8711-39.3555 39.4043s17.9199 39.4043 39.4043 39.4043Zm0-7.42188c-17.7246 0-31.8848-14.209-31.8848-31.9824s14.1113-31.9824 31.8359-31.9824c17.7734 0 32.0312 14.209 32.0312 31.9824s-14.209 31.9824-31.9824 31.9824Zm-17.9688-31.9824c0 2.14844 1.51367 3.61328 3.75977 3.61328h10.498v10.5957c0 2.19727 1.46484 3.71094 3.61328 3.71094 2.24609 0 3.71094-1.51367 3.71094-3.71094v-10.5957h10.5957c2.19727 0 3.71094-1.46484 3.71094-3.61328 0-2.19727-1.51367-3.71094-3.71094-3.71094h-10.5957v-10.5469c0-2.24609-1.46484-3.75977-3.71094-3.75977-2.14844 0-3.61328 1.51367-3.61328 3.75977v10.5469h-10.498c-2.24609 0-3.75977 1.51367-3.75977 3.71094Z"/>
  </g>
  <g transform="matrix(0.2 0 0 0.2 281.506 1933)">
   <path d="m58.5449 14.5508c27.2461 0 49.8047-22.6074 49.8047-49.8047 0-27.2461-22.6074-49.8047-49.8535-49.8047-27.1973 0-49.7559 22.5586-49.7559 49.8047 0 27.1973 22.6074 49.8047 49.8047 49.8047Zm0-8.30078c-23.0469 0-41.4551-18.457-41.4551-41.5039s18.3594-41.5039 41.4062-41.5039 41.5527 18.457 41.5527 41.5039-18.457 41.5039-41.5039 41.5039Zm-22.6562-41.5039c0 2.39258 1.66016 4.00391 4.15039 4.00391h14.3555v14.4043c0 2.44141 1.66016 4.15039 4.05273 4.15039 2.44141 0 4.15039-1.66016 4.15039-4.15039v-14.4043h14.4043c2.44141 0 4.15039-1.61133 4.15039-4.00391 0-2.44141-1.70898-4.15039-4.15039-4.15039h-14.4043v-14.3555c0-2.49023-1.70898-4.19922-4.15039-4.19922-2.39258 0-4.05273 1.70898-4.05273 4.19922v14.3555h-14.3555c-2.49023 0-4.15039 1.70898-4.15039 4.15039Z"/>
  </g>
  <g transform="matrix(0.2 0 0 0.2 304.924 1933)">
   <path d="m74.8535 28.3203c34.8145 0 63.623-28.8086 63.623-63.5742 0-34.8145-28.8574-63.623-63.6719-63.623-34.7656 0-63.5254 28.8086-63.5254 63.623 0 34.7656 28.8086 63.5742 63.5742 63.5742Zm0-9.08203c-30.1758 0-54.4434-24.3164-54.4434-54.4922 0-30.2246 24.2188-54.4922 54.3945-54.4922 30.2246 0 54.541 24.2676 54.541 54.4922 0 30.1758-24.2676 54.4922-54.4922 54.4922Zm-28.8574-54.4922c0 2.58789 1.85547 4.39453 4.58984 4.39453h19.7266v19.7754c0 2.68555 1.85547 4.58984 4.44336 4.58984 2.68555 0 4.54102-1.85547 4.54102-4.58984v-19.7754h19.7754c2.68555 0 4.58984-1.80664 4.58984-4.39453 0-2.73438-1.85547-4.58984-4.58984-4.58984h-19.7754v-19.7266c0-2.73438-1.85547-4.63867-4.54102-4.63867-2.58789 0-4.44336 1.9043-4.44336 4.63867v19.7266h-19.7266c-2.73438 0-4.58984 1.85547-4.58984 4.58984Z"/>
  </g>
  <text style="stroke:none;fill:black;font-family:sans-serif;font-size:13;font-weight:bold;" transform="matrix(1 0 0 1 263 1953)">Design Variations</text>
  <text style="stroke:none;fill:black;font-family:sans-serif;font-size:13;" transform="matrix(1 0 0 1 263 1971)">Symbols are supported in up to nine weights and three scales.</text>
  <text style="stroke:none;fill:black;font-family:sans-serif;font-size:13;" transform="matrix(1 0 0 1 263 1989)">For optimal layout with text and other symbols, vertically align</text>
  <text style="stroke:none;fill:black;font-family:sans-serif;font-size:13;" transform="matrix(1 0 0 1 263 2007)">symbols with the adjacent text.</text>
  <line style="fill:none;stroke:#00AEEF;stroke-width:0.5;opacity:1.0;" x1="776" x2="776" y1="1919" y2="1933"/>
  <g transform="matrix(0.2 0 0 0.2 776 1933)">
   <path d="m16.5527 0.78125c2.58789 0 3.85742-0.976562 4.78516-3.71094l6.29883-17.2363h28.8086l6.29883 17.2363c0.927734 2.73438 2.19727 3.71094 4.73633 3.71094 2.58789 0 4.24805-1.5625 4.24805-4.00391 0-0.830078-0.146484-1.61133-0.537109-2.63672l-22.9004-60.9863c-1.12305-2.97852-3.125-4.49219-6.25-4.49219-3.02734 0-5.07812 1.46484-6.15234 4.44336l-22.9004 61.084c-0.390625 1.02539-0.537109 1.80664-0.537109 2.63672 0 2.44141 1.5625 3.95508 4.10156 3.95508Zm13.4766-28.3691 11.8652-32.8613h0.244141l11.8652 32.8613Z"/>
  </g>
  <line style="fill:none;stroke:#00AEEF;stroke-width:0.5;opacity:1.0;" x1="792.836" x2="792.836" y1="1919" y2="1933"/>
  <text style="stroke:none;fill:black;font-family:sans-serif;font-size:13;font-weight:bold;" transform="matrix(1 0 0 1 776 1953)">Margins</text>
  <text style="stroke:none;fill:black;font-family:sans-serif;font-size:13;" transform="matrix(1 0 0 1 776 1971)">Leading and trailing margins on the left and right side of each symbol</text>
  <text style="stroke:none;fill:black;font-family:sans-serif;font-size:13;" transform="matrix(1 0 0 1 776 1989)">can be adjusted by modifying the x-location of the margin guidelines.</text>
  <text style="stroke:none;fill:black;font-family:sans-serif;font-size:13;" transform="matrix(1 0 0 1 776 2007)">Modifications are automatically applied proportionally to all</text>
  <text style="stroke:none;fill:black;font-family:sans-serif;font-size:13;" transform="matrix(1 0 0 1 776 2025)">scales and weights.</text>
  <g transform="matrix(0.2 0 0 0.2 1289 1933)">
   <path d="m14.209 9.32617 8.49609 8.54492c4.29688 4.3457 9.22852 4.05273 13.8672-1.07422l53.4668-58.9355-4.83398-4.88281-53.0762 58.3984c-1.75781 2.00195-3.41797 2.49023-5.76172 0.146484l-5.85938-5.81055c-2.34375-2.29492-1.80664-4.00391 0.195312-5.81055l57.373-54.0039-4.88281-4.83398-57.959 54.4434c-4.93164 4.58984-5.32227 9.47266-1.02539 13.8184Zm32.0801-90.9668c-2.09961 2.05078-2.24609 4.93164-1.07422 6.88477 1.17188 1.80664 3.4668 2.97852 6.68945 2.14844 7.32422-1.70898 14.9414-2.00195 22.0703 2.68555l-2.92969 7.27539c-1.70898 4.15039-0.830078 7.08008 1.85547 9.81445l11.4746 11.5723c2.44141 2.44141 4.49219 2.53906 7.32422 2.05078l5.32227-0.976562 3.32031 3.36914-0.195312 2.7832c-0.195312 2.49023 0.439453 4.39453 2.88086 6.78711l3.80859 3.71094c2.39258 2.39258 5.46875 2.53906 7.8125 0.195312l14.5508-14.5996c2.34375-2.34375 2.24609-5.32227-0.146484-7.71484l-3.85742-3.80859c-2.39258-2.39258-4.24805-3.17383-6.64062-2.97852l-2.88086 0.244141-3.22266-3.17383 1.2207-5.61523c0.634766-2.83203-0.146484-5.0293-3.07617-7.95898l-10.9863-10.9375c-16.6992-16.6016-38.8672-16.2109-53.3203-1.75781Zm7.4707 1.85547c12.1582-8.88672 28.6133-7.37305 39.7461 3.75977l12.1582 12.0605c1.17188 1.17188 1.36719 2.09961 1.02539 3.80859l-1.61133 7.42188 7.51953 7.42188 4.93164-0.292969c1.26953-0.0488281 1.66016 0.0488281 2.63672 1.02539l2.88086 2.88086-12.207 12.207-2.88086-2.88086c-0.976562-0.976562-1.12305-1.36719-1.07422-2.68555l0.341797-4.88281-7.4707-7.42188-7.61719 1.26953c-1.61133 0.341797-2.34375 0.195312-3.56445-0.976562l-10.0098-10.0098c-1.26953-1.17188-1.41602-2.00195-0.634766-3.85742l4.39453-10.4492c-7.8125-7.27539-17.9688-10.4004-28.125-7.42188-0.78125 0.195312-1.07422-0.439453-0.439453-0.976562Z"/>
  </g>
  <text style="stroke:none;fill:black;font-family:sans-serif;font-size:13;font-weight:bold;" transform="matrix(1 0 0 1 1289 1953)">Exporting</text>
  <text style="stroke:none;fill:black;font-family:sans-serif;font-size:13;" transform="matrix(1 0 0 1 1289 1971)">Symbols should be outlined when exporting to ensure the</text>
  <text style="stroke:none;fill:black;font-family:sans-serif;font-size:13;" transform="matrix(1 0 0 1 1289 1989)">design is preserved when submitting to Xcode.</text>
  <text id="template-version" style="stroke:none;fill:black;font-family:sans-serif;font-size:13;text-anchor:end;" transform="matrix(1 0 0 1 3036 1933)">Template v.2.0</text>
  <text style="stroke:none;fill:black;font-family:sans-serif;font-size:13;text-anchor:end;" transform="matrix(1 0 0 1 3036 1951)">Requires Xcode 12 or greater</text>
  <text id="descriptive-name" style="stroke:none;fill:black;font-family:sans-serif;font-size:13;text-anchor:end;" transform="matrix(1 0 0 1 3036 1969)">Generated from camera.shutter.button</text>
  <text style="stroke:none;fill:black;font-family:sans-serif;font-size:13;text-anchor:end;" transform="matrix(1 0 0 1 3036 1987)">Typeset at 100.0 points</text>
  <text style="stroke:none;fill:black;font-family:sans-serif;font-size:13;" transform="matrix(1 0 0 1 263 726)">Small</text>
  <text style="stroke:none;fill:black;font-family:sans-serif;font-size:13;" transform="matrix(1 0 0 1 263 1156)">Medium</text>
  <text style="stroke:none;fill:black;font-family:sans-serif;font-size:13;" transform="matrix(1 0 0 1 263 1586)">Large</text>
 </g>
 <g id="Guides">
  <g id="H-reference" style="fill:#27AAE1;stroke:none;" transform="matrix(1 0 0 1 339 696)">
   <path d="M0.993654 0L3.63775 0L29.3281-67.1323L30.0303-67.1323L30.0303-70.459L28.1226-70.459ZM11.6885-24.4799L46.9815-24.4799L46.2315-26.7285L12.4385-26.7285ZM55.1196 0L57.7637 0L30.6382-70.459L29.4326-70.459L29.4326-67.1323Z"/>
  </g>
  <line id="Baseline-S" style="fill:none;stroke:#27AAE1;opacity:1;stroke-width:0.5;" x1="263" x2="3036" y1="696" y2="696"/>
  <line id="Capline-S" style="fill:none;stroke:#27AAE1;opacity:1;stroke-width:0.5;" x1="263" x2="3036" y1="625.541" y2="625.541"/>
  <g id="H-reference" style="fill:#27AAE1;stroke:none;" transform="matrix(1 0 0 1 339 1126)">
   <path d="M0.993654 0L3.63775 0L29.3281-67.1323L30.0303-67.1323L30.0303-70.459L28.1226-70.459ZM11.6885-24.4799L46.9815-24.4799L46.2315-26.7285L12.4385-26.7285ZM55.1196 0L57.7637 0L30.6382-70.459L29.4326-70.459L29.4326-67.1323Z"/>
  </g>
  <line id="Baseline-M" style="fill:none;stroke:#27AAE1;opacity:1;stroke-width:0.5;" x1="263" x2="3036" y1="1126" y2="1126"/>
  <line id="Capline-M" style="fill:none;stroke:#27AAE1;opacity:1;stroke-width:0.5;" x1="263" x2="3036" y1="1055.54" y2="1055.54"/>
  <g id="H-reference" style="fill:#27AAE1;stroke:none;" transform="matrix(1 0 0 1 339 1556)">
   <path d="M0.993654 0L3.63775 0L29.3281-67.1323L30.0303-67.1323L30.0303-70.459L28.1226-70.459ZM11.6885-24.4799L46.9815-24.4799L46.2315-26.7285L12.4385-26.7285ZM55.1196 0L57.7637 0L30.6382-70.459L29.4326-70.459L29.4326-67.1323Z"/>
  </g>
  <line id="Baseline-L" style="fill:none;stroke:#27AAE1;opacity:1;stroke-width:0.5;" x1="263" x2="3036" y1="1556" y2="1556"/>
  <line id="Capline-L" style="fill:none;stroke:#27AAE1;opacity:1;stroke-width:0.5;" x1="263" x2="3036" y1="1485.54" y2="1485.54"/>
  <line id="left-margin" style="fill:none;stroke:#00AEEF;stroke-width:0.5;opacity:1.0;" x1="1377.44" x2="1377.44" y1="1030.79" y2="1150.12"/>
  <line id="right-margin" style="fill:none;stroke:#00AEEF;stroke-width:0.5;opacity:1.0;" x1="1522.25" x2="1522.25" y1="1030.79" y2="1150.12"/>
 </g>
 <g id="Symbols">
  <g id="Black-L" transform="matrix(1 0 0 1 2837.7 1556)">
   <path d="M23.2683-113.099L41.5892-97.8881C43.3497-96.4445 45.0517-95.6279 46.6797-95.6279C48.3286-95.6279 50.0306-96.4445 51.7702-97.8881L70.0912-113.099C76.8949-118.718 68.4873-130.024 60.4276-122.911L46.6797-110.686L32.9527-122.911C24.8722-130.024 16.4645-118.718 23.2683-113.099ZM39.8556 26.4225L151.547 26.4225C166.69 26.4225 175.317 17.8126 175.317 2.71334L175.317-63.8414C175.317-78.9407 166.69-87.5298 151.547-87.5298L136.846-87.5298C131.993-87.5298 130.119-88.0781 126.439-91.3588L121.64-95.8088C117.915-99.1924 114.319-100.506 108.144-100.506L83.2078-100.506C77.0122-100.506 73.4164-99.1924 69.712-95.8088L64.8916-91.3588C61.2353-88.0805 59.3373-87.5298 54.5061-87.5298L39.8556-87.5298C24.7123-87.5298 16.084-78.9407 16.084-63.8414L16.084 2.71334C16.084 17.8126 24.7123 26.4225 39.8556 26.4225ZM42.5864 6.42071C38.2752 6.42071 36.065 4.51135 36.065-0.121475L36.065-60.9858C36.065-65.6186 38.2752-67.5488 42.5864-67.5488L61.7207-67.5488C67.3525-67.5488 69.8368-68.3939 73.0948-71.7411L77.4438-76.2079C80.7695-79.5852 82.9112-80.5251 88.2735-80.5251L103.058-80.5251C108.42-80.5251 110.562-79.5268 113.654-76.3831L118.257-71.7411C121.494-68.4523 123.999-67.5488 129.631-67.5488L148.816-67.5488C153.105-67.5488 155.317-65.6186 155.317-60.9858L155.317-0.121475C155.317 4.51135 153.105 6.42071 148.816 6.42071ZM95.7013 0.452687C113.927 0.452687 128.491-14.1686 128.491-32.4384C128.491-50.6874 113.93-65.3087 95.7013-65.3087C77.5339-65.3087 62.8906-50.6874 62.8906-32.4384C62.8906-14.1686 77.5339 0.452687 95.7013 0.452687ZM95.7013-16.6579C87.0272-16.6579 79.9816-23.7227 79.9816-32.4384C79.9816-41.2126 87.0064-48.1982 95.7013-48.1982C104.453-48.1982 111.4-41.2126 111.4-32.4384C111.4-23.7227 104.453-16.6579 95.7013-16.6579ZM129.269-53.1611C129.269-48.0419 133.409-43.9862 138.526-43.9862C143.56-43.9862 147.699-48.0455 147.699-53.1611C147.699-58.1367 143.501-62.3557 138.526-62.3557C133.467-62.3557 129.269-58.1367 129.269-53.1611Z"/>
  </g>
  <g id="Heavy-L" transform="matrix(1 0 0 1 2541.6 1556)">
   <path d="M23.5699-111.956L41.7149-96.7299C43.3214-95.4226 44.8833-94.6275 46.422-94.6275C47.9908-94.6275 49.5527-95.4226 51.129-96.7299L69.274-111.956C75.6226-117.229 67.835-127.64 60.3982-121.055L46.422-108.519L32.476-121.055C25.009-127.64 17.2213-117.229 23.5699-111.956ZM38.8315 25.5159L151.342 25.5159C165.955 25.5159 174.084 17.4 174.084 2.85894L174.084-63.5608C174.084-78.1019 165.955-86.1875 151.342-86.1875L135.822-86.1875C130.933-86.1875 129.16-86.83 125.661-90.0904L120.794-94.842C117.189-98.2477 113.706-99.6744 107.474-99.6744L82.5287-99.6744C76.267-99.6744 72.7838-98.2477 69.209-94.842L64.3119-90.0904C60.8546-86.8412 59.0343-86.1875 54.181-86.1875L38.8315-86.1875C24.2188-86.1875 16.084-78.1019 16.084-63.5608L16.084 2.85894C16.084 17.4 24.2188 25.5159 38.8315 25.5159ZM40.9557 7.98528C36.1404 7.98528 33.5844 5.72074 33.5844 0.583786L33.5844-61.2554C33.5844-66.3924 36.1404-68.6871 40.9557-68.6871L60.2309-68.6871C65.8715-68.6871 68.4721-69.5752 71.7202-72.972L76.2144-77.7079C79.6045-81.2325 81.6773-82.174 87.0654-82.174L102.907-82.174C108.296-82.174 110.368-81.1879 113.58-77.8418L118.283-72.972C121.501-69.6198 124.132-68.6871 129.772-68.6871L149.218-68.6871C153.997-68.6871 156.559-66.3924 156.559-61.2554L156.559 0.583786C156.559 5.72074 153.997 7.98528 149.218 7.98528ZM95.0868 1.22633C113.514 1.22633 128.256-13.5549 128.256-32.0535C128.256-50.522 113.525-65.3032 95.0868-65.3032C76.7043-65.3032 61.8873-50.522 61.8873-32.0535C61.8873-13.5549 76.7043 1.22633 95.0868 1.22633ZM95.0868-13.9666C85.1459-13.9666 77.0557-22.0523 77.0557-32.0535C77.0557-42.0994 85.1157-50.1103 95.0868-50.1103C105.097-50.1103 113.088-42.0994 113.088-32.0535C113.088-22.0523 105.097-13.9666 95.0868-13.9666ZM129.49-53.3424C129.49-48.4063 133.488-44.5055 138.413-44.5055C143.246-44.5055 147.244-48.4232 147.244-53.3424C147.244-58.1311 143.202-62.2039 138.413-62.2039C133.533-62.2039 129.49-58.1311 129.49-53.3424Z"/>
  </g>
  <g id="Bold-L" transform="matrix(1 0 0 1 2245.74 1556)">
   <path d="M23.9314-110.587L41.8314-95.3006C43.2309-94.1698 44.6013-93.4202 46.0025-93.4202C47.4416-93.4202 48.812-94.1698 50.1736-95.3006L68.0735-110.587C73.7791-115.37 66.8269-124.547 60.2555-118.698L46.0025-105.733L31.7875-118.698C25.178-124.547 18.2258-115.37 23.9314-110.587ZM37.5412 24.3865L150.947 24.3865C164.862 24.3865 172.391 16.8555 172.391 3.04324L172.391-63.2522C172.391-77.0645 164.862-84.5575 150.947-84.5575L134.457-84.5575C129.515-84.5575 127.864-85.2706 124.544-88.5377L119.578-93.6508C116.096-97.0946 112.774-98.6074 106.503-98.6074L81.6166-98.6074C75.3076-98.6074 71.9852-97.0946 68.5418-93.6508L63.5376-88.5377C60.2814-85.297 58.5535-84.5575 53.6621-84.5575L37.5412-84.5575C23.6265-84.5575 16.084-77.0645 16.084-63.2522L16.084 3.04324C16.084 16.8555 23.6265 24.3865 37.5412 24.3865ZM38.987 9.90678C33.5195 9.90678 30.5257 7.19674 30.5257 1.40752L30.5257-61.5785C30.5257-67.3677 33.5195-70.1157 38.987-70.1157L58.3047-70.1157C63.9606-70.1157 66.6699-71.0278 69.9176-74.4936L74.6035-79.56C78.0631-83.2465 80.0588-84.1657 85.4329-84.1657L102.649-84.1657C108.023-84.1657 110.018-83.2173 113.361-79.6476L118.202-74.4936C121.412-71.057 124.159-70.1157 129.815-70.1157L149.501-70.1157C154.917-70.1157 157.924-67.3677 157.924-61.5785L157.924 1.40752C157.924 7.19674 154.917 9.90678 149.501 9.90678ZM94.2441 2.13459C112.91 2.13459 127.867-12.8389 127.867-31.6069C127.867-50.337 112.936-65.3105 94.2441-65.3105C75.6077-65.3105 60.583-50.337 60.583-31.6069C60.583-12.8389 75.6077 2.13459 94.2441 2.13459ZM94.2441-10.6616C82.7282-10.6616 73.3544-20.015 73.3544-31.6069C73.3544-43.228 82.6902-52.5143 94.2441-52.5143C105.814-52.5143 115.096-43.228 115.096-31.6069C115.096-20.015 105.814-10.6616 94.2441-10.6616ZM129.662-53.5132C129.662-48.7926 133.491-45.0839 138.185-45.0839C142.773-45.0839 146.601-48.8322 146.601-53.5132C146.601-58.0712 142.743-61.9672 138.185-61.9672C133.52-61.9672 129.662-58.0712 129.662-53.5132Z"/>
  </g>
  <g id="Semibold-L" transform="matrix(1 0 0 1 1949.61 1556)">
   <path d="M24.1807-109.643L41.9117-94.3152C43.1686-93.306 44.4069-92.5878 45.7133-92.5878C47.063-92.5878 48.3013-93.306 49.5149-94.3152L67.2459-109.643C72.5082-114.088 66.132-122.416 60.1571-117.073L45.7133-103.812L31.3128-117.073C25.2946-122.416 18.9183-114.088 24.1807-109.643ZM36.6517 23.608L150.675 23.608C164.108 23.608 171.224 16.4801 171.224 3.17029L171.224-63.0395C171.224-76.3493 164.108-83.4338 150.675-83.4338L133.516-83.4338C128.537-83.4338 126.972-84.1955 123.774-87.4672L118.739-92.8296C115.343-96.2997 112.131-97.8719 105.833-97.8719L80.9877-97.8719C74.6463-97.8719 71.4346-96.2997 68.0819-92.8296L63.0038-87.4672C59.8863-84.2325 58.222-83.4338 53.3044-83.4338L36.6517-83.4338C23.2182-83.4338 16.084-76.3493 16.084-63.0395L16.084 3.17029C16.084 16.4801 23.2182 23.608 36.6517 23.608ZM37.6298 11.2314C31.7126 11.2314 28.4171 8.21429 28.4171 1.97539L28.4171-61.8012C28.4171-68.0401 31.7126-71.1006 37.6298-71.1006L56.9769-71.1006C62.6432-71.1006 65.4274-72.0292 68.6749-75.5425L73.4929-80.8367C77.0005-84.6349 78.943-85.5388 84.3075-85.5388L102.47-85.5388C107.834-85.5388 109.777-84.6164 113.21-80.8925L118.146-75.5425C121.35-72.0477 124.178-71.1006 129.844-71.1006L149.696-71.1006C155.552-71.1006 158.866-68.0401 158.866-61.8012L158.866 1.97539C158.866 8.21429 155.552 11.2314 149.696 11.2314ZM93.6631 2.76074C112.493 2.76074 127.599-12.3453 127.599-31.299C127.599-50.2094 112.53-65.3155 93.6631-65.3155C74.8517-65.3155 59.6838-50.2094 59.6838-31.299C59.6838-12.3453 74.8517 2.76074 93.6631 2.76074ZM93.6631-8.38318C81.0614-8.38318 70.8028-18.6106 70.8028-31.299C70.8028-44.0061 81.018-54.1715 93.6631-54.1715C106.308-54.1715 116.48-44.0061 116.48-31.299C116.48-18.6106 106.308-8.38318 93.6631-8.38318ZM129.781-53.6309C129.781-49.0588 133.493-45.4825 138.028-45.4825C142.446-45.4825 146.158-49.1143 146.158-53.6309C146.158-58.03 142.427-61.8041 138.028-61.8041C133.512-61.8041 129.781-58.03 129.781-53.6309Z"/>
  </g>
  <g id="Medium-L" transform="matrix(1 0 0 1 1653.34 1556)">
   <path d="M24.3697-108.928L41.9726-93.568C43.1213-92.6511 44.2595-91.9567 45.494-91.9567C46.7759-91.9567 47.9141-92.6511 49.0154-93.568L66.6183-108.928C71.5445-113.116 65.605-120.799 60.0825-115.84L45.494-102.356L30.9529-115.84C25.3829-120.799 19.4434-113.116 24.3697-108.928ZM35.9773 23.0176L150.468 23.0176C163.537 23.0176 170.339 16.1955 170.339 3.26662L170.339-62.8782C170.339-75.807 163.537-82.5817 150.468-82.5817L132.803-82.5817C127.796-82.5817 126.294-83.3804 123.19-86.6556L118.103-92.2069C114.772-95.6969 111.644-97.3142 105.325-97.3142L80.5109-97.3142C74.1448-97.3142 71.0171-95.6969 67.7332-92.2069L62.599-86.6556C59.5867-83.4253 57.9707-82.5817 53.0332-82.5817L35.9773-82.5817C22.9086-82.5817 16.084-75.807 16.084-62.8782L16.084 3.26662C16.084 16.1955 22.9086 23.0176 35.9773 23.0176ZM36.6007 12.2359C30.3426 12.2359 26.8183 8.98584 26.8183 2.40598L26.8183-61.9701C26.8183-68.55 30.3426-71.8474 36.6007-71.8474L55.97-71.8474C61.6443-71.8474 64.4853-72.7885 67.7326-76.3378L72.6509-81.8048C76.1947-85.6877 78.097-86.5799 83.4542-86.5799L102.335-86.5799C107.692-86.5799 109.594-85.6772 113.096-81.8364L118.104-76.3378C121.303-72.799 124.192-71.8474 129.866-71.8474L149.845-71.8474C156.033-71.8474 159.58-68.55 159.58-61.9701L159.58 2.40598C159.58 8.98584 156.033 12.2359 149.845 12.2359ZM93.2226 3.23552C112.177 3.23552 127.396-11.971 127.396-31.0656C127.396-50.1127 112.222-65.3193 93.2226-65.3193C74.2784-65.3193 59.0019-50.1127 59.0019-31.0656C59.0019-11.971 74.2784 3.23552 93.2226 3.23552ZM93.2226-6.65558C79.7976-6.65558 68.8681-17.5457 68.8681-31.0656C68.8681-44.596 79.7501-55.4282 93.2226-55.4282C106.683-55.4282 117.53-44.596 117.53-31.0656C117.53-17.5457 106.683-6.65558 93.2226-6.65558ZM129.871-53.7201C129.871-49.2607 133.495-45.7848 137.909-45.7848C142.198-45.7848 145.822-49.3281 145.822-53.7201C145.822-57.9987 142.188-61.6803 137.909-61.6803C133.505-61.6803 129.871-57.9987 129.871-53.7201Z"/>
  </g>
  <g id="Regular-L" transform="matrix(1 0 0 1 1357.21 1556)">
   <path d="M24.6161-107.994L42.052-92.5934C43.0596-91.7969 44.0672-91.1335 45.208-91.1335C46.4015-91.1335 47.4091-91.7969 48.3639-92.5934L65.7998-107.994C70.2876-111.849 64.9177-118.691 59.9852-114.233L45.208-100.456L30.4835-114.233C25.4982-118.691 20.1283-111.849 24.6161-107.994ZM35.0976 22.2476L150.199 22.2476C162.791 22.2476 169.184 15.8242 169.184 3.39227L169.184-62.6678C169.184-75.0997 162.791-81.4704 150.199-81.4704L131.873-81.4704C126.829-81.4704 125.411-82.3171 122.428-85.5969L117.274-91.3948C114.027-94.9107 111.009-96.5868 104.663-96.5868L79.889-96.5868C73.4907-96.5868 70.4726-94.9107 67.2783-91.3948L62.071-85.5969C59.1959-82.3724 57.6428-81.4704 52.6794-81.4704L35.0976-81.4704C22.5048-81.4704 16.084-75.0997 16.084-62.6678L16.084 3.39227C16.084 15.8242 22.5048 22.2476 35.0976 22.2476ZM35.2584 13.546C28.5555 13.546 24.7328 9.9922 24.7328 2.96762L24.7328-62.1904C24.7328-69.215 28.5555-72.8215 35.2584-72.8215L54.6567-72.8215C60.3414-72.8215 63.2565-73.7789 66.5035-77.3752L71.5525-83.0676C75.1438-87.0609 76.9934-87.9379 82.3412-87.9379L102.158-87.9379C107.506-87.9379 109.355-87.0609 112.947-83.0676L118.048-77.3752C121.243-73.7789 124.211-72.8215 129.895-72.8215L150.038-72.8215C156.66-72.8215 160.511-69.215 160.511-62.1904L160.511 2.96762C160.511 9.9922 156.66 13.546 150.038 13.546ZM92.6481 3.85479C111.765 3.85479 127.131-11.4829 127.131-30.7611C127.131-49.9865 111.821-65.3242 92.6481-65.3242C73.5307-65.3242 58.1126-49.9865 58.1126-30.7611C58.1126-11.4829 73.5307 3.85479 92.6481 3.85479ZM92.6481-4.40218C78.1491-4.40218 66.3445-16.1566 66.3445-30.7611C66.3445-45.3655 78.0964-57.0672 92.6481-57.0672C107.172-57.0672 118.899-45.3655 118.899-30.7611C118.899-16.1566 107.172-4.40218 92.6481-4.40218ZM129.988-53.8365C129.988-49.524 133.497-46.1792 137.754-46.1792C141.875-46.1792 145.384-49.607 145.384-53.8365C145.384-57.9579 141.875-61.519 137.754-61.519C133.497-61.519 129.988-57.9579 129.988-53.8365Z"/>
  </g>
  <g id="Light-L" transform="matrix(1 0 0 1 1061.62 1556)">
   <path d="M24.7879-107.345L41.8802-91.6391C42.6397-91.0144 43.3992-90.5037 44.2728-90.5037C45.18-90.5037 45.9395-91.0144 46.6654-91.6391L63.7576-107.345C67.2912-110.475 62.9328-115.656 59.2027-112.229L44.2728-97.8794L29.3765-112.229C25.6127-115.656 21.2544-110.475 24.7879-107.345ZM34.067 21.4269L149.015 21.4269C160.864 21.4269 166.952 15.2326 166.952 3.54496L166.952-62.706C166.952-74.3936 160.864-80.5543 149.015-80.5543L130.308-80.5543C125.168-80.5543 123.827-81.1529 120.672-84.6426L115.346-90.6123C112.023-94.2236 109.253-95.6134 103.079-95.6134L78.8011-95.6134C72.5937-95.6134 69.8237-94.2236 66.534-90.6123L61.174-84.6426C58.1462-81.2464 56.6313-80.5543 51.5724-80.5543L34.067-80.5543C22.2185-80.5543 16.084-74.3936 16.084-62.706L16.084 3.54496C16.084 15.2326 22.2185 21.4269 34.067 21.4269ZM34.2278 14.7674C26.8951 14.7674 22.7098 10.8701 22.7098 3.21573L22.7098-62.3431C22.7098-69.9975 26.8951-73.9284 34.2278-73.9284L52.8054-73.9284C58.5283-73.9284 61.2908-74.7141 64.6141-78.4058L69.873-84.3081C73.4452-88.2824 75.2948-88.9876 80.3372-88.9876L101.509-88.9876C106.551-88.9876 108.401-88.2824 111.973-84.3081L117.266-78.4058C120.556-74.7141 123.352-73.9284 129.075-73.9284L148.854-73.9284C156.107-73.9284 160.339-69.9975 160.339-62.3431L160.339 3.21573C160.339 10.8701 156.107 14.7674 148.854 14.7674ZM91.5411 4.16015C110.754 4.16015 126.234-11.2729 126.234-30.6466C126.234-49.9865 110.847-65.4196 91.5411-65.4196C72.3283-65.4196 56.8148-49.9865 56.8148-30.6466C56.8148-11.2729 72.3283 4.16015 91.5411 4.16015ZM91.5411-2.3028C75.9162-2.3028 63.2908-14.9543 63.2908-30.6466C63.2908-46.3389 75.8825-58.9567 91.5411-58.9567C107.153-58.9567 119.758-46.3389 119.758-30.6466C119.758-14.9543 107.153-2.3028 91.5411-2.3028ZM129.454-53.6075C129.454-49.3714 132.886-46.1601 137.029-46.1601C140.997-46.1601 144.429-49.5116 144.429-53.6075C144.429-57.5762 140.997-61.0418 137.029-61.0418C132.886-61.0418 129.454-57.5762 129.454-53.6075Z"/>
  </g>
  <g id="Thin-L" transform="matrix(1 0 0 1 766.381 1556)">
   <path d="M25.0151-106.487L41.653-90.3771C42.0844-89.9795 42.5157-89.6707 43.0359-89.6707C43.5646-89.6707 43.9959-89.9795 44.4188-90.3771L61.0568-106.487C63.3282-108.657 60.3077-111.643 58.1678-109.579L43.0359-94.4718L27.9125-109.579C25.7642-111.643 22.7436-108.657 25.0151-106.487ZM32.7039 20.3415L147.45 20.3415C158.314 20.3415 163.998 14.4501 163.998 3.74689L163.998-62.7564C163.998-73.4596 158.314-79.3427 147.45-79.3427L128.238-79.3427C122.972-79.3427 121.732-79.6132 118.35-83.3805L112.797-89.5774C109.372-93.3149 106.93-94.3261 100.984-94.3261L77.3623-94.3261C71.4073-94.3261 68.9654-93.3149 65.5496-89.5774L59.9877-83.3805C56.7579-79.7571 55.2935-79.3427 50.1084-79.3427L32.7039-79.3427C21.8399-79.3427 16.084-73.4596 16.084-62.7564L16.084 3.74689C16.084 14.4501 21.8399 20.3415 32.7039 20.3415ZM32.8648 16.3829C24.6991 16.3829 20.0342 12.0312 20.0342 3.54387L20.0342-62.545C20.0342-71.0324 24.6991-75.3925 32.8648-75.3925L50.357-75.3925C56.1303-75.3925 58.6908-75.9509 62.1152-79.7689L67.6518-85.9488C71.1987-89.8979 73.0483-90.3759 77.6868-90.3759L100.651-90.3759C105.289-90.3759 107.139-89.8979 110.686-85.9488L116.231-79.7689C119.647-75.9509 122.216-75.3925 127.989-75.3925L147.289-75.3925C155.375-75.3925 160.112-71.0324 160.112-62.545L160.112 3.54387C160.112 12.0312 155.375 16.3829 147.289 16.3829ZM90.0771 4.56402C109.416 4.56402 125.047-10.9953 125.047-30.4951C125.047-49.9865 109.56-65.5458 90.0771-65.5458C70.7381-65.5458 55.0984-49.9865 55.0984-30.4951C55.0984-10.9953 70.7381 4.56402 90.0771 4.56402ZM90.0771 0.473805C72.9629 0.473805 59.2521-13.364 59.2521-30.4951C59.2521-47.6262 72.9544-61.4556 90.0771-61.4556C107.128-61.4556 120.894-47.6262 120.894-30.4951C120.894-13.364 107.128 0.473805 90.0771 0.473805ZM128.747-53.3046C128.747-49.1694 132.078-46.1348 136.069-46.1348C139.836-46.1348 143.167-49.3854 143.167-53.3046C143.167-57.0714 139.836-60.4108 136.069-60.4108C132.078-60.4108 128.747-57.0714 128.747-53.3046Z"/>
  </g>
  <g id="Ultralight-L" transform="matrix(1 0 0 1 470.426 1556)">
   <path d="M25.1314-106.047L41.5367-89.7306C41.7999-89.4494 42.0632-89.2441 42.4024-89.2441C42.7371-89.2441 43.0004-89.4494 43.2682-89.7306L59.6734-106.047C61.2984-107.726 58.9631-109.587 57.6377-108.221L42.4024-92.7264L27.1626-108.221C25.8418-109.587 23.5064-107.726 25.1314-106.047ZM32.0058 19.7856L146.649 19.7856C157.008 19.7856 162.486 14.0493 162.486 3.85032L162.486-62.7823C162.486-72.9813 157.008-78.7221 146.649-78.7221L127.178-78.7221C121.847-78.7221 120.659-78.8245 117.161-82.7341L111.491-89.0473C108.015-92.8495 105.741-93.6667 99.9108-93.6667L76.6254-93.6667C70.7996-93.6667 68.5259-92.8495 65.0453-89.0473L59.38-82.7341C56.0469-78.9943 54.6083-78.7221 49.3585-78.7221L32.0058-78.7221C21.646-78.7221 16.084-72.9813 16.084-62.7823L16.084 3.85032C16.084 14.0493 21.646 19.7856 32.0058 19.7856ZM32.1666 17.2104C23.5743 17.2104 18.6637 12.626 18.6637 3.71194L18.6637-62.6484C18.6637-71.5624 23.5743-76.1423 32.1666-76.1423L49.1029-76.1423C54.9021-76.1423 57.3592-76.5844 60.8352-80.467L66.514-86.7892C70.048-90.7253 71.8977-91.087 76.3293-91.087L100.211-91.087C104.643-91.087 106.493-90.7253 110.027-86.7892L115.701-80.467C119.181-76.5844 121.634-76.1423 127.433-76.1423L146.488-76.1423C155-76.1423 159.995-71.5624 159.995-62.6484L159.995 3.71194C159.995 12.626 155 17.2104 146.488 17.2104ZM89.3272 4.77088C108.731 4.77088 124.44-10.853 124.44-30.4176C124.44-49.9865 108.901-65.6105 89.3272-65.6105C69.9236-65.6105 54.2192-49.9865 54.2192-30.4176C54.2192-10.853 69.9236 4.77088 89.3272 4.77088ZM89.3272 1.89597C71.4502 1.89597 57.1835-12.5495 57.1835-30.4176C57.1835-48.2856 71.4547-62.7356 89.3272-62.7356C107.115-62.7356 121.475-48.2856 121.475-30.4176C121.475-12.5495 107.115 1.89597 89.3272 1.89597ZM128.385-53.1494C128.385-49.066 131.664-46.1219 135.578-46.1219C139.241-46.1219 142.521-49.3207 142.521-53.1494C142.521-56.8128 139.241-60.0876 135.578-60.0876C131.664-60.0876 128.385-56.8128 128.385-53.1494Z"/>
  </g>
  <g id="Black-M" transform="matrix(1 0 0 1 2858.88 1126)">
   <path d="M17.7909-96.4523L32.0897-84.6398C33.5522-83.4276 34.9576-82.7971 36.2596-82.7971C37.567-82.7971 38.9724-83.4276 40.4295-84.6398L54.7282-96.4523C60.2612-101.006 53.3516-110.308 46.7351-104.483L36.2596-95.203L25.7895-104.483C19.1675-110.308 12.2579-101.006 17.7909-96.4523ZM31.6184 13.203L117.426 13.203C129.513 13.203 136.583 6.13889 136.583-5.93804L136.583-57.6427C136.583-69.7196 129.513-76.7782 117.426-76.7782L106.688-76.7782C102.946-76.7782 101.418-77.0884 98.3891-79.676L94.7053-82.8877C91.7056-85.5031 88.8567-86.385 84.1448-86.385L64.9008-86.385C60.1834-86.385 57.3346-85.5031 54.3403-82.8877L50.651-79.676C47.6266-77.0878 46.0944-76.7782 42.3576-76.7782L31.6184-76.7782C19.5311-76.7782 12.4609-69.7196 12.4609-57.6427L12.4609-5.93804C12.4609 6.13889 19.5311 13.203 31.6184 13.203ZM34.2553-4.14048C31.2632-4.14048 29.7989-5.36104 29.7989-8.60235L29.7989-54.9729C29.7989-58.2142 31.2632-59.4403 34.2553-59.4403L48.8471-59.4403C53.2079-59.4403 55.012-60.0348 57.5549-62.5983L60.8281-65.856C63.3466-68.3435 65.0651-69.047 69.1559-69.047L79.8842-69.047C83.975-69.047 85.6935-68.2864 87.9836-66.0273L91.4907-62.5983C94.0282-60.0919 95.8377-59.4403 100.198-59.4403L114.789-59.4403C117.776-59.4403 119.24-58.2142 119.24-54.9729L119.24-8.60235C119.24-5.36104 117.776-4.14048 114.789-4.14048ZM74.522-8.20853C88.4823-8.20853 99.6281-19.4117 99.6281-33.3824C99.6281-47.3476 88.4817-58.5508 74.522-58.5508C60.6189-58.5508 49.4105-47.3476 49.4105-33.3824C49.4105-19.4117 60.6189-8.20853 74.522-8.20853ZM74.522-22.8698C68.738-22.8698 64.0659-27.5874 64.0659-33.3824C64.0659-39.2345 68.7325-43.8895 74.522-43.8895C80.3689-43.8895 84.9726-39.2345 84.9726-33.3824C84.9726-27.5874 80.3689-22.8698 74.522-22.8698ZM99.8879-48.935C99.8879-44.822 103.207-41.5647 107.32-41.5647C111.372-41.5647 114.691-44.8211 114.691-48.935C114.691-52.9298 111.315-56.3111 107.32-56.3111C103.264-56.3111 99.8879-52.9298 99.8879-48.935Z"/>
  </g>
  <g id="Heavy-M" transform="matrix(1 0 0 1 2562.67 1126)">
   <path d="M18.07-95.3952L32.2283-83.5956C33.5633-82.5008 34.8547-81.8773 36.0939-81.8773C37.3495-81.8773 38.6408-82.5008 39.9594-83.5956L54.1178-95.3952C59.2939-99.6764 52.8971-108.258 46.7785-102.854L36.0939-93.3217L25.4256-102.854C19.2906-108.258 12.8939-99.6764 18.07-95.3952ZM30.7123 12.3923L117.334 12.3923C128.972 12.3923 135.584 5.79013 135.584-5.80979L135.584-57.3648C135.584-68.9648 128.972-75.5505 117.334-75.5505L105.832-75.5505C102.063-75.5505 100.627-75.9757 97.7901-78.5241L94.0563-82.0148C91.1811-84.643 88.4194-85.6617 83.6362-85.6617L64.3373-85.6617C59.5377-85.6617 56.776-84.643 53.9172-82.0148L50.167-78.5241C47.3512-75.9803 45.8915-75.5505 42.1419-75.5505L30.7123-75.5505C19.075-75.5505 12.4609-68.9648 12.4609-57.3648L12.4609-5.80979C12.4609 5.79013 19.075 12.3923 30.7123 12.3923ZM32.7562-2.72369C29.3294-2.72369 27.5605-4.25976 27.5605-7.93579L27.5605-55.2224C27.5605-58.8985 29.3294-60.4509 32.7562-60.4509L47.5615-60.4509C51.9274-60.4509 53.8593-61.1033 56.3855-63.7065L59.7811-67.208C62.3645-69.8411 64.0156-70.5621 68.1598-70.5621L79.7973-70.5621C83.9415-70.5621 85.5926-69.7975 88.0015-67.3389L91.588-63.7065C94.0978-61.1469 96.0461-60.4509 100.412-60.4509L115.291-60.4509C118.699-60.4509 120.47-58.8985 120.47-55.2224L120.47-7.93579C120.47-4.25976 118.699-2.72369 115.291-2.72369ZM74.0234-7.48041C88.1716-7.48041 99.481-18.8312 99.481-33.0167C99.481-47.1859 88.1761-58.5366 74.0234-58.5366C59.9188-58.5366 48.5494-47.1859 48.5494-33.0167C48.5494-18.8312 59.9188-7.48041 74.0234-7.48041ZM74.0234-20.4326C67.1049-20.4326 61.4874-26.0654 61.4874-33.0167C61.4874-40.0117 67.0884-45.5844 74.0234-45.5844C80.9997-45.5844 86.5429-40.0117 86.5429-33.0167C86.5429-26.0654 80.9997-20.4326 74.0234-20.4326ZM100.153-49.1334C100.153-45.1923 103.34-42.0742 107.277-42.0742C111.147-42.0742 114.334-45.1991 114.334-49.1334C114.334-52.9595 111.103-56.2067 107.277-56.2067C103.384-56.2067 100.153-52.9595 100.153-49.1334Z"/>
  </g>
  <g id="Bold-M" transform="matrix(1 0 0 1 2266.51 1126)">
   <path d="M18.3821-94.2127L32.3835-82.4276C33.5758-81.4641 34.7395-80.8483 35.9085-80.8483C37.1061-80.8483 38.2699-81.4641 39.4335-82.4276L53.4349-94.2127C58.2117-98.1893 52.3886-105.964 46.827-101.031L35.9085-91.2172L25.0186-101.031C19.4284-105.964 13.6052-98.1893 18.3821-94.2127ZM29.6986 11.4855L117.233 11.4855C128.366 11.4855 134.465 5.39999 134.465-5.66632L134.465-57.054C134.465-68.1203 128.366-74.1772 117.233-74.1772L104.874-74.1772C101.076-74.1772 99.7413-74.731 97.12-77.2355L93.3303-81.0383C90.5944-83.6808 87.9301-84.8526 83.0672-84.8526L63.707-84.8526C58.8154-84.8526 56.1512-83.6808 53.4439-81.0383L49.6256-77.2355C47.0432-74.7413 45.6646-74.1772 41.9006-74.1772L29.6986-74.1772C18.5648-74.1772 12.4609-68.1203 12.4609-57.054L12.4609-5.66632C12.4609 5.39999 18.5648 11.4855 29.6986 11.4855ZM31.0794-1.13881C27.1663-1.13881 25.0566-3.02783 25.0566-7.19016L25.0566-55.5016C25.0566-59.6639 27.1663-61.5815 31.0794-61.5815L46.1235-61.5815C50.4951-61.5815 52.5698-62.2986 55.0773-64.9463L58.61-68.7204C61.2658-71.5165 62.8415-72.2569 67.0455-72.2569L79.7001-72.2569C83.904-72.2569 85.4798-71.4879 88.0214-68.806L91.6968-64.9463C94.1757-62.3272 96.2791-61.5815 100.651-61.5815L115.852-61.5815C119.731-61.5815 121.846-59.6639 121.846-55.5016L121.846-7.19016C121.846-3.02783 119.731-1.13881 115.852-1.13881ZM73.4656-6.6659C87.824-6.6659 99.3164-18.1817 99.3164-32.6076C99.3164-47.005 87.8343-58.5208 73.4656-58.5208C59.1357-58.5208 47.5861-47.005 47.5861-32.6076C47.5861-18.1817 59.1357-6.6659 73.4656-6.6659ZM73.4656-17.7062C65.2779-17.7062 58.6029-24.3628 58.6029-32.6076C58.6029-40.8811 65.2493-47.4805 73.4656-47.4805C81.7053-47.4805 88.2996-40.8811 88.2996-32.6076C88.2996-24.3628 81.7053-17.7062 73.4656-17.7062ZM100.45-49.3553C100.45-45.6065 103.49-42.6441 107.229-42.6441C110.895-42.6441 113.935-45.6219 113.935-49.3553C113.935-52.9927 110.866-56.09 107.229-56.09C103.519-56.09 100.45-52.9927 100.45-49.3553Z"/>
  </g>
  <g id="Semibold-M" transform="matrix(1 0 0 1 1970.19 1126)">
   <path d="M18.5973-93.3974L32.4904-81.6224C33.5843-80.7493 34.6601-80.139 35.7807-80.139C36.9384-80.139 38.0141-80.7493 39.071-81.6224L52.9641-93.3974C57.4657-97.164 52.038-104.383 46.8605-99.7745L35.7807-89.7663L24.7379-99.7745C19.5234-104.383 14.0957-97.164 18.5973-93.3974ZM28.9998 10.8604L117.162 10.8604C127.949 10.8604 133.694 5.13104 133.694-5.56741L133.694-56.8397C133.694-67.5382 127.949-73.2305 117.162-73.2305L104.213-73.2305C100.395-73.2305 99.1308-73.873 96.658-76.3472L92.8298-80.3652C90.1899-83.0175 87.5928-84.2948 82.6749-84.2948L63.2725-84.2948C58.3175-84.2948 55.7204-83.0175 53.1176-80.3652L49.2524-76.3472C46.8308-73.8872 45.5081-73.2305 41.7343-73.2305L28.9998-73.2305C18.2131-73.2305 12.4609-67.5382 12.4609-56.8397L12.4609-5.56741C12.4609 5.13104 18.2131 10.8604 28.9998 10.8604ZM29.9233-0.0461991C25.675-0.0461991 23.3305-2.17855 23.3305-6.67612L23.3305-55.694C23.3305-60.1916 25.675-62.361 29.9233-62.361L45.132-62.361C49.5076-62.361 51.6809-63.1226 54.1755-65.8009L57.8026-69.763C60.5084-72.6714 62.0322-73.4253 66.2773-73.4253L79.633-73.4253C83.8782-73.4253 85.402-72.6533 88.0351-69.8175L91.7719-65.8009C94.2294-63.1408 96.4398-62.361 100.815-62.361L116.239-62.361C120.443-62.361 122.795-60.1916 122.795-55.694L122.795-6.67612C122.795-2.17855 120.443-0.0461991 116.239-0.0461991ZM73.081-6.10439C87.5844-6.10439 99.2029-17.7339 99.2029-32.3256C99.2029-46.8803 87.5986-58.5098 73.081-58.5098C58.5958-58.5098 46.9221-46.8803 46.9221-32.3256C46.9221-17.7339 58.5958-6.10439 73.081-6.10439ZM73.081-15.8266C64.0185-15.8266 56.6144-23.189 56.6144-32.3256C56.6144-41.4804 63.9814-48.7876 73.081-48.7876C82.1917-48.7876 89.5106-41.4804 89.5106-32.3256C89.5106-23.189 82.1917-15.8266 73.081-15.8266ZM100.655-49.5083C100.655-45.8921 103.593-43.037 107.195-43.037C110.721-43.037 113.659-45.9134 113.659-49.5083C113.659-53.0156 110.703-56.0095 107.195-56.0095C103.611-56.0095 100.655-53.0156 100.655-49.5083Z"/>
  </g>
  <g id="Medium-M" transform="matrix(1 0 0 1 1673.77 1126)">
   <path d="M18.7605-92.7793L32.5715-81.0119C33.5908-80.2074 34.5999-79.6011 35.6838-79.6011C36.8112-79.6011 37.8202-80.2074 38.7961-81.0119L52.6071-92.7793C56.9001-96.3866 51.7722-103.184 46.8859-98.8217L35.6838-88.6663L24.5252-98.8217C19.5954-103.184 14.4675-96.3866 18.7605-92.7793ZM28.47 10.3864L117.109 10.3864C127.632 10.3864 133.109 4.9271 133.109-5.49242L133.109-56.6773C133.109-67.0968 127.632-72.5126 117.109-72.5126L103.712-72.5126C99.8789-72.5126 98.6679-73.2223 96.3077-75.6736L92.4503-79.8548C89.8832-82.5146 87.3371-83.8719 82.3775-83.8719L62.943-83.8719C57.9399-83.8719 55.3938-82.5146 52.8702-79.8548L48.9693-75.6736C46.6698-73.2395 45.3895-72.5126 41.6082-72.5126L28.47-72.5126C17.9464-72.5126 12.4609-67.0968 12.4609-56.6773L12.4609-5.49242C12.4609 4.9271 17.9464 10.3864 28.47 10.3864ZM29.0468 0.782262C24.5442 0.782262 22.0216-1.53459 22.0216-6.28636L22.0216-55.8399C22.0216-60.5917 24.5442-62.9519 29.0468-62.9519L44.3803-62.9519C48.7588-62.9519 51.0069-63.7474 53.4917-66.449L57.1904-70.5536C59.9341-73.5472 61.4185-74.3112 65.6949-74.3112L79.5822-74.3112C83.8586-74.3112 85.343-73.5369 88.0456-70.5844L91.8287-66.449C94.2702-63.7577 96.5616-62.9519 100.94-62.9519L116.532-62.9519C120.983-62.9519 123.514-60.5917 123.514-55.8399L123.514-6.28636C123.514-1.53459 120.983 0.782262 116.532 0.782262ZM72.7895-5.67862C87.4028-5.67862 99.1169-17.3944 99.1169-32.1118C99.1169-46.7857 87.42-58.5015 72.7895-58.5015C58.1864-58.5015 46.4186-46.7857 46.4186-32.1118C46.4186-17.3944 58.1864-5.67862 72.7895-5.67862ZM72.7895-14.4015C63.0635-14.4015 55.1066-22.299 55.1066-32.1118C55.1066-41.9349 63.0201-49.7787 72.7895-49.7787C82.5605-49.7787 90.4288-41.9349 90.4288-32.1118C90.4288-22.299 82.5605-14.4015 72.7895-14.4015ZM100.81-49.6243C100.81-46.1086 103.671-43.3349 107.17-43.3349C110.589-43.3349 113.451-46.1344 113.451-49.6243C113.451-53.033 110.579-55.9485 107.17-55.9485C103.682-55.9485 100.81-53.033 100.81-49.6243Z"/>
  </g>
  <g id="Regular-M" transform="matrix(1 0 0 1 1377.44 1126)">
   <path d="M18.9733-91.973L32.6773-80.2155C33.5993-79.5005 34.5213-78.8996 35.5574-78.8996C36.6452-78.8996 37.5673-79.5005 38.4375-80.2155L52.1415-91.973C56.1622-95.3726 51.4255-101.62 46.919-97.579L35.5574-87.2314L24.2476-97.579C19.6893-101.62 14.9526-95.3726 18.9733-91.973ZM27.7789 9.76808L117.039 9.76808C127.22 9.76808 132.347 4.6611 132.347-5.3946L132.347-56.4653C132.347-66.521 127.22-71.5763 117.039-71.5763L103.059-71.5763C99.2057-71.5763 98.0641-72.3737 95.8508-74.795L91.9552-79.189C89.4832-81.8585 87.0035-83.3202 81.9895-83.3202L62.5132-83.3202C57.4475-83.3202 54.9678-81.8585 52.5475-79.189L48.6002-74.795C46.4597-72.3948 45.2347-71.5763 41.4437-71.5763L27.7789-71.5763C17.5986-71.5763 12.4609-66.521 12.4609-56.4653L12.4609-5.3946C12.4609 4.6611 17.5986 9.76808 27.7789 9.76808ZM27.9035 1.86286C23.0694 1.86286 20.3144-0.694633 20.3144-5.77797L20.3144-56.0302C20.3144-61.1135 23.0694-63.7228 27.9035-63.7228L43.3998-63.7228C47.7822-63.7228 50.1277-64.5624 52.5998-67.2943L56.3918-71.5847C59.185-74.6894 60.618-75.4667 64.9351-75.4667L79.5159-75.4667C83.833-75.4667 85.266-74.6894 88.0592-71.5847L91.903-67.2943C94.3233-64.5624 96.7205-63.7228 101.103-63.7228L116.915-63.7228C121.687-63.7228 124.452-61.1135 124.452-56.0302L124.452-5.77797C124.452-0.694633 121.687 1.86286 116.915 1.86286ZM72.4091-5.12327C87.1658-5.12327 99.0047-16.9516 99.0047-31.8329C99.0047-46.6624 87.1869-58.4907 72.4091-58.4907C57.6525-58.4907 45.7618-46.6624 45.7618-31.8329C45.7618-16.9516 57.6525-5.12327 72.4091-5.12327ZM72.4091-12.5426C61.8179-12.5426 53.14-21.1381 53.14-31.8329C53.14-42.5277 61.7661-51.0714 72.4091-51.0714C83.0416-51.0714 91.6266-42.5277 91.6266-31.8329C91.6266-21.1381 83.0416-12.5426 72.4091-12.5426ZM101.012-49.7756C101.012-46.3911 103.773-43.7235 107.137-43.7235C110.417-43.7235 113.179-46.4227 113.179-49.7756C113.179-53.0557 110.417-55.8689 107.137-55.8689C103.773-55.8689 101.012-53.0557 101.012-49.7756Z"/>
  </g>
  <g id="Light-M" transform="matrix(1 0 0 1 1081.73 1126)">
   <path d="M19.1273-91.3912L32.5233-79.36C33.2229-78.799 33.9225-78.3349 34.719-78.3349C35.5501-78.3349 36.2497-78.799 36.9146-79.36L50.3107-91.3912C53.4758-94.1407 49.646-98.8991 46.2174-95.7823L34.719-84.9214L23.2552-95.7823C19.7919-98.8991 15.9621-94.1407 19.1273-91.3912ZM26.8549 9.03231L115.979 9.03231C125.491 9.03231 130.345 4.13066 130.345-5.25771L130.345-56.4996C130.345-65.8879 125.491-70.7549 115.979-70.7549L101.656-70.7549C97.717-70.7549 96.6439-71.3299 94.2766-73.9395L90.227-78.4874C87.6865-81.2425 85.4293-82.4475 80.5693-82.4475L61.5379-82.4475C56.6432-82.4475 54.3861-81.2425 51.8802-78.4874L47.796-73.9395C45.5186-71.3852 44.3279-70.7549 40.4513-70.7549L26.8549-70.7549C17.3419-70.7549 12.4609-65.8879 12.4609-56.4996L12.4609-5.25771C12.4609 4.13066 17.3419 9.03231 26.8549 9.03231ZM26.9795 2.95796C21.5807 2.95796 18.5006 0.0924704 18.5006-5.55553L18.5006-56.1671C18.5006-61.8151 21.5807-64.7152 26.9795-64.7152L41.74-64.7152C46.1567-64.7152 48.3653-65.4008 50.9058-68.2183L54.8861-72.697C57.6621-75.7845 59.0951-76.4078 63.1385-76.4078L78.9341-76.4078C82.9774-76.4078 84.4105-75.7845 87.1865-72.697L91.2014-68.2183C93.7073-65.4008 95.9505-64.7152 100.367-64.7152L115.854-64.7152C121.19-64.7152 124.298-61.8151 124.298-56.1671L124.298-5.55553C124.298 0.0924704 121.19 2.95796 115.854 2.95796ZM71.4167-4.8495C86.2589-4.8495 98.2005-16.7634 98.2005-31.7302C98.2005-46.6624 86.3142-58.5763 71.4167-58.5763C56.5745-58.5763 44.5983-46.6624 44.5983-31.7302C44.5983-16.7634 56.5745-4.8495 71.4167-4.8495ZM71.4167-10.6604C59.8159-10.6604 50.4022-20.0601 50.4022-31.7302C50.4022-43.4003 59.7812-52.7654 71.4167-52.7654C83.0245-52.7654 92.3965-43.4003 92.3965-31.7302C92.3965-20.0601 83.0245-10.6604 71.4167-10.6604ZM100.533-49.5703C100.533-46.2542 103.226-43.7064 106.487-43.7064C109.63-43.7064 112.323-46.3372 112.323-49.5703C112.323-52.7135 109.63-55.4412 106.487-55.4412C103.226-55.4412 100.533-52.7135 100.533-49.5703Z"/>
  </g>
  <g id="Thin-M" transform="matrix(1 0 0 1 786.343 1126)">
   <path d="M19.331-90.6218L32.3196-78.2284C32.725-77.8711 33.1304-77.5881 33.6101-77.5881C34.1018-77.5881 34.5072-77.8711 34.9005-78.2284L47.8892-90.6218C49.9228-92.5113 47.2924-95.3008 45.2896-93.4061L33.6101-81.8663L21.9426-93.4061C19.9277-95.3008 17.2973-92.5113 19.331-90.6218ZM25.6328 8.0592L114.575 8.0592C123.206 8.0592 127.697 3.42911 127.697-5.07666L127.697-56.5448C127.697-65.0506 123.206-69.6687 114.575-69.6687L99.8002-69.6687C95.7482-69.6687 94.7656-69.9494 92.1946-72.8079L87.9413-77.5596C85.3103-80.4278 83.3473-81.2934 78.691-81.2934L60.248-81.2934C55.5796-81.2934 53.6166-80.4278 50.9976-77.5596L46.7323-72.8079C44.2739-70.05 43.1284-69.6687 39.1387-69.6687L25.6328-69.6687C17.0024-69.6687 12.4609-65.0506 12.4609-56.5448L12.4609-5.07666C12.4609 3.42911 17.0024 8.0592 25.6328 8.0592ZM25.7574 4.40632C19.6119 4.40632 16.1018 1.13348 16.1018-5.26133L16.1018-56.3481C16.1018-62.743 19.6119-66.0278 25.7574-66.0278L39.5449-66.0278C44.0068-66.0278 46.0343-66.5097 48.6654-69.4403L52.8946-74.1679C55.648-77.2329 57.081-77.6525 60.7622-77.6525L78.1647-77.6525C81.8459-77.6525 83.2789-77.2329 86.0323-74.1679L90.2736-69.4403C92.8926-66.5097 94.9321-66.0278 99.3941-66.0278L114.451-66.0278C120.534-66.0278 124.094-62.743 124.094-56.3481L124.094-5.26133C124.094 1.13348 120.534 4.40632 114.451 4.40632ZM70.1041-4.48741C85.0595-4.48741 97.1368-16.5145 97.1368-31.5944C97.1368-46.6624 85.1601-58.6895 70.1041-58.6895C55.1488-58.6895 43.0594-46.6624 43.0594-31.5944C43.0594-16.5145 55.1488-4.48741 70.1041-4.48741ZM70.1041-8.17104C57.1681-8.17104 46.7813-18.6344 46.7813-31.5944C46.7813-44.5545 57.1561-55.0058 70.1041-55.0058C83.0019-55.0058 93.4149-44.5545 93.4149-31.5944C93.4149-18.6344 83.0019-8.17104 70.1041-8.17104ZM99.8992-49.2987C99.8992-46.0731 102.502-43.6838 105.627-43.6838C108.589-43.6838 111.191-46.224 111.191-49.2987C111.191-52.2608 108.589-54.8754 105.627-54.8754C102.502-54.8754 99.8992-52.2608 99.8992-49.2987Z"/>
  </g>
  <g id="Ultralight-M" transform="matrix(1 0 0 1 490.31 1126)">
   <path d="M19.4353-90.2277L32.2153-77.6489C32.47-77.3959 32.7247-77.2056 33.0421-77.2056C33.3599-77.2056 33.6146-77.3959 33.8689-77.6489L46.6489-90.2277C48.103-91.6767 46.0869-93.4578 44.8143-92.189L33.0421-80.3014L21.2703-92.189C19.9973-93.4578 17.9812-91.6767 19.4353-90.2277ZM25.0069 7.56077L113.857 7.56077C122.035 7.56077 126.341 3.06978 126.341-4.98393L126.341-56.568C126.341-64.6217 122.035-69.1123 113.857-69.1123L98.8497-69.1123C94.7397-69.1123 93.8035-69.2424 91.1282-72.2284L86.7706-77.0843C84.0932-80.0106 82.2809-80.7022 77.7289-80.7022L59.5873-80.7022C55.0348-80.7022 53.2225-80.0106 50.5455-77.0843L46.1876-72.2284C43.6364-69.3661 42.5141-69.1123 38.4664-69.1123L25.0069-69.1123C16.8286-69.1123 12.4609-64.6217 12.4609-56.568L12.4609-4.98393C12.4609 3.06978 16.8286 7.56077 25.0069 7.56077ZM25.1315 5.14816C18.6034 5.14816 14.8731 1.66668 14.8731-5.11065L14.8731-56.4409C14.8731-63.2182 18.6034-66.7001 25.1315-66.7001L38.4205-66.7001C42.9056-66.7001 44.8404-67.0777 47.5178-70.0662L51.8745-74.9214C54.6164-77.9747 56.0494-78.29 59.5452-78.29L77.7706-78.29C81.2664-78.29 82.6994-77.9747 85.4412-74.9214L89.7983-70.0662C92.4753-67.0777 94.4105-66.7001 98.8956-66.7001L113.732-66.7001C120.198-66.7001 123.99-63.2182 123.99-56.4409L123.99-5.11065C123.99 1.66668 120.198 5.14816 113.732 5.14816ZM69.4318-4.30195C84.4452-4.30195 96.592-16.387 96.592-31.5249C96.592-46.6624 84.5689-58.7474 69.4318-58.7474C54.4185-58.7474 42.2712-46.6624 42.2712-31.5249C42.2712-16.387 54.4185-4.30195 69.4318-4.30195ZM69.4318-6.896C55.8119-6.896 44.9267-17.9041 44.9267-31.5249C44.9267-45.1456 55.8115-56.1534 69.4318-56.1534C82.9903-56.1534 93.9365-45.1456 93.9365-31.5249C93.9365-17.9041 82.9903-6.896 69.4318-6.896ZM99.5747-49.1596C99.5747-45.9804 102.131-43.6722 105.186-43.6722C108.056-43.6722 110.612-46.1661 110.612-49.1596C110.612-52.029 108.056-54.5856 105.186-54.5856C102.131-54.5856 99.5747-52.029 99.5747-49.1596Z"/>
  </g>
  <g id="Black-S" transform="matrix(1 0 0 1 2874.9 696)">
   <path d="M13.8672-83.4961L25.0977-74.2188C26.2695-73.2422 27.3926-72.7539 28.418-72.7539C29.4434-72.7539 30.5664-73.2422 31.7383-74.2188L42.9688-83.4961C47.3633-87.1094 41.8457-94.5312 36.5723-89.8926L28.418-82.666L20.2637-89.8926C14.9902-94.5312 9.47266-87.1094 13.8672-83.4961ZM25 2.92969L91.9922 2.92969C101.562 2.92969 107.227-2.73438 107.227-12.3047L107.227-52.8809C107.227-62.4512 101.562-68.1152 91.9922-68.1152L83.7891-68.1152C80.8594-68.1152 79.6387-68.3105 77.1973-70.3613L74.3164-72.8027C71.9238-74.8535 69.6777-75.4883 66.0156-75.4883L50.9766-75.4883C47.3145-75.4883 45.0684-74.8535 42.6758-72.8027L39.7949-70.3613C37.3535-68.3105 36.1328-68.1152 33.2031-68.1152L25-68.1152C15.4297-68.1152 9.76562-62.4512 9.76562-52.8809L9.76562-12.3047C9.76562-2.73438 15.4297 2.92969 25 2.92969ZM27.2461-11.2305C25-11.2305 23.9258-12.1094 23.9258-14.5508L23.9258-50.6348C23.9258-53.0762 25-53.9551 27.2461-53.9551L38.5742-53.9551C41.9922-53.9551 43.3594-54.3945 45.3613-56.3965L47.9004-58.8867C49.8535-60.791 51.2207-61.3281 54.3945-61.3281L62.5977-61.3281C65.7715-61.3281 67.1387-60.7422 68.8965-59.0332L71.6309-56.3965C73.6328-54.4434 75-53.9551 78.418-53.9551L89.7461-53.9551C91.9922-53.9551 93.0664-53.0762 93.0664-50.6348L93.0664-14.5508C93.0664-12.1094 91.9922-11.2305 89.7461-11.2305ZM58.4961-14.2578C69.3848-14.2578 78.0762-22.998 78.0762-33.8867C78.0762-44.7754 69.3848-53.5156 58.4961-53.5156C47.6562-53.5156 38.916-44.7754 38.916-33.8867C38.916-22.998 47.6562-14.2578 58.4961-14.2578ZM58.4961-26.1719C54.248-26.1719 50.8301-29.6387 50.8301-33.8867C50.8301-38.1836 54.248-41.6016 58.4961-41.6016C62.793-41.6016 66.1621-38.1836 66.1621-33.8867C66.1621-29.6387 62.793-26.1719 58.4961-26.1719ZM78.1738-45.8984C78.1738-42.627 80.8105-40.0391 84.082-40.0391C87.3047-40.0391 89.9414-42.627 89.9414-45.8984C89.9414-49.0723 87.2559-51.7578 84.082-51.7578C80.8594-51.7578 78.1738-49.0723 78.1738-45.8984Z"/>
  </g>
  <g id="Heavy-S" transform="matrix(1 0 0 1 2578.49 696)">
   <path d="M14.0862-82.6663L25.2359-73.4351C26.3272-72.5392 27.3811-72.0394 28.3834-72.0394C29.3973-72.0394 30.4512-72.5392 31.5308-73.4351L42.6806-82.6663C46.8793-86.1298 41.6844-93.1253 36.699-88.7286L28.3834-81.3522L20.0793-88.7286C15.0824-93.1253 9.88754-86.1298 14.0862-82.6663ZM24.3431 2.33042L92.0498 2.33042C101.32 2.33042 106.627-2.96486 106.627-12.2125L106.627-52.6388C106.627-61.8865 101.32-67.1702 92.0498-67.1702L83.2359-67.1702C80.2947-67.1702 79.1431-67.4923 76.8861-69.4855L73.9822-72.1458C71.7049-74.1966 69.5049-74.9812 65.7621-74.9812L50.6193-74.9812C46.865-74.9812 44.665-74.1966 42.3992-72.1458L39.4838-69.4855C37.2383-67.4923 36.0752-67.1702 33.1455-67.1702L24.3431-67.1702C15.0724-67.1702 9.76562-61.8865 9.76562-52.6388L9.76562-12.2125C9.76562-2.96486 15.0724 2.33042 24.3431 2.33042ZM26.0821-10.1587C23.5364-10.1587 22.2432-11.2681 22.2432-14.0091L22.2432-50.8307C22.2432-53.5717 23.5364-54.6926 26.0821-54.6926L37.6868-54.6926C41.1048-54.6926 42.5988-55.2012 44.5777-57.2262L47.1974-59.9009C49.2081-61.9319 50.5177-62.5036 53.7722-62.5036L62.5977-62.5036C65.8522-62.5036 67.1617-61.8946 69.0233-60.0128L71.8037-57.2262C73.7711-55.2385 75.2766-54.6926 78.6946-54.6926L90.3108-54.6926C92.845-54.6926 94.1382-53.5717 94.1382-50.8307L94.1382-14.0091C94.1382-11.2681 92.845-10.1587 90.3108-10.1587ZM58.1965-13.6701C69.2349-13.6701 78.0531-22.5255 78.0531-33.5871C78.0531-44.6371 69.2349-53.4926 58.1965-53.4926C47.1953-53.4926 38.3283-44.6371 38.3283-33.5871C38.3283-22.5255 47.1953-13.6701 58.1965-13.6701ZM58.1965-24.328C53.1071-24.328 48.9746-28.4747 48.9746-33.5871C48.9746-38.7368 53.0956-42.8347 58.1965-42.8347C63.3346-42.8347 67.4068-38.7368 67.4068-33.5871C67.4068-28.4747 63.3346-24.328 58.1965-24.328ZM78.4619-46.0944C78.4619-42.9612 80.9949-40.477 84.1281-40.477C87.2125-40.477 89.7455-42.9612 89.7455-46.0944C89.7455-49.1414 87.1752-51.7232 84.1281-51.7232C81.0322-51.7232 78.4619-49.1414 78.4619-46.0944Z"/>
  </g>
  <g id="Bold-S" transform="matrix(1 0 0 1 2282.12 696)">
   <path d="M14.3311-81.7383L25.3906-72.5586C26.3916-71.7529 27.3682-71.2402 28.3447-71.2402C29.3457-71.2402 30.3223-71.7529 31.2988-72.5586L42.3584-81.7383C46.3379-85.0342 41.5039-91.5527 36.8408-87.4268L28.3447-79.8828L19.873-87.4268C15.1855-91.5527 10.3516-85.0342 14.3311-81.7383ZM23.6084 1.66016L92.1143 1.66016C101.05 1.66016 105.957-3.22266 105.957-12.1094L105.957-52.3682C105.957-61.2549 101.05-66.1133 92.1143-66.1133L82.6172-66.1133C79.6631-66.1133 78.5889-66.5771 76.5381-68.5059L73.6084-71.4111C71.46-73.4619 69.3115-74.4141 65.4785-74.4141L50.2197-74.4141C46.3623-74.4141 44.2139-73.4619 42.0898-71.4111L39.1357-68.5059C37.1094-66.5771 36.0107-66.1133 33.0811-66.1133L23.6084-66.1133C14.6729-66.1133 9.76562-61.2549 9.76562-52.3682L9.76562-12.1094C9.76562-3.22266 14.6729 1.66016 23.6084 1.66016ZM24.7803-8.95996C21.8994-8.95996 20.3613-10.3271 20.3613-13.4033L20.3613-51.0498C20.3613-54.126 21.8994-55.5176 24.7803-55.5176L36.6943-55.5176C40.1123-55.5176 41.748-56.1035 43.7012-58.1543L46.4111-61.0352C48.4863-63.208 49.7314-63.8184 53.0762-63.8184L62.5977-63.8184C65.9424-63.8184 67.1875-63.1836 69.165-61.1084L71.9971-58.1543C73.9258-56.1279 75.5859-55.5176 79.0039-55.5176L90.9424-55.5176C93.7988-55.5176 95.3369-54.126 95.3369-51.0498L95.3369-13.4033C95.3369-10.3271 93.7988-8.95996 90.9424-8.95996ZM57.8613-13.0127C69.0674-13.0127 78.0273-21.9971 78.0273-33.252C78.0273-44.4824 69.0674-53.4668 57.8613-53.4668C46.6797-53.4668 37.6709-44.4824 37.6709-33.252C37.6709-21.9971 46.6797-13.0127 57.8613-13.0127ZM57.8613-22.2656C51.8311-22.2656 46.8994-27.1729 46.8994-33.252C46.8994-39.3555 51.8066-44.2139 57.8613-44.2139C63.9404-44.2139 68.7988-39.3555 68.7988-33.252C68.7988-27.1729 63.9404-22.2656 57.8613-22.2656ZM78.7842-46.3135C78.7842-43.335 81.2012-40.9668 84.1797-40.9668C87.1094-40.9668 89.5264-43.335 89.5264-46.3135C89.5264-49.2188 87.085-51.6846 84.1797-51.6846C81.2256-51.6846 78.7842-49.2188 78.7842-46.3135Z"/>
  </g>
  <g id="Semibold-S" transform="matrix(1 0 0 1 1985.64 696)">
   <path d="M14.4999-81.0984L25.4973-71.9543C26.436-71.2108 27.3593-70.6893 28.3181-70.6893C29.3102-70.6893 30.2334-71.2108 31.1389-71.9543L42.1362-81.0984C45.9646-84.2788 41.3795-90.4686 36.9386-86.5292L28.3181-78.8697L19.7309-86.5292C15.2566-90.4686 10.6715-84.2788 14.4999-81.0984ZM23.1019 1.19805L92.1587 1.19805C100.863 1.19805 105.495-3.40039 105.495-12.0383L105.495-52.1815C105.495-60.8194 100.863-65.3846 92.1587-65.3846L82.1906-65.3846C79.2276-65.3846 78.2067-65.9462 76.2981-67.8305L73.3507-70.9046C71.2911-72.9554 69.1782-74.023 65.283-74.023L49.9442-74.023C46.0157-74.023 43.9028-72.9554 41.8766-70.9046L38.8958-67.8305C37.0205-65.9462 35.9663-65.3846 33.0366-65.3846L23.1019-65.3846C14.3974-65.3846 9.76562-60.8194 9.76562-52.1815L9.76562-12.0383C9.76562-3.40039 14.3974 1.19805 23.1019 1.19805ZM23.8827-8.1335C20.7708-8.1335 19.0639-9.67842 19.0639-12.9856L19.0639-51.2009C19.0639-54.5081 20.7708-56.0863 23.8827-56.0863L36.0101-56.0863C39.428-56.0863 41.1615-56.7256 43.0969-58.7941L45.869-61.8172C47.9887-64.0878 49.1894-64.7248 52.5963-64.7248L62.5977-64.7248C66.0046-64.7248 67.2053-64.0723 69.2628-61.8638L72.1304-58.7941C74.0324-56.7411 75.7992-56.0863 79.2172-56.0863L91.3778-56.0863C94.4564-56.0863 96.1634-54.5081 96.1634-51.2009L96.1634-12.9856C96.1634-9.67842 94.4564-8.1335 91.3778-8.1335ZM57.6303-12.5595C68.9519-12.5595 78.0096-21.6327 78.0096-33.0209C78.0096-44.3758 68.9519-53.449 57.6303-53.449C46.3242-53.449 37.2177-44.3758 37.2177-33.0209C37.2177-21.6327 46.3242-12.5595 57.6303-12.5595ZM57.6303-20.8438C50.9513-20.8438 45.4687-26.2753 45.4687-33.0209C45.4687-39.782 50.918-45.1647 57.6303-45.1647C64.3581-45.1647 69.7586-39.782 69.7586-33.0209C69.7586-26.2753 64.3581-20.8438 57.6303-20.8438ZM79.0063-46.4646C79.0063-43.5927 81.3434-41.3045 84.2152-41.3045C87.0383-41.3045 89.3753-43.5927 89.3753-46.4646C89.3753-49.2721 87.0228-51.6579 84.2152-51.6579C81.3589-51.6579 79.0063-49.2721 79.0063-46.4646Z"/>
  </g>
  <g id="Medium-S" transform="matrix(1 0 0 1 1689.1 696)">
   <path d="M14.6279-80.6133L25.5781-71.4961C26.4697-70.7998 27.3525-70.2715 28.2979-70.2715C29.2832-70.2715 30.166-70.7998 31.0176-71.4961L41.9678-80.6133C45.6816-83.7061 41.2852-89.6465 37.0127-85.8486L28.2979-78.1016L19.623-85.8486C15.3105-89.6465 10.9141-83.7061 14.6279-80.6133ZM22.7178 0.847656L92.1924 0.847656C100.722 0.847656 105.145-3.53516 105.145-11.9844L105.145-52.04C105.145-60.4893 100.722-64.832 92.1924-64.832L81.8672-64.832C78.8975-64.832 77.917-65.4678 76.1162-67.3184L73.1553-70.5205C71.1631-72.5713 69.0771-73.7266 65.1348-73.7266L49.7354-73.7266C45.7529-73.7266 43.667-72.5713 41.7148-70.5205L38.7139-67.3184C36.9531-65.4678 35.9326-64.832 33.0029-64.832L22.7178-64.832C14.1885-64.832 9.76562-60.4893 9.76562-52.04L9.76562-11.9844C9.76562-3.53516 14.1885 0.847656 22.7178 0.847656ZM23.2021-7.50684C19.915-7.50684 18.0801-9.18652 18.0801-12.6689L18.0801-51.3154C18.0801-54.7979 19.915-56.5176 23.2021-56.5176L35.4912-56.5176C38.9092-56.5176 40.7168-57.1973 42.6387-59.2793L45.458-62.4102C47.6113-64.7549 48.7783-65.4121 52.2324-65.4121L62.5977-65.4121C66.0518-65.4121 67.2188-64.7461 69.3369-62.4365L72.2314-59.2793C74.1133-57.2061 75.9609-56.5176 79.3789-56.5176L91.708-56.5176C94.9551-56.5176 96.79-54.7979 96.79-51.3154L96.79-12.6689C96.79-9.18652 94.9551-7.50684 91.708-7.50684ZM57.4551-12.2158C68.8643-12.2158 77.9961-21.3564 77.9961-32.8457C77.9961-44.2949 68.8643-53.4355 57.4551-53.4355C46.0547-53.4355 36.874-44.2949 36.874-32.8457C36.874-21.3564 46.0547-12.2158 57.4551-12.2158ZM57.4551-19.7656C50.2842-19.7656 44.3838-25.5947 44.3838-32.8457C44.3838-40.1055 50.2441-45.8857 57.4551-45.8857C64.6748-45.8857 70.4863-40.1055 70.4863-32.8457C70.4863-25.5947 64.6748-19.7656 57.4551-19.7656ZM79.1748-46.5791C79.1748-43.7881 81.4512-41.5605 84.2422-41.5605C86.9844-41.5605 89.2607-43.7881 89.2607-46.5791C89.2607-49.3125 86.9756-51.6377 84.2422-51.6377C81.46-51.6377 79.1748-49.3125 79.1748-46.5791Z"/>
  </g>
  <g id="Regular-S" transform="matrix(1 0 0 1 1392.62 696)">
   <path d="M14.7949-79.9805L25.6836-70.8984C26.5137-70.2637 27.3438-69.7266 28.2715-69.7266C29.248-69.7266 30.0781-70.2637 30.8594-70.8984L41.748-79.9805C45.3125-82.959 41.1621-88.5742 37.1094-84.9609L28.2715-77.0996L19.4824-84.9609C15.3809-88.5742 11.2305-82.959 14.7949-79.9805ZM22.2168 0.390625L92.2363 0.390625C100.537 0.390625 104.688-3.71094 104.688-11.9141L104.688-51.8555C104.688-60.0586 100.537-64.1113 92.2363-64.1113L81.4453-64.1113C78.4668-64.1113 77.5391-64.8438 75.8789-66.6504L72.9004-70.0195C70.9961-72.0703 68.9453-73.3398 64.9414-73.3398L49.4629-73.3398C45.4102-73.3398 43.3594-72.0703 41.5039-70.0195L38.4766-66.6504C36.8652-64.8438 35.8887-64.1113 32.959-64.1113L22.2168-64.1113C13.916-64.1113 9.76562-60.0586 9.76562-51.8555L9.76562-11.9141C9.76562-3.71094 13.916 0.390625 22.2168 0.390625ZM22.3145-6.68945C18.7988-6.68945 16.7969-8.54492 16.7969-12.2559L16.7969-51.4648C16.7969-55.1758 18.7988-57.0801 22.3145-57.0801L34.8145-57.0801C38.2324-57.0801 40.1367-57.8125 42.041-59.9121L44.9219-63.1836C47.1191-65.625 48.2422-66.3086 51.7578-66.3086L62.5977-66.3086C66.1133-66.3086 67.2363-65.625 69.4336-63.1836L72.3633-59.9121C74.2188-57.8125 76.1719-57.0801 79.5898-57.0801L92.1387-57.0801C95.6055-57.0801 97.6074-55.1758 97.6074-51.4648L97.6074-12.2559C97.6074-8.54492 95.6055-6.68945 92.1387-6.68945ZM57.2266-11.7676C68.75-11.7676 77.9785-20.9961 77.9785-32.6172C77.9785-44.1895 68.75-53.418 57.2266-53.418C45.7031-53.418 36.4258-44.1895 36.4258-32.6172C36.4258-20.9961 45.7031-11.7676 57.2266-11.7676ZM57.2266-18.3594C49.4141-18.3594 42.9688-24.707 42.9688-32.6172C42.9688-40.5273 49.3652-46.8262 57.2266-46.8262C65.0879-46.8262 71.4355-40.5273 71.4355-32.6172C71.4355-24.707 65.0879-18.3594 57.2266-18.3594ZM79.3945-46.7285C79.3945-44.043 81.5918-41.8945 84.2773-41.8945C86.9141-41.8945 89.1113-44.043 89.1113-46.7285C89.1113-49.3652 86.9141-51.6113 84.2773-51.6113C81.5918-51.6113 79.3945-49.3652 79.3945-46.7285Z"/>
  </g>
  <g id="Light-S" transform="matrix(1 0 0 1 1096.79 696)">
   <path d="M14.9312-79.4658L25.5474-70.1416C26.1807-69.6431 26.814-69.2271 27.5298-69.2271C28.2793-69.2271 28.9126-69.6431 29.5122-70.1416L40.1284-79.4658C42.9361-81.8691 39.5879-86.1675 36.4888-83.3716L27.5298-75.0562L18.6045-83.3716C15.4717-86.1675 12.1235-81.8691 14.9312-79.4658ZM21.3994-0.260249L91.2979-0.260249C99.0083-0.260249 102.917-4.18017 102.917-11.793L102.917-51.8857C102.917-59.4985 99.0083-63.3848 91.2979-63.3848L80.2041-63.3848C77.1499-63.3848 76.2827-63.9204 74.4863-65.8936L71.3716-69.3989C69.4068-71.5254 67.5527-72.5679 63.6851-72.5679L48.6001-72.5679C44.6987-72.5679 42.8447-71.5254 40.9136-69.3989L37.7651-65.8936C36.0327-63.9507 35.0864-63.3848 32.0811-63.3848L21.3994-63.3848C13.689-63.3848 9.76562-59.4985 9.76562-51.8857L9.76562-11.793C9.76562-4.18017 13.689-0.260249 21.3994-0.260249ZM21.4971-5.72071C17.4819-5.72071 15.1924-7.84864 15.1924-12.0591L15.1924-51.5859C15.1924-55.7964 17.4819-57.958 21.4971-57.958L33.3462-57.958C36.7944-57.958 38.5776-58.5542 40.5425-60.7295L43.5899-64.1675C45.772-66.5937 46.895-67.1411 50.1685-67.1411L62.083-67.1411C65.3565-67.1411 66.4795-66.5937 68.6616-64.1675L71.7427-60.7295C73.6738-58.5542 75.4907-57.958 78.939-57.958L91.2002-57.958C95.1665-57.958 97.4712-55.7964 97.4712-51.5859L97.4712-12.0591C97.4712-7.84864 95.1665-5.72071 91.2002-5.72071ZM56.3486-11.5254C67.9478-11.5254 77.2671-20.8296 77.2671-32.5264C77.2671-44.1895 67.978-53.4937 56.3486-53.4937C44.7495-53.4937 35.3965-44.1895 35.3965-32.5264C35.3965-20.8296 44.7495-11.5254 56.3486-11.5254ZM56.3486-16.6943C47.6431-16.6943 40.5469-23.7534 40.5469-32.5264C40.5469-41.2993 47.6094-48.3247 56.3486-48.3247C65.0728-48.3247 72.1167-41.2993 72.1167-32.5264C72.1167-23.7534 65.0728-16.6943 56.3486-16.6943ZM78.9707-46.5469C78.9707-43.9219 81.1074-41.8794 83.7022-41.8794C86.2178-41.8794 88.3545-43.9673 88.3545-46.5469C88.3545-49.0625 86.2178-51.2329 83.7022-51.2329C81.1074-51.2329 78.9707-49.0625 78.9707-46.5469Z"/>
  </g>
  <g id="Thin-S" transform="matrix(1 0 0 1 801.252 696)">
   <path d="M15.1113-78.7852L25.3672-69.1406C25.7402-68.8223 26.1133-68.5664 26.5488-68.5664C26.9981-68.5664 27.3711-68.8223 27.7305-69.1406L37.9864-78.7852C39.793-80.4278 37.5059-82.9844 35.668-81.2696L26.5488-72.3536L17.4434-81.2696C15.5918-82.9844 13.3047-80.4278 15.1113-78.7852ZM20.3184-1.12108L90.0567-1.12108C96.9864-1.12108 100.574-4.80077 100.574-11.6328L100.574-51.9258C100.574-58.7578 96.9864-62.4238 90.0567-62.4238L78.5625-62.4238C75.4082-62.4238 74.6211-62.6992 72.6446-64.8926L69.3496-68.5781C67.3047-70.8047 65.711-71.5469 62.0235-71.5469L47.459-71.5469C43.7578-71.5469 42.1641-70.8047 40.1328-68.5781L36.8242-64.8926C34.9317-62.7695 34.0254-62.4238 30.9199-62.4238L20.3184-62.4238C13.3887-62.4238 9.76562-58.7578 9.76562-51.9258L9.76562-11.6328C9.76562-4.80077 13.3887-1.12108 20.3184-1.12108ZM20.416-4.43947C15.7403-4.43947 13.0703-6.92775 13.0703-11.7988L13.0703-51.7461C13.0703-56.6172 15.7403-59.1191 20.416-59.1191L31.4043-59.1191C34.8926-59.1191 36.5157-59.5351 38.5606-61.8105L41.8281-65.4687C43.9903-67.875 45.1133-68.2422 48.0664-68.2422L61.4024-68.2422C64.3555-68.2422 65.4785-67.875 67.6406-65.4687L70.9219-61.8105C72.9531-59.5351 74.5899-59.1191 78.0781-59.1191L89.959-59.1191C94.5859-59.1191 97.291-56.6172 97.291-51.7461L97.291-11.7988C97.291-6.92775 94.5859-4.43947 89.959-4.43947ZM55.1875-11.2051C66.8867-11.2051 76.3262-20.6094 76.3262-32.4063C76.3262-44.1895 66.957-53.5937 55.1875-53.5937C43.4883-53.5937 34.0352-44.1895 34.0352-32.4063C34.0352-20.6094 43.4883-11.2051 55.1875-11.2051ZM55.1875-14.4922C45.3008-14.4922 37.3438-22.4922 37.3438-32.4063C37.3438-42.3203 45.2871-50.3066 55.1875-50.3066C65.0527-50.3066 73.0176-42.3203 73.0176-32.4063C73.0176-22.4922 65.0527-14.4922 55.1875-14.4922ZM78.4102-46.3066C78.4102-43.7617 80.4668-41.8594 82.9414-41.8594C85.2969-41.8594 87.3535-43.8672 87.3535-46.3066C87.3535-48.6621 85.2969-50.7324 82.9414-50.7324C80.4668-50.7324 78.4102-48.6621 78.4102-46.3066Z"/>
  </g>
  <g id="Ultralight-S" transform="matrix(1 0 0 1 505.141 696)">
   <path d="M15.2036-78.4365L25.2749-68.6279C25.5147-68.4019 25.7544-68.228 26.0464-68.228C26.3418-68.228 26.5816-68.4019 26.8179-68.6279L36.8892-78.4365C38.1832-79.6895 36.4395-81.3541 35.2476-80.1929L26.0464-70.9693L16.8487-80.1929C15.6533-81.3541 13.9096-79.6895 15.2036-78.4365ZM19.7647-1.562L89.4209-1.562C95.9507-1.562 99.3746-5.11864 99.3746-11.5508L99.3746-51.9463C99.3746-58.3784 95.9507-61.9317 89.4209-61.9317L77.7217-61.9317C74.5161-61.9317 73.77-62.0738 71.7012-64.3799L68.314-68.1577C66.2281-70.4356 64.7676-71.0239 61.1724-71.0239L46.8745-71.0239C43.2759-71.0239 41.8154-70.4356 39.7329-68.1577L36.3423-64.3799C34.3677-62.1646 33.482-61.9317 30.3252-61.9317L19.7647-61.9317C13.2349-61.9317 9.76562-58.3784 9.76562-51.9463L9.76562-11.5508C9.76562-5.11864 13.2349-1.562 19.7647-1.562ZM19.8623-3.78323C14.8482-3.78323 11.9834-6.45607 11.9834-11.6655L11.9834-51.8281C11.9834-57.0376 14.8482-59.7138 19.8623-59.7138L30.4097-59.7138C33.9185-59.7138 35.4595-60.0376 37.5454-62.3642L40.9258-66.1352C43.0777-68.5312 44.2007-68.8061 46.9898-68.8061L61.0537-68.8061C63.8428-68.8061 64.9658-68.5312 67.1177-66.1352L70.5015-62.3642C72.584-60.0376 74.1284-59.7138 77.6372-59.7138L89.3233-59.7138C94.2886-59.7138 97.1987-57.0376 97.1987-51.8281L97.1987-11.6655C97.1987-6.45607 94.2886-3.78323 89.3233-3.78323ZM54.5928-11.041C66.3433-11.041 75.8443-20.4966 75.8443-32.3447C75.8443-44.1895 66.4341-53.645 54.5928-53.645C42.8423-53.645 33.3379-44.1895 33.3379-32.3447C33.3379-20.4966 42.8423-11.041 54.5928-11.041ZM54.5928-13.3643C44.1011-13.3643 35.7032-21.8462 35.7032-32.3447C35.7032-42.8432 44.0977-51.3217 54.5928-51.3217C65.0425-51.3217 73.479-42.8432 73.479-32.3447C73.479-21.8462 65.0425-13.3643 54.5928-13.3643ZM78.1231-46.1836C78.1231-43.6797 80.1387-41.8491 82.5518-41.8491C84.8252-41.8491 86.8408-43.8159 86.8408-46.1836C86.8408-48.457 84.8252-50.4761 82.5518-50.4761C80.1387-50.4761 78.1231-48.457 78.1231-46.1836Z"/>
  </g>
 </g>
</svg>
