<?xml version="1.0" encoding="UTF-8"?>
<!--Generator: Apple Native CoreSVG 341-->
<!DOCTYPE svg
PUBLIC "-//W3C//DTD SVG 1.1//EN"
       "http://www.w3.org/Graphics/SVG/1.1/DTD/svg11.dtd">
<svg version="1.1" xmlns="http://www.w3.org/2000/svg" xmlns:xlink="http://www.w3.org/1999/xlink" viewBox="0 0 3300 2200">
 <g id="Notes">
  <rect height="2200" id="artboard" style="fill:white;opacity:1" width="3300" x="0" y="0"/>
  <line style="fill:none;stroke:black;opacity:1;stroke-width:0.5;" x1="263" x2="3036" y1="292" y2="292"/>
  <text style="stroke:none;fill:black;font-family:sans-serif;font-size:13;font-weight:bold;" transform="matrix(1 0 0 1 263 322)">Weight/Scale Variations</text>
  <text style="stroke:none;fill:black;font-family:sans-serif;font-size:13;text-anchor:middle;" transform="matrix(1 0 0 1 559.711 322)">Ultralight</text>
  <text style="stroke:none;fill:black;font-family:sans-serif;font-size:13;text-anchor:middle;" transform="matrix(1 0 0 1 856.422 322)">Thin</text>
  <text style="stroke:none;fill:black;font-family:sans-serif;font-size:13;text-anchor:middle;" transform="matrix(1 0 0 1 1153.13 322)">Light</text>
  <text style="stroke:none;fill:black;font-family:sans-serif;font-size:13;text-anchor:middle;" transform="matrix(1 0 0 1 1449.84 322)">Regular</text>
  <text style="stroke:none;fill:black;font-family:sans-serif;font-size:13;text-anchor:middle;" transform="matrix(1 0 0 1 1746.56 322)">Medium</text>
  <text style="stroke:none;fill:black;font-family:sans-serif;font-size:13;text-anchor:middle;" transform="matrix(1 0 0 1 2043.27 322)">Semibold</text>
  <text style="stroke:none;fill:black;font-family:sans-serif;font-size:13;text-anchor:middle;" transform="matrix(1 0 0 1 2339.98 322)">Bold</text>
  <text style="stroke:none;fill:black;font-family:sans-serif;font-size:13;text-anchor:middle;" transform="matrix(1 0 0 1 2636.69 322)">Heavy</text>
  <text style="stroke:none;fill:black;font-family:sans-serif;font-size:13;text-anchor:middle;" transform="matrix(1 0 0 1 2933.4 322)">Black</text>
  <line style="fill:none;stroke:black;opacity:1;stroke-width:0.5;" x1="263" x2="3036" y1="1903" y2="1903"/>
  <g transform="matrix(0.2 0 0 0.2 263 1933)">
   <path d="m46.2402 4.15039c21.7773 0 39.4531-17.627 39.4531-39.4043s-17.6758-39.4043-39.4531-39.4043c-21.7285 0-39.4043 17.627-39.4043 39.4043s17.6758 39.4043 39.4043 39.4043Zm0-7.42188c-17.6758 0-31.9336-14.3066-31.9336-31.9824s14.2578-31.9824 31.9336-31.9824 31.9824 14.3066 31.9824 31.9824-14.3066 31.9824-31.9824 31.9824Zm3.61328-17.7734v-28.4668c0-2.24609-1.46484-3.75977-3.71094-3.75977-2.14844 0-3.61328 1.51367-3.61328 3.75977v28.4668c0 2.19727 1.46484 3.71094 3.61328 3.71094 2.24609 0 3.71094-1.51367 3.71094-3.71094Zm-17.8223-10.5957h28.418c2.19727 0 3.71094-1.46484 3.71094-3.61328 0-2.19727-1.51367-3.71094-3.71094-3.71094h-28.418c-2.24609 0-3.75977 1.51367-3.75977 3.71094 0 2.14844 1.51367 3.61328 3.75977 3.61328Z"/>
  </g>
  <g transform="matrix(0.2 0 0 0.2 281.506 1933)">
   <path d="m58.5449 14.5508c27.4902 0 49.8047-22.3145 49.8047-49.8047s-22.3145-49.8047-49.8047-49.8047-49.8047 22.3145-49.8047 49.8047 22.3145 49.8047 49.8047 49.8047Zm0-8.30078c-22.9492 0-41.5039-18.5547-41.5039-41.5039s18.5547-41.5039 41.5039-41.5039 41.5039 18.5547 41.5039 41.5039-18.5547 41.5039-41.5039 41.5039Zm4.05273-23.0957v-36.9141c0-2.49023-1.70898-4.19922-4.15039-4.19922-2.39258 0-4.05273 1.70898-4.05273 4.19922v36.9141c0 2.44141 1.66016 4.15039 4.05273 4.15039 2.44141 0 4.15039-1.66016 4.15039-4.15039Zm-22.5586-14.4043h36.9629c2.44141 0 4.15039-1.61133 4.15039-4.00391 0-2.44141-1.70898-4.15039-4.15039-4.15039h-36.9629c-2.49023 0-4.15039 1.70898-4.15039 4.15039 0 2.39258 1.66016 4.00391 4.15039 4.00391Z"/>
  </g>
  <g transform="matrix(0.2 0 0 0.2 304.924 1933)">
   <path d="m74.8535 28.3203c35.1074 0 63.623-28.4668 63.623-63.5742s-28.5156-63.623-63.623-63.623-63.5742 28.5156-63.5742 63.623 28.4668 63.5742 63.5742 63.5742Zm0-9.08203c-30.127 0-54.4922-24.3652-54.4922-54.4922s24.3652-54.4922 54.4922-54.4922 54.4922 24.3652 54.4922 54.4922-24.3652 54.4922-54.4922 54.4922Zm4.44336-30.3223v-48.4863c0-2.73438-1.85547-4.63867-4.54102-4.63867-2.58789 0-4.44336 1.9043-4.44336 4.63867v48.4863c0 2.68555 1.85547 4.58984 4.44336 4.58984 2.68555 0 4.54102-1.85547 4.54102-4.58984Zm-28.7109-19.7754h48.4863c2.68555 0 4.58984-1.80664 4.58984-4.39453 0-2.73438-1.85547-4.58984-4.58984-4.58984h-48.4863c-2.73438 0-4.58984 1.85547-4.58984 4.58984 0 2.58789 1.85547 4.39453 4.58984 4.39453Z"/>
  </g>
  <text style="stroke:none;fill:black;font-family:sans-serif;font-size:13;font-weight:bold;" transform="matrix(1 0 0 1 263 1953)">Design Variations</text>
  <text style="stroke:none;fill:black;font-family:sans-serif;font-size:13;" transform="matrix(1 0 0 1 263 1971)">Symbols are supported in up to nine weights and three scales.</text>
  <text style="stroke:none;fill:black;font-family:sans-serif;font-size:13;" transform="matrix(1 0 0 1 263 1989)">For optimal layout with text and other symbols, vertically align</text>
  <text style="stroke:none;fill:black;font-family:sans-serif;font-size:13;" transform="matrix(1 0 0 1 263 2007)">symbols with the adjacent text.</text>
  <line style="fill:none;stroke:#00AEEF;stroke-width:0.5;opacity:1.0;" x1="776" x2="776" y1="1919" y2="1933"/>
  <g transform="matrix(0.2 0 0 0.2 776 1933)">
   <path d="m16.5527 0.78125c2.58789 0 3.85742-0.976562 4.78516-3.71094l20.5566-57.5195h0.244141l20.6055 57.5195c0.927734 2.73438 2.19727 3.71094 4.73633 3.71094 2.58789 0 4.24805-1.5625 4.24805-4.00391 0-0.830078-0.146484-1.61133-0.537109-2.63672l-22.9004-60.9863c-1.12305-2.97852-3.125-4.49219-6.25-4.49219-3.02734 0-5.07812 1.46484-6.15234 4.44336l-22.9004 61.084c-0.390625 1.02539-0.537109 1.80664-0.537109 2.63672 0 2.44141 1.5625 3.95508 4.10156 3.95508Zm10.2051-20.9473h30.6641c2.00195 0 3.66211-1.66016 3.66211-3.66211 0-2.05078-1.66016-3.66211-3.66211-3.66211h-30.6641c-2.00195 0-3.66211 1.61133-3.66211 3.66211 0 2.00195 1.66016 3.66211 3.66211 3.66211Z"/>
  </g>
  <line style="fill:none;stroke:#00AEEF;stroke-width:0.5;opacity:1.0;" x1="792.836" x2="792.836" y1="1919" y2="1933"/>
  <text style="stroke:none;fill:black;font-family:sans-serif;font-size:13;font-weight:bold;" transform="matrix(1 0 0 1 776 1953)">Margins</text>
  <text style="stroke:none;fill:black;font-family:sans-serif;font-size:13;" transform="matrix(1 0 0 1 776 1971)">Leading and trailing margins on the left and right side of each symbol</text>
  <text style="stroke:none;fill:black;font-family:sans-serif;font-size:13;" transform="matrix(1 0 0 1 776 1989)">can be adjusted by modifying the x-location of the margin guidelines.</text>
  <text style="stroke:none;fill:black;font-family:sans-serif;font-size:13;" transform="matrix(1 0 0 1 776 2007)">Modifications are automatically applied proportionally to all</text>
  <text style="stroke:none;fill:black;font-family:sans-serif;font-size:13;" transform="matrix(1 0 0 1 776 2025)">scales and weights.</text>
  <g transform="matrix(0.2 0 0 0.2 1289 1933)">
   <path d="m14.209 13.1348 7.86133 7.86133c4.29688 4.39453 9.32617 4.10156 13.8672-1.02539l60.6934-68.2129-4.88281-4.88281-60.2539 67.6758c-1.80664 1.95312-3.4668 2.44141-5.81055 0.0976562l-5.17578-5.12695c-2.29492-2.29492-1.80664-3.95508 0.195312-5.81055l67.4805-62.1582-4.88281-4.83398-68.0664 62.5977c-4.98047 4.58984-5.32227 9.47266-1.02539 13.8184Zm44.873-97.4609c-2.05078 2.00195-2.24609 4.88281-1.07422 6.78711 1.12305 1.80664 3.4668 3.02734 6.5918 2.24609 5.85938-1.66016 12.5977-2.39258 18.8965 0.927734l-2.68555 7.12891c-1.61133 4.00391-0.732422 6.88477 1.70898 9.42383l10.2539 10.3027c2.34375 2.39258 4.54102 2.44141 7.08008 1.95312l4.44336-0.732422 2.58789 2.53906-0.195312 2.24609c-0.0976562 2.29492 0.537109 4.29688 2.7832 6.49414l3.36914 3.32031c2.29492 2.29492 5.51758 2.49023 7.8125 0.195312l12.9883-13.0371c2.29492-2.34375 2.14844-5.37109-0.195312-7.66602l-3.41797-3.41797c-2.19727-2.19727-4.05273-3.02734-6.34766-2.88086l-2.34375 0.244141-2.44141-2.44141 1.02539-4.6875c0.634766-2.73438-0.244141-4.98047-2.88086-7.61719l-11.2793-11.1816c-12.9395-12.8418-35.5957-11.0352-46.6797-0.146484Zm7.08008 2.05078c8.78906-6.39648 25.9766-5.66406 33.6914 1.95312l12.3047 12.207c1.02539 1.02539 1.2207 1.80664 0.927734 3.32031l-1.46484 6.64062 6.73828 6.68945 4.39453-0.244141c1.12305-0.0488281 1.51367 0.0488281 2.34375 0.878906l2.53906 2.49023-10.8398 10.8398-2.49023-2.49023c-0.830078-0.878906-0.976562-1.2207-0.927734-2.39258l0.292969-4.3457-6.68945-6.73828-6.83594 1.17188c-1.41602 0.292969-2.05078 0.195312-3.17383-0.878906l-8.93555-8.88672c-1.07422-1.02539-1.17188-1.70898-0.488281-3.36914l4.58984-11.4746c-6.10352-6.34766-17.041-7.51953-25.5859-4.58984-0.683594 0.244141-0.927734-0.390625-0.390625-0.78125Z"/>
  </g>
  <text style="stroke:none;fill:black;font-family:sans-serif;font-size:13;font-weight:bold;" transform="matrix(1 0 0 1 1289 1953)">Exporting</text>
  <text style="stroke:none;fill:black;font-family:sans-serif;font-size:13;" transform="matrix(1 0 0 1 1289 1971)">Symbols should be outlined when exporting to ensure the</text>
  <text style="stroke:none;fill:black;font-family:sans-serif;font-size:13;" transform="matrix(1 0 0 1 1289 1989)">design is preserved when submitting to Xcode.</text>
  <text id="template-version" style="stroke:none;fill:black;font-family:sans-serif;font-size:13;text-anchor:end;" transform="matrix(1 0 0 1 3036 1933)">Template v.2.0</text>
  <text style="stroke:none;fill:black;font-family:sans-serif;font-size:13;text-anchor:end;" transform="matrix(1 0 0 1 3036 1951)">Requires Xcode 12 or greater</text>
  <text id="descriptive-name" style="stroke:none;fill:black;font-family:sans-serif;font-size:13;text-anchor:end;" transform="matrix(1 0 0 1 3036 1969)">Generated from location.north.circle</text>
  <text style="stroke:none;fill:black;font-family:sans-serif;font-size:13;text-anchor:end;" transform="matrix(1 0 0 1 3036 1987)">Typeset at 100.0 points</text>
  <text style="stroke:none;fill:black;font-family:sans-serif;font-size:13;" transform="matrix(1 0 0 1 263 726)">Small</text>
  <text style="stroke:none;fill:black;font-family:sans-serif;font-size:13;" transform="matrix(1 0 0 1 263 1156)">Medium</text>
  <text style="stroke:none;fill:black;font-family:sans-serif;font-size:13;" transform="matrix(1 0 0 1 263 1586)">Large</text>
 </g>
 <g id="Guides">
  <g id="H-reference" style="fill:#27AAE1;stroke:none;" transform="matrix(1 0 0 1 339 696)">
   <path d="M0.993654 0L3.63775 0L29.3281-67.1323L30.0303-67.1323L30.0303-70.459L28.1226-70.459ZM11.6885-24.4799L46.9815-24.4799L46.2315-26.7285L12.4385-26.7285ZM55.1196 0L57.7637 0L30.6382-70.459L29.4326-70.459L29.4326-67.1323Z"/>
  </g>
  <line id="Baseline-S" style="fill:none;stroke:#27AAE1;opacity:1;stroke-width:0.5;" x1="263" x2="3036" y1="696" y2="696"/>
  <line id="Capline-S" style="fill:none;stroke:#27AAE1;opacity:1;stroke-width:0.5;" x1="263" x2="3036" y1="625.541" y2="625.541"/>
  <g id="H-reference" style="fill:#27AAE1;stroke:none;" transform="matrix(1 0 0 1 339 1126)">
   <path d="M0.993654 0L3.63775 0L29.3281-67.1323L30.0303-67.1323L30.0303-70.459L28.1226-70.459ZM11.6885-24.4799L46.9815-24.4799L46.2315-26.7285L12.4385-26.7285ZM55.1196 0L57.7637 0L30.6382-70.459L29.4326-70.459L29.4326-67.1323Z"/>
  </g>
  <line id="Baseline-M" style="fill:none;stroke:#27AAE1;opacity:1;stroke-width:0.5;" x1="263" x2="3036" y1="1126" y2="1126"/>
  <line id="Capline-M" style="fill:none;stroke:#27AAE1;opacity:1;stroke-width:0.5;" x1="263" x2="3036" y1="1055.54" y2="1055.54"/>
  <g id="H-reference" style="fill:#27AAE1;stroke:none;" transform="matrix(1 0 0 1 339 1556)">
   <path d="M0.993654 0L3.63775 0L29.3281-67.1323L30.0303-67.1323L30.0303-70.459L28.1226-70.459ZM11.6885-24.4799L46.9815-24.4799L46.2315-26.7285L12.4385-26.7285ZM55.1196 0L57.7637 0L30.6382-70.459L29.4326-70.459L29.4326-67.1323Z"/>
  </g>
  <line id="Baseline-L" style="fill:none;stroke:#27AAE1;opacity:1;stroke-width:0.5;" x1="263" x2="3036" y1="1556" y2="1556"/>
  <line id="Capline-L" style="fill:none;stroke:#27AAE1;opacity:1;stroke-width:0.5;" x1="263" x2="3036" y1="1485.54" y2="1485.54"/>
  <line id="right-margin" style="fill:none;stroke:#00AEEF;stroke-width:0.5;opacity:1.0;" x1="1508.37" x2="1508.37" y1="1030.79" y2="1150.12"/>
  <line id="left-margin" style="fill:none;stroke:#00AEEF;stroke-width:0.5;opacity:1.0;" x1="1391.32" x2="1391.32" y1="1030.79" y2="1150.12"/>
 </g>
 <g id="Symbols">
  <g id="Black-L" transform="matrix(1 0 0 1 2854.19 1556)">
   <path d="M79.1958 32.6673C116.725 32.6673 147.154 2.25907 147.154-35.2697C147.154-72.7985 116.725-103.207 79.1958-103.207C41.6878-103.207 11.2588-72.7985 11.2588-35.2697C11.2588 2.25907 41.6878 32.6673 79.1958 32.6673ZM79.1958 12.5197C52.7846 12.5197 31.426-8.85853 31.426-35.2697C31.426-61.6809 52.7846-83.0592 79.1958-83.0592C105.607-83.0592 126.985-61.6809 126.985-35.2697C126.985-8.85853 105.607 12.5197 79.1958 12.5197ZM52.4486-13.1437C49.5851-5.93339 56.9616-2.30471 61.7469-7.08999L77.5541-22.8985C78.5352-23.8587 79.8147-23.8587 80.7958-22.8985L96.6031-7.08999C101.388-2.30471 108.766-5.93339 105.881-13.1437L85.5733-64.5967C83.2159-70.6406 75.1352-70.5614 72.7558-64.5551Z" data-clipstroke-keyframes="0 4 0 0.49910918 1.5009863 0 0.24850748 0.25060266 1.7493968 0 0.49586442 0.003246713 1.9966586 0 0.75063205 0.7484781 1.2515224 0 1 0.49910918 1.5009863"/>
  </g>
  <g id="Heavy-L" transform="matrix(1 0 0 1 2558.42 1556)">
   <path d="M78.2532 31.7248C115.263 31.7248 145.278 1.74009 145.278-35.2697C145.278-72.2795 115.263-102.264 78.2532-102.264C41.2736-102.264 11.2588-72.2795 11.2588-35.2697C11.2588 1.74009 41.2736 31.7248 78.2532 31.7248ZM78.2532 13.9829C51.0308 13.9829 29.0252-8.04727 29.0252-35.2697C29.0252-62.4921 51.0308-84.5223 78.2532-84.5223C105.476-84.5223 127.506-62.4921 127.506-35.2697C127.506-8.04727 105.476 13.9829 78.2532 13.9829ZM51.0735-11.9046C48.5294-5.48347 55.163-1.92666 59.6795-6.44321L76.6238-23.3931C77.5965-24.3357 78.8496-24.3357 79.8224-23.3931L96.7666-6.44321C101.283-1.92666 107.922-5.48347 105.342-11.9046L84.1001-65.8619C81.9331-71.4253 74.5187-71.3505 72.3158-65.8015Z" data-clipstroke-keyframes="0 4 0 0.49911496 1.500977 0 0.24847426 0.2506417 1.7493632 0 0.49584827 0.0032687387 1.9966583 0 0.75062776 0.7484882 1.2515179 0 1 0.49911496 1.500977"/>
  </g>
  <g id="Bold-L" transform="matrix(1 0 0 1 2262.89 1556)">
   <path d="M77.0704 30.5419C113.427 30.5419 142.92 1.08726 142.92-35.2697C142.92-71.6267 113.427-101.081 77.0704-101.081C40.7514-101.081 11.2588-71.6267 11.2588-35.2697C11.2588 1.08726 40.7514 30.5419 77.0704 30.5419ZM77.0704 15.7963C48.8414 15.7963 26.0292-7.04073 26.0292-35.2697C26.0292-63.4987 48.8414-86.3357 77.0704-86.3357C105.299-86.3357 128.136-63.4987 128.136-35.2697C128.136-7.04073 105.299 15.7963 77.0704 15.7963ZM49.5541-10.4275C47.402-4.97482 53.1135-1.5921 57.225-5.70364L75.4786-23.9705C76.4287-24.8826 77.6361-24.8826 78.5862-23.9705L96.8398-5.70364C100.951-1.5921 106.676-4.97482 104.473-10.4275L82.2193-67.1835C80.3053-72.1104 73.7728-72.0432 71.8075-67.1075Z" data-clipstroke-keyframes="0 4 0 0.4991212 1.5009787 0 0.24844806 0.25067374 1.7493408 0 0.4958291 0.0032933003 1.9966578 0 0.75062466 0.7484971 1.2515188 0 1 0.4991212 1.5009787"/>
  </g>
  <g id="Semibold-L" transform="matrix(1 0 0 1 1966.99 1556)">
   <path d="M76.2549 29.7265C112.162 29.7265 141.294 0.637211 141.294-35.2697C141.294-71.1766 112.162-100.266 76.2549-100.266C40.3914-100.266 11.2588-71.1766 11.2588-35.2697C11.2588 0.637211 40.3914 29.7265 76.2549 29.7265ZM76.2549 17.0464C47.3321 17.0464 23.9637-6.34682 23.9637-35.2697C23.9637-64.1926 47.3321-87.5858 76.2549-87.5858C105.178-87.5858 128.571-64.1926 128.571-35.2697C128.571-6.34682 105.178 17.0464 76.2549 17.0464ZM48.5066-9.40921C46.6247-4.62415 51.7006-1.36145 55.5329-5.19378L74.6892-24.3685C75.6237-25.2596 76.7995-25.2596 77.734-24.3685L96.8902-5.19378C100.723-1.36145 105.817-4.62415 103.873-9.40921L80.9227-68.0946C79.1831-72.5827 73.2585-72.5208 71.4571-68.0078Z" data-clipstroke-keyframes="0 4 0 0.49912587 1.5009798 0 0.24842998 0.250696 1.7493253 0 0.49581593 0.0033102364 1.9966576 0 0.7506225 0.74850345 1.2515194 0 1 0.49912587 1.5009798"/>
  </g>
  <g id="Medium-L" transform="matrix(1 0 0 1 1670.9 1556)">
   <path d="M75.6366 29.1081C111.202 29.1081 140.062 0.295961 140.062-35.2697C140.062-70.8354 111.202-99.6475 75.6366-99.6475C40.1184-99.6475 11.2588-70.8354 11.2588-35.2697C11.2588 0.295961 40.1184 29.1081 75.6366 29.1081ZM75.6366 17.9943C46.1876 17.9943 22.3976-5.82067 22.3976-35.2697C22.3976-64.7187 46.1876-88.5337 75.6366-88.5337C105.086-88.5337 128.901-64.7187 128.901-35.2697C128.901-5.82067 105.086 17.9943 75.6366 17.9943ZM47.7123-8.63708C46.0353-4.35827 50.6293-1.18656 54.2499-4.80719L74.0906-24.6703C75.0132-25.5455 76.1652-25.5455 77.0878-24.6703L96.9285-4.80719C100.549-1.18656 105.166-4.35827 103.419-8.63708L79.9395-68.7854C78.3322-72.9408 72.8686-72.8829 71.1914-68.6905Z" data-clipstroke-keyframes="0 4 0 0.49912962 1.5009806 0 0.24841629 0.250713 1.7493135 0 0.4958059 0.00332308 1.9966574 0 0.75062096 0.74850833 1.2515199 0 1 0.49912962 1.5009806"/>
  </g>
  <g id="Regular-L" transform="matrix(1 0 0 1 1374.99 1556)">
   <path d="M74.8301 28.3017C109.951 28.3017 138.454-0.149147 138.454-35.2697C138.454-70.3903 109.951-98.8411 74.8301-98.8411C39.7624-98.8411 11.2588-70.3903 11.2588-35.2697C11.2588-0.149147 39.7624 28.3017 74.8301 28.3017ZM74.8301 19.2307C44.6948 19.2307 20.3549-5.13439 20.3549-35.2697C20.3549-65.405 44.6948-89.7701 74.8301-89.7701C104.965-89.7701 129.331-65.405 129.331-35.2697C129.331-5.13439 104.965 19.2307 74.8301 19.2307ZM46.6763-7.62996C45.2666-4.01146 49.2319-0.958446 52.5764-4.30293L73.3098-25.064C74.217-25.9184 75.3378-25.9184 76.2449-25.064L96.9784-4.30293C100.323-0.958446 104.316-4.01146 102.826-7.62996L78.6572-69.6865C77.2223-73.408 72.3601-73.3552 70.8449-69.581Z" data-clipstroke-keyframes="0 4 0 0.4991348 1.5009816 0 0.24839842 0.2507353 1.7492981 0 0.49579284 0.0033398352 1.9966571 0 0.7506188 0.7485149 1.2515205 0 1 0.4991348 1.5009816"/>
  </g>
  <g id="Light-L" transform="matrix(1 0 0 1 1079.2 1556)">
   <path d="M73.9141 27.3856C108.519 27.3856 136.603-0.66445 136.603-35.2697C136.603-69.875 108.519-97.925 73.9141-97.925C39.3425-97.925 11.2588-69.875 11.2588-35.2697C11.2588-0.66445 39.3425 27.3856 73.9141 27.3856ZM73.9141 20.4903C43.0726 20.4903 18.141-4.42824 18.141-35.2697C18.141-66.1112 43.0726-91.0297 73.9141-91.0297C104.756-91.0297 129.674-66.1112 129.674-35.2697C129.674-4.42824 104.756 20.4903 73.9141 20.4903ZM46.8099-6.98106C45.6483-3.97329 48.9647-1.58826 51.5649-4.18842L72.5655-25.2358C73.3772-26.0139 74.3835-26.0139 75.1953-25.2358L96.1959-4.18842C98.796-1.58826 102.159-3.97329 100.917-6.98106L76.9967-69.0185C75.8482-72.0338 71.9593-72.0001 70.7303-68.9511Z" data-clipstroke-keyframes="0 4 0 0.4991267 1.5010552 0 0.24847661 0.250649 1.7494005 0 0.49578533 0.0033392205 1.9966568 0 0.750631 0.7484946 1.2515575 0 1 0.4991267 1.5010552"/>
  </g>
  <g id="Thin-L" transform="matrix(1 0 0 1 783.716 1556)">
   <path d="M72.7024 26.174C106.626 26.174 134.155-1.34598 134.155-35.2697C134.155-69.1934 106.626-96.7134 72.7024-96.7134C38.7872-96.7134 11.2588-69.1934 11.2588-35.2697C11.2588-1.34598 38.7872 26.174 72.7024 26.174ZM72.7024 22.1563C40.927 22.1563 15.2129-3.49429 15.2129-35.2697C15.2129-67.0451 40.927-92.6957 72.7024-92.6957C104.478-92.6957 130.128-67.0451 130.128-35.2697C130.128-3.49429 104.478 22.1563 72.7024 22.1563ZM46.9866-6.12284C46.1532-3.9228 48.6113-2.42124 50.227-4.03697L71.5811-25.463C72.2666-26.1401 73.1214-26.1401 73.807-25.463L95.161-4.03697C96.7767-2.42124 99.3069-3.9228 98.393-6.12284L74.8007-68.135C74.0308-70.2164 71.4292-70.208 70.5789-68.1182Z" data-clipstroke-keyframes="0 4 0 0.49911413 1.5011477 0 0.24858002 0.25053394 1.7495334 0 0.49577537 0.003338395 1.9966562 0 0.75064707 0.7484669 1.2516038 0 1 0.49911413 1.5011477"/>
  </g>
  <g id="Ultralight-L" transform="matrix(1 0 0 1 487.631 1556)">
   <path d="M72.0819 25.5534C105.657 25.5534 132.9-1.69505 132.9-35.2697C132.9-68.8443 105.657-96.0928 72.0819-96.0928C38.5027-96.0928 11.2588-68.8443 11.2588-35.2697C11.2588-1.69505 38.5027 25.5534 72.0819 25.5534ZM72.0819 23.0096C39.8281 23.0096 13.7132-3.01593 13.7132-35.2697C13.7132-67.5235 39.8281-93.549 72.0819-93.549C104.336-93.549 130.361-67.5235 130.361-35.2697C130.361-3.01593 104.336 23.0096 72.0819 23.0096ZM47.0771-5.68326C46.4117-3.89695 48.4303-2.84789 49.5418-3.9594L71.0768-25.5793C71.6977-26.2047 72.475-26.2047 73.0959-25.5793L94.6309-3.9594C95.7424-2.84789 97.8459-3.89695 97.1001-5.68326L73.6759-67.6825C73.0999-69.2855 71.1577-69.29 70.5013-67.6915Z" data-clipstroke-keyframes="0 4 0 0.4991068 1.5011932 0 0.248633 0.25047454 1.7496005 0 0.49577028 0.0033379663 1.996656 0 0.7506553 0.74845225 1.2516266 0 1 0.4991068 1.5011932"/>
  </g>
  <g id="Black-M" transform="matrix(1 0 0 1 2871.36 1126)">
   <path d="M62.0422 18.0589C91.4936 18.0589 115.367-5.80932 115.367-35.2606C115.367-64.712 91.4936-88.5802 62.0422-88.5802C32.5964-88.5802 8.72266-64.712 8.72266-35.2606C8.72266-5.80932 32.5964 18.0589 62.0422 18.0589ZM62.0422 0.677054C42.1819 0.677054 26.1103-15.4003 26.1103-35.2606C26.1103-55.1209 42.1819-71.1983 62.0422-71.1983C81.9025-71.1983 97.9799-55.1209 97.9799-35.2606C97.9799-15.4003 81.9025 0.677054 62.0422 0.677054ZM41.834-19.0957C39.3747-12.9141 45.6401-10.1315 49.4776-13.969L60.7832-25.2743C61.5375-26.0231 62.536-26.0231 63.2903-25.2743L74.5959-13.969C78.4334-10.1315 84.6985-12.9141 82.234-19.0957L67.3384-56.8037C65.3872-61.8034 58.686-61.7408 56.7296-56.7927Z" data-clipstroke-keyframes="0 4 0 0.4991024 1.5010128 0 0.24855801 0.25054482 1.7494538 0 0.49588108 0.0032221824 1.9966589 0 0.7506389 0.74846387 1.2515355 0 1 0.4991024 1.5010128"/>
  </g>
  <g id="Heavy-M" transform="matrix(1 0 0 1 2575.48 1126)">
   <path d="M61.2053 17.222C90.1969 17.222 113.704-6.26912 113.704-35.2606C113.704-64.2522 90.1969-87.7433 61.2053-87.7433C32.2302-87.7433 8.72266-64.2522 8.72266-35.2606C8.72266-6.26912 32.2302 17.222 61.2053 17.222ZM61.2053 1.99116C40.6171 1.99116 23.9677-14.6724 23.9677-35.2606C23.9677-55.8489 40.6171-72.5124 61.2053-72.5124C81.7936-72.5124 98.4571-55.8489 98.4571-35.2606C98.4571-14.6724 81.7936 1.99116 61.2053 1.99116ZM40.4774-17.9443C38.3075-12.4778 43.9065-9.70385 47.5499-13.3473L59.9423-25.742C60.6973-26.4805 61.6805-26.4805 62.4355-25.742L74.828-13.3473C78.4714-9.70385 84.0727-12.4778 81.884-17.9443L66.0514-58.1021C64.2599-62.6972 58.1202-62.6372 56.31-58.0693Z" data-clipstroke-keyframes="0 4 0 0.4991097 1.5009897 0 0.24850677 0.25060385 1.7493978 0 0.49586156 0.003250038 1.9966586 0 0.75063205 0.74847853 1.2515241 0 1 0.4991097 1.5009897"/>
  </g>
  <g id="Bold-M" transform="matrix(1 0 0 1 2279.69 1126)">
   <path d="M60.2692 16.2859C88.7463 16.2859 111.844-6.78347 111.844-35.2606C111.844-63.7378 88.7463-86.8071 60.2692-86.8071C31.8206-86.8071 8.72266-63.7378 8.72266-35.2606C8.72266-6.78347 31.8206 16.2859 60.2692 16.2859ZM60.2692 3.46117C38.8667 3.46117 21.5708-13.8582 21.5708-35.2606C21.5708-56.6631 38.8667-73.9825 60.2692-73.9825C81.6717-73.9825 98.991-56.6631 98.991-35.2606C98.991-13.8582 81.6717 3.46117 60.2692 3.46117ZM38.96-16.6562C37.1136-11.9897 41.9672-9.22544 45.3936-12.6518L59.0018-26.2652C59.7575-26.9923 60.7236-26.9923 61.4793-26.2652L75.0875-12.6518C78.5139-9.22544 83.3726-11.9897 81.4925-16.6562L64.6118-59.5546C62.9988-63.6972 57.4874-63.64 55.8407-59.4973Z" data-clipstroke-keyframes="0 4 0 0.49911895 1.5009658 0 0.24844946 0.25067046 1.749336 0 0.49583972 0.0032812099 1.9966581 0 0.7506244 0.7484955 1.2515123 0 1 0.49911895 1.5009658"/>
  </g>
  <g id="Semibold-M" transform="matrix(1 0 0 1 1983.62 1126)">
   <path d="M59.6238 15.6405C87.7463 15.6405 110.562-7.13807 110.562-35.2606C110.562-63.3832 87.7463-86.1618 59.6238-86.1618C31.5382-86.1618 8.72266-63.3832 8.72266-35.2606C8.72266-7.13807 31.5382 15.6405 59.6238 15.6405ZM59.6238 4.47459C37.6599 4.47459 19.9185-13.2968 19.9185-35.2606C19.9185-57.2245 37.6599-74.9959 59.6238-74.9959C81.5876-74.9959 99.359-57.2245 99.359-35.2606C99.359-13.2968 81.5876 4.47459 59.6238 4.47459ZM37.9138-15.7683C36.2905-11.6532 40.6302-8.89563 43.907-12.1724L58.3533-26.6258C59.1096-27.3451 60.0638-27.3451 60.8201-26.6258L75.2665-12.1724C78.5432-8.89563 82.89-11.6532 81.2226-15.7683L63.6193-60.5559C62.1295-64.3865 57.0511-64.3313 55.5171-60.4818Z" data-clipstroke-keyframes="0 4 0 0.49912608 1.5009503 0 0.24840996 0.25071678 1.749294 0 0.4958247 0.0033027069 1.9966578 0 0.7506191 0.74850756 1.2515047 0 1 0.49912608 1.5009503"/>
  </g>
  <g id="Medium-M" transform="matrix(1 0 0 1 1687.4 1126)">
   <path d="M59.1344 15.1511C86.9881 15.1511 109.59-7.40694 109.59-35.2606C109.59-63.1144 86.9881-85.6724 59.1344-85.6724C31.3241-85.6724 8.72266-63.1144 8.72266-35.2606C8.72266-7.40694 31.3241 15.1511 59.1344 15.1511ZM59.1344 5.24301C36.7449 5.24301 18.6656-12.8711 18.6656-35.2606C18.6656-57.6501 36.7449-75.7643 59.1344-75.7643C81.5239-75.7643 99.6381-57.6501 99.6381-35.2606C99.6381-12.8711 81.5239 5.24301 59.1344 5.24301ZM37.1206-15.095C35.6664-11.3981 39.6165-8.64556 42.7798-11.8088L57.8617-26.8993C58.6183-27.6125 59.5636-27.6125 60.3203-26.8993L75.4021-11.8088C78.5654-8.64556 82.5241-11.3981 81.0179-15.095L62.8668-61.3151C61.4703-64.9092 56.7203-64.8555 55.2718-61.2283Z" data-clipstroke-keyframes="0 4 0 0.4991319 1.5009391 0 0.24837999 0.25075206 1.7492626 0 0.49581325 0.0033190108 1.9966576 0 0.7506151 0.7485169 1.251499 0 1 0.4991319 1.5009391"/>
  </g>
  <g id="Regular-M" transform="matrix(1 0 0 1 1391.32 1126)">
   <path d="M58.4961 14.5128C85.9991 14.5128 108.321-7.75763 108.321-35.2606C108.321-62.7637 85.9991-85.0341 58.4961-85.0341C31.0448-85.0341 8.72266-62.7637 8.72266-35.2606C8.72266-7.75763 31.0448 14.5128 58.4961 14.5128ZM58.4961 6.24529C35.5514 6.24529 17.0314-12.316 17.0314-35.2606C17.0314-58.2053 35.5514-76.7666 58.4961-76.7666C81.4408-76.7666 100.002-58.2053 100.002-35.2606C100.002-12.316 81.4408 6.24529 58.4961 6.24529ZM36.086-14.2168C34.8524-11.0653 38.2943-8.31938 41.3095-11.3346L57.2203-27.256C57.9776-27.9614 58.9111-27.9614 59.6683-27.256L75.5791-11.3346C78.5944-8.31938 82.0468-11.0653 80.751-14.2168L61.8852-62.3054C60.6104-65.591 56.2888-65.5393 54.9517-62.2019Z" data-clipstroke-keyframes="0 4 0 0.49914 1.5009251 0 0.2483409 0.2507984 1.7492216 0 0.49579838 0.0033402822 1.9966574 0 0.7506099 0.74852943 1.2514921 0 1 0.49914 1.5009251"/>
  </g>
  <g id="Light-M" transform="matrix(1 0 0 1 1095.44 1126)">
   <path d="M57.6748 13.6915C84.7158 13.6915 106.662-8.21963 106.662-35.2606C106.662-62.3017 84.7158-84.2128 57.6748-84.2128C30.6684-84.2128 8.72266-62.3017 8.72266-35.2606C8.72266-8.21963 30.6684 13.6915 57.6748 13.6915ZM57.6748 7.37462C34.097 7.37462 15.0465-11.6829 15.0465-35.2606C15.0465-58.8384 34.097-77.8959 57.6748-77.8959C81.2526-77.8959 100.31-58.8384 100.31-35.2606C100.31-11.6829 81.2526 7.37462 57.6748 7.37462ZM36.2057-13.635C35.1946-11.0311 38.0547-8.88404 40.4027-11.232L56.553-27.41C57.2247-28.047 58.0556-28.047 58.7272-27.41L74.8776-11.232C77.2255-8.88404 80.1133-11.0311 79.0399-13.635L60.3965-61.7065C59.3785-64.359 55.9295-64.3244 54.8491-61.6373Z" data-clipstroke-keyframes="0 4 0 0.49913153 1.501013 0 0.2484314 0.25069898 1.7493415 0 0.49578968 0.003339577 1.9966569 0 0.75062394 0.7485064 1.2515363 0 1 0.49913153 1.501013"/>
  </g>
  <g id="Thin-M" transform="matrix(1 0 0 1 799.828 1126)">
   <path d="M56.5885 12.6052C83.0185 12.6052 104.466-8.83065 104.466-35.2606C104.466-61.6906 83.0185-83.1265 56.5885-83.1265C30.1705-83.1265 8.72266-61.6906 8.72266-35.2606C8.72266-8.83065 30.1705 12.6052 56.5885 12.6052ZM56.5885 8.86824C32.1734 8.86824 12.4213-10.8455 12.4213-35.2606C12.4213-59.6758 32.1734-79.3895 56.5885-79.3895C81.0036-79.3895 100.717-59.6758 100.717-35.2606C100.717-10.8455 81.0036 8.86824 56.5885 8.86824ZM36.3642-12.8655C35.6473-10.9858 37.7379-9.63085 39.2032-11.0962L55.6704-27.6137C56.2289-28.1602 56.924-28.1602 57.4825-27.6137L73.9497-11.0962C75.4151-9.63085 77.556-10.9858 76.7768-12.8655L58.4277-60.9145C57.7491-62.7296 55.4542-62.7176 54.7133-60.8904Z" data-clipstroke-keyframes="0 4 0 0.49911785 1.5011225 0 0.24855107 0.25056624 1.7494965 0 0.49577817 0.0033386275 1.9966564 0 0.7506426 0.7484748 1.2515912 0 1 0.49911785 1.5011225"/>
  </g>
  <g id="Ultralight-M" transform="matrix(1 0 0 1 503.679 1126)">
   <path d="M56.0321 12.0488C82.1491 12.0488 103.342-9.14362 103.342-35.2606C103.342-61.3777 82.1491-82.5701 56.0321-82.5701C29.9155-82.5701 8.72266-61.3777 8.72266-35.2606C8.72266-9.14362 29.9155 12.0488 56.0321 12.0488ZM56.0321 9.63326C31.1881 9.63326 11.0767-10.4166 11.0767-35.2606C11.0767-60.1046 31.1881-80.1545 56.0321-80.1545C80.8761-80.1545 100.926-60.1046 100.926-35.2606C100.926-10.4166 80.8761 9.63326 56.0321 9.63326ZM36.4453-12.4714C35.8791-10.9627 37.5756-10.0134 38.5889-11.0266L55.2184-27.718C55.7189-28.2181 56.3445-28.2181 56.845-27.718L73.4745-11.0266C74.4878-10.0134 76.2462-10.9627 75.6177-12.4714L57.4192-60.5088C56.9145-61.895 55.2108-61.8946 54.6437-60.5079Z" data-clipstroke-keyframes="0 4 0 0.49910972 1.5011756 0 0.24861237 0.25049773 1.7495744 0 0.49577227 0.0033381337 1.9966561 0 0.7506521 0.748458 1.2516178 0 1 0.49910972 1.5011756"/>
  </g>
  <g id="Black-S" transform="matrix(1 0 0 1 2884.57 696)">
   <path d="M48.8281 6.73828C72.0215 6.73828 90.8203-12.0605 90.8203-35.2539C90.8203-58.4473 72.0215-77.2461 48.8281-77.2461C25.6348-77.2461 6.83594-58.4473 6.83594-35.2539C6.83594-12.0605 25.6348 6.73828 48.8281 6.73828ZM48.8281-7.42188C33.4473-7.42188 20.9961-19.873 20.9961-35.2539C20.9961-50.6348 33.4473-63.0859 48.8281-63.0859C64.209-63.0859 76.6602-50.6348 76.6602-35.2539C76.6602-19.873 64.209-7.42188 48.8281-7.42188ZM33.2031-22.9004C31.2012-17.8711 36.2793-15.7227 39.3066-18.75L47.8516-27.2949C48.4375-27.8809 49.2188-27.8809 49.8047-27.2949L58.3496-18.75C61.377-15.7227 66.4551-17.8711 64.4531-22.9004L53.0762-51.709C51.5137-55.7129 46.1426-55.6641 44.5801-51.709Z" data-clipstroke-keyframes="0 4 0 0.49909934 1.5010297 0 0.24858454 0.2505148 1.749485 0 0.49588796 0.0032113674 1.996659 0 0.7506426 0.7484567 1.251544 0 1 0.49909934 1.5010297"/>
  </g>
  <g id="Heavy-S" transform="matrix(1 0 0 1 2588.47 696)">
   <path d="M48.2173 6.12748C71.0765 6.12748 89.6102-12.3948 89.6102-35.2539C89.6102-58.1131 71.0765-76.6353 48.2173-76.6353C25.3697-76.6353 6.83594-58.1131 6.83594-35.2539C6.83594-12.3948 25.3697 6.12748 48.2173 6.12748ZM48.2173-6.4423C32.2948-6.4423 19.4172-19.3314 19.4172-35.2539C19.4172-51.1764 32.2948-64.0655 48.2173-64.0655C64.1398-64.0655 77.0289-51.1764 77.0289-35.2539C77.0289-19.3314 64.1398-6.4423 48.2173-6.4423ZM32.0276-21.99C30.2446-17.5023 34.8272-15.2847 37.7739-18.2314L47.2177-27.6752C47.8152-28.2612 48.5964-28.2612 49.1939-27.6752L58.6377-18.2314C61.5844-15.2847 66.167-17.5023 64.3725-21.99L52.1657-52.896C50.707-56.6348 45.7046-56.586 44.2343-52.873Z" data-clipstroke-keyframes="0 4 0 0.49910805 1.5009875 0 0.24851386 0.25059512 1.749403 0 0.4958681 0.0032418747 1.9966587 0 0.7506328 0.74847615 1.251523 0 1 0.49910805 1.5009875"/>
  </g>
  <g id="Bold-S" transform="matrix(1 0 0 1 2292.43 696)">
   <path d="M47.5342 5.44434C70.0195 5.44434 88.2568-12.7686 88.2568-35.2539C88.2568-57.7393 70.0195-75.9521 47.5342-75.9521C25.0732-75.9521 6.83594-57.7393 6.83594-35.2539C6.83594-12.7686 25.0732 5.44434 47.5342 5.44434ZM47.5342-5.34668C31.0059-5.34668 17.6514-18.7256 17.6514-35.2539C17.6514-51.7822 31.0059-65.1611 47.5342-65.1611C64.0625-65.1611 77.4414-51.7822 77.4414-35.2539C77.4414-18.7256 64.0625-5.34668 47.5342-5.34668ZM30.7129-20.9717C29.1748-17.0898 33.2031-14.7949 36.0596-17.6514L46.5088-28.1006C47.1191-28.6865 47.9004-28.6865 48.5107-28.1006L58.96-17.6514C61.8164-14.7949 65.8447-17.0898 64.2822-20.9717L51.1475-54.2236C49.8047-57.666 45.2148-57.6172 43.8477-54.1748Z" data-clipstroke-keyframes="0 4 0 0.49911916 1.5009434 0 0.24843483 0.25068566 1.7493129 0 0.49584585 0.0032760105 1.9966583 0 0.7506219 0.74849856 1.2515011 0 1 0.49911916 1.5009434"/>
  </g>
  <g id="Semibold-S" transform="matrix(1 0 0 1 1996.19 696)">
   <path d="M47.0632 4.97334C69.2908 4.97334 87.3237-13.0263 87.3237-35.2539C87.3237-57.4815 69.2908-75.4812 47.0632-75.4812C24.8688-75.4812 6.83594-57.4815 6.83594-35.2539C6.83594-13.0263 24.8688 4.97334 47.0632 4.97334ZM47.0632-4.59131C30.1172-4.59131 16.4339-18.3079 16.4339-35.2539C16.4339-52.1999 30.1172-65.9165 47.0632-65.9165C64.0092-65.9165 77.7258-52.1999 77.7258-35.2539C77.7258-18.3079 64.0092-4.59131 47.0632-4.59131ZM29.8064-20.2696C28.4372-16.8055 32.0834-14.4572 34.8776-17.2515L46.02-28.3938C46.6393-28.9798 47.4205-28.9798 48.0397-28.3938L59.1821-17.2515C61.9764-14.4572 65.6226-16.8055 64.22-20.2696L50.4454-55.139C49.1826-58.377 44.8771-58.3281 43.5811-55.0724Z" data-clipstroke-keyframes="0 4 0 0.49912772 1.500915 0 0.24838033 0.25074854 1.7492518 0 0.49583054 0.003299555 1.9966581 0 0.7506144 0.7485145 1.2514869 0 1 0.49912772 1.500915"/>
  </g>
  <g id="Medium-S" transform="matrix(1 0 0 1 1699.83 696)">
   <path d="M46.7061 4.61621C68.7383 4.61621 86.6162-13.2217 86.6162-35.2539C86.6162-57.2861 68.7383-75.124 46.7061-75.124C24.7139-75.124 6.83594-57.2861 6.83594-35.2539C6.83594-13.2217 24.7139 4.61621 46.7061 4.61621ZM46.7061-4.01855C29.4434-4.01855 15.5107-17.9912 15.5107-35.2539C15.5107-52.5166 29.4434-66.4893 46.7061-66.4893C63.9688-66.4893 77.9414-52.5166 77.9414-35.2539C77.9414-17.9912 63.9688-4.01855 46.7061-4.01855ZM29.1191-19.7373C27.8779-16.5898 31.2344-14.2012 33.9814-16.9482L45.6494-28.6162C46.2754-29.2021 47.0566-29.2021 47.6826-28.6162L59.3506-16.9482C62.0977-14.2012 65.4541-16.5898 64.1729-19.7373L49.9131-55.833C48.7109-58.916 44.6211-58.8672 43.3789-55.7529Z" data-clipstroke-keyframes="0 4 0 0.4991347 1.5008943 0 0.24833901 0.2507965 1.7492058 0 0.4958189 0.0033174127 1.9966578 0 0.7506087 0.7485268 1.2514766 0 1 0.4991347 1.5008943"/>
  </g>
  <g id="Regular-S" transform="matrix(1 0 0 1 1403.58 696)">
   <path d="M46.2402 4.15039C68.0176 4.15039 85.6934-13.4766 85.6934-35.2539C85.6934-57.0312 68.0176-74.6582 46.2402-74.6582C24.5117-74.6582 6.83594-57.0312 6.83594-35.2539C6.83594-13.4766 24.5117 4.15039 46.2402 4.15039ZM46.2402-3.27148C28.5645-3.27148 14.3066-17.5781 14.3066-35.2539C14.3066-52.9297 28.5645-67.2363 46.2402-67.2363C63.916-67.2363 78.2227-52.9297 78.2227-35.2539C78.2227-17.5781 63.916-3.27148 46.2402-3.27148ZM28.2227-19.043C27.1484-16.3086 30.127-13.8672 32.8125-16.5527L45.166-28.9062C45.8008-29.4922 46.582-29.4922 47.2168-28.9062L59.5703-16.5527C62.2559-13.8672 65.2344-16.3086 64.1113-19.043L49.2188-56.7383C48.0957-59.6191 44.2871-59.5703 43.1152-56.6406Z" data-clipstroke-keyframes="0 4 0 0.49914446 1.5008684 0 0.24828511 0.25085935 1.7491465 0 0.49580374 0.0033407123 1.9966576 0 0.75060123 0.7485432 1.2514638 0 1 0.49914446 1.5008684"/>
  </g>
  <g id="Light-S" transform="matrix(1 0 0 1 1107.6 696)">
   <path d="M45.5137 3.42383C66.8823 3.42383 84.2251-13.8853 84.2251-35.2539C84.2251-56.6226 66.8823-73.9316 45.5137-73.9316C24.1787-73.9316 6.83594-56.6226 6.83594-35.2539C6.83594-13.8853 24.1787 3.42383 45.5137 3.42383ZM45.5137-2.27247C27.2778-2.27247 12.5508-17.0181 12.5508-35.2539C12.5508-53.4897 27.2778-68.2353 45.5137-68.2353C63.7495-68.2353 78.4951-53.4897 78.4951-35.2539C78.4951-17.0181 63.7495-2.27247 45.5137-2.27247ZM28.3286-18.5283C27.4512-16.2783 29.915-14.3667 32.0103-16.4619L44.5757-29.0425C45.1348-29.5679 45.8252-29.5679 46.3843-29.0425L58.9497-16.4619C61.0449-14.3667 63.5239-16.2783 62.5977-18.5283L47.9019-56.2085C47.0059-58.5293 43.9692-58.4956 43.0244-56.1411Z" data-clipstroke-keyframes="0 4 0 0.49913585 1.5009707 0 0.24838725 0.2507476 1.7492833 0 0.4957939 0.0033399223 1.9966571 0 0.7506171 0.74851775 1.251515 0 1 0.49913585 1.5009707"/>
  </g>
  <g id="Thin-S" transform="matrix(1 0 0 1 811.863 696)">
   <path d="M44.5527 2.4629C65.3809 2.4629 82.2832-14.4258 82.2832-35.2539C82.2832-56.082 65.3809-72.9707 44.5527-72.9707C23.7383-72.9707 6.83594-56.082 6.83594-35.2539C6.83594-14.4258 23.7383 2.4629 44.5527 2.4629ZM44.5527-0.95119C25.5762-0.95119 10.2285-16.2774 10.2285-35.2539C10.2285-54.2305 25.5762-69.5566 44.5527-69.5566C63.5293-69.5566 78.8555-54.2305 78.8555-35.2539C78.8555-16.2774 63.5293-0.95119 44.5527-0.95119ZM28.4687-17.8477C27.8516-16.2383 29.6348-15.0273 30.9492-16.3418L43.7949-29.2227C44.2539-29.668 44.8242-29.668 45.2832-29.2227L58.1289-16.3418C59.4434-15.0273 61.2618-16.2383 60.5957-17.8477L46.1602-55.5078C45.5645-57.0879 43.5488-57.0742 42.9043-55.4805Z" data-clipstroke-keyframes="0 4 0 0.49912143 1.5010968 0 0.24852234 0.25059825 1.7494596 0 0.49578092 0.0033388573 1.9966565 0 0.7506381 0.7484825 1.2515783 0 1 0.49912143 1.5010968"/>
  </g>
  <g id="Ultralight-S" transform="matrix(1 0 0 1 515.649 696)">
   <path d="M44.0606 1.97072C64.6118 1.97072 81.2886-14.7026 81.2886-35.2539C81.2886-55.8052 64.6118-72.4785 44.0606-72.4785C23.5127-72.4785 6.83594-55.8052 6.83594-35.2539C6.83594-14.7026 23.5127 1.97072 44.0606 1.97072ZM44.0606-0.274438C24.7046-0.274438 9.0391-15.898 9.0391-35.2539C9.0391-54.6099 24.7046-70.2334 44.0606-70.2334C63.4165-70.2334 79.04-54.6099 79.04-35.2539C79.04-15.898 63.4165-0.274438 44.0606-0.274438ZM28.5405-17.499C28.0566-16.2178 29.4912-15.3657 30.4058-16.2803L43.395-29.3149C43.8028-29.7192 44.3115-29.7192 44.7193-29.3149L57.7085-16.2803C58.6231-15.3657 60.1031-16.2178 59.5703-17.499L45.2681-55.1489C44.8262-56.3496 43.3335-56.3462 42.8428-55.1421Z" data-clipstroke-keyframes="0 4 0 0.49911258 1.5011578 0 0.24859153 0.25052106 1.7495481 0 0.49577427 0.0033383023 1.9966562 0 0.75064886 0.74846375 1.2516088 0 1 0.49911258 1.5011578"/>
  </g>
 </g>
</svg>
