<?xml version="1.0" encoding="UTF-8"?>
<!--Generator: Apple Native CoreSVG 232.5-->
<!DOCTYPE svg
PUBLIC "-//W3C//DTD SVG 1.1//EN"
       "http://www.w3.org/Graphics/SVG/1.1/DTD/svg11.dtd">
<svg version="1.1" xmlns="http://www.w3.org/2000/svg" xmlns:xlink="http://www.w3.org/1999/xlink" width="3300" height="2200">
 <g id="Notes">
  <rect height="2200" id="artboard" style="fill:white;opacity:1" width="3300" x="0" y="0"/>
  <line style="fill:none;stroke:black;opacity:1;stroke-width:0.5;" x1="263" x2="3036" y1="292" y2="292"/>
  <text style="stroke:none;fill:black;font-family:sans-serif;font-size:13;font-weight:bold;" transform="matrix(1 0 0 1 263 322)">Weight/Scale Variations</text>
  <text style="stroke:none;fill:black;font-family:sans-serif;font-size:13;text-anchor:middle;" transform="matrix(1 0 0 1 559.711 322)">Ultralight</text>
  <text style="stroke:none;fill:black;font-family:sans-serif;font-size:13;text-anchor:middle;" transform="matrix(1 0 0 1 856.422 322)">Thin</text>
  <text style="stroke:none;fill:black;font-family:sans-serif;font-size:13;text-anchor:middle;" transform="matrix(1 0 0 1 1153.13 322)">Light</text>
  <text style="stroke:none;fill:black;font-family:sans-serif;font-size:13;text-anchor:middle;" transform="matrix(1 0 0 1 1449.84 322)">Regular</text>
  <text style="stroke:none;fill:black;font-family:sans-serif;font-size:13;text-anchor:middle;" transform="matrix(1 0 0 1 1746.56 322)">Medium</text>
  <text style="stroke:none;fill:black;font-family:sans-serif;font-size:13;text-anchor:middle;" transform="matrix(1 0 0 1 2043.27 322)">Semibold</text>
  <text style="stroke:none;fill:black;font-family:sans-serif;font-size:13;text-anchor:middle;" transform="matrix(1 0 0 1 2339.98 322)">Bold</text>
  <text style="stroke:none;fill:black;font-family:sans-serif;font-size:13;text-anchor:middle;" transform="matrix(1 0 0 1 2636.69 322)">Heavy</text>
  <text style="stroke:none;fill:black;font-family:sans-serif;font-size:13;text-anchor:middle;" transform="matrix(1 0 0 1 2933.4 322)">Black</text>
  <line style="fill:none;stroke:black;opacity:1;stroke-width:0.5;" x1="263" x2="3036" y1="1903" y2="1903"/>
  <g transform="matrix(0.2 0 0 0.2 263 1933)">
   <path d="m46.2402 4.15039c21.5332 0 39.4531-17.8711 39.4531-39.4043s-17.9688-39.4043-39.502-39.4043c-21.4844 0-39.3555 17.8711-39.3555 39.4043s17.9199 39.4043 39.4043 39.4043Zm0-7.42188c-17.7246 0-31.8848-14.209-31.8848-31.9824s14.1113-31.9824 31.8359-31.9824c17.7734 0 32.0312 14.209 32.0312 31.9824s-14.209 31.9824-31.9824 31.9824Zm-17.9688-31.9824c0 2.14844 1.51367 3.61328 3.75977 3.61328h10.498v10.5957c0 2.19727 1.46484 3.71094 3.61328 3.71094 2.24609 0 3.71094-1.51367 3.71094-3.71094v-10.5957h10.5957c2.19727 0 3.71094-1.46484 3.71094-3.61328 0-2.19727-1.51367-3.71094-3.71094-3.71094h-10.5957v-10.5469c0-2.24609-1.46484-3.75977-3.71094-3.75977-2.14844 0-3.61328 1.51367-3.61328 3.75977v10.5469h-10.498c-2.24609 0-3.75977 1.51367-3.75977 3.71094Z"/>
  </g>
  <g transform="matrix(0.2 0 0 0.2 281.506 1933)">
   <path d="m58.5449 14.5508c27.2461 0 49.8047-22.6074 49.8047-49.8047 0-27.2461-22.6074-49.8047-49.8535-49.8047-27.1973 0-49.7559 22.5586-49.7559 49.8047 0 27.1973 22.6074 49.8047 49.8047 49.8047Zm0-8.30078c-23.0469 0-41.4551-18.457-41.4551-41.5039s18.3594-41.5039 41.4062-41.5039 41.5527 18.457 41.5527 41.5039-18.457 41.5039-41.5039 41.5039Zm-22.6562-41.5039c0 2.39258 1.66016 4.00391 4.15039 4.00391h14.3555v14.4043c0 2.44141 1.66016 4.15039 4.05273 4.15039 2.44141 0 4.15039-1.66016 4.15039-4.15039v-14.4043h14.4043c2.44141 0 4.15039-1.61133 4.15039-4.00391 0-2.44141-1.70898-4.15039-4.15039-4.15039h-14.4043v-14.3555c0-2.49023-1.70898-4.19922-4.15039-4.19922-2.39258 0-4.05273 1.70898-4.05273 4.19922v14.3555h-14.3555c-2.49023 0-4.15039 1.70898-4.15039 4.15039Z"/>
  </g>
  <g transform="matrix(0.2 0 0 0.2 304.924 1933)">
   <path d="m74.8535 28.3203c34.8145 0 63.623-28.8086 63.623-63.5742 0-34.8145-28.8574-63.623-63.6719-63.623-34.7656 0-63.5254 28.8086-63.5254 63.623 0 34.7656 28.8086 63.5742 63.5742 63.5742Zm0-9.08203c-30.1758 0-54.4434-24.3164-54.4434-54.4922 0-30.2246 24.2188-54.4922 54.3945-54.4922 30.2246 0 54.541 24.2676 54.541 54.4922 0 30.1758-24.2676 54.4922-54.4922 54.4922Zm-28.8574-54.4922c0 2.58789 1.85547 4.39453 4.58984 4.39453h19.7266v19.7754c0 2.68555 1.85547 4.58984 4.44336 4.58984 2.68555 0 4.54102-1.85547 4.54102-4.58984v-19.7754h19.7754c2.68555 0 4.58984-1.80664 4.58984-4.39453 0-2.73438-1.85547-4.58984-4.58984-4.58984h-19.7754v-19.7266c0-2.73438-1.85547-4.63867-4.54102-4.63867-2.58789 0-4.44336 1.9043-4.44336 4.63867v19.7266h-19.7266c-2.73438 0-4.58984 1.85547-4.58984 4.58984Z"/>
  </g>
  <text style="stroke:none;fill:black;font-family:sans-serif;font-size:13;font-weight:bold;" transform="matrix(1 0 0 1 263 1953)">Design Variations</text>
  <text style="stroke:none;fill:black;font-family:sans-serif;font-size:13;" transform="matrix(1 0 0 1 263 1971)">Symbols are supported in up to nine weights and three scales.</text>
  <text style="stroke:none;fill:black;font-family:sans-serif;font-size:13;" transform="matrix(1 0 0 1 263 1989)">For optimal layout with text and other symbols, vertically align</text>
  <text style="stroke:none;fill:black;font-family:sans-serif;font-size:13;" transform="matrix(1 0 0 1 263 2007)">symbols with the adjacent text.</text>
  <line style="fill:none;stroke:#00AEEF;stroke-width:0.5;opacity:1.0;" x1="776" x2="776" y1="1919" y2="1933"/>
  <g transform="matrix(0.2 0 0 0.2 776 1933)">
   <path d="m16.5527 0.78125c2.58789 0 3.85742-0.976562 4.78516-3.71094l6.29883-17.2363h28.8086l6.29883 17.2363c0.927734 2.73438 2.19727 3.71094 4.73633 3.71094 2.58789 0 4.24805-1.5625 4.24805-4.00391 0-0.830078-0.146484-1.61133-0.537109-2.63672l-22.9004-60.9863c-1.12305-2.97852-3.125-4.49219-6.25-4.49219-3.02734 0-5.07812 1.46484-6.15234 4.44336l-22.9004 61.084c-0.390625 1.02539-0.537109 1.80664-0.537109 2.63672 0 2.44141 1.5625 3.95508 4.10156 3.95508Zm13.4766-28.3691 11.8652-32.8613h0.244141l11.8652 32.8613Z"/>
  </g>
  <line style="fill:none;stroke:#00AEEF;stroke-width:0.5;opacity:1.0;" x1="792.836" x2="792.836" y1="1919" y2="1933"/>
  <text style="stroke:none;fill:black;font-family:sans-serif;font-size:13;font-weight:bold;" transform="matrix(1 0 0 1 776 1953)">Margins</text>
  <text style="stroke:none;fill:black;font-family:sans-serif;font-size:13;" transform="matrix(1 0 0 1 776 1971)">Leading and trailing margins on the left and right side of each symbol</text>
  <text style="stroke:none;fill:black;font-family:sans-serif;font-size:13;" transform="matrix(1 0 0 1 776 1989)">can be adjusted by modifying the x-location of the margin guidelines.</text>
  <text style="stroke:none;fill:black;font-family:sans-serif;font-size:13;" transform="matrix(1 0 0 1 776 2007)">Modifications are automatically applied proportionally to all</text>
  <text style="stroke:none;fill:black;font-family:sans-serif;font-size:13;" transform="matrix(1 0 0 1 776 2025)">scales and weights.</text>
  <g transform="matrix(0.2 0 0 0.2 1289 1933)">
   <path d="m14.209 9.32617 8.49609 8.54492c4.29688 4.3457 9.22852 4.05273 13.8672-1.07422l53.4668-58.9355-4.83398-4.88281-53.0762 58.3984c-1.75781 2.00195-3.41797 2.49023-5.76172 0.146484l-5.85938-5.81055c-2.34375-2.29492-1.80664-4.00391 0.195312-5.81055l57.373-54.0039-4.88281-4.83398-57.959 54.4434c-4.93164 4.58984-5.32227 9.47266-1.02539 13.8184Zm32.0801-90.9668c-2.09961 2.05078-2.24609 4.93164-1.07422 6.88477 1.17188 1.80664 3.4668 2.97852 6.68945 2.14844 7.32422-1.70898 14.9414-2.00195 22.0703 2.68555l-2.92969 7.27539c-1.70898 4.15039-0.830078 7.08008 1.85547 9.81445l11.4746 11.5723c2.44141 2.44141 4.49219 2.53906 7.32422 2.05078l5.32227-0.976562 3.32031 3.36914-0.195312 2.7832c-0.195312 2.49023 0.439453 4.39453 2.88086 6.78711l3.80859 3.71094c2.39258 2.39258 5.46875 2.53906 7.8125 0.195312l14.5508-14.5996c2.34375-2.34375 2.24609-5.32227-0.146484-7.71484l-3.85742-3.80859c-2.39258-2.39258-4.24805-3.17383-6.64062-2.97852l-2.88086 0.244141-3.22266-3.17383 1.2207-5.61523c0.634766-2.83203-0.146484-5.0293-3.07617-7.95898l-10.9863-10.9375c-16.6992-16.6016-38.8672-16.2109-53.3203-1.75781Zm7.4707 1.85547c12.1582-8.88672 28.6133-7.37305 39.7461 3.75977l12.1582 12.0605c1.17188 1.17188 1.36719 2.09961 1.02539 3.80859l-1.61133 7.42188 7.51953 7.42188 4.93164-0.292969c1.26953-0.0488281 1.66016 0.0488281 2.63672 1.02539l2.88086 2.88086-12.207 12.207-2.88086-2.88086c-0.976562-0.976562-1.12305-1.36719-1.07422-2.68555l0.341797-4.88281-7.4707-7.42188-7.61719 1.26953c-1.61133 0.341797-2.34375 0.195312-3.56445-0.976562l-10.0098-10.0098c-1.26953-1.17188-1.41602-2.00195-0.634766-3.85742l4.39453-10.4492c-7.8125-7.27539-17.9688-10.4004-28.125-7.42188-0.78125 0.195312-1.07422-0.439453-0.439453-0.976562Z"/>
  </g>
  <text style="stroke:none;fill:black;font-family:sans-serif;font-size:13;font-weight:bold;" transform="matrix(1 0 0 1 1289 1953)">Exporting</text>
  <text style="stroke:none;fill:black;font-family:sans-serif;font-size:13;" transform="matrix(1 0 0 1 1289 1971)">Symbols should be outlined when exporting to ensure the</text>
  <text style="stroke:none;fill:black;font-family:sans-serif;font-size:13;" transform="matrix(1 0 0 1 1289 1989)">design is preserved when submitting to Xcode.</text>
  <text id="template-version" style="stroke:none;fill:black;font-family:sans-serif;font-size:13;text-anchor:end;" transform="matrix(1 0 0 1 3036 1933)">Template v.2.0</text>
  <text style="stroke:none;fill:black;font-family:sans-serif;font-size:13;text-anchor:end;" transform="matrix(1 0 0 1 3036 1951)">Requires Xcode 12 or greater</text>
  <text id="descriptive-name" style="stroke:none;fill:black;font-family:sans-serif;font-size:13;text-anchor:end;" transform="matrix(1 0 0 1 3036 1969)">Generated from wave.3.right.circle</text>
  <text style="stroke:none;fill:black;font-family:sans-serif;font-size:13;text-anchor:end;" transform="matrix(1 0 0 1 3036 1987)">Typeset at 100.0 points</text>
  <text style="stroke:none;fill:black;font-family:sans-serif;font-size:13;" transform="matrix(1 0 0 1 263 726)">Small</text>
  <text style="stroke:none;fill:black;font-family:sans-serif;font-size:13;" transform="matrix(1 0 0 1 263 1156)">Medium</text>
  <text style="stroke:none;fill:black;font-family:sans-serif;font-size:13;" transform="matrix(1 0 0 1 263 1586)">Large</text>
 </g>
 <g id="Guides">
  <g id="H-reference" style="fill:#27AAE1;stroke:none;" transform="matrix(1 0 0 1 339 696)">
   <path d="M0.993654 0L3.63775 0L29.3281-67.1323L30.0303-67.1323L30.0303-70.459L28.1226-70.459ZM11.6885-24.4799L46.9815-24.4799L46.2315-26.7285L12.4385-26.7285ZM55.1196 0L57.7637 0L30.6382-70.459L29.4326-70.459L29.4326-67.1323Z"/>
  </g>
  <line id="Baseline-S" style="fill:none;stroke:#27AAE1;opacity:1;stroke-width:0.5;" x1="263" x2="3036" y1="696" y2="696"/>
  <line id="Capline-S" style="fill:none;stroke:#27AAE1;opacity:1;stroke-width:0.5;" x1="263" x2="3036" y1="625.541" y2="625.541"/>
  <g id="H-reference" style="fill:#27AAE1;stroke:none;" transform="matrix(1 0 0 1 339 1126)">
   <path d="M0.993654 0L3.63775 0L29.3281-67.1323L30.0303-67.1323L30.0303-70.459L28.1226-70.459ZM11.6885-24.4799L46.9815-24.4799L46.2315-26.7285L12.4385-26.7285ZM55.1196 0L57.7637 0L30.6382-70.459L29.4326-70.459L29.4326-67.1323Z"/>
  </g>
  <line id="Baseline-M" style="fill:none;stroke:#27AAE1;opacity:1;stroke-width:0.5;" x1="263" x2="3036" y1="1126" y2="1126"/>
  <line id="Capline-M" style="fill:none;stroke:#27AAE1;opacity:1;stroke-width:0.5;" x1="263" x2="3036" y1="1055.54" y2="1055.54"/>
  <g id="H-reference" style="fill:#27AAE1;stroke:none;" transform="matrix(1 0 0 1 339 1556)">
   <path d="M0.993654 0L3.63775 0L29.3281-67.1323L30.0303-67.1323L30.0303-70.459L28.1226-70.459ZM11.6885-24.4799L46.9815-24.4799L46.2315-26.7285L12.4385-26.7285ZM55.1196 0L57.7637 0L30.6382-70.459L29.4326-70.459L29.4326-67.1323Z"/>
  </g>
  <line id="Baseline-L" style="fill:none;stroke:#27AAE1;opacity:1;stroke-width:0.5;" x1="263" x2="3036" y1="1556" y2="1556"/>
  <line id="Capline-L" style="fill:none;stroke:#27AAE1;opacity:1;stroke-width:0.5;" x1="263" x2="3036" y1="1485.54" y2="1485.54"/>
  <line id="left-margin" style="fill:none;stroke:#00AEEF;stroke-width:0.5;opacity:1.0;" x1="1391.32" x2="1391.32" y1="1030.79" y2="1150.12"/>
  <line id="right-margin" style="fill:none;stroke:#00AEEF;stroke-width:0.5;opacity:1.0;" x1="1508.37" x2="1508.37" y1="1030.79" y2="1150.12"/>
 </g>
 <g id="Symbols">
  <g id="Black-L" transform="matrix(1 0 0 1 2854.19 1556)">
   <path d="M79.1958 32.7257C116.56 32.7257 147.154 2.15259 147.154-35.2113C147.154-72.5752 116.539-103.148 79.175-103.148C41.8307-103.148 11.2588-72.5752 11.2588-35.2113C11.2588 2.15259 41.8515 32.7257 79.1958 32.7257ZM79.1958 12.5782C52.765 12.5782 31.4468-8.75969 31.4468-35.2113C31.4468-61.6629 52.7442-83.0007 79.175-83.0007C105.627-83.0007 126.985-61.6629 126.985-35.2113C126.985-8.75969 105.647 12.5782 79.1958 12.5782ZM69.2228-35.0969C69.2228-40.9876 67.3487-46.9187 64.1248-51.5271C62.2179-54.2609 58.4378-54.9347 55.3923-53.1707C51.9887-51.0666 51.3989-47.05 53.7551-43.0415C55.2215-40.7726 55.9909-38.0438 55.9909-35.0969C55.9909-32.1916 55.2215-29.4628 53.7551-27.1522C51.4197-23.1438 52.0095-19.148 55.3923-17.0439C58.4378-15.259 62.2387-15.9536 64.1248-18.7083C67.3487-23.2126 69.2228-29.1437 69.2228-35.0969ZM88.0223-35.0969C88.0223-44.3041 85.4312-53.2313 80.5735-60.5631C78.6678-63.6306 74.8901-64.538 71.7266-62.6919C68.3515-60.7331 67.5793-56.6205 69.8343-52.7509C73.0483-47.6544 74.7696-41.513 74.7696-35.0969C74.7696-28.6807 73.0483-22.5394 69.8343-17.4429C67.5793-13.594 68.3515-9.46067 71.7266-7.50181C74.8901-5.67653 78.6678-6.56311 80.5735-9.63065C85.4312-17.0249 88.0223-25.9521 88.0223-35.0969ZM106.746-35.0969C106.746-47.4354 103.32-59.541 96.9704-69.8572C95.0074-73.0623 91.0701-74.0281 87.8482-72.0861C84.5666-70.2012 83.7593-66.0874 85.9194-62.4162C90.9168-54.3181 93.5339-44.9167 93.5339-35.0969C93.5339-25.3187 90.8959-15.8965 85.9194-7.77756C83.7593-4.10634 84.5666 0.00742407 87.8482 1.8923C91.0493 3.81357 94.9866 2.82695 96.9704-0.357395C103.32-10.6319 106.746-22.7584 106.746-35.0969Z"/>
  </g>
  <g id="Heavy-L" transform="matrix(1 0 0 1 2558.42 1556)">
   <path d="M78.2532 31.7694C115.056 31.7694 145.278 1.57794 145.278-35.2251C145.278-72.0281 115.026-102.22 78.2231-102.22C41.4446-102.22 11.2588-72.0281 11.2588-35.2251C11.2588 1.57794 41.4748 31.7694 78.2532 31.7694ZM78.2532 14.0275C51.0062 14.0275 29.0554-7.9479 29.0554-35.2251C29.0554-62.5023 50.9761-84.4777 78.2231-84.4777C105.5-84.4777 127.506-62.5023 127.506-35.2251C127.506-7.9479 105.53 14.0275 78.2532 14.0275ZM67.481-35.1471C67.481-41.1657 65.5844-47.2391 62.3339-51.8701C60.5395-54.3866 57.0954-55.0107 54.3311-53.3873C51.2364-51.4233 50.7096-47.7603 52.871-44.1892C54.5553-41.7355 55.4797-38.5412 55.4797-35.1471C55.4797-31.8133 54.5553-28.619 52.871-26.1049C50.7397-22.5338 51.2666-18.901 54.3311-16.937C57.0954-15.2834 60.5697-15.9377 62.3339-18.4844C65.5844-22.9645 67.481-29.0379 67.481-35.1471ZM86.5216-35.1471C86.5216-44.7287 83.8114-53.9547 78.753-61.3638C76.9642-64.1638 73.5313-64.9664 70.6722-63.2279C67.6704-61.4461 66.976-57.7241 69.0269-54.278C72.568-48.8952 74.49-42.1732 74.49-35.1471C74.49-28.1209 72.568-21.3989 69.0269-16.0162C66.976-12.6002 67.6704-8.84801 70.6722-7.0662C73.5313-5.3579 76.9642-6.13032 78.753-8.93034C83.8114-16.4299 86.5216-25.656 86.5216-35.1471ZM105.504-35.1471C105.504-47.9895 101.886-60.5357 95.1846-71.083C93.3568-74.0025 89.7686-74.8497 86.8649-73.0521C83.911-71.2936 83.2134-67.5659 85.2108-64.2951C90.6411-55.8551 93.5273-45.7269 93.5273-35.1471C93.5273-24.6276 90.6109-14.4692 85.2108-5.999C83.2134-2.72819 83.911 0.999477 86.8649 2.75802C89.7385 4.52539 93.3266 3.64797 95.1846 0.758714C101.886-9.72821 105.504-22.3046 105.504-35.1471Z"/>
  </g>
  <g id="Bold-L" transform="matrix(1 0 0 1 2262.89 1556)">
   <path d="M77.0704 30.5711C113.182 30.5711 142.92 0.870872 142.92-35.2405C142.92-71.3519 113.144-101.052 77.0324-101.052C40.9458-101.052 11.2588-71.3519 11.2588-35.2405C11.2588 0.870872 40.9838 30.5711 77.0704 30.5711ZM77.0704 15.8255C48.8167 15.8255 26.0672-6.94878 26.0672-35.2405C26.0672-63.5322 48.7787-86.3065 77.0324-86.3065C105.324-86.3065 128.136-63.5322 128.136-35.2405C128.136-6.94878 105.362 15.8255 77.0704 15.8255ZM65.2623-35.2086C65.2623-41.381 63.3349-47.6162 60.0388-52.2778C58.4051-54.5031 55.3983-55.0583 53.0023-53.619C50.3066-51.8465 49.8715-48.6513 51.7723-45.6257C53.7405-42.9116 54.857-39.1485 54.857-35.2086C54.857-31.3446 53.7405-27.5815 51.7723-24.7914C49.9095-21.7658 50.3446-18.6086 53.0023-16.8361C55.3983-15.3588 58.4431-15.952 60.0388-18.2152C63.3349-22.6869 65.2623-28.9221 65.2623-35.2086ZM84.6099-35.2086C84.6099-45.2439 81.7611-54.8015 76.4567-62.3103C74.8363-64.7575 71.8559-65.4295 69.3883-63.8516C66.8551-62.2999 66.253-59.0843 68.0354-56.1683C71.9986-50.4171 74.1666-43.0027 74.1666-35.2086C74.1666-27.4144 71.9986-20 68.0354-14.2488C66.253-11.3708 66.8551-8.11717 69.3883-6.56554C71.8559-5.02555 74.8363-5.65957 76.4567-8.10679C81.7611-15.7296 84.6099-25.2872 84.6099-35.2086ZM103.93-35.2086C103.93-48.6362 100.088-61.6833 92.9567-72.5373C91.3203-75.0809 88.1923-75.7821 85.6955-74.1837C83.1562-72.6013 82.5894-69.3724 84.3646-66.6084C90.3327-57.7457 93.5495-46.7483 93.5495-35.2086C93.5495-23.7448 90.2947-12.7093 84.3646-3.80868C82.5894-1.04467 83.1562 2.18418 85.6955 3.7666C88.1543 5.32701 91.2823 4.58781 92.9567 2.08219C100.088-8.69586 103.93-21.7809 103.93-35.2086Z"/>
  </g>
  <g id="Semibold-L" transform="matrix(1 0 0 1 1966.99 1556)">
   <path d="M76.2549 29.745C111.889 29.745 141.294 0.383422 141.294-35.2511C141.294-70.8857 111.846-100.247 76.2116-100.247C40.6019-100.247 11.2588-70.8857 11.2588-35.2511C11.2588 0.383422 40.6453 29.745 76.2549 29.745ZM76.2549 17.065C47.3072 17.065 24.0071-6.26 24.0071-35.2511C24.0071-64.2423 47.2638-87.5672 76.2116-87.5672C105.203-87.5672 128.571-64.2423 128.571-35.2511C128.571-6.26 105.246 17.065 76.2549 17.065ZM63.7327-35.2509C63.7327-41.5295 61.7842-47.8762 58.4565-52.559C56.9337-54.5834 54.2283-55.091 52.0862-53.7787C49.6656-52.1383 49.2938-49.2656 51.0149-46.6159C53.1787-43.7225 54.4277-39.5672 54.4277-35.2509C54.4277-31.0215 53.1787-26.8662 51.0149-23.886C49.3371-21.2363 49.709-18.407 52.0862-16.7665C54.2283-15.4108 56.977-15.9619 58.4565-18.0297C61.7842-22.4956 63.7327-28.8423 63.7327-35.2509ZM83.292-35.2509C83.292-45.599 80.3477-55.3853 74.8737-62.9629C73.3694-65.1669 70.701-65.7488 68.5032-64.2815C66.2929-62.8886 65.7545-60.0221 67.3518-57.4714C71.606-51.4663 73.9436-43.5745 73.9436-35.2509C73.9436-26.9274 71.606-19.0356 67.3518-13.0305C65.7545-10.5232 66.2929-7.61332 68.5032-6.22038C70.701-4.79643 73.3694-5.33504 74.8737-7.53904C80.3477-15.2467 83.292-25.033 83.292-35.2509ZM102.845-35.2509C102.845-49.0821 98.849-62.4744 91.4208-73.5398C89.9164-75.8244 87.1056-76.4249 84.8893-74.9638C82.6358-73.5028 82.1592-70.6178 83.7812-68.2032C90.1201-59.0492 93.5647-47.4524 93.5647-35.2509C93.5647-23.1362 90.0767-11.4961 83.7812-2.29869C82.1592 0.115934 82.6358 3.0009 84.8893 4.46191C87.0623 5.87964 89.873 5.23573 91.4208 2.99458C98.849-7.98416 102.845-21.4198 102.845-35.2509Z"/>
  </g>
  <g id="Medium-L" transform="matrix(1 0 0 1 1670.9 1556)">
   <path d="M75.6366 29.1187C110.91 29.1187 140.062 0.0138167 140.062-35.2592C140.062-70.5322 110.862-99.637 75.5892-99.637C40.3412-99.637 11.2588-70.5322 11.2588-35.2592C11.2588 0.0138167 40.3886 29.1187 75.6366 29.1187ZM75.6366 18.0048C46.1626 18.0048 22.4451-5.73774 22.4451-35.2592C22.4451-64.7806 46.1152-88.5232 75.5892-88.5232C105.111-88.5232 128.901-64.7806 128.901-35.2592C128.901-5.73774 105.158 18.0048 75.6366 18.0048ZM62.5729-35.2831C62.5729-41.642 60.6084-48.0734 57.2568-52.7721C55.818-54.6443 53.3412-55.1159 51.3915-53.8998C49.1795-52.3595 48.8557-49.7313 50.4406-47.3668C52.7528-44.3373 54.1021-39.8846 54.1021-35.2831C54.1021-30.7764 52.7528-26.3238 50.4406-23.1994C48.9032-20.8348 49.227-18.2541 51.3915-16.7138C53.3412-15.4503 55.8654-15.9694 57.2568-17.8889C60.6084-22.3505 62.5729-28.7818 62.5729-35.2831ZM82.2927-35.2831C82.2927-45.8683 79.276-55.8279 73.6734-63.4576C72.257-65.4772 69.8252-65.9909 67.832-64.6075C65.8667-63.3349 65.3766-60.7331 66.8336-58.4595C71.3084-52.2618 73.7745-44.0081 73.7745-35.2831C73.7745-26.558 71.3084-18.3044 66.8336-12.1067C65.3766-9.88049 65.8667-7.23129 67.832-5.95867C69.8252-4.6227 72.257-5.08896 73.6734-7.10855C79.276-14.8806 82.2927-24.8402 82.2927-35.2831ZM102.022-35.2831C102.022-49.4201 97.9095-63.0742 90.2563-74.3C88.8519-76.3881 86.2816-76.9123 84.2779-75.5553C82.2413-74.1864 81.833-71.5621 83.3389-69.4124C89.9589-60.0375 93.5763-47.9864 93.5763-35.2831C93.5763-22.6747 89.9115-10.5762 83.3389-1.15374C81.833 0.995954 82.2413 3.62018 84.2779 4.98912C86.2342 6.29867 88.8044 5.72701 90.2563 3.6864C97.9095-7.44452 102.022-21.1461 102.022-35.2831Z"/>
  </g>
  <g id="Regular-L" transform="matrix(1 0 0 1 1374.99 1556)">
   <path d="M74.8301 28.3017C109.632 28.3017 138.454-0.468277 138.454-35.2697C138.454-70.0711 109.579-98.8411 74.7774-98.8411C40.0011-98.8411 11.2588-70.0711 11.2588-35.2697C11.2588-0.468277 40.0538 28.3017 74.8301 28.3017ZM74.8301 19.2307C44.6697 19.2307 20.4076-5.05652 20.4076-35.2697C20.4076-65.4829 44.617-89.7701 74.7774-89.7701C104.991-89.7701 129.331-65.4829 129.331-35.2697C129.331-5.05652 105.043 19.2307 74.8301 19.2307ZM61.0601-35.325C61.0601-41.7888 59.0747-48.3305 55.692-53.0502C54.3627-54.7237 52.1841-55.1483 50.4855-54.0578C48.5456-52.6481 48.2843-50.3388 49.6915-48.3462C52.1972-45.1392 53.6776-40.2987 53.6776-35.325C53.6776-30.4569 52.1972-25.6164 49.6915-22.3038C48.3371-20.3112 48.5983-18.0547 50.4855-16.645C52.1841-15.5017 54.4154-15.9791 55.692-17.7054C59.0747-22.1613 61.0601-28.7029 61.0601-35.325ZM80.9893-35.325C80.9893-46.2196 77.8781-56.4052 72.1078-64.103C70.8062-65.882 68.6829-66.3067 66.9566-65.0327C65.3108-63.917 64.8836-61.6606 66.1575-59.7484C70.9202-53.2995 73.554-44.5737 73.554-35.325C73.554-26.0763 70.9202-17.3506 66.1575-10.9017C64.8836-9.04221 65.3108-6.73299 66.9566-5.61731C68.6829-4.3961 70.8062-4.768 72.1078-6.54704C77.8781-14.4031 80.9893-24.5888 80.9893-35.325ZM100.949-35.325C100.949-49.861 96.684-63.8566 88.7373-75.2916C87.4633-77.1234 85.2069-77.548 83.4806-76.3268C81.7266-75.078 81.4075-72.7938 82.7619-70.9897C89.7486-61.3265 93.5913-48.6828 93.5913-35.325C93.5913-22.0728 89.6959-9.37625 82.7619 0.339655C81.4075 2.14381 81.7266 4.42793 83.4806 5.67679C85.1541 6.84523 87.4106 6.36781 88.7373 4.58877C96.684-6.74064 100.949-20.789 100.949-35.325Z"/>
  </g>
  <g id="Light-L" transform="matrix(1 0 0 1 1079.2 1556)">
   <path d="M73.9141 27.3856C108.257 27.3856 136.603-0.926323 136.603-35.2697C136.603-69.6131 108.224-97.925 73.8804-97.925C39.5239-97.925 11.2588-69.6131 11.2588-35.2697C11.2588-0.926323 39.5576 27.3856 73.9141 27.3856ZM73.9141 20.4903C43.0857 20.4903 18.1746-4.40762 18.1746-35.2697C18.1746-66.1318 43.052-91.0297 73.8804-91.0297C104.742-91.0297 129.674-66.1318 129.674-35.2697C129.674-4.40762 104.776 20.4903 73.9141 20.4903ZM59.1325-35.3632C59.1325-41.9033 57.1089-48.4641 53.6117-53.2219C52.5305-54.5519 50.7909-54.8811 49.4739-53.9814C47.9158-52.8198 47.8072-51.0259 48.909-49.434C51.701-45.8453 53.3149-40.6613 53.3149-35.3632C53.3149-30.1324 51.701-24.9484 48.909-21.2923C47.8409-19.7005 47.9494-17.9402 49.4739-16.7786C50.7909-15.8452 52.5642-16.2081 53.6117-17.5718C57.1089-22.1613 59.1325-28.722 59.1325-35.3632ZM79.3289-35.3632C79.3289-46.5058 76.1795-56.6724 70.2566-64.4656C69.2221-65.863 67.576-66.1922 66.2123-65.2045C64.9291-64.3178 64.54-62.5576 65.5277-61.0462C70.6911-54.2537 73.4777-45.2226 73.4777-35.3632C73.4777-25.5038 70.6911-16.4726 65.5277-9.68022C64.54-8.20246 64.9291-6.40854 66.2123-5.52188C67.576-4.56787 69.2221-4.86342 70.2566-6.26076C76.1795-14.155 79.3289-24.3216 79.3289-35.3632ZM99.6319-35.3632C99.6319-50.0519 95.3098-64.1047 87.096-75.8832C86.1083-77.3142 84.348-77.6435 82.9844-76.6894C81.574-75.6887 81.3121-73.8817 82.3802-72.4974C89.7486-62.548 93.8013-49.5034 93.8013-35.3632C93.8013-21.2903 89.715-8.21205 82.3802 1.77105C81.3121 3.15533 81.574 4.96231 82.9844 5.96307C84.3144 6.8834 86.0746 6.52049 87.096 5.12315C95.3098-6.58795 99.6319-20.6745 99.6319-35.3632Z"/>
  </g>
  <g id="Thin-L" transform="matrix(1 0 0 1 783.716 1556)">
   <path d="M72.7024 26.174C106.44 26.174 134.155-1.53213 134.155-35.2697C134.155-69.0073 106.432-96.7134 72.694-96.7134C38.8929-96.7134 11.2588-69.0073 11.2588-35.2697C11.2588-1.53213 38.9013 26.174 72.7024 26.174ZM72.7024 22.1563C40.9906 22.1563 15.2214-3.5494 15.2214-35.2697C15.2214-66.99 40.9821-92.6957 72.694-92.6957C104.414-92.6957 130.128-66.99 130.128-35.2697C130.128-3.5494 104.423 22.1563 72.7024 22.1563ZM56.5831-35.4137C56.5831-42.0548 54.509-48.6408 50.8603-53.4491C50.1073-54.3247 48.9482-54.5277 48.1361-53.8804C47.0828-53.047 47.1761-51.9346 47.8741-50.8728C51.0447-46.7793 52.8353-41.1409 52.8353-35.4137C52.8353-29.7033 51.0447-24.0649 47.8741-19.9545C47.1846-18.8927 47.0912-17.7888 48.1361-16.9553C48.9482-16.2996 50.1157-16.511 50.8603-17.3951C54.509-22.1613 56.5831-28.7473 56.5831-35.4137ZM77.1329-35.4137C77.1329-46.8845 73.9329-57.0258 67.8081-64.9452C67.1271-65.8377 66.112-66.0407 65.2279-65.4317C64.4242-64.8479 64.0857-63.744 64.6948-62.7626C70.3882-55.5158 73.3767-46.0808 73.3767-35.4137C73.3767-24.7465 70.3882-15.3115 64.6948-8.06474C64.0857-7.09182 64.4242-5.97943 65.2279-5.39567C66.112-4.79505 67.1271-4.98963 67.8081-5.88213C73.9329-13.8268 77.1329-23.9682 77.1329-35.4137ZM97.8902-35.4137C97.8902-50.3043 93.4924-64.4329 84.9252-76.6657C84.3161-77.5666 83.2121-77.7697 82.3281-77.169C81.372-76.4964 81.1859-75.3205 81.8754-74.4915C89.7486-64.1635 94.0789-50.5888 94.0789-35.4137C94.0789-20.2554 89.7402-6.6723 81.8754 3.66419C81.1859 4.49314 81.372 5.66909 82.3281 6.34169C83.2037 6.93388 84.3077 6.72243 84.9252 5.82993C93.4924-6.38602 97.8902-20.5231 97.8902-35.4137Z"/>
  </g>
  <g id="Ultralight-L" transform="matrix(1 0 0 1 487.631 1556)">
   <path d="M72.0819 25.5534C105.509 25.5534 132.9-1.84242 132.9-35.2697C132.9-68.697 105.514-96.0928 72.0864-96.0928C38.5697-96.0928 11.2588-68.697 11.2588-35.2697C11.2588-1.84242 38.5652 25.5534 72.0819 25.5534ZM72.0819 23.0096C39.9175 23.0096 13.7087-3.10983 13.7087-35.2697C13.7087-67.4296 39.922-93.549 72.0864-93.549C104.246-93.549 130.361-67.4296 130.361-35.2697C130.361-3.10983 104.242 23.0096 72.0819 23.0096ZM55.2773-35.4395C55.2773-42.1324 53.1774-48.7313 49.4511-53.5655C48.8661-54.2084 48.0044-54.3467 47.4509-53.8287C46.6561-53.1634 46.8529-52.4 47.344-51.6098C50.7086-47.2577 52.5897-41.3866 52.5897-35.4395C52.5897-29.4835 50.7086-23.6124 47.344-19.2693C46.8484-18.479 46.6516-17.7112 47.4509-17.0458C48.0044-16.5323 48.8616-16.6662 49.4511-17.3046C53.1774-22.1613 55.2773-28.7602 55.2773-35.4395ZM76.0081-35.4395C76.0081-47.0784 72.7823-57.2068 66.554-65.1909C66.054-65.8248 65.3621-65.9632 64.7237-65.548C64.1657-65.1194 63.853-64.3516 64.2681-63.6418C70.2331-56.1623 73.325-46.5204 73.325-35.4395C73.325-24.3587 70.2331-14.7168 64.2681-7.2373C63.853-6.52296 64.1657-5.75964 64.7237-5.33103C65.3621-4.9114 66.054-5.05427 66.554-5.6882C72.7823-13.6588 76.0081-23.7872 76.0081-35.4395ZM96.9981-35.4395C96.9981-50.4336 92.5615-64.601 83.8133-77.0665C83.3982-77.6959 82.6304-77.8343 81.9919-77.4147C81.2686-76.9101 81.1212-76.0574 81.6168-75.5129C89.7486-64.9909 94.2211-51.1448 94.2211-35.4395C94.2211-19.7253 89.7531-5.88364 81.6168 4.63384C81.1212 5.17837 81.2686 6.03109 81.9919 6.53563C82.6348 6.95974 83.4027 6.82586 83.8133 6.19193C92.5615-6.28259 96.9981-20.4455 96.9981-35.4395Z"/>
  </g>
  <g id="Black-M" transform="matrix(1 0 0 1 2871.36 1126)">
   <path d="M62.0422 18.116C91.4096 18.116 115.367-5.83621 115.367-35.2035C115.367-64.5709 91.4041-88.5231 62.0367-88.5231C32.6752-88.5231 8.72266-64.5709 8.72266-35.2035C8.72266-5.83621 32.6807 18.116 62.0422 18.116ZM62.0422 0.73415C42.1762 0.73415 26.1158-15.332 26.1158-35.2035C26.1158-55.0751 42.1707-71.1412 62.0367-71.1412C81.9083-71.1412 97.9799-55.0751 97.9799-35.2035C97.9799-15.332 81.9138 0.73415 62.0422 0.73415ZM54.8656-35.0888C54.8656-39.553 53.4279-44.0284 50.9374-47.5844C49.397-49.8427 46.2392-50.3944 43.6896-48.9327C40.839-47.2158 40.3487-43.8699 42.3001-40.4428C43.2877-38.7921 43.7687-37.0314 43.7687-35.0888C43.7687-33.1571 43.2877-31.3965 42.3001-29.7348C40.3542-26.3077 40.8445-22.9673 43.6896-21.2503C46.2392-19.7832 49.4025-20.3404 50.9374-22.6042C53.4279-26.1327 54.8656-30.6081 54.8656-35.0888ZM69.2594-35.0888C69.2594-41.9338 67.3492-48.5907 63.7375-54.2175C62.1968-56.7723 59.0384-57.5524 56.375-56.0684C53.4883-54.4297 52.8285-50.9751 54.7121-47.6674C56.9753-43.9184 58.1571-39.6181 58.1571-35.0888C58.1571-30.5594 56.9753-26.2591 54.7121-22.5101C52.8285-19.2079 53.4883-15.7479 56.375-14.1091C59.0384-12.6307 62.1968-13.4053 63.7375-15.9601C67.3492-21.6034 69.2594-28.2602 69.2594-35.0888ZM83.5898-35.0888C83.5898-44.2355 81.093-53.2434 76.4394-61.0836C74.8413-63.7581 71.558-64.5953 68.8374-63.0027C66.0601-61.4674 65.348-58.0131 67.1227-54.8816C70.674-48.8628 72.4987-42.1494 72.4987-35.0888C72.4987-28.0391 70.6685-21.3203 67.1227-15.2959C65.348-12.1644 66.0601-8.71017 68.8374-7.17492C71.5525-5.58777 74.8358-6.43049 76.4394-9.09943C81.093-16.9287 83.5898-25.9421 83.5898-35.0888Z"/>
  </g>
  <g id="Heavy-M" transform="matrix(1 0 0 1 2575.48 1126)">
   <path d="M61.2053 17.2657C90.0667 17.2657 113.704-6.35571 113.704-35.217C113.704-64.0783 90.0502-87.6997 61.1889-87.6997C32.3418-87.6997 8.72266-64.0783 8.72266-35.217C8.72266-6.35571 32.3582 17.2657 61.2053 17.2657ZM61.2053 2.03478C40.603 2.03478 23.9841-14.5983 23.9841-35.217C23.9841-55.8358 40.5866-72.4688 61.1889-72.4688C81.8077-72.4688 98.4571-55.8358 98.4571-35.217C98.4571-14.5983 81.8241 2.03478 61.2053 2.03478ZM53.3407-35.1343C53.3407-39.7165 51.8845-44.3293 49.3786-47.9039C47.9253-49.9814 45.0554-50.4934 42.7456-49.1516C40.1617-47.5487 39.7188-44.501 41.508-41.4644C42.6822-39.6682 43.3024-37.4843 43.3024-35.1343C43.3024-32.8172 42.6822-30.6332 41.508-28.8042C39.7352-25.7677 40.1781-22.7364 42.7456-21.1335C45.0554-19.7753 47.9417-20.3037 49.3786-22.3976C51.8845-25.8902 53.3407-30.5029 53.3407-35.1343ZM67.9455-35.1343C67.9455-42.3225 65.9223-49.2732 62.1286-54.9668C60.6775-57.2952 57.8121-57.9817 55.4129-56.5766C52.8578-55.0898 52.2704-51.9712 53.9809-49.0406C56.5269-45.0434 57.8908-40.2036 57.8908-35.1343C57.8908-30.065 56.5269-25.2252 53.9809-21.2281C52.2704-18.3139 52.8578-15.1789 55.4129-13.6921C57.8121-12.3034 60.6775-12.9734 62.1286-15.3019C65.9223-21.0446 67.9455-27.9954 67.9455-35.1343ZM82.4971-35.1343C82.4971-44.7596 79.8175-54.1929 74.8451-62.2274C73.3527-64.6595 70.3649-65.3896 67.9221-63.9136C65.4333-62.479 64.8232-59.3581 66.4652-56.5793C70.4045-50.2526 72.4729-42.8658 72.4729-35.1343C72.4729-27.4357 70.3881-20.0324 66.4652-13.6893C64.8232-10.9105 65.4333-7.78967 67.9221-6.35503C70.3485-4.89545 73.3363-5.64197 74.8451-8.05766C79.8175-16.0594 82.4971-25.509 82.4971-35.1343Z"/>
  </g>
  <g id="Bold-M" transform="matrix(1 0 0 1 2279.69 1126)">
   <path d="M60.2692 16.3144C88.5644 16.3144 111.844-6.93686 111.844-35.2321C111.844-63.5273 88.5358-86.7786 60.2405-86.7786C31.9688-86.7786 8.72266-63.5273 8.72266-35.2321C8.72266-6.93686 31.9974 16.3144 60.2692 16.3144ZM60.2692 3.48972C38.8432 3.48972 21.5995-13.7775 21.5995-35.2321C21.5995-56.6867 38.8146-73.9539 60.2405-73.9539C81.6951-73.9539 98.991-56.6867 98.991-35.2321C98.991-13.7775 81.7238 3.48972 60.2692 3.48972ZM51.6349-35.1853C51.6349-39.8995 50.1579-44.6658 47.6349-48.2612C46.279-50.1365 43.7311-50.6041 41.6896-49.3964C39.4041-47.9211 39.0142-45.2069 40.622-42.6072C42.0049-40.6483 42.7808-37.9908 42.7808-35.1853C42.7808-32.437 42.0049-29.7795 40.622-27.7633C39.0429-25.1637 39.4327-22.478 41.6896-21.0028C43.7311-19.7665 46.3077-20.2626 47.6349-22.1666C50.1579-25.6188 51.6349-30.3852 51.6349-35.1853ZM66.4757-35.1853C66.4757-42.7573 64.3262-50.0368 60.3287-55.8049C58.978-57.8802 56.4404-58.462 54.3366-57.1449C52.1524-55.8281 51.6461-53.0854 53.163-50.5766C56.0253-46.3018 57.593-40.8586 57.593-35.1853C57.593-29.5119 56.0253-24.0687 53.163-19.794C51.6461-17.3138 52.1524-14.5424 54.3366-13.2256C56.4404-11.9372 58.978-12.4903 60.3287-14.5656C64.3262-20.4196 66.4757-27.6991 66.4757-35.1853ZM81.2747-35.1853C81.2747-45.3459 78.3906-55.2551 73.0616-63.5069C71.6875-65.6679 69.0304-66.2782 66.8981-64.9327C64.7321-63.6106 64.2361-60.8627 65.7296-58.4784C70.103-51.8074 72.4441-43.6671 72.4441-35.1853C72.4441-26.7607 70.0744-18.5918 65.7296-11.8921C64.2361-9.50785 64.7321-6.75996 66.8981-5.43787C69.0017-4.12098 71.6588-4.7599 73.0616-6.89228C78.3906-15.0869 81.2747-25.0246 81.2747-35.1853Z"/>
  </g>
  <g id="Semibold-M" transform="matrix(1 0 0 1 1983.62 1126)">
   <path d="M59.6238 15.6586C87.5288 15.6586 110.562-7.33749 110.562-35.2425C110.562-63.1475 87.4917-86.1436 59.5867-86.1436C31.7117-86.1436 8.72266-63.1475 8.72266-35.2425C8.72266-7.33749 31.7487 15.6586 59.6238 15.6586ZM59.6238 4.49275C37.63 4.49275 19.9555-13.2117 19.9555-35.2425C19.9555-57.2733 37.5929-74.9777 59.5867-74.9777C81.6175-74.9777 99.359-57.2733 99.359-35.2425C99.359-13.2117 81.6546 4.49275 59.6238 4.49275ZM50.459-35.2204C50.459-40.0256 48.9676-44.8978 46.4328-48.5076C45.1441-50.2435 42.8182-50.6804 40.9616-49.5652C38.8818-48.1779 38.5285-45.6935 40.0112-43.3951C41.538-41.324 42.4212-38.34 42.4212-35.2204C42.4212-32.1748 41.538-29.1909 40.0112-27.0457C38.5655-24.7473 38.9188-22.2999 40.9616-20.9127C42.8182-19.7604 45.1812-20.2344 46.4328-22.0073C48.9676-25.4318 50.459-30.304 50.459-35.2204ZM65.4624-35.2204C65.4624-43.0571 63.2259-50.5632 59.0879-56.3828C57.8064-58.2835 55.4947-58.7931 53.5947-57.5368C51.6662-56.3372 51.2158-53.8535 52.5991-51.6355C55.6795-47.1694 57.3876-41.3101 57.3876-35.2204C57.3876-29.1306 55.6795-23.2714 52.5991-18.8053C51.2158-16.6243 51.6662-14.1036 53.5947-12.904C55.4947-11.6848 57.8064-12.1573 59.0879-14.058C63.2259-19.9887 65.4624-27.4948 65.4624-35.2204ZM80.432-35.2204C80.432-45.7501 77.4069-55.9873 71.8321-64.3889C70.5395-66.363 68.1103-66.8907 66.1921-65.6352C64.2487-64.3907 63.8314-61.8999 65.2226-59.7877C69.8952-52.8792 72.4242-44.2195 72.4242-35.2204C72.4242-26.2954 69.8581-17.5986 65.2226-10.6531C63.8314-8.54084 64.2487-6.05008 66.1921-4.80558C68.0733-3.58707 70.5025-4.15181 71.8321-6.08888C77.4069-14.4164 80.432-24.6906 80.432-35.2204Z"/>
  </g>
  <g id="Medium-M" transform="matrix(1 0 0 1 1687.4 1126)">
   <path d="M59.1344 15.1614C86.7435 15.1614 109.59-7.64127 109.59-35.2504C109.59-62.8595 86.7001-85.6621 59.091-85.6621C31.5167-85.6621 8.72266-62.8595 8.72266-35.2504C8.72266-7.64127 31.5601 15.1614 59.1344 15.1614ZM59.1344 5.25329C36.7101 5.25329 18.709-12.7826 18.709-35.2504C18.709-57.7181 36.6666-75.754 59.091-75.754C81.5587-75.754 99.6381-57.7181 99.6381-35.2504C99.6381-12.7826 81.6021 5.25329 59.1344 5.25329ZM49.5673-35.247C49.5673-40.1213 48.0651-45.0738 45.5213-48.6944C44.2836-50.3246 42.126-50.7382 40.4096-49.6931C38.4858-48.3726 38.1602-46.0625 39.5481-43.9924C41.184-41.8363 42.1485-38.6048 42.1485-35.247C42.1485-31.9761 41.184-28.7446 39.5481-26.5016C38.2036-24.4315 38.5292-22.1649 40.4096-20.8443C42.126-19.7558 44.327-20.2129 45.5213-21.8865C48.0651-25.29 49.5673-30.2425 49.5673-35.247ZM64.6941-35.247C64.6941-43.2844 62.3916-50.9624 58.1471-56.8209C56.918-58.5893 54.7776-59.0441 53.0321-57.8339C51.2974-56.7231 50.8894-54.4359 52.1716-52.4384C55.4173-47.8272 57.232-41.6525 57.232-35.247C57.232-28.8415 55.4173-22.6668 52.1716-18.0556C50.8894-16.1015 51.2974-13.7709 53.0321-12.6601C54.7776-11.4933 56.918-11.9047 58.1471-13.6731C62.3916-19.662 64.6941-27.3399 64.6941-35.247ZM79.7931-35.247C79.7931-46.0566 76.6611-56.5425 70.8998-65.0577C69.6691-66.8901 67.4127-67.3552 65.6569-66.1679C63.8821-64.9822 63.5245-62.6864 64.8381-60.7804C69.7376-53.6919 72.4092-44.6383 72.4092-35.247C72.4092-25.9426 69.6942-16.8456 64.8381-9.71364C63.5245-7.80762 63.8821-5.51182 65.6569-4.32615C67.3693-3.18224 69.6256-3.69073 70.8998-5.47971C76.6611-13.9081 79.7931-24.4374 79.7931-35.247Z"/>
  </g>
  <g id="Regular-M" transform="matrix(1 0 0 1 1391.32 1126)">
   <path d="M58.4961 14.5128C85.7192 14.5128 108.321-8.0375 108.321-35.2606C108.321-62.4838 85.6675-85.0341 58.4443-85.0341C31.2624-85.0341 8.72266-62.4838 8.72266-35.2606C8.72266-8.0375 31.3141 14.5128 58.4961 14.5128ZM58.4961 6.24529C35.5102 6.24529 17.0831-12.223 17.0831-35.2606C17.0831-58.2983 35.4584-76.7666 58.4443-76.7666C81.482-76.7666 100.002-58.2983 100.002-35.2606C100.002-12.223 81.5337 6.24529 58.4961 6.24529ZM48.4043-35.2817C48.4043-40.246 46.8879-45.3033 44.3324-48.938C43.1611-50.4303 41.2231-50.8137 39.6896-49.86C37.9692-48.6265 37.6798-46.5438 38.944-44.7716C40.7222-42.5045 41.7929-38.9502 41.7929-35.2817C41.7929-31.7168 40.7222-28.1625 38.944-25.7919C37.7315-24.0197 38.021-21.9887 39.6896-20.7552C41.2231-19.7498 43.2129-20.1849 44.3324-21.729C46.8879-25.105 48.4043-30.1622 48.4043-35.2817ZM63.692-35.2817C63.692-43.5808 61.3033-51.483 56.9199-57.3924C55.7592-58.9882 53.8423-59.3716 52.2983-58.2214C50.8165-57.2266 50.4638-55.1956 51.6139-53.4857C55.0753-48.6853 57.0289-42.0991 57.0289-35.2817C57.0289-28.4644 55.0753-21.8782 51.6139-17.0778C50.4638-15.4196 50.8165-13.3369 52.2983-12.3421C53.8423-11.2437 55.7592-11.5753 56.9199-13.1711C61.3033-19.2358 63.692-27.1379 63.692-35.2817ZM78.9597-35.2817C78.9597-46.4564 75.6882-57.2668 69.6838-65.9301C68.5337-67.5777 66.5027-67.9611 64.9587-66.8627C63.4041-65.7537 63.1242-63.7122 64.3366-62.0752C69.532-54.7519 72.3895-45.1847 72.3895-35.2817C72.3895-25.4823 69.4803-15.8633 64.3366-8.48826C63.1242-6.85124 63.4041-4.80975 64.9587-3.70082C66.451-2.65419 68.4819-3.08932 69.6838-4.68514C75.6882-13.245 78.9597-24.1071 78.9597-35.2817Z"/>
  </g>
  <g id="Light-M" transform="matrix(1 0 0 1 1095.44 1126)">
   <path d="M57.6748 13.6915C84.4872 13.6915 106.662-8.44816 106.662-35.2606C106.662-62.0731 84.4526-84.2128 57.6401-84.2128C30.8346-84.2128 8.72266-62.0731 8.72266-35.2606C8.72266-8.44816 30.8693 13.6915 57.6748 13.6915ZM57.6748 7.37462C34.09 7.37462 15.0811-11.6412 15.0811-35.2606C15.0811-58.8801 34.0554-77.8959 57.6401-77.8959C81.2595-77.8959 100.31-58.8801 100.31-35.2606C100.31-11.6412 81.2942 7.37462 57.6748 7.37462ZM46.6761-35.316C46.6761-40.3487 45.1254-45.423 42.4673-49.092C41.5185-50.2763 39.974-50.5742 38.7827-49.7916C37.4045-48.7805 37.252-47.1598 38.2424-45.7469C40.2773-43.1377 41.4678-39.2753 41.4678-35.316C41.4678-31.4259 40.2773-27.5636 38.2424-24.885C37.2866-23.4721 37.4392-21.8861 38.7827-20.875C39.974-20.0578 41.5531-20.3902 42.4673-21.6092C45.1254-25.105 46.6761-30.1793 46.6761-35.316ZM62.2034-35.316C62.2034-43.8375 59.7805-51.7225 55.2601-57.7175C54.339-58.9711 52.8499-59.2689 51.6309-58.3754C50.4743-57.5859 50.1558-55.9998 51.0493-54.6493C54.87-49.5408 56.9604-42.6808 56.9604-35.316C56.9604-27.9511 54.87-21.0911 51.0493-15.9827C50.1558-14.6668 50.4743-13.0461 51.6309-12.2565C52.8499-11.3977 54.339-11.6609 55.2601-12.9145C59.7805-19.0133 62.2034-26.8984 62.2034-35.316ZM77.779-35.316C77.779-46.6275 74.4562-57.4892 68.2123-66.4605C67.3188-67.7488 65.7328-68.0466 64.5138-67.1878C63.2672-66.3013 63.0386-64.6876 63.9944-63.427C69.532-55.847 72.5777-45.9204 72.5777-35.316C72.5777-24.7808 69.4974-14.8196 63.9944-7.20494C63.0386-5.94436 63.2672-4.33064 64.5138-3.44415C65.6981-2.61997 67.2842-2.95243 68.2123-4.20603C74.4562-13.1081 77.779-24.0044 77.779-35.316Z"/>
  </g>
  <g id="Thin-M" transform="matrix(1 0 0 1 799.828 1126)">
   <path d="M56.5885 12.6052C82.8578 12.6052 104.466-8.9913 104.466-35.2606C104.466-61.53 82.8458-83.1265 56.5765-83.1265C30.2689-83.1265 8.72266-61.53 8.72266-35.2606C8.72266-8.9913 30.2809 12.6052 56.5885 12.6052ZM56.5885 8.86824C32.2117 8.86824 12.4333-10.8718 12.4333-35.2606C12.4333-59.6495 32.1996-79.3895 56.5765-79.3895C80.9653-79.3895 100.717-59.6495 100.717-35.2606C100.717-10.8718 80.9773 8.86824 56.5885 8.86824ZM44.3904-35.3612C44.3904-40.4845 42.7945-45.5814 40.0005-49.2957C39.3459-50.0727 38.322-50.2573 37.5833-49.7011C36.6577-48.9842 36.6862-47.9745 37.3146-47.0369C39.6889-43.975 41.0378-39.7053 41.0378-35.3612C41.0378-31.0412 39.6889-26.7715 37.3146-23.6856C36.6983-22.748 36.6697-21.7503 37.5833-21.0334C38.322-20.4651 39.3579-20.6618 40.0005-21.4508C42.7945-25.105 44.3904-30.202 44.3904-35.3612ZM60.2345-35.3612C60.2345-44.1769 57.7663-52.0393 53.065-58.1475C52.4607-58.9484 51.5373-59.1331 50.7484-58.5791C50.0217-58.0611 49.7484-57.0635 50.3025-56.1882C54.5984-50.6723 56.8699-43.4503 56.8699-35.3612C56.8699-27.2722 54.5984-20.0501 50.3025-14.5343C49.7484-13.671 50.0217-12.6613 50.7484-12.1434C51.5373-11.6014 52.4607-11.774 53.065-12.575C57.7663-18.7191 60.2345-26.5815 60.2345-35.3612ZM76.2175-35.3612C76.2175-46.8538 72.8268-57.7834 66.266-67.1621C65.712-67.9751 64.7144-68.1598 63.9254-67.6178C63.0861-67.0255 62.9255-65.9775 63.5418-65.2148C69.532-57.2954 72.8267-46.8935 72.8267-35.3612C72.8267-23.8529 69.52-13.4391 63.5418-5.50765C62.9255-4.74494 63.0861-3.69698 63.9254-3.10469C64.7024-2.57471 65.7-2.77139 66.266-3.57237C72.8268-12.9271 76.2175-23.8687 76.2175-35.3612Z"/>
  </g>
  <g id="Ultralight-M" transform="matrix(1 0 0 1 503.679 1126)">
   <path d="M56.0321 12.0488C82.0233 12.0488 103.342-9.26949 103.342-35.2606C103.342-61.2518 82.0228-82.5701 56.0317-82.5701C29.9791-82.5701 8.72266-61.2518 8.72266-35.2606C8.72266-9.26949 29.9795 12.0488 56.0321 12.0488ZM56.0321 9.63326C31.2496 9.63326 11.0772-10.4777 11.0772-35.2606C11.0772-60.0436 31.2492-80.1545 56.0317-80.1545C80.8147-80.1545 100.926-60.0436 100.926-35.2606C100.926-10.4777 80.8151 9.63326 56.0321 9.63326ZM43.2197-35.3844C43.2197-40.554 41.6006-45.6626 38.7371-49.4C38.2332-49.9683 37.4758-50.0951 36.969-49.6547C36.2752-49.0885 36.3965-48.3918 36.8393-47.6976C39.3875-44.4039 40.8176-39.9255 40.8176-35.3844C40.8176-30.8442 39.3875-26.3658 36.8393-23.0712C36.3969-22.377 36.2756-21.6807 36.969-21.1145C37.4758-20.6738 38.2336-20.8009 38.7371-21.3696C41.6006-25.105 43.2197-30.2135 43.2197-35.3844ZM59.2261-35.3844C59.2261-44.3508 56.7347-52.2016 51.9406-58.3677C51.4986-58.9368 50.865-59.0636 50.2963-58.6834C49.7899-58.3045 49.5398-57.6082 49.9199-56.9764C54.4593-51.2519 56.8236-43.8444 56.8236-35.3844C56.8236-26.9244 54.4593-19.5169 49.9199-13.7925C49.5398-13.161 49.7899-12.4643 50.2963-12.0854C50.865-11.7057 51.4986-11.832 51.9406-12.4011C56.7347-18.5685 59.2261-26.4193 59.2261-35.3844ZM75.4177-35.3844C75.4177-46.9697 71.9922-57.9341 65.2692-67.5214C64.8891-68.091 64.1928-68.2177 63.624-67.838C62.9934-67.3964 62.8675-66.6382 63.31-66.1305C69.532-58.0372 72.9542-47.392 72.9542-35.3844C72.9542-23.3777 69.5316-12.732 63.31-4.6383C62.8675-4.1306 62.9934-3.37243 63.624-2.93082C64.1923-2.55153 64.8886-2.67866 65.2692-3.24782C71.9922-12.8343 75.4177-23.7991 75.4177-35.3844Z"/>
  </g>
  <g id="Black-S" transform="matrix(1 0 0 1 2884.57 696)">
   <path d="M48.8281 6.78711C71.9727 6.78711 90.8203-12.0605 90.8203-35.2051C90.8203-58.3496 71.9727-77.1973 48.8281-77.1973C25.6836-77.1973 6.83594-58.3496 6.83594-35.2051C6.83594-12.0605 25.6836 6.78711 48.8281 6.78711ZM48.8281-7.37305C33.4473-7.37305 20.9961-19.8242 20.9961-35.2051C20.9961-50.5859 33.4473-63.0371 48.8281-63.0371C64.209-63.0371 76.6602-50.5859 76.6602-35.2051C76.6602-19.8242 64.209-7.37305 48.8281-7.37305ZM43.3594-35.1074C43.3594-38.5742 42.2363-42.041 40.2832-44.8242C39.0625-46.6309 36.5234-47.0703 34.4727-45.8984C32.1777-44.5312 31.7871-41.8457 33.3496-39.0625C34.082-37.793 34.4238-36.5234 34.4238-35.1074C34.4238-33.6914 34.082-32.4219 33.3496-31.1523C31.7871-28.3691 32.1777-25.6836 34.4727-24.3164C36.5234-23.1445 39.0625-23.584 40.2832-25.3906C42.2363-28.1738 43.3594-31.6406 43.3594-35.1074ZM54.5898-35.1074C54.5898-40.3809 53.125-45.5078 50.3418-49.9023C49.1211-51.9531 46.582-52.5879 44.4336-51.416C42.0898-50.0977 41.5527-47.3145 43.0664-44.6289C44.7754-41.748 45.6543-38.5254 45.6543-35.1074C45.6543-31.6895 44.7754-28.4668 43.0664-25.5859C41.5527-22.9004 42.0898-20.1172 44.4336-18.7988C46.582-17.627 49.1211-18.2617 50.3418-20.3125C53.125-24.707 54.5898-29.834 54.5898-35.1074ZM65.7715-35.1074C65.7715-42.1387 63.8672-49.0723 60.3027-55.1758C59.0332-57.3242 56.3965-58.0078 54.1992-56.7383C51.9531-55.5176 51.3672-52.7344 52.7832-50.1953C55.4688-45.5566 56.8359-40.4785 56.8359-35.1074C56.8359-29.7363 55.4688-24.6582 52.7832-20.0195C51.3672-17.4805 51.9531-14.6973 54.1992-13.4766C56.3965-12.207 59.0332-12.8906 60.3027-15.0391C63.8672-21.1426 65.7715-28.0762 65.7715-35.1074Z"/>
  </g>
  <g id="Heavy-S" transform="matrix(1 0 0 1 2588.47 696)">
   <path d="M48.2173 6.16479C70.9816 6.16479 89.6102-12.4524 89.6102-35.2166C89.6102-57.9808 70.97-76.598 48.2058-76.598C25.4531-76.598 6.83594-57.9808 6.83594-35.2166C6.83594-12.4524 25.4646 6.16479 48.2173 6.16479ZM48.2173-6.40499C32.2833-6.40499 19.4288-19.271 19.4288-35.2166C19.4288-51.1622 32.2718-64.0282 48.2058-64.0282C64.1514-64.0282 77.0289-51.1622 77.0289-35.2166C77.0289-19.271 64.1629-6.40499 48.2173-6.40499ZM42.2761-35.142C42.2761-38.701 41.1415-42.283 39.1884-45.0778C38.0138-46.7692 35.6706-47.1856 33.7812-46.0944C31.6707-44.7963 31.3031-42.3067 32.7619-39.8116C33.6211-38.4614 34.0666-36.8692 34.0666-35.142C34.0666-33.4379 33.6211-31.8457 32.7619-30.4724C31.3146-27.9773 31.6822-25.4992 33.7812-24.2012C35.6706-23.0984 38.0253-23.5264 39.1884-25.2293C41.1415-27.9664 42.2761-31.5484 42.2761-35.142ZM53.6564-35.142C53.6564-40.6805 52.0993-46.061 49.1778-50.5016C48.0032-52.4026 45.6601-52.9682 43.696-51.8309C41.5943-50.6163 41.1148-48.0635 42.5132-45.6546C44.4181-42.6009 45.4353-38.9518 45.4353-35.142C45.4353-31.3322 44.4181-27.6831 42.5132-24.6294C41.1148-22.232 41.5943-19.6677 43.696-18.4531C45.6601-17.3273 48.0032-17.8814 49.1778-19.7824C52.0993-24.2576 53.6564-29.6381 53.6564-35.142ZM64.9878-35.142C64.9878-42.5651 62.9337-49.8559 59.1272-56.0862C57.9153-58.0733 55.4745-58.6762 53.4732-57.4758C51.4345-56.3128 50.9293-53.7601 52.2646-51.4745C55.2383-46.6054 56.7898-40.9971 56.7898-35.142C56.7898-29.3099 55.2267-23.6901 52.2646-18.8095C50.9293-16.5239 51.4345-13.9712 53.4732-12.8081C55.463-11.6193 57.9038-12.2337 59.1272-14.2093C62.9337-20.4165 64.9878-27.7189 64.9878-35.142Z"/>
  </g>
  <g id="Bold-S" transform="matrix(1 0 0 1 2292.43 696)">
   <path d="M47.5342 5.46875C69.873 5.46875 88.2568-12.8906 88.2568-35.2295C88.2568-57.5684 69.8486-75.9277 47.5098-75.9277C25.1953-75.9277 6.83594-57.5684 6.83594-35.2295C6.83594-12.8906 25.2197 5.46875 47.5342 5.46875ZM47.5342-5.32227C30.9814-5.32227 17.6758-18.6523 17.6758-35.2295C17.6758-51.8066 30.957-65.1367 47.5098-65.1367C64.0869-65.1367 77.4414-51.8066 77.4414-35.2295C77.4414-18.6523 64.1113-5.32227 47.5342-5.32227ZM41.0645-35.1807C41.0645-38.8428 39.917-42.5537 37.9639-45.3613C36.8408-46.9238 34.7168-47.3145 33.0078-46.3135C31.1035-45.0928 30.7617-42.8223 32.1045-40.6494C33.1055-39.209 33.667-37.2559 33.667-35.1807C33.667-33.1543 33.1055-31.2012 32.1045-29.7119C30.7861-27.5391 31.1279-25.293 33.0078-24.0723C34.7168-23.0469 36.8652-23.4619 37.9639-25.0488C39.917-27.7344 41.0645-31.4453 41.0645-35.1807ZM52.6123-35.1807C52.6123-41.0156 50.9521-46.6797 47.876-51.1719C46.7529-52.9053 44.6289-53.3936 42.8711-52.2949C41.04-51.1963 40.625-48.9014 41.8945-46.8018C44.0186-43.5547 45.1904-39.4287 45.1904-35.1807C45.1904-30.9326 44.0186-26.8066 41.8945-23.5596C40.625-21.4844 41.04-19.165 42.8711-18.0664C44.6289-16.9922 46.7529-17.4561 47.876-19.1895C50.9521-23.7549 52.6123-29.4189 52.6123-35.1807ZM64.1113-35.1807C64.1113-43.042 61.8896-50.7324 57.8125-57.1045C56.665-58.9111 54.4434-59.4238 52.6611-58.3008C50.8545-57.2021 50.4395-54.9072 51.6846-52.9053C54.9805-47.7783 56.7383-41.5771 56.7383-35.1807C56.7383-28.833 54.9561-22.6074 51.6846-17.4561C50.4395-15.4541 50.8545-13.1592 52.6611-12.0605C54.4189-10.9619 56.6406-11.499 57.8125-13.2812C61.8896-19.6045 64.1113-27.3193 64.1113-35.1807Z"/>
  </g>
  <g id="Semibold-S" transform="matrix(1 0 0 1 1996.19 696)">
   <path d="M47.0632 4.98887C69.1088 4.98887 87.3237-13.1928 87.3237-35.2384C87.3237-57.284 69.0755-75.4656 47.0299-75.4656C25.0176-75.4656 6.83594-57.284 6.83594-35.2384C6.83594-13.1928 25.0509 4.98887 47.0632 4.98887ZM47.0632-4.57578C30.0839-4.57578 16.4672-18.2258 16.4672-35.2384C16.4672-52.251 30.0506-65.901 47.0299-65.901C64.0425-65.901 77.7258-52.251 77.7258-35.2384C77.7258-18.2258 64.0758-4.57578 47.0632-4.57578ZM40.2291-35.2073C40.2291-38.9405 39.0728-42.7403 37.1196-45.5568C36.0321-47.0305 34.0592-47.4033 32.4746-46.4646C30.7125-45.2972 30.3885-43.1777 31.6513-41.2271C32.75-39.7244 33.3915-37.5225 33.3915-35.2073C33.3915-32.9588 32.75-30.7568 31.6513-29.1876C30.4218-27.2369 30.7458-25.1508 32.4746-23.9834C34.0592-23.0113 36.0654-23.4175 37.1196-24.9244C39.0728-27.5744 40.2291-31.3742 40.2291-35.2073ZM51.8925-35.2073C51.8925-41.2467 50.1612-47.1063 46.9784-51.634C45.8909-53.2519 43.918-53.6868 42.3023-52.6148C40.6579-51.5962 40.2873-49.479 41.468-47.5927C43.7431-44.2123 45.0216-39.7575 45.0216-35.2073C45.0216-30.6571 43.7431-26.2023 41.468-22.822C40.2873-20.9689 40.6579-18.8185 42.3023-17.7998C43.918-16.7611 45.8909-17.1628 46.9784-18.7807C50.1612-23.4083 51.8925-29.2679 51.8925-35.2073ZM63.507-35.2073C63.507-43.3708 61.1698-51.3367 56.9061-57.8065C55.803-59.4888 53.7324-59.9393 52.1013-58.8695C50.4546-57.8153 50.1018-55.6981 51.2847-53.8917C54.8027-48.587 56.7027-41.9771 56.7027-35.2073C56.7027-28.5042 54.7694-21.8609 51.2847-16.5229C50.1018-14.7165 50.4546-12.5993 52.1013-11.5451C53.6991-10.5087 55.7697-10.9925 56.9061-12.6414C61.1698-19.0446 63.507-27.0438 63.507-35.2073Z"/>
  </g>
  <g id="Medium-S" transform="matrix(1 0 0 1 1699.83 696)">
   <path d="M46.7061 4.625C68.5293 4.625 86.6162-13.4219 86.6162-35.2451C86.6162-57.0684 68.4893-75.1152 46.666-75.1152C24.8828-75.1152 6.83594-57.0684 6.83594-35.2451C6.83594-13.4219 24.9229 4.625 46.7061 4.625ZM46.7061-4.00977C29.4033-4.00977 15.5508-17.9023 15.5508-35.2451C15.5508-52.5879 29.3633-66.4805 46.666-66.4805C64.0088-66.4805 77.9414-52.5879 77.9414-35.2451C77.9414-17.9023 64.0488-4.00977 46.7061-4.00977ZM39.5957-35.2275C39.5957-39.0146 38.4326-42.8818 36.4795-45.7051C35.4189-47.1113 33.5605-47.4707 32.0703-46.5791C30.416-45.4521 30.1055-43.4473 31.3076-41.665C32.4805-40.1152 33.1826-37.7246 33.1826-35.2275C33.1826-32.8105 32.4805-30.4199 31.3076-28.79C30.1455-27.0078 30.4561-25.043 32.0703-23.916C33.5605-22.9844 35.459-23.3838 36.4795-24.8301C38.4326-27.4531 39.5957-31.3203 39.5957-35.2275ZM51.3467-35.2275C51.3467-41.4219 49.5615-47.4297 46.2979-51.9844C45.2373-53.5146 43.3789-53.9092 41.8711-52.8574C40.3682-51.8994 40.0312-49.917 41.1445-48.1924C43.5342-44.7109 44.8936-40.0068 44.8936-35.2275C44.8936-30.4482 43.5342-25.7441 41.1445-22.2627C40.0312-20.5781 40.3682-18.5557 41.8711-17.5977C43.3789-16.5859 45.2373-16.9404 46.2979-18.4707C49.5615-23.1455 51.3467-29.1533 51.3467-35.2275ZM63.0488-35.2275C63.0488-43.6201 60.624-51.7949 56.2188-58.3389C55.1494-59.9268 53.1934-60.3301 51.6768-59.3008C50.1514-58.2803 49.8457-56.2979 50.9814-54.6396C54.668-49.2002 56.6758-42.2803 56.6758-35.2275C56.6758-28.2549 54.6279-21.2949 50.9814-15.8154C49.8457-14.1572 50.1514-12.1748 51.6768-11.1543C53.1533-10.165 55.1094-10.6084 56.2188-12.1562C60.624-18.6201 63.0488-26.835 63.0488-35.2275Z"/>
  </g>
  <g id="Regular-S" transform="matrix(1 0 0 1 1403.58 696)">
   <path d="M46.2402 4.15039C67.7734 4.15039 85.6934-13.7207 85.6934-35.2539C85.6934-56.7871 67.7246-74.6582 46.1914-74.6582C24.707-74.6582 6.83594-56.7871 6.83594-35.2539C6.83594-13.7207 24.7559 4.15039 46.2402 4.15039ZM46.2402-3.27148C28.5156-3.27148 14.3555-17.4805 14.3555-35.2539C14.3555-53.0273 28.4668-67.2363 46.1914-67.2363C63.9648-67.2363 78.2227-53.0273 78.2227-35.2539C78.2227-17.4805 64.0137-3.27148 46.2402-3.27148ZM38.7695-35.2539C38.7695-39.1113 37.5977-43.0664 35.6445-45.8984C34.6191-47.2168 32.9102-47.5586 31.543-46.7285C30.0293-45.6543 29.7363-43.7988 30.8594-42.2363C32.1289-40.625 32.9102-37.9883 32.9102-35.2539C32.9102-32.6172 32.1289-29.9805 30.8594-28.2715C29.7852-26.709 30.0781-24.9023 31.543-23.8281C32.9102-22.9492 34.668-23.3398 35.6445-24.707C37.5977-27.2949 38.7695-31.25 38.7695-35.2539ZM50.6348-35.2539C50.6348-41.6504 48.7793-47.8516 45.4102-52.4414C44.3848-53.8574 42.6758-54.1992 41.3086-53.1738C39.9902-52.2949 39.6973-50.4883 40.7227-48.9746C43.2617-45.3613 44.7266-40.332 44.7266-35.2539C44.7266-30.1758 43.2617-25.1465 40.7227-21.5332C39.6973-20.0684 39.9902-18.2129 41.3086-17.334C42.6758-16.3574 44.3848-16.6504 45.4102-18.0664C48.7793-22.8027 50.6348-29.0039 50.6348-35.2539ZM62.4512-35.2539C62.4512-43.9453 59.9121-52.3926 55.3223-59.0332C54.2969-60.498 52.4902-60.8398 51.123-59.8633C49.7559-58.8867 49.5117-57.0801 50.5859-55.6152C54.4922-50 56.6406-42.6758 56.6406-35.2539C56.6406-27.9297 54.4434-20.5566 50.5859-14.8926C49.5117-13.4277 49.7559-11.6211 51.123-10.6445C52.4414-9.7168 54.248-10.1074 55.3223-11.5234C59.9121-18.0664 62.4512-26.5625 62.4512-35.2539Z"/>
  </g>
  <g id="Light-S" transform="matrix(1 0 0 1 1107.6 696)">
   <path d="M45.5137 3.42383C66.6836 3.42383 84.2251-14.084 84.2251-35.2539C84.2251-56.4238 66.6499-73.9316 45.48-73.9316C24.3286-73.9316 6.83594-56.4238 6.83594-35.2539C6.83594-14.084 24.3623 3.42383 45.5137 3.42383ZM45.5137-2.27247C27.2593-2.27247 12.5845-16.9658 12.5845-35.2539C12.5845-53.542 27.2256-68.2353 45.48-68.2353C63.7681-68.2353 78.4951-53.542 78.4951-35.2539C78.4951-16.9658 63.8018-2.27247 45.5137-2.27247ZM37.2407-35.2842C37.2407-39.2021 36.0386-43.1724 33.9946-46.0347C33.166-47.0806 31.8052-47.3467 30.7407-46.668C29.5298-45.7905 29.3579-44.3437 30.2388-43.0991C31.7354-41.1851 32.6226-38.2759 32.6226-35.2842C32.6226-32.3599 31.7354-29.4507 30.2388-27.4692C29.3916-26.2246 29.5635-24.8115 30.7407-23.9341C31.8052-23.2217 33.1997-23.5215 33.9946-24.6011C36.0386-27.2949 37.2407-31.2651 37.2407-35.2842ZM49.3179-35.2842C49.3179-41.8774 47.4321-48.0635 43.9419-52.729C43.1284-53.8423 41.7979-54.1084 40.7183-53.3101C39.6875-52.6128 39.4248-51.1997 40.2231-50.0039C43.0801-46.1182 44.666-40.8467 44.666-35.2842C44.666-29.7217 43.0801-24.4502 40.2231-20.5645C39.4248-19.4023 39.6875-17.9556 40.7183-17.2583C41.7979-16.4937 43.1284-16.7261 43.9419-17.8394C47.4321-22.606 49.3179-28.792 49.3179-35.2842ZM61.4067-35.2842C61.4067-44.0967 58.8223-52.5894 54.0205-59.5024C53.2222-60.6494 51.8091-60.9155 50.7295-60.1509C49.6348-59.3711 49.436-57.9429 50.2832-56.811C54.4922-50.9687 56.8071-43.3267 56.8071-35.2842C56.8071-27.3091 54.4585-19.6333 50.2832-13.7573C49.436-12.6255 49.6348-11.1973 50.7295-10.4175C51.7754-9.68652 53.1885-9.98633 54.0205-11.0996C58.8223-17.9453 61.4067-26.4717 61.4067-35.2842Z"/>
  </g>
  <g id="Thin-S" transform="matrix(1 0 0 1 811.863 696)">
   <path d="M44.5527 2.4629C65.2422 2.4629 82.2832-14.5644 82.2832-35.2539C82.2832-55.9434 65.2285-72.9707 44.5391-72.9707C23.8281-72.9707 6.83594-55.9434 6.83594-35.2539C6.83594-14.5644 23.8418 2.4629 44.5527 2.4629ZM44.5527-0.95119C25.5977-0.95119 10.2422-16.2852 10.2422-35.2539C10.2422-54.2226 25.584-69.5566 44.5391-69.5566C63.5078-69.5566 78.8555-54.2226 78.8555-35.2539C78.8555-16.2852 63.5215-0.95119 44.5527-0.95119ZM35.2188-35.3242C35.2188-39.3223 33.9766-43.3125 31.8125-46.2148C31.2442-46.9004 30.3438-47.0664 29.6797-46.5879C28.8691-45.9707 28.8574-45.0644 29.418-44.2402C31.2149-41.9258 32.2422-38.6562 32.2422-35.3242C32.2422-32.0195 31.2149-28.75 29.418-26.4082C28.8711-25.584 28.8828-24.6914 29.6797-24.0742C30.3438-23.582 31.2578-23.7617 31.8125-24.4609C33.9766-27.2949 35.2188-31.2852 35.2188-35.3242ZM47.5762-35.3242C47.5762-42.1777 45.6504-48.3437 42-53.1094C41.4668-53.8223 40.6367-53.9883 39.9375-53.4902C39.2871-53.0332 39.0645-52.1406 39.5625-51.3652C42.8398-47.1191 44.5859-41.5273 44.5859-35.3242C44.5859-29.1211 42.8398-23.5293 39.5625-19.2832C39.0645-18.5215 39.2871-17.6152 39.9375-17.1582C40.6367-16.6738 41.4668-16.8262 42-17.5391C45.6504-22.3457 47.5762-28.5117 47.5762-35.3242ZM60.0254-35.3242C60.0254-44.2969 57.3809-52.8496 52.2989-60.123C51.8008-60.8496 50.9082-61.0156 50.209-60.5312C49.4746-60.0117 49.3359-59.084 49.8828-58.3926C54.4922-52.25 57.0273-44.1875 57.0273-35.3242C57.0273-26.4883 54.4785-18.4121 49.8828-12.2559C49.3359-11.5645 49.4746-10.6367 50.209-10.1172C50.8945-9.64648 51.7871-9.82617 52.2989-10.5391C57.3809-17.7852 60.0254-26.3516 60.0254-35.3242Z"/>
  </g>
  <g id="Ultralight-S" transform="matrix(1 0 0 1 515.649 696)">
   <path d="M44.0606 1.97072C64.5039 1.97072 81.2886-14.8105 81.2886-35.2539C81.2886-55.6973 64.5005-72.4785 44.0571-72.4785C23.5718-72.4785 6.83594-55.6973 6.83594-35.2539C6.83594-14.8105 23.5752 1.97072 44.0606 1.97072ZM44.0606-0.274438C24.7466-0.274438 9.04252-15.9365 9.04252-35.2539C9.04252-54.5713 24.7432-70.2334 44.0571-70.2334C63.3745-70.2334 79.04-54.5713 79.04-35.2539C79.04-15.9365 63.3779-0.274438 44.0606-0.274438ZM34.1831-35.3447C34.1831-39.3838 32.9204-43.3843 30.6949-46.3071C30.2598-46.8081 29.5952-46.9229 29.1362-46.5469C28.5308-46.063 28.6011-45.4336 28.9976-44.8247C30.9483-42.3052 32.0474-38.8511 32.0474-35.3447C32.0474-31.8452 30.9483-28.3911 28.9976-25.8648C28.6045-25.2559 28.5342-24.6299 29.1362-24.146C29.5952-23.7666 30.2632-23.8848 30.6949-24.3892C32.9204-27.2949 34.1831-31.2954 34.1831-35.3447ZM46.6841-35.3447C46.6841-42.3315 44.7378-48.4873 41.0054-53.3042C40.6158-53.812 40.042-53.9268 39.5376-53.5825C39.082-53.2485 38.8799-52.6225 39.2241-52.0625C42.7168-47.6318 44.5449-41.876 44.5449-35.3447C44.5449-28.8135 42.7168-23.0576 39.2241-18.627C38.8799-18.0703 39.082-17.4409 39.5376-17.1069C40.042-16.7661 40.6158-16.8774 41.0054-17.3853C44.7378-22.2124 46.6841-28.3682 46.6841-35.3447ZM59.3179-35.3447C59.3179-44.3994 56.6426-52.9829 51.417-60.4409C51.0728-60.9521 50.4468-61.0669 49.9424-60.7261C49.3926-60.3398 49.2847-59.6684 49.6777-59.2026C54.4922-52.9062 57.1401-44.6284 57.1401-35.3447C57.1401-26.0679 54.4888-17.7866 49.6777-11.4868C49.2847-11.021 49.3926-10.3496 49.9424-9.96338C50.4434-9.62598 51.0694-9.74414 51.417-10.252C56.6426-17.7031 59.3179-26.29 59.3179-35.3447Z"/>
  </g>
 </g>
</svg>
