<?xml version="1.0" encoding="UTF-8"?>
<!--Generator: Apple Native CoreSVG 232.5-->
<!DOCTYPE svg
PUBLIC "-//W3C//DTD SVG 1.1//EN"
       "http://www.w3.org/Graphics/SVG/1.1/DTD/svg11.dtd">
<svg version="1.1" xmlns="http://www.w3.org/2000/svg" xmlns:xlink="http://www.w3.org/1999/xlink" width="3300" height="2200">
 <!--glyph: "uni100B01.medium", point size: 100.0, font version: "19.2d2e1", template writer version: "128"-->
 <style>.monochrome-0 {-sfsymbols-motion-group:1}
.monochrome-1 {-sfsymbols-motion-group:0}

.multicolor-0:tintColor {-sfsymbols-motion-group:1}
.multicolor-1:tintColor {-sfsymbols-motion-group:0}

.hierarchical-0:secondary {-sfsymbols-motion-group:1}
.hierarchical-1:primary {-sfsymbols-motion-group:0}

.SFSymbolsPreviewWireframe {fill:none;opacity:1.0;stroke:black;stroke-width:0.5}
</style>
 <g id="Notes">
  <rect height="2200" id="artboard" style="fill:white;opacity:1" width="3300" x="0" y="0"/>
  <line style="fill:none;stroke:black;opacity:1;stroke-width:0.5;" x1="263" x2="3036" y1="292" y2="292"/>
  <text style="stroke:none;fill:black;font-family:sans-serif;font-size:13;font-weight:bold;" transform="matrix(1 0 0 1 263 322)">Weight/Scale Variations</text>
  <text style="stroke:none;fill:black;font-family:sans-serif;font-size:13;text-anchor:middle;" transform="matrix(1 0 0 1 559.711 322)">Ultralight</text>
  <text style="stroke:none;fill:black;font-family:sans-serif;font-size:13;text-anchor:middle;" transform="matrix(1 0 0 1 856.422 322)">Thin</text>
  <text style="stroke:none;fill:black;font-family:sans-serif;font-size:13;text-anchor:middle;" transform="matrix(1 0 0 1 1153.13 322)">Light</text>
  <text style="stroke:none;fill:black;font-family:sans-serif;font-size:13;text-anchor:middle;" transform="matrix(1 0 0 1 1449.84 322)">Regular</text>
  <text style="stroke:none;fill:black;font-family:sans-serif;font-size:13;text-anchor:middle;" transform="matrix(1 0 0 1 1746.56 322)">Medium</text>
  <text style="stroke:none;fill:black;font-family:sans-serif;font-size:13;text-anchor:middle;" transform="matrix(1 0 0 1 2043.27 322)">Semibold</text>
  <text style="stroke:none;fill:black;font-family:sans-serif;font-size:13;text-anchor:middle;" transform="matrix(1 0 0 1 2339.98 322)">Bold</text>
  <text style="stroke:none;fill:black;font-family:sans-serif;font-size:13;text-anchor:middle;" transform="matrix(1 0 0 1 2636.69 322)">Heavy</text>
  <text style="stroke:none;fill:black;font-family:sans-serif;font-size:13;text-anchor:middle;" transform="matrix(1 0 0 1 2933.4 322)">Black</text>
  <line style="fill:none;stroke:black;opacity:1;stroke-width:0.5;" x1="263" x2="3036" y1="1903" y2="1903"/>
  <g transform="matrix(0.2 0 0 0.2 263 1933)">
   <path d="m46.2402 4.15039c21.5332 0 39.4531-17.8711 39.4531-39.4043s-17.9688-39.4043-39.502-39.4043c-21.4844 0-39.3555 17.8711-39.3555 39.4043s17.9199 39.4043 39.4043 39.4043Zm0-7.42188c-17.7246 0-31.8848-14.209-31.8848-31.9824s14.1113-31.9824 31.8359-31.9824c17.7734 0 32.0312 14.209 32.0312 31.9824s-14.209 31.9824-31.9824 31.9824Zm-17.9688-31.9824c0 2.14844 1.51367 3.61328 3.75977 3.61328h10.498v10.5957c0 2.19727 1.46484 3.71094 3.61328 3.71094 2.24609 0 3.71094-1.51367 3.71094-3.71094v-10.5957h10.5957c2.19727 0 3.71094-1.46484 3.71094-3.61328 0-2.19727-1.51367-3.71094-3.71094-3.71094h-10.5957v-10.5469c0-2.24609-1.46484-3.75977-3.71094-3.75977-2.14844 0-3.61328 1.51367-3.61328 3.75977v10.5469h-10.498c-2.24609 0-3.75977 1.51367-3.75977 3.71094Z"/>
  </g>
  <g transform="matrix(0.2 0 0 0.2 281.506 1933)">
   <path d="m58.5449 14.5508c27.2461 0 49.8047-22.6074 49.8047-49.8047 0-27.2461-22.6074-49.8047-49.8535-49.8047-27.1973 0-49.7559 22.5586-49.7559 49.8047 0 27.1973 22.6074 49.8047 49.8047 49.8047Zm0-8.30078c-23.0469 0-41.4551-18.457-41.4551-41.5039s18.3594-41.5039 41.4062-41.5039 41.5527 18.457 41.5527 41.5039-18.457 41.5039-41.5039 41.5039Zm-22.6562-41.5039c0 2.39258 1.66016 4.00391 4.15039 4.00391h14.3555v14.4043c0 2.44141 1.66016 4.15039 4.05273 4.15039 2.44141 0 4.15039-1.66016 4.15039-4.15039v-14.4043h14.4043c2.44141 0 4.15039-1.61133 4.15039-4.00391 0-2.44141-1.70898-4.15039-4.15039-4.15039h-14.4043v-14.3555c0-2.49023-1.70898-4.19922-4.15039-4.19922-2.39258 0-4.05273 1.70898-4.05273 4.19922v14.3555h-14.3555c-2.49023 0-4.15039 1.70898-4.15039 4.15039Z"/>
  </g>
  <g transform="matrix(0.2 0 0 0.2 304.924 1933)">
   <path d="m74.8535 28.3203c34.8145 0 63.623-28.8086 63.623-63.5742 0-34.8145-28.8574-63.623-63.6719-63.623-34.7656 0-63.5254 28.8086-63.5254 63.623 0 34.7656 28.8086 63.5742 63.5742 63.5742Zm0-9.08203c-30.1758 0-54.4434-24.3164-54.4434-54.4922 0-30.2246 24.2188-54.4922 54.3945-54.4922 30.2246 0 54.541 24.2676 54.541 54.4922 0 30.1758-24.2676 54.4922-54.4922 54.4922Zm-28.8574-54.4922c0 2.58789 1.85547 4.39453 4.58984 4.39453h19.7266v19.7754c0 2.68555 1.85547 4.58984 4.44336 4.58984 2.68555 0 4.54102-1.85547 4.54102-4.58984v-19.7754h19.7754c2.68555 0 4.58984-1.80664 4.58984-4.39453 0-2.73438-1.85547-4.58984-4.58984-4.58984h-19.7754v-19.7266c0-2.73438-1.85547-4.63867-4.54102-4.63867-2.58789 0-4.44336 1.9043-4.44336 4.63867v19.7266h-19.7266c-2.73438 0-4.58984 1.85547-4.58984 4.58984Z"/>
  </g>
  <text style="stroke:none;fill:black;font-family:sans-serif;font-size:13;font-weight:bold;" transform="matrix(1 0 0 1 263 1953)">Design Variations</text>
  <text style="stroke:none;fill:black;font-family:sans-serif;font-size:13;" transform="matrix(1 0 0 1 263 1971)">Symbols are supported in up to nine weights and three scales.</text>
  <text style="stroke:none;fill:black;font-family:sans-serif;font-size:13;" transform="matrix(1 0 0 1 263 1989)">For optimal layout with text and other symbols, vertically align</text>
  <text style="stroke:none;fill:black;font-family:sans-serif;font-size:13;" transform="matrix(1 0 0 1 263 2007)">symbols with the adjacent text.</text>
  <line style="fill:none;stroke:#00AEEF;stroke-width:0.5;opacity:1.0;" x1="776" x2="776" y1="1919" y2="1933"/>
  <g transform="matrix(0.2 0 0 0.2 776 1933)">
   <path d="m16.5527 0.78125c2.58789 0 3.85742-0.976562 4.78516-3.71094l6.29883-17.2363h28.8086l6.29883 17.2363c0.927734 2.73438 2.19727 3.71094 4.73633 3.71094 2.58789 0 4.24805-1.5625 4.24805-4.00391 0-0.830078-0.146484-1.61133-0.537109-2.63672l-22.9004-60.9863c-1.12305-2.97852-3.125-4.49219-6.25-4.49219-3.02734 0-5.07812 1.46484-6.15234 4.44336l-22.9004 61.084c-0.390625 1.02539-0.537109 1.80664-0.537109 2.63672 0 2.44141 1.5625 3.95508 4.10156 3.95508Zm13.4766-28.3691 11.8652-32.8613h0.244141l11.8652 32.8613Z"/>
  </g>
  <line style="fill:none;stroke:#00AEEF;stroke-width:0.5;opacity:1.0;" x1="792.836" x2="792.836" y1="1919" y2="1933"/>
  <text style="stroke:none;fill:black;font-family:sans-serif;font-size:13;font-weight:bold;" transform="matrix(1 0 0 1 776 1953)">Margins</text>
  <text style="stroke:none;fill:black;font-family:sans-serif;font-size:13;" transform="matrix(1 0 0 1 776 1971)">Leading and trailing margins on the left and right side of each symbol</text>
  <text style="stroke:none;fill:black;font-family:sans-serif;font-size:13;" transform="matrix(1 0 0 1 776 1989)">can be adjusted by modifying the x-location of the margin guidelines.</text>
  <text style="stroke:none;fill:black;font-family:sans-serif;font-size:13;" transform="matrix(1 0 0 1 776 2007)">Modifications are automatically applied proportionally to all</text>
  <text style="stroke:none;fill:black;font-family:sans-serif;font-size:13;" transform="matrix(1 0 0 1 776 2025)">scales and weights.</text>
  <g transform="matrix(0.2 0 0 0.2 1289 1933)">
   <path d="m14.209 9.32617 8.49609 8.54492c4.29688 4.3457 9.22852 4.05273 13.8672-1.07422l53.4668-58.9355-4.83398-4.88281-53.0762 58.3984c-1.75781 2.00195-3.41797 2.49023-5.76172 0.146484l-5.85938-5.81055c-2.34375-2.29492-1.80664-4.00391 0.195312-5.81055l57.373-54.0039-4.88281-4.83398-57.959 54.4434c-4.93164 4.58984-5.32227 9.47266-1.02539 13.8184Zm32.0801-90.9668c-2.09961 2.05078-2.24609 4.93164-1.07422 6.88477 1.17188 1.80664 3.4668 2.97852 6.68945 2.14844 7.32422-1.70898 14.9414-2.00195 22.0703 2.68555l-2.92969 7.27539c-1.70898 4.15039-0.830078 7.08008 1.85547 9.81445l11.4746 11.5723c2.44141 2.44141 4.49219 2.53906 7.32422 2.05078l5.32227-0.976562 3.32031 3.36914-0.195312 2.7832c-0.195312 2.49023 0.439453 4.39453 2.88086 6.78711l3.80859 3.71094c2.39258 2.39258 5.46875 2.53906 7.8125 0.195312l14.5508-14.5996c2.34375-2.34375 2.24609-5.32227-0.146484-7.71484l-3.85742-3.80859c-2.39258-2.39258-4.24805-3.17383-6.64062-2.97852l-2.88086 0.244141-3.22266-3.17383 1.2207-5.61523c0.634766-2.83203-0.146484-5.0293-3.07617-7.95898l-10.9863-10.9375c-16.6992-16.6016-38.8672-16.2109-53.3203-1.75781Zm7.4707 1.85547c12.1582-8.88672 28.6133-7.37305 39.7461 3.75977l12.1582 12.0605c1.17188 1.17188 1.36719 2.09961 1.02539 3.80859l-1.61133 7.42188 7.51953 7.42188 4.93164-0.292969c1.26953-0.0488281 1.66016 0.0488281 2.63672 1.02539l2.88086 2.88086-12.207 12.207-2.88086-2.88086c-0.976562-0.976562-1.12305-1.36719-1.07422-2.68555l0.341797-4.88281-7.4707-7.42188-7.61719 1.26953c-1.61133 0.341797-2.34375 0.195312-3.56445-0.976562l-10.0098-10.0098c-1.26953-1.17188-1.41602-2.00195-0.634766-3.85742l4.39453-10.4492c-7.8125-7.27539-17.9688-10.4004-28.125-7.42188-0.78125 0.195312-1.07422-0.439453-0.439453-0.976562Z"/>
  </g>
  <text style="stroke:none;fill:black;font-family:sans-serif;font-size:13;font-weight:bold;" transform="matrix(1 0 0 1 1289 1953)">Exporting</text>
  <text style="stroke:none;fill:black;font-family:sans-serif;font-size:13;" transform="matrix(1 0 0 1 1289 1971)">Symbols should be outlined when exporting to ensure the</text>
  <text style="stroke:none;fill:black;font-family:sans-serif;font-size:13;" transform="matrix(1 0 0 1 1289 1989)">design is preserved when submitting to Xcode.</text>
  <text id="template-version" style="stroke:none;fill:black;font-family:sans-serif;font-size:13;text-anchor:end;" transform="matrix(1 0 0 1 3036 1933)">Template v.5.0</text>
  <text style="stroke:none;fill:black;font-family:sans-serif;font-size:13;text-anchor:end;" transform="matrix(1 0 0 1 3036 1951)">Requires Xcode 15 or greater</text>
  <text id="descriptive-name" style="stroke:none;fill:black;font-family:sans-serif;font-size:13;text-anchor:end;" transform="matrix(1 0 0 1 3036 1969)">Generated from hand.tap</text>
  <text style="stroke:none;fill:black;font-family:sans-serif;font-size:13;text-anchor:end;" transform="matrix(1 0 0 1 3036 1987)">Typeset at 100.0 points</text>
  <text style="stroke:none;fill:black;font-family:sans-serif;font-size:13;" transform="matrix(1 0 0 1 263 726)">Small</text>
  <text style="stroke:none;fill:black;font-family:sans-serif;font-size:13;" transform="matrix(1 0 0 1 263 1156)">Medium</text>
  <text style="stroke:none;fill:black;font-family:sans-serif;font-size:13;" transform="matrix(1 0 0 1 263 1586)">Large</text>
 </g>
 <g id="Guides">
  <g id="H-reference" style="fill:#27AAE1;stroke:none;" transform="matrix(1 0 0 1 339 696)">
   <path d="M0.993654 0L3.63775 0L29.3281-67.1323L30.0303-67.1323L30.0303-70.459L28.1226-70.459ZM11.6885-24.4799L46.9815-24.4799L46.2315-26.7285L12.4385-26.7285ZM55.1196 0L57.7637 0L30.6382-70.459L29.4326-70.459L29.4326-67.1323Z"/>
  </g>
  <line id="Baseline-S" style="fill:none;stroke:#27AAE1;opacity:1;stroke-width:0.5;" x1="263" x2="3036" y1="696" y2="696"/>
  <line id="Capline-S" style="fill:none;stroke:#27AAE1;opacity:1;stroke-width:0.5;" x1="263" x2="3036" y1="625.541" y2="625.541"/>
  <g id="H-reference" style="fill:#27AAE1;stroke:none;" transform="matrix(1 0 0 1 339 1126)">
   <path d="M0.993654 0L3.63775 0L29.3281-67.1323L30.0303-67.1323L30.0303-70.459L28.1226-70.459ZM11.6885-24.4799L46.9815-24.4799L46.2315-26.7285L12.4385-26.7285ZM55.1196 0L57.7637 0L30.6382-70.459L29.4326-70.459L29.4326-67.1323Z"/>
  </g>
  <line id="Baseline-M" style="fill:none;stroke:#27AAE1;opacity:1;stroke-width:0.5;" x1="263" x2="3036" y1="1126" y2="1126"/>
  <line id="Capline-M" style="fill:none;stroke:#27AAE1;opacity:1;stroke-width:0.5;" x1="263" x2="3036" y1="1055.54" y2="1055.54"/>
  <g id="H-reference" style="fill:#27AAE1;stroke:none;" transform="matrix(1 0 0 1 339 1556)">
   <path d="M0.993654 0L3.63775 0L29.3281-67.1323L30.0303-67.1323L30.0303-70.459L28.1226-70.459ZM11.6885-24.4799L46.9815-24.4799L46.2315-26.7285L12.4385-26.7285ZM55.1196 0L57.7637 0L30.6382-70.459L29.4326-70.459L29.4326-67.1323Z"/>
  </g>
  <line id="Baseline-L" style="fill:none;stroke:#27AAE1;opacity:1;stroke-width:0.5;" x1="263" x2="3036" y1="1556" y2="1556"/>
  <line id="Capline-L" style="fill:none;stroke:#27AAE1;opacity:1;stroke-width:0.5;" x1="263" x2="3036" y1="1485.54" y2="1485.54"/>
  <line id="left-margin-Ultralight-S" style="fill:none;stroke:#00AEEF;stroke-width:0.5;opacity:1.0;" x1="520.298" x2="520.298" y1="600.785" y2="720.121"/>
  <line id="right-margin-Ultralight-S" style="fill:none;stroke:#00AEEF;stroke-width:0.5;opacity:1.0;" x1="599.124" x2="599.124" y1="600.785" y2="720.121"/>
  <line id="left-margin-Regular-S" style="fill:none;stroke:#00AEEF;stroke-width:0.5;opacity:1.0;" x1="1405.78" x2="1405.78" y1="600.785" y2="720.121"/>
  <line id="right-margin-Regular-S" style="fill:none;stroke:#00AEEF;stroke-width:0.5;opacity:1.0;" x1="1493.91" x2="1493.91" y1="600.785" y2="720.121"/>
  <line id="left-margin-Black-S" style="fill:none;stroke:#00AEEF;stroke-width:0.5;opacity:1.0;" x1="2881.64" x2="2881.64" y1="600.785" y2="720.121"/>
  <line id="right-margin-Black-S" style="fill:none;stroke:#00AEEF;stroke-width:0.5;opacity:1.0;" x1="2985.16" x2="2985.16" y1="600.785" y2="720.121"/>
 </g>
 <g id="Symbols">
  <g id="Black-S" transform="matrix(1 0 0 1 2881.64 696)">
   <path class="monochrome-0 multicolor-0:tintColor hierarchical-0:secondary SFSymbolsPreviewWireframe" d="M33.6914-95.5566C18.8965-95.5566 6.83594-83.5938 6.83594-68.8477C6.83594-64.0625 8.44727-57.9102 10.9863-53.9551C12.3047-51.9531 14.1113-51.123 15.8691-51.123C20.1172-51.123 22.8516-55.5176 20.2637-59.4727C18.75-62.0117 17.5293-65.5273 17.5293-68.8477C17.5293-77.6855 24.8047-84.8145 33.6426-84.8145C40.7715-84.8145 47.168-80.0293 49.1699-72.9004C49.2188-72.7539 49.2676-72.5586 49.3164-72.4121C50.0488-70.0684 51.2207-68.1152 54.2969-68.1152C57.8613-68.1152 59.8145-70.459 59.8145-73.4375C59.8145-73.9258 59.7168-75.0488 59.5215-75.6348C56.2988-87.6953 45.5078-95.5566 33.6914-95.5566Z"/>
   <path class="monochrome-1 multicolor-1:tintColor hierarchical-1:primary SFSymbolsPreviewWireframe" d="M73.7793 5.76172C94.0918-1.66016 101.318-17.6758 93.7012-38.5254L89.2578-50.8301C85.7422-60.4492 78.1738-64.8926 69.6777-62.3535C67.0898-64.6973 63.2324-65.2832 59.5215-63.9648C58.8379-63.7207 58.1543-63.4277 57.5684-63.0371C54.7363-65.5762 51.3672-66.3574 47.8516-65.0391C47.8027-65.0391 47.7539-65.0391 47.7051-64.9902L45.752-70.3613C43.2617-77.1973 37.1094-80.2246 30.5664-77.832C23.6816-75.3418 20.752-68.9941 23.2422-62.1582L30.957-40.8691C31.0547-40.625 31.0059-40.4297 30.9082-40.3809C30.8105-40.332 30.7129-40.3809 30.6152-40.4297L30.3711-40.5762C27.832-41.9922 24.8535-42.1875 21.875-41.1133C15.918-38.9648 13.2812-33.3496 15.4297-27.4414C16.1133-25.6348 17.0898-23.877 18.3105-22.5098L32.1289-6.10352C43.5059 7.37305 58.1543 11.5234 73.7793 5.76172ZM69.7754-6.10352C58.9844-2.19727 50-5.37109 41.5527-14.3555L27.1484-29.7852C27.002-29.9805 26.9043-30.0781 26.8066-30.2734C26.6602-30.7129 26.8066-31.1523 27.3926-31.3965C27.6855-31.4941 28.0273-31.3965 28.2715-31.1523L38.6719-21.9238C40.4297-20.3125 42.5781-20.1172 44.3848-20.752C46.875-21.6797 48.6328-24.3652 47.4121-27.6855L33.3008-66.5039C33.1055-67.0898 33.3496-67.627 33.8867-67.8223C34.4238-68.0176 35.0586-67.7734 35.2539-67.2363L44.4824-41.8457C45.3613-39.502 47.9492-38.2812 50.293-39.1602C52.6367-39.9902 53.8574-42.627 53.0273-44.9707L50-53.3203C50.293-53.418 50.6348-53.5645 50.9277-53.6621C51.4648-53.8574 52.0996-53.6133 52.2949-53.0762L55.6152-43.9453C56.4453-41.6504 58.9844-40.4785 61.2793-41.3086C63.5742-42.1387 64.7461-44.6289 63.8672-46.9238L61.9141-52.2949C62.2559-52.4414 62.5977-52.5391 62.8906-52.6367C63.3789-52.832 64.0625-52.6367 64.2578-52.0508L66.4062-46.1914C67.2852-43.7988 69.873-42.5781 72.2656-43.457C74.6094-44.2871 75.8301-46.9238 75-49.3164L74.5117-50.5371C76.0254-51.123 76.9531-50.6348 77.6367-48.6816L82.5195-35.3027C87.5-21.582 82.8613-10.8887 69.7754-6.10352Z"/>
  </g>
  <g id="Regular-S" transform="matrix(1 0 0 1 1405.78 696)">
   <path class="monochrome-0 multicolor-0:tintColor hierarchical-0:secondary SFSymbolsPreviewWireframe" d="M26.8066-85.1562C15.7715-85.1562 6.83594-76.2207 6.83594-65.2344C6.83594-60.4492 8.49609-56.0547 11.2793-52.6367C11.9629-51.7578 12.8418-51.416 13.6719-51.416C15.8203-51.416 17.5781-53.9062 15.8203-56.1035C13.7207-58.5449 12.5-61.7188 12.5-65.2344C12.5-73.0957 18.8477-79.4922 26.8066-79.4922C34.668-79.4922 41.0645-73.0957 41.0645-65.2344C41.0645-64.9902 41.0645-64.7461 41.0645-64.3066C41.0645-62.4023 42.4316-61.5234 43.75-61.5234C45.1172-61.5234 46.5332-62.4512 46.6309-63.9648C46.6797-64.3066 46.6797-64.6484 46.6797-65.2344C46.6797-76.2207 37.793-85.1562 26.8066-85.1562Z"/>
   <path class="monochrome-1 multicolor-1:tintColor hierarchical-1:primary SFSymbolsPreviewWireframe" d="M63.0859 0.683594C78.8086-5.0293 85.1562-19.5312 79.0039-36.4746L76.0254-44.6289C72.998-52.9297 67.0898-56.3965 60.2539-54.0039C58.3984-56.3965 55.5664-57.1777 52.5879-56.1035C51.4648-55.6641 50.5371-55.127 49.6582-54.4434C47.6074-57.0801 44.4824-58.0078 41.2598-56.8359C40.4785-56.543 39.7461-56.1523 39.0137-55.6641L34.7656-67.334C33.0078-72.0703 28.7109-74.1699 24.1699-72.5098C19.6289-70.8496 17.627-66.5039 19.3848-61.7188L29.9805-32.6172C30.0293-32.4219 29.9805-32.2266 29.834-32.1777C29.6875-32.1289 29.541-32.1777 29.4434-32.3242L25.7812-36.1816C23.5352-38.5742 20.8496-39.3555 18.1641-38.3789C14.5508-37.0605 12.1582-33.5938 13.6719-29.4922C14.0137-28.3203 14.8438-26.8555 15.8203-25.6836L28.3691-10.498C38.4766 1.70898 50.0488 5.41992 63.0859 0.683594ZM61.2305-5.0293C51.2207-1.41602 41.9434-2.97852 32.7148-14.0137L20.1172-29.1504C19.7266-29.5898 19.4824-29.9805 19.2871-30.6152C18.8477-31.7383 19.2871-33.0078 20.6543-33.4961C21.8262-33.9355 22.7051-33.4961 23.584-32.5684L32.4707-23.5352C34.082-21.875 35.498-21.7285 36.8164-22.2168C38.4277-22.8027 39.0137-24.5117 38.4277-26.2207L24.6094-64.1113C24.1211-65.4297 24.7559-66.748 26.123-67.2363C27.4414-67.7246 28.7109-67.0898 29.1992-65.7715L39.1113-38.623C39.5996-37.207 41.2109-36.6211 42.5781-37.1582C43.9453-37.6465 44.7266-39.1113 44.2383-40.4785L40.7227-50.1465C41.1621-50.6348 41.8457-51.0742 42.4805-51.3184C44.1406-51.9531 45.5078-51.2207 46.1426-49.5605L49.3164-40.7715C49.8535-39.3555 51.4648-38.8184 52.832-39.3066C54.1504-39.7949 54.9805-41.2598 54.4434-42.627L52.002-49.4141C52.4414-49.8535 53.125-50.3418 53.7598-50.5859C55.4199-51.1719 56.8359-50.4395 57.4219-48.7793L59.5703-42.9199C60.0586-41.5527 61.6699-40.9668 63.0371-41.4551C64.3555-41.9434 65.1855-43.4082 64.6973-44.8242L63.2324-48.7305C66.1621-49.8047 68.9941-47.2168 70.9961-41.7969L73.3887-35.2051C78.6133-20.8496 74.1211-9.76562 61.2305-5.0293Z"/>
  </g>
  <g id="Ultralight-S" transform="matrix(1 0 0 1 520.298 696)">
   <path class="monochrome-0 multicolor-0:tintColor hierarchical-0:secondary SFSymbolsPreviewWireframe" d="M22.3565-78.1177C13.7735-78.1177 6.83594-71.1802 6.83594-62.646C6.83594-59.0415 8.042-55.646 10.2803-52.9092C10.5552-52.5298 10.9346-52.3696 11.2652-52.3696C12.0513-52.3696 12.7647-53.3159 12.0513-54.1055C10.0879-56.4107 8.95804-59.4483 8.95804-62.646C8.95804-70.0532 14.9424-75.9502 22.3565-75.9502C29.7183-75.9502 35.6153-70.0078 35.6153-62.646C35.6153-62.4019 35.6153-62.294 35.6153-62.127C35.6153-61.4033 36.1651-61.0693 36.6661-61.0693C37.3521-61.0693 37.7691-61.5884 37.7759-62.1485C37.7794-62.2632 37.7794-62.4234 37.7794-62.646C37.7794-71.1802 30.8453-78.1177 22.3565-78.1177Z"/>
   <path class="monochrome-1 multicolor-1:tintColor hierarchical-1:primary SFSymbolsPreviewWireframe" d="M56.002-2.04099C68.773-6.66405 75.8018-18.0781 69.8765-34.3858L67.5338-40.8145C64.5064-49.0244 59.7789-52.2188 53.7603-50.0987C52.2227-52.2642 49.6631-53.1363 46.8208-52.1075C45.6978-51.7134 44.6338-51.0401 43.6187-50.2202C42.1128-52.4029 39.4873-53.2852 36.628-52.2495C35.6197-51.8658 34.5694-51.2481 33.6099-50.4873L28.8169-63.6558C27.5132-67.3023 24.2154-68.5845 21.2637-67.5147C18.1758-66.354 16.5371-63.3252 17.8408-59.6753L30.1621-25.8965C30.2109-25.7012 30.1621-25.5059 30.0156-25.4571C29.8691-25.4083 29.6772-25.4571 29.5342-25.649L21.2403-35.001C19.1758-37.2573 16.8081-37.8115 14.7129-37.1074C11.8262-36.0615 10.1148-33.1851 11.3106-30.0371C11.607-29.2739 12.1192-28.354 12.687-27.6362L26.5073-10.8159C34.4805-1.10642 44.7813 2.0596 56.002-2.04099ZM55.3272-3.89405C45.1358-0.189951 35.3589-3.34179 28.1285-12.1519L14.3501-29.0142C13.8687-29.5898 13.5337-30.1167 13.2476-30.8877C12.6265-32.6011 13.5201-34.5063 15.3868-35.1763C16.8311-35.7065 18.3457-35.1308 19.7242-33.6128L28.3384-23.9893C29.1778-23.0557 30.0943-22.8638 31.0948-23.2158C32.2066-23.6201 32.8833-24.6934 32.3882-25.9937L19.8413-60.4331C18.9898-62.7959 19.7608-64.8862 21.9453-65.647C24.0811-66.4531 25.9409-65.3189 26.7925-62.9561L35.5694-38.8955C35.8306-38.206 36.3521-37.7109 37.0381-37.9756C37.7696-38.2368 37.8243-38.9297 37.563-39.6157L34.2745-48.648C35.1226-49.3633 36.1695-50.0298 37.0767-50.3193C39.5542-51.2266 41.5572-50.1763 42.6006-47.3809L45.0025-40.8169C45.3579-39.8096 45.9248-39.6357 46.4747-39.8516C46.9756-40.022 47.3516-40.5786 46.9962-41.5371L44.4639-48.5059C45.3121-49.2178 46.3589-49.8877 47.2662-50.1772C49.7437-51.0811 51.75-50.0308 52.7901-47.2354L54.439-42.6929C54.7911-41.7344 55.358-41.5117 55.9078-41.7275C56.4088-41.8979 56.7847-42.4546 56.4327-43.4165L54.65-48.2764C59.2144-49.9409 62.9546-47.126 65.5469-40.0713L67.8487-33.7066C73.3003-18.7153 67.128-8.17628 55.3272-3.89405Z"/>
  </g>
 </g>
</svg>
