<?xml version="1.0" encoding="UTF-8"?>
<!--Generator: Apple Native CoreSVG 232.5-->
<!DOCTYPE svg
PUBLIC "-//W3C//DTD SVG 1.1//EN"
       "http://www.w3.org/Graphics/SVG/1.1/DTD/svg11.dtd">
<svg version="1.1" xmlns="http://www.w3.org/2000/svg" xmlns:xlink="http://www.w3.org/1999/xlink" width="3300" height="2200">
 <!--glyph: "", point size: 100.0, font version: "19.2d2e1", template writer version: "128"-->
 <style>.monochrome-0 {-sfsymbols-motion-group:2}
.monochrome-1 {-sfsymbols-motion-group:1}
.monochrome-2 {-sfsymbols-motion-group:0}

.multicolor-0:tintColor {-sfsymbols-motion-group:2}
.multicolor-1:systemGrayColor {-sfsymbols-motion-group:1}
.multicolor-2:systemOrangeColor {-sfsymbols-motion-group:0}

.hierarchical-0:tertiary {-sfsymbols-motion-group:2}
.hierarchical-1:primary {-sfsymbols-motion-group:1}
.hierarchical-2:secondary {-sfsymbols-motion-group:0}

.SFSymbolsPreviewWireframe {fill:none;opacity:1.0;stroke:black;stroke-width:0.5}
</style>
 <g id="Notes">
  <rect height="2200" id="artboard" style="fill:white;opacity:1" width="3300" x="0" y="0"/>
  <line style="fill:none;stroke:black;opacity:1;stroke-width:0.5;" x1="263" x2="3036" y1="292" y2="292"/>
  <text style="stroke:none;fill:black;font-family:sans-serif;font-size:13;font-weight:bold;" transform="matrix(1 0 0 1 263 322)">Weight/Scale Variations</text>
  <text style="stroke:none;fill:black;font-family:sans-serif;font-size:13;text-anchor:middle;" transform="matrix(1 0 0 1 559.711 322)">Ultralight</text>
  <text style="stroke:none;fill:black;font-family:sans-serif;font-size:13;text-anchor:middle;" transform="matrix(1 0 0 1 856.422 322)">Thin</text>
  <text style="stroke:none;fill:black;font-family:sans-serif;font-size:13;text-anchor:middle;" transform="matrix(1 0 0 1 1153.13 322)">Light</text>
  <text style="stroke:none;fill:black;font-family:sans-serif;font-size:13;text-anchor:middle;" transform="matrix(1 0 0 1 1449.84 322)">Regular</text>
  <text style="stroke:none;fill:black;font-family:sans-serif;font-size:13;text-anchor:middle;" transform="matrix(1 0 0 1 1746.56 322)">Medium</text>
  <text style="stroke:none;fill:black;font-family:sans-serif;font-size:13;text-anchor:middle;" transform="matrix(1 0 0 1 2043.27 322)">Semibold</text>
  <text style="stroke:none;fill:black;font-family:sans-serif;font-size:13;text-anchor:middle;" transform="matrix(1 0 0 1 2339.98 322)">Bold</text>
  <text style="stroke:none;fill:black;font-family:sans-serif;font-size:13;text-anchor:middle;" transform="matrix(1 0 0 1 2636.69 322)">Heavy</text>
  <text style="stroke:none;fill:black;font-family:sans-serif;font-size:13;text-anchor:middle;" transform="matrix(1 0 0 1 2933.4 322)">Black</text>
  <line style="fill:none;stroke:black;opacity:1;stroke-width:0.5;" x1="263" x2="3036" y1="1903" y2="1903"/>
  <g transform="matrix(0.2 0 0 0.2 263 1933)">
   <path d="m46.2402 4.15039c21.5332 0 39.4531-17.8711 39.4531-39.4043s-17.9688-39.4043-39.502-39.4043c-21.4844 0-39.3555 17.8711-39.3555 39.4043s17.9199 39.4043 39.4043 39.4043Zm0-7.42188c-17.7246 0-31.8848-14.209-31.8848-31.9824s14.1113-31.9824 31.8359-31.9824c17.7734 0 32.0312 14.209 32.0312 31.9824s-14.209 31.9824-31.9824 31.9824Zm-17.9688-31.9824c0 2.14844 1.51367 3.61328 3.75977 3.61328h10.498v10.5957c0 2.19727 1.46484 3.71094 3.61328 3.71094 2.24609 0 3.71094-1.51367 3.71094-3.71094v-10.5957h10.5957c2.19727 0 3.71094-1.46484 3.71094-3.61328 0-2.19727-1.51367-3.71094-3.71094-3.71094h-10.5957v-10.5469c0-2.24609-1.46484-3.75977-3.71094-3.75977-2.14844 0-3.61328 1.51367-3.61328 3.75977v10.5469h-10.498c-2.24609 0-3.75977 1.51367-3.75977 3.71094Z"/>
  </g>
  <g transform="matrix(0.2 0 0 0.2 281.506 1933)">
   <path d="m58.5449 14.5508c27.2461 0 49.8047-22.6074 49.8047-49.8047 0-27.2461-22.6074-49.8047-49.8535-49.8047-27.1973 0-49.7559 22.5586-49.7559 49.8047 0 27.1973 22.6074 49.8047 49.8047 49.8047Zm0-8.30078c-23.0469 0-41.4551-18.457-41.4551-41.5039s18.3594-41.5039 41.4062-41.5039 41.5527 18.457 41.5527 41.5039-18.457 41.5039-41.5039 41.5039Zm-22.6562-41.5039c0 2.39258 1.66016 4.00391 4.15039 4.00391h14.3555v14.4043c0 2.44141 1.66016 4.15039 4.05273 4.15039 2.44141 0 4.15039-1.66016 4.15039-4.15039v-14.4043h14.4043c2.44141 0 4.15039-1.61133 4.15039-4.00391 0-2.44141-1.70898-4.15039-4.15039-4.15039h-14.4043v-14.3555c0-2.49023-1.70898-4.19922-4.15039-4.19922-2.39258 0-4.05273 1.70898-4.05273 4.19922v14.3555h-14.3555c-2.49023 0-4.15039 1.70898-4.15039 4.15039Z"/>
  </g>
  <g transform="matrix(0.2 0 0 0.2 304.924 1933)">
   <path d="m74.8535 28.3203c34.8145 0 63.623-28.8086 63.623-63.5742 0-34.8145-28.8574-63.623-63.6719-63.623-34.7656 0-63.5254 28.8086-63.5254 63.623 0 34.7656 28.8086 63.5742 63.5742 63.5742Zm0-9.08203c-30.1758 0-54.4434-24.3164-54.4434-54.4922 0-30.2246 24.2188-54.4922 54.3945-54.4922 30.2246 0 54.541 24.2676 54.541 54.4922 0 30.1758-24.2676 54.4922-54.4922 54.4922Zm-28.8574-54.4922c0 2.58789 1.85547 4.39453 4.58984 4.39453h19.7266v19.7754c0 2.68555 1.85547 4.58984 4.44336 4.58984 2.68555 0 4.54102-1.85547 4.54102-4.58984v-19.7754h19.7754c2.68555 0 4.58984-1.80664 4.58984-4.39453 0-2.73438-1.85547-4.58984-4.58984-4.58984h-19.7754v-19.7266c0-2.73438-1.85547-4.63867-4.54102-4.63867-2.58789 0-4.44336 1.9043-4.44336 4.63867v19.7266h-19.7266c-2.73438 0-4.58984 1.85547-4.58984 4.58984Z"/>
  </g>
  <text style="stroke:none;fill:black;font-family:sans-serif;font-size:13;font-weight:bold;" transform="matrix(1 0 0 1 263 1953)">Design Variations</text>
  <text style="stroke:none;fill:black;font-family:sans-serif;font-size:13;" transform="matrix(1 0 0 1 263 1971)">Symbols are supported in up to nine weights and three scales.</text>
  <text style="stroke:none;fill:black;font-family:sans-serif;font-size:13;" transform="matrix(1 0 0 1 263 1989)">For optimal layout with text and other symbols, vertically align</text>
  <text style="stroke:none;fill:black;font-family:sans-serif;font-size:13;" transform="matrix(1 0 0 1 263 2007)">symbols with the adjacent text.</text>
  <line style="fill:none;stroke:#00AEEF;stroke-width:0.5;opacity:1.0;" x1="776" x2="776" y1="1919" y2="1933"/>
  <g transform="matrix(0.2 0 0 0.2 776 1933)">
   <path d="m16.5527 0.78125c2.58789 0 3.85742-0.976562 4.78516-3.71094l6.29883-17.2363h28.8086l6.29883 17.2363c0.927734 2.73438 2.19727 3.71094 4.73633 3.71094 2.58789 0 4.24805-1.5625 4.24805-4.00391 0-0.830078-0.146484-1.61133-0.537109-2.63672l-22.9004-60.9863c-1.12305-2.97852-3.125-4.49219-6.25-4.49219-3.02734 0-5.07812 1.46484-6.15234 4.44336l-22.9004 61.084c-0.390625 1.02539-0.537109 1.80664-0.537109 2.63672 0 2.44141 1.5625 3.95508 4.10156 3.95508Zm13.4766-28.3691 11.8652-32.8613h0.244141l11.8652 32.8613Z"/>
  </g>
  <line style="fill:none;stroke:#00AEEF;stroke-width:0.5;opacity:1.0;" x1="792.836" x2="792.836" y1="1919" y2="1933"/>
  <text style="stroke:none;fill:black;font-family:sans-serif;font-size:13;font-weight:bold;" transform="matrix(1 0 0 1 776 1953)">Margins</text>
  <text style="stroke:none;fill:black;font-family:sans-serif;font-size:13;" transform="matrix(1 0 0 1 776 1971)">Leading and trailing margins on the left and right side of each symbol</text>
  <text style="stroke:none;fill:black;font-family:sans-serif;font-size:13;" transform="matrix(1 0 0 1 776 1989)">can be adjusted by modifying the x-location of the margin guidelines.</text>
  <text style="stroke:none;fill:black;font-family:sans-serif;font-size:13;" transform="matrix(1 0 0 1 776 2007)">Modifications are automatically applied proportionally to all</text>
  <text style="stroke:none;fill:black;font-family:sans-serif;font-size:13;" transform="matrix(1 0 0 1 776 2025)">scales and weights.</text>
  <g transform="matrix(0.2 0 0 0.2 1289 1933)">
   <path d="m14.209 9.32617 8.49609 8.54492c4.29688 4.3457 9.22852 4.05273 13.8672-1.07422l53.4668-58.9355-4.83398-4.88281-53.0762 58.3984c-1.75781 2.00195-3.41797 2.49023-5.76172 0.146484l-5.85938-5.81055c-2.34375-2.29492-1.80664-4.00391 0.195312-5.81055l57.373-54.0039-4.88281-4.83398-57.959 54.4434c-4.93164 4.58984-5.32227 9.47266-1.02539 13.8184Zm32.0801-90.9668c-2.09961 2.05078-2.24609 4.93164-1.07422 6.88477 1.17188 1.80664 3.4668 2.97852 6.68945 2.14844 7.32422-1.70898 14.9414-2.00195 22.0703 2.68555l-2.92969 7.27539c-1.70898 4.15039-0.830078 7.08008 1.85547 9.81445l11.4746 11.5723c2.44141 2.44141 4.49219 2.53906 7.32422 2.05078l5.32227-0.976562 3.32031 3.36914-0.195312 2.7832c-0.195312 2.49023 0.439453 4.39453 2.88086 6.78711l3.80859 3.71094c2.39258 2.39258 5.46875 2.53906 7.8125 0.195312l14.5508-14.5996c2.34375-2.34375 2.24609-5.32227-0.146484-7.71484l-3.85742-3.80859c-2.39258-2.39258-4.24805-3.17383-6.64062-2.97852l-2.88086 0.244141-3.22266-3.17383 1.2207-5.61523c0.634766-2.83203-0.146484-5.0293-3.07617-7.95898l-10.9863-10.9375c-16.6992-16.6016-38.8672-16.2109-53.3203-1.75781Zm7.4707 1.85547c12.1582-8.88672 28.6133-7.37305 39.7461 3.75977l12.1582 12.0605c1.17188 1.17188 1.36719 2.09961 1.02539 3.80859l-1.61133 7.42188 7.51953 7.42188 4.93164-0.292969c1.26953-0.0488281 1.66016 0.0488281 2.63672 1.02539l2.88086 2.88086-12.207 12.207-2.88086-2.88086c-0.976562-0.976562-1.12305-1.36719-1.07422-2.68555l0.341797-4.88281-7.4707-7.42188-7.61719 1.26953c-1.61133 0.341797-2.34375 0.195312-3.56445-0.976562l-10.0098-10.0098c-1.26953-1.17188-1.41602-2.00195-0.634766-3.85742l4.39453-10.4492c-7.8125-7.27539-17.9688-10.4004-28.125-7.42188-0.78125 0.195312-1.07422-0.439453-0.439453-0.976562Z"/>
  </g>
  <text style="stroke:none;fill:black;font-family:sans-serif;font-size:13;font-weight:bold;" transform="matrix(1 0 0 1 1289 1953)">Exporting</text>
  <text style="stroke:none;fill:black;font-family:sans-serif;font-size:13;" transform="matrix(1 0 0 1 1289 1971)">Symbols should be outlined when exporting to ensure the</text>
  <text style="stroke:none;fill:black;font-family:sans-serif;font-size:13;" transform="matrix(1 0 0 1 1289 1989)">design is preserved when submitting to Xcode.</text>
  <text id="template-version" style="stroke:none;fill:black;font-family:sans-serif;font-size:13;text-anchor:end;" transform="matrix(1 0 0 1 3036 1933)">Template v.5.0</text>
  <text style="stroke:none;fill:black;font-family:sans-serif;font-size:13;text-anchor:end;" transform="matrix(1 0 0 1 3036 1951)">Requires Xcode 15 or greater</text>
  <text id="descriptive-name" style="stroke:none;fill:black;font-family:sans-serif;font-size:13;text-anchor:end;" transform="matrix(1 0 0 1 3036 1969)">Generated from magsafe3</text>
  <text style="stroke:none;fill:black;font-family:sans-serif;font-size:13;text-anchor:end;" transform="matrix(1 0 0 1 3036 1987)">Typeset at 100.0 points</text>
  <text style="stroke:none;fill:black;font-family:sans-serif;font-size:13;" transform="matrix(1 0 0 1 263 726)">Small</text>
  <text style="stroke:none;fill:black;font-family:sans-serif;font-size:13;" transform="matrix(1 0 0 1 263 1156)">Medium</text>
  <text style="stroke:none;fill:black;font-family:sans-serif;font-size:13;" transform="matrix(1 0 0 1 263 1586)">Large</text>
 </g>
 <g id="Guides">
  <g id="H-reference" style="fill:#27AAE1;stroke:none;" transform="matrix(1 0 0 1 339 696)">
   <path d="M0.993654 0L3.63775 0L29.3281-67.1323L30.0303-67.1323L30.0303-70.459L28.1226-70.459ZM11.6885-24.4799L46.9815-24.4799L46.2315-26.7285L12.4385-26.7285ZM55.1196 0L57.7637 0L30.6382-70.459L29.4326-70.459L29.4326-67.1323Z"/>
  </g>
  <line id="Baseline-S" style="fill:none;stroke:#27AAE1;opacity:1;stroke-width:0.5;" x1="263" x2="3036" y1="696" y2="696"/>
  <line id="Capline-S" style="fill:none;stroke:#27AAE1;opacity:1;stroke-width:0.5;" x1="263" x2="3036" y1="625.541" y2="625.541"/>
  <g id="H-reference" style="fill:#27AAE1;stroke:none;" transform="matrix(1 0 0 1 339 1126)">
   <path d="M0.993654 0L3.63775 0L29.3281-67.1323L30.0303-67.1323L30.0303-70.459L28.1226-70.459ZM11.6885-24.4799L46.9815-24.4799L46.2315-26.7285L12.4385-26.7285ZM55.1196 0L57.7637 0L30.6382-70.459L29.4326-70.459L29.4326-67.1323Z"/>
  </g>
  <line id="Baseline-M" style="fill:none;stroke:#27AAE1;opacity:1;stroke-width:0.5;" x1="263" x2="3036" y1="1126" y2="1126"/>
  <line id="Capline-M" style="fill:none;stroke:#27AAE1;opacity:1;stroke-width:0.5;" x1="263" x2="3036" y1="1055.54" y2="1055.54"/>
  <g id="H-reference" style="fill:#27AAE1;stroke:none;" transform="matrix(1 0 0 1 339 1556)">
   <path d="M0.993654 0L3.63775 0L29.3281-67.1323L30.0303-67.1323L30.0303-70.459L28.1226-70.459ZM11.6885-24.4799L46.9815-24.4799L46.2315-26.7285L12.4385-26.7285ZM55.1196 0L57.7637 0L30.6382-70.459L29.4326-70.459L29.4326-67.1323Z"/>
  </g>
  <line id="Baseline-L" style="fill:none;stroke:#27AAE1;opacity:1;stroke-width:0.5;" x1="263" x2="3036" y1="1556" y2="1556"/>
  <line id="Capline-L" style="fill:none;stroke:#27AAE1;opacity:1;stroke-width:0.5;" x1="263" x2="3036" y1="1485.54" y2="1485.54"/>
  <line id="left-margin-Ultralight-S" style="fill:none;stroke:#FF3B30;stroke-width:0.5;opacity:1.0;" x1="498.001" x2="498.001" y1="600.785" y2="720.121"/>
  <line id="right-margin-Ultralight-S" style="fill:none;stroke:#FF3B30;stroke-width:0.5;opacity:1.0;" x1="621.421" x2="621.421" y1="600.785" y2="720.121"/>
  <line id="left-margin-Regular-S" style="fill:none;stroke:#FF3B30;stroke-width:0.5;opacity:1.0;" x1="1382.41" x2="1382.41" y1="600.785" y2="720.121"/>
  <line id="right-margin-Regular-S" style="fill:none;stroke:#FF3B30;stroke-width:0.5;opacity:1.0;" x1="1517.28" x2="1517.28" y1="600.785" y2="720.121"/>
  <line id="left-margin-Black-S" style="fill:none;stroke:#FF3B30;stroke-width:0.5;opacity:1.0;" x1="2861.82" x2="2861.82" y1="600.785" y2="720.121"/>
  <line id="right-margin-Black-S" style="fill:none;stroke:#FF3B30;stroke-width:0.5;opacity:1.0;" x1="3004.98" x2="3004.98" y1="600.785" y2="720.121"/>
 </g>
 <g id="Symbols">
  <g id="Black-S" transform="matrix(1 0 0 1 2861.82 696)">
   <path class="monochrome-0 multicolor-0:tintColor hierarchical-0:tertiary SFSymbolsPreviewWireframe" d="M10.0317-52.4911L10.0317-66.0072L10.2133-66.0072L15.7002-53.0359L17.9053-53.0359L23.3922-66.0072L23.5738-66.0072L23.5738-52.4911L26.2718-52.4911L26.2718-71.2087L22.8733-71.2087L16.9065-56.9922L16.686-56.9922L10.7322-71.2087L7.33368-71.2087L7.33368-52.4911L10.0317-52.4911ZM35.261-54.6054C37.3623-54.6054 38.9189-55.9415 38.9189-57.6926L38.9189-58.873L35.4685-58.6525C33.5228-58.5228 32.6408-57.8612 32.6408-56.616C32.6408-55.3448 33.7433-54.6054 35.261-54.6054ZM34.5475-52.2576C31.8236-52.2576 29.8389-53.905 29.8389-56.4863C29.8389-59.0287 31.7328-60.4944 35.0923-60.702L38.9189-60.9225L38.9189-62.1418C38.9189-63.6335 37.9331-64.4766 36.0263-64.4766C34.4697-64.4766 33.3931-63.9059 33.0818-62.9071L30.3837-62.9071C30.6691-65.3327 32.9521-66.8893 36.156-66.8893C39.6972-66.8893 41.6947-65.1252 41.6947-62.1418L41.6947-52.4911L39.0097-52.4911L39.0097-54.4757L38.7892-54.4757C37.946-53.0619 36.4024-52.2576 34.5475-52.2576ZM55.4054-59.7291C55.4054-62.5439 53.9527-64.3469 51.5789-64.3469C49.1792-64.3469 47.8302-62.5439 47.8302-59.7291C47.8302-56.9143 49.1792-55.1113 51.5789-55.1113C53.9656-55.1113 55.4054-56.9014 55.4054-59.7291ZM51.6178-47.095C48.0896-47.095 45.8067-48.6775 45.5083-51.0772L48.362-51.0772C48.5955-50.0525 49.7759-49.391 51.6567-49.391C53.9786-49.391 55.3536-50.4935 55.3536-52.3614L55.3536-55.0724L55.146-55.0724C54.2899-53.5418 52.7333-52.6987 50.7876-52.6987C47.1816-52.6987 44.9505-55.4875 44.9505-59.7161C44.9505-64.0226 47.2076-66.8504 50.8136-66.8504C52.7593-66.8504 54.4585-65.8905 55.2498-64.3599L55.4703-64.3599L55.4703-66.6169L58.1424-66.6169L58.1424-52.3744C58.1424-49.1445 55.613-47.095 51.6178-47.095ZM61.6317-57.524C61.8392-54.1774 64.6281-52.0371 68.7789-52.0371C73.2151-52.0371 75.9909-54.2812 75.9909-57.8612C75.9909-60.676 74.4084-62.2326 70.5689-63.1276L68.5065-63.6335C66.0679-64.2042 65.0821-64.9695 65.0821-66.3056C65.0821-67.9919 66.6127-69.0944 68.9086-69.0944C71.0878-69.0944 72.5925-68.0178 72.8649-66.2926L75.6926-66.2926C75.524-69.4446 72.7481-71.6627 68.9475-71.6627C64.8615-71.6627 62.1376-69.4446 62.1376-66.111C62.1376-63.3611 63.6812-61.7267 67.0667-60.9355L69.4793-60.3517C71.9569-59.768 73.0465-58.9119 73.0465-57.4851C73.0465-55.8247 71.3342-54.6184 68.9994-54.6184C66.4959-54.6184 64.7578-55.7469 64.5113-57.524L61.6317-57.524ZM84.0332-54.6054C86.1345-54.6054 87.6911-55.9415 87.6911-57.6926L87.6911-58.873L84.2407-58.6525C82.295-58.5228 81.413-57.8612 81.413-56.616C81.413-55.3448 82.5155-54.6054 84.0332-54.6054ZM83.3197-52.2576C80.5958-52.2576 78.6112-53.905 78.6112-56.4863C78.6112-59.0287 80.505-60.4944 83.8645-60.702L87.6911-60.9225L87.6911-62.1418C87.6911-63.6335 86.7053-64.4766 84.7985-64.4766C83.2419-64.4766 82.1653-63.9059 81.854-62.9071L79.1559-62.9071C79.4413-65.3327 81.7243-66.8893 84.9282-66.8893C88.4694-66.8893 90.467-65.1252 90.467-62.1418L90.467-52.4911L87.7819-52.4911L87.7819-54.4757L87.5614-54.4757C86.7182-53.0619 85.1746-52.2576 83.3197-52.2576ZM95.435-52.4911L98.2238-52.4911L98.2238-64.2042L101.337-64.2042L101.337-66.552L98.1849-66.552L98.1849-67.7454C98.1849-69.1333 98.8853-69.743 100.221-69.743C100.688-69.743 101.181-69.6911 101.454-69.6392L101.454-71.8703C100.909-71.9611 100.494-72 99.949-72C97.0045-72 95.435-70.8066 95.435-67.927L95.435-66.552L93.1131-66.552L93.1131-64.2042L95.435-64.2042L95.435-52.4911ZM109.742-64.5155C107.68-64.5155 106.24-63.0628 106.084-60.8576L113.219-60.8576C113.154-63.0757 111.805-64.5155 109.742-64.5155ZM113.206-56.3047L115.891-56.3047C115.255-53.7753 112.998-52.2187 109.768-52.2187C105.721-52.2187 103.244-54.9946 103.244-59.5086C103.244-64.0226 105.773-66.8893 109.755-66.8893C113.686-66.8893 116.059-64.2042 116.059-59.768L116.059-58.7952L106.084-58.7952L106.084-58.6395C106.175-56.162 107.615-54.5925 109.846-54.5925C111.532-54.5925 112.687-55.2021 113.206-56.3047ZM130.756-60.8965L133.117-60.8965C135.568-60.8965 137.086-59.6902 137.086-57.7575C137.086-55.9155 135.477-54.6054 133.195-54.6054C130.925-54.6054 129.368-55.7599 129.186-57.5759L126.398-57.5759C126.566-54.2293 129.264-52.0371 133.195-52.0371C137.099-52.0371 140.056-54.4238 140.056-57.6018C140.056-60.1053 138.5-61.8564 135.944-62.1548L135.944-62.3753C138.007-62.8422 139.291-64.5026 139.291-66.7077C139.291-69.5225 136.619-71.6627 133.143-71.6627C129.394-71.6627 126.955-69.5744 126.761-66.1888L129.524-66.1888C129.679-68.0308 131.015-69.1593 133.052-69.1593C135.088-69.1593 136.424-68.0178 136.424-66.2796C136.424-64.5155 135.036-63.2962 133.026-63.2962L130.756-63.2962L130.756-60.8965Z"/>
   <path class="monochrome-1 multicolor-1:systemGrayColor hierarchical-1:primary SFSymbolsPreviewWireframe" d="M3.65411-40.5367L143.242-40.5367C151.335-40.5367 157.896-33.9759 157.896-25.8826C157.896-17.7894 151.335-11.2285 143.242-11.2285L3.65411-11.2285C-4.43913-11.2285-11-17.7894-11-25.8826C-11-33.9759-4.43913-40.5367 3.65411-40.5367ZM32.1309-36.1938C26.2831-36.1938 21.5425-31.4532 21.5425-25.6053C21.5425-19.7575 26.2831-15.0169 32.1309-15.0169L114.819-15.0169C120.667-15.0169 125.408-19.7575 125.408-25.6053C125.408-31.4532 120.667-36.1938 114.819-36.1938L32.1309-36.1938Z"/>
   <path class="monochrome-2 multicolor-2:systemOrangeColor hierarchical-2:secondary SFSymbolsPreviewWireframe" d="M37.4817-20.1761C34.1805-20.1761 31.5045-22.8522 31.5045-26.1533C31.5045-29.4544 34.1805-32.1305 37.4817-32.1305C40.7828-32.1305 43.4588-29.4544 43.4588-26.1533C43.4588-22.8522 40.7828-20.1761 37.4817-20.1761ZM55.4132-20.1761C52.1121-20.1761 49.436-22.8522 49.436-26.1533C49.436-29.4544 52.1121-32.1305 55.4132-32.1305C58.7143-32.1305 61.3904-29.4544 61.3904-26.1533C61.3904-22.8522 58.7143-20.1761 55.4132-20.1761ZM109.208-20.1761C105.907-20.1761 103.231-22.8522 103.231-26.1533C103.231-29.4544 105.907-32.1305 109.208-32.1305C112.509-32.1305 115.185-29.4544 115.185-26.1533C115.185-22.8522 112.509-20.1761 109.208-20.1761ZM91.2764-20.1761C87.9753-20.1761 85.2992-22.8522 85.2992-26.1533C85.2992-29.4544 87.9753-32.1305 91.2764-32.1305C94.5775-32.1305 97.2536-29.4544 97.2536-26.1533C97.2536-22.8522 94.5775-20.1761 91.2764-20.1761ZM73.3448-20.1761C70.0437-20.1761 67.3676-22.8522 67.3676-26.1533C67.3676-29.4544 70.0437-32.1305 73.3448-32.1305C76.6459-32.1305 79.322-29.4544 79.322-26.1533C79.322-22.8522 76.6459-20.1761 73.3448-20.1761Z"/>
  </g>
  <g id="Regular-S" transform="matrix(1 0 0 1 1382.41 696)">
   <path class="monochrome-0 multicolor-0:tintColor hierarchical-0:tertiary SFSymbolsPreviewWireframe" d="M7.93632-51.5072L7.93632-64.3194L8.10846-64.3194L13.3096-52.0236L15.3998-52.0236L20.6009-64.3194L20.7731-64.3194L20.7731-51.5072L23.3306-51.5072L23.3306-69.25L20.1091-69.25L14.4531-55.7738L14.244-55.7738L8.60029-69.25L5.37881-69.25L5.37881-51.5072L7.93632-51.5072ZM31.8515-53.5114C33.8435-53.5114 35.3189-54.7779 35.3189-56.4378L35.3189-57.5567L32.0483-57.3477C30.2039-57.2247 29.3678-56.5976 29.3678-55.4172C29.3678-54.2123 30.4129-53.5114 31.8515-53.5114ZM31.1753-51.2859C28.5932-51.2859 26.7119-52.8474 26.7119-55.2943C26.7119-57.7043 28.5071-59.0937 31.6917-59.2904L35.3189-59.4994L35.3189-60.6552C35.3189-62.0692 34.3845-62.8685 32.577-62.8685C31.1015-62.8685 30.081-62.3275 29.7859-61.3807L27.2283-61.3807C27.4989-63.68 29.6629-65.1555 32.7-65.1555C36.0567-65.1555 37.9502-63.4833 37.9502-60.6552L37.9502-51.5072L35.405-51.5072L35.405-53.3884L35.196-53.3884C34.3968-52.0482 32.9336-51.2859 31.1753-51.2859ZM50.9468-58.3682C50.9468-61.0364 49.5697-62.7455 47.3196-62.7455C45.0449-62.7455 43.7661-61.0364 43.7661-58.3682C43.7661-55.7 45.0449-53.9909 47.3196-53.9909C49.582-53.9909 50.9468-55.6878 50.9468-58.3682ZM47.3565-46.3922C44.012-46.3922 41.848-47.8923 41.5652-50.167L44.2702-50.167C44.4916-49.1956 45.6105-48.5685 47.3934-48.5685C49.5943-48.5685 50.8977-49.6137 50.8977-51.3842L50.8977-53.9541L50.7009-53.9541C49.8894-52.5032 48.4139-51.7039 46.5696-51.7039C43.1513-51.7039 41.0365-54.3475 41.0365-58.3559C41.0365-62.4381 43.1759-65.1186 46.5941-65.1186C48.4385-65.1186 50.0492-64.2087 50.7993-62.7578L51.0083-62.7578L51.0083-64.8973L53.5412-64.8973L53.5412-51.3965C53.5412-48.3349 51.1436-46.3922 47.3565-46.3922ZM56.8488-56.2779C57.0455-53.1056 59.6891-51.0768 63.6237-51.0768C67.8289-51.0768 70.4602-53.204 70.4602-56.5976C70.4602-59.2658 68.9601-60.7413 65.3206-61.5897L63.3655-62.0692C61.0539-62.6103 60.1195-63.3357 60.1195-64.6022C60.1195-66.2006 61.5704-67.2458 63.7467-67.2458C65.8124-67.2458 67.2387-66.2252 67.4969-64.5899L70.1774-64.5899C70.0175-67.5777 67.3862-69.6803 63.7836-69.6803C59.9104-69.6803 57.3283-67.5777 57.3283-64.4177C57.3283-61.811 58.7915-60.2618 62.0007-59.5117L64.2877-58.9584C66.6362-58.4051 67.669-57.5936 67.669-56.2411C67.669-54.6672 66.046-53.5237 63.8328-53.5237C61.4597-53.5237 59.8121-54.5934 59.5784-56.2779L56.8488-56.2779ZM78.0835-53.5114C80.0755-53.5114 81.5509-54.7779 81.5509-56.4378L81.5509-57.5567L78.2803-57.3477C76.4359-57.2247 75.5998-56.5976 75.5998-55.4172C75.5998-54.2123 76.6449-53.5114 78.0835-53.5114ZM77.4073-51.2859C74.8252-51.2859 72.9439-52.8474 72.9439-55.2943C72.9439-57.7043 74.7391-59.0937 77.9237-59.2904L81.5509-59.4994L81.5509-60.6552C81.5509-62.0692 80.6165-62.8685 78.809-62.8685C77.3335-62.8685 76.313-62.3275 76.0179-61.3807L73.4603-61.3807C73.7309-63.68 75.8949-65.1555 78.932-65.1555C82.2887-65.1555 84.1822-63.4833 84.1822-60.6552L84.1822-51.5072L81.637-51.5072L81.637-53.3884L81.428-53.3884C80.6288-52.0482 79.1656-51.2859 77.4073-51.2859ZM88.8915-51.5072L91.5351-51.5072L91.5351-62.6103L94.4861-62.6103L94.4861-64.8358L91.4982-64.8358L91.4982-65.967C91.4982-67.2826 92.1622-67.8605 93.4286-67.8605C93.8713-67.8605 94.3385-67.8114 94.5967-67.7622L94.5967-69.877C94.0803-69.9631 93.6868-70 93.1704-70C90.3793-70 88.8915-68.8688 88.8915-66.1391L88.8915-64.8358L86.6906-64.8358L86.6906-62.6103L88.8915-62.6103L88.8915-51.5072ZM102.454-62.9054C100.499-62.9054 99.1339-61.5282 98.9863-59.438L105.749-59.438C105.687-61.5405 104.409-62.9054 102.454-62.9054ZM105.737-55.1221L108.282-55.1221C107.679-52.7245 105.54-51.249 102.478-51.249C98.642-51.249 96.2935-53.8803 96.2935-58.1592C96.2935-62.4381 98.6912-65.1555 102.466-65.1555C106.192-65.1555 108.442-62.6103 108.442-58.4051L108.442-57.4829L98.9863-57.4829L98.9863-57.3354C99.0724-54.9869 100.437-53.4991 102.552-53.4991C104.151-53.4991 105.245-54.077 105.737-55.1221ZM122.373-59.4748L124.611-59.4748C126.935-59.4748 128.373-58.3313 128.373-56.4993C128.373-54.7533 126.848-53.5114 124.684-53.5114C122.533-53.5114 121.057-54.6057 120.885-56.3271L118.241-56.3271C118.401-53.1548 120.959-51.0768 124.684-51.0768C128.385-51.0768 131.189-53.3393 131.189-56.3517C131.189-58.7248 129.713-60.3847 127.291-60.6675L127.291-60.8766C129.246-61.3192 130.463-62.8931 130.463-64.9833C130.463-67.6515 127.93-69.6803 124.635-69.6803C121.082-69.6803 118.77-67.7007 118.586-64.4915L121.205-64.4915C121.352-66.2375 122.619-67.3072 124.549-67.3072C126.48-67.3072 127.746-66.2252 127.746-64.5776C127.746-62.9054 126.43-61.7496 124.525-61.7496L122.373-61.7496L122.373-59.4748Z"/>
   <path class="monochrome-1 multicolor-1:systemGrayColor hierarchical-1:primary SFSymbolsPreviewWireframe" d="M1.89087-40.1754L134.208-40.1754C141.88-40.1754 148.099-33.9563 148.099-26.2846C148.099-18.6128 141.88-12.3937 134.208-12.3937L1.89087-12.3937C-5.78084-12.3937-12-18.6128-12-26.2846C-12-33.9563-5.78084-40.1754 1.89087-40.1754ZM28.8845-36.0587C23.3413-36.0587 18.8476-31.565 18.8476-26.0217C18.8476-20.4785 23.3413-15.9848 28.8845-15.9848L107.266-15.9848C112.809-15.9848 117.303-20.4785 117.303-26.0217C117.303-31.565 112.809-36.0587 107.266-36.0587L28.8845-36.0587Z"/>
   <path class="monochrome-2 multicolor-2:systemOrangeColor hierarchical-2:secondary SFSymbolsPreviewWireframe" d="M33.9566-20.8753C30.8274-20.8753 28.2907-23.412 28.2907-26.5411C28.2907-29.6703 30.8274-32.207 33.9566-32.207C37.0858-32.207 39.6225-29.6703 39.6225-26.5411C39.6225-23.412 37.0858-20.8753 33.9566-20.8753ZM50.9542-20.8753C47.825-20.8753 45.2883-23.412 45.2883-26.5411C45.2883-29.6703 47.825-32.207 50.9542-32.207C54.0834-32.207 56.6201-29.6703 56.6201-26.5411C56.6201-23.412 54.0834-20.8753 50.9542-20.8753ZM101.947-20.8753C98.8179-20.8753 96.2812-23.412 96.2812-26.5411C96.2812-29.6703 98.8179-32.207 101.947-32.207C105.076-32.207 107.613-29.6703 107.613-26.5411C107.613-23.412 105.076-20.8753 101.947-20.8753ZM84.9495-20.8753C81.8203-20.8753 79.2836-23.412 79.2836-26.5411C79.2836-29.6703 81.8203-32.207 84.9495-32.207C88.0787-32.207 90.6154-29.6703 90.6154-26.5411C90.6154-23.412 88.0787-20.8753 84.9495-20.8753ZM67.9519-20.8753C64.8227-20.8753 62.286-23.412 62.286-26.5411C62.286-29.6703 64.8227-32.207 67.9519-32.207C71.081-32.207 73.6177-29.6703 73.6177-26.5411C73.6177-23.412 71.081-20.8753 67.9519-20.8753Z"/>
  </g>
  <g id="Ultralight-S" transform="matrix(1 0 0 1 498.001 696)">
   <path class="monochrome-0 multicolor-0:tintColor hierarchical-0:tertiary SFSymbolsPreviewWireframe" d="M5.56194-50.7821L5.56194-62.711L5.72221-62.711L10.5648-51.2629L12.5109-51.2629L17.3535-62.711L17.5137-62.711L17.5137-50.7821L19.8949-50.7821L19.8949-67.3017L16.8955-67.3017L11.6294-54.7546L11.4348-54.7546L6.18013-67.3017L3.18073-67.3017L3.18073-50.7821L5.56194-50.7821ZM27.8285-52.6481C29.6831-52.6481 31.0568-53.8273 31.0568-55.3728L31.0568-56.4145L28.0116-56.2199C26.2944-56.1054 25.516-55.5216 25.516-54.4226C25.516-53.3007 26.489-52.6481 27.8285-52.6481ZM27.1988-50.576C24.7947-50.576 23.0432-52.0299 23.0432-54.3081C23.0432-56.5519 24.7146-57.8455 27.6796-58.0287L31.0568-58.2233L31.0568-59.2995C31.0568-60.616 30.1868-61.3601 28.5039-61.3601C27.1301-61.3601 26.1799-60.8564 25.9052-59.9749L23.524-59.9749C23.7758-62.1157 25.7907-63.4895 28.6184-63.4895C31.7437-63.4895 33.5067-61.9325 33.5067-59.2995L33.5067-50.7821L31.137-50.7821L31.137-52.5336L30.9424-52.5336C30.1982-51.2858 28.8359-50.576 27.1988-50.576ZM45.6074-57.1701C45.6074-59.6543 44.3252-61.2456 42.2302-61.2456C40.1123-61.2456 38.9217-59.6543 38.9217-57.1701C38.9217-54.6859 40.1123-53.0946 42.2302-53.0946C44.3366-53.0946 45.6074-54.6744 45.6074-57.1701ZM42.2645-46.0197C39.1506-46.0197 37.1358-47.4163 36.8725-49.5342L39.391-49.5342C39.5971-48.6298 40.6389-48.046 42.2989-48.046C44.3481-48.046 45.5616-49.0191 45.5616-50.6676L45.5616-53.0602L45.3784-53.0602C44.6228-51.7094 43.2491-50.9652 41.5318-50.9652C38.3493-50.9652 36.3802-53.4266 36.3802-57.1587C36.3802-60.9594 38.3722-63.4551 41.5547-63.4551C43.2719-63.4551 44.7716-62.6079 45.47-61.2571L45.6646-61.2571L45.6646-63.249L48.0229-63.249L48.0229-50.679C48.0229-47.8285 45.7905-46.0197 42.2645-46.0197ZM51.1024-55.2239C51.2856-52.2703 53.747-50.3814 57.4103-50.3814C61.3256-50.3814 63.7755-52.3619 63.7755-55.5216C63.7755-58.0058 62.3788-59.3796 58.9902-60.1695L57.1699-60.616C55.0177-61.1197 54.1476-61.7951 54.1476-62.9743C54.1476-64.4625 55.4985-65.4356 57.5248-65.4356C59.4481-65.4356 60.7761-64.4854 61.0165-62.9628L63.5122-62.9628C63.3633-65.7447 60.9135-67.7023 57.5592-67.7023C53.953-67.7023 51.5489-65.7447 51.5489-62.8026C51.5489-60.3756 52.9112-58.9331 55.8992-58.2348L58.0285-57.7196C60.2151-57.2044 61.1768-56.4489 61.1768-55.1896C61.1768-53.7242 59.6656-52.6596 57.605-52.6596C55.3955-52.6596 53.8614-53.6555 53.6439-55.2239L51.1024-55.2239ZM70.8733-52.6481C72.7279-52.6481 74.1017-53.8273 74.1017-55.3728L74.1017-56.4145L71.0565-56.2199C69.3393-56.1054 68.5608-55.5216 68.5608-54.4226C68.5608-53.3007 69.5339-52.6481 70.8733-52.6481ZM70.2437-50.576C67.8396-50.576 66.088-52.0299 66.088-54.3081C66.088-56.5519 67.7594-57.8455 70.7245-58.0287L74.1017-58.2233L74.1017-59.2995C74.1017-60.616 73.2316-61.3601 71.5487-61.3601C70.175-61.3601 69.2248-60.8564 68.95-59.9749L66.5688-59.9749C66.8207-62.1157 68.8355-63.4895 71.6632-63.4895C74.7885-63.4895 76.5515-61.9325 76.5515-59.2995L76.5515-50.7821L74.1818-50.7821L74.1818-52.5336L73.9872-52.5336C73.2431-51.2858 71.8807-50.576 70.2437-50.576ZM80.9362-50.7821L83.3975-50.7821L83.3975-61.1197L86.145-61.1197L86.145-63.1918L83.3632-63.1918L83.3632-64.245C83.3632-65.47 83.9814-66.008 85.1605-66.008C85.5726-66.008 86.0077-65.9622 86.2481-65.9164L86.2481-67.8855C85.7673-67.9657 85.4009-68 84.9201-68C82.3214-68 80.9362-66.9468 80.9362-64.4053L80.9362-63.1918L78.887-63.1918L78.887-61.1197L80.9362-61.1197L80.9362-50.7821ZM93.5634-61.3945C91.7432-61.3945 90.4724-60.1123 90.3351-58.1661L96.6315-58.1661C96.5743-60.1237 95.3837-61.3945 93.5634-61.3945ZM96.6201-54.1478L98.9898-54.1478C98.4289-51.9154 96.4369-50.5417 93.5863-50.5417C90.0145-50.5417 87.8279-52.9916 87.8279-56.9755C87.8279-60.9594 90.0603-63.4895 93.5749-63.4895C97.0436-63.4895 99.1386-61.1197 99.1386-57.2044L99.1386-56.3458L90.3351-56.3458L90.3351-56.2085C90.4152-54.0219 91.6859-52.6367 93.655-52.6367C95.1432-52.6367 96.1621-53.1747 96.6201-54.1478ZM112.109-58.2004L114.193-58.2004C116.357-58.2004 117.696-57.1358 117.696-55.43C117.696-53.8044 116.276-52.6481 114.262-52.6481C112.258-52.6481 110.884-53.667 110.724-55.2697L108.263-55.2697C108.412-52.3161 110.793-50.3814 114.262-50.3814C117.707-50.3814 120.318-52.4878 120.318-55.2926C120.318-57.5021 118.944-59.0476 116.689-59.3109L116.689-59.5055C118.509-59.9176 119.642-61.383 119.642-63.3292C119.642-65.8134 117.284-67.7023 114.216-67.7023C110.907-67.7023 108.755-65.8592 108.583-62.8713L111.022-62.8713C111.159-64.4969 112.338-65.4929 114.136-65.4929C115.933-65.4929 117.112-64.4854 117.112-62.9514C117.112-61.3945 115.887-60.3183 114.113-60.3183L112.109-60.3183L112.109-58.2004Z"/>
   <path class="monochrome-1 multicolor-1:systemGrayColor hierarchical-1:primary SFSymbolsPreviewWireframe" d="M-0.066745-40.2315L123.129-40.2315C130.272-40.2315 136.062-34.4411 136.062-27.2983C136.062-20.1554 130.272-14.365 123.129-14.365L-0.066745-14.365C-7.20958-14.365-13-20.1554-13-27.2983C-13-34.4411-7.20958-40.2315-0.066745-40.2315ZM25.066-36.3985C19.9049-36.3985 15.721-32.2146 15.721-27.0535C15.721-21.8924 19.9049-17.7085 25.066-17.7085L98.0441-17.7085C103.205-17.7085 107.389-21.8924 107.389-27.0535C107.389-32.2146 103.205-36.3985 98.0441-36.3985L25.066-36.3985Z"/>
   <path class="monochrome-2 multicolor-2:systemOrangeColor hierarchical-2:secondary SFSymbolsPreviewWireframe" d="M29.7884-22.2619C26.8749-22.2619 24.5131-24.6237 24.5131-27.5371C24.5131-30.4506 26.8749-32.8124 29.7884-32.8124C32.7018-32.8124 35.0637-30.4506 35.0637-27.5371C35.0637-24.6237 32.7018-22.2619 29.7884-22.2619ZM45.6142-22.2619C42.7008-22.2619 40.3389-24.6237 40.3389-27.5371C40.3389-30.4506 42.7008-32.8124 45.6142-32.8124C48.5277-32.8124 50.8895-30.4506 50.8895-27.5371C50.8895-24.6237 48.5277-22.2619 45.6142-22.2619ZM93.0918-22.2619C90.1783-22.2619 87.8165-24.6237 87.8165-27.5371C87.8165-30.4506 90.1783-32.8124 93.0918-32.8124C96.0052-32.8124 98.367-30.4506 98.367-27.5371C98.367-24.6237 96.0052-22.2619 93.0918-22.2619ZM77.2659-22.2619C74.3525-22.2619 71.9906-24.6237 71.9906-27.5371C71.9906-30.4506 74.3525-32.8124 77.2659-32.8124C80.1794-32.8124 82.5412-30.4506 82.5412-27.5371C82.5412-24.6237 80.1794-22.2619 77.2659-22.2619ZM61.4401-22.2619C58.5266-22.2619 56.1648-24.6237 56.1648-27.5371C56.1648-30.4506 58.5266-32.8124 61.4401-32.8124C64.3535-32.8124 66.7153-30.4506 66.7153-27.5371C66.7153-24.6237 64.3535-22.2619 61.4401-22.2619Z"/>
  </g>
 </g>
</svg>
