<?xml version="1.0" encoding="UTF-8"?>
<!--Generator: Apple Native CoreSVG 232.5-->
<!DOCTYPE svg
PUBLIC "-//W3C//DTD SVG 1.1//EN"
       "http://www.w3.org/Graphics/SVG/1.1/DTD/svg11.dtd">
<svg version="1.1" xmlns="http://www.w3.org/2000/svg" xmlns:xlink="http://www.w3.org/1999/xlink" width="3300" height="2200">
 <!--glyph: "", point size: 100.0, font version: "19.2d2e1", template writer version: "128"-->
 <style>.monochrome-0 {-sfsymbols-variable-threshold:0.0;-sfsymbols-motion-group:2}
.monochrome-1 {-sfsymbols-variable-threshold:0.51;-sfsymbols-motion-group:1}
.monochrome-2 {-sfsymbols-motion-group:0;-sfsymbols-always-pulses:true}

.multicolor-0:systemMintColor {-sfsymbols-variable-threshold:0.0;-sfsymbols-motion-group:2}
.multicolor-1:systemGreenColor {-sfsymbols-variable-threshold:0.51;-sfsymbols-motion-group:1}
.multicolor-2:systemYellowColor {-sfsymbols-motion-group:0;-sfsymbols-always-pulses:true}

.hierarchical-0:tertiary {-sfsymbols-variable-threshold:0.0;-sfsymbols-motion-group:2}
.hierarchical-1:secondary {-sfsymbols-variable-threshold:0.51;-sfsymbols-motion-group:1}
.hierarchical-2:primary {-sfsymbols-motion-group:0}

.SFSymbolsPreviewWireframe {fill:none;opacity:1.0;stroke:black;stroke-width:0.5}
</style>
 <g id="Notes">
  <rect height="2200" id="artboard" style="fill:white;opacity:1" width="3300" x="0" y="0"/>
  <line style="fill:none;stroke:black;opacity:1;stroke-width:0.5;" x1="263" x2="3036" y1="292" y2="292"/>
  <text style="stroke:none;fill:black;font-family:sans-serif;font-size:13;font-weight:bold;" transform="matrix(1 0 0 1 263 322)">Weight/Scale Variations</text>
  <text style="stroke:none;fill:black;font-family:sans-serif;font-size:13;text-anchor:middle;" transform="matrix(1 0 0 1 559.711 322)">Ultralight</text>
  <text style="stroke:none;fill:black;font-family:sans-serif;font-size:13;text-anchor:middle;" transform="matrix(1 0 0 1 856.422 322)">Thin</text>
  <text style="stroke:none;fill:black;font-family:sans-serif;font-size:13;text-anchor:middle;" transform="matrix(1 0 0 1 1153.13 322)">Light</text>
  <text style="stroke:none;fill:black;font-family:sans-serif;font-size:13;text-anchor:middle;" transform="matrix(1 0 0 1 1449.84 322)">Regular</text>
  <text style="stroke:none;fill:black;font-family:sans-serif;font-size:13;text-anchor:middle;" transform="matrix(1 0 0 1 1746.56 322)">Medium</text>
  <text style="stroke:none;fill:black;font-family:sans-serif;font-size:13;text-anchor:middle;" transform="matrix(1 0 0 1 2043.27 322)">Semibold</text>
  <text style="stroke:none;fill:black;font-family:sans-serif;font-size:13;text-anchor:middle;" transform="matrix(1 0 0 1 2339.98 322)">Bold</text>
  <text style="stroke:none;fill:black;font-family:sans-serif;font-size:13;text-anchor:middle;" transform="matrix(1 0 0 1 2636.69 322)">Heavy</text>
  <text style="stroke:none;fill:black;font-family:sans-serif;font-size:13;text-anchor:middle;" transform="matrix(1 0 0 1 2933.4 322)">Black</text>
  <line style="fill:none;stroke:black;opacity:1;stroke-width:0.5;" x1="263" x2="3036" y1="1903" y2="1903"/>
  <g transform="matrix(0.2 0 0 0.2 263 1933)">
   <path d="m46.2402 4.15039c21.5332 0 39.4531-17.8711 39.4531-39.4043s-17.9688-39.4043-39.502-39.4043c-21.4844 0-39.3555 17.8711-39.3555 39.4043s17.9199 39.4043 39.4043 39.4043Zm0-7.42188c-17.7246 0-31.8848-14.209-31.8848-31.9824s14.1113-31.9824 31.8359-31.9824c17.7734 0 32.0312 14.209 32.0312 31.9824s-14.209 31.9824-31.9824 31.9824Zm-17.9688-31.9824c0 2.14844 1.51367 3.61328 3.75977 3.61328h10.498v10.5957c0 2.19727 1.46484 3.71094 3.61328 3.71094 2.24609 0 3.71094-1.51367 3.71094-3.71094v-10.5957h10.5957c2.19727 0 3.71094-1.46484 3.71094-3.61328 0-2.19727-1.51367-3.71094-3.71094-3.71094h-10.5957v-10.5469c0-2.24609-1.46484-3.75977-3.71094-3.75977-2.14844 0-3.61328 1.51367-3.61328 3.75977v10.5469h-10.498c-2.24609 0-3.75977 1.51367-3.75977 3.71094Z"/>
  </g>
  <g transform="matrix(0.2 0 0 0.2 281.506 1933)">
   <path d="m58.5449 14.5508c27.2461 0 49.8047-22.6074 49.8047-49.8047 0-27.2461-22.6074-49.8047-49.8535-49.8047-27.1973 0-49.7559 22.5586-49.7559 49.8047 0 27.1973 22.6074 49.8047 49.8047 49.8047Zm0-8.30078c-23.0469 0-41.4551-18.457-41.4551-41.5039s18.3594-41.5039 41.4062-41.5039 41.5527 18.457 41.5527 41.5039-18.457 41.5039-41.5039 41.5039Zm-22.6562-41.5039c0 2.39258 1.66016 4.00391 4.15039 4.00391h14.3555v14.4043c0 2.44141 1.66016 4.15039 4.05273 4.15039 2.44141 0 4.15039-1.66016 4.15039-4.15039v-14.4043h14.4043c2.44141 0 4.15039-1.61133 4.15039-4.00391 0-2.44141-1.70898-4.15039-4.15039-4.15039h-14.4043v-14.3555c0-2.49023-1.70898-4.19922-4.15039-4.19922-2.39258 0-4.05273 1.70898-4.05273 4.19922v14.3555h-14.3555c-2.49023 0-4.15039 1.70898-4.15039 4.15039Z"/>
  </g>
  <g transform="matrix(0.2 0 0 0.2 304.924 1933)">
   <path d="m74.8535 28.3203c34.8145 0 63.623-28.8086 63.623-63.5742 0-34.8145-28.8574-63.623-63.6719-63.623-34.7656 0-63.5254 28.8086-63.5254 63.623 0 34.7656 28.8086 63.5742 63.5742 63.5742Zm0-9.08203c-30.1758 0-54.4434-24.3164-54.4434-54.4922 0-30.2246 24.2188-54.4922 54.3945-54.4922 30.2246 0 54.541 24.2676 54.541 54.4922 0 30.1758-24.2676 54.4922-54.4922 54.4922Zm-28.8574-54.4922c0 2.58789 1.85547 4.39453 4.58984 4.39453h19.7266v19.7754c0 2.68555 1.85547 4.58984 4.44336 4.58984 2.68555 0 4.54102-1.85547 4.54102-4.58984v-19.7754h19.7754c2.68555 0 4.58984-1.80664 4.58984-4.39453 0-2.73438-1.85547-4.58984-4.58984-4.58984h-19.7754v-19.7266c0-2.73438-1.85547-4.63867-4.54102-4.63867-2.58789 0-4.44336 1.9043-4.44336 4.63867v19.7266h-19.7266c-2.73438 0-4.58984 1.85547-4.58984 4.58984Z"/>
  </g>
  <text style="stroke:none;fill:black;font-family:sans-serif;font-size:13;font-weight:bold;" transform="matrix(1 0 0 1 263 1953)">Design Variations</text>
  <text style="stroke:none;fill:black;font-family:sans-serif;font-size:13;" transform="matrix(1 0 0 1 263 1971)">Symbols are supported in up to nine weights and three scales.</text>
  <text style="stroke:none;fill:black;font-family:sans-serif;font-size:13;" transform="matrix(1 0 0 1 263 1989)">For optimal layout with text and other symbols, vertically align</text>
  <text style="stroke:none;fill:black;font-family:sans-serif;font-size:13;" transform="matrix(1 0 0 1 263 2007)">symbols with the adjacent text.</text>
  <line style="fill:none;stroke:#00AEEF;stroke-width:0.5;opacity:1.0;" x1="776" x2="776" y1="1919" y2="1933"/>
  <g transform="matrix(0.2 0 0 0.2 776 1933)">
   <path d="m16.5527 0.78125c2.58789 0 3.85742-0.976562 4.78516-3.71094l6.29883-17.2363h28.8086l6.29883 17.2363c0.927734 2.73438 2.19727 3.71094 4.73633 3.71094 2.58789 0 4.24805-1.5625 4.24805-4.00391 0-0.830078-0.146484-1.61133-0.537109-2.63672l-22.9004-60.9863c-1.12305-2.97852-3.125-4.49219-6.25-4.49219-3.02734 0-5.07812 1.46484-6.15234 4.44336l-22.9004 61.084c-0.390625 1.02539-0.537109 1.80664-0.537109 2.63672 0 2.44141 1.5625 3.95508 4.10156 3.95508Zm13.4766-28.3691 11.8652-32.8613h0.244141l11.8652 32.8613Z"/>
  </g>
  <line style="fill:none;stroke:#00AEEF;stroke-width:0.5;opacity:1.0;" x1="792.836" x2="792.836" y1="1919" y2="1933"/>
  <text style="stroke:none;fill:black;font-family:sans-serif;font-size:13;font-weight:bold;" transform="matrix(1 0 0 1 776 1953)">Margins</text>
  <text style="stroke:none;fill:black;font-family:sans-serif;font-size:13;" transform="matrix(1 0 0 1 776 1971)">Leading and trailing margins on the left and right side of each symbol</text>
  <text style="stroke:none;fill:black;font-family:sans-serif;font-size:13;" transform="matrix(1 0 0 1 776 1989)">can be adjusted by modifying the x-location of the margin guidelines.</text>
  <text style="stroke:none;fill:black;font-family:sans-serif;font-size:13;" transform="matrix(1 0 0 1 776 2007)">Modifications are automatically applied proportionally to all</text>
  <text style="stroke:none;fill:black;font-family:sans-serif;font-size:13;" transform="matrix(1 0 0 1 776 2025)">scales and weights.</text>
  <g transform="matrix(0.2 0 0 0.2 1289 1933)">
   <path d="m14.209 9.32617 8.49609 8.54492c4.29688 4.3457 9.22852 4.05273 13.8672-1.07422l53.4668-58.9355-4.83398-4.88281-53.0762 58.3984c-1.75781 2.00195-3.41797 2.49023-5.76172 0.146484l-5.85938-5.81055c-2.34375-2.29492-1.80664-4.00391 0.195312-5.81055l57.373-54.0039-4.88281-4.83398-57.959 54.4434c-4.93164 4.58984-5.32227 9.47266-1.02539 13.8184Zm32.0801-90.9668c-2.09961 2.05078-2.24609 4.93164-1.07422 6.88477 1.17188 1.80664 3.4668 2.97852 6.68945 2.14844 7.32422-1.70898 14.9414-2.00195 22.0703 2.68555l-2.92969 7.27539c-1.70898 4.15039-0.830078 7.08008 1.85547 9.81445l11.4746 11.5723c2.44141 2.44141 4.49219 2.53906 7.32422 2.05078l5.32227-0.976562 3.32031 3.36914-0.195312 2.7832c-0.195312 2.49023 0.439453 4.39453 2.88086 6.78711l3.80859 3.71094c2.39258 2.39258 5.46875 2.53906 7.8125 0.195312l14.5508-14.5996c2.34375-2.34375 2.24609-5.32227-0.146484-7.71484l-3.85742-3.80859c-2.39258-2.39258-4.24805-3.17383-6.64062-2.97852l-2.88086 0.244141-3.22266-3.17383 1.2207-5.61523c0.634766-2.83203-0.146484-5.0293-3.07617-7.95898l-10.9863-10.9375c-16.6992-16.6016-38.8672-16.2109-53.3203-1.75781Zm7.4707 1.85547c12.1582-8.88672 28.6133-7.37305 39.7461 3.75977l12.1582 12.0605c1.17188 1.17188 1.36719 2.09961 1.02539 3.80859l-1.61133 7.42188 7.51953 7.42188 4.93164-0.292969c1.26953-0.0488281 1.66016 0.0488281 2.63672 1.02539l2.88086 2.88086-12.207 12.207-2.88086-2.88086c-0.976562-0.976562-1.12305-1.36719-1.07422-2.68555l0.341797-4.88281-7.4707-7.42188-7.61719 1.26953c-1.61133 0.341797-2.34375 0.195312-3.56445-0.976562l-10.0098-10.0098c-1.26953-1.17188-1.41602-2.00195-0.634766-3.85742l4.39453-10.4492c-7.8125-7.27539-17.9688-10.4004-28.125-7.42188-0.78125 0.195312-1.07422-0.439453-0.439453-0.976562Z"/>
  </g>
  <text style="stroke:none;fill:black;font-family:sans-serif;font-size:13;font-weight:bold;" transform="matrix(1 0 0 1 1289 1953)">Exporting</text>
  <text style="stroke:none;fill:black;font-family:sans-serif;font-size:13;" transform="matrix(1 0 0 1 1289 1971)">Symbols should be outlined when exporting to ensure the</text>
  <text style="stroke:none;fill:black;font-family:sans-serif;font-size:13;" transform="matrix(1 0 0 1 1289 1989)">design is preserved when submitting to Xcode.</text>
  <text id="template-version" style="stroke:none;fill:black;font-family:sans-serif;font-size:13;text-anchor:end;" transform="matrix(1 0 0 1 3036 1933)">Template v.5.0</text>
  <text style="stroke:none;fill:black;font-family:sans-serif;font-size:13;text-anchor:end;" transform="matrix(1 0 0 1 3036 1951)">Requires Xcode 15 or greater</text>
  <text id="descriptive-name" style="stroke:none;fill:black;font-family:sans-serif;font-size:13;text-anchor:end;" transform="matrix(1 0 0 1 3036 1969)">Generated from wirelesscharging</text>
  <text style="stroke:none;fill:black;font-family:sans-serif;font-size:13;text-anchor:end;" transform="matrix(1 0 0 1 3036 1987)">Typeset at 100.0 points</text>
  <text style="stroke:none;fill:black;font-family:sans-serif;font-size:13;" transform="matrix(1 0 0 1 263 726)">Small</text>
  <text style="stroke:none;fill:black;font-family:sans-serif;font-size:13;" transform="matrix(1 0 0 1 263 1156)">Medium</text>
  <text style="stroke:none;fill:black;font-family:sans-serif;font-size:13;" transform="matrix(1 0 0 1 263 1586)">Large</text>
 </g>
 <g id="Guides">
  <g id="H-reference" style="fill:#27AAE1;stroke:none;" transform="matrix(1 0 0 1 339 696)">
   <path d="M0.993654 0L3.63775 0L29.3281-67.1323L30.0303-67.1323L30.0303-70.459L28.1226-70.459ZM11.6885-24.4799L46.9815-24.4799L46.2315-26.7285L12.4385-26.7285ZM55.1196 0L57.7637 0L30.6382-70.459L29.4326-70.459L29.4326-67.1323Z"/>
  </g>
  <line id="Baseline-S" style="fill:none;stroke:#27AAE1;opacity:1;stroke-width:0.5;" x1="263" x2="3036" y1="696" y2="696"/>
  <line id="Capline-S" style="fill:none;stroke:#27AAE1;opacity:1;stroke-width:0.5;" x1="263" x2="3036" y1="625.541" y2="625.541"/>
  <g id="H-reference" style="fill:#27AAE1;stroke:none;" transform="matrix(1 0 0 1 339 1126)">
   <path d="M0.993654 0L3.63775 0L29.3281-67.1323L30.0303-67.1323L30.0303-70.459L28.1226-70.459ZM11.6885-24.4799L46.9815-24.4799L46.2315-26.7285L12.4385-26.7285ZM55.1196 0L57.7637 0L30.6382-70.459L29.4326-70.459L29.4326-67.1323Z"/>
  </g>
  <line id="Baseline-M" style="fill:none;stroke:#27AAE1;opacity:1;stroke-width:0.5;" x1="263" x2="3036" y1="1126" y2="1126"/>
  <line id="Capline-M" style="fill:none;stroke:#27AAE1;opacity:1;stroke-width:0.5;" x1="263" x2="3036" y1="1055.54" y2="1055.54"/>
  <g id="H-reference" style="fill:#27AAE1;stroke:none;" transform="matrix(1 0 0 1 339 1556)">
   <path d="M0.993654 0L3.63775 0L29.3281-67.1323L30.0303-67.1323L30.0303-70.459L28.1226-70.459ZM11.6885-24.4799L46.9815-24.4799L46.2315-26.7285L12.4385-26.7285ZM55.1196 0L57.7637 0L30.6382-70.459L29.4326-70.459L29.4326-67.1323Z"/>
  </g>
  <line id="Baseline-L" style="fill:none;stroke:#27AAE1;opacity:1;stroke-width:0.5;" x1="263" x2="3036" y1="1556" y2="1556"/>
  <line id="Capline-L" style="fill:none;stroke:#27AAE1;opacity:1;stroke-width:0.5;" x1="263" x2="3036" y1="1485.54" y2="1485.54"/>
  <line id="left-margin-Ultralight-S" style="fill:none;stroke:#00AEEF;stroke-width:0.5;opacity:1.0;" x1="504.388" x2="504.388" y1="600.785" y2="720.121"/>
  <line id="right-margin-Ultralight-S" style="fill:none;stroke:#00AEEF;stroke-width:0.5;opacity:1.0;" x1="615.034" x2="615.034" y1="600.785" y2="720.121"/>
  <line id="left-margin-Regular-S" style="fill:none;stroke:#00AEEF;stroke-width:0.5;opacity:1.0;" x1="1387.05" x2="1387.05" y1="600.785" y2="720.121"/>
  <line id="right-margin-Regular-S" style="fill:none;stroke:#00AEEF;stroke-width:0.5;opacity:1.0;" x1="1512.64" x2="1512.64" y1="600.785" y2="720.121"/>
  <line id="left-margin-Black-S" style="fill:none;stroke:#00AEEF;stroke-width:0.5;opacity:1.0;" x1="2861.45" x2="2861.45" y1="600.785" y2="720.121"/>
  <line id="right-margin-Black-S" style="fill:none;stroke:#00AEEF;stroke-width:0.5;opacity:1.0;" x1="3005.35" x2="3005.35" y1="600.785" y2="720.121"/>
 </g>
 <g id="Symbols">
  <g id="Black-S" transform="matrix(1 0 0 1 2861.45 696)">
   <path class="monochrome-0 multicolor-0:systemMintColor hierarchical-0:tertiary SFSymbolsPreviewWireframe" d="M4.83594-35.2051C4.83594-22.2656 9.1328-9.86328 16.7988 0.146484C19.2891 3.41797 23.6348 3.56445 26.8086 0.927734C29.9336-1.70898 29.9336-5.76172 27.4434-9.17969C22.0234-16.6504 18.9961-25.7324 18.9961-35.2051C18.9961-44.7266 22.0234-53.8086 27.4922-61.2793C30.0312-64.7461 30.0312-68.75 26.8086-71.4355C23.6836-74.0723 19.3379-73.877 16.8477-70.6543C9.1328-60.5957 4.83594-48.1445 4.83594-35.2051ZM135.061-35.2051C135.061-48.1445 130.764-60.5957 123.049-70.6543C120.559-73.877 116.213-74.0723 113.088-71.4355C109.865-68.75 109.865-64.7461 112.404-61.2793C117.873-53.8086 120.9-44.7266 120.9-35.2051C120.9-25.7324 117.873-16.6504 112.453-9.17969C109.963-5.76172 109.963-1.70898 113.088 0.927734C116.262 3.56445 120.607 3.41797 123.098 0.146484C130.764-9.86328 135.061-22.2656 135.061-35.2051Z"/>
   <path class="monochrome-1 multicolor-1:systemGreenColor hierarchical-1:secondary SFSymbolsPreviewWireframe" d="M30.8359-35.2051C30.8359-22.2656 35.1328-9.86328 42.7988 0.146484C45.2891 3.41797 49.6348 3.56445 52.8086 0.927734C55.9336-1.70898 55.9336-5.76172 53.4434-9.17969C48.0234-16.6504 44.9961-25.7324 44.9961-35.2051C44.9961-44.7266 48.0234-53.8086 53.4922-61.2793C56.0312-64.7461 56.0312-68.75 52.8086-71.4355C49.6836-74.0723 45.3379-73.877 42.8477-70.6543C35.1328-60.5957 30.8359-48.1445 30.8359-35.2051ZM108.319-35.2051C108.319-48.1445 104.022-60.5957 96.3073-70.6543C93.8173-73.877 89.4713-74.0723 86.3463-71.4355C83.1233-68.75 83.1233-64.7461 85.6623-61.2793C91.1313-53.8086 94.1583-44.7266 94.1583-35.2051C94.1583-25.7324 91.1313-16.6504 85.7113-9.17969C83.2213-5.76172 83.2213-1.70898 86.3463 0.927734C89.5203 3.56445 93.8653 3.41797 96.3563 0.146484C104.022-9.86328 108.319-22.2656 108.319-35.2051Z"/>
   <path class="monochrome-2 multicolor-2:systemYellowColor hierarchical-2:primary SFSymbolsPreviewWireframe" d="M55.8613-33.252C55.8613-32.0801 56.8379-31.1523 58.0586-31.1523L67.7266-31.1523L62.5996-17.9199C61.5254-15.0879 64.6016-13.3789 66.6035-15.6738L83.791-36.0352C84.2305-36.5234 84.4746-37.1582 84.4746-37.793C84.4746-38.9648 83.498-39.8926 82.2285-39.8926L72.6094-39.8926L77.7363-53.0762C78.8105-55.9082 75.6855-57.666 73.6836-55.3711L56.4961-34.9609C56.0566-34.4727 55.8613-33.8867 55.8613-33.252Z"/>
  </g>
  <g id="Regular-S" transform="matrix(1 0 0 1 1387.05 696)">
   <path class="monochrome-0 multicolor-0:systemMintColor hierarchical-0:tertiary SFSymbolsPreviewWireframe" d="M4.83594-35.2539C4.83594-22.998 8.7422-11.7188 15.4316-2.44141C16.7988-0.585938 19.1426-0.390625 20.8516-1.80664C22.4629-3.125 22.6582-5.27344 21.4375-6.98242C15.6758-14.9414 12.3555-24.7559 12.3555-35.2539C12.3555-45.8008 15.6758-55.5664 21.4375-63.5742C22.6582-65.2344 22.5117-67.3828 20.8516-68.75C19.1426-70.166 16.7988-69.9219 15.4316-68.0664C8.7422-58.8379 4.83594-47.5098 4.83594-35.2539ZM116.75-35.2539C116.75-47.5098 112.844-58.8379 106.154-68.0664C104.787-69.9219 102.443-70.166 100.734-68.75C99.074-67.3828 98.928-65.2344 100.148-63.5742C105.91-55.5664 109.23-45.8008 109.23-35.2539C109.23-24.7559 105.91-14.9414 100.148-6.98242C98.928-5.27344 99.123-3.125 100.734-1.80664C102.443-0.390625 104.787-0.585938 106.154-2.44141C112.844-11.7188 116.75-22.998 116.75-35.2539Z"/>
   <path class="monochrome-1 multicolor-1:systemGreenColor hierarchical-1:secondary SFSymbolsPreviewWireframe" d="M22.8359-35.2539C22.8359-22.998 26.7422-11.7188 33.4316-2.44141C34.7988-0.585938 37.1426-0.390625 38.8516-1.80664C40.4629-3.125 40.6582-5.27344 39.4375-6.98242C33.6758-14.9414 30.3555-24.7559 30.3555-35.2539C30.3555-45.8008 33.6758-55.5664 39.4375-63.5742C40.6582-65.2344 40.5117-67.3828 38.8516-68.75C37.1426-70.166 34.7988-69.9219 33.4316-68.0664C26.7422-58.8379 22.8359-47.5098 22.8359-35.2539ZM98.2424-35.2539C98.2424-47.5098 94.3364-58.8379 87.6464-68.0664C86.2794-69.9219 83.9354-70.166 82.2264-68.75C80.5664-67.3828 80.4204-65.2344 81.6404-63.5742C87.4024-55.5664 90.7224-45.8008 90.7224-35.2539C90.7224-24.7559 87.4024-14.9414 81.6404-6.98242C80.4204-5.27344 80.6154-3.125 82.2264-1.80664C83.9354-0.390625 86.2794-0.585938 87.6464-2.44141C94.3364-11.7188 98.2424-22.998 98.2424-35.2539Z"/>
   <path class="monochrome-2 multicolor-2:systemYellowColor hierarchical-2:primary SFSymbolsPreviewWireframe" d="M44.9238-32.9102C44.9238-31.8848 45.7051-31.2012 46.7305-31.2012L58.8398-31.2012L52.3945-13.916C51.4668-11.377 54.1523-10.0098 55.7637-12.0117L75.3926-36.6699C75.832-37.1094 76.0273-37.6953 76.0273-38.1836C76.0273-39.1602 75.2461-39.8926 74.2207-39.8926L62.1113-39.8926L68.5566-57.1777C69.4844-59.668 66.7988-61.0352 65.1875-59.0332L45.5586-34.4238C45.1191-33.9355 44.9238-33.3984 44.9238-32.9102Z"/>
  </g>
  <g id="Ultralight-S" transform="matrix(1 0 0 1 504.388 696)">
   <path class="monochrome-0 multicolor-0:systemMintColor hierarchical-0:tertiary SFSymbolsPreviewWireframe" d="M4.83594-35.2539C4.83594-23.77 8.833-13.2627 15.4316-4.98435C15.8906-4.44577 16.5088-4.38669 17.0371-4.80369C17.5586-5.21385 17.6177-5.86376 17.169-6.4375C10.8623-14.3057 7.04252-24.3472 7.04252-35.2539C7.04252-46.1641 10.8623-56.2021 17.169-64.1191C17.6177-64.644 17.5166-65.294 17.0371-65.7075C16.5542-66.0791 15.8452-66.0166 15.4316-65.5235C8.833-57.2031 4.83594-46.7378 4.83594-35.2539ZM101.81-35.2539C101.81-46.7378 97.8131-57.2031 91.2145-65.5235C90.8009-66.0166 90.0919-66.0791 89.609-65.7075C89.1295-65.294 89.0284-64.644 89.4771-64.1191C95.7838-56.2021 99.558-46.1641 99.558-35.2539C99.558-24.3472 95.7838-14.3057 89.4771-6.4375C89.0284-5.86376 89.0875-5.21385 89.609-4.80369C90.1373-4.38669 90.7555-4.44577 91.2145-4.98435C97.8131-13.2627 101.81-23.77 101.81-35.2539Z"/>
   <path class="monochrome-1 multicolor-1:systemGreenColor hierarchical-1:secondary SFSymbolsPreviewWireframe" d="M17.8359-35.2539C17.8359-23.77 21.833-13.2627 28.4316-4.98435C28.8906-4.44577 29.5088-4.38669 30.0371-4.80369C30.5586-5.21385 30.6177-5.86376 30.169-6.4375C23.8623-14.3057 20.0425-24.3472 20.0425-35.2539C20.0425-46.1641 23.8623-56.2021 30.169-64.1191C30.6177-64.644 30.5166-65.294 30.0371-65.7075C29.5542-66.0791 28.8452-66.0166 28.4316-65.5235C21.833-57.2031 17.8359-46.7378 17.8359-35.2539ZM88.4702-35.2539C88.4702-46.7378 84.4733-57.2031 77.8747-65.5235C77.4611-66.0166 76.7521-66.0791 76.2692-65.7075C75.7897-65.294 75.6886-64.644 76.1373-64.1191C82.444-56.2021 86.2182-46.1641 86.2182-35.2539C86.2182-24.3472 82.444-14.3057 76.1373-6.4375C75.6886-5.86376 75.7477-5.21385 76.2692-4.80369C76.7975-4.38669 77.4157-4.44577 77.8747-4.98435C84.4733-13.2627 88.4702-23.77 88.4702-35.2539Z"/>
   <path class="monochrome-2 multicolor-2:systemYellowColor hierarchical-2:primary SFSymbolsPreviewWireframe" d="M36.8409-32.1382C36.8409-31.5669 37.3043-31.2466 37.921-31.2466L51.2564-31.2466L43.9937-11.6909C43.3839-10.1055 44.9796-9.2378 46.046-10.5132L67.5367-37.4873C67.8399-37.9722 67.9898-38.331 67.9898-38.5923C67.9898-39.1602 67.5718-39.5293 66.9551-39.5293L53.6197-39.5293L60.8824-59.0849C61.4923-60.667 59.8511-61.5347 58.7847-60.2139L37.3394-33.2432C36.9908-32.8003 36.8409-32.4448 36.8409-32.1382Z"/>
  </g>
 </g>
</svg>
