<?xml version="1.0" encoding="UTF-8"?>
<!--Generator: Apple Native CoreSVG 232.5-->
<!DOCTYPE svg
PUBLIC "-//W3C//DTD SVG 1.1//EN"
       "http://www.w3.org/Graphics/SVG/1.1/DTD/svg11.dtd">
<svg version="1.1" xmlns="http://www.w3.org/2000/svg" xmlns:xlink="http://www.w3.org/1999/xlink" width="3300" height="2200">
 <g id="Notes">
  <rect height="2200" id="artboard" style="fill:white;opacity:1" width="3300" x="0" y="0"/>
  <line style="fill:none;stroke:black;opacity:1;stroke-width:0.5;" x1="263" x2="3036" y1="292" y2="292"/>
  <text style="stroke:none;fill:black;font-family:sans-serif;font-size:13;font-weight:bold;" transform="matrix(1 0 0 1 263 322)">Weight/Scale Variations</text>
  <text style="stroke:none;fill:black;font-family:sans-serif;font-size:13;text-anchor:middle;" transform="matrix(1 0 0 1 559.711 322)">Ultralight</text>
  <text style="stroke:none;fill:black;font-family:sans-serif;font-size:13;text-anchor:middle;" transform="matrix(1 0 0 1 856.422 322)">Thin</text>
  <text style="stroke:none;fill:black;font-family:sans-serif;font-size:13;text-anchor:middle;" transform="matrix(1 0 0 1 1153.13 322)">Light</text>
  <text style="stroke:none;fill:black;font-family:sans-serif;font-size:13;text-anchor:middle;" transform="matrix(1 0 0 1 1449.84 322)">Regular</text>
  <text style="stroke:none;fill:black;font-family:sans-serif;font-size:13;text-anchor:middle;" transform="matrix(1 0 0 1 1746.56 322)">Medium</text>
  <text style="stroke:none;fill:black;font-family:sans-serif;font-size:13;text-anchor:middle;" transform="matrix(1 0 0 1 2043.27 322)">Semibold</text>
  <text style="stroke:none;fill:black;font-family:sans-serif;font-size:13;text-anchor:middle;" transform="matrix(1 0 0 1 2339.98 322)">Bold</text>
  <text style="stroke:none;fill:black;font-family:sans-serif;font-size:13;text-anchor:middle;" transform="matrix(1 0 0 1 2636.69 322)">Heavy</text>
  <text style="stroke:none;fill:black;font-family:sans-serif;font-size:13;text-anchor:middle;" transform="matrix(1 0 0 1 2933.4 322)">Black</text>
  <line style="fill:none;stroke:black;opacity:1;stroke-width:0.5;" x1="263" x2="3036" y1="1903" y2="1903"/>
  <g transform="matrix(0.2 0 0 0.2 263 1933)">
   <path d="m46.2402 4.15039c21.5332 0 39.4531-17.8711 39.4531-39.4043s-17.9688-39.4043-39.502-39.4043c-21.4844 0-39.3555 17.8711-39.3555 39.4043s17.9199 39.4043 39.4043 39.4043Zm0-7.42188c-17.7246 0-31.8848-14.209-31.8848-31.9824s14.1113-31.9824 31.8359-31.9824c17.7734 0 32.0312 14.209 32.0312 31.9824s-14.209 31.9824-31.9824 31.9824Zm-17.9688-31.9824c0 2.14844 1.51367 3.61328 3.75977 3.61328h10.498v10.5957c0 2.19727 1.46484 3.71094 3.61328 3.71094 2.24609 0 3.71094-1.51367 3.71094-3.71094v-10.5957h10.5957c2.19727 0 3.71094-1.46484 3.71094-3.61328 0-2.19727-1.51367-3.71094-3.71094-3.71094h-10.5957v-10.5469c0-2.24609-1.46484-3.75977-3.71094-3.75977-2.14844 0-3.61328 1.51367-3.61328 3.75977v10.5469h-10.498c-2.24609 0-3.75977 1.51367-3.75977 3.71094Z"/>
  </g>
  <g transform="matrix(0.2 0 0 0.2 281.506 1933)">
   <path d="m58.5449 14.5508c27.2461 0 49.8047-22.6074 49.8047-49.8047 0-27.2461-22.6074-49.8047-49.8535-49.8047-27.1973 0-49.7559 22.5586-49.7559 49.8047 0 27.1973 22.6074 49.8047 49.8047 49.8047Zm0-8.30078c-23.0469 0-41.4551-18.457-41.4551-41.5039s18.3594-41.5039 41.4062-41.5039 41.5527 18.457 41.5527 41.5039-18.457 41.5039-41.5039 41.5039Zm-22.6562-41.5039c0 2.39258 1.66016 4.00391 4.15039 4.00391h14.3555v14.4043c0 2.44141 1.66016 4.15039 4.05273 4.15039 2.44141 0 4.15039-1.66016 4.15039-4.15039v-14.4043h14.4043c2.44141 0 4.15039-1.61133 4.15039-4.00391 0-2.44141-1.70898-4.15039-4.15039-4.15039h-14.4043v-14.3555c0-2.49023-1.70898-4.19922-4.15039-4.19922-2.39258 0-4.05273 1.70898-4.05273 4.19922v14.3555h-14.3555c-2.49023 0-4.15039 1.70898-4.15039 4.15039Z"/>
  </g>
  <g transform="matrix(0.2 0 0 0.2 304.924 1933)">
   <path d="m74.8535 28.3203c34.8145 0 63.623-28.8086 63.623-63.5742 0-34.8145-28.8574-63.623-63.6719-63.623-34.7656 0-63.5254 28.8086-63.5254 63.623 0 34.7656 28.8086 63.5742 63.5742 63.5742Zm0-9.08203c-30.1758 0-54.4434-24.3164-54.4434-54.4922 0-30.2246 24.2188-54.4922 54.3945-54.4922 30.2246 0 54.541 24.2676 54.541 54.4922 0 30.1758-24.2676 54.4922-54.4922 54.4922Zm-28.8574-54.4922c0 2.58789 1.85547 4.39453 4.58984 4.39453h19.7266v19.7754c0 2.68555 1.85547 4.58984 4.44336 4.58984 2.68555 0 4.54102-1.85547 4.54102-4.58984v-19.7754h19.7754c2.68555 0 4.58984-1.80664 4.58984-4.39453 0-2.73438-1.85547-4.58984-4.58984-4.58984h-19.7754v-19.7266c0-2.73438-1.85547-4.63867-4.54102-4.63867-2.58789 0-4.44336 1.9043-4.44336 4.63867v19.7266h-19.7266c-2.73438 0-4.58984 1.85547-4.58984 4.58984Z"/>
  </g>
  <text style="stroke:none;fill:black;font-family:sans-serif;font-size:13;font-weight:bold;" transform="matrix(1 0 0 1 263 1953)">Design Variations</text>
  <text style="stroke:none;fill:black;font-family:sans-serif;font-size:13;" transform="matrix(1 0 0 1 263 1971)">Symbols are supported in up to nine weights and three scales.</text>
  <text style="stroke:none;fill:black;font-family:sans-serif;font-size:13;" transform="matrix(1 0 0 1 263 1989)">For optimal layout with text and other symbols, vertically align</text>
  <text style="stroke:none;fill:black;font-family:sans-serif;font-size:13;" transform="matrix(1 0 0 1 263 2007)">symbols with the adjacent text.</text>
  <line style="fill:none;stroke:#00AEEF;stroke-width:0.5;opacity:1.0;" x1="776" x2="776" y1="1919" y2="1933"/>
  <g transform="matrix(0.2 0 0 0.2 776 1933)">
   <path d="m16.5527 0.78125c2.58789 0 3.85742-0.976562 4.78516-3.71094l6.29883-17.2363h28.8086l6.29883 17.2363c0.927734 2.73438 2.19727 3.71094 4.73633 3.71094 2.58789 0 4.24805-1.5625 4.24805-4.00391 0-0.830078-0.146484-1.61133-0.537109-2.63672l-22.9004-60.9863c-1.12305-2.97852-3.125-4.49219-6.25-4.49219-3.02734 0-5.07812 1.46484-6.15234 4.44336l-22.9004 61.084c-0.390625 1.02539-0.537109 1.80664-0.537109 2.63672 0 2.44141 1.5625 3.95508 4.10156 3.95508Zm13.4766-28.3691 11.8652-32.8613h0.244141l11.8652 32.8613Z"/>
  </g>
  <line style="fill:none;stroke:#00AEEF;stroke-width:0.5;opacity:1.0;" x1="792.836" x2="792.836" y1="1919" y2="1933"/>
  <text style="stroke:none;fill:black;font-family:sans-serif;font-size:13;font-weight:bold;" transform="matrix(1 0 0 1 776 1953)">Margins</text>
  <text style="stroke:none;fill:black;font-family:sans-serif;font-size:13;" transform="matrix(1 0 0 1 776 1971)">Leading and trailing margins on the left and right side of each symbol</text>
  <text style="stroke:none;fill:black;font-family:sans-serif;font-size:13;" transform="matrix(1 0 0 1 776 1989)">can be adjusted by modifying the x-location of the margin guidelines.</text>
  <text style="stroke:none;fill:black;font-family:sans-serif;font-size:13;" transform="matrix(1 0 0 1 776 2007)">Modifications are automatically applied proportionally to all</text>
  <text style="stroke:none;fill:black;font-family:sans-serif;font-size:13;" transform="matrix(1 0 0 1 776 2025)">scales and weights.</text>
  <g transform="matrix(0.2 0 0 0.2 1289 1933)">
   <path d="m14.209 9.32617 8.49609 8.54492c4.29688 4.3457 9.22852 4.05273 13.8672-1.07422l53.4668-58.9355-4.83398-4.88281-53.0762 58.3984c-1.75781 2.00195-3.41797 2.49023-5.76172 0.146484l-5.85938-5.81055c-2.34375-2.29492-1.80664-4.00391 0.195312-5.81055l57.373-54.0039-4.88281-4.83398-57.959 54.4434c-4.93164 4.58984-5.32227 9.47266-1.02539 13.8184Zm32.0801-90.9668c-2.09961 2.05078-2.24609 4.93164-1.07422 6.88477 1.17188 1.80664 3.4668 2.97852 6.68945 2.14844 7.32422-1.70898 14.9414-2.00195 22.0703 2.68555l-2.92969 7.27539c-1.70898 4.15039-0.830078 7.08008 1.85547 9.81445l11.4746 11.5723c2.44141 2.44141 4.49219 2.53906 7.32422 2.05078l5.32227-0.976562 3.32031 3.36914-0.195312 2.7832c-0.195312 2.49023 0.439453 4.39453 2.88086 6.78711l3.80859 3.71094c2.39258 2.39258 5.46875 2.53906 7.8125 0.195312l14.5508-14.5996c2.34375-2.34375 2.24609-5.32227-0.146484-7.71484l-3.85742-3.80859c-2.39258-2.39258-4.24805-3.17383-6.64062-2.97852l-2.88086 0.244141-3.22266-3.17383 1.2207-5.61523c0.634766-2.83203-0.146484-5.0293-3.07617-7.95898l-10.9863-10.9375c-16.6992-16.6016-38.8672-16.2109-53.3203-1.75781Zm7.4707 1.85547c12.1582-8.88672 28.6133-7.37305 39.7461 3.75977l12.1582 12.0605c1.17188 1.17188 1.36719 2.09961 1.02539 3.80859l-1.61133 7.42188 7.51953 7.42188 4.93164-0.292969c1.26953-0.0488281 1.66016 0.0488281 2.63672 1.02539l2.88086 2.88086-12.207 12.207-2.88086-2.88086c-0.976562-0.976562-1.12305-1.36719-1.07422-2.68555l0.341797-4.88281-7.4707-7.42188-7.61719 1.26953c-1.61133 0.341797-2.34375 0.195312-3.56445-0.976562l-10.0098-10.0098c-1.26953-1.17188-1.41602-2.00195-0.634766-3.85742l4.39453-10.4492c-7.8125-7.27539-17.9688-10.4004-28.125-7.42188-0.78125 0.195312-1.07422-0.439453-0.439453-0.976562Z"/>
  </g>
  <text style="stroke:none;fill:black;font-family:sans-serif;font-size:13;font-weight:bold;" transform="matrix(1 0 0 1 1289 1953)">Exporting</text>
  <text style="stroke:none;fill:black;font-family:sans-serif;font-size:13;" transform="matrix(1 0 0 1 1289 1971)">Symbols should be outlined when exporting to ensure the</text>
  <text style="stroke:none;fill:black;font-family:sans-serif;font-size:13;" transform="matrix(1 0 0 1 1289 1989)">design is preserved when submitting to Xcode.</text>
  <text id="template-version" style="stroke:none;fill:black;font-family:sans-serif;font-size:13;text-anchor:end;" transform="matrix(1 0 0 1 3036 1933)">Template v.2.0</text>
  <text style="stroke:none;fill:black;font-family:sans-serif;font-size:13;text-anchor:end;" transform="matrix(1 0 0 1 3036 1951)">Requires Xcode 12 or greater</text>
  <text id="descriptive-name" style="stroke:none;fill:black;font-family:sans-serif;font-size:13;text-anchor:end;" transform="matrix(1 0 0 1 3036 1969)">Generated from headphones</text>
  <text style="stroke:none;fill:black;font-family:sans-serif;font-size:13;text-anchor:end;" transform="matrix(1 0 0 1 3036 1987)">Typeset at 100.0 points</text>
  <text style="stroke:none;fill:black;font-family:sans-serif;font-size:13;" transform="matrix(1 0 0 1 263 726)">Small</text>
  <text style="stroke:none;fill:black;font-family:sans-serif;font-size:13;" transform="matrix(1 0 0 1 263 1156)">Medium</text>
  <text style="stroke:none;fill:black;font-family:sans-serif;font-size:13;" transform="matrix(1 0 0 1 263 1586)">Large</text>
 </g>
 <g id="Guides">
  <g id="H-reference" style="fill:#27AAE1;stroke:none;" transform="matrix(1 0 0 1 339 696)">
   <path d="M0.993654 0L3.63775 0L29.3281-67.1323L30.0303-67.1323L30.0303-70.459L28.1226-70.459ZM11.6885-24.4799L46.9815-24.4799L46.2315-26.7285L12.4385-26.7285ZM55.1196 0L57.7637 0L30.6382-70.459L29.4326-70.459L29.4326-67.1323Z"/>
  </g>
  <line id="Baseline-S" style="fill:none;stroke:#27AAE1;opacity:1;stroke-width:0.5;" x1="263" x2="3036" y1="696" y2="696"/>
  <line id="Capline-S" style="fill:none;stroke:#27AAE1;opacity:1;stroke-width:0.5;" x1="263" x2="3036" y1="625.541" y2="625.541"/>
  <g id="H-reference" style="fill:#27AAE1;stroke:none;" transform="matrix(1 0 0 1 339 1126)">
   <path d="M0.993654 0L3.63775 0L29.3281-67.1323L30.0303-67.1323L30.0303-70.459L28.1226-70.459ZM11.6885-24.4799L46.9815-24.4799L46.2315-26.7285L12.4385-26.7285ZM55.1196 0L57.7637 0L30.6382-70.459L29.4326-70.459L29.4326-67.1323Z"/>
  </g>
  <line id="Baseline-M" style="fill:none;stroke:#27AAE1;opacity:1;stroke-width:0.5;" x1="263" x2="3036" y1="1126" y2="1126"/>
  <line id="Capline-M" style="fill:none;stroke:#27AAE1;opacity:1;stroke-width:0.5;" x1="263" x2="3036" y1="1055.54" y2="1055.54"/>
  <g id="H-reference" style="fill:#27AAE1;stroke:none;" transform="matrix(1 0 0 1 339 1556)">
   <path d="M0.993654 0L3.63775 0L29.3281-67.1323L30.0303-67.1323L30.0303-70.459L28.1226-70.459ZM11.6885-24.4799L46.9815-24.4799L46.2315-26.7285L12.4385-26.7285ZM55.1196 0L57.7637 0L30.6382-70.459L29.4326-70.459L29.4326-67.1323Z"/>
  </g>
  <line id="Baseline-L" style="fill:none;stroke:#27AAE1;opacity:1;stroke-width:0.5;" x1="263" x2="3036" y1="1556" y2="1556"/>
  <line id="Capline-L" style="fill:none;stroke:#27AAE1;opacity:1;stroke-width:0.5;" x1="263" x2="3036" y1="1485.54" y2="1485.54"/>
  <line id="left-margin" style="fill:none;stroke:#00AEEF;stroke-width:0.5;opacity:1.0;" x1="1387.68" x2="1387.68" y1="1030.79" y2="1150.12"/>
  <line id="right-margin" style="fill:none;stroke:#00AEEF;stroke-width:0.5;opacity:1.0;" x1="1512" x2="1512" y1="1030.79" y2="1150.12"/>
 </g>
 <g id="Symbols">
  <g id="Black-L" transform="matrix(1 0 0 1 2848.45 1556)">
   <path d="M16.084-32.64C16.084-13.0644 21.8046 8.75059 31.4205 25.5347C34.1028 30.2122 39.5471 31.6701 44.3634 29.0439C49.0981 26.4409 50.4768 20.9393 47.7714 16.0206C39.6365 1.14129 35.083-16.2887 35.083-32.64C35.083-65.1538 54.994-86.7624 84.9447-86.7624C114.894-86.7624 134.826-65.1538 134.826-32.64C134.826-16.2887 130.253 1.14129 122.118 16.0206C119.411 20.9393 120.79 26.4409 125.504 29.0439C130.342 31.6701 135.785 30.2122 138.469 25.5347C148.085 8.75059 153.825-13.0644 153.825-32.64C153.825-76.5655 126.305-105.761 84.9447-105.761C43.5835-105.761 16.084-76.5655 16.084-32.64ZM42.5682 23.5555C45.454 31.858 52.9823 35.5114 61.426 32.7059C69.8077 29.7837 73.4634 22.1894 70.5996 13.8261L61.3862-13.2903C58.5588-21.5928 51.0305-25.2474 42.5868-22.4991C34.2051-19.5769 30.5493-11.9838 33.4144-3.56091ZM127.321 23.5555L136.475-3.56091C139.34-12.0046 135.683-19.5769 127.303-22.4991C118.858-25.2474 111.309-21.5928 108.502-13.2903L99.2898 13.8261C96.404 22.2102 100.061 29.7837 108.462 32.7059C116.906 35.5114 124.435 31.858 127.321 23.5555Z"/>
  </g>
  <g id="Heavy-L" transform="matrix(1 0 0 1 2552.93 1556)">
   <path d="M16.084-32.7154C16.084-13.2992 21.75 8.28354 31.2794 24.9265C33.6615 29.0993 38.4772 30.3796 42.775 28.0308C46.9868 25.7235 48.1924 20.8688 45.7688 16.4547C37.5612 1.44802 32.958-16.2141 32.958-32.7154C32.958-65.858 53.2457-87.9029 83.7419-87.9029C114.232-87.9029 134.55-65.858 134.55-32.7154C134.55-16.2141 129.923 1.44802 121.715 16.4547C119.286 20.8688 120.491 25.7235 124.673 28.0308C129.007 30.3796 133.817 29.0993 136.204 24.9265C145.734 8.28354 151.424-13.2992 151.424-32.7154C151.424-76.0266 124.395-104.777 83.7419-104.777C43.0827-104.777 16.084-76.0266 16.084-32.7154ZM40.8297 23.0492C43.5331 31.045 50.6763 34.5963 58.8083 31.9734C66.8788 29.2612 70.4413 22.0106 67.7738 13.959L58.5813-14.0081C55.9226-22.0039 48.7794-25.5608 40.6474-22.9769C32.5768-20.2647 29.0143-13.0197 31.6875-4.9179ZM126.654 23.0492L135.796-4.9179C138.469-13.0499 134.901-20.2647 126.836-22.9769C118.699-25.5608 111.525-22.0039 108.897-14.0081L99.71 13.959C97.0066 22.0408 100.575 29.2612 108.67 31.9734C116.802 34.5963 123.951 31.045 126.654 23.0492Z"/>
  </g>
  <g id="Bold-L" transform="matrix(1 0 0 1 2257.72 1556)">
   <path d="M16.084-32.7704C16.084-13.5539 21.6809 7.73699 31.1027 24.2032C33.101 27.7312 37.1331 28.7888 40.7707 26.7932C44.3146 24.862 45.305 20.814 43.2422 17.0448C34.9424 1.87681 30.2703-16.0772 30.2703-32.7704C30.2703-66.6966 51.049-89.3018 82.2438-89.3018C113.425-89.3018 134.242-66.6966 134.242-32.7704C134.242-16.0772 129.545 1.87681 121.245 17.0448C119.169 20.814 120.16 24.862 123.666 26.7932C127.354 28.7888 131.373 27.7312 133.385 24.2032C142.807 7.73699 148.428-13.5539 148.428-32.7704C148.428-75.3059 122.021-103.488 82.2438-103.488C42.4529-103.488 16.084-75.3059 16.084-32.7704ZM38.6335 22.4267C41.1138 29.9937 47.7434 33.3772 55.4464 30.9772C63.0806 28.5188 66.4906 21.7357 64.0614 14.113L54.8548-14.7951C52.4036-22.362 45.774-25.7588 38.071-23.3748C30.4368-20.9164 27.0269-14.1465 29.4693-6.48139ZM125.854 22.4267L135.018-6.48139C137.461-14.1844 134.037-20.9164 126.417-23.3748C118.7-25.7588 112.033-22.362 109.62-14.7951L100.426 14.113C97.9458 21.7736 101.369 28.5188 109.028 30.9772C116.731 33.3772 123.374 29.9937 125.854 22.4267Z"/>
  </g>
  <g id="Semibold-L" transform="matrix(1 0 0 1 1962.04 1556)">
   <path d="M16.084-32.8083C16.084-13.7295 21.6332 7.3602 30.9809 23.7047C32.7146 26.7881 36.2065 27.6921 39.3889 25.94C42.4724 24.2681 43.3145 20.7762 41.5004 17.4515C33.1371 2.17241 28.4175-15.9828 28.4175-32.8083C28.4175-67.2747 49.5347-90.2662 81.211-90.2662C112.869-90.2662 134.029-67.2747 134.029-32.8083C134.029-15.9828 129.285 2.17241 120.922 17.4515C119.089 20.7762 119.931 24.2681 122.971 25.94C126.215 27.6921 129.689 26.7881 131.441 23.7047C140.789 7.3602 146.363-13.7295 146.363-32.8083C146.363-74.8091 120.385-102.6 81.211-102.6C42.0187-102.6 16.084-74.8091 16.084-32.8083ZM37.1194 21.9975C39.4461 29.2689 45.7215 32.5367 53.1288 30.2905C60.4621 28.007 63.7669 21.5461 61.5021 14.2192L52.2857-15.3376C49.9776-22.609 43.7022-25.8953 36.2948-23.6491C28.9615-21.3657 25.6567-14.9232 27.9401-7.55926ZM125.303 21.9975L134.482-7.55926C136.765-14.9666 133.442-21.3657 126.127-23.6491C118.701-25.8953 112.383-22.609 110.118-15.3376L100.92 14.2192C98.5932 21.5895 101.916 28.007 109.275 30.2905C116.682 32.5367 122.976 29.2689 125.303 21.9975Z"/>
  </g>
  <g id="Medium-L" transform="matrix(1 0 0 1 1666.12 1556)">
   <path d="M16.084-32.8371C16.084-13.8626 21.5971 7.0745 30.8885 23.3266C32.4216 26.0729 35.5039 26.8605 38.3411 25.293C41.0755 23.8178 41.8052 20.7476 40.1797 17.76C31.7682 2.39654 27.0126-15.9112 27.0126-32.8371C27.0126-67.7131 48.3864-90.9974 80.4279-90.9974C112.447-90.9974 133.868-67.7131 133.868-32.8371C133.868-15.9112 129.088 2.39654 120.676 17.76C119.028 20.7476 119.758 23.8178 122.445 25.293C125.352 26.8605 128.412 26.0729 129.967 23.3266C139.259 7.0745 144.797-13.8626 144.797-32.8371C144.797-74.4324 119.144-101.926 80.4279-101.926C41.6895-101.926 16.084-74.4324 16.084-32.8371ZM35.9713 21.6721C38.1815 28.7193 44.1884 31.8995 51.3715 29.7697C58.4766 27.619 61.7017 21.4024 59.5615 14.2997L50.3377-15.7489C48.1381-22.7962 42.1312-25.9988 34.9481-23.8571C27.8429-21.7063 24.6178-15.5122 26.7805-8.37653ZM124.884 21.6721L134.075-8.37653C136.238-15.5596 132.99-21.7063 125.908-23.8571C118.702-25.9988 112.648-22.7962 110.496-15.7489L101.294 14.2997C99.0841 21.4498 102.332 27.619 109.462 29.7697C116.645 31.8995 122.674 28.7193 124.884 21.6721Z"/>
  </g>
  <g id="Regular-L" transform="matrix(1 0 0 1 1370.43 1556)">
   <path d="M16.084-32.8746C16.084-14.0363 21.55 6.70185 30.7681 22.8335C32.0395 25.1402 34.5874 25.7759 36.9745 24.4491C39.2535 23.2305 39.8365 20.7102 38.457 18.1623C29.9827 2.6889 25.1801-15.8179 25.1801-32.8746C25.1801-68.2848 46.8887-91.9512 79.4064-91.9512C111.896-91.9512 133.658-68.2848 133.658-32.8746C133.658-15.8179 128.83 2.6889 120.356 18.1623C118.949 20.7102 119.532 23.2305 121.758 24.4491C124.225 25.7759 126.746 25.1402 128.045 22.8335C137.263 6.70185 142.754-14.0363 142.754-32.8746C142.754-73.9411 117.525-101.047 79.4064-101.047C41.2601-101.047 16.084-73.9411 16.084-32.8746ZM34.4739 21.2477C36.532 28.0025 42.1887 31.0683 49.0793 29.0906C55.8869 27.1128 59.008 21.2149 57.0303 14.4047L47.7969-16.2855C45.7387-23.0404 40.0821-26.1338 33.1915-24.1284C26.3838-22.1507 23.2627-16.2804 25.2681-9.44255ZM124.339 21.2477L133.545-9.44255C135.55-16.3332 132.401-22.1507 125.621-24.1284C118.703-26.1338 112.994-23.0404 110.988-16.2855L101.783 14.4047C99.7244 21.2677 102.873 27.1128 109.706 29.0906C116.597 31.0683 122.281 28.0025 124.339 21.2477Z"/>
  </g>
  <g id="Light-L" transform="matrix(1 0 0 1 1074.82 1556)">
   <path d="M16.084-32.6646C16.084-13.979 21.4927 6.53008 30.6345 22.5281C31.5624 24.2622 33.5377 24.7262 35.3523 23.7048C37.0397 22.8106 37.4699 20.882 36.4149 18.9066C27.8642 3.29962 22.9662-15.4362 22.9662-32.6646C22.9662-68.6474 45.1711-92.8292 78.3186-92.8292C111.419-92.8292 133.658-68.6474 133.658-32.6646C133.658-15.4362 128.773 3.29962 120.222 18.9066C119.12 20.882 119.551 22.8106 121.204 23.7048C123.099 24.7262 125.028 24.2622 126.003 22.5281C135.144 6.53008 140.54-13.979 140.54-32.6646C140.54-73.1013 115.826-99.7113 78.3186-99.7113C40.7639-99.7113 16.084-73.1013 16.084-32.6646ZM32.6798 20.8469C34.6044 26.991 39.6694 29.6751 45.9875 27.8309C52.1653 25.9868 54.9428 20.6805 53.0987 14.4429L43.5981-16.171C41.6736-22.3151 36.6085-25.0459 30.2905-23.1551C24.1127-21.3109 21.3351-16.0514 23.226-9.767ZM123.957 20.8469L133.411-9.767C135.302-16.0851 132.478-21.3109 126.347-23.1551C119.982-25.0459 114.883-22.3151 112.992-16.171L103.538 14.4429C101.614 20.7142 104.438 25.9868 110.603 27.8309C116.921 29.6751 122.033 26.991 123.957 20.8469Z"/>
  </g>
  <g id="Thin-L" transform="matrix(1 0 0 1 779.574 1556)">
   <path d="M16.084-32.387C16.084-13.9033 21.417 6.3029 30.4578 22.1243C30.9313 23.1011 32.1494 23.3379 33.2067 22.7204C34.1116 22.2553 34.3399 21.1092 33.714 19.891C25.0624 4.10736 20.0381-14.9313 20.0381-32.387C20.0381-69.127 42.8993-93.9903 76.8798-93.9903C110.788-93.9903 133.658-69.127 133.658-32.387C133.658-14.9313 128.697 4.10736 120.046 19.891C119.348 21.1092 119.576 22.2553 120.472 22.7204C121.61 23.3379 122.756 23.1011 123.302 22.1243C132.343 6.3029 137.612-13.9033 137.612-32.387C137.612-71.9907 113.58-97.9444 76.8798-97.9444C40.1076-97.9444 16.084-71.9907 16.084-32.387ZM30.3071 20.3168C32.055 25.6532 36.3375 27.8324 41.8983 26.165C47.2431 24.4975 49.5663 19.9737 47.8989 14.4934L38.0449-16.0195C36.297-21.3559 32.0145-23.6072 26.4537-21.8677C21.1089-20.2003 18.7857-15.7485 20.5251-10.1961ZM123.452 20.3168L133.234-10.1961C134.974-15.7569 132.579-20.2003 127.306-21.8677C121.673-23.6072 117.382-21.3559 115.643-16.0195L105.861 14.4934C104.113 19.9822 106.508 24.4975 111.789 26.165C117.35 27.8324 121.705 25.6532 123.452 20.3168Z"/>
  </g>
  <g id="Ultralight-L" transform="matrix(1 0 0 1 483.613 1556)">
   <path d="M16.084-32.2447C16.084-13.8645 21.3782 6.18654 30.3673 21.9174C30.6081 22.5064 31.4384 22.6268 32.1078 22.2162C32.6119 21.9709 32.7368 21.2255 32.3306 20.3953C23.6273 4.52108 18.5384-14.6728 18.5384-32.2447C18.5384-69.3727 41.7357-94.585 76.1428-94.585C110.465-94.585 133.658-69.3727 133.658-32.2447C133.658-14.6728 128.658 4.52108 119.955 20.3953C119.464 21.2255 119.589 21.9709 120.097 22.2162C120.847 22.6268 121.593 22.5064 121.918 21.9174C130.907 6.18654 136.112-13.8645 136.112-32.2447C136.112-71.4218 112.429-97.0394 76.1428-97.0394C39.7715-97.0394 16.084-71.4218 16.084-32.2447ZM29.0918 20.0453C30.7492 24.968 34.6309 26.8886 39.8038 25.3117C44.722 23.7347 46.8125 19.6117 45.2356 14.5192L35.2006-15.942C33.5432-20.8647 29.6615-22.8702 24.4886-21.2084C19.5704-19.6314 17.4799-15.5933 19.1418-10.4159ZM123.194 20.0453L133.144-10.4159C134.806-15.5888 132.63-19.6314 127.797-21.2084C122.539-22.8702 118.662-20.8647 117-15.942L107.05 14.5192C105.393 19.6072 107.568 23.7347 112.397 25.3117C117.57 26.8886 121.537 24.968 123.194 20.0453Z"/>
  </g>
  <g id="Black-M" transform="matrix(1 0 0 1 2866.7 1126)">
   <path d="M12.4609-33.13C12.4609-17.8476 16.9321-0.778149 24.4461 12.3285C26.7354 16.3084 31.4162 17.5673 35.5155 15.3356C39.5529 13.1089 40.7492 8.37073 38.4549 4.20384C32.2047-7.2324 28.7067-20.5676 28.7067-33.13C28.7067-57.857 43.876-74.293 66.6966-74.293C89.5175-74.293 104.692-57.857 104.692-33.13C104.692-20.5676 101.188-7.2324 94.9383 4.20384C92.6443 8.37073 93.8406 13.1089 97.8725 15.3356C101.977 17.5673 106.658 16.3084 108.947 12.3285C116.461-0.778149 120.938-17.8476 120.938-33.13C120.938-67.6036 99.2644-90.5387 66.6966-90.5387C34.1291-90.5387 12.4609-67.6036 12.4609-33.13ZM34.2303 10.6945C36.6049 17.3077 42.6881 20.1741 49.4201 17.8619C56.0958 15.4354 58.9617 9.3366 56.5924 2.66691L49.4002-17.5998C47.0828-24.213 40.9996-27.0792 34.2676-24.8243C27.5918-22.3978 24.7259-16.2987 27.095-9.57224ZM99.1629 10.6945L106.298-9.57224C108.667-16.3042 105.802-22.3978 99.1256-24.8243C92.3939-27.0792 86.3052-24.213 83.9933-17.5998L76.8008 2.66691C74.4263 9.3421 77.2919 15.4354 83.9734 17.8619C90.7054 20.1741 96.7883 17.3077 99.1629 10.6945Z"/>
  </g>
  <g id="Heavy-M" transform="matrix(1 0 0 1 2571.06 1126)">
   <path d="M12.4609-33.2231C12.4609-18.0825 16.884-1.21888 24.3204 11.762C26.3481 15.3015 30.467 16.4026 34.1124 14.4139C37.6932 12.4463 38.7343 8.28594 36.6856 4.55957C30.3713-6.98888 26.8335-20.5299 26.8335-33.2231C26.8335-58.512 42.3254-75.3269 65.6211-75.3269C88.9146-75.3269 104.423-58.512 104.423-33.2231C104.423-20.5299 100.871-6.98888 94.5566 4.55957C92.5056 8.28594 93.5467 12.4463 97.1111 14.4139C100.775 16.4026 104.892 15.3015 106.922 11.762C114.358-1.21888 118.795-18.0825 118.795-33.2231C118.795-67.1543 97.5546-89.6995 65.6211-89.6995C33.6853-89.6995 12.4609-67.1543 12.4609-33.2231ZM32.6964 10.2366C34.9049 16.6062 40.6662 19.4081 47.1464 17.2619C53.576 15.0285 56.3824 9.21111 54.1927 2.7933L47.0456-18.3121C44.8808-24.6818 39.1194-27.4859 32.6393-25.3811C26.2096-23.1477 23.4032-17.3326 25.5952-10.8689ZM98.5458 10.2366L105.647-10.8689C107.839-17.349 105.03-23.1477 98.603-25.3811C92.1206-27.4859 86.3428-24.6818 84.1944-18.3121L77.0496 2.7933C74.8411 9.22752 77.6498 15.0285 84.0936 17.2619C90.5737 19.4081 96.3374 16.6062 98.5458 10.2366Z"/>
  </g>
  <g id="Bold-M" transform="matrix(1 0 0 1 2275.55 1126)">
   <path d="M12.4609-33.3273C12.4609-18.3452 16.8302-1.7119 24.1798 11.1284C25.9148 14.1751 29.4053 15.0997 32.5428 13.3829C35.6129 11.705 36.4804 8.1911 34.7064 4.95752C28.3204-6.71647 24.7381-20.4878 24.7381-33.3273C24.7381-59.2446 40.5907-76.4835 64.418-76.4835C88.2401-76.4835 104.121-59.2446 104.121-33.3273C104.121-20.4878 100.516-6.71647 94.1296 4.95752C92.3505 8.1911 93.218 11.705 96.2594 13.3829C99.4307 15.0997 102.916 14.1751 104.656 11.1284C112.006-1.7119 116.399-18.3452 116.399-33.3273C116.399-66.6516 95.642-88.7607 64.418-88.7607C33.1889-88.7607 12.4609-66.6516 12.4609-33.3273ZM30.9805 9.72432C33.0031 15.8216 38.4045 18.5511 44.6029 16.5908C50.7573 14.5734 53.4971 9.07073 51.5083 2.93468L44.4116-19.1089C42.4175-25.2062 37.0161-27.9409 30.8177-26.004C24.6633-23.9866 21.9235-18.489 23.9175-12.3193ZM97.8555 9.72432L104.919-12.3193C106.913-18.5177 104.168-23.9866 98.0183-26.004C91.8148-27.9409 86.3848-25.2062 84.4193-19.1089L77.3278 2.93468C75.3051 9.09936 78.0501 14.5734 84.228 16.5908C90.4264 18.5511 95.8329 15.8216 97.8555 9.72432Z"/>
  </g>
  <g id="Semibold-M" transform="matrix(1 0 0 1 1979.66 1126)">
   <path d="M12.4609-33.3991C12.4609-18.5264 16.7931-2.05178 24.0828 10.6916C25.6161 13.3985 28.6734 14.2015 31.4608 12.6721C34.1788 11.194 34.9265 8.12571 33.342 5.23186C26.9065-6.52868 23.2936-20.4588 23.2936-33.3991C23.2936-59.7497 39.3949-77.2808 63.5886-77.2808C87.7752-77.2808 103.914-59.7497 103.914-33.3991C103.914-20.4588 100.271-6.52868 93.8352 5.23186C92.2436 8.12571 92.9913 11.194 95.6723 12.6721C98.5038 14.2015 101.554 13.3985 103.094 10.6916C110.384-2.05178 114.746-18.5264 114.746-33.3991C114.746-66.305 94.3234-88.1135 63.5886-88.1135C32.8467-88.1135 12.4609-66.305 12.4609-33.3991ZM29.7976 9.37116C31.6921 15.2806 36.8453 17.9604 42.8494 16.1281C48.814 14.2596 51.508 8.97396 49.6576 3.03215L42.5957-19.6583C40.7193-25.5677 35.5661-28.2546 29.562-26.4334C23.5974-24.5649 20.9034-19.2863 22.7609-13.3192ZM97.3796 9.37116L104.416-13.3192C106.274-19.3234 103.573-24.5649 97.6152-26.4334C91.604-28.2546 86.4137-25.5677 84.5744-19.6583L77.5196 3.03215C75.625 9.011 78.3261 14.2596 84.3207 16.1281C90.3248 17.9604 95.4851 15.2806 97.3796 9.37116Z"/>
  </g>
  <g id="Medium-M" transform="matrix(1 0 0 1 1683.58 1126)">
   <path d="M12.4609-33.4536C12.4609-18.6637 16.765-2.30949 24.0093 10.3604C25.3896 12.8097 28.1184 13.5204 30.6403 12.1332C33.0913 10.8066 33.7484 8.07613 32.3074 5.43987C25.8344-6.38628 22.1983-20.4367 22.1983-33.4536C22.1983-60.1327 38.4882-77.8854 62.9597-77.8854C87.4226-77.8854 103.756-60.1327 103.756-33.4536C103.756-20.4367 100.085-6.38628 93.612 5.43987C92.1625 8.07613 92.8195 10.8066 95.2271 12.1332C97.801 13.5204 100.521 12.8097 101.91 10.3604C109.154-2.30949 113.493-18.6637 113.493-33.4536C113.493-66.0423 93.3236-87.6227 62.9597-87.6227C32.5872-87.6227 12.4609-66.0423 12.4609-33.4536ZM28.9006 9.10339C30.698 14.8704 35.663 17.5124 41.5198 15.7773C47.3406 14.0217 49.9998 8.90058 48.2544 3.10605L41.2188-20.0748C39.4317-25.8418 34.4667-28.4924 28.6099-26.759C22.7891-25.0034 20.1299-19.8908 21.8839-14.0774ZM97.0188 9.10339L104.036-14.0774C105.789-19.9343 103.122-25.0034 97.3096-26.759C91.4441-28.4924 86.4357-25.8418 84.692-20.0748L77.665 3.10605C75.8676 8.944 78.5354 14.0217 84.391 15.7773C90.2478 17.5124 95.2214 14.8704 97.0188 9.10339Z"/>
  </g>
  <g id="Regular-M" transform="matrix(1 0 0 1 1387.68 1126)">
   <path d="M12.4609-33.5247C12.4609-18.8429 16.7283-2.64564 23.9134 9.92835C25.0942 12.0417 27.3945 12.6321 29.5702 11.4302C31.673 10.3012 32.2116 8.01146 30.958 5.7112C24.4361-6.20055 20.7696-20.408 20.7696-33.5247C20.7696-60.6322 37.3055-78.6739 62.1394-78.6739C86.9628-78.6739 103.55-60.6322 103.55-33.5247C103.55-20.408 99.8428-6.20055 93.3209 5.7112C92.0567 8.01146 92.5953 10.3012 94.6464 11.4302C96.8843 12.6321 99.174 12.0417 100.365 9.92835C107.551-2.64564 111.859-18.8429 111.859-33.5247C111.859-65.6995 92.0196-86.9826 62.1394-86.9826C32.2487-86.9826 12.4609-65.6995 12.4609-33.5247ZM27.7307 8.75411C29.4013 14.3354 34.1209 16.9281 39.7857 15.3197C45.4187 13.7114 48.0325 8.80486 46.4241 3.20245L39.4229-20.618C37.7522-26.1994 33.0326-28.8026 27.3679-27.1837C21.7349-25.5753 19.1211-20.6793 20.74-15.0664ZM96.5482 8.75411L103.539-15.0664C105.158-20.7311 102.533-25.5753 96.9109-27.1837C91.2356-28.8026 86.4643-26.1994 84.8454-20.618L77.8547 3.20245C76.184 8.85662 78.8083 13.7114 84.4826 15.3197C90.1473 16.9281 94.8775 14.3354 96.5482 8.75411Z"/>
  </g>
  <g id="Light-M" transform="matrix(1 0 0 1 1091.97 1126)">
   <path d="M12.4609-33.3364C12.4609-18.7915 16.677-2.79964 23.7937 9.65458C24.6665 11.2546 26.4534 11.691 28.1157 10.7629C29.6881 9.92474 30.0898 8.16546 29.1271 6.37852C22.5367-5.653 18.7848-20.0658 18.7848-33.3364C18.7848-60.9573 35.7655-79.461 61.1641-79.461C86.535-79.461 103.55-60.9573 103.55-33.3364C103.55-20.0658 99.7914-5.653 93.2011 6.37852C92.2107 8.16546 92.6124 9.92474 94.1501 10.7629C95.8748 11.691 97.6341 11.2546 98.5345 9.65458C105.651-2.79964 109.874-18.7915 109.874-33.3364C109.874-64.9466 90.4967-85.7849 61.1641-85.7849C31.8038-85.7849 12.4609-64.9466 12.4609-33.3364ZM26.1222 8.39478C27.6731 13.4285 31.8623 15.679 37.0137 14.1904C42.0821 12.7018 44.3879 8.32576 42.8993 3.23667L35.6585-20.5154C34.1076-25.5491 29.9185-27.8273 24.7671-26.311C19.6987-24.8224 17.3929-20.474 18.9091-15.3573ZM96.2059 8.39478L103.419-15.3573C104.935-20.5087 102.602-24.8224 97.5611-26.311C92.3821-27.8273 88.1583-25.5491 86.642-20.5154L79.4289 3.23667C77.878 8.3604 80.2114 12.7018 85.2868 14.1904C90.4382 15.679 94.655 13.4285 96.2059 8.39478Z"/>
  </g>
  <g id="Thin-M" transform="matrix(1 0 0 1 796.567 1126)">
   <path d="M12.4609-33.0875C12.4609-18.7236 16.6091-3.00332 23.6353 9.29249C24.1007 10.2136 25.2087 10.4463 26.1921 9.88029C27.0629 9.42686 27.2836 8.36914 26.7056 7.26112C20.0248-4.92882 16.1596-19.6132 16.1596-33.0875C16.1596-61.3873 33.7287-80.502 59.8741-80.502C85.9692-80.502 103.55-61.3873 103.55-33.0875C103.55-19.6132 99.7235-4.92882 93.0427 7.26112C92.4144 8.36914 92.6351 9.42686 93.4939 9.88029C94.5396 10.4463 95.5973 10.2136 96.113 9.29249C103.139-3.00332 107.249-18.7236 107.249-33.0875C107.249-63.9509 88.4826-84.2007 59.8741-84.2007C31.2154-84.2007 12.4609-63.9509 12.4609-33.0875ZM23.995 7.91954C25.3874 12.2291 28.8751 14.027 33.3475 12.6968C37.6691 11.3666 39.5676 7.6921 38.2374 3.28193L30.6798-20.3796C29.2873-24.6892 25.7997-26.5373 21.3272-25.1569C17.0056-23.8267 15.1072-20.2024 16.4876-15.742ZM95.7533 7.91954L103.261-15.742C104.641-20.2145 102.692-23.8267 98.4211-25.1569C93.8983-26.5373 90.3987-24.6892 89.0182-20.3796L81.5109 3.28193C80.1184 7.70411 82.0672 11.3666 86.3505 12.6968C90.8229 14.027 94.3608 12.2291 95.7533 7.91954Z"/>
  </g>
  <g id="Ultralight-M" transform="matrix(1 0 0 1 500.528 1126)">
   <path d="M12.4609-32.96C12.4609-18.6889 16.5743-3.10764 23.5541 9.10703C23.8109 9.68039 24.5712 9.80879 25.2069 9.42823C25.7183 9.17186 25.8463 8.47346 25.4653 7.71318C18.7381-4.5579 14.815-19.3814 14.815-32.96C14.815-61.6075 32.6855-81.0352 59.2134-81.0352C85.6795-81.0352 103.55-61.6075 103.55-32.96C103.55-19.3814 99.6888-4.5579 92.9615 7.71318C92.5187 8.47346 92.6466 9.17186 93.1577 9.42823C93.8557 9.80879 94.5541 9.68039 94.8728 9.10703C101.853-3.10764 105.904-18.6889 105.904-32.96C105.904-63.4409 87.4509-83.3893 59.2134-83.3893C30.9141-83.3893 12.4609-63.4409 12.4609-32.96ZM22.9054 7.67612C24.2167 11.6148 27.345 13.1808 31.4697 11.9318C35.4088 10.6827 37.0986 7.36755 35.8496 3.30512L28.1297-20.31C26.8183-24.2487 23.6901-25.8766 19.5653-24.5657C15.6263-23.3167 13.9364-20.0634 15.2474-15.939ZM95.5215 7.67612L103.18-15.939C104.49-20.0638 102.739-23.3167 98.8615-24.5657C94.6749-25.8766 91.5462-24.2487 90.2353-20.31L82.5773 3.30512C81.266 7.36797 83.0176 10.6827 86.8953 11.9318C91.02 13.1808 94.2102 11.6148 95.5215 7.67612Z"/>
  </g>
  <g id="Black-S" transform="matrix(1 0 0 1 2880.86 696)">
   <path d="M9.76562-33.5449C9.76562-21.5332 13.2812-8.10547 19.1895 2.19727C21.0449 5.41992 24.8535 6.44531 28.1738 4.63867C31.4453 2.83203 32.4219-1.02539 30.5664-4.39453C25.6836-13.3301 22.9492-23.7305 22.9492-33.5449C22.9492-52.7832 34.7656-65.5762 52.5391-65.5762C70.3125-65.5762 82.1289-52.7832 82.1289-33.5449C82.1289-23.7305 79.3945-13.3301 74.5117-4.39453C72.6562-1.02539 73.6328 2.83203 76.9043 4.63867C80.2246 6.44531 84.0332 5.41992 85.8887 2.19727C91.7969-8.10547 95.3125-21.5332 95.3125-33.5449C95.3125-60.6934 78.2227-78.7598 52.5391-78.7598C26.8555-78.7598 9.76562-60.6934 9.76562-33.5449ZM27.1973 0.878906C29.1016 6.10352 33.9355 8.34961 39.2578 6.49414C44.5312 4.54102 46.7773-0.292969 44.873-5.56641L39.209-21.1914C37.3535-26.416 32.5195-28.6621 27.1973-26.8555C21.9238-24.9023 19.6777-20.0684 21.582-14.7461ZM77.8809 0.878906L83.4961-14.7461C85.4004-20.0684 83.1543-24.9023 77.8809-26.8555C72.5586-28.6621 67.7246-26.416 65.8691-21.1914L60.2051-5.56641C58.3008-0.292969 60.5469 4.54102 65.8203 6.49414C71.1426 8.34961 75.9766 6.10352 77.8809 0.878906Z"/>
  </g>
  <g id="Heavy-S" transform="matrix(1 0 0 1 2584.94 696)">
   <path d="M9.76562-33.6486C9.76562-21.7406 13.2467-8.46273 19.0973 1.74781C20.7683 4.65931 24.162 5.56945 27.1597 3.93568C30.1085 2.31343 30.9698-1.11759 29.2872-4.17557C24.3583-13.1918 21.6009-23.742 21.6009-33.6486C21.6009-53.3018 33.6362-66.3598 51.7439-66.3598C69.8515-66.3598 81.8984-53.3018 81.8984-33.6486C81.8984-23.742 79.1295-13.1918 74.2006-4.17557C72.518-1.11759 73.3793 2.31343 76.3165 3.93568C79.3257 5.56945 82.7194 4.65931 84.3905 1.74781C90.2411-8.46273 93.7336-21.7406 93.7336-33.6486C93.7336-60.4052 76.955-78.1951 51.7439-78.1951C26.5328-78.1951 9.76562-60.4052 9.76562-33.6486ZM26.0909 0.533172C27.8684 5.61949 32.495 7.85406 37.6674 6.12536C42.8026 4.32205 45.0371-0.339067 43.2711-5.46269L37.6762-21.8137C35.936-26.9 31.3095-29.1346 26.137-27.4432C21.0019-25.6399 18.7673-20.9788 20.5333-15.8179ZM77.3968 0.533172L82.9544-15.8179C84.7204-20.9903 82.4859-25.6399 77.3507-27.4432C72.1783-29.1346 67.5402-26.9 65.8115-21.8137L60.2166-5.46269C58.4391-0.327542 60.6736 4.32205 65.8203 6.12536C70.9928 7.85406 75.6193 5.61949 77.3968 0.533172Z"/>
  </g>
  <g id="Bold-S" transform="matrix(1 0 0 1 2289.11 696)">
   <path d="M9.76562-33.7646C9.76562-21.9727 13.208-8.8623 18.9941 1.24512C20.459 3.80859 23.3887 4.58984 26.0254 3.14941C28.6133 1.7334 29.3457-1.2207 27.8564-3.93066C22.876-13.0371 20.0928-23.7549 20.0928-33.7646C20.0928-53.8818 32.373-67.2363 50.8545-67.2363C69.3359-67.2363 81.6406-53.8818 81.6406-33.7646C81.6406-23.7549 78.833-13.0371 73.8525-3.93066C72.3633-1.2207 73.0957 1.7334 75.6592 3.14941C78.3203 4.58984 81.25 3.80859 82.7148 1.24512C88.501-8.8623 91.9678-21.9727 91.9678-33.7646C91.9678-60.083 75.5371-77.5635 50.8545-77.5635C26.1719-77.5635 9.76562-60.083 9.76562-33.7646ZM24.8535 0.146484C26.4893 5.07812 30.8838 7.2998 35.8887 5.71289C40.8691 4.07715 43.0908-0.390625 41.4795-5.34668L35.9619-22.5098C34.3506-27.4414 29.9561-29.6631 24.9512-28.1006C19.9707-26.4648 17.749-21.9971 19.3604-17.0166ZM76.8555 0.146484L82.3486-17.0166C83.96-22.0215 81.7383-26.4648 76.7578-28.1006C71.7529-29.6631 67.334-27.4414 65.7471-22.5098L60.2295-5.34668C58.5938-0.366211 60.8154 4.07715 65.8203 5.71289C70.8252 7.2998 75.2197 5.07812 76.8555 0.146484Z"/>
  </g>
  <g id="Semibold-S" transform="matrix(1 0 0 1 1993.01 696)">
   <path d="M9.76562-33.8446C9.76562-22.1326 13.1813-9.13779 18.923 0.898535C20.2457 3.22207 22.8555 3.91445 25.2434 2.60732C27.5824 1.3335 28.226-1.2918 26.87-3.76182C21.854-12.9305 19.053-23.7638 19.053-33.8446C19.053-54.2817 31.5021-67.8406 50.2413-67.8406C68.9805-67.8406 81.4629-54.2817 81.4629-33.8446C81.4629-23.7638 78.6286-12.9305 73.6126-3.76182C72.2566-1.2918 72.9002 1.3335 75.206 2.60732C77.6271 3.91445 80.2369 3.22207 81.5596 0.898535C87.3013-9.13779 90.7503-22.1326 90.7503-33.8446C90.7503-59.8608 74.5596-77.128 50.2413-77.128C25.923-77.128 9.76562-59.8608 9.76562-33.8446ZM24.0004-0.120117C25.5384 4.70488 29.7729 6.91768 34.6623 5.42852C39.5361 3.9083 41.7489-0.426172 40.2442-5.2667L34.78-22.9896C33.2575-27.8146 29.0229-30.0274 24.1336-28.5538C19.2598-27.0336 17.047-22.6991 18.5517-17.8431ZM76.4822-0.120117L81.931-17.8431C83.4356-22.7324 81.2229-27.0336 76.349-28.5538C71.4597-30.0274 67.1918-27.8146 65.7026-22.9896L60.2384-5.2667C58.7004-0.392871 60.9132 3.9083 65.8203 5.42852C70.7097 6.91768 74.9442 4.70488 76.4822-0.120117Z"/>
  </g>
  <g id="Medium-S" transform="matrix(1 0 0 1 1696.76 696)">
   <path d="M9.76562-33.9053C9.76562-22.2539 13.1611-9.34668 18.8691 0.635742C20.084 2.77734 22.4512 3.40234 24.6504 2.19629C26.8008 1.03027 27.377-1.3457 26.1221-3.63379C21.0791-12.8496 18.2646-23.7705 18.2646-33.9053C18.2646-54.585 30.8418-68.2988 49.7764-68.2988C68.7109-68.2988 81.3281-54.585 81.3281-33.9053C81.3281-23.7705 78.4736-12.8496 73.4307-3.63379C72.1758-1.3457 72.752 1.03027 74.8623 2.19629C77.1016 3.40234 79.4688 2.77734 80.6836 0.635742C86.3916-9.34668 89.8271-22.2539 89.8271-33.9053C89.8271-59.6924 73.8184-76.7979 49.7764-76.7979C25.7344-76.7979 9.76562-59.6924 9.76562-33.9053ZM23.3535-0.322266C24.8174 4.42188 28.9307 6.62793 33.7324 5.21289C38.5254 3.78027 40.7314-0.453125 39.3076-5.20605L33.8838-23.3535C32.4287-28.0977 28.3154-30.3037 23.5137-28.8975C18.7207-27.4648 16.5146-23.2314 17.9385-18.4697ZM76.1992-0.322266L81.6143-18.4697C83.0381-23.2715 80.832-27.4648 76.0391-28.8975C71.2373-30.3037 67.084-28.0977 65.6689-23.3535L60.2451-5.20605C58.7812-0.413086 60.9873 3.78027 65.8203 5.21289C70.6221 6.62793 74.7354 4.42188 76.1992-0.322266Z"/>
  </g>
  <g id="Regular-S" transform="matrix(1 0 0 1 1400.65 696)">
   <path d="M9.76562-33.9844C9.76562-22.4121 13.1348-9.61914 18.7988 0.292969C19.873 2.19727 21.9238 2.73438 23.877 1.66016C25.7812 0.634766 26.2695-1.41602 25.1465-3.4668C20.0684-12.7441 17.2363-23.7793 17.2363-33.9844C17.2363-54.9805 29.9805-68.8965 49.1699-68.8965C68.3594-68.8965 81.1523-54.9805 81.1523-33.9844C81.1523-23.7793 78.2715-12.7441 73.1934-3.4668C72.0703-1.41602 72.5586 0.634766 74.4141 1.66016C76.416 2.73438 78.4668 2.19727 79.541 0.292969C85.2051-9.61914 88.623-22.4121 88.623-33.9844C88.623-59.4727 72.8516-76.3672 49.1699-76.3672C25.4883-76.3672 9.76562-59.4727 9.76562-33.9844ZM22.5098-0.585938C23.877 4.05273 27.832 6.25 32.5195 4.93164C37.207 3.61328 39.4043-0.488281 38.0859-5.12695L32.7148-23.8281C31.3477-28.4668 27.3926-30.6641 22.7051-29.3457C18.0176-28.0273 15.8203-23.9258 17.1387-19.2871ZM75.8301-0.585938L81.2012-19.2871C82.5195-23.9746 80.3223-28.0273 75.6348-29.3457C70.9473-30.6641 66.9434-28.4668 65.625-23.8281L60.2539-5.12695C58.8867-0.439453 61.084 3.61328 65.8203 4.93164C70.5078 6.25 74.4629 4.05273 75.8301-0.585938Z"/>
  </g>
  <g id="Light-S" transform="matrix(1 0 0 1 1104.82 696)">
   <path d="M9.76562-33.8179C9.76562-22.3667 13.0894-9.75537 18.6929 0.0507832C19.4946 1.50098 21.0913 1.90186 22.5903 1.06983C24.0254 0.30176 24.3926-1.27979 23.5269-2.87647C18.3882-12.2598 15.4805-23.4766 15.4805-33.8179C15.4805-55.2681 28.6182-69.5928 48.3071-69.5928C67.981-69.5928 81.1523-55.2681 81.1523-33.8179C81.1523-23.4766 78.2261-12.2598 73.0874-2.87647C72.2065-1.27979 72.5737 0.30176 73.9751 1.06983C75.523 1.90186 77.1045 1.50098 77.9214 0.0507832C83.5249-9.75537 86.8672-22.3667 86.8672-33.8179C86.8672-58.8066 71.5044-75.3076 48.3071-75.3076C25.0947-75.3076 9.76562-58.8066 9.76562-33.8179ZM21.0869-0.903806C22.3482 3.25049 25.834 5.14503 30.0674 3.93263C34.2554 2.72022 36.1802-0.912106 34.9678-5.09668L29.3848-23.7373C28.1236-27.8916 24.6377-29.8013 20.4043-28.5737C16.2163-27.3613 14.2915-23.7441 15.5191-19.5444ZM75.5273-0.903806L81.0952-19.5444C82.3228-23.7778 80.3828-27.3613 76.21-28.5737C71.9614-29.8013 68.4419-27.8916 67.2143-23.7373L61.6465-5.09668C60.3852-0.878415 62.3252 2.72022 66.5317 3.93263C70.7651 5.14503 74.2661 3.25049 75.5273-0.903806Z"/>
  </g>
  <g id="Thin-S" transform="matrix(1 0 0 1 809.267 696)">
   <path d="M9.76562-33.5977C9.76562-22.3066 13.0293-9.93554 18.5527-0.269527C18.9941 0.580091 19.9902 0.800796 20.8887 0.289073C21.7032-0.138666 21.9102-1.09961 21.3848-2.09571C16.166-11.6191 13.1582-23.0762 13.1582-33.5977C13.1582-55.6484 26.8164-70.5137 47.166-70.5137C67.4805-70.5137 81.1523-55.6484 81.1523-33.5977C81.1523-23.0762 78.166-11.6191 72.9473-2.09571C72.3867-1.09961 72.5937-0.138666 73.3945 0.289073C74.3418 0.800796 75.3028 0.580091 75.7793-0.269527C81.3028-9.93554 84.545-22.3066 84.545-33.5977C84.545-57.9258 69.7227-73.9063 47.166-73.9063C24.5742-73.9063 9.76562-57.9258 9.76562-33.5977ZM19.2051-1.32421C20.3262 2.18947 23.1914 3.68361 26.8243 2.61135C30.3516 1.53908 31.9161-1.47265 30.8438-5.05664L24.9805-23.6172C23.8594-27.1309 20.9942-28.6602 17.3614-27.5527C13.834-26.4805 12.2696-23.5039 13.377-19.8848ZM75.127-1.32421L80.9551-19.8848C82.0625-23.5176 80.4629-26.4805 76.9707-27.5527C73.3027-28.6602 70.4238-27.1309 69.3164-23.6172L63.4883-5.05664C62.3672-1.45898 63.9668 1.53908 67.4726 2.61135C71.1055 3.68361 74.0059 2.18947 75.127-1.32421Z"/>
  </g>
  <g id="Ultralight-S" transform="matrix(1 0 0 1 513.151 696)">
   <path d="M9.76562-33.4849C9.76562-22.2759 12.9985-10.0278 18.481-0.433588C18.7378 0.108415 19.4263 0.236836 20.0171-0.110826C20.5137-0.36425 20.6387-1.00733 20.2876-1.69581C15.0279-11.291 11.9688-22.8711 11.9688-33.4849C11.9688-55.8433 25.8936-70.9853 46.5816-70.9853C67.2241-70.9853 81.1523-55.8433 81.1523-33.4849C81.1523-22.8711 78.1353-11.291 72.8755-1.69581C72.479-1.00733 72.604-0.36425 73.0972-0.110826C73.7368 0.236836 74.3799 0.108415 74.6822-0.433588C80.1646-10.0278 83.3555-22.2759 83.3555-33.4849C83.3555-57.4746 68.8101-73.1885 46.5816-73.1885C24.3076-73.1885 9.76562-57.4746 9.76562-33.4849ZM18.2412-1.53954C19.2906 1.64602 21.8379 2.93508 25.1631 1.93459C28.3521 0.934103 29.732-1.75976 28.7315-5.03613L22.7247-23.5557C21.6754-26.7412 19.128-28.0757 15.8028-27.0298C12.6138-26.0293 11.2339-23.3809 12.2798-20.0591ZM74.9219-1.53954L80.8833-20.0591C81.9292-23.3843 80.5039-26.0293 77.3603-27.0298C73.9897-28.0757 71.4389-26.7412 70.393-23.5557L64.4316-5.03613C63.3823-1.75634 64.8076 0.934103 67.9546 1.93459C71.2798 2.93508 73.8726 1.64602 74.9219-1.53954Z"/>
  </g>
 </g>
</svg>
