<?xml version="1.0" encoding="UTF-8"?>
<!--Generator: Apple Native CoreSVG 232.5-->
<!DOCTYPE svg
PUBLIC "-//W3C//DTD SVG 1.1//EN"
       "http://www.w3.org/Graphics/SVG/1.1/DTD/svg11.dtd">
<svg version="1.1" xmlns="http://www.w3.org/2000/svg" xmlns:xlink="http://www.w3.org/1999/xlink" width="3300" height="2200">
 <!--glyph: "", point size: 100.0, font version: "19.2d2e1", template writer version: "128"-->
 <style>.monochrome-0 {-sfsymbols-variable-threshold:0.0;-sfsymbols-motion-group:2}
.monochrome-1 {-sfsymbols-variable-threshold:0.34;-sfsymbols-motion-group:1}
.monochrome-2 {-sfsymbols-variable-threshold:0.68;-sfsymbols-motion-group:0}

.multicolor-0:tintColor {opacity:0.6;-sfsymbols-variable-threshold:0.0;-sfsymbols-motion-group:2}
.multicolor-1:tintColor {opacity:0.8;-sfsymbols-variable-threshold:0.34;-sfsymbols-motion-group:1}
.multicolor-2:tintColor {-sfsymbols-variable-threshold:0.68;-sfsymbols-motion-group:0}

.hierarchical-0:tertiary {-sfsymbols-variable-threshold:0.0;-sfsymbols-motion-group:2}
.hierarchical-1:secondary {-sfsymbols-variable-threshold:0.34;-sfsymbols-motion-group:1}
.hierarchical-2:primary {-sfsymbols-variable-threshold:0.68;-sfsymbols-motion-group:0}

.SFSymbolsPreviewWireframe {fill:none;opacity:1.0;stroke:black;stroke-width:0.5}
</style>
 <g id="Notes">
  <rect height="2200" id="artboard" style="fill:white;opacity:1" width="3300" x="0" y="0"/>
  <line style="fill:none;stroke:black;opacity:1;stroke-width:0.5;" x1="263" x2="3036" y1="292" y2="292"/>
  <text style="stroke:none;fill:black;font-family:sans-serif;font-size:13;font-weight:bold;" transform="matrix(1 0 0 1 263 322)">Weight/Scale Variations</text>
  <text style="stroke:none;fill:black;font-family:sans-serif;font-size:13;text-anchor:middle;" transform="matrix(1 0 0 1 559.711 322)">Ultralight</text>
  <text style="stroke:none;fill:black;font-family:sans-serif;font-size:13;text-anchor:middle;" transform="matrix(1 0 0 1 856.422 322)">Thin</text>
  <text style="stroke:none;fill:black;font-family:sans-serif;font-size:13;text-anchor:middle;" transform="matrix(1 0 0 1 1153.13 322)">Light</text>
  <text style="stroke:none;fill:black;font-family:sans-serif;font-size:13;text-anchor:middle;" transform="matrix(1 0 0 1 1449.84 322)">Regular</text>
  <text style="stroke:none;fill:black;font-family:sans-serif;font-size:13;text-anchor:middle;" transform="matrix(1 0 0 1 1746.56 322)">Medium</text>
  <text style="stroke:none;fill:black;font-family:sans-serif;font-size:13;text-anchor:middle;" transform="matrix(1 0 0 1 2043.27 322)">Semibold</text>
  <text style="stroke:none;fill:black;font-family:sans-serif;font-size:13;text-anchor:middle;" transform="matrix(1 0 0 1 2339.98 322)">Bold</text>
  <text style="stroke:none;fill:black;font-family:sans-serif;font-size:13;text-anchor:middle;" transform="matrix(1 0 0 1 2636.69 322)">Heavy</text>
  <text style="stroke:none;fill:black;font-family:sans-serif;font-size:13;text-anchor:middle;" transform="matrix(1 0 0 1 2933.4 322)">Black</text>
  <line style="fill:none;stroke:black;opacity:1;stroke-width:0.5;" x1="263" x2="3036" y1="1903" y2="1903"/>
  <g transform="matrix(0.2 0 0 0.2 263 1933)">
   <path d="m46.2402 4.15039c21.5332 0 39.4531-17.8711 39.4531-39.4043s-17.9688-39.4043-39.502-39.4043c-21.4844 0-39.3555 17.8711-39.3555 39.4043s17.9199 39.4043 39.4043 39.4043Zm0-7.42188c-17.7246 0-31.8848-14.209-31.8848-31.9824s14.1113-31.9824 31.8359-31.9824c17.7734 0 32.0312 14.209 32.0312 31.9824s-14.209 31.9824-31.9824 31.9824Zm-17.9688-31.9824c0 2.14844 1.51367 3.61328 3.75977 3.61328h10.498v10.5957c0 2.19727 1.46484 3.71094 3.61328 3.71094 2.24609 0 3.71094-1.51367 3.71094-3.71094v-10.5957h10.5957c2.19727 0 3.71094-1.46484 3.71094-3.61328 0-2.19727-1.51367-3.71094-3.71094-3.71094h-10.5957v-10.5469c0-2.24609-1.46484-3.75977-3.71094-3.75977-2.14844 0-3.61328 1.51367-3.61328 3.75977v10.5469h-10.498c-2.24609 0-3.75977 1.51367-3.75977 3.71094Z"/>
  </g>
  <g transform="matrix(0.2 0 0 0.2 281.506 1933)">
   <path d="m58.5449 14.5508c27.2461 0 49.8047-22.6074 49.8047-49.8047 0-27.2461-22.6074-49.8047-49.8535-49.8047-27.1973 0-49.7559 22.5586-49.7559 49.8047 0 27.1973 22.6074 49.8047 49.8047 49.8047Zm0-8.30078c-23.0469 0-41.4551-18.457-41.4551-41.5039s18.3594-41.5039 41.4062-41.5039 41.5527 18.457 41.5527 41.5039-18.457 41.5039-41.5039 41.5039Zm-22.6562-41.5039c0 2.39258 1.66016 4.00391 4.15039 4.00391h14.3555v14.4043c0 2.44141 1.66016 4.15039 4.05273 4.15039 2.44141 0 4.15039-1.66016 4.15039-4.15039v-14.4043h14.4043c2.44141 0 4.15039-1.61133 4.15039-4.00391 0-2.44141-1.70898-4.15039-4.15039-4.15039h-14.4043v-14.3555c0-2.49023-1.70898-4.19922-4.15039-4.19922-2.39258 0-4.05273 1.70898-4.05273 4.19922v14.3555h-14.3555c-2.49023 0-4.15039 1.70898-4.15039 4.15039Z"/>
  </g>
  <g transform="matrix(0.2 0 0 0.2 304.924 1933)">
   <path d="m74.8535 28.3203c34.8145 0 63.623-28.8086 63.623-63.5742 0-34.8145-28.8574-63.623-63.6719-63.623-34.7656 0-63.5254 28.8086-63.5254 63.623 0 34.7656 28.8086 63.5742 63.5742 63.5742Zm0-9.08203c-30.1758 0-54.4434-24.3164-54.4434-54.4922 0-30.2246 24.2188-54.4922 54.3945-54.4922 30.2246 0 54.541 24.2676 54.541 54.4922 0 30.1758-24.2676 54.4922-54.4922 54.4922Zm-28.8574-54.4922c0 2.58789 1.85547 4.39453 4.58984 4.39453h19.7266v19.7754c0 2.68555 1.85547 4.58984 4.44336 4.58984 2.68555 0 4.54102-1.85547 4.54102-4.58984v-19.7754h19.7754c2.68555 0 4.58984-1.80664 4.58984-4.39453 0-2.73438-1.85547-4.58984-4.58984-4.58984h-19.7754v-19.7266c0-2.73438-1.85547-4.63867-4.54102-4.63867-2.58789 0-4.44336 1.9043-4.44336 4.63867v19.7266h-19.7266c-2.73438 0-4.58984 1.85547-4.58984 4.58984Z"/>
  </g>
  <text style="stroke:none;fill:black;font-family:sans-serif;font-size:13;font-weight:bold;" transform="matrix(1 0 0 1 263 1953)">Design Variations</text>
  <text style="stroke:none;fill:black;font-family:sans-serif;font-size:13;" transform="matrix(1 0 0 1 263 1971)">Symbols are supported in up to nine weights and three scales.</text>
  <text style="stroke:none;fill:black;font-family:sans-serif;font-size:13;" transform="matrix(1 0 0 1 263 1989)">For optimal layout with text and other symbols, vertically align</text>
  <text style="stroke:none;fill:black;font-family:sans-serif;font-size:13;" transform="matrix(1 0 0 1 263 2007)">symbols with the adjacent text.</text>
  <line style="fill:none;stroke:#00AEEF;stroke-width:0.5;opacity:1.0;" x1="776" x2="776" y1="1919" y2="1933"/>
  <g transform="matrix(0.2 0 0 0.2 776 1933)">
   <path d="m16.5527 0.78125c2.58789 0 3.85742-0.976562 4.78516-3.71094l6.29883-17.2363h28.8086l6.29883 17.2363c0.927734 2.73438 2.19727 3.71094 4.73633 3.71094 2.58789 0 4.24805-1.5625 4.24805-4.00391 0-0.830078-0.146484-1.61133-0.537109-2.63672l-22.9004-60.9863c-1.12305-2.97852-3.125-4.49219-6.25-4.49219-3.02734 0-5.07812 1.46484-6.15234 4.44336l-22.9004 61.084c-0.390625 1.02539-0.537109 1.80664-0.537109 2.63672 0 2.44141 1.5625 3.95508 4.10156 3.95508Zm13.4766-28.3691 11.8652-32.8613h0.244141l11.8652 32.8613Z"/>
  </g>
  <line style="fill:none;stroke:#00AEEF;stroke-width:0.5;opacity:1.0;" x1="792.836" x2="792.836" y1="1919" y2="1933"/>
  <text style="stroke:none;fill:black;font-family:sans-serif;font-size:13;font-weight:bold;" transform="matrix(1 0 0 1 776 1953)">Margins</text>
  <text style="stroke:none;fill:black;font-family:sans-serif;font-size:13;" transform="matrix(1 0 0 1 776 1971)">Leading and trailing margins on the left and right side of each symbol</text>
  <text style="stroke:none;fill:black;font-family:sans-serif;font-size:13;" transform="matrix(1 0 0 1 776 1989)">can be adjusted by modifying the x-location of the margin guidelines.</text>
  <text style="stroke:none;fill:black;font-family:sans-serif;font-size:13;" transform="matrix(1 0 0 1 776 2007)">Modifications are automatically applied proportionally to all</text>
  <text style="stroke:none;fill:black;font-family:sans-serif;font-size:13;" transform="matrix(1 0 0 1 776 2025)">scales and weights.</text>
  <g transform="matrix(0.2 0 0 0.2 1289 1933)">
   <path d="m14.209 9.32617 8.49609 8.54492c4.29688 4.3457 9.22852 4.05273 13.8672-1.07422l53.4668-58.9355-4.83398-4.88281-53.0762 58.3984c-1.75781 2.00195-3.41797 2.49023-5.76172 0.146484l-5.85938-5.81055c-2.34375-2.29492-1.80664-4.00391 0.195312-5.81055l57.373-54.0039-4.88281-4.83398-57.959 54.4434c-4.93164 4.58984-5.32227 9.47266-1.02539 13.8184Zm32.0801-90.9668c-2.09961 2.05078-2.24609 4.93164-1.07422 6.88477 1.17188 1.80664 3.4668 2.97852 6.68945 2.14844 7.32422-1.70898 14.9414-2.00195 22.0703 2.68555l-2.92969 7.27539c-1.70898 4.15039-0.830078 7.08008 1.85547 9.81445l11.4746 11.5723c2.44141 2.44141 4.49219 2.53906 7.32422 2.05078l5.32227-0.976562 3.32031 3.36914-0.195312 2.7832c-0.195312 2.49023 0.439453 4.39453 2.88086 6.78711l3.80859 3.71094c2.39258 2.39258 5.46875 2.53906 7.8125 0.195312l14.5508-14.5996c2.34375-2.34375 2.24609-5.32227-0.146484-7.71484l-3.85742-3.80859c-2.39258-2.39258-4.24805-3.17383-6.64062-2.97852l-2.88086 0.244141-3.22266-3.17383 1.2207-5.61523c0.634766-2.83203-0.146484-5.0293-3.07617-7.95898l-10.9863-10.9375c-16.6992-16.6016-38.8672-16.2109-53.3203-1.75781Zm7.4707 1.85547c12.1582-8.88672 28.6133-7.37305 39.7461 3.75977l12.1582 12.0605c1.17188 1.17188 1.36719 2.09961 1.02539 3.80859l-1.61133 7.42188 7.51953 7.42188 4.93164-0.292969c1.26953-0.0488281 1.66016 0.0488281 2.63672 1.02539l2.88086 2.88086-12.207 12.207-2.88086-2.88086c-0.976562-0.976562-1.12305-1.36719-1.07422-2.68555l0.341797-4.88281-7.4707-7.42188-7.61719 1.26953c-1.61133 0.341797-2.34375 0.195312-3.56445-0.976562l-10.0098-10.0098c-1.26953-1.17188-1.41602-2.00195-0.634766-3.85742l4.39453-10.4492c-7.8125-7.27539-17.9688-10.4004-28.125-7.42188-0.78125 0.195312-1.07422-0.439453-0.439453-0.976562Z"/>
  </g>
  <text style="stroke:none;fill:black;font-family:sans-serif;font-size:13;font-weight:bold;" transform="matrix(1 0 0 1 1289 1953)">Exporting</text>
  <text style="stroke:none;fill:black;font-family:sans-serif;font-size:13;" transform="matrix(1 0 0 1 1289 1971)">Symbols should be outlined when exporting to ensure the</text>
  <text style="stroke:none;fill:black;font-family:sans-serif;font-size:13;" transform="matrix(1 0 0 1 1289 1989)">design is preserved when submitting to Xcode.</text>
  <text id="template-version" style="stroke:none;fill:black;font-family:sans-serif;font-size:13;text-anchor:end;" transform="matrix(1 0 0 1 3036 1933)">Template v.5.0</text>
  <text style="stroke:none;fill:black;font-family:sans-serif;font-size:13;text-anchor:end;" transform="matrix(1 0 0 1 3036 1951)">Requires Xcode 15 or greater</text>
  <text id="descriptive-name" style="stroke:none;fill:black;font-family:sans-serif;font-size:13;text-anchor:end;" transform="matrix(1 0 0 1 3036 1969)">Generated from lidar</text>
  <text style="stroke:none;fill:black;font-family:sans-serif;font-size:13;text-anchor:end;" transform="matrix(1 0 0 1 3036 1987)">Typeset at 100.0 points</text>
  <text style="stroke:none;fill:black;font-family:sans-serif;font-size:13;" transform="matrix(1 0 0 1 263 726)">Small</text>
  <text style="stroke:none;fill:black;font-family:sans-serif;font-size:13;" transform="matrix(1 0 0 1 263 1156)">Medium</text>
  <text style="stroke:none;fill:black;font-family:sans-serif;font-size:13;" transform="matrix(1 0 0 1 263 1586)">Large</text>
 </g>
 <g id="Guides">
  <g id="H-reference" style="fill:#27AAE1;stroke:none;" transform="matrix(1 0 0 1 339 696)">
   <path d="M0.993654 0L3.63775 0L29.3281-67.1323L30.0303-67.1323L30.0303-70.459L28.1226-70.459ZM11.6885-24.4799L46.9815-24.4799L46.2315-26.7285L12.4385-26.7285ZM55.1196 0L57.7637 0L30.6382-70.459L29.4326-70.459L29.4326-67.1323Z"/>
  </g>
  <line id="Baseline-S" style="fill:none;stroke:#27AAE1;opacity:1;stroke-width:0.5;" x1="263" x2="3036" y1="696" y2="696"/>
  <line id="Capline-S" style="fill:none;stroke:#27AAE1;opacity:1;stroke-width:0.5;" x1="263" x2="3036" y1="625.541" y2="625.541"/>
  <g id="H-reference" style="fill:#27AAE1;stroke:none;" transform="matrix(1 0 0 1 339 1126)">
   <path d="M0.993654 0L3.63775 0L29.3281-67.1323L30.0303-67.1323L30.0303-70.459L28.1226-70.459ZM11.6885-24.4799L46.9815-24.4799L46.2315-26.7285L12.4385-26.7285ZM55.1196 0L57.7637 0L30.6382-70.459L29.4326-70.459L29.4326-67.1323Z"/>
  </g>
  <line id="Baseline-M" style="fill:none;stroke:#27AAE1;opacity:1;stroke-width:0.5;" x1="263" x2="3036" y1="1126" y2="1126"/>
  <line id="Capline-M" style="fill:none;stroke:#27AAE1;opacity:1;stroke-width:0.5;" x1="263" x2="3036" y1="1055.54" y2="1055.54"/>
  <g id="H-reference" style="fill:#27AAE1;stroke:none;" transform="matrix(1 0 0 1 339 1556)">
   <path d="M0.993654 0L3.63775 0L29.3281-67.1323L30.0303-67.1323L30.0303-70.459L28.1226-70.459ZM11.6885-24.4799L46.9815-24.4799L46.2315-26.7285L12.4385-26.7285ZM55.1196 0L57.7637 0L30.6382-70.459L29.4326-70.459L29.4326-67.1323Z"/>
  </g>
  <line id="Baseline-L" style="fill:none;stroke:#27AAE1;opacity:1;stroke-width:0.5;" x1="263" x2="3036" y1="1556" y2="1556"/>
  <line id="Capline-L" style="fill:none;stroke:#27AAE1;opacity:1;stroke-width:0.5;" x1="263" x2="3036" y1="1485.54" y2="1485.54"/>
  <line id="left-margin-Ultralight-S" style="fill:none;stroke:#00AEEF;stroke-width:0.5;opacity:1.0;" x1="515.634" x2="515.634" y1="600.785" y2="720.121"/>
  <line id="right-margin-Ultralight-S" style="fill:none;stroke:#00AEEF;stroke-width:0.5;opacity:1.0;" x1="603.788" x2="603.788" y1="600.785" y2="720.121"/>
  <line id="left-margin-Regular-S" style="fill:none;stroke:#00AEEF;stroke-width:0.5;opacity:1.0;" x1="1403.04" x2="1403.04" y1="600.785" y2="720.121"/>
  <line id="right-margin-Regular-S" style="fill:none;stroke:#00AEEF;stroke-width:0.5;opacity:1.0;" x1="1496.65" x2="1496.65" y1="600.785" y2="720.121"/>
  <line id="left-margin-Black-S" style="fill:none;stroke:#00AEEF;stroke-width:0.5;opacity:1.0;" x1="2881.4" x2="2881.4" y1="600.785" y2="720.121"/>
  <line id="right-margin-Black-S" style="fill:none;stroke:#00AEEF;stroke-width:0.5;opacity:1.0;" x1="2985.4" x2="2985.4" y1="600.785" y2="720.121"/>
 </g>
 <g id="Symbols">
  <g id="Black-S" transform="matrix(1 0 0 1 2881.4 696)">
   <path class="monochrome-0 multicolor-0:tintColor hierarchical-0:tertiary SFSymbolsPreviewWireframe" d="M35.9517-51.1348C43.0331-51.1348 48.9618-57.0085 48.9618-64.09C48.9618-71.1714 43.0331-77.1 35.9517-77.1C28.8153-77.1 22.9416-71.1714 22.9416-64.09C22.9416-57.0635 28.7605-51.1348 35.9517-51.1348ZM83.8199-22.4797C90.9562-22.4797 96.83-28.4084 96.83-35.4898C96.83-42.5712 90.9562-48.4999 83.8199-48.4999C76.7385-48.4999 70.8098-42.5712 70.8098-35.4898C70.8098-28.4084 76.7385-22.4797 83.8199-22.4797ZM35.9517 6.12042C43.0331 6.12042 48.9618 0.191795 48.9618-6.88963C48.9618-13.9711 43.0331-19.8448 35.9517-19.8448C28.8153-19.8448 22.9416-13.9711 22.9416-6.88963C22.9416 0.136898 28.7605 6.12042 35.9517 6.12042Z"/>
   <path class="monochrome-1 multicolor-1:tintColor hierarchical-1:secondary SFSymbolsPreviewWireframe" d="M67.9575-55.2163C73.006-55.2163 77.2325-59.4038 77.2325-64.4523C77.2325-69.5007 73.006-73.7272 67.9575-73.7272C62.8699-73.7272 58.6825-69.5007 58.6825-64.4523C58.6825-59.4038 62.8699-55.2163 67.9575-55.2163ZM19.615-25.9468C24.7026-25.9468 28.89-30.1735 28.89-35.2219C28.89-40.2703 24.7026-44.4969 19.615-44.4969C14.5666-44.4969 10.34-40.2703 10.34-35.2219C10.34-30.2126 14.5274-25.9468 19.615-25.9468ZM67.9575 2.39327C73.006 2.39327 77.2325-1.83332 77.2325-6.88175C77.2325-11.9302 73.006-16.1177 67.9575-16.1177C62.8699-16.1177 58.6825-11.9302 58.6825-6.88175C58.6825-1.83332 62.8699 2.39327 67.9575 2.39327Z"/>
   <path class="monochrome-2 multicolor-2:tintColor hierarchical-2:primary SFSymbolsPreviewWireframe" d="M51.9261-28.6887C55.6279-28.6887 58.7271-31.7879 58.7271-35.4898C58.7271-39.1916 55.6279-42.2909 51.9261-42.2909C48.1955-42.2909 45.1249-39.1916 45.1249-35.4898C45.1249-31.7879 48.1955-28.6887 51.9261-28.6887Z"/>
  </g>
  <g id="Regular-S" transform="matrix(1 0 0 1 1403.04 696)">
   <path class="monochrome-0 multicolor-0:tintColor hierarchical-0:tertiary SFSymbolsPreviewWireframe" d="M32.6172-49.1699C38.916-49.1699 44.1895-54.3945 44.1895-60.6934C44.1895-66.9922 38.916-72.2656 32.6172-72.2656C26.2695-72.2656 21.0449-66.9922 21.0449-60.6934C21.0449-54.4434 26.2207-49.1699 32.6172-49.1699ZM75.1953-23.6816C81.543-23.6816 86.7676-28.9551 86.7676-35.2539C86.7676-41.5527 81.543-46.8262 75.1953-46.8262C68.8965-46.8262 63.623-41.5527 63.623-35.2539C63.623-28.9551 68.8965-23.6816 75.1953-23.6816ZM32.6172 1.75781C38.916 1.75781 44.1895-3.51562 44.1895-9.81445C44.1895-16.1133 38.916-21.3379 32.6172-21.3379C26.2695-21.3379 21.0449-16.1133 21.0449-9.81445C21.0449-3.56445 26.2207 1.75781 32.6172 1.75781Z"/>
   <path class="monochrome-1 multicolor-1:tintColor hierarchical-1:secondary SFSymbolsPreviewWireframe" d="M61.086-52.8004C65.5765-52.8004 69.3359-56.5251 69.3359-61.0156C69.3359-65.5061 65.5765-69.2656 61.086-69.2656C56.5606-69.2656 52.8359-65.5061 52.8359-61.0156C52.8359-56.5251 56.5606-52.8004 61.086-52.8004ZM18.0859-26.7656C22.6113-26.7656 26.3359-30.5251 26.3359-35.0156C26.3359-39.5061 22.6113-43.2656 18.0859-43.2656C13.5954-43.2656 9.83594-39.5061 9.83594-35.0156C9.83594-30.5599 13.5606-26.7656 18.0859-26.7656ZM61.086-1.55744C65.5765-1.55744 69.3359-5.31693 69.3359-9.80744C69.3359-14.298 65.5765-18.0227 61.086-18.0227C56.5606-18.0227 52.8359-14.298 52.8359-9.80744C52.8359-5.31693 56.5606-1.55744 61.086-1.55744Z"/>
   <path class="monochrome-2 multicolor-2:tintColor hierarchical-2:primary SFSymbolsPreviewWireframe" d="M46.8262-29.2044C50.1189-29.2044 52.8756-31.9612 52.8756-35.2539C52.8756-38.5466 50.1189-41.3034 46.8262-41.3034C43.5079-41.3034 40.7767-38.5466 40.7767-35.2539C40.7767-31.9612 43.5079-29.2044 46.8262-29.2044Z"/>
  </g>
  <g id="Ultralight-S" transform="matrix(1 0 0 1 515.634 696)">
   <path class="monochrome-0 multicolor-0:tintColor hierarchical-0:tertiary SFSymbolsPreviewWireframe" d="M29.4798-48.2845C35.4981-48.2845 40.5367-53.2764 40.5367-59.2948C40.5367-65.3131 35.4981-70.3516 29.4798-70.3516C23.4148-70.3516 18.4229-65.3131 18.4229-59.2948C18.4229-53.3231 23.3682-48.2845 29.4798-48.2845ZM70.1616-23.9314C76.2266-23.9314 81.2185-28.97 81.2185-34.9883C81.2185-41.0066 76.2266-46.0452 70.1616-46.0452C64.1433-46.0452 59.1047-41.0066 59.1047-34.9883C59.1047-28.97 64.1433-23.9314 70.1616-23.9314ZM29.4798 0.375004C35.4981 0.375004 40.5367-4.66356 40.5367-10.6819C40.5367-16.7002 35.4981-21.6921 29.4798-21.6921C23.4148-21.6921 18.4229-16.7002 18.4229-10.6819C18.4229-4.71022 23.3682 0.375004 29.4798 0.375004Z"/>
   <path class="monochrome-1 multicolor-1:tintColor hierarchical-1:secondary SFSymbolsPreviewWireframe" d="M56.6807-51.7533C60.9712-51.7533 64.5632-55.3121 64.5632-59.6027C64.5632-63.8932 60.9712-67.4852 56.6807-67.4852C52.3569-67.4852 48.7981-63.8932 48.7981-59.6027C48.7981-55.3121 52.3569-51.7533 56.6807-51.7533ZM15.5957-26.878C19.9195-26.878 23.4783-30.4701 23.4783-34.7606C23.4783-39.0511 19.9195-42.6432 15.5957-42.6432C11.3052-42.6432 7.71317-39.0511 7.71317-34.7606C7.71317-30.5034 11.2719-26.878 15.5957-26.878ZM56.6807-2.79259C60.9712-2.79259 64.5632-6.38464 64.5632-10.6752C64.5632-14.9657 60.9712-18.5245 56.6807-18.5245C52.3569-18.5245 48.7981-14.9657 48.7981-10.6752C48.7981-6.38464 52.3569-2.79259 56.6807-2.79259Z"/>
   <path class="monochrome-2 multicolor-2:tintColor hierarchical-2:primary SFSymbolsPreviewWireframe" d="M43.056-29.2082C46.202-29.2082 48.836-31.8422 48.836-34.9883C48.836-38.1344 46.202-40.7684 43.056-40.7684C39.8854-40.7684 37.2759-38.1344 37.2759-34.9883C37.2759-31.8422 39.8854-29.2082 43.056-29.2082Z"/>
  </g>
 </g>
</svg>
