<?xml version="1.0" encoding="UTF-8"?>
<!--Generator: Apple Native CoreSVG 232.5-->
<!DOCTYPE svg
PUBLIC "-//W3C//DTD SVG 1.1//EN"
       "http://www.w3.org/Graphics/SVG/1.1/DTD/svg11.dtd">
<svg version="1.1" xmlns="http://www.w3.org/2000/svg" xmlns:xlink="http://www.w3.org/1999/xlink" width="3300" height="2200">
 <!--glyph: "", point size: 100.0, font version: "19.2d2e1", template writer version: "128"-->
 <style>.monochrome-0 {-sfsymbols-motion-group:2}
.monochrome-1 {-sfsymbols-motion-group:1}
.monochrome-2 {-sfsymbols-motion-group:0}

.multicolor-0:tintColor {-sfsymbols-motion-group:2}
.multicolor-1:systemGrayColor {-sfsymbols-motion-group:1}
.multicolor-2:systemOrangeColor {-sfsymbols-motion-group:0}

.hierarchical-0:tertiary {-sfsymbols-motion-group:2}
.hierarchical-1:primary {-sfsymbols-motion-group:1}
.hierarchical-2:secondary {-sfsymbols-motion-group:0}

.SFSymbolsPreviewWireframe {fill:none;opacity:1.0;stroke:black;stroke-width:0.5}
</style>
 <g id="Notes">
  <rect height="2200" id="artboard" style="fill:white;opacity:1" width="3300" x="0" y="0"/>
  <line style="fill:none;stroke:black;opacity:1;stroke-width:0.5;" x1="263" x2="3036" y1="292" y2="292"/>
  <text style="stroke:none;fill:black;font-family:sans-serif;font-size:13;font-weight:bold;" transform="matrix(1 0 0 1 263 322)">Weight/Scale Variations</text>
  <text style="stroke:none;fill:black;font-family:sans-serif;font-size:13;text-anchor:middle;" transform="matrix(1 0 0 1 559.711 322)">Ultralight</text>
  <text style="stroke:none;fill:black;font-family:sans-serif;font-size:13;text-anchor:middle;" transform="matrix(1 0 0 1 856.422 322)">Thin</text>
  <text style="stroke:none;fill:black;font-family:sans-serif;font-size:13;text-anchor:middle;" transform="matrix(1 0 0 1 1153.13 322)">Light</text>
  <text style="stroke:none;fill:black;font-family:sans-serif;font-size:13;text-anchor:middle;" transform="matrix(1 0 0 1 1449.84 322)">Regular</text>
  <text style="stroke:none;fill:black;font-family:sans-serif;font-size:13;text-anchor:middle;" transform="matrix(1 0 0 1 1746.56 322)">Medium</text>
  <text style="stroke:none;fill:black;font-family:sans-serif;font-size:13;text-anchor:middle;" transform="matrix(1 0 0 1 2043.27 322)">Semibold</text>
  <text style="stroke:none;fill:black;font-family:sans-serif;font-size:13;text-anchor:middle;" transform="matrix(1 0 0 1 2339.98 322)">Bold</text>
  <text style="stroke:none;fill:black;font-family:sans-serif;font-size:13;text-anchor:middle;" transform="matrix(1 0 0 1 2636.69 322)">Heavy</text>
  <text style="stroke:none;fill:black;font-family:sans-serif;font-size:13;text-anchor:middle;" transform="matrix(1 0 0 1 2933.4 322)">Black</text>
  <line style="fill:none;stroke:black;opacity:1;stroke-width:0.5;" x1="263" x2="3036" y1="1903" y2="1903"/>
  <g transform="matrix(0.2 0 0 0.2 263 1933)">
   <path d="m46.2402 4.15039c21.5332 0 39.4531-17.8711 39.4531-39.4043s-17.9688-39.4043-39.502-39.4043c-21.4844 0-39.3555 17.8711-39.3555 39.4043s17.9199 39.4043 39.4043 39.4043Zm0-7.42188c-17.7246 0-31.8848-14.209-31.8848-31.9824s14.1113-31.9824 31.8359-31.9824c17.7734 0 32.0312 14.209 32.0312 31.9824s-14.209 31.9824-31.9824 31.9824Zm-17.9688-31.9824c0 2.14844 1.51367 3.61328 3.75977 3.61328h10.498v10.5957c0 2.19727 1.46484 3.71094 3.61328 3.71094 2.24609 0 3.71094-1.51367 3.71094-3.71094v-10.5957h10.5957c2.19727 0 3.71094-1.46484 3.71094-3.61328 0-2.19727-1.51367-3.71094-3.71094-3.71094h-10.5957v-10.5469c0-2.24609-1.46484-3.75977-3.71094-3.75977-2.14844 0-3.61328 1.51367-3.61328 3.75977v10.5469h-10.498c-2.24609 0-3.75977 1.51367-3.75977 3.71094Z"/>
  </g>
  <g transform="matrix(0.2 0 0 0.2 281.506 1933)">
   <path d="m58.5449 14.5508c27.2461 0 49.8047-22.6074 49.8047-49.8047 0-27.2461-22.6074-49.8047-49.8535-49.8047-27.1973 0-49.7559 22.5586-49.7559 49.8047 0 27.1973 22.6074 49.8047 49.8047 49.8047Zm0-8.30078c-23.0469 0-41.4551-18.457-41.4551-41.5039s18.3594-41.5039 41.4062-41.5039 41.5527 18.457 41.5527 41.5039-18.457 41.5039-41.5039 41.5039Zm-22.6562-41.5039c0 2.39258 1.66016 4.00391 4.15039 4.00391h14.3555v14.4043c0 2.44141 1.66016 4.15039 4.05273 4.15039 2.44141 0 4.15039-1.66016 4.15039-4.15039v-14.4043h14.4043c2.44141 0 4.15039-1.61133 4.15039-4.00391 0-2.44141-1.70898-4.15039-4.15039-4.15039h-14.4043v-14.3555c0-2.49023-1.70898-4.19922-4.15039-4.19922-2.39258 0-4.05273 1.70898-4.05273 4.19922v14.3555h-14.3555c-2.49023 0-4.15039 1.70898-4.15039 4.15039Z"/>
  </g>
  <g transform="matrix(0.2 0 0 0.2 304.924 1933)">
   <path d="m74.8535 28.3203c34.8145 0 63.623-28.8086 63.623-63.5742 0-34.8145-28.8574-63.623-63.6719-63.623-34.7656 0-63.5254 28.8086-63.5254 63.623 0 34.7656 28.8086 63.5742 63.5742 63.5742Zm0-9.08203c-30.1758 0-54.4434-24.3164-54.4434-54.4922 0-30.2246 24.2188-54.4922 54.3945-54.4922 30.2246 0 54.541 24.2676 54.541 54.4922 0 30.1758-24.2676 54.4922-54.4922 54.4922Zm-28.8574-54.4922c0 2.58789 1.85547 4.39453 4.58984 4.39453h19.7266v19.7754c0 2.68555 1.85547 4.58984 4.44336 4.58984 2.68555 0 4.54102-1.85547 4.54102-4.58984v-19.7754h19.7754c2.68555 0 4.58984-1.80664 4.58984-4.39453 0-2.73438-1.85547-4.58984-4.58984-4.58984h-19.7754v-19.7266c0-2.73438-1.85547-4.63867-4.54102-4.63867-2.58789 0-4.44336 1.9043-4.44336 4.63867v19.7266h-19.7266c-2.73438 0-4.58984 1.85547-4.58984 4.58984Z"/>
  </g>
  <text style="stroke:none;fill:black;font-family:sans-serif;font-size:13;font-weight:bold;" transform="matrix(1 0 0 1 263 1953)">Design Variations</text>
  <text style="stroke:none;fill:black;font-family:sans-serif;font-size:13;" transform="matrix(1 0 0 1 263 1971)">Symbols are supported in up to nine weights and three scales.</text>
  <text style="stroke:none;fill:black;font-family:sans-serif;font-size:13;" transform="matrix(1 0 0 1 263 1989)">For optimal layout with text and other symbols, vertically align</text>
  <text style="stroke:none;fill:black;font-family:sans-serif;font-size:13;" transform="matrix(1 0 0 1 263 2007)">symbols with the adjacent text.</text>
  <line style="fill:none;stroke:#00AEEF;stroke-width:0.5;opacity:1.0;" x1="776" x2="776" y1="1919" y2="1933"/>
  <g transform="matrix(0.2 0 0 0.2 776 1933)">
   <path d="m16.5527 0.78125c2.58789 0 3.85742-0.976562 4.78516-3.71094l6.29883-17.2363h28.8086l6.29883 17.2363c0.927734 2.73438 2.19727 3.71094 4.73633 3.71094 2.58789 0 4.24805-1.5625 4.24805-4.00391 0-0.830078-0.146484-1.61133-0.537109-2.63672l-22.9004-60.9863c-1.12305-2.97852-3.125-4.49219-6.25-4.49219-3.02734 0-5.07812 1.46484-6.15234 4.44336l-22.9004 61.084c-0.390625 1.02539-0.537109 1.80664-0.537109 2.63672 0 2.44141 1.5625 3.95508 4.10156 3.95508Zm13.4766-28.3691 11.8652-32.8613h0.244141l11.8652 32.8613Z"/>
  </g>
  <line style="fill:none;stroke:#00AEEF;stroke-width:0.5;opacity:1.0;" x1="792.836" x2="792.836" y1="1919" y2="1933"/>
  <text style="stroke:none;fill:black;font-family:sans-serif;font-size:13;font-weight:bold;" transform="matrix(1 0 0 1 776 1953)">Margins</text>
  <text style="stroke:none;fill:black;font-family:sans-serif;font-size:13;" transform="matrix(1 0 0 1 776 1971)">Leading and trailing margins on the left and right side of each symbol</text>
  <text style="stroke:none;fill:black;font-family:sans-serif;font-size:13;" transform="matrix(1 0 0 1 776 1989)">can be adjusted by modifying the x-location of the margin guidelines.</text>
  <text style="stroke:none;fill:black;font-family:sans-serif;font-size:13;" transform="matrix(1 0 0 1 776 2007)">Modifications are automatically applied proportionally to all</text>
  <text style="stroke:none;fill:black;font-family:sans-serif;font-size:13;" transform="matrix(1 0 0 1 776 2025)">scales and weights.</text>
  <g transform="matrix(0.2 0 0 0.2 1289 1933)">
   <path d="m14.209 9.32617 8.49609 8.54492c4.29688 4.3457 9.22852 4.05273 13.8672-1.07422l53.4668-58.9355-4.83398-4.88281-53.0762 58.3984c-1.75781 2.00195-3.41797 2.49023-5.76172 0.146484l-5.85938-5.81055c-2.34375-2.29492-1.80664-4.00391 0.195312-5.81055l57.373-54.0039-4.88281-4.83398-57.959 54.4434c-4.93164 4.58984-5.32227 9.47266-1.02539 13.8184Zm32.0801-90.9668c-2.09961 2.05078-2.24609 4.93164-1.07422 6.88477 1.17188 1.80664 3.4668 2.97852 6.68945 2.14844 7.32422-1.70898 14.9414-2.00195 22.0703 2.68555l-2.92969 7.27539c-1.70898 4.15039-0.830078 7.08008 1.85547 9.81445l11.4746 11.5723c2.44141 2.44141 4.49219 2.53906 7.32422 2.05078l5.32227-0.976562 3.32031 3.36914-0.195312 2.7832c-0.195312 2.49023 0.439453 4.39453 2.88086 6.78711l3.80859 3.71094c2.39258 2.39258 5.46875 2.53906 7.8125 0.195312l14.5508-14.5996c2.34375-2.34375 2.24609-5.32227-0.146484-7.71484l-3.85742-3.80859c-2.39258-2.39258-4.24805-3.17383-6.64062-2.97852l-2.88086 0.244141-3.22266-3.17383 1.2207-5.61523c0.634766-2.83203-0.146484-5.0293-3.07617-7.95898l-10.9863-10.9375c-16.6992-16.6016-38.8672-16.2109-53.3203-1.75781Zm7.4707 1.85547c12.1582-8.88672 28.6133-7.37305 39.7461 3.75977l12.1582 12.0605c1.17188 1.17188 1.36719 2.09961 1.02539 3.80859l-1.61133 7.42188 7.51953 7.42188 4.93164-0.292969c1.26953-0.0488281 1.66016 0.0488281 2.63672 1.02539l2.88086 2.88086-12.207 12.207-2.88086-2.88086c-0.976562-0.976562-1.12305-1.36719-1.07422-2.68555l0.341797-4.88281-7.4707-7.42188-7.61719 1.26953c-1.61133 0.341797-2.34375 0.195312-3.56445-0.976562l-10.0098-10.0098c-1.26953-1.17188-1.41602-2.00195-0.634766-3.85742l4.39453-10.4492c-7.8125-7.27539-17.9688-10.4004-28.125-7.42188-0.78125 0.195312-1.07422-0.439453-0.439453-0.976562Z"/>
  </g>
  <text style="stroke:none;fill:black;font-family:sans-serif;font-size:13;font-weight:bold;" transform="matrix(1 0 0 1 1289 1953)">Exporting</text>
  <text style="stroke:none;fill:black;font-family:sans-serif;font-size:13;" transform="matrix(1 0 0 1 1289 1971)">Symbols should be outlined when exporting to ensure the</text>
  <text style="stroke:none;fill:black;font-family:sans-serif;font-size:13;" transform="matrix(1 0 0 1 1289 1989)">design is preserved when submitting to Xcode.</text>
  <text id="template-version" style="stroke:none;fill:black;font-family:sans-serif;font-size:13;text-anchor:end;" transform="matrix(1 0 0 1 3036 1933)">Template v.5.0</text>
  <text style="stroke:none;fill:black;font-family:sans-serif;font-size:13;text-anchor:end;" transform="matrix(1 0 0 1 3036 1951)">Requires Xcode 15 or greater</text>
  <text id="descriptive-name" style="stroke:none;fill:black;font-family:sans-serif;font-size:13;text-anchor:end;" transform="matrix(1 0 0 1 3036 1969)">Generated from magsafe2</text>
  <text style="stroke:none;fill:black;font-family:sans-serif;font-size:13;text-anchor:end;" transform="matrix(1 0 0 1 3036 1987)">Typeset at 100.0 points</text>
  <text style="stroke:none;fill:black;font-family:sans-serif;font-size:13;" transform="matrix(1 0 0 1 263 726)">Small</text>
  <text style="stroke:none;fill:black;font-family:sans-serif;font-size:13;" transform="matrix(1 0 0 1 263 1156)">Medium</text>
  <text style="stroke:none;fill:black;font-family:sans-serif;font-size:13;" transform="matrix(1 0 0 1 263 1586)">Large</text>
 </g>
 <g id="Guides">
  <g id="H-reference" style="fill:#27AAE1;stroke:none;" transform="matrix(1 0 0 1 339 696)">
   <path d="M0.993654 0L3.63775 0L29.3281-67.1323L30.0303-67.1323L30.0303-70.459L28.1226-70.459ZM11.6885-24.4799L46.9815-24.4799L46.2315-26.7285L12.4385-26.7285ZM55.1196 0L57.7637 0L30.6382-70.459L29.4326-70.459L29.4326-67.1323Z"/>
  </g>
  <line id="Baseline-S" style="fill:none;stroke:#27AAE1;opacity:1;stroke-width:0.5;" x1="263" x2="3036" y1="696" y2="696"/>
  <line id="Capline-S" style="fill:none;stroke:#27AAE1;opacity:1;stroke-width:0.5;" x1="263" x2="3036" y1="625.541" y2="625.541"/>
  <g id="H-reference" style="fill:#27AAE1;stroke:none;" transform="matrix(1 0 0 1 339 1126)">
   <path d="M0.993654 0L3.63775 0L29.3281-67.1323L30.0303-67.1323L30.0303-70.459L28.1226-70.459ZM11.6885-24.4799L46.9815-24.4799L46.2315-26.7285L12.4385-26.7285ZM55.1196 0L57.7637 0L30.6382-70.459L29.4326-70.459L29.4326-67.1323Z"/>
  </g>
  <line id="Baseline-M" style="fill:none;stroke:#27AAE1;opacity:1;stroke-width:0.5;" x1="263" x2="3036" y1="1126" y2="1126"/>
  <line id="Capline-M" style="fill:none;stroke:#27AAE1;opacity:1;stroke-width:0.5;" x1="263" x2="3036" y1="1055.54" y2="1055.54"/>
  <g id="H-reference" style="fill:#27AAE1;stroke:none;" transform="matrix(1 0 0 1 339 1556)">
   <path d="M0.993654 0L3.63775 0L29.3281-67.1323L30.0303-67.1323L30.0303-70.459L28.1226-70.459ZM11.6885-24.4799L46.9815-24.4799L46.2315-26.7285L12.4385-26.7285ZM55.1196 0L57.7637 0L30.6382-70.459L29.4326-70.459L29.4326-67.1323Z"/>
  </g>
  <line id="Baseline-L" style="fill:none;stroke:#27AAE1;opacity:1;stroke-width:0.5;" x1="263" x2="3036" y1="1556" y2="1556"/>
  <line id="Capline-L" style="fill:none;stroke:#27AAE1;opacity:1;stroke-width:0.5;" x1="263" x2="3036" y1="1485.54" y2="1485.54"/>
  <line id="left-margin-Ultralight-S" style="fill:none;stroke:#FF3B30;stroke-width:0.5;opacity:1.0;" x1="498.001" x2="498.001" y1="600.785" y2="720.121"/>
  <line id="right-margin-Ultralight-S" style="fill:none;stroke:#FF3B30;stroke-width:0.5;opacity:1.0;" x1="621.421" x2="621.421" y1="600.785" y2="720.121"/>
  <line id="left-margin-Regular-S" style="fill:none;stroke:#FF3B30;stroke-width:0.5;opacity:1.0;" x1="1382.41" x2="1382.41" y1="600.785" y2="720.121"/>
  <line id="right-margin-Regular-S" style="fill:none;stroke:#FF3B30;stroke-width:0.5;opacity:1.0;" x1="1517.28" x2="1517.28" y1="600.785" y2="720.121"/>
  <line id="left-margin-Black-S" style="fill:none;stroke:#FF3B30;stroke-width:0.5;opacity:1.0;" x1="2861.82" x2="2861.82" y1="600.785" y2="720.121"/>
  <line id="right-margin-Black-S" style="fill:none;stroke:#FF3B30;stroke-width:0.5;opacity:1.0;" x1="3004.98" x2="3004.98" y1="600.785" y2="720.121"/>
 </g>
 <g id="Symbols">
  <g id="Black-S" transform="matrix(1 0 0 1 2861.82 696)">
   <path class="monochrome-0 multicolor-0:tintColor hierarchical-0:tertiary SFSymbolsPreviewWireframe" d="M10.5395-52.5899L10.5395-66.0376L10.7202-66.0376L16.1792-53.132L18.3732-53.132L23.8323-66.0376L24.013-66.0376L24.013-52.5899L26.6973-52.5899L26.6973-71.2128L23.316-71.2128L17.3795-57.0682L17.1601-57.0682L11.2364-71.2128L7.85511-71.2128L7.85511-52.5899L10.5395-52.5899ZM35.6409-54.6936C37.7316-54.6936 39.2803-56.0228 39.2803-57.7651L39.2803-58.9395L35.8474-58.7201C33.9116-58.5911 33.034-57.9329 33.034-56.6939C33.034-55.4292 34.131-54.6936 35.6409-54.6936ZM34.9311-52.3576C32.2209-52.3576 30.2464-53.9967 30.2464-56.5649C30.2464-59.0944 32.1306-60.5527 35.4731-60.7592L39.2803-60.9786L39.2803-62.1917C39.2803-63.6759 38.2995-64.5147 36.4023-64.5147C34.8537-64.5147 33.7825-63.9469 33.4728-62.9532L30.7884-62.9532C31.0723-65.3665 33.3437-66.9152 36.5314-66.9152C40.0546-66.9152 42.0421-65.16 42.0421-62.1917L42.0421-52.5899L39.3706-52.5899L39.3706-54.5645L39.1512-54.5645C38.3124-53.1578 36.7766-52.3576 34.9311-52.3576ZM55.6833-59.7913C55.6833-62.5918 54.2379-64.3857 51.8762-64.3857C49.4886-64.3857 48.1465-62.5918 48.1465-59.7913C48.1465-56.9908 49.4886-55.1969 51.8762-55.1969C54.2508-55.1969 55.6833-56.9779 55.6833-59.7913ZM51.9149-47.2212C48.4046-47.2212 46.1332-48.7957 45.8364-51.1832L48.6756-51.1832C48.9079-50.1637 50.0823-49.5055 51.9536-49.5055C54.2637-49.5055 55.6317-50.6025 55.6317-52.4609L55.6317-55.1582L55.4252-55.1582C54.5735-53.6353 53.0248-52.7964 51.0889-52.7964C47.5012-52.7964 45.2814-55.5711 45.2814-59.7784C45.2814-64.063 47.527-66.8765 51.1148-66.8765C53.0506-66.8765 54.7412-65.9215 55.5285-64.3986L55.7479-64.3986L55.7479-66.6442L58.4064-66.6442L58.4064-52.4738C58.4064-49.2603 55.8898-47.2212 51.9149-47.2212ZM61.878-57.5973C62.0845-54.2677 64.8592-52.1382 68.989-52.1382C73.4028-52.1382 76.1646-54.3709 76.1646-57.9329C76.1646-60.7334 74.5901-62.2821 70.77-63.1726L68.718-63.6759C66.2918-64.2437 65.3109-65.0052 65.3109-66.3344C65.3109-68.0122 66.8338-69.1091 69.1181-69.1091C71.2862-69.1091 72.7833-68.038 73.0543-66.3215L75.8677-66.3215C75.7-69.4576 72.9382-71.6645 69.1568-71.6645C65.0915-71.6645 62.3814-69.4576 62.3814-66.1408C62.3814-63.4049 63.9171-61.7787 67.2855-60.9915L69.6859-60.4108C72.1509-59.83 73.235-58.9782 73.235-57.5586C73.235-55.9067 71.5315-54.7065 69.2084-54.7065C66.7177-54.7065 64.9883-55.8293 64.7431-57.5973L61.878-57.5973ZM84.1661-54.6936C86.2568-54.6936 87.8054-56.0228 87.8054-57.7651L87.8054-58.9395L84.3725-58.7201C82.4367-58.5911 81.5591-57.9329 81.5591-56.6939C81.5591-55.4292 82.6561-54.6936 84.1661-54.6936ZM83.4562-52.3576C80.7461-52.3576 78.7715-53.9967 78.7715-56.5649C78.7715-59.0944 80.6557-60.5527 83.9983-60.7592L87.8054-60.9786L87.8054-62.1917C87.8054-63.6759 86.8246-64.5147 84.9275-64.5147C83.3788-64.5147 82.3076-63.9469 81.9979-62.9532L79.3135-62.9532C79.5975-65.3665 81.8689-66.9152 85.0565-66.9152C88.5798-66.9152 90.5672-65.16 90.5672-62.1917L90.5672-52.5899L87.8958-52.5899L87.8958-54.5645L87.6764-54.5645C86.8375-53.1578 85.3017-52.3576 83.4562-52.3576ZM95.5101-52.5899L98.2848-52.5899L98.2848-64.2437L101.382-64.2437L101.382-66.5796L98.2461-66.5796L98.2461-67.767C98.2461-69.1479 98.943-69.7544 100.272-69.7544C100.737-69.7544 101.227-69.7028 101.498-69.6512L101.498-71.8709C100.956-71.9613 100.543-72 100.001-72C97.0717-72 95.5101-70.8127 95.5101-67.9476L95.5101-66.5796L93.2-66.5796L93.2-64.2437L95.5101-64.2437L95.5101-52.5899ZM109.745-64.5535C107.693-64.5535 106.26-63.108 106.106-60.9141L113.204-60.9141C113.139-63.1209 111.797-64.5535 109.745-64.5535ZM113.191-56.3842L115.862-56.3842C115.23-53.8676 112.984-52.3189 109.771-52.3189C105.744-52.3189 103.279-55.0807 103.279-59.5719C103.279-64.063 105.796-66.9152 109.758-66.9152C113.668-66.9152 116.03-64.2437 116.03-59.83L116.03-58.8621L106.106-58.8621L106.106-58.7072C106.196-56.2422 107.628-54.6807 109.848-54.6807C111.526-54.6807 112.675-55.2872 113.191-56.3842ZM126.432-65.8311L126.432-65.7924L129.168-65.7924L129.168-65.8311C129.168-67.8186 130.549-69.1608 132.601-69.1608C134.524-69.1608 135.982-67.8831 135.982-66.1796C135.982-64.8116 135.376-63.8307 132.885-61.2367L126.587-54.6807L126.587-52.5899L139.131-52.5899L139.131-55.184L130.613-55.184L130.613-55.4034L134.756-59.5977C137.879-62.7596 138.834-64.3728 138.834-66.3473C138.834-69.4189 136.227-71.6645 132.691-71.6645C129.026-71.6645 126.432-69.264 126.432-65.8311Z"/>
   <path class="monochrome-1 multicolor-1:systemGrayColor hierarchical-1:primary SFSymbolsPreviewWireframe" d="M-1.74925-40.6961L147.789-40.6961C152.898-40.6961 157.04-36.5544 157.04-31.4454L157.04-9.76221C157.04-4.65317 152.898-0.511463 147.789-0.511463L-1.74925-0.511463C-6.8583-0.511463-11-4.65317-11-9.76221L-11-31.4454C-11-36.5544-6.8583-40.6961-1.74925-40.6961ZM37.7812-36.7315C28.7218-36.7315 21.3776-29.3874 21.3776-20.3279C21.3776-11.2684 28.7218-3.92429 37.7812-3.92429L108.313-3.92429C117.372-3.92429 124.717-11.2684 124.717-20.3279C124.717-29.3874 117.372-36.7315 108.313-36.7315L37.7812-36.7315Z"/>
   <path class="monochrome-2 multicolor-2:systemOrangeColor hierarchical-2:secondary SFSymbolsPreviewWireframe" d="M37.2361-14.9262C33.9517-14.9262 31.2891-17.5887 31.2891-20.8731C31.2891-24.1575 33.9517-26.82 37.2361-26.82C40.5204-26.82 43.183-24.1575 43.183-20.8731C43.183-17.5887 40.5204-14.9262 37.2361-14.9262ZM55.0768-14.9262C51.7924-14.9262 49.1299-17.5887 49.1299-20.8731C49.1299-24.1575 51.7924-26.82 55.0768-26.82C58.3612-26.82 61.0237-24.1575 61.0237-20.8731C61.0237-17.5887 58.3612-14.9262 55.0768-14.9262ZM108.599-14.9262C105.315-14.9262 102.652-17.5887 102.652-20.8731C102.652-24.1575 105.315-26.82 108.599-26.82C111.883-26.82 114.546-24.1575 114.546-20.8731C114.546-17.5887 111.883-14.9262 108.599-14.9262ZM90.7582-14.9262C87.4739-14.9262 84.8113-17.5887 84.8113-20.8731C84.8113-24.1575 87.4739-26.82 90.7582-26.82C94.0426-26.82 96.7052-24.1575 96.7052-20.8731C96.7052-17.5887 94.0426-14.9262 90.7582-14.9262ZM72.9175-14.9262C69.6331-14.9262 66.9706-17.5887 66.9706-20.8731C66.9706-24.1575 69.6331-26.82 72.9175-26.82C76.2019-26.82 78.8644-24.1575 78.8644-20.8731C78.8644-17.5887 76.2019-14.9262 72.9175-14.9262Z"/>
  </g>
  <g id="Regular-S" transform="matrix(1 0 0 1 1382.41 696)">
   <path class="monochrome-0 multicolor-0:tintColor hierarchical-0:tertiary SFSymbolsPreviewWireframe" d="M7.54624-51.485L7.54624-64.3125L7.71859-64.3125L12.9259-52.002L15.0187-52.002L20.2261-64.3125L20.3984-64.3125L20.3984-51.485L22.959-51.485L22.959-69.2491L19.7336-69.2491L14.0708-55.7567L13.8615-55.7567L8.21101-69.2491L4.98566-69.2491L4.98566-51.485L7.54624-51.485ZM31.4902-53.4916C33.4845-53.4916 34.9617-54.7596 34.9617-56.4215L34.9617-57.5418L31.6872-57.3325C29.8406-57.2094 29.0035-56.5815 29.0035-55.3997C29.0035-54.1933 30.0499-53.4916 31.4902-53.4916ZM30.8131-51.2634C28.2279-51.2634 26.3444-52.8268 26.3444-55.2766C26.3444-57.6895 28.1417-59.0806 31.3301-59.2775L34.9617-59.4868L34.9617-60.644C34.9617-62.0597 34.0261-62.8599 32.2165-62.8599C30.7392-62.8599 29.7175-62.3182 29.422-61.3703L26.8614-61.3703C27.1323-63.6724 29.2989-65.1497 32.3396-65.1497C35.7004-65.1497 37.5962-63.4754 37.5962-60.644L37.5962-51.485L35.0479-51.485L35.0479-53.3685L34.8386-53.3685C34.0385-52.0267 32.5735-51.2634 30.8131-51.2634ZM50.6084-58.3543C50.6084-61.0256 49.2296-62.7368 46.9768-62.7368C44.6994-62.7368 43.4191-61.0256 43.4191-58.3543C43.4191-55.6829 44.6994-53.9717 46.9768-53.9717C49.2419-53.9717 50.6084-55.6706 50.6084-58.3543ZM47.0137-46.3638C43.6653-46.3638 41.4986-47.8657 41.2155-50.1431L43.9238-50.1431C44.1454-49.1706 45.2656-48.5428 47.0507-48.5428C49.2543-48.5428 50.5592-49.5892 50.5592-51.3619L50.5592-53.9348L50.3622-53.9348C49.5497-52.4821 48.0724-51.682 46.2259-51.682C42.8035-51.682 40.6861-54.3287 40.6861-58.3419C40.6861-62.429 42.8282-65.1127 46.2505-65.1127C48.0971-65.1127 49.7097-64.2017 50.4607-62.7491L50.67-62.7491L50.67-64.8911L53.2059-64.8911L53.2059-51.3742C53.2059-48.3089 50.8054-46.3638 47.0137-46.3638ZM56.5175-56.2615C56.7144-53.0854 59.3612-51.0541 63.3005-51.0541C67.5107-51.0541 70.1452-53.1838 70.1452-56.5815C70.1452-59.2529 68.6433-60.7302 64.9994-61.5796L63.042-62.0597C60.7276-62.6014 59.792-63.3277 59.792-64.5957C59.792-66.1961 61.2447-67.2424 63.4236-67.2424C65.4918-67.2424 66.9198-66.2207 67.1784-64.5834L69.862-64.5834C69.702-67.5748 67.0676-69.6799 63.4606-69.6799C59.5828-69.6799 56.9976-67.5748 56.9976-64.411C56.9976-61.8012 58.4625-60.2501 61.6756-59.4991L63.9653-58.9452C66.3166-58.3912 67.3507-57.5787 67.3507-56.2245C67.3507-54.6488 65.7257-53.5039 63.5098-53.5039C61.1339-53.5039 59.4843-54.5749 59.2504-56.2615L56.5175-56.2615ZM77.7777-53.4916C79.772-53.4916 81.2493-54.7596 81.2493-56.4215L81.2493-57.5418L77.9747-57.3325C76.1281-57.2094 75.291-56.5815 75.291-55.3997C75.291-54.1933 76.3374-53.4916 77.7777-53.4916ZM77.1006-51.2634C74.5154-51.2634 72.6319-52.8268 72.6319-55.2766C72.6319-57.6895 74.4292-59.0806 77.6177-59.2775L81.2493-59.4868L81.2493-60.644C81.2493-62.0597 80.3137-62.8599 78.504-62.8599C77.0268-62.8599 76.005-62.3182 75.7095-61.3703L73.149-61.3703C73.4198-63.6724 75.5864-65.1497 78.6271-65.1497C81.9879-65.1497 83.8837-63.4754 83.8837-60.644L83.8837-51.485L81.3354-51.485L81.3354-53.3685L81.1262-53.3685C80.326-52.0267 78.861-51.2634 77.1006-51.2634ZM88.5986-51.485L91.2454-51.485L91.2454-62.6014L94.1999-62.6014L94.1999-64.8296L91.2085-64.8296L91.2085-65.9622C91.2085-67.2794 91.8732-67.858 93.1412-67.858C93.5844-67.858 94.0522-67.8087 94.3107-67.7595L94.3107-69.8769C93.7937-69.9631 93.3997-70 92.8827-70C90.0882-70 88.5986-68.8674 88.5986-66.1345L88.5986-64.8296L86.3951-64.8296L86.3951-62.6014L88.5986-62.6014L88.5986-51.485ZM102.177-62.8968C100.22-62.8968 98.8533-61.5181 98.7056-59.4253L105.476-59.4253C105.415-61.5304 104.135-62.8968 102.177-62.8968ZM105.464-55.1043L108.012-55.1043C107.409-52.7037 105.267-51.2265 102.202-51.2265C98.3609-51.2265 96.0096-53.8609 96.0096-58.145C96.0096-62.429 98.4101-65.1497 102.189-65.1497C105.92-65.1497 108.172-62.6014 108.172-58.3912L108.172-57.4679L98.7056-57.4679L98.7056-57.3202C98.7917-54.9689 100.158-53.4793 102.276-53.4793C103.876-53.4793 104.972-54.0579 105.464-55.1043ZM118.095-64.1156L118.095-64.0786L120.704-64.0786L120.704-64.1156C120.704-66.0114 122.022-67.2917 123.979-67.2917C125.813-67.2917 127.204-66.0729 127.204-64.448C127.204-63.143 126.626-62.2074 124.25-59.733L118.242-53.4793L118.242-51.485L130.208-51.485L130.208-53.9594L122.083-53.9594L122.083-54.1687L126.035-58.1696C129.014-61.1857 129.925-62.7245 129.925-64.608C129.925-67.5379 127.438-69.6799 124.065-69.6799C120.569-69.6799 118.095-67.3902 118.095-64.1156Z"/>
   <path class="monochrome-1 multicolor-1:systemGrayColor hierarchical-1:primary SFSymbolsPreviewWireframe" d="M-4.17583-40.1396L138.467-40.1396C143.341-40.1396 147.291-36.1889 147.291-31.3155L147.291-10.6322C147.291-5.7587 143.341-1.80798 138.467-1.80798L-4.17583-1.80798C-9.04928-1.80798-13-5.7587-13-10.6322L-13-31.3155C-13-36.1889-9.04928-40.1396-4.17583-40.1396ZM33.5318-36.3578C24.8901-36.3578 17.8846-29.3523 17.8846-20.7106C17.8846-12.0689 24.8901-5.06344 33.5318-5.06344L100.811-5.06344C109.453-5.06344 116.458-12.0689 116.458-20.7106C116.458-29.3523 109.453-36.3578 100.811-36.3578L33.5318-36.3578Z"/>
   <path class="monochrome-2 multicolor-2:systemOrangeColor hierarchical-2:secondary SFSymbolsPreviewWireframe" d="M33.0118-15.558C29.8788-15.558 27.3391-18.0977 27.3391-21.2307C27.3391-24.3636 29.8788-26.9034 33.0118-26.9034C36.1447-26.9034 38.6844-24.3636 38.6844-21.2307C38.6844-18.0977 36.1447-15.558 33.0118-15.558ZM50.0298-15.558C46.8969-15.558 44.3571-18.0977 44.3571-21.2307C44.3571-24.3636 46.8969-26.9034 50.0298-26.9034C53.1627-26.9034 55.7025-24.3636 55.7025-21.2307C55.7025-18.0977 53.1627-15.558 50.0298-15.558ZM101.084-15.558C97.951-15.558 95.4113-18.0977 95.4113-21.2307C95.4113-24.3636 97.951-26.9034 101.084-26.9034C104.217-26.9034 106.757-24.3636 106.757-21.2307C106.757-18.0977 104.217-15.558 101.084-15.558ZM84.0659-15.558C80.933-15.558 78.3932-18.0977 78.3932-21.2307C78.3932-24.3636 80.933-26.9034 84.0659-26.9034C87.1988-26.9034 89.7386-24.3636 89.7386-21.2307C89.7386-18.0977 87.1988-15.558 84.0659-15.558ZM67.0479-15.558C63.9149-15.558 61.3752-18.0977 61.3752-21.2307C61.3752-24.3636 63.9149-26.9034 67.0479-26.9034C70.1808-26.9034 72.7205-24.3636 72.7205-21.2307C72.7205-18.0977 70.1808-15.558 67.0479-15.558Z"/>
  </g>
  <g id="Ultralight-S" transform="matrix(1 0 0 1 498.001 696)">
   <path class="monochrome-0 multicolor-0:tintColor hierarchical-0:tertiary SFSymbolsPreviewWireframe" d="M6.07146-50.814L6.07146-62.7208L6.23144-62.7208L11.065-51.2939L13.0076-51.2939L17.8411-62.7208L18.0011-62.7208L18.0011-50.814L20.3779-50.814L20.3779-67.303L17.3841-67.303L12.1277-54.7791L11.9334-54.7791L6.68851-67.303L3.69467-67.303L3.69467-50.814L6.07146-50.814ZM28.2967-52.6766C30.1479-52.6766 31.5191-53.8535 31.5191-55.3962L31.5191-56.436L28.4796-56.2417C26.7655-56.1275 25.9885-55.5447 25.9885-54.4477C25.9885-53.3279 26.9598-52.6766 28.2967-52.6766ZM27.6683-50.6083C25.2686-50.6083 23.5203-52.0595 23.5203-54.3335C23.5203-56.5731 25.1886-57.8644 28.1482-58.0472L31.5191-58.2414L31.5191-59.3156C31.5191-60.6297 30.6507-61.3724 28.9709-61.3724C27.5997-61.3724 26.6513-60.8696 26.377-59.9898L24.0002-59.9898C24.2516-62.1266 26.2628-63.4978 29.0852-63.4978C32.2047-63.4978 33.9645-61.9438 33.9645-59.3156L33.9645-50.814L31.5991-50.814L31.5991-52.5623L31.4048-52.5623C30.6621-51.3168 29.3023-50.6083 27.6683-50.6083ZM46.0427-57.1902C46.0427-59.6698 44.7629-61.2581 42.6718-61.2581C40.5578-61.2581 39.3694-59.6698 39.3694-57.1902C39.3694-54.7105 40.5578-53.1222 42.6718-53.1222C44.7743-53.1222 46.0427-54.6991 46.0427-57.1902ZM42.706-46.0604C39.5979-46.0604 37.5868-47.4545 37.324-49.5684L39.8379-49.5684C40.0436-48.6657 41.0834-48.083 42.7403-48.083C44.7857-48.083 45.997-49.0542 45.997-50.6997L45.997-53.0879L45.8141-53.0879C45.06-51.7396 43.6887-50.9968 41.9747-50.9968C38.798-50.9968 36.8326-53.4536 36.8326-57.1787C36.8326-60.9725 38.8209-63.4635 41.9976-63.4635C43.7116-63.4635 45.2085-62.6179 45.9056-61.2696L46.0998-61.2696L46.0998-63.2578L48.4538-63.2578L48.4538-50.7111C48.4538-47.8658 46.2255-46.0604 42.706-46.0604ZM51.5276-55.2476C51.7104-52.2995 54.1672-50.414 57.8238-50.414C61.7318-50.414 64.1771-52.3909 64.1771-55.5447C64.1771-58.0243 62.7831-59.3956 59.4007-60.184L57.5838-60.6297C55.4356-61.1324 54.5671-61.8066 54.5671-62.9836C54.5671-64.4691 55.9155-65.4404 57.9381-65.4404C59.8578-65.4404 61.1833-64.4919 61.4233-62.9722L63.9143-62.9722C63.7658-65.7489 61.3204-67.7029 57.9723-67.7029C54.3729-67.7029 51.9732-65.7489 51.9732-62.8122C51.9732-60.3897 53.333-58.9499 56.3154-58.2529L58.4408-57.7387C60.6234-57.2245 61.5832-56.4703 61.5832-55.2133C61.5832-53.7507 60.0749-52.688 58.018-52.688C55.8127-52.688 54.2815-53.6821 54.0643-55.2476L51.5276-55.2476ZM71.2618-52.6766C73.113-52.6766 74.4842-53.8535 74.4842-55.3962L74.4842-56.436L71.4446-56.2417C69.7306-56.1275 68.9536-55.5447 68.9536-54.4477C68.9536-53.3279 69.9249-52.6766 71.2618-52.6766ZM70.6333-50.6083C68.2337-50.6083 66.4854-52.0595 66.4854-54.3335C66.4854-56.5731 68.1537-57.8644 71.1133-58.0472L74.4842-58.2414L74.4842-59.3156C74.4842-60.6297 73.6157-61.3724 71.936-61.3724C70.5648-61.3724 69.6163-60.8696 69.3421-59.9898L66.9653-59.9898C67.2167-62.1266 69.2278-63.4978 72.0503-63.4978C75.1698-63.4978 76.9295-61.9438 76.9295-59.3156L76.9295-50.814L74.5642-50.814L74.5642-52.5623L74.3699-52.5623C73.6272-51.3168 72.2674-50.6083 70.6333-50.6083ZM81.306-50.814L83.7628-50.814L83.7628-61.1324L86.5053-61.1324L86.5053-63.2007L83.7285-63.2007L83.7285-64.252C83.7285-65.4747 84.3456-66.0117 85.5225-66.0117C85.9339-66.0117 86.3681-65.966 86.6081-65.9203L86.6081-67.8857C86.1282-67.9657 85.7625-68 85.2826-68C82.6887-68 81.306-66.9487 81.306-64.412L81.306-63.2007L79.2606-63.2007L79.2606-61.1324L81.306-61.1324L81.306-50.814ZM93.9099-61.4067C92.093-61.4067 90.8246-60.1269 90.6875-58.1843L96.9723-58.1843C96.9151-60.1383 95.7267-61.4067 93.9099-61.4067ZM96.9608-54.1735L99.3262-54.1735C98.7663-51.9452 96.778-50.574 93.9327-50.574C90.3675-50.574 88.185-53.0194 88.185-56.9959C88.185-60.9725 90.4132-63.4978 93.9213-63.4978C97.3836-63.4978 99.4748-61.1324 99.4748-57.2245L99.4748-56.3674L90.6875-56.3674L90.6875-56.2303C90.7675-54.0478 92.0359-52.6651 94.0013-52.6651C95.4868-52.6651 96.5038-53.2022 96.9608-54.1735ZM108.685-62.538L108.685-62.5037L111.107-62.5037L111.107-62.538C111.107-64.2977 112.33-65.4861 114.147-65.4861C115.849-65.4861 117.141-64.3548 117.141-62.8465C117.141-61.6352 116.604-60.7668 114.398-58.47L108.822-52.6651L108.822-50.814L119.929-50.814L119.929-53.1108L112.387-53.1108L112.387-53.305L116.055-57.0188C118.82-59.8184 119.666-61.2467 119.666-62.995C119.666-65.7146 117.358-67.7029 114.227-67.7029C110.982-67.7029 108.685-65.5775 108.685-62.538Z"/>
   <path class="monochrome-1 multicolor-1:systemGrayColor hierarchical-1:primary SFSymbolsPreviewWireframe" d="M-4.80921-40.283L127.595-40.283C132.119-40.283 135.786-36.6158 135.786-32.0922L135.786-12.8935C135.786-8.36986 132.119-4.70272 127.595-4.70272L-4.80921-4.70272C-9.33286-4.70272-13-8.36986-13-12.8935L-13-32.0922C-13-36.6158-9.33286-40.283-4.80921-40.283ZM30.1918-36.7726C22.1704-36.7726 15.6678-30.27 15.6678-22.2486C15.6678-14.2271 22.1704-7.7245 30.1918-7.7245L92.642-7.7245C100.663-7.7245 107.166-14.2271 107.166-22.2486C107.166-30.27 100.663-36.7726 92.642-36.7726L30.1918-36.7726Z"/>
   <path class="monochrome-2 multicolor-2:systemOrangeColor hierarchical-2:secondary SFSymbolsPreviewWireframe" d="M29.7091-17.4658C26.801-17.4658 24.4436-19.8232 24.4436-22.7313C24.4436-25.6393 26.801-27.9968 29.7091-27.9968C32.6172-27.9968 34.9746-25.6393 34.9746-22.7313C34.9746-19.8232 32.6172-17.4658 29.7091-17.4658ZM45.5056-17.4658C42.5976-17.4658 40.2401-19.8232 40.2401-22.7313C40.2401-25.6393 42.5976-27.9968 45.5056-27.9968C48.4137-27.9968 50.7711-25.6393 50.7711-22.7313C50.7711-19.8232 48.4137-17.4658 45.5056-17.4658ZM92.8952-17.4658C89.9871-17.4658 87.6297-19.8232 87.6297-22.7313C87.6297-25.6393 89.9871-27.9968 92.8952-27.9968C95.8032-27.9968 98.1607-25.6393 98.1607-22.7313C98.1607-19.8232 95.8032-17.4658 92.8952-17.4658ZM77.0987-17.4658C74.1906-17.4658 71.8331-19.8232 71.8331-22.7313C71.8331-25.6393 74.1906-27.9968 77.0987-27.9968C80.0067-27.9968 82.3642-25.6393 82.3642-22.7313C82.3642-19.8232 80.0067-17.4658 77.0987-17.4658ZM61.3021-17.4658C58.3941-17.4658 56.0366-19.8232 56.0366-22.7313C56.0366-25.6393 58.3941-27.9968 61.3021-27.9968C64.2102-27.9968 66.5676-25.6393 66.5676-22.7313C66.5676-19.8232 64.2102-17.4658 61.3021-17.4658Z"/>
  </g>
 </g>
</svg>
