<?xml version="1.0" encoding="UTF-8"?>
<svg width="3300px" height="2200px" viewBox="0 0 3300 2200" version="1.1" xmlns="http://www.w3.org/2000/svg" xmlns:xlink="http://www.w3.org/1999/xlink">
    <!-- Generator: Sketch 45.2 (43514) - http://www.bohemiancoding.com/sketch -->
    <title>battery.slash</title>
    <desc>Created with Sketch.</desc>
    <defs></defs>
    <g id="Page-1" stroke="none" stroke-width="1" fill="none" fill-rule="evenodd">
        <g id="battery.slash">
            <g id="Notes">
                <rect id="artboard" fill="#FFFFFF" fill-rule="nonzero" x="0" y="0" width="3300" height="2200"></rect>
                <path d="M263,292 L3036,292" id="Shape" stroke="#000000" stroke-width="0.5"></path>
                <text id="Weight/Scale-Variations" fill="#000000" font-family="Helvetica" font-size="13" font-weight="normal">
                    <tspan x="263" y="322">Weight/Scale Variations</tspan>
                </text>
                <text id="Ultralight" fill="#000000" font-family="Helvetica" font-size="13" font-weight="normal">
                    <tspan x="533.711" y="322">Ultralight</tspan>
                </text>
                <text id="Thin" fill="#000000" font-family="Helvetica" font-size="13" font-weight="normal">
                    <tspan x="843.422" y="322">Thin</tspan>
                </text>
                <text id="Light" fill="#000000" font-family="Helvetica" font-size="13" font-weight="normal">
                    <tspan x="1138.63" y="322">Light</tspan>
                </text>
                <text id="Regular" fill="#000000" font-family="Helvetica" font-size="13" font-weight="normal">
                    <tspan x="1426.84" y="322">Regular</tspan>
                </text>
                <text id="Medium" fill="#000000" font-family="Helvetica" font-size="13" font-weight="normal">
                    <tspan x="1723.06" y="322">Medium</tspan>
                </text>
                <text id="Semibold" fill="#000000" font-family="Helvetica" font-size="13" font-weight="normal">
                    <tspan x="2015.77" y="322">Semibold</tspan>
                </text>
                <text id="Bold" fill="#000000" font-family="Helvetica" font-size="13" font-weight="normal">
                    <tspan x="2326.48" y="322">Bold</tspan>
                </text>
                <text id="Heavy" fill="#000000" font-family="Helvetica" font-size="13" font-weight="normal">
                    <tspan x="2618.19" y="322">Heavy</tspan>
                </text>
                <text id="Black" fill="#000000" font-family="Helvetica" font-size="13" font-weight="normal">
                    <tspan x="2917.4" y="322">Black</tspan>
                </text>
                <path d="M263,1903 L3036,1903" id="Shape" stroke="#000000" stroke-width="0.5"></path>
                <g id="Group" transform="translate(264.200000, 1918.000000)" fill-rule="nonzero" fill="#000000">
                    <path d="M8.04804,15.830078 C12.35468,15.830078 15.93866,12.255858 15.93866,7.949218 C15.93866,3.642578 12.3449,0.068358 8.03826,0.068358 C3.74138,0.068358 0.16716,3.642578 0.16716,7.949218 C0.16716,12.255858 3.75114,15.830078 8.04802,15.830078 L8.04804,15.830078 Z M8.04804,14.345702 C4.50312,14.345702 1.67108,11.503902 1.67108,7.949222 C1.67108,4.394542 4.49334,1.552742 8.03826,1.552742 C11.59294,1.552742 14.4445,4.394542 14.4445,7.949222 C14.4445,11.503902 11.6027,14.345702 8.04802,14.345702 L8.04804,14.345702 Z M4.45428,7.949222 C4.45428,8.37891 4.757014,8.671878 5.206234,8.671878 L7.305834,8.671878 L7.305834,10.791018 C7.305834,11.230472 7.598802,11.533206 8.02849,11.533206 C8.477708,11.533206 8.770678,11.230472 8.770678,10.791018 L8.770678,8.671878 L10.889818,8.671878 C11.329272,8.671878 11.632006,8.37891 11.632006,7.949222 C11.632006,7.509768 11.329272,7.207034 10.889818,7.207034 L8.770678,7.207034 L8.770678,5.097654 C8.770678,4.648436 8.47771,4.3457 8.02849,4.3457 C7.598802,4.3457 7.305834,4.648434 7.305834,5.097654 L7.305834,7.207034 L5.206234,7.207034 C4.757016,7.207034 4.45428,7.509768 4.45428,7.949222 Z" id="Shape"></path>
                </g>
                <g id="Group" transform="translate(283.106000, 1915.800000)" fill-rule="nonzero" fill="#000000">
                    <path d="M10.10898,20.11016 C15.5582,20.11016 20.06992,15.58868 20.06992,10.14922 C20.06992,4.7 15.54844,0.18828 10.09922,0.18828 C4.65976,0.18828 0.14804,4.7 0.14804,10.14922 C0.14804,15.58868 4.66952,20.11016 10.10898,20.11016 Z M10.10898,18.450004 C5.4996,18.450004 1.81796,14.758604 1.81796,10.149224 C1.81796,5.539844 5.48984,1.848444 10.0992,1.848444 C14.70856,1.848444 18.40974,5.539844 18.40974,10.149224 C18.40974,14.758604 14.71834,18.450004 10.10896,18.450004 L10.10898,18.450004 Z M5.57774,10.149224 C5.57774,10.62774 5.909772,10.950006 6.407818,10.950006 L9.278918,10.950006 L9.278918,13.830866 C9.278918,14.319148 9.61095,14.660944 10.089464,14.660944 C10.577746,14.660944 10.919542,14.328912 10.919542,13.830866 L10.919542,10.950006 L13.800402,10.950006 C14.288684,10.950006 14.63048,10.62774 14.63048,10.149224 C14.63048,9.660942 14.288684,9.319146 13.800402,9.319146 L10.919542,9.319146 L10.919542,6.448046 C10.919542,5.95 10.577746,5.608202 10.089464,5.608202 C9.610948,5.608202 9.278918,5.949998 9.278918,6.448046 L9.278918,9.319146 L6.407818,9.319146 C5.909772,9.319146 5.57774,9.660942 5.57774,10.149224 Z" id="Shape"></path>
                </g>
                <g id="Group" transform="translate(307.124000, 1913.200000)" fill-rule="nonzero" fill="#000000">
                    <path d="M12.7707,25.46406 C19.7336,25.46406 25.4953,19.70234 25.4953,12.74922 C25.4953,5.78632 19.72382,0.02462 12.76092,0.02462 C5.8078,0.02462 0.05584,5.78634 0.05584,12.74922 C0.05584,19.70234 5.81756,25.46406 12.77068,25.46406 L12.7707,25.46406 Z M12.7707,23.647654 C6.73554,23.647654 1.88202,18.784374 1.88202,12.749214 C1.88202,6.704294 6.72578,1.850774 12.76092,1.850774 C18.80584,1.850774 23.66912,6.704294 23.66912,12.749214 C23.66912,18.784374 18.8156,23.647654 12.77068,23.647654 L12.7707,23.647654 Z M6.99922,12.749214 C6.99922,13.266792 7.370314,13.62812 7.917188,13.62812 L11.862508,13.62812 L11.862508,17.5832 C11.862508,18.12031 12.233602,18.501168 12.75118,18.501168 C13.28829,18.501168 13.659384,18.130074 13.659384,17.5832 L13.659384,13.62812 L17.614464,13.62812 C18.151574,13.62812 18.532432,13.266792 18.532432,12.749214 C18.532432,12.202338 18.161338,11.831246 17.614464,11.831246 L13.659384,11.831246 L13.659384,7.885926 C13.659384,7.33905 13.28829,6.958192 12.75118,6.958192 C12.233602,6.958192 11.862508,7.339052 11.862508,7.885926 L11.862508,11.831246 L7.917188,11.831246 C7.370312,11.831246 6.99922,12.20234 6.99922,12.749214 Z" id="Shape"></path>
                </g>
                <text id="Design-Variations" fill="#000000" font-family="Helvetica" font-size="13" font-weight="normal">
                    <tspan x="263" y="1953">Design Variations</tspan>
                </text>
                <text id="Symbols-are-supported-in-up-to-nine-weights-and-three-scales." fill="#000000" font-family="Helvetica" font-size="13" font-weight="normal">
                    <tspan x="263" y="1971">Symbols are supported in up to nine weights and three scales.</tspan>
                </text>
                <text id="For-optimal-layout-with-text-and-other-symbols,-vertically-align" fill="#000000" font-family="Helvetica" font-size="13" font-weight="normal">
                    <tspan x="263" y="1989">For optimal layout with text and other symbols, vertically align</tspan>
                </text>
                <text id="symbols-with-the-adjacent-text." fill="#000000" font-family="Helvetica" font-size="13" font-weight="normal">
                    <tspan x="263" y="2007">symbols with the adjacent text.</tspan>
                </text>
                <path d="M776,1919 L776,1933" id="Shape" stroke="#00AEEF" stroke-width="0.5"></path>
                <g id="Group" transform="translate(778.400000, 1918.600000)" fill-rule="nonzero" fill="#000000">
                    <path d="M0.91054,14.55625 C1.428118,14.55625 1.682024,14.3609376 1.867572,13.814062 L3.127338,10.366802 L8.889058,10.366802 L10.148824,13.814062 C10.3343708,14.360938 10.588278,14.55625 11.09609,14.55625 C11.613668,14.55625 11.9457,14.24375 11.9457,13.755468 C11.9457,13.5894524 11.9164032,13.433202 11.8382782,13.228124 L7.2581982,1.030864 C7.0335882,0.43516 6.6331982,0.132426 6.0081982,0.132426 C5.4027302,0.132426 4.9925742,0.425394 4.7777302,1.021098 L0.1976502,13.237898 C0.1195252,13.442976 0.0902284,13.599226 0.0902284,13.765242 C0.0902284,14.253524 0.4027284,14.556258 0.9105404,14.556258 L0.91054,14.55625 Z M3.60586,8.88243 L5.9789,2.31017 L6.0277282,2.31017 L8.4007682,8.88243 L3.60586,8.88243 Z" id="Shape"></path>
                </g>
                <path d="M792.836,1919 L792.836,1933" id="Shape" stroke="#00AEEF" stroke-width="0.5"></path>
                <text id="Margins" fill="#000000" font-family="Helvetica" font-size="13" font-weight="normal">
                    <tspan x="776" y="1953">Margins</tspan>
                </text>
                <text id="Leading-and-trailing-margins-on-the-left-and-right-side-of-each-symbol" fill="#000000" font-family="Helvetica" font-size="13" font-weight="normal">
                    <tspan x="776" y="1971">Leading and trailing margins on the left and right side of each symbol</tspan>
                </text>
                <text id="can-be-adjusted-by-modifying-the-x-location-of-the-margin-guidelines." fill="#000000" font-family="Helvetica" font-size="13" font-weight="normal">
                    <tspan x="776" y="1989">can be adjusted by modifying the x-location of the margin guidelines.</tspan>
                </text>
                <text id="Modifications-are-automatically-applied-proportionally-to-all" fill="#000000" font-family="Helvetica" font-size="13" font-weight="normal">
                    <tspan x="776" y="2007">Modifications are automatically applied proportionally to all</tspan>
                </text>
                <text id="scales-and-weights." fill="#000000" font-family="Helvetica" font-size="13" font-weight="normal">
                    <tspan x="776" y="2025">scales and weights.</tspan>
                </text>
                <g id="Group" transform="translate(1291.200000, 1914.400000)" fill-rule="nonzero" fill="#000000">
                    <path d="M0.6418,20.465234 L2.341018,22.174218 C3.200394,23.043358 4.186722,22.984764 5.114458,21.959374 L15.807818,10.172274 L14.841022,9.195712 L4.225782,20.875392 C3.87422,21.275782 3.542188,21.373438 3.073438,20.9046888 L1.901562,19.7425788 C1.432812,19.2835948 1.540234,18.9417968 1.9406244,18.5804688 L13.4152244,7.7796888 L12.4386624,6.8128928 L0.8468624,17.7015728 C-0.1394656,18.6195408 -0.2175916,19.5961048 0.6417844,20.4652528 L0.6418,20.465234 Z M7.05782,2.271874 C6.637898,2.68203 6.608602,3.258202 6.842976,3.648828 C7.077352,4.010156 7.536336,4.244532 8.180866,4.078516 C9.64571,3.73672 11.169146,3.678126 12.594926,4.615626 L12.008988,6.070704 C11.667192,6.900782 11.8429724,7.48672 12.380082,8.033594 L14.675002,10.348054 C15.163284,10.836336 15.57344,10.855866 16.139846,10.75821 L17.2043,10.5628976 L17.868362,11.2367256 L17.8292996,11.7933656 C17.7902372,12.2914116 17.9171902,12.6722716 18.4054716,13.1507876 L19.1671896,13.8929756 C19.6457056,14.3714916 20.2609396,14.4007876 20.7296896,13.932038 L23.6398496,11.012118 C24.1085996,10.543368 24.0890676,9.947664 23.6105528,9.46915 L22.8390688,8.707432 C22.3605528,8.228916 21.9894588,8.072666 21.5109448,8.111728 L20.9347728,8.1605562 L20.2902408,7.5257902 L20.5343808,6.4027442 C20.661334,5.8363382 20.505084,5.3968842 19.9191468,4.8109482 L17.7218868,2.6234482 C14.3820468,-0.6968718 9.9484468,-0.6187318 7.0578268,2.2718862 L7.05782,2.271874 Z M8.55196,2.642968 C10.9836,0.865624 14.27462,1.168358 16.50118,3.394922 L18.93282,5.807022 C19.167196,6.041398 19.206258,6.226944 19.137898,6.56874 L18.815632,8.053116 L20.319538,9.537492 L21.305866,9.4788982 C21.559772,9.46913258 21.637898,9.48866382 21.83321,9.6839762 L22.409382,10.2601482 L19.967982,12.7015482 L19.39181,12.1253762 C19.1964976,11.9300638 19.1672,11.8519382 19.176966,11.5882662 L19.2453254,10.6117042 L17.7511854,9.1273282 L16.2277474,9.3812342 C15.9054814,9.4495936 15.7589974,9.4202966 15.5148574,9.1859218 L13.5128974,7.1839618 C13.2589914,6.9495858 13.2296934,6.7835718 13.3859442,6.4124778 L14.2648502,4.3226378 C12.7023502,2.8675598 10.6710902,2.2425578 8.6398502,2.8382618 C8.4836002,2.8773242 8.4250062,2.7503712 8.5519596,2.6429494 L8.55196,2.642968 Z" id="Shape"></path>
                </g>
                <text id="Exporting" fill="#000000" font-family="Helvetica" font-size="13" font-weight="normal">
                    <tspan x="1289" y="1953">Exporting</tspan>
                </text>
                <text id="Symbols-should-be-outlined-when-exporting-to-ensure-the" fill="#000000" font-family="Helvetica" font-size="13" font-weight="normal">
                    <tspan x="1289" y="1971">Symbols should be outlined when exporting to ensure the</tspan>
                </text>
                <text id="design-is-preserved-when-submitting-to-Xcode." fill="#000000" font-family="Helvetica" font-size="13" font-weight="normal">
                    <tspan x="1289" y="1989">design is preserved when submitting to Xcode.</tspan>
                </text>
                <text id="template-version" fill="#000000" font-family="Helvetica" font-size="13" font-weight="normal">
                    <tspan x="2952" y="1933">Template v.5.0</tspan>
                </text>
                <text id="Requires-Xcode-15-or-greater" fill="#000000" font-family="Helvetica" font-size="13" font-weight="normal">
                    <tspan x="2865" y="1951">Requires Xcode 15 or greater</tspan>
                </text>
                <text id="descriptive-name" fill="#000000" font-family="Helvetica" font-size="13" font-weight="normal">
                    <tspan x="2944" y="1969">Generated from</tspan>
                </text>
                <text id="Typeset-at-100.0-points" fill="#000000" font-family="Helvetica" font-size="13" font-weight="normal">
                    <tspan x="2901" y="1987">Typeset at 100.0 points</tspan>
                </text>
                <text id="Small" fill="#000000" font-family="Helvetica" font-size="13" font-weight="normal">
                    <tspan x="263" y="726">Small</tspan>
                </text>
                <text id="Medium" fill="#000000" font-family="Helvetica" font-size="13" font-weight="normal">
                    <tspan x="263" y="1156">Medium</tspan>
                </text>
                <text id="Large" fill="#000000" font-family="Helvetica" font-size="13" font-weight="normal">
                    <tspan x="263" y="1586">Large</tspan>
                </text>
            </g>
            <g id="Guides" transform="translate(263.000000, 600.000000)">
                <g id="H-reference" transform="translate(76.000000, 25.000000)" fill-rule="nonzero" fill="#27AAE1">
                    <path d="M0.993654,71 L3.63775,71 L29.3281,3.8677 L30.0303,3.8677 L30.0303,0.541 L28.1226,0.541 L0.993654,71 Z M11.6885,46.5201 L46.9815,46.5201 L46.2315,44.2715 L12.4385,44.2715 L11.6885,46.5201 Z M55.1196,71 L57.7637,71 L30.6382,0.541 L29.4326,0.541 L29.4326,3.8677 L55.1196,71 Z" id="Shape"></path>
                </g>
                <path d="M0,96 L2773,96" id="Baseline-S" stroke="#27AAE1" stroke-width="0.5"></path>
                <path d="M0,25.541 L2773,25.541" id="Capline-S" stroke="#27AAE1" stroke-width="0.5"></path>
                <g id="H-reference" transform="translate(76.000000, 455.000000)" fill-rule="nonzero" fill="#27AAE1">
                    <path d="M0.993654,71 L3.63775,71 L29.3281,3.8677 L30.0303,3.8677 L30.0303,0.541 L28.1226,0.541 L0.993654,71 Z M11.6885,46.5201 L46.9815,46.5201 L46.2315,44.2715 L12.4385,44.2715 L11.6885,46.5201 Z M55.1196,71 L57.7637,71 L30.6382,0.541 L29.4326,0.541 L29.4326,3.8677 L55.1196,71 Z" id="Shape"></path>
                </g>
                <path d="M0,526 L2773,526" id="Baseline-M" stroke="#27AAE1" stroke-width="0.5"></path>
                <path d="M0,455.54 L2773,455.54" id="Capline-M" stroke="#27AAE1" stroke-width="0.5"></path>
                <g id="H-reference" transform="translate(76.000000, 885.000000)" fill-rule="nonzero" fill="#27AAE1">
                    <path d="M0.993654,71 L3.63775,71 L29.3281,3.8677 L30.0303,3.8677 L30.0303,0.541 L28.1226,0.541 L0.993654,71 Z M11.6885,46.5201 L46.9815,46.5201 L46.2315,44.2715 L12.4385,44.2715 L11.6885,46.5201 Z M55.1196,71 L57.7637,71 L30.6382,0.541 L29.4326,0.541 L29.4326,3.8677 L55.1196,71 Z" id="Shape"></path>
                </g>
                <path d="M0,956 L2773,956" id="Baseline-L" stroke="#27AAE1" stroke-width="0.5"></path>
                <path d="M0,885.54 L2773,885.54" id="Capline-L" stroke="#27AAE1" stroke-width="0.5"></path>
                <path d="M235.001,0.785 L235.001,120.121" id="left-margin-Ultralight-S" stroke="#00AEEF" stroke-width="0.5"></path>
                <path d="M358.421,0.785 L358.421,120.121" id="right-margin-Ultralight-S" stroke="#00AEEF" stroke-width="0.5"></path>
                <path d="M1119.41,0.785 L1119.41,120.121" id="left-margin-Regular-S" stroke="#00AEEF" stroke-width="0.5"></path>
                <path d="M1254.28,0.785 L1254.28,120.121" id="right-margin-Regular-S" stroke="#00AEEF" stroke-width="0.5"></path>
                <path d="M2598.82,0.785 L2598.82,120.121" id="left-margin-Black-S" stroke="#00AEEF" stroke-width="0.5"></path>
                <path d="M2741.98,0.785 L2741.98,120.121" id="right-margin-Black-S" stroke="#00AEEF" stroke-width="0.5"></path>
            </g>
            <g id="Symbols" transform="translate(507.000000, 620.000000)" stroke="#000000" stroke-width="0.5" fill-rule="nonzero">
                <g id="Black-S" transform="translate(2363.820000, 0.000000)">
                    <path d="M65.9413028,57.6406 L80.1015435,71.80078 L24.6914,71.80078 C15.5605,71.80078 10.3848,70.28711 6.2832,66.23438 C2.2305,62.2305 0.76562,57.1035 0.76562,47.875 L0.76562,33.6172 C0.76562,24.3887 2.2305,19.3105 6.2832,15.2578 C9.28447236,12.2565276 12.9284509,10.6477213 18.3257029,10.0149588 C18.4096162,10.1056804 18.4956485,10.1951485 18.5838,10.2833 L32.1521581,23.8516 L23.6172,23.8516 C19.4668,23.8516 17.8555,24.4375 16.6836,25.6582 C15.5117,26.8789 14.9258,28.3438 14.9258,32.543 L14.9258,48.9492 C14.9258,53.1484 15.4629,54.6621 16.6836,55.834 C17.9043,57.0059 19.4668,57.6406 23.6172,57.6406 L65.9413028,57.6406 L65.9413028,57.6406 Z" id="leftouter"></path>
                    <path d="M91.2902354,56.4309104 C91.541462,56.2522535 91.7663203,56.0533779 91.977,55.834 C93.148,54.6133 93.734,53.1484 93.734,48.9492 L93.734,32.543 C93.734,28.3438 93.197,26.8301 91.977,25.6582 C90.7559,24.4863 89.1934,23.8516 85.043,23.8516 L58.7110209,23.8516 L44.5508626,9.6914 L83.9688,9.6914 C93.1,9.6914 98.275,11.2051 102.377,15.2578 C106.43,19.2617 107.895,24.3887 107.895,33.6172 L107.895,47.875 C107.895,57.1035 106.43,62.1816 102.377,66.23438 C102.161262,66.450104 101.942205,66.6586339 101.719419,66.8601244 L91.2902354,56.4309104 L91.2902354,56.4309104 Z" id="rightouter"></path>
                    <path d="M115.219,53.5391 C119.125,53.2949 124.398,48.2656 124.398,40.7461 C124.398,33.2266 119.125,28.1973 115.219,27.9531 L115.219,53.5391 Z" id="cap"></path>
                    <path d="M38.7439863,30.4434 L24.8379,30.4434 C23.666,30.4434 22.8848,30.6387 22.2988,31.2246 C21.7129,31.8105 21.5176,32.5918 21.5176,33.7637 L21.5176,47.7285 C21.5176,48.9004 21.7129,49.6816 22.2988,50.2676 C22.8848,50.8535 23.666,51.0488 24.8379,51.0488 L59.3494746,51.0488 L38.7439863,30.4434 Z" id="leftfill"></path>
                    <path d="M65.3028015,30.4434 L83.8223,30.4434 C84.9941,30.4434 85.7754,30.6387 86.3613,31.2246 C86.9473,31.8105 87.1426,32.5918 87.1426,33.7637 L87.1426,47.7285 C87.1426,48.9004 86.9473,49.6816 86.3613,50.2676 C86.1455913,50.4833087 85.9033969,50.6460729 85.6249805,50.7656388 L65.3028015,30.4434 Z" id="rightfill"></path>
                    <path d="M27.7126,1.1545 L102.425,75.867435 L102.425,75.867435 C103.8,77.24208 103.8,79.47082 102.425,80.84547 L102.425,80.84547 L102.425,80.84547 C101.051,82.22011 98.822,82.22011 97.447,80.84547 L22.7345,6.1326 L22.7345,6.1326 C21.3599,4.7579 21.3599,2.5292 22.7345,1.1545 L22.7345,1.1545 L22.7345,1.1545 C24.1092,-0.2201 26.3379,-0.2201 27.7126,1.1545 Z" id="slash"></path>
                </g>
                <g id="Regular-S" transform="translate(884.410000, 2.000000)">
                    <path d="M66.1369862,58.2773 L73.1682742,65.30859 L21.6152,65.30859 C15.3164,65.30859 9.5059,64.77148 5.3555,60.6699 C1.2539,56.5195 0.76562,50.709 0.76562,44.459 L0.76562,33.0332 C0.76562,26.7832 1.2539,20.9727 5.3555,16.8711 C9.15885966,13.0677403 14.3972842,12.2986834 20.0563633,12.196664 L27.1233973,19.2637 L20.5898,19.2637 C16.9766,19.2637 12.7773,19.6543 10.4824,21.9492 C8.1875,24.293 7.7969,28.3945 7.7969,32.0078 L7.7969,45.5332 C7.7969,49.0977 8.1875,53.248 10.4824,55.543 C12.7773,57.8379 16.9766,58.2773 20.541,58.2773 L66.1369862,58.2773 L66.1369862,58.2773 Z" id="leftouter"></path>
                    <path d="M88.7831429,57.772401 C90.5683557,57.375937 92.1948944,56.6920555 93.344,55.543 C95.639,53.248 96.029,49.0977 96.029,45.5332 L96.029,32.0078 C96.029,28.3945 95.639,24.293 93.344,21.9492 C91.049,19.6543 86.8496,19.2637 83.2852,19.2637 L50.2741567,19.2637 L43.1940043,12.1836 L82.2109,12.1836 C88.5098,12.1836 94.32,12.7207 98.471,16.8711 C102.572,20.9727 103.061,26.7832 103.061,33.0332 L103.061,44.459 C103.061,50.709 102.572,56.5195 98.471,60.6699 C97.258495,61.8679695 95.9044235,62.7619108 94.4379573,63.4271736 L88.7831429,57.772401 L88.7831429,57.772401 Z" id="rightouter"></path>
                    <path d="M108.773,49 C111.898,48.8047 116.098,44.8008 116.098,38.7461 C116.098,32.6914 111.898,28.6875 108.773,28.4922 L108.773,49 Z" id="cap"></path>
                    <path d="M31.9084959,24.0488 L61.3518875,53.4922 L18.0996,53.4922 C16,53.4922 14.7793,53.1992 13.8516,52.2715 C12.9238,51.3438 12.582,50.123 12.582,48.0234 L12.582,29.5176 C12.582,27.3691 12.9238,26.1484 13.8516,25.2207 C14.7305,24.293 16,24.0488 18.0996,24.0488 L31.9084959,24.0488 Z" id="leftfill"></path>
                    <path d="M55.0592921,24.0488 L85.7266,24.0488 C87.8262,24.0488 89.0957,24.293 90.0234,25.2207 C90.9023,26.1484 91.244,27.3691 91.244,29.4688 L91.244,48.0234 C91.244,50.123 90.9023,51.3438 89.9746,52.2715 C89.0957,53.1992 87.875,53.4922 85.7266,53.4922 L84.5029102,53.4922 L55.0592921,24.0488 Z" id="rightfill"></path>
                    <path d="M25.7207,1.4986 L95.936,71.7143 L95.936,71.7143 C97.258,73.03622 97.258,75.17948 95.936,76.50141 L95.936,76.50141 L95.936,76.50141 C94.614,77.82333 92.471,77.82333 91.149,76.50141 L20.9336,6.2857 L20.9336,6.2857 C19.6117,4.9638 19.6117,2.8205 20.9336,1.4986 L20.9336,1.4986 L20.9336,1.4986 C22.2555,0.1767 24.3988,0.1767 25.7207,1.4986 Z" id="slash"></path>
                </g>
                <g id="Ultralight-S" transform="translate(0.001000, 4.000000)">
                    <path d="M67.4351774,57.5942 L69.6075765,59.7666 L19.1631,59.7666 C11.502,59.7666 7.5986,58.73 4.6743,55.8545 C1.7534,52.9756 0.76562,49.0723 0.76562,41.3691 L0.76562,31.8052 C0.76562,24.6924 1.7988,20.789 4.7197,17.8681 C7.5986,14.9892 11.5962,13.9072 18.709,13.9072 L23.7481962,13.9072 L25.9239952,16.083 L18.6372,16.083 C12.7535,16.083 8.6905,17.064 6.3047,19.4951 C3.9644,21.8843 2.9834,25.8496 2.9834,31.7788 L2.9834,42.3525 C2.9834,47.915 3.9644,51.7476 6.3501,54.1333 C8.7359,56.519 12.6626,57.5942 18.1797,57.5942 L67.4351774,57.5942 L67.4351774,57.5942 Z" id="leftouter"></path>
                    <path d="M79.163251,57.5842916 C84.1950764,57.4734899 87.7777516,56.427186 90.0288,54.1333 C92.369,51.7476 93.441,47.915 93.441,42.3525 L93.441,31.3247 C93.441,25.7588 92.415,21.9297 90.0288,19.5405 C87.6431,17.1548 83.7617,16.083 78.2447,16.083 L37.6619879,16.083 L35.4861894,13.9072 L77.2613,13.9072 C84.877,13.9072 88.7803,14.9438 91.75,17.8227 C94.626,20.6982 95.613,24.6016 95.613,32.3047 L95.613,41.3691 C95.613,49.0723 94.626,52.9302 91.75,55.8545 C89.3819752,58.1830077 86.3422151,59.3056837 81.2275042,59.6485475 L79.1632572,57.584299 L79.163251,57.5842916 Z" id="rightouter"></path>
                    <path d="M98.692,45.1382 C101.227,44.9883 104.654,41.7109 104.654,36.8369 C104.654,31.9629 101.227,28.6855 98.692,28.5356 L98.692,45.1382 Z" id="cap"></path>
                    <path d="M28.9835939,19.1426 L64.3755787,54.5346 L18.0542,54.5346 C13.23,54.5346 10.1929,53.6968 8.4478,52.0425 C6.7935,50.2974 5.9976,47.4419 5.9976,42.4815 L5.9976,31.6499 C5.9976,26.3682 6.7935,23.3311 8.4478,21.586 C10.0987,19.9317 13.1846,19.1426 18.5083,19.1426 L28.9835939,19.1426 Z" id="leftfill"></path>
                    <path d="M40.7215857,19.1426 L78.3248,19.1426 C83.1944,19.1426 86.2349,19.9771 87.9346,21.6314 C89.5855,23.3765 90.4268,26.2319 90.4268,31.1924 L90.4268,42.4815 C90.4268,47.3511 89.5855,50.2974 87.8858,52.0425 C86.2349,53.7422 83.2886,54.5346 78.3248,54.5346 L76.1135603,54.5346 L40.7215857,19.1426 Z" id="rightfill"></path>
                    <path d="M18.5744,1.2805 L88.4295,71.13558 L88.4295,71.13558 C88.8669,71.572967 88.8669,72.282112 88.4295,72.719499 L88.4295,72.719499 L88.4295,72.719499 C87.9921,73.15689 87.283,73.15689 86.8456,72.719499 L16.9905,2.8644 L16.9905,2.8644 C16.5531,2.427 16.5531,1.7179 16.9905,1.2805 L16.9905,1.2805 L16.9905,1.2805 C17.4279,0.8431 18.137,0.8431 18.5744,1.2805 Z" id="slash"></path>
                </g>
            </g>
        </g>
    </g>
</svg>