<?xml version="1.0" encoding="UTF-8"?>
<!--Generator: Apple Native CoreSVG 341-->
<!DOCTYPE svg
PUBLIC "-//W3C//DTD SVG 1.1//EN"
       "http://www.w3.org/Graphics/SVG/1.1/DTD/svg11.dtd">
<svg version="1.1" xmlns="http://www.w3.org/2000/svg" xmlns:xlink="http://www.w3.org/1999/xlink" viewBox="0 0 3300 2200">
 <g id="Notes">
  <rect height="2200" id="artboard" style="fill:white;opacity:1" width="3300" x="0" y="0"/>
  <line style="fill:none;stroke:black;opacity:1;stroke-width:0.5;" x1="263" x2="3036" y1="292" y2="292"/>
  <text style="stroke:none;fill:black;font-family:sans-serif;font-size:13;font-weight:bold;" transform="matrix(1 0 0 1 263 322)">Weight/Scale Variations</text>
  <text style="stroke:none;fill:black;font-family:sans-serif;font-size:13;text-anchor:middle;" transform="matrix(1 0 0 1 559.711 322)">Ultralight</text>
  <text style="stroke:none;fill:black;font-family:sans-serif;font-size:13;text-anchor:middle;" transform="matrix(1 0 0 1 856.422 322)">Thin</text>
  <text style="stroke:none;fill:black;font-family:sans-serif;font-size:13;text-anchor:middle;" transform="matrix(1 0 0 1 1153.13 322)">Light</text>
  <text style="stroke:none;fill:black;font-family:sans-serif;font-size:13;text-anchor:middle;" transform="matrix(1 0 0 1 1449.84 322)">Regular</text>
  <text style="stroke:none;fill:black;font-family:sans-serif;font-size:13;text-anchor:middle;" transform="matrix(1 0 0 1 1746.56 322)">Medium</text>
  <text style="stroke:none;fill:black;font-family:sans-serif;font-size:13;text-anchor:middle;" transform="matrix(1 0 0 1 2043.27 322)">Semibold</text>
  <text style="stroke:none;fill:black;font-family:sans-serif;font-size:13;text-anchor:middle;" transform="matrix(1 0 0 1 2339.98 322)">Bold</text>
  <text style="stroke:none;fill:black;font-family:sans-serif;font-size:13;text-anchor:middle;" transform="matrix(1 0 0 1 2636.69 322)">Heavy</text>
  <text style="stroke:none;fill:black;font-family:sans-serif;font-size:13;text-anchor:middle;" transform="matrix(1 0 0 1 2933.4 322)">Black</text>
  <line style="fill:none;stroke:black;opacity:1;stroke-width:0.5;" x1="263" x2="3036" y1="1903" y2="1903"/>
  <g transform="matrix(0.2 0 0 0.2 263 1933)">
   <path d="m46.2402 4.15039c21.7773 0 39.4531-17.627 39.4531-39.4043s-17.6758-39.4043-39.4531-39.4043c-21.7285 0-39.4043 17.627-39.4043 39.4043s17.6758 39.4043 39.4043 39.4043Zm0-7.42188c-17.6758 0-31.9336-14.3066-31.9336-31.9824s14.2578-31.9824 31.9336-31.9824 31.9824 14.3066 31.9824 31.9824-14.3066 31.9824-31.9824 31.9824Zm3.61328-17.7734v-28.4668c0-2.24609-1.46484-3.75977-3.71094-3.75977-2.14844 0-3.61328 1.51367-3.61328 3.75977v28.4668c0 2.19727 1.46484 3.71094 3.61328 3.71094 2.24609 0 3.71094-1.51367 3.71094-3.71094Zm-17.8223-10.5957h28.418c2.19727 0 3.71094-1.46484 3.71094-3.61328 0-2.19727-1.51367-3.71094-3.71094-3.71094h-28.418c-2.24609 0-3.75977 1.51367-3.75977 3.71094 0 2.14844 1.51367 3.61328 3.75977 3.61328Z"/>
  </g>
  <g transform="matrix(0.2 0 0 0.2 281.506 1933)">
   <path d="m58.5449 14.5508c27.4902 0 49.8047-22.3145 49.8047-49.8047s-22.3145-49.8047-49.8047-49.8047-49.8047 22.3145-49.8047 49.8047 22.3145 49.8047 49.8047 49.8047Zm0-8.30078c-22.9492 0-41.5039-18.5547-41.5039-41.5039s18.5547-41.5039 41.5039-41.5039 41.5039 18.5547 41.5039 41.5039-18.5547 41.5039-41.5039 41.5039Zm4.05273-23.0957v-36.9141c0-2.49023-1.70898-4.19922-4.15039-4.19922-2.39258 0-4.05273 1.70898-4.05273 4.19922v36.9141c0 2.44141 1.66016 4.15039 4.05273 4.15039 2.44141 0 4.15039-1.66016 4.15039-4.15039Zm-22.5586-14.4043h36.9629c2.44141 0 4.15039-1.61133 4.15039-4.00391 0-2.44141-1.70898-4.15039-4.15039-4.15039h-36.9629c-2.49023 0-4.15039 1.70898-4.15039 4.15039 0 2.39258 1.66016 4.00391 4.15039 4.00391Z"/>
  </g>
  <g transform="matrix(0.2 0 0 0.2 304.924 1933)">
   <path d="m74.8535 28.3203c35.1074 0 63.623-28.4668 63.623-63.5742s-28.5156-63.623-63.623-63.623-63.5742 28.5156-63.5742 63.623 28.4668 63.5742 63.5742 63.5742Zm0-9.08203c-30.127 0-54.4922-24.3652-54.4922-54.4922s24.3652-54.4922 54.4922-54.4922 54.4922 24.3652 54.4922 54.4922-24.3652 54.4922-54.4922 54.4922Zm4.44336-30.3223v-48.4863c0-2.73438-1.85547-4.63867-4.54102-4.63867-2.58789 0-4.44336 1.9043-4.44336 4.63867v48.4863c0 2.68555 1.85547 4.58984 4.44336 4.58984 2.68555 0 4.54102-1.85547 4.54102-4.58984Zm-28.7109-19.7754h48.4863c2.68555 0 4.58984-1.80664 4.58984-4.39453 0-2.73438-1.85547-4.58984-4.58984-4.58984h-48.4863c-2.73438 0-4.58984 1.85547-4.58984 4.58984 0 2.58789 1.85547 4.39453 4.58984 4.39453Z"/>
  </g>
  <text style="stroke:none;fill:black;font-family:sans-serif;font-size:13;font-weight:bold;" transform="matrix(1 0 0 1 263 1953)">Design Variations</text>
  <text style="stroke:none;fill:black;font-family:sans-serif;font-size:13;" transform="matrix(1 0 0 1 263 1971)">Symbols are supported in up to nine weights and three scales.</text>
  <text style="stroke:none;fill:black;font-family:sans-serif;font-size:13;" transform="matrix(1 0 0 1 263 1989)">For optimal layout with text and other symbols, vertically align</text>
  <text style="stroke:none;fill:black;font-family:sans-serif;font-size:13;" transform="matrix(1 0 0 1 263 2007)">symbols with the adjacent text.</text>
  <line style="fill:none;stroke:#00AEEF;stroke-width:0.5;opacity:1.0;" x1="776" x2="776" y1="1919" y2="1933"/>
  <g transform="matrix(0.2 0 0 0.2 776 1933)">
   <path d="m16.5527 0.78125c2.58789 0 3.85742-0.976562 4.78516-3.71094l20.5566-57.5195h0.244141l20.6055 57.5195c0.927734 2.73438 2.19727 3.71094 4.73633 3.71094 2.58789 0 4.24805-1.5625 4.24805-4.00391 0-0.830078-0.146484-1.61133-0.537109-2.63672l-22.9004-60.9863c-1.12305-2.97852-3.125-4.49219-6.25-4.49219-3.02734 0-5.07812 1.46484-6.15234 4.44336l-22.9004 61.084c-0.390625 1.02539-0.537109 1.80664-0.537109 2.63672 0 2.44141 1.5625 3.95508 4.10156 3.95508Zm10.2051-20.9473h30.6641c2.00195 0 3.66211-1.66016 3.66211-3.66211 0-2.05078-1.66016-3.66211-3.66211-3.66211h-30.6641c-2.00195 0-3.66211 1.61133-3.66211 3.66211 0 2.00195 1.66016 3.66211 3.66211 3.66211Z"/>
  </g>
  <line style="fill:none;stroke:#00AEEF;stroke-width:0.5;opacity:1.0;" x1="792.836" x2="792.836" y1="1919" y2="1933"/>
  <text style="stroke:none;fill:black;font-family:sans-serif;font-size:13;font-weight:bold;" transform="matrix(1 0 0 1 776 1953)">Margins</text>
  <text style="stroke:none;fill:black;font-family:sans-serif;font-size:13;" transform="matrix(1 0 0 1 776 1971)">Leading and trailing margins on the left and right side of each symbol</text>
  <text style="stroke:none;fill:black;font-family:sans-serif;font-size:13;" transform="matrix(1 0 0 1 776 1989)">can be adjusted by modifying the x-location of the margin guidelines.</text>
  <text style="stroke:none;fill:black;font-family:sans-serif;font-size:13;" transform="matrix(1 0 0 1 776 2007)">Modifications are automatically applied proportionally to all</text>
  <text style="stroke:none;fill:black;font-family:sans-serif;font-size:13;" transform="matrix(1 0 0 1 776 2025)">scales and weights.</text>
  <g transform="matrix(0.2 0 0 0.2 1289 1933)">
   <path d="m14.209 13.1348 7.86133 7.86133c4.29688 4.39453 9.32617 4.10156 13.8672-1.02539l60.6934-68.2129-4.88281-4.88281-60.2539 67.6758c-1.80664 1.95312-3.4668 2.44141-5.81055 0.0976562l-5.17578-5.12695c-2.29492-2.29492-1.80664-3.95508 0.195312-5.81055l67.4805-62.1582-4.88281-4.83398-68.0664 62.5977c-4.98047 4.58984-5.32227 9.47266-1.02539 13.8184Zm44.873-97.4609c-2.05078 2.00195-2.24609 4.88281-1.07422 6.78711 1.12305 1.80664 3.4668 3.02734 6.5918 2.24609 5.85938-1.66016 12.5977-2.39258 18.8965 0.927734l-2.68555 7.12891c-1.61133 4.00391-0.732422 6.88477 1.70898 9.42383l10.2539 10.3027c2.34375 2.39258 4.54102 2.44141 7.08008 1.95312l4.44336-0.732422 2.58789 2.53906-0.195312 2.24609c-0.0976562 2.29492 0.537109 4.29688 2.7832 6.49414l3.36914 3.32031c2.29492 2.29492 5.51758 2.49023 7.8125 0.195312l12.9883-13.0371c2.29492-2.34375 2.14844-5.37109-0.195312-7.66602l-3.41797-3.41797c-2.19727-2.19727-4.05273-3.02734-6.34766-2.88086l-2.34375 0.244141-2.44141-2.44141 1.02539-4.6875c0.634766-2.73438-0.244141-4.98047-2.88086-7.61719l-11.2793-11.1816c-12.9395-12.8418-35.5957-11.0352-46.6797-0.146484Zm7.08008 2.05078c8.78906-6.39648 25.9766-5.66406 33.6914 1.95312l12.3047 12.207c1.02539 1.02539 1.2207 1.80664 0.927734 3.32031l-1.46484 6.64062 6.73828 6.68945 4.39453-0.244141c1.12305-0.0488281 1.51367 0.0488281 2.34375 0.878906l2.53906 2.49023-10.8398 10.8398-2.49023-2.49023c-0.830078-0.878906-0.976562-1.2207-0.927734-2.39258l0.292969-4.3457-6.68945-6.73828-6.83594 1.17188c-1.41602 0.292969-2.05078 0.195312-3.17383-0.878906l-8.93555-8.88672c-1.07422-1.02539-1.17188-1.70898-0.488281-3.36914l4.58984-11.4746c-6.10352-6.34766-17.041-7.51953-25.5859-4.58984-0.683594 0.244141-0.927734-0.390625-0.390625-0.78125Z"/>
  </g>
  <text style="stroke:none;fill:black;font-family:sans-serif;font-size:13;font-weight:bold;" transform="matrix(1 0 0 1 1289 1953)">Exporting</text>
  <text style="stroke:none;fill:black;font-family:sans-serif;font-size:13;" transform="matrix(1 0 0 1 1289 1971)">Symbols should be outlined when exporting to ensure the</text>
  <text style="stroke:none;fill:black;font-family:sans-serif;font-size:13;" transform="matrix(1 0 0 1 1289 1989)">design is preserved when submitting to Xcode.</text>
  <text id="template-version" style="stroke:none;fill:black;font-family:sans-serif;font-size:13;text-anchor:end;" transform="matrix(1 0 0 1 3036 1933)">Template v.2.0</text>
  <text style="stroke:none;fill:black;font-family:sans-serif;font-size:13;text-anchor:end;" transform="matrix(1 0 0 1 3036 1951)">Requires Xcode 12 or greater</text>
  <text id="descriptive-name" style="stroke:none;fill:black;font-family:sans-serif;font-size:13;text-anchor:end;" transform="matrix(1 0 0 1 3036 1969)">Generated from thirtyPin</text>
  <text style="stroke:none;fill:black;font-family:sans-serif;font-size:13;text-anchor:end;" transform="matrix(1 0 0 1 3036 1987)">Typeset at 100.0 points</text>
  <text style="stroke:none;fill:black;font-family:sans-serif;font-size:13;" transform="matrix(1 0 0 1 263 726)">Small</text>
  <text style="stroke:none;fill:black;font-family:sans-serif;font-size:13;" transform="matrix(1 0 0 1 263 1156)">Medium</text>
  <text style="stroke:none;fill:black;font-family:sans-serif;font-size:13;" transform="matrix(1 0 0 1 263 1586)">Large</text>
 </g>
 <g id="Guides">
  <g id="H-reference" style="fill:#27AAE1;stroke:none;" transform="matrix(1 0 0 1 339 696)">
   <path d="M0.993654 0L3.63775 0L29.3281-67.1323L30.0303-67.1323L30.0303-70.459L28.1226-70.459ZM11.6885-24.4799L46.9815-24.4799L46.2315-26.7285L12.4385-26.7285ZM55.1196 0L57.7637 0L30.6382-70.459L29.4326-70.459L29.4326-67.1323Z"/>
  </g>
  <line id="Baseline-S" style="fill:none;stroke:#27AAE1;opacity:1;stroke-width:0.5;" x1="263" x2="3036" y1="696" y2="696"/>
  <line id="Capline-S" style="fill:none;stroke:#27AAE1;opacity:1;stroke-width:0.5;" x1="263" x2="3036" y1="625.541" y2="625.541"/>
  <g id="H-reference" style="fill:#27AAE1;stroke:none;" transform="matrix(1 0 0 1 339 1126)">
   <path d="M0.993654 0L3.63775 0L29.3281-67.1323L30.0303-67.1323L30.0303-70.459L28.1226-70.459ZM11.6885-24.4799L46.9815-24.4799L46.2315-26.7285L12.4385-26.7285ZM55.1196 0L57.7637 0L30.6382-70.459L29.4326-70.459L29.4326-67.1323Z"/>
  </g>
  <line id="Baseline-M" style="fill:none;stroke:#27AAE1;opacity:1;stroke-width:0.5;" x1="263" x2="3036" y1="1126" y2="1126"/>
  <line id="Capline-M" style="fill:none;stroke:#27AAE1;opacity:1;stroke-width:0.5;" x1="263" x2="3036" y1="1055.54" y2="1055.54"/>
  <g id="H-reference" style="fill:#27AAE1;stroke:none;" transform="matrix(1 0 0 1 339 1556)">
   <path d="M0.993654 0L3.63775 0L29.3281-67.1323L30.0303-67.1323L30.0303-70.459L28.1226-70.459ZM11.6885-24.4799L46.9815-24.4799L46.2315-26.7285L12.4385-26.7285ZM55.1196 0L57.7637 0L30.6382-70.459L29.4326-70.459L29.4326-67.1323Z"/>
  </g>
  <line id="Baseline-L" style="fill:none;stroke:#27AAE1;opacity:1;stroke-width:0.5;" x1="263" x2="3036" y1="1556" y2="1556"/>
  <line id="Capline-L" style="fill:none;stroke:#27AAE1;opacity:1;stroke-width:0.5;" x1="263" x2="3036" y1="1485.54" y2="1485.54"/>
  <line id="right-margin" style="fill:none;stroke:#00AEEF;stroke-width:0.5;opacity:1.0;" x1="1511.36" x2="1511.36" y1="1030.79" y2="1150.12"/>
  <line id="left-margin" style="fill:none;stroke:#00AEEF;stroke-width:0.5;opacity:1.0;" x1="1388.33" x2="1388.33" y1="1030.79" y2="1150.12"/>
 </g>
 <g id="Symbols">
  <g id="Black-L" transform="matrix(1 0 0 1 2845.51 1556)">
   <path d="M44.812-32.866L132.103-32.866L132.103-39.454L44.812-39.454L44.812-32.866ZM26.4524-58.334C22.814-58.334 19.8644-55.3845 19.8644-51.746L19.8644-20.6048C19.8644-16.9663 22.814-14.0168 26.4524-14.0168L149.084-14.0168C152.723-14.0168 155.672-16.9663 155.672-20.6048L155.672-51.746C155.672-55.3845 152.723-58.334 149.084-58.334L26.4524-58.334ZM26.4524-64.922L149.084-64.922C156.361-64.922 162.26-59.0229 162.26-51.746L162.26-20.6048C162.26-13.3279 156.361-7.42877 149.084-7.42877L26.4524-7.42877C19.1755-7.42877 13.2764-13.3279 13.2764-20.6048L13.2764-51.746C13.2764-59.0229 19.1755-64.922 26.4524-64.922Z"/>
  </g>
  <g id="Heavy-L" transform="matrix(1 0 0 1 2550.84 1556)">
   <path d="M42.6965-33.051L129.988-33.051L129.988-39.639L42.6965-39.639L42.6965-33.051ZM24.337-58.519C20.6985-58.519 17.749-55.5695 17.749-51.931L17.749-20.7898C17.749-17.1514 20.6985-14.2018 24.337-14.2018L146.969-14.2018C150.607-14.2018 153.557-17.1514 153.557-20.7898L153.557-51.931C153.557-55.5695 150.607-58.519 146.969-58.519L24.337-58.519ZM24.337-65.107L146.969-65.107C154.246-65.107 160.145-59.2079 160.145-51.931L160.145-20.7898C160.145-13.5129 154.246-7.61381 146.969-7.61381L24.337-7.61381C17.0601-7.61381 11.161-13.5129 11.161-20.7898L11.161-51.931C11.161-59.2079 17.0601-65.107 24.337-65.107Z"/>
  </g>
  <g id="Bold-L" transform="matrix(1 0 0 1 2256.48 1556)">
   <path d="M40.2456-33.199L127.537-33.199L127.537-39.787L40.2456-39.787L40.2456-33.199ZM21.8861-58.6671C18.2476-58.6671 15.2981-55.7175 15.2981-52.0791L15.2981-20.9379C15.2981-17.2994 18.2476-14.3499 21.8861-14.3499L144.518-14.3499C148.157-14.3499 151.106-17.2994 151.106-20.9379L151.106-52.0791C151.106-55.7175 148.157-58.6671 144.518-58.6671L21.8861-58.6671ZM21.8861-65.2551L144.518-65.2551C151.795-65.2551 157.694-59.356 157.694-52.0791L157.694-20.9379C157.694-13.6609 151.795-7.76185 144.518-7.76185L21.8861-7.76185C14.6092-7.76185 8.71008-13.6609 8.71008-20.9379L8.71008-52.0791C8.71008-59.356 14.6092-65.2551 21.8861-65.2551Z"/>
  </g>
  <g id="Semibold-L" transform="matrix(1 0 0 1 1961.39 1556)">
   <path d="M38.556-33.3011L125.847-33.3011L125.847-39.8891L38.556-39.8891L38.556-33.3011ZM20.1964-58.7691C16.558-58.7691 13.6084-55.8196 13.6084-52.1811L13.6084-21.0399C13.6084-17.4015 16.558-14.4519 20.1964-14.4519L142.829-14.4519C146.467-14.4519 149.417-17.4015 149.417-21.0399L149.417-52.1811C149.417-55.8196 146.467-58.7691 142.829-58.7691L20.1964-58.7691ZM20.1964-65.3571L142.829-65.3571C150.105-65.3571 156.005-59.458 156.005-52.1811L156.005-21.0399C156.005-13.763 150.105-7.86391 142.829-7.86391L20.1964-7.86391C12.9195-7.86391 7.02045-13.763 7.02045-21.0399L7.02045-52.1811C7.02045-59.458 12.9195-65.3571 20.1964-65.3571Z"/>
  </g>
  <g id="Medium-L" transform="matrix(1 0 0 1 1665.91 1556)">
   <path d="M37.2749-33.3785L124.566-33.3785L124.566-39.9665L37.2749-39.9665L37.2749-33.3785ZM18.9153-58.8465C15.2768-58.8465 12.3273-55.897 12.3273-52.2585L12.3273-21.1173C12.3273-17.4788 15.2768-14.5293 18.9153-14.5293L141.547-14.5293C145.186-14.5293 148.135-17.4788 148.135-21.1173L148.135-52.2585C148.135-55.897 145.186-58.8465 141.547-58.8465L18.9153-58.8465ZM18.9153-65.4345L141.547-65.4345C148.824-65.4345 154.723-59.5354 154.723-52.2585L154.723-21.1173C154.723-13.8404 148.824-7.9413 141.547-7.9413L18.9153-7.9413C11.6384-7.9413 5.7393-13.8404 5.7393-21.1173L5.7393-52.2585C5.7393-59.5354 11.6384-65.4345 18.9153-65.4345Z"/>
  </g>
  <g id="Regular-L" transform="matrix(1 0 0 1 1370.8 1556)">
   <path d="M35.6038-33.4794L122.895-33.4794L122.895-40.0674L35.6038-40.0674L35.6038-33.4794ZM17.2442-58.9475C13.6058-58.9475 10.6562-55.9979 10.6562-52.3595L10.6562-21.2182C10.6562-17.5798 13.6058-14.6302 17.2442-14.6302L139.876-14.6302C143.515-14.6302 146.464-17.5798 146.464-21.2182L146.464-52.3595C146.464-55.9979 143.515-58.9475 139.876-58.9475L17.2442-58.9475ZM17.2442-65.5355L139.876-65.5355C147.153-65.5355 153.052-59.6364 153.052-52.3595L153.052-21.2182C153.052-13.9413 147.153-8.04224 139.876-8.04224L17.2442-8.04224C9.96733-8.04224 4.06824-13.9413 4.06824-21.2182L4.06824-52.3595C4.06824-59.6364 9.96733-65.5355 17.2442-65.5355Z"/>
  </g>
  <g id="Light-L" transform="matrix(1 0 0 1 1074.56 1556)">
   <path d="M35.0015-33.0591L122.293-33.0591L122.293-39.6471L35.0015-39.6471L35.0015-33.0591ZM16.642-58.5272C13.0035-58.5272 10.054-55.5776 10.054-51.9392L10.054-20.7979C10.054-17.1595 13.0035-14.2099 16.642-14.2099L139.274-14.2099C142.912-14.2099 145.862-17.1595 145.862-20.7979L145.862-51.9392C145.862-55.5776 142.912-58.5272 139.274-58.5272L16.642-58.5272ZM16.642-65.1152L139.274-65.1152C146.551-65.1152 152.45-59.2161 152.45-51.9392L152.45-20.7979C152.45-13.521 146.551-7.62195 139.274-7.62195L16.642-7.62195C9.36506-7.62195 3.46596-13.521 3.46596-20.7979L3.46596-51.9392C3.46596-59.2161 9.36506-65.1152 16.642-65.1152Z"/>
  </g>
  <g id="Thin-L" transform="matrix(1 0 0 1 778.485 1556)">
   <path d="M34.205-32.5033L121.496-32.5033L121.496-39.0913L34.205-39.0913L34.205-32.5033ZM15.8454-57.9713C12.207-57.9713 9.2574-55.0218 9.2574-51.3833L9.2574-20.2421C9.2574-16.6036 12.207-13.6541 15.8454-13.6541L138.477-13.6541C142.116-13.6541 145.065-16.6036 145.065-20.2421L145.065-51.3833C145.065-55.0218 142.116-57.9713 138.477-57.9713L15.8454-57.9713ZM15.8454-64.5593L138.477-64.5593C145.754-64.5593 151.653-58.6602 151.653-51.3833L151.653-20.2421C151.653-12.9652 145.754-7.06608 138.477-7.06608L15.8454-7.06608C8.5685-7.06608 2.6694-12.9652 2.6694-20.2421L2.6694-51.3833C2.6694-58.6602 8.5685-64.5593 15.8454-64.5593Z"/>
  </g>
  <g id="Ultralight-L" transform="matrix(1 0 0 1 482.098 1556)">
   <path d="M33.797-32.2185L121.088-32.2185L121.088-38.8065L33.797-38.8065L33.797-32.2185ZM15.4374-57.6866C11.799-57.6866 8.84941-54.7371 8.84941-51.0986L8.84941-19.9574C8.84941-16.3189 11.799-13.3694 15.4374-13.3694L138.069-13.3694C141.708-13.3694 144.657-16.3189 144.657-19.9574L144.657-51.0986C144.657-54.7371 141.708-57.6866 138.069-57.6866L15.4374-57.6866ZM15.4374-64.2746L138.069-64.2746C145.346-64.2746 151.245-58.3755 151.245-51.0986L151.245-19.9574C151.245-12.6805 145.346-6.78137 138.069-6.78137L15.4374-6.78137C8.16051-6.78137 2.26141-12.6805 2.26141-19.9574L2.26141-51.0986C2.26141-58.3755 8.16051-64.2746 15.4374-64.2746Z"/>
  </g>
  <g id="Black-M" transform="matrix(1 0 0 1 2863.62 1126)">
   <path d="M36.4542-33.1824L104.082-33.1824L104.082-38.2864L36.4542-38.2864L36.4542-33.1824ZM22.2303-52.9136C19.4114-52.9136 17.1263-50.6284 17.1263-47.8096L17.1263-23.6831C17.1263-20.8643 19.4114-18.5791 22.2303-18.5791L117.238-18.5791C120.057-18.5791 122.342-20.8643 122.342-23.6831L122.342-47.8096C122.342-50.6284 120.057-52.9136 117.238-52.9136L22.2303-52.9136ZM22.2303-58.0176L117.238-58.0176C122.876-58.0176 127.446-53.4473 127.446-47.8096L127.446-23.6831C127.446-18.0454 122.876-13.4751 117.238-13.4751L22.2303-13.4751C16.5925-13.4751 12.0223-18.0454 12.0223-23.6831L12.0223-47.8096C12.0223-53.4473 16.5925-58.0176 22.2303-58.0176Z"/>
  </g>
  <g id="Heavy-M" transform="matrix(1 0 0 1 2568.86 1126)">
   <path d="M34.4418-33.402L102.07-33.402L102.07-38.506L34.4418-38.506L34.4418-33.402ZM20.2178-53.1332C17.399-53.1332 15.1138-50.8481 15.1138-48.0292L15.1138-23.9028C15.1138-21.0839 17.399-18.7988 20.2178-18.7988L115.226-18.7988C118.045-18.7988 120.33-21.0839 120.33-23.9028L120.33-48.0292C120.33-50.8481 118.045-53.1332 115.226-53.1332L20.2178-53.1332ZM20.2178-58.2372L115.226-58.2372C120.864-58.2372 125.434-53.6669 125.434-48.0292L125.434-23.9028C125.434-18.2651 120.864-13.6948 115.226-13.6948L20.2178-13.6948C14.5801-13.6948 10.0098-18.2651 10.0098-23.9028L10.0098-48.0292C10.0098-53.6669 14.5801-58.2372 20.2178-58.2372Z"/>
  </g>
  <g id="Bold-M" transform="matrix(1 0 0 1 2274.33 1126)">
   <path d="M32.1906-33.6478L99.8186-33.6478L99.8186-38.7518L32.1906-38.7518L32.1906-33.6478ZM17.9667-53.3789C15.1478-53.3789 12.8627-51.0938 12.8627-48.2749L12.8627-24.1485C12.8627-21.3297 15.1478-19.0445 17.9667-19.0445L112.975-19.0445C115.794-19.0445 118.079-21.3297 118.079-24.1485L118.079-48.2749C118.079-51.0938 115.794-53.3789 112.975-53.3789L17.9667-53.3789ZM17.9667-58.4829L112.975-58.4829C118.613-58.4829 123.183-53.9127 123.183-48.2749L123.183-24.1485C123.183-18.5108 118.613-13.9405 112.975-13.9405L17.9667-13.9405C12.3289-13.9405 7.75865-18.5108 7.75865-24.1485L7.75865-48.2749C7.75865-53.9127 12.3289-58.4829 17.9667-58.4829Z"/>
  </g>
  <g id="Semibold-M" transform="matrix(1 0 0 1 1979.13 1126)">
   <path d="M30.6386-33.8172L98.2666-33.8172L98.2666-38.9212L30.6386-38.9212L30.6386-33.8172ZM16.4147-53.5483C13.5958-53.5483 11.3107-51.2632 11.3107-48.4443L11.3107-24.3179C11.3107-21.499 13.5958-19.2139 16.4147-19.2139L111.423-19.2139C114.242-19.2139 116.527-21.499 116.527-24.3179L116.527-48.4443C116.527-51.2632 114.242-53.5483 111.423-53.5483L16.4147-53.5483ZM16.4147-58.6523L111.423-58.6523C117.061-58.6523 121.631-54.0821 121.631-48.4443L121.631-24.3179C121.631-18.6802 117.061-14.1099 111.423-14.1099L16.4147-14.1099C10.777-14.1099 6.2067-18.6802 6.2067-24.3179L6.2067-48.4443C6.2067-54.0821 10.777-58.6523 16.4147-58.6523Z"/>
  </g>
  <g id="Medium-M" transform="matrix(1 0 0 1 1683.55 1126)">
   <path d="M29.4619-33.9456L97.0899-33.9456L97.0899-39.0496L29.4619-39.0496L29.4619-33.9456ZM15.2379-53.6768C12.4191-53.6768 10.1339-51.3916 10.1339-48.5728L10.1339-24.4464C10.1339-21.6275 12.4191-19.3424 15.2379-19.3424L110.246-19.3424C113.065-19.3424 115.35-21.6275 115.35-24.4464L115.35-48.5728C115.35-51.3916 113.065-53.6768 110.246-53.6768L15.2379-53.6768ZM15.2379-58.7808L110.246-58.7808C115.884-58.7808 120.454-54.2105 120.454-48.5728L120.454-24.4464C120.454-18.8086 115.884-14.2384 110.246-14.2384L15.2379-14.2384C9.60022-14.2384 5.02994-18.8086 5.02994-24.4464L5.02994-48.5728C5.02994-54.2105 9.60022-58.7808 15.2379-58.7808Z"/>
  </g>
  <g id="Regular-M" transform="matrix(1 0 0 1 1388.33 1126)">
   <path d="M27.927-34.1131L95.555-34.1131L95.555-39.2171L27.927-39.2171L27.927-34.1131ZM13.703-53.8443C10.8842-53.8443 8.59904-51.5592 8.59904-48.7403L8.59904-24.6139C8.59904-21.795 10.8842-19.5099 13.703-19.5099L108.711-19.5099C111.53-19.5099 113.815-21.795 113.815-24.6139L113.815-48.7403C113.815-51.5592 111.53-53.8443 108.711-53.8443L13.703-53.8443ZM13.703-58.9483L108.711-58.9483C114.349-58.9483 118.919-54.378 118.919-48.7403L118.919-24.6139C118.919-18.9762 114.349-14.4059 108.711-14.4059L13.703-14.4059C8.06532-14.4059 3.49504-18.9762 3.49504-24.6139L3.49504-48.7403C3.49504-54.378 8.06532-58.9483 13.703-58.9483Z"/>
  </g>
  <g id="Light-M" transform="matrix(1 0 0 1 1092.05 1126)">
   <path d="M27.387-33.7363L95.015-33.7363L95.015-38.8403L27.387-38.8403L27.387-33.7363ZM13.1631-53.4675C10.3442-53.4675 8.05907-51.1824 8.05907-48.3635L8.05907-24.2371C8.05907-21.4182 10.3442-19.1331 13.1631-19.1331L108.171-19.1331C110.99-19.1331 113.275-21.4182 113.275-24.2371L113.275-48.3635C113.275-51.1824 110.99-53.4675 108.171-53.4675L13.1631-53.4675ZM13.1631-58.5715L108.171-58.5715C113.809-58.5715 118.379-54.0012 118.379-48.3635L118.379-24.2371C118.379-18.5994 113.809-14.0291 108.171-14.0291L13.1631-14.0291C7.52535-14.0291 2.95507-18.5994 2.95507-24.2371L2.95507-48.3635C2.95507-54.0012 7.52535-58.5715 13.1631-58.5715Z"/>
  </g>
  <g id="Thin-M" transform="matrix(1 0 0 1 795.904 1126)">
   <path d="M26.6728-33.238L94.3008-33.238L94.3008-38.342L26.6728-38.342L26.6728-33.238ZM12.4489-52.9691C9.63005-52.9691 7.34491-50.684 7.34491-47.8651L7.34491-23.7387C7.34491-20.9199 9.63005-18.6347 12.4489-18.6347L107.457-18.6347C110.276-18.6347 112.561-20.9199 112.561-23.7387L112.561-47.8651C112.561-50.684 110.276-52.9691 107.457-52.9691L12.4489-52.9691ZM12.4489-58.0731L107.457-58.0731C113.095-58.0731 117.665-53.5029 117.665-47.8651L117.665-23.7387C117.665-18.101 113.095-13.5307 107.457-13.5307L12.4489-13.5307C6.81119-13.5307 2.24091-18.101 2.24091-23.7387L2.24091-47.8651C2.24091-53.5029 6.81119-58.0731 12.4489-58.0731Z"/>
  </g>
  <g id="Ultralight-M" transform="matrix(1 0 0 1 499.483 1126)">
   <path d="M26.3071-32.9827L93.9351-32.9827L93.9351-38.0867L26.3071-38.0867L26.3071-32.9827ZM12.0831-52.7139C9.26427-52.7139 6.97913-50.4287 6.97913-47.6099L6.97913-23.4835C6.97913-20.6646 9.26427-18.3795 12.0831-18.3795L107.091-18.3795C109.91-18.3795 112.195-20.6646 112.195-23.4835L112.195-47.6099C112.195-50.4287 109.91-52.7139 107.091-52.7139L12.0831-52.7139ZM12.0831-57.8179L107.091-57.8179C112.729-57.8179 117.299-53.2476 117.299-47.6099L117.299-23.4835C117.299-17.8457 112.729-13.2755 107.091-13.2755L12.0831-13.2755C6.4454-13.2755 1.87513-17.8457 1.87513-23.4835L1.87513-47.6099C1.87513-53.2476 6.4454-57.8179 12.0831-57.8179Z"/>
  </g>
  <g id="Black-S" transform="matrix(1 0 0 1 2878.15 696)">
   <path d="M29.1473-33.5367L82.1473-33.5367L82.1473-37.5367L29.1473-37.5367L29.1473-33.5367ZM18-49C15.7909-49 14-47.2091 14-45L14-26.0921C14-23.883 15.7909-22.0921 18-22.0921L92.4578-22.0921C94.667-22.0921 96.4578-23.883 96.4578-26.0921L96.4578-45C96.4578-47.2091 94.667-49 92.4578-49L18-49ZM18-53L92.4578-53C96.8761-53 100.458-49.4183 100.458-45L100.458-26.0921C100.458-21.6739 96.8761-18.0921 92.4578-18.0921L18-18.0921C13.5817-18.0921 10-21.6739 10-26.0921L10-45C10-49.4183 13.5817-53 18-53Z"/>
  </g>
  <g id="Heavy-S" transform="matrix(1 0 0 1 2583.05 696)">
   <path d="M27.4951-33.7727L80.4951-33.7727L80.4951-37.7727L27.4951-37.7727L27.4951-33.7727ZM16.3479-49.236C14.1387-49.236 12.3479-47.4452 12.3479-45.236L12.3479-26.3282C12.3479-24.119 14.1387-22.3282 16.3479-22.3282L90.8057-22.3282C93.0148-22.3282 94.8057-24.119 94.8057-26.3282L94.8057-45.236C94.8057-47.4452 93.0148-49.236 90.8057-49.236L16.3479-49.236ZM16.3479-53.236L90.8057-53.236C95.224-53.236 98.8057-49.6543 98.8057-45.236L98.8057-26.3282C98.8057-21.9099 95.224-18.3282 90.8057-18.3282L16.3479-18.3282C11.9296-18.3282 8.34785-21.9099 8.34785-26.3282L8.34785-45.236C8.34785-49.6543 11.9296-53.236 16.3479-53.236Z"/>
  </g>
  <g id="Bold-S" transform="matrix(1 0 0 1 2288.15 696)">
   <path d="M25.6473-34.0367L78.6473-34.0367L78.6473-38.0367L25.6473-38.0367L25.6473-34.0367ZM14.5-49.5C12.2909-49.5 10.5-47.7091 10.5-45.5L10.5-26.5921C10.5-24.383 12.2909-22.5921 14.5-22.5921L88.9578-22.5921C91.167-22.5921 92.9578-24.383 92.9578-26.5921L92.9578-45.5C92.9578-47.7091 91.167-49.5 88.9578-49.5L14.5-49.5ZM14.5-53.5L88.9578-53.5C93.3761-53.5 96.9578-49.9183 96.9578-45.5L96.9578-26.5921C96.9578-22.1739 93.3761-18.5921 88.9578-18.5921L14.5-18.5921C10.0817-18.5921 6.5-22.1739 6.5-26.5921L6.5-45.5C6.5-49.9183 10.0817-53.5 14.5-53.5Z"/>
  </g>
  <g id="Semibold-S" transform="matrix(1 0 0 1 1992.68 696)">
   <path d="M24.3733-34.2187L77.3733-34.2187L77.3733-38.2187L24.3733-38.2187L24.3733-34.2187ZM13.226-49.682C11.0169-49.682 9.226-47.8911 9.226-45.682L9.226-26.7741C9.226-24.565 11.0169-22.7741 13.226-22.7741L87.6838-22.7741C89.893-22.7741 91.6838-24.565 91.6838-26.7741L91.6838-45.682C91.6838-47.8911 89.893-49.682 87.6838-49.682L13.226-49.682ZM13.226-53.682L87.6838-53.682C92.1021-53.682 95.6838-50.1003 95.6838-45.682L95.6838-26.7741C95.6838-22.3559 92.1021-18.7741 87.6838-18.7741L13.226-18.7741C8.80772-18.7741 5.226-22.3559 5.226-26.7741L5.226-45.682C5.226-50.1003 8.80772-53.682 13.226-53.682Z"/>
  </g>
  <g id="Medium-S" transform="matrix(1 0 0 1 1696.91 696)">
   <path d="M23.4073-34.3567L76.4073-34.3567L76.4073-38.3567L23.4073-38.3567L23.4073-34.3567ZM12.26-49.82C10.0509-49.82 8.26-48.0291 8.26-45.82L8.26-26.9121C8.26-24.703 10.0509-22.9121 12.26-22.9121L86.7178-22.9121C88.927-22.9121 90.7178-24.703 90.7178-26.9121L90.7178-45.82C90.7178-48.0291 88.927-49.82 86.7178-49.82L12.26-49.82ZM12.26-53.82L86.7178-53.82C91.1361-53.82 94.7178-50.2383 94.7178-45.82L94.7178-26.9121C94.7178-22.4939 91.1361-18.9121 86.7178-18.9121L12.26-18.9121C7.84172-18.9121 4.26-22.4939 4.26-26.9121L4.26-45.82C4.26-50.2383 7.84172-53.82 12.26-53.82Z"/>
  </g>
  <g id="Regular-S" transform="matrix(1 0 0 1 1401.43 696)">
   <path d="M22.1473-34.5367L75.1473-34.5367L75.1473-38.5367L22.1473-38.5367L22.1473-34.5367ZM11-50C8.79086-50 7-48.2091 7-46L7-27.0921C7-24.883 8.79086-23.0921 11-23.0921L85.4578-23.0921C87.667-23.0921 89.4578-24.883 89.4578-27.0921L89.4578-46C89.4578-48.2091 87.667-50 85.4578-50L11-50ZM11-54L85.4578-54C89.8761-54 93.4578-50.4183 93.4578-46L93.4578-27.0921C93.4578-22.6739 89.8761-19.0921 85.4578-19.0921L11-19.0921C6.58172-19.0921 3-22.6739 3-27.0921L3-46C3-50.4183 6.58172-54 11-54Z"/>
  </g>
  <g id="Light-S" transform="matrix(1 0 0 1 1105.1 696)">
   <path d="M21.6696-34.2034L74.6696-34.2034L74.6696-38.2034L21.6696-38.2034L21.6696-34.2034ZM10.5223-49.6667C8.31319-49.6667 6.52233-47.8758 6.52233-45.6667L6.52233-26.7588C6.52233-24.5497 8.31319-22.7588 10.5223-22.7588L84.9802-22.7588C87.1893-22.7588 88.9802-24.5497 88.9802-26.7588L88.9802-45.6667C88.9802-47.8758 87.1893-49.6667 84.9802-49.6667L10.5223-49.6667ZM10.5223-53.6667L84.9802-53.6667C89.3985-53.6667 92.9802-50.0849 92.9802-45.6667L92.9802-26.7588C92.9802-22.3405 89.3985-18.7588 84.9802-18.7588L10.5223-18.7588C6.10406-18.7588 2.52233-22.3405 2.52233-26.7588L2.52233-45.6667C2.52233-50.0849 6.10406-53.6667 10.5223-53.6667Z"/>
  </g>
  <g id="Thin-S" transform="matrix(1 0 0 1 808.887 696)">
   <path d="M21.0379-33.7625L74.0379-33.7625L74.0379-37.7625L21.0379-37.7625L21.0379-33.7625ZM9.89058-49.2258C7.68144-49.2258 5.89058-47.4349 5.89058-45.2258L5.89058-26.318C5.89058-24.1088 7.68144-22.318 9.89058-22.318L84.3484-22.318C86.5576-22.318 88.3484-24.1088 88.3484-26.318L88.3484-45.2258C88.3484-47.4349 86.5576-49.2258 84.3484-49.2258L9.89058-49.2258ZM9.89058-53.2258L84.3484-53.2258C88.7667-53.2258 92.3484-49.6441 92.3484-45.2258L92.3484-26.318C92.3484-21.8997 88.7667-18.318 84.3484-18.318L9.89058-18.318C5.4723-18.318 1.89058-21.8997 1.89058-26.318L1.89058-45.2258C1.89058-49.6441 5.4723-53.2258 9.89058-53.2258Z"/>
  </g>
  <g id="Ultralight-S" transform="matrix(1 0 0 1 512.433 696)">
   <path d="M20.7143-33.5367L73.7143-33.5367L73.7143-37.5367L20.7143-37.5367L20.7143-33.5367ZM9.567-49C7.35786-49 5.567-47.2091 5.567-45L5.567-26.0921C5.567-23.883 7.35786-22.0921 9.567-22.0921L84.0248-22.0921C86.234-22.0921 88.0248-23.883 88.0248-26.0921L88.0248-45C88.0248-47.2091 86.234-49 84.0248-49L9.567-49ZM9.567-53L84.0248-53C88.4431-53 92.0248-49.4183 92.0248-45L92.0248-26.0921C92.0248-21.6739 88.4431-18.0921 84.0248-18.0921L9.567-18.0921C5.14872-18.0921 1.567-21.6739 1.567-26.0921L1.567-45C1.567-49.4183 5.14872-53 9.567-53Z"/>
  </g>
 </g>
</svg>
