<?xml version="1.0" encoding="UTF-8"?>
<!--Generator: Apple Native CoreSVG 232.5-->
<!DOCTYPE svg
PUBLIC "-//W3C//DTD SVG 1.1//EN"
       "http://www.w3.org/Graphics/SVG/1.1/DTD/svg11.dtd">
<svg version="1.1" xmlns="http://www.w3.org/2000/svg" xmlns:xlink="http://www.w3.org/1999/xlink" width="3300" height="2200">
 <g id="Notes">
  <rect height="2200" id="artboard" style="fill:white;opacity:1" width="3300" x="0" y="0"/>
  <line style="fill:none;stroke:black;opacity:1;stroke-width:0.5;" x1="263" x2="3036" y1="292" y2="292"/>
  <text style="stroke:none;fill:black;font-family:sans-serif;font-size:13;font-weight:bold;" transform="matrix(1 0 0 1 263 322)">Weight/Scale Variations</text>
  <text style="stroke:none;fill:black;font-family:sans-serif;font-size:13;text-anchor:middle;" transform="matrix(1 0 0 1 559.711 322)">Ultralight</text>
  <text style="stroke:none;fill:black;font-family:sans-serif;font-size:13;text-anchor:middle;" transform="matrix(1 0 0 1 856.422 322)">Thin</text>
  <text style="stroke:none;fill:black;font-family:sans-serif;font-size:13;text-anchor:middle;" transform="matrix(1 0 0 1 1153.13 322)">Light</text>
  <text style="stroke:none;fill:black;font-family:sans-serif;font-size:13;text-anchor:middle;" transform="matrix(1 0 0 1 1449.84 322)">Regular</text>
  <text style="stroke:none;fill:black;font-family:sans-serif;font-size:13;text-anchor:middle;" transform="matrix(1 0 0 1 1746.56 322)">Medium</text>
  <text style="stroke:none;fill:black;font-family:sans-serif;font-size:13;text-anchor:middle;" transform="matrix(1 0 0 1 2043.27 322)">Semibold</text>
  <text style="stroke:none;fill:black;font-family:sans-serif;font-size:13;text-anchor:middle;" transform="matrix(1 0 0 1 2339.98 322)">Bold</text>
  <text style="stroke:none;fill:black;font-family:sans-serif;font-size:13;text-anchor:middle;" transform="matrix(1 0 0 1 2636.69 322)">Heavy</text>
  <text style="stroke:none;fill:black;font-family:sans-serif;font-size:13;text-anchor:middle;" transform="matrix(1 0 0 1 2933.4 322)">Black</text>
  <line style="fill:none;stroke:black;opacity:1;stroke-width:0.5;" x1="263" x2="3036" y1="1903" y2="1903"/>
  <g transform="matrix(0.2 0 0 0.2 263 1933)">
   <path d="m46.2402 4.15039c21.5332 0 39.4531-17.8711 39.4531-39.4043s-17.9688-39.4043-39.502-39.4043c-21.4844 0-39.3555 17.8711-39.3555 39.4043s17.9199 39.4043 39.4043 39.4043Zm0-7.42188c-17.7246 0-31.8848-14.209-31.8848-31.9824s14.1113-31.9824 31.8359-31.9824c17.7734 0 32.0312 14.209 32.0312 31.9824s-14.209 31.9824-31.9824 31.9824Zm-17.9688-31.9824c0 2.14844 1.51367 3.61328 3.75977 3.61328h10.498v10.5957c0 2.19727 1.46484 3.71094 3.61328 3.71094 2.24609 0 3.71094-1.51367 3.71094-3.71094v-10.5957h10.5957c2.19727 0 3.71094-1.46484 3.71094-3.61328 0-2.19727-1.51367-3.71094-3.71094-3.71094h-10.5957v-10.5469c0-2.24609-1.46484-3.75977-3.71094-3.75977-2.14844 0-3.61328 1.51367-3.61328 3.75977v10.5469h-10.498c-2.24609 0-3.75977 1.51367-3.75977 3.71094Z"/>
  </g>
  <g transform="matrix(0.2 0 0 0.2 281.506 1933)">
   <path d="m58.5449 14.5508c27.2461 0 49.8047-22.6074 49.8047-49.8047 0-27.2461-22.6074-49.8047-49.8535-49.8047-27.1973 0-49.7559 22.5586-49.7559 49.8047 0 27.1973 22.6074 49.8047 49.8047 49.8047Zm0-8.30078c-23.0469 0-41.4551-18.457-41.4551-41.5039s18.3594-41.5039 41.4062-41.5039 41.5527 18.457 41.5527 41.5039-18.457 41.5039-41.5039 41.5039Zm-22.6562-41.5039c0 2.39258 1.66016 4.00391 4.15039 4.00391h14.3555v14.4043c0 2.44141 1.66016 4.15039 4.05273 4.15039 2.44141 0 4.15039-1.66016 4.15039-4.15039v-14.4043h14.4043c2.44141 0 4.15039-1.61133 4.15039-4.00391 0-2.44141-1.70898-4.15039-4.15039-4.15039h-14.4043v-14.3555c0-2.49023-1.70898-4.19922-4.15039-4.19922-2.39258 0-4.05273 1.70898-4.05273 4.19922v14.3555h-14.3555c-2.49023 0-4.15039 1.70898-4.15039 4.15039Z"/>
  </g>
  <g transform="matrix(0.2 0 0 0.2 304.924 1933)">
   <path d="m74.8535 28.3203c34.8145 0 63.623-28.8086 63.623-63.5742 0-34.8145-28.8574-63.623-63.6719-63.623-34.7656 0-63.5254 28.8086-63.5254 63.623 0 34.7656 28.8086 63.5742 63.5742 63.5742Zm0-9.08203c-30.1758 0-54.4434-24.3164-54.4434-54.4922 0-30.2246 24.2188-54.4922 54.3945-54.4922 30.2246 0 54.541 24.2676 54.541 54.4922 0 30.1758-24.2676 54.4922-54.4922 54.4922Zm-28.8574-54.4922c0 2.58789 1.85547 4.39453 4.58984 4.39453h19.7266v19.7754c0 2.68555 1.85547 4.58984 4.44336 4.58984 2.68555 0 4.54102-1.85547 4.54102-4.58984v-19.7754h19.7754c2.68555 0 4.58984-1.80664 4.58984-4.39453 0-2.73438-1.85547-4.58984-4.58984-4.58984h-19.7754v-19.7266c0-2.73438-1.85547-4.63867-4.54102-4.63867-2.58789 0-4.44336 1.9043-4.44336 4.63867v19.7266h-19.7266c-2.73438 0-4.58984 1.85547-4.58984 4.58984Z"/>
  </g>
  <text style="stroke:none;fill:black;font-family:sans-serif;font-size:13;font-weight:bold;" transform="matrix(1 0 0 1 263 1953)">Design Variations</text>
  <text style="stroke:none;fill:black;font-family:sans-serif;font-size:13;" transform="matrix(1 0 0 1 263 1971)">Symbols are supported in up to nine weights and three scales.</text>
  <text style="stroke:none;fill:black;font-family:sans-serif;font-size:13;" transform="matrix(1 0 0 1 263 1989)">For optimal layout with text and other symbols, vertically align</text>
  <text style="stroke:none;fill:black;font-family:sans-serif;font-size:13;" transform="matrix(1 0 0 1 263 2007)">symbols with the adjacent text.</text>
  <line style="fill:none;stroke:#00AEEF;stroke-width:0.5;opacity:1.0;" x1="776" x2="776" y1="1919" y2="1933"/>
  <g transform="matrix(0.2 0 0 0.2 776 1933)">
   <path d="m16.5527 0.78125c2.58789 0 3.85742-0.976562 4.78516-3.71094l6.29883-17.2363h28.8086l6.29883 17.2363c0.927734 2.73438 2.19727 3.71094 4.73633 3.71094 2.58789 0 4.24805-1.5625 4.24805-4.00391 0-0.830078-0.146484-1.61133-0.537109-2.63672l-22.9004-60.9863c-1.12305-2.97852-3.125-4.49219-6.25-4.49219-3.02734 0-5.07812 1.46484-6.15234 4.44336l-22.9004 61.084c-0.390625 1.02539-0.537109 1.80664-0.537109 2.63672 0 2.44141 1.5625 3.95508 4.10156 3.95508Zm13.4766-28.3691 11.8652-32.8613h0.244141l11.8652 32.8613Z"/>
  </g>
  <line style="fill:none;stroke:#00AEEF;stroke-width:0.5;opacity:1.0;" x1="792.836" x2="792.836" y1="1919" y2="1933"/>
  <text style="stroke:none;fill:black;font-family:sans-serif;font-size:13;font-weight:bold;" transform="matrix(1 0 0 1 776 1953)">Margins</text>
  <text style="stroke:none;fill:black;font-family:sans-serif;font-size:13;" transform="matrix(1 0 0 1 776 1971)">Leading and trailing margins on the left and right side of each symbol</text>
  <text style="stroke:none;fill:black;font-family:sans-serif;font-size:13;" transform="matrix(1 0 0 1 776 1989)">can be adjusted by modifying the x-location of the margin guidelines.</text>
  <text style="stroke:none;fill:black;font-family:sans-serif;font-size:13;" transform="matrix(1 0 0 1 776 2007)">Modifications are automatically applied proportionally to all</text>
  <text style="stroke:none;fill:black;font-family:sans-serif;font-size:13;" transform="matrix(1 0 0 1 776 2025)">scales and weights.</text>
  <g transform="matrix(0.2 0 0 0.2 1289 1933)">
   <path d="m14.209 9.32617 8.49609 8.54492c4.29688 4.3457 9.22852 4.05273 13.8672-1.07422l53.4668-58.9355-4.83398-4.88281-53.0762 58.3984c-1.75781 2.00195-3.41797 2.49023-5.76172 0.146484l-5.85938-5.81055c-2.34375-2.29492-1.80664-4.00391 0.195312-5.81055l57.373-54.0039-4.88281-4.83398-57.959 54.4434c-4.93164 4.58984-5.32227 9.47266-1.02539 13.8184Zm32.0801-90.9668c-2.09961 2.05078-2.24609 4.93164-1.07422 6.88477 1.17188 1.80664 3.4668 2.97852 6.68945 2.14844 7.32422-1.70898 14.9414-2.00195 22.0703 2.68555l-2.92969 7.27539c-1.70898 4.15039-0.830078 7.08008 1.85547 9.81445l11.4746 11.5723c2.44141 2.44141 4.49219 2.53906 7.32422 2.05078l5.32227-0.976562 3.32031 3.36914-0.195312 2.7832c-0.195312 2.49023 0.439453 4.39453 2.88086 6.78711l3.80859 3.71094c2.39258 2.39258 5.46875 2.53906 7.8125 0.195312l14.5508-14.5996c2.34375-2.34375 2.24609-5.32227-0.146484-7.71484l-3.85742-3.80859c-2.39258-2.39258-4.24805-3.17383-6.64062-2.97852l-2.88086 0.244141-3.22266-3.17383 1.2207-5.61523c0.634766-2.83203-0.146484-5.0293-3.07617-7.95898l-10.9863-10.9375c-16.6992-16.6016-38.8672-16.2109-53.3203-1.75781Zm7.4707 1.85547c12.1582-8.88672 28.6133-7.37305 39.7461 3.75977l12.1582 12.0605c1.17188 1.17188 1.36719 2.09961 1.02539 3.80859l-1.61133 7.42188 7.51953 7.42188 4.93164-0.292969c1.26953-0.0488281 1.66016 0.0488281 2.63672 1.02539l2.88086 2.88086-12.207 12.207-2.88086-2.88086c-0.976562-0.976562-1.12305-1.36719-1.07422-2.68555l0.341797-4.88281-7.4707-7.42188-7.61719 1.26953c-1.61133 0.341797-2.34375 0.195312-3.56445-0.976562l-10.0098-10.0098c-1.26953-1.17188-1.41602-2.00195-0.634766-3.85742l4.39453-10.4492c-7.8125-7.27539-17.9688-10.4004-28.125-7.42188-0.78125 0.195312-1.07422-0.439453-0.439453-0.976562Z"/>
  </g>
  <text style="stroke:none;fill:black;font-family:sans-serif;font-size:13;font-weight:bold;" transform="matrix(1 0 0 1 1289 1953)">Exporting</text>
  <text style="stroke:none;fill:black;font-family:sans-serif;font-size:13;" transform="matrix(1 0 0 1 1289 1971)">Symbols should be outlined when exporting to ensure the</text>
  <text style="stroke:none;fill:black;font-family:sans-serif;font-size:13;" transform="matrix(1 0 0 1 1289 1989)">design is preserved when submitting to Xcode.</text>
  <text id="template-version" style="stroke:none;fill:black;font-family:sans-serif;font-size:13;text-anchor:end;" transform="matrix(1 0 0 1 3036 1933)">Template v.2.0</text>
  <text style="stroke:none;fill:black;font-family:sans-serif;font-size:13;text-anchor:end;" transform="matrix(1 0 0 1 3036 1951)">Requires Xcode 12 or greater</text>
  <text id="descriptive-name" style="stroke:none;fill:black;font-family:sans-serif;font-size:13;text-anchor:end;" transform="matrix(1 0 0 1 3036 1969)">Generated from hand.tap</text>
  <text style="stroke:none;fill:black;font-family:sans-serif;font-size:13;text-anchor:end;" transform="matrix(1 0 0 1 3036 1987)">Typeset at 100.0 points</text>
  <text style="stroke:none;fill:black;font-family:sans-serif;font-size:13;" transform="matrix(1 0 0 1 263 726)">Small</text>
  <text style="stroke:none;fill:black;font-family:sans-serif;font-size:13;" transform="matrix(1 0 0 1 263 1156)">Medium</text>
  <text style="stroke:none;fill:black;font-family:sans-serif;font-size:13;" transform="matrix(1 0 0 1 263 1586)">Large</text>
 </g>
 <g id="Guides">
  <g id="H-reference" style="fill:#27AAE1;stroke:none;" transform="matrix(1 0 0 1 339 696)">
   <path d="M0.993654 0L3.63775 0L29.3281-67.1323L30.0303-67.1323L30.0303-70.459L28.1226-70.459ZM11.6885-24.4799L46.9815-24.4799L46.2315-26.7285L12.4385-26.7285ZM55.1196 0L57.7637 0L30.6382-70.459L29.4326-70.459L29.4326-67.1323Z"/>
  </g>
  <line id="Baseline-S" style="fill:none;stroke:#27AAE1;opacity:1;stroke-width:0.5;" x1="263" x2="3036" y1="696" y2="696"/>
  <line id="Capline-S" style="fill:none;stroke:#27AAE1;opacity:1;stroke-width:0.5;" x1="263" x2="3036" y1="625.541" y2="625.541"/>
  <g id="H-reference" style="fill:#27AAE1;stroke:none;" transform="matrix(1 0 0 1 339 1126)">
   <path d="M0.993654 0L3.63775 0L29.3281-67.1323L30.0303-67.1323L30.0303-70.459L28.1226-70.459ZM11.6885-24.4799L46.9815-24.4799L46.2315-26.7285L12.4385-26.7285ZM55.1196 0L57.7637 0L30.6382-70.459L29.4326-70.459L29.4326-67.1323Z"/>
  </g>
  <line id="Baseline-M" style="fill:none;stroke:#27AAE1;opacity:1;stroke-width:0.5;" x1="263" x2="3036" y1="1126" y2="1126"/>
  <line id="Capline-M" style="fill:none;stroke:#27AAE1;opacity:1;stroke-width:0.5;" x1="263" x2="3036" y1="1055.54" y2="1055.54"/>
  <g id="H-reference" style="fill:#27AAE1;stroke:none;" transform="matrix(1 0 0 1 339 1556)">
   <path d="M0.993654 0L3.63775 0L29.3281-67.1323L30.0303-67.1323L30.0303-70.459L28.1226-70.459ZM11.6885-24.4799L46.9815-24.4799L46.2315-26.7285L12.4385-26.7285ZM55.1196 0L57.7637 0L30.6382-70.459L29.4326-70.459L29.4326-67.1323Z"/>
  </g>
  <line id="Baseline-L" style="fill:none;stroke:#27AAE1;opacity:1;stroke-width:0.5;" x1="263" x2="3036" y1="1556" y2="1556"/>
  <line id="Capline-L" style="fill:none;stroke:#27AAE1;opacity:1;stroke-width:0.5;" x1="263" x2="3036" y1="1485.54" y2="1485.54"/>
  <line id="left-margin" style="fill:none;stroke:#00AEEF;stroke-width:0.5;opacity:1.0;" x1="1394.7" x2="1394.7" y1="1030.79" y2="1150.12"/>
  <line id="right-margin" style="fill:none;stroke:#00AEEF;stroke-width:0.5;opacity:1.0;" x1="1504.99" x2="1504.99" y1="1030.79" y2="1150.12"/>
 </g>
 <g id="Symbols">
  <g id="Black-L" transform="matrix(1 0 0 1 2851.74 1556)">
   <path d="M52.2686-129.714C29.661-129.714 11.2588-111.429 11.2588-88.9014C11.2588-81.0514 13.9227-71.7373 18.2002-65.4834C20.0746-62.7056 22.6188-61.5634 25.0825-61.5634C31.0965-61.5634 35.1323-67.902 31.2718-73.5864C28.5182-77.7206 26.5101-83.3532 26.5101-88.9014C26.5101-103.005 38.0648-114.403 52.2102-114.403C64.2686-114.403 74.7904-105.808 77.1851-93.7492C77.2435-93.4639 77.3019-93.1238 77.3603-92.7576C78.2364-89.1267 80.233-86.4085 84.4854-86.4085C89.3475-86.4085 92.2959-89.6195 92.3375-93.8396C92.3583-94.5718 92.2415-96.0645 92.0079-97.0199C88.1531-116.335 71.2902-129.714 52.2686-129.714ZM116.507 29.9219C147.815 18.4972 159.338-7.11675 147.459-39.6782L140.818-58.0275C135.248-73.2734 123.563-80.1442 110.34-76.0356C106.416-79.9118 100.532-80.9673 94.7541-78.9072C93.4301-78.4182 92.1905-77.8221 91.0898-77.043C86.792-81.2569 81.3663-82.6085 75.7177-80.5068C75.3011-80.3723 74.9041-80.1902 74.5095-79.9045L70.2437-91.6299C66.4845-101.913 57.2144-106.46 47.3826-102.865C37.1383-99.1508 32.7409-89.6334 36.5002-79.3291L50.5507-40.6207C50.6896-40.2406 50.6092-39.9189 50.4263-39.8385C50.2434-39.7581 50.0594-39.8385 49.8974-39.9641L47.8323-42.0232C43.7873-44.792 39.0222-45.3719 34.2642-43.6538C25.5287-40.4968 21.3141-32.2326 24.558-23.3414C25.5286-20.6628 27.0626-17.9142 28.9522-15.7624L51.1722 10.7514C69.2815 32.3092 91.9871 38.9324 116.507 29.9219ZM110.912 13.2552C93.4868 19.5591 78.5443 15.0164 64.3321-0.646831L41.3916-25.9729C41.0379-26.4082 40.8086-26.7048 40.6014-27.2281C40.2232-28.2757 40.6085-29.3904 41.939-29.9074C42.8249-30.2247 43.6467-29.9062 44.3482-29.1803L60.788-14.0535C63.5968-11.3967 66.7919-11.0959 69.5389-12.0717C73.2309-13.4408 75.6001-17.4069 73.8782-22.1382L50.8024-85.5629C50.3391-86.8856 50.9209-88.1428 52.2012-88.6038C53.4596-89.0659 54.8068-88.4745 55.2701-87.2102L70.7478-44.6807C72.0132-41.2579 75.8065-39.536 79.2085-40.8223C82.6116-42.0293 84.4048-45.8234 83.1978-49.2253L77.9976-63.5547C78.5569-63.8977 79.2835-64.277 79.9273-64.5051C81.3398-65.032 82.7322-64.4014 83.2627-62.9806L88.6449-48.1548C89.8752-44.782 93.6113-43.1477 96.9512-44.3536C100.269-45.5583 102.033-49.1735 100.744-52.5242L97.3052-62.0135C97.9229-62.3941 98.6495-62.7358 99.2933-62.9639C100.647-63.47 102.119-62.8978 102.629-61.4186L106.154-51.8029C107.422-48.3354 111.216-46.6206 114.673-47.8849C118.049-49.0896 119.872-52.88 118.662-56.3683L117.41-59.6147C120.584-60.8154 122.995-59.0587 124.73-54.2358L131.647-35.2666C139.966-12.3657 132.348 5.40802 110.912 13.2552Z"/>
  </g>
  <g id="Heavy-L" transform="matrix(1 0 0 1 2557.66 1556)">
   <path d="M49.8923-126.093C28.5845-126.093 11.2588-108.857 11.2588-87.6297C11.2588-79.8945 13.8923-71.1737 18.1858-65.1377C19.8412-62.7255 22.0749-61.7388 24.2281-61.7388C29.517-61.7388 33.1754-67.3897 29.6508-72.441C26.7451-76.5344 24.7458-82.0572 24.7458-87.6297C24.7458-101.414 36.0033-112.556 49.8476-112.556C62.0642-112.556 72.5374-103.55 74.367-91.3333C74.4116-91.0205 74.4562-90.6799 74.5008-90.2575C75.1702-86.8654 77.1424-84.5035 80.8191-84.5035C84.9947-84.5035 87.6942-87.2751 87.7546-90.9889C87.7848-91.6576 87.6955-92.9121 87.5171-93.8322C84.572-112.605 68.4366-126.093 49.8923-126.093ZM112.799 28.2233C142.524 17.3871 153.866-7.49921 142.423-38.8962L136.257-55.9059C130.825-70.7709 119.723-77.3395 107.048-73.2987C103.362-77.1666 97.7939-78.2861 92.2358-76.2993C90.7878-75.7596 89.4661-75.0813 88.2694-74.2063C84.2452-78.4036 78.9369-79.7921 73.4064-77.745C72.7609-77.519 72.1401-77.2045 71.5304-76.7683L66.5638-90.4175C63.0555-100.002 54.4063-104.207 45.2942-100.877C35.8529-97.4454 31.7527-88.6213 35.2611-79.0063L50.2927-37.6375C50.4178-37.2712 50.3374-36.9496 50.1407-36.8691C49.9441-36.7887 49.7418-36.8691 49.5754-37.0268L46.095-40.6678C42.1504-43.6991 37.4988-44.4222 32.8809-42.7583C24.8778-39.862 20.7983-32.2618 23.8321-23.9734C24.7018-21.5137 26.1635-18.9007 27.9445-16.8483L49.9298 9.47994C67.4731 30.4364 89.1867 36.8826 112.799 28.2233ZM107.926 13.6689C90.7034 19.8989 75.6296 15.6565 61.3911-0.369264L38.8458-25.7805C38.4143-26.298 38.1349-26.6904 37.8912-27.3511C37.4127-28.649 37.9249-30.06 39.5244-30.6635C40.685-31.0861 41.7203-30.6579 42.6495-29.6816L58.6355-14.5525C61.3278-11.9527 64.2676-11.6612 66.8459-12.5824C70.2412-13.8373 72.2884-17.4659 70.7545-21.7026L47.8851-84.5297C47.3037-86.1608 48.0091-87.7136 49.6033-88.2838C51.1617-88.8595 52.7455-88.1093 53.3268-86.5228L68.887-43.7974C70.0202-40.7072 73.4318-39.1733 76.4918-40.3366C79.5574-41.4251 81.1559-44.8133 80.0674-47.8733L74.7515-62.513C75.3919-62.9883 76.2503-63.4724 77.0171-63.7463C78.8261-64.4238 80.4871-63.6244 81.1815-61.7761L86.4472-47.2632C87.5771-44.1784 90.9497-42.7586 93.9483-43.8414C96.911-44.9187 98.5344-48.1561 97.3599-51.2052L93.7739-61.112C94.4589-61.6017 95.3173-62.0713 96.0841-62.3452C97.8485-62.9925 99.5843-62.2378 100.248-60.3449L103.725-50.8573C104.87-47.719 108.287-46.2187 111.375-47.3462C114.382-48.4235 116.05-51.7948 114.95-54.9633L113.391-59.0605C117.124-60.4565 120.16-58.0849 122.326-52.1245L128.531-35.0933C136.941-11.9514 129.2 5.87963 107.926 13.6689Z"/>
  </g>
  <g id="Bold-L" transform="matrix(1 0 0 1 2264.16 1556)">
   <path d="M46.9716-121.628C27.2625-121.628 11.2588-105.683 11.2588-86.0545C11.2588-78.5173 13.8316-70.5192 18.1107-64.7671C19.4972-62.7934 21.3541-61.9913 23.1305-61.9913C27.5278-61.9913 30.7027-66.7818 27.6155-71.0419C24.5475-75.0816 22.5635-80.4736 22.5635-86.0545C22.5635-99.4538 33.4671-110.281 46.9424-110.281C59.3065-110.281 69.6959-100.842 70.8933-88.4783C70.9225-88.1346 70.9517-87.8014 70.9809-87.3323C71.4189-84.277 73.3157-82.3458 76.3003-82.3458C79.6677-82.3458 82.0301-84.6016 82.106-87.6928C82.144-88.2772 82.0856-89.2545 81.9688-90.1137C80.0414-108.136 64.8349-121.628 46.9716-121.628ZM108.234 26.1627C136.015 16.049 147.193-7.8414 136.25-37.8982L130.654-53.3078C125.376-67.7412 114.996-73.9557 102.983-70.0069C99.5811-73.8521 94.3829-75.0485 89.0789-73.1465C87.4921-72.5527 86.0704-71.7745 84.7584-70.7841C81.0723-74.9361 75.9249-76.3632 70.5478-74.3852C69.633-74.0515 68.7429-73.5756 67.8793-72.9548L62.0966-88.8446C58.8957-97.5835 51.0001-101.358 42.7868-98.3579C34.3293-95.2727 30.5831-87.3017 33.7839-78.5248L50.0148-33.9043C50.1244-33.5534 50.044-33.2318 49.832-33.1513C49.6199-33.0709 49.3946-33.1513 49.2206-33.3474L43.8838-39.082C40.0622-42.3988 35.5565-43.2689 31.1302-41.6815C23.989-39.0931 20.1009-32.2703 22.8809-24.7124C23.6351-22.5217 24.9972-20.0927 26.6325-18.1781L48.4302 8.03888C65.2146 28.1755 85.7435 34.3915 108.234 26.1627ZM104.237 14.1985C87.231 20.3513 71.9809 16.3511 57.8309 0.050977L35.6581-25.5572C35.1342-26.1746 34.7933-26.6824 34.5036-27.5048C33.9021-29.1176 34.5829-30.8973 36.513-31.6084C37.9968-32.1542 39.3083-31.5951 40.5218-30.304L55.9841-15.1375C58.5007-12.6441 61.1254-12.3604 63.4961-13.2125C66.5301-14.3291 68.2225-17.5426 66.9043-21.202L44.3407-83.1572C43.6058-85.1948 44.4574-87.1238 46.4508-87.8321C48.393-88.5537 50.2763-87.5964 51.0111-85.588L66.5968-42.8255C67.5684-40.1501 70.4888-38.8319 73.1262-39.8416C75.7768-40.784 77.1147-43.6726 76.1722-46.31L70.7402-61.2594C71.4954-61.8961 72.5227-62.5108 73.4431-62.8386C75.7439-63.7006 77.7428-62.6937 78.6445-60.3003L83.7345-46.2686C84.7414-43.5298 87.6458-42.3714 90.2143-43.3007C92.7316-44.2167 94.1708-46.9779 93.1347-49.6655L89.3793-60.0499C90.1637-60.6778 91.191-61.3013 92.1114-61.629C94.383-62.453 96.4491-61.4754 97.3128-59.0528L100.706-49.7861C101.704-47.0401 104.638-45.8013 107.264-46.7597C109.811-47.6758 111.279-50.5246 110.31-53.3086L108.389-58.4138C112.844-60.063 116.634-56.9904 119.315-49.6609L124.718-34.8111C133.243-11.3621 125.267 6.50088 104.237 14.1985Z"/>
  </g>
  <g id="Semibold-L" transform="matrix(1 0 0 1 1969.66 1556)">
   <path d="M44.9582-118.55C26.3511-118.55 11.2588-103.495 11.2588-84.9685C11.2588-77.5679 13.7897-70.068 18.059-64.5116C19.26-62.8401 20.8571-62.1654 22.3739-62.1654C26.1565-62.1654 28.9981-66.3628 26.2123-70.0774C23.0325-74.0801 21.059-79.3819 21.059-84.9685C21.059-98.1028 31.7186-108.713 44.9396-108.713C57.4053-108.713 67.737-98.9758 68.4986-86.5101C68.5171-86.1451 68.5357-85.8171 68.5543-85.3156C68.8329-82.4926 70.6777-80.8582 73.185-80.8582C75.9953-80.8582 78.1252-82.7585 78.2119-85.4206C78.2553-85.9468 78.2182-86.733 78.1439-87.5502C76.918-105.055 62.3519-118.55 44.9582-118.55ZM105.087 24.7421C131.527 15.1265 142.593-8.0773 131.995-37.2101L126.791-51.5167C121.619-65.6526 111.738-71.623 100.18-67.7376C96.9748-71.5672 92.0313-72.8166 86.9025-70.9729C85.22-70.3419 83.7295-69.4947 82.3379-68.4249C78.8849-72.5456 73.8484-73.9994 68.5771-72.069C67.4766-71.661 66.401-71.0738 65.3623-70.3258L59.0169-87.7601C56.028-95.916 48.6519-99.3943 41.0582-96.6216C33.279-93.7749 29.7767-86.392 32.7656-78.1928L49.8232-31.3307C49.9222-30.9904 49.8418-30.6687 49.6191-30.5883C49.3964-30.5079 49.1553-30.5883 48.9759-30.8109L42.3595-37.9888C38.6226-41.5024 34.2175-42.4739 29.9232-40.9392C23.3763-38.563 19.6201-32.2762 22.2252-25.2218C22.8997-23.2167 24.1931-20.9144 25.7281-19.0948L47.3964 7.04542C63.6576 26.6168 83.3697 32.6741 105.087 24.7421ZM101.694 14.5637C84.8371 20.6631 69.4655 16.8299 55.3765 0.340688L33.4604-25.4032C32.873-26.0896 32.4896-26.6769 32.1681-27.6107C31.4819-29.4406 32.279-31.4745 34.4369-32.2597C36.1435-32.8905 37.6455-32.2413 39.0549-30.7331L54.1562-15.5408C56.5516-13.1208 58.9591-12.8425 61.1868-13.647C63.9717-14.6681 65.4195-17.5955 64.2499-20.8568L41.8971-82.211C41.0565-84.5288 42.0088-86.7171 44.2775-87.5208C46.4844-88.3429 48.5741-87.2427 49.4147-84.9435L65.0179-42.1554C65.8782-39.766 68.46-38.5965 70.806-39.5002C73.1705-40.3421 74.3287-42.8862 73.4869-45.2322L67.9748-60.3952C68.8092-61.1432 69.9529-61.8479 70.9792-62.2128C73.619-63.202 75.8509-62.052 76.8955-59.2829L81.8643-45.5829C82.7865-43.0827 85.3682-42.1045 87.6401-42.9278C89.8503-43.7327 91.1626-46.1657 90.2219-48.604L86.3497-59.3177C87.2026-60.0409 88.3464-60.7704 89.3727-61.1353C91.9939-62.0811 94.2877-60.9498 95.289-58.1621L98.6242-49.0476C99.5215-46.5722 102.122-45.5135 104.431-46.3554C106.66-47.1603 107.991-49.649 107.112-52.1678L104.941-57.968C109.893-59.7918 114.203-56.2358 117.239-47.9625L122.09-34.6165C130.694-10.9558 122.556 6.92916 101.694 14.5637Z"/>
  </g>
  <g id="Medium-L" transform="matrix(1 0 0 1 1674.62 1556)">
   <path d="M43.4315-116.216C25.6601-116.216 11.2588-101.836 11.2588-84.1451C11.2588-76.848 13.7579-69.7259 18.0197-64.3178C19.0801-62.8756 20.4803-62.2973 21.8001-62.2973C25.1168-62.2973 27.7055-66.045 25.1483-69.346C21.8838-73.3207 19.9182-78.5542 19.9182-84.1451C19.9182-97.0784 30.3929-107.524 43.421-107.524C55.9638-107.524 66.2517-97.5605 66.6828-85.0177C66.6933-84.6366 66.7038-84.3124 66.7143-83.7865C66.872-81.1396 68.6774-79.7303 70.8229-79.7303C73.2108-79.7303 75.1644-81.361 75.2593-83.6976C75.3067-84.1798 75.2857-84.8211 75.2436-85.6064C74.5498-102.719 60.4692-116.216 43.4315-116.216ZM102.701 23.6649C128.124 14.427 139.105-8.25617 128.769-36.6885L123.862-50.1586C118.771-64.0689 109.267-69.8542 98.055-66.0169C94.9986-69.8346 90.2482-71.1242 85.2523-69.3249C83.4973-68.6656 81.9545-67.7662 80.5026-66.636C77.2263-70.733 72.274-72.207 67.0829-70.3127C65.8415-69.8484 64.6252-69.1768 63.4538-68.3325L56.6818-86.9379C53.8536-94.6516 46.8713-97.9051 39.7474-95.3051C32.4826-92.6392 29.1653-85.7022 31.9935-77.9411L49.6779-29.3792C49.7689-29.047 49.6885-28.7253 49.4577-28.6449C49.227-28.5645 48.9738-28.6449 48.7905-28.8876L41.2036-37.1598C37.5311-40.8227 33.2022-41.871 29.008-40.3763C22.9117-38.1611 19.2555-32.2807 21.728-25.6082C22.342-23.7436 23.5835-21.5375 25.0423-19.79L46.6125 6.29214C62.477 25.435 81.5699 31.372 102.701 23.6649ZM99.7662 14.8405C83.022 20.8996 67.5582 17.193 53.5155 0.56036L31.7941-25.2865C31.1584-26.0251 30.7429-26.6728 30.3973-27.691C29.6468-29.6855 30.5321-31.9122 32.8627-32.7537C34.7383-33.4488 36.3847-32.7312 37.9427-31.0584L52.7703-15.8466C55.0738-13.4823 57.3166-13.208 59.4358-13.9764C62.0318-14.9252 63.2941-17.6356 62.2373-20.5951L40.0444-81.4935C39.1235-84.0238 40.1523-86.4088 42.6296-87.2847C45.0371-88.1831 47.2834-86.9746 48.2042-84.4548L63.8207-41.6473C64.5967-39.4748 66.9217-38.418 69.0468-39.2415C71.1943-40.0069 72.2162-42.29 71.4507-44.415L65.878-59.7399C66.7724-60.5723 68.0044-61.3453 69.111-61.7383C72.0078-62.8239 74.4164-61.5655 75.5694-58.5115L80.4463-45.063C81.3042-42.7437 83.6411-41.9021 85.6883-42.6452C87.6656-43.3657 88.8817-45.5498 88.0133-47.7992L84.0525-58.7625C84.9574-59.558 86.1894-60.3679 87.2961-60.7609C90.1824-61.7991 92.6489-60.5512 93.7544-57.4867L97.0458-48.4877C97.8667-46.2173 100.214-45.2953 102.282-46.0489C104.27-46.7694 105.497-48.9851 104.686-51.3029L102.327-57.63C107.656-59.5861 112.359-55.6636 115.665-46.6747L120.097-34.469C128.761-10.6478 120.5 7.2539 99.7662 14.8405Z"/>
  </g>
  <g id="Regular-L" transform="matrix(1 0 0 1 1380.1 1556)">
   <path d="M41.4402-113.172C24.7587-113.172 11.2588-99.6721 11.2588-83.0711C11.2588-75.909 13.7165-69.2797 17.9686-64.0651C18.8455-62.9218 19.9889-62.4695 21.0518-62.4695C23.7606-62.4695 26.0196-65.6306 23.7606-68.3921C20.3855-72.3301 18.4303-77.4745 18.4303-83.0711C18.4303-95.7421 28.6636-105.973 41.4402-105.973C54.0836-105.973 64.3144-95.7145 64.3144-83.0711C64.3144-82.669 64.3144-82.3499 64.3144-81.792C64.3144-79.3747 66.0683-78.2591 67.7418-78.2591C69.5787-78.2591 71.3024-79.5381 71.408-81.4503C71.4607-81.875 71.4607-82.3273 71.4607-83.0711C71.4607-99.6721 58.0135-113.172 41.4402-113.172ZM99.5881 22.26C123.686 13.5146 134.555-8.48947 124.56-36.008L120.042-48.3872C115.056-62.0032 106.044-67.5471 95.2833-63.7725C92.4209-67.5748 87.9225-68.9168 83.0999-67.1752C81.2502-66.4791 79.6393-65.5115 78.1087-64.3027C75.063-68.3688 70.2203-69.8691 65.1339-68.022C63.7089-67.4842 62.309-66.7025 60.9644-65.7324L53.636-85.8654C51.0174-93.0024 44.5489-95.9626 38.0378-93.5879C31.4438-91.1578 28.3678-84.8025 30.9864-77.6127L49.4885-26.8338C49.5689-26.5122 49.4885-26.1905 49.2472-26.1101C49.0059-26.0296 48.737-26.1101 48.5485-26.379L39.6961-36.0786C36.1074-39.9362 31.8779-41.0846 27.8143-39.6422C22.3057-37.6368 18.78-32.2865 21.0794-26.112C21.6147-24.4309 22.7883-22.3501 24.1477-20.6966L45.5901 5.3096C60.9371 23.8935 79.2222 29.6735 99.5881 22.26ZM97.2512 15.2016C80.6545 21.208 65.0705 17.6666 51.088 0.846887L29.6206-25.1342C28.9219-25.941 28.4645-26.6673 28.0875-27.7957C27.2531-30.0049 28.2535-32.4831 30.8095-33.3979C32.9055-34.177 34.7402-33.3702 36.492-31.4827L50.9625-16.2455C53.1462-13.9537 55.1741-13.6848 57.1519-14.406C59.5015-15.2604 60.5219-17.6879 59.6121-20.2537L37.6277-80.5577C36.6022-83.3651 37.7307-86.0066 40.4802-86.9768C43.1494-87.9746 45.5999-86.6249 46.6253-83.8174L62.2591-40.9846C62.9251-39.0949 64.9152-38.1852 66.7521-38.9039C68.6166-39.5698 69.4608-41.5122 68.7949-43.3492L63.143-58.8851C64.1157-59.8276 65.4628-60.6897 66.6742-61.1194C69.9063-62.3308 72.5452-60.9309 73.8396-57.5052L78.5967-44.3848C79.3707-42.3015 81.3885-41.6382 83.1424-42.2764C84.8159-42.887 85.9065-44.7465 85.1325-46.7494L81.0562-58.0383C82.0289-58.9281 83.376-59.8429 84.5874-60.2726C87.8195-61.4313 90.5112-60.0314 91.7528-56.6057L94.9871-47.7573C95.7083-45.7545 97.7261-45.0107 99.48-45.649C101.154-46.2596 102.244-48.119 101.523-50.1747L98.9167-57.189C104.738-59.3178 109.955-54.9173 113.612-44.995L117.497-34.2766C126.24-10.246 117.818 7.67748 97.2512 15.2016Z"/>
  </g>
  <g id="Light-L" transform="matrix(1 0 0 1 1085.35 1556)">
   <path d="M39.5698-110.214C23.919-110.214 11.2588-97.5537 11.2588-81.9832C11.2588-75.3174 13.5256-69.1079 17.5487-64.1796C18.2539-63.2462 19.1873-62.8703 20.0403-62.8703C22.1765-62.8703 23.9965-65.3825 22.1765-67.5524C18.8586-71.4331 16.9416-76.5202 16.9416-81.9832C16.9416-94.4634 27.0223-104.484 39.5698-104.484C52.0033-104.484 62.0241-94.4167 62.0241-81.9832C62.0241-81.5811 62.0241-81.3193 62.0241-80.8759C62.0241-78.9549 63.4345-78.0682 64.7645-78.0682C66.3151-78.0682 67.619-79.1755 67.6863-80.6869C67.72-81.0162 67.72-81.3921 67.72-81.9832C67.72-97.5537 55.0935-110.214 39.5698-110.214ZM96.6108 21.1148C119.468 12.8275 130.624-7.87875 120.724-35.1301L116.473-46.784C111.487-60.3619 102.972-65.7913 92.5541-62.1311C89.8253-65.838 85.4414-67.2182 80.676-65.4957C78.8264-64.8187 77.1582-63.7938 75.5704-62.5277C72.7536-66.403 68.1209-67.8842 63.1872-66.0944C61.6667-65.5184 60.1332-64.6413 58.6932-63.5566L51.1358-84.3195C48.7081-90.9984 42.6595-93.6151 36.8164-91.4885C30.8331-89.2684 27.9098-83.4665 30.3375-76.7539L49.5648-24.0092C49.6452-23.6875 49.5648-23.3659 49.3235-23.2854C49.0823-23.205 48.7943-23.2854 48.5867-23.5734L37.7875-35.5824C34.2752-39.3827 30.1793-40.4357 26.3638-39.1078C21.1606-37.2169 17.9212-32.1147 20.087-26.3411C20.6032-24.8317 21.6431-22.98 22.8309-21.5173L44.8076 5.176C59.2576 22.7102 77.0084 28.2612 96.6108 21.1148ZM94.7701 15.6788C78.0971 21.7233 62.3031 17.5139 49.1604 1.62938L27.1968-25.077C26.4599-25.941 25.9644-26.7246 25.5492-27.9103C24.6384-30.3676 25.8296-33.1129 28.5956-34.104C30.8061-34.9213 32.908-34.0573 34.8698-31.9217L49.2257-16.4363C51.085-14.4499 52.903-14.1619 54.7471-14.8259C56.8868-15.604 57.9454-17.7643 57.0738-20.1583L35.6237-79.0118C34.4456-82.2582 35.6313-85.2241 38.7244-86.3088C41.7371-87.4402 44.4357-85.8806 45.6138-82.6342L60.7705-41.0991C61.341-39.5148 62.873-38.6433 64.4237-39.2474C66.021-39.8179 66.5599-41.4359 65.9894-42.9865L60.4329-58.2553C61.5773-59.2932 63.0771-60.2507 64.403-60.6995C67.9787-62.0254 70.8848-60.492 72.351-56.5891L76.7836-44.4039C77.4813-42.4924 79.0601-41.9817 80.4705-42.5055C81.8005-42.9825 82.7002-44.4602 82.0025-46.2913L77.8881-57.6566C79.0325-58.6609 80.5323-59.652 81.8582-60.1009C85.4339-61.3931 88.3737-59.8596 89.8061-55.9568L92.8305-47.6619C93.4944-45.8308 95.0732-45.2397 96.4836-45.7635C97.8136-46.2405 98.7133-47.7182 98.0494-49.583L95.3096-56.9982C101.817-59.3751 107.417-54.8791 111.322-44.2698L115.169-33.6468C124.007-9.34895 114.879 8.34547 94.7701 15.6788Z"/>
  </g>
  <g id="Thin-L" transform="matrix(1 0 0 1 791.222 1556)">
   <path d="M37.0961-106.301C22.8083-106.301 11.2588-94.7518 11.2588-80.5445C11.2588-74.5349 13.2732-68.8807 16.9934-64.3311C17.4714-63.6754 18.1271-63.4004 18.7024-63.4004C20.0814-63.4004 21.3209-65.0543 20.0814-66.4417C16.8393-70.2468 14.9728-75.2581 14.9728-80.5445C14.9728-92.7722 24.8515-102.515 37.0961-102.515C49.2519-102.515 58.9951-92.7002 58.9951-80.5445C58.9951-80.1424 58.9951-79.9562 58.9951-79.6643C58.9951-78.3995 59.9512-77.8158 60.8268-77.8158C61.9988-77.8158 62.7473-78.6959 62.7642-79.6773C62.7726-79.8803 62.7726-80.1553 62.7726-80.5445C62.7726-94.7518 51.2315-106.301 37.0961-106.301ZM92.6731 19.6003C113.889 11.9188 125.424-7.07101 115.651-33.9689L111.753-44.6637C106.767-58.1911 98.9076-63.469 88.9445-59.9603C86.3924-63.541 82.16-64.9717 77.4703-63.2744C75.6207-62.6226 73.8767-61.5221 72.2132-60.1802C69.6994-63.8031 65.3443-65.2591 60.6125-63.5449C58.9659-62.9185 57.2557-61.9152 55.6894-60.6791L47.8291-82.2749C45.6538-88.348 40.1605-90.5104 35.2009-88.7119C30.0253-86.7694 27.304-81.6996 29.4793-75.618L49.6658-20.2734C49.7462-19.9517 49.6658-19.6301 49.4245-19.5496C49.1832-19.4692 48.87-19.5496 48.6372-19.8629L35.2633-34.9261C31.852-38.6507 27.9328-39.5775 24.4454-38.401C19.6461-36.6616 16.7853-31.8876 18.7744-26.644C19.2654-25.3617 20.1286-23.8129 21.0892-22.6027L43.7726 4.99931C57.0363 21.1452 74.0803 26.3933 92.6731 19.6003ZM91.4887 16.3098C74.7147 22.4049 58.6431 17.312 46.611 2.6643L23.9911-25.0013C23.2037-25.941 22.6577-26.8003 22.192-28.0617C21.1803-30.8472 22.6239-33.9459 25.6675-35.038C28.0295-35.9057 30.4848-34.966 32.7242-32.5022L46.9287-16.6888C48.3589-15.1062 49.8992-14.793 51.5667-15.3812C53.4287-16.0583 54.5377-17.8653 53.7166-20.0321L32.9733-76.9672C31.5933-80.7942 32.8547-84.1892 36.4022-85.4253C39.8692-86.7334 42.8959-84.8961 44.276-81.0692L58.8016-41.2506C59.2459-40.0701 60.1722-39.2491 61.3442-39.7018C62.5881-40.1461 62.7231-41.3349 62.2788-42.5069L56.8485-57.4223C58.2202-58.5864 59.9219-59.6701 61.3993-60.1442C65.4292-61.6216 68.6888-59.9114 70.3821-55.3775L74.3857-44.4291C74.9823-42.7448 75.9806-42.4361 76.9366-42.8084C77.8123-43.1087 78.4596-44.0816 77.8629-45.6855L73.6979-57.1518C75.0695-58.3075 76.7713-59.3996 78.2487-59.8737C82.2786-61.3426 85.5466-59.6324 87.2315-55.0986L89.9781-47.5357C90.5664-45.9318 91.5646-45.5426 92.5207-45.9149C93.3963-46.2152 94.0436-47.1882 93.4554-48.8005L90.5389-56.7458C97.9555-59.4508 104.06-54.8286 108.293-43.3106L112.089-32.8138C121.054-8.16259 110.992 9.22893 91.4887 16.3098Z"/>
  </g>
  <g id="Ultralight-L" transform="matrix(1 0 0 1 495.836 1556)">
   <path d="M35.8291-104.297C22.2395-104.297 11.2588-93.3167 11.2588-79.8075C11.2588-74.1341 13.1439-68.7644 16.7089-64.4087C17.0706-63.8951 17.5841-63.6719 18.0172-63.6719C19.0083-63.6719 19.9504-64.8862 19.0083-65.8729C15.805-69.6391 13.9643-74.6117 13.9643-79.8075C13.9643-91.906 23.7396-101.507 35.8291-101.507C47.8427-101.507 57.4437-91.8211 57.4437-79.8075C57.4437-79.4054 57.4437-79.2581 57.4437-79.0438C57.4437-78.1151 58.167-77.6865 58.8099-77.6865C59.788-77.6865 60.2521-78.4503 60.2431-79.1601C60.2386-79.2985 60.2386-79.5218 60.2386-79.8075C60.2386-93.3167 49.2534-104.297 35.8291-104.297ZM90.6562 18.8246C111.032 11.4534 122.76-6.65729 113.052-33.3742L109.335-43.5777C104.349-57.0792 96.8261-62.2796 87.0957-58.8485C84.6341-62.3645 80.4792-63.821 75.8284-62.1367C73.9787-61.4978 72.196-60.3585 70.4937-58.9779C68.135-62.4714 63.9222-63.9145 59.2938-62.2391C57.5825-61.5868 55.7818-60.5189 54.1509-59.2052L46.1354-81.2277C44.0895-86.9905 38.8806-88.9201 34.3735-87.2897C29.6116-85.4895 26.9937-80.7946 29.0397-75.0362L49.7175-18.36C49.7979-18.0383 49.7175-17.7166 49.4762-17.6362C49.235-17.5558 48.9088-17.6362 48.663-17.9624L33.9705-34.59C30.6108-38.2758 26.7821-39.138 23.4629-38.039C18.8704-36.3772 16.2035-31.7712 18.1021-26.7991C18.5802-25.6332 19.3529-24.2396 20.1971-23.1586L43.2426 4.90881C55.8986 20.3436 72.5806 25.4366 90.6562 18.8246ZM89.808 16.633C72.9822 22.7539 56.7684 17.2086 45.3052 3.19438L22.3491-24.9625C21.5359-25.941 20.964-26.8391 20.4725-28.1393C19.4091-31.0928 20.982-34.3725 24.1678-35.5163C26.6073-36.41 29.2437-35.4314 31.6253-32.7996L45.7522-16.818C46.9626-15.4424 48.3607-15.1162 49.9376-15.6657C51.6575-16.291 52.7923-17.917 51.9971-19.9675L31.6158-75.92C30.1323-80.0443 31.4325-83.6591 35.2127-84.9728C38.9125-86.3714 42.1073-84.3919 43.5908-80.2676L57.7932-41.3282C58.1728-40.3546 58.7888-39.5594 59.7668-39.9345C60.8298-40.3141 60.7579-41.2832 60.3783-42.2613L55.0126-56.9957C56.5006-58.2244 58.3058-59.3728 59.8607-59.8598C64.1234-61.4147 67.564-59.614 69.3737-54.7569L73.1574-44.4421C73.7024-42.8741 74.4033-42.6688 75.1266-42.9635C75.7695-43.1733 76.2875-43.8877 75.7426-45.3752L71.5517-56.8932C73.0397-58.1265 74.8449-59.2703 76.3998-59.7573C80.6625-61.3168 84.0986-59.5161 85.9128-54.659L88.5172-47.4711C89.0667-45.9835 89.7675-45.6978 90.4909-45.9925C91.1338-46.2023 91.6518-46.9167 91.1023-48.3997L88.0953-56.6165C95.9774-59.4896 102.34-54.8028 106.741-42.8193L110.512-32.3872C119.541-7.55494 109.001 9.68143 89.808 16.633Z"/>
  </g>
  <g id="Black-M" transform="matrix(1 0 0 1 2868.15 1126)">
   <path d="M42.2836-111.141C23.791-111.141 8.72266-96.1872 8.72266-77.757C8.72266-71.6438 10.7867-63.9747 14.056-58.981C15.6731-56.5432 17.8825-55.535 20.0297-55.535C25.2347-55.535 28.6261-60.9489 25.406-65.8168C23.4112-69.0471 21.853-73.4975 21.853-77.757C21.853-88.9328 31.0397-97.9543 42.2265-97.9543C51.4042-97.9543 59.5693-91.6737 61.9102-82.496C61.9673-82.2987 62.0244-82.0434 62.0815-81.8235C62.9379-78.8724 64.4592-76.4914 68.202-76.4914C72.5201-76.4914 74.9612-79.3335 74.9722-82.9838C74.9777-83.5927 74.8635-84.9435 74.6351-85.6934C70.8667-100.983 57.2884-111.141 42.2836-111.141ZM93.0459 16.5506C118.493 7.2558 127.617-13.0379 118.052-39.2293L112.534-54.4982C108.101-66.6321 98.6131-72.1994 87.9441-68.9735C84.7181-71.9707 79.9037-72.7386 75.2458-71.0822C74.3266-70.7495 73.4292-70.3505 72.6511-69.8217C69.1174-73.0748 64.8413-74.0875 60.3843-72.4201C60.2453-72.3894 60.1121-72.3492 59.9783-72.2417L57.2447-79.7577C54.1425-88.2632 46.4838-92.0322 38.3386-89.0538C29.7945-85.9616 26.153-78.0674 29.2552-69.5564L39.3959-41.5874C39.5153-41.2811 39.453-41.0318 39.3232-40.9695C39.1933-40.9072 39.0638-40.9695 38.9395-41.042L38.2922-41.5905C35.0825-43.5023 31.3112-43.8155 27.5382-42.4535C20.1825-39.7989 16.8398-32.8594 19.5155-25.5072C20.3516-23.2671 21.584-21.052 23.1182-19.3255L40.607 1.46849C55.0019 18.5447 73.3731 23.7972 93.0459 16.5506ZM88.1587 2.04276C74.4739 6.99532 62.9817 3.1273 52.1072-8.56939L33.9274-28.2157C33.715-28.4901 33.5753-28.6451 33.4408-28.9403C33.2238-29.5703 33.4391-30.2156 34.267-30.5521C34.7329-30.7126 35.2224-30.5523 35.5985-30.1716L48.7096-18.4205C50.9418-16.3547 53.6082-16.111 55.8633-16.9062C58.9502-18.0546 61.0676-21.3812 59.5772-25.4486L41.5944-74.9034C41.3162-75.7226 41.6686-76.4865 42.4374-76.7653C43.201-77.0438 44.0749-76.6937 44.3532-75.9315L56.2087-43.3263C57.29-40.4301 60.4947-38.9397 63.3854-40.0264C66.2759-41.0505 67.7911-44.2948 66.767-47.1855L62.8506-57.9842C63.2375-58.149 63.7078-58.3658 64.1164-58.5057C64.9165-58.8001 65.8006-58.4385 66.0941-57.6404L70.3201-46.0121C71.3491-43.1749 74.4965-41.7451 77.331-42.7695C80.1602-43.7942 81.6219-46.868 80.5357-49.6999L77.992-56.7033C78.436-56.9198 78.9064-57.085 79.315-57.2249C80.0579-57.5138 81.0046-57.2093 81.2927-56.3541L84.0372-48.8694C85.1179-45.9232 88.3224-44.4311 91.271-45.5126C94.1573-46.5373 95.6761-49.7824 94.6526-52.734L93.9273-54.5721C95.9996-55.3682 97.3809-54.5226 98.3901-51.6708L104.355-35.3219C110.735-17.7505 104.842-4.06072 88.1587 2.04276Z"/>
  </g>
  <g id="Heavy-M" transform="matrix(1 0 0 1 2573.82 1126)">
   <path d="M40.1331-107.875C22.8162-107.875 8.72266-93.8688 8.72266-76.6141C8.72266-70.5674 10.7747-63.4396 14.0806-58.6325C15.4995-56.5328 17.4248-55.6695 19.2878-55.6695C23.8367-55.6695 26.8998-60.471 23.9676-64.7746C21.8187-67.9702 20.2657-72.3186 20.2657-76.6141C20.2657-87.4949 29.1759-96.2861 40.0895-96.2861C49.4412-96.2861 57.5781-89.5864 59.3666-80.2347C59.4102-80.0104 59.4538-79.7493 59.4974-79.464C60.1518-76.7006 61.6809-74.6467 64.8926-74.6467C68.566-74.6467 70.8026-77.0751 70.8354-80.2674C70.8518-80.8231 70.7646-81.9481 70.5901-82.6775C67.7111-97.533 54.7682-107.875 40.1331-107.875ZM89.6961 14.9958C113.711 6.23399 122.63-13.4682 113.482-38.5458L108.405-52.5721C104.106-64.3371 95.1427-69.6195 84.9778-66.4494C81.9718-69.4473 77.4557-70.2743 73.0076-68.6877C71.9672-68.3038 70.9947-67.8297 70.1282-67.2123C66.8407-70.4668 62.6601-71.5175 58.3045-69.8981C57.9505-69.7814 57.6107-69.6206 57.2755-69.3765L53.8779-78.7152C51.0034-86.5799 43.913-90.0469 36.4097-87.3038C28.5943-84.4688 25.2292-77.2012 28.1038-69.3201L39.1366-38.9317C39.2425-38.6389 39.1802-38.3897 39.0369-38.3274C38.8936-38.2651 38.7481-38.3274 38.6212-38.4293L36.7699-40.3113C33.6513-42.4849 29.9787-42.947 26.3198-41.6273C19.6518-39.2171 16.4148-32.9037 18.8975-26.1039C19.6367-24.0619 20.8108-21.9584 22.2545-20.3113L39.4647 0.237861C53.389 16.8231 70.8397 21.9236 89.6961 14.9958ZM85.4683 2.40313C71.9888 7.27995 60.3876 3.7671 49.41-8.37023L31.6623-28.0328C31.3774-28.3823 31.1922-28.6258 31.0257-29.05C30.7176-29.9019 31.0393-30.812 32.1109-31.2261C32.8347-31.486 33.5082-31.2238 34.0876-30.6212L46.7656-18.8907C48.9139-16.8524 51.3501-16.6196 53.4526-17.3667C56.2688-18.4106 58.0679-21.4318 56.7578-25.0316L38.9275-74.036C38.548-75.1162 39.0158-76.1391 40.0597-76.5141C41.0849-76.8913 42.1673-76.4053 42.5468-75.3687L54.5271-42.4523C55.4877-39.8531 58.3616-38.5429 60.9445-39.5199C63.5296-40.437 64.8827-43.3144 63.9657-45.8972L59.9273-57.0239C60.3777-57.3094 60.9628-57.6198 61.481-57.8027C62.637-58.2337 63.7591-57.7194 64.1969-56.5475L68.3389-45.1388C69.2769-42.5672 72.1095-41.3329 74.6419-42.2477C77.1556-43.1602 78.4974-45.8999 77.5158-48.4528L74.8322-55.8572C75.3262-56.1699 75.9113-56.453 76.4296-56.636C77.5419-57.0506 78.724-56.5799 79.1454-55.3644L81.8618-47.9538C82.827-45.3136 85.7032-44.0171 88.3229-44.9755C90.8802-45.888 92.2656-48.7585 91.344-51.4151L90.3314-54.048C92.8865-55.012 94.8444-53.5743 96.2507-49.6737L101.524-35.2105C107.984-17.4282 102.037-3.66131 85.4683 2.40313Z"/>
  </g>
  <g id="Bold-M" transform="matrix(1 0 0 1 2279.78 1126)">
   <path d="M37.7274-104.221C21.7256-104.221 8.72266-91.2752 8.72266-75.3357C8.72266-69.3633 10.7611-62.8411 14.1081-58.2427C15.3053-56.5211 16.9128-55.82 18.4579-55.82C22.2728-55.82 24.9687-59.9364 22.3585-63.6087C20.0374-66.7656 18.49-70.9998 18.49-75.3357C18.49-85.8863 27.091-94.42 37.6989-94.42C47.2452-94.42 55.3507-87.2515 56.5212-77.7051C56.5497-77.4507 56.5783-77.1831 56.6068-76.8245C57.035-74.2712 58.573-72.5832 61.1905-72.5832C64.1427-72.5832 66.1506-74.5487 66.2079-77.2288C66.2365-77.7249 66.1794-78.5973 66.0652-79.3038C64.181-93.6732 51.9489-104.221 37.7274-104.221ZM85.9488 13.2566C108.361 5.09096 117.051-13.9494 108.37-37.7811L103.785-50.4175C99.6365-61.7698 91.2605-66.7336 81.6596-63.6259C78.8998-66.6246 74.7174-67.5175 70.504-66.0092C69.3279-65.5678 68.2714-65.0098 67.3059-64.2934C64.2939-67.5494 60.2201-68.6424 55.9778-67.0769C55.3835-66.8641 54.8126-66.5683 54.2521-66.1714L50.1117-77.549C47.4919-84.6969 41.0372-87.826 34.2521-85.3461C27.2517-82.7989 24.1959-76.2322 26.8157-69.0557L38.8466-35.961C38.9374-35.6832 38.8751-35.434 38.7168-35.3717C38.5584-35.3094 38.3949-35.3717 38.2652-35.5067L35.067-38.8803C32.0502-41.3468 28.4881-41.9755 24.9568-40.7031C19.0581-38.5663 15.9394-32.9533 18.2061-26.7713C18.8369-24.951 19.9458-22.9722 21.2884-21.4141L38.1867-1.13877C51.5848 14.8973 68.0058 19.8278 85.9488 13.2566ZM82.4586 2.80625C69.2088 7.59835 57.4857 4.48282 46.3928-8.14745L29.1285-27.8283C28.7625-28.2617 28.5263-28.6042 28.324-29.1727C27.914-30.2727 28.3548-31.4792 29.699-31.9801C30.7112-32.3512 31.5906-31.9749 32.3974-31.1241L44.591-19.4168C46.6455-17.4091 48.824-17.1885 50.7558-17.8818C53.2693-18.8088 54.7123-21.4885 53.6038-24.5651L35.9441-73.0657C35.4512-74.4378 36.0482-75.7505 37.3998-76.2331C38.7177-76.7208 40.0332-76.0827 40.5261-74.7392L52.6459-41.4747C53.4717-39.2075 55.9755-38.099 58.214-38.9534C60.4576-39.7506 61.6292-42.2176 60.832-44.4561L56.6572-55.9498C57.1785-56.3701 57.892-56.7852 58.533-57.0163C60.0871-57.6001 61.4753-56.9151 62.0745-55.325L66.1227-44.1618C66.9588-41.8873 69.4392-40.8719 71.6337-41.664C73.7945-42.451 75.0022-44.8169 74.1376-47.0577L71.2975-54.9107C71.8474-55.3309 72.5609-55.7461 73.2018-55.9771C74.7274-56.5323 76.1728-55.8759 76.7434-54.2572L79.4283-46.9295C80.2644-44.6317 82.7733-43.554 85.0249-44.3746C87.2142-45.1616 88.4505-47.6132 87.643-49.9396L86.3089-53.4617C89.4041-54.6136 92.0071-52.5134 93.8575-47.4397L98.3561-35.086C104.906-17.0677 98.898-3.21452 82.4586 2.80625Z"/>
  </g>
  <g id="Semibold-M" transform="matrix(1 0 0 1 1984.91 1126)">
   <path d="M36.069-101.702C20.9738-101.702 8.72266-89.4872 8.72266-74.4543C8.72266-68.5332 10.7518-62.4284 14.1271-57.974C15.1715-56.5131 16.5598-55.9238 17.8858-55.9238C21.1947-55.9238 23.6374-59.5678 21.2492-62.8049C18.8093-65.9351 17.2659-70.0907 17.2659-74.4543C17.2659-84.7774 25.6536-93.1335 36.0508-93.1335C45.7314-93.1335 53.8151-85.6418 54.5595-75.9613C54.5777-75.6861 54.5959-75.414 54.614-75.0049C54.8864-72.5963 56.4304-71.1607 58.6383-71.1607C61.0933-71.1607 62.9436-72.807 63.0176-75.134C63.0547-75.589 63.0184-76.2872 62.9457-76.9781C61.7474-91.0123 50.0054-101.702 36.069-101.702ZM83.3655 12.0575C104.672 4.30296 113.205-14.2812 104.846-37.254L100.6-48.9322C96.5556-60 88.5842-64.7441 79.3721-61.6793C76.7819-64.6786 72.8296-65.617 68.778-64.1627C67.5084-63.6816 66.394-63.0658 65.3602-62.2811C62.5381-65.5382 58.538-66.6604 54.3738-65.1319C53.6138-64.8528 52.8836-64.4641 52.1677-63.9619L47.5153-76.745C45.0711-83.3987 39.0546-86.2949 32.7646-83.9966C26.3261-81.6477 23.4835-75.5642 25.9277-68.8734L38.6466-33.913C38.7271-33.6456 38.6648-33.3964 38.496-33.3341C38.3273-33.2718 38.1514-33.3341 38.0197-33.4918L33.893-37.8938C30.9465-40.5623 27.4605-41.3057 24.0172-40.066C18.6488-38.1177 15.6117-32.9875 17.7295-27.2314C18.2856-25.564 19.3495-23.6712 20.6224-22.1743L37.3057-2.08781C50.3409 13.5696 66.052 18.3829 83.3655 12.0575ZM80.3837 3.08416C67.2923 7.81785 55.4852 4.97623 44.3128-7.99386L27.3817-27.6873C26.9598-28.1786 26.6885-28.5894 26.4614-29.2572C25.9812-30.5284 26.504-31.9392 28.0362-32.4999C29.2474-32.9477 30.2686-32.4927 31.2322-31.4708L43.0919-19.7794C45.0816-17.7929 47.0826-17.5807 48.8967-18.2369C51.2014-19.0833 52.399-21.5276 51.4295-24.2434L33.8873-72.3968C33.3164-73.9701 34.0024-75.4826 35.5662-76.0394C37.0858-76.6032 38.5621-75.8604 39.133-74.3052L51.349-40.8006C52.0818-38.7625 54.3305-37.793 56.3315-38.5629C58.3397-39.2775 59.3863-41.4616 58.6717-43.4626L54.4028-55.2093C54.9731-55.7226 55.7751-56.2099 56.5006-56.4741C58.3292-57.1633 59.9009-56.3605 60.6114-54.4821L64.5949-43.4884C65.3608-41.4187 67.5984-40.5541 69.56-41.2616C71.4774-41.962 72.5926-44.0703 71.8086-46.0959L68.8607-54.2581C69.4491-54.7526 70.2511-55.2588 70.9766-55.5229C72.7871-56.1751 74.414-55.3905 75.0875-53.4939L77.7507-46.2234C78.4977-44.1616 80.7534-43.2347 82.7513-43.9604C84.687-44.6608 85.8203-46.8236 85.0915-48.9225L83.5358-53.0575C87.0033-54.339 90.051-51.782 92.2076-45.8995L96.1723-35.0002C102.784-16.8191 96.7343-2.9065 80.3837 3.08416Z"/>
  </g>
  <g id="Medium-M" transform="matrix(1 0 0 1 1689.59 1126)">
   <path d="M34.8115-99.792C20.4037-99.792 8.72266-88.1315 8.72266-73.786C8.72266-67.9038 10.7447-62.1156 14.1415-57.7702C15.07-56.507 16.2921-56.0025 17.4519-56.0025C20.3773-56.0025 22.6279-59.2884 20.4081-62.1954C17.8781-65.3054 16.3377-69.4014 16.3377-73.786C16.3377-83.9366 24.5638-92.1581 34.8012-92.1581C44.5835-92.1581 52.6508-84.4213 53.0722-74.639C53.0825-74.348 53.0927-74.0726 53.103-73.6251C53.2572-71.3264 54.8058-70.082 56.7032-70.082C58.7812-70.082 60.5118-71.4864 60.5987-73.5456C60.6421-73.9695 60.6216-74.5357 60.5804-75.2145C59.9021-88.9948 48.5317-99.792 34.8115-99.792ZM81.4067 11.1484C101.876 3.70546 110.289-14.5328 102.174-36.8543L98.1852-47.8059C94.2195-58.658 86.5549-63.2355 77.6376-60.2034C75.1761-63.203 71.3982-64.176 67.4692-62.7625C66.1287-62.2515 64.9705-61.5917 63.8849-60.7553C61.2069-64.0132 57.2626-65.1576 53.1576-63.6572C52.2719-63.3279 51.421-62.8686 50.5873-62.2865L45.5466-76.1353C43.2355-82.4144 37.5514-85.134 31.6367-82.9733C25.6243-80.7748 22.9433-75.0577 25.2544-68.7352L38.495-32.3601C38.5676-32.1006 38.5053-31.8514 38.3287-31.7891C38.152-31.7268 37.9668-31.7891 37.8336-31.9641L33.0029-37.1458C30.1096-39.9674 26.6814-40.7979 23.3048-39.5829C18.3385-37.7775 15.3632-33.0135 17.3681-27.5803C17.8675-26.0287 18.8973-24.2012 20.1174-22.7507L36.6377-2.80741C49.3978 12.5629 64.5706 17.2874 81.4067 11.1484ZM78.8105 3.29488C65.8392 7.98429 53.9684 5.35036 42.7356-7.87741L26.0572-27.5804C25.5929-28.1155 25.295-28.5781 25.0491-29.3214C24.5157-30.7223 25.1007-32.2879 26.7755-32.894C28.1374-33.4 29.2662-32.8854 30.3487-31.7337L41.9552-20.0544C43.8958-18.0839 45.7622-17.8781 47.487-18.5062C49.6334-19.2914 50.645-21.5572 49.7809-23.9996L32.3278-71.8896C31.6976-73.6155 32.4512-75.2795 34.1758-75.8925C35.8484-76.5141 37.4466-75.6917 38.0767-73.9761L50.3657-40.2896C51.028-38.4251 53.0831-37.561 54.9042-38.2667C56.7339-38.9187 57.6856-40.8883 57.0336-42.7093L52.6935-54.6478C53.3008-55.2316 54.1699-55.7737 54.9596-56.063C56.9963-56.832 58.7071-55.94 59.502-53.843L63.4364-42.9777C64.149-41.0633 66.2025-40.3131 67.9875-40.9565C69.7205-41.5913 70.7656-43.5042 70.0427-45.3666L67.013-53.7633C67.6306-54.314 68.4998-54.8893 69.2894-55.1786C71.3159-55.9042 73.0804-55.0225 73.8318-52.9152L76.4786-45.6881C77.1581-43.8051 79.2219-42.9927 81.0274-43.6463C82.7707-44.2811 83.8261-46.2249 83.1569-48.1513L81.4331-52.751C85.1829-54.1307 88.5678-51.2275 90.9566-44.7317L94.5165-34.9351C101.175-16.6307 95.0936-2.67295 78.8105 3.29488Z"/>
  </g>
  <g id="Regular-M" transform="matrix(1 0 0 1 1394.7 1126)">
   <path d="M33.1713-97.3006C19.6602-97.3006 8.72266-86.3631 8.72266-72.9143C8.72266-67.0828 10.7355-61.7075 14.1603-57.5044C14.9376-56.499 15.943-56.1051 16.8861-56.1051C19.311-56.1051 21.3113-58.9239 19.311-61.4005C16.6635-64.4841 15.127-68.5022 15.127-72.9143C15.127-82.8399 23.1422-90.8857 33.1713-90.8857C43.0863-90.8857 51.1321-82.8293 51.1321-72.9143C51.1321-72.6028 51.1321-72.3229 51.1321-71.8255C51.1321-69.6699 52.6867-68.6751 54.179-68.6751C55.7653-68.6751 57.34-69.7639 57.4435-71.4738C57.4953-71.8571 57.4953-72.2511 57.4953-72.9143C57.4953-86.3631 46.6095-97.3006 33.1713-97.3006ZM78.8517 9.96254C98.228 2.92612 106.486-14.8609 98.6882-36.3329L95.0354-46.3369C91.1725-56.9076 83.9079-61.2679 75.3752-58.2783C73.0815-61.2784 69.5311-62.2964 65.7622-60.9363C64.3292-60.3861 63.1137-59.6691 61.9606-58.7651C59.4704-62.0241 55.599-63.1973 51.5713-61.7337C50.5216-61.3387 49.5132-60.7875 48.5259-60.1012L42.9788-75.3402C40.8413-81.1305 35.5906-83.6197 30.1656-81.6385C24.7089-79.6362 22.2388-74.3971 24.3762-68.555L38.2973-30.3346C38.3596-30.0854 38.2973-29.8362 38.1104-29.7739C37.9235-29.7116 37.726-29.7739 37.5908-29.9714L31.8418-36.1701C29.018-39.1914 25.6651-40.1355 22.3755-38.9527C17.9337-37.3338 15.0391-33.0473 16.8967-28.0353C17.3222-26.635 18.3076-24.8924 19.4587-23.5026L35.7664-3.74603C48.1676 11.2498 62.6384 15.8584 78.8517 9.96254ZM76.7584 3.56973C63.9438 8.20138 51.9898 5.83835 40.6785-7.72551L24.3295-27.4409C23.81-28.0333 23.4774-28.5634 23.2071-29.405C22.6041-30.9752 23.2704-32.7428 25.131-33.4081C26.6896-33.9899 27.9588-33.3975 29.1963-32.0766L40.4725-20.413C42.3492-18.4635 44.0399-18.266 45.6483-18.8574C47.5883-19.5629 48.3571-21.5958 47.6305-23.6815L30.2937-71.2281C29.5862-73.153 30.4279-75.0146 32.3623-75.7009C34.2345-76.3978 35.9915-75.4718 36.699-73.5469L49.0831-39.623C49.6534-37.985 51.4562-37.2584 53.0425-37.8804C54.6393-38.4507 55.4673-40.1405 54.897-41.7268L50.4639-53.9154C51.1196-54.5912 52.0762-55.2047 52.9495-55.5268C55.2578-56.4 57.15-55.3916 58.0549-53.0095L61.9254-42.3116C62.5685-40.5997 64.3819-39.9988 65.9365-40.5585C67.4288-41.1077 68.3825-42.7659 67.7394-44.4154L64.603-53.118C65.2587-53.742 66.2154-54.4073 67.0887-54.7294C69.3969-55.5509 71.3409-54.5424 72.1941-52.1603L74.8195-44.9897C75.4108-43.3402 77.2242-42.6769 78.7788-43.2366C80.2711-43.7858 81.2248-45.444 80.6334-47.1453L78.6904-52.3512C82.8085-53.8591 86.6332-50.5042 89.3249-43.2085L92.3567-34.8502C99.0761-16.3849 92.9537-2.36831 76.7584 3.56973Z"/>
  </g>
  <g id="Light-M" transform="matrix(1 0 0 1 1099.74 1126)">
   <path d="M31.4944-94.6484C18.9073-94.6484 8.72266-84.4638 8.72266-71.939C8.72266-66.5523 10.5644-61.5535 13.7838-57.6071C14.4071-56.7899 15.2243-56.4644 15.9792-56.4644C17.8908-56.4644 19.4975-58.7014 17.8908-60.6476C15.2947-63.6799 13.7924-67.6467 13.7924-71.939C13.7924-81.6934 21.6707-89.5511 31.4944-89.5511C41.2212-89.5511 49.0788-81.6658 49.0788-71.939C49.0788-71.6275 49.0788-71.3989 49.0788-71.0042C49.0788-69.2935 50.3254-68.5039 51.5097-68.5039C52.8393-68.5039 54.0376-69.4388 54.1069-70.7893C54.1415-71.0871 54.1415-71.4126 54.1415-71.939C54.1415-84.4638 43.9915-94.6484 31.4944-94.6484ZM76.1824 8.93589C94.4465 2.31013 102.961-14.3134 95.2489-35.5458L91.8356-44.8995C87.9727-55.436 81.1531-59.6937 72.9283-56.8067C70.7544-59.7213 67.3067-60.7735 63.5891-59.4305C62.1561-58.8974 60.8893-58.1291 59.6848-57.1738C57.4-60.2617 53.7168-61.4178 49.8259-60.0055C48.6908-59.5763 47.5626-58.9396 46.4897-58.1505L40.7372-73.9542C38.7709-79.3339 33.8966-81.5151 29.0705-79.7563C24.1613-77.9422 21.8281-73.1993 23.7945-67.785L38.3657-27.8022C38.428-27.553 38.3657-27.3038 38.1788-27.2415C37.9919-27.1792 37.7773-27.2415 37.6251-27.4561L30.1307-35.7252C27.3753-38.6952 24.1422-39.5537 21.075-38.4736C16.9071-36.9574 14.2691-32.8933 16.0069-28.2406C16.4154-26.9943 17.2809-25.4571 18.278-24.2384L35.0649-3.8658C46.6618 10.189 60.6535 14.5922 76.1824 8.93589ZM74.534 3.99751C61.6509 8.66338 49.5087 5.70146 38.9503-7.02396L22.1565-27.3896C21.6027-28.0333 21.2359-28.6147 20.9313-29.5077C20.2599-31.3003 21.0973-33.3075 23.1461-34.0412C24.8074-34.6572 26.3161-34.0135 27.7419-32.4701L38.9154-20.5841C40.5012-18.9084 42.0037-18.6938 43.4923-19.2339C45.2441-19.8709 46.0471-21.6643 45.3547-23.596L28.4971-69.8421C27.6527-72.1605 28.5457-74.313 30.7881-75.102C32.9682-75.9187 34.9478-74.8045 35.7921-72.486L47.7484-39.7256C48.2332-38.3614 49.6253-37.6691 50.9549-38.1884C52.3122-38.6732 52.8665-40.0721 52.3817-41.4017L48.0341-53.3507C48.8438-54.1121 49.9374-54.8111 50.9133-55.1503C53.5296-56.1263 55.6614-54.9981 56.7203-52.1881L60.2998-42.3287C60.8746-40.7709 62.2944-40.3068 63.541-40.7639C64.7253-41.1933 65.5079-42.5092 64.9332-44.0048L61.7626-52.7758C62.5723-53.5025 63.6659-54.2362 64.6418-54.5754C67.2581-55.5166 69.4245-54.3884 70.4488-51.5785L72.8859-44.9042C73.426-43.4086 74.8458-42.8822 76.0924-43.3393C77.2767-43.7687 78.0593-45.0846 77.5192-46.6148L75.4565-52.1801C80.1906-53.9104 84.3575-50.47 87.2716-42.5583L90.2692-34.2855C97.0741-15.5806 90.3186-1.76943 74.534 3.99751Z"/>
  </g>
  <g id="Thin-M" transform="matrix(1 0 0 1 805.347 1126)">
   <path d="M29.2766-91.1407C17.9115-91.1407 8.72266-81.9518 8.72266-70.649C8.72266-65.8508 10.3381-61.3498 13.2859-57.7429C13.7056-57.1746 14.2738-56.9396 14.7798-56.9396C16.0124-56.9396 17.0987-58.4072 16.0124-59.6519C13.4842-62.6162 12.0272-66.5152 12.0272-70.649C12.0272-80.1772 19.7244-87.7859 29.2766-87.7859C38.7544-87.7859 46.3631-80.1269 46.3631-70.649C46.3631-70.3375 46.3631-70.1769 46.3631-69.9179C46.3631-68.7956 47.2024-68.2776 47.9794-68.2776C48.9695-68.2776 49.6699-69.0088 49.6939-69.8841C49.7059-70.0688 49.7059-70.3037 49.7059-70.649C49.7059-81.9518 40.5291-91.1407 29.2766-91.1407ZM72.652 7.57805C89.4451 1.49542 98.2991-13.5892 90.7002-34.5048L87.6037-42.9986C83.7408-53.4898 77.5095-57.6117 69.6921-54.8605C67.6766-57.662 64.3647-58.7594 60.715-57.439C59.282-56.9286 57.9473-56.0923 56.675-55.0692C54.6617-57.9307 51.2274-59.0642 47.5176-57.7198C46.2693-57.2454 44.9827-56.4955 43.7966-55.5707L37.7726-72.1211C36.0326-76.9577 31.6562-78.7315 27.6221-77.2669C23.4371-75.7018 21.285-71.6152 23.025-66.7666L38.4562-24.4529C38.5186-24.2037 38.4562-23.9545 38.2693-23.8921C38.0824-23.8298 37.8452-23.8921 37.6703-24.1294L27.8676-35.1368C25.2028-38.0389 22.1281-38.7843 19.3551-37.84C15.5492-36.4595 13.2507-32.6897 14.8301-28.5122C15.2159-27.4695 15.9231-26.2039 16.7165-25.2115L34.137-4.02422C44.6703 8.78586 58.0284 12.9175 72.652 7.57805ZM71.592 4.56327C58.6184 9.2744 46.2273 5.52041 36.6646-6.09611L19.2824-27.3217C18.6834-28.0333 18.2712-28.6826 17.9214-29.6435C17.1595-31.7303 18.2232-34.0543 20.5209-34.8785C22.318-35.5398 24.1436-34.8282 25.8183-32.9906L36.856-20.8104C38.0571-19.4968 39.3107-19.2596 40.6409-19.7317C42.1437-20.2782 42.9919-21.7548 42.3449-23.4828L26.1208-68.009C25.0955-70.848 26.0563-73.3852 28.7061-74.31C31.2936-75.2851 33.5673-73.9219 34.5927-71.0829L45.9832-39.8614C46.3548-38.8593 47.2039-38.2122 48.194-38.5958C49.2344-38.9674 49.4266-39.9815 49.055-40.9717L44.8206-52.6039C45.8339-53.4784 47.1085-54.2906 48.2203-54.6525C51.2439-55.7642 53.6925-54.4775 54.9551-51.1019L58.1499-42.3514C58.6341-40.9972 59.5334-40.7142 60.3727-41.0354C61.1497-41.3064 61.7059-42.1697 61.2217-43.4616L58.0059-52.3232C59.0193-53.1857 60.2939-54.0099 61.4056-54.3717C64.4292-55.4714 66.8899-54.1848 68.1405-50.8091L70.3287-44.791C70.8008-43.4991 71.7002-43.1538 72.5394-43.4751C73.3164-43.7461 73.8726-44.6094 73.4005-45.9133L71.1793-51.9538C76.7281-53.9783 81.3476-50.4247 84.5559-41.6984L87.5083-33.5387C94.4263-14.517 86.8335-0.977358 71.592 4.56327Z"/>
  </g>
  <g id="Ultralight-M" transform="matrix(1 0 0 1 509.824 1126)">
   <path d="M28.1407-89.344C17.4015-89.344 8.72266-80.6652 8.72266-69.9883C8.72266-65.4915 10.2222-61.2455 13.0309-57.8124C13.3462-57.3717 13.787-57.1831 14.1655-57.1831C15.0504-57.1831 15.87-58.2565 15.0504-59.1419C12.5569-62.0714 11.1231-65.9356 11.1231-69.9883C11.1231-79.4006 18.7276-86.8818 28.1407-86.8818C37.491-86.8818 44.9722-79.3387 44.9722-69.9883C44.9722-69.6768 44.9722-69.5509 44.9722-69.3615C44.9722-68.5406 45.6028-68.1617 46.1711-68.1617C46.9874-68.1617 47.4328-68.7886 47.4336-69.4204C47.434-69.5472 47.434-69.7358 47.434-69.9883C47.434-80.6652 38.7556-89.344 28.1407-89.344ZM70.8438 6.88257C86.8834 1.07814 95.9113-13.2183 88.3703-33.9716L85.4361-42.0249C81.5732-52.4929 75.6433-56.5453 68.0346-53.8636C66.1002-56.6071 62.8578-57.7278 59.2429-56.419C57.8099-55.9201 56.4405-55.0491 55.1333-53.9912C53.2591-56.7368 49.9523-57.8587 46.3353-56.549C45.029-56.0515 43.6613-55.2436 42.4173-54.2492L36.2542-71.1822C34.63-75.7406 30.5087-77.3058 26.8803-75.9919C23.0662-74.5543 21.0068-70.8038 22.6309-66.245L38.5026-22.7374C38.5649-22.4882 38.5026-22.2389 38.3157-22.1766C38.1288-22.1143 37.88-22.1766 37.6935-22.4254L26.7085-34.8355C24.09-37.7027 21.0964-38.3902 18.4742-37.5154C14.8538-36.2045 12.7291-32.5853 14.2274-28.6513C14.6016-27.7129 15.2276-26.5864 15.9167-25.7099L33.6618-4.10535C43.6503 8.0672 56.6838 12.0598 70.8438 6.88257ZM70.0852 4.85305C57.0652 9.58737 44.5466 5.42768 35.4939-5.62087L17.8103-27.2869C17.1881-28.0333 16.7528-28.7174 16.3798-29.713C15.5715-31.9505 16.7511-34.4368 19.1764-35.3074C21.043-35.9919 23.0308-35.2455 24.833-33.2572L35.8012-20.9264C36.8052-19.7981 37.9313-19.5493 39.1804-19.9867C40.5557-20.4869 41.4271-21.8011 40.8032-23.4249L24.9038-67.0701C23.7856-70.1757 24.7813-72.9099 27.6397-73.9043C30.4358-74.9605 32.8602-73.4698 33.9784-70.3643L45.0791-39.931C45.3927-39.1143 45.9636-38.4904 46.7799-38.8044C47.658-39.1181 47.6647-39.9352 47.3511-40.7515L43.1746-52.2214C44.2923-53.1539 45.6596-54.024 46.8409-54.3974C50.0732-55.5787 52.6841-54.2109 54.051-50.5455L57.0488-42.363C57.4866-41.1131 58.1193-40.9228 58.7499-41.1745C59.3182-41.3644 59.7586-41.9959 59.3208-43.1834L56.0818-52.0913C57.1995-53.0234 58.5668-53.894 59.7481-54.2674C62.9803-55.4482 65.5917-54.0804 66.9582-50.415L69.0188-44.7331C69.4562-43.5455 70.089-43.2929 70.7196-43.5446C71.2879-43.7345 71.7282-44.366 71.2908-45.554L68.9885-51.8379C74.9546-54.0131 79.806-50.4015 83.165-41.2579L86.0941-33.1562C93.0701-13.9722 85.0484-0.571663 70.0852 4.85305Z"/>
  </g>
  <g id="Black-S" transform="matrix(1 0 0 1 2881.64 696)">
   <path d="M33.6914-95.5566C18.8965-95.5566 6.83594-83.5938 6.83594-68.8477C6.83594-64.0625 8.44727-57.9102 10.9863-53.9551C12.3047-51.9531 14.1113-51.123 15.8691-51.123C20.1172-51.123 22.8516-55.5176 20.2637-59.4727C18.75-62.0117 17.5293-65.5273 17.5293-68.8477C17.5293-77.6855 24.8047-84.8145 33.6426-84.8145C40.7715-84.8145 47.168-80.0293 49.1699-72.9004C49.2188-72.7539 49.2676-72.5586 49.3164-72.4121C50.0488-70.0684 51.2207-68.1152 54.2969-68.1152C57.8613-68.1152 59.8145-70.459 59.8145-73.4375C59.8145-73.9258 59.7168-75.0488 59.5215-75.6348C56.2988-87.6953 45.5078-95.5566 33.6914-95.5566ZM73.7793 5.76172C94.0918-1.66016 101.318-17.6758 93.7012-38.5254L89.2578-50.8301C85.7422-60.4492 78.1738-64.8926 69.6777-62.3535C67.0898-64.6973 63.2324-65.2832 59.5215-63.9648C58.8379-63.7207 58.1543-63.4277 57.5684-63.0371C54.7363-65.5762 51.3672-66.3574 47.8516-65.0391C47.8027-65.0391 47.7539-65.0391 47.7051-64.9902L45.752-70.3613C43.2617-77.1973 37.1094-80.2246 30.5664-77.832C23.6816-75.3418 20.752-68.9941 23.2422-62.1582L30.957-40.8691C31.0547-40.625 31.0059-40.4297 30.9082-40.3809C30.8105-40.332 30.7129-40.3809 30.6152-40.4297L30.3711-40.5762C27.832-41.9922 24.8535-42.1875 21.875-41.1133C15.918-38.9648 13.2812-33.3496 15.4297-27.4414C16.1133-25.6348 17.0898-23.877 18.3105-22.5098L32.1289-6.10352C43.5059 7.37305 58.1543 11.5234 73.7793 5.76172ZM69.7754-6.10352C58.9844-2.19727 50-5.37109 41.5527-14.3555L27.1484-29.7852C27.002-29.9805 26.9043-30.0781 26.8066-30.2734C26.6602-30.7129 26.8066-31.1523 27.3926-31.3965C27.6855-31.4941 28.0273-31.3965 28.2715-31.1523L38.6719-21.9238C40.4297-20.3125 42.5781-20.1172 44.3848-20.752C46.875-21.6797 48.6328-24.3652 47.4121-27.6855L33.3008-66.5039C33.1055-67.0898 33.3496-67.627 33.8867-67.8223C34.4238-68.0176 35.0586-67.7734 35.2539-67.2363L44.4824-41.8457C45.3613-39.502 47.9492-38.2812 50.293-39.1602C52.6367-39.9902 53.8574-42.627 53.0273-44.9707L50-53.3203C50.293-53.418 50.6348-53.5645 50.9277-53.6621C51.4648-53.8574 52.0996-53.6133 52.2949-53.0762L55.6152-43.9453C56.4453-41.6504 58.9844-40.4785 61.2793-41.3086C63.5742-42.1387 64.7461-44.6289 63.8672-46.9238L61.9141-52.2949C62.2559-52.4414 62.5977-52.5391 62.8906-52.6367C63.3789-52.832 64.0625-52.6367 64.2578-52.0508L66.4062-46.1914C67.2852-43.7988 69.873-42.5781 72.2656-43.457C74.6094-44.2871 75.8301-46.9238 75-49.3164L74.5117-50.5371C76.0254-51.123 76.9531-50.6348 77.6367-48.6816L82.5195-35.3027C87.5-21.582 82.8613-10.8887 69.7754-6.10352Z"/>
  </g>
  <g id="Heavy-S" transform="matrix(1 0 0 1 2586.75 696)">
   <path d="M32.0665-93.1019C18.1589-93.1019 6.83594-81.8536 6.83594-67.9948C6.83594-63.2097 8.45879-57.4722 11.0555-53.6439C12.224-51.907 13.8117-51.1922 15.3505-51.1922C19.103-51.1922 21.6069-55.1373 19.2149-58.6775C17.563-61.1935 16.3423-64.6284 16.3423-67.9948C16.3423-76.6022 23.3987-83.5583 32.0292-83.5583C39.3309-83.5583 45.7274-78.3928 47.2569-71.091C47.2942-70.9215 47.3315-70.7147 47.3688-70.499C47.9283-68.259 49.1463-66.5594 51.8076-66.5594C54.8534-66.5594 56.6798-68.569 56.7028-71.2018C56.7144-71.6555 56.6398-72.5941 56.4905-73.1801C54.0285-84.9871 43.6869-93.1019 32.0665-93.1019ZM71.2554 4.56317C90.4846-2.45534 97.5038-18.1137 90.2323-38.0414L86.1347-49.3665C82.7343-58.6745 75.5578-62.8873 67.4535-60.3828C65.0385-62.7381 61.4231-63.3701 57.885-62.1094C57.0977-61.8192 56.3565-61.4686 55.7014-61.0088C53.0538-63.5709 49.7422-64.3867 46.2958-63.103C46.0741-63.0338 45.8639-62.9416 45.6537-62.7891L43.1589-69.6468C40.8416-75.9872 35.1272-78.7956 29.0567-76.5759C22.7251-74.2815 20.0144-68.4064 22.3318-62.0545L30.7265-38.9215C30.8127-38.6889 30.7638-38.4936 30.6547-38.4447C30.5455-38.3959 30.4363-38.4447 30.3386-38.5166L29.2878-39.539C26.8179-41.1855 23.9085-41.5191 20.9991-40.4679C15.5953-38.5154 13.0162-33.4072 15.0148-27.9254C15.6177-26.2686 16.5597-24.5799 17.7228-23.2589L31.2415-7.14072C42.3188 6.03621 56.2412 10.0829 71.2554 4.56317ZM67.7586-5.84998C57.152-2.01287 48.0985-4.80639 39.4668-14.2748L25.4889-29.6353C25.2848-29.8883 25.1526-30.0551 25.0319-30.3541C24.8162-30.9549 25.0319-31.5903 25.8022-31.892C26.3026-32.0704 26.7712-31.892 27.1651-31.4866L37.2083-22.3041C38.9315-20.6813 40.9071-20.4975 42.5985-21.0977C44.8813-21.9448 46.3625-24.3998 45.2916-27.3398L31.2494-65.9392C30.985-66.698 31.3213-67.4195 32.0543-67.684C32.7758-67.9484 33.5604-67.6121 33.8249-66.8906L43.2147-41.0851C44.0014-38.9603 46.3588-37.8894 48.4721-38.6877C50.5854-39.4371 51.7023-41.7972 50.9529-43.9105L47.8104-52.5712C48.1379-52.7611 48.5604-52.9767 48.934-53.1089C49.7362-53.408 50.5438-53.0486 50.8428-52.2464L54.1286-43.1962C54.8895-41.1087 57.2096-40.0867 59.2856-40.8361C61.35-41.5855 62.4412-43.8337 61.643-45.9097L59.5746-51.615C59.9394-51.8306 60.3619-52.0205 60.7355-52.1527C61.5004-52.4402 62.3569-52.1181 62.6444-51.2786L64.7928-45.4193C65.5795-43.2687 67.9369-42.1978 70.0875-42.9845C72.1892-43.7339 73.3177-46.0941 72.5683-48.2562L71.8496-50.1107C73.6974-50.8119 75.0746-49.8281 76.0694-47.0567L80.3645-35.2797C85.4025-21.4092 80.7984-10.6236 67.7586-5.84998Z"/>
  </g>
  <g id="Bold-S" transform="matrix(1 0 0 1 2292.07 696)">
   <path d="M30.249-90.3564C17.334-90.3564 6.83594-79.9072 6.83594-67.041C6.83594-62.2559 8.47168-56.9824 11.1328-53.2959C12.1338-51.8555 13.4766-51.2695 14.7705-51.2695C17.9688-51.2695 20.2148-54.7119 18.042-57.7881C16.2354-60.2783 15.0146-63.623 15.0146-67.041C15.0146-75.3906 21.8262-82.1533 30.2246-82.1533C37.7197-82.1533 44.1162-76.5625 45.1172-69.0674C45.1416-68.8721 45.166-68.6523 45.1904-68.3594C45.5566-66.2354 46.8262-64.8193 49.0234-64.8193C51.4893-64.8193 53.1738-66.4551 53.2227-68.7012C53.2471-69.1162 53.1982-69.8486 53.1006-70.4346C51.4893-81.958 41.6504-90.3564 30.249-90.3564ZM68.4326 3.22266C86.4502-3.34473 93.2373-18.6035 86.3525-37.5L82.6416-47.7295C79.3701-56.6895 72.6318-60.6445 64.9658-58.1787C62.7441-60.5469 59.3994-61.2305 56.0547-60.0342C55.1514-59.6924 54.3457-59.2773 53.6133-58.7402C51.1719-61.3281 47.9248-62.1826 44.5557-60.9375C44.1406-60.791 43.75-60.5957 43.3594-60.3271L40.2588-68.8477C38.1348-74.6338 32.9102-77.1973 27.3682-75.1709C21.6553-73.0957 19.1895-67.749 21.3135-61.9385L30.4688-36.7432C30.542-36.5234 30.4932-36.3281 30.3711-36.2793C30.249-36.2305 30.127-36.2793 30.0293-36.377L28.0762-38.3789C25.6836-40.2832 22.8516-40.7715 20.0195-39.7461C15.2344-38.0127 12.7197-33.4717 14.5508-28.4668C15.0635-26.9775 15.9668-25.3662 17.0654-24.0967L30.249-8.30078C40.9912 4.54102 54.1016 8.47168 68.4326 3.22266ZM65.5029-5.56641C55.1025-1.80664 45.9717-4.1748 37.1338-14.1846L23.6328-29.4678C23.3643-29.7852 23.1934-30.0293 23.0469-30.4443C22.7539-31.2256 23.0469-32.0801 24.0234-32.4463C24.7559-32.7148 25.3662-32.4463 25.9277-31.8604L35.5713-22.7295C37.2559-21.0938 39.0381-20.9229 40.6006-21.4844C42.6514-22.2412 43.8232-24.4385 42.9199-26.9531L28.9551-65.3076C28.6133-66.2598 29.0527-67.1875 30.0049-67.5293C30.9326-67.8711 31.8848-67.4316 32.2266-66.5039L41.7969-40.2344C42.4805-38.3545 44.5801-37.4512 46.4355-38.1592C48.291-38.8184 49.292-40.8691 48.6328-42.7246L45.3613-51.7334C45.7275-52.0264 46.2402-52.3193 46.7041-52.4902C47.8027-52.9053 48.8037-52.417 49.2188-51.3184L52.4658-42.3584C53.1494-40.5029 55.2246-39.6484 57.0557-40.3076C58.8623-40.9668 59.8633-42.9443 59.1553-44.7754L56.958-50.8545C57.3486-51.1475 57.8613-51.4404 58.3252-51.6113C59.3994-52.002 60.4492-51.5381 60.8398-50.415L62.9883-44.5557C63.6719-42.6758 65.7715-41.7725 67.6514-42.4561C69.4824-43.1152 70.5078-45.166 69.8486-47.0703L68.8721-49.6338C71.0938-50.4639 72.9736-48.9258 74.3164-45.2393L77.9541-35.2539C83.0566-21.2158 78.4912-10.3271 65.5029-5.56641Z"/>
  </g>
  <g id="Semibold-S" transform="matrix(1 0 0 1 1996.75 696)">
   <path d="M28.996-88.4636C16.7652-88.4636 6.83594-78.5653 6.83594-66.3834C6.83594-61.5982 8.48057-56.6447 11.1861-53.056C12.0716-51.8199 13.2455-51.3229 14.3706-51.3229C17.1867-51.3229 19.2551-54.4187 17.2333-57.1749C15.32-59.6474 14.0993-62.9299 14.0993-66.3834C14.0993-74.5553 20.742-81.1847 28.9805-81.1847C36.6089-81.1847 43.0054-75.3006 43.642-67.6722C43.6575-67.4591 43.673-67.2305 43.6886-66.8842C43.9215-64.8401 45.2266-63.6196 47.1039-63.6196C49.1698-63.6196 50.7566-64.9977 50.8232-66.9771C50.8565-67.3655 50.8255-67.9558 50.7634-68.5417C49.7386-79.8696 40.2463-88.4636 28.996-88.4636ZM66.4864 2.29844C83.6687-3.95791 90.2958-18.9412 83.6776-37.1268L80.2333-46.6009C77.0507-55.3209 70.6146-59.0982 63.2507-56.6591C61.1623-59.0361 58.0042-59.7553 54.7928-58.6034C53.8095-58.2261 52.9594-57.7666 52.1736-57.1762C49.8744-59.7818 46.6718-60.663 43.356-59.4445C42.8076-59.2447 42.2926-58.9783 41.7775-58.6298L38.2593-68.2967C36.2686-73.7007 31.3816-76.0953 26.204-74.2022C20.9177-72.2781 18.6207-67.2958 20.6114-61.8585L30.291-35.2413C30.3554-35.0305 30.3065-34.8352 30.1756-34.7863C30.0446-34.7375 29.9137-34.7863 29.816-34.9018L27.2408-37.5791C24.9016-39.6611 22.1229-40.2561 19.3441-39.2484C14.9855-37.6661 12.5153-33.5161 14.2309-28.84C14.6813-27.4663 15.558-25.9083 16.6122-24.6743L29.5647-9.10059C40.0759 3.51016 52.6264 7.36084 66.4864 2.29844ZM63.9478-5.3709C53.6896-1.66445 44.5054-3.73936 35.5253-14.1224L22.3531-29.3522C22.0401-29.7141 21.8426-30.0115 21.6783-30.5065C21.332-31.4122 21.6783-32.4178 22.7971-32.8284C23.6895-33.1592 24.3976-32.8284 25.0746-32.1181L34.4427-23.0228C36.1006-21.3781 37.7495-21.2161 39.2231-21.751C41.114-22.4456 42.0726-24.4651 41.2848-26.6865L27.3732-64.8722C26.9781-65.9576 27.4887-67.0275 28.5919-67.4227C29.6618-67.8178 30.7295-67.3072 31.1246-66.2373L40.8193-39.6479C41.4318-37.9368 43.3537-37.149 45.0314-37.7948C46.7092-38.3918 47.6302-40.2293 47.0332-41.907L43.6729-51.1558C44.0657-51.5198 44.6406-51.8661 45.1667-52.0637C46.4697-52.5587 47.604-51.9815 48.099-50.6785L51.3194-41.7808C51.9497-40.0853 53.8561-39.3463 55.5183-39.9433C57.1472-40.5402 58.0859-42.3312 57.4401-43.9934L55.154-50.3302C55.5624-50.6765 56.1373-51.0405 56.6634-51.2381C57.9509-51.6998 59.134-51.1382 59.5957-49.8196L61.7441-43.9603C62.3566-42.267 64.2785-41.4792 65.9718-42.0917C67.6162-42.6887 68.5705-44.5262 67.9735-46.2527L66.8192-49.305C69.2986-50.2239 71.5251-48.3037 73.1078-43.9862L76.2923-35.2361C81.4393-21.0825 76.9005-10.1228 63.9478-5.3709Z"/>
  </g>
  <g id="Medium-S" transform="matrix(1 0 0 1 1701.1 696)">
   <path d="M28.0459-87.0283C16.334-87.0283 6.83594-77.5479 6.83594-65.8848C6.83594-61.0996 8.4873-56.3887 11.2266-52.874C12.0244-51.793 13.0703-51.3633 14.0674-51.3633C16.5938-51.3633 18.5273-54.1963 16.6201-56.71C14.626-59.1689 13.4053-62.4043 13.4053-65.8848C13.4053-73.9219 19.9199-80.4502 28.0371-80.4502C35.7666-80.4502 42.1631-74.3438 42.5234-66.6143C42.5322-66.3877 42.541-66.1523 42.5498-65.7656C42.6816-63.7822 44.0137-62.71 45.6484-62.71C47.4111-62.71 48.9238-63.8926 49.0039-65.6699C49.0439-66.0381 49.0264-66.5205 48.9912-67.1064C48.4111-78.2861 39.1816-87.0283 28.0459-87.0283ZM65.0107 1.59766C81.5596-4.42285 88.0654-19.1973 81.6494-36.8438L78.4072-45.7451C75.292-54.2832 69.085-57.9258 61.9502-55.5068C59.9629-57.8906 56.9463-58.6367 53.8359-57.5186C52.792-57.1143 51.9082-56.6211 51.082-55.9902C48.8906-58.6094 45.7217-59.5107 42.4463-58.3125C41.7969-58.0723 41.1875-57.752 40.5781-57.3428L36.7432-67.8789C34.8535-72.9932 30.2227-75.2598 25.3213-73.4678C20.3584-71.6582 18.1895-66.9521 20.0791-61.7979L30.1562-34.1025C30.2139-33.8984 30.165-33.7031 30.0273-33.6543C29.8896-33.6055 29.752-33.6543 29.6543-33.7832L26.6074-36.9727C24.3086-39.1895 21.5703-39.8652 18.832-38.8711C14.7969-37.4033 12.3604-33.5498 13.9883-29.123C14.3916-27.8369 15.248-26.3193 16.2686-25.1123L29.0459-9.70703C39.3818 2.72852 51.5078 6.51855 65.0107 1.59766ZM62.7686-5.22266C52.6182-1.55664 43.3936-3.40918 34.3057-14.0752L21.3828-29.2646C21.0361-29.6602 20.8184-29.998 20.6406-30.5537C20.2539-31.5537 20.6406-32.6738 21.8672-33.1182C22.8809-33.4961 23.6631-33.1182 24.4277-32.3135L33.5869-23.2451C35.2246-21.5938 36.7725-21.4385 38.1787-21.9531C39.9482-22.6006 40.7451-24.4854 40.0449-26.4844L26.1738-64.542C25.7383-65.7285 26.3027-66.9062 27.5205-67.3418C28.6982-67.7773 29.8535-67.2129 30.2891-66.0352L40.0781-39.2031C40.6367-37.6201 42.4238-36.9199 43.9668-37.5186C45.5098-38.0684 46.3701-39.7441 45.8203-41.2871L42.3926-50.7178C42.8057-51.1357 43.4277-51.5225 44.001-51.7402C45.459-52.2959 46.6943-51.6514 47.25-50.1934L50.4502-41.3428C51.04-39.7686 52.8184-39.1172 54.3525-39.667C55.8467-40.2168 56.7383-41.8662 56.1396-43.4004L53.7861-49.9326C54.208-50.3193 54.8301-50.7373 55.4033-50.9551C56.8525-51.4707 58.1367-50.835 58.6523-49.3682L60.8008-43.5088C61.3594-41.957 63.1465-41.2568 64.6982-41.8154C66.2012-42.3652 67.1016-44.041 66.5518-45.6328L65.2627-49.0557C67.9375-50.042 70.4268-47.832 72.1914-43.0361L75.0322-35.2227C80.2129-20.9814 75.6943-9.96777 62.7686-5.22266Z"/>
  </g>
  <g id="Regular-S" transform="matrix(1 0 0 1 1405.78 696)">
   <path d="M26.8066-85.1562C15.7715-85.1562 6.83594-76.2207 6.83594-65.2344C6.83594-60.4492 8.49609-56.0547 11.2793-52.6367C11.9629-51.7578 12.8418-51.416 13.6719-51.416C15.8203-51.416 17.5781-53.9062 15.8203-56.1035C13.7207-58.5449 12.5-61.7188 12.5-65.2344C12.5-73.0957 18.8477-79.4922 26.8066-79.4922C34.668-79.4922 41.0645-73.0957 41.0645-65.2344C41.0645-64.9902 41.0645-64.7461 41.0645-64.3066C41.0645-62.4023 42.4316-61.5234 43.75-61.5234C45.1172-61.5234 46.5332-62.4512 46.6309-63.9648C46.6797-64.3066 46.6797-64.6484 46.6797-65.2344C46.6797-76.2207 37.793-85.1562 26.8066-85.1562ZM63.0859 0.683594C78.8086-5.0293 85.1562-19.5312 79.0039-36.4746L76.0254-44.6289C72.998-52.9297 67.0898-56.3965 60.2539-54.0039C58.3984-56.3965 55.5664-57.1777 52.5879-56.1035C51.4648-55.6641 50.5371-55.127 49.6582-54.4434C47.6074-57.0801 44.4824-58.0078 41.2598-56.8359C40.4785-56.543 39.7461-56.1523 39.0137-55.6641L34.7656-67.334C33.0078-72.0703 28.7109-74.1699 24.1699-72.5098C19.6289-70.8496 17.627-66.5039 19.3848-61.7188L29.9805-32.6172C30.0293-32.4219 29.9805-32.2266 29.834-32.1777C29.6875-32.1289 29.541-32.1777 29.4434-32.3242L25.7812-36.1816C23.5352-38.5742 20.8496-39.3555 18.1641-38.3789C14.5508-37.0605 12.1582-33.5938 13.6719-29.4922C14.0137-28.3203 14.8438-26.8555 15.8203-25.6836L28.3691-10.498C38.4766 1.70898 50.0488 5.41992 63.0859 0.683594ZM61.2305-5.0293C51.2207-1.41602 41.9434-2.97852 32.7148-14.0137L20.1172-29.1504C19.7266-29.5898 19.4824-29.9805 19.2871-30.6152C18.8477-31.7383 19.2871-33.0078 20.6543-33.4961C21.8262-33.9355 22.7051-33.4961 23.584-32.5684L32.4707-23.5352C34.082-21.875 35.498-21.7285 36.8164-22.2168C38.4277-22.8027 39.0137-24.5117 38.4277-26.2207L24.6094-64.1113C24.1211-65.4297 24.7559-66.748 26.123-67.2363C27.4414-67.7246 28.7109-67.0898 29.1992-65.7715L39.1113-38.623C39.5996-37.207 41.2109-36.6211 42.5781-37.1582C43.9453-37.6465 44.7266-39.1113 44.2383-40.4785L40.7227-50.1465C41.1621-50.6348 41.8457-51.0742 42.4805-51.3184C44.1406-51.9531 45.5078-51.2207 46.1426-49.5605L49.3164-40.7715C49.8535-39.3555 51.4648-38.8184 52.832-39.3066C54.1504-39.7949 54.9805-41.2598 54.4434-42.627L52.002-49.4141C52.4414-49.8535 53.125-50.3418 53.7598-50.5859C55.4199-51.1719 56.8359-50.4395 57.4219-48.7793L59.5703-42.9199C60.0586-41.5527 61.6699-40.9668 63.0371-41.4551C64.3555-41.9434 65.1855-43.4082 64.6973-44.8242L63.2324-48.7305C66.1621-49.8047 68.9941-47.2168 70.9961-41.7969L73.3887-35.2051C78.6133-20.8496 74.1211-9.76562 61.2305-5.0293Z"/>
  </g>
  <g id="Light-S" transform="matrix(1 0 0 1 1110.62 696)">
   <path d="M25.3233-82.8101C15.1055-82.8101 6.83594-74.5405 6.83594-64.3716C6.83594-59.98 8.34473-55.9185 10.9463-52.7275C11.4937-52.0151 12.2061-51.7339 12.8696-51.7339C14.564-51.7339 15.9736-53.7095 14.564-55.4375C12.5098-57.8335 11.3193-60.9619 11.3193-64.3716C11.3193-72.0816 17.5459-78.3115 25.3233-78.3115C33.0181-78.3115 39.2481-72.0664 39.2481-64.3716C39.2481-64.1274 39.2481-63.9287 39.2481-63.5801C39.2481-62.0693 40.3428-61.3721 41.3887-61.3721C42.5288-61.3721 43.6118-62.1636 43.6792-63.3594C43.7129-63.6255 43.7129-63.9067 43.7129-64.3716C43.7129-74.5405 35.4771-82.8101 25.3233-82.8101ZM60.7246-0.224602C75.4634-5.57421 82.0381-19.0469 75.9614-35.7783L73.1948-43.3574C70.1675-51.6279 64.6529-55.0039 58.0894-52.7022C56.3399-55.0191 53.5986-55.8306 50.6655-54.7715C49.5425-54.3472 48.5694-53.7647 47.645-53.0357C45.7759-55.521 42.8174-56.4336 39.7158-55.3071C38.8589-54.9839 38.0205-54.5176 37.2124-53.9385L32.7827-66.1079C31.1763-70.481 27.2124-72.3081 23.2012-70.8447C19.1445-69.3511 17.2637-65.4443 18.8701-61.0376L30.041-30.377C30.0898-30.1817 30.041-29.9863 29.8945-29.9375C29.748-29.8887 29.5864-29.9375 29.4736-30.0991L24.2676-35.7881C22.082-38.1353 19.5025-38.8408 17.0137-37.9551C13.6426-36.7275 11.4771-33.4575 12.8848-29.6738C13.2114-28.6382 13.9356-27.355 14.7759-26.3345L27.7485-10.604C37.1445 0.770515 48.293 4.29981 60.7246-0.224602ZM59.2627-4.65088C49.1924-1.00733 39.7486-3.09961 31.186-13.3931L18.1948-29.105C17.7739-29.5898 17.4995-30.0259 17.2739-30.7061C16.7739-32.0259 17.3648-33.5073 18.8985-34.0561C20.1611-34.5259 21.252-34.041 22.2974-32.9165L31.0933-23.6865C32.4473-22.2686 33.6968-22.1069 34.9092-22.5498C36.354-23.0752 36.9702-24.5723 36.4146-26.145L23.02-62.8853C22.4107-64.5518 23.0908-66.1274 24.7305-66.7065C26.3213-67.3008 27.7876-66.4995 28.397-64.833L37.9307-38.7139C38.3433-37.54 39.5913-36.9844 40.7315-37.4307C41.8867-37.8433 42.4258-39.0508 42.0132-40.1909L38.5733-49.647C39.1489-50.2109 39.9536-50.7261 40.6792-50.9854C42.6118-51.7109 44.1909-50.8726 44.9619-48.834L47.8784-40.7866C48.355-39.5068 49.6182-39.0908 50.7129-39.4883C51.7588-39.8706 52.4375-41.0327 51.961-42.2637L49.4893-49.1113C50.065-49.6416 50.8696-50.1904 51.5952-50.4497C53.5278-51.1416 55.1406-50.3032 55.8779-48.2647L57.8599-42.8442C58.3027-41.6133 59.5659-41.1484 60.6607-41.5459C61.7066-41.9282 62.3853-43.0903 61.9424-44.355L60.3716-48.5791C63.8462-49.8501 66.981-47.1865 69.1797-41.2217L71.542-34.7056C76.8423-20.1382 71.7901-9.23584 59.2627-4.65088Z"/>
  </g>
  <g id="Thin-S" transform="matrix(1 0 0 1 815.958 696)">
   <path d="M23.3614-79.7071C14.2246-79.7071 6.83594-72.3184 6.83594-63.2305C6.83594-59.3594 8.14453-55.7383 10.5059-52.8477C10.8731-52.3555 11.3652-52.1543 11.8086-52.1543C12.9024-52.1543 13.8516-53.4492 12.9024-54.5567C10.9082-56.8926 9.75783-59.961 9.75783-63.2305C9.75783-70.7403 15.8242-76.75 23.3614-76.75C30.836-76.75 36.8457-70.7051 36.8457-63.2305C36.8457-62.9863 36.8457-62.8477 36.8457-62.6192C36.8457-61.6289 37.5801-61.1719 38.2657-61.1719C39.1055-61.1719 39.7481-61.7832 39.7754-62.5586C39.7891-62.7246 39.7891-62.9258 39.7891-63.2305C39.7891-72.3184 32.4141-79.7071 23.3614-79.7071ZM57.6016-1.42576C71.0391-6.29491 77.9141-18.4063 71.9376-34.8574L69.4512-41.6758C66.4239-49.9063 61.4297-53.1621 55.2266-50.9805C53.6172-53.1973 50.9961-54.0489 48.1231-53.0098C47-52.6055 45.9668-51.9629 44.9825-51.1739C43.3535-53.459 40.6153-54.3516 37.6739-53.2852C36.7168-52.9219 35.7383-52.3555 34.8301-51.6563L30.1602-64.4864C28.7539-68.3789 25.2305-69.8457 21.9199-68.6426C18.5039-67.3692 16.7832-64.043 18.1895-60.1367L30.1211-27.4141C30.1699-27.2188 30.1211-27.0235 29.9746-26.9747C29.8281-26.9258 29.6465-26.9747 29.5137-27.1563L22.2657-35.2676C20.1602-37.5547 17.7207-38.1602 15.4922-37.3945C12.4414-36.2871 10.5762-33.2773 11.8438-29.9141C12.1504-29.0586 12.7344-28.0156 13.3946-27.1953L26.9277-10.7441C35.3828-0.470686 45.9707 2.81838 57.6016-1.42576ZM56.6602-4.1504C46.5098-0.466804 36.8457-3.25976 29.1641-12.5723L15.6524-29.0449C15.1914-29.5898 14.877-30.0859 14.6114-30.8262C14.0313-32.4062 14.8223-34.168 16.5762-34.7969C17.959-35.3066 19.3301-34.7617 20.5957-33.3769L29.2715-23.8867C30.2852-22.7891 31.3145-22.6074 32.3868-22.9902C33.6114-23.4355 34.2676-24.6523 33.752-26.0449L20.918-61.2637C20.1485-63.3906 20.8887-65.3067 22.8887-66.0059C24.8399-66.7402 26.5664-65.7188 27.336-63.5918L36.3692-38.834C36.6817-37.9805 37.4492-37.4648 38.2891-37.791C39.1641-38.1035 39.3829-38.9707 39.0704-39.8106L35.7305-48.9863C36.4864-49.6504 37.4512-50.2656 38.2969-50.5449C40.5899-51.3906 42.4492-50.4121 43.4004-47.8731L45.9766-40.8066C46.3731-39.707 47.1758-39.4512 47.9102-39.7285C48.5957-39.9707 49.0743-40.7324 48.6778-41.7832L46.1661-48.7109C46.9219-49.3613 47.8868-49.9902 48.7325-50.2695C51.0254-51.1016 52.8985-50.123 53.836-47.584L55.5977-42.7441C55.9805-41.6934 56.7832-41.3887 57.5176-41.666C58.2032-41.9082 58.6817-42.6699 58.2989-43.7344L56.5879-48.3789C60.7832-49.9102 64.3184-47.1465 66.7774-40.4609L69.0996-34.0449C74.5-19.1973 68.7071-8.53517 56.6602-4.1504Z"/>
  </g>
  <g id="Ultralight-S" transform="matrix(1 0 0 1 520.298 696)">
   <path d="M22.3565-78.1177C13.7735-78.1177 6.83594-71.1802 6.83594-62.646C6.83594-59.0415 8.042-55.646 10.2803-52.9092C10.5552-52.5298 10.9346-52.3696 11.2652-52.3696C12.0513-52.3696 12.7647-53.3159 12.0513-54.1055C10.0879-56.4107 8.95804-59.4483 8.95804-62.646C8.95804-70.0532 14.9424-75.9502 22.3565-75.9502C29.7183-75.9502 35.6153-70.0078 35.6153-62.646C35.6153-62.4019 35.6153-62.294 35.6153-62.127C35.6153-61.4033 36.1651-61.0693 36.6661-61.0693C37.3521-61.0693 37.7691-61.5884 37.7759-62.1485C37.7794-62.2632 37.7794-62.4234 37.7794-62.646C37.7794-71.1802 30.8453-78.1177 22.3565-78.1177ZM56.002-2.04099C68.773-6.66405 75.8018-18.0781 69.8765-34.3858L67.5338-40.8145C64.5064-49.0244 59.7789-52.2188 53.7603-50.0987C52.2227-52.2642 49.6631-53.1363 46.8208-52.1075C45.6978-51.7134 44.6338-51.0401 43.6187-50.2202C42.1128-52.4029 39.4873-53.2852 36.628-52.2495C35.6197-51.8658 34.5694-51.2481 33.6099-50.4873L28.8169-63.6558C27.5132-67.3023 24.2154-68.5845 21.2637-67.5147C18.1758-66.354 16.5371-63.3252 17.8408-59.6753L30.1621-25.8965C30.2109-25.7012 30.1621-25.5059 30.0156-25.4571C29.8691-25.4083 29.6772-25.4571 29.5342-25.649L21.2403-35.001C19.1758-37.2573 16.8081-37.8115 14.7129-37.1074C11.8262-36.0615 10.1148-33.1851 11.3106-30.0371C11.607-29.2739 12.1192-28.354 12.687-27.6362L26.5073-10.8159C34.4805-1.10642 44.7813 2.0596 56.002-2.04099ZM55.3272-3.89405C45.1358-0.189951 35.3589-3.34179 28.1285-12.1519L14.3501-29.0142C13.8687-29.5898 13.5337-30.1167 13.2476-30.8877C12.6265-32.6011 13.5201-34.5063 15.3868-35.1763C16.8311-35.7065 18.3457-35.1308 19.7242-33.6128L28.3384-23.9893C29.1778-23.0557 30.0943-22.8638 31.0948-23.2158C32.2066-23.6201 32.8833-24.6934 32.3882-25.9937L19.8413-60.4331C18.9898-62.7959 19.7608-64.8862 21.9453-65.647C24.0811-66.4531 25.9409-65.3189 26.7925-62.9561L35.5694-38.8955C35.8306-38.206 36.3521-37.7109 37.0381-37.9756C37.7696-38.2368 37.8243-38.9297 37.563-39.6157L34.2745-48.648C35.1226-49.3633 36.1695-50.0298 37.0767-50.3193C39.5542-51.2266 41.5572-50.1763 42.6006-47.3809L45.0025-40.8169C45.3579-39.8096 45.9248-39.6357 46.4747-39.8516C46.9756-40.022 47.3516-40.5786 46.9962-41.5371L44.4639-48.5059C45.3121-49.2178 46.3589-49.8877 47.2662-50.1772C49.7437-51.0811 51.75-50.0308 52.7901-47.2354L54.439-42.6929C54.7911-41.7344 55.358-41.5117 55.9078-41.7275C56.4088-41.8979 56.7847-42.4546 56.4327-43.4165L54.65-48.2764C59.2144-49.9409 62.9546-47.126 65.5469-40.0713L67.8487-33.7066C73.3003-18.7153 67.128-8.17628 55.3272-3.89405Z"/>
  </g>
 </g>
</svg>
