<?xml version="1.0" encoding="UTF-8"?>
<!--Generator: Apple Native CoreSVG 232.5-->
<!DOCTYPE svg
PUBLIC "-//W3C//DTD SVG 1.1//EN"
       "http://www.w3.org/Graphics/SVG/1.1/DTD/svg11.dtd">
<svg version="1.1" xmlns="http://www.w3.org/2000/svg" xmlns:xlink="http://www.w3.org/1999/xlink" width="3300" height="2200">
 <g id="Notes">
  <rect height="2200" id="artboard" style="fill:white;opacity:1" width="3300" x="0" y="0"/>
  <line style="fill:none;stroke:black;opacity:1;stroke-width:0.5;" x1="263" x2="3036" y1="292" y2="292"/>
  <text style="stroke:none;fill:black;font-family:sans-serif;font-size:13;font-weight:bold;" transform="matrix(1 0 0 1 263 322)">Weight/Scale Variations</text>
  <text style="stroke:none;fill:black;font-family:sans-serif;font-size:13;text-anchor:middle;" transform="matrix(1 0 0 1 559.711 322)">Ultralight</text>
  <text style="stroke:none;fill:black;font-family:sans-serif;font-size:13;text-anchor:middle;" transform="matrix(1 0 0 1 856.422 322)">Thin</text>
  <text style="stroke:none;fill:black;font-family:sans-serif;font-size:13;text-anchor:middle;" transform="matrix(1 0 0 1 1153.13 322)">Light</text>
  <text style="stroke:none;fill:black;font-family:sans-serif;font-size:13;text-anchor:middle;" transform="matrix(1 0 0 1 1449.84 322)">Regular</text>
  <text style="stroke:none;fill:black;font-family:sans-serif;font-size:13;text-anchor:middle;" transform="matrix(1 0 0 1 1746.56 322)">Medium</text>
  <text style="stroke:none;fill:black;font-family:sans-serif;font-size:13;text-anchor:middle;" transform="matrix(1 0 0 1 2043.27 322)">Semibold</text>
  <text style="stroke:none;fill:black;font-family:sans-serif;font-size:13;text-anchor:middle;" transform="matrix(1 0 0 1 2339.98 322)">Bold</text>
  <text style="stroke:none;fill:black;font-family:sans-serif;font-size:13;text-anchor:middle;" transform="matrix(1 0 0 1 2636.69 322)">Heavy</text>
  <text style="stroke:none;fill:black;font-family:sans-serif;font-size:13;text-anchor:middle;" transform="matrix(1 0 0 1 2933.4 322)">Black</text>
  <line style="fill:none;stroke:black;opacity:1;stroke-width:0.5;" x1="263" x2="3036" y1="1903" y2="1903"/>
  <g transform="matrix(0.2 0 0 0.2 263 1933)">
   <path d="m46.2402 4.15039c21.5332 0 39.4531-17.8711 39.4531-39.4043s-17.9688-39.4043-39.502-39.4043c-21.4844 0-39.3555 17.8711-39.3555 39.4043s17.9199 39.4043 39.4043 39.4043Zm0-7.42188c-17.7246 0-31.8848-14.209-31.8848-31.9824s14.1113-31.9824 31.8359-31.9824c17.7734 0 32.0312 14.209 32.0312 31.9824s-14.209 31.9824-31.9824 31.9824Zm-17.9688-31.9824c0 2.14844 1.51367 3.61328 3.75977 3.61328h10.498v10.5957c0 2.19727 1.46484 3.71094 3.61328 3.71094 2.24609 0 3.71094-1.51367 3.71094-3.71094v-10.5957h10.5957c2.19727 0 3.71094-1.46484 3.71094-3.61328 0-2.19727-1.51367-3.71094-3.71094-3.71094h-10.5957v-10.5469c0-2.24609-1.46484-3.75977-3.71094-3.75977-2.14844 0-3.61328 1.51367-3.61328 3.75977v10.5469h-10.498c-2.24609 0-3.75977 1.51367-3.75977 3.71094Z"/>
  </g>
  <g transform="matrix(0.2 0 0 0.2 281.506 1933)">
   <path d="m58.5449 14.5508c27.2461 0 49.8047-22.6074 49.8047-49.8047 0-27.2461-22.6074-49.8047-49.8535-49.8047-27.1973 0-49.7559 22.5586-49.7559 49.8047 0 27.1973 22.6074 49.8047 49.8047 49.8047Zm0-8.30078c-23.0469 0-41.4551-18.457-41.4551-41.5039s18.3594-41.5039 41.4062-41.5039 41.5527 18.457 41.5527 41.5039-18.457 41.5039-41.5039 41.5039Zm-22.6562-41.5039c0 2.39258 1.66016 4.00391 4.15039 4.00391h14.3555v14.4043c0 2.44141 1.66016 4.15039 4.05273 4.15039 2.44141 0 4.15039-1.66016 4.15039-4.15039v-14.4043h14.4043c2.44141 0 4.15039-1.61133 4.15039-4.00391 0-2.44141-1.70898-4.15039-4.15039-4.15039h-14.4043v-14.3555c0-2.49023-1.70898-4.19922-4.15039-4.19922-2.39258 0-4.05273 1.70898-4.05273 4.19922v14.3555h-14.3555c-2.49023 0-4.15039 1.70898-4.15039 4.15039Z"/>
  </g>
  <g transform="matrix(0.2 0 0 0.2 304.924 1933)">
   <path d="m74.8535 28.3203c34.8145 0 63.623-28.8086 63.623-63.5742 0-34.8145-28.8574-63.623-63.6719-63.623-34.7656 0-63.5254 28.8086-63.5254 63.623 0 34.7656 28.8086 63.5742 63.5742 63.5742Zm0-9.08203c-30.1758 0-54.4434-24.3164-54.4434-54.4922 0-30.2246 24.2188-54.4922 54.3945-54.4922 30.2246 0 54.541 24.2676 54.541 54.4922 0 30.1758-24.2676 54.4922-54.4922 54.4922Zm-28.8574-54.4922c0 2.58789 1.85547 4.39453 4.58984 4.39453h19.7266v19.7754c0 2.68555 1.85547 4.58984 4.44336 4.58984 2.68555 0 4.54102-1.85547 4.54102-4.58984v-19.7754h19.7754c2.68555 0 4.58984-1.80664 4.58984-4.39453 0-2.73438-1.85547-4.58984-4.58984-4.58984h-19.7754v-19.7266c0-2.73438-1.85547-4.63867-4.54102-4.63867-2.58789 0-4.44336 1.9043-4.44336 4.63867v19.7266h-19.7266c-2.73438 0-4.58984 1.85547-4.58984 4.58984Z"/>
  </g>
  <text style="stroke:none;fill:black;font-family:sans-serif;font-size:13;font-weight:bold;" transform="matrix(1 0 0 1 263 1953)">Design Variations</text>
  <text style="stroke:none;fill:black;font-family:sans-serif;font-size:13;" transform="matrix(1 0 0 1 263 1971)">Symbols are supported in up to nine weights and three scales.</text>
  <text style="stroke:none;fill:black;font-family:sans-serif;font-size:13;" transform="matrix(1 0 0 1 263 1989)">For optimal layout with text and other symbols, vertically align</text>
  <text style="stroke:none;fill:black;font-family:sans-serif;font-size:13;" transform="matrix(1 0 0 1 263 2007)">symbols with the adjacent text.</text>
  <line style="fill:none;stroke:#00AEEF;stroke-width:0.5;opacity:1.0;" x1="776" x2="776" y1="1919" y2="1933"/>
  <g transform="matrix(0.2 0 0 0.2 776 1933)">
   <path d="m16.5527 0.78125c2.58789 0 3.85742-0.976562 4.78516-3.71094l6.29883-17.2363h28.8086l6.29883 17.2363c0.927734 2.73438 2.19727 3.71094 4.73633 3.71094 2.58789 0 4.24805-1.5625 4.24805-4.00391 0-0.830078-0.146484-1.61133-0.537109-2.63672l-22.9004-60.9863c-1.12305-2.97852-3.125-4.49219-6.25-4.49219-3.02734 0-5.07812 1.46484-6.15234 4.44336l-22.9004 61.084c-0.390625 1.02539-0.537109 1.80664-0.537109 2.63672 0 2.44141 1.5625 3.95508 4.10156 3.95508Zm13.4766-28.3691 11.8652-32.8613h0.244141l11.8652 32.8613Z"/>
  </g>
  <line style="fill:none;stroke:#00AEEF;stroke-width:0.5;opacity:1.0;" x1="792.836" x2="792.836" y1="1919" y2="1933"/>
  <text style="stroke:none;fill:black;font-family:sans-serif;font-size:13;font-weight:bold;" transform="matrix(1 0 0 1 776 1953)">Margins</text>
  <text style="stroke:none;fill:black;font-family:sans-serif;font-size:13;" transform="matrix(1 0 0 1 776 1971)">Leading and trailing margins on the left and right side of each symbol</text>
  <text style="stroke:none;fill:black;font-family:sans-serif;font-size:13;" transform="matrix(1 0 0 1 776 1989)">can be adjusted by modifying the x-location of the margin guidelines.</text>
  <text style="stroke:none;fill:black;font-family:sans-serif;font-size:13;" transform="matrix(1 0 0 1 776 2007)">Modifications are automatically applied proportionally to all</text>
  <text style="stroke:none;fill:black;font-family:sans-serif;font-size:13;" transform="matrix(1 0 0 1 776 2025)">scales and weights.</text>
  <g transform="matrix(0.2 0 0 0.2 1289 1933)">
   <path d="m14.209 9.32617 8.49609 8.54492c4.29688 4.3457 9.22852 4.05273 13.8672-1.07422l53.4668-58.9355-4.83398-4.88281-53.0762 58.3984c-1.75781 2.00195-3.41797 2.49023-5.76172 0.146484l-5.85938-5.81055c-2.34375-2.29492-1.80664-4.00391 0.195312-5.81055l57.373-54.0039-4.88281-4.83398-57.959 54.4434c-4.93164 4.58984-5.32227 9.47266-1.02539 13.8184Zm32.0801-90.9668c-2.09961 2.05078-2.24609 4.93164-1.07422 6.88477 1.17188 1.80664 3.4668 2.97852 6.68945 2.14844 7.32422-1.70898 14.9414-2.00195 22.0703 2.68555l-2.92969 7.27539c-1.70898 4.15039-0.830078 7.08008 1.85547 9.81445l11.4746 11.5723c2.44141 2.44141 4.49219 2.53906 7.32422 2.05078l5.32227-0.976562 3.32031 3.36914-0.195312 2.7832c-0.195312 2.49023 0.439453 4.39453 2.88086 6.78711l3.80859 3.71094c2.39258 2.39258 5.46875 2.53906 7.8125 0.195312l14.5508-14.5996c2.34375-2.34375 2.24609-5.32227-0.146484-7.71484l-3.85742-3.80859c-2.39258-2.39258-4.24805-3.17383-6.64062-2.97852l-2.88086 0.244141-3.22266-3.17383 1.2207-5.61523c0.634766-2.83203-0.146484-5.0293-3.07617-7.95898l-10.9863-10.9375c-16.6992-16.6016-38.8672-16.2109-53.3203-1.75781Zm7.4707 1.85547c12.1582-8.88672 28.6133-7.37305 39.7461 3.75977l12.1582 12.0605c1.17188 1.17188 1.36719 2.09961 1.02539 3.80859l-1.61133 7.42188 7.51953 7.42188 4.93164-0.292969c1.26953-0.0488281 1.66016 0.0488281 2.63672 1.02539l2.88086 2.88086-12.207 12.207-2.88086-2.88086c-0.976562-0.976562-1.12305-1.36719-1.07422-2.68555l0.341797-4.88281-7.4707-7.42188-7.61719 1.26953c-1.61133 0.341797-2.34375 0.195312-3.56445-0.976562l-10.0098-10.0098c-1.26953-1.17188-1.41602-2.00195-0.634766-3.85742l4.39453-10.4492c-7.8125-7.27539-17.9688-10.4004-28.125-7.42188-0.78125 0.195312-1.07422-0.439453-0.439453-0.976562Z"/>
  </g>
  <text style="stroke:none;fill:black;font-family:sans-serif;font-size:13;font-weight:bold;" transform="matrix(1 0 0 1 1289 1953)">Exporting</text>
  <text style="stroke:none;fill:black;font-family:sans-serif;font-size:13;" transform="matrix(1 0 0 1 1289 1971)">Symbols should be outlined when exporting to ensure the</text>
  <text style="stroke:none;fill:black;font-family:sans-serif;font-size:13;" transform="matrix(1 0 0 1 1289 1989)">design is preserved when submitting to Xcode.</text>
  <text id="template-version" style="stroke:none;fill:black;font-family:sans-serif;font-size:13;text-anchor:end;" transform="matrix(1 0 0 1 3036 1933)">Template v.2.0</text>
  <text style="stroke:none;fill:black;font-family:sans-serif;font-size:13;text-anchor:end;" transform="matrix(1 0 0 1 3036 1951)">Requires Xcode 12 or greater</text>
  <text id="descriptive-name" style="stroke:none;fill:black;font-family:sans-serif;font-size:13;text-anchor:end;" transform="matrix(1 0 0 1 3036 1969)">Generated from cable.connector.usbc</text>
  <text style="stroke:none;fill:black;font-family:sans-serif;font-size:13;text-anchor:end;" transform="matrix(1 0 0 1 3036 1987)">Typeset at 100.0 points</text>
  <text style="stroke:none;fill:black;font-family:sans-serif;font-size:13;" transform="matrix(1 0 0 1 263 726)">Small</text>
  <text style="stroke:none;fill:black;font-family:sans-serif;font-size:13;" transform="matrix(1 0 0 1 263 1156)">Medium</text>
  <text style="stroke:none;fill:black;font-family:sans-serif;font-size:13;" transform="matrix(1 0 0 1 263 1586)">Large</text>
 </g>
 <g id="Guides">
  <g id="H-reference" style="fill:#27AAE1;stroke:none;" transform="matrix(1 0 0 1 339 696)">
   <path d="M0.993654 0L3.63775 0L29.3281-67.1323L30.0303-67.1323L30.0303-70.459L28.1226-70.459ZM11.6885-24.4799L46.9815-24.4799L46.2315-26.7285L12.4385-26.7285ZM55.1196 0L57.7637 0L30.6382-70.459L29.4326-70.459L29.4326-67.1323Z"/>
  </g>
  <line id="Baseline-S" style="fill:none;stroke:#27AAE1;opacity:1;stroke-width:0.5;" x1="263" x2="3036" y1="696" y2="696"/>
  <line id="Capline-S" style="fill:none;stroke:#27AAE1;opacity:1;stroke-width:0.5;" x1="263" x2="3036" y1="625.541" y2="625.541"/>
  <g id="H-reference" style="fill:#27AAE1;stroke:none;" transform="matrix(1 0 0 1 339 1126)">
   <path d="M0.993654 0L3.63775 0L29.3281-67.1323L30.0303-67.1323L30.0303-70.459L28.1226-70.459ZM11.6885-24.4799L46.9815-24.4799L46.2315-26.7285L12.4385-26.7285ZM55.1196 0L57.7637 0L30.6382-70.459L29.4326-70.459L29.4326-67.1323Z"/>
  </g>
  <line id="Baseline-M" style="fill:none;stroke:#27AAE1;opacity:1;stroke-width:0.5;" x1="263" x2="3036" y1="1126" y2="1126"/>
  <line id="Capline-M" style="fill:none;stroke:#27AAE1;opacity:1;stroke-width:0.5;" x1="263" x2="3036" y1="1055.54" y2="1055.54"/>
  <g id="H-reference" style="fill:#27AAE1;stroke:none;" transform="matrix(1 0 0 1 339 1556)">
   <path d="M0.993654 0L3.63775 0L29.3281-67.1323L30.0303-67.1323L30.0303-70.459L28.1226-70.459ZM11.6885-24.4799L46.9815-24.4799L46.2315-26.7285L12.4385-26.7285ZM55.1196 0L57.7637 0L30.6382-70.459L29.4326-70.459L29.4326-67.1323Z"/>
  </g>
  <line id="Baseline-L" style="fill:none;stroke:#27AAE1;opacity:1;stroke-width:0.5;" x1="263" x2="3036" y1="1556" y2="1556"/>
  <line id="Capline-L" style="fill:none;stroke:#27AAE1;opacity:1;stroke-width:0.5;" x1="263" x2="3036" y1="1485.54" y2="1485.54"/>
  <line id="left-margin" style="fill:none;stroke:#00AEEF;stroke-width:0.5;opacity:1.0;" x1="1421.45" x2="1421.45" y1="1030.79" y2="1150.12"/>
  <line id="right-margin" style="fill:none;stroke:#00AEEF;stroke-width:0.5;opacity:1.0;" x1="1478.24" x2="1478.24" y1="1030.79" y2="1150.12"/>
 </g>
 <g id="Symbols">
  <g id="Black-L" transform="matrix(1 0 0 1 2894.06 1556)">
   <path d="M11.4824-77.4919C8.33459-75.0067 6.1808-71.1962 6.1808-66.8887C6.1808-59.5987 12.1452-53.6345 19.435-53.6345L58.866-53.6345C66.1558-53.6345 72.12-59.5987 72.12-66.8887C72.12-71.1962 69.9662-75.0067 66.8183-77.4919L66.8183-81.4682L66.8183-101.846L66.8183-104.663L66.8183-104.828L66.8183-104.828C66.6527-108.97 63.1735-112.45 59.0317-112.45L19.435-112.45C15.1273-112.45 11.6481-109.136 11.6481-104.828L11.6481-104.828L11.6481-104.497L11.6481-101.681L11.6481-81.3025L11.6481-77.4919L11.4824-77.4919ZM19.435-109.136L58.866-109.136C61.3512-109.136 63.5049-107.148 63.5049-104.497L63.5049-101.681C63.5049-99.1954 61.5167-97.0417 58.866-97.0417L19.435-97.0417C16.9498-97.0417 14.796-99.0298 14.796-101.681L14.796-104.663C14.796-107.148 16.9498-109.136 19.435-109.136ZM14.796-95.385C16.1214-94.3908 17.6125-93.8939 19.435-93.8939L58.866-93.8939C60.5227-93.8939 62.1794-94.3908 63.5049-95.385L63.5049-67.7169C63.5049-64.4035 60.8541-61.7527 57.5405-61.7527L20.7603-61.7527C17.4468-61.7527 14.796-64.4035 14.796-67.7169L14.796-95.385ZM20.7603-99.5268C18.6065-99.5268 16.9498-101.349 17.1155-103.503C17.2811-105.491 19.1036-106.817 20.926-106.817L57.3748-106.817C59.3629-106.817 61.0198-105.326 61.1855-103.503C61.3512-101.349 59.6943-99.5268 57.5405-99.5268L20.7603-99.5268ZM19.435 9.50528C12.1452 9.50528 6.1808 3.70665 6.1808-3.58311L6.1808-56.9311C9.16298-52.9547 13.9676-50.3039 19.435-50.3039L58.7003-50.3039C64.1675-50.3039 68.9721-52.9547 71.9543-56.9311L71.9543-3.7488C71.9543 3.54096 65.9901 9.50528 58.7003 9.50528L48.4283 9.50528L29.7068 9.50528L19.435 9.50528ZM39.4567-3.45244C46.9793-3.45244 52.4282-8.18968 52.6722-14.8991L45.5155-14.8991C45.0885-11.7477 42.6894-9.67388 39.477-9.67388C35.3701-9.67388 32.8693-13.2116 32.8693-18.945C32.8693-24.6582 35.3701-28.1552 39.4567-28.1552C42.6691-28.1552 45.0885-26.0001 45.4748-22.808L52.6518-22.808C52.4282-29.4564 46.837-34.3767 39.4567-34.3767C30.6532-34.3767 25.2653-28.5009 25.2653-18.9247C25.2653-9.34858 30.6735-3.45244 39.4567-3.45244ZM28.0501 12.8018L50.2507 12.8018L50.2507 31.0262C50.2507 37.1563 45.2804 42.1265 39.1505 42.1265C33.0204 42.1265 28.0501 37.1563 28.0501 31.0262L28.0501 12.8018Z"/>
  </g>
  <g id="Heavy-L" transform="matrix(1 0 0 1 2598.01 1556)">
   <path d="M11.2718-76.8458C8.17702-74.4025 6.05957-70.6564 6.05957-66.4215C6.05957-59.2546 11.9233-53.3909 19.0901-53.3909L57.8558-53.3909C65.0226-53.3909 70.8862-59.2546 70.8862-66.4215C70.8862-70.6564 68.7688-74.4025 65.674-76.8458L65.674-80.755L65.674-100.789L65.674-103.558L65.674-103.721L65.674-103.721C65.5111-107.793 62.0907-111.214 58.0187-111.214L19.0901-111.214C14.8552-111.214 11.4346-107.956 11.4346-103.721L11.4346-103.721L11.4346-103.395L11.4346-100.626L11.4346-80.5921L11.4346-76.8458L11.2718-76.8458ZM19.0901-107.956L57.8558-107.956C60.299-107.956 62.4165-106.001 62.4165-103.395L62.4165-100.626C62.4165-98.1832 60.4618-96.0657 57.8558-96.0657L19.0901-96.0657C16.6468-96.0657 14.5294-98.0203 14.5294-100.626L14.5294-103.558C14.5294-106.001 16.6468-107.956 19.0901-107.956ZM14.5294-94.437C15.8324-93.4596 17.2984-92.9711 19.0901-92.9711L57.8558-92.9711C59.4846-92.9711 61.1133-93.4596 62.4165-94.437L62.4165-67.2358C62.4165-63.9783 59.8104-61.3722 56.5527-61.3722L20.3931-61.3722C17.1355-61.3722 14.5294-63.9783 14.5294-67.2358L14.5294-94.437ZM20.3931-98.5089C18.2757-98.5089 16.6468-100.301 16.8097-102.418C16.9726-104.373 18.7643-105.676 20.556-105.676L56.3898-105.676C58.3443-105.676 59.9733-104.21 60.1362-102.418C60.299-100.301 58.6701-98.5089 56.5527-98.5089L20.3931-98.5089ZM19.0901 8.68349C11.9233 8.68349 6.05957 2.98269 6.05957-4.18407L6.05957-56.6319C8.99143-52.7226 13.715-50.1165 19.0901-50.1165L57.6929-50.1165C63.0679-50.1165 67.7914-52.7226 70.7233-56.6319L70.7233-4.34696C70.7233 2.8198 64.8597 8.68349 57.6929 8.68349L47.5943 8.68349L29.1886 8.68349L19.0901 8.68349ZM38.774-4.0556C46.1697-4.0556 51.5266-8.71291 51.7665-15.3091L44.7306-15.3091C44.3108-12.2109 41.9522-10.1721 38.794-10.1721C34.7563-10.1721 32.2977-13.6501 32.2977-19.2868C32.2977-24.9036 34.7563-28.3416 38.774-28.3416C41.9322-28.3416 44.3108-26.2228 44.6906-23.0846L51.7465-23.0846C51.5266-29.6208 46.0298-34.458 38.774-34.458C30.119-34.458 24.8221-28.6814 24.8221-19.2668C24.8221-9.85225 30.139-4.0556 38.774-4.0556ZM27.5599 11.9244L49.3859 11.9244L49.3859 29.8413C49.3859 35.8679 44.4995 40.7543 38.473 40.7543C32.4463 40.7543 27.5599 35.8679 27.5599 29.8413L27.5599 11.9244Z"/>
  </g>
  <g id="Bold-L" transform="matrix(1 0 0 1 2302.1 1556)">
   <path d="M11.1177-75.9926C8.09187-73.6038 6.02157-69.941 6.02157-65.8004C6.02157-58.793 11.7547-53.0599 18.762-53.0599L56.6647-53.0599C63.6719-53.0599 69.4049-58.793 69.4049-65.8004C69.4049-69.941 67.3346-73.6038 64.3088-75.9926L64.3088-79.8148L64.3088-99.403L64.3088-102.11L64.3088-102.27L64.3088-102.27C64.1495-106.251 60.8052-109.595 56.8239-109.595L18.762-109.595C14.6213-109.595 11.277-106.41 11.277-102.27L11.277-102.27L11.277-101.951L11.277-99.2437L11.277-79.6555L11.277-75.9926L11.1177-75.9926ZM18.762-106.41L56.6647-106.41C59.0535-106.41 61.1238-104.499 61.1238-101.951L61.1238-99.2437C61.1238-96.8549 59.2126-94.7846 56.6647-94.7846L18.762-94.7846C16.3731-94.7846 14.3028-96.6957 14.3028-99.2437L14.3028-102.11C14.3028-104.499 16.3731-106.41 18.762-106.41ZM14.3028-93.1921C15.5769-92.2365 17.0102-91.7589 18.762-91.7589L56.6647-91.7589C58.2571-91.7589 59.8496-92.2365 61.1238-93.1921L61.1238-66.5966C61.1238-63.4116 58.5757-60.8635 55.3905-60.8635L20.036-60.8635C16.8509-60.8635 14.3028-63.4116 14.3028-66.5966L14.3028-93.1921ZM20.036-97.1735C17.9657-97.1735 16.3731-98.9254 16.5324-100.996C16.6916-102.907 18.4435-104.181 20.1952-104.181L55.2313-104.181C57.1423-104.181 58.7349-102.747 58.8942-100.996C59.0535-98.9254 57.4608-97.1735 55.3905-97.1735L20.036-97.1735ZM18.762 7.63248C11.7547 7.63248 6.02157 2.0586 6.02157-4.9486L6.02157-56.2288C8.88815-52.4065 13.5065-49.8584 18.762-49.8584L56.5054-49.8584C61.7607-49.8584 66.379-52.4065 69.2457-56.2288L69.2457-5.10787C69.2457 1.89933 63.5126 7.63248 56.5054 7.63248L46.6316 7.63248L28.6357 7.63248L18.762 7.63248ZM38.0077-4.82299C45.2387-4.82299 50.4764-9.37661 50.7109-15.8259L43.8316-15.8259C43.4212-12.7967 41.1151-10.8033 38.0272-10.8033C34.0794-10.8033 31.6756-14.2038 31.6756-19.7151C31.6756-25.2068 34.0794-28.5683 38.0077-28.5683C41.0955-28.5683 43.4212-26.4967 43.7925-23.4283L50.6914-23.4283C50.4764-29.8191 45.1019-34.5486 38.0077-34.5486C29.5454-34.5486 24.3663-28.9005 24.3663-19.6956C24.3663-10.4906 29.5649-4.82299 38.0077-4.82299ZM27.0432 10.8012L48.3833 10.8012L48.3833 28.3193C48.3833 34.2117 43.6057 38.9893 37.7133 38.9893C31.8208 38.9893 27.0432 34.2117 27.0432 28.3193L27.0432 10.8012Z"/>
  </g>
  <g id="Semibold-L" transform="matrix(1 0 0 1 2005.93 1556)">
   <path d="M11.0115-75.4044C8.03318-73.0531 5.99537-69.4478 5.99537-65.3722C5.99537-58.4748 11.6385-52.8318 18.5358-52.8318L55.8435-52.8318C62.7407-52.8318 68.3837-58.4748 68.3837-65.3722C68.3837-69.4478 66.346-73.0531 63.3676-75.4044L63.3676-79.1666L63.3676-98.4473L63.3676-101.112L63.3676-101.269L63.3676-101.269C63.2108-105.188 59.919-108.48 56.0002-108.48L18.5358-108.48C14.4601-108.48 11.1683-105.345 11.1683-101.269L11.1683-101.269L11.1683-100.955L11.1683-98.2906L11.1683-79.0099L11.1683-75.4044L11.0115-75.4044ZM18.5358-105.345L55.8435-105.345C58.1948-105.345 60.2326-103.464 60.2326-100.955L60.2326-98.2906C60.2326-95.9392 58.3514-93.9015 55.8435-93.9015L18.5358-93.9015C16.1844-93.9015 14.1466-95.7825 14.1466-98.2906L14.1466-101.112C14.1466-103.464 16.1844-105.345 18.5358-105.345ZM14.1466-92.334C15.4007-91.3934 16.8115-90.9232 18.5358-90.9232L55.8435-90.9232C57.411-90.9232 58.9785-91.3934 60.2326-92.334L60.2326-66.1559C60.2326-63.0209 57.7245-60.5128 54.5893-60.5128L19.7898-60.5128C16.6547-60.5128 14.1466-63.0209 14.1466-66.1559L14.1466-92.334ZM19.7898-96.2528C17.752-96.2528 16.1844-97.9772 16.3412-100.015C16.4979-101.896 18.2223-103.15 19.9465-103.15L54.4326-103.15C56.3136-103.15 57.8813-101.739 58.038-100.015C58.1948-97.9772 56.6271-96.2528 54.5893-96.2528L19.7898-96.2528ZM18.5358 6.90791C11.6385 6.90791 5.99537 1.42154 5.99537-5.47567L5.99537-55.9508C8.81696-52.1886 13.3628-49.6805 18.5358-49.6805L55.6867-49.6805C60.8595-49.6805 65.4054-52.1886 68.227-55.9508L68.227-5.63244C68.227 1.26477 62.5839 6.90791 55.6867 6.90791L45.9679 6.90791L28.2545 6.90791L18.5358 6.90791ZM37.4793-5.35203C44.5969-5.35203 49.7523-9.83417 49.9832-16.1823L43.2119-16.1823C42.8079-13.2006 40.538-11.2384 37.4986-11.2384C33.6128-11.2384 31.2467-14.5856 31.2467-20.0104C31.2467-25.4159 33.6128-28.7246 37.4793-28.7246C40.5187-28.7246 42.8079-26.6855 43.1734-23.6653L49.9639-23.6653C49.7523-29.9557 44.4623-34.611 37.4793-34.611C29.1499-34.611 24.0522-29.0516 24.0522-19.9911C24.0522-10.9307 29.1691-5.35203 37.4793-5.35203ZM26.687 10.0269L47.6921 10.0269L47.6921 27.27C47.6921 33.0699 42.9895 37.7725 37.1896 37.7725C31.3896 37.7725 26.687 33.0699 26.687 27.27L26.687 10.0269Z"/>
  </g>
  <g id="Medium-L" transform="matrix(1 0 0 1 1709.64 1556)">
   <path d="M10.931-74.9584C7.98867-72.6355 5.97551-69.0738 5.97551-65.0475C5.97551-58.2336 11.5504-52.6587 18.3643-52.6587L55.2208-52.6587C62.0346-52.6587 67.6094-58.2336 67.6094-65.0475C67.6094-69.0738 65.5963-72.6355 62.6539-74.9584L62.6539-78.6751L62.6539-97.7227L62.6539-100.355L62.6539-100.51L62.6539-100.51C62.499-104.382 59.2471-107.634 55.3757-107.634L18.3643-107.634C14.3379-107.634 11.0859-104.537 11.0859-100.51L11.0859-100.51L11.0859-100.2L11.0859-97.5678L11.0859-78.5203L11.0859-74.9584L10.931-74.9584ZM18.3643-104.537L55.2208-104.537C57.5437-104.537 59.5568-102.678 59.5568-100.2L59.5568-97.5678C59.5568-95.2449 57.6984-93.2318 55.2208-93.2318L18.3643-93.2318C16.0414-93.2318 14.0282-95.0901 14.0282-97.5678L14.0282-100.355C14.0282-102.678 16.0414-104.537 18.3643-104.537ZM14.0282-91.6833C15.2671-90.754 16.6608-90.2896 18.3643-90.2896L55.2208-90.2896C56.7693-90.2896 58.3179-90.754 59.5568-91.6833L59.5568-65.8217C59.5568-62.7247 57.0791-60.2469 53.9818-60.2469L19.6031-60.2469C16.5059-60.2469 14.0282-62.7247 14.0282-65.8217L14.0282-91.6833ZM19.6031-95.5547C17.59-95.5547 16.0414-97.2583 16.1962-99.2714C16.3511-101.13 18.0546-102.368 19.758-102.368L53.827-102.368C55.6853-102.368 57.234-100.975 57.3888-99.2714C57.5437-97.2583 55.995-95.5547 53.9818-95.5547L19.6031-95.5547ZM18.3643 6.35852C11.5504 6.35852 5.97551 0.938486 5.97551-5.87531L5.97551-55.7401C8.76297-52.0234 13.2539-49.5456 18.3643-49.5456L55.0659-49.5456C60.1762-49.5456 64.6671-52.0234 67.4546-55.7401L67.4546-6.03018C67.4546 0.783616 61.8797 6.35852 55.0659 6.35852L45.4646 6.35852L27.9654 6.35852L18.3643 6.35852ZM37.0788-5.75317C44.1102-5.75317 49.2033-10.1811 49.4314-16.4524L42.742-16.4524C42.3429-13.5068 40.1004-11.5684 37.0978-11.5684C33.259-11.5684 30.9215-14.8751 30.9215-20.2342C30.9215-25.5744 33.259-28.8431 37.0788-28.8431C40.0814-28.8431 42.3429-26.8286 42.704-23.845L49.4124-23.845C49.2033-30.0593 43.9772-34.6583 37.0788-34.6583C28.85-34.6583 23.814-29.1661 23.814-20.2152C23.814-11.2643 28.869-5.75317 37.0788-5.75317ZM26.4169 9.43982L47.168 9.43982L47.168 26.4743C47.168 32.2041 42.5223 36.8499 36.7926 36.8499C31.0627 36.8499 26.4169 32.2041 26.4169 26.4743L26.4169 9.43982Z"/>
  </g>
  <g id="Regular-L" transform="matrix(1 0 0 1 1413.47 1556)">
   <path d="M10.826-74.3767C7.93062-72.0909 5.9496-68.5861 5.9496-64.6241C5.9496-57.9189 11.4355-52.4331 18.1406-52.4331L54.4086-52.4331C61.1136-52.4331 66.5995-57.9189 66.5995-64.6241C66.5995-68.5861 64.6185-72.0909 61.7231-74.3767L61.7231-78.0341L61.7231-96.7775L61.7231-99.3681L61.7231-99.5205L61.7231-99.5205C61.5707-103.33 58.3707-106.53 54.561-106.53L18.1406-106.53C14.1785-106.53 10.9784-103.483 10.9784-99.5205L10.9784-99.5205L10.9784-99.2157L10.9784-96.6251L10.9784-77.8817L10.9784-74.3767L10.826-74.3767ZM18.1406-103.483L54.4086-103.483C56.6944-103.483 58.6754-101.654 58.6754-99.2157L58.6754-96.6251C58.6754-94.3393 56.8467-92.3583 54.4086-92.3583L18.1406-92.3583C15.8547-92.3583 13.8737-94.1869 13.8737-96.6251L13.8737-99.3681C13.8737-101.654 15.8547-103.483 18.1406-103.483ZM13.8737-90.8345C15.0928-89.9201 16.4643-89.4631 18.1406-89.4631L54.4086-89.4631C55.9325-89.4631 57.4563-89.9201 58.6754-90.8345L58.6754-65.3859C58.6754-62.3383 56.2372-59.9001 53.1895-59.9001L19.3596-59.9001C16.3119-59.9001 13.8737-62.3383 13.8737-65.3859L13.8737-90.8345ZM19.3596-94.6441C17.3786-94.6441 15.8547-96.3205 16.0071-98.3015C16.1595-100.13 17.8358-101.349 19.512-101.349L53.0371-101.349C54.8657-101.349 56.3896-99.9777 56.542-98.3015C56.6944-96.3205 55.1705-94.6441 53.1895-94.6441L19.3596-94.6441ZM18.1406 5.64192C11.4355 5.64192 5.9496 0.308422 5.9496-6.39659L5.9496-55.4652C8.69256-51.8078 13.1118-49.3696 18.1406-49.3696L54.2562-49.3696C59.2849-49.3696 63.7041-51.8078 66.4471-55.4652L66.4471-6.54898C66.4471 0.156025 60.9612 5.64192 54.2562 5.64192L44.8082 5.64192L27.5884 5.64192L18.1406 5.64192ZM36.5563-6.27639C43.4755-6.27639 48.4872-10.6336 48.7116-16.8048L42.129-16.8048C41.7363-13.9062 39.5296-11.9988 36.575-11.9988C32.7974-11.9988 30.4973-15.2527 30.4973-20.5263C30.4973-25.7811 32.7974-28.9976 36.5563-28.9976C39.5109-28.9976 41.7363-27.0154 42.0916-24.0794L48.6929-24.0794C48.4872-30.1945 43.3446-34.72 36.5563-34.72C28.4589-34.72 23.5032-29.3155 23.5032-20.5076C23.5032-11.6996 28.4776-6.27639 36.5563-6.27639ZM26.0646 8.67402L46.4844 8.67402L46.4844 25.4366C46.4844 31.0749 41.9128 35.6465 36.2746 35.6465C30.6362 35.6465 26.0646 31.0749 26.0646 25.4366L26.0646 8.67402Z"/>
  </g>
  <g id="Light-L" transform="matrix(1 0 0 1 1117.13 1556)">
   <path d="M11.4081-73.4467C8.58035-71.2143 6.64561-67.7913 6.64561-63.9219C6.64561-57.3733 12.0034-52.0156 18.5518-52.0156L53.9726-52.0156C60.521-52.0156 65.8787-57.3733 65.8787-63.9219C65.8787-67.7913 63.9439-71.2143 61.1162-73.4467L61.1162-77.0186L61.1162-95.3242L61.1162-97.8543L61.1162-98.0031L61.1162-98.0031C60.9674-101.724 57.8421-104.849 54.1215-104.849L18.5518-104.849C14.6823-104.849 11.5569-101.873 11.5569-98.0031L11.5569-98.0031L11.5569-97.7054L11.5569-95.1754L11.5569-76.8698L11.5569-73.4467L11.4081-73.4467ZM18.5518-101.873L53.9726-101.873C56.205-101.873 58.1398-100.087 58.1398-97.7054L58.1398-95.1754C58.1398-92.943 56.3537-91.0082 53.9726-91.0082L18.5518-91.0082C16.3194-91.0082 14.3846-92.7941 14.3846-95.1754L14.3846-97.8543C14.3846-100.087 16.3194-101.873 18.5518-101.873ZM14.3846-89.52C15.5752-88.627 16.9147-88.1806 18.5518-88.1806L53.9726-88.1806C55.4608-88.1806 56.9491-88.627 58.1398-89.52L58.1398-64.6659C58.1398-61.6895 55.7585-59.3082 52.7819-59.3082L19.7424-59.3082C16.7658-59.3082 14.3846-61.6895 14.3846-64.6659L14.3846-89.52ZM19.7424-93.2406C17.8076-93.2406 16.3194-94.8778 16.4682-96.8126C16.617-98.5985 18.2541-99.789 19.8912-99.789L52.6331-99.789C54.419-99.789 55.9074-98.4496 56.0562-96.8126C56.205-94.8778 54.7167-93.2406 52.7819-93.2406L19.7424-93.2406ZM18.5518 4.70268C12.0034 4.70268 6.64561-0.506225 6.64561-7.0546L6.64561-54.977C9.32449-51.405 13.6405-49.0238 18.5518-49.0238L53.8238-49.0238C58.7349-49.0238 63.0509-51.405 65.7298-54.977L65.7298-7.20344C65.7298-0.655063 60.3722 4.70268 53.8238 4.70268L44.5965 4.70268L27.779 4.70268L18.5518 4.70268ZM36.5373-6.93722C43.2949-6.93722 48.1895-11.1927 48.4087-17.2197L41.9799-17.2197C41.5963-14.3888 39.4412-12.5259 36.5555-12.5259C32.8663-12.5259 30.6198-15.7038 30.6198-20.8542C30.6198-25.9863 32.8663-29.1277 36.5373-29.1277C39.4229-29.1277 41.5963-27.1917 41.9433-24.3243L48.3904-24.3243C48.1895-30.2966 43.167-34.7164 36.5373-34.7164C28.6291-34.7164 23.7892-29.4382 23.7892-20.8359C23.7892-12.2337 28.6473-6.93722 36.5373-6.93722ZM26.2907 7.66395L46.2335 7.66395L46.2335 24.0349C46.2335 29.5415 41.7687 34.0063 36.2622 34.0063C30.7555 34.0063 26.2907 29.5415 26.2907 24.0349L26.2907 7.66395Z"/>
  </g>
  <g id="Thin-L" transform="matrix(1 0 0 1 820.912 1556)">
   <path d="M12.1779-72.2166C9.43968-70.0548 7.56614-66.7402 7.56614-62.9931C7.56614-56.6518 12.7544-51.4636 19.0957-51.4636L53.396-51.4636C59.7372-51.4636 64.9254-56.6518 64.9254-62.9931C64.9254-66.7402 63.0518-70.0548 60.3135-72.2166L60.3135-75.6756L60.3135-93.4021L60.3135-95.8521L60.3135-95.9962L60.3135-95.9962C60.1694-99.5991 57.143-102.626 53.5401-102.626L19.0957-102.626C15.3486-102.626 12.3221-99.7433 12.3221-95.9962L12.3221-95.9962L12.3221-95.708L12.3221-93.2579L12.3221-75.5314L12.3221-72.2166L12.1779-72.2166ZM19.0957-99.7433L53.396-99.7433C55.5577-99.7433 57.4313-98.0139 57.4313-95.708L57.4313-93.2579C57.4313-91.0961 55.7017-89.2226 53.396-89.2226L19.0957-89.2226C16.9339-89.2226 15.0603-90.952 15.0603-93.2579L15.0603-95.8521C15.0603-98.0139 16.9339-99.7433 19.0957-99.7433ZM15.0603-87.7815C16.2133-86.9167 17.5103-86.4845 19.0957-86.4845L53.396-86.4845C54.8371-86.4845 56.2782-86.9167 57.4313-87.7815L57.4313-63.7136C57.4313-60.8313 55.1253-58.5254 52.2429-58.5254L20.2486-58.5254C17.3662-58.5254 15.0603-60.8313 15.0603-63.7136L15.0603-87.7815ZM20.2486-91.3844C18.3751-91.3844 16.9339-92.9698 17.078-94.8433C17.2221-96.5727 18.8074-97.7256 20.3927-97.7256L52.0988-97.7256C53.8282-97.7256 55.2695-96.4286 55.4136-94.8433C55.5577-92.9698 54.1164-91.3844 52.2429-91.3844L20.2486-91.3844ZM19.0957 3.46046C12.7544 3.46046 7.56614-1.58366 7.56614-7.92488L7.56614-54.3312C10.1603-50.8723 14.3397-48.5664 19.0957-48.5664L53.2518-48.5664C58.0076-48.5664 62.1871-50.8723 64.7812-54.3312L64.7812-8.06901C64.7812-1.72779 59.593 3.46046 53.2518 3.46046L44.3164 3.46046L28.0309 3.46046L19.0957 3.46046ZM36.5122-7.81121C43.056-7.81121 47.7958-11.932 48.0081-17.7684L41.7826-17.7684C41.4112-15.0271 39.3242-13.2231 36.5299-13.2231C32.9573-13.2231 30.7819-16.3005 30.7819-21.2879C30.7819-26.2577 32.9573-29.2997 36.5122-29.2997C39.3066-29.2997 41.4112-27.425 41.7472-24.6483L47.9904-24.6483C47.7958-30.4316 42.9322-34.7116 36.5122-34.7116C28.8542-34.7116 24.1674-29.6003 24.1674-21.2702C24.1674-12.9401 28.8718-7.81121 36.5122-7.81121ZM26.5898 6.32805L45.9017 6.32805L45.9017 22.1811C45.9017 27.5135 41.5781 31.837 36.2458 31.837C30.9134 31.837 26.5898 27.5135 26.5898 22.1811L26.5898 6.32805Z"/>
  </g>
  <g id="Ultralight-L" transform="matrix(1 0 0 1 524.454 1556)">
   <path d="M12.5723-71.5866C9.87982-69.461 8.03763-66.2018 8.03763-62.5174C8.03763-56.2822 13.1391-51.1808 19.3743-51.1808L53.1006-51.1808C59.3357-51.1808 64.4371-56.2822 64.4371-62.5174C64.4371-66.2018 62.5949-69.461 59.9024-71.5866L59.9024-74.9877L59.9024-92.4175L59.9024-94.8266L59.9024-94.9683L59.9024-94.9683C59.7607-98.5109 56.7849-101.487 53.2423-101.487L19.3743-101.487C15.6898-101.487 12.714-98.6527 12.714-94.9683L12.714-94.9683L12.714-94.6849L12.714-92.2758L12.714-74.8459L12.714-71.5866L12.5723-71.5866ZM19.3743-98.6527L53.1006-98.6527C55.2262-98.6527 57.0684-96.9522 57.0684-94.6849L57.0684-92.2758C57.0684-90.1502 55.3678-88.308 53.1006-88.308L19.3743-88.308C17.2486-88.308 15.4064-90.0085 15.4064-92.2758L15.4064-94.8266C15.4064-96.9522 17.2486-98.6527 19.3743-98.6527ZM15.4064-86.891C16.5401-86.0407 17.8154-85.6157 19.3743-85.6157L53.1006-85.6157C54.5176-85.6157 55.9346-86.0407 57.0684-86.891L57.0684-63.2259C57.0684-60.3918 54.801-58.1245 51.9669-58.1245L20.5079-58.1245C17.6737-58.1245 15.4064-60.3918 15.4064-63.2259L15.4064-86.891ZM20.5079-90.4337C18.6657-90.4337 17.2486-91.9925 17.3903-93.8347C17.532-95.5352 19.0908-96.6688 20.6496-96.6688L51.8251-96.6688C53.5256-96.6688 54.9428-95.3935 55.0845-93.8347C55.2262-91.9925 53.809-90.4337 51.9669-90.4337L20.5079-90.4337ZM19.3743 2.8242C13.1391 2.8242 8.03763-2.13552 8.03763-8.37063L8.03763-54.0005C10.5884-50.5994 14.6979-48.3321 19.3743-48.3321L52.9589-48.3321C57.6351-48.3321 61.7446-50.5994 64.2954-54.0005L64.2954-8.51235C64.2954-2.27724 59.194 2.8242 52.9589 2.8242L44.173 2.8242L28.16 2.8242L19.3743 2.8242ZM36.4993-8.25886C42.9336-8.25886 47.5942-12.3107 47.8029-18.0495L41.6816-18.0495C41.3164-15.354 39.2643-13.5802 36.5167-13.5802C33.0039-13.5802 30.865-16.6061 30.865-21.5101C30.865-26.3967 33.0039-29.3878 36.4993-29.3878C39.247-29.3878 41.3164-27.5444 41.6468-24.8142L47.7855-24.8142C47.5942-30.5007 42.8119-34.7091 36.4993-34.7091C28.9694-34.7091 24.3611-29.6834 24.3611-21.4927C24.3611-13.302 28.9868-8.25886 36.4993-8.25886ZM26.743 5.6438L45.7317 5.6438L45.7317 21.2316C45.7317 26.4748 41.4805 30.726 36.2374 30.726C30.9942 30.726 26.743 26.4748 26.743 21.2316L26.743 5.6438Z"/>
  </g>
  <g id="Black-M" transform="matrix(1 0 0 1 2902.4 1126)">
   <path d="M9.15586-68.4012C6.6806-66.447 4.98701-63.4507 4.98701-60.0636C4.98701-54.3313 9.67698-49.6414 15.4092-49.6414L46.4151-49.6414C52.1472-49.6414 56.8371-54.3313 56.8371-60.0636C56.8371-63.4507 55.1435-66.447 52.6682-68.4012L52.6682-71.5279L52.6682-87.5518L52.6682-89.7666L52.6682-89.8969L52.6682-89.8969C52.538-93.1537 49.8022-95.8896 46.5453-95.8896L15.4092-95.8896C12.022-95.8896 9.28615-93.284 9.28615-89.8969L9.28615-89.8969L9.28615-89.6363L9.28615-87.4216L9.28615-71.3976L9.28615-68.4012L9.15586-68.4012ZM15.4092-93.284L46.4151-93.284C48.3692-93.284 50.0628-91.7207 50.0628-89.6363L50.0628-87.4216C50.0628-85.4674 48.4994-83.7738 46.4151-83.7738L15.4092-83.7738C13.455-83.7738 11.7614-85.3371 11.7614-87.4216L11.7614-89.7666C11.7614-91.7207 13.455-93.284 15.4092-93.284ZM11.7614-82.4711C12.8036-81.6894 13.9761-81.2987 15.4092-81.2987L46.4151-81.2987C47.7178-81.2987 49.0205-81.6894 50.0628-82.4711L50.0628-60.7149C50.0628-58.1094 47.9784-56.025 45.3728-56.025L16.4514-56.025C13.8458-56.025 11.7614-58.1094 11.7614-60.7149L11.7614-82.4711ZM16.4514-85.728C14.7578-85.728 13.455-87.1611 13.5853-88.8547C13.7156-90.418 15.1486-91.4601 16.5816-91.4601L45.2425-91.4601C46.8058-91.4601 48.1086-90.2877 48.2389-88.8547C48.3692-87.1611 47.0664-85.728 45.3728-85.728L16.4514-85.728ZM15.4092 0.00743012C9.67698 0.00743012 4.98701-4.55222 4.98701-10.2844L4.98701-52.2336C7.33199-49.1069 11.11-47.0224 15.4092-47.0224L46.2848-47.0224C50.5838-47.0224 54.3618-49.1069 56.7068-52.2336L56.7068-10.4147C56.7068-4.68251 52.0169 0.00743012 46.2848 0.00743012L38.2076 0.00743012L23.4862 0.00743012L15.4092 0.00743012ZM31.1529-10.1816C37.0682-10.1816 41.3528-13.9067 41.5447-19.1825L35.9171-19.1825C35.5814-16.7045 33.6949-15.0738 31.1689-15.0738C27.9395-15.0738 25.973-17.8555 25.973-22.364C25.973-26.8564 27.9395-29.6062 31.1529-29.6062C33.6789-29.6062 35.5814-27.9116 35.8851-25.4016L41.5287-25.4016C41.3528-30.6294 36.9563-34.4983 31.1529-34.4983C24.2304-34.4983 19.9938-29.878 19.9938-22.348C19.9938-14.818 24.2464-10.1816 31.1529-10.1816ZM22.1835 2.5996L39.6406 2.5996L39.6406 16.93C39.6406 21.7503 35.7323 25.6586 30.9121 25.6586C26.0918 25.6586 22.1835 21.7503 22.1835 16.93L22.1835 2.5996Z"/>
  </g>
  <g id="Heavy-M" transform="matrix(1 0 0 1 2606.3 1126)">
   <path d="M8.8962-67.8554C6.46663-65.9373 4.80429-62.9963 4.80429-59.6716C4.80429-54.0451 9.4077-49.4418 15.0341-49.4418L45.4678-49.4418C51.0942-49.4418 55.6975-54.0451 55.6975-59.6716C55.6975-62.9963 54.0352-65.9373 51.6055-67.8554L51.6055-70.9244L51.6055-86.6526L51.6055-88.8265L51.6055-88.9543L51.6055-88.9543C51.4777-92.1511 48.7924-94.8365 45.5957-94.8365L15.0341-94.8365C11.7094-94.8365 9.02408-92.279 9.02408-88.9543L9.02408-88.9543L9.02408-88.6986L9.02408-86.5247L9.02408-70.7965L9.02408-67.8554L8.8962-67.8554ZM15.0341-92.279L45.4678-92.279C47.3859-92.279 49.0482-90.7445 49.0482-88.6986L49.0482-86.5247C49.0482-84.6066 47.5136-82.9443 45.4678-82.9443L15.0341-82.9443C13.116-82.9443 11.4537-84.4788 11.4537-86.5247L11.4537-88.8265C11.4537-90.7445 13.116-92.279 15.0341-92.279ZM11.4537-81.6656C12.4766-80.8983 13.6275-80.5148 15.0341-80.5148L45.4678-80.5148C46.7465-80.5148 48.0251-80.8983 49.0482-81.6656L49.0482-60.3109C49.0482-57.7535 47.0022-55.7076 44.4447-55.7076L16.0571-55.7076C13.4996-55.7076 11.4537-57.7535 11.4537-60.3109L11.4537-81.6656ZM16.0571-84.8624C14.3947-84.8624 13.116-86.2691 13.2439-87.9314C13.3717-89.4659 14.7784-90.4888 16.1849-90.4888L44.3168-90.4888C45.8513-90.4888 47.1301-89.338 47.258-87.9314C47.3859-86.2691 46.107-84.8624 44.4447-84.8624L16.0571-84.8624ZM15.0341-0.709278C9.4077-0.709278 4.80429-5.18478 4.80429-10.8112L4.80429-51.9862C7.106-48.9171 10.8143-46.8712 15.0341-46.8712L45.3399-46.8712C49.5596-46.8712 53.2679-48.9171 55.5696-51.9862L55.5696-10.939C55.5696-5.31266 50.9663-0.709278 45.3399-0.709278L37.4118-0.709278L22.9621-0.709278L15.0341-0.709278ZM30.4873-10.7103C36.2934-10.7103 40.4989-14.3666 40.6872-19.545L35.1636-19.545C34.834-17.1127 32.9824-15.5121 30.503-15.5121C27.3331-15.5121 25.403-18.2426 25.403-22.6678C25.403-27.0773 27.3331-29.7764 30.4873-29.7764C32.9667-29.7764 34.834-28.113 35.1322-25.6493L40.6716-25.6493C40.4989-30.7807 36.1836-34.5782 30.4873-34.5782C23.6925-34.5782 19.5341-30.0432 19.5341-22.6521C19.5341-15.2611 23.7082-10.7103 30.4873-10.7103ZM21.6834 1.83505L38.8183 1.83505L38.8183 15.901C38.8183 20.6323 34.9822 24.4685 30.251 24.4685C25.5196 24.4685 21.6834 20.6323 21.6834 15.901L21.6834 1.83505Z"/>
  </g>
  <g id="Bold-M" transform="matrix(1 0 0 1 2310.28 1126)">
   <path d="M8.60574-67.2448C6.22727-65.3671 4.5999-62.4879 4.5999-59.2332C4.5999-53.725 9.10648-49.2185 14.6146-49.2185L44.4081-49.2185C49.9161-49.2185 54.4226-53.725 54.4226-59.2332C54.4226-62.4879 52.7953-65.3671 50.4168-67.2448L50.4168-70.2493L50.4168-85.6467L50.4168-87.7748L50.4168-87.9L50.4168-87.9C50.2916-91.0295 47.6628-93.6584 44.5333-93.6584L14.6146-93.6584C11.3598-93.6584 8.73093-91.1547 8.73093-87.9L8.73093-87.9L8.73093-87.6496L8.73093-85.5215L8.73093-70.1241L8.73093-67.2448L8.60574-67.2448ZM14.6146-91.1547L44.4081-91.1547C46.2858-91.1547 47.9132-89.6526 47.9132-87.6496L47.9132-85.5215C47.9132-83.6437 46.4109-82.0164 44.4081-82.0164L14.6146-82.0164C12.7368-82.0164 11.1094-83.5186 11.1094-85.5215L11.1094-87.7748C11.1094-89.6526 12.7368-91.1547 14.6146-91.1547ZM11.1094-80.7646C12.1109-80.0135 13.2375-79.638 14.6146-79.638L44.4081-79.638C45.6599-79.638 46.9117-80.0135 47.9132-80.7646L47.9132-59.859C47.9132-57.3555 45.9103-55.3525 43.4066-55.3525L15.616-55.3525C13.1123-55.3525 11.1094-57.3555 11.1094-59.859L11.1094-80.7646ZM15.616-83.8941C13.9886-83.8941 12.7368-85.2712 12.862-86.8986C12.9871-88.4008 14.3642-89.4022 15.7412-89.4022L43.2814-89.4022C44.7835-89.4022 46.0354-88.2756 46.1606-86.8986C46.2858-85.2712 45.0339-83.8941 43.4066-83.8941L15.616-83.8941ZM14.6146-1.51102C9.10648-1.51102 4.5999-5.89239 4.5999-11.4004L4.5999-51.7094C6.85319-48.7049 10.4835-46.702 14.6146-46.702L44.2829-46.702C48.4138-46.702 52.0441-48.7049 54.2974-51.7094L54.2974-11.5256C54.2974-6.01758 49.7909-1.51102 44.2829-1.51102L36.5215-1.51102L22.3758-1.51102L14.6146-1.51102ZM29.7427-11.3017C35.4267-11.3017 39.5438-14.8811 39.7281-19.9506L34.3206-19.9506C33.998-17.5695 32.1853-16.0025 29.7581-16.0025C26.6549-16.0025 24.7653-18.6755 24.7653-23.0077C24.7653-27.3245 26.6549-29.9668 29.7427-29.9668C32.1699-29.9668 33.998-28.3384 34.2899-25.9265L39.7128-25.9265C39.5438-30.9499 35.3192-34.6676 29.7427-34.6676C23.0909-34.6676 19.0199-30.2279 19.0199-22.9923C19.0199-15.7567 23.1062-11.3017 29.7427-11.3017ZM21.124 0.979796L37.8985 0.979796L37.8985 14.7499C37.8985 19.3817 34.143 23.1371 29.5113 23.1371C24.8795 23.1371 21.124 19.3817 21.124 14.7499L21.124 0.979796Z"/>
  </g>
  <g id="Semibold-M" transform="matrix(1 0 0 1 2014.04 1126)">
   <path d="M8.4055-66.8239C6.06225-64.974 4.45899-62.1375 4.45899-58.931C4.45899-53.5044 8.89882-49.0646 14.3253-49.0646L43.6776-49.0646C49.104-49.0646 53.5438-53.5044 53.5438-58.931C53.5438-62.1375 51.9405-64.974 49.5972-66.8239L49.5972-69.7839L49.5972-84.9532L49.5972-87.0498L49.5972-87.1731L49.5972-87.1731C49.4739-90.2563 46.8841-92.8463 43.8009-92.8463L14.3253-92.8463C11.1187-92.8463 8.52883-90.3797 8.52883-87.1731L8.52883-87.1731L8.52883-86.9265L8.52883-84.8299L8.52883-69.6605L8.52883-66.8239L8.4055-66.8239ZM14.3253-90.3797L43.6776-90.3797C45.5275-90.3797 47.1307-88.8997 47.1307-86.9265L47.1307-84.8299C47.1307-82.9799 45.6507-81.3767 43.6776-81.3767L14.3253-81.3767C12.4753-81.3767 10.8721-82.8566 10.8721-84.8299L10.8721-87.0498C10.8721-88.8997 12.4753-90.3797 14.3253-90.3797ZM10.8721-80.1434C11.8587-79.4034 12.9687-79.0335 14.3253-79.0335L43.6776-79.0335C44.9108-79.0335 46.144-79.4034 47.1307-80.1434L47.1307-59.5475C47.1307-57.081 45.1575-55.1078 42.6909-55.1078L15.3119-55.1078C12.8453-55.1078 10.8721-57.081 10.8721-59.5475L10.8721-80.1434ZM15.3119-83.2266C13.7086-83.2266 12.4753-84.5833 12.5987-86.1866C12.722-87.6665 14.0787-88.6531 15.4352-88.6531L42.5675-88.6531C44.0474-88.6531 45.2808-87.5432 45.4041-86.1866C45.5275-84.5833 44.2941-83.2266 42.6909-83.2266L15.3119-83.2266ZM14.3253-2.06374C8.89882-2.06374 4.45899-6.38021 4.45899-11.8067L4.45899-51.5186C6.6789-48.5586 10.2554-46.5853 14.3253-46.5853L43.5542-46.5853C47.624-46.5853 51.2005-48.5586 53.4204-51.5186L53.4204-11.93C53.4204-6.50354 48.9807-2.06374 43.5542-2.06374L35.9078-2.06374L21.9716-2.06374L14.3253-2.06374ZM29.2294-11.7094C34.8292-11.7094 38.8853-15.2358 39.0669-20.2302L33.7395-20.2302C33.4217-17.8843 31.6358-16.3406 29.2445-16.3406C26.1873-16.3406 24.3257-18.974 24.3257-23.242C24.3257-27.4948 26.1873-30.098 29.2294-30.098C31.6206-30.098 33.4217-28.4937 33.7092-26.1176L39.0518-26.1176C38.8853-31.0666 34.7233-34.7292 29.2294-34.7292C22.6761-34.7292 18.6654-30.3553 18.6654-23.2269C18.6654-16.0984 22.6912-11.7094 29.2294-11.7094ZM20.7384 0.390187L37.2644 0.390187L37.2644 13.9563C37.2644 18.5195 33.5645 22.2193 29.0014 22.2193C24.4382 22.2193 20.7384 18.5195 20.7384 13.9563L20.7384 0.390187Z"/>
  </g>
  <g id="Medium-M" transform="matrix(1 0 0 1 1717.69 1126)">
   <path d="M8.25366-66.5047C5.93713-64.6759 4.35214-61.8717 4.35214-58.7018C4.35214-53.3371 8.74136-48.9479 14.106-48.9479L43.1236-48.9479C48.4882-48.9479 52.8774-53.3371 52.8774-58.7018C52.8774-61.8717 51.2924-64.6759 48.9758-66.5047L48.9758-69.431L48.9758-84.4274L48.9758-86.5001L48.9758-86.622L48.9758-86.622C48.8539-89.67 46.2936-92.2305 43.2456-92.2305L14.106-92.2305C10.936-92.2305 8.3756-89.792 8.3756-86.622L8.3756-86.622L8.3756-86.3782L8.3756-84.3054L8.3756-69.309L8.3756-66.5047L8.25366-66.5047ZM14.106-89.792L43.1236-89.792C44.9525-89.792 46.5374-88.3289 46.5374-86.3782L46.5374-84.3054C46.5374-82.4766 45.0743-80.8916 43.1236-80.8916L14.106-80.8916C12.2771-80.8916 10.6921-82.3547 10.6921-84.3054L10.6921-86.5001C10.6921-88.3289 12.2771-89.792 14.106-89.792ZM10.6921-79.6724C11.6675-78.9409 12.7648-78.5752 14.106-78.5752L43.1236-78.5752C44.3428-78.5752 45.562-78.9409 46.5374-79.6724L46.5374-59.3113C46.5374-56.8729 44.5867-54.9222 42.1482-54.9222L15.0813-54.9222C12.6429-54.9222 10.6921-56.8729 10.6921-59.3113L10.6921-79.6724ZM15.0813-82.7205C13.4964-82.7205 12.2771-84.0617 12.399-85.6467C12.521-87.1097 13.8621-88.0851 15.2033-88.0851L42.0262-88.0851C43.4893-88.0851 44.7086-86.9878 44.8305-85.6467C44.9525-84.0617 43.7332-82.7205 42.1482-82.7205L15.0813-82.7205ZM14.106-2.48283C8.74136-2.48283 4.35214-6.75009 4.35214-12.1147L4.35214-51.3739C6.54675-48.4477 10.0825-46.4969 14.106-46.4969L43.0017-46.4969C47.025-46.4969 50.5608-48.4477 52.7554-51.3739L52.7554-12.2366C52.7554-6.87202 48.3663-2.48283 43.0017-2.48283L35.4425-2.48283L21.6651-2.48283L14.106-2.48283ZM28.8402-12.0185C34.3761-12.0185 38.386-15.5047 38.5655-20.4422L33.2989-20.4422C32.9847-18.1231 31.2191-16.5969 28.8551-16.5969C25.8328-16.5969 23.9924-19.2003 23.9924-23.4197C23.9924-27.624 25.8328-30.1975 28.8402-30.1975C31.2042-30.1975 32.9847-28.6115 33.2689-26.2625L38.5506-26.2625C38.386-31.1551 34.2714-34.7759 28.8402-34.7759C22.3616-34.7759 18.3966-30.4519 18.3966-23.4047C18.3966-16.3575 22.3765-12.0185 28.8402-12.0185ZM20.4459-0.0568791L36.7836-0.0568791L36.7836 13.3546C36.7836 17.8658 33.1259 21.5234 28.6148 21.5234C24.1036 21.5234 20.4459 17.8658 20.4459 13.3546L20.4459-0.0568791Z"/>
  </g>
  <g id="Regular-M" transform="matrix(1 0 0 1 1421.45 1126)">
   <path d="M8.05562-66.0885C5.77393-64.2871 4.21278-61.5251 4.21278-58.4029C4.21278-53.1188 8.53599-48.7957 13.8199-48.7957L42.4011-48.7957C47.685-48.7957 52.0082-53.1188 52.0082-58.4029C52.0082-61.5251 50.447-64.2871 48.1653-66.0885L48.1653-68.9707L48.1653-83.7415L48.1653-85.7831L48.1653-85.9032L48.1653-85.9032C48.0452-88.9053 45.5234-91.4273 42.5212-91.4273L13.8199-91.4273C10.6976-91.4273 8.17572-89.0254 8.17572-85.9032L8.17572-85.9032L8.17572-85.663L8.17572-83.6214L8.17572-68.8506L8.17572-66.0885L8.05562-66.0885ZM13.8199-89.0254L42.4011-89.0254C44.2025-89.0254 45.7636-87.5844 45.7636-85.663L45.7636-83.6214C45.7636-81.8201 44.3224-80.2589 42.4011-80.2589L13.8199-80.2589C12.0186-80.2589 10.4574-81.7 10.4574-83.6214L10.4574-85.7831C10.4574-87.5844 12.0186-89.0254 13.8199-89.0254ZM10.4574-79.0581C11.4181-78.3375 12.4989-77.9773 13.8199-77.9773L42.4011-77.9773C43.602-77.9773 44.8028-78.3375 45.7636-79.0581L45.7636-59.0032C45.7636-56.6015 43.8422-54.6801 41.4403-54.6801L14.7806-54.6801C12.3788-54.6801 10.4574-56.6015 10.4574-59.0032L10.4574-79.0581ZM14.7806-82.0603C13.2195-82.0603 12.0186-83.3814 12.1387-84.9425C12.2587-86.3835 13.5798-87.3442 14.9007-87.3442L41.3202-87.3442C42.7613-87.3442 43.9623-86.2634 44.0824-84.9425C44.2025-83.3814 43.0015-82.0603 41.4403-82.0603L14.7806-82.0603ZM13.8199-3.02947C8.53599-3.02947 4.21278-7.23255 4.21278-12.5165L4.21278-51.1852C6.37438-48.303 9.85696-46.3815 13.8199-46.3815L42.281-46.3815C46.2439-46.3815 49.7264-48.303 51.8881-51.1852L51.8881-12.6366C51.8881-7.35265 47.5649-3.02947 42.281-3.02947L34.8355-3.02947L21.2654-3.02947L13.8199-3.02947ZM28.3325-12.4217C33.7852-12.4217 37.7347-15.8555 37.9116-20.7187L32.7241-20.7187C32.4146-18.4345 30.6757-16.9313 28.3472-16.9313C25.3703-16.9313 23.5577-19.4955 23.5577-23.6514C23.5577-27.7925 25.3703-30.3273 28.3325-30.3273C30.6609-30.3273 32.4146-28.7652 32.6947-26.4514L37.8968-26.4514C37.7347-31.2705 33.682-34.8368 28.3325-34.8368C21.9513-34.8368 18.046-30.5778 18.046-23.6367C18.046-16.6955 21.9661-12.4217 28.3325-12.4217ZM20.0645-0.640009L36.1564-0.640009L36.1564 12.5698C36.1564 17.0131 32.5538 20.6157 28.1105 20.6157C23.6672 20.6157 20.0645 17.0131 20.0645 12.5698L20.0645-0.640009Z"/>
  </g>
  <g id="Light-M" transform="matrix(1 0 0 1 1125.07 1126)">
   <path d="M8.5775-65.2546C6.35645-63.5012 4.83679-60.8126 4.83679-57.7733C4.83679-52.6297 9.0451-48.4215 14.1886-48.4215L42.0102-48.4215C47.1537-48.4215 51.3619-52.6297 51.3619-57.7733C51.3619-60.8126 49.8423-63.5012 47.6212-65.2546L47.6212-68.0602L47.6212-82.4385L47.6212-84.4258L47.6212-84.5427L47.6212-84.5427C47.5043-87.4651 45.0495-89.92 42.1271-89.92L14.1886-89.92C11.1493-89.92 8.69441-87.582 8.69441-84.5427L8.69441-84.5427L8.69441-84.3089L8.69441-82.3216L8.69441-67.9433L8.69441-65.2546L8.5775-65.2546ZM14.1886-87.582L42.0102-87.582C43.7637-87.582 45.2833-86.1793 45.2833-84.3089L45.2833-82.3216C45.2833-80.5682 43.8805-79.0485 42.0102-79.0485L14.1886-79.0485C12.4351-79.0485 10.9155-80.4513 10.9155-82.3216L10.9155-84.4258C10.9155-86.1793 12.4351-87.582 14.1886-87.582ZM10.9155-77.8796C11.8506-77.1782 12.9027-76.8276 14.1886-76.8276L42.0102-76.8276C43.1791-76.8276 44.3481-77.1782 45.2833-77.8796L45.2833-58.3577C45.2833-56.0198 43.413-54.1495 41.075-54.1495L15.1238-54.1495C12.7858-54.1495 10.9155-56.0198 10.9155-58.3577L10.9155-77.8796ZM15.1238-80.802C13.6041-80.802 12.4351-82.0879 12.552-83.6076C12.6689-85.0103 13.9548-85.9455 15.2407-85.9455L40.9581-85.9455C42.3608-85.9455 43.5299-84.8934 43.6468-83.6076C43.7637-82.0879 42.5946-80.802 41.075-80.802L15.1238-80.802ZM14.1886-3.87155C9.0451-3.87155 4.83679-7.96293 4.83679-13.1064L4.83679-50.7474C6.94094-47.9418 10.331-46.0715 14.1886-46.0715L41.8933-46.0715C45.7508-46.0715 49.1408-47.9418 51.245-50.7474L51.245-13.2233C51.245-8.07983 47.0368-3.87155 41.8933-3.87155L34.6456-3.87155L21.4362-3.87155L14.1886-3.87155ZM28.3155-13.0142C33.6233-13.0142 37.4678-16.3567 37.64-21.0907L32.5904-21.0907C32.2891-18.8671 30.5964-17.4039 28.3298-17.4039C25.432-17.4039 23.6675-19.9 23.6675-23.9454C23.6675-27.9765 25.432-30.4439 28.3155-30.4439C30.582-30.4439 32.2891-28.9233 32.5617-26.671L37.6256-26.671C37.4678-31.362 33.5229-34.8336 28.3155-34.8336C22.1039-34.8336 18.3024-30.6878 18.3024-23.9311C18.3024-17.1744 22.1182-13.0142 28.3155-13.0142ZM20.2672-1.54559L35.9315-1.54559L35.9315 11.3131C35.9315 15.6383 32.4246 19.1452 28.0994 19.1452C23.7742 19.1452 20.2672 15.6383 20.2672 11.3131L20.2672-1.54559Z"/>
  </g>
  <g id="Thin-M" transform="matrix(1 0 0 1 828.804 1126)">
   <path d="M9.26773-64.1518C7.12688-62.4617 5.66209-59.8702 5.66209-56.9406C5.66209-51.9828 9.71844-47.9265 14.6762-47.9265L41.4932-47.9265C46.4509-47.9265 50.5072-51.9828 50.5072-56.9406C50.5072-59.8702 49.0424-62.4617 46.9016-64.1518L46.9016-66.8561L46.9016-80.7152L46.9016-82.6307L46.9016-82.7434L46.9016-82.7434C46.7889-85.5603 44.4227-87.9266 41.6059-87.9266L14.6762-87.9266C11.7466-87.9266 9.38041-85.673 9.38041-82.7434L9.38041-82.7434L9.38041-82.5181L9.38041-80.6026L9.38041-66.7435L9.38041-64.1518L9.26773-64.1518ZM14.6762-85.673L41.4932-85.673C43.1833-85.673 44.6481-84.3209 44.6481-82.5181L44.6481-80.6026C44.6481-78.9124 43.2959-77.4476 41.4932-77.4476L14.6762-77.4476C12.986-77.4476 11.5213-78.7997 11.5213-80.6026L11.5213-82.6307C11.5213-84.3209 12.986-85.673 14.6762-85.673ZM11.5213-76.3209C12.4227-75.6448 13.4368-75.3069 14.6762-75.3069L41.4932-75.3069C42.6199-75.3069 43.7466-75.6448 44.6481-76.3209L44.6481-57.5039C44.6481-55.2505 42.8453-53.4477 40.5917-53.4477L15.5776-53.4477C13.3241-53.4477 11.5213-55.2505 11.5213-57.5039L11.5213-76.3209ZM15.5776-79.1378C14.1128-79.1378 12.986-80.3773 13.0987-81.8421C13.2114-83.1942 14.4509-84.0955 15.6903-84.0955L40.479-84.0955C41.8311-84.0955 42.958-83.0815 43.0707-81.8421C43.1833-80.3773 42.0565-79.1378 40.5917-79.1378L15.5776-79.1378ZM14.6762-4.98526C9.71844-4.98526 5.66209-8.9289 5.66209-13.8867L5.66209-50.1685C7.69027-47.4642 10.9579-45.6614 14.6762-45.6614L41.3805-45.6614C45.0987-45.6614 48.3663-47.4642 50.3945-50.1685L50.3945-13.9993C50.3945-9.04159 46.3383-4.98526 41.3805-4.98526L34.3946-4.98526L21.6621-4.98526L14.6762-4.98526ZM28.293-13.7978C33.4091-13.7978 37.1149-17.0196 37.2808-21.5826L32.4135-21.5826C32.1232-19.4394 30.4915-18.029 28.3068-18.029C25.5137-18.029 23.8129-20.4349 23.8129-24.3343C23.8129-28.2198 25.5137-30.5981 28.293-30.5981C30.4777-30.5981 32.1232-29.1324 32.3859-26.9615L37.267-26.9615C37.1149-31.483 33.3123-34.8293 28.293-34.8293C22.3057-34.8293 18.6414-30.8332 18.6414-24.3204C18.6414-17.8077 22.3195-13.7978 28.293-13.7978ZM20.5353-2.7433L35.634-2.7433L35.634 9.65109C35.634 13.8201 32.2537 17.2004 28.0847 17.2004C23.9156 17.2004 20.5353 13.8201 20.5353 9.65109L20.5353-2.7433Z"/>
  </g>
  <g id="Ultralight-M" transform="matrix(1 0 0 1 532.32 1126)">
   <path d="M9.62126-63.587C7.52149-61.9293 6.08481-59.3875 6.08481-56.5142C6.08481-51.6514 10.0633-47.673 14.926-47.673L41.2284-47.673C46.091-47.673 50.0695-51.6514 50.0695-56.5142C50.0695-59.3875 48.6328-61.9293 46.533-63.587L46.533-66.2394L46.533-79.8326L46.533-81.7113L46.533-81.8218L46.533-81.8218C46.4225-84.5847 44.1017-86.9055 41.3389-86.9055L14.926-86.9055C12.0526-86.9055 9.73178-84.6952 9.73178-81.8218L9.73178-81.8218L9.73178-81.6008L9.73178-79.722L9.73178-66.1289L9.73178-63.587L9.62126-63.587ZM14.926-84.6952L41.2284-84.6952C42.8861-84.6952 44.3228-83.369 44.3228-81.6008L44.3228-79.722C44.3228-78.0643 42.9965-76.6277 41.2284-76.6277L14.926-76.6277C13.2682-76.6277 11.8316-77.9538 11.8316-79.722L11.8316-81.7113C11.8316-83.369 13.2682-84.6952 14.926-84.6952ZM11.8316-75.5226C12.7157-74.8594 13.7103-74.528 14.926-74.528L41.2284-74.528C42.3335-74.528 43.4386-74.8594 44.3228-75.5226L44.3228-57.0667C44.3228-54.8564 42.5545-53.0882 40.3442-53.0882L15.8101-53.0882C13.5998-53.0882 11.8316-54.8564 11.8316-57.0667L11.8316-75.5226ZM15.8101-78.2854C14.3734-78.2854 13.2682-79.5011 13.3788-80.9378C13.4893-82.2639 14.705-83.148 15.9206-83.148L40.2337-83.148C41.5598-83.148 42.6651-82.1534 42.7756-80.9378C42.8861-79.5011 41.7809-78.2854 40.3442-78.2854L15.8101-78.2854ZM14.926-5.5557C10.0633-5.5557 6.08481-9.42367 6.08481-14.2863L6.08481-49.872C8.07407-47.2195 11.279-45.4513 14.926-45.4513L41.1179-45.4513C44.7647-45.4513 47.9696-47.2195 49.9589-49.872L49.9589-14.3968C49.9589-9.5342 45.9805-5.5557 41.1179-5.5557L34.266-5.5557L21.7778-5.5557L14.926-5.5557ZM28.2814-14.1991C33.2994-14.1991 36.9341-17.3591 37.0968-21.8346L32.3229-21.8346C32.0381-19.7325 30.4378-18.3491 28.295-18.3491C25.5555-18.3491 23.8873-20.7089 23.8873-24.5334C23.8873-28.3444 25.5555-30.6771 28.2814-30.6771C30.4242-30.6771 32.0381-29.2395 32.2958-27.1102L37.0832-27.1102C36.9341-31.545 33.2045-34.8271 28.2814-34.8271C22.4091-34.8271 18.8151-30.9076 18.8151-24.5199C18.8151-18.1321 22.4226-14.1991 28.2814-14.1991ZM20.6727-3.35675L35.4816-3.35675L35.4816 8.79981C35.4816 12.8888 32.1662 16.2043 28.0772 16.2043C23.9881 16.2043 20.6727 12.8888 20.6727 8.79981L20.6727-3.35675Z"/>
  </g>
  <g id="Black-S" transform="matrix(1 0 0 1 2908.94 696)">
   <path d="M7.28448-61.3429C5.33432-59.8033 4-57.4426 4-54.774C4-50.2577 7.69505-46.5627 12.2113-46.5627L36.6396-46.5627C41.1558-46.5627 44.8508-50.2577 44.8508-54.774C44.8508-57.4426 43.5165-59.8033 41.5663-61.3429L41.5663-63.8063L41.5663-76.431L41.5663-78.1759L41.5663-78.2785L41.5663-78.2785C41.4636-80.8445 39.3082-83 36.7423-83L12.2113-83C9.54258-83 7.38713-80.9472 7.38713-78.2785L7.38713-78.2785L7.38713-78.0732L7.38713-76.3283L7.38713-63.7037L7.38713-61.3429L7.28448-61.3429ZM12.2113-80.9472L36.6396-80.9472C38.1792-80.9472 39.5135-79.7155 39.5135-78.0732L39.5135-76.3283C39.5135-74.7887 38.2818-73.4544 36.6396-73.4544L12.2113-73.4544C10.6716-73.4544 9.33729-74.6861 9.33729-76.3283L9.33729-78.1759C9.33729-79.7155 10.6716-80.9472 12.2113-80.9472ZM9.33729-72.4281C10.1584-71.8122 11.0822-71.5043 12.2113-71.5043L36.6396-71.5043C37.666-71.5043 38.6924-71.8122 39.5135-72.4281L39.5135-55.2871C39.5135-53.2344 37.8713-51.5921 35.8185-51.5921L13.0323-51.5921C10.9795-51.5921 9.33729-53.2344 9.33729-55.2871L9.33729-72.4281ZM13.0323-74.994C11.698-74.994 10.6716-76.1232 10.7743-77.4575C10.8769-78.6891 12.006-79.5102 13.135-79.5102L35.7158-79.5102C36.9475-79.5102 37.9739-78.5865 38.0766-77.4575C38.1792-76.1232 37.1528-74.994 35.8185-74.994L13.0323-74.994ZM12.2113-7.44628C7.69505-7.44628 4-11.0387 4-15.5548L4-48.605C5.84753-46.1416 8.82409-44.4994 12.2113-44.4994L36.537-44.4994C39.924-44.4994 42.9006-46.1416 44.7481-48.605L44.7481-15.6575C44.7481-11.1413 41.0531-7.44628 36.537-7.44628L30.1733-7.44628L18.5749-7.44628L12.2113-7.44628ZM24.6151-15.4739C29.2756-15.4739 32.6513-18.4087 32.8024-22.5653L28.3687-22.5653C28.1042-20.613 26.6179-19.3282 24.6277-19.3282C22.0834-19.3282 20.5341-21.5199 20.5341-25.0719C20.5341-28.6113 22.0834-30.7778 24.6151-30.7778C26.6053-30.7778 28.1042-29.4426 28.3435-27.4651L32.7898-27.4651C32.6513-31.5839 29.1874-34.6321 24.6151-34.6321C19.1612-34.6321 15.8233-30.9919 15.8233-25.0593C15.8233-19.1267 19.1738-15.4739 24.6151-15.4739ZM17.5485-5.404L31.3023-5.404L31.3023 5.88642C31.3023 9.68411 28.2231 12.7633 24.4254 12.7633C20.6277 12.7633 17.5485 9.68411 17.5485 5.88642L17.5485-5.404Z"/>
  </g>
  <g id="Heavy-S" transform="matrix(1 0 0 1 2612.71 696)">
   <path d="M6.99571-60.9827C5.07687-59.4678 3.76398-57.145 3.76398-54.5193C3.76398-50.0755 7.39969-46.4399 11.8434-46.4399L35.8794-46.4399C40.323-46.4399 43.9587-50.0755 43.9587-54.5193C43.9587-57.145 42.6458-59.4678 40.7269-60.9827L40.7269-63.4065L40.7269-75.8284L40.7269-77.5453L40.7269-77.6463L40.7269-77.6463C40.6259-80.1711 38.5052-82.2919 35.9804-82.2919L11.8434-82.2919C9.21754-82.2919 7.09671-80.2721 7.09671-77.6463L7.09671-77.6463L7.09671-77.4443L7.09671-75.7274L7.09671-63.3055L7.09671-60.9827L6.99571-60.9827ZM11.8434-80.2721L35.8794-80.2721C37.3943-80.2721 38.7072-79.0602 38.7072-77.4443L38.7072-75.7274C38.7072-74.2126 37.4952-72.8997 35.8794-72.8997L11.8434-72.8997C10.3284-72.8997 9.01555-74.1116 9.01555-75.7274L9.01555-77.5453C9.01555-79.0602 10.3284-80.2721 11.8434-80.2721ZM9.01555-71.8898C9.82349-71.2838 10.7324-70.9809 11.8434-70.9809L35.8794-70.9809C36.8893-70.9809 37.8992-71.2838 38.7072-71.8898L38.7072-55.0241C38.7072-53.0044 37.0913-51.3885 35.0714-51.3885L12.6512-51.3885C10.6314-51.3885 9.01555-53.0044 9.01555-55.0241L9.01555-71.8898ZM12.6512-74.4146C11.3384-74.4146 10.3284-75.5255 10.4294-76.8384C10.5304-78.0503 11.6414-78.8582 12.7522-78.8582L34.9704-78.8582C36.1823-78.8582 37.1923-77.9493 37.2933-76.8384C37.3943-75.5255 36.3843-74.4146 35.0714-74.4146L12.6512-74.4146ZM11.8434-7.95163C7.39969-7.95163 3.76398-11.4863 3.76398-15.93L3.76398-48.4494C5.58183-46.0255 8.51059-44.4096 11.8434-44.4096L35.7784-44.4096C39.1111-44.4096 42.0398-46.0255 43.8577-48.4494L43.8577-16.031C43.8577-11.5873 40.222-7.95163 35.7784-7.95163L29.5169-7.95163L18.1048-7.95163L11.8434-7.95163ZM24.048-15.8503C28.6336-15.8503 31.9551-18.738 32.1038-22.8278L27.7413-22.8278C27.481-20.9069 26.0186-19.6427 24.0604-19.6427C21.5569-19.6427 20.0325-21.7992 20.0325-25.2942C20.0325-28.7767 21.5569-30.9084 24.048-30.9084C26.0062-30.9084 27.481-29.5947 27.7165-27.6489L32.0914-27.6489C31.9551-31.7016 28.5469-34.7008 24.048-34.7008C18.6816-34.7008 15.3974-31.1191 15.3974-25.2818C15.3974-19.4444 18.694-15.8503 24.048-15.8503ZM17.0949-5.94216L30.6278-5.94216L30.6278 5.16694C30.6278 8.90363 27.598 11.9334 23.8614 11.9334C20.1246 11.9334 17.0949 8.90363 17.0949 5.16694L17.0949-5.94216Z"/>
  </g>
  <g id="Bold-S" transform="matrix(1 0 0 1 2316.54 696)">
   <path d="M6.67273-60.5797C4.78892-59.0925 3.5-56.8122 3.5-54.2343C3.5-49.8717 7.06933-46.3024 11.4319-46.3024L35.0291-46.3024C39.3916-46.3024 42.9609-49.8717 42.9609-54.2343C42.9609-56.8122 41.672-59.0925 39.7882-60.5797L39.7882-62.9594L39.7882-75.1545L39.7882-76.84L39.7882-76.9392L39.7882-76.9392C39.689-79.4178 37.607-81.5 35.1283-81.5L11.4319-81.5C8.854-81.5 6.77189-79.517 6.77189-76.9392L6.77189-76.9392L6.77189-76.7409L6.77189-75.0553L6.77189-62.8602L6.77189-60.5797L6.67273-60.5797ZM11.4319-79.517L35.0291-79.517C36.5163-79.517 37.8053-78.3272 37.8053-76.7409L37.8053-75.0553C37.8053-73.5681 36.6154-72.2792 35.0291-72.2792L11.4319-72.2792C9.94462-72.2792 8.6557-73.469 8.6557-75.0553L8.6557-76.84C8.6557-78.3272 9.94462-79.517 11.4319-79.517ZM8.6557-71.2878C9.44889-70.6928 10.3412-70.3955 11.4319-70.3955L35.0291-70.3955C36.0206-70.3955 37.012-70.6928 37.8053-71.2878L37.8053-54.73C37.8053-52.7471 36.2189-51.1607 34.2359-51.1607L12.225-51.1607C10.2421-51.1607 8.6557-52.7471 8.6557-54.73L8.6557-71.2878ZM12.225-73.7664C10.9361-73.7664 9.94462-74.8571 10.0438-76.146C10.1429-77.3358 11.2336-78.1289 12.3242-78.1289L34.1367-78.1289C35.3265-78.1289 36.318-77.2366 36.4172-76.146C36.5163-74.8571 35.5248-73.7664 34.2359-73.7664L12.225-73.7664ZM11.4319-8.51685C7.06933-8.51685 3.5-11.987 3.5-16.3495L3.5-48.2753C5.28467-45.8957 8.15996-44.3093 11.4319-44.3093L34.93-44.3093C38.2018-44.3093 41.0771-45.8957 42.8618-48.2753L42.8618-16.4487C42.8618-12.0862 39.2925-8.51685 34.93-8.51685L28.7828-8.51685L17.579-8.51685L11.4319-8.51685ZM23.4137-16.2713C27.9156-16.2713 31.1765-19.1063 31.3225-23.1215L27.0396-23.1215C26.7841-21.2356 25.3483-19.9945 23.4259-19.9945C20.9681-19.9945 19.4716-22.1116 19.4716-25.5428C19.4716-28.9618 20.9681-31.0545 23.4137-31.0545C25.3362-31.0545 26.7841-29.7648 27.0153-27.8546L31.3103-27.8546C31.1765-31.8332 27.8305-34.7777 23.4137-34.7777C18.1453-34.7777 14.921-31.2614 14.921-25.5306C14.921-19.7998 18.1575-16.2713 23.4137-16.2713ZM16.5875-6.54406L29.8734-6.54406L29.8734 4.36222C29.8734 8.0307 26.8989 11.0051 23.2305 11.0051C19.562 11.0051 16.5875 8.0307 16.5875 4.36222L16.5875-6.54406Z"/>
  </g>
  <g id="Semibold-S" transform="matrix(1 0 0 1 2020.2 696)">
   <path d="M6.45006-60.3019C4.5904-58.8338 3.318-56.5827 3.318-54.0379C3.318-49.7312 6.84157-46.2077 11.1482-46.2077L34.4429-46.2077C38.7495-46.2077 42.273-49.7312 42.273-54.0379C42.273-56.5827 41.0006-58.8338 39.1409-60.3019L39.1409-62.6511L39.1409-74.6898L39.1409-76.3538L39.1409-76.4517L39.1409-76.4517C39.043-78.8985 36.9877-80.954 34.5408-80.954L11.1482-80.954C8.60336-80.954 6.54794-78.9964 6.54794-76.4517L6.54794-76.4517L6.54794-76.2559L6.54794-74.592L6.54794-62.5532L6.54794-60.3019L6.45006-60.3019ZM11.1482-78.9964L34.4429-78.9964C35.9111-78.9964 37.1834-77.8219 37.1834-76.2559L37.1834-74.592C37.1834-73.1238 36.0088-71.8514 34.4429-71.8514L11.1482-71.8514C9.68-71.8514 8.4076-73.0259 8.4076-74.592L8.4076-76.3538C8.4076-77.8219 9.68-78.9964 11.1482-78.9964ZM8.4076-70.8727C9.19062-70.2854 10.0715-69.9918 11.1482-69.9918L34.4429-69.9918C35.4216-69.9918 36.4004-70.2854 37.1834-70.8727L37.1834-54.5272C37.1834-52.5697 35.6174-51.0037 33.6598-51.0037L11.9312-51.0037C9.97363-51.0037 8.4076-52.5697 8.4076-54.5272L8.4076-70.8727ZM11.9312-73.3196C10.6588-73.3196 9.68-74.3963 9.77788-75.6687C9.87575-76.8432 10.9524-77.6262 12.029-77.6262L33.5619-77.6262C34.7365-77.6262 35.7153-76.7453 35.8132-75.6687C35.9111-74.3963 34.9322-73.3196 33.6598-73.3196L11.9312-73.3196ZM11.1482-8.90654C6.84157-8.90654 3.318-12.3322 3.318-16.6388L3.318-48.1552C5.07979-45.8061 7.91821-44.2401 11.1482-44.2401L34.345-44.2401C37.5749-44.2401 40.4133-45.8061 42.1751-48.1552L42.1751-16.7367C42.1751-12.4301 38.6516-8.90654 34.345-8.90654L28.2766-8.90654L17.2165-8.90654L11.1482-8.90654ZM22.9764-16.5616C27.4206-16.5616 30.6396-19.3602 30.7838-23.3239L26.5558-23.3239C26.3036-21.4622 24.8862-20.237 22.9885-20.237C20.5622-20.237 19.0848-22.327 19.0848-25.7142C19.0848-29.0893 20.5622-31.1553 22.9764-31.1553C24.8742-31.1553 26.3036-29.8821 26.5318-27.9963L30.7718-27.9963C30.6396-31.924 27.3365-34.8307 22.9764-34.8307C17.7756-34.8307 14.5926-31.3595 14.5926-25.7022C14.5926-20.0449 17.7876-16.5616 22.9764-16.5616ZM16.2377-6.95905L29.3533-6.95905L29.3533 3.80742C29.3533 7.42886 26.4169 10.3652 22.7955 10.3652C19.1741 10.3652 16.2377 7.42886 16.2377 3.80742L16.2377-6.95905Z"/>
  </g>
  <g id="Medium-S" transform="matrix(1 0 0 1 1723.77 696)">
   <path d="M6.28121-60.0913C4.43987-58.6376 3.18-56.4087 3.18-53.8889C3.18-49.6247 6.66887-46.1359 10.9331-46.1359L33.9984-46.1359C38.2626-46.1359 41.7514-49.6247 41.7514-53.8889C41.7514-56.4087 40.4915-58.6376 38.6502-60.0913L38.6502-62.4173L38.6502-74.3375L38.6502-75.9851L38.6502-76.082L38.6502-76.082C38.5532-78.5048 36.5181-80.54 34.0953-80.54L10.9331-80.54C8.41331-80.54 6.37813-78.6017 6.37813-76.082L6.37813-76.082L6.37813-75.8881L6.37813-74.2406L6.37813-62.3204L6.37813-60.0913L6.28121-60.0913ZM10.9331-78.6017L33.9984-78.6017C35.4521-78.6017 36.712-77.4388 36.712-75.8881L36.712-74.2406C36.712-72.7869 35.5489-71.5271 33.9984-71.5271L10.9331-71.5271C9.47935-71.5271 8.21948-72.69 8.21948-74.2406L8.21948-75.9851C8.21948-77.4388 9.47935-78.6017 10.9331-78.6017ZM8.21948-70.558C8.99479-69.9764 9.86701-69.6858 10.9331-69.6858L33.9984-69.6858C34.9675-69.6858 35.9366-69.9764 36.712-70.558L36.712-54.3734C36.712-52.4353 35.1613-50.8846 33.223-50.8846L11.7083-50.8846C9.77009-50.8846 8.21948-52.4353 8.21948-54.3734L8.21948-70.558ZM11.7083-72.9808C10.4485-72.9808 9.47935-74.0469 9.57627-75.3067C9.67318-76.4697 10.7392-77.2449 11.8053-77.2449L33.1261-77.2449C34.2891-77.2449 35.2583-76.3727 35.3552-75.3067C35.4521-74.0469 34.4829-72.9808 33.223-72.9808L11.7083-72.9808ZM10.9331-9.20202C6.66887-9.20202 3.18-12.594 3.18-16.8581L3.18-48.0642C4.92444-45.7382 7.73491-44.1876 10.9331-44.1876L33.9015-44.1876C37.0995-44.1876 39.91-45.7382 41.6545-48.0642L41.6545-16.955C41.6545-12.6909 38.1657-9.20202 33.9015-9.20202L27.8929-9.20202L16.9416-9.20202L10.9331-9.20202ZM22.6449-16.7817C27.0453-16.7817 30.2326-19.5528 30.3753-23.4774L26.189-23.4774C25.9392-21.634 24.5358-20.4209 22.6568-20.4209C20.2544-20.4209 18.7915-22.4903 18.7915-25.8441C18.7915-29.1861 20.2544-31.2317 22.6449-31.2317C24.5239-31.2317 25.9392-29.971 26.1652-28.1038L30.3634-28.1038C30.2326-31.9928 26.962-34.8709 22.6449-34.8709C17.4952-34.8709 14.3436-31.4339 14.3436-25.8323C14.3436-20.2307 17.5071-16.7817 22.6449-16.7817ZM15.9725-7.2737L28.9589-7.2737L28.9589 3.38674C28.9589 6.97252 26.0515 9.87991 22.4657 9.87991C18.8799 9.87991 15.9725 6.97252 15.9725 3.38674L15.9725-7.2737Z"/>
  </g>
  <g id="Regular-S" transform="matrix(1 0 0 1 1427.43 696)">
   <path d="M6.06098-59.8166C4.24352-58.3817 3-56.1817 3-53.6947C3-49.4857 6.44362-46.0422 10.6525-46.0422L33.4186-46.0422C37.6275-46.0422 41.071-49.4857 41.071-53.6947C41.071-56.1817 39.8275-58.3817 38.01-59.8166L38.01-62.1124L38.01-73.878L38.01-75.5042L38.01-75.5998L38.01-75.5998C37.9144-77.9912 35.9057-80 33.5143-80L10.6525-80C8.16542-80 6.15665-78.0868 6.15665-75.5998L6.15665-75.5998L6.15665-75.4085L6.15665-73.7823L6.15665-62.0167L6.15665-59.8166L6.06098-59.8166ZM10.6525-78.0868L33.4186-78.0868C34.8535-78.0868 36.097-76.939 36.097-75.4085L36.097-73.7823C36.097-72.3475 34.949-71.104 33.4186-71.104L10.6525-71.104C9.21763-71.104 7.97411-72.2518 7.97411-73.7823L7.97411-75.5042C7.97411-76.939 9.21763-78.0868 10.6525-78.0868ZM7.97411-70.1474C8.73936-69.5735 9.60026-69.2866 10.6525-69.2866L33.4186-69.2866C34.3751-69.2866 35.3317-69.5735 36.097-70.1474L36.097-54.1729C36.097-52.2598 34.5665-50.7293 32.6533-50.7293L11.4177-50.7293C9.5046-50.7293 7.97411-52.2598 7.97411-54.1729L7.97411-70.1474ZM11.4177-72.5388C10.1742-72.5388 9.21763-73.5911 9.3133-74.8346C9.40895-75.9825 10.4612-76.7477 11.5134-76.7477L32.5577-76.7477C33.7055-76.7477 34.6621-75.8868 34.7578-74.8346C34.8535-73.5911 33.8968-72.5388 32.6533-72.5388L11.4177-72.5388ZM10.6525-9.58743C6.44362-9.58743 3-12.9354 3-17.1442L3-47.9455C4.72181-45.6497 7.49582-44.1192 10.6525-44.1192L33.323-44.1192C36.4795-44.1192 39.2535-45.6497 40.9754-47.9455L40.9754-17.2399C40.9754-13.031 37.5318-9.58743 33.323-9.58743L27.3923-9.58743L16.5831-9.58743L10.6525-9.58743ZM22.2124-17.0688C26.5557-17.0688 29.7017-19.8039 29.8425-23.6777L25.7105-23.6777C25.464-21.8582 24.0788-20.6608 22.2241-20.6608C19.8529-20.6608 18.409-22.7034 18.409-26.0137C18.409-29.3122 19.8529-31.3313 22.2124-31.3313C24.0671-31.3313 25.464-30.087 25.687-28.244L29.8308-28.244C29.7017-32.0826 26.4735-34.9234 22.2124-34.9234C17.1295-34.9234 14.0187-31.5309 14.0187-26.0019C14.0187-20.473 17.1412-17.0688 22.2124-17.0688ZM15.6266-7.68413L28.4445-7.68413L28.4445 2.83803C28.4445 6.37729 25.5748 9.24696 22.0356 9.24696C18.4962 9.24696 15.6266 6.37729 15.6266 2.83803L15.6266-7.68413Z"/>
  </g>
  <g id="Light-S" transform="matrix(1 0 0 1 1131.01 696)">
   <path d="M6.52265-59.079C4.75883-57.6865 3.55201-55.5514 3.55201-53.1377C3.55201-49.053 6.89399-45.7111 10.9787-45.7111L33.0728-45.7111C37.1574-45.7111 40.4994-49.053 40.4994-53.1377C40.4994-55.5514 39.2926-57.6865 37.5287-59.079L37.5287-61.307L37.5287-72.7253L37.5287-74.3035L37.5287-74.3964L37.5287-74.3964C37.4359-76.7171 35.4864-78.6667 33.1657-78.6667L10.9787-78.6667C8.56497-78.6667 6.61549-76.81 6.61549-74.3964L6.61549-74.3964L6.61549-74.2107L6.61549-72.6325L6.61549-61.2142L6.61549-59.079L6.52265-59.079ZM10.9787-76.81L33.0728-76.81C34.4653-76.81 35.6721-75.696 35.6721-74.2107L35.6721-72.6325C35.6721-71.24 34.558-70.0332 33.0728-70.0332L10.9787-70.0332C9.58613-70.0332 8.3793-71.1472 8.3793-72.6325L8.3793-74.3035C8.3793-75.696 9.58613-76.81 10.9787-76.81ZM8.3793-69.1049C9.12197-68.5479 9.95746-68.2695 10.9787-68.2695L33.0728-68.2695C34.0011-68.2695 34.9294-68.5479 35.6721-69.1049L35.6721-53.6018C35.6721-51.7453 34.1868-50.2599 32.3301-50.2599L11.7213-50.2599C9.86462-50.2599 8.3793-51.7453 8.3793-53.6018L8.3793-69.1049ZM11.7213-71.4257C10.5145-71.4257 9.58613-72.4469 9.67897-73.6537C9.77179-74.7677 10.793-75.5103 11.8141-75.5103L32.2373-75.5103C33.3512-75.5103 34.2796-74.6749 34.3725-73.6537C34.4653-72.4469 33.5369-71.4257 32.3301-71.4257L11.7213-71.4257ZM10.9787-10.3323C6.89399-10.3323 3.55201-13.5815 3.55201-17.6661L3.55201-47.5583C5.223-45.3302 7.91514-43.8449 10.9787-43.8449L32.98-43.8449C36.0434-43.8449 38.7355-45.3302 40.4065-47.5583L40.4065-17.7589C40.4065-13.6743 37.0646-10.3323 32.98-10.3323L27.2243-10.3323L16.7342-10.3323L10.9787-10.3323ZM22.1973-17.5929C26.4124-17.5929 29.4656-20.2473 29.6023-24.0067L25.5922-24.0067C25.353-22.2409 24.0087-21.0789 22.2087-21.0789C19.9075-21.0789 18.5062-23.0611 18.5062-26.2738C18.5062-29.475 19.9075-31.4344 22.1973-31.4344C23.9973-31.4344 25.353-30.2269 25.5694-28.4383L29.5909-28.4383C29.4656-32.1635 26.3327-34.9205 22.1973-34.9205C17.2645-34.9205 14.2455-31.6281 14.2455-26.2624C14.2455-20.8966 17.2759-17.5929 22.1973-17.5929ZM15.8059-8.48522L28.2455-8.48522L28.2455 1.72637C28.2455 5.16118 25.4605 7.94615 22.0257 7.94615C18.5909 7.94615 15.8059 5.16118 15.8059 1.72637L15.8059-8.48522Z"/>
  </g>
  <g id="Thin-S" transform="matrix(1 0 0 1 834.695 696)">
   <path d="M7.13323-58.1034C5.44036-56.7669 4.28209-54.7177 4.28209-52.4012C4.28209-48.4807 7.48964-45.2733 11.41-45.2733L32.6155-45.2733C36.5358-45.2733 39.7433-48.4807 39.7433-52.4012C39.7433-54.7177 38.585-56.7669 36.8921-58.1034L36.8921-60.2418L36.8921-71.2009L36.8921-72.7156L36.8921-72.8047L36.8921-72.8047C36.803-75.0321 34.932-76.9032 32.7046-76.9032L11.41-76.9032C9.09341-76.9032 7.22234-75.1212 7.22234-72.8047L7.22234-72.8047L7.22234-72.6265L7.22234-71.1118L7.22234-60.1527L7.22234-58.1034L7.13323-58.1034ZM11.41-75.1212L32.6155-75.1212C33.9519-75.1212 35.1102-74.0521 35.1102-72.6265L35.1102-71.1118C35.1102-69.7753 34.041-68.617 32.6155-68.617L11.41-68.617C10.0735-68.617 8.91521-69.6862 8.91521-71.1118L8.91521-72.7156C8.91521-74.0521 10.0735-75.1212 11.41-75.1212ZM8.91521-67.7261C9.628-67.1915 10.4299-66.9242 11.41-66.9242L32.6155-66.9242C33.5064-66.9242 34.3974-67.1915 35.1102-67.7261L35.1102-52.8466C35.1102-51.0647 33.6846-49.6391 31.9026-49.6391L12.1228-49.6391C10.3408-49.6391 8.91521-51.0647 8.91521-52.8466L8.91521-67.7261ZM12.1228-69.9535C10.9645-69.9535 10.0735-70.9337 10.1626-72.0919C10.2517-73.1611 11.2318-73.8738 12.2119-73.8738L31.8135-73.8738C32.8827-73.8738 33.7737-73.072 33.8628-72.0919C33.9519-70.9337 33.0609-69.9535 31.9026-69.9535L12.1228-69.9535ZM11.41-11.3176C7.48964-11.3176 4.28209-14.436 4.28209-18.3563L4.28209-47.0461C5.88586-44.9077 8.46971-43.4821 11.41-43.4821L32.5264-43.4821C35.4665-43.4821 38.0504-44.9077 39.6542-47.0461L39.6542-18.4454C39.6542-14.5251 36.4467-11.3176 32.5264-11.3176L27.0022-11.3176L16.934-11.3176L11.41-11.3176ZM22.1774-18.286C26.223-18.286 29.1533-20.8337 29.2845-24.4419L25.4357-24.4419C25.2061-22.7471 23.9159-21.6318 22.1883-21.6318C19.9797-21.6318 18.6348-23.5344 18.6348-26.6178C18.6348-29.6902 19.9797-31.5709 22.1774-31.5709C23.905-31.5709 25.2061-30.4118 25.4139-28.6952L29.2736-28.6952C29.1533-32.2706 26.1464-34.9167 22.1774-34.9167C17.443-34.9167 14.5455-31.7567 14.5455-26.6068C14.5455-21.4569 17.4539-18.286 22.1774-18.286ZM16.0431-9.54473L27.9823-9.54473L27.9823 0.256115C27.9823 3.55276 25.3093 6.22571 22.0127 6.22571C18.716 6.22571 16.0431 3.55276 16.0431 0.256115L16.0431-9.54473Z"/>
  </g>
  <g id="Ultralight-S" transform="matrix(1 0 0 1 538.184 696)">
   <path d="M7.44597-57.6037C5.78944-56.2959 4.65603-54.2907 4.65603-52.0239C4.65603-48.1876 7.79472-45.049 11.6309-45.049L32.3812-45.049C36.2174-45.049 39.356-48.1876 39.356-52.0239C39.356-54.2907 38.2226-56.2959 36.5661-57.6037L36.5661-59.6963L36.5661-70.4201L36.5661-71.9022L36.5661-71.9894L36.5661-71.9894C36.4789-74.1691 34.648-76 32.4684-76L11.6309-76C9.36407-76 7.53317-74.2562 7.53317-71.9894L7.53317-71.9894L7.53317-71.8151L7.53317-70.3329L7.53317-59.6091L7.53317-57.6037L7.44597-57.6037ZM11.6309-74.2562L32.3812-74.2562C33.689-74.2562 34.8224-73.21 34.8224-71.8151L34.8224-70.3329C34.8224-69.0251 33.7761-67.8917 32.3812-67.8917L11.6309-67.8917C10.3231-67.8917 9.1897-68.9379 9.1897-70.3329L9.1897-71.9022C9.1897-73.21 10.3231-74.2562 11.6309-74.2562ZM9.1897-67.0199C9.88719-66.4967 10.6719-66.2352 11.6309-66.2352L32.3812-66.2352C33.253-66.2352 34.1249-66.4967 34.8224-67.0199L34.8224-52.4598C34.8224-50.7161 33.4274-49.3211 31.6837-49.3211L12.3284-49.3211C10.5847-49.3211 9.1897-50.7161 9.1897-52.4598L9.1897-67.0199ZM12.3284-69.1995C11.195-69.1995 10.3231-70.1586 10.4103-71.292C10.4975-72.3382 11.4566-73.0357 12.4156-73.0357L31.5965-73.0357C32.6427-73.0357 33.5146-72.251 33.6018-71.292C33.689-70.1586 32.8171-69.1995 31.6837-69.1995L12.3284-69.1995ZM11.6309-11.8222C7.79472-11.8222 4.65603-14.8737 4.65603-18.7098L4.65603-46.7838C6.22538-44.6913 8.75376-43.2963 11.6309-43.2963L32.294-43.2963C35.1711-43.2963 37.6995-44.6913 39.2688-46.7838L39.2688-18.797C39.2688-14.9609 36.1302-11.8222 32.294-11.8222L26.8885-11.8222L17.0364-11.8222L11.6309-11.8222ZM22.1672-18.6411C26.1259-18.6411 28.9934-21.134 29.1217-24.6648L25.3556-24.6648C25.1309-23.0064 23.8684-21.9151 22.1779-21.9151C20.0166-21.9151 18.7006-23.7767 18.7006-26.7939C18.7006-29.8004 20.0166-31.6407 22.1672-31.6407C23.8577-31.6407 25.1309-30.5066 25.3342-28.8268L29.111-28.8268C28.9934-32.3255 26.0511-34.9147 22.1672-34.9147C17.5344-34.9147 14.6991-31.8226 14.6991-26.7832C14.6991-21.7439 17.5451-18.6411 22.1672-18.6411ZM16.1646-10.0874L27.8475-10.0874L27.8475-0.496942C27.8475 2.72894 25.2319 5.34451 22.0061 5.34451C18.7801 5.34451 16.1646 2.72894 16.1646-0.496942L16.1646-10.0874Z"/>
  </g>
 </g>
</svg>
