<?xml version="1.0" encoding="UTF-8"?>
<!--Generator: Apple Native CoreSVG 232.5-->
<!DOCTYPE svg
PUBLIC "-//W3C//DTD SVG 1.1//EN"
       "http://www.w3.org/Graphics/SVG/1.1/DTD/svg11.dtd">
<svg version="1.1" xmlns="http://www.w3.org/2000/svg" xmlns:xlink="http://www.w3.org/1999/xlink" width="3300" height="2200">
 <g id="Notes">
  <rect height="2200" id="artboard" style="fill:white;opacity:1" width="3300" x="0" y="0"/>
  <line style="fill:none;stroke:black;opacity:1;stroke-width:0.5;" x1="263" x2="3036" y1="292" y2="292"/>
  <text style="stroke:none;fill:black;font-family:sans-serif;font-size:13;font-weight:bold;" transform="matrix(1 0 0 1 263 322)">Weight/Scale Variations</text>
  <text style="stroke:none;fill:black;font-family:sans-serif;font-size:13;text-anchor:middle;" transform="matrix(1 0 0 1 559.711 322)">Ultralight</text>
  <text style="stroke:none;fill:black;font-family:sans-serif;font-size:13;text-anchor:middle;" transform="matrix(1 0 0 1 856.422 322)">Thin</text>
  <text style="stroke:none;fill:black;font-family:sans-serif;font-size:13;text-anchor:middle;" transform="matrix(1 0 0 1 1153.13 322)">Light</text>
  <text style="stroke:none;fill:black;font-family:sans-serif;font-size:13;text-anchor:middle;" transform="matrix(1 0 0 1 1449.84 322)">Regular</text>
  <text style="stroke:none;fill:black;font-family:sans-serif;font-size:13;text-anchor:middle;" transform="matrix(1 0 0 1 1746.56 322)">Medium</text>
  <text style="stroke:none;fill:black;font-family:sans-serif;font-size:13;text-anchor:middle;" transform="matrix(1 0 0 1 2043.27 322)">Semibold</text>
  <text style="stroke:none;fill:black;font-family:sans-serif;font-size:13;text-anchor:middle;" transform="matrix(1 0 0 1 2339.98 322)">Bold</text>
  <text style="stroke:none;fill:black;font-family:sans-serif;font-size:13;text-anchor:middle;" transform="matrix(1 0 0 1 2636.69 322)">Heavy</text>
  <text style="stroke:none;fill:black;font-family:sans-serif;font-size:13;text-anchor:middle;" transform="matrix(1 0 0 1 2933.4 322)">Black</text>
  <line style="fill:none;stroke:black;opacity:1;stroke-width:0.5;" x1="263" x2="3036" y1="1903" y2="1903"/>
  <g transform="matrix(0.2 0 0 0.2 263 1933)">
   <path d="m46.2402 4.15039c21.5332 0 39.4531-17.8711 39.4531-39.4043s-17.9688-39.4043-39.502-39.4043c-21.4844 0-39.3555 17.8711-39.3555 39.4043s17.9199 39.4043 39.4043 39.4043Zm0-7.42188c-17.7246 0-31.8848-14.209-31.8848-31.9824s14.1113-31.9824 31.8359-31.9824c17.7734 0 32.0312 14.209 32.0312 31.9824s-14.209 31.9824-31.9824 31.9824Zm-17.9688-31.9824c0 2.14844 1.51367 3.61328 3.75977 3.61328h10.498v10.5957c0 2.19727 1.46484 3.71094 3.61328 3.71094 2.24609 0 3.71094-1.51367 3.71094-3.71094v-10.5957h10.5957c2.19727 0 3.71094-1.46484 3.71094-3.61328 0-2.19727-1.51367-3.71094-3.71094-3.71094h-10.5957v-10.5469c0-2.24609-1.46484-3.75977-3.71094-3.75977-2.14844 0-3.61328 1.51367-3.61328 3.75977v10.5469h-10.498c-2.24609 0-3.75977 1.51367-3.75977 3.71094Z"/>
  </g>
  <g transform="matrix(0.2 0 0 0.2 281.506 1933)">
   <path d="m58.5449 14.5508c27.2461 0 49.8047-22.6074 49.8047-49.8047 0-27.2461-22.6074-49.8047-49.8535-49.8047-27.1973 0-49.7559 22.5586-49.7559 49.8047 0 27.1973 22.6074 49.8047 49.8047 49.8047Zm0-8.30078c-23.0469 0-41.4551-18.457-41.4551-41.5039s18.3594-41.5039 41.4062-41.5039 41.5527 18.457 41.5527 41.5039-18.457 41.5039-41.5039 41.5039Zm-22.6562-41.5039c0 2.39258 1.66016 4.00391 4.15039 4.00391h14.3555v14.4043c0 2.44141 1.66016 4.15039 4.05273 4.15039 2.44141 0 4.15039-1.66016 4.15039-4.15039v-14.4043h14.4043c2.44141 0 4.15039-1.61133 4.15039-4.00391 0-2.44141-1.70898-4.15039-4.15039-4.15039h-14.4043v-14.3555c0-2.49023-1.70898-4.19922-4.15039-4.19922-2.39258 0-4.05273 1.70898-4.05273 4.19922v14.3555h-14.3555c-2.49023 0-4.15039 1.70898-4.15039 4.15039Z"/>
  </g>
  <g transform="matrix(0.2 0 0 0.2 304.924 1933)">
   <path d="m74.8535 28.3203c34.8145 0 63.623-28.8086 63.623-63.5742 0-34.8145-28.8574-63.623-63.6719-63.623-34.7656 0-63.5254 28.8086-63.5254 63.623 0 34.7656 28.8086 63.5742 63.5742 63.5742Zm0-9.08203c-30.1758 0-54.4434-24.3164-54.4434-54.4922 0-30.2246 24.2188-54.4922 54.3945-54.4922 30.2246 0 54.541 24.2676 54.541 54.4922 0 30.1758-24.2676 54.4922-54.4922 54.4922Zm-28.8574-54.4922c0 2.58789 1.85547 4.39453 4.58984 4.39453h19.7266v19.7754c0 2.68555 1.85547 4.58984 4.44336 4.58984 2.68555 0 4.54102-1.85547 4.54102-4.58984v-19.7754h19.7754c2.68555 0 4.58984-1.80664 4.58984-4.39453 0-2.73438-1.85547-4.58984-4.58984-4.58984h-19.7754v-19.7266c0-2.73438-1.85547-4.63867-4.54102-4.63867-2.58789 0-4.44336 1.9043-4.44336 4.63867v19.7266h-19.7266c-2.73438 0-4.58984 1.85547-4.58984 4.58984Z"/>
  </g>
  <text style="stroke:none;fill:black;font-family:sans-serif;font-size:13;font-weight:bold;" transform="matrix(1 0 0 1 263 1953)">Design Variations</text>
  <text style="stroke:none;fill:black;font-family:sans-serif;font-size:13;" transform="matrix(1 0 0 1 263 1971)">Symbols are supported in up to nine weights and three scales.</text>
  <text style="stroke:none;fill:black;font-family:sans-serif;font-size:13;" transform="matrix(1 0 0 1 263 1989)">For optimal layout with text and other symbols, vertically align</text>
  <text style="stroke:none;fill:black;font-family:sans-serif;font-size:13;" transform="matrix(1 0 0 1 263 2007)">symbols with the adjacent text.</text>
  <line style="fill:none;stroke:#00AEEF;stroke-width:0.5;opacity:1.0;" x1="776" x2="776" y1="1919" y2="1933"/>
  <g transform="matrix(0.2 0 0 0.2 776 1933)">
   <path d="m16.5527 0.78125c2.58789 0 3.85742-0.976562 4.78516-3.71094l6.29883-17.2363h28.8086l6.29883 17.2363c0.927734 2.73438 2.19727 3.71094 4.73633 3.71094 2.58789 0 4.24805-1.5625 4.24805-4.00391 0-0.830078-0.146484-1.61133-0.537109-2.63672l-22.9004-60.9863c-1.12305-2.97852-3.125-4.49219-6.25-4.49219-3.02734 0-5.07812 1.46484-6.15234 4.44336l-22.9004 61.084c-0.390625 1.02539-0.537109 1.80664-0.537109 2.63672 0 2.44141 1.5625 3.95508 4.10156 3.95508Zm13.4766-28.3691 11.8652-32.8613h0.244141l11.8652 32.8613Z"/>
  </g>
  <line style="fill:none;stroke:#00AEEF;stroke-width:0.5;opacity:1.0;" x1="792.836" x2="792.836" y1="1919" y2="1933"/>
  <text style="stroke:none;fill:black;font-family:sans-serif;font-size:13;font-weight:bold;" transform="matrix(1 0 0 1 776 1953)">Margins</text>
  <text style="stroke:none;fill:black;font-family:sans-serif;font-size:13;" transform="matrix(1 0 0 1 776 1971)">Leading and trailing margins on the left and right side of each symbol</text>
  <text style="stroke:none;fill:black;font-family:sans-serif;font-size:13;" transform="matrix(1 0 0 1 776 1989)">can be adjusted by modifying the x-location of the margin guidelines.</text>
  <text style="stroke:none;fill:black;font-family:sans-serif;font-size:13;" transform="matrix(1 0 0 1 776 2007)">Modifications are automatically applied proportionally to all</text>
  <text style="stroke:none;fill:black;font-family:sans-serif;font-size:13;" transform="matrix(1 0 0 1 776 2025)">scales and weights.</text>
  <g transform="matrix(0.2 0 0 0.2 1289 1933)">
   <path d="m14.209 9.32617 8.49609 8.54492c4.29688 4.3457 9.22852 4.05273 13.8672-1.07422l53.4668-58.9355-4.83398-4.88281-53.0762 58.3984c-1.75781 2.00195-3.41797 2.49023-5.76172 0.146484l-5.85938-5.81055c-2.34375-2.29492-1.80664-4.00391 0.195312-5.81055l57.373-54.0039-4.88281-4.83398-57.959 54.4434c-4.93164 4.58984-5.32227 9.47266-1.02539 13.8184Zm32.0801-90.9668c-2.09961 2.05078-2.24609 4.93164-1.07422 6.88477 1.17188 1.80664 3.4668 2.97852 6.68945 2.14844 7.32422-1.70898 14.9414-2.00195 22.0703 2.68555l-2.92969 7.27539c-1.70898 4.15039-0.830078 7.08008 1.85547 9.81445l11.4746 11.5723c2.44141 2.44141 4.49219 2.53906 7.32422 2.05078l5.32227-0.976562 3.32031 3.36914-0.195312 2.7832c-0.195312 2.49023 0.439453 4.39453 2.88086 6.78711l3.80859 3.71094c2.39258 2.39258 5.46875 2.53906 7.8125 0.195312l14.5508-14.5996c2.34375-2.34375 2.24609-5.32227-0.146484-7.71484l-3.85742-3.80859c-2.39258-2.39258-4.24805-3.17383-6.64062-2.97852l-2.88086 0.244141-3.22266-3.17383 1.2207-5.61523c0.634766-2.83203-0.146484-5.0293-3.07617-7.95898l-10.9863-10.9375c-16.6992-16.6016-38.8672-16.2109-53.3203-1.75781Zm7.4707 1.85547c12.1582-8.88672 28.6133-7.37305 39.7461 3.75977l12.1582 12.0605c1.17188 1.17188 1.36719 2.09961 1.02539 3.80859l-1.61133 7.42188 7.51953 7.42188 4.93164-0.292969c1.26953-0.0488281 1.66016 0.0488281 2.63672 1.02539l2.88086 2.88086-12.207 12.207-2.88086-2.88086c-0.976562-0.976562-1.12305-1.36719-1.07422-2.68555l0.341797-4.88281-7.4707-7.42188-7.61719 1.26953c-1.61133 0.341797-2.34375 0.195312-3.56445-0.976562l-10.0098-10.0098c-1.26953-1.17188-1.41602-2.00195-0.634766-3.85742l4.39453-10.4492c-7.8125-7.27539-17.9688-10.4004-28.125-7.42188-0.78125 0.195312-1.07422-0.439453-0.439453-0.976562Z"/>
  </g>
  <text style="stroke:none;fill:black;font-family:sans-serif;font-size:13;font-weight:bold;" transform="matrix(1 0 0 1 1289 1953)">Exporting</text>
  <text style="stroke:none;fill:black;font-family:sans-serif;font-size:13;" transform="matrix(1 0 0 1 1289 1971)">Symbols should be outlined when exporting to ensure the</text>
  <text style="stroke:none;fill:black;font-family:sans-serif;font-size:13;" transform="matrix(1 0 0 1 1289 1989)">design is preserved when submitting to Xcode.</text>
  <text id="template-version" style="stroke:none;fill:black;font-family:sans-serif;font-size:13;text-anchor:end;" transform="matrix(1 0 0 1 3036 1933)">Template v.2.0</text>
  <text style="stroke:none;fill:black;font-family:sans-serif;font-size:13;text-anchor:end;" transform="matrix(1 0 0 1 3036 1951)">Requires Xcode 12 or greater</text>
  <text id="descriptive-name" style="stroke:none;fill:black;font-family:sans-serif;font-size:13;text-anchor:end;" transform="matrix(1 0 0 1 3036 1969)">Generated from plus.rectangle.portrait</text>
  <text style="stroke:none;fill:black;font-family:sans-serif;font-size:13;text-anchor:end;" transform="matrix(1 0 0 1 3036 1987)">Typeset at 100.0 points</text>
  <text style="stroke:none;fill:black;font-family:sans-serif;font-size:13;" transform="matrix(1 0 0 1 263 726)">Small</text>
  <text style="stroke:none;fill:black;font-family:sans-serif;font-size:13;" transform="matrix(1 0 0 1 263 1156)">Medium</text>
  <text style="stroke:none;fill:black;font-family:sans-serif;font-size:13;" transform="matrix(1 0 0 1 263 1586)">Large</text>
 </g>
 <g id="Guides">
  <g id="H-reference" style="fill:#27AAE1;stroke:none;" transform="matrix(1 0 0 1 339 696)">
   <path d="M0.993654 0L3.63775 0L29.3281-67.1323L30.0303-67.1323L30.0303-70.459L28.1226-70.459ZM11.6885-24.4799L46.9815-24.4799L46.2315-26.7285L12.4385-26.7285ZM55.1196 0L57.7637 0L30.6382-70.459L29.4326-70.459L29.4326-67.1323Z"/>
  </g>
  <line id="Baseline-S" style="fill:none;stroke:#27AAE1;opacity:1;stroke-width:0.5;" x1="263" x2="3036" y1="696" y2="696"/>
  <line id="Capline-S" style="fill:none;stroke:#27AAE1;opacity:1;stroke-width:0.5;" x1="263" x2="3036" y1="625.541" y2="625.541"/>
  <g id="H-reference" style="fill:#27AAE1;stroke:none;" transform="matrix(1 0 0 1 339 1126)">
   <path d="M0.993654 0L3.63775 0L29.3281-67.1323L30.0303-67.1323L30.0303-70.459L28.1226-70.459ZM11.6885-24.4799L46.9815-24.4799L46.2315-26.7285L12.4385-26.7285ZM55.1196 0L57.7637 0L30.6382-70.459L29.4326-70.459L29.4326-67.1323Z"/>
  </g>
  <line id="Baseline-M" style="fill:none;stroke:#27AAE1;opacity:1;stroke-width:0.5;" x1="263" x2="3036" y1="1126" y2="1126"/>
  <line id="Capline-M" style="fill:none;stroke:#27AAE1;opacity:1;stroke-width:0.5;" x1="263" x2="3036" y1="1055.54" y2="1055.54"/>
  <g id="H-reference" style="fill:#27AAE1;stroke:none;" transform="matrix(1 0 0 1 339 1556)">
   <path d="M0.993654 0L3.63775 0L29.3281-67.1323L30.0303-67.1323L30.0303-70.459L28.1226-70.459ZM11.6885-24.4799L46.9815-24.4799L46.2315-26.7285L12.4385-26.7285ZM55.1196 0L57.7637 0L30.6382-70.459L29.4326-70.459L29.4326-67.1323Z"/>
  </g>
  <line id="Baseline-L" style="fill:none;stroke:#27AAE1;opacity:1;stroke-width:0.5;" x1="263" x2="3036" y1="1556" y2="1556"/>
  <line id="Capline-L" style="fill:none;stroke:#27AAE1;opacity:1;stroke-width:0.5;" x1="263" x2="3036" y1="1485.54" y2="1485.54"/>
  <line id="left-margin" style="fill:none;stroke:#00AEEF;stroke-width:0.5;opacity:1.0;" x1="1396.32" x2="1396.32" y1="1030.79" y2="1150.12"/>
  <line id="right-margin" style="fill:none;stroke:#00AEEF;stroke-width:0.5;opacity:1.0;" x1="1503.37" x2="1503.37" y1="1030.79" y2="1150.12"/>
 </g>
 <g id="Symbols">
  <g id="Black-L" transform="matrix(1 0 0 1 2859.72 1556)">
   <path d="M16.084 11.4202C16.084 26.5843 24.6707 35.1919 39.7724 35.1919L107.573 35.1919C122.676 35.1919 131.282 26.5843 131.282 11.4202L131.282-81.838C131.282-96.9813 122.676-105.61 107.573-105.61L39.7724-105.61C24.6707-105.61 16.084-96.9813 16.084-81.838ZM36.065 8.68947L36.065-79.1073C36.065-83.4232 37.9952-85.6286 42.628-85.6286L104.738-85.6286C109.35-85.6286 111.282-83.4232 111.282-79.1073L111.282 8.68947C111.282 13.0054 109.35 15.2108 104.738 15.2108L42.628 15.2108C37.9952 15.2108 36.065 13.0054 36.065 8.68947ZM44.8217-35.2697C44.8217-30.6634 48.1645-27.2234 52.6969-27.2234L65.6147-27.2234L65.6147-14.2847C65.6147-9.77316 69.0547-6.43037 73.661-6.43037C78.2906-6.43037 81.7514-9.77196 81.7514-14.2847L81.7514-27.2234L94.6693-27.2234C99.2016-27.2234 102.525-30.6634 102.525-35.2697C102.525-39.8992 99.2028-43.36 94.6693-43.36L81.7514-43.36L81.7514-56.2779C81.7514-60.8115 78.2906-64.1531 73.661-64.1531C69.0547-64.1531 65.6147-60.8103 65.6147-56.2779L65.6147-43.36L52.6969-43.36C48.1633-43.36 44.8217-39.8992 44.8217-35.2697Z"/>
  </g>
  <g id="Heavy-L" transform="matrix(1 0 0 1 2564.15 1556)">
   <path d="M16.084 11.7397C16.084 26.3825 24.1584 34.4871 38.7107 34.4871L106.333 34.4871C120.891 34.4871 128.99 26.3825 128.99 11.7397L128.99-82.1674C128.99-96.78 120.891-104.915 106.333-104.915L38.7107-104.915C24.1584-104.915 16.084-96.78 16.084-82.1674ZM33.5844 9.61542L33.5844-80.0431C33.5844-84.8809 35.8791-87.4144 41.0161-87.4144L104.058-87.4144C109.165-87.4144 111.465-84.8809 111.465-80.0431L111.465 9.61542C111.465 14.4531 109.165 16.9867 104.058 16.9867L41.0161 16.9867C35.8791 16.9867 33.5844 14.4531 33.5844 9.61542ZM43.6296-35.2697C43.6296-31.0798 46.6685-27.9763 50.8351-27.9763L65.2079-27.9763L65.2079-13.5733C65.2079-9.43686 68.3115-6.39799 72.5013-6.39799C76.7326-6.39799 79.8663-9.43125 79.8663-13.5733L79.8663-27.9763L94.2392-27.9763C98.4057-27.9763 101.42-31.0798 101.42-35.2697C101.42-39.501 98.4114-42.6347 94.2392-42.6347L79.8663-42.6347L79.8663-57.0075C79.8663-61.1798 76.7326-64.213 72.5013-64.213C68.3115-64.213 65.2079-61.1741 65.2079-57.0075L65.2079-42.6347L50.8351-42.6347C46.6629-42.6347 43.6296-39.501 43.6296-35.2697Z"/>
  </g>
  <g id="Bold-L" transform="matrix(1 0 0 1 2268.83 1556)">
   <path d="M16.084 12.1987C16.084 26.1514 23.5506 33.656 37.3893 33.656L104.864 33.656C118.716 33.656 126.207 26.1514 126.207 12.1987L126.207-82.6268C126.207-96.5415 118.716-104.084 104.864-104.084L37.3893-104.084C23.5506-104.084 16.084-96.5415 16.084-82.6268ZM30.5257 10.7529L30.5257-81.181C30.5257-86.7015 33.2738-89.6423 39.063-89.6423L103.228-89.6423C108.979-89.6423 111.74-86.7015 111.74-81.181L111.74 10.7529C111.74 16.2734 108.979 19.2142 103.228 19.2142L39.063 19.2142C33.2738 19.2142 30.5257 16.2734 30.5257 10.7529ZM42.2586-35.2697C42.2586-31.6394 44.8986-28.9658 48.5597-28.9658L64.7903-28.9658L64.7903-12.6971C64.7903-9.07404 67.4639-6.43404 71.0942-6.43404C74.789-6.43404 77.5006-9.06081 77.5006-12.6971L77.5006-28.9658L93.7312-28.9658C97.3923-28.9658 100.008-31.6394 100.008-35.2697C100.008-38.9644 97.4056-41.6761 93.7312-41.6761L77.5006-41.6761L77.5006-57.9067C77.5006-61.581 74.789-64.2078 71.0942-64.2078C67.4639-64.2078 64.7903-61.5678 64.7903-57.9067L64.7903-41.6761L48.5597-41.6761C44.8853-41.6761 42.2586-38.9644 42.2586-35.2697Z"/>
  </g>
  <g id="Semibold-L" transform="matrix(1 0 0 1 1973.08 1556)">
   <path d="M16.084 12.5152C16.084 25.9921 23.1315 33.083 36.4783 33.083L103.85 33.083C117.216 33.083 124.288 25.9921 124.288 12.5152L124.288-82.9435C124.288-96.377 117.216-103.511 103.85-103.511L36.4783-103.511C23.1315-103.511 16.084-96.377 16.084-82.9435ZM28.4171 11.5371L28.4171-81.9655C28.4171-87.9566 31.4776-91.1782 37.7165-91.1782L102.656-91.1782C108.851-91.1782 111.93-87.9566 111.93-81.9655L111.93 11.5371C111.93 17.5283 108.851 20.7498 102.656 20.7498L37.7165 20.7498C31.4776 20.7498 28.4171 17.5283 28.4171 11.5371ZM41.3134-35.2697C41.3134-32.0252 43.6784-29.6479 46.991-29.6479L64.5024-29.6479L64.5024-12.0931C64.5024-8.82392 66.8797-6.45889 70.1242-6.45889C73.449-6.45889 75.8697-8.80544 75.8697-12.0931L75.8697-29.6479L93.3811-29.6479C96.6937-29.6479 99.0338-32.0252 99.0338-35.2697C99.0338-38.5946 96.7122-41.0152 93.3811-41.0152L75.8697-41.0152L75.8697-58.5266C75.8697-61.8577 73.449-64.2042 70.1242-64.2042C66.8797-64.2042 64.5024-61.8392 64.5024-58.5266L64.5024-41.0152L46.991-41.0152C43.6599-41.0152 41.3134-38.5946 41.3134-35.2697Z"/>
  </g>
  <g id="Medium-L" transform="matrix(1 0 0 1 1677.1 1556)">
   <path d="M16.084 12.7552C16.084 25.8713 22.8138 32.6485 35.7875 32.6485L103.082 32.6485C116.078 32.6485 122.833 25.8713 122.833 12.7552L122.833-83.1837C122.833-96.2524 116.078-103.077 103.082-103.077L35.7875-103.077C22.8138-103.077 16.084-96.2524 16.084-83.1837ZM26.8183 12.1317L26.8183-82.5603C26.8183-88.9083 30.1158-92.3427 36.6956-92.3427L102.222-92.3427C108.754-92.3427 112.074-88.9083 112.074-82.5603L112.074 12.1317C112.074 18.4798 108.754 21.9142 102.222 21.9142L36.6956 21.9142C30.1158 21.9142 26.8183 18.4798 26.8183 12.1317ZM40.5967-35.2697C40.5967-32.3177 42.7532-30.1651 45.8016-30.1651L64.2841-30.1651L64.2841-11.6352C64.2841-8.63427 66.4367-6.47774 69.3887-6.47774C72.4331-6.47774 74.6331-8.6118 74.6331-11.6352L74.6331-30.1651L93.1156-30.1651C96.1639-30.1651 98.2955-32.3177 98.2955-35.2697C98.2955-38.3141 96.1864-40.5141 93.1156-40.5141L74.6331-40.5141L74.6331-58.9966C74.6331-62.0674 72.4331-64.2015 69.3887-64.2015C66.4367-64.2015 64.2841-62.045 64.2841-58.9966L64.2841-40.5141L45.8016-40.5141C42.7308-40.5141 40.5967-38.3141 40.5967-35.2697Z"/>
  </g>
  <g id="Regular-L" transform="matrix(1 0 0 1 1381.33 1556)">
   <path d="M16.084 13.0682C16.084 25.7137 22.3993 32.0818 34.8866 32.0818L102.08 32.0818C114.595 32.0818 120.935 25.7137 120.935 13.0682L120.935-83.4969C120.935-96.0897 114.595-102.511 102.08-102.511L34.8866-102.511C22.3993-102.511 16.084-96.0897 16.084-83.4969ZM24.7328 12.9073L24.7328-83.3361C24.7328-90.1496 28.3394-93.8617 35.364-93.8617L101.655-93.8617C108.627-93.8617 112.262-90.1496 112.262-83.3361L112.262 12.9073C112.262 19.7209 108.627 23.4329 101.655 23.4329L35.364 23.4329C28.3394 23.4329 24.7328 19.7209 24.7328 12.9073ZM39.6619-35.2697C39.6619-32.6992 41.5465-30.8397 44.2502-30.8397L63.9994-30.8397L63.9994-11.0378C63.9994-8.38689 65.8588-6.50232 68.4293-6.50232C71.1079-6.50232 73.0201-8.35924 73.0201-11.0378L73.0201-30.8397L92.7693-30.8397C95.473-30.8397 97.3324-32.6992 97.3324-35.2697C97.3324-37.9483 95.5006-39.8605 92.7693-39.8605L73.0201-39.8605L73.0201-59.6097C73.0201-62.341 71.1079-64.1979 68.4293-64.1979C65.8588-64.1979 63.9994-62.3134 63.9994-59.6097L63.9994-39.8605L44.2502-39.8605C41.5188-39.8605 39.6619-37.9483 39.6619-35.2697Z"/>
  </g>
  <g id="Light-L" transform="matrix(1 0 0 1 1085.41 1556)">
   <path d="M16.084 13.7934C16.084 25.6755 22.1512 31.7764 33.9323 31.7764L101.488 31.7764C113.316 31.7764 119.37 25.6755 119.37 13.7934L119.37-84.1458C119.37-95.9943 113.316-102.129 101.488-102.129L33.9323-102.129C22.1512-102.129 16.084-95.9943 16.084-84.1458ZM22.7098 13.6326L22.7098-83.985C22.7098-91.5047 26.6408-95.503 34.2952-95.503L101.159-95.503C108.78-95.503 112.758-91.5047 112.758-83.985L112.758 13.6326C112.758 21.1523 108.78 25.1506 101.159 25.1506L34.2952 25.1506C26.6408 25.1506 22.7098 21.1523 22.7098 13.6326ZM39.3947-35.2697C39.3947-33.3672 40.8594-31.8894 42.876-31.8894L64.2665-31.8894L64.2665-10.4652C64.2665-8.48232 65.7443-7.01762 67.6468-7.01762C69.6765-7.01762 71.1879-8.43558 71.1879-10.4652L71.1879-31.8894L92.5784-31.8894C94.595-31.8894 96.0728-33.3672 96.0728-35.2697C96.0728-37.2994 94.6418-38.8108 92.5784-38.8108L71.1879-38.8108L71.1879-60.2013C71.1879-62.2647 69.6765-63.6826 67.6468-63.6826C65.7443-63.6826 64.2665-62.2179 64.2665-60.2013L64.2665-38.8108L42.876-38.8108C40.8127-38.8108 39.3947-37.2994 39.3947-35.2697Z"/>
  </g>
  <g id="Thin-L" transform="matrix(1 0 0 1 789.73 1556)">
   <path d="M16.084 14.7526C16.084 25.6251 21.823 31.3726 32.6702 31.3726L100.706 31.3726C111.625 31.3726 117.301 25.6251 117.301 14.7526L117.301-85.0041C117.301-95.8681 111.625-101.624 100.706-101.624L32.6702-101.624C21.823-101.624 16.084-95.8681 16.084-85.0041ZM20.0342 14.5918L20.0342-84.8432C20.0342-93.2969 24.3943-97.6738 32.8817-97.6738L100.503-97.6738C108.982-97.6738 113.414-93.2969 113.414-84.8432L113.414 14.5918C113.414 23.0454 108.982 27.4224 100.503 27.4224L32.8817 27.4224C24.3943 27.4224 20.0342 23.0454 20.0342 14.5918ZM39.0413-35.2697C39.0413-34.2507 39.9507-33.2777 41.0586-33.2777L64.6199-33.2777L64.6199-9.70799C64.6199-8.60853 65.5929-7.69915 66.6119-7.69915C67.7833-7.69915 68.7647-8.53654 68.7647-9.70799L68.7647-33.2777L92.326-33.2777C93.4339-33.2777 94.4068-34.2507 94.4068-35.2697C94.4068-36.4412 93.5059-37.4225 92.326-37.4225L68.7647-37.4225L68.7647-60.9838C68.7647-62.1637 67.7833-63.0011 66.6119-63.0011C65.5929-63.0011 64.6199-62.0917 64.6199-60.9838L64.6199-37.4225L41.0586-37.4225C39.8787-37.4225 39.0413-36.4412 39.0413-35.2697Z"/>
  </g>
  <g id="Ultralight-L" transform="matrix(1 0 0 1 493.549 1556)">
   <path d="M16.084 15.2439C16.084 25.5992 21.655 31.1657 32.0238 31.1657L100.305 31.1657C110.759 31.1657 116.24 25.5992 116.24 15.2439L116.24-85.4436C116.24-95.8034 110.759-101.365 100.305-101.365L32.0238-101.365C21.655-101.365 16.084-95.8034 16.084-85.4436ZM18.6637 15.083L18.6637-85.2828C18.6637-94.2148 23.2436-98.7857 32.1576-98.7857L100.167-98.7857C109.085-98.7857 113.75-94.2148 113.75-85.2828L113.75 15.083C113.75 24.015 109.085 28.5859 100.167 28.5859L32.1576 28.5859C23.2436 28.5859 18.6637 24.015 18.6637 15.083ZM38.8603-35.2697C38.8603-34.7032 39.4853-33.9888 40.1278-33.9888L64.8009-33.9888L64.8009-9.32013C64.8009-8.67317 65.5153-8.04823 66.0818-8.04823C66.8137-8.04823 67.5235-8.58826 67.5235-9.32013L67.5235-33.9888L92.1967-33.9888C92.8392-33.9888 93.5535-34.7032 93.5535-35.2697C93.5535-36.0016 92.9241-36.7114 92.1967-36.7114L67.5235-36.7114L67.5235-61.3846C67.5235-62.112 66.8137-62.652 66.0818-62.652C65.5153-62.652 64.8009-62.0271 64.8009-61.3846L64.8009-36.7114L40.1278-36.7114C39.4004-36.7114 38.8603-36.0016 38.8603-35.2697Z"/>
  </g>
  <g id="Black-M" transform="matrix(1 0 0 1 2875.44 1126)">
   <path d="M12.4609 0.735696C12.4609 12.8285 19.5201 19.8932 31.5964 19.8932L84.3265 19.8932C96.4026 19.8932 103.467 12.8285 103.467 0.735696L103.467-71.1439C103.467-83.2313 96.4026-90.3014 84.3265-90.3014L31.5964-90.3014C19.5201-90.3014 12.4609-83.2313 12.4609-71.1439ZM29.7989-1.90115L29.7989-68.5071C29.7989-71.498 31.0249-72.9634 34.2662-72.9634L81.6622-72.9634C84.898-72.9634 86.1238-71.498 86.1238-68.5071L86.1238-1.90115C86.1238 1.08981 84.898 2.55522 81.6622 2.55522L34.2662 2.55522C31.0249 2.55522 29.7989 1.08981 29.7989-1.90115ZM35.7136-35.2606C35.7136-31.4245 38.5077-28.522 42.2404-28.522L51.2203-28.522L51.2203-19.5365C51.2203-15.8094 54.1229-13.0152 57.959-13.0152C61.8001-13.0152 64.7081-15.8096 64.7081-19.5365L64.7081-28.522L73.6881-28.522C77.4207-28.522 80.209-31.4245 80.209-35.2606C80.209-39.1017 77.4204-42.0097 73.6881-42.0097L64.7081-42.0097L64.7081-50.9897C64.7081-54.7221 61.8001-57.5165 57.959-57.5165C54.1229-57.5165 51.2203-54.7223 51.2203-50.9897L51.2203-42.0097L42.2404-42.0097C38.508-42.0097 35.7136-39.1017 35.7136-35.2606Z"/>
  </g>
  <g id="Heavy-M" transform="matrix(1 0 0 1 2579.77 1126)">
   <path d="M12.4609 0.981078C12.4609 12.6348 19.0422 19.2324 30.6466 19.2324L83.1692 19.2324C94.776 19.2324 101.371 12.6348 101.371 0.981078L101.371-71.406C101.371-83.0433 94.776-89.6574 83.1692-89.6574L30.6466-89.6574C19.0422-89.6574 12.4609-83.0433 12.4609-71.406ZM27.5605-1.06288L27.5605-69.3621C27.5605-72.798 29.113-74.5578 32.7891-74.5578L81.0432-74.5578C84.7029-74.5578 86.2576-72.798 86.2576-69.3621L86.2576-1.06288C86.2576 2.37302 84.7029 4.13281 81.0432 4.13281L32.7891 4.13281C29.113 4.13281 27.5605 2.37302 27.5605-1.06288ZM34.5729-35.2606C34.5729-31.77 37.1086-29.1612 40.5471-29.1612L50.798-29.1612L50.798-18.8939C50.798-15.4718 53.4068-12.9361 56.8975-12.9361C60.4091-12.9361 63.0343-15.4695 63.0343-18.8939L63.0343-29.1612L73.2852-29.1612C76.7237-29.1612 79.2453-31.77 79.2453-35.2606C79.2453-38.7722 76.7259-41.3975 73.2852-41.3975L63.0343-41.3975L63.0343-51.6484C63.0343-55.0891 60.4091-57.6226 56.8975-57.6226C53.4068-57.6226 50.798-55.0869 50.798-51.6484L50.798-41.3975L40.5471-41.3975C37.1063-41.3975 34.5729-38.7722 34.5729-35.2606Z"/>
  </g>
  <g id="Bold-M" transform="matrix(1 0 0 1 2284.23 1126)">
   <path d="M12.4609 1.25557C12.4609 12.418 18.5076 18.4933 29.5842 18.4933L81.8747 18.4933C92.9564 18.4933 99.0265 12.418 99.0265 1.25557L99.0265-71.6992C99.0265-82.8331 92.9564-88.9369 81.8747-88.9369L29.5842-88.9369C18.5076-88.9369 12.4609-82.8331 12.4609-71.6992ZM25.0566-0.125156L25.0566-70.3185C25.0566-74.2521 26.9743-76.3412 31.1366-76.3412L80.3509-76.3412C84.4846-76.3412 86.4073-74.2521 86.4073-70.3185L86.4073-0.125156C86.4073 3.80849 84.4846 5.89757 80.3509 5.89757L31.1366 5.89757C26.9743 5.89757 25.0566 3.80849 25.0566-0.125156ZM33.2968-35.2606C33.2968-32.1565 35.5435-29.8762 38.6529-29.8762L50.3255-29.8762L50.3255-18.175C50.3255-15.0942 52.6058-12.8475 55.71-12.8475C58.853-12.8475 61.162-15.0891 61.162-18.175L61.162-29.8762L72.8345-29.8762C75.9439-29.8762 78.1672-32.1565 78.1672-35.2606C78.1672-38.4037 75.9491-40.7126 72.8345-40.7126L61.162-40.7126L61.162-52.3852C61.162-55.4997 58.853-57.7413 55.71-57.7413C52.6058-57.7413 50.3255-55.4946 50.3255-52.3852L50.3255-40.7126L38.6529-40.7126C35.5384-40.7126 33.2968-38.4037 33.2968-35.2606Z"/>
  </g>
  <g id="Semibold-M" transform="matrix(1 0 0 1 1988.33 1126)">
   <path d="M12.4609 1.44481C12.4609 12.2686 18.139 17.9837 28.8517 17.9837L80.9823 17.9837C91.702 17.9837 97.41 12.2686 97.41 1.44481L97.41-71.9014C97.41-82.6881 91.702-88.4403 80.9823-88.4403L28.8517-88.4403C18.139-88.4403 12.4609-82.6881 12.4609-71.9014ZM23.3305 0.521307L23.3305-70.9779C23.3305-75.2546 25.4999-77.5707 29.9974-77.5707L79.8735-77.5707C84.3341-77.5707 86.5106-75.2546 86.5106-70.9779L86.5106 0.521307C86.5106 4.79809 84.3341 7.11419 79.8735 7.11419L29.9974 7.11419C25.4999 7.11419 23.3305 4.79809 23.3305 0.521307ZM32.4171-35.2606C32.4171-32.423 34.4646-30.3691 37.3471-30.3691L49.9998-30.3691L49.9998-17.6794C49.9998-14.8339 52.0537-12.7864 54.8913-12.7864C57.7803-12.7864 59.8712-14.8268 59.8712-17.6794L59.8712-30.3691L72.5239-30.3691C75.4064-30.3691 77.4239-32.423 77.4239-35.2606C77.4239-38.1496 75.4135-40.2405 72.5239-40.2405L59.8712-40.2405L59.8712-52.8932C59.8712-55.7828 57.7803-57.8232 54.8913-57.8232C52.0537-57.8232 49.9998-55.7757 49.9998-52.8932L49.9998-40.2405L37.3471-40.2405C34.4575-40.2405 32.4171-38.1496 32.4171-35.2606Z"/>
  </g>
  <g id="Medium-M" transform="matrix(1 0 0 1 1692.23 1126)">
   <path d="M12.4609 1.5883C12.4609 12.1553 17.8596 17.5974 28.2963 17.5974L80.3056 17.5974C90.7509 17.5974 96.1843 12.1553 96.1843 1.5883L96.1843-72.0546C96.1843-82.5782 90.7509-88.0637 80.3056-88.0637L28.2963-88.0637C17.8596-88.0637 12.4609-82.5782 12.4609-72.0546ZM22.0216 1.01148L22.0216-71.4778C22.0216-76.0148 24.3819-78.503 29.1337-78.503L79.5116-78.503C84.22-78.503 86.5888-76.0148 86.5888-71.4778L86.5888 1.01148C86.5888 5.54844 84.22 8.03668 79.5116 8.03668L29.1337 8.03668C24.3819 8.03668 22.0216 5.54844 22.0216 1.01148ZM31.7501-35.2606C31.7501-32.625 33.6464-30.7429 36.357-30.7429L49.7529-30.7429L49.7529-17.3036C49.7529-14.6365 51.635-12.7401 54.2706-12.7401C56.9669-12.7401 58.8924-14.6279 58.8924-17.3036L58.8924-30.7429L72.2883-30.7429C74.9988-30.7429 76.8604-32.625 76.8604-35.2606C76.8604-37.9569 75.0074-39.8825 72.2883-39.8825L58.8924-39.8825L58.8924-53.2783C58.8924-55.9975 56.9669-57.8852 54.2706-57.8852C51.635-57.8852 49.7529-55.9889 49.7529-53.2783L49.7529-39.8825L36.357-39.8825C33.6378-39.8825 31.7501-37.9569 31.7501-35.2606Z"/>
  </g>
  <g id="Regular-M" transform="matrix(1 0 0 1 1396.32 1126)">
   <path d="M12.4609 1.77545C12.4609 12.0075 17.4951 17.0934 27.5719 17.0934L79.4229 17.0934C89.5103 17.0934 94.5856 12.0075 94.5856 1.77545L94.5856-72.2545C94.5856-82.4348 89.5103-87.5725 79.4229-87.5725L27.5719-87.5725C17.4951-87.5725 12.4609-82.4348 12.4609-72.2545ZM20.3144 1.65084L20.3144-72.1299C20.3144-77.0063 22.9237-79.719 28.007-79.719L79.0395-79.719C84.0711-79.719 86.6909-77.0063 86.6909-72.1299L86.6909 1.65084C86.6909 6.52717 84.0711 9.23993 79.0395 9.23993L28.007 9.23993C22.9237 9.23993 20.3144 6.52717 20.3144 1.65084ZM30.88-35.2606C30.88-32.8885 32.5793-31.2304 35.0655-31.2304L49.4307-31.2304L49.4307-16.8134C49.4307-14.379 51.0888-12.6797 53.461-12.6797C55.9059-12.6797 57.6158-14.3685 57.6158-16.8134L57.6158-31.2304L71.981-31.2304C74.4672-31.2304 76.1253-32.8885 76.1253-35.2606C76.1253-37.7056 74.4777-39.4155 71.981-39.4155L57.6158-39.4155L57.6158-53.7807C57.6158-56.2774 55.9059-57.9662 53.461-57.9662C51.0888-57.9662 49.4307-56.2669 49.4307-53.7807L49.4307-39.4155L35.0655-39.4155C32.5688-39.4155 30.88-37.7056 30.88-35.2606Z"/>
  </g>
  <g id="Light-M" transform="matrix(1 0 0 1 1100.31 1126)">
   <path d="M12.4609 2.42567C12.4609 11.9733 17.2726 16.8196 26.7163 16.8196L78.8925 16.8196C88.3638 16.8196 93.1825 11.9733 93.1825 2.42567L93.1825-72.8363C93.1825-82.3493 88.3638-87.2303 78.8925-87.2303L26.7163-87.2303C17.2726-87.2303 12.4609-82.3493 12.4609-72.8363ZM18.5006 2.30106L18.5006-72.7117C18.5006-78.2211 21.4008-81.1906 27.0488-81.1906L78.5947-81.1906C84.208-81.1906 87.1358-78.2211 87.1358-72.7117L87.1358 2.30106C87.1358 7.81049 84.208 10.7799 78.5947 10.7799L27.0488 10.7799C21.4008 10.7799 18.5006 7.81049 18.5006 2.30106ZM30.6405-35.2606C30.6405-33.4874 31.9633-32.1715 33.8335-32.1715L49.6703-32.1715L49.6703-16.3001C49.6703-14.4646 50.9862-13.1417 52.7594-13.1417C54.6226-13.1417 55.9732-14.4369 55.9732-16.3001L55.9732-32.1715L71.8099-32.1715C73.6801-32.1715 74.996-33.4874 74.996-35.2606C74.996-37.1238 73.7078-38.4744 71.8099-38.4744L55.9732-38.4744L55.9732-54.3111C55.9732-56.209 54.6226-57.5042 52.7594-57.5042C50.9862-57.5042 49.6703-56.1813 49.6703-54.3111L49.6703-38.4744L33.8335-38.4744C31.9357-38.4744 30.6405-37.1238 30.6405-35.2606Z"/>
  </g>
  <g id="Thin-M" transform="matrix(1 0 0 1 804.528 1126)">
   <path d="M12.4609 3.28563C12.4609 11.928 16.9784 16.4575 25.5848 16.4575L78.1909 16.4575C86.8476 16.4575 91.3268 11.928 91.3268 3.28563L91.3268-73.6057C91.3268-82.2361 86.8476-86.7776 78.1909-86.7776L25.5848-86.7776C16.9784-86.7776 12.4609-82.2361 12.4609-73.6057ZM16.1018 3.16102L16.1018-73.4811C16.1018-79.8279 19.3867-83.1368 25.7815-83.1368L78.0063-83.1368C84.3891-83.1368 87.7242-79.8279 87.7242-73.4811L87.7242 3.16102C87.7242 9.50778 84.3891 12.8167 78.0063 12.8167L25.7815 12.8167C19.3867 12.8167 16.1018 9.50778 16.1018 3.16102ZM30.3236-35.2606C30.3236-34.2795 31.1486-33.4162 32.2041-33.4162L49.9871-33.4162L49.9871-15.6212C49.9871-14.5777 50.8504-13.7527 51.8316-13.7527C52.9253-13.7527 53.8006-14.5274 53.8006-15.6212L53.8006-33.4162L71.5836-33.4162C72.6391-33.4162 73.5024-34.2795 73.5024-35.2606C73.5024-36.3544 72.6894-37.2297 71.5836-37.2297L53.8006-37.2297L53.8006-55.0127C53.8006-56.1185 52.9253-56.8932 51.8316-56.8932C50.8504-56.8932 49.9871-56.0682 49.9871-55.0127L49.9871-37.2297L32.2041-37.2297C31.0984-37.2297 30.3236-36.3544 30.3236-35.2606Z"/>
  </g>
  <g id="Ultralight-M" transform="matrix(1 0 0 1 508.292 1126)">
   <path d="M12.4609 3.7261C12.4609 11.9048 16.8277 16.2721 25.0052 16.2721L77.8316 16.2721C86.071 16.2721 90.3763 11.9048 90.3763 3.7261L90.3763-73.9999C90.3763-82.1782 86.071-86.5458 77.8316-86.5458L25.0052-86.5458C16.8277-86.5458 12.4609-82.1782 12.4609-73.9999ZM14.8731 3.60149L14.8731-73.8752C14.8731-80.6509 18.355-84.1336 25.1324-84.1336L77.7049-84.1336C84.4818-84.1336 88.0256-80.6509 88.0256-73.8752L88.0256 3.60149C88.0256 10.3771 84.4818 13.8599 77.7049 13.8599L25.1324 13.8599C18.355 13.8599 14.8731 10.3771 14.8731 3.60149ZM30.1614-35.2606C30.1614-34.6852 30.7314-34.0537 31.3696-34.0537L50.1494-34.0537L50.1494-15.2735C50.1494-14.6357 50.7808-14.0657 51.3563-14.0657C52.056-14.0657 52.6879-14.5738 52.6879-15.2735L52.6879-34.0537L71.4677-34.0537C72.1059-34.0537 72.7373-34.6852 72.7373-35.2606C72.7373-35.9603 72.1678-36.5922 71.4677-36.5922L52.6879-36.5922L52.6879-55.372C52.6879-56.0721 52.056-56.5802 51.3563-56.5802C50.7808-56.5802 50.1494-56.0102 50.1494-55.372L50.1494-36.5922L31.3696-36.5922C30.6695-36.5922 30.1614-35.9603 30.1614-35.2606Z"/>
  </g>
  <g id="Black-S" transform="matrix(1 0 0 1 2887.7 696)">
   <path d="M9.76562-7.08008C9.76562 2.49023 15.4297 8.1543 25 8.1543L66.4062 8.1543C75.9766 8.1543 81.6406 2.49023 81.6406-7.08008L81.6406-63.3301C81.6406-72.9004 75.9766-78.5645 66.4062-78.5645L25-78.5645C15.4297-78.5645 9.76562-72.9004 9.76562-63.3301ZM23.9258-9.32617L23.9258-61.084C23.9258-63.3301 24.8047-64.4043 27.2461-64.4043L64.1602-64.4043C66.6016-64.4043 67.4805-63.3301 67.4805-61.084L67.4805-9.32617C67.4805-7.08008 66.6016-6.00586 64.1602-6.00586L27.2461-6.00586C24.8047-6.00586 23.9258-7.08008 23.9258-9.32617ZM28.3203-35.2539C28.3203-32.1777 30.5664-29.834 33.5449-29.834L40.2832-29.834L40.2832-23.0957C40.2832-20.1172 42.627-17.8711 45.7031-17.8711C48.7793-17.8711 51.123-20.1172 51.123-23.0957L51.123-29.834L57.8613-29.834C60.8398-29.834 63.0859-32.1777 63.0859-35.2539C63.0859-38.3301 60.8398-40.6738 57.8613-40.6738L51.123-40.6738L51.123-47.4121C51.123-50.3906 48.7793-52.6367 45.7031-52.6367C42.627-52.6367 40.2832-50.3906 40.2832-47.4121L40.2832-40.6738L33.5449-40.6738C30.5664-40.6738 28.3203-38.3301 28.3203-35.2539Z"/>
  </g>
  <g id="Heavy-S" transform="matrix(1 0 0 1 2591.79 696)">
   <path d="M9.76562-6.95331C9.76562 2.32889 15.0494 7.62417 24.297 7.62417L65.4843 7.62417C74.7319 7.62417 80.0272 2.32889 80.0272-6.95331L80.0272-63.4799C80.0272-72.7506 74.7319-78.0574 65.4843-78.0574L24.297-78.0574C15.0494-78.0574 9.76562-72.7506 9.76562-63.4799ZM22.2432-8.69233L22.2432-61.7409C22.2432-64.2866 23.3641-65.5798 26.1052-65.5798L63.6877-65.5798C66.4172-65.5798 67.5381-64.2866 67.5381-61.7409L67.5381-8.69233C67.5381-6.1466 66.4172-4.85341 63.6877-4.85341L26.1052-4.85341C23.3641-4.85341 22.2432-6.1466 22.2432-8.69233ZM27.3753-35.2539C27.3753-32.3967 29.4485-30.2604 32.2542-30.2604L39.8914-30.2604L39.8914-22.6117C39.8914-19.8176 42.0277-17.7443 44.8849-17.7443C47.7536-17.7443 49.9015-19.8176 49.9015-22.6117L49.9015-30.2604L57.5386-30.2604C60.3443-30.2604 62.406-32.3967 62.406-35.2539C62.406-38.1226 60.3443-40.2705 57.5386-40.2705L49.9015-40.2705L49.9015-47.9077C49.9015-50.7133 47.7536-52.7865 44.8849-52.7865C42.0277-52.7865 39.8914-50.7133 39.8914-47.9077L39.8914-40.2705L32.2542-40.2705C29.4485-40.2705 27.3753-38.1226 27.3753-35.2539Z"/>
  </g>
  <g id="Bold-S" transform="matrix(1 0 0 1 2295.98 696)">
   <path d="M9.76562-6.81152C9.76562 2.14844 14.624 7.03125 23.5107 7.03125L64.4531 7.03125C73.3398 7.03125 78.2227 2.14844 78.2227-6.81152L78.2227-63.6475C78.2227-72.583 73.3398-77.4902 64.4531-77.4902L23.5107-77.4902C14.624-77.4902 9.76562-72.583 9.76562-63.6475ZM20.3613-7.9834L20.3613-62.4756C20.3613-65.3564 21.7529-66.8945 24.8291-66.8945L63.1592-66.8945C66.2109-66.8945 67.6025-65.3564 67.6025-62.4756L67.6025-7.9834C67.6025-5.10254 66.2109-3.56445 63.1592-3.56445L24.8291-3.56445C21.7529-3.56445 20.3613-5.10254 20.3613-7.9834ZM26.3184-35.2539C26.3184-32.6416 28.1982-30.7373 30.8105-30.7373L39.4531-30.7373L39.4531-22.0703C39.4531-19.4824 41.3574-17.6025 43.9697-17.6025C46.6064-17.6025 48.5352-19.4824 48.5352-22.0703L48.5352-30.7373L57.1777-30.7373C59.79-30.7373 61.6455-32.6416 61.6455-35.2539C61.6455-37.8906 59.79-39.8193 57.1777-39.8193L48.5352-39.8193L48.5352-48.4619C48.5352-51.0742 46.6064-52.9541 43.9697-52.9541C41.3574-52.9541 39.4531-51.0742 39.4531-48.4619L39.4531-39.8193L30.8105-39.8193C28.1982-39.8193 26.3184-37.8906 26.3184-35.2539Z"/>
  </g>
  <g id="Semibold-S" transform="matrix(1 0 0 1 1999.89 696)">
   <path d="M9.76562-6.71377C9.76562 2.02402 14.3308 6.62246 22.9687 6.62246L63.7422 6.62246C72.3801 6.62246 76.9785 2.02402 76.9785-6.71377L76.9785-63.763C76.9785-72.4675 72.3801-77.0992 63.7422-77.0992L22.9687-77.0992C14.3308-77.0992 9.76562-72.4675 9.76562-63.763ZM19.0639-7.49463L19.0639-62.9821C19.0639-66.094 20.6421-67.801 23.9493-67.801L62.7948-67.801C66.0687-67.801 67.647-66.094 67.647-62.9821L67.647-7.49463C67.647-4.38271 66.0687-2.67578 62.7948-2.67578L23.9493-2.67578C20.6421-2.67578 19.0639-4.38271 19.0639-7.49463ZM25.5896-35.2539C25.5896-32.8104 27.3362-31.0661 29.8152-31.0661L39.151-31.0661L39.151-21.6971C39.151-19.2514 40.8953-17.5048 43.3388-17.5048C45.8155-17.5048 47.5932-19.2514 47.5932-21.6971L47.5932-31.0661L56.9289-31.0661C59.4079-31.0661 61.1212-32.8104 61.1212-35.2539C61.1212-37.7307 59.4079-39.5083 56.9289-39.5083L47.5932-39.5083L47.5932-48.844C47.5932-51.323 45.8155-53.0696 43.3388-53.0696C40.8953-53.0696 39.151-51.323 39.151-48.844L39.151-39.5083L29.8152-39.5083C27.3362-39.5083 25.5896-37.7307 25.5896-35.2539Z"/>
  </g>
  <g id="Medium-S" transform="matrix(1 0 0 1 1703.66 696)">
   <path d="M9.76562-6.63965C9.76562 1.92969 14.1084 6.3125 22.5576 6.3125L63.2031 6.3125C71.6523 6.3125 76.0352 1.92969 76.0352-6.63965L76.0352-63.8506C76.0352-72.3799 71.6523-76.8027 63.2031-76.8027L22.5576-76.8027C14.1084-76.8027 9.76562-72.3799 9.76562-63.8506ZM18.0801-7.12402L18.0801-63.3662C18.0801-66.6533 19.7998-68.4883 23.2822-68.4883L62.5186-68.4883C65.9609-68.4883 67.6807-66.6533 67.6807-63.3662L67.6807-7.12402C67.6807-3.83691 65.9609-2.00195 62.5186-2.00195L23.2822-2.00195C19.7998-2.00195 18.0801-3.83691 18.0801-7.12402ZM25.0371-35.2539C25.0371-32.9385 26.6826-31.3154 29.0605-31.3154L38.9219-31.3154L38.9219-21.4141C38.9219-19.0762 40.5449-17.4307 42.8604-17.4307C45.2158-17.4307 46.8789-19.0762 46.8789-21.4141L46.8789-31.3154L56.7402-31.3154C59.1182-31.3154 60.7236-32.9385 60.7236-35.2539C60.7236-37.6094 59.1182-39.2725 56.7402-39.2725L46.8789-39.2725L46.8789-49.1338C46.8789-51.5117 45.2158-53.1572 42.8604-53.1572C40.5449-53.1572 38.9219-51.5117 38.9219-49.1338L38.9219-39.2725L29.0605-39.2725C26.6826-39.2725 25.0371-37.6094 25.0371-35.2539Z"/>
  </g>
  <g id="Regular-S" transform="matrix(1 0 0 1 1407.56 696)">
   <path d="M9.76562-6.54297C9.76562 1.80664 13.8184 5.9082 22.0215 5.9082L62.5 5.9082C70.7031 5.9082 74.8047 1.80664 74.8047-6.54297L74.8047-63.9648C74.8047-72.2656 70.7031-76.416 62.5-76.416L22.0215-76.416C13.8184-76.416 9.76562-72.2656 9.76562-63.9648ZM16.7969-6.64062L16.7969-63.8672C16.7969-67.3828 18.7012-69.3848 22.4121-69.3848L62.1582-69.3848C65.8203-69.3848 67.7246-67.3828 67.7246-63.8672L67.7246-6.64062C67.7246-3.125 65.8203-1.12305 62.1582-1.12305L22.4121-1.12305C18.7012-1.12305 16.7969-3.125 16.7969-6.64062ZM24.3164-35.2539C24.3164-33.1055 25.8301-31.6406 28.0762-31.6406L38.623-31.6406L38.623-21.0449C38.623-18.8477 40.0879-17.334 42.2363-17.334C44.4336-17.334 45.9473-18.8477 45.9473-21.0449L45.9473-31.6406L56.4941-31.6406C58.7402-31.6406 60.2051-33.1055 60.2051-35.2539C60.2051-37.4512 58.7402-38.9648 56.4941-38.9648L45.9473-38.9648L45.9473-49.5117C45.9473-51.7578 44.4336-53.2715 42.2363-53.2715C40.0879-53.2715 38.623-51.7578 38.623-49.5117L38.623-38.9648L28.0762-38.9648C25.8301-38.9648 24.3164-37.4512 24.3164-35.2539Z"/>
  </g>
  <g id="Light-S" transform="matrix(1 0 0 1 1111.47 696)">
   <path d="M9.76562-5.96778C9.76562 1.77637 13.6216 5.66602 21.2647 5.66602L62.0308 5.66602C69.689 5.66602 73.5635 1.77637 73.5635-5.96778L73.5635-64.4795C73.5635-72.1899 69.689-76.1133 62.0308-76.1133L21.2647-76.1133C13.6216-76.1133 9.76562-72.1899 9.76562-64.4795ZM15.1924-6.06543L15.1924-64.3818C15.1924-68.4575 17.354-70.6865 21.5645-70.6865L61.7647-70.6865C65.9414-70.6865 68.1182-68.4575 68.1182-64.3818L68.1182-6.06543C68.1182-1.98976 65.9414 0.239247 61.7647 0.239247L21.5645 0.239247C17.354 0.239247 15.1924-1.98976 15.1924-6.06543ZM24.1045-35.2539C24.1045-33.6352 25.2852-32.4731 26.9863-32.4731L38.835-32.4731L38.835-20.5908C38.835-18.9233 39.9971-17.7427 41.6157-17.7427C43.2983-17.7427 44.4942-18.9082 44.4942-20.5908L44.4942-32.4731L56.3428-32.4731C58.044-32.4731 59.2061-33.6352 59.2061-35.2539C59.2061-36.9365 58.0591-38.1323 56.3428-38.1323L44.4942-38.1323L44.4942-49.981C44.4942-51.6973 43.2983-52.8628 41.6157-52.8628C39.9971-52.8628 38.835-51.6821 38.835-49.981L38.835-38.1323L26.9863-38.1323C25.27-38.1323 24.1045-36.9365 24.1045-35.2539Z"/>
  </g>
  <g id="Thin-S" transform="matrix(1 0 0 1 815.578 696)">
   <path d="M9.76562-5.20704C9.76562 1.73633 13.3613 5.34571 20.2637 5.34571L61.4102 5.34571C68.3477 5.34571 71.9219 1.73633 71.9219-5.20704L71.9219-65.1601C71.9219-72.0898 68.3477-75.7129 61.4102-75.7129L20.2637-75.7129C13.3613-75.7129 9.76562-72.0898 9.76562-65.1601ZM13.0703-5.3047L13.0703-65.0625C13.0703-69.8789 15.5723-72.4082 20.4434-72.4082L61.2441-72.4082C66.1016-72.4082 68.6387-69.8789 68.6387-65.0625L68.6387-5.3047C68.6387-0.488302 66.1016 2.04099 61.2441 2.04099L20.4434 2.04099C15.5723 2.04099 13.0703-0.488302 13.0703-5.3047ZM23.8242-35.2539C23.8242-34.3359 24.5645-33.5742 25.5449-33.5742L39.1152-33.5742L39.1152-19.9902C39.1152-19.0234 39.877-18.2832 40.7949-18.2832C41.7969-18.2832 42.5723-18.9883 42.5723-19.9902L42.5723-33.5742L56.1426-33.5742C57.1231-33.5742 57.8848-34.3359 57.8848-35.2539C57.8848-36.2559 57.1582-37.0313 56.1426-37.0313L42.5723-37.0313L42.5723-50.6016C42.5723-51.6172 41.7969-52.3223 40.7949-52.3223C39.877-52.3223 39.1152-51.582 39.1152-50.6016L39.1152-37.0313L25.5449-37.0313C24.5293-37.0313 23.8242-36.2559 23.8242-35.2539Z"/>
  </g>
  <g id="Ultralight-S" transform="matrix(1 0 0 1 519.288 696)">
   <path d="M9.76562-4.8174C9.76562 1.71582 13.228 5.18165 19.751 5.18165L61.0923 5.18165C67.6607 5.18165 71.0811 1.71582 71.0811-4.8174L71.0811-65.5088C71.0811-72.0386 67.6607-75.5078 61.0923-75.5078L19.751-75.5078C13.228-75.5078 9.76562-72.0386 9.76562-65.5088ZM11.9834-4.91505L11.9834-65.4111C11.9834-70.6069 14.6597-73.29 19.8692-73.29L60.9775-73.29C66.1836-73.29 68.9053-70.6069 68.9053-65.4111L68.9053-4.91505C68.9053 0.280735 66.1836 2.96384 60.9775 2.96384L19.8692 2.96384C14.6597 2.96384 11.9834 0.280735 11.9834-4.91505ZM23.6807-35.2539C23.6807-34.6948 24.1953-34.1382 24.8067-34.1382L39.2588-34.1382L39.2588-19.6826C39.2588-19.0747 39.8154-18.56 40.3745-18.56C41.0279-18.56 41.5879-19.0293 41.5879-19.6826L41.5879-34.1382L56.04-34.1382C56.6514-34.1382 57.208-34.6948 57.208-35.2539C57.208-35.9072 56.6968-36.4673 56.04-36.4673L41.5879-36.4673L41.5879-50.9194C41.5879-51.5762 41.0279-52.0454 40.3745-52.0454C39.8154-52.0454 39.2588-51.5308 39.2588-50.9194L39.2588-36.4673L24.8067-36.4673C24.1499-36.4673 23.6807-35.9072 23.6807-35.2539Z"/>
  </g>
 </g>
</svg>
