<?xml version="1.0" encoding="UTF-8"?>
<!--Generator: Apple Native CoreSVG 232.5-->
<!DOCTYPE svg
PUBLIC "-//W3C//DTD SVG 1.1//EN"
       "http://www.w3.org/Graphics/SVG/1.1/DTD/svg11.dtd">
<svg version="1.1" xmlns="http://www.w3.org/2000/svg" xmlns:xlink="http://www.w3.org/1999/xlink" width="3300" height="2200">
 <g id="Notes">
  <rect height="2200" id="artboard" style="fill:white;opacity:1" width="3300" x="0" y="0"/>
  <line style="fill:none;stroke:black;opacity:1;stroke-width:0.5;" x1="263" x2="3036" y1="292" y2="292"/>
  <text style="stroke:none;fill:black;font-family:sans-serif;font-size:13;font-weight:bold;" transform="matrix(1 0 0 1 263 322)">Weight/Scale Variations</text>
  <text style="stroke:none;fill:black;font-family:sans-serif;font-size:13;text-anchor:middle;" transform="matrix(1 0 0 1 559.711 322)">Ultralight</text>
  <text style="stroke:none;fill:black;font-family:sans-serif;font-size:13;text-anchor:middle;" transform="matrix(1 0 0 1 856.422 322)">Thin</text>
  <text style="stroke:none;fill:black;font-family:sans-serif;font-size:13;text-anchor:middle;" transform="matrix(1 0 0 1 1153.13 322)">Light</text>
  <text style="stroke:none;fill:black;font-family:sans-serif;font-size:13;text-anchor:middle;" transform="matrix(1 0 0 1 1449.84 322)">Regular</text>
  <text style="stroke:none;fill:black;font-family:sans-serif;font-size:13;text-anchor:middle;" transform="matrix(1 0 0 1 1746.56 322)">Medium</text>
  <text style="stroke:none;fill:black;font-family:sans-serif;font-size:13;text-anchor:middle;" transform="matrix(1 0 0 1 2043.27 322)">Semibold</text>
  <text style="stroke:none;fill:black;font-family:sans-serif;font-size:13;text-anchor:middle;" transform="matrix(1 0 0 1 2339.98 322)">Bold</text>
  <text style="stroke:none;fill:black;font-family:sans-serif;font-size:13;text-anchor:middle;" transform="matrix(1 0 0 1 2636.69 322)">Heavy</text>
  <text style="stroke:none;fill:black;font-family:sans-serif;font-size:13;text-anchor:middle;" transform="matrix(1 0 0 1 2933.4 322)">Black</text>
  <line style="fill:none;stroke:black;opacity:1;stroke-width:0.5;" x1="263" x2="3036" y1="1903" y2="1903"/>
  <g transform="matrix(0.2 0 0 0.2 263 1933)">
   <path d="m46.2402 4.15039c21.5332 0 39.4531-17.8711 39.4531-39.4043s-17.9688-39.4043-39.502-39.4043c-21.4844 0-39.3555 17.8711-39.3555 39.4043s17.9199 39.4043 39.4043 39.4043Zm0-7.42188c-17.7246 0-31.8848-14.209-31.8848-31.9824s14.1113-31.9824 31.8359-31.9824c17.7734 0 32.0312 14.209 32.0312 31.9824s-14.209 31.9824-31.9824 31.9824Zm-17.9688-31.9824c0 2.14844 1.51367 3.61328 3.75977 3.61328h10.498v10.5957c0 2.19727 1.46484 3.71094 3.61328 3.71094 2.24609 0 3.71094-1.51367 3.71094-3.71094v-10.5957h10.5957c2.19727 0 3.71094-1.46484 3.71094-3.61328 0-2.19727-1.51367-3.71094-3.71094-3.71094h-10.5957v-10.5469c0-2.24609-1.46484-3.75977-3.71094-3.75977-2.14844 0-3.61328 1.51367-3.61328 3.75977v10.5469h-10.498c-2.24609 0-3.75977 1.51367-3.75977 3.71094Z"/>
  </g>
  <g transform="matrix(0.2 0 0 0.2 281.506 1933)">
   <path d="m58.5449 14.5508c27.2461 0 49.8047-22.6074 49.8047-49.8047 0-27.2461-22.6074-49.8047-49.8535-49.8047-27.1973 0-49.7559 22.5586-49.7559 49.8047 0 27.1973 22.6074 49.8047 49.8047 49.8047Zm0-8.30078c-23.0469 0-41.4551-18.457-41.4551-41.5039s18.3594-41.5039 41.4062-41.5039 41.5527 18.457 41.5527 41.5039-18.457 41.5039-41.5039 41.5039Zm-22.6562-41.5039c0 2.39258 1.66016 4.00391 4.15039 4.00391h14.3555v14.4043c0 2.44141 1.66016 4.15039 4.05273 4.15039 2.44141 0 4.15039-1.66016 4.15039-4.15039v-14.4043h14.4043c2.44141 0 4.15039-1.61133 4.15039-4.00391 0-2.44141-1.70898-4.15039-4.15039-4.15039h-14.4043v-14.3555c0-2.49023-1.70898-4.19922-4.15039-4.19922-2.39258 0-4.05273 1.70898-4.05273 4.19922v14.3555h-14.3555c-2.49023 0-4.15039 1.70898-4.15039 4.15039Z"/>
  </g>
  <g transform="matrix(0.2 0 0 0.2 304.924 1933)">
   <path d="m74.8535 28.3203c34.8145 0 63.623-28.8086 63.623-63.5742 0-34.8145-28.8574-63.623-63.6719-63.623-34.7656 0-63.5254 28.8086-63.5254 63.623 0 34.7656 28.8086 63.5742 63.5742 63.5742Zm0-9.08203c-30.1758 0-54.4434-24.3164-54.4434-54.4922 0-30.2246 24.2188-54.4922 54.3945-54.4922 30.2246 0 54.541 24.2676 54.541 54.4922 0 30.1758-24.2676 54.4922-54.4922 54.4922Zm-28.8574-54.4922c0 2.58789 1.85547 4.39453 4.58984 4.39453h19.7266v19.7754c0 2.68555 1.85547 4.58984 4.44336 4.58984 2.68555 0 4.54102-1.85547 4.54102-4.58984v-19.7754h19.7754c2.68555 0 4.58984-1.80664 4.58984-4.39453 0-2.73438-1.85547-4.58984-4.58984-4.58984h-19.7754v-19.7266c0-2.73438-1.85547-4.63867-4.54102-4.63867-2.58789 0-4.44336 1.9043-4.44336 4.63867v19.7266h-19.7266c-2.73438 0-4.58984 1.85547-4.58984 4.58984Z"/>
  </g>
  <text style="stroke:none;fill:black;font-family:sans-serif;font-size:13;font-weight:bold;" transform="matrix(1 0 0 1 263 1953)">Design Variations</text>
  <text style="stroke:none;fill:black;font-family:sans-serif;font-size:13;" transform="matrix(1 0 0 1 263 1971)">Symbols are supported in up to nine weights and three scales.</text>
  <text style="stroke:none;fill:black;font-family:sans-serif;font-size:13;" transform="matrix(1 0 0 1 263 1989)">For optimal layout with text and other symbols, vertically align</text>
  <text style="stroke:none;fill:black;font-family:sans-serif;font-size:13;" transform="matrix(1 0 0 1 263 2007)">symbols with the adjacent text.</text>
  <line style="fill:none;stroke:#00AEEF;stroke-width:0.5;opacity:1.0;" x1="776" x2="776" y1="1919" y2="1933"/>
  <g transform="matrix(0.2 0 0 0.2 776 1933)">
   <path d="m16.5527 0.78125c2.58789 0 3.85742-0.976562 4.78516-3.71094l6.29883-17.2363h28.8086l6.29883 17.2363c0.927734 2.73438 2.19727 3.71094 4.73633 3.71094 2.58789 0 4.24805-1.5625 4.24805-4.00391 0-0.830078-0.146484-1.61133-0.537109-2.63672l-22.9004-60.9863c-1.12305-2.97852-3.125-4.49219-6.25-4.49219-3.02734 0-5.07812 1.46484-6.15234 4.44336l-22.9004 61.084c-0.390625 1.02539-0.537109 1.80664-0.537109 2.63672 0 2.44141 1.5625 3.95508 4.10156 3.95508Zm13.4766-28.3691 11.8652-32.8613h0.244141l11.8652 32.8613Z"/>
  </g>
  <line style="fill:none;stroke:#00AEEF;stroke-width:0.5;opacity:1.0;" x1="792.836" x2="792.836" y1="1919" y2="1933"/>
  <text style="stroke:none;fill:black;font-family:sans-serif;font-size:13;font-weight:bold;" transform="matrix(1 0 0 1 776 1953)">Margins</text>
  <text style="stroke:none;fill:black;font-family:sans-serif;font-size:13;" transform="matrix(1 0 0 1 776 1971)">Leading and trailing margins on the left and right side of each symbol</text>
  <text style="stroke:none;fill:black;font-family:sans-serif;font-size:13;" transform="matrix(1 0 0 1 776 1989)">can be adjusted by modifying the x-location of the margin guidelines.</text>
  <text style="stroke:none;fill:black;font-family:sans-serif;font-size:13;" transform="matrix(1 0 0 1 776 2007)">Modifications are automatically applied proportionally to all</text>
  <text style="stroke:none;fill:black;font-family:sans-serif;font-size:13;" transform="matrix(1 0 0 1 776 2025)">scales and weights.</text>
  <g transform="matrix(0.2 0 0 0.2 1289 1933)">
   <path d="m14.209 9.32617 8.49609 8.54492c4.29688 4.3457 9.22852 4.05273 13.8672-1.07422l53.4668-58.9355-4.83398-4.88281-53.0762 58.3984c-1.75781 2.00195-3.41797 2.49023-5.76172 0.146484l-5.85938-5.81055c-2.34375-2.29492-1.80664-4.00391 0.195312-5.81055l57.373-54.0039-4.88281-4.83398-57.959 54.4434c-4.93164 4.58984-5.32227 9.47266-1.02539 13.8184Zm32.0801-90.9668c-2.09961 2.05078-2.24609 4.93164-1.07422 6.88477 1.17188 1.80664 3.4668 2.97852 6.68945 2.14844 7.32422-1.70898 14.9414-2.00195 22.0703 2.68555l-2.92969 7.27539c-1.70898 4.15039-0.830078 7.08008 1.85547 9.81445l11.4746 11.5723c2.44141 2.44141 4.49219 2.53906 7.32422 2.05078l5.32227-0.976562 3.32031 3.36914-0.195312 2.7832c-0.195312 2.49023 0.439453 4.39453 2.88086 6.78711l3.80859 3.71094c2.39258 2.39258 5.46875 2.53906 7.8125 0.195312l14.5508-14.5996c2.34375-2.34375 2.24609-5.32227-0.146484-7.71484l-3.85742-3.80859c-2.39258-2.39258-4.24805-3.17383-6.64062-2.97852l-2.88086 0.244141-3.22266-3.17383 1.2207-5.61523c0.634766-2.83203-0.146484-5.0293-3.07617-7.95898l-10.9863-10.9375c-16.6992-16.6016-38.8672-16.2109-53.3203-1.75781Zm7.4707 1.85547c12.1582-8.88672 28.6133-7.37305 39.7461 3.75977l12.1582 12.0605c1.17188 1.17188 1.36719 2.09961 1.02539 3.80859l-1.61133 7.42188 7.51953 7.42188 4.93164-0.292969c1.26953-0.0488281 1.66016 0.0488281 2.63672 1.02539l2.88086 2.88086-12.207 12.207-2.88086-2.88086c-0.976562-0.976562-1.12305-1.36719-1.07422-2.68555l0.341797-4.88281-7.4707-7.42188-7.61719 1.26953c-1.61133 0.341797-2.34375 0.195312-3.56445-0.976562l-10.0098-10.0098c-1.26953-1.17188-1.41602-2.00195-0.634766-3.85742l4.39453-10.4492c-7.8125-7.27539-17.9688-10.4004-28.125-7.42188-0.78125 0.195312-1.07422-0.439453-0.439453-0.976562Z"/>
  </g>
  <text style="stroke:none;fill:black;font-family:sans-serif;font-size:13;font-weight:bold;" transform="matrix(1 0 0 1 1289 1953)">Exporting</text>
  <text style="stroke:none;fill:black;font-family:sans-serif;font-size:13;" transform="matrix(1 0 0 1 1289 1971)">Symbols should be outlined when exporting to ensure the</text>
  <text style="stroke:none;fill:black;font-family:sans-serif;font-size:13;" transform="matrix(1 0 0 1 1289 1989)">design is preserved when submitting to Xcode.</text>
  <text id="template-version" style="stroke:none;fill:black;font-family:sans-serif;font-size:13;text-anchor:end;" transform="matrix(1 0 0 1 3036 1933)">Template v.2.0</text>
  <text style="stroke:none;fill:black;font-family:sans-serif;font-size:13;text-anchor:end;" transform="matrix(1 0 0 1 3036 1951)">Requires Xcode 12 or greater</text>
  <text id="descriptive-name" style="stroke:none;fill:black;font-family:sans-serif;font-size:13;text-anchor:end;" transform="matrix(1 0 0 1 3036 1969)">Generated from bell.slash</text>
  <text style="stroke:none;fill:black;font-family:sans-serif;font-size:13;text-anchor:end;" transform="matrix(1 0 0 1 3036 1987)">Typeset at 100.0 points</text>
  <text style="stroke:none;fill:black;font-family:sans-serif;font-size:13;" transform="matrix(1 0 0 1 263 726)">Small</text>
  <text style="stroke:none;fill:black;font-family:sans-serif;font-size:13;" transform="matrix(1 0 0 1 263 1156)">Medium</text>
  <text style="stroke:none;fill:black;font-family:sans-serif;font-size:13;" transform="matrix(1 0 0 1 263 1586)">Large</text>
 </g>
 <g id="Guides">
  <g id="H-reference" style="fill:#27AAE1;stroke:none;" transform="matrix(1 0 0 1 339 696)">
   <path d="M0.993654 0L3.63775 0L29.3281-67.1323L30.0303-67.1323L30.0303-70.459L28.1226-70.459ZM11.6885-24.4799L46.9815-24.4799L46.2315-26.7285L12.4385-26.7285ZM55.1196 0L57.7637 0L30.6382-70.459L29.4326-70.459L29.4326-67.1323Z"/>
  </g>
  <line id="Baseline-S" style="fill:none;stroke:#27AAE1;opacity:1;stroke-width:0.5;" x1="263" x2="3036" y1="696" y2="696"/>
  <line id="Capline-S" style="fill:none;stroke:#27AAE1;opacity:1;stroke-width:0.5;" x1="263" x2="3036" y1="625.541" y2="625.541"/>
  <g id="H-reference" style="fill:#27AAE1;stroke:none;" transform="matrix(1 0 0 1 339 1126)">
   <path d="M0.993654 0L3.63775 0L29.3281-67.1323L30.0303-67.1323L30.0303-70.459L28.1226-70.459ZM11.6885-24.4799L46.9815-24.4799L46.2315-26.7285L12.4385-26.7285ZM55.1196 0L57.7637 0L30.6382-70.459L29.4326-70.459L29.4326-67.1323Z"/>
  </g>
  <line id="Baseline-M" style="fill:none;stroke:#27AAE1;opacity:1;stroke-width:0.5;" x1="263" x2="3036" y1="1126" y2="1126"/>
  <line id="Capline-M" style="fill:none;stroke:#27AAE1;opacity:1;stroke-width:0.5;" x1="263" x2="3036" y1="1055.54" y2="1055.54"/>
  <g id="H-reference" style="fill:#27AAE1;stroke:none;" transform="matrix(1 0 0 1 339 1556)">
   <path d="M0.993654 0L3.63775 0L29.3281-67.1323L30.0303-67.1323L30.0303-70.459L28.1226-70.459ZM11.6885-24.4799L46.9815-24.4799L46.2315-26.7285L12.4385-26.7285ZM55.1196 0L57.7637 0L30.6382-70.459L29.4326-70.459L29.4326-67.1323Z"/>
  </g>
  <line id="Baseline-L" style="fill:none;stroke:#27AAE1;opacity:1;stroke-width:0.5;" x1="263" x2="3036" y1="1556" y2="1556"/>
  <line id="Capline-L" style="fill:none;stroke:#27AAE1;opacity:1;stroke-width:0.5;" x1="263" x2="3036" y1="1485.54" y2="1485.54"/>
  <line id="left-margin" style="fill:none;stroke:#00AEEF;stroke-width:0.5;opacity:1.0;" x1="1393.44" x2="1393.44" y1="1030.79" y2="1150.12"/>
  <line id="right-margin" style="fill:none;stroke:#00AEEF;stroke-width:0.5;opacity:1.0;" x1="1506.25" x2="1506.25" y1="1030.79" y2="1150.12"/>
 </g>
 <g id="Symbols">
  <g id="Black-L" transform="matrix(1 0 0 1 2855.95 1556)">
   <path d="M77.4758 34.0556C93.0567 34.0556 103.547 24.483 106.063 13.9194L106.597 13.9194L84.1685-8.62686L35.358-8.62686L35.358-9.31186C38.6322-10.9121 41.8817-13.1195 44.3328-16.2611C47.127-19.7887 48.8914-27.1426 49.7258-36.071C49.851-38.2847 50.0214-40.3884 50.2787-42.3623L32.4913-60.208C31.4746-56.3902 30.8485-52.2386 30.4665-47.7377C28.66-34.3718 27.7495-26.7052 22.4062-22.496C15.9127-17.3559 10.58-11.3404 10.58-3.31306C10.58 4.59068 16.1325 9.88185 24.7094 9.88185L48.204 9.88185C48.7026 21.8177 59.7425 34.0556 77.4758 34.0556ZM77.4758 19.6706C71.8365 19.6706 67.629 15.6543 67.2049 9.88185L87.7467 9.88185C87.3226 15.6543 83.0942 19.6706 77.4758 19.6706ZM48.6613-85.716L63.0447-71.2741C64.2291-71.9988 65.5231-72.4513 66.8088-72.8294C68.2111-73.1559 69.0612-73.7849 69.3581-75.8845C69.9785-81.7357 72.9209-85.0598 77.4758-85.0598C82.0098-85.0598 84.973-81.7357 85.5727-75.8845C85.8695-73.7849 86.7404-73.1559 88.1219-72.8294C96.1699-70.6668 102.993-62.9569 104.326-43.5618C104.781-38.189 105.447-32.7237 106.505-27.9213L140.472 6.14614C142.934 3.85407 144.332 0.58301 144.332-3.39656C144.332-11.2545 139.141-17.1393 132.776-22.144C127.303-26.5602 126.294-33.8457 124.501-47.4412C122.414-68.545 113.803-84.3245 98.2397-89.9401C94.9325-98.8118 87.2143-104.595 77.4758-104.595C67.7385-104.595 60.019-98.8118 56.7119-89.9401C53.7428-88.8714 51.0662-87.4483 48.6613-85.716ZM16.6077-88.8672L135.142 29.5095C137.349 31.7153 140.966 31.7153 143.093 29.5095C145.221 27.3012 145.299 23.7647 143.093 21.5576L24.6375-96.8178C22.4329-99.0236 18.8159-99.026 16.6077-96.8178C14.4799-94.6912 14.4799-90.9938 16.6077-88.8672Z"/>
  </g>
  <g id="Heavy-L" transform="matrix(1 0 0 1 2560.33 1556)">
   <path d="M76.3912 32.9752C91.2623 32.9752 101.414 23.4066 103.583 12.6027L105.276 12.6027L85.7535-7.01464L32.9392-7.01464L32.9392-7.71837C35.6835-9.42356 39.0809-12.0336 41.7548-15.3158C45.04-19.2754 46.8267-27.0178 47.6243-36.8027C47.7529-39.5098 47.9586-42.0379 48.3019-44.3625L32.7674-59.9416C31.668-55.7138 31.038-51.0265 30.6896-45.9011C29.1636-33.7972 28.239-25.6674 23.1148-21.3438C16.8722-16.1071 11.3124-10.1777 11.3124-2.55504C11.3124 4.51481 16.3249 9.2324 24.2184 9.2324L48.6478 9.2324C49.1381 21.1847 59.7615 32.9752 76.3912 32.9752ZM76.3912 20.0309C70.2706 20.0309 65.7659 15.6677 65.328 9.2324L87.4545 9.2324C87.0166 15.6677 82.4817 20.0309 76.3912 20.0309ZM48.0002-84.4518L60.5869-71.8205C62.0277-72.7911 63.6184-73.4163 65.2641-73.8948C66.7288-74.239 67.5868-74.9093 67.8323-76.8926C68.3817-82.9147 71.5121-86.5404 76.3912-86.5404C81.2402-86.5404 84.4008-82.9147 84.92-76.8926C85.1656-74.9093 86.0537-74.239 87.4882-73.8948C96.2458-71.5215 103.401-63.4453 104.542-42.0031C105.002-35.8372 105.658-30.4779 107.084-25.6923L138.031 5.52426C140.149 3.48807 141.35 0.637221 141.35-2.81187C141.35-9.90965 136.257-15.4286 130.414-20.2323C124.885-25.1895 123.63-32.1384 122.166-44.9826C120.473-67.3709 112.31-83.1864 96.4706-88.8592C93.464-97.582 85.9962-103.515 76.3912-103.515C66.7919-103.515 59.3185-97.582 56.3119-88.8592C53.2049-87.7723 50.4444-86.2775 48.0002-84.4518ZM16.1932-88.6697L133.549 28.5418C135.658 30.6455 139.106 30.6455 141.141 28.5418C143.175 26.4268 143.244 23.0592 141.141 20.9498L23.8544-96.256C21.7563-98.3597 18.3082-98.3709 16.1932-96.256C14.1587-94.2271 14.1587-90.6986 16.1932-88.6697Z"/>
  </g>
  <g id="Bold-L" transform="matrix(1 0 0 1 2264.84 1556)">
   <path d="M75.1807 31.6381C89.1534 31.6381 98.8449 22.1517 100.584 11.1003L104.176 11.1003L88.2197-4.92741L29.9872-4.92741L29.9872-5.64674C32.0931-7.54961 35.7122-10.7038 38.6701-14.1702C42.6519-18.7495 44.3351-27.3038 45.1611-38.1565C45.3121-41.3888 45.5788-44.365 46.0371-47.0604L33.277-59.8497C32.0851-55.2488 31.4401-50.0721 31.1078-44.3793C29.8233-33.3659 28.9578-24.4288 23.9611-19.8326C18.0259-14.4881 12.2415-8.67363 12.2415-1.49832C12.2415 4.53434 16.5482 8.52999 23.5219 8.52999L49.3798 8.52999C49.8474 20.4606 59.9113 31.6381 75.1807 31.6381ZM75.1807 20.5437C68.5056 20.5437 63.6469 15.7577 63.1936 8.52999L87.1679 8.52999C86.7146 15.7577 81.8179 20.5437 75.1807 20.5437ZM47.2526-82.8396L57.6259-72.4371C59.367-73.715 61.319-74.5628 63.4105-75.1642C64.9743-75.5388 65.8624-76.2554 66.0613-78.1301C66.5633-84.3299 69.9095-88.3172 75.1807-88.3172C80.414-88.3172 83.7982-84.3299 84.2622-78.1301C84.4611-76.2554 85.3871-75.5388 86.913-75.1642C96.502-72.5446 103.945-63.9703 104.93-40.5514C105.45-33.0591 106.113-27.674 108.142-22.725L135.182 4.85269C136.9 3.12414 137.87 0.780838 137.87-2.03735C137.87-8.10815 133.086-13.0545 127.993-17.4781C122.141-23.4019 120.565-29.8539 119.426-42.4464C118.127-66.1644 110.428-81.8919 94.3552-87.5296C91.725-96.1127 84.572-102.178 75.1807-102.178C65.8027-102.178 58.6365-96.1127 56.0063-87.5296C52.678-86.4197 49.7728-84.8178 47.2526-82.8396ZM15.8126-88.6548L132.021 27.4325C133.97 29.3684 137.144 29.3684 139.026 27.4325C140.908 25.4701 140.962 22.377 139.026 20.4278L22.8712-95.6463C20.9485-97.5822 17.775-97.6087 15.8126-95.6463C13.9306-93.7775 13.9306-90.5236 15.8126-88.6548Z"/>
  </g>
  <g id="Semibold-L" transform="matrix(1 0 0 1 1968.96 1556)">
   <path d="M74.3462 30.7164C87.6995 30.7164 97.0741 21.2866 98.517 10.0646L103.417 10.0646L89.92-3.48849L27.9521-3.48849L27.9521-4.21858C29.618-6.25772 33.3898-9.78705 36.5436-13.3803C41.0055-18.387 42.6173-27.5009 43.463-39.0899C43.6295-42.6842 43.9382-45.9693 44.4758-48.9203L33.6284-59.7863C32.3727-54.9283 31.7172-49.4141 31.3961-43.3302C30.278-33.0685 29.4533-23.5749 24.5444-18.7909C18.8212-13.3719 12.882-7.63674 12.882-0.769824C12.882 4.54779 16.7022 8.04575 23.0417 8.04575L49.8844 8.04575C50.3364 19.9613 60.0145 30.7164 74.3462 30.7164ZM74.3462 20.8972C67.2888 20.8972 62.1861 15.8197 61.7222 8.04575L86.9703 8.04575C86.5063 15.8197 81.3603 20.8972 74.3462 20.8972ZM46.7373-81.7282L55.5847-72.8622C57.5327-74.3519 59.7339-75.3531 62.1325-76.0394C63.7648-76.435 64.6736-77.1834 64.8404-78.9832C65.3098-85.3056 68.8046-89.5421 74.3462-89.5421C79.8445-89.5421 83.3827-85.3056 83.8087-78.9832C83.9755-77.1834 84.9276-76.435 86.5165-76.0394C96.6786-73.2499 104.32-64.3323 105.197-39.5505C105.759-31.1439 106.427-25.741 108.871-20.6794L133.218 4.38971C134.66 2.87325 135.471 0.879847 135.471-1.5034C135.471-6.8662 130.9-11.4178 126.324-15.5793C120.25-22.1696 118.451-28.2789 117.537-40.698C116.511-65.3328 109.131-80.9995 92.8968-86.613C90.5261-95.0998 83.5902-101.256 74.3462-101.256C65.1207-101.256 58.1664-95.0998 55.7957-86.613C52.3148-85.4872 49.3098-83.8115 46.7373-81.7282ZM15.5502-88.6446L130.968 26.6678C132.807 28.4881 135.791 28.4881 137.568 26.6678C139.345 24.8105 139.388 21.9067 137.568 20.068L22.1934-95.2259C20.3916-97.0462 17.4074-97.0832 15.5502-95.2259C13.7734-93.4676 13.7734-90.403 15.5502-88.6446Z"/>
  </g>
  <g id="Medium-L" transform="matrix(1 0 0 1 1672.89 1556)">
   <path d="M73.7135 30.0175C86.5971 30.0175 95.7313 20.6306 96.9493 9.27927L102.842 9.27927L91.2092-2.39744L26.409-2.39744L26.409-3.13568C27.7412-5.27816 31.6289-9.09193 34.9312-12.7814C39.7571-18.112 41.3149-27.6504 42.1754-39.7976C42.3537-43.6664 42.6942-47.1858 43.2919-50.3306L33.8948-59.7383C32.5907-54.6853 31.9274-48.9152 31.6147-42.5347C30.6229-32.8431 29.829-22.9275 24.9868-18.001C19.4243-12.5256 13.3676-6.85052 13.3676-0.217447C13.3676 4.558 16.8189 7.67858 22.6776 7.67858L50.2671 7.67858C50.7072 19.5828 60.0928 30.0175 73.7135 30.0175ZM73.7135 21.1652C66.3661 21.1652 61.0785 15.8667 60.6065 7.67858L86.8204 7.67858C86.3484 15.8667 81.0133 21.1652 73.7135 21.1652ZM46.3465-80.8855L54.037-73.1845C56.1419-74.8348 58.5319-75.9524 61.1636-76.7029C62.8477-77.1144 63.7722-77.8871 63.9146-79.63C64.3592-86.0454 67.9668-90.4709 73.7135-90.4709C79.4127-90.4709 83.0677-86.0454 83.4648-79.63C83.6072-77.8871 84.5792-77.1144 86.2159-76.7029C96.8125-73.7847 104.605-64.6067 105.4-38.7916C105.993-29.6917 106.664-24.2753 109.423-19.1283L131.729 4.03866C132.962 2.68302 133.652 0.954919 133.652-1.09854C133.652-5.9245 129.243-10.1768 125.058-14.1396C118.816-21.2352 116.849-27.0848 116.104-39.3723C115.284-64.7021 108.147-80.3228 91.791-85.9179C89.617-94.3317 82.8458-100.557 73.7135-100.557C64.6036-100.557 57.8099-94.3317 55.6359-85.9179C52.0394-84.7801 48.9588-83.0485 46.3465-80.8855ZM15.3512-88.6369L130.169 26.0879C131.925 27.8205 134.765 27.8205 136.462 26.0879C138.159 24.3104 138.195 21.5502 136.462 19.7951L21.6795-94.9072C19.9694-96.6398 17.1287-96.6847 15.3512-94.9072C13.6541-93.2326 13.6541-90.3115 15.3512-88.6369Z"/>
  </g>
  <g id="Regular-L" transform="matrix(1 0 0 1 1377.01 1556)">
   <path d="M72.8881 29.1059C85.1592 29.1059 93.9799 19.775 94.9045 8.25493L102.092 8.25493L92.8907-0.974326L24.3963-0.974326L24.3963-1.72321C25.2932-4.00047 29.3321-8.18525 32.828-12.0003C38.1288-17.7535 39.616-27.8454 40.4959-40.7206C40.6895-44.9476 41.0716-48.7724 41.7477-52.1701L34.2422-59.6756C32.8751-54.3683 32.2015-48.2644 31.8998-41.4972C31.0727-32.549 30.3191-22.083 25.5637-16.9706C20.2109-11.4217 14.0011-5.82502 14.0011 0.503045C14.0011 4.57131 16.9712 7.19967 22.2028 7.19967L50.7662 7.19967C51.1908 19.0891 60.1949 29.1059 72.8881 29.1059ZM72.8881 21.5148C65.1627 21.5148 59.6337 15.928 59.1512 7.19967L86.625 7.19967C86.1425 15.928 80.5608 21.5148 72.8881 21.5148ZM45.8368-79.7862L52.0182-73.6049C54.3278-75.4648 56.9642-76.734 59.8997-77.5684C61.6515-78.0007 62.5965-78.8049 62.7071-80.4737C63.1194-87.0103 66.8741-91.6823 72.8881-91.6823C78.8494-91.6823 82.6568-87.0103 83.0163-80.4737C83.1269-78.8049 84.1247-78.0007 85.8238-77.5684C96.9872-74.4823 104.976-64.9647 105.665-37.8018C106.298-27.7975 106.975-22.3635 110.145-17.1052L129.787 3.58077C130.747 2.43489 131.28 1.05284 131.28-0.570465C131.28-4.6962 127.081-8.55812 123.408-12.2617C116.945-20.0164 114.759-25.5271 114.236-37.6431C113.685-63.8796 106.865-79.4402 90.3486-85.0114C88.4313-93.3299 81.8747-99.6453 72.8881-99.6453C63.9291-99.6453 57.3449-93.3299 55.4276-85.0114C51.6802-83.8578 48.5009-82.0533 45.8368-79.7862ZM15.0917-88.6268L129.128 25.3316C130.774 26.9498 133.427 26.9498 135.02 25.3316C136.613 23.6581 136.639 21.0851 135.02 19.4392L21.0092-94.4915C19.4187-96.1097 16.7652-96.165 15.0917-94.4915C13.4986-92.9261 13.4986-90.1922 15.0917-88.6268Z"/>
  </g>
  <g id="Light-L" transform="matrix(1 0 0 1 1080.26 1556)">
   <path d="M72.9072 28.1898C84.434 28.1898 92.6821 19.4124 93.3014 8.04499L104.783 8.04499L97.8338 1.04871L22.6404 1.04871L22.6404 0.337998C23.2129-2.51182 27.6526-7.36458 31.3966-11.3705C37.7471-18.097 38.3182-30.8799 39.6944-44.5377C40.0216-48.5738 40.5563-52.2078 41.366-55.4527L35.6736-61.1452C34.3065-56.4486 33.5566-51.1272 33.1022-45.2951C31.7598-34.0567 31.5406-21.5295 25.9454-15.3866C20.7835-9.83758 14.7836-4.37454 14.7836 1.9917C14.7836 5.31564 17.0284 7.37143 21.1531 7.37143L52.4457 7.37143C52.7749 18.9746 61.111 28.1898 72.9072 28.1898ZM72.9072 22.2973C65.0673 22.2973 59.3856 16.4624 58.9031 7.37143L86.9113 7.37143C86.4288 16.4624 80.7134 22.2973 72.9072 22.2973ZM45.7795-78.3739L50.5104-73.6431C52.9155-75.732 55.7618-77.2112 59.0027-78.1219C60.9644-78.6305 62.0621-79.4347 62.2491-81.2562C62.8904-87.6974 66.6832-92.5412 72.9072-92.5412C79.0975-92.5412 82.924-87.6974 83.5316-81.2562C83.7186-79.4347 84.85-78.6305 86.778-78.1219C98.2087-74.9594 105.606-64.812 106.715-39.8821C107.73-26.7478 108.54-20.2832 113.065-13.7271L128.947 3.75254C129.793 2.75933 130.249 1.64448 130.249 0.288373C130.249-2.57773 127.482-5.27545 124.992-7.87213C116.678-18.2033 114.148-22.8552 113.32-39.1699C112.445-64.643 105.357-79.2876 89.3753-84.1525C87.7442-92.662 81.4358-98.7292 72.9072-98.7292C64.4253-98.7292 58.0701-92.662 56.4391-84.1525C52.2146-82.9799 48.6726-80.9845 45.7795-78.3739ZM15.6833-90.0963L130.941 25.1408C132.224 26.3773 134.267 26.3773 135.517 25.1408C136.766 23.8108 136.753 21.8485 135.517 20.5652L20.2458-94.6251C19.056-95.8616 17.0133-95.9551 15.6833-94.6251C14.4338-93.4223 14.4338-91.2991 15.6833-90.0963Z"/>
  </g>
  <g id="Thin-L" transform="matrix(1 0 0 1 783.498 1556)">
   <path d="M72.9324 26.9782C83.4748 26.9782 90.9657 18.9328 91.181 7.76733L108.342 7.76733L104.371 3.72435L20.3182 3.72435L20.3182 3.06411C20.4616-0.542957 25.4313-6.27919 29.5035-10.5375C37.2423-18.5513 36.6018-34.8934 38.6342-49.586C39.1381-53.3697 39.8748-56.7513 40.8612-59.7943L37.5668-63.0888C36.1996-59.1999 35.3487-54.9135 34.6924-50.3183C32.6685-36.0508 33.156-20.7975 26.4503-13.2915C21.5407-7.74251 15.8185-2.45616 15.8185 3.96056C15.8185 6.30007 17.1041 7.59861 19.7648 7.59861L54.6669 7.59861C54.87 18.8231 62.3226 26.9782 72.9324 26.9782ZM72.9324 23.3322C64.9411 23.3322 59.0575 17.1691 58.575 7.59861L87.2899 7.59861C86.8074 17.1691 80.9154 23.3322 72.9324 23.3322ZM45.7038-76.506L48.5163-73.6936C51.0476-76.0853 54.1716-77.8422 57.8163-78.8539C60.0557-79.4635 61.3554-80.2677 61.6433-82.2912C62.5875-88.6061 66.4308-93.677 72.9324-93.677C79.4256-93.677 83.2774-88.6061 84.2131-82.2912C84.5011-80.2677 85.8092-79.4635 88.0401-78.8539C99.8241-75.5904 106.439-64.61 108.103-42.6334C109.623-25.3595 110.609-17.5318 116.927-9.25929L127.837 3.97971C128.531 3.18845 128.886 2.42698 128.886 1.42425C128.886 0.224109 128.012-0.933856 127.087-2.06651C116.325-15.8053 113.34-19.3213 112.108-41.1892C110.804-65.6527 103.363-79.0856 88.088-83.0167C86.8355-91.7785 80.8552-97.5176 72.9324-97.5176C65.0816-97.5176 59.0293-91.7785 57.7769-83.0167C52.9214-81.8188 48.8998-79.571 45.7038-76.506ZM16.4658-92.0399L133.339 24.8883C134.143 25.62 135.378 25.62 136.173 24.8883C136.968 24.0127 136.905 22.8581 136.173 22.0545L19.2361-94.8018C18.5764-95.5335 17.3415-95.6774 16.4658-94.8018C15.6706-94.0786 15.6706-92.7632 16.4658-92.0399Z"/>
  </g>
  <g id="Ultralight-L" transform="matrix(1 0 0 1 486.761 1556)">
   <path d="M72.9454 26.3576C82.9835 26.3576 90.0865 18.6871 90.095 7.62512L110.165 7.62512L107.72 5.09479L19.1287 5.09479L19.1287 4.46042C19.0523 0.465485 24.2936-5.72325 28.5338-10.1109C36.9837-18.7841 35.7226-36.9491 38.0912-52.1718C38.6856-55.8262 39.5257-59.0785 40.6026-62.0181L38.5364-64.0843C37.1693-60.6091 36.2667-56.8528 35.507-52.8911C33.1339-37.0722 33.9835-20.4226 26.7088-12.2184C21.9286-6.66943 16.3486-1.47358 16.3486 4.969C16.3486 6.80429 17.1429 7.71497 19.0537 7.71497L55.8047 7.71497C55.9431 18.7455 62.9432 26.3576 72.9454 26.3576ZM72.9454 23.8623C64.8764 23.8623 58.8894 17.5311 58.4069 7.71497L87.4838 7.71497C87.0013 17.5311 81.0188 23.8623 72.9454 23.8623ZM45.665-75.5493L47.4949-73.7194C50.0908-76.2663 53.3571-78.1654 57.2087-79.2288C59.5903-79.8902 60.9933-80.6944 61.333-82.8212C62.4324-89.0715 66.3015-94.2588 72.9454-94.2588C79.5937-94.2588 83.4584-89.0715 84.5622-82.8212C84.9019-80.6944 86.3005-79.8902 88.6865-79.2288C100.652-75.9137 106.865-64.5066 108.814-44.0426C110.593-24.6484 111.67-16.1226 118.905-6.9709L127.268 4.09607C127.884 3.40823 128.188 2.82777 128.188 2.00605C128.188 1.6592 128.284 1.28989 128.16 0.907097C116.144-14.5771 112.927-17.5113 111.488-42.2235C109.964-66.1698 102.341-78.9822 87.4286-82.4349C86.3701-91.326 80.5579-96.897 72.9454-96.897C65.4178-96.897 59.5206-91.326 58.4621-82.4349C53.2834-81.2241 49.0162-78.847 45.665-75.5493ZM16.8666-93.0355L134.567 24.7591C135.125 25.2321 135.947 25.2321 136.509 24.7591C137.071 24.1161 136.982 23.3753 136.509 22.8173L18.719-94.8923C18.3308-95.3654 17.5095-95.5352 16.8666-94.8923C16.3041-94.4147 16.3041-93.513 16.8666-93.0355Z"/>
  </g>
  <g id="Black-M" transform="matrix(1 0 0 1 2872.45 1126)">
   <path d="M60.9584 19.2529C73.5388 19.2529 81.8803 11.9082 84.0859 3.95139L84.0847 3.95139L64.5164-15.7308L29.2342-15.7308L29.2342-16.2402C32.1824-17.4674 34.6271-18.922 36.3682-21.2609C38.2532-23.7544 39.4768-29.4826 40.2221-35.7698C40.3343-37.0349 40.4567-38.274 40.6001-39.4813L25.129-55.0095C24.4124-52.4868 23.9203-49.8368 23.5748-47.013C21.8644-35.2632 21.2436-29.4423 16.8018-26.14C11.5812-22.2406 7.67329-17.5243 7.67329-10.9523C7.67329-4.21309 12.3409 0.301587 19.4232 0.301587L37.1918 0.301587C37.5723 9.49587 46.3928 19.2529 60.9584 19.2529ZM60.9584 7.10034C56.9876 7.10034 53.9626 4.25324 53.6459 0.301587L68.2709 0.301587C67.9542 4.25324 64.9236 7.10034 60.9584 7.10034ZM38.2604-75.2386L50.7515-62.6904C51.4616-63.0714 52.2376-63.3021 52.9655-63.5191C54.0268-63.7672 54.6995-64.2189 54.9838-65.9662C55.5566-70.3396 57.6798-72.679 60.9584-72.679C64.2315-72.679 66.3602-70.3396 66.9274-65.9662C67.2118-64.2189 67.89-63.7672 68.9457-63.5191C74.6071-62.0143 79.5281-56.2706 80.7832-43.3062C81.1824-39.4014 81.7256-34.9364 82.4116-31.0256L110.813-2.61632C113.001-4.5913 114.242-7.45047 114.242-10.9533C114.242-17.5238 110.332-22.2398 105.112-26.1399C100.67-29.4453 100.052-35.2626 98.3383-47.0103C96.3395-62.153 89.2465-74.2228 77.4989-78.4287C74.7172-85.4557 68.5559-89.7742 60.9584-89.7742C53.3605-89.7742 47.1996-85.4557 44.4179-78.4287C42.1716-77.6138 40.1209-76.5471 38.2604-75.2386ZM13.303-77.1537L106.314 15.7323C108.059 17.4773 110.924 17.4773 112.606 15.7323C114.288 13.9879 114.351 11.1855 112.606 9.44082L19.6574-83.4454C17.9121-85.1904 15.0474-85.1899 13.303-83.4454C11.6209-81.7631 11.6209-78.8361 13.303-77.1537Z"/>
  </g>
  <g id="Heavy-M" transform="matrix(1 0 0 1 2576.81 1126)">
   <path d="M59.8964 18.2813C71.8516 18.2813 79.9142 10.8894 81.8095 2.68359L82.5453 2.68359L65.6098-14.3414L27.0316-14.3414L27.0316-14.8726C29.4917-16.1496 32.044-17.9362 33.98-20.395C36.2482-23.2211 37.5782-29.0807 38.2417-36.1329C38.3449-37.898 38.4877-39.5697 38.703-41.1338L25.2669-54.6135C24.4694-51.6336 23.9806-48.3878 23.682-44.8673C22.2933-34.5623 21.6094-28.4788 17.4593-25.1597C12.4663-21.166 8.31711-16.5215 8.31711-10.3486C8.31711-4.35592 12.5237-0.349139 19.04-0.349139L37.4707-0.349139C37.8519 8.88764 46.3269 18.2813 59.8964 18.2813ZM59.8964 7.38034C55.4657 7.38034 52.1642 4.21703 51.834-0.349139L67.9589-0.349139C67.6287 4.21703 64.3108 7.38034 59.8964 7.38034ZM37.6194-74.1331L48.4878-63.221C49.4399-63.8214 50.4865-64.2014 51.5383-64.5095C52.6412-64.7678 53.3073-65.26 53.5345-66.8795C54.0167-71.4288 56.3202-74.0472 59.8964-74.0472C63.4562-74.0472 65.7761-71.4288 66.2419-66.8795C66.4691-65.26 67.1517-64.7678 68.2382-64.5095C74.5686-62.8059 79.8685-56.7622 80.8969-41.5907C81.2664-37.1991 81.787-32.9329 82.7085-29.1582L108.505-3.24009C110.367-4.97903 111.423-7.45206 111.423-10.461C111.423-16.4046 107.475-20.8703 102.657-24.676C98.33-28.2727 97.5041-33.8402 96.1404-44.466C94.5563-60.9347 87.9261-73.1244 75.8593-77.4513C73.345-84.3152 67.4057-88.8026 59.8964-88.8026C52.3895-88.8026 46.4478-84.3152 43.9336-77.4513C41.5964-76.6204 39.4971-75.5011 37.6194-74.1331ZM12.8433-76.8251L104.59 14.8039C106.273 16.4843 109.029 16.4843 110.651 14.8039C112.274 13.119 112.332 10.4254 110.651 8.74276L18.9622-82.8839C17.2841-84.5643 14.5282-84.5689 12.8433-82.8839C11.2207-81.2636 11.2207-78.4454 12.8433-76.8251Z"/>
  </g>
  <g id="Bold-M" transform="matrix(1 0 0 1 2281.3 1126)">
   <path d="M58.7085 17.1944C69.9642 17.1944 77.715 9.74982 79.263 1.26537L80.8232 1.26537L66.833-12.7871L24.5678-12.7871L24.5678-13.3428C26.4818-14.6754 29.1545-16.8334 31.3085-19.4263C34.0054-22.6244 35.4543-28.6311 36.0264-36.5392C36.1194-38.8635 36.2851-41.0191 36.5807-42.9824L25.4211-54.1705C24.5332-50.6792 24.048-46.7668 23.8019-42.467C22.7731-33.7784 22.0185-27.401 18.1948-24.0631C13.4566-19.964 9.03732-15.3998 9.03732-9.67328C9.03732-4.51569 12.7283-1.07707 18.6114-1.07707L37.7827-1.07707C38.1646 8.20725 46.2531 17.1944 58.7085 17.1944ZM58.7085 7.69357C53.7631 7.69357 50.1524 4.17653 49.8071-1.07707L67.6099-1.07707C67.2646 4.17653 63.6252 7.69357 58.7085 7.69357ZM36.9023-72.8964L45.9556-63.8146C47.1782-64.6603 48.5277-65.2075 49.9417-65.6175C51.0912-65.8872 51.7501-66.4246 51.9133-67.9012C52.2942-72.6472 54.7993-75.5777 58.7085-75.5777C62.589-75.5777 65.1228-72.6472 65.475-67.9012C65.6383-66.4246 66.3258-65.8872 67.4466-65.6175C74.5255-63.6913 80.2493-57.3121 81.024-39.6716C81.3603-34.7356 81.8557-30.6917 83.0406-27.0692L105.922-3.93788C107.42-5.41275 108.269-7.45383 108.269-9.91021C108.269-15.1526 104.279-19.3382 99.9095-23.0384C95.7124-26.9609 94.6542-32.2489 93.6818-41.6198C92.5616-59.5719 86.4491-71.8956 74.0252-76.3579C71.8101-83.0394 66.1189-87.7157 58.7085-87.7157C51.3032-87.7157 45.6069-83.0394 43.3918-76.3579C40.9529-75.509 38.7993-74.331 36.9023-72.8964ZM12.329-76.4574L102.661 13.7654C104.274 15.3735 106.908 15.3735 108.465 13.7654C110.021 12.147 110.073 9.57512 108.465 7.96189L18.1845-82.2558C16.5816-83.8639 13.9474-83.8742 12.329-82.2558C10.773-80.7049 10.773-78.0084 12.329-76.4574Z"/>
  </g>
  <g id="Semibold-M" transform="matrix(1 0 0 1 1985.41 1126)">
   <path d="M57.8895 16.4451C68.6631 16.4451 76.1988 8.96416 77.5074 0.287657L79.636 0.287657L67.6762-11.7156L22.8692-11.7156L22.8692-12.2881C24.4068-13.6591 27.1625-16.0732 29.4668-18.7585C32.4592-22.213 33.9901-28.3211 34.4992-36.8192C34.5852-39.5291 34.7667-42.0183 35.1176-44.2568L25.5274-53.8651C24.5772-50.0213 24.0945-45.6493 23.8845-40.8123C23.1038-33.2379 22.3006-26.658 18.7018-23.3072C14.1392-19.1352 9.53382-14.6264 9.53382-9.20773C9.53382-4.62584 12.8693-1.5789 18.3159-1.5789L37.9978-1.5789C38.3802 7.73819 46.2023 16.4451 57.8895 16.4451ZM57.8895 7.9095C52.5894 7.9095 48.7654 4.14861 48.4098-1.5789L67.3693-1.5789C67.0136 4.14861 63.1526 7.9095 57.8895 7.9095ZM36.408-72.0439L44.21-64.2238C45.6191-65.2386 47.1772-65.9011 48.8411-66.3813C50.0226-66.6589 50.6765-67.2275 50.7957-68.6056C51.1067-73.4871 53.7509-76.6329 57.8895-76.6329C61.9911-76.6329 64.6724-73.4871 64.9463-68.6056C65.0655-67.2275 65.7565-66.6589 66.9009-66.3813C74.4959-64.3018 80.5118-57.6912 81.1117-38.3485C81.4251-33.0372 81.9031-29.1467 83.2696-25.6291L104.141-4.41892C105.388-5.71176 106.094-7.45506 106.094-9.53052C106.094-14.2894 102.076-18.2821 98.0157-21.9094C93.9078-26.0566 92.6894-31.152 91.9869-39.6577C91.1865-58.6324 85.4308-71.0485 72.7608-75.6041C70.7519-82.1598 65.2319-86.9664 57.8895-86.9664C50.5543-86.9664 45.0272-82.1598 43.0183-75.6041C40.5093-74.7429 38.3183-73.5243 36.408-72.0439ZM11.9745-76.204L101.331 13.0494C102.897 14.6077 105.447 14.6077 106.957 13.0494C108.467 11.477 108.515 8.98893 106.957 7.42356L17.6484-81.8228C16.0973-83.381 13.547-83.3952 11.9745-81.8228C10.4643-80.3197 10.4643-77.7071 11.9745-76.204Z"/>
  </g>
  <g id="Medium-M" transform="matrix(1 0 0 1 1689.33 1126)">
   <path d="M57.2686 15.8769C67.6765 15.8769 75.0492 8.36845 76.1763-0.453684L78.7359-0.453684L68.3156-10.9031L21.5813-10.9031L21.5813-11.4884C22.8334-12.8885 25.652-15.4967 28.0704-18.2522C31.2868-21.9011 32.8799-28.086 33.3411-37.0316C33.4219-40.0338 33.6153-42.7759 34.0082-45.223L25.6081-53.6335C24.6105-49.5224 24.1297-44.802 23.9472-39.5576C23.3547-32.8281 22.5145-26.0946 19.0863-22.7339C14.6568-18.5069 9.91029-14.04 9.91029-8.85474C9.91029-4.70936 12.9762-1.95941 18.0918-1.95941L38.1609-1.95941C38.5437 7.38253 46.1638 15.8769 57.2686 15.8769ZM57.2686 8.07323C51.6995 8.07323 47.7138 4.12744 47.3503-1.95941L67.1868-1.95941C66.8233 4.12744 62.7942 8.07323 57.2686 8.07323ZM36.0332-71.3975L42.8863-64.5341C44.4368-65.6772 46.1533-66.4269 48.0065-66.9604C49.2123-67.2441 49.8624-67.8363 49.9482-69.1396C50.2063-74.124 52.9559-77.4329 57.2686-77.4329C61.5378-77.4329 64.3309-74.124 64.5455-69.1396C64.6312-67.8363 65.3248-67.2441 66.4872-66.9604C74.4734-64.7646 80.7108-57.9786 81.1782-37.3454C81.4742-31.7495 81.939-27.9752 83.4432-24.5371L102.791-4.78367C103.848-5.93848 104.446-7.45599 104.446-9.24262C104.446-13.6349 100.406-17.4812 96.5796-21.0534C92.5396-25.3709 91.1997-30.3202 90.7017-38.1699C90.1438-57.9201 84.6587-70.4062 71.8021-75.0325C69.9495-81.4929 64.5593-86.3982 57.2686-86.3982C49.9865-86.3982 44.5876-81.4929 42.7351-75.0325C40.173-74.1619 37.9535-72.9127 36.0332-71.3975ZM11.7057-76.0118L100.323 12.5066C101.852 14.0271 104.339 14.0271 105.814 12.5066C107.289 10.9689 107.335 8.54446 105.814 7.01537L17.242-81.4944C15.7301-83.0149 13.2433-83.0321 11.7057-81.4944C10.2303-80.0276 10.2303-77.4786 11.7057-76.0118Z"/>
  </g>
  <g id="Regular-M" transform="matrix(1 0 0 1 1393.44 1126)">
   <path d="M56.4586 15.1358C66.3897 15.1358 73.5497 7.59142 74.4401-1.42065L77.5617-1.42065L69.1495-9.84341L19.9014-9.84341L19.9014-10.4454C20.7812-11.8834 23.6819-14.7448 26.2489-17.5918C29.7575-21.4943 31.4317-27.7795 31.8307-37.3085C31.9045-40.6921 32.1136-43.7641 32.5612-46.4834L25.7132-53.3315C24.654-48.8716 24.1757-43.6968 24.029-37.921C23.6818-32.2936 22.7934-25.3597 19.5878-21.9863C15.332-17.6873 10.4013-13.2752 10.4013-8.3943C10.4013-4.81829 13.1156-2.45572 17.7996-2.45572L38.3736-2.45572C38.757 6.91863 46.1135 15.1358 56.4586 15.1358ZM56.4586 8.28679C50.5387 8.28679 46.3421 4.09982 45.9683-2.45572L66.9489-2.45572C66.5751 4.09982 62.3268 8.28679 56.4586 8.28679ZM35.5443-70.5543L41.1598-64.9388C42.8948-66.2492 44.8177-67.1129 46.918-67.7158C48.1555-68.0073 48.8007-68.6303 48.8429-69.8362C49.0318-74.9547 51.9189-78.4765 56.4586-78.4765C60.9465-78.4765 63.8854-74.9547 64.0226-69.8362C64.0648-68.6303 64.7617-68.0073 65.9475-67.7158C74.444-65.3684 80.9704-58.3536 81.2649-36.0369C81.5382-30.0698 81.9859-26.4471 83.6696-23.1128L101.03-5.25944C101.839-6.23421 102.295-7.4572 102.295-8.8671C102.295-12.7813 98.2268-16.4367 94.7066-19.9368C90.7548-24.4765 89.2565-29.2353 89.0254-36.2293C88.7837-56.9909 83.6516-69.5684 70.5515-74.287C68.903-80.623 63.6819-85.6571 56.4586-85.6571C49.2458-85.6571 44.0142-80.623 42.3657-74.287C39.7343-73.4042 37.4778-72.1149 35.5443-70.5543ZM11.355-75.7612L99.0076 11.7985C100.489 13.2697 102.893 13.2697 104.323 11.7985C105.753 10.3062 105.794 7.96472 104.323 6.48296L16.7117-81.0661C15.2511-82.5373 12.8473-82.5585 11.355-81.0661C9.92501-79.6467 9.92501-77.1806 11.355-75.7612Z"/>
  </g>
  <g id="Light-M" transform="matrix(1 0 0 1 1096.69 1126)">
   <path d="M56.4757 14.3145C65.7395 14.3145 72.3862 7.26632 73.0028-1.60887L79.9744-1.60887L73.5812-8.02965L18.3272-8.02965L18.3272-8.59737C18.9161-10.5487 22.1761-14.0091 24.9656-17.0271C29.4153-21.8023 30.2682-30.5001 31.112-40.7307C31.3057-43.9432 31.6516-46.8441 32.219-49.4265L26.9965-54.649C25.9373-50.7367 25.3906-46.2635 25.107-41.3261C24.2978-33.6454 23.8885-24.8635 19.93-20.5661C15.8453-16.267 11.1029-11.9747 11.1029-7.05965C11.1029-4.15097 13.167-2.30173 16.8585-2.30173L39.8794-2.30173C40.1772 6.81596 46.9348 14.3145 56.4757 14.3145ZM56.4757 8.98834C50.4531 8.98834 46.1197 4.57893 45.7459-2.30173L67.2056-2.30173C66.8317 4.57893 62.4637 8.98834 56.4757 8.98834ZM35.493-69.2881L39.8081-64.973C41.6286-66.4887 43.7397-67.5407 46.1138-68.2121C47.5395-68.5719 48.3216-69.195 48.4322-70.5378C48.8265-75.5707 51.7478-79.2464 56.4757-79.2464C61.169-79.2464 64.125-75.5707 64.4846-70.5378C64.5952-69.195 65.4119-68.5719 66.803-68.2121C75.5391-65.7961 81.5351-58.2167 82.206-37.902C82.8215-29.1287 83.389-24.582 86.2876-20.0842L100.277-5.10544C100.984-5.94332 101.371-6.92676 101.371-8.09711C101.371-10.882 98.5862-13.4936 96.1268-16.0013C90.5153-22.8509 88.709-26.8397 88.2041-37.5982C87.6715-57.6753 82.2999-69.4315 69.6789-73.517C68.287-80.0241 63.2884-84.8358 56.4757-84.8358C49.6907-84.8358 44.6644-80.0241 43.2725-73.517C40.2134-72.6171 37.6318-71.1567 35.493-69.2881ZM11.8855-77.0787L100.633 11.6274C101.79 12.7564 103.646 12.7564 104.768 11.6274C105.89 10.4431 105.897 8.64915 104.768 7.49251L16.0273-81.1859C14.926-82.3149 13.0698-82.3702 11.8855-81.1859C10.7634-80.0916 10.7634-78.173 11.8855-77.0787Z"/>
  </g>
  <g id="Thin-M" transform="matrix(1 0 0 1 799.936 1126)">
   <path d="M56.4983 13.2282C64.8795 13.2282 70.8473 6.83634 71.1018-1.85781L83.1653-1.85781L79.4426-5.6308L16.2452-5.6308L16.2452-6.15327C16.4494-8.78353 20.1846-13.036 23.2683-16.2803C28.9627-22.2097 28.7293-34.0984 30.1615-45.2569C30.5136-48.243 31.0405-50.9176 31.7664-53.319L28.6938-56.3916C27.6346-53.2035 26.9973-49.658 26.5327-45.8296C25.1125-35.4332 25.3369-24.2072 20.3826-18.6877C16.5242-14.3887 12.0307-10.2548 12.0307-5.29446C12.0307-3.26837 13.2349-2.09805 15.6138-2.09805L41.8709-2.09805C42.0555 6.68018 48.0211 13.2282 56.4983 13.2282ZM56.4983 9.91619C50.3399 9.91619 45.8255 5.21259 45.4517-2.09805L67.545-2.09805C67.1712 5.21259 62.6447 9.91619 56.4983 9.91619ZM35.4251-67.6134L38.0202-65.0183C39.9539-66.8056 42.314-68.1064 45.0501-68.8683C46.7248-69.3187 47.6879-69.9418 47.8891-71.4656C48.5549-76.3854 51.5215-80.2648 56.4983-80.2648C61.4632-80.2648 64.4418-76.3854 65.0956-71.4656C65.2968-69.9418 66.2719-69.3187 67.9346-68.8683C76.9875-66.3619 82.2819-58.0356 83.4507-40.3687C84.5188-27.884 85.2447-22.1153 89.75-16.0786L99.2815-4.90176C99.852-5.5586 100.149-6.22521 100.149-7.07873C100.149-8.36997 99.0614-9.60114 98.0051-10.7963C90.1984-20.701 87.9848-23.6714 87.1178-39.4087C86.2005-58.5806 80.512-69.2505 68.5247-72.4987C67.4723-79.232 62.7679-83.7495 56.4983-83.7495C50.2791-83.7495 45.5244-79.232 44.472-72.4987C40.8471-71.5761 37.8354-69.8894 35.4251-67.6134ZM12.587-78.8213L102.783 11.4011C103.51 12.0775 104.642 12.0775 105.356 11.4011C106.071 10.6241 106.033 9.55438 105.356 8.82771L15.1221-81.3443C14.496-82.0207 13.364-82.1213 12.587-81.3443C11.8723-80.68 11.8723-79.4856 12.587-78.8213Z"/>
  </g>
  <g id="Ultralight-M" transform="matrix(1 0 0 1 503.202 1126)">
   <path d="M56.5099 12.6719C64.439 12.6719 70.0591 6.6161 70.1281-1.98531L84.7996-1.98531L82.4447-4.40213L15.1788-4.40213L15.1788-4.90141C15.1859-7.87941 19.1646-12.5375 22.3989-15.8978C28.7309-22.4183 27.9411-35.9414 29.6747-47.5751C30.1079-50.4453 30.7276-53.004 31.5346-55.3127L29.5632-57.2841C28.504-54.4669 27.8203-51.3967 27.2629-48.1363C25.5298-36.3489 26.0787-23.8711 20.6144-17.7257C16.8719-13.4266 12.506-9.37388 12.506-4.39034C12.506-2.81631 13.2696-1.99373 14.9763-1.99373L42.8909-1.99373C43.0176 6.61063 48.5775 12.6719 56.5099 12.6719ZM56.5099 10.3914C50.282 10.3914 45.6748 5.53714 45.301-1.99373L67.7189-1.99373C67.3451 5.53714 62.7375 10.3914 56.5099 10.3914ZM35.3903-66.7557L37.1045-65.0414C39.0962-66.9678 41.5837-68.3962 44.5053-69.2045C46.3075-69.7012 47.3633-70.3243 47.6109-71.9409C48.4158-76.8027 51.4056-80.7864 56.5099-80.7864C61.6139-80.7864 64.6041-76.8027 65.4086-71.9409C65.6561-70.3243 66.7123-69.7012 68.5141-69.2045C77.7293-66.6517 82.6644-57.9429 84.0882-41.6322C85.3882-27.2465 86.1952-20.8518 91.5235-14.0269L98.7714-4.79744C99.2724-5.36155 99.5233-5.86588 99.5233-6.55712C99.5233-7.08333 99.3048-7.60744 98.9672-8.13029C90.0362-19.5998 87.6139-22.0487 86.5614-40.336C85.4471-59.0442 79.5963-69.1578 67.9336-71.977C67.055-78.8264 62.5013-83.1931 56.5099-83.1931C50.5805-83.1931 45.9649-78.8264 45.0863-71.977C41.1716-71.0429 37.9398-69.2403 35.3903-66.7557ZM12.9463-79.7138L103.884 11.2852C104.391 11.7297 105.152 11.7297 105.658 11.2852C106.164 10.7168 106.102 10.018 105.658 9.5116L14.6584-81.4255C14.2758-81.87 13.5146-81.9938 12.9463-81.4255C12.4403-80.9813 12.4403-80.1579 12.9463-79.7138Z"/>
  </g>
  <g id="Black-S" transform="matrix(1 0 0 1 2885.3 696)">
   <path d="M48.0957 7.71484C58.1055 7.71484 64.6973 2.00195 66.5039-4.15039L66.5039-4.15039L50.4883-20.2637L23.4863-20.2637L23.4863-20.6543C25.9277-21.6309 27.832-22.7051 29.1504-24.5117C30.5664-26.416 31.4453-31.0059 32.0801-35.7422C32.1777-36.5723 32.2754-37.4023 32.373-38.2324L19.7266-50.9277C19.1895-49.1211 18.7988-47.2656 18.5059-45.3125C17.041-35.5469 16.6016-30.957 12.9883-28.3203C8.83789-25.293 5.85938-21.582 5.85938-16.3086C5.85938-10.8398 9.61914-7.17773 15.2832-7.17773L29.1504-7.17773C29.4434 0 36.4258 7.71484 48.0957 7.71484ZM48.0957-2.09961C45.1172-2.09961 42.8223-4.24805 42.5781-7.17773L53.6133-7.17773C53.3691-4.24805 51.0742-2.09961 48.0957-2.09961ZM30.1758-66.8457L40.3809-56.5918C40.8691-56.8359 41.4062-56.9824 41.8945-57.1289C42.7246-57.3242 43.2617-57.666 43.5059-59.082C43.9941-62.4512 45.6055-64.209 48.0957-64.209C50.5859-64.209 52.1973-62.4512 52.6855-59.082C52.9297-57.666 53.4668-57.3242 54.2969-57.1289C58.5449-56.0059 62.2559-51.5625 63.3301-42.1875C63.6719-39.1113 64.1113-35.498 64.6484-32.3242L87.5-9.47266C89.3066-11.084 90.332-13.4277 90.332-16.3086C90.332-21.582 87.3535-25.293 83.2031-28.3203C79.5898-30.957 79.1504-35.5469 77.6855-45.3125C75.9766-56.7383 70.2637-66.1133 61.1816-69.3359C58.9355-74.9023 54.0527-78.2227 48.0957-78.2227C42.1387-78.2227 37.2559-74.9023 35.0098-69.3359C33.252-68.7012 31.6406-67.8711 30.1758-66.8457ZM10.5957-68.2617L83.9355 4.98047C85.3027 6.34766 87.5488 6.34766 88.8672 4.98047C90.1855 3.61328 90.2344 1.41602 88.8672 0.0488281L15.5762-73.1934C14.209-74.5605 11.9629-74.5605 10.5957-73.1934C9.27734-71.875 9.27734-69.5801 10.5957-68.2617Z"/>
  </g>
  <g id="Heavy-S" transform="matrix(1 0 0 1 2589.52 696)">
   <path d="M47.1853 6.9888C56.7456 6.9888 63.1645 1.17219 64.7407-5.21064L64.879-5.21064L50.8571-19.3071L21.8038-19.3071L21.8038-19.7208C23.8649-20.6743 25.8152-21.956 27.2719-23.8433C28.8954-25.9205 29.9702-30.3144 30.4782-35.6154C30.5528-36.895 30.6504-38.1169 30.7942-39.2696L19.6805-50.4207C19.0742-48.153 18.6951-45.6983 18.4598-43.0422C17.3291-34.7747 16.7744-30.1964 13.5069-27.6634C9.52936-24.5554 6.32035-20.8906 6.32035-15.9629C6.32035-11.0473 9.76896-7.75396 15.0758-7.75396L29.1965-7.75396C29.501-0.507076 36.2644 6.9888 47.1853 6.9888ZM47.1853-1.94979C43.8264-1.94979 41.3126-4.34024 41.0569-7.75396L53.3136-7.75396C53.058-4.34024 50.5326-1.94979 47.1853-1.94979ZM29.6341-66.062L38.6176-57.0413C39.3018-57.4467 40.0464-57.6969 40.7767-57.9126C41.6183-58.1079 42.1323-58.4843 42.3188-59.7735C42.7034-63.304 44.4645-65.2808 47.1853-65.2808C49.8945-65.2808 51.6671-63.304 52.0402-59.7735C52.2267-58.4843 52.7523-58.1079 53.5824-57.9126C58.3721-56.6282 62.4748-52.0004 63.307-40.4819C63.5797-37.3481 63.9846-34.0229 64.5678-31.1141L85.6215-10.0258C87.1631-11.4528 88.0387-13.4969 88.0387-15.9859C88.0387-20.8675 84.8642-24.4978 80.9213-27.5712C77.6192-30.1618 77.0414-34.6364 75.9108-42.9615C74.5936-55.6089 69.3071-65.1913 59.8909-68.5984C57.8407-74.0034 53.1193-77.4966 47.1853-77.4966C41.2513-77.4966 36.5298-74.0034 34.4796-68.5984C32.6988-67.9521 31.0875-67.099 29.6341-66.062ZM10.1347-67.8123L82.253 4.20833C83.6086 5.56399 85.8317 5.56399 87.1385 4.20833C88.4454 2.85267 88.4942 0.67845 87.1385-0.677213L15.0691-72.6978C13.7134-74.0535 11.4904-74.0535 10.1347-72.6978C8.82789-71.391 8.82789-69.1191 10.1347-67.8123Z"/>
  </g>
  <g id="Bold-S" transform="matrix(1 0 0 1 2293.84 696)">
   <path d="M46.167 6.17676C55.2246 6.17676 61.4502 0.244141 62.7686-6.39648L63.0615-6.39648L51.2695-18.2373L19.9219-18.2373L19.9219-18.6768C21.5576-19.6045 23.5596-21.1182 25.1709-23.0957C27.0264-25.3662 28.3203-29.541 28.6865-35.4736C28.7354-37.2559 28.833-38.916 29.0283-40.4297L19.6289-49.8535C18.9453-47.0703 18.5791-43.9453 18.4082-40.5029C17.6514-33.9111 16.9678-29.3457 14.0869-26.9287C10.3027-23.7305 6.83594-20.1172 6.83594-15.5762C6.83594-11.2793 9.93652-8.39844 14.8438-8.39844L29.248-8.39844C29.5654-1.07422 36.084 6.17676 46.167 6.17676ZM46.167-1.78223C42.3828-1.78223 39.624-4.44336 39.3555-8.39844L52.9785-8.39844C52.71-4.44336 49.9268-1.78223 46.167-1.78223ZM29.0283-65.1855L36.6455-57.5439C37.5488-58.1299 38.5254-58.4961 39.5264-58.7891C40.3809-58.9844 40.8691-59.3994 40.9912-60.5469C41.2598-64.2578 43.1885-66.4795 46.167-66.4795C49.1211-66.4795 51.0742-64.2578 51.3184-60.5469C51.4404-59.3994 51.9531-58.9844 52.7832-58.7891C58.1787-57.3242 62.7197-52.4902 63.2812-38.5742C63.4766-35.376 63.8428-32.373 64.4775-29.7607L83.5205-10.6445C84.7656-11.8652 85.4736-13.5742 85.4736-15.625C85.4736-20.0684 82.0801-23.6084 78.3691-26.7334C75.415-29.2725 74.6826-33.6182 73.9258-40.332C73.0469-54.3457 68.2373-64.1602 58.4473-67.7734C56.6162-72.998 52.0752-76.6846 46.167-76.6846C40.2588-76.6846 35.7178-72.998 33.8867-67.7734C32.0801-67.1143 30.4688-66.2354 29.0283-65.1855ZM9.61914-67.3096L80.3711 3.34473C81.7139 4.6875 83.9111 4.6875 85.2051 3.34473C86.499 2.00195 86.5479-0.146484 85.2051-1.48926L14.502-72.1436C13.1592-73.4863 10.9619-73.4863 9.61914-72.1436C8.3252-70.8496 8.3252-68.6035 9.61914-67.3096Z"/>
  </g>
  <g id="Semibold-S" transform="matrix(1 0 0 1 1997.84 696)">
   <path d="M45.4649 5.61689C54.176 5.61689 60.2683-0.395703 61.4089-7.21406L61.8085-7.21406L51.5539-17.4997L18.6244-17.4997L18.6244-17.9569C19.9669-18.8669 22.0044-20.5405 23.7224-22.5803C25.7378-24.9841 27.1828-29.0078 27.4513-35.3759C27.4823-37.5047 27.58-39.467 27.8108-41.2295L19.5934-49.4625C18.8564-46.3238 18.4991-42.7367 18.3727-38.7522C17.8735-33.3157 17.1011-28.7592 14.4868-26.4222C10.8359-23.1617 7.19141-19.584 7.19141-15.3096C7.19141-11.4393 10.0521-8.84277 14.6838-8.84277L29.2836-8.84277C29.6099-1.46523 35.9596 5.61689 45.4649 5.61689ZM45.4649-1.6667C41.3875-1.6667 38.4599-4.51445 38.1824-8.84277L52.7475-8.84277C52.47-4.51445 49.5091-1.6667 45.4649-1.6667ZM28.6106-64.5812L35.2858-57.8905C36.3402-58.6009 37.4768-59.0471 38.6644-59.3934C39.5277-59.5887 39.9982-60.0304 40.0759-61.0801C40.2645-64.9154 42.3087-67.306 45.4649-67.306C48.5879-67.306 50.6654-64.9154 50.8207-61.0801C50.8983-60.0304 51.4021-59.5887 52.2322-59.3934C58.0454-57.8041 62.8886-52.8279 63.2635-37.259C63.4055-34.0163 63.745-31.2355 64.4153-28.8276L82.072-11.0711C83.1127-12.1496 83.7052-13.6275 83.7052-15.3762C83.7052-19.5174 80.1605-22.9952 76.6096-26.1558C73.8954-28.6593 73.0563-32.9161 72.5572-38.5191C71.9805-53.4748 67.4997-63.4492 57.452-67.2047C55.772-72.3049 51.3554-76.1247 45.4649-76.1247C39.5745-76.1247 35.1579-72.3049 33.4779-67.2047C31.6535-66.5366 30.0422-65.6399 28.6106-64.5812ZM9.26367-66.963L79.0736 2.74932C80.4075 4.0832 82.587 4.0832 83.8721 2.74932C85.1571 1.41543 85.206-0.715234 83.8721-2.04912L14.1109-71.7614C12.7771-73.0953 10.5976-73.0953 9.26367-71.7614C7.97861-70.4764 7.97861-68.248 9.26367-66.963Z"/>
  </g>
  <g id="Medium-S" transform="matrix(1 0 0 1 1701.66 696)">
   <path d="M44.9326 5.19238C53.3809 5.19238 59.3721-0.880859 60.3779-7.83398L60.8584-7.83398L51.7695-16.9404L17.6406-16.9404L17.6406-17.4111C18.7607-18.3076 20.8252-20.1025 22.624-22.1895C24.7607-24.6943 26.3203-28.6035 26.5146-35.3018C26.5322-37.6934 26.6299-39.8848 26.8877-41.8359L19.5664-49.166C18.7891-45.7578 18.4385-41.8203 18.3457-37.4248C18.042-32.8643 17.2021-28.3145 14.79-26.0381C11.2402-22.7305 7.46094-19.1797 7.46094-15.1074C7.46094-11.5605 10.1396-9.17969 14.5625-9.17969L29.3105-9.17969C29.6436-1.76172 35.8652 5.19238 44.9326 5.19238ZM44.9326-1.5791C40.6328-1.5791 37.5771-4.56836 37.293-9.17969L52.5723-9.17969C52.2881-4.56836 49.1924-1.5791 44.9326-1.5791ZM28.2939-64.123L34.2549-58.1533C35.4238-58.958 36.6816-59.4648 38.0107-59.8516C38.8809-60.0469 39.3379-60.5088 39.3818-61.4844C39.5098-65.4141 41.6416-67.9326 44.9326-67.9326C48.1836-67.9326 50.3555-65.4141 50.4434-61.4844C50.4873-60.5088 50.9844-60.0469 51.8145-59.8516C57.9443-58.168 63.0166-53.084 63.25-36.2617C63.3516-32.9854 63.6709-30.373 64.3682-28.1201L80.9736-11.3945C81.8594-12.3652 82.3643-13.668 82.3643-15.1875C82.3643-19.0996 78.7051-22.5303 75.2754-25.7178C72.7432-28.1943 71.8232-32.3838 71.5195-37.1445C71.1719-52.8145 66.9404-62.9102 56.6973-66.7734C55.1318-71.7793 50.8096-75.7002 44.9326-75.7002C39.0557-75.7002 34.7334-71.7793 33.168-66.7734C31.3301-66.0986 29.7188-65.1885 28.2939-64.123ZM8.99414-66.7002L78.0898 2.29785C79.417 3.625 81.583 3.625 82.8613 2.29785C84.1396 0.970703 84.1885-1.14648 82.8613-2.47363L13.8145-71.4717C12.4873-72.7988 10.3213-72.7988 8.99414-71.4717C7.71582-70.1934 7.71582-67.9785 8.99414-66.7002Z"/>
  </g>
  <g id="Regular-S" transform="matrix(1 0 0 1 1405.65 696)">
   <path d="M44.2383 4.63867C52.3438 4.63867 58.2031-1.51367 59.0332-8.64258L59.6191-8.64258L52.0508-16.2109L16.3574-16.2109L16.3574-16.6992C17.1875-17.5781 19.2871-19.5312 21.1914-21.6797C23.4863-24.3164 25.1953-28.0762 25.293-35.2051C25.293-37.9395 25.3906-40.4297 25.6836-42.627L19.5312-48.7793C18.7012-45.0195 18.3594-40.625 18.3105-35.6934C18.2617-32.2754 17.334-27.7344 15.1855-25.5371C11.7676-22.168 7.8125-18.6523 7.8125-14.8438C7.8125-11.7188 10.2539-9.61914 14.4043-9.61914L29.3457-9.61914C29.6875-2.14844 35.7422 4.63867 44.2383 4.63867ZM44.2383-1.46484C39.6484-1.46484 36.4258-4.63867 36.1328-9.61914L52.3438-9.61914C52.0508-4.63867 48.7793-1.46484 44.2383-1.46484ZM27.8809-63.5254L32.9102-58.4961C34.2285-59.4238 35.6445-60.0098 37.1582-60.4492C38.0371-60.6445 38.4766-61.1328 38.4766-62.0117C38.5254-66.0645 40.7715-68.75 44.2383-68.75C47.6562-68.75 49.9512-66.0645 49.9512-62.0117C49.9512-61.1328 50.4395-60.6445 51.2695-60.4492C57.8125-58.6426 63.1836-53.418 63.2324-34.9609C63.2812-31.6406 63.5742-29.248 64.3066-27.1973L79.541-11.8164C80.2246-12.6465 80.6152-13.7207 80.6152-14.9414C80.6152-18.5547 76.8066-21.9238 73.5352-25.1465C71.2402-27.5879 70.2148-31.6895 70.166-35.3516C70.1172-51.9531 66.2109-62.207 55.7129-66.2109C54.2969-71.0938 50.0977-75.1465 44.2383-75.1465C38.3789-75.1465 34.1797-71.0938 32.7637-66.2109C30.9082-65.5273 29.2969-64.5996 27.8809-63.5254ZM8.64258-66.3574L76.8066 1.70898C78.125 3.02734 80.2734 3.02734 81.543 1.70898C82.8125 0.390625 82.8613-1.70898 81.543-3.02734L13.4277-71.0938C12.1094-72.4121 9.96094-72.4121 8.64258-71.0938C7.37305-69.8242 7.37305-67.627 8.64258-66.3574Z"/>
  </g>
  <g id="Light-S" transform="matrix(1 0 0 1 1108.91 696)">
   <path d="M44.2534 3.91212C51.7686 3.91212 57.1738-1.80127 57.7617-8.80908L61.7534-8.80908L55.9712-14.6065L14.9649-14.6065L14.9649-15.0645C15.5376-16.3975 17.9551-18.8804 20.0562-21.1802C23.1836-24.5889 24.166-30.4829 24.6572-38.2324C24.7632-40.8154 24.9819-43.1543 25.3809-45.2304L20.6665-49.9448C19.8364-46.6694 19.4341-42.8955 19.2642-38.7055C18.8066-33.4712 18.3027-27.2954 15.4883-24.2808C12.2217-20.9116 8.4331-17.502 8.4331-13.6631C8.4331-11.1284 10.2993-9.48291 13.5718-9.48291L30.6777-9.48291C30.9438-2.23926 36.4687 3.91212 44.2534 3.91212ZM44.2534-0.844243C39.5728-0.844243 36.229-4.21485 35.936-9.48291L52.5708-9.48291C52.2778-4.21485 48.9004-0.844243 44.2534-0.844243ZM27.8354-62.4053L31.7144-58.5264C33.1084-59.6357 34.6909-60.3882 36.4468-60.8882C37.4922-61.144 38.0527-61.6323 38.1133-62.6323C38.3438-66.6094 40.6201-69.4311 44.2534-69.4311C47.853-69.4311 50.1631-66.6094 50.3599-62.6323C50.4204-61.6323 51.0146-61.144 52.0264-60.8882C58.7812-59.021 63.6831-53.2969 64.0649-36.6108C64.4165-30.8081 64.8154-27.5982 66.6225-24.5181L78.875-11.6802C79.4678-12.3892 79.7979-13.2515 79.7979-14.2603C79.7979-16.8745 77.1245-19.3203 74.7915-21.6651C71.0283-26.1499 69.7305-29.5703 69.4395-36.5625C69.1333-52.5586 65.0151-62.0859 54.9409-65.5298C53.752-70.564 49.7495-74.4199 44.2534-74.4199C38.7725-74.4199 34.7549-70.564 33.5659-65.5298C31.332-64.8311 29.4331-63.752 27.8354-62.4053ZM9.11181-67.5229L78.2446 1.55762C79.2754 2.57325 80.9394 2.57325 81.9365 1.55762C82.9336 0.511718 82.9521-1.10352 81.9365-2.13428L12.8223-71.1997C11.8218-72.2153 10.1577-72.2456 9.11181-71.1997C8.11474-70.2178 8.11474-68.5049 9.11181-67.5229Z"/>
  </g>
  <g id="Thin-S" transform="matrix(1 0 0 1 812.162 696)">
   <path d="M44.2734 2.95119C51.0078 2.95119 55.8125-2.18164 56.0801-9.02929L64.5761-9.02929L61.1562-12.4844L13.1231-12.4844L13.1231-12.9024C13.3555-14.836 16.1934-18.0195 18.5547-20.5195C22.7832-24.9492 22.8047-33.666 23.8164-42.2363C24.0625-44.6191 24.4414-46.7578 24.9805-48.6738L22.1679-51.4863C21.3379-48.8515 20.8554-45.8984 20.5254-42.6894C19.5273-35.0527 19.584-26.7149 15.8887-22.6192C12.8223-19.25 9.25389-15.9805 9.25389-12.1016C9.25389-10.3477 10.3594-9.30274 12.4707-9.30274L32.4394-9.30274C32.6054-2.35937 37.4297 2.95119 44.2734 2.95119ZM44.2734-0.0234489C39.4727-0.0234489 35.9688-3.6543 35.6758-9.30274L52.8711-9.30274C52.5781-3.6543 49.0605-0.0234489 44.2734-0.0234489ZM27.7754-60.9238L30.1328-58.5664C31.627-59.916 33.4297-60.8887 35.5059-61.4687C36.7715-61.8047 37.4922-62.293 37.6328-63.4531C38.1035-67.3301 40.4199-70.332 44.2734-70.332C48.1133-70.332 50.4434-67.3301 50.9004-63.4531C51.041-62.293 51.7754-61.8047 53.0273-61.4687C60.0625-59.5215 64.3437-53.1367 65.166-38.7929C65.9179-29.707 66.457-25.416 69.6855-20.9747L77.9942-11.5C78.4668-12.0488 78.7168-12.6309 78.7168-13.3594C78.7168-14.6524 77.5449-15.877 76.4531-17.0606C70.7481-24.2481 69.0899-26.7676 68.4785-38.164C67.832-53.3594 63.4336-61.9258 53.9199-64.6289C53.0313-69.8633 49.2891-73.459 44.2734-73.459C39.293-73.459 35.5156-69.8633 34.6269-64.6289C31.8926-63.9102 29.6133-62.6309 27.7754-60.9238ZM9.73241-69.0644L80.1465 1.35742C80.7969 1.97266 81.8203 1.97266 82.457 1.35742C83.0937 0.671873 83.0723-0.302745 82.457-0.953141L12.0215-71.3398C11.4414-71.9551 10.418-72.0254 9.73241-71.3398C9.09569-70.7383 9.09569-69.666 9.73241-69.0644Z"/>
  </g>
  <g id="Ultralight-S" transform="matrix(1 0 0 1 515.431 696)">
   <path d="M44.2837 2.459C50.6182 2.459 55.1153-2.37646 55.2188-9.14209L66.0219-9.14209L63.8119-11.3975L12.1797-11.3975L12.1797-11.795C12.2378-14.0362 15.291-17.5786 17.7857-20.1812C22.5781-25.1338 22.1074-35.2963 23.3858-44.287C23.7036-46.5673 24.1646-48.6035 24.7754-50.4374L22.937-52.2759C22.1069-49.9692 21.5835-47.4365 21.1714-44.7299C19.8965-35.8628 20.2402-26.4175 16.0937-21.7681C13.1299-18.399 9.6743-15.2012 9.6743-11.3018C9.6743-9.94777 10.3901-9.21045 11.9068-9.21045L33.3418-9.21045C33.4565-2.4209 37.9219 2.459 44.2837 2.459ZM44.2837 0.396958C39.4214 0.396958 35.8355-3.3672 35.5425-9.21045L53.0249-9.21045C52.7319-3.3672 49.1426 0.396958 44.2837 0.396958ZM27.7446-60.1651L29.3228-58.5869C30.8682-60.0596 32.7837-61.145 35.0239-61.7661C36.4024-62.1431 37.2051-62.6313 37.3867-63.8735C37.9805-67.6992 40.3174-70.7934 44.2837-70.7934C48.2466-70.7934 50.5869-67.6992 51.1772-63.8735C51.3589-62.6313 52.165-62.1431 53.54-61.7661C60.7187-59.7778 64.6821-53.0547 65.73-39.9106C66.687-29.1431 67.2978-24.2984 71.2543-19.1597L77.543-11.4077C77.9541-11.8745 78.1631-12.313 78.1631-12.898C78.1631-13.5142 77.7602-14.1133 77.3042-14.7022C70.6045-23.274 68.7617-25.3321 67.9863-38.9843C67.1656-53.7695 62.6236-61.8438 53.397-64.1675C52.6621-69.5044 49.0532-72.9668 44.2837-72.9668C39.5596-72.9668 35.9053-69.5044 35.1704-64.1675C32.1797-63.4385 29.7056-62.0567 27.7446-60.1651ZM10.0503-69.854L81.1206 1.25489C81.5761 1.66505 82.2715 1.66505 82.7236 1.25489C83.1758 0.753903 83.1338 0.107408 82.7236-0.348166L11.6113-71.4116C11.2466-71.8218 10.5513-71.9126 10.0503-71.4116C9.59813-71.0049 9.59813-70.2607 10.0503-69.854Z"/>
  </g>
 </g>
</svg>
