<?xml version="1.0" encoding="UTF-8"?>
<!--Generator: Apple Native CoreSVG 232.5-->
<!DOCTYPE svg
PUBLIC "-//W3C//DTD SVG 1.1//EN"
       "http://www.w3.org/Graphics/SVG/1.1/DTD/svg11.dtd">
<svg version="1.1" xmlns="http://www.w3.org/2000/svg" xmlns:xlink="http://www.w3.org/1999/xlink" width="3300" height="2200">
 <g id="Notes">
  <rect height="2200" id="artboard" style="fill:white;opacity:1" width="3300" x="0" y="0"/>
  <line style="fill:none;stroke:black;opacity:1;stroke-width:0.5;" x1="263" x2="3036" y1="292" y2="292"/>
  <text style="stroke:none;fill:black;font-family:sans-serif;font-size:13;font-weight:bold;" transform="matrix(1 0 0 1 263 322)">Weight/Scale Variations</text>
  <text style="stroke:none;fill:black;font-family:sans-serif;font-size:13;text-anchor:middle;" transform="matrix(1 0 0 1 559.711 322)">Ultralight</text>
  <text style="stroke:none;fill:black;font-family:sans-serif;font-size:13;text-anchor:middle;" transform="matrix(1 0 0 1 856.422 322)">Thin</text>
  <text style="stroke:none;fill:black;font-family:sans-serif;font-size:13;text-anchor:middle;" transform="matrix(1 0 0 1 1153.13 322)">Light</text>
  <text style="stroke:none;fill:black;font-family:sans-serif;font-size:13;text-anchor:middle;" transform="matrix(1 0 0 1 1449.84 322)">Regular</text>
  <text style="stroke:none;fill:black;font-family:sans-serif;font-size:13;text-anchor:middle;" transform="matrix(1 0 0 1 1746.56 322)">Medium</text>
  <text style="stroke:none;fill:black;font-family:sans-serif;font-size:13;text-anchor:middle;" transform="matrix(1 0 0 1 2043.27 322)">Semibold</text>
  <text style="stroke:none;fill:black;font-family:sans-serif;font-size:13;text-anchor:middle;" transform="matrix(1 0 0 1 2339.98 322)">Bold</text>
  <text style="stroke:none;fill:black;font-family:sans-serif;font-size:13;text-anchor:middle;" transform="matrix(1 0 0 1 2636.69 322)">Heavy</text>
  <text style="stroke:none;fill:black;font-family:sans-serif;font-size:13;text-anchor:middle;" transform="matrix(1 0 0 1 2933.4 322)">Black</text>
  <line style="fill:none;stroke:black;opacity:1;stroke-width:0.5;" x1="263" x2="3036" y1="1903" y2="1903"/>
  <g transform="matrix(0.2 0 0 0.2 263 1933)">
   <path d="m46.2402 4.15039c21.5332 0 39.4531-17.8711 39.4531-39.4043s-17.9688-39.4043-39.502-39.4043c-21.4844 0-39.3555 17.8711-39.3555 39.4043s17.9199 39.4043 39.4043 39.4043Zm0-7.42188c-17.7246 0-31.8848-14.209-31.8848-31.9824s14.1113-31.9824 31.8359-31.9824c17.7734 0 32.0312 14.209 32.0312 31.9824s-14.209 31.9824-31.9824 31.9824Zm-17.9688-31.9824c0 2.14844 1.51367 3.61328 3.75977 3.61328h10.498v10.5957c0 2.19727 1.46484 3.71094 3.61328 3.71094 2.24609 0 3.71094-1.51367 3.71094-3.71094v-10.5957h10.5957c2.19727 0 3.71094-1.46484 3.71094-3.61328 0-2.19727-1.51367-3.71094-3.71094-3.71094h-10.5957v-10.5469c0-2.24609-1.46484-3.75977-3.71094-3.75977-2.14844 0-3.61328 1.51367-3.61328 3.75977v10.5469h-10.498c-2.24609 0-3.75977 1.51367-3.75977 3.71094Z"/>
  </g>
  <g transform="matrix(0.2 0 0 0.2 281.506 1933)">
   <path d="m58.5449 14.5508c27.2461 0 49.8047-22.6074 49.8047-49.8047 0-27.2461-22.6074-49.8047-49.8535-49.8047-27.1973 0-49.7559 22.5586-49.7559 49.8047 0 27.1973 22.6074 49.8047 49.8047 49.8047Zm0-8.30078c-23.0469 0-41.4551-18.457-41.4551-41.5039s18.3594-41.5039 41.4062-41.5039 41.5527 18.457 41.5527 41.5039-18.457 41.5039-41.5039 41.5039Zm-22.6562-41.5039c0 2.39258 1.66016 4.00391 4.15039 4.00391h14.3555v14.4043c0 2.44141 1.66016 4.15039 4.05273 4.15039 2.44141 0 4.15039-1.66016 4.15039-4.15039v-14.4043h14.4043c2.44141 0 4.15039-1.61133 4.15039-4.00391 0-2.44141-1.70898-4.15039-4.15039-4.15039h-14.4043v-14.3555c0-2.49023-1.70898-4.19922-4.15039-4.19922-2.39258 0-4.05273 1.70898-4.05273 4.19922v14.3555h-14.3555c-2.49023 0-4.15039 1.70898-4.15039 4.15039Z"/>
  </g>
  <g transform="matrix(0.2 0 0 0.2 304.924 1933)">
   <path d="m74.8535 28.3203c34.8145 0 63.623-28.8086 63.623-63.5742 0-34.8145-28.8574-63.623-63.6719-63.623-34.7656 0-63.5254 28.8086-63.5254 63.623 0 34.7656 28.8086 63.5742 63.5742 63.5742Zm0-9.08203c-30.1758 0-54.4434-24.3164-54.4434-54.4922 0-30.2246 24.2188-54.4922 54.3945-54.4922 30.2246 0 54.541 24.2676 54.541 54.4922 0 30.1758-24.2676 54.4922-54.4922 54.4922Zm-28.8574-54.4922c0 2.58789 1.85547 4.39453 4.58984 4.39453h19.7266v19.7754c0 2.68555 1.85547 4.58984 4.44336 4.58984 2.68555 0 4.54102-1.85547 4.54102-4.58984v-19.7754h19.7754c2.68555 0 4.58984-1.80664 4.58984-4.39453 0-2.73438-1.85547-4.58984-4.58984-4.58984h-19.7754v-19.7266c0-2.73438-1.85547-4.63867-4.54102-4.63867-2.58789 0-4.44336 1.9043-4.44336 4.63867v19.7266h-19.7266c-2.73438 0-4.58984 1.85547-4.58984 4.58984Z"/>
  </g>
  <text style="stroke:none;fill:black;font-family:sans-serif;font-size:13;font-weight:bold;" transform="matrix(1 0 0 1 263 1953)">Design Variations</text>
  <text style="stroke:none;fill:black;font-family:sans-serif;font-size:13;" transform="matrix(1 0 0 1 263 1971)">Symbols are supported in up to nine weights and three scales.</text>
  <text style="stroke:none;fill:black;font-family:sans-serif;font-size:13;" transform="matrix(1 0 0 1 263 1989)">For optimal layout with text and other symbols, vertically align</text>
  <text style="stroke:none;fill:black;font-family:sans-serif;font-size:13;" transform="matrix(1 0 0 1 263 2007)">symbols with the adjacent text.</text>
  <line style="fill:none;stroke:#00AEEF;stroke-width:0.5;opacity:1.0;" x1="776" x2="776" y1="1919" y2="1933"/>
  <g transform="matrix(0.2 0 0 0.2 776 1933)">
   <path d="m16.5527 0.78125c2.58789 0 3.85742-0.976562 4.78516-3.71094l6.29883-17.2363h28.8086l6.29883 17.2363c0.927734 2.73438 2.19727 3.71094 4.73633 3.71094 2.58789 0 4.24805-1.5625 4.24805-4.00391 0-0.830078-0.146484-1.61133-0.537109-2.63672l-22.9004-60.9863c-1.12305-2.97852-3.125-4.49219-6.25-4.49219-3.02734 0-5.07812 1.46484-6.15234 4.44336l-22.9004 61.084c-0.390625 1.02539-0.537109 1.80664-0.537109 2.63672 0 2.44141 1.5625 3.95508 4.10156 3.95508Zm13.4766-28.3691 11.8652-32.8613h0.244141l11.8652 32.8613Z"/>
  </g>
  <line style="fill:none;stroke:#00AEEF;stroke-width:0.5;opacity:1.0;" x1="792.836" x2="792.836" y1="1919" y2="1933"/>
  <text style="stroke:none;fill:black;font-family:sans-serif;font-size:13;font-weight:bold;" transform="matrix(1 0 0 1 776 1953)">Margins</text>
  <text style="stroke:none;fill:black;font-family:sans-serif;font-size:13;" transform="matrix(1 0 0 1 776 1971)">Leading and trailing margins on the left and right side of each symbol</text>
  <text style="stroke:none;fill:black;font-family:sans-serif;font-size:13;" transform="matrix(1 0 0 1 776 1989)">can be adjusted by modifying the x-location of the margin guidelines.</text>
  <text style="stroke:none;fill:black;font-family:sans-serif;font-size:13;" transform="matrix(1 0 0 1 776 2007)">Modifications are automatically applied proportionally to all</text>
  <text style="stroke:none;fill:black;font-family:sans-serif;font-size:13;" transform="matrix(1 0 0 1 776 2025)">scales and weights.</text>
  <g transform="matrix(0.2 0 0 0.2 1289 1933)">
   <path d="m14.209 9.32617 8.49609 8.54492c4.29688 4.3457 9.22852 4.05273 13.8672-1.07422l53.4668-58.9355-4.83398-4.88281-53.0762 58.3984c-1.75781 2.00195-3.41797 2.49023-5.76172 0.146484l-5.85938-5.81055c-2.34375-2.29492-1.80664-4.00391 0.195312-5.81055l57.373-54.0039-4.88281-4.83398-57.959 54.4434c-4.93164 4.58984-5.32227 9.47266-1.02539 13.8184Zm32.0801-90.9668c-2.09961 2.05078-2.24609 4.93164-1.07422 6.88477 1.17188 1.80664 3.4668 2.97852 6.68945 2.14844 7.32422-1.70898 14.9414-2.00195 22.0703 2.68555l-2.92969 7.27539c-1.70898 4.15039-0.830078 7.08008 1.85547 9.81445l11.4746 11.5723c2.44141 2.44141 4.49219 2.53906 7.32422 2.05078l5.32227-0.976562 3.32031 3.36914-0.195312 2.7832c-0.195312 2.49023 0.439453 4.39453 2.88086 6.78711l3.80859 3.71094c2.39258 2.39258 5.46875 2.53906 7.8125 0.195312l14.5508-14.5996c2.34375-2.34375 2.24609-5.32227-0.146484-7.71484l-3.85742-3.80859c-2.39258-2.39258-4.24805-3.17383-6.64062-2.97852l-2.88086 0.244141-3.22266-3.17383 1.2207-5.61523c0.634766-2.83203-0.146484-5.0293-3.07617-7.95898l-10.9863-10.9375c-16.6992-16.6016-38.8672-16.2109-53.3203-1.75781Zm7.4707 1.85547c12.1582-8.88672 28.6133-7.37305 39.7461 3.75977l12.1582 12.0605c1.17188 1.17188 1.36719 2.09961 1.02539 3.80859l-1.61133 7.42188 7.51953 7.42188 4.93164-0.292969c1.26953-0.0488281 1.66016 0.0488281 2.63672 1.02539l2.88086 2.88086-12.207 12.207-2.88086-2.88086c-0.976562-0.976562-1.12305-1.36719-1.07422-2.68555l0.341797-4.88281-7.4707-7.42188-7.61719 1.26953c-1.61133 0.341797-2.34375 0.195312-3.56445-0.976562l-10.0098-10.0098c-1.26953-1.17188-1.41602-2.00195-0.634766-3.85742l4.39453-10.4492c-7.8125-7.27539-17.9688-10.4004-28.125-7.42188-0.78125 0.195312-1.07422-0.439453-0.439453-0.976562Z"/>
  </g>
  <text style="stroke:none;fill:black;font-family:sans-serif;font-size:13;font-weight:bold;" transform="matrix(1 0 0 1 1289 1953)">Exporting</text>
  <text style="stroke:none;fill:black;font-family:sans-serif;font-size:13;" transform="matrix(1 0 0 1 1289 1971)">Symbols should be outlined when exporting to ensure the</text>
  <text style="stroke:none;fill:black;font-family:sans-serif;font-size:13;" transform="matrix(1 0 0 1 1289 1989)">design is preserved when submitting to Xcode.</text>
  <text id="template-version" style="stroke:none;fill:black;font-family:sans-serif;font-size:13;text-anchor:end;" transform="matrix(1 0 0 1 3036 1933)">Template v.2.0</text>
  <text style="stroke:none;fill:black;font-family:sans-serif;font-size:13;text-anchor:end;" transform="matrix(1 0 0 1 3036 1951)">Requires Xcode 12 or greater</text>
  <text id="descriptive-name" style="stroke:none;fill:black;font-family:sans-serif;font-size:13;text-anchor:end;" transform="matrix(1 0 0 1 3036 1969)">Generated from battery.100percent</text>
  <text style="stroke:none;fill:black;font-family:sans-serif;font-size:13;text-anchor:end;" transform="matrix(1 0 0 1 3036 1987)">Typeset at 100.0 points</text>
  <text style="stroke:none;fill:black;font-family:sans-serif;font-size:13;" transform="matrix(1 0 0 1 263 726)">Small</text>
  <text style="stroke:none;fill:black;font-family:sans-serif;font-size:13;" transform="matrix(1 0 0 1 263 1156)">Medium</text>
  <text style="stroke:none;fill:black;font-family:sans-serif;font-size:13;" transform="matrix(1 0 0 1 263 1586)">Large</text>
 </g>
 <g id="Guides">
  <g id="H-reference" style="fill:#27AAE1;stroke:none;" transform="matrix(1 0 0 1 339 696)">
   <path d="M0.993654 0L3.63775 0L29.3281-67.1323L30.0303-67.1323L30.0303-70.459L28.1226-70.459ZM11.6885-24.4799L46.9815-24.4799L46.2315-26.7285L12.4385-26.7285ZM55.1196 0L57.7637 0L30.6382-70.459L29.4326-70.459L29.4326-67.1323Z"/>
  </g>
  <line id="Baseline-S" style="fill:none;stroke:#27AAE1;opacity:1;stroke-width:0.5;" x1="263" x2="3036" y1="696" y2="696"/>
  <line id="Capline-S" style="fill:none;stroke:#27AAE1;opacity:1;stroke-width:0.5;" x1="263" x2="3036" y1="625.541" y2="625.541"/>
  <g id="H-reference" style="fill:#27AAE1;stroke:none;" transform="matrix(1 0 0 1 339 1126)">
   <path d="M0.993654 0L3.63775 0L29.3281-67.1323L30.0303-67.1323L30.0303-70.459L28.1226-70.459ZM11.6885-24.4799L46.9815-24.4799L46.2315-26.7285L12.4385-26.7285ZM55.1196 0L57.7637 0L30.6382-70.459L29.4326-70.459L29.4326-67.1323Z"/>
  </g>
  <line id="Baseline-M" style="fill:none;stroke:#27AAE1;opacity:1;stroke-width:0.5;" x1="263" x2="3036" y1="1126" y2="1126"/>
  <line id="Capline-M" style="fill:none;stroke:#27AAE1;opacity:1;stroke-width:0.5;" x1="263" x2="3036" y1="1055.54" y2="1055.54"/>
  <g id="H-reference" style="fill:#27AAE1;stroke:none;" transform="matrix(1 0 0 1 339 1556)">
   <path d="M0.993654 0L3.63775 0L29.3281-67.1323L30.0303-67.1323L30.0303-70.459L28.1226-70.459ZM11.6885-24.4799L46.9815-24.4799L46.2315-26.7285L12.4385-26.7285ZM55.1196 0L57.7637 0L30.6382-70.459L29.4326-70.459L29.4326-67.1323Z"/>
  </g>
  <line id="Baseline-L" style="fill:none;stroke:#27AAE1;opacity:1;stroke-width:0.5;" x1="263" x2="3036" y1="1556" y2="1556"/>
  <line id="Capline-L" style="fill:none;stroke:#27AAE1;opacity:1;stroke-width:0.5;" x1="263" x2="3036" y1="1485.54" y2="1485.54"/>
  <line id="left-margin" style="fill:none;stroke:#00AEEF;stroke-width:0.5;opacity:1.0;" x1="1365.13" x2="1365.13" y1="1030.79" y2="1150.12"/>
  <line id="right-margin" style="fill:none;stroke:#00AEEF;stroke-width:0.5;opacity:1.0;" x1="1534.56" x2="1534.56" y1="1030.79" y2="1150.12"/>
 </g>
 <g id="Symbols">
  <g id="Black-L" transform="matrix(1 0 0 1 2817.53 1556)">
   <path d="M52.692-16.2177L153.542-16.2177C155.986-16.2177 157.517-16.5966 158.634-17.7361C159.774-18.8767 160.174-20.407 160.174-22.8283L160.174-47.7063C160.174-50.13 159.774-51.6579 158.656-52.7986C157.517-53.9368 155.963-54.2961 153.542-54.2961L52.7039-54.2961C50.2707-54.2961 48.716-53.938 47.5985-52.7998C46.4602-51.6591 46.0605-50.1264 46.0605-47.6735L46.0605-22.8283C46.0605-20.4046 46.4602-18.8767 47.5985-17.7361C48.7392-16.5978 50.2719-16.2177 52.692-16.2177ZM54.0383 13.7588L152.197 13.7588C165.993 13.7588 174.813 11.6929 181.5 5.02835C188.164-1.65823 190.15-10.3007 190.15-24.1955L190.15-46.3391C190.15-60.234 188.164-68.936 181.5-75.5421C174.754-82.2275 165.993-84.2934 152.197-84.2934L54.0263-84.2934C40.2639-84.2934 31.4218-82.2263 24.7364-75.541C18.0707-68.8752 16.084-60.2316 16.084-46.3523L16.084-24.1955C16.084-10.3007 18.0695-1.59863 24.7352 5.02835C31.4802 11.6929 40.2407 13.7588 54.0383 13.7588ZM52.2715-6.22099C45.6485-6.22099 41.8935-7.19515 39.3963-9.63393C36.8991-12.0727 36.065-15.7461 36.065-22.4286L36.065-48.0732C36.065-54.7862 36.9575-58.3839 39.3951-60.9019C41.8339-63.4003 45.6509-64.2928 52.3042-64.2928L153.963-64.2928C160.586-64.2928 164.34-63.3395 166.837-60.9007C169.335-58.4411 170.17-54.7886 170.17-48.0852L170.17-22.4286C170.17-15.7461 169.275-12.1311 166.837-9.63393C164.399-7.13555 160.586-6.22099 153.963-6.22099ZM201.417-15.3934C207.483-15.7723 215.663-23.5741 215.663-35.2673C215.663-46.9605 207.483-54.7623 201.417-55.1412Z"/>
  </g>
  <g id="Heavy-L" transform="matrix(1 0 0 1 2522.54 1556)">
   <path d="M50.7854-14.6675L153.359-14.6675C156.353-14.6675 158.176-15.1225 159.451-16.4335C160.762-17.7502 161.253-19.5724 161.253-22.525L161.253-47.992C161.253-50.9558 160.762-52.7668 159.487-54.0834C158.176-55.3888 156.312-55.8193 153.359-55.8193L50.8415-55.8193C47.8327-55.8193 45.9635-55.3945 44.6883-54.089C43.3829-52.7724 42.8977-50.939 42.8977-47.9056L42.8977-22.525C42.8977-19.5611 43.3829-17.7502 44.6883-16.4335C46.0049-15.1281 47.8384-14.6675 50.7854-14.6675ZM52.9314 12.1462L151.219 12.1462C164.344 12.1462 173.148 10.3074 179.743 3.74829C186.302-2.84661 188.061-11.5059 188.061-24.7012L188.061-45.8157C188.061-59.0111 186.302-67.7206 179.743-74.2351C173.098-80.8243 164.344-82.6632 151.219-82.6632L52.8753-82.6632C39.8422-82.6632 31.002-80.8187 24.4127-74.2294C17.848-67.6647 16.084-58.9998 16.084-45.8775L16.084-24.7012C16.084-11.5059 17.8424-2.79637 24.4071 3.74829C31.0466 10.3074 39.8007 12.1462 52.9314 12.1462ZM51.1734-5.34858C44.5259-5.34858 40.0531-6.32943 37.2438-9.09407C34.4346-11.8587 33.5844-16.2455 33.5844-22.9432L33.5844-47.4874C33.5844-54.2602 34.4792-58.589 37.2382-61.4285C40.0029-64.2434 44.5371-65.1382 51.2597-65.1382L152.977-65.1382C159.625-65.1382 164.092-64.1875 166.901-61.4229C169.71-58.6281 170.566-54.2715 170.566-47.5436L170.566-22.9432C170.566-16.2455 169.66-11.9033 166.901-9.09407C164.136-6.2792 159.625-5.34858 152.977-5.34858ZM198.617-16.2913C204.405-16.652 212.207-24.0937 212.207-35.2585C212.207-46.4233 204.405-53.865 198.617-54.2257Z"/>
  </g>
  <g id="Bold-L" transform="matrix(1 0 0 1 2228.1 1556)">
   <path d="M48.6499-12.754L152.719-12.754C156.494-12.754 158.744-13.3236 160.242-14.8721C161.79-16.4338 162.411-18.6842 162.411-22.3944L162.411-48.0921C162.411-51.8288 161.79-54.0527 160.293-55.6144C158.744-57.1496 156.429-57.6945 152.719-57.6945L48.7822-57.6945C44.9396-57.6945 42.6116-57.1629 41.1143-55.6276C39.5791-54.0659 38.9714-51.7891 38.9714-47.9218L38.9714-22.3944C38.9714-18.6577 39.5791-16.4338 41.1143-14.8721C42.676-13.3368 44.9529-12.754 48.6499-12.754ZM51.5487 10.1335L149.834 10.1335C162.285 10.1335 170.962 8.51927 177.382 2.15041C183.751-4.26966 185.285-12.8327 185.285-25.3312L185.285-45.1553C185.285-57.6538 183.751-66.2593 177.382-72.5989C170.92-79.0058 162.285-80.62 149.834-80.62L51.4164-80.62C39.1483-80.62 30.4199-78.9925 24.0131-72.5857C17.631-66.2036 16.084-57.6273 16.084-45.3008L16.084-25.3312C16.084-12.8327 17.6178-4.22723 23.9999 2.15041C30.4491 8.51927 39.0838 10.1335 51.5487 10.1335ZM49.8059-4.29504C43.0159-4.29504 37.7561-5.32085 34.5924-8.45537C31.4287-11.5899 30.5257-16.756 30.5257-23.5884L30.5257-46.7278C30.5257-53.704 31.4579-58.8426 34.5792-62.0443C37.7137-65.2213 43.0424-66.1535 49.9762-66.1535L151.576-66.1535C158.366-66.1535 163.613-65.1656 166.777-62.0311C169.94-58.8586 170.857-53.7305 170.857-46.8601L170.857-23.5884C170.857-16.756 169.898-11.6191 166.777-8.45537C163.642-5.27842 158.366-4.29504 151.576-4.29504ZM194.891-17.4054C200.333-17.743 207.666-24.7391 207.666-35.2432C207.666-45.7474 200.333-52.7434 194.891-53.0811Z"/>
  </g>
  <g id="Semibold-L" transform="matrix(1 0 0 1 1932.96 1556)">
   <path d="M47.1777-11.4348L152.278-11.4348C156.591-11.4348 159.136-12.0835 160.787-13.7956C162.499-15.5262 163.209-18.0719 163.209-22.3044L163.209-48.1611C163.209-52.4306 162.499-54.9392 160.848-56.6699C159.136-58.3635 156.51-58.9873 152.278-58.9873L47.3625-58.9873C42.9452-58.9873 40.3007-58.382 38.6504-56.6883C36.9567-54.9577 36.2647-52.3751 36.2647-47.9329L36.2647-22.3044C36.2647-18.0349 36.9567-15.5262 38.6504-13.7956C40.381-12.102 42.9636-11.4348 47.1777-11.4348ZM50.5954 8.74593L148.879 8.74593C160.866 8.74593 169.455 7.28655 175.755 1.04885C181.993-5.2507 183.372-13.7474 183.372-25.7655L183.372-44.7C183.372-56.7181 181.993-65.2518 175.755-71.471C169.418-77.752 160.866-79.2114 148.879-79.2114L50.4106-79.2114C38.6699-79.2114 30.0187-77.7335 23.7376-71.4525C17.4814-65.1963 16.084-56.6811 16.084-44.9033L16.084-25.7655C16.084-13.7474 17.4629-5.21365 23.7191 1.04885C30.0373 7.28655 38.5895 8.74593 50.5954 8.74593ZM48.8631-3.56873C41.9749-3.56873 36.1726-4.62554 32.7645-8.01506C29.3565-11.4046 28.4171-17.1079 28.4171-24.0332L28.4171-46.2041C28.4171-53.3206 29.375-59.0175 32.7461-62.4689C36.1356-65.8955 42.0119-66.8534 49.0913-66.8534L150.611-66.8534C157.499-66.8534 163.283-65.8399 166.691-62.4504C170.099-59.0175 171.057-53.3575 171.057-46.3889L171.057-24.0332C171.057-17.1079 170.062-11.4231 166.691-8.01506C163.301-4.58849 157.499-3.56873 150.611-3.56873ZM192.322-18.1734C197.525-18.4952 204.536-25.184 204.536-35.2327C204.536-45.2815 197.525-51.9703 192.322-52.292Z"/>
  </g>
  <g id="Medium-L" transform="matrix(1 0 0 1 1637.43 1556)">
   <path d="M46.0614-10.4346L151.943-10.4346C156.664-10.4346 159.434-11.1431 161.2-12.9794C163.036-14.8381 163.815-17.6076 163.815-22.2362L163.815-48.2134C163.815-52.8869 163.036-55.6114 161.27-57.4701C159.434-59.2839 156.572-59.9676 151.943-59.9676L46.286-59.9676C41.4329-59.9676 38.5485-59.3064 36.7822-57.4926C34.9684-55.6339 34.2124-52.8195 34.2124-47.9413L34.2124-22.2362C34.2124-17.5627 34.9684-14.8381 36.7822-12.9794C38.6409-11.1656 41.4553-10.4346 46.0614-10.4346ZM49.8726 7.69382L148.154 7.69382C159.79 7.69382 168.313 6.35185 174.521 0.213592C180.659-5.99457 181.921-14.4409 181.921-26.0948L181.921-44.3547C181.921-56.0086 180.659-64.488 174.521-70.6157C168.28-76.8014 159.79-78.1434 148.154-78.1434L49.648-78.1434C38.3072-78.1434 29.7144-76.7789 23.5287-70.5932C17.368-64.4325 16.084-55.9637 16.084-44.6018L16.084-26.0948C16.084-14.4409 17.3455-5.96159 23.5063 0.213592C29.7249 6.35185 38.2148 7.69382 49.8726 7.69382ZM48.1483-3.01801C41.1856-3.01801 34.972-4.09833 31.3786-7.68119C27.7852-11.264 26.8183-17.3748 26.8183-24.3705L26.8183-45.807C26.8183-53.0298 27.7957-59.15 31.3561-62.7908C34.939-66.4067 41.2305-67.3841 48.4204-67.3841L149.879-67.3841C156.841-67.3841 163.033-66.3512 166.626-62.7684C170.219-59.1381 171.209-53.0748 171.209-46.0316L171.209-24.3705C171.209-17.3748 170.186-11.2746 166.626-7.68119C163.043-4.06535 156.841-3.01801 149.879-3.01801ZM190.374-18.7558C195.397-19.0656 202.162-25.5214 202.162-35.2248C202.162-44.9282 195.397-51.384 190.374-51.6937Z"/>
  </g>
  <g id="Regular-L" transform="matrix(1 0 0 1 1342.27 1556)">
   <path d="M44.6054-9.12989L151.507-9.12989C156.76-9.12989 159.821-9.91663 161.739-11.9148C163.737-13.9406 164.604-17.002 164.604-22.1471L164.604-48.2816C164.604-53.4821 163.737-56.4882 161.819-58.514C159.821-60.4845 156.652-61.2461 151.507-61.2461L44.882-61.2461C39.4603-61.2461 36.2631-60.5121 34.3454-58.5417C32.3749-56.5159 31.5354-53.3991 31.5354-47.9523L31.5354-22.1471C31.5354-16.9467 32.3749-13.9406 34.3454-11.9148C36.3712-9.94429 39.4879-9.12989 44.6054-9.12989ZM48.9298 6.32152L147.21 6.32152C158.386 6.32152 166.822 5.13267 172.911-0.875871C178.92-6.96483 180.028-15.3456 180.028-26.5243L180.028-43.9044C180.028-55.0832 178.92-63.4916 172.911-69.5001C166.794-75.5615 158.386-76.7503 147.21-76.7503L48.6533-76.7503C37.834-76.7503 29.3176-75.5338 23.2563-69.4725C17.2201-63.4363 16.084-55.0279 16.084-44.2087L16.084-26.5243C16.084-15.3456 17.1924-6.93718 23.2286-0.875871C29.3176 5.13267 37.726 6.32152 48.9298 6.32152ZM47.2159-2.29969C40.156-2.29969 33.4058-3.41066 29.5708-7.24571C25.7357-11.0808 24.7328-17.7229 24.7328-24.8104L24.7328-45.289C24.7328-52.6506 25.7357-59.3229 29.5431-63.2107C33.3782-67.0734 40.2113-68.0763 47.5452-68.0763L148.924-68.0763C155.984-68.0763 162.706-67.0181 166.541-63.1831C170.376-59.2953 171.407-52.7059 171.407-45.5656L171.407-24.8104C171.407-17.7229 170.349-11.0808 166.541-7.24571C162.706-3.38301 155.984-2.29969 148.924-2.29969ZM187.833-19.5154C192.62-19.8095 199.066-25.9614 199.066-35.2144C199.066-44.4674 192.62-50.6193 187.833-50.9133Z"/>
  </g>
  <g id="Light-L" transform="matrix(1 0 0 1 1047.96 1556)">
   <path d="M44.5863-7.85118L148.396-7.85118C154.832-7.85118 158.619-8.84786 160.861-11.1704C163.184-13.5398 164.261-17.3265 164.261-23.6358L164.261-46.7166C164.261-53.1194 163.184-56.8127 160.941-59.182C158.619-61.4578 154.705-62.4676 148.396-62.4676L45.0537-62.4676C38.277-62.4676 34.3164-61.5046 32.0742-59.2287C29.7984-56.8594 28.768-52.9792 28.768-46.2156L28.768-23.6358C28.768-17.233 29.7984-13.5398 32.0742-11.1704C34.4436-8.8946 38.3237-7.85118 44.5863-7.85118ZM47.8992 4.83286L145.13 4.83286C156.859 4.83286 164.513 3.43408 170.086-2.05916C175.58-7.63282 176.898-15.1929 176.898-26.9824L176.898-43.3701C176.898-55.1596 175.58-62.7664 170.086-68.2596C164.466-73.7865 156.859-75.1853 145.13-75.1853L47.4318-75.1853C36.25-75.1853 28.516-73.7398 22.9891-68.2129C17.4491-62.6729 16.084-55.0661 16.084-43.8842L16.084-26.9824C16.084-15.1929 17.4023-7.58608 22.9423-2.05916C28.516 3.43408 36.1228 4.83286 47.8992 4.83286ZM46.2235-1.74622C38.3429-1.74622 31.7073-3.12438 27.834-6.9976C23.9608-10.8708 22.7098-17.3793 22.7098-25.3066L22.7098-44.5447C22.7098-52.8796 23.9608-59.4947 27.7873-63.4016C31.6605-67.3215 38.4364-68.5725 46.7246-68.5725L146.805-68.5725C154.686-68.5725 161.275-67.2281 165.148-63.3548C169.021-59.4479 170.319-52.9731 170.319-45.0121L170.319-25.3066C170.319-17.3793 168.974-10.8708 165.148-6.9976C161.275-3.07764 154.686-1.74622 146.805-1.74622ZM183.596-20.2979C188.135-20.5729 194.257-26.4194 194.257-35.1762C194.257-43.933 188.135-49.7796 183.596-50.0545Z"/>
  </g>
  <g id="Thin-L" transform="matrix(1 0 0 1 754.432 1556)">
   <path d="M44.5611-6.15997L144.281-6.15997C152.283-6.15997 157.029-7.43431 159.7-10.186C162.452-13.0097 163.806-17.7556 163.806-25.6047L163.806-44.6468C163.806-52.6399 162.452-57.2418 159.78-60.0655C157.029-62.7452 152.13-64.0831 144.281-64.0831L45.2809-64.0831C36.712-64.0831 31.7417-62.8172 29.0705-60.1374C26.3907-57.3137 25.108-52.4239 25.108-43.9185L25.108-25.6047C25.108-17.6116 26.3907-13.0097 29.0705-10.186C31.8941-7.5063 36.784-6.15997 44.5611-6.15997ZM46.5362 2.864L142.378 2.864C154.84 2.864 161.459 1.18756 166.351-3.62415C171.162-8.51628 172.758-14.991 172.758-27.5882L172.758-42.6633C172.758-55.2605 171.162-61.8072 166.351-66.6189C161.387-71.439 154.84-73.1155 142.378-73.1155L45.8163-73.1155C34.1549-73.1155 27.4558-71.367 22.6357-66.5469C17.752-61.6632 16.084-55.1166 16.084-43.4551L16.084-27.5882C16.084-14.991 17.68-8.4443 22.5637-3.62415C27.4558 1.18756 34.0025 2.864 46.5362 2.864ZM44.9109-1.0142C35.9449-1.0142 29.4607-2.74576 25.537-6.66946C21.6133-10.5932 20.0342-16.925 20.0342-25.9629L20.0342-43.5603C20.0342-53.1825 21.6133-59.7219 25.465-63.654C29.3887-67.6497 36.0889-69.2288 45.6392-69.2288L144.003-69.2288C152.969-69.2288 159.382-67.5057 163.305-63.582C167.229-59.6499 168.88-53.3265 168.88-44.2801L168.88-25.9629C168.88-16.925 167.157-10.5932 163.305-6.66946C159.382-2.67377 152.969-1.0142 144.003-1.0142ZM177.992-21.3329C182.204-21.5825 187.896-27.0252 187.896-35.1257C187.896-43.2262 182.204-48.6689 177.992-48.9186Z"/>
  </g>
  <g id="Ultralight-L" transform="matrix(1 0 0 1 459.35 1556)">
   <path d="M44.5481-5.29375L142.174-5.29375C150.977-5.29375 156.214-6.71031 159.105-9.6818C162.077-12.7382 163.574-17.9754 163.574-26.6131L163.574-43.5867C163.574-52.3942 162.077-57.4616 159.186-60.518C156.214-63.4045 150.812-64.9105 142.174-64.9105L45.3973-64.9105C35.9104-64.9105 30.423-63.4894 27.5319-60.6029C24.6454-57.5465 23.2333-52.1395 23.2333-42.742L23.2333-26.6131C23.2333-17.8055 24.6454-12.7382 27.5319-9.6818C30.5883-6.79522 35.9953-5.29375 44.5481-5.29375ZM45.838 1.85556L140.969 1.85556C153.806 1.85556 159.894 0.0369035 164.437-4.42573C168.9-8.96879 170.638-14.8875 170.638-27.8985L170.638-42.3013C170.638-55.3122 168.9-61.3159 164.437-65.7785C159.809-70.2367 153.806-72.0553 140.969-72.0553L44.9889-72.0553C33.0818-72.0553 26.9128-70.1517 22.4547-65.6936C17.9071-61.1461 16.084-55.1424 16.084-43.2353L16.084-27.8985C16.084-14.8875 17.8222-8.88388 22.3698-4.42573C26.9128 0.0369035 32.9165 1.85556 45.838 1.85556ZM44.2386-0.639271C34.7167-0.639271 28.3101-2.55183 24.3605-6.50139C20.4109-10.4509 18.6637-16.6923 18.6637-26.2991L18.6637-43.0561C18.6637-53.3377 20.4109-59.8382 24.2756-63.7833C28.2252-67.8178 34.8865-69.565 45.0832-69.565L142.568-69.565C152.09-69.565 158.412-67.6479 162.362-63.6984C166.311-59.7533 168.143-53.5075 168.143-43.9052L168.143-26.2991C168.143-16.6923 166.226-10.4509 162.362-6.50139C158.412-2.46691 152.09-0.639271 142.568-0.639271ZM175.122-21.8629C179.165-22.0997 184.638-27.3355 184.638-35.0999C184.638-42.8642 179.165-48.1001 175.122-48.3368Z"/>
  </g>
  <g id="Black-M" transform="matrix(1 0 0 1 2842.47 1126)">
   <path d="M42.4587-21.6594L118.69-21.6594C120.272-21.6594 121.305-21.9159 122.079-22.6952C122.859-23.4742 123.121-24.5072 123.121-26.0842L123.121-44.4382C123.121-46.0147 122.859-47.0482 122.085-47.8272C121.305-48.6068 120.267-48.8576 118.69-48.8576L42.4559-48.8576C40.8817-48.8576 39.844-48.6065 39.0699-47.827C38.2904-47.0479 38.0283-46.0155 38.0283-44.4356L38.0283-26.0842C38.0283-24.5078 38.2904-23.4742 39.0699-22.6952C39.849-21.9156 40.8814-21.6594 42.4587-21.6594ZM42.6774 3.90805L118.471 3.90805C129.812 3.90805 136.553 2.08388 141.742-3.10026C146.926-8.2896 148.688-14.8596 148.688-26.3084L148.688-44.214C148.688-55.6628 146.926-62.2896 141.742-67.4167C136.496-72.6063 129.812-74.4305 118.471-74.4305L42.6802-74.4305C31.3419-74.4305 24.596-72.6066 19.4064-67.417C14.2225-62.2331 12.4609-55.6634 12.4609-44.2109L12.4609-26.3084C12.4609-14.8596 14.2228-8.23279 19.4067-3.10026C24.6531 2.08388 31.337 3.90805 42.6774 3.90805ZM41.3061-13.4302C36.0849-13.4302 33.8082-14.2153 32.1366-15.8299C30.4649-17.4444 29.7989-19.6591 29.7989-24.9371L29.7989-45.5826C29.7989-50.8639 30.522-53.0151 32.1368-54.6923C33.7514-56.3636 36.0843-57.0867 41.3088-57.0867L119.843-57.0867C125.064-57.0867 127.341-56.3071 129.013-54.6925C130.684-53.0725 131.35-50.8633 131.35-45.5798L131.35-24.9371C131.35-19.6591 130.627-17.5015 129.013-15.8299C127.398-14.1585 125.064-13.4302 119.843-13.4302ZM157.878-19.196C162.783-19.5026 169.402-25.8152 169.402-35.2612C169.402-44.7072 162.783-51.0198 157.878-51.3264Z"/>
  </g>
  <g id="Heavy-M" transform="matrix(1 0 0 1 2547.22 1126)">
   <path d="M40.5966-20.2619L118.799-20.2619C120.809-20.2619 122.061-20.5734 122.959-21.4905C123.876-22.4099 124.206-23.6613 124.206-25.6503L124.206-44.8619C124.206-46.8554 123.876-48.1023 122.978-49.0217C122.061-49.9365 120.788-50.2339 118.799-50.2339L40.6193-50.2339C38.6076-50.2339 37.333-49.9387 36.4346-49.0239C35.5197-48.1046 35.1917-46.8486 35.1917-44.8227L35.1917-25.6503C35.1917-23.6568 35.5197-22.4099 36.4346-21.4905C37.3539-20.5757 38.6099-20.2619 40.5966-20.2619ZM41.6904 2.46894L117.708 2.46894C128.341 2.46894 135.139 0.886143 140.286-4.24244C145.414-9.3897 146.935-16.0519 146.935-26.7605L146.935-43.7517C146.935-54.4603 145.414-61.1684 140.286-66.2533C135.093-71.3983 128.341-72.9811 117.708-72.9811L41.6677-72.9811C31.0758-72.9811 24.2595-71.3961 19.1146-66.2511C13.9837-61.1202 12.4609-54.4558 12.4609-43.7767L12.4609-26.7605C12.4609-16.0519 13.9814-9.3438 19.1123-4.24244C24.3032 0.886143 31.0548 2.46894 41.6904 2.46894ZM40.3243-12.6284C35.1548-12.6284 32.1658-13.3955 30.1926-15.325C28.2194-17.2546 27.5605-20.179 27.5605-25.3944L27.5605-45.0787C27.5605-50.3286 28.263-53.1998 30.1903-55.1894C32.1199-57.1649 35.1593-57.8674 40.3634-57.8674L119.074-57.8674C124.243-57.8674 127.23-57.1167 129.203-55.1872C131.176-53.2412 131.838-50.3332 131.838-45.1014L131.838-25.3944C131.838-20.179 131.131-17.2982 129.203-15.325C127.274-13.3496 124.243-12.6284 119.074-12.6284ZM155.532-20.0016C160.188-20.2921 166.467-26.2808 166.467-35.2561C166.467-44.2314 160.188-50.2201 155.532-50.5106Z"/>
  </g>
  <g id="Bold-M" transform="matrix(1 0 0 1 2252.16 1126)">
   <path d="M38.5136-18.6985L118.921-18.6985C121.41-18.6985 122.905-19.0717 123.943-20.143C125.014-21.2193 125.421-22.7151 125.421-25.165L125.421-45.3358C125.421-47.7959 125.014-49.2814 123.977-50.3578C122.905-51.4239 121.371-51.7736 118.921-51.7736L38.565-51.7736C36.0638-51.7736 34.524-51.429 33.4865-50.3629C32.4204-49.2866 32.0186-47.7805 32.0186-45.2558L32.0186-25.165C32.0186-22.7048 32.4204-21.2193 33.4865-20.143C34.5628-19.0769 36.0689-18.6985 38.5136-18.6985ZM40.5863 0.859087L116.853 0.859087C126.695 0.859087 133.556-0.453702 138.657-5.52013C143.723-10.6203 144.974-17.3856 144.974-27.2663L144.974-43.2344C144.974-53.1152 143.723-59.9141 138.657-64.952C133.523-70.0471 126.695-71.3598 116.853-71.3598L40.535-71.3598C30.7781-71.3598 23.8832-70.0419 18.7881-64.9469C13.7166-59.8753 12.4609-53.1049 12.4609-43.2909L12.4609-27.2663C12.4609-17.3856 13.7114-10.5866 18.783-5.52013C23.9117-0.453702 30.7392 0.859087 40.5863 0.859087ZM39.2259-11.7315C34.1143-11.7315 30.3285-12.4783 28.018-14.7603C25.7075-17.0423 25.0566-20.7606 25.0566-25.9059L25.0566-44.5149C25.0566-49.7299 25.736-53.4065 28.0129-55.7456C30.2948-58.0613 34.1246-58.7406 39.3059-58.7406L118.214-58.7406C123.325-58.7406 127.106-58.0225 129.416-55.7405C131.727-53.4299 132.383-49.7401 132.383-44.5663L132.383-25.9059C132.383-20.7606 131.693-17.0708 129.416-14.7603C127.135-12.4446 123.325-11.7315 118.214-11.7315ZM152.908-20.9026C157.285-21.1753 163.184-26.8016 163.184-35.2504C163.184-43.6991 157.285-49.3255 152.908-49.5981Z"/>
  </g>
  <g id="Semibold-M" transform="matrix(1 0 0 1 1956.58 1126)">
   <path d="M37.0776-17.6208L119.005-17.6208C121.824-17.6208 123.488-18.0365 124.621-19.214C125.799-20.3986 126.258-22.0628 126.258-24.8304L126.258-45.6625C126.258-48.4443 125.799-50.0943 124.665-51.2789C123.488-52.4493 121.772-52.835 119.005-52.835L37.1487-52.835C34.31-52.835 32.5874-52.4564 31.4541-51.286C30.2837-50.1014 29.831-48.423 29.831-45.5544L29.831-24.8304C29.831-22.0486 30.2837-20.3986 31.4541-19.214C32.6387-18.0436 34.3171-17.6208 37.0776-17.6208ZM39.8252-0.250736L116.264-0.250736C125.561-0.250736 132.466-1.37738 137.533-6.40096C142.557-11.4687 143.621-18.3051 143.621-27.615L143.621-42.8779C143.621-52.1878 142.557-59.0494 137.533-64.0549C132.44-69.1155 125.561-70.2421 116.264-70.2421L39.7541-70.2421C30.5729-70.2421 23.6237-69.1084 18.5631-64.0478C13.5324-59.0171 12.4609-52.1736 12.4609-42.956L12.4609-27.615C12.4609-18.3051 13.5253-11.4434 18.556-6.40096C23.6419-1.37738 30.5216-0.250736 39.8252-0.250736ZM38.4687-11.1132C33.397-11.1132 29.0619-11.846 26.5188-14.3709C23.9758-16.8959 23.3305-21.1616 23.3305-26.2585L23.3305-44.1263C23.3305-49.3171 23.9939-53.5489 26.5117-56.129C29.0367-58.6792 33.4112-59.3427 38.5768-59.3427L117.621-59.3427C122.692-59.3427 127.02-58.6469 129.564-56.1219C132.107-53.56 132.759-49.3313 132.759-44.1973L132.759-26.2585C132.759-21.1616 132.081-16.914 129.564-14.3709C127.039-11.8207 122.692-11.1132 117.621-11.1132ZM151.098-21.5239C155.284-21.7841 160.921-27.1607 160.921-35.2464C160.921-43.3322 155.284-48.7087 151.098-48.969Z"/>
  </g>
  <g id="Medium-M" transform="matrix(1 0 0 1 1660.72 1126)">
   <path d="M35.9888-16.8036L119.068-16.8036C122.137-16.8036 123.929-17.2515 125.135-18.5096C126.393-19.7762 126.893-21.5682 126.893-24.5767L126.893-45.9102C126.893-48.9359 126.393-50.7107 125.187-51.9773C123.929-53.2268 122.077-53.6399 119.068-53.6399L36.0748-53.6399C32.9803-53.6399 31.1191-53.2354 29.9131-51.9859C28.6636-50.7193 28.1723-48.9101 28.1723-45.7808L28.1723-24.5767C28.1723-21.551 28.6636-19.7762 29.9131-18.5096C31.1797-17.2601 32.9889-16.8036 35.9888-16.8036ZM39.2481-1.09225L115.818-1.09225C124.7-1.09225 131.639-2.07776 136.682-7.06885C141.673-12.112 142.596-19.0022 142.596-27.8794L142.596-42.6075C142.596-51.4847 141.673-58.3938 136.682-63.3746C131.62-68.4091 124.7-69.3946 115.818-69.3946L39.1621-69.3946C30.4173-69.3946 23.427-68.4005 18.3924-63.366C13.3927-58.3663 12.4609-51.4675 12.4609-42.7021L12.4609-27.8794C12.4609-19.0022 13.3841-12.0931 18.3838-7.06885C23.4372-2.07776 30.3566-1.09225 39.2481-1.09225ZM37.8946-10.6443C32.8532-10.6443 28.1015-11.3666 25.3821-14.0757C22.6627-16.7849 22.0216-21.4656 22.0216-26.5259L22.0216-43.8316C22.0216-49.0041 22.673-53.6569 25.3735-56.4198C28.0827-59.1478 32.8704-59.7991 38.024-59.7991L117.171-59.7991C122.213-59.7991 126.956-59.1203 129.675-56.4112C132.394-53.6586 133.044-49.0213 133.044-43.9176L133.044-26.5259C133.044-21.4656 132.376-16.7951 129.675-14.0757C126.966-11.3477 122.213-10.6443 117.171-10.6443ZM149.726-21.9949C153.766-22.2458 159.204-27.433 159.204-35.2434C159.204-43.0539 153.766-48.2411 149.726-48.492Z"/>
  </g>
  <g id="Regular-M" transform="matrix(1 0 0 1 1365.13 1126)">
   <path d="M34.5686-15.7377L119.151-15.7377C122.547-15.7377 124.505-16.2276 125.806-17.5908C127.169-18.9645 127.722-20.923 127.722-24.2457L127.722-46.2334C127.722-49.5772 127.169-51.5146 125.869-52.8883C124.505-54.2409 122.474-54.6896 119.151-54.6896L34.6741-54.6896C31.2458-54.6896 29.2039-54.2515 27.903-52.8989C26.5504-51.5252 26.0088-49.5455 26.0088-46.0761L26.0088-24.2457C26.0088-20.9019 26.5504-18.9645 27.903-17.5908C29.2767-16.2381 31.2564-15.7377 34.5686-15.7377ZM38.4953-2.18988L115.235-2.18988C123.578-2.18988 130.56-2.99129 135.571-7.94C140.52-12.951 141.259-19.9116 141.259-28.2242L141.259-42.2549C141.259-50.5675 140.52-57.5386 135.571-62.4873C130.549-67.4878 123.578-68.2892 115.235-68.2892L38.3898-68.2892C30.2143-68.2892 23.1703-67.4772 18.1699-62.4768C13.2106-57.5175 12.4609-50.5464 12.4609-42.3709L12.4609-28.2242C12.4609-19.9116 13.2-12.9405 18.1593-7.94C23.1703-2.99129 30.1414-2.18988 38.4953-2.18988ZM37.1457-10.0328C32.1437-10.0328 26.8488-10.7412 23.8994-13.6907C20.95-16.6401 20.3144-21.8621 20.3144-26.8746L20.3144-43.4472C20.3144-48.5959 20.95-53.7978 23.8889-56.799C26.8383-59.7589 32.1648-60.3945 37.3029-60.3945L116.585-60.3945C121.587-60.3945 126.871-59.7378 129.82-56.7884C132.77-53.7872 133.416-48.617 133.416-43.5527L133.416-26.8746C133.416-21.8621 132.759-16.6401 129.82-13.6907C126.871-10.7307 121.587-10.0328 116.585-10.0328ZM147.937-22.6093C151.787-22.8479 156.966-27.7881 156.966-35.2395C156.966-42.691 151.787-47.6312 147.937-47.8698Z"/>
  </g>
  <g id="Light-M" transform="matrix(1 0 0 1 1070.58 1126)">
   <path d="M34.5514-14.5913L116.362-14.5913C120.819-14.5913 123.427-15.2694 125.019-16.9234C126.673-18.6051 127.414-21.2139 127.414-25.5804L127.414-44.8303C127.414-49.2521 126.673-51.8055 125.081-53.4872C123.427-55.1136 120.729-55.7847 116.362-55.7847L34.8281-55.7847C30.185-55.7847 27.4586-55.1413 25.8668-53.5149C24.2404-51.8332 23.5277-49.1691 23.5277-44.519L23.5277-25.5804C23.5277-21.1586 24.2404-18.6051 25.8668-16.9234C27.5485-15.297 30.2126-14.5913 34.5514-14.5913ZM37.5713-3.52453L113.37-3.52453C122.21-3.52453 128.49-4.51416 133.039-9.00088C137.525-13.5499 138.453-19.7747 138.453-28.6349L138.453-41.7758C138.453-50.6359 137.525-56.8884 133.039-61.3751C128.462-65.8965 122.21-66.8861 113.37-66.8861L37.2947-66.8861C28.7941-66.8861 22.4517-65.8688 17.9303-61.3475C13.4159-56.8331 12.4609-50.5806 12.4609-42.08L12.4609-28.6349C12.4609-19.7747 13.3883-13.5222 17.9026-9.00088C22.4517-4.51416 28.7041-3.52453 37.5713-3.52453ZM36.2559-9.53657C30.5182-9.53657 25.326-10.4846 22.3423-13.4682C19.3587-16.4519 18.5006-21.5541 18.5006-27.3195L18.5006-42.7799C18.5006-48.8012 19.3587-53.9518 22.3147-56.9701C25.2983-59.9814 30.5735-60.8394 36.5672-60.8394L114.685-60.8394C120.423-60.8394 125.588-59.9261 128.571-56.9424C131.555-53.9241 132.441-48.8565 132.441-43.0565L132.441-27.3195C132.441-21.5541 131.527-16.4519 128.571-13.4682C125.588-10.4569 120.423-9.53657 114.685-9.53657ZM144.138-23.3108C147.766-23.5324 152.654-28.1988 152.654-35.2053C152.654-42.2119 147.766-46.8783 144.138-47.0998Z"/>
  </g>
  <g id="Thin-M" transform="matrix(1 0 0 1 776.716 1126)">
   <path d="M34.5288-13.075L112.673-13.075C118.533-13.075 122.002-14.0021 123.978-16.0408C126.017-18.1299 127.006-21.5986 127.006-27.3456L127.006-42.9745C127.006-48.8221 126.017-52.1902 124.04-54.2793C122.002-56.2678 118.42-57.2331 112.673-57.2331L35.0317-57.2331C28.7819-57.2331 25.1502-56.318 23.1738-54.3296C21.1853-52.2405 20.2462-48.6712 20.2462-42.4596L20.2462-27.3456C20.2462-21.498 21.1853-18.1299 23.1738-16.0408C25.2628-14.0524 28.8322-13.075 34.5288-13.075ZM36.3492-5.28972L110.903-5.28972C120.399-5.28972 125.751-6.52829 129.689-10.404C133.565-14.342 134.741-19.5937 134.741-29.178L134.741-41.1421C134.741-50.7265 133.565-56.0284 129.689-59.9041C125.701-63.7918 120.399-65.0304 110.903-65.0304L35.8463-65.0304C26.9158-65.0304 21.5012-63.7415 17.6135-59.8538C13.6875-55.9278 12.4609-50.6259 12.4609-41.6953L12.4609-29.178C12.4609-19.5937 13.6372-14.2917 17.5632-10.404C21.5012-6.52829 26.8032-5.28972 36.3492-5.28972ZM35.0791-8.88028C28.3683-8.88028 23.3119-10.1451 20.2829-13.174C17.254-16.2029 16.1018-21.1468 16.1018-27.9079L16.1018-41.8973C16.1018-49.0727 17.254-54.1555 20.2327-57.1964C23.2616-60.2756 28.4689-61.4278 35.5941-61.4278L112.173-61.4278C118.884-61.4278 123.89-60.175 126.919-57.1461C129.948-54.1052 131.151-49.1733 131.151-42.4002L131.151-27.9079C131.151-21.1468 129.898-16.2029 126.919-13.174C123.89-10.0948 118.884-8.88028 112.173-8.88028ZM139.114-24.2387C142.448-24.4376 146.951-28.7419 146.951-35.1601C146.951-41.5782 142.448-45.8825 139.114-46.0815Z"/>
  </g>
  <g id="Ultralight-M" transform="matrix(1 0 0 1 481.466 1126)">
   <path d="M34.5172-12.2984L110.784-12.2984C117.362-12.2984 121.271-13.353 123.445-15.5888C125.681-17.8865 126.798-21.7957 126.798-28.2497L126.798-42.0241C126.798-48.6018 125.681-52.3873 123.507-54.685C121.271-56.8589 117.238-57.9749 110.784-57.9749L35.1361-57.9749C28.0632-57.9749 23.9679-56.9208 21.7944-54.7469C19.6205-52.4492 18.5655-48.4162 18.5655-41.4048L18.5655-28.2497C18.5655-21.6719 19.6205-17.8865 21.7944-15.5888C24.0921-13.4148 28.1251-12.2984 34.5172-12.2984ZM35.7233-6.19384L109.64-6.19384C119.472-6.19384 124.349-7.55991 127.974-11.1226C131.537-14.7477 132.84-19.5009 132.84-29.4562L132.84-40.8175C132.84-50.7728 131.537-55.588 127.974-59.1507C124.287-62.7138 119.472-64.0799 109.64-64.0799L35.1045-64.0799C25.9537-64.0799 21.0144-62.652 17.4512-59.0888C13.8266-55.4642 12.4609-50.6491 12.4609-41.4983L12.4609-29.4562C12.4609-19.5009 13.7647-14.6858 17.3893-11.1226C21.0144-7.55991 25.8295-6.19384 35.7233-6.19384ZM34.4764-8.54414C27.2671-8.54414 22.2802-9.97125 19.2281-13.0233C16.1761-16.0754 14.8731-20.9381 14.8731-28.2093L14.8731-41.4452C14.8731-49.2118 16.1761-54.2598 19.1663-57.3123C22.2183-60.4263 27.3909-61.7292 35.0956-61.7292L110.887-61.7292C118.096-61.7292 123.021-60.3025 126.073-57.2504C129.125-54.1979 130.49-49.3356 130.49-42.0641L130.49-28.2093C130.49-20.9381 129.063-16.0754 126.073-13.0233C123.021-9.90937 118.096-8.54414 110.887-8.54414ZM136.541-24.7139C139.724-24.9012 144.03-29.0201 144.03-35.1369C144.03-41.2537 139.724-45.3725 136.541-45.5599Z"/>
  </g>
  <g id="Black-S" transform="matrix(1 0 0 1 2861.82 696)">
   <path d="M33.8379-24.9512L92.8223-24.9512C93.9941-24.9512 94.7754-25.1465 95.3613-25.7324C95.9473-26.3184 96.1426-27.0996 96.1426-28.2715L96.1426-42.2363C96.1426-43.4082 95.9473-44.1895 95.3613-44.7754C94.7754-45.3613 93.9941-45.5566 92.8223-45.5566L33.8379-45.5566C32.666-45.5566 31.8848-45.3613 31.2988-44.7754C30.7129-44.1895 30.5176-43.4082 30.5176-42.2363L30.5176-28.2715C30.5176-27.0996 30.7129-26.3184 31.2988-25.7324C31.8848-25.1465 32.666-24.9512 33.8379-24.9512ZM33.6914-4.19922L92.9688-4.19922C102.1-4.19922 107.324-5.71289 111.377-9.76562C115.43-13.8184 116.895-18.8965 116.895-28.125L116.895-42.3828C116.895-51.6113 115.43-56.7383 111.377-60.7422C107.275-64.7949 102.1-66.3086 92.9688-66.3086L33.6914-66.3086C24.5605-66.3086 19.3359-64.7949 15.2832-60.7422C11.2305-56.6895 9.76562-51.6113 9.76562-42.3828L9.76562-28.125C9.76562-18.8965 11.2305-13.7695 15.2832-9.76562C19.3848-5.71289 24.5605-4.19922 33.6914-4.19922ZM32.6172-18.3594C28.4668-18.3594 26.9043-18.9941 25.6836-20.166C24.4629-21.3379 23.9258-22.8516 23.9258-27.0508L23.9258-43.457C23.9258-47.6562 24.5117-49.1211 25.6836-50.3418C26.8555-51.5625 28.4668-52.1484 32.6172-52.1484L94.043-52.1484C98.1934-52.1484 99.7559-51.5137 100.977-50.3418C102.197-49.1699 102.734-47.6562 102.734-43.457L102.734-27.0508C102.734-22.8516 102.148-21.3867 100.977-20.166C99.8047-18.9453 98.1934-18.3594 94.043-18.3594ZM124.219-22.4609C128.125-22.7051 133.398-27.7344 133.398-35.2539C133.398-42.7734 128.125-47.8027 124.219-48.0469Z"/>
  </g>
  <g id="Heavy-S" transform="matrix(1 0 0 1 2566.09 696)">
   <path d="M32.2475-23.9024L93.2717-23.9024C94.6741-23.9024 95.5591-24.1208 96.2141-24.7874C96.8807-25.454 97.1106-26.339 97.1106-27.7298L97.1106-42.778C97.1106-44.1688 96.8807-45.0538 96.2257-45.7204C95.5591-46.387 94.6626-46.5938 93.2717-46.5938L32.2475-46.5938C30.8567-46.5938 29.9602-46.387 29.3051-45.7204C28.6385-45.0538 28.4086-44.1688 28.4086-42.7665L28.4086-27.7298C28.4086-26.339 28.6385-25.454 29.3051-24.7874C29.9717-24.1208 30.8567-23.9024 32.2475-23.9024ZM32.9654-5.25947L92.5539-5.25947C101.016-5.25947 106.379-6.54265 110.455-10.6069C114.519-14.6827 115.754-19.9337 115.754-28.4592L115.754-42.0486C115.754-50.5741 114.519-55.8624 110.455-59.8894C106.342-63.9652 101.016-65.2483 92.5539-65.2483L32.9654-65.2483C24.5144-65.2483 19.14-63.9652 15.0642-59.8894C11-55.8251 9.76562-50.5741 9.76562-42.0486L9.76562-28.4592C9.76562-19.9337 11-14.6454 15.0642-10.6069C19.1773-6.54265 24.5029-5.25947 32.9654-5.25947ZM31.8911-17.7371C27.879-17.7371 25.6942-18.3257 24.22-19.7627C22.7457-21.1996 22.2432-23.3356 22.2432-27.385L22.2432-43.1113C22.2432-47.1722 22.783-49.2594 24.22-50.7452C25.6569-52.2194 27.879-52.7592 31.9027-52.7592L93.6281-52.7592C97.6402-52.7592 99.825-52.1821 101.299-50.7452C102.773-49.2967 103.276-47.1722 103.276-43.1113L103.276-27.385C103.276-23.3356 102.736-21.2369 101.299-19.7627C99.8623-18.2884 97.6402-17.7371 93.6281-17.7371ZM122.698-23.0602C126.419-23.2928 131.439-28.0801 131.439-35.2539C131.439-42.4277 126.419-47.215 122.698-47.4476Z"/>
  </g>
  <g id="Bold-S" transform="matrix(1 0 0 1 2270.47 696)">
   <path d="M30.4688-22.7295L93.7744-22.7295C95.4346-22.7295 96.4355-22.9736 97.168-23.7305C97.9248-24.4873 98.1934-25.4883 98.1934-27.124L98.1934-43.3838C98.1934-45.0195 97.9248-46.0205 97.1924-46.7773C96.4355-47.5342 95.4102-47.7539 93.7744-47.7539L30.4688-47.7539C28.833-47.7539 27.8076-47.5342 27.0752-46.7773C26.3184-46.0205 26.0498-45.0195 26.0498-43.3594L26.0498-27.124C26.0498-25.4883 26.3184-24.4873 27.0752-23.7305C27.832-22.9736 28.833-22.7295 30.4688-22.7295ZM32.1533-6.44531L92.0898-6.44531C99.8047-6.44531 105.322-7.4707 109.424-11.5479C113.501-15.6494 114.478-21.0938 114.478-28.833L114.478-41.6748C114.478-49.4141 113.501-54.8828 109.424-58.9355C105.298-63.0371 99.8047-64.0625 92.0898-64.0625L32.1533-64.0625C24.4629-64.0625 18.9209-63.0371 14.8193-58.9355C10.7422-54.8584 9.76562-49.4141 9.76562-41.6748L9.76562-28.833C9.76562-21.0938 10.7422-15.625 14.8193-11.5479C18.9453-7.4707 24.4385-6.44531 32.1533-6.44531ZM31.0791-17.041C27.2217-17.041 24.3408-17.5781 22.583-19.3115C20.8252-21.0449 20.3613-23.877 20.3613-27.7588L20.3613-42.7246C20.3613-46.6309 20.8496-49.4141 22.583-51.1963C24.3164-52.9541 27.2217-53.4424 31.1035-53.4424L93.1641-53.4424C97.0215-53.4424 99.9023-52.9297 101.66-51.1963C103.418-49.4385 103.882-46.6309 103.882-42.7246L103.882-27.7588C103.882-23.877 103.394-21.0693 101.66-19.3115C99.9268-17.5537 97.0215-17.041 93.1641-17.041ZM120.996-23.7305C124.512-23.9502 129.248-28.4668 129.248-35.2539C129.248-42.041 124.512-46.5576 120.996-46.7773Z"/>
  </g>
  <g id="Semibold-S" transform="matrix(1 0 0 1 1974.52 696)">
   <path d="M29.2424-21.9208L94.121-21.9208C95.9589-21.9208 97.0398-22.1827 97.8256-23.0018C98.6446-23.8208 98.9398-24.9018 98.9398-26.7063L98.9398-43.8015C98.9398-45.6061 98.6446-46.687 97.8589-47.5061C97.0398-48.3251 95.9256-48.5537 94.121-48.5537L29.2424-48.5537C27.4378-48.5537 26.3235-48.3251 25.5378-47.5061C24.7188-46.687 24.4235-45.6061 24.4235-43.7682L24.4235-26.7063C24.4235-24.9018 24.7188-23.8208 25.5378-23.0018C26.3568-22.1827 27.4378-21.9208 29.2424-21.9208ZM31.5935-7.26289L91.7699-7.26289C98.9693-7.26289 104.594-8.11055 108.713-12.1966C112.799-16.3159 113.598-21.8936 113.598-29.0907L113.598-41.4171C113.598-48.6143 112.799-54.2074 108.713-58.2779C104.578-62.3973 98.9693-63.2449 91.7699-63.2449L31.5935-63.2449C24.4273-63.2449 18.7698-62.3973 14.6505-58.2779C10.5645-54.1919 9.76562-48.6143 9.76562-41.4171L9.76562-29.0907C9.76562-21.8936 10.5645-16.3004 14.6505-12.1966C18.7854-8.11055 24.394-7.26289 31.5935-7.26289ZM30.5192-16.5611C26.7685-16.5611 23.4077-17.0627 21.4544-19.0005C19.5011-20.9383 19.0639-24.2502 19.0639-28.0165L19.0639-42.458C19.0639-46.2576 19.5166-49.5207 21.4544-51.5073C23.3922-53.4606 26.7685-53.9134 30.5525-53.9134L92.8441-53.9134C96.5949-53.9134 99.9557-53.4451 101.909-51.5073C103.862-49.5362 104.3-46.2576 104.3-42.458L104.3-28.0165C104.3-24.2502 103.847-20.9538 101.909-19.0005C99.9712-17.0472 96.5949-16.5611 92.8441-16.5611ZM119.823-24.1926C123.196-24.4034 127.737-28.7334 127.737-35.2539C127.737-41.7744 123.196-46.1044 119.823-46.3152Z"/>
  </g>
  <g id="Medium-S" transform="matrix(1 0 0 1 1678.38 696)">
   <path d="M28.3125-21.3076L94.3838-21.3076C96.3564-21.3076 97.498-21.583 98.3242-22.4492C99.1904-23.3154 99.5059-24.457 99.5059-26.3896L99.5059-44.1182C99.5059-46.0508 99.1904-47.1924 98.3643-48.0586C97.498-48.9248 96.3164-49.1602 94.3838-49.1602L28.3125-49.1602C26.3799-49.1602 25.1982-48.9248 24.3721-48.0586C23.5059-47.1924 23.1904-46.0508 23.1904-44.0781L23.1904-26.3896C23.1904-24.457 23.5059-23.3154 24.3721-22.4492C25.2383-21.583 26.3799-21.3076 28.3125-21.3076ZM31.1689-7.88281L91.5273-7.88281C98.3359-7.88281 104.041-8.5957 108.174-12.6885C112.267-16.8213 112.931-22.5 112.931-29.2861L112.931-41.2217C112.931-48.0078 112.267-53.6953 108.174-57.7793C104.032-61.9121 98.3359-62.625 91.5273-62.625L31.1689-62.625C24.4004-62.625 18.6553-61.9121 14.5225-57.7793C10.4297-53.6865 9.76562-48.0078 9.76562-41.2217L9.76562-29.2861C9.76562-22.5 10.4297-16.8125 14.5225-12.6885C18.6641-8.5957 24.3604-7.88281 31.1689-7.88281ZM30.0947-16.1973C26.4248-16.1973 22.7002-16.6719 20.5986-18.7646C18.4971-20.8574 18.0801-24.5332 18.0801-28.2119L18.0801-42.2559C18.0801-45.9746 18.5059-49.6016 20.5986-51.7432C22.6914-53.8447 26.4248-54.2705 30.1348-54.2705L92.6016-54.2705C96.2715-54.2705 99.9961-53.8359 102.098-51.7432C104.199-49.6104 104.616-45.9746 104.616-42.2559L104.616-28.2119C104.616-24.5332 104.19-20.8662 102.098-18.7646C100.005-16.6631 96.2715-16.1973 92.6016-16.1973ZM118.934-24.543C122.199-24.7471 126.592-28.9355 126.592-35.2539C126.592-41.5723 122.199-45.7607 118.934-45.9648Z"/>
  </g>
  <g id="Regular-S" transform="matrix(1 0 0 1 1382.41 696)">
   <path d="M27.0996-20.5078L94.7266-20.5078C96.875-20.5078 98.0957-20.8008 98.9746-21.7285C99.9023-22.6562 100.244-23.877 100.244-25.9766L100.244-44.5312C100.244-46.6309 99.9023-47.8516 99.0234-48.7793C98.0957-49.707 96.8262-49.9512 94.7266-49.9512L27.0996-49.9512C25-49.9512 23.7305-49.707 22.8516-48.7793C21.9238-47.8516 21.582-46.6309 21.582-44.4824L21.582-25.9766C21.582-23.877 21.9238-22.6562 22.8516-21.7285C23.7793-20.8008 25-20.5078 27.0996-20.5078ZM30.6152-8.69141L91.2109-8.69141C97.5098-8.69141 103.32-9.22852 107.471-13.3301C111.572-17.4805 112.061-23.291 112.061-29.541L112.061-40.9668C112.061-47.2168 111.572-53.0273 107.471-57.1289C103.32-61.2793 97.5098-61.8164 91.2109-61.8164L30.6152-61.8164C24.3652-61.8164 18.5059-61.2793 14.3555-57.1289C10.2539-53.0273 9.76562-47.2168 9.76562-40.9668L9.76562-29.541C9.76562-23.291 10.2539-17.4805 14.3555-13.3301C18.5059-9.22852 24.3164-8.69141 30.6152-8.69141ZM29.541-15.7227C25.9766-15.7227 21.7773-16.1621 19.4824-18.457C17.1875-20.752 16.7969-24.9023 16.7969-28.4668L16.7969-41.9922C16.7969-45.6055 17.1875-49.707 19.4824-52.0508C21.7773-54.3457 25.9766-54.7363 29.5898-54.7363L92.2852-54.7363C95.8496-54.7363 100.049-54.3457 102.344-52.0508C104.639-49.707 105.029-45.6055 105.029-41.9922L105.029-28.4668C105.029-24.9023 104.639-20.752 102.344-18.457C100.049-16.1621 95.8496-15.7227 92.2852-15.7227ZM117.773-25C120.898-25.1953 125.098-29.1992 125.098-35.2539C125.098-41.3086 120.898-45.3125 117.773-45.5078Z"/>
  </g>
  <g id="Light-S" transform="matrix(1 0 0 1 1087.61 696)">
   <path d="M27.0845-19.4937L92.2593-19.4937C95.3462-19.4937 97.1421-19.9531 98.2783-21.1382C99.4634-22.3384 99.9717-24.1343 99.9717-27.1572L99.9717-43.29C99.9717-46.3433 99.4634-48.1089 98.3272-49.3091C97.1421-50.479 95.2822-50.9199 92.2593-50.9199L27.2358-50.9199C24.0615-50.9199 22.1865-50.4941 21.0503-49.3242C19.8804-48.124 19.3872-46.2979 19.3872-43.105L19.3872-27.1572C19.3872-24.104 19.8804-22.3384 21.0503-21.1382C22.2505-19.9683 24.0767-19.4937 27.0845-19.4937ZM29.7979-9.87206L89.561-9.87206C96.2988-9.87206 101.489-10.5757 105.23-14.2685C108.923-18.0102 109.578-23.1699 109.578-29.9043L109.578-40.543C109.578-47.2773 108.923-52.4522 105.23-56.145C101.474-59.8716 96.2988-60.5752 89.561-60.5752L29.6465-60.5752C23.1089-60.5752 17.8701-59.8565 14.1436-56.1299C10.4355-52.4219 9.76562-47.2471 9.76562-40.7095L9.76562-29.9043C9.76562-23.1699 10.4204-17.9951 14.1284-14.2685C17.8701-10.5757 23.0449-9.87206 29.7979-9.87206ZM28.7539-15.2837C24.5386-15.2837 20.4302-15.9351 18.105-18.2603C15.7798-20.5855 15.1924-24.6299 15.1924-28.8603L15.1924-41.4019C15.1924-45.7871 15.7798-49.8433 18.0899-52.2021C20.415-54.5425 24.5689-55.1299 28.939-55.1299L90.605-55.1299C94.8203-55.1299 98.9136-54.5122 101.239-52.187C103.564-49.8281 104.167-45.8174 104.167-41.5532L104.167-28.8603C104.167-24.6299 103.549-20.5855 101.239-18.2603C98.9136-15.9199 94.8203-15.2837 90.605-15.2837ZM114.413-25.6206C117.341-25.8008 121.283-29.5625 121.283-35.2236C121.283-40.8848 117.341-44.6465 114.413-44.8267Z"/>
  </g>
  <g id="Thin-S" transform="matrix(1 0 0 1 793.42 696)">
   <path d="M27.0645-18.1524L88.9961-18.1524C93.3242-18.1524 95.8809-18.832 97.3574-20.3574C98.8828-21.918 99.6113-24.4746 99.6113-28.7187L99.6113-41.6485C99.6113-45.9629 98.8828-48.4492 97.4063-50.0098C95.8809-51.5 93.2403-52.2012 88.9961-52.2012L27.416-52.2012C22.8203-52.2012 20.1446-51.5351 18.668-50.0449C17.1778-48.4844 16.4844-45.8574 16.4844-41.2832L16.4844-28.7187C16.4844-24.4043 17.1778-21.918 18.668-20.3574C20.2285-18.8672 22.8555-18.1524 27.0645-18.1524ZM28.7168-11.4336L87.3789-11.4336C94.6973-11.4336 99.0664-12.3574 102.268-15.5097C105.42-18.7109 106.295-23.0098 106.295-30.3848L106.295-39.9824C106.295-47.3574 105.42-51.6914 102.268-54.8438C99.0313-58.0098 94.6973-58.9336 87.3789-58.9336L28.3653-58.9336C21.4473-58.9336 17.0293-57.9746 13.8633-54.8086C10.6758-51.6211 9.76562-47.2871 9.76562-40.3691L9.76562-30.3848C9.76562-23.0098 10.6406-18.6758 13.8281-15.5097C17.0293-12.3574 21.3633-11.4336 28.7168-11.4336ZM27.7129-14.7031C22.6367-14.7031 18.6485-15.6348 16.2832-18C13.918-20.3652 13.0703-24.2695 13.0703-29.3809L13.0703-40.6211C13.0703-46.0273 13.918-50.0234 16.2481-52.4023C18.6133-54.8027 22.7071-55.6504 28.0781-55.6504L88.3828-55.6504C93.459-55.6504 97.4121-54.7324 99.7774-52.3672C102.143-49.9883 103.025-46.0977 103.025-40.9727L103.025-29.3809C103.025-24.2695 102.107-20.3652 99.7774-18C97.4121-15.5996 93.459-14.7031 88.3828-14.7031ZM109.969-26.4414C112.637-26.6016 116.238-30.043 116.238-35.1836C116.238-40.3242 112.637-43.7656 109.969-43.9258Z"/>
  </g>
  <g id="Ultralight-S" transform="matrix(1 0 0 1 498.001 696)">
   <path d="M27.0542-17.4654L87.3248-17.4654C92.2886-17.4654 95.2349-18.2578 96.8858-19.9575C98.5855-21.7026 99.4268-24.6489 99.4268-29.5185L99.4268-40.8076C99.4268-45.7681 98.5855-48.6235 96.9346-50.3686C95.2349-52.0229 92.1944-52.8574 87.3248-52.8574L27.5083-52.8574C22.1846-52.8574 19.0987-52.0683 17.4478-50.414C15.7935-48.6689 14.9976-45.6318 14.9976-40.3501L14.9976-29.5185C14.9976-24.5581 15.7935-21.7026 17.4478-19.9575C19.1929-18.3032 22.23-17.4654 27.0542-17.4654ZM28.1631-12.2334L86.2613-12.2334C93.877-12.2334 97.8257-13.27 100.75-16.1455C103.626-19.0698 104.613-22.9277 104.613-30.6309L104.613-39.6953C104.613-47.3984 103.626-51.3018 100.75-54.1773C97.7803-57.0562 93.877-58.0928 86.2613-58.0928L27.709-58.0928C20.5962-58.0928 16.5986-57.0108 13.7197-54.1319C10.7988-51.211 9.76562-47.3076 9.76562-40.1948L9.76562-30.6309C9.76562-22.9277 10.7534-19.0244 13.6743-16.1455C16.5986-13.27 20.502-12.2334 28.1631-12.2334ZM27.1797-14.4058C21.6626-14.4058 17.7359-15.481 15.3501-17.8667C12.9644-20.2524 11.9834-24.085 11.9834-29.6475L11.9834-40.2212C11.9834-46.1504 12.9644-50.1157 15.3047-52.5049C17.6905-54.936 21.7535-55.917 27.6372-55.917L87.2447-55.917C92.7617-55.917 96.6431-54.8452 99.0288-52.4595C101.415-50.0703 102.441-46.2412 102.441-40.6753L102.441-29.6475C102.441-24.085 101.369-20.2524 99.0288-17.8667C96.6431-15.4356 92.7617-14.4058 87.2447-14.4058ZM107.692-26.8618C110.227-27.0117 113.654-30.2891 113.654-35.1631C113.654-40.0371 110.227-43.3145 107.692-43.4644Z"/>
  </g>
 </g>
</svg>
