<?xml version="1.0" encoding="UTF-8"?>
<!--Generator: Apple Native CoreSVG 232.5-->
<!DOCTYPE svg
PUBLIC "-//W3C//DTD SVG 1.1//EN"
       "http://www.w3.org/Graphics/SVG/1.1/DTD/svg11.dtd">
<svg version="1.1" xmlns="http://www.w3.org/2000/svg" xmlns:xlink="http://www.w3.org/1999/xlink" width="3300" height="2200">
 <g id="Notes">
  <rect height="2200" id="artboard" style="fill:white;opacity:1" width="3300" x="0" y="0"/>
  <line style="fill:none;stroke:black;opacity:1;stroke-width:0.5;" x1="263" x2="3036" y1="292" y2="292"/>
  <text style="stroke:none;fill:black;font-family:sans-serif;font-size:13;font-weight:bold;" transform="matrix(1 0 0 1 263 322)">Weight/Scale Variations</text>
  <text style="stroke:none;fill:black;font-family:sans-serif;font-size:13;text-anchor:middle;" transform="matrix(1 0 0 1 559.711 322)">Ultralight</text>
  <text style="stroke:none;fill:black;font-family:sans-serif;font-size:13;text-anchor:middle;" transform="matrix(1 0 0 1 856.422 322)">Thin</text>
  <text style="stroke:none;fill:black;font-family:sans-serif;font-size:13;text-anchor:middle;" transform="matrix(1 0 0 1 1153.13 322)">Light</text>
  <text style="stroke:none;fill:black;font-family:sans-serif;font-size:13;text-anchor:middle;" transform="matrix(1 0 0 1 1449.84 322)">Regular</text>
  <text style="stroke:none;fill:black;font-family:sans-serif;font-size:13;text-anchor:middle;" transform="matrix(1 0 0 1 1746.56 322)">Medium</text>
  <text style="stroke:none;fill:black;font-family:sans-serif;font-size:13;text-anchor:middle;" transform="matrix(1 0 0 1 2043.27 322)">Semibold</text>
  <text style="stroke:none;fill:black;font-family:sans-serif;font-size:13;text-anchor:middle;" transform="matrix(1 0 0 1 2339.98 322)">Bold</text>
  <text style="stroke:none;fill:black;font-family:sans-serif;font-size:13;text-anchor:middle;" transform="matrix(1 0 0 1 2636.69 322)">Heavy</text>
  <text style="stroke:none;fill:black;font-family:sans-serif;font-size:13;text-anchor:middle;" transform="matrix(1 0 0 1 2933.4 322)">Black</text>
  <line style="fill:none;stroke:black;opacity:1;stroke-width:0.5;" x1="263" x2="3036" y1="1903" y2="1903"/>
  <g transform="matrix(0.2 0 0 0.2 263 1933)">
   <path d="m46.2402 4.15039c21.5332 0 39.4531-17.8711 39.4531-39.4043s-17.9688-39.4043-39.502-39.4043c-21.4844 0-39.3555 17.8711-39.3555 39.4043s17.9199 39.4043 39.4043 39.4043Zm0-7.42188c-17.7246 0-31.8848-14.209-31.8848-31.9824s14.1113-31.9824 31.8359-31.9824c17.7734 0 32.0312 14.209 32.0312 31.9824s-14.209 31.9824-31.9824 31.9824Zm-17.9688-31.9824c0 2.14844 1.51367 3.61328 3.75977 3.61328h10.498v10.5957c0 2.19727 1.46484 3.71094 3.61328 3.71094 2.24609 0 3.71094-1.51367 3.71094-3.71094v-10.5957h10.5957c2.19727 0 3.71094-1.46484 3.71094-3.61328 0-2.19727-1.51367-3.71094-3.71094-3.71094h-10.5957v-10.5469c0-2.24609-1.46484-3.75977-3.71094-3.75977-2.14844 0-3.61328 1.51367-3.61328 3.75977v10.5469h-10.498c-2.24609 0-3.75977 1.51367-3.75977 3.71094Z"/>
  </g>
  <g transform="matrix(0.2 0 0 0.2 281.506 1933)">
   <path d="m58.5449 14.5508c27.2461 0 49.8047-22.6074 49.8047-49.8047 0-27.2461-22.6074-49.8047-49.8535-49.8047-27.1973 0-49.7559 22.5586-49.7559 49.8047 0 27.1973 22.6074 49.8047 49.8047 49.8047Zm0-8.30078c-23.0469 0-41.4551-18.457-41.4551-41.5039s18.3594-41.5039 41.4062-41.5039 41.5527 18.457 41.5527 41.5039-18.457 41.5039-41.5039 41.5039Zm-22.6562-41.5039c0 2.39258 1.66016 4.00391 4.15039 4.00391h14.3555v14.4043c0 2.44141 1.66016 4.15039 4.05273 4.15039 2.44141 0 4.15039-1.66016 4.15039-4.15039v-14.4043h14.4043c2.44141 0 4.15039-1.61133 4.15039-4.00391 0-2.44141-1.70898-4.15039-4.15039-4.15039h-14.4043v-14.3555c0-2.49023-1.70898-4.19922-4.15039-4.19922-2.39258 0-4.05273 1.70898-4.05273 4.19922v14.3555h-14.3555c-2.49023 0-4.15039 1.70898-4.15039 4.15039Z"/>
  </g>
  <g transform="matrix(0.2 0 0 0.2 304.924 1933)">
   <path d="m74.8535 28.3203c34.8145 0 63.623-28.8086 63.623-63.5742 0-34.8145-28.8574-63.623-63.6719-63.623-34.7656 0-63.5254 28.8086-63.5254 63.623 0 34.7656 28.8086 63.5742 63.5742 63.5742Zm0-9.08203c-30.1758 0-54.4434-24.3164-54.4434-54.4922 0-30.2246 24.2188-54.4922 54.3945-54.4922 30.2246 0 54.541 24.2676 54.541 54.4922 0 30.1758-24.2676 54.4922-54.4922 54.4922Zm-28.8574-54.4922c0 2.58789 1.85547 4.39453 4.58984 4.39453h19.7266v19.7754c0 2.68555 1.85547 4.58984 4.44336 4.58984 2.68555 0 4.54102-1.85547 4.54102-4.58984v-19.7754h19.7754c2.68555 0 4.58984-1.80664 4.58984-4.39453 0-2.73438-1.85547-4.58984-4.58984-4.58984h-19.7754v-19.7266c0-2.73438-1.85547-4.63867-4.54102-4.63867-2.58789 0-4.44336 1.9043-4.44336 4.63867v19.7266h-19.7266c-2.73438 0-4.58984 1.85547-4.58984 4.58984Z"/>
  </g>
  <text style="stroke:none;fill:black;font-family:sans-serif;font-size:13;font-weight:bold;" transform="matrix(1 0 0 1 263 1953)">Design Variations</text>
  <text style="stroke:none;fill:black;font-family:sans-serif;font-size:13;" transform="matrix(1 0 0 1 263 1971)">Symbols are supported in up to nine weights and three scales.</text>
  <text style="stroke:none;fill:black;font-family:sans-serif;font-size:13;" transform="matrix(1 0 0 1 263 1989)">For optimal layout with text and other symbols, vertically align</text>
  <text style="stroke:none;fill:black;font-family:sans-serif;font-size:13;" transform="matrix(1 0 0 1 263 2007)">symbols with the adjacent text.</text>
  <line style="fill:none;stroke:#00AEEF;stroke-width:0.5;opacity:1.0;" x1="776" x2="776" y1="1919" y2="1933"/>
  <g transform="matrix(0.2 0 0 0.2 776 1933)">
   <path d="m16.5527 0.78125c2.58789 0 3.85742-0.976562 4.78516-3.71094l6.29883-17.2363h28.8086l6.29883 17.2363c0.927734 2.73438 2.19727 3.71094 4.73633 3.71094 2.58789 0 4.24805-1.5625 4.24805-4.00391 0-0.830078-0.146484-1.61133-0.537109-2.63672l-22.9004-60.9863c-1.12305-2.97852-3.125-4.49219-6.25-4.49219-3.02734 0-5.07812 1.46484-6.15234 4.44336l-22.9004 61.084c-0.390625 1.02539-0.537109 1.80664-0.537109 2.63672 0 2.44141 1.5625 3.95508 4.10156 3.95508Zm13.4766-28.3691 11.8652-32.8613h0.244141l11.8652 32.8613Z"/>
  </g>
  <line style="fill:none;stroke:#00AEEF;stroke-width:0.5;opacity:1.0;" x1="792.836" x2="792.836" y1="1919" y2="1933"/>
  <text style="stroke:none;fill:black;font-family:sans-serif;font-size:13;font-weight:bold;" transform="matrix(1 0 0 1 776 1953)">Margins</text>
  <text style="stroke:none;fill:black;font-family:sans-serif;font-size:13;" transform="matrix(1 0 0 1 776 1971)">Leading and trailing margins on the left and right side of each symbol</text>
  <text style="stroke:none;fill:black;font-family:sans-serif;font-size:13;" transform="matrix(1 0 0 1 776 1989)">can be adjusted by modifying the x-location of the margin guidelines.</text>
  <text style="stroke:none;fill:black;font-family:sans-serif;font-size:13;" transform="matrix(1 0 0 1 776 2007)">Modifications are automatically applied proportionally to all</text>
  <text style="stroke:none;fill:black;font-family:sans-serif;font-size:13;" transform="matrix(1 0 0 1 776 2025)">scales and weights.</text>
  <g transform="matrix(0.2 0 0 0.2 1289 1933)">
   <path d="m14.209 9.32617 8.49609 8.54492c4.29688 4.3457 9.22852 4.05273 13.8672-1.07422l53.4668-58.9355-4.83398-4.88281-53.0762 58.3984c-1.75781 2.00195-3.41797 2.49023-5.76172 0.146484l-5.85938-5.81055c-2.34375-2.29492-1.80664-4.00391 0.195312-5.81055l57.373-54.0039-4.88281-4.83398-57.959 54.4434c-4.93164 4.58984-5.32227 9.47266-1.02539 13.8184Zm32.0801-90.9668c-2.09961 2.05078-2.24609 4.93164-1.07422 6.88477 1.17188 1.80664 3.4668 2.97852 6.68945 2.14844 7.32422-1.70898 14.9414-2.00195 22.0703 2.68555l-2.92969 7.27539c-1.70898 4.15039-0.830078 7.08008 1.85547 9.81445l11.4746 11.5723c2.44141 2.44141 4.49219 2.53906 7.32422 2.05078l5.32227-0.976562 3.32031 3.36914-0.195312 2.7832c-0.195312 2.49023 0.439453 4.39453 2.88086 6.78711l3.80859 3.71094c2.39258 2.39258 5.46875 2.53906 7.8125 0.195312l14.5508-14.5996c2.34375-2.34375 2.24609-5.32227-0.146484-7.71484l-3.85742-3.80859c-2.39258-2.39258-4.24805-3.17383-6.64062-2.97852l-2.88086 0.244141-3.22266-3.17383 1.2207-5.61523c0.634766-2.83203-0.146484-5.0293-3.07617-7.95898l-10.9863-10.9375c-16.6992-16.6016-38.8672-16.2109-53.3203-1.75781Zm7.4707 1.85547c12.1582-8.88672 28.6133-7.37305 39.7461 3.75977l12.1582 12.0605c1.17188 1.17188 1.36719 2.09961 1.02539 3.80859l-1.61133 7.42188 7.51953 7.42188 4.93164-0.292969c1.26953-0.0488281 1.66016 0.0488281 2.63672 1.02539l2.88086 2.88086-12.207 12.207-2.88086-2.88086c-0.976562-0.976562-1.12305-1.36719-1.07422-2.68555l0.341797-4.88281-7.4707-7.42188-7.61719 1.26953c-1.61133 0.341797-2.34375 0.195312-3.56445-0.976562l-10.0098-10.0098c-1.26953-1.17188-1.41602-2.00195-0.634766-3.85742l4.39453-10.4492c-7.8125-7.27539-17.9688-10.4004-28.125-7.42188-0.78125 0.195312-1.07422-0.439453-0.439453-0.976562Z"/>
  </g>
  <text style="stroke:none;fill:black;font-family:sans-serif;font-size:13;font-weight:bold;" transform="matrix(1 0 0 1 1289 1953)">Exporting</text>
  <text style="stroke:none;fill:black;font-family:sans-serif;font-size:13;" transform="matrix(1 0 0 1 1289 1971)">Symbols should be outlined when exporting to ensure the</text>
  <text style="stroke:none;fill:black;font-family:sans-serif;font-size:13;" transform="matrix(1 0 0 1 1289 1989)">design is preserved when submitting to Xcode.</text>
  <text id="template-version" style="stroke:none;fill:black;font-family:sans-serif;font-size:13;text-anchor:end;" transform="matrix(1 0 0 1 3036 1933)">Template v.2.0</text>
  <text style="stroke:none;fill:black;font-family:sans-serif;font-size:13;text-anchor:end;" transform="matrix(1 0 0 1 3036 1951)">Requires Xcode 12 or greater</text>
  <text id="descriptive-name" style="stroke:none;fill:black;font-family:sans-serif;font-size:13;text-anchor:end;" transform="matrix(1 0 0 1 3036 1969)">Generated from lidar</text>
  <text style="stroke:none;fill:black;font-family:sans-serif;font-size:13;text-anchor:end;" transform="matrix(1 0 0 1 3036 1987)">Typeset at 100.0 points</text>
  <text style="stroke:none;fill:black;font-family:sans-serif;font-size:13;" transform="matrix(1 0 0 1 263 726)">Small</text>
  <text style="stroke:none;fill:black;font-family:sans-serif;font-size:13;" transform="matrix(1 0 0 1 263 1156)">Medium</text>
  <text style="stroke:none;fill:black;font-family:sans-serif;font-size:13;" transform="matrix(1 0 0 1 263 1586)">Large</text>
 </g>
 <g id="Guides">
  <g id="H-reference" style="fill:#27AAE1;stroke:none;" transform="matrix(1 0 0 1 339 696)">
   <path d="M0.993654 0L3.63775 0L29.3281-67.1323L30.0303-67.1323L30.0303-70.459L28.1226-70.459ZM11.6885-24.4799L46.9815-24.4799L46.2315-26.7285L12.4385-26.7285ZM55.1196 0L57.7637 0L30.6382-70.459L29.4326-70.459L29.4326-67.1323Z"/>
  </g>
  <line id="Baseline-S" style="fill:none;stroke:#27AAE1;opacity:1;stroke-width:0.5;" x1="263" x2="3036" y1="696" y2="696"/>
  <line id="Capline-S" style="fill:none;stroke:#27AAE1;opacity:1;stroke-width:0.5;" x1="263" x2="3036" y1="625.541" y2="625.541"/>
  <g id="H-reference" style="fill:#27AAE1;stroke:none;" transform="matrix(1 0 0 1 339 1126)">
   <path d="M0.993654 0L3.63775 0L29.3281-67.1323L30.0303-67.1323L30.0303-70.459L28.1226-70.459ZM11.6885-24.4799L46.9815-24.4799L46.2315-26.7285L12.4385-26.7285ZM55.1196 0L57.7637 0L30.6382-70.459L29.4326-70.459L29.4326-67.1323Z"/>
  </g>
  <line id="Baseline-M" style="fill:none;stroke:#27AAE1;opacity:1;stroke-width:0.5;" x1="263" x2="3036" y1="1126" y2="1126"/>
  <line id="Capline-M" style="fill:none;stroke:#27AAE1;opacity:1;stroke-width:0.5;" x1="263" x2="3036" y1="1055.54" y2="1055.54"/>
  <g id="H-reference" style="fill:#27AAE1;stroke:none;" transform="matrix(1 0 0 1 339 1556)">
   <path d="M0.993654 0L3.63775 0L29.3281-67.1323L30.0303-67.1323L30.0303-70.459L28.1226-70.459ZM11.6885-24.4799L46.9815-24.4799L46.2315-26.7285L12.4385-26.7285ZM55.1196 0L57.7637 0L30.6382-70.459L29.4326-70.459L29.4326-67.1323Z"/>
  </g>
  <line id="Baseline-L" style="fill:none;stroke:#27AAE1;opacity:1;stroke-width:0.5;" x1="263" x2="3036" y1="1556" y2="1556"/>
  <line id="Capline-L" style="fill:none;stroke:#27AAE1;opacity:1;stroke-width:0.5;" x1="263" x2="3036" y1="1485.54" y2="1485.54"/>
  <line id="left-margin" style="fill:none;stroke:#00AEEF;stroke-width:0.5;opacity:1.0;" x1="1390.76" x2="1390.76" y1="1030.79" y2="1150.12"/>
  <line id="right-margin" style="fill:none;stroke:#00AEEF;stroke-width:0.5;opacity:1.0;" x1="1508.93" x2="1508.93" y1="1030.79" y2="1150.12"/>
 </g>
 <g id="Symbols">
  <g id="Black-L" transform="matrix(1 0 0 1 2850.17 1556)">
   <path d="M57.6265-60.5163C68.9293-60.5163 78.3923-69.8916 78.3923-81.1946C78.3923-92.4974 68.9293-101.96 57.6265-101.96C46.2359-101.96 36.8606-92.4974 36.8606-81.1946C36.8606-69.9793 46.1483-60.5163 57.6265-60.5163ZM83.1237-24.6894C89.0323-24.6894 93.9791-29.6362 93.9791-35.5449C93.9791-41.4535 89.0323-46.4003 83.1237-46.4003C77.1692-46.4003 72.2682-41.4535 72.2682-35.5449C72.2682-29.6362 77.1692-24.6894 83.1237-24.6894ZM134.03-14.779C145.421-14.779 154.796-24.242 154.796-35.5449C154.796-46.8477 145.421-56.3107 134.03-56.3107C122.728-56.3107 113.265-46.8477 113.265-35.5449C113.265-24.242 122.728-14.779 134.03-14.779ZM57.6265 30.8706C68.9293 30.8706 78.3923 21.4077 78.3923 10.1048C78.3923-1.19813 68.9293-10.5734 57.6265-10.5734C46.2359-10.5734 36.8606-1.19813 36.8606 10.1048C36.8606 21.3201 46.1483 30.8706 57.6265 30.8706ZM108.712-67.031C116.77-67.031 123.516-73.7148 123.516-81.7728C123.516-89.8308 116.77-96.5769 108.712-96.5769C100.592-96.5769 93.9079-89.8308 93.9079-81.7728C93.9079-73.7148 100.592-67.031 108.712-67.031ZM31.5509-20.313C39.6714-20.313 46.3551-27.0593 46.3551-35.1172C46.3551-43.1751 39.6714-49.9214 31.5509-49.9214C23.493-49.9214 16.7468-43.1751 16.7468-35.1172C16.7468-27.1217 23.4305-20.313 31.5509-20.313ZM108.712 24.9215C116.77 24.9215 123.516 18.1753 123.516 10.1174C123.516 2.05938 116.77-4.62435 108.712-4.62435C100.592-4.62435 93.9079 2.05938 93.9079 10.1174C93.9079 18.1753 100.592 24.9215 108.712 24.9215Z"/>
  </g>
  <g id="Heavy-L" transform="matrix(1 0 0 1 2555.19 1556)">
   <path d="M56.38-59.8755C67.4347-59.8755 76.6899-69.0449 76.6899-80.0997C76.6899-91.1544 67.4347-100.409 56.38-100.409C45.2396-100.409 36.0702-91.1544 36.0702-80.0997C36.0702-69.1307 45.1539-59.8755 56.38-59.8755ZM81.3173-24.8353C87.0962-24.8353 91.9343-29.6735 91.9343-35.4524C91.9343-41.2313 87.0962-46.0695 81.3173-46.0695C75.4936-46.0695 70.7002-41.2313 70.7002-35.4524C70.7002-29.6735 75.4936-24.8353 81.3173-24.8353ZM131.106-15.1426C142.247-15.1426 151.416-24.3978 151.416-35.4524C151.416-46.5071 142.247-55.7623 131.106-55.7623C120.052-55.7623 110.796-46.5071 110.796-35.4524C110.796-24.3978 120.052-15.1426 131.106-15.1426ZM56.38 29.5045C67.4347 29.5045 76.6899 20.2495 76.6899 9.19478C76.6899-1.85995 67.4347-11.0293 56.38-11.0293C45.2396-11.0293 36.0702-1.85995 36.0702 9.19478C36.0702 20.1638 45.1539 29.5045 56.38 29.5045ZM106.344-66.2472C114.225-66.2472 120.823-72.7841 120.823-80.6653C120.823-88.5462 114.225-95.1443 106.344-95.1443C98.4016-95.1443 91.8647-88.5462 91.8647-80.6653C91.8647-72.7841 98.4016-66.2472 106.344-66.2472ZM30.8771-20.5551C38.8192-20.5551 45.3562-27.1532 45.3562-35.0342C45.3562-42.9151 38.8192-49.5133 30.8771-49.5133C22.9961-49.5133 16.398-42.9151 16.398-35.0342C16.398-27.2143 22.9349-20.5551 30.8771-20.5551ZM106.344 23.6861C114.225 23.6861 120.823 17.0881 120.823 9.20707C120.823 1.32602 114.225-5.21093 106.344-5.21093C98.4016-5.21093 91.8647 1.32602 91.8647 9.20707C91.8647 17.0881 98.4016 23.6861 106.344 23.6861Z"/>
  </g>
  <g id="Bold-L" transform="matrix(1 0 0 1 2260.58 1556)">
   <path d="M54.8008-59.1065C65.5612-59.1065 74.5701-68.0319 74.5701-78.7925C74.5701-89.553 65.5612-98.5617 54.8008-98.5617C43.9568-98.5617 35.0314-89.553 35.0314-78.7925C35.0314-68.1154 43.8734-59.1065 54.8008-59.1065ZM79.0744-24.9988C84.6995-24.9988 89.4089-29.7083 89.4089-35.3334C89.4089-40.9585 84.6995-45.6679 79.0744-45.6679C73.4056-45.6679 68.7399-40.9585 68.7399-35.3334C68.7399-29.7083 73.4056-24.9988 79.0744-24.9988ZM127.538-15.5641C138.382-15.5641 147.308-24.5729 147.308-35.3334C147.308-46.0938 138.382-55.1027 127.538-55.1027C116.778-55.1027 107.769-46.0938 107.769-35.3334C107.769-24.5729 116.778-15.5641 127.538-15.5641ZM54.8008 27.8949C65.5612 27.8949 74.5701 18.8861 74.5701 8.12565C74.5701-2.63488 65.5612-11.5602 54.8008-11.5602C43.9568-11.5602 35.0314-2.63488 35.0314 8.12565C35.0314 18.8027 43.8734 27.8949 54.8008 27.8949ZM103.435-65.3086C111.106-65.3086 117.529-71.6716 117.529-79.343C117.529-87.0143 111.106-93.4367 103.435-93.4367C95.7041-93.4367 89.3411-87.0143 89.3411-79.343C89.3411-71.6716 95.7041-65.3086 103.435-65.3086ZM29.9765-20.8325C37.7073-20.8325 44.0703-27.255 44.0703-34.9263C44.0703-42.5975 37.7073-49.02 29.9765-49.02C22.3053-49.02 15.8828-42.5975 15.8828-34.9263C15.8828-27.3145 22.2457-20.8325 29.9765-20.8325ZM103.435 22.2314C111.106 22.2314 117.529 15.8089 117.529 8.13762C117.529 0.466305 111.106-5.89669 103.435-5.89669C95.7041-5.89669 89.3411 0.466305 89.3411 8.13762C89.3411 15.8089 95.7041 22.2314 103.435 22.2314Z"/>
  </g>
  <g id="Semibold-L" transform="matrix(1 0 0 1 1965.31 1556)">
   <path d="M53.712-58.5764C64.2696-58.5764 73.1087-67.3335 73.1087-77.8913C73.1087-88.449 64.2696-97.2879 53.712-97.2879C43.0724-97.2879 34.3153-88.449 34.3153-77.8913C34.3153-67.4155 42.9906-58.5764 53.712-58.5764ZM77.5282-25.1116C83.0472-25.1116 87.6678-29.7322 87.6678-35.2513C87.6678-40.7704 83.0472-45.3911 77.5282-45.3911C71.9662-45.3911 67.3884-40.7704 67.3884-35.2513C67.3884-29.7322 71.9662-25.1116 77.5282-25.1116ZM125.079-15.8546C135.718-15.8546 144.475-24.6937 144.475-35.2513C144.475-45.809 135.718-54.648 125.079-54.648C114.521-54.648 105.682-45.809 105.682-35.2513C105.682-24.6937 114.521-15.8546 125.079-15.8546ZM53.712 26.7853C64.2696 26.7853 73.1087 17.9463 73.1087 7.3886C73.1087-3.16911 64.2696-11.9262 53.712-11.9262C43.0724-11.9262 34.3153-3.16911 34.3153 7.3886C34.3153 17.8644 42.9906 26.7853 53.712 26.7853ZM101.429-64.6616C108.956-64.6616 115.258-70.9047 115.258-78.4314C115.258-85.9581 108.956-92.2595 101.429-92.2595C93.8444-92.2595 87.6013-85.9581 87.6013-78.4314C87.6013-70.9047 93.8444-64.6616 101.429-64.6616ZM29.3557-21.0237C36.9407-21.0237 43.1838-27.3252 43.1838-34.8519C43.1838-42.3785 36.9407-48.68 29.3557-48.68C21.829-48.68 15.5276-42.3785 15.5276-34.8519C15.5276-27.3835 21.7706-21.0237 29.3557-21.0237ZM101.429 21.2285C108.956 21.2285 115.258 14.927 115.258 7.40035C115.258-0.126381 108.956-6.36945 101.429-6.36945C93.8444-6.36945 87.6013-0.126381 87.6013 7.40035C87.6013 14.927 93.8444 21.2285 101.429 21.2285Z"/>
  </g>
  <g id="Medium-L" transform="matrix(1 0 0 1 1669.7 1556)">
   <path d="M52.8865-58.1744C63.2903-58.1744 72.0007-66.804 72.0007-77.208C72.0007-87.6119 63.2903-96.322 52.8865-96.322C42.4019-96.322 33.7723-87.6119 33.7723-77.208C33.7723-66.8848 42.3213-58.1744 52.8865-58.1744ZM76.3557-25.197C81.7944-25.197 86.3477-29.7504 86.3477-35.1891C86.3477-40.6278 81.7944-45.1812 76.3557-45.1812C70.8748-45.1812 66.3637-40.6278 66.3637-35.1891C66.3637-29.7504 70.8748-25.197 76.3557-25.197ZM123.214-16.0749C133.698-16.0749 142.328-24.7852 142.328-35.1891C142.328-45.5929 133.698-54.3033 123.214-54.3033C112.81-54.3033 104.099-45.5929 104.099-35.1891C104.099-24.7852 112.81-16.0749 123.214-16.0749ZM52.8865 25.9439C63.2903 25.9439 72.0007 17.2336 72.0007 6.82974C72.0007-3.57419 63.2903-12.2038 52.8865-12.2038C42.4019-12.2038 33.7723-3.57419 33.7723 6.82974C33.7723 17.153 42.3213 25.9439 52.8865 25.9439ZM99.9089-64.171C107.326-64.171 113.536-70.3231 113.536-77.7403C113.536-85.1573 107.326-91.3669 99.9089-91.3669C92.4343-91.3669 86.2822-85.1573 86.2822-77.7403C86.2822-70.3231 92.4343-64.171 99.9089-64.171ZM28.8849-21.1688C36.3595-21.1688 42.5116-27.3785 42.5116-34.7955C42.5116-42.2125 36.3595-48.4222 28.8849-48.4222C21.4679-48.4222 15.2582-42.2125 15.2582-34.7955C15.2582-27.4359 21.4103-21.1688 28.8849-21.1688ZM99.9089 20.468C107.326 20.468 113.536 14.2584 113.536 6.84131C113.536-0.575779 107.326-6.72791 99.9089-6.72791C92.4343-6.72791 86.2822-0.575779 86.2822 6.84131C86.2822 14.2584 92.4343 20.468 99.9089 20.468Z"/>
  </g>
  <g id="Regular-L" transform="matrix(1 0 0 1 1374.42 1556)">
   <path d="M51.8097-57.6501C62.013-57.6501 70.5554-66.1133 70.5554-76.3167C70.5554-86.52 62.013-95.0622 51.8097-95.0622C41.5272-95.0622 33.064-86.52 33.064-76.3167C33.064-66.1925 41.4482-57.6501 51.8097-57.6501ZM74.8265-25.3085C80.1603-25.3085 84.6258-29.7741 84.6258-35.1079C84.6258-40.4418 80.1603-44.9074 74.8265-44.9074C69.4512-44.9074 65.027-40.4418 65.027-35.1079C65.027-29.7741 69.4512-25.3085 74.8265-25.3085ZM120.781-16.3623C131.063-16.3623 139.527-24.9047 139.527-35.1079C139.527-45.3112 131.063-53.8536 120.781-53.8536C110.578-53.8536 102.035-45.3112 102.035-35.1079C102.035-24.9047 110.578-16.3623 120.781-16.3623ZM51.8097 24.8464C62.013 24.8464 70.5554 16.3041 70.5554 6.10079C70.5554-4.10256 62.013-12.5658 51.8097-12.5658C41.5272-12.5658 33.064-4.10256 33.064 6.10079C33.064 16.225 41.4482 24.8464 51.8097 24.8464ZM97.9256-63.531C105.2-63.531 111.289-69.5646 111.289-76.8387C111.289-84.1127 105.2-90.2026 97.9256-90.2026C90.5951-90.2026 84.5615-84.1127 84.5615-76.8387C84.5615-69.5646 90.5951-63.531 97.9256-63.531ZM28.2709-21.3579C35.6014-21.3579 41.6349-27.4479 41.6349-34.7219C41.6349-41.9959 35.6014-48.0859 28.2709-48.0859C20.9969-48.0859 14.9069-41.9959 14.9069-34.7219C14.9069-27.5042 20.9404-21.3579 28.2709-21.3579ZM97.9256 19.4761C105.2 19.4761 111.289 13.3862 111.289 6.11214C111.289-1.16195 105.2-7.19547 97.9256-7.19547C90.5951-7.19547 84.5615-1.16195 84.5615 6.11214C84.5615 13.3862 90.5951 19.4761 97.9256 19.4761Z"/>
  </g>
  <g id="Light-L" transform="matrix(1 0 0 1 1078.85 1556)">
   <path d="M50.4911-57.278C60.5765-57.278 69.0202-65.6434 69.0202-75.7289C69.0202-85.8143 60.5765-94.2578 50.4911-94.2578C40.3274-94.2578 31.962-85.8143 31.962-75.7289C31.962-65.7217 40.2493-57.278 50.4911-57.278ZM73.2419-25.3101C78.5141-25.3101 82.928-29.7241 82.928-34.9963C82.928-40.2685 78.5141-44.6825 73.2419-44.6825C67.9288-44.6825 63.5557-40.2685 63.5557-34.9963C63.5557-29.7241 67.9288-25.3101 73.2419-25.3101ZM118.665-16.4672C128.829-16.4672 137.194-24.9109 137.194-34.9963C137.194-45.0817 128.829-53.5254 118.665-53.5254C108.58-53.5254 100.136-45.0817 100.136-34.9963C100.136-24.9109 108.58-16.4672 118.665-16.4672ZM50.4911 24.2652C60.5765 24.2652 69.0202 15.8216 69.0202 5.73623C69.0202-4.34921 60.5765-12.7146 50.4911-12.7146C40.3274-12.7146 31.962-4.34921 31.962 5.73623C31.962 15.7435 40.2493 24.2652 50.4911 24.2652ZM96.0741-63.091C103.264-63.091 109.284-69.0548 109.284-76.2449C109.284-83.4348 103.264-89.4543 96.0741-89.4543C88.8283-89.4543 82.8645-83.4348 82.8645-76.2449C82.8645-69.0548 88.8283-63.091 96.0741-63.091ZM27.2243-21.4052C34.47-21.4052 40.4338-27.4248 40.4338-34.6147C40.4338-41.8047 34.47-47.8243 27.2243-47.8243C20.0343-47.8243 14.0147-41.8047 14.0147-34.6147C14.0147-27.4805 19.9785-21.4052 27.2243-21.4052ZM96.0741 18.957C103.264 18.957 109.284 12.9375 109.284 5.74745C109.284-1.44259 103.264-7.40639 96.0741-7.40639C88.8283-7.40639 82.8645-1.44259 82.8645 5.74745C82.8645 12.9375 88.8283 18.957 96.0741 18.957Z"/>
  </g>
  <g id="Thin-L" transform="matrix(1 0 0 1 783.659 1556)">
   <path d="M48.7471-56.7858C58.6766-56.7858 66.9897-65.0219 66.9897-74.9515C66.9897-84.8809 58.6766-93.1939 48.7471-93.1939C38.7406-93.1939 30.5046-84.8809 30.5046-74.9515C30.5046-65.099 38.6637-56.7858 48.7471-56.7858ZM71.1461-25.3122C76.3368-25.3122 80.6825-29.658 80.6825-34.8487C80.6825-40.0393 76.3368-44.3851 71.1461-44.3851C65.9152-44.3851 61.6097-40.0393 61.6097-34.8487C61.6097-29.658 65.9152-25.3122 71.1461-25.3122ZM115.867-16.6061C125.874-16.6061 134.11-24.9192 134.11-34.8487C134.11-44.7781 125.874-53.0912 115.867-53.0912C105.938-53.0912 97.6246-44.7781 97.6246-34.8487C97.6246-24.9192 105.938-16.6061 115.867-16.6061ZM48.7471 23.4966C58.6766 23.4966 66.9897 15.1835 66.9897 5.25407C66.9897-4.67544 58.6766-12.9115 48.7471-12.9115C38.7406-12.9115 30.5046-4.67544 30.5046 5.25407C30.5046 15.1066 38.6637 23.4966 48.7471 23.4966ZM93.6253-62.5089C100.704-62.5089 106.631-68.3805 106.631-75.4594C106.631-82.5382 100.704-88.4647 93.6253-88.4647C86.4915-88.4647 80.6199-82.5382 80.6199-75.4594C80.6199-68.3805 86.4915-62.5089 93.6253-62.5089ZM25.84-21.4677C32.9738-21.4677 38.8454-27.3942 38.8454-34.473C38.8454-41.5518 32.9738-47.4783 25.84-47.4783C18.7612-47.4783 12.8348-41.5518 12.8348-34.473C12.8348-27.449 18.7063-21.4677 25.84-21.4677ZM93.6253 18.2704C100.704 18.2704 106.631 12.344 106.631 5.26511C106.631-1.81375 100.704-7.68534 93.6253-7.68534C86.4915-7.68534 80.6199-1.81375 80.6199 5.26511C80.6199 12.344 86.4915 18.2704 93.6253 18.2704Z"/>
  </g>
  <g id="Ultralight-L" transform="matrix(1 0 0 1 487.724 1556)">
   <path d="M47.8539-56.5338C57.7034-56.5338 65.9497-64.7036 65.9497-74.5533C65.9497-84.4028 57.7034-92.6489 47.8539-92.6489C37.9279-92.6489 29.7581-84.4028 29.7581-74.5533C29.7581-64.78 37.8515-56.5338 47.8539-56.5338ZM70.0727-25.3133C75.2216-25.3133 79.5323-29.6241 79.5323-34.773C79.5323-39.922 75.2216-44.2328 70.0727-44.2328C64.8838-44.2328 60.613-39.922 60.613-34.773C60.613-29.6241 64.8838-25.3133 70.0727-25.3133ZM114.434-16.6772C124.36-16.6772 132.53-24.9235 132.53-34.773C132.53-44.6226 124.36-52.8689 114.434-52.8689C104.584-52.8689 96.3382-44.6226 96.3382-34.773C96.3382-24.9235 104.584-16.6772 114.434-16.6772ZM47.8539 23.1029C57.7034 23.1029 65.9497 14.8567 65.9497 5.0071C65.9497-4.84253 57.7034-13.0123 47.8539-13.0123C37.9279-13.0123 29.7581-4.84253 29.7581 5.0071C29.7581 14.7803 37.8515 23.1029 47.8539 23.1029ZM92.371-62.2108C99.3929-62.2108 105.272-68.0352 105.272-75.0572C105.272-82.079 99.3929-87.9578 92.371-87.9578C85.2947-87.9578 79.4703-82.079 79.4703-75.0572C79.4703-68.0352 85.2947-62.2108 92.371-62.2108ZM25.131-21.4997C32.2074-21.4997 38.0317-27.3785 38.0317-34.4004C38.0317-41.4222 32.2074-47.3011 25.131-47.3011C18.1092-47.3011 12.2304-41.4222 12.2304-34.4004C12.2304-27.4329 18.0547-21.4997 25.131-21.4997ZM92.371 17.9188C99.3929 17.9188 105.272 12.04 105.272 5.01806C105.272-2.00386 99.3929-7.82822 92.371-7.82822C85.2947-7.82822 79.4703-2.00386 79.4703 5.01806C79.4703 12.04 85.2947 17.9188 92.371 17.9188Z"/>
  </g>
  <g id="Black-M" transform="matrix(1 0 0 1 2867.59 1126)">
   <path d="M45.5382-55.3206C54.4924-55.3206 61.989-62.7476 61.989-71.7019C61.989-80.656 54.4924-88.1525 45.5382-88.1525C36.5146-88.1525 29.0875-80.656 29.0875-71.7019C29.0875-62.8172 36.4452-55.3206 45.5382-55.3206ZM65.7372-26.9384C70.418-26.9384 74.3368-30.8573 74.3368-35.5381C74.3368-40.2189 70.418-44.1378 65.7372-44.1378C61.02-44.1378 57.1374-40.2189 57.1374-35.5381C57.1374-30.8573 61.02-26.9384 65.7372-26.9384ZM106.066-19.0874C115.089-19.0874 122.516-26.584 122.516-35.5381C122.516-44.4922 115.089-51.9888 106.066-51.9888C97.1115-51.9888 89.6149-44.4922 89.6149-35.5381C89.6149-26.584 97.1115-19.0874 106.066-19.0874ZM45.5382 17.0763C54.4924 17.0763 61.989 9.57977 61.989 0.6256C61.989-8.3286 54.4924-15.7557 45.5382-15.7557C36.5146-15.7557 29.0875-8.3286 29.0875 0.6256C29.0875 9.51035 36.4452 17.0763 45.5382 17.0763ZM86.0083-60.4815C92.3918-60.4815 97.7361-65.7764 97.7361-72.16C97.7361-78.5435 92.3918-83.8878 86.0083-83.8878C79.5753-83.8878 74.2804-78.5435 74.2804-72.16C74.2804-65.7764 79.5753-60.4815 86.0083-60.4815ZM24.8811-23.4714C31.3142-23.4714 36.609-28.8159 36.609-35.1993C36.609-41.5828 31.3142-46.9272 24.8811-46.9272C18.4977-46.9272 13.1533-41.5828 13.1533-35.1993C13.1533-28.8653 18.4481-23.4714 24.8811-23.4714ZM86.0083 12.3634C92.3918 12.3634 97.7361 7.0191 97.7361 0.63556C97.7361-5.748 92.3918-11.0429 86.0083-11.0429C79.5753-11.0429 74.2804-5.748 74.2804 0.63556C74.2804 7.0191 79.5753 12.3634 86.0083 12.3634Z"/>
  </g>
  <g id="Heavy-M" transform="matrix(1 0 0 1 2572.46 1126)">
   <path d="M44.4414-54.7285C53.1638-54.7285 60.4663-61.9633 60.4663-70.6858C60.4663-79.4082 53.1638-86.7106 44.4414-86.7106C35.6513-86.7106 28.4165-79.4082 28.4165-70.6858C28.4165-62.031 35.5837-54.7285 44.4414-54.7285ZM64.1175-27.0809C68.6772-27.0809 72.4946-30.8984 72.4946-35.4581C72.4946-40.0177 68.6772-43.8352 64.1175-43.8352C59.5224-43.8352 55.7404-40.0177 55.7404-35.4581C55.7404-30.8984 59.5224-27.0809 64.1175-27.0809ZM103.402-19.4331C112.192-19.4331 119.427-26.7357 119.427-35.4581C119.427-44.1804 112.192-51.483 103.402-51.483C94.6797-51.483 87.3772-44.1804 87.3772-35.4581C87.3772-26.7357 94.6797-19.4331 103.402-19.4331ZM44.4414 15.7945C53.1638 15.7945 60.4663 8.49202 60.4663-0.230382C60.4663-8.95282 53.1638-16.1877 44.4414-16.1877C35.6513-16.1877 28.4165-8.95282 28.4165-0.230382C28.4165 8.42441 35.5837 15.7945 44.4414 15.7945ZM83.864-59.7559C90.0823-59.7559 95.2883-64.9137 95.2883-71.132C95.2883-77.3503 90.0823-82.5563 83.864-82.5563C77.5974-82.5563 72.4396-77.3503 72.4396-71.132C72.4396-64.9137 77.5974-59.7559 83.864-59.7559ZM24.319-23.7037C30.5855-23.7037 35.7433-28.9098 35.7433-35.1281C35.7433-41.3463 30.5855-46.5524 24.319-46.5524C18.1007-46.5524 12.8947-41.3463 12.8947-35.1281C12.8947-28.958 18.0524-23.7037 24.319-23.7037ZM83.864 11.2037C90.0823 11.2037 95.2883 5.99763 95.2883-0.22068C95.2883-6.43901 90.0823-11.5968 83.864-11.5968C77.5974-11.5968 72.4396-6.43901 72.4396-0.22068C72.4396 5.99763 77.5974 11.2037 83.864 11.2037Z"/>
  </g>
  <g id="Bold-M" transform="matrix(1 0 0 1 2277.53 1126)">
   <path d="M43.2144-54.0661C51.6775-54.0661 58.763-61.0859 58.763-69.5492C58.763-78.0123 51.6775-85.0977 43.2144-85.0977C34.6856-85.0977 27.6658-78.0123 27.6658-69.5492C27.6658-61.1517 34.62-54.0661 43.2144-54.0661ZM62.3057-27.2404C66.7298-27.2404 70.4337-30.9444 70.4337-35.3685C70.4337-39.7927 66.7298-43.4967 62.3057-43.4967C57.8472-43.4967 54.1775-39.7927 54.1775-35.3685C54.1775-30.9444 57.8472-27.2404 62.3057-27.2404ZM100.423-19.8199C108.951-19.8199 115.971-26.9054 115.971-35.3685C115.971-43.8316 108.951-50.9171 100.423-50.9171C91.9595-50.9171 84.874-43.8316 84.874-35.3685C84.874-26.9054 91.9595-19.8199 100.423-19.8199ZM43.2144 14.3606C51.6775 14.3606 58.763 7.27523 58.763-1.18792C58.763-9.65109 51.6775-16.6709 43.2144-16.6709C34.6856-16.6709 27.6658-9.65109 27.6658-1.18792C27.6658 7.20962 34.62 14.3606 43.2144 14.3606ZM81.4652-58.9441C87.4987-58.9441 92.5499-63.9486 92.5499-69.9821C92.5499-76.0156 87.4987-81.0668 81.4652-81.0668C75.3849-81.0668 70.3804-76.0156 70.3804-69.9821C70.3804-63.9486 75.3849-58.9441 81.4652-58.9441ZM23.6901-23.9636C29.7704-23.9636 34.7749-29.0149 34.7749-35.0483C34.7749-41.0818 29.7704-46.1331 23.6901-46.1331C17.6567-46.1331 12.6054-41.0818 12.6054-35.0483C12.6054-29.0616 17.6098-23.9636 23.6901-23.9636ZM81.4652 9.90625C87.4987 9.90625 92.5499 4.85497 92.5499-1.17851C92.5499-7.21201 87.4987-12.2165 81.4652-12.2165C75.3849-12.2165 70.3804-7.21201 70.3804-1.17851C70.3804 4.85497 75.3849 9.90625 81.4652 9.90625Z"/>
  </g>
  <g id="Semibold-M" transform="matrix(1 0 0 1 1982.04 1126)">
   <path d="M42.3685-53.6095C50.6529-53.6095 57.5888-60.4811 57.5888-68.7656C57.5888-77.05 50.6529-83.9857 42.3685-83.9857C34.0198-83.9857 27.1483-77.05 27.1483-68.7656C27.1483-60.5454 33.9557-53.6095 42.3685-53.6095ZM61.0566-27.3503C65.3873-27.3503 69.013-30.9761 69.013-35.3068C69.013-39.6375 65.3873-43.2633 61.0566-43.2633C56.6923-43.2633 53.1001-39.6375 53.1001-35.3068C53.1001-30.9761 56.6923-27.3503 61.0566-27.3503ZM98.3686-20.0865C106.717-20.0865 113.589-27.0224 113.589-35.3068C113.589-43.5912 106.717-50.527 98.3686-50.527C90.0842-50.527 83.1483-43.5912 83.1483-35.3068C83.1483-27.0224 90.0842-20.0865 98.3686-20.0865ZM42.3685 13.3721C50.6529 13.3721 57.5888 6.43637 57.5888-1.84804C57.5888-10.1325 50.6529-17.004 42.3685-17.004C34.0198-17.004 27.1483-10.1325 27.1483-1.84804C27.1483 6.37215 33.9557 13.3721 42.3685 13.3721ZM79.8115-58.3845C85.7176-58.3845 90.6621-63.2833 90.6621-69.1894C90.6621-75.0954 85.7176-80.04 79.8115-80.04C73.8597-80.04 68.9608-75.0954 68.9608-69.1894C68.9608-63.2833 73.8597-58.3845 79.8115-58.3845ZM23.2565-24.1427C29.2084-24.1427 34.1072-29.0873 34.1072-34.9933C34.1072-40.8994 29.2084-45.844 23.2565-45.844C17.3505-45.844 12.4059-40.8994 12.4059-34.9933C12.4059-29.1331 17.3047-24.1427 23.2565-24.1427ZM79.8115 9.01184C85.7176 9.01184 90.6621 4.06723 90.6621-1.83883C90.6621-7.74491 85.7176-12.6437 79.8115-12.6437C73.8597-12.6437 68.9608-7.74491 68.9608-1.83883C68.9608 4.06723 73.8597 9.01184 79.8115 9.01184Z"/>
  </g>
  <g id="Medium-M" transform="matrix(1 0 0 1 1686.26 1126)">
   <path d="M41.7271-53.2633C49.876-53.2633 56.6984-60.0225 56.6984-68.1714C56.6984-76.3203 49.876-83.1426 41.7271-83.1426C33.515-83.1426 26.7559-76.3203 26.7559-68.1714C26.7559-60.0857 33.4519-53.2633 41.7271-53.2633ZM60.1095-27.4337C64.3694-27.4337 67.9358-31.0001 67.9358-35.26C67.9358-39.5198 64.3694-43.0863 60.1095-43.0863C55.8166-43.0863 52.2832-39.5198 52.2832-35.26C52.2832-31.0001 55.8166-27.4337 60.1095-27.4337ZM96.8111-20.2887C105.023-20.2887 111.782-27.1111 111.782-35.26C111.782-43.4088 105.023-50.2312 96.8111-50.2312C88.6622-50.2312 81.8398-43.4088 81.8398-35.26C81.8398-27.1111 88.6622-20.2887 96.8111-20.2887ZM41.7271 12.6226C49.876 12.6226 56.6984 5.80032 56.6984-2.34857C56.6984-10.4975 49.876-17.2566 41.7271-17.2566C33.515-17.2566 26.7559-10.4975 26.7559-2.34857C26.7559 5.73715 33.4519 12.6226 41.7271 12.6226ZM78.5576-57.9601C84.3671-57.9601 89.2307-62.7788 89.2307-68.5883C89.2307-74.3977 84.3671-79.2614 78.5576-79.2614C72.7031-79.2614 67.8844-74.3977 67.8844-68.5883C67.8844-62.7788 72.7031-57.9601 78.5576-57.9601ZM22.9278-24.2785C28.7823-24.2785 33.601-29.1423 33.601-34.9517C33.601-40.7611 28.7823-45.6248 22.9278-45.6248C17.1184-45.6248 12.2547-40.7611 12.2547-34.9517C12.2547-29.1873 17.0733-24.2785 22.9278-24.2785ZM78.5576 8.33365C84.3671 8.33365 89.2307 3.46994 89.2307-2.33951C89.2307-8.14897 84.3671-12.9677 78.5576-12.9677C72.7031-12.9677 67.8844-8.14897 67.8844-2.33951C67.8844 3.46994 72.7031 8.33365 78.5576 8.33365Z"/>
  </g>
  <g id="Regular-M" transform="matrix(1 0 0 1 1390.76 1126)">
   <path d="M40.8906-52.8117C48.8627-52.8117 55.5371-59.4243 55.5371-67.3965C55.5371-75.3686 48.8627-82.0428 40.8906-82.0428C32.8566-82.0428 26.2441-75.3686 26.2441-67.3965C26.2441-59.4861 32.7948-52.8117 40.8906-52.8117ZM58.8742-27.5424C63.0416-27.5424 66.5307-31.0315 66.5307-35.1989C66.5307-39.3664 63.0416-42.8555 58.8742-42.8555C54.6744-42.8555 51.2176-39.3664 51.2176-35.1989C51.2176-31.0315 54.6744-27.5424 58.8742-27.5424ZM94.7796-20.5524C102.814-20.5524 109.426-27.2268 109.426-35.1989C109.426-43.171 102.814-49.8454 94.7796-49.8454C86.8075-49.8454 80.1331-43.171 80.1331-35.1989C80.1331-27.2268 86.8075-20.5524 94.7796-20.5524ZM40.8906 11.645C48.8627 11.645 55.5371 4.97068 55.5371-3.00144C55.5371-10.9736 48.8627-17.5861 40.8906-17.5861C32.8566-17.5861 26.2441-10.9736 26.2441-3.00144C26.2441 4.90888 32.7948 11.645 40.8906 11.645ZM76.9221-57.4067C82.6055-57.4067 87.3637-62.1208 87.3637-67.8043C87.3637-73.4877 82.6055-78.2459 76.9221-78.2459C71.1946-78.2459 66.4805-73.4877 66.4805-67.8043C66.4805-62.1208 71.1946-57.4067 76.9221-57.4067ZM22.499-24.4557C28.2265-24.4557 32.9407-29.2139 32.9407-34.8973C32.9407-40.5807 28.2265-45.3389 22.499-45.3389C16.8157-45.3389 12.0574-40.5807 12.0574-34.8973C12.0574-29.2579 16.7715-24.4557 22.499-24.4557ZM76.9221 7.44906C82.6055 7.44906 87.3637 2.69085 87.3637-2.99257C87.3637-8.67602 82.6055-13.3902 76.9221-13.3902C71.1946-13.3902 66.4805-8.67602 66.4805-2.99257C66.4805 2.69085 71.1946 7.44906 76.9221 7.44906Z"/>
  </g>
  <g id="Light-M" transform="matrix(1 0 0 1 1095.07 1126)">
   <path d="M39.7084-52.4781C47.5747-52.4781 54.1607-59.003 54.1607-66.8695C54.1607-74.7358 47.5747-81.3216 39.7084-81.3216C31.7809-81.3216 25.2561-74.7358 25.2561-66.8695C25.2561-59.064 31.72-52.4781 39.7084-52.4781ZM57.4535-27.5438C61.5657-27.5438 65.0085-30.9866 65.0085-35.0988C65.0085-39.211 61.5657-42.6539 57.4535-42.6539C53.3094-42.6539 49.8985-39.211 49.8985-35.0988C49.8985-30.9866 53.3094-27.5438 57.4535-27.5438ZM92.8829-20.6466C100.81-20.6466 107.335-27.2325 107.335-35.0988C107.335-42.9652 100.81-49.5511 92.8829-49.5511C85.0165-49.5511 78.4306-42.9652 78.4306-35.0988C78.4306-27.2325 85.0165-20.6466 92.8829-20.6466ZM39.7084 11.124C47.5747 11.124 54.1607 4.53813 54.1607-3.32829C54.1607-11.1947 47.5747-17.7196 39.7084-17.7196C31.7809-17.7196 25.2561-11.1947 25.2561-3.32829C25.2561 4.47714 31.72 11.124 39.7084 11.124ZM75.2621-57.0121C80.8702-57.0121 85.5653-61.6638 85.5653-67.2719C85.5653-72.8799 80.8702-77.575 75.2621-77.575C69.6106-77.575 64.9589-72.8799 64.9589-67.2719C64.9589-61.6638 69.6106-57.0121 75.2621-57.0121ZM21.5607-24.498C27.2123-24.498 31.8639-29.1932 31.8639-34.8012C31.8639-40.4092 27.2123-45.1044 21.5607-45.1044C15.9527-45.1044 11.2575-40.4092 11.2575-34.8012C11.2575-29.2366 15.9091-24.498 21.5607-24.498ZM75.2621 6.98364C80.8702 6.98364 85.5653 2.28852 85.5653-3.31954C85.5653-8.92762 80.8702-13.5793 75.2621-13.5793C69.6106-13.5793 64.9589-8.92762 64.9589-3.31954C64.9589 2.28852 69.6106 6.98364 75.2621 6.98364Z"/>
  </g>
  <g id="Thin-M" transform="matrix(1 0 0 1 799.72 1126)">
   <path d="M38.1448-52.0369C45.8714-52.0369 52.3402-58.4457 52.3402-66.1724C52.3402-73.899 45.8714-80.3678 38.1448-80.3678C30.3582-80.3678 23.9494-73.899 23.9494-66.1724C23.9494-58.5057 30.2984-52.0369 38.1448-52.0369ZM55.5746-27.5457C59.6137-27.5457 62.9953-30.9274 62.9953-34.9665C62.9953-39.0056 59.6137-42.3872 55.5746-42.3872C51.5041-42.3872 48.1538-39.0056 48.1538-34.9665C48.1538-30.9274 51.5041-27.5457 55.5746-27.5457ZM90.3742-20.771C98.1608-20.771 104.57-27.2399 104.57-34.9665C104.57-42.693 98.1608-49.1619 90.3742-49.1619C82.6477-49.1619 76.1788-42.693 76.1788-34.9665C76.1788-27.2399 82.6477-20.771 90.3742-20.771ZM38.1448 10.4348C45.8714 10.4348 52.3402 3.96603 52.3402-3.76058C52.3402-11.4872 45.8714-17.8961 38.1448-17.8961C30.3582-17.8961 23.9494-11.4872 23.9494-3.76058C23.9494 3.90614 30.2984 10.4348 38.1448 10.4348ZM73.0667-56.4903C78.5751-56.4903 83.1867-61.0593 83.1867-66.5677C83.1867-72.0761 78.5751-76.6877 73.0667-76.6877C67.5156-76.6877 62.9466-72.0761 62.9466-66.5677C62.9466-61.0593 67.5156-56.4903 73.0667-56.4903ZM20.3197-24.5541C25.8708-24.5541 30.4397-29.1658 30.4397-34.6741C30.4397-40.1825 25.8708-44.7942 20.3197-44.7942C14.8113-44.7942 10.1996-40.1825 10.1996-34.6741C10.1996-29.2085 14.7686-24.5541 20.3197-24.5541ZM73.0667 6.36809C78.5751 6.36809 83.1867 1.75641 83.1867-3.75198C83.1867-9.26039 78.5751-13.8294 73.0667-13.8294C67.5156-13.8294 62.9466-9.26039 62.9466-3.75198C62.9466 1.75641 67.5156 6.36809 73.0667 6.36809Z"/>
  </g>
  <g id="Ultralight-M" transform="matrix(1 0 0 1 503.706 1126)">
   <path d="M37.344-51.8109C44.9989-51.8109 51.4078-58.1603 51.4078-65.8154C51.4078-73.4704 44.9989-79.8792 37.344-79.8792C29.6296-79.8792 23.2801-73.4704 23.2801-65.8154C23.2801-58.2198 29.5703-51.8109 37.344-51.8109ZM54.6122-27.5467C58.6139-27.5467 61.9641-30.897 61.9641-34.8987C61.9641-38.9004 58.6139-42.2507 54.6122-42.2507C50.5794-42.2507 47.2602-38.9004 47.2602-34.8987C47.2602-30.897 50.5794-27.5467 54.6122-27.5467ZM89.0893-20.8348C96.8037-20.8348 103.153-27.2437 103.153-34.8987C103.153-42.5536 96.8037-48.9626 89.0893-48.9626C81.4344-48.9626 75.0255-42.5536 75.0255-34.8987C75.0255-27.2437 81.4344-20.8348 89.0893-20.8348ZM37.344 10.0818C44.9989 10.0818 51.4078 3.67301 51.4078-3.98199C51.4078-11.637 44.9989-17.9865 37.344-17.9865C29.6296-17.9865 23.2801-11.637 23.2801-3.98199C23.2801 3.61367 29.5703 10.0818 37.344 10.0818ZM71.9422-56.223C77.3995-56.223 81.9684-60.7496 81.9684-66.207C81.9684-71.6644 77.3995-76.2333 71.9422-76.2333C66.4425-76.2333 61.9159-71.6644 61.9159-66.207C61.9159-60.7496 66.4425-56.223 71.9422-56.223ZM19.684-24.5828C25.1837-24.5828 29.7103-29.1518 29.7103-34.6091C29.7103-40.0664 25.1837-44.6353 19.684-44.6353C14.2267-44.6353 9.65778-40.0664 9.65778-34.6091C9.65778-29.194 14.1844-24.5828 19.684-24.5828ZM71.9422 6.0528C77.3995 6.0528 81.9684 1.48387 81.9684-3.97347C81.9684-9.43084 77.3995-13.9575 71.9422-13.9575C66.4425-13.9575 61.9159-9.43084 61.9159-3.97347C61.9159 1.48387 66.4425 6.0528 71.9422 6.0528Z"/>
  </g>
  <g id="Black-S" transform="matrix(1 0 0 1 2881.4 696)">
   <path d="M35.9517-51.1348C43.0331-51.1348 48.9618-57.0085 48.9618-64.09C48.9618-71.1714 43.0331-77.1 35.9517-77.1C28.8153-77.1 22.9416-71.1714 22.9416-64.09C22.9416-57.0635 28.7605-51.1348 35.9517-51.1348ZM51.9261-28.6887C55.6279-28.6887 58.7271-31.7879 58.7271-35.4898C58.7271-39.1916 55.6279-42.2909 51.9261-42.2909C48.1955-42.2909 45.1249-39.1916 45.1249-35.4898C45.1249-31.7879 48.1955-28.6887 51.9261-28.6887ZM83.8199-22.4797C90.9562-22.4797 96.83-28.4084 96.83-35.4898C96.83-42.5712 90.9562-48.4999 83.8199-48.4999C76.7385-48.4999 70.8098-42.5712 70.8098-35.4898C70.8098-28.4084 76.7385-22.4797 83.8199-22.4797ZM35.9517 6.12042C43.0331 6.12042 48.9618 0.191795 48.9618-6.88963C48.9618-13.9711 43.0331-19.8448 35.9517-19.8448C28.8153-19.8448 22.9416-13.9711 22.9416-6.88963C22.9416 0.136898 28.7605 6.12042 35.9517 6.12042ZM67.9575-55.2163C73.006-55.2163 77.2325-59.4038 77.2325-64.4523C77.2325-69.5007 73.006-73.7272 67.9575-73.7272C62.8699-73.7272 58.6825-69.5007 58.6825-64.4523C58.6825-59.4038 62.8699-55.2163 67.9575-55.2163ZM19.615-25.9468C24.7026-25.9468 28.89-30.1735 28.89-35.2219C28.89-40.2703 24.7026-44.4969 19.615-44.4969C14.5666-44.4969 10.34-40.2703 10.34-35.2219C10.34-30.2126 14.5274-25.9468 19.615-25.9468ZM67.9575 2.39327C73.006 2.39327 77.2325-1.83332 77.2325-6.88175C77.2325-11.9302 73.006-16.1177 67.9575-16.1177C62.8699-16.1177 58.6825-11.9302 58.6825-6.88175C58.6825-1.83332 62.8699 2.39327 67.9575 2.39327Z"/>
  </g>
  <g id="Heavy-S" transform="matrix(1 0 0 1 2585.92 696)">
   <path d="M35.1647-50.671C42.0614-50.671 47.8354-56.3915 47.8354-63.2883C47.8354-70.185 42.0614-75.959 35.1647-75.959C28.2145-75.959 22.4939-70.185 22.4939-63.2883C22.4939-56.4451 28.161-50.671 35.1647-50.671ZM50.7224-28.8104C54.3277-28.8104 57.346-31.8288 57.346-35.4341C57.346-39.0394 54.3277-42.0578 50.7224-42.0578C47.0891-42.0578 44.0987-39.0394 44.0987-35.4341C44.0987-31.8288 47.0891-28.8104 50.7224-28.8104ZM81.7843-22.7634C88.7345-22.7634 94.455-28.5374 94.455-35.4341C94.455-42.3308 88.7345-48.1049 81.7843-48.1049C74.8876-48.1049 69.1136-42.3308 69.1136-35.4341C69.1136-28.5374 74.8876-22.7634 81.7843-22.7634ZM35.1647 5.09075C42.0614 5.09075 47.8354-0.683233 47.8354-7.57995C47.8354-14.4767 42.0614-20.1972 35.1647-20.1972C28.2145-20.1972 22.4939-14.4767 22.4939-7.57995C22.4939-0.736698 28.161 5.09075 35.1647 5.09075ZM66.3357-54.6461C71.2524-54.6461 75.3688-58.7243 75.3688-63.6412C75.3688-68.5579 71.2524-72.6742 66.3357-72.6742C61.3808-72.6742 57.3026-68.5579 57.3026-63.6412C57.3026-58.7243 61.3808-54.6461 66.3357-54.6461ZM19.2541-26.1401C24.209-26.1401 28.2872-30.2565 28.2872-35.1732C28.2872-40.0899 24.209-44.2063 19.2541-44.2063C14.3374-44.2063 10.221-40.0899 10.221-35.1732C10.221-30.2946 14.2992-26.1401 19.2541-26.1401ZM66.3357 1.46082C71.2524 1.46082 75.3688-2.65552 75.3688-7.57228C75.3688-12.489 71.2524-16.5673 66.3357-16.5673C61.3808-16.5673 57.3026-12.489 57.3026-7.57228C57.3026-2.65552 61.3808 1.46082 66.3357 1.46082Z"/>
  </g>
  <g id="Bold-S" transform="matrix(1 0 0 1 2290.58 696)">
   <path d="M34.2844-50.1523C40.9745-50.1523 46.5756-55.7015 46.5756-62.3917C46.5756-69.0818 40.9745-74.6828 34.2844-74.6828C27.5424-74.6828 21.9932-69.0818 21.9932-62.3917C21.9932-55.7534 27.4906-50.1523 34.2844-50.1523ZM49.3761-28.9465C52.8734-28.9465 55.8014-31.8746 55.8014-35.3718C55.8014-38.8691 52.8734-41.7971 49.3761-41.7971C45.8517-41.7971 42.9508-38.8691 42.9508-35.3718C42.9508-31.8746 45.8517-28.9465 49.3761-28.9465ZM79.5076-23.0806C86.2496-23.0806 91.7988-28.6817 91.7988-35.3718C91.7988-42.0619 86.2496-47.663 79.5076-47.663C72.8175-47.663 67.2164-42.0619 67.2164-35.3718C67.2164-28.6817 72.8175-23.0806 79.5076-23.0806ZM34.2844 3.93911C40.9745 3.93911 46.5756-1.66191 46.5756-8.35204C46.5756-15.0422 40.9745-20.5914 34.2844-20.5914C27.5424-20.5914 21.9932-15.0422 21.9932-8.35204C21.9932-1.71378 27.4906 3.93911 34.2844 3.93911ZM64.5218-54.0084C69.2912-54.0084 73.2842-57.9644 73.2842-62.734C73.2842-67.5034 69.2912-71.4964 64.5218-71.4964C59.7153-71.4964 55.7592-67.5034 55.7592-62.734C55.7592-57.9644 59.7153-54.0084 64.5218-54.0084ZM18.8505-26.3562C23.6569-26.3562 27.613-30.3493 27.613-35.1187C27.613-39.8882 23.6569-43.8812 18.8505-43.8812C14.081-43.8812 10.088-39.8882 10.088-35.1187C10.088-30.3862 14.044-26.3562 18.8505-26.3562ZM64.5218 0.417918C69.2912 0.417918 73.2842-3.57512 73.2842-8.3446C73.2842-13.1141 69.2912-17.0702 64.5218-17.0702C59.7153-17.0702 55.7592-13.1141 55.7592-8.3446C55.7592-3.57512 59.7153 0.417918 64.5218 0.417918Z"/>
  </g>
  <g id="Semibold-S" transform="matrix(1 0 0 1 1994.81 696)">
   <path d="M33.6776-49.7947C40.2252-49.7947 45.7071-55.2258 45.7071-61.7735C45.7071-68.3212 40.2252-73.8029 33.6776-73.8029C27.0791-73.8029 21.6481-68.3212 21.6481-61.7735C21.6481-55.2766 27.0283-49.7947 33.6776-49.7947ZM48.4479-29.0404C51.8708-29.0404 54.7364-31.9061 54.7364-35.3289C54.7364-38.7517 51.8708-41.6174 48.4479-41.6174C44.9985-41.6174 42.1594-38.7517 42.1594-35.3289C42.1594-31.9061 44.9985-29.0404 48.4479-29.0404ZM77.9379-23.2994C84.5364-23.2994 89.9674-28.7812 89.9674-35.3289C89.9674-41.8766 84.5364-47.3584 77.9379-47.3584C71.3903-47.3584 65.9084-41.8766 65.9084-35.3289C65.9084-28.7812 71.3903-23.2994 77.9379-23.2994ZM33.6776 3.14512C40.2252 3.14512 45.7071-2.33666 45.7071-8.88436C45.7071-15.4321 40.2252-20.8631 33.6776-20.8631C27.0791-20.8631 21.6481-15.4321 21.6481-8.88436C21.6481-2.38742 27.0283 3.14512 33.6776 3.14512ZM63.2711-53.5687C67.939-53.5687 71.8471-57.4405 71.8471-62.1085C71.8471-66.7764 67.939-70.6844 63.2711-70.6844C58.567-70.6844 54.6951-66.7764 54.6951-62.1085C54.6951-57.4405 58.567-53.5687 63.2711-53.5687ZM18.5722-26.5052C23.2763-26.5052 27.1481-30.4133 27.1481-35.0812C27.1481-39.7491 23.2763-43.6572 18.5722-43.6572C13.9043-43.6572 9.99623-39.7491 9.99623-35.0812C9.99623-30.4494 13.868-26.5052 18.5722-26.5052ZM63.2711-0.301111C67.939-0.301111 71.8471-4.20914 71.8471-8.87707C71.8471-13.545 67.939-17.4169 63.2711-17.4169C58.567-17.4169 54.6951-13.545 54.6951-8.87707C54.6951-4.20914 58.567-0.301111 63.2711-0.301111Z"/>
  </g>
  <g id="Medium-S" transform="matrix(1 0 0 1 1698.82 696)">
   <path d="M33.2174-49.5236C39.6571-49.5236 45.0485-54.865 45.0485-61.3048C45.0485-67.7445 39.6571-73.1358 33.2174-73.1358C26.7277-73.1358 21.3863-67.7445 21.3863-61.3048C21.3863-54.915 26.6779-49.5236 33.2174-49.5236ZM47.7442-29.1116C51.1105-29.1116 53.9289-31.93 53.9289-35.2964C53.9289-38.6627 51.1105-41.4811 47.7442-41.4811C44.3516-41.4811 41.5594-38.6627 41.5594-35.2964C41.5594-31.93 44.3516-29.1116 47.7442-29.1116ZM76.7477-23.4653C83.2374-23.4653 88.5788-28.8567 88.5788-35.2964C88.5788-41.736 83.2374-47.1275 76.7477-47.1275C70.3081-47.1275 64.9166-41.736 64.9166-35.2964C64.9166-28.8567 70.3081-23.4653 76.7477-23.4653ZM33.2174 2.54308C39.6571 2.54308 45.0485-2.84829 45.0485-9.28798C45.0485-15.7277 39.6571-21.0691 33.2174-21.0691C26.7277-21.0691 21.3863-15.7277 21.3863-9.28798C21.3863-2.89821 26.6779 2.54308 33.2174 2.54308ZM62.3229-53.2353C66.9138-53.2353 70.7573-57.0432 70.7573-61.6342C70.7573-66.2251 66.9138-70.0687 62.3229-70.0687C57.6963-70.0687 53.8883-66.2251 53.8883-61.6342C53.8883-57.0432 57.6963-53.2353 62.3229-53.2353ZM18.3612-26.6182C22.9877-26.6182 26.7957-30.4618 26.7957-35.0527C26.7957-39.6436 22.9877-43.4872 18.3612-43.4872C13.7703-43.4872 9.92667-39.6436 9.92667-35.0527C9.92667-30.4974 13.7346-26.6182 18.3612-26.6182ZM62.3229-0.846309C66.9138-0.846309 70.7573-4.68988 70.7573-9.28082C70.7573-13.8718 66.9138-17.6798 62.3229-17.6798C57.6963-17.6798 53.8883-13.8718 53.8883-9.28082C53.8883-4.68988 57.6963-0.846309 62.3229-0.846309Z"/>
  </g>
  <g id="Regular-S" transform="matrix(1 0 0 1 1403.04 696)">
   <path d="M32.6172-49.1699C38.916-49.1699 44.1895-54.3945 44.1895-60.6934C44.1895-66.9922 38.916-72.2656 32.6172-72.2656C26.2695-72.2656 21.0449-66.9922 21.0449-60.6934C21.0449-54.4434 26.2207-49.1699 32.6172-49.1699ZM46.8262-29.2044C50.1189-29.2044 52.8756-31.9612 52.8756-35.2539C52.8756-38.5466 50.1189-41.3034 46.8262-41.3034C43.5079-41.3034 40.7767-38.5466 40.7767-35.2539C40.7767-31.9612 43.5079-29.2044 46.8262-29.2044ZM75.1953-23.6816C81.543-23.6816 86.7676-28.9551 86.7676-35.2539C86.7676-41.5527 81.543-46.8262 75.1953-46.8262C68.8965-46.8262 63.623-41.5527 63.623-35.2539C63.623-28.9551 68.8965-23.6816 75.1953-23.6816ZM32.6172 1.75781C38.916 1.75781 44.1895-3.51562 44.1895-9.81445C44.1895-16.1133 38.916-21.3379 32.6172-21.3379C26.2695-21.3379 21.0449-16.1133 21.0449-9.81445C21.0449-3.56445 26.2207 1.75781 32.6172 1.75781ZM61.086-52.8004C65.5765-52.8004 69.3359-56.5251 69.3359-61.0156C69.3359-65.5061 65.5765-69.2656 61.086-69.2656C56.5606-69.2656 52.8359-65.5061 52.8359-61.0156C52.8359-56.5251 56.5606-52.8004 61.086-52.8004ZM18.0859-26.7656C22.6113-26.7656 26.3359-30.5251 26.3359-35.0156C26.3359-39.5061 22.6113-43.2656 18.0859-43.2656C13.5954-43.2656 9.83594-39.5061 9.83594-35.0156C9.83594-30.5599 13.5606-26.7656 18.0859-26.7656ZM61.086-1.55744C65.5765-1.55744 69.3359-5.31693 69.3359-9.80744C69.3359-14.298 65.5765-18.0227 61.086-18.0227C56.5606-18.0227 52.8359-14.298 52.8359-9.80744C52.8359-5.31693 56.5606-1.55744 61.086-1.55744Z"/>
  </g>
  <g id="Light-S" transform="matrix(1 0 0 1 1107.24 696)">
   <path d="M31.5714-48.8748C37.7767-48.8748 42.9719-54.0218 42.9719-60.2272C42.9719-66.4325 37.7767-71.6276 31.5714-71.6276C25.3179-71.6276 20.1709-66.4325 20.1709-60.2272C20.1709-54.07 25.2699-48.8748 31.5714-48.8748ZM45.5694-29.2057C48.8133-29.2057 51.5291-31.9215 51.5291-35.1654C51.5291-38.4092 48.8133-41.1251 45.5694-41.1251C42.3004-41.1251 39.6098-38.4092 39.6098-35.1654C39.6098-31.9215 42.3004-29.2057 45.5694-29.2057ZM73.5174-23.7649C79.7709-23.7649 84.9179-28.9601 84.9179-35.1654C84.9179-41.3707 79.7709-46.5659 73.5174-46.5659C67.3121-46.5659 62.1169-41.3707 62.1169-35.1654C62.1169-28.9601 67.3121-23.7649 73.5174-23.7649ZM31.5714 1.29687C37.7767 1.29687 42.9719-3.89827 42.9719-10.1036C42.9719-16.3089 37.7767-21.456 31.5714-21.456C25.3179-21.456 20.1709-16.3089 20.1709-10.1036C20.1709-3.94637 25.2699 1.29687 31.5714 1.29687ZM59.6175-52.4514C64.0414-52.4514 67.745-56.1208 67.745-60.5446C67.745-64.9685 64.0414-68.6721 59.6175-68.6721C55.1594-68.6721 51.49-64.9685 51.49-60.5446C51.49-56.1208 55.1594-52.4514 59.6175-52.4514ZM17.2559-26.8031C21.714-26.8031 25.3834-30.5068 25.3834-34.9306C25.3834-39.3544 21.714-43.0581 17.2559-43.0581C12.832-43.0581 9.12835-39.3544 9.12835-34.9306C9.12835-30.541 12.7977-26.8031 17.2559-26.8031ZM59.6175-1.96915C64.0414-1.96915 67.745-5.67283 67.745-10.0967C67.745-14.5205 64.0414-18.1899 59.6175-18.1899C55.1594-18.1899 51.49-14.5205 51.49-10.0967C51.49-5.67283 55.1594-1.96915 59.6175-1.96915Z"/>
  </g>
  <g id="Thin-S" transform="matrix(1 0 0 1 811.729 696)">
   <path d="M30.1883-48.4844C36.2699-48.4844 41.3615-53.5289 41.3615-59.6106C41.3615-65.6922 36.2699-70.7838 30.1883-70.7838C24.0594-70.7838 19.015-65.6922 19.015-59.6106C19.015-53.5761 24.0123-48.4844 30.1883-48.4844ZM43.9073-29.2074C47.0865-29.2074 49.7482-31.8691 49.7482-35.0483C49.7482-38.2275 47.0865-40.8892 43.9073-40.8892C40.7034-40.8892 38.0664-38.2275 38.0664-35.0483C38.0664-31.8691 40.7034-29.2074 43.9073-29.2074ZM71.2982-23.875C77.4271-23.875 82.4715-28.9667 82.4715-35.0483C82.4715-41.1299 77.4271-46.2216 71.2982-46.2216C65.2166-46.2216 60.125-41.1299 60.125-35.0483C60.125-28.9667 65.2166-23.875 71.2982-23.875ZM30.1883 0.687251C36.2699 0.687251 41.3615-4.40435 41.3615-10.486C41.3615-16.5677 36.2699-21.6121 30.1883-21.6121C24.0594-21.6121 19.015-16.5677 19.015-10.486C19.015-4.45149 24.0123 0.687251 30.1883 0.687251ZM57.6754-51.9898C62.0111-51.9898 65.6409-55.586 65.6409-59.9217C65.6409-64.2574 62.0111-67.8872 57.6754-67.8872C53.3061-67.8872 49.7098-64.2574 49.7098-59.9217C49.7098-55.586 53.3061-51.9898 57.6754-51.9898ZM16.158-26.8526C20.5273-26.8526 24.1236-30.4825 24.1236-34.8182C24.1236-39.1538 20.5273-42.7837 16.158-42.7837C11.8224-42.7837 8.1925-39.1538 8.1925-34.8182C8.1925-30.5161 11.7887-26.8526 16.158-26.8526ZM57.6754-2.51368C62.0111-2.51368 65.6409-6.14355 65.6409-10.4792C65.6409-14.8149 62.0111-18.4112 57.6754-18.4112C53.3061-18.4112 49.7098-14.8149 49.7098-10.4792C49.7098-6.14355 53.3061-2.51368 57.6754-2.51368Z"/>
  </g>
  <g id="Ultralight-S" transform="matrix(1 0 0 1 515.634 696)">
   <path d="M29.4798-48.2845C35.4981-48.2845 40.5367-53.2764 40.5367-59.2948C40.5367-65.3131 35.4981-70.3516 29.4798-70.3516C23.4148-70.3516 18.4229-65.3131 18.4229-59.2948C18.4229-53.3231 23.3682-48.2845 29.4798-48.2845ZM43.056-29.2082C46.202-29.2082 48.836-31.8422 48.836-34.9883C48.836-38.1344 46.202-40.7684 43.056-40.7684C39.8854-40.7684 37.2759-38.1344 37.2759-34.9883C37.2759-31.8422 39.8854-29.2082 43.056-29.2082ZM70.1616-23.9314C76.2266-23.9314 81.2185-28.97 81.2185-34.9883C81.2185-41.0066 76.2266-46.0452 70.1616-46.0452C64.1433-46.0452 59.1047-41.0066 59.1047-34.9883C59.1047-28.97 64.1433-23.9314 70.1616-23.9314ZM29.4798 0.375004C35.4981 0.375004 40.5367-4.66356 40.5367-10.6819C40.5367-16.7002 35.4981-21.6921 29.4798-21.6921C23.4148-21.6921 18.4229-16.7002 18.4229-10.6819C18.4229-4.71022 23.3682 0.375004 29.4798 0.375004ZM56.6807-51.7533C60.9712-51.7533 64.5632-55.3121 64.5632-59.6027C64.5632-63.8932 60.9712-67.4852 56.6807-67.4852C52.3569-67.4852 48.7981-63.8932 48.7981-59.6027C48.7981-55.3121 52.3569-51.7533 56.6807-51.7533ZM15.5957-26.878C19.9195-26.878 23.4783-30.4701 23.4783-34.7606C23.4783-39.0511 19.9195-42.6432 15.5957-42.6432C11.3052-42.6432 7.71317-39.0511 7.71317-34.7606C7.71317-30.5034 11.2719-26.878 15.5957-26.878ZM56.6807-2.79259C60.9712-2.79259 64.5632-6.38464 64.5632-10.6752C64.5632-14.9657 60.9712-18.5245 56.6807-18.5245C52.3569-18.5245 48.7981-14.9657 48.7981-10.6752C48.7981-6.38464 52.3569-2.79259 56.6807-2.79259Z"/>
  </g>
 </g>
</svg>
