<?xml version="1.0" encoding="UTF-8"?>
<!--Generator: Apple Native CoreSVG 232.5-->
<!DOCTYPE svg
PUBLIC "-//W3C//DTD SVG 1.1//EN"
       "http://www.w3.org/Graphics/SVG/1.1/DTD/svg11.dtd">
<svg version="1.1" xmlns="http://www.w3.org/2000/svg" xmlns:xlink="http://www.w3.org/1999/xlink" width="3300" height="2200">
 <g id="Notes">
  <rect height="2200" id="artboard" style="fill:white;opacity:1" width="3300" x="0" y="0"/>
  <line style="fill:none;stroke:black;opacity:1;stroke-width:0.5;" x1="263" x2="3036" y1="292" y2="292"/>
  <text style="stroke:none;fill:black;font-family:sans-serif;font-size:13;font-weight:bold;" transform="matrix(1 0 0 1 263 322)">Weight/Scale Variations</text>
  <text style="stroke:none;fill:black;font-family:sans-serif;font-size:13;text-anchor:middle;" transform="matrix(1 0 0 1 559.711 322)">Ultralight</text>
  <text style="stroke:none;fill:black;font-family:sans-serif;font-size:13;text-anchor:middle;" transform="matrix(1 0 0 1 856.422 322)">Thin</text>
  <text style="stroke:none;fill:black;font-family:sans-serif;font-size:13;text-anchor:middle;" transform="matrix(1 0 0 1 1153.13 322)">Light</text>
  <text style="stroke:none;fill:black;font-family:sans-serif;font-size:13;text-anchor:middle;" transform="matrix(1 0 0 1 1449.84 322)">Regular</text>
  <text style="stroke:none;fill:black;font-family:sans-serif;font-size:13;text-anchor:middle;" transform="matrix(1 0 0 1 1746.56 322)">Medium</text>
  <text style="stroke:none;fill:black;font-family:sans-serif;font-size:13;text-anchor:middle;" transform="matrix(1 0 0 1 2043.27 322)">Semibold</text>
  <text style="stroke:none;fill:black;font-family:sans-serif;font-size:13;text-anchor:middle;" transform="matrix(1 0 0 1 2339.98 322)">Bold</text>
  <text style="stroke:none;fill:black;font-family:sans-serif;font-size:13;text-anchor:middle;" transform="matrix(1 0 0 1 2636.69 322)">Heavy</text>
  <text style="stroke:none;fill:black;font-family:sans-serif;font-size:13;text-anchor:middle;" transform="matrix(1 0 0 1 2933.4 322)">Black</text>
  <line style="fill:none;stroke:black;opacity:1;stroke-width:0.5;" x1="263" x2="3036" y1="1903" y2="1903"/>
  <g transform="matrix(0.2 0 0 0.2 263 1933)">
   <path d="m46.2402 4.15039c21.5332 0 39.4531-17.8711 39.4531-39.4043s-17.9688-39.4043-39.502-39.4043c-21.4844 0-39.3555 17.8711-39.3555 39.4043s17.9199 39.4043 39.4043 39.4043Zm0-7.42188c-17.7246 0-31.8848-14.209-31.8848-31.9824s14.1113-31.9824 31.8359-31.9824c17.7734 0 32.0312 14.209 32.0312 31.9824s-14.209 31.9824-31.9824 31.9824Zm-17.9688-31.9824c0 2.14844 1.51367 3.61328 3.75977 3.61328h10.498v10.5957c0 2.19727 1.46484 3.71094 3.61328 3.71094 2.24609 0 3.71094-1.51367 3.71094-3.71094v-10.5957h10.5957c2.19727 0 3.71094-1.46484 3.71094-3.61328 0-2.19727-1.51367-3.71094-3.71094-3.71094h-10.5957v-10.5469c0-2.24609-1.46484-3.75977-3.71094-3.75977-2.14844 0-3.61328 1.51367-3.61328 3.75977v10.5469h-10.498c-2.24609 0-3.75977 1.51367-3.75977 3.71094Z"/>
  </g>
  <g transform="matrix(0.2 0 0 0.2 281.506 1933)">
   <path d="m58.5449 14.5508c27.2461 0 49.8047-22.6074 49.8047-49.8047 0-27.2461-22.6074-49.8047-49.8535-49.8047-27.1973 0-49.7559 22.5586-49.7559 49.8047 0 27.1973 22.6074 49.8047 49.8047 49.8047Zm0-8.30078c-23.0469 0-41.4551-18.457-41.4551-41.5039s18.3594-41.5039 41.4062-41.5039 41.5527 18.457 41.5527 41.5039-18.457 41.5039-41.5039 41.5039Zm-22.6562-41.5039c0 2.39258 1.66016 4.00391 4.15039 4.00391h14.3555v14.4043c0 2.44141 1.66016 4.15039 4.05273 4.15039 2.44141 0 4.15039-1.66016 4.15039-4.15039v-14.4043h14.4043c2.44141 0 4.15039-1.61133 4.15039-4.00391 0-2.44141-1.70898-4.15039-4.15039-4.15039h-14.4043v-14.3555c0-2.49023-1.70898-4.19922-4.15039-4.19922-2.39258 0-4.05273 1.70898-4.05273 4.19922v14.3555h-14.3555c-2.49023 0-4.15039 1.70898-4.15039 4.15039Z"/>
  </g>
  <g transform="matrix(0.2 0 0 0.2 304.924 1933)">
   <path d="m74.8535 28.3203c34.8145 0 63.623-28.8086 63.623-63.5742 0-34.8145-28.8574-63.623-63.6719-63.623-34.7656 0-63.5254 28.8086-63.5254 63.623 0 34.7656 28.8086 63.5742 63.5742 63.5742Zm0-9.08203c-30.1758 0-54.4434-24.3164-54.4434-54.4922 0-30.2246 24.2188-54.4922 54.3945-54.4922 30.2246 0 54.541 24.2676 54.541 54.4922 0 30.1758-24.2676 54.4922-54.4922 54.4922Zm-28.8574-54.4922c0 2.58789 1.85547 4.39453 4.58984 4.39453h19.7266v19.7754c0 2.68555 1.85547 4.58984 4.44336 4.58984 2.68555 0 4.54102-1.85547 4.54102-4.58984v-19.7754h19.7754c2.68555 0 4.58984-1.80664 4.58984-4.39453 0-2.73438-1.85547-4.58984-4.58984-4.58984h-19.7754v-19.7266c0-2.73438-1.85547-4.63867-4.54102-4.63867-2.58789 0-4.44336 1.9043-4.44336 4.63867v19.7266h-19.7266c-2.73438 0-4.58984 1.85547-4.58984 4.58984Z"/>
  </g>
  <text style="stroke:none;fill:black;font-family:sans-serif;font-size:13;font-weight:bold;" transform="matrix(1 0 0 1 263 1953)">Design Variations</text>
  <text style="stroke:none;fill:black;font-family:sans-serif;font-size:13;" transform="matrix(1 0 0 1 263 1971)">Symbols are supported in up to nine weights and three scales.</text>
  <text style="stroke:none;fill:black;font-family:sans-serif;font-size:13;" transform="matrix(1 0 0 1 263 1989)">For optimal layout with text and other symbols, vertically align</text>
  <text style="stroke:none;fill:black;font-family:sans-serif;font-size:13;" transform="matrix(1 0 0 1 263 2007)">symbols with the adjacent text.</text>
  <line style="fill:none;stroke:#00AEEF;stroke-width:0.5;opacity:1.0;" x1="776" x2="776" y1="1919" y2="1933"/>
  <g transform="matrix(0.2 0 0 0.2 776 1933)">
   <path d="m16.5527 0.78125c2.58789 0 3.85742-0.976562 4.78516-3.71094l6.29883-17.2363h28.8086l6.29883 17.2363c0.927734 2.73438 2.19727 3.71094 4.73633 3.71094 2.58789 0 4.24805-1.5625 4.24805-4.00391 0-0.830078-0.146484-1.61133-0.537109-2.63672l-22.9004-60.9863c-1.12305-2.97852-3.125-4.49219-6.25-4.49219-3.02734 0-5.07812 1.46484-6.15234 4.44336l-22.9004 61.084c-0.390625 1.02539-0.537109 1.80664-0.537109 2.63672 0 2.44141 1.5625 3.95508 4.10156 3.95508Zm13.4766-28.3691 11.8652-32.8613h0.244141l11.8652 32.8613Z"/>
  </g>
  <line style="fill:none;stroke:#00AEEF;stroke-width:0.5;opacity:1.0;" x1="792.836" x2="792.836" y1="1919" y2="1933"/>
  <text style="stroke:none;fill:black;font-family:sans-serif;font-size:13;font-weight:bold;" transform="matrix(1 0 0 1 776 1953)">Margins</text>
  <text style="stroke:none;fill:black;font-family:sans-serif;font-size:13;" transform="matrix(1 0 0 1 776 1971)">Leading and trailing margins on the left and right side of each symbol</text>
  <text style="stroke:none;fill:black;font-family:sans-serif;font-size:13;" transform="matrix(1 0 0 1 776 1989)">can be adjusted by modifying the x-location of the margin guidelines.</text>
  <text style="stroke:none;fill:black;font-family:sans-serif;font-size:13;" transform="matrix(1 0 0 1 776 2007)">Modifications are automatically applied proportionally to all</text>
  <text style="stroke:none;fill:black;font-family:sans-serif;font-size:13;" transform="matrix(1 0 0 1 776 2025)">scales and weights.</text>
  <g transform="matrix(0.2 0 0 0.2 1289 1933)">
   <path d="m14.209 9.32617 8.49609 8.54492c4.29688 4.3457 9.22852 4.05273 13.8672-1.07422l53.4668-58.9355-4.83398-4.88281-53.0762 58.3984c-1.75781 2.00195-3.41797 2.49023-5.76172 0.146484l-5.85938-5.81055c-2.34375-2.29492-1.80664-4.00391 0.195312-5.81055l57.373-54.0039-4.88281-4.83398-57.959 54.4434c-4.93164 4.58984-5.32227 9.47266-1.02539 13.8184Zm32.0801-90.9668c-2.09961 2.05078-2.24609 4.93164-1.07422 6.88477 1.17188 1.80664 3.4668 2.97852 6.68945 2.14844 7.32422-1.70898 14.9414-2.00195 22.0703 2.68555l-2.92969 7.27539c-1.70898 4.15039-0.830078 7.08008 1.85547 9.81445l11.4746 11.5723c2.44141 2.44141 4.49219 2.53906 7.32422 2.05078l5.32227-0.976562 3.32031 3.36914-0.195312 2.7832c-0.195312 2.49023 0.439453 4.39453 2.88086 6.78711l3.80859 3.71094c2.39258 2.39258 5.46875 2.53906 7.8125 0.195312l14.5508-14.5996c2.34375-2.34375 2.24609-5.32227-0.146484-7.71484l-3.85742-3.80859c-2.39258-2.39258-4.24805-3.17383-6.64062-2.97852l-2.88086 0.244141-3.22266-3.17383 1.2207-5.61523c0.634766-2.83203-0.146484-5.0293-3.07617-7.95898l-10.9863-10.9375c-16.6992-16.6016-38.8672-16.2109-53.3203-1.75781Zm7.4707 1.85547c12.1582-8.88672 28.6133-7.37305 39.7461 3.75977l12.1582 12.0605c1.17188 1.17188 1.36719 2.09961 1.02539 3.80859l-1.61133 7.42188 7.51953 7.42188 4.93164-0.292969c1.26953-0.0488281 1.66016 0.0488281 2.63672 1.02539l2.88086 2.88086-12.207 12.207-2.88086-2.88086c-0.976562-0.976562-1.12305-1.36719-1.07422-2.68555l0.341797-4.88281-7.4707-7.42188-7.61719 1.26953c-1.61133 0.341797-2.34375 0.195312-3.56445-0.976562l-10.0098-10.0098c-1.26953-1.17188-1.41602-2.00195-0.634766-3.85742l4.39453-10.4492c-7.8125-7.27539-17.9688-10.4004-28.125-7.42188-0.78125 0.195312-1.07422-0.439453-0.439453-0.976562Z"/>
  </g>
  <text style="stroke:none;fill:black;font-family:sans-serif;font-size:13;font-weight:bold;" transform="matrix(1 0 0 1 1289 1953)">Exporting</text>
  <text style="stroke:none;fill:black;font-family:sans-serif;font-size:13;" transform="matrix(1 0 0 1 1289 1971)">Symbols should be outlined when exporting to ensure the</text>
  <text style="stroke:none;fill:black;font-family:sans-serif;font-size:13;" transform="matrix(1 0 0 1 1289 1989)">design is preserved when submitting to Xcode.</text>
  <text id="template-version" style="stroke:none;fill:black;font-family:sans-serif;font-size:13;text-anchor:end;" transform="matrix(1 0 0 1 3036 1933)">Template v.2.0</text>
  <text style="stroke:none;fill:black;font-family:sans-serif;font-size:13;text-anchor:end;" transform="matrix(1 0 0 1 3036 1951)">Requires Xcode 12 or greater</text>
  <text id="descriptive-name" style="stroke:none;fill:black;font-family:sans-serif;font-size:13;text-anchor:end;" transform="matrix(1 0 0 1 3036 1969)">Generated from notch</text>
  <text style="stroke:none;fill:black;font-family:sans-serif;font-size:13;text-anchor:end;" transform="matrix(1 0 0 1 3036 1987)">Typeset at 100.0 points</text>
  <text style="stroke:none;fill:black;font-family:sans-serif;font-size:13;" transform="matrix(1 0 0 1 263 726)">Small</text>
  <text style="stroke:none;fill:black;font-family:sans-serif;font-size:13;" transform="matrix(1 0 0 1 263 1156)">Medium</text>
  <text style="stroke:none;fill:black;font-family:sans-serif;font-size:13;" transform="matrix(1 0 0 1 263 1586)">Large</text>
 </g>
 <g id="Guides">
  <g id="H-reference" style="fill:#27AAE1;stroke:none;" transform="matrix(1 0 0 1 339 696)">
   <path d="M0.993654 0L3.63775 0L29.3281-67.1323L30.0303-67.1323L30.0303-70.459L28.1226-70.459ZM11.6885-24.4799L46.9815-24.4799L46.2315-26.7285L12.4385-26.7285ZM55.1196 0L57.7637 0L30.6382-70.459L29.4326-70.459L29.4326-67.1323Z"/>
  </g>
  <line id="Baseline-S" style="fill:none;stroke:#27AAE1;opacity:1;stroke-width:0.5;" x1="263" x2="3036" y1="696" y2="696"/>
  <line id="Capline-S" style="fill:none;stroke:#27AAE1;opacity:1;stroke-width:0.5;" x1="263" x2="3036" y1="625.541" y2="625.541"/>
  <g id="H-reference" style="fill:#27AAE1;stroke:none;" transform="matrix(1 0 0 1 339 1126)">
   <path d="M0.993654 0L3.63775 0L29.3281-67.1323L30.0303-67.1323L30.0303-70.459L28.1226-70.459ZM11.6885-24.4799L46.9815-24.4799L46.2315-26.7285L12.4385-26.7285ZM55.1196 0L57.7637 0L30.6382-70.459L29.4326-70.459L29.4326-67.1323Z"/>
  </g>
  <line id="Baseline-M" style="fill:none;stroke:#27AAE1;opacity:1;stroke-width:0.5;" x1="263" x2="3036" y1="1126" y2="1126"/>
  <line id="Capline-M" style="fill:none;stroke:#27AAE1;opacity:1;stroke-width:0.5;" x1="263" x2="3036" y1="1055.54" y2="1055.54"/>
  <g id="H-reference" style="fill:#27AAE1;stroke:none;" transform="matrix(1 0 0 1 339 1556)">
   <path d="M0.993654 0L3.63775 0L29.3281-67.1323L30.0303-67.1323L30.0303-70.459L28.1226-70.459ZM11.6885-24.4799L46.9815-24.4799L46.2315-26.7285L12.4385-26.7285ZM55.1196 0L57.7637 0L30.6382-70.459L29.4326-70.459L29.4326-67.1323Z"/>
  </g>
  <line id="Baseline-L" style="fill:none;stroke:#27AAE1;opacity:1;stroke-width:0.5;" x1="263" x2="3036" y1="1556" y2="1556"/>
  <line id="Capline-L" style="fill:none;stroke:#27AAE1;opacity:1;stroke-width:0.5;" x1="263" x2="3036" y1="1485.54" y2="1485.54"/>
  <line id="left-margin" style="fill:none;stroke:#00AEEF;stroke-width:0.5;opacity:1.0;" x1="1367" x2="1367" y1="1030.79" y2="1150.12"/>
  <line id="right-margin" style="fill:none;stroke:#00AEEF;stroke-width:0.5;opacity:1.0;" x1="1532.69" x2="1532.69" y1="1030.79" y2="1150.12"/>
 </g>
 <g id="Symbols">
  <g id="Black-L" transform="matrix(1 0 0 1 2817.97 1556)">
   <path d="M138.827-54.5362L153.374-54.5362C162.99-54.5362 170.785-46.7294 170.785-37.0992L170.785-5.6003L191.817-5.6003L191.817-44.974C191.817-60.8171 178.993-73.6605 163.174-73.6605L67.6975-73.6605C51.8783-73.6605 39.0544-60.8171 39.0544-44.974L39.0544-5.6003L59.8347-5.6003L59.8347-37.0992C59.8347-46.7294 67.6296-54.5362 77.2451-54.5362L92.2109-54.5362L92.2109-48.0166C92.2109-43.7638 95.6585-40.3163 99.9112-40.3163L131.127-40.3163C135.38-40.3163 138.827-43.7638 138.827-48.0166L138.827-54.5362Z"/>
  </g>
  <g id="Heavy-L" transform="matrix(1 0 0 1 2523.44 1556)">
   <path d="M136.154-55.6161L150.383-55.6161C159.788-55.6161 167.413-47.98 167.413-38.5604L167.413-7.75007L187.986-7.75007L187.986-46.263C187.986-61.7598 175.442-74.3224 159.969-74.3224L66.5792-74.3224C51.1059-74.3224 38.5624-61.7598 38.5624-46.263L38.5624-7.75007L58.8883-7.75007L58.8883-38.5604C58.8883-47.98 66.5129-55.6161 75.9182-55.6161L90.5568-55.6161L90.5568-49.239C90.5568-45.0793 93.929-41.7071 98.0887-41.7071L128.622-41.7071C132.782-41.7071 136.154-45.0793 136.154-49.239L136.154-55.6161Z"/>
  </g>
  <g id="Bold-L" transform="matrix(1 0 0 1 2229.48 1556)">
   <path d="M132.786-56.9281L146.626-56.9281C155.773-56.9281 163.189-49.5013 163.189-40.3398L163.189-10.3739L183.197-10.3739L183.197-47.8313C183.197-62.9034 170.998-75.1217 155.948-75.1217L65.1183-75.1217C50.0691-75.1217 37.8693-62.9034 37.8693-47.8313L37.8693-10.3739L57.6382-10.3739L57.6382-40.3398C57.6382-49.5013 65.0538-56.9281 74.2013-56.9281L88.4388-56.9281L88.4388-50.7258C88.4388-46.68 91.7185-43.4003 95.7643-43.4003L125.461-43.4003C129.507-43.4003 132.786-46.68 132.786-50.7258L132.786-56.9281Z"/>
  </g>
  <g id="Semibold-L" transform="matrix(1 0 0 1 1934.66 1556)">
   <path d="M130.465-57.8326L144.035-57.8326C153.005-57.8326 160.276-50.55 160.276-41.5665L160.276-12.1827L179.897-12.1827L179.897-48.9125C179.897-63.6918 167.934-75.6727 153.177-75.6727L64.1112-75.6727C49.3543-75.6727 37.3915-63.6918 37.3915-48.9125L37.3915-12.1827L56.7764-12.1827L56.7764-41.5665C56.7764-50.55 64.0479-57.8326 73.0178-57.8326L86.9786-57.8326L86.9786-51.7508C86.9786-47.7836 90.1946-44.5676 94.1618-44.5676L123.281-44.5676C127.249-44.5676 130.465-47.7836 130.465-51.7508L130.465-57.8326Z"/>
  </g>
  <g id="Medium-L" transform="matrix(1 0 0 1 1639.39 1556)">
   <path d="M128.704-58.5184L142.071-58.5184C150.906-58.5184 158.068-51.3452 158.068-42.4967L158.068-13.5542L177.394-13.5542L177.394-49.7323C177.394-64.2896 165.611-76.0906 151.075-76.0906L63.3475-76.0906C48.8123-76.0906 37.0292-64.2896 37.0292-49.7323L37.0292-13.5542L56.1229-13.5542L56.1229-42.4967C56.1229-51.3452 63.2852-58.5184 72.1203-58.5184L85.8715-58.5184L85.8715-52.5279C85.8715-48.6204 89.0392-45.4526 92.9467-45.4526L121.629-45.4526C125.537-45.4526 128.704-48.6204 128.704-52.5279L128.704-58.5184Z"/>
  </g>
  <g id="Regular-L" transform="matrix(1 0 0 1 1344.55 1556)">
   <path d="M126.408-59.4129L139.509-59.4129C148.168-59.4129 155.188-52.3824 155.188-43.7099L155.188-15.3432L174.129-15.3432L174.129-50.8016C174.129-65.0693 162.58-76.6356 148.334-76.6356L62.3515-76.6356C48.1054-76.6356 36.5567-65.0693 36.5567-50.8016L36.5567-15.3432L55.2705-15.3432L55.2705-43.7099C55.2705-52.3824 62.2904-59.4129 70.9497-59.4129L84.4273-59.4129L84.4273-53.5416C84.4273-49.7118 87.532-46.6071 91.3619-46.6071L119.474-46.6071C123.303-46.6071 126.408-49.7118 126.408-53.5416L126.408-59.4129Z"/>
  </g>
  <g id="Light-L" transform="matrix(1 0 0 1 1050.07 1556)">
   <path d="M123.718-60.1538L136.575-60.1538C145.073-60.1538 151.962-53.2542 151.962-44.7432L151.962-16.9045L170.551-16.9045L170.551-51.7028C170.551-65.7049 159.217-77.0559 145.236-77.0559L60.854-77.0559C46.8731-77.0559 35.5394-65.7049 35.5394-51.7028L35.5394-16.9045L53.9049-16.9045L53.9049-44.7432C53.9049-53.2542 60.794-60.1538 69.2922-60.1538L82.5189-60.1538L82.5189-54.3918C82.5189-50.6333 85.5658-47.5864 89.3243-47.5864L116.913-47.5864C120.671-47.5864 123.718-50.6333 123.718-54.3918L123.718-60.1538Z"/>
  </g>
  <g id="Thin-L" transform="matrix(1 0 0 1 756.318 1556)">
   <path d="M120.16-61.1338L132.695-61.1338C140.979-61.1338 147.696-54.4073 147.696-46.1097L147.696-18.9696L165.818-18.9696L165.818-52.8948C165.818-66.5456 154.768-77.6117 141.138-77.6117L58.8734-77.6117C45.2433-77.6117 34.194-66.5456 34.194-52.8948L34.194-18.9696L52.0987-18.9696L52.0987-46.1097C52.0987-54.4073 58.8149-61.1338 67.0999-61.1338L79.9948-61.1338L79.9948-55.5163C79.9948-51.8521 82.9652-48.8816 86.6295-48.8816L113.526-48.8816C117.19-48.8816 120.16-51.8521 120.16-55.5163L120.16-61.1338Z"/>
  </g>
  <g id="Ultralight-L" transform="matrix(1 0 0 1 461.12 1556)">
   <path d="M118.338-61.6357L130.707-61.6357C138.883-61.6357 145.511-54.9979 145.511-46.8097L145.511-20.0273L163.394-20.0273L163.394-53.5053C163.394-66.9761 152.49-77.8964 139.04-77.8964L57.859-77.8964C44.4086-77.8964 33.5048-66.9761 33.5048-53.5053L33.5048-20.0273L51.1735-20.0273L51.1735-46.8097C51.1735-54.9979 57.8013-61.6357 65.977-61.6357L78.7019-61.6357L78.7019-56.0923C78.7019-52.4764 81.6332-49.5451 85.2492-49.5451L111.791-49.5451C115.407-49.5451 118.338-52.4764 118.338-56.0923L118.338-61.6357Z"/>
  </g>
  <g id="Black-M" transform="matrix(1 0 0 1 2842.4 1126)">
   <path d="M109.488-49.3594L120.999-49.3594C128.607-49.3594 134.775-43.1823 134.775-35.5623L134.775-10.6385L151.417-10.6385L151.417-41.7933C151.417-54.3293 141.27-64.4918 128.753-64.4918L53.2062-64.4918C40.6892-64.4918 30.5421-54.3293 30.5421-41.7933L30.5421-10.6385L46.9847-10.6385L46.9847-35.5623C46.9847-43.1823 53.1525-49.3594 60.7609-49.3594L72.6027-49.3594L72.6027-44.2007C72.6027-40.8357 75.3306-38.1079 78.6956-38.1079L103.395-38.1079C106.76-38.1079 109.488-40.8357 109.488-44.2007L109.488-49.3594Z"/>
  </g>
  <g id="Heavy-M" transform="matrix(1 0 0 1 2547.62 1126)">
   <path d="M107.123-50.3468L118.345-50.3468C125.763-50.3468 131.776-44.3244 131.776-36.8954L131.776-12.596L148.002-12.596L148.002-42.9702C148.002-55.1921 138.109-65.1 125.905-65.1L52.2512-65.1C40.0478-65.1 30.155-55.1921 30.155-42.9702L30.155-12.596L46.1856-12.596L46.1856-36.8954C46.1856-44.3244 52.1989-50.3468 59.6166-50.3468L71.1618-50.3468L71.1618-45.3174C71.1618-42.0367 73.8213-39.3771 77.102-39.3771L101.183-39.3771C104.464-39.3771 107.123-42.0367 107.123-45.3174L107.123-50.3468Z"/>
  </g>
  <g id="Bold-M" transform="matrix(1 0 0 1 2253.06 1126)">
   <path d="M104.477-51.4513L115.377-51.4513C122.582-51.4513 128.422-45.602 128.422-38.3866L128.422-14.7857L144.181-14.7857L144.181-44.2868C144.181-56.1574 134.572-65.7804 122.72-65.7804L51.1829-65.7804C39.3303-65.7804 29.7219-56.1574 29.7219-44.2868L29.7219-14.7857L45.2917-14.7857L45.2917-38.3866C45.2917-45.602 51.1321-51.4513 58.3366-51.4513L69.5498-51.4513L69.5498-46.5665C69.5498-43.3801 72.1329-40.797 75.3193-40.797L98.708-40.797C101.894-40.797 104.477-43.3801 104.477-46.5665L104.477-51.4513Z"/>
  </g>
  <g id="Semibold-M" transform="matrix(1 0 0 1 1957.83 1126)">
   <path d="M102.653-52.2128L113.331-52.2128C120.388-52.2128 126.109-46.4828 126.109-39.4146L126.109-16.2953L141.547-16.2953L141.547-45.1944C141.547-56.8228 132.134-66.2494 120.523-66.2494L50.4464-66.2494C38.8357-66.2494 29.4233-56.8228 29.4233-45.1944L29.4233-16.2953L44.6754-16.2953L44.6754-39.4146C44.6754-46.4828 50.3966-52.2128 57.4541-52.2128L68.4386-52.2128L68.4386-47.4276C68.4386-44.3062 70.969-41.7758 74.0903-41.7758L97.0018-41.7758C100.123-41.7758 102.653-44.3062 102.653-47.4276L102.653-52.2128Z"/>
  </g>
  <g id="Medium-M" transform="matrix(1 0 0 1 1662.24 1126)">
   <path d="M101.271-52.7901L111.779-52.7901C118.725-52.7901 124.356-47.1507 124.356-40.1941L124.356-17.44L139.549-17.44L139.549-45.8826C139.549-57.3273 130.286-66.6051 118.858-66.6051L49.888-66.6051C38.4607-66.6051 29.197-57.3273 29.197-45.8826L29.197-17.44L44.2081-17.44L44.2081-40.1941C44.2081-47.1507 49.839-52.7901 56.785-52.7901L67.596-52.7901L67.596-48.0805C67.596-45.0084 70.0864-42.518 73.1585-42.518L95.708-42.518C98.7801-42.518 101.271-45.0084 101.271-48.0805L101.271-52.7901Z"/>
  </g>
  <g id="Regular-M" transform="matrix(1 0 0 1 1367 1126)">
   <path d="M99.4666-53.5432L109.755-53.5432C116.556-53.5432 122.069-48.0218 122.069-41.2108L122.069-18.933L136.944-18.933L136.944-46.7803C136.944-57.9854 127.874-67.069 116.686-67.069L49.1596-67.069C37.9715-67.069 28.9017-57.9854 28.9017-46.7803L28.9017-18.933L43.5986-18.933L43.5986-41.2108C43.5986-48.0218 49.1116-53.5432 55.9123-53.5432L66.497-53.5432L66.497-48.9322C66.497-45.9244 68.9352-43.4861 71.943-43.4861L94.0206-43.4861C97.0283-43.4861 99.4666-45.9244 99.4666-48.9322L99.4666-53.5432Z"/>
  </g>
  <g id="Light-M" transform="matrix(1 0 0 1 1072.29 1126)">
   <path d="M97.0549-54.2075L107.125-54.2075C113.781-54.2075 119.177-48.8034 119.177-42.1372L119.177-20.3328L133.736-20.3328L133.736-47.5883C133.736-58.5553 124.859-67.4458 113.909-67.4458L47.8171-67.4458C36.8667-67.4458 27.9896-58.5553 27.9896-47.5883L27.9896-20.3328L42.3742-20.3328L42.3742-42.1372C42.3742-48.8034 47.7701-54.2075 54.4262-54.2075L64.7859-54.2075L64.7859-49.6944C64.7859-46.7506 67.1724-44.3641 70.1162-44.3641L91.7246-44.3641C94.6684-44.3641 97.0549-46.7506 97.0549-49.6944L97.0549-54.2075Z"/>
  </g>
  <g id="Thin-M" transform="matrix(1 0 0 1 778.226 1126)">
   <path d="M93.8651-55.086L103.646-55.086C110.111-55.086 115.352-49.8372 115.352-43.3624L115.352-22.1842L129.493-22.1842L129.493-48.6569C129.493-59.309 120.871-67.9442 110.235-67.9442L46.0414-67.9442C35.4055-67.9442 26.7834-59.309 26.7834-48.6569L26.7834-22.1842L40.7549-22.1842L40.7549-43.3624C40.7549-49.8372 45.9958-55.086 52.4607-55.086L62.5229-55.086L62.5229-50.7026C62.5229-47.8433 64.8408-45.5254 67.7001-45.5254L88.6879-45.5254C91.5472-45.5254 93.8651-47.8433 93.8651-50.7026L93.8651-55.086Z"/>
  </g>
  <g id="Ultralight-M" transform="matrix(1 0 0 1 482.872 1126)">
   <path d="M92.2314-55.536L101.864-55.536C108.231-55.536 113.393-50.3667 113.393-43.9899L113.393-23.1325L127.319-23.1325L127.319-49.2043C127.319-59.695 118.828-68.1994 108.353-68.1994L45.1319-68.1994C34.6571-68.1994 26.1656-59.695 26.1656-49.2043L26.1656-23.1325L39.9255-23.1325L39.9255-43.9899C39.9255-50.3667 45.087-55.536 51.454-55.536L61.3638-55.536L61.3638-51.219C61.3638-48.403 63.6466-46.1202 66.4626-46.1202L87.1326-46.1202C89.9486-46.1202 92.2314-48.403 92.2314-51.219L92.2314-55.536Z"/>
  </g>
  <g id="Black-S" transform="matrix(1 0 0 1 2861.62 696)">
   <path d="M86.3819-46.0427L95.4773-46.0427C101.489-46.0427 106.363-41.1616 106.363-35.1405L106.363-15.4461L119.513-15.4461L119.513-40.0641C119.513-49.9698 111.495-58 101.605-58L41.9088-58C32.018-58 24-49.9698 24-40.0641L24-15.4461L36.9926-15.4461L36.9926-35.1405C36.9926-41.1616 41.8663-46.0427 47.8783-46.0427L57.2355-46.0427L57.2355-41.9664C57.2355-39.3074 59.3911-37.1519 62.05-37.1519L81.5674-37.1519C84.2263-37.1519 86.3819-39.3074 86.3819-41.9664L86.3819-46.0427Z"/>
  </g>
  <g id="Heavy-S" transform="matrix(1 0 0 1 2566.3 696)">
   <path d="M84.6673-46.8023L93.5441-46.8023C99.4115-46.8023 104.168-42.0385 104.168-36.1622L104.168-16.9414L117.002-16.9414L117.002-40.9674C117.002-50.6349 109.177-58.472 99.524-58.472L41.2636-58.472C31.6107-58.472 23.7854-50.6349 23.7854-40.9674L23.7854-16.9414L36.4657-16.9414L36.4657-36.1622C36.4657-42.0385 41.2222-46.8023 47.0896-46.8023L56.2218-46.8023L56.2218-42.824C56.2218-40.2289 58.3255-38.1253 60.9205-38.1253L79.9686-38.1253C82.5636-38.1253 84.6673-40.2289 84.6673-42.824L84.6673-46.8023Z"/>
  </g>
  <g id="Bold-S" transform="matrix(1 0 0 1 2271.14 696)">
   <path d="M82.7496-47.6518L91.3818-47.6518C97.0875-47.6518 101.713-43.0193 101.713-37.3049L101.713-18.6138L114.193-18.6138L114.193-41.9777C114.193-51.3789 106.584-59 97.1969-59L40.542-59C31.1551-59 23.5455-51.3789 23.5455-41.9777L23.5455-18.6138L35.8763-18.6138L35.8763-37.3049C35.8763-43.0193 40.5017-47.6518 46.2075-47.6518L55.088-47.6518L55.088-43.7831C55.088-41.2596 57.1337-39.2139 59.6572-39.2139L78.1804-39.2139C80.7039-39.2139 82.7496-41.2596 82.7496-43.7831L82.7496-47.6518Z"/>
  </g>
  <g id="Semibold-S" transform="matrix(1 0 0 1 1975.5 696)">
   <path d="M81.4275-48.2375L89.891-48.2375C95.4853-48.2375 100.02-43.6956 100.02-38.0928L100.02-19.7668L112.257-19.7668L112.257-42.6743C112.257-51.8918 104.796-59.364 95.5925-59.364L40.0444-59.364C30.8409-59.364 23.38-51.8918 23.38-42.6743L23.38-19.7668L35.4699-19.7668L35.4699-38.0928C35.4699-43.6956 40.005-48.2375 45.5993-48.2375L54.3063-48.2375L54.3063-44.4444C54.3063-41.9702 56.312-39.9645 58.7863-39.9645L76.9475-39.9645C79.4217-39.9645 81.4275-41.9702 81.4275-44.4444L81.4275-48.2375Z"/>
  </g>
  <g id="Medium-S" transform="matrix(1 0 0 1 1679.6 696)">
   <path d="M80.425-48.6816L88.7606-48.6816C94.2704-48.6816 98.7369-44.2083 98.7369-38.6902L98.7369-20.6411L110.789-20.6411L110.789-43.2024C110.789-52.2807 103.44-59.64 94.376-59.64L39.6672-59.64C30.6028-59.64 23.2546-52.2807 23.2546-43.2024L23.2546-20.6411L35.1618-20.6411L35.1618-38.6902C35.1618-44.2083 39.6283-48.6816 45.1381-48.6816L53.7136-48.6816L53.7136-44.9459C53.7136-42.509 55.689-40.5336 58.1259-40.5336L76.0127-40.5336C78.4495-40.5336 80.425-42.509 80.425-44.9459L80.425-48.6816Z"/>
  </g>
  <g id="Regular-S" transform="matrix(1 0 0 1 1383.95 696)">
   <path d="M79.1174-49.2609L87.2862-49.2609C92.6857-49.2609 97.0629-44.8771 97.0629-39.4694L97.0629-21.7815L108.873-21.7815L108.873-43.8914C108.873-52.7879 101.672-60 92.7892-60L39.1752-60C30.2921-60 23.091-52.7879 23.091-43.8914L23.091-21.7815L34.7599-21.7815L34.7599-39.4694C34.7599-44.8771 39.1371-49.2609 44.5366-49.2609L52.9405-49.2609L52.9405-45.5999C52.9405-43.2118 54.8764-41.2759 57.2645-41.2759L74.7934-41.2759C77.1814-41.2759 79.1174-43.2118 79.1174-45.5999L79.1174-49.2609Z"/>
  </g>
  <g id="Light-S" transform="matrix(1 0 0 1 1089.01 696)">
   <path d="M76.9839-49.8485L84.9593-49.8485C90.2309-49.8485 94.5045-45.5685 94.5045-40.2889L94.5045-23.0198L106.035-23.0198L106.035-44.6061C106.035-53.292 99.0047-60.3333 90.332-60.3333L37.9875-60.3333C29.3148-60.3333 22.2841-53.292 22.2841-44.6061L22.2841-23.0198L33.6768-23.0198L33.6768-40.2889C33.6768-45.5685 37.9503-49.8485 43.2219-49.8485L51.4268-49.8485L51.4268-46.2742C51.4268-43.9427 53.3169-42.0526 55.6484-42.0526L72.7623-42.0526C75.0938-42.0526 76.9839-43.9427 76.9839-46.2742L76.9839-49.8485Z"/>
  </g>
  <g id="Thin-S" transform="matrix(1 0 0 1 794.642 696)">
   <path d="M74.1622-50.6257L81.8818-50.6257C86.9843-50.6257 91.1208-46.483 91.1208-41.3727L91.1208-24.6576L102.282-24.6576L102.282-45.5515C102.282-53.9588 95.4767-60.7742 87.0821-60.7742L36.4167-60.7742C28.0222-60.7742 21.2171-53.9588 21.2171-45.5515L21.2171-24.6576L32.2443-24.6576L32.2443-41.3727C32.2443-46.483 36.3807-50.6257 41.4833-50.6257L49.425-50.6257L49.425-47.1661C49.425-44.9093 51.2544-43.0799 53.5111-43.0799L70.076-43.0799C72.3328-43.0799 74.1622-44.9093 74.1622-47.1661L74.1622-50.6257Z"/>
  </g>
  <g id="Ultralight-S" transform="matrix(1 0 0 1 499.131 696)">
   <path d="M72.717-51.0238L80.3055-51.0238C85.3214-51.0238 89.3877-46.9514 89.3877-41.9278L89.3877-25.4964L100.359-25.4964L100.359-46.0357C100.359-54.3002 93.6696-61 85.4176-61L35.6122-61C27.3601-61 20.6705-54.3002 20.6705-46.0357L20.6705-25.4964L31.5105-25.4964L31.5105-41.9278C31.5105-46.9514 35.5768-51.0238 40.5927-51.0238L48.3996-51.0238L48.3996-47.6228C48.3996-45.4044 50.198-43.606 52.4164-43.606L68.7001-43.606C70.9186-43.606 72.717-45.4044 72.717-47.6228L72.717-51.0238Z"/>
  </g>
 </g>
</svg>
