<?xml version="1.0" encoding="UTF-8"?>
<!--Generator: Apple Native CoreSVG 232.5-->
<!DOCTYPE svg
PUBLIC "-//W3C//DTD SVG 1.1//EN"
       "http://www.w3.org/Graphics/SVG/1.1/DTD/svg11.dtd">
<svg version="1.1" xmlns="http://www.w3.org/2000/svg" xmlns:xlink="http://www.w3.org/1999/xlink" width="3300" height="2200">
 <g id="Notes">
  <rect height="2200" id="artboard" style="fill:white;opacity:1" width="3300" x="0" y="0"/>
  <line style="fill:none;stroke:black;opacity:1;stroke-width:0.5;" x1="263" x2="3036" y1="292" y2="292"/>
  <text style="stroke:none;fill:black;font-family:sans-serif;font-size:13;font-weight:bold;" transform="matrix(1 0 0 1 263 322)">Weight/Scale Variations</text>
  <text style="stroke:none;fill:black;font-family:sans-serif;font-size:13;text-anchor:middle;" transform="matrix(1 0 0 1 559.711 322)">Ultralight</text>
  <text style="stroke:none;fill:black;font-family:sans-serif;font-size:13;text-anchor:middle;" transform="matrix(1 0 0 1 856.422 322)">Thin</text>
  <text style="stroke:none;fill:black;font-family:sans-serif;font-size:13;text-anchor:middle;" transform="matrix(1 0 0 1 1153.13 322)">Light</text>
  <text style="stroke:none;fill:black;font-family:sans-serif;font-size:13;text-anchor:middle;" transform="matrix(1 0 0 1 1449.84 322)">Regular</text>
  <text style="stroke:none;fill:black;font-family:sans-serif;font-size:13;text-anchor:middle;" transform="matrix(1 0 0 1 1746.56 322)">Medium</text>
  <text style="stroke:none;fill:black;font-family:sans-serif;font-size:13;text-anchor:middle;" transform="matrix(1 0 0 1 2043.27 322)">Semibold</text>
  <text style="stroke:none;fill:black;font-family:sans-serif;font-size:13;text-anchor:middle;" transform="matrix(1 0 0 1 2339.98 322)">Bold</text>
  <text style="stroke:none;fill:black;font-family:sans-serif;font-size:13;text-anchor:middle;" transform="matrix(1 0 0 1 2636.69 322)">Heavy</text>
  <text style="stroke:none;fill:black;font-family:sans-serif;font-size:13;text-anchor:middle;" transform="matrix(1 0 0 1 2933.4 322)">Black</text>
  <line style="fill:none;stroke:black;opacity:1;stroke-width:0.5;" x1="263" x2="3036" y1="1903" y2="1903"/>
  <g transform="matrix(0.2 0 0 0.2 263 1933)">
   <path d="m46.2402 4.15039c21.5332 0 39.4531-17.8711 39.4531-39.4043s-17.9688-39.4043-39.502-39.4043c-21.4844 0-39.3555 17.8711-39.3555 39.4043s17.9199 39.4043 39.4043 39.4043Zm0-7.42188c-17.7246 0-31.8848-14.209-31.8848-31.9824s14.1113-31.9824 31.8359-31.9824c17.7734 0 32.0312 14.209 32.0312 31.9824s-14.209 31.9824-31.9824 31.9824Zm-17.9688-31.9824c0 2.14844 1.51367 3.61328 3.75977 3.61328h10.498v10.5957c0 2.19727 1.46484 3.71094 3.61328 3.71094 2.24609 0 3.71094-1.51367 3.71094-3.71094v-10.5957h10.5957c2.19727 0 3.71094-1.46484 3.71094-3.61328 0-2.19727-1.51367-3.71094-3.71094-3.71094h-10.5957v-10.5469c0-2.24609-1.46484-3.75977-3.71094-3.75977-2.14844 0-3.61328 1.51367-3.61328 3.75977v10.5469h-10.498c-2.24609 0-3.75977 1.51367-3.75977 3.71094Z"/>
  </g>
  <g transform="matrix(0.2 0 0 0.2 281.506 1933)">
   <path d="m58.5449 14.5508c27.2461 0 49.8047-22.6074 49.8047-49.8047 0-27.2461-22.6074-49.8047-49.8535-49.8047-27.1973 0-49.7559 22.5586-49.7559 49.8047 0 27.1973 22.6074 49.8047 49.8047 49.8047Zm0-8.30078c-23.0469 0-41.4551-18.457-41.4551-41.5039s18.3594-41.5039 41.4062-41.5039 41.5527 18.457 41.5527 41.5039-18.457 41.5039-41.5039 41.5039Zm-22.6562-41.5039c0 2.39258 1.66016 4.00391 4.15039 4.00391h14.3555v14.4043c0 2.44141 1.66016 4.15039 4.05273 4.15039 2.44141 0 4.15039-1.66016 4.15039-4.15039v-14.4043h14.4043c2.44141 0 4.15039-1.61133 4.15039-4.00391 0-2.44141-1.70898-4.15039-4.15039-4.15039h-14.4043v-14.3555c0-2.49023-1.70898-4.19922-4.15039-4.19922-2.39258 0-4.05273 1.70898-4.05273 4.19922v14.3555h-14.3555c-2.49023 0-4.15039 1.70898-4.15039 4.15039Z"/>
  </g>
  <g transform="matrix(0.2 0 0 0.2 304.924 1933)">
   <path d="m74.8535 28.3203c34.8145 0 63.623-28.8086 63.623-63.5742 0-34.8145-28.8574-63.623-63.6719-63.623-34.7656 0-63.5254 28.8086-63.5254 63.623 0 34.7656 28.8086 63.5742 63.5742 63.5742Zm0-9.08203c-30.1758 0-54.4434-24.3164-54.4434-54.4922 0-30.2246 24.2188-54.4922 54.3945-54.4922 30.2246 0 54.541 24.2676 54.541 54.4922 0 30.1758-24.2676 54.4922-54.4922 54.4922Zm-28.8574-54.4922c0 2.58789 1.85547 4.39453 4.58984 4.39453h19.7266v19.7754c0 2.68555 1.85547 4.58984 4.44336 4.58984 2.68555 0 4.54102-1.85547 4.54102-4.58984v-19.7754h19.7754c2.68555 0 4.58984-1.80664 4.58984-4.39453 0-2.73438-1.85547-4.58984-4.58984-4.58984h-19.7754v-19.7266c0-2.73438-1.85547-4.63867-4.54102-4.63867-2.58789 0-4.44336 1.9043-4.44336 4.63867v19.7266h-19.7266c-2.73438 0-4.58984 1.85547-4.58984 4.58984Z"/>
  </g>
  <text style="stroke:none;fill:black;font-family:sans-serif;font-size:13;font-weight:bold;" transform="matrix(1 0 0 1 263 1953)">Design Variations</text>
  <text style="stroke:none;fill:black;font-family:sans-serif;font-size:13;" transform="matrix(1 0 0 1 263 1971)">Symbols are supported in up to nine weights and three scales.</text>
  <text style="stroke:none;fill:black;font-family:sans-serif;font-size:13;" transform="matrix(1 0 0 1 263 1989)">For optimal layout with text and other symbols, vertically align</text>
  <text style="stroke:none;fill:black;font-family:sans-serif;font-size:13;" transform="matrix(1 0 0 1 263 2007)">symbols with the adjacent text.</text>
  <line style="fill:none;stroke:#00AEEF;stroke-width:0.5;opacity:1.0;" x1="776" x2="776" y1="1919" y2="1933"/>
  <g transform="matrix(0.2 0 0 0.2 776 1933)">
   <path d="m16.5527 0.78125c2.58789 0 3.85742-0.976562 4.78516-3.71094l6.29883-17.2363h28.8086l6.29883 17.2363c0.927734 2.73438 2.19727 3.71094 4.73633 3.71094 2.58789 0 4.24805-1.5625 4.24805-4.00391 0-0.830078-0.146484-1.61133-0.537109-2.63672l-22.9004-60.9863c-1.12305-2.97852-3.125-4.49219-6.25-4.49219-3.02734 0-5.07812 1.46484-6.15234 4.44336l-22.9004 61.084c-0.390625 1.02539-0.537109 1.80664-0.537109 2.63672 0 2.44141 1.5625 3.95508 4.10156 3.95508Zm13.4766-28.3691 11.8652-32.8613h0.244141l11.8652 32.8613Z"/>
  </g>
  <line style="fill:none;stroke:#00AEEF;stroke-width:0.5;opacity:1.0;" x1="792.836" x2="792.836" y1="1919" y2="1933"/>
  <text style="stroke:none;fill:black;font-family:sans-serif;font-size:13;font-weight:bold;" transform="matrix(1 0 0 1 776 1953)">Margins</text>
  <text style="stroke:none;fill:black;font-family:sans-serif;font-size:13;" transform="matrix(1 0 0 1 776 1971)">Leading and trailing margins on the left and right side of each symbol</text>
  <text style="stroke:none;fill:black;font-family:sans-serif;font-size:13;" transform="matrix(1 0 0 1 776 1989)">can be adjusted by modifying the x-location of the margin guidelines.</text>
  <text style="stroke:none;fill:black;font-family:sans-serif;font-size:13;" transform="matrix(1 0 0 1 776 2007)">Modifications are automatically applied proportionally to all</text>
  <text style="stroke:none;fill:black;font-family:sans-serif;font-size:13;" transform="matrix(1 0 0 1 776 2025)">scales and weights.</text>
  <g transform="matrix(0.2 0 0 0.2 1289 1933)">
   <path d="m14.209 9.32617 8.49609 8.54492c4.29688 4.3457 9.22852 4.05273 13.8672-1.07422l53.4668-58.9355-4.83398-4.88281-53.0762 58.3984c-1.75781 2.00195-3.41797 2.49023-5.76172 0.146484l-5.85938-5.81055c-2.34375-2.29492-1.80664-4.00391 0.195312-5.81055l57.373-54.0039-4.88281-4.83398-57.959 54.4434c-4.93164 4.58984-5.32227 9.47266-1.02539 13.8184Zm32.0801-90.9668c-2.09961 2.05078-2.24609 4.93164-1.07422 6.88477 1.17188 1.80664 3.4668 2.97852 6.68945 2.14844 7.32422-1.70898 14.9414-2.00195 22.0703 2.68555l-2.92969 7.27539c-1.70898 4.15039-0.830078 7.08008 1.85547 9.81445l11.4746 11.5723c2.44141 2.44141 4.49219 2.53906 7.32422 2.05078l5.32227-0.976562 3.32031 3.36914-0.195312 2.7832c-0.195312 2.49023 0.439453 4.39453 2.88086 6.78711l3.80859 3.71094c2.39258 2.39258 5.46875 2.53906 7.8125 0.195312l14.5508-14.5996c2.34375-2.34375 2.24609-5.32227-0.146484-7.71484l-3.85742-3.80859c-2.39258-2.39258-4.24805-3.17383-6.64062-2.97852l-2.88086 0.244141-3.22266-3.17383 1.2207-5.61523c0.634766-2.83203-0.146484-5.0293-3.07617-7.95898l-10.9863-10.9375c-16.6992-16.6016-38.8672-16.2109-53.3203-1.75781Zm7.4707 1.85547c12.1582-8.88672 28.6133-7.37305 39.7461 3.75977l12.1582 12.0605c1.17188 1.17188 1.36719 2.09961 1.02539 3.80859l-1.61133 7.42188 7.51953 7.42188 4.93164-0.292969c1.26953-0.0488281 1.66016 0.0488281 2.63672 1.02539l2.88086 2.88086-12.207 12.207-2.88086-2.88086c-0.976562-0.976562-1.12305-1.36719-1.07422-2.68555l0.341797-4.88281-7.4707-7.42188-7.61719 1.26953c-1.61133 0.341797-2.34375 0.195312-3.56445-0.976562l-10.0098-10.0098c-1.26953-1.17188-1.41602-2.00195-0.634766-3.85742l4.39453-10.4492c-7.8125-7.27539-17.9688-10.4004-28.125-7.42188-0.78125 0.195312-1.07422-0.439453-0.439453-0.976562Z"/>
  </g>
  <text style="stroke:none;fill:black;font-family:sans-serif;font-size:13;font-weight:bold;" transform="matrix(1 0 0 1 1289 1953)">Exporting</text>
  <text style="stroke:none;fill:black;font-family:sans-serif;font-size:13;" transform="matrix(1 0 0 1 1289 1971)">Symbols should be outlined when exporting to ensure the</text>
  <text style="stroke:none;fill:black;font-family:sans-serif;font-size:13;" transform="matrix(1 0 0 1 1289 1989)">design is preserved when submitting to Xcode.</text>
  <text id="template-version" style="stroke:none;fill:black;font-family:sans-serif;font-size:13;text-anchor:end;" transform="matrix(1 0 0 1 3036 1933)">Template v.2.0</text>
  <text style="stroke:none;fill:black;font-family:sans-serif;font-size:13;text-anchor:end;" transform="matrix(1 0 0 1 3036 1951)">Requires Xcode 12 or greater</text>
  <text id="descriptive-name" style="stroke:none;fill:black;font-family:sans-serif;font-size:13;text-anchor:end;" transform="matrix(1 0 0 1 3036 1969)">Generated from cable.connector.30.pin</text>
  <text style="stroke:none;fill:black;font-family:sans-serif;font-size:13;text-anchor:end;" transform="matrix(1 0 0 1 3036 1987)">Typeset at 100.0 points</text>
  <text style="stroke:none;fill:black;font-family:sans-serif;font-size:13;" transform="matrix(1 0 0 1 263 726)">Small</text>
  <text style="stroke:none;fill:black;font-family:sans-serif;font-size:13;" transform="matrix(1 0 0 1 263 1156)">Medium</text>
  <text style="stroke:none;fill:black;font-family:sans-serif;font-size:13;" transform="matrix(1 0 0 1 263 1586)">Large</text>
 </g>
 <g id="Guides">
  <g id="H-reference" style="fill:#27AAE1;stroke:none;" transform="matrix(1 0 0 1 339 696)">
   <path d="M0.993654 0L3.63775 0L29.3281-67.1323L30.0303-67.1323L30.0303-70.459L28.1226-70.459ZM11.6885-24.4799L46.9815-24.4799L46.2315-26.7285L12.4385-26.7285ZM55.1196 0L57.7637 0L30.6382-70.459L29.4326-70.459L29.4326-67.1323Z"/>
  </g>
  <line id="Baseline-S" style="fill:none;stroke:#27AAE1;opacity:1;stroke-width:0.5;" x1="263" x2="3036" y1="696" y2="696"/>
  <line id="Capline-S" style="fill:none;stroke:#27AAE1;opacity:1;stroke-width:0.5;" x1="263" x2="3036" y1="625.541" y2="625.541"/>
  <g id="H-reference" style="fill:#27AAE1;stroke:none;" transform="matrix(1 0 0 1 339 1126)">
   <path d="M0.993654 0L3.63775 0L29.3281-67.1323L30.0303-67.1323L30.0303-70.459L28.1226-70.459ZM11.6885-24.4799L46.9815-24.4799L46.2315-26.7285L12.4385-26.7285ZM55.1196 0L57.7637 0L30.6382-70.459L29.4326-70.459L29.4326-67.1323Z"/>
  </g>
  <line id="Baseline-M" style="fill:none;stroke:#27AAE1;opacity:1;stroke-width:0.5;" x1="263" x2="3036" y1="1126" y2="1126"/>
  <line id="Capline-M" style="fill:none;stroke:#27AAE1;opacity:1;stroke-width:0.5;" x1="263" x2="3036" y1="1055.54" y2="1055.54"/>
  <g id="H-reference" style="fill:#27AAE1;stroke:none;" transform="matrix(1 0 0 1 339 1556)">
   <path d="M0.993654 0L3.63775 0L29.3281-67.1323L30.0303-67.1323L30.0303-70.459L28.1226-70.459ZM11.6885-24.4799L46.9815-24.4799L46.2315-26.7285L12.4385-26.7285ZM55.1196 0L57.7637 0L30.6382-70.459L29.4326-70.459L29.4326-67.1323Z"/>
  </g>
  <line id="Baseline-L" style="fill:none;stroke:#27AAE1;opacity:1;stroke-width:0.5;" x1="263" x2="3036" y1="1556" y2="1556"/>
  <line id="Capline-L" style="fill:none;stroke:#27AAE1;opacity:1;stroke-width:0.5;" x1="263" x2="3036" y1="1485.54" y2="1485.54"/>
  <line id="left-margin" style="fill:none;stroke:#FF3B30;stroke-width:0.5;opacity:1.0;" x1="1421.45" x2="1421.45" y1="1030.79" y2="1150.12"/>
  <line id="right-margin" style="fill:none;stroke:#FF3B30;stroke-width:0.5;opacity:1.0;" x1="1478.24" x2="1478.24" y1="1030.79" y2="1150.12"/>
 </g>
 <g id="Symbols">
  <g id="Black-L" transform="matrix(1 0 0 1 2894.06 1556)">
   <path d="M-25.0953-79.5209L-25.0953-112.45L103.291-112.45L103.291-79.5209L104.172-79.5209C111.351-79.5209 117.17-73.7014 117.17-66.5227C117.17-59.344 111.351-53.5245 104.172-53.5245L-25.9767-53.5245C-33.1554-53.5245-38.9748-59.344-38.9748-66.5227C-38.9748-73.7014-33.1554-79.5209-25.9767-79.5209L-25.0953-79.5209ZM117.17-56.5643L117.17-6.34724C117.17 2.27642 110.179 9.26727 101.556 9.26727L-23.3603 9.26727C-31.984 9.26727-38.9748 2.27642-38.9748-6.34724L-38.9748-56.5643C-36.7284-52.6754-32.5256-50.0584-27.7116-50.0584L105.907-50.0584C110.721-50.0584 114.924-52.6754 117.17-56.5643L117.17-56.5643ZM27.5252 12.6673L49.7258 12.6673L49.7258 30.8721C49.7258 36.9955 44.7555 41.9605 38.6256 41.9605C32.4955 41.9605 27.5252 36.9955 27.5252 30.8721L27.5252 12.6673ZM-22.6008-109.486L-22.6008-101.418L100.796-101.418L100.796-109.486L-22.6008-109.486ZM-22.6008-99.4003L-22.6008-64.5954L100.796-64.5954L100.796-99.4003L-22.6008-99.4003ZM-21.0005-108.151L99.1959-108.151L99.1959-102.753L-21.0005-102.753L-21.0005-108.151ZM-25.0953-96.8518L-25.0953-89.5812L-32.0351-89.5812L-25.0953-96.8518ZM103.291-96.8518L110.23-89.5812L103.291-89.5812L103.291-96.8518ZM-9.48077-88.1864L-7.74583-88.1864L-7.74583-74.3216L-9.48077-74.3216L-9.48077-88.1864ZM-4.27594-88.1864L-2.54099-88.1864L-2.54099-74.3216L-4.27594-74.3216L-4.27594-88.1864ZM80.7364-88.1864L82.4713-88.1864L82.4713-74.3216L80.7364-74.3216L80.7364-88.1864ZM85.9412-88.1864L87.6762-88.1864L87.6762-74.3216L85.9412-74.3216L85.9412-88.1864Z"/>
  </g>
  <g id="Heavy-L" transform="matrix(1 0 0 1 2598.01 1556)">
   <path d="M-24.6727-78.8484L-24.6727-111.214L101.516-111.214L101.516-78.8484L102.383-78.8484C109.439-78.8484 115.159-73.1285 115.159-66.0726C115.159-59.0168 109.439-53.2969 102.383-53.2969L-25.539-53.2969C-32.5949-53.2969-38.3148-59.0168-38.3148-66.0726C-38.3148-73.1285-32.5949-78.8484-25.539-78.8484L-24.6727-78.8484ZM115.159-56.2846L115.159-6.92679C115.159 1.54931 108.287 8.42054 99.8112 8.42054L-22.9675 8.42054C-31.4436 8.42054-38.3148 1.54931-38.3148-6.92679L-38.3148-56.2846C-36.1068-52.4622-31.9759-49.89-27.2443-49.89L104.088-49.89C108.82-49.89 112.95-52.4622 115.159-56.2846L115.159-56.2846ZM27.0474 11.7624L48.8681 11.7624L48.8681 29.6557C48.8681 35.6744 43.9829 40.5544 37.9578 40.5544C31.9327 40.5544 27.0474 35.6744 27.0474 29.6557L27.0474 11.7624ZM-22.221-108.301L-22.221-100.371L99.0647-100.371L99.0647-108.301L-22.221-108.301ZM-22.221-98.3876L-22.221-64.1783L99.0647-64.1783L99.0647-98.3876L-22.221-98.3876ZM-20.6481-106.988L97.4918-106.988L97.4918-101.683L-20.6481-101.683L-20.6481-106.988ZM-24.6727-95.8828L-24.6727-88.7366L-31.4938-88.7366L-24.6727-95.8828ZM101.516-95.8828L108.337-88.7366L101.516-88.7366L101.516-95.8828ZM-9.3254-87.3656L-7.62014-87.3656L-7.62014-73.7381L-9.3254-73.7381L-9.3254-87.3656ZM-4.20962-87.3656L-2.50436-87.3656L-2.50436-73.7381L-4.20962-73.7381L-4.20962-87.3656ZM79.3481-87.3656L81.0533-87.3656L81.0533-73.7381L79.3481-73.7381L79.3481-87.3656ZM84.4639-87.3656L86.1691-87.3656L86.1691-73.7381L84.4639-73.7381L84.4639-87.3656Z"/>
  </g>
  <g id="Bold-L" transform="matrix(1 0 0 1 2302.1 1556)">
   <path d="M-24.0118-77.9569L-24.0118-109.595L99.3435-109.595L99.3435-77.9569L100.19-77.9569C107.088-77.9569 112.679-72.3654 112.679-65.468C112.679-58.5706 107.088-52.9792 100.19-52.9792L-24.8587-52.9792C-31.7561-52.9792-37.3475-58.5706-37.3475-65.468C-37.3475-72.3654-31.7561-77.9569-24.8587-77.9569L-24.0118-77.9569ZM112.679-55.8999L112.679-7.65045C112.679 0.635298 105.962 7.35222 97.6765 7.35222L-22.3448 7.35222C-30.6306 7.35222-37.3475 0.635298-37.3475-7.65045L-37.3475-55.8999C-35.1891-52.1633-31.151-49.6488-26.5256-49.6488L101.857-49.6488C106.483-49.6488 110.521-52.1633 112.679-55.8999L112.679-55.8999ZM26.5468 10.619L47.8775 10.619L47.8775 28.1105C47.8775 33.994 43.102 38.7644 37.2122 38.7644C31.3224 38.7644 26.5468 33.994 26.5468 28.1105L26.5468 10.619ZM-21.6151-106.748L-21.6151-98.9958L96.9468-98.9958L96.9468-106.748L-21.6151-106.748ZM-21.6151-97.0573L-21.6151-63.6163L96.9468-63.6163L96.9468-97.0573L-21.6151-97.0573ZM-20.0775-105.465L95.4092-105.465L95.4092-100.279L-20.0775-100.279L-20.0775-105.465ZM-24.0118-94.6087L-24.0118-87.623L-30.6797-87.623L-24.0118-94.6087ZM99.3435-94.6087L106.011-87.623L99.3435-87.623L99.3435-94.6087ZM-9.00914-86.2828L-7.34217-86.2828L-7.34217-72.9614L-9.00914-72.9614L-9.00914-86.2828ZM-4.00825-86.2828L-2.34128-86.2828L-2.34128-72.9614L-4.00825-72.9614L-4.00825-86.2828ZM77.673-86.2828L79.3399-86.2828L79.3399-72.9614L77.673-72.9614L77.673-86.2828ZM82.6739-86.2828L84.3408-86.2828L84.3408-72.9614L82.6739-72.9614L82.6739-86.2828Z"/>
  </g>
  <g id="Semibold-L" transform="matrix(1 0 0 1 2005.93 1556)">
   <path d="M-23.5562-77.3423L-23.5562-108.48L97.8455-108.48L97.8455-77.3423L98.6789-77.3423C105.467-77.3423 110.97-71.8394 110.97-65.0512C110.97-58.2631 105.467-52.7602 98.6789-52.7602L-24.3896-52.7602C-31.1778-52.7602-36.6807-58.2631-36.6807-65.0512C-36.6807-71.8394-31.1778-77.3423-24.3896-77.3423L-23.5562-77.3423ZM110.97-55.6346L110.97-8.14934C110.97 0.00518641 104.359 6.61573 96.2049 6.61573L-21.9156 6.61573C-30.0701 6.61573-36.6807 0.00518641-36.6807-8.14934L-36.6807-55.6346C-34.5564-51.9572-30.5823-49.4825-26.0302-49.4825L100.319-49.4825C104.872-49.4825 108.846-51.9572 110.97-55.6346L110.97-55.6346ZM26.2018 9.83076L47.1946 9.83076L47.1946 27.0452C47.1946 32.8356 42.4947 37.5304 36.6982 37.5304C30.9016 37.5304 26.2018 32.8356 26.2018 27.0452L26.2018 9.83076ZM-21.1974-105.678L-21.1974-98.048L95.4867-98.048L95.4867-105.678L-21.1974-105.678ZM-21.1974-96.1402L-21.1974-63.2288L95.4867-63.2288L95.4867-96.1402L-21.1974-96.1402ZM-19.6842-104.415L93.9735-104.415L93.9735-99.311L-19.6842-99.311L-19.6842-104.415ZM-23.5562-93.7304L-23.5562-86.8553L-30.1184-86.8553L-23.5562-93.7304ZM97.8455-93.7304L104.408-86.8553L97.8455-86.8553L97.8455-93.7304ZM-8.79111-85.5364L-7.15055-85.5364L-7.15055-72.4259L-8.79111-72.4259L-8.79111-85.5364ZM-3.86942-85.5364L-2.22886-85.5364L-2.22886-72.4259L-3.86942-72.4259L-3.86942-85.5364ZM76.5182-85.5364L78.1587-85.5364L78.1587-72.4259L76.5182-72.4259L76.5182-85.5364ZM81.4399-85.5364L83.0804-85.5364L83.0804-72.4259L81.4399-72.4259L81.4399-85.5364Z"/>
  </g>
  <g id="Medium-L" transform="matrix(1 0 0 1 1709.64 1556)">
   <path d="M-23.2107-76.8763L-23.2107-107.634L96.7096-107.634L96.7096-76.8763L97.5329-76.8763C104.238-76.8763 109.674-71.4405 109.674-64.7352C109.674-58.0299 104.238-52.5941 97.5329-52.5941L-24.034-52.5941C-30.7393-52.5941-36.1751-58.0299-36.1751-64.7352C-36.1751-71.4405-30.7393-76.8763-24.034-76.8763L-23.2107-76.8763ZM109.674-55.4334L109.674-8.52761C109.674-0.472591 103.144 6.05729 95.0891 6.05729L-21.5902 6.05729C-29.6452 6.05729-36.1751-0.472591-36.1751-8.52761L-36.1751-55.4334C-34.0767-51.8009-30.1511-49.3565-25.6545-49.3565L99.1534-49.3565C103.65-49.3565 107.576-51.8009 109.674-55.4334L109.674-55.4334ZM25.9401 9.23309L46.6767 9.23309L46.6767 26.2375C46.6767 31.9572 42.0342 36.5948 36.3085 36.5948C30.5826 36.5948 25.9401 31.9572 25.9401 26.2375L25.9401 9.23309ZM-20.8807-104.866L-20.8807-97.3293L94.3797-97.3293L94.3797-104.866L-20.8807-104.866ZM-20.8807-95.4448L-20.8807-62.935L94.3797-62.935L94.3797-95.4448L-20.8807-95.4448ZM-19.386-103.618L92.8849-103.618L92.8849-98.5769L-19.386-98.5769L-19.386-103.618ZM-23.2107-93.0644L-23.2107-86.2733L-29.6929-86.2733L-23.2107-93.0644ZM96.7096-93.0644L103.192-86.2733L96.7096-86.2733L96.7096-93.0644ZM-8.6258-84.9704L-7.00525-84.9704L-7.00525-72.0199L-8.6258-72.0199L-8.6258-84.9704ZM-3.76416-84.9704L-2.14362-84.9704L-2.14362-72.0199L-3.76416-72.0199L-3.76416-84.9704ZM75.6425-84.9704L77.2631-84.9704L77.2631-72.0199L75.6425-72.0199L75.6425-84.9704ZM80.5042-84.9704L82.1247-84.9704L82.1247-72.0199L80.5042-72.0199L80.5042-84.9704Z"/>
  </g>
  <g id="Regular-L" transform="matrix(1 0 0 1 1413.47 1556)">
   <path d="M-22.7601-76.2685L-22.7601-106.53L95.2281-106.53L95.2281-76.2685L96.0381-76.2685C102.635-76.2685 107.984-70.9203 107.984-64.323C107.984-57.7257 102.635-52.3775 96.0381-52.3775L-23.5701-52.3775C-30.1674-52.3775-35.5156-57.7257-35.5156-64.323C-35.5156-70.9203-30.1674-76.2685-23.5701-76.2685L-22.7601-76.2685ZM107.984-55.1711L107.984-9.02102C107.984-1.09578 101.559 5.3289 93.6336 5.3289L-21.1656 5.3289C-29.0909 5.3289-35.5156-1.09578-35.5156-9.02102L-35.5156-55.1711C-33.451-51.5971-29.5886-49.192-25.1645-49.192L97.6325-49.192C102.057-49.192 105.919-51.5971 107.984-55.1711L107.984-55.1711ZM25.5988 8.45353L46.0013 8.45353L46.0013 25.184C46.0013 30.8115 41.4336 35.3743 35.8001 35.3743C30.1665 35.3743 25.5988 30.8115 25.5988 25.184L25.5988 8.45353ZM-20.4677-103.807L-20.4677-96.3919L92.9357-96.3919L92.9357-103.807L-20.4677-103.807ZM-20.4677-94.5378L-20.4677-62.5518L92.9357-62.5518L92.9357-94.5378L-20.4677-94.5378ZM-18.997-102.58L91.465-102.58L91.465-97.6194L-18.997-97.6194L-18.997-102.58ZM-22.7601-92.1958L-22.7601-85.514L-29.1378-85.514L-22.7601-92.1958ZM95.2281-92.1958L101.606-85.514L95.2281-85.514L95.2281-92.1958ZM-8.41017-84.2321L-6.81573-84.2321L-6.81573-71.4903L-8.41017-71.4903L-8.41017-84.2321ZM-3.62686-84.2321L-2.03243-84.2321L-2.03243-71.4903L-3.62686-71.4903L-3.62686-84.2321ZM74.5004-84.2321L76.0949-84.2321L76.0949-71.4903L74.5004-71.4903L74.5004-84.2321ZM79.2837-84.2321L80.8782-84.2321L80.8782-71.4903L79.2837-71.4903L79.2837-84.2321Z"/>
  </g>
  <g id="Light-L" transform="matrix(1 0 0 1 1117.13 1556)">
   <path d="M-21.4179-75.2758L-21.4179-104.849L93.8859-104.849L93.8859-75.2758L94.6775-75.2758C101.125-75.2758 106.351-70.0493 106.351-63.6021C106.351-57.1548 101.125-51.9283 94.6775-51.9283L-22.2095-51.9283C-28.6567-51.9283-33.8832-57.1548-33.8832-63.6021C-33.8832-70.0493-28.6567-75.2758-22.2095-75.2758L-21.4179-75.2758ZM106.351-54.6584L106.351-9.55825C106.351-1.81332 100.073 4.46519 92.3278 4.46519L-19.8598 4.46519C-27.6047 4.46519-33.8832-1.81332-33.8832-9.55825L-33.8832-54.6584C-31.8656-51.1657-28.0911-48.8154-23.7677-48.8154L96.2357-48.8154C100.559-48.8154 104.334-51.1657 106.351-54.6584L106.351-54.6584ZM25.8407 7.51874L45.7791 7.51874L45.7791 23.8686C45.7791 29.3681 41.3153 33.8271 35.81 33.8271C30.3046 33.8271 25.8407 29.3681 25.8407 23.8686L25.8407 7.51874ZM-19.1777-102.188L-19.1777-94.9414L91.6457-94.9414L91.6457-102.188L-19.1777-102.188ZM-19.1777-93.1295L-19.1777-61.8711L91.6457-61.8711L91.6457-93.1295L-19.1777-93.1295ZM-17.7404-100.988L90.2084-100.988L90.2084-96.141L-17.7404-96.141L-17.7404-100.988ZM-21.4179-90.8407L-21.4179-84.311L-27.6506-84.311L-21.4179-90.8407ZM93.8859-90.8407L100.119-84.311L93.8859-84.311L93.8859-90.8407ZM-7.39449-83.0582L-5.83632-83.0582L-5.83632-70.6063L-7.39449-70.6063L-7.39449-83.0582ZM-2.72-83.0582L-1.16184-83.0582L-1.16184-70.6063L-2.72-70.6063L-2.72-83.0582ZM73.6298-83.0582L75.188-83.0582L75.188-70.6063L73.6298-70.6063L73.6298-83.0582ZM78.3043-83.0582L79.8625-83.0582L79.8625-70.6063L78.3043-70.6063L78.3043-83.0582Z"/>
  </g>
  <g id="Thin-L" transform="matrix(1 0 0 1 820.912 1556)">
   <path d="M-19.6428-73.9629L-19.6428-102.626L92.1108-102.626L92.1108-73.9629L92.878-73.9629C99.1267-73.9629 104.192-68.8973 104.192-62.6486C104.192-56.3999 99.1267-51.3343 92.878-51.3343L-20.41-51.3343C-26.6587-51.3343-31.7243-56.3999-31.7243-62.6486C-31.7243-68.8973-26.6587-73.9629-20.41-73.9629L-19.6428-73.9629ZM104.192-53.9803L104.192-10.2688C104.192-2.76232 98.1071 3.32287 90.6006 3.32287L-18.1326 3.32287C-25.6391 3.32287-31.7243-2.76232-31.7243-10.2688L-31.7243-53.9803C-29.7689-50.5951-26.1106-48.3172-21.9202-48.3172L94.3882-48.3172C98.5786-48.3172 102.237-50.5951 104.192-53.9803L104.192-53.9803ZM26.1608 6.2824L45.4852 6.2824L45.4852 22.1288C45.4852 27.459 41.1588 31.7807 35.8231 31.7807C30.4871 31.7807 26.1608 27.459 26.1608 22.1288L26.1608 6.2824ZM-17.4715-100.046L-17.4715-93.023L89.9395-93.023L89.9395-100.046L-17.4715-100.046ZM-17.4715-91.2669L-17.4715-60.971L89.9395-60.971L89.9395-91.2669L-17.4715-91.2669ZM-16.0786-98.8838L88.5466-98.8838L88.5466-94.1857L-16.0786-94.1857L-16.0786-98.8838ZM-19.6428-89.0486L-19.6428-82.7199L-25.6836-82.7199L-19.6428-89.0486ZM92.1108-89.0486L98.1516-82.7199L92.1108-82.7199L92.1108-89.0486ZM-6.05116-81.5057L-4.54098-81.5057L-4.54098-69.4372L-6.05116-69.4372L-6.05116-81.5057ZM-1.52061-81.5057L-0.010427-81.5057L-0.010427-69.4372L-1.52061-69.4372L-1.52061-81.5057ZM72.4784-81.5057L73.9886-81.5057L73.9886-69.4372L72.4784-69.4372L72.4784-81.5057ZM77.009-81.5057L78.5192-81.5057L78.5192-69.4372L77.009-69.4372L77.009-81.5057Z"/>
  </g>
  <g id="Ultralight-L" transform="matrix(1 0 0 1 524.454 1556)">
   <path d="M-18.7336-73.2904L-18.7336-101.487L91.2016-101.487L91.2016-73.2904L91.9563-73.2904C98.1034-73.2904 103.087-68.3072 103.087-62.1602C103.087-56.0132 98.1034-51.03 91.9563-51.03L-19.4883-51.03C-25.6354-51.03-30.6185-56.0132-30.6185-62.1602C-30.6185-68.3072-25.6354-73.2904-19.4883-73.2904L-18.7336-73.2904ZM103.087-53.633L103.087-10.6327C103.087-3.2484 97.1003 2.73778 89.716 2.73778L-17.248 2.73778C-24.6323 2.73778-30.6185-3.2484-30.6185-10.6327L-30.6185-53.633C-28.6949-50.3029-25.0961-48.062-20.974-48.062L93.442-48.062C97.5641-48.062 101.163-50.3029 103.087-53.633L103.087-53.633ZM26.3247 5.64915L45.3347 5.64915L45.3347 21.2377C45.3347 26.4812 41.0787 30.7326 35.8298 30.7326C30.5806 30.7326 26.3247 26.4812 26.3247 21.2377L26.3247 5.64915ZM-16.5977-98.9495L-16.5977-92.0404L89.0657-92.0404L89.0657-98.9495L-16.5977-98.9495ZM-16.5977-90.3129L-16.5977-60.5099L89.0657-60.5099L89.0657-90.3129L-16.5977-90.3129ZM-15.2274-97.8058L87.6954-97.8058L87.6954-93.1841L-15.2274-93.1841L-15.2274-97.8058ZM-18.7336-88.1306L-18.7336-81.9049L-24.6761-81.9049L-18.7336-88.1306ZM91.2016-88.1306L97.1441-81.9049L91.2016-81.9049L91.2016-88.1306ZM-5.36312-80.7105L-3.87751-80.7105L-3.87751-68.8383L-5.36312-68.8383L-5.36312-80.7105ZM-0.906288-80.7105L0.579323-80.7105L0.579323-68.8383L-0.906288-68.8383L-0.906288-80.7105ZM71.8887-80.7105L73.3743-80.7105L73.3743-68.8383L71.8887-68.8383L71.8887-80.7105ZM76.3455-80.7105L77.8311-80.7105L77.8311-68.8383L76.3455-68.8383L76.3455-80.7105Z"/>
  </g>
  <g id="Black-M" transform="matrix(1 0 0 1 2902.4 1126)">
   <path d="M-19.6237-69.9874L-19.6237-95.8896L81.3666-95.8896L81.3666-69.9874L82.0599-69.9874C87.7068-69.9874 92.2844-65.4097 92.2844-59.7628C92.2844-54.1159 87.7068-49.5383 82.0599-49.5383L-20.317-49.5383C-25.9639-49.5383-30.5415-54.1159-30.5415-59.7628C-30.5415-65.4097-25.9639-69.9874-20.317-69.9874L-19.6237-69.9874ZM92.2844-51.9294L92.2844-12.4279C92.2844-5.64441 86.7853-0.145301 80.0018-0.145301L-18.2589-0.145301C-25.0424-0.145301-30.5415-5.64441-30.5415-12.4279L-30.5415-51.9294C-28.7744-48.8703-25.4685-46.8117-21.6817-46.8117L83.4246-46.8117C87.2114-46.8117 90.5173-48.8703 92.2844-51.9294L92.2844-51.9294ZM21.7684 2.52918L39.2317 2.52918L39.2317 16.8494C39.2317 21.6662 35.322 25.5717 30.5001 25.5717C25.6781 25.5717 21.7684 21.6662 21.7684 16.8494L21.7684 2.52918ZM-17.6615-93.5587L-17.6615-87.2118L79.4044-87.2118L79.4044-93.5587L-17.6615-93.5587ZM-17.6615-85.6248L-17.6615-58.2468L79.4044-58.2468L79.4044-85.6248L-17.6615-85.6248ZM-16.4027-92.508L78.1456-92.508L78.1456-88.2624L-16.4027-88.2624L-16.4027-92.508ZM-19.6237-83.6201L-19.6237-77.901L-25.0826-77.901L-19.6237-83.6201ZM81.3666-83.6201L86.8255-77.901L81.3666-77.901L81.3666-83.6201ZM-7.34108-76.8037L-5.97635-76.8037L-5.97635-65.8975L-7.34108-65.8975L-7.34108-76.8037ZM-3.24688-76.8037L-1.88215-76.8037L-1.88215-65.8975L-3.24688-65.8975L-3.24688-76.8037ZM63.625-76.8037L64.9898-76.8037L64.9898-65.8975L63.625-65.8975L63.625-76.8037ZM67.7192-76.8037L69.084-76.8037L69.084-65.8975L67.7192-65.8975L67.7192-76.8037Z"/>
  </g>
  <g id="Heavy-M" transform="matrix(1 0 0 1 2606.3 1126)">
   <path d="M-19.3344-69.4215L-19.3344-94.8365L79.756-94.8365L79.756-69.4215L80.4362-69.4215C85.9769-69.4215 90.4685-64.93 90.4685-59.3893C90.4685-53.8487 85.9769-49.3571 80.4362-49.3571L-20.0147-49.3571C-25.5553-49.3571-30.0469-53.8487-30.0469-59.3893C-30.0469-64.93-25.5553-69.4215-20.0147-69.4215L-19.3344-69.4215ZM90.4685-51.7033L90.4685-12.9449C90.4685-6.28901 85.0728-0.893356 78.4169-0.893356L-17.9954-0.893356C-24.6512-0.893356-30.0469-6.28901-30.0469-12.9449L-30.0469-51.7033C-28.313-48.7017-25.0693-46.6819-21.3537-46.6819L81.7753-46.6819C85.4908-46.6819 88.7346-48.7017 90.4685-51.7033L90.4685-51.7033ZM21.279 1.73081L38.4137 1.73081L38.4137 15.7816C38.4137 20.5078 34.5776 24.3398 29.8464 24.3398C25.1151 24.3398 21.279 20.5078 21.279 15.7816L21.279 1.73081ZM-17.4092-92.5495L-17.4092-86.3219L77.8307-86.3219L77.8307-92.5495L-17.4092-92.5495ZM-17.4092-84.7648L-17.4092-57.9018L77.8307-57.9018L77.8307-84.7648L-17.4092-84.7648ZM-16.174-91.5185L76.5956-91.5185L76.5956-87.3528L-16.174-87.3528L-16.174-91.5185ZM-19.3344-82.7978L-19.3344-77.1863L-24.6907-77.1863L-19.3344-82.7978ZM79.756-82.7978L85.1122-77.1863L79.756-77.1863L79.756-82.7978ZM-7.28288-76.1097L-5.94383-76.1097L-5.94383-65.4087L-7.28288-65.4087L-7.28288-76.1097ZM-3.26571-76.1097L-1.92665-76.1097L-1.92665-65.4087L-3.26571-65.4087L-3.26571-76.1097ZM62.3482-76.1097L63.6873-76.1097L63.6873-65.4087L62.3482-65.4087L62.3482-76.1097ZM66.3654-76.1097L67.7044-76.1097L67.7044-65.4087L66.3654-65.4087L66.3654-76.1097Z"/>
  </g>
  <g id="Bold-M" transform="matrix(1 0 0 1 2310.28 1126)">
   <path d="M-19.0108-68.7886L-19.0108-93.6584L77.9543-93.6584L77.9543-68.7886L78.62-68.7886C84.0418-68.7886 88.437-64.3933 88.437-58.9715C88.437-53.5497 84.0418-49.1545 78.62-49.1545L-19.6765-49.1545C-25.0983-49.1545-29.4936-53.5497-29.4936-58.9715C-29.4936-64.3933-25.0983-68.7886-19.6765-68.7886L-19.0108-68.7886ZM88.437-51.4503L88.437-13.5232C88.437-7.0101 83.1571-1.73016 76.644-1.73016L-17.7005-1.73016C-24.2136-1.73016-29.4936-7.0101-29.4936-13.5232L-29.4936-51.4503C-27.7969-48.5131-24.6227-46.5366-20.9869-46.5366L79.9303-46.5366C83.5661-46.5366 86.7403-48.5131 88.437-51.4503L88.437-51.4503ZM20.7315 0.837724L37.4987 0.837724L37.4987 14.5872C37.4987 19.212 33.7449 22.9618 29.1152 22.9618C24.4853 22.9618 20.7315 19.212 20.7315 14.5872L20.7315 0.837724ZM-17.1269-91.4205L-17.1269-85.3265L76.0703-85.3265L76.0703-91.4205L-17.1269-91.4205ZM-17.1269-83.8027L-17.1269-57.5159L76.0703-57.5159L76.0703-83.8027L-17.1269-83.8027ZM-15.9182-90.4116L74.8617-90.4116L74.8617-86.3353L-15.9182-86.3353L-15.9182-90.4116ZM-19.0108-81.878L-19.0108-76.3868L-24.2522-76.3868L-19.0108-81.878ZM77.9543-81.878L83.1957-76.3868L77.9543-76.3868L77.9543-81.878ZM-7.21779-75.3333L-5.90745-75.3333L-5.90745-64.8618L-7.21779-64.8618L-7.21779-75.3333ZM-3.28677-75.3333L-1.97643-75.3333L-1.97643-64.8618L-3.28677-64.8618L-3.28677-75.3333ZM60.9199-75.3333L62.2302-75.3333L62.2302-64.8618L60.9199-64.8618L60.9199-75.3333ZM64.8509-75.3333L66.1612-75.3333L66.1612-64.8618L64.8509-64.8618L64.8509-75.3333Z"/>
  </g>
  <g id="Semibold-M" transform="matrix(1 0 0 1 2014.04 1126)">
   <path d="M-18.7878-68.3522L-18.7878-92.8463L76.7122-92.8463L76.7122-68.3522L77.3678-68.3522C82.7077-68.3522 87.0365-64.0234 87.0365-58.6835C87.0365-53.3436 82.7077-49.0148 77.3678-49.0148L-19.4434-49.0148C-24.7833-49.0148-29.1121-53.3436-29.1121-58.6835C-29.1121-64.0234-24.7833-68.3522-19.4434-68.3522L-18.7878-68.3522ZM87.0365-51.2759L87.0365-13.9219C87.0365-7.50721 81.8364-2.30705 75.4217-2.30705L-17.4972-2.30705C-23.9119-2.30705-29.1121-7.50721-29.1121-13.9219L-29.1121-51.2759C-27.4411-48.3831-24.3148-46.4365-20.7339-46.4365L78.6584-46.4365C82.2393-46.4365 85.3655-48.3831 87.0365-51.2759L87.0365-51.2759ZM20.3541 0.222033L36.8679 0.222033L36.8679 13.7637C36.8679 18.3186 33.1708 22.0118 28.6111 22.0118C24.0512 22.0118 20.3541 18.3186 20.3541 13.7637L20.3541 0.222033ZM-16.9323-90.6421L-16.9323-84.6402L74.8567-84.6402L74.8567-90.6421L-16.9323-90.6421ZM-16.9323-83.1395L-16.9323-57.2499L74.8567-57.2499L74.8567-83.1395L-16.9323-83.1395ZM-15.7419-89.6486L73.6664-89.6486L73.6664-85.6338L-15.7419-85.6338L-15.7419-89.6486ZM-18.7878-81.2438L-18.7878-75.8356L-23.9499-75.8356L-18.7878-81.2438ZM76.7122-81.2438L81.8744-75.8356L76.7122-75.8356L76.7122-81.2438ZM-7.17291-74.798L-5.88237-74.798L-5.88237-64.4847L-7.17291-64.4847L-7.17291-74.798ZM-3.30129-74.798L-2.01075-74.798L-2.01075-64.4847L-3.30129-64.4847L-3.30129-74.798ZM59.9352-74.798L61.2257-74.798L61.2257-64.4847L59.9352-64.4847L59.9352-74.798ZM63.8068-74.798L65.0974-74.798L65.0974-64.4847L63.8068-64.4847L63.8068-74.798Z"/>
  </g>
  <g id="Medium-M" transform="matrix(1 0 0 1 1717.69 1126)">
   <path d="M-18.6186-68.0213L-18.6186-92.2305L75.7704-92.2305L75.7704-68.0213L76.4184-68.0213C81.6962-68.0213 85.9747-63.7429 85.9747-58.4651C85.9747-53.1873 81.6962-48.9089 76.4184-48.9089L-19.2666-48.9089C-24.5444-48.9089-28.8229-53.1873-28.8229-58.4651C-28.8229-63.7429-24.5444-68.0213-19.2666-68.0213L-18.6186-68.0213ZM85.9747-51.1437L85.9747-14.2242C85.9747-7.88414 80.835-2.74448 74.4949-2.74448L-17.3431-2.74448C-23.6832-2.74448-28.8229-7.88414-28.8229-14.2242L-28.8229-51.1437C-27.1713-48.2846-24.0814-46.3605-20.5421-46.3605L77.6939-46.3605C81.2332-46.3605 84.3231-48.2846 85.9747-51.1437L85.9747-51.1437ZM20.0679-0.244809L36.3896-0.244809L36.3896 13.1393C36.3896 17.6413 32.7355 21.2915 28.2288 21.2915C23.722 21.2915 20.0679 17.6413 20.0679 13.1393L20.0679-0.244809ZM-16.7847-90.052L-16.7847-84.1199L73.9365-84.1199L73.9365-90.052L-16.7847-90.052ZM-16.7847-82.6366L-16.7847-57.0482L73.9365-57.0482L73.9365-82.6366L-16.7847-82.6366ZM-15.6082-89.07L72.76-89.07L72.76-85.1019L-15.6082-85.1019L-15.6082-89.07ZM-18.6186-80.763L-18.6186-75.4177L-23.7207-75.4177L-18.6186-80.763ZM75.7704-80.763L80.8725-75.4177L75.7704-75.4177L75.7704-80.763ZM-7.13888-74.3922L-5.86335-74.3922L-5.86335-64.1988L-7.13888-64.1988L-7.13888-74.3922ZM-3.3123-74.3922L-2.03677-74.3922L-2.03677-64.1988L-3.3123-64.1988L-3.3123-74.3922ZM59.1886-74.3922L60.4641-74.3922L60.4641-64.1988L59.1886-64.1988L59.1886-74.3922ZM63.0152-74.3922L64.2907-74.3922L64.2907-64.1988L63.0152-64.1988L63.0152-74.3922Z"/>
  </g>
  <g id="Regular-M" transform="matrix(1 0 0 1 1421.45 1126)">
   <path d="M-18.398-67.5898L-18.398-91.4273L74.542-91.4273L74.542-67.5898L75.18-67.5898C80.3768-67.5898 84.5896-63.377 84.5896-58.1802C84.5896-52.9835 80.3768-48.7707 75.18-48.7707L-19.036-48.7707C-24.2328-48.7707-28.4456-52.9835-28.4456-58.1802C-28.4456-63.377-24.2328-67.5898-19.036-67.5898L-18.398-67.5898ZM84.5896-50.9713L84.5896-14.6185C84.5896-8.37578 79.5288-3.31503 73.2861-3.31503L-17.1421-3.31503C-23.3848-3.31503-28.4456-8.37578-28.4456-14.6185L-28.4456-50.9713C-26.8193-48.156-23.7769-46.2615-20.292-46.2615L76.436-46.2615C79.9209-46.2615 82.9633-48.156 84.5896-50.9713L84.5896-50.9713ZM19.6946-0.853734L35.7658-0.853734L35.7658 12.325C35.7658 16.7578 32.1678 20.352 27.7302 20.352C23.2926 20.352 19.6946 16.7578 19.6946 12.325L19.6946-0.853734ZM-16.5923-89.2822L-16.5923-83.4412L72.7363-83.4412L72.7363-89.2822L-16.5923-89.2822ZM-16.5923-81.9807L-16.5923-56.7851L72.7363-56.7851L72.7363-81.9807L-16.5923-81.9807ZM-15.4338-88.3153L71.5778-88.3153L71.5778-84.4081L-15.4338-84.4081L-15.4338-88.3153ZM-18.398-80.1358L-18.398-74.8726L-23.4218-74.8726L-18.398-80.1358ZM74.542-80.1358L79.5658-74.8726L74.542-74.8726L74.542-80.1358ZM-7.09449-73.8628L-5.83855-73.8628L-5.83855-63.826L-7.09449-63.826L-7.09449-73.8628ZM-3.32666-73.8628L-2.07071-73.8628L-2.07071-63.826L-3.32666-63.826L-3.32666-73.8628ZM58.2147-73.8628L59.4707-73.8628L59.4707-63.826L58.2147-63.826L58.2147-73.8628ZM61.9825-73.8628L63.2385-73.8628L63.2385-63.826L61.9825-63.826L61.9825-73.8628Z"/>
  </g>
  <g id="Light-M" transform="matrix(1 0 0 1 1125.07 1126)">
   <path d="M-17.1947-66.6998L-17.1947-89.92L73.3387-89.92L73.3387-66.6998L73.9602-66.6998C79.0224-66.6998 83.1261-62.5961 83.1261-57.5339C83.1261-52.4717 79.0224-48.368 73.9602-48.368L-17.8162-48.368C-22.8784-48.368-26.9821-52.4717-26.9821-57.5339C-26.9821-62.5961-22.8784-66.6998-17.8162-66.6998L-17.1947-66.6998ZM83.1261-50.5116L83.1261-15.1002C83.1261-9.01909 78.1964-4.08938 72.1153-4.08938L-15.9713-4.08938C-22.0524-4.08938-26.9821-9.01909-26.9821-15.1002L-26.9821-50.5116C-25.398-47.7692-22.4343-45.9238-19.0396-45.9238L75.1836-45.9238C78.5783-45.9238 81.542-47.7692 83.1261-50.5116L83.1261-50.5116ZM19.9115-1.69182L35.5666-1.69182L35.5666 11.1456C35.5666 15.4637 32.0617 18.9648 27.7391 18.9648C23.4164 18.9648 19.9115 15.4637 19.9115 11.1456L19.9115-1.69182ZM-15.4357-87.8305L-15.4357-82.1407L71.5797-82.1407L71.5797-87.8305L-15.4357-87.8305ZM-15.4357-80.718L-15.4357-56.1748L71.5797-56.1748L71.5797-80.718L-15.4357-80.718ZM-14.3072-86.8886L70.4512-86.8886L70.4512-83.0826L-14.3072-83.0826L-14.3072-86.8886ZM-17.1947-78.921L-17.1947-73.794L-22.0884-73.794L-17.1947-78.921ZM73.3387-78.921L78.2324-73.794L73.3387-73.794L73.3387-78.921ZM-6.18388-72.8104L-4.96046-72.8104L-4.96046-63.0334L-6.18388-63.0334L-6.18388-72.8104ZM-2.51361-72.8104L-1.29019-72.8104L-1.29019-63.0334L-2.51361-63.0334L-2.51361-72.8104ZM57.4342-72.8104L58.6576-72.8104L58.6576-63.0334L57.4342-63.0334L57.4342-72.8104ZM61.1045-72.8104L62.3279-72.8104L62.3279-63.0334L61.1045-63.0334L61.1045-72.8104Z"/>
  </g>
  <g id="Thin-M" transform="matrix(1 0 0 1 828.804 1126)">
   <path d="M-15.6032-65.5227L-15.6032-87.9266L71.7472-87.9266L71.7472-65.5227L72.3469-65.5227C77.2311-65.5227 81.1905-61.5633 81.1905-56.6791C81.1905-51.7949 77.2311-47.8354 72.3469-47.8354L-16.2029-47.8354C-21.0871-47.8354-25.0465-51.7949-25.0465-56.6791C-25.0465-61.5633-21.0871-65.5227-16.2029-65.5227L-15.6032-65.5227ZM81.1905-49.9036L81.1905-15.7372C81.1905-9.86992 76.4341-5.11353 70.5668-5.11353L-14.4228-5.11353C-20.2901-5.11353-25.0465-9.86992-25.0465-15.7372L-25.0465-49.9036C-23.5181-47.2577-20.6586-45.4771-17.3833-45.4771L73.5273-45.4771C76.8026-45.4771 79.6621-47.2577 81.1905-49.9036L81.1905-49.9036ZM20.1984-2.80026L35.3031-2.80026L35.3031 9.58584C35.3031 13.7521 31.9214 17.1301 27.7508 17.1301C23.5801 17.1301 20.1984 13.7521 20.1984 9.58584L20.1984-2.80026ZM-13.9061-85.9105L-13.9061-80.4207L70.0501-80.4207L70.0501-85.9105L-13.9061-85.9105ZM-13.9061-79.0481L-13.9061-55.3678L70.0501-55.3678L70.0501-79.0481L-13.9061-79.0481ZM-12.8173-85.0017L68.9613-85.0017L68.9613-81.3295L-12.8173-81.3295L-12.8173-85.0017ZM-15.6032-77.3142L-15.6032-72.3675L-20.3249-72.3675L-15.6032-77.3142ZM71.7472-77.3142L76.4689-72.3675L71.7472-72.3675L71.7472-77.3142ZM-4.97953-71.4184L-3.79912-71.4184L-3.79912-61.9852L-4.97953-61.9852L-4.97953-71.4184ZM-1.43829-71.4184L-0.257881-71.4184L-0.257881-61.9852L-1.43829-61.9852L-1.43829-71.4184ZM56.4019-71.4184L57.5823-71.4184L57.5823-61.9852L56.4019-61.9852L56.4019-71.4184ZM59.9431-71.4184L61.1235-71.4184L61.1235-61.9852L59.9431-61.9852L59.9431-71.4184Z"/>
  </g>
  <g id="Ultralight-M" transform="matrix(1 0 0 1 532.32 1126)">
   <path d="M-14.7881-64.9198L-14.7881-86.9055L70.9321-86.9055L70.9321-64.9198L71.5206-64.9198C76.3136-64.9198 80.1991-61.0343 80.1991-56.2412C80.1991-51.4482 76.3136-47.5627 71.5206-47.5627L-15.3766-47.5627C-20.1696-47.5627-24.0551-51.4482-24.0551-56.2412C-24.0551-61.0343-20.1696-64.9198-15.3766-64.9198L-14.7881-64.9198ZM80.1991-49.5923L80.1991-16.0635C80.1991-10.3057 75.5315-5.63809 69.7737-5.63809L-13.6297-5.63809C-19.3875-5.63809-24.0551-10.3057-24.0551-16.0635L-24.0551-49.5923C-22.5552-46.9957-19.7491-45.2484-16.5349-45.2484L72.6789-45.2484C75.8931-45.2484 78.6992-46.9957 80.1991-49.5923L80.1991-49.5923ZM20.3454-3.368L35.1681-3.368L35.1681 8.78693C35.1681 12.8754 31.8496 16.1904 27.7568 16.1904C23.6639 16.1904 20.3454 12.8754 20.3454 8.78693L20.3454-3.368ZM-13.1226-84.9271L-13.1226-79.5398L69.2666-79.5398L69.2666-84.9271L-13.1226-84.9271ZM-13.1226-78.1928L-13.1226-54.9544L69.2666-54.9544L69.2666-78.1928L-13.1226-78.1928ZM-12.0541-84.0353L68.1981-84.0353L68.1981-80.4316L-12.0541-80.4316L-12.0541-84.0353ZM-14.7881-76.4912L-14.7881-71.6368L-19.4216-71.6368L-14.7881-76.4912ZM70.9321-76.4912L75.5656-71.6368L70.9321-71.6368L70.9321-76.4912ZM-4.36266-70.7055L-3.20428-70.7055L-3.20428-61.4484L-4.36266-61.4484L-4.36266-70.7055ZM-0.88752-70.7055L0.270861-70.7055L0.270861-61.4484L-0.88752-61.4484L-0.88752-70.7055ZM55.8731-70.7055L57.0315-70.7055L57.0315-61.4484L55.8731-61.4484L55.8731-70.7055ZM59.3483-70.7055L60.5067-70.7055L60.5067-61.4484L59.3483-61.4484L59.3483-70.7055Z"/>
  </g>
  <g id="Black-S" transform="matrix(1 0 0 1 2908.94 696)">
   <path d="M-15.3966-62.5888L-15.3966-83L64.1847-83L64.1847-62.5888L64.7311-62.5888C69.1808-62.5888 72.7881-58.9815 72.7881-54.5317C72.7881-50.0819 69.1808-46.4747 64.7311-46.4747L-15.9429-46.4747C-20.3927-46.4747-24-50.0819-24-54.5317C-24-58.9815-20.3927-62.5888-15.9429-62.5888L-15.3966-62.5888ZM72.7881-48.3589L72.7881-17.2313C72.7881-11.8859 68.4548-7.55253 63.1093-7.55253L-14.3212-7.55253C-19.6666-7.55253-24-11.8859-24-17.2313L-24-48.3589C-22.6075-45.9483-20.0024-44.3261-17.0184-44.3261L65.8065-44.3261C68.7905-44.3261 71.3956-45.9483 72.7881-48.3589L72.7881-48.3589ZM17.2208-5.44501L30.982-5.44501L30.982 5.83944C30.982 9.63512 27.9011 12.7127 24.1014 12.7127C20.3016 12.7127 17.2208 9.63512 17.2208 5.83944L17.2208-5.44501ZM-13.8504-81.1633L-13.8504-76.1618L62.6385-76.1618L62.6385-81.1633L-13.8504-81.1633ZM-13.8504-74.9112L-13.8504-53.3371L62.6385-53.3371L62.6385-74.9112L-13.8504-74.9112ZM-12.8584-80.3353L61.6466-80.3353L61.6466-76.9897L-12.8584-76.9897L-12.8584-80.3353ZM-15.3966-73.3315L-15.3966-68.8248L-19.6983-68.8248L-15.3966-73.3315ZM64.1847-73.3315L68.4864-68.8248L64.1847-68.8248L64.1847-73.3315ZM-5.7178-67.9602L-4.64238-67.9602L-4.64238-59.366L-5.7178-59.366L-5.7178-67.9602ZM-2.49153-67.9602L-1.41611-67.9602L-1.41611-59.366L-2.49153-59.366L-2.49153-67.9602ZM50.2042-67.9602L51.2796-67.9602L51.2796-59.366L50.2042-59.366L50.2042-67.9602ZM53.4305-67.9602L54.5059-67.9602L54.5059-59.366L53.4305-59.366L53.4305-67.9602Z"/>
  </g>
  <g id="Heavy-S" transform="matrix(1 0 0 1 2612.71 696)">
   <path d="M-15.303-62.2186L-15.303-82.2919L62.961-82.2919L62.961-62.2186L63.4983-62.2186C67.8744-62.2186 71.422-58.671 71.422-54.2949C71.422-49.9188 67.8744-46.3712 63.4983-46.3712L-15.8403-46.3712C-20.2164-46.3712-23.764-49.9188-23.764-54.2949C-23.764-58.671-20.2164-62.2186-15.8403-62.2186L-15.303-62.2186ZM71.422-48.2243L71.422-17.612C71.422-12.355 67.1604-8.09336 61.9034-8.09336L-14.2454-8.09336C-19.5024-8.09336-23.764-12.355-23.764-17.612L-23.764-48.2243C-22.3945-45.8536-19.8325-44.2582-16.8979-44.2582L64.5559-44.2582C67.4905-44.2582 70.0526-45.8536 71.422-48.2243L71.422-48.2243ZM16.7744-6.02072L30.3079-6.02072L30.3079 5.07694C30.3079 8.80979 27.278 11.8364 23.5412 11.8364C19.8043 11.8364 16.7744 8.80979 16.7744 5.07694L16.7744-6.02072ZM-13.7824-80.4856L-13.7824-75.5669L61.4404-75.5669L61.4404-80.4856L-13.7824-80.4856ZM-13.7824-74.337L-13.7824-53.12L61.4404-53.12L61.4404-74.337L-13.7824-74.337ZM-12.8069-79.6713L60.4649-79.6713L60.4649-76.3812L-12.8069-76.3812L-12.8069-79.6713ZM-15.303-72.7835L-15.303-68.3514L-19.5335-68.3514L-15.303-72.7835ZM62.961-72.7835L67.1915-68.3514L62.961-68.3514L62.961-72.7835ZM-5.78441-67.5011L-4.72678-67.5011L-4.72678-59.0491L-5.78441-59.0491L-5.78441-67.5011ZM-2.61154-67.5011L-1.55392-67.5011L-1.55392-59.0491L-2.61154-59.0491L-2.61154-67.5011ZM49.2119-67.5011L50.2696-67.5011L50.2696-59.0491L49.2119-59.0491L49.2119-67.5011ZM52.3848-67.5011L53.4424-67.5011L53.4424-59.0491L52.3848-59.0491L52.3848-67.5011Z"/>
  </g>
  <g id="Bold-S" transform="matrix(1 0 0 1 2316.54 696)">
   <path d="M-15.1983-61.8045L-15.1983-81.5L61.5924-81.5L61.5924-61.8045L62.1195-61.8045C66.4133-61.8045 69.8941-58.3238 69.8941-54.03C69.8941-49.7363 66.4133-46.2555 62.1195-46.2555L-15.7255-46.2555C-20.0192-46.2555-23.5-49.7363-23.5-54.03C-23.5-58.3238-20.0192-61.8045-15.7255-61.8045L-15.1983-61.8045ZM69.8941-48.0737L69.8941-18.0376C69.8941-12.8796 65.7127-8.69824 60.5547-8.69824L-14.1606-8.69824C-19.3186-8.69824-23.5-12.8796-23.5-18.0376L-23.5-48.0737C-22.1563-45.7476-19.6426-44.1823-16.7632-44.1823L63.1572-44.1823C66.0366-44.1823 68.5504-45.7476 69.8941-48.0737L69.8941-48.0737ZM16.2753-6.66463L29.5539-6.66463L29.5539 4.22412C29.5539 7.8867 26.5811 10.8563 22.9147 10.8563C19.2481 10.8563 16.2753 7.8867 16.2753 4.22412L16.2753-6.66463ZM-13.7063-79.7277L-13.7063-74.9016L60.1004-74.9016L60.1004-79.7277L-13.7063-79.7277ZM-13.7063-73.6949L-13.7063-52.8773L60.1004-52.8773L60.1004-73.6949L-13.7063-73.6949ZM-12.7491-78.9287L59.1432-78.9287L59.1432-75.7005L-12.7491-75.7005L-12.7491-78.9287ZM-15.1983-72.1706L-15.1983-67.8219L-19.3492-67.8219L-15.1983-72.1706ZM61.5924-72.1706L65.7432-67.8219L61.5924-67.8219L61.5924-72.1706ZM-5.8589-66.9876L-4.82119-66.9876L-4.82119-58.6947L-5.8589-58.6947L-5.8589-66.9876ZM-2.74577-66.9876L-1.70805-66.9876L-1.70805-58.6947L-2.74577-58.6947L-2.74577-66.9876ZM48.1021-66.9876L49.1398-66.9876L49.1398-58.6947L48.1021-58.6947L48.1021-66.9876ZM51.2152-66.9876L52.253-66.9876L52.253-58.6947L51.2152-58.6947L51.2152-66.9876Z"/>
  </g>
  <g id="Semibold-S" transform="matrix(1 0 0 1 2020.2 696)">
   <path d="M-15.1261-61.5191L-15.1261-80.954L60.6487-80.954L60.6487-61.5191L61.1689-61.5191C65.4059-61.5191 68.8406-58.0844 68.8406-53.8474C68.8406-49.6105 65.4059-46.1757 61.1689-46.1757L-15.6463-46.1757C-19.8833-46.1757-23.318-49.6105-23.318-53.8474C-23.318-58.0844-19.8833-61.5191-15.6463-61.5191L-15.1261-61.5191ZM68.8406-47.9698L68.8406-18.3311C68.8406-13.2414 64.7145-9.11528 59.6248-9.11528L-14.1021-9.11528C-19.1919-9.11528-23.318-13.2414-23.318-18.3311L-23.318-47.9698C-21.9921-45.6745-19.5116-44.1299-16.6703-44.1299L62.1929-44.1299C65.0342-44.1299 67.5147-45.6745 68.8406-47.9698L68.8406-47.9698ZM15.9311-7.10856L29.0341-7.10856L29.0341 3.63614C29.0341 7.25027 26.1006 10.1806 22.4827 10.1806C18.8646 10.1806 15.9311 7.25027 15.9311 3.63614L15.9311-7.10856ZM-13.6539-79.2051L-13.6539-74.4429L59.1765-74.4429L59.1765-79.2051L-13.6539-79.2051ZM-13.6539-73.2521L-13.6539-52.7099L59.1765-52.7099L59.1765-73.2521L-13.6539-73.2521ZM-12.7094-78.4168L58.232-78.4168L58.232-75.2312L-12.7094-75.2312L-12.7094-78.4168ZM-15.1261-71.748L-15.1261-67.4568L-19.2221-67.4568L-15.1261-71.748ZM60.6487-71.748L64.7447-67.4568L60.6487-67.4568L60.6487-71.748ZM-5.91026-66.6335L-4.88628-66.6335L-4.88628-58.4504L-5.91026-58.4504L-5.91026-66.6335ZM-2.83831-66.6335L-1.81432-66.6335L-1.81432-58.4504L-2.83831-58.4504L-2.83831-66.6335ZM47.3369-66.6335L48.3609-66.6335L48.3609-58.4504L47.3369-58.4504L47.3369-66.6335ZM50.4089-66.6335L51.4329-66.6335L51.4329-58.4504L50.4089-58.4504L50.4089-66.6335Z"/>
  </g>
  <g id="Medium-S" transform="matrix(1 0 0 1 1723.77 696)">
   <path d="M-15.0714-61.3026L-15.0714-80.54L59.9333-80.54L59.9333-61.3026L60.4482-61.3026C64.642-61.3026 68.0419-57.9028 68.0419-53.7089C68.0419-49.515 64.642-46.1152 60.4482-46.1152L-15.5863-46.1152C-19.7802-46.1152-23.18-49.515-23.18-53.7089C-23.18-57.9028-19.7802-61.3026-15.5863-61.3026L-15.0714-61.3026ZM68.0419-47.8911L68.0419-18.5537C68.0419-13.5156 63.9577-9.43149 58.9197-9.43149L-14.0578-9.43149C-19.0959-9.43149-23.18-13.5156-23.18-18.5537L-23.18-47.8911C-21.8676-45.6191-19.4123-44.0902-16.5999-44.0902L61.4617-44.0902C64.2741-44.0902 66.7294-45.6191 68.0419-47.8911L68.0419-47.8911ZM15.6702-7.44518L28.64-7.44518L28.64 3.19031C28.64 6.7677 25.7363 9.66828 22.1551 9.66828C18.5739 9.66828 15.6702 6.7677 15.6702 3.19031L15.6702-7.44518ZM-13.6141-78.8089L-13.6141-74.095L58.476-74.095L58.476-78.8089L-13.6141-78.8089ZM-13.6141-72.9164L-13.6141-52.583L58.476-52.583L58.476-72.9164L-13.6141-72.9164ZM-12.6792-78.0285L57.5411-78.0285L57.5411-74.8754L-12.6792-74.8754L-12.6792-78.0285ZM-15.0714-71.4276L-15.0714-67.18L-19.1257-67.18L-15.0714-71.4276ZM59.9333-71.4276L63.9876-67.18L59.9333-67.18L59.9333-71.4276ZM-5.9492-66.3651L-4.93563-66.3651L-4.93563-58.2652L-5.9492-58.2652L-5.9492-66.3651ZM-2.90848-66.3651L-1.8949-66.3651L-1.8949-58.2652L-2.90848-58.2652L-2.90848-66.3651ZM46.7568-66.3651L47.7703-66.3651L47.7703-58.2652L46.7568-58.2652L46.7568-66.3651ZM49.7975-66.3651L50.8111-66.3651L50.8111-58.2652L49.7975-58.2652L49.7975-66.3651Z"/>
  </g>
  <g id="Regular-S" transform="matrix(1 0 0 1 1427.43 696)">
   <path d="M-15-61.0203L-15-80L59-80L59-61.0203L59.508-61.0203C63.6457-61.0203 67-57.666 67-53.5283C67-49.3906 63.6457-46.0363 59.508-46.0363L-15.508-46.0363C-19.6457-46.0363-23-49.3906-23-53.5283C-23-57.666-19.6457-61.0203-15.508-61.0203L-15-61.0203ZM67-47.7884L67-18.8439C67-13.8734 62.9706-9.84395 58-9.84395L-14-9.84395C-18.9706-9.84395-23-13.8734-23-18.8439L-23-47.7884C-21.7052-45.5469-19.2827-44.0385-16.508-44.0385L60.508-44.0385C63.2827-44.0385 65.7052-45.5469 67-47.7884L67-47.7884ZM15.3298-7.88424L28.1259-7.88424L28.1259 2.6088C28.1259 6.13827 25.2611 9 21.7279 9C18.1946 9 15.3298 6.13827 15.3298 2.6088L15.3298-7.88424ZM-13.5622-78.2921L-13.5622-73.6414L57.5622-73.6414L57.5622-78.2921L-13.5622-78.2921ZM-13.5622-72.4785L-13.5622-52.4175L57.5622-52.4175L57.5622-72.4785L-13.5622-72.4785ZM-12.6398-77.5222L56.6398-77.5222L56.6398-74.4113L-12.6398-74.4113L-12.6398-77.5222ZM-15-71.0096L-15-66.8189L-19-66.8189L-15-71.0096ZM59-71.0096L63-66.8189L59-66.8189L59-71.0096ZM-6-66.015L-5-66.015L-5-58.0235L-6-58.0235L-6-66.015ZM-3-66.015L-2-66.015L-2-58.0235L-3-58.0235L-3-66.015ZM46-66.015L47-66.015L47-58.0235L46-58.0235L46-66.015ZM49-66.015L50-66.015L50-58.0235L49-58.0235L49-66.015Z"/>
  </g>
  <g id="Light-S" transform="matrix(1 0 0 1 1131.01 696)">
   <path d="M-13.9355-60.233L-13.9355-78.6667L57.9355-78.6667L57.9355-60.233L58.4289-60.233C62.4476-60.233 65.7054-56.9752 65.7054-52.9566C65.7054-48.9379 62.4476-45.6801 58.4289-45.6801L-14.4289-45.6801C-18.4476-45.6801-21.7054-48.9379-21.7054-52.9566C-21.7054-56.9752-18.4476-60.233-14.4289-60.233L-13.9355-60.233ZM65.7054-47.3818L65.7054-19.27C65.7054-14.4425 61.7919-10.529 56.9643-10.529L-12.9643-10.529C-17.7919-10.529-21.7054-14.4425-21.7054-19.27L-21.7054-47.3818C-20.4478-45.2047-18.0951-43.7397-15.4002-43.7397L59.4002-43.7397C62.0951-43.7397 64.4478-45.2047 65.7054-47.3818L65.7054-47.3818ZM15.5217-8.62562L27.9497-8.62562L27.9497 1.56553C27.9497 4.99347 25.1673 7.77287 21.7357 7.77287C18.3041 7.77287 15.5217 4.99347 15.5217 1.56553L15.5217-8.62562ZM-12.5391-77.0079L-12.5391-72.491L56.5391-72.491L56.5391-77.0079L-12.5391-77.0079ZM-12.5391-71.3616L-12.5391-51.8777L56.5391-51.8777L56.5391-71.3616L-12.5391-71.3616ZM-11.6433-76.2601L55.6433-76.2601L55.6433-73.2387L-11.6433-73.2387L-11.6433-76.2601ZM-13.9355-69.9349L-13.9355-65.8648L-17.8205-65.8648L-13.9355-69.9349ZM57.9355-69.9349L61.8205-65.8648L57.9355-65.8648L57.9355-69.9349ZM-5.19446-65.084L-4.22323-65.084L-4.22323-57.3224L-5.19446-57.3224L-5.19446-65.084ZM-2.28077-65.084L-1.30954-65.084L-1.30954-57.3224L-2.28077-57.3224L-2.28077-65.084ZM45.3095-65.084L46.2808-65.084L46.2808-57.3224L45.3095-57.3224L45.3095-65.084ZM48.2232-65.084L49.1945-65.084L49.1945-57.3224L48.2232-57.3224L48.2232-65.084Z"/>
  </g>
  <g id="Thin-S" transform="matrix(1 0 0 1 834.695 696)">
   <path d="M-12.5277-59.1917L-12.5277-76.9032L56.5277-76.9032L56.5277-59.1917L57.0018-59.1917C60.863-59.1917 63.9931-56.0616 63.9931-52.2004C63.9931-48.3391 60.863-45.209 57.0018-45.209L-13.0018-45.209C-16.863-45.209-19.9931-48.3391-19.9931-52.2004C-19.9931-56.0616-16.863-59.1917-13.0018-59.1917L-12.5277-59.1917ZM63.9931-46.844L63.9931-19.8336C63.9931-15.1951 60.233-11.4349 55.5945-11.4349L-11.5945-11.4349C-16.233-11.4349-19.9931-15.1951-19.9931-19.8336L-19.9931-46.844C-18.7848-44.7522-16.5243-43.3446-13.9349-43.3446L57.9349-43.3446C60.5243-43.3446 62.7848-44.7522 63.9931-46.844L63.9931-46.844ZM15.7755-9.60617L27.7166-9.60617L27.7166 0.185734C27.7166 3.47937 25.0432 6.14988 21.7461 6.14988C18.4489 6.14988 15.7755 3.47937 15.7755 0.185734L15.7755-9.60617ZM-11.186-75.3094L-11.186-70.9695L55.186-70.9695L55.186-75.3094L-11.186-75.3094ZM-11.186-69.8843L-11.186-51.1637L55.186-51.1637L55.186-69.8843L-11.186-69.8843ZM-10.3252-74.591L54.3252-74.591L54.3252-71.6879L-10.3252-71.6879L-10.3252-74.591ZM-12.5277-68.5136L-12.5277-64.6029L-16.2604-64.6029L-12.5277-68.5136ZM56.5277-68.5136L60.2604-64.6029L56.5277-64.6029L56.5277-68.5136ZM-4.12907-63.8527L-3.19589-63.8527L-3.19589-56.3952L-4.12907-56.3952L-4.12907-63.8527ZM-1.32952-63.8527L-0.396344-63.8527L-0.396344-56.3952L-1.32952-56.3952L-1.32952-63.8527ZM44.3963-63.8527L45.3295-63.8527L45.3295-56.3952L44.3963-56.3952L44.3963-63.8527ZM47.1959-63.8527L48.1291-63.8527L48.1291-56.3952L47.1959-56.3952L47.1959-63.8527Z"/>
  </g>
  <g id="Ultralight-S" transform="matrix(1 0 0 1 538.184 696)">
   <path d="M-11.8066-58.6584L-11.8066-76L55.8066-76L55.8066-58.6584L56.2708-58.6584C60.0514-58.6584 63.1161-55.5936 63.1161-51.813C63.1161-48.0324 60.0514-44.9677 56.2708-44.9677L-12.2708-44.9677C-16.0514-44.9677-19.1161-48.0324-19.1161-51.813C-19.1161-55.5936-16.0514-58.6584-12.2708-58.6584L-11.8066-58.6584ZM63.1161-46.5685L63.1161-20.1222C63.1161-15.5806 59.4345-11.899 54.8929-11.899L-10.8929-11.899C-15.4345-11.899-19.1161-15.5806-19.1161-20.1222L-19.1161-46.5685C-17.9331-44.5205-15.7197-43.1422-13.1845-43.1422L57.1845-43.1422C59.7197-43.1422 61.9331-44.5205 63.1161-46.5685L63.1161-46.5685ZM15.9055-10.1084L27.5972-10.1084L27.5972-0.520993C27.5972 2.70386 24.9796 5.3186 21.7514 5.3186C18.523 5.3186 15.9055 2.70386 15.9055-0.520993L15.9055-10.1084ZM-10.4929-74.4395L-10.4929-70.1902L54.4929-70.1902L54.4929-74.4395L-10.4929-74.4395ZM-10.4929-69.1277L-10.4929-50.798L54.4929-50.798L54.4929-69.1277L-10.4929-69.1277ZM-9.65016-73.736L53.6502-73.736L53.6502-70.8936L-9.65016-70.8936L-9.65016-73.736ZM-11.8066-67.7856L-11.8066-63.9566L-15.4614-63.9566L-11.8066-67.7856ZM55.8066-67.7856L59.4614-63.9566L55.8066-63.9566L55.8066-67.7856ZM-3.58338-63.222L-2.66969-63.222L-2.66969-55.9203L-3.58338-55.9203L-3.58338-63.222ZM-0.842303-63.222L0.0713891-63.222L0.0713891-55.9203L-0.842303-55.9203L-0.842303-63.222ZM43.9286-63.222L44.8423-63.222L44.8423-55.9203L43.9286-55.9203L43.9286-63.222ZM46.6697-63.222L47.5834-63.222L47.5834-55.9203L46.6697-55.9203L46.6697-63.222Z"/>
  </g>
 </g>
</svg>
