<?xml version="1.0" encoding="UTF-8"?>
<!--Generator: Apple Native CoreSVG 232.5-->
<!DOCTYPE svg
PUBLIC "-//W3C//DTD SVG 1.1//EN"
       "http://www.w3.org/Graphics/SVG/1.1/DTD/svg11.dtd">
<svg version="1.1" xmlns="http://www.w3.org/2000/svg" xmlns:xlink="http://www.w3.org/1999/xlink" width="3300" height="2200">
 <g id="Notes">
  <rect height="2200" id="artboard" style="fill:white;opacity:1" width="3300" x="0" y="0"/>
  <line style="fill:none;stroke:black;opacity:1;stroke-width:0.5;" x1="263" x2="3036" y1="292" y2="292"/>
  <text style="stroke:none;fill:black;font-family:sans-serif;font-size:13;font-weight:bold;" transform="matrix(1 0 0 1 263 322)">Weight/Scale Variations</text>
  <text style="stroke:none;fill:black;font-family:sans-serif;font-size:13;text-anchor:middle;" transform="matrix(1 0 0 1 559.711 322)">Ultralight</text>
  <text style="stroke:none;fill:black;font-family:sans-serif;font-size:13;text-anchor:middle;" transform="matrix(1 0 0 1 856.422 322)">Thin</text>
  <text style="stroke:none;fill:black;font-family:sans-serif;font-size:13;text-anchor:middle;" transform="matrix(1 0 0 1 1153.13 322)">Light</text>
  <text style="stroke:none;fill:black;font-family:sans-serif;font-size:13;text-anchor:middle;" transform="matrix(1 0 0 1 1449.84 322)">Regular</text>
  <text style="stroke:none;fill:black;font-family:sans-serif;font-size:13;text-anchor:middle;" transform="matrix(1 0 0 1 1746.56 322)">Medium</text>
  <text style="stroke:none;fill:black;font-family:sans-serif;font-size:13;text-anchor:middle;" transform="matrix(1 0 0 1 2043.27 322)">Semibold</text>
  <text style="stroke:none;fill:black;font-family:sans-serif;font-size:13;text-anchor:middle;" transform="matrix(1 0 0 1 2339.98 322)">Bold</text>
  <text style="stroke:none;fill:black;font-family:sans-serif;font-size:13;text-anchor:middle;" transform="matrix(1 0 0 1 2636.69 322)">Heavy</text>
  <text style="stroke:none;fill:black;font-family:sans-serif;font-size:13;text-anchor:middle;" transform="matrix(1 0 0 1 2933.4 322)">Black</text>
  <line style="fill:none;stroke:black;opacity:1;stroke-width:0.5;" x1="263" x2="3036" y1="1903" y2="1903"/>
  <g transform="matrix(0.2 0 0 0.2 263 1933)">
   <path d="m46.2402 4.15039c21.5332 0 39.4531-17.8711 39.4531-39.4043s-17.9688-39.4043-39.502-39.4043c-21.4844 0-39.3555 17.8711-39.3555 39.4043s17.9199 39.4043 39.4043 39.4043Zm0-7.42188c-17.7246 0-31.8848-14.209-31.8848-31.9824s14.1113-31.9824 31.8359-31.9824c17.7734 0 32.0312 14.209 32.0312 31.9824s-14.209 31.9824-31.9824 31.9824Zm-17.9688-31.9824c0 2.14844 1.51367 3.61328 3.75977 3.61328h10.498v10.5957c0 2.19727 1.46484 3.71094 3.61328 3.71094 2.24609 0 3.71094-1.51367 3.71094-3.71094v-10.5957h10.5957c2.19727 0 3.71094-1.46484 3.71094-3.61328 0-2.19727-1.51367-3.71094-3.71094-3.71094h-10.5957v-10.5469c0-2.24609-1.46484-3.75977-3.71094-3.75977-2.14844 0-3.61328 1.51367-3.61328 3.75977v10.5469h-10.498c-2.24609 0-3.75977 1.51367-3.75977 3.71094Z"/>
  </g>
  <g transform="matrix(0.2 0 0 0.2 281.506 1933)">
   <path d="m58.5449 14.5508c27.2461 0 49.8047-22.6074 49.8047-49.8047 0-27.2461-22.6074-49.8047-49.8535-49.8047-27.1973 0-49.7559 22.5586-49.7559 49.8047 0 27.1973 22.6074 49.8047 49.8047 49.8047Zm0-8.30078c-23.0469 0-41.4551-18.457-41.4551-41.5039s18.3594-41.5039 41.4062-41.5039 41.5527 18.457 41.5527 41.5039-18.457 41.5039-41.5039 41.5039Zm-22.6562-41.5039c0 2.39258 1.66016 4.00391 4.15039 4.00391h14.3555v14.4043c0 2.44141 1.66016 4.15039 4.05273 4.15039 2.44141 0 4.15039-1.66016 4.15039-4.15039v-14.4043h14.4043c2.44141 0 4.15039-1.61133 4.15039-4.00391 0-2.44141-1.70898-4.15039-4.15039-4.15039h-14.4043v-14.3555c0-2.49023-1.70898-4.19922-4.15039-4.19922-2.39258 0-4.05273 1.70898-4.05273 4.19922v14.3555h-14.3555c-2.49023 0-4.15039 1.70898-4.15039 4.15039Z"/>
  </g>
  <g transform="matrix(0.2 0 0 0.2 304.924 1933)">
   <path d="m74.8535 28.3203c34.8145 0 63.623-28.8086 63.623-63.5742 0-34.8145-28.8574-63.623-63.6719-63.623-34.7656 0-63.5254 28.8086-63.5254 63.623 0 34.7656 28.8086 63.5742 63.5742 63.5742Zm0-9.08203c-30.1758 0-54.4434-24.3164-54.4434-54.4922 0-30.2246 24.2188-54.4922 54.3945-54.4922 30.2246 0 54.541 24.2676 54.541 54.4922 0 30.1758-24.2676 54.4922-54.4922 54.4922Zm-28.8574-54.4922c0 2.58789 1.85547 4.39453 4.58984 4.39453h19.7266v19.7754c0 2.68555 1.85547 4.58984 4.44336 4.58984 2.68555 0 4.54102-1.85547 4.54102-4.58984v-19.7754h19.7754c2.68555 0 4.58984-1.80664 4.58984-4.39453 0-2.73438-1.85547-4.58984-4.58984-4.58984h-19.7754v-19.7266c0-2.73438-1.85547-4.63867-4.54102-4.63867-2.58789 0-4.44336 1.9043-4.44336 4.63867v19.7266h-19.7266c-2.73438 0-4.58984 1.85547-4.58984 4.58984Z"/>
  </g>
  <text style="stroke:none;fill:black;font-family:sans-serif;font-size:13;font-weight:bold;" transform="matrix(1 0 0 1 263 1953)">Design Variations</text>
  <text style="stroke:none;fill:black;font-family:sans-serif;font-size:13;" transform="matrix(1 0 0 1 263 1971)">Symbols are supported in up to nine weights and three scales.</text>
  <text style="stroke:none;fill:black;font-family:sans-serif;font-size:13;" transform="matrix(1 0 0 1 263 1989)">For optimal layout with text and other symbols, vertically align</text>
  <text style="stroke:none;fill:black;font-family:sans-serif;font-size:13;" transform="matrix(1 0 0 1 263 2007)">symbols with the adjacent text.</text>
  <line style="fill:none;stroke:#00AEEF;stroke-width:0.5;opacity:1.0;" x1="776" x2="776" y1="1919" y2="1933"/>
  <g transform="matrix(0.2 0 0 0.2 776 1933)">
   <path d="m16.5527 0.78125c2.58789 0 3.85742-0.976562 4.78516-3.71094l6.29883-17.2363h28.8086l6.29883 17.2363c0.927734 2.73438 2.19727 3.71094 4.73633 3.71094 2.58789 0 4.24805-1.5625 4.24805-4.00391 0-0.830078-0.146484-1.61133-0.537109-2.63672l-22.9004-60.9863c-1.12305-2.97852-3.125-4.49219-6.25-4.49219-3.02734 0-5.07812 1.46484-6.15234 4.44336l-22.9004 61.084c-0.390625 1.02539-0.537109 1.80664-0.537109 2.63672 0 2.44141 1.5625 3.95508 4.10156 3.95508Zm13.4766-28.3691 11.8652-32.8613h0.244141l11.8652 32.8613Z"/>
  </g>
  <line style="fill:none;stroke:#00AEEF;stroke-width:0.5;opacity:1.0;" x1="792.836" x2="792.836" y1="1919" y2="1933"/>
  <text style="stroke:none;fill:black;font-family:sans-serif;font-size:13;font-weight:bold;" transform="matrix(1 0 0 1 776 1953)">Margins</text>
  <text style="stroke:none;fill:black;font-family:sans-serif;font-size:13;" transform="matrix(1 0 0 1 776 1971)">Leading and trailing margins on the left and right side of each symbol</text>
  <text style="stroke:none;fill:black;font-family:sans-serif;font-size:13;" transform="matrix(1 0 0 1 776 1989)">can be adjusted by modifying the x-location of the margin guidelines.</text>
  <text style="stroke:none;fill:black;font-family:sans-serif;font-size:13;" transform="matrix(1 0 0 1 776 2007)">Modifications are automatically applied proportionally to all</text>
  <text style="stroke:none;fill:black;font-family:sans-serif;font-size:13;" transform="matrix(1 0 0 1 776 2025)">scales and weights.</text>
  <g transform="matrix(0.2 0 0 0.2 1289 1933)">
   <path d="m14.209 9.32617 8.49609 8.54492c4.29688 4.3457 9.22852 4.05273 13.8672-1.07422l53.4668-58.9355-4.83398-4.88281-53.0762 58.3984c-1.75781 2.00195-3.41797 2.49023-5.76172 0.146484l-5.85938-5.81055c-2.34375-2.29492-1.80664-4.00391 0.195312-5.81055l57.373-54.0039-4.88281-4.83398-57.959 54.4434c-4.93164 4.58984-5.32227 9.47266-1.02539 13.8184Zm32.0801-90.9668c-2.09961 2.05078-2.24609 4.93164-1.07422 6.88477 1.17188 1.80664 3.4668 2.97852 6.68945 2.14844 7.32422-1.70898 14.9414-2.00195 22.0703 2.68555l-2.92969 7.27539c-1.70898 4.15039-0.830078 7.08008 1.85547 9.81445l11.4746 11.5723c2.44141 2.44141 4.49219 2.53906 7.32422 2.05078l5.32227-0.976562 3.32031 3.36914-0.195312 2.7832c-0.195312 2.49023 0.439453 4.39453 2.88086 6.78711l3.80859 3.71094c2.39258 2.39258 5.46875 2.53906 7.8125 0.195312l14.5508-14.5996c2.34375-2.34375 2.24609-5.32227-0.146484-7.71484l-3.85742-3.80859c-2.39258-2.39258-4.24805-3.17383-6.64062-2.97852l-2.88086 0.244141-3.22266-3.17383 1.2207-5.61523c0.634766-2.83203-0.146484-5.0293-3.07617-7.95898l-10.9863-10.9375c-16.6992-16.6016-38.8672-16.2109-53.3203-1.75781Zm7.4707 1.85547c12.1582-8.88672 28.6133-7.37305 39.7461 3.75977l12.1582 12.0605c1.17188 1.17188 1.36719 2.09961 1.02539 3.80859l-1.61133 7.42188 7.51953 7.42188 4.93164-0.292969c1.26953-0.0488281 1.66016 0.0488281 2.63672 1.02539l2.88086 2.88086-12.207 12.207-2.88086-2.88086c-0.976562-0.976562-1.12305-1.36719-1.07422-2.68555l0.341797-4.88281-7.4707-7.42188-7.61719 1.26953c-1.61133 0.341797-2.34375 0.195312-3.56445-0.976562l-10.0098-10.0098c-1.26953-1.17188-1.41602-2.00195-0.634766-3.85742l4.39453-10.4492c-7.8125-7.27539-17.9688-10.4004-28.125-7.42188-0.78125 0.195312-1.07422-0.439453-0.439453-0.976562Z"/>
  </g>
  <text style="stroke:none;fill:black;font-family:sans-serif;font-size:13;font-weight:bold;" transform="matrix(1 0 0 1 1289 1953)">Exporting</text>
  <text style="stroke:none;fill:black;font-family:sans-serif;font-size:13;" transform="matrix(1 0 0 1 1289 1971)">Symbols should be outlined when exporting to ensure the</text>
  <text style="stroke:none;fill:black;font-family:sans-serif;font-size:13;" transform="matrix(1 0 0 1 1289 1989)">design is preserved when submitting to Xcode.</text>
  <text id="template-version" style="stroke:none;fill:black;font-family:sans-serif;font-size:13;text-anchor:end;" transform="matrix(1 0 0 1 3036 1933)">Template v.2.0</text>
  <text style="stroke:none;fill:black;font-family:sans-serif;font-size:13;text-anchor:end;" transform="matrix(1 0 0 1 3036 1951)">Requires Xcode 12 or greater</text>
  <text id="descriptive-name" style="stroke:none;fill:black;font-family:sans-serif;font-size:13;text-anchor:end;" transform="matrix(1 0 0 1 3036 1969)">Generated from wind</text>
  <text style="stroke:none;fill:black;font-family:sans-serif;font-size:13;text-anchor:end;" transform="matrix(1 0 0 1 3036 1987)">Typeset at 100.0 points</text>
  <text style="stroke:none;fill:black;font-family:sans-serif;font-size:13;" transform="matrix(1 0 0 1 263 726)">Small</text>
  <text style="stroke:none;fill:black;font-family:sans-serif;font-size:13;" transform="matrix(1 0 0 1 263 1156)">Medium</text>
  <text style="stroke:none;fill:black;font-family:sans-serif;font-size:13;" transform="matrix(1 0 0 1 263 1586)">Large</text>
 </g>
 <g id="Guides">
  <g id="H-reference" style="fill:#27AAE1;stroke:none;" transform="matrix(1 0 0 1 339 696)">
   <path d="M0.993654 0L3.63775 0L29.3281-67.1323L30.0303-67.1323L30.0303-70.459L28.1226-70.459ZM11.6885-24.4799L46.9815-24.4799L46.2315-26.7285L12.4385-26.7285ZM55.1196 0L57.7637 0L30.6382-70.459L29.4326-70.459L29.4326-67.1323Z"/>
  </g>
  <line id="Baseline-S" style="fill:none;stroke:#27AAE1;opacity:1;stroke-width:0.5;" x1="263" x2="3036" y1="696" y2="696"/>
  <line id="Capline-S" style="fill:none;stroke:#27AAE1;opacity:1;stroke-width:0.5;" x1="263" x2="3036" y1="625.541" y2="625.541"/>
  <g id="H-reference" style="fill:#27AAE1;stroke:none;" transform="matrix(1 0 0 1 339 1126)">
   <path d="M0.993654 0L3.63775 0L29.3281-67.1323L30.0303-67.1323L30.0303-70.459L28.1226-70.459ZM11.6885-24.4799L46.9815-24.4799L46.2315-26.7285L12.4385-26.7285ZM55.1196 0L57.7637 0L30.6382-70.459L29.4326-70.459L29.4326-67.1323Z"/>
  </g>
  <line id="Baseline-M" style="fill:none;stroke:#27AAE1;opacity:1;stroke-width:0.5;" x1="263" x2="3036" y1="1126" y2="1126"/>
  <line id="Capline-M" style="fill:none;stroke:#27AAE1;opacity:1;stroke-width:0.5;" x1="263" x2="3036" y1="1055.54" y2="1055.54"/>
  <g id="H-reference" style="fill:#27AAE1;stroke:none;" transform="matrix(1 0 0 1 339 1556)">
   <path d="M0.993654 0L3.63775 0L29.3281-67.1323L30.0303-67.1323L30.0303-70.459L28.1226-70.459ZM11.6885-24.4799L46.9815-24.4799L46.2315-26.7285L12.4385-26.7285ZM55.1196 0L57.7637 0L30.6382-70.459L29.4326-70.459L29.4326-67.1323Z"/>
  </g>
  <line id="Baseline-L" style="fill:none;stroke:#27AAE1;opacity:1;stroke-width:0.5;" x1="263" x2="3036" y1="1556" y2="1556"/>
  <line id="Capline-L" style="fill:none;stroke:#27AAE1;opacity:1;stroke-width:0.5;" x1="263" x2="3036" y1="1485.54" y2="1485.54"/>
  <line id="left-margin" style="fill:none;stroke:#00AEEF;stroke-width:0.5;opacity:1.0;" x1="1388.79" x2="1388.79" y1="1030.79" y2="1150.12"/>
  <line id="right-margin" style="fill:none;stroke:#00AEEF;stroke-width:0.5;opacity:1.0;" x1="1510.9" x2="1510.9" y1="1030.79" y2="1150.12"/>
 </g>
 <g id="Symbols">
  <g id="Black-L" transform="matrix(1 0 0 1 2851.87 1556)">
   <path d="M24.9281-53.965C34.0256-56.598 43.4383-57.8979 52.3912-57.8979C63.6103-57.8979 72.2468-56.1959 83.1074-56.1959C95.2997-56.1959 103.908-64.7957 103.908-76.2724C103.908-87.7501 95.1715-96.2697 83.936-96.2697C76.4954-96.2697 69.3877-91.8691 66.0321-85.3612C64.3157-82.0565 65.0522-78.398 68.1649-76.5255C71.3869-74.5791 75.4714-75.7469 77.5256-79.4274C78.7127-81.6767 81.3097-83.2975 83.936-83.2975C88.033-83.2975 90.9574-80.6104 90.9574-76.2724C90.9574-71.8885 87.975-69.1682 83.1074-69.1682C73.2287-69.1682 64.1692-70.8689 52.3912-70.8689C42.1983-70.8689 31.4969-69.229 21.1432-66.4171C17.3239-65.3645 15.3726-61.8256 16.3825-58.248C17.3923-54.6352 20.8699-52.7747 24.9281-53.965ZM124.554-21.3707C140.337-21.3707 151.8-31.7965 151.8-46.0907C151.8-60.1603 141.049-70.6707 127.222-70.6707C116.609-70.6707 107.216-63.7949 104.101-54.0264C102.865-50.3811 104.285-46.7879 107.591-45.5741C111.152-44.2435 114.976-46.0115 116.429-50.0726C117.879-54.6046 122.428-57.7205 127.222-57.7205C133.853-57.7205 138.85-52.9426 138.85-46.0907C138.85-39.0725 133.217-34.3209 124.554-34.3209C105.593-34.3209 84.0629-45.258 58.6494-45.258C45.4991-45.258 33.0784-43.2588 21.0848-39.3903C17.2875-38.1428 15.3726-34.7392 16.3825-31.2211C17.4507-27.5267 21.0659-25.6674 25.0437-27.0746C35.7475-30.7162 46.6061-32.3078 58.6494-32.3078C83.2356-32.3078 102.427-21.3707 124.554-21.3707ZM83.1902 25.7123C94.3041 25.7123 102.782 17.2987 102.782 5.87588C102.782-10.5189 86.055-19.6483 56.5-19.6483C44.9581-19.6483 32.1746-17.5043 21.086-13.8586C17.2875-12.6123 15.3726-9.20748 16.3825-5.68946C17.4507-1.99742 21.0659-0.135755 25.0437-1.5417C34.8913-4.9337 45.5754-6.69693 56.5-6.69693C77.5574-6.69693 89.8315-1.69685 89.8315 5.87588C89.8315 10.1603 87.0656 12.7609 83.1902 12.7609C80.0008 12.7609 77.7259 10.7414 76.4325 7.25006C74.963 3.80483 71.4375 2.18188 67.9466 3.52808C64.3932 4.87547 63.0785 8.80877 64.6451 12.5293C67.522 20.2198 74.5741 25.7123 83.1902 25.7123Z"/>
  </g>
  <g id="Heavy-L" transform="matrix(1 0 0 1 2555.86 1556)">
   <path d="M24.1244-53.7947C33.1915-56.5127 42.6175-57.8611 51.5733-57.8611C62.9425-57.8611 71.5338-56.1106 82.4491-56.1106C94.4036-56.1106 102.632-64.4753 102.632-75.5693C102.632-86.7215 94.153-94.9532 83.3003-94.9532C75.8939-94.9532 68.9831-90.5007 65.8299-84.0964C64.2949-81.1011 64.957-77.7686 67.8343-76.0952C70.738-74.3987 74.3962-75.438 76.2605-78.8063C77.4713-81.3298 80.3039-83.2121 83.3003-83.2121C87.6913-83.2121 90.9263-80.2542 90.9263-75.5693C90.9263-70.8307 87.6758-67.8517 82.4491-67.8517C72.3888-67.8517 63.4595-69.5966 51.5733-69.5966C41.361-69.5966 30.7606-67.9075 20.6578-65.0388C17.1645-64.054 15.4454-60.8511 16.3643-57.6281C17.2831-54.4019 20.4011-52.6904 24.1244-53.7947ZM123.576-22.0012C139.098-22.0012 150.248-32.1451 150.248-46.0941C150.248-59.8387 139.742-70.0563 126.297-70.0563C115.517-70.0563 106.357-62.9247 103.644-53.0034C102.61-49.6383 104.022-46.4367 107.052-45.438C110.291-44.35 113.66-46.0193 114.889-49.783C116.224-54.8384 121.023-58.351 126.297-58.351C133.236-58.351 138.543-53.3022 138.543-46.0941C138.543-38.7262 132.655-33.7065 123.576-33.7065C104.521-33.7065 83.1806-44.6436 57.7913-44.6436C44.6751-44.6436 32.405-42.6184 20.6132-38.719C17.1556-37.5757 15.4454-34.481 16.3643-31.3083C17.3277-27.996 20.5651-26.2901 24.2081-27.5886C34.8198-31.3142 45.6586-32.9383 57.7913-32.9383C82.5109-32.9383 101.651-22.0012 123.576-22.0012ZM82.5407 24.4239C93.2818 24.4239 101.506 16.3253 101.506 5.20086C101.506-10.7896 85.1721-19.6962 56.0331-19.6962C44.4309-19.6962 31.6193-17.5179 20.6188-13.8408C17.1556-12.7031 15.4454-9.6028 16.3643-6.43006C17.3277-3.12906 20.5651-1.41193 24.2081-2.70479C34.1224-6.14978 44.9926-7.98528 56.0331-7.98528C77.5295-7.98528 89.8004-2.785 89.8004 5.20086C89.8004 9.86356 86.7151 12.713 82.5407 12.713C78.8997 12.713 76.4179 10.3638 75.2209 6.42569C74.0079 3.2706 70.9484 1.60751 67.687 2.67415C64.335 3.7464 63.0788 7.28866 64.3565 10.6826C66.8154 18.6272 73.722 24.4239 82.5407 24.4239Z"/>
  </g>
  <g id="Bold-L" transform="matrix(1 0 0 1 2260.02 1556)">
   <path d="M23.0809-53.6094C32.0873-56.4573 41.5361-57.8896 50.5218-57.8896C62.15-57.8896 70.68-56.0552 81.7314-56.0552C93.3342-56.0552 101.116-64.0982 101.116-74.7158C101.116-85.4236 92.9897-93.3093 82.6133-93.3093C75.2156-93.3093 68.5357-88.7505 65.6733-82.4246C64.3761-79.8208 64.9684-76.9253 67.5313-75.5203C70.0281-74.146 73.1264-75.039 74.7302-77.9857C75.9569-80.907 79.1038-83.1567 82.6133-83.1567C87.4029-83.1567 91.0145-79.8235 91.0145-74.7158C91.0145-69.5243 87.4187-66.2078 81.7314-66.2078C71.3662-66.2078 62.6282-68.0289 50.5218-68.0289C40.3014-68.0289 29.8164-66.2634 20.0211-63.2883C16.9648-62.3954 15.5376-59.6298 16.3412-56.8598C17.1449-54.125 19.8097-52.6202 23.0809-53.6094ZM122.474-22.8296C137.688-22.8296 148.424-32.6127 148.424-46.1166C148.424-59.4093 138.248-69.2807 125.286-69.2807C114.343-69.2807 105.46-61.8414 103.225-51.7654C102.429-48.7834 103.804-46.0734 106.466-45.3286C109.283-44.5254 112.083-46.0494 113.043-49.3921C114.24-55.108 119.368-59.1794 125.286-59.1794C132.631-59.1794 138.323-53.7553 138.323-46.1166C138.323-38.2959 132.113-32.9309 122.474-32.9309C103.274-32.9309 82.1267-43.868 56.7458-43.868C43.6383-43.868 31.5527-41.7897 19.9919-37.8369C16.9868-36.8317 15.5376-34.136 16.3412-31.4084C17.1741-28.5799 19.9353-27.0884 23.1261-28.2413C33.6375-32.1115 44.4756-33.7667 56.7458-33.7667C81.612-33.7667 100.78-22.8296 122.474-22.8296ZM81.8383 22.8034C92.1034 22.8034 99.99 15.0891 99.99 4.37081C99.99-11.0978 84.1256-19.7204 55.5536-19.7204C43.8225-19.7204 30.9204-17.4663 20.0052-13.7432C16.9868-12.7512 15.5376-10.0423 16.3412-7.31473C17.1741-4.51273 19.9353-2.99476 23.1261-4.13435C33.1473-7.67075 44.3299-9.60583 55.5536-9.60583C77.5731-9.60583 89.8886-4.15214 89.8886 4.37081C89.8886 9.50222 86.4114 12.6888 81.8383 12.6888C77.6439 12.6888 74.8637 9.95472 73.7747 5.46337C72.8618 2.69173 70.3637 1.03459 67.4314 1.77779C64.385 2.53423 63.2129 5.57748 64.1594 8.54191C66.1482 16.7494 72.8704 22.8034 81.8383 22.8034Z"/>
  </g>
  <g id="Semibold-L" transform="matrix(1 0 0 1 1963.91 1556)">
   <path d="M22.3615-53.4818C31.326-56.4191 40.7906-57.9092 49.7969-57.9092C61.6036-57.9092 70.0913-56.017 81.2367-56.017C92.597-56.017 100.071-63.8382 100.071-74.1275C100.071-84.5289 92.1877-92.1759 82.1397-92.1759C74.748-92.1759 68.2273-87.5439 65.5653-81.272C64.4321-78.9383 64.9762-76.344 67.3224-75.1239C69.5388-73.9718 72.251-74.7638 73.6753-77.42C74.9128-80.6155 78.2764-83.1186 82.1397-83.1186C87.204-83.1186 91.0754-79.5267 91.0754-74.1275C91.0754-68.6237 87.2415-65.0744 81.2367-65.0744C70.6613-65.0744 62.055-66.9481 49.7969-66.9481C39.5708-66.9481 29.1655-65.13 19.5822-62.0814C16.8271-61.252 15.6011-58.7878 16.3253-56.33C17.0496-53.934 19.4021-52.5718 22.3615-53.4818ZM121.714-23.4007C136.716-23.4007 147.166-32.9351 147.166-46.1321C147.166-59.1133 137.217-68.746 124.589-68.746C113.534-68.746 104.842-61.0946 102.936-50.9119C102.304-48.194 103.653-45.8229 106.062-45.2531C108.588-44.6463 110.996-46.0701 111.77-49.1226C112.872-55.2938 118.227-59.7505 124.589-59.7505C132.215-59.7505 138.171-54.0676 138.171-46.1321C138.171-37.9993 131.738-32.3962 121.714-32.3962C102.414-32.3962 81.4001-43.3333 56.025-43.3333C42.9235-43.3333 30.9651-41.2183 19.5636-37.2288C16.8703-36.3187 15.6011-33.8982 16.3253-31.4774C17.0681-28.9825 19.5012-27.6388 22.3802-28.6912C32.8224-32.6612 43.66-34.3378 56.025-34.3378C80.9922-34.3378 100.179-23.4007 121.714-23.4007ZM81.3541 21.6862C91.291 21.6862 98.945 14.2369 98.945 3.79857C98.945-11.3103 83.4042-19.737 55.2231-19.737C43.4031-19.737 30.4385-17.4306 19.5821-13.676C16.8703-12.7844 15.6011-10.3454 16.3253-7.92461C17.0681-5.46663 19.5012-4.08595 22.3802-5.11988C32.475-8.71929 43.8731-10.723 55.2231-10.723C77.6032-10.723 89.9495-5.09464 89.9495 3.79857C89.9495 9.25312 86.202 12.6722 81.3541 12.6722C76.7781 12.6722 73.7922 9.67271 72.7776 4.79995C72.0717 2.29266 69.9607 0.639625 67.2551 1.15985C64.4195 1.69856 63.3054 4.3978 64.0235 7.06612C65.6881 15.4548 72.2833 21.6862 81.3541 21.6862Z"/>
  </g>
  <g id="Medium-L" transform="matrix(1 0 0 1 1667.66 1556)">
   <path d="M21.816-53.3849C30.7488-56.3902 40.2253-57.924 49.2472-57.924C61.1893-57.924 69.645-55.9881 80.8616-55.9881C92.0381-55.9881 99.2786-63.641 99.2786-73.6813C99.2786-83.8505 91.5796-91.3166 81.7806-91.3166C74.3935-91.3166 67.9935-86.629 65.4835-80.3981C64.4746-78.2691 64.9822-75.9032 67.164-74.8233C69.1677-73.8397 71.5872-74.5553 72.8754-76.991C74.1211-80.3945 77.6491-83.0896 81.7806-83.0896C87.0532-83.0896 91.1215-79.3016 91.1215-73.6813C91.1215-67.9408 87.1071-64.2151 80.8616-64.2151C70.1268-64.2151 61.6205-66.1285 49.2472-66.1285C39.0169-66.1285 28.672-64.2705 19.2494-61.1663C16.7227-60.3849 15.6493-58.1494 16.3133-55.9284C16.9773-53.7892 19.093-52.5351 21.816-53.3849ZM121.138-23.8337C135.979-23.8337 146.213-33.1795 146.213-46.1438C146.213-58.8889 136.436-68.3406 124.061-68.3406C112.921-68.3406 104.373-60.5283 102.716-50.2648C102.209-47.7471 103.539-45.6329 105.755-45.1959C108.06-44.7379 110.172-46.0859 110.805-48.9183C111.834-55.4347 117.362-60.1835 124.061-60.1835C131.899-60.1835 138.056-54.3045 138.056-46.1438C138.056-37.7744 131.455-31.9908 121.138-31.9908C101.762-31.9908 80.8492-42.9279 55.4785-42.9279C42.3815-42.9279 30.5195-40.7851 19.2389-36.7677C16.7821-35.9298 15.6493-33.7178 16.3133-31.5298C16.9878-29.2877 19.1719-28.0561 21.8146-29.0323C32.2044-33.078 43.0416-34.7708 55.4785-34.7708C80.5223-34.7708 99.724-23.8337 121.138-23.8337ZM80.9869 20.8391C90.6751 20.8391 98.1527 13.5907 98.1527 3.36468C98.1527-11.4714 82.8572-19.7497 54.9725-19.7497C43.0851-19.7497 30.0732-17.4036 19.2614-13.625C16.7821-12.8095 15.6493-10.5751 16.3133-8.38705C16.9878-6.18991 19.1719-4.91334 21.8146-5.86715C31.9653-9.51435 43.5267-11.5701 54.9725-11.5701C77.6261-11.5701 89.9956-5.80928 89.9956 3.36468C89.9956 9.06424 86.0432 12.6596 80.9869 12.6596C76.1217 12.6596 72.9798 9.45887 72.0216 4.29692C71.4727 1.99006 69.6551 0.340145 67.1215 0.691302C64.4456 1.06492 63.3755 3.50333 63.9205 5.94712C65.3393 14.4732 71.8382 20.8391 80.9869 20.8391Z"/>
  </g>
  <g id="Regular-L" transform="matrix(1 0 0 1 1371.55 1556)">
   <path d="M21.1045-53.2587C29.9958-56.3525 39.4879-57.9434 48.5303-57.9434C60.649-57.9434 69.0629-55.9504 80.3723-55.9504C91.309-55.9504 98.2451-63.3839 98.2451-73.0994C98.2451-82.9656 90.7864-90.1957 81.3122-90.1957C73.931-90.1957 67.6885-85.4356 65.3767-79.2582C64.5299-77.3962 64.9899-75.3282 66.9574-74.4313C68.6837-73.6675 70.7215-74.2832 71.8321-76.4316C73.0886-80.1062 76.8308-83.0519 81.3122-83.0519C86.8565-83.0519 91.1817-79.0079 91.1817-73.0994C91.1817-67.0501 86.9318-63.0942 80.3723-63.0942C69.4297-63.0942 61.0536-65.0596 48.5303-65.0596C38.2944-65.0596 28.0283-63.1495 18.8153-59.9727C16.5865-59.2541 15.7121-57.3167 16.2976-55.4045C16.8831-53.6003 18.6898-52.4872 21.1045-53.2587ZM120.386-24.3985C135.017-24.3985 144.969-33.4983 144.969-46.1591C144.969-58.5962 135.417-67.8117 123.372-67.8117C112.121-67.8117 103.762-59.7897 102.43-49.4207C102.086-47.1642 103.39-45.3852 105.355-45.1213C107.373-44.8575 109.097-46.1064 109.546-48.6518C110.481-55.6185 116.234-60.7483 123.372-60.7483C131.487-60.7483 137.906-54.6134 137.906-46.1591C137.906-37.4811 131.085-31.4619 120.386-31.4619C100.912-31.4619 80.1306-42.399 54.7656-42.399C41.6746-42.399 29.9384-40.22 18.8153-36.1663C16.6669-35.4225 15.7121-33.4826 16.2976-31.598C16.8831-29.6858 18.7425-28.6003 21.0769-29.4773C31.3983-33.6217 42.235-35.3356 54.7656-35.3356C79.9094-35.3356 99.1301-24.3985 120.386-24.3985ZM80.508 19.7342C89.8716 19.7342 97.1192 12.7479 97.1192 2.79873C97.1192-11.6816 82.1437-19.7661 54.6455-19.7661C42.6702-19.7661 29.5967-17.3684 18.843-13.5585C16.6669-12.8424 15.7121-10.8748 16.2976-8.99024C16.8831-7.13332 18.7425-5.99254 21.0769-6.84185C31.3004-10.5514 43.0749-12.675 54.6455-12.675C77.6558-12.675 90.0558-6.74142 90.0558 2.79873C90.0558 8.81787 85.8361 12.6431 80.508 12.6431C75.2654 12.6431 71.9201 9.17996 71.0355 3.64079C70.6913 1.59538 69.2565-0.0504823 66.9472 0.0801508C64.4797 0.238441 63.467 2.33661 63.7861 4.48755C64.8844 13.1929 71.2575 19.7342 80.508 19.7342Z"/>
  </g>
  <g id="Light-L" transform="matrix(1 0 0 1 1075.52 1556)">
   <path d="M20.0739-53.2968C28.7744-56.6388 38.3237-58.4396 47.5569-58.4396C60.3245-58.4396 68.6621-56.2367 80.5059-56.2367C90.8318-56.2367 97.6153-63.2503 97.6153-72.6223C97.6153-81.9159 90.6147-88.9743 81.484-88.9743C73.8928-88.9743 67.7266-83.8707 65.8729-77.426C65.2743-75.8885 65.8296-74.3358 67.4346-73.7633C68.7982-73.3048 70.2443-73.9015 71.0114-75.5345C72.1916-79.8581 76.2965-83.3382 81.484-83.3382C87.5244-83.3382 92.0596-78.7789 92.0596-72.6223C92.0596-66.1722 87.4853-61.8727 80.5059-61.8727C68.838-61.8727 60.7864-64.029 47.5569-64.029C37.4165-64.029 27.1695-61.9662 18.1473-58.4841C16.4338-57.8799 15.7884-56.3815 16.2785-54.8701C16.7686-53.4858 18.2127-52.659 20.0739-53.2968ZM120.329-25.2764C134.846-25.2764 144.339-34.0518 144.339-46.2927C144.339-58.1 135.188-67.1819 123.544-67.1819C112.464-67.1819 104.22-59.0072 103.079-48.7527C102.83-46.9924 103.925-45.5951 105.47-45.4267C107.049-45.2583 108.352-46.2591 108.669-48.1746C109.527-55.6757 115.642-61.6262 123.544-61.6262C132.098-61.6262 138.784-54.9761 138.784-46.2927C138.784-37.1757 131.696-30.8321 120.329-30.8321C100.568-30.8321 79.6535-41.7692 54.1548-41.7692C40.8539-41.7692 29.2322-39.4185 18.1473-35.2311C16.5142-34.64 15.7884-33.0818 16.2785-31.6171C16.7686-30.1057 18.2463-29.3256 20.0272-30.0308C30.3677-34.5378 41.357-36.2135 54.1548-36.2135C79.2795-36.2135 99.111-25.2764 120.329-25.2764ZM80.6798 18.4555C89.6235 18.4555 96.4894 11.6982 96.4894 2.26435C96.4894-11.7197 81.7238-19.5562 54.9509-19.5562C42.5366-19.5562 29.0432-16.8913 18.1941-13.005C16.5142-12.4606 15.7884-10.8557 16.2785-9.39103C16.7686-7.97308 18.2463-7.09949 20.0272-7.75794C30.4797-11.6965 42.9985-13.9538 54.9509-13.9538C78.1902-13.9538 90.9337-7.8102 90.9337 2.26435C90.9337 8.60793 86.4659 12.8531 80.6798 12.8531C75.0936 12.8531 71.2712 9.27538 70.3866 3.35451C70.1378 1.72898 68.9893 0.445735 67.1953 0.500027C65.3004 0.601061 64.4213 2.26027 64.6832 3.95316C65.7623 12.5058 71.9828 18.4555 80.6798 18.4555Z"/>
  </g>
  <g id="Thin-L" transform="matrix(1 0 0 1 779.72 1556)">
   <path d="M18.7109-53.3473C27.1589-57.0174 36.784-59.0959 46.2696-59.0959C59.8954-59.0959 68.132-56.6153 80.6825-56.6153C90.2008-56.6153 96.7823-63.0736 96.7823-71.9913C96.7823-80.5276 90.3875-87.3588 81.7111-87.3588C73.8424-87.3588 67.7771-81.8008 66.5292-75.0028C66.2587-73.8944 66.9403-73.0232 68.0656-72.8798C68.9497-72.8253 69.6133-73.3966 69.926-74.3482C71.0052-79.5299 75.5897-83.7168 81.7111-83.7168C88.4079-83.7168 93.2207-78.476 93.2207-71.9913C93.2207-65.011 88.2173-60.2573 80.6825-60.2573C68.0555-60.2573 60.433-62.6659 46.2696-62.6659C36.2553-62.6659 26.0336-60.4012 17.2639-56.5152C16.2319-56.0625 15.8894-55.1447 16.2533-54.1633C16.6171-53.3344 17.5816-52.8862 18.7109-53.3473ZM120.253-26.4375C134.618-26.4375 143.506-34.7838 143.506-46.4694C143.506-57.4437 134.885-66.3489 123.771-66.3489C112.919-66.3489 104.826-57.9723 103.937-47.8692C103.815-46.7653 104.631-45.8728 105.621-45.8306C106.619-45.7884 107.368-46.461 107.507-47.5436C108.265-55.7515 114.86-62.7874 123.771-62.7874C132.905-62.7874 139.945-55.4557 139.945-46.4694C139.945-36.7718 132.503-29.9991 120.253-29.9991C100.114-29.9991 79.0224-40.9362 53.3471-40.9362C39.7685-40.9362 28.2983-38.3583 17.2639-33.9943C16.3123-33.6051 15.8894-32.5517 16.2533-31.6424C16.6171-30.661 17.59-30.2848 18.6389-30.7628C29.0046-35.7494 40.1959-37.3747 53.3471-37.3747C78.4466-37.3747 99.0858-26.4375 120.253-26.4375ZM80.9069 16.7643C89.2954 16.7643 95.6564 10.3099 95.6564 1.55757C95.6564-11.7702 81.1685-19.2785 55.3548-19.2785C42.3599-19.2785 28.3112-16.2602 17.3359-12.273C16.3123-11.9558 15.8894-10.8305 16.2533-9.92111C16.6171-9.08372 17.59-8.56351 18.6389-8.96955C29.3943-13.211 42.8976-15.645 55.3548-15.645C78.897-15.645 92.0948-9.22374 92.0948 1.55757C92.0948 8.33027 87.2989 13.1307 80.9069 13.1307C74.8665 13.1307 70.413 9.40159 69.5284 2.97588C69.4058 1.90567 68.6359 1.10202 67.5235 1.05535C66.3858 1.08066 65.6834 2.15931 65.8695 3.24639C66.9234 11.5971 72.942 16.7643 80.9069 16.7643Z"/>
  </g>
  <g id="Ultralight-L" transform="matrix(1 0 0 1 483.474 1556)">
   <path d="M18.0127-53.3732C26.3315-57.2113 35.9953-59.4321 45.6102-59.4321C59.6756-59.4321 67.8605-56.8092 80.773-56.8092C89.8776-56.8092 96.3557-62.9831 96.3557-71.668C96.3557-79.8165 90.2711-86.5313 81.8275-86.5313C73.8165-86.5313 67.803-80.7407 66.8653-73.7617C66.7629-72.873 67.5091-72.3509 68.3888-72.4273C69.0272-72.5796 69.2901-73.1381 69.3701-73.7405C70.3975-79.3618 75.2277-83.9107 81.8275-83.9107C88.8604-83.9107 93.8154-78.3209 93.8154-71.668C93.8154-64.4163 88.5922-59.4298 80.773-59.4298C67.6547-59.4298 60.252-61.9678 45.6102-61.9678C35.6606-61.9678 25.4518-59.5997 16.8114-55.5068C16.1285-55.1316 15.9411-54.5112 16.2403-53.8013C16.5395-53.2568 17.2584-53.0025 18.0127-53.3732ZM120.214-27.0323C134.502-27.0323 143.08-35.1587 143.08-46.5599C143.08-57.1075 134.73-65.9223 123.887-65.9223C113.151-65.9223 105.136-57.4422 104.377-47.4167C104.319-46.6489 104.993-46.015 105.699-46.0374C106.4-46.0599 106.864-46.5644 106.913-47.2204C107.618-55.7903 114.459-63.3821 123.887-63.3821C133.319-63.3821 140.539-55.7013 140.539-46.5599C140.539-36.565 132.917-29.5725 120.214-29.5725C99.8811-29.5725 78.6992-40.5096 52.9334-40.5096C39.2126-40.5096 27.8199-37.8153 16.8114-33.3607C16.2089-33.075 15.9411-32.2802 16.2403-31.6553C16.5395-30.9454 17.2539-30.7761 17.9278-31.1377C28.3065-36.37 39.6012-37.9694 52.9334-37.9694C78.0199-37.9694 99.0729-27.0323 120.214-27.0323ZM81.0233 15.898C89.1273 15.898 95.2298 9.59878 95.2298 1.19557C95.2298-11.7961 80.884-19.1363 55.5616-19.1363C42.2694-19.1363 27.9363-15.937 16.8963-11.8981C16.2089-11.6972 15.9411-10.8176 16.2403-10.1926C16.5395-9.65258 17.2539-9.31338 17.9278-9.59013C28.8384-13.9867 42.8458-16.5112 55.5616-16.5112C79.259-16.5112 92.6896-9.94775 92.6896 1.19557C92.6896 8.18806 87.7256 13.2729 81.0233 13.2729C74.7501 13.2729 69.9734 9.46624 69.0888 2.78195C69.0308 1.99617 68.4549 1.43817 67.6916 1.33978C66.9417 1.3263 66.3298 2.10759 66.4772 2.88439C67.5181 11.1317 73.4333 15.898 81.0233 15.898Z"/>
  </g>
  <g id="Black-M" transform="matrix(1 0 0 1 2869.73 1126)">
   <path d="M19.8639-49.8963C26.9123-51.8968 34.2011-52.8905 41.1608-52.8905C49.8115-52.8905 56.5311-51.5852 64.9706-51.5852C74.5381-51.5852 81.5129-58.3929 81.5129-67.5668C81.5129-76.6612 74.5853-83.4858 65.5983-83.4858C59.776-83.4858 54.1106-80.0745 51.3988-74.9074C49.9467-72.1251 50.5942-69.0804 53.1591-67.5025C55.8796-65.8212 59.3304-66.8338 61.0383-69.8837C61.9274-71.4786 63.7861-72.5819 65.5983-72.5819C68.587-72.5819 70.6143-70.6631 70.6143-67.5668C70.6143-64.4209 68.4901-62.4891 64.9706-62.4891C57.375-62.4891 50.2883-63.7947 41.1608-63.7947C33.2934-63.7947 24.9184-62.5456 16.7072-60.3747C13.5378-59.5164 11.8576-56.5455 12.7052-53.5233C13.5529-50.4489 16.507-48.9183 19.8639-49.8963ZM97.33-24.0696C109.766-24.0696 118.854-32.3451 118.854-43.6594C118.854-54.7536 110.369-63.13 99.3827-63.13C91.327-63.13 83.8646-58.0023 81.1311-50.5809C80.0136-47.5831 81.0916-44.5145 83.8338-43.4022C86.8099-42.1757 90.1075-43.5968 91.4072-46.9133C92.618-50.047 95.9773-52.2313 99.3827-52.2313C104.314-52.2313 107.955-48.6926 107.955-43.6594C107.955-38.4632 103.774-34.9683 97.33-34.9683C82.6822-34.9683 65.8207-43.4417 46.0929-43.4417C35.847-43.4417 26.1103-41.8919 16.6501-38.9032C13.4859-37.8678 11.8576-35.0172 12.7052-32.0518C13.61-28.9154 16.6838-27.3845 19.9783-28.5448C28.3527-31.3431 36.8031-32.5431 46.0929-32.5431C65.0236-32.5431 80.0194-24.0696 97.33-24.0696ZM65.0323 12.9187C73.9063 12.9187 80.6407 6.16072 80.6407-2.8757C80.6407-15.8577 67.3722-23.0885 44.2156-23.0885C35.2658-23.0885 25.3294-21.4207 16.6498-18.6129C13.4859-17.5772 11.8576-14.7268 12.7052-11.7614C13.61-8.62443 16.6838-7.0941 19.9783-8.25467C27.5813-10.8681 35.7997-12.1901 44.2156-12.1901C60.1834-12.1901 69.742-8.45996 69.742-2.8757C69.742 0.162391 67.8399 2.02029 65.0323 2.02029C62.9031 2.02029 61.2538 0.723617 60.1687-1.64911C58.8229-4.51074 55.7298-5.68448 52.8978-4.4116C50.0494-3.139 48.9986 0.184889 50.4529 3.28589C53.0383 9.00495 58.6064 12.9187 65.0323 12.9187Z"/>
  </g>
  <g id="Heavy-M" transform="matrix(1 0 0 1 2573.64 1126)">
   <path d="M19.1733-49.7262C26.2097-51.7869 33.5062-52.8088 40.451-52.8088C49.1886-52.8088 55.8711-51.4754 64.3148-51.4754C73.7061-51.4754 80.3236-58.092 80.3236-66.9235C80.3236-75.7525 73.6056-82.3115 64.961-82.3115C59.1915-82.3115 53.7114-78.8812 51.1554-73.84C49.8578-71.3302 50.4237-68.5567 52.7918-67.1435C55.2347-65.6783 58.3232-66.567 59.8774-69.3593C60.7966-71.1624 62.8521-72.4721 64.961-72.4721C68.1914-72.4721 70.5028-70.336 70.5028-66.9235C70.5028-63.4678 68.1465-61.3149 64.3148-61.3149C56.6085-61.3149 49.6192-62.646 40.451-62.646C32.5559-62.646 24.2778-61.363 16.2943-59.1647C13.3961-58.3621 11.9217-55.6791 12.6892-52.9666C13.4567-50.2314 16.0927-48.82 19.1733-49.7262ZM96.3791-24.605C108.571-24.605 117.395-32.6349 117.395-43.6503C117.395-54.485 109.113-62.5875 98.4625-62.5875C90.2277-62.5875 82.9827-57.2237 80.6252-49.6425C79.6956-46.8729 80.7859-44.1519 83.2967-43.241C85.9984-42.2429 88.8893-43.5903 89.9826-46.6742C91.0888-50.2703 94.6583-52.7667 98.4625-52.7667C103.655-52.7667 107.574-49.0107 107.574-43.6503C107.574-38.1528 103.169-34.4258 96.3791-34.4258C81.666-34.4258 65.0022-42.8992 45.3104-42.8992C35.1172-42.8992 25.5172-41.3398 16.2507-38.3333C13.3711-37.3857 11.9217-34.8018 12.6892-32.1352C13.5003-29.3354 16.24-27.9263 19.2583-28.9962C27.5409-31.8431 35.9578-33.0784 45.3104-33.0784C64.3733-33.0784 79.2622-24.605 96.3791-24.605ZM64.3816 11.7772C72.9298 11.7772 79.4514 5.30593 79.4514-3.48628C79.4514-16.1188 66.5479-23.1547 43.731-23.1547C34.7629-23.1547 24.8375-21.478 16.2529-18.6465C13.3711-17.7012 11.9217-15.115 12.6892-12.4484C13.5003-9.65321 16.24-8.23952 19.2583-9.30716C26.9054-11.9512 35.237-13.3316 43.731-13.3316C60.1068-13.3316 69.6305-9.42511 69.6305-3.48628C69.6305-0.10828 67.4392 1.95409 64.3816 1.95409C61.8425 1.95409 60.035 0.345634 59.0443-2.42857C57.9402-5.0453 55.2763-6.29173 52.6211-5.2851C49.9168-4.2762 48.9109-1.29409 50.088 1.52995C52.2666 7.51153 57.7064 11.7772 64.3816 11.7772Z"/>
  </g>
  <g id="Bold-M" transform="matrix(1 0 0 1 2277.62 1126)">
   <path d="M18.4009-49.536C25.4237-51.664 32.7288-52.7173 39.6569-52.7173C48.4919-52.7173 55.1327-51.3525 63.5811-51.3525C72.7755-51.3525 78.9932-57.7555 78.9932-66.2038C78.9932-74.736 72.5096-80.998 64.2482-80.998C58.5376-80.998 53.265-77.5463 50.8831-72.6459C49.7583-70.4411 50.233-67.9708 52.381-66.742C54.5133-65.5184 57.1966-66.2686 58.5787-68.7727C59.5317-70.8086 61.8074-72.3491 64.2482-72.3491C67.7488-72.3491 70.3781-69.9701 70.3781-66.2038C70.3781-62.4017 67.7622-60.0013 63.5811-60.0013C55.7511-60.0013 48.8707-61.361 39.6569-61.361C31.731-61.361 23.5613-60.0401 15.8324-57.8111C13.2375-57.0709 11.9935-54.7099 12.6713-52.3438C13.3491-49.9881 15.6293-48.7101 18.4009-49.536ZM95.3154-25.2038C107.234-25.2038 115.763-32.959 115.763-43.6402C115.763-54.1845 107.707-61.9806 97.4331-61.9806C88.9979-61.9806 81.9962-56.3528 80.0592-48.5928C79.3399-46.0784 80.4439-43.7462 82.6958-43.0607C85.0906-42.318 87.5267-43.583 88.3889-46.4067C89.3781-50.5201 93.1829-53.3655 97.4331-53.3655C102.917-53.3655 107.148-49.3665 107.148-43.6402C107.148-37.8055 102.492-33.8189 95.3154-33.8189C80.5293-33.8189 64.0866-42.2923 44.4351-42.2923C34.3009-42.2923 24.8536-40.7223 15.8039-37.6957C13.2427-36.8464 11.9935-34.5608 12.6713-32.2285C13.3776-29.8053 15.7436-28.5324 18.4528-29.5012C26.6328-32.4025 35.0123-33.6772 44.4351-33.6772C63.6458-33.6772 78.4152-25.2038 95.3154-25.2038ZM63.6537 10.5003C71.8375 10.5003 78.1209 4.34973 78.1209-4.16931C78.1209-16.4109 65.6258-23.2287 43.1889-23.2287C34.2002-23.2287 24.2873-21.5422 15.809-18.6842C13.2427-17.84 11.9935-15.5493 12.6713-13.2169C13.3776-10.8041 15.7436-9.52085 18.4528-10.4845C26.1494-13.1629 34.6076-14.6085 43.1889-14.6085C60.0211-14.6085 69.5059-10.5048 69.5059-4.16931C69.5059-0.411064 66.9909 1.88004 63.6537 1.88004C60.6561 1.88004 58.6715-0.0771946 57.7863-3.30051C56.9529-5.64329 54.769-6.97104 52.3116-6.26225C49.7684-5.54832 48.8127-2.94853 49.6798-0.434312C51.4034 5.84093 56.6996 10.5003 63.6537 10.5003Z"/>
  </g>
  <g id="Semibold-M" transform="matrix(1 0 0 1 1981.38 1126)">
   <path d="M17.8683-49.4048C24.8818-51.5793 32.1928-52.6543 39.1096-52.6543C48.0115-52.6543 54.6237-51.2677 63.0753-51.2677C72.1338-51.2677 78.076-57.5234 78.076-65.7077C78.076-74.0352 71.7541-80.0924 63.7568-80.0924C58.0868-80.0924 52.9572-76.6261 50.6953-71.8228C49.6897-69.8281 50.1016-67.5669 52.0977-66.4651C54.0159-65.4082 56.4199-66.0629 57.6833-68.3682C58.6596-70.5648 61.0871-72.2644 63.7568-72.2644C67.4437-72.2644 70.2922-69.7178 70.2922-65.7077C70.2922-61.6667 67.4972-59.0957 63.0753-59.0957C55.16-59.0957 48.3547-60.4752 39.1096-60.4752C31.1622-60.4752 23.0673-59.1281 15.514-56.8779C13.1282-56.1807 12.0429-54.0417 12.6589-51.9145C13.2749-49.8204 15.3099-48.6343 17.8683-49.4048ZM94.5821-25.6166C106.312-25.6166 114.638-33.1825 114.638-43.6332C114.638-53.9773 106.737-61.5622 96.7234-61.5622C88.1501-61.5622 81.3161-55.7523 79.669-47.8691C79.0947-45.5307 80.2081-43.4665 82.2816-42.9363C84.4647-42.3698 86.5873-43.578 87.2902-46.2224C88.1988-50.6922 92.1658-53.7784 96.7234-53.7784C102.409-53.7784 106.854-49.6118 106.854-43.6332C106.854-37.5661 102.025-33.4005 94.5821-33.4005C79.7456-33.4005 63.4553-41.8739 43.8316-41.8739C33.7381-41.8739 24.3962-40.2965 15.4959-37.2562C13.1542-36.4746 12.0429-34.3947 12.6589-32.2928C13.2931-30.1293 15.4014-28.9502 17.8975-29.8493C26.0067-32.7881 34.3604-34.0901 43.8316-34.0901C63.1443-34.0901 77.8313-25.6166 94.5821-25.6166ZM63.1519 9.61996C71.0844 9.61996 77.2038 3.69053 77.2038-4.64018C77.2038-16.6123 64.9901-23.2798 42.8152-23.2798C33.8123-23.2798 23.908-21.5864 15.503-18.7101C13.1542-17.9356 12.0429-15.8487 12.6589-13.7467C13.2931-11.5974 15.4014-10.4042 17.8975-11.2962C25.6281-13.9982 34.1736-15.4888 42.8152-15.4888C59.962-15.4888 69.4199-11.2491 69.4199-4.64018C69.4199-0.619801 66.6819 1.82899 63.1519 1.82899C59.8382 1.82899 57.7316-0.36869 56.9192-3.90162C56.2722-6.05554 54.4192-7.43935 52.0983-6.93588C49.6662-6.42531 48.745-4.0891 49.3984-1.78846C50.8082 4.68922 56.0056 9.61996 63.1519 9.61996Z"/>
  </g>
  <g id="Medium-M" transform="matrix(1 0 0 1 1685.03 1126)">
   <path d="M17.4645-49.3054C24.471-51.515 31.7864-52.6065 38.6945-52.6065C47.6473-52.6065 54.2377-51.2035 62.6918-51.2035C71.6473-51.2035 77.3806-57.3475 77.3806-65.3315C77.3806-73.5039 71.1812-79.4058 63.3841-79.4058C57.745-79.4058 52.7238-75.9283 50.553-71.1986C49.6377-69.3633 50.0019-67.2607 51.883-66.2552C53.6388-65.3246 55.831-65.907 57.0045-68.0616C57.9984-70.3799 60.5409-72.2002 63.3841-72.2002C67.2124-72.2002 70.227-69.5265 70.227-65.3315C70.227-61.1094 67.2963-58.4091 62.6918-58.4091C54.7118-58.4091 47.9634-59.8035 38.6945-59.8035C30.731-59.8035 22.6927-58.4366 15.2726-56.1703C13.0454-55.5058 12.0804-53.5351 12.6495-51.589C13.2187-49.6933 15.0676-48.5768 17.4645-49.3054ZM94.026-25.9297C105.613-25.9297 113.785-33.3519 113.785-43.6279C113.785-53.8203 106.002-61.245 96.1853-61.245C87.5073-61.245 80.8004-55.2971 79.3731-47.3204C78.9087-45.1154 80.0294-43.2545 81.9675-42.8421C83.9902-42.4091 85.875-43.5742 86.4571-46.0825C87.3046-50.8228 91.3945-54.0914 96.1853-54.0914C102.023-54.0914 106.632-49.7978 106.632-43.6279C106.632-37.3846 101.671-33.0833 94.026-33.0833C79.1514-33.0833 62.9767-41.5567 43.374-41.5567C33.3113-41.5567 24.0493-39.9737 15.2623-36.9229C13.0871-36.1926 12.0804-34.2688 12.6495-32.3416C13.2289-30.3749 15.1419-29.2671 17.4765-30.1133C25.532-33.0804 33.8662-34.4031 43.374-34.4031C62.764-34.4031 77.3886-25.9297 94.026-25.9297ZM62.7714 8.95248C70.5135 8.95248 76.5083 3.19069 76.5083-4.99721C76.5083-16.765 64.5081-23.3185 42.5318-23.3185C33.5182-23.3185 23.6203-21.6199 15.2709-18.7298C13.0871-18.0081 12.0804-16.0757 12.6495-14.1485C13.2289-12.199 15.1419-11.074 17.4765-11.9116C25.2329-14.6316 33.8446-16.1563 42.5318-16.1563C59.9172-16.1563 69.3547-11.8134 69.3547-4.99721C69.3547-0.778075 66.4476 1.79028 62.7714 1.79028C59.218 1.79028 57.0189-0.589714 56.2616-4.35741C55.7561-6.36813 54.154-7.79444 51.9365-7.44666C49.5886-7.09028 48.6937-4.95392 49.185-2.81524C50.357 3.81595 55.4793 8.95248 62.7714 8.95248Z"/>
  </g>
  <g id="Regular-M" transform="matrix(1 0 0 1 1388.79 1126)">
   <path d="M16.9379-49.1757C23.9351-51.4312 31.2564-52.5442 38.1531-52.5442C47.1722-52.5442 53.7343-51.1197 62.1916-51.1197C71.0128-51.1197 76.4735-57.118 76.4735-64.8408C76.4735-72.8108 70.4339-78.5102 62.8981-78.5102C57.2992-78.5102 52.4193-75.0181 50.3673-70.3845C49.5699-68.757 49.8719-66.8612 51.6028-65.9814C53.1469-65.2156 55.0628-65.7035 56.119-67.6616C57.1359-70.1387 59.8286-72.1164 62.8981-72.1164C66.9107-72.1164 70.142-69.277 70.142-64.8408C70.142-60.3825 67.0343-57.5135 62.1916-57.5135C54.1272-57.5135 47.4531-58.9274 38.1531-58.9274C30.1686-58.9274 22.2041-57.5346 14.9577-55.2474C12.9373-54.6254 12.1293-52.8743 12.6373-51.1644C13.1453-49.5274 14.7517-48.5019 16.9379-49.1757ZM93.3008-26.338C104.702-26.338 112.673-33.5729 112.673-43.621C112.673-53.6154 105.044-60.8312 95.4834-60.8312C86.6688-60.8312 80.1278-54.7032 78.9873-46.6046C78.6662-44.5737 79.7962-42.9779 81.5578-42.7191C83.3712-42.4603 84.9459-43.5693 85.3705-45.9002C86.1383-50.9931 90.3885-54.4997 95.4834-54.4997C101.52-54.4997 106.341-50.0404 106.341-43.621C106.341-37.1479 101.209-32.6695 93.3008-32.6695C78.3763-32.6695 62.3524-41.1429 42.7772-41.1429C32.7547-41.1429 23.5969-39.5527 14.9577-36.4882C12.9996-35.8249 12.1293-34.1045 12.6373-32.4052C13.1453-30.6953 14.8034-29.6803 16.9273-30.4576C24.9129-33.4618 33.2215-34.8114 42.7772-34.8114C62.268-34.8114 76.8111-26.338 93.3008-26.338ZM62.275 8.08185C69.7687 8.08185 75.6012 2.53874 75.6012-5.46291C75.6012-16.9642 63.8794-23.369 42.1622-23.369C33.1345-23.369 23.2452-21.6637 14.9682-18.7554C12.9996-18.1027 12.1293-16.3718 12.6373-14.6725C13.1453-12.9837 14.8034-11.9476 16.9273-12.7144C24.7174-15.4578 33.4154-17.0269 42.1622-17.0269C59.8587-17.0269 69.2697-12.5495 69.2697-5.46291C69.2697-0.984518 66.1419 1.73979 62.275 1.73979C58.4091 1.73979 56.0893-0.878007 55.404-4.95192C55.0829-6.77585 53.8081-8.25761 51.7254-8.1129C49.4875-7.95764 48.6268-6.08195 48.9066-4.15451C49.7684 2.6769 54.7929 8.08185 62.275 8.08185Z"/>
  </g>
  <g id="Light-M" transform="matrix(1 0 0 1 1092.7 1126)">
   <path d="M16.0139-49.2099C22.84-51.6879 30.2126-52.989 37.2805-52.989C46.8813-52.989 53.375-51.3764 62.3114-51.3764C70.585-51.3764 75.9088-56.9983 75.9088-64.413C75.9088-71.8697 70.2799-77.4151 63.0521-77.4151C57.265-77.4151 52.4536-73.615 50.8122-68.7418C50.2372-67.4052 50.6247-65.9714 52.0306-65.3825C53.2496-64.8905 54.635-65.3613 55.3832-66.8574C56.3317-69.9163 59.3495-72.373 63.0521-72.373C67.5096-72.373 70.9291-69.0717 70.9291-64.413C70.9291-59.5954 67.5305-56.4184 62.3114-56.4184C53.5968-56.4184 47.2135-58.0034 37.2805-58.0034C29.3815-58.0034 21.4341-56.4737 14.3588-53.9128C12.8004-53.3934 12.1978-52.0359 12.6202-50.6853C13.0426-49.4248 14.3239-48.6559 16.0139-49.2099ZM93.2494-27.1251C104.548-27.1251 112.108-34.0691 112.108-43.7408C112.108-53.1705 104.838-60.2665 95.6374-60.2665C86.9768-60.2665 80.5385-54.0017 79.569-46.0058C79.3335-44.4197 80.2753-43.1661 81.6605-42.9929C83.0803-42.8197 84.2786-43.7062 84.5834-45.4724C85.2827-51.0444 89.8581-55.2868 95.6374-55.2868C102.068-55.2868 107.128-50.3655 107.128-43.7408C107.128-36.8741 101.756-32.1048 93.2494-32.1048C78.0683-32.1048 61.9247-40.5783 42.2297-40.5783C32.0189-40.5783 22.9638-38.834 14.3588-35.6497C12.8627-35.1234 12.1978-33.7452 12.6202-32.4223C13.0426-31.0717 14.3585-30.3305 15.9862-30.9539C23.9889-34.2831 32.4344-35.5985 42.2297-35.5985C61.7034-35.5985 76.794-27.1251 93.2494-27.1251ZM62.429 6.93542C69.5463 6.93542 75.0366 1.59763 75.0366-5.94202C75.0366-16.9984 63.503-23.1808 42.436-23.1808C33.0148-23.1808 22.749-21.2359 14.3864-18.2592C12.8627-17.7605 12.1978-16.3547 12.6202-15.0318C13.0426-13.7366 14.3585-12.94 15.9862-13.5357C23.9816-16.4844 33.347-18.1734 42.436-18.1734C60.3378-18.1734 70.0568-13.5078 70.0568-5.94202C70.0568-1.17274 66.7066 1.92801 62.429 1.92801C58.2551 1.92801 55.5075-0.792452 54.8222-5.20858C54.5867-6.65607 53.5686-7.81272 51.9479-7.73646C50.2233-7.63253 49.4823-6.15039 49.7109-4.63362C50.5555 2.06091 55.4431 6.93542 62.429 6.93542Z"/>
  </g>
  <g id="Thin-M" transform="matrix(1 0 0 1 796.8 1126)">
   <path d="M14.7918-49.2552C21.3916-52.0273 28.8322-53.5774 36.1263-53.5774C46.4966-53.5774 52.8997-51.7158 62.4698-51.7158C70.0192-51.7158 75.162-56.8398 75.162-63.8473C75.162-70.625 70.0763-75.9667 63.2558-75.9667C57.2197-75.9667 52.4988-71.7593 51.4006-66.5693C51.1198-65.6174 51.6205-64.7946 52.5964-64.5904C53.3853-64.4606 54.0692-64.9087 54.4101-65.7938C55.2681-69.6221 58.7158-72.7125 63.2558-72.7125C68.3016-72.7125 71.9701-68.8001 71.9701-63.8473C71.9701-58.5544 68.1868-54.97 62.4698-54.97C52.8952-54.97 46.8967-56.7814 36.1263-56.7814C28.3404-56.7814 20.4157-55.0706 13.5667-52.1476C12.6193-51.764 12.2883-50.927 12.5976-50.0517C12.9068-49.289 13.7581-48.8596 14.7918-49.2552ZM93.1815-28.1661C104.344-28.1661 111.361-34.7254 111.361-43.8992C111.361-52.5821 104.567-59.5197 95.8411-59.5197C87.3842-59.5197 81.0816-53.0738 80.3385-45.2137C80.2161-44.216 80.909-43.415 81.7963-43.355C82.6956-43.2949 83.396-43.8872 83.5424-44.9067C84.1512-51.1123 89.1566-56.3278 95.8411-56.3278C102.792-56.3278 108.169-50.7955 108.169-43.8992C108.169-36.512 102.481-31.358 93.1815-31.358C77.6609-31.358 61.3589-39.8315 41.5055-39.8315C31.0458-39.8315 22.1265-37.8835 13.5667-34.5408C12.6816-34.1955 12.2883-33.2699 12.5976-32.4449C12.9068-31.5696 13.7701-31.1905 14.7415-31.6101C22.7668-35.3694 31.3934-36.6395 41.5055-36.6395C60.9566-36.6395 76.7714-28.1661 93.1815-28.1661ZM62.6327 5.41917C69.2521 5.41917 74.2898 0.352951 74.2898-6.57567C74.2898-17.0437 63.0051-22.9318 42.798-22.9318C32.8564-22.9318 22.0927-20.6701 13.617-17.6029C12.6816-17.3079 12.2883-16.332 12.5976-15.507C12.9068-14.7323 13.7701-14.2526 14.7415-14.622C23.0085-17.8423 33.2564-19.6896 42.798-19.6896C60.9715-19.6896 71.0978-14.7751 71.0978-6.57567C71.0978-1.42168 67.4534 2.17695 62.6327 2.17695C58.0515 2.17695 54.7381-0.679299 54.0527-5.54804C53.9304-6.49766 53.2518-7.22433 52.2421-7.23858C51.1964-7.20255 50.6138-6.24092 50.7745-5.26727C51.5965 1.24621 56.3031 5.41917 62.6327 5.41917Z"/>
  </g>
  <g id="Ultralight-M" transform="matrix(1 0 0 1 500.507 1126)">
   <path d="M14.1659-49.2784C20.6498-52.2012 28.1251-53.8788 35.5351-53.8788C46.2995-53.8788 52.6563-51.8897 62.551-51.8897C69.7295-51.8897 74.7795-56.7587 74.7795-63.5575C74.7795-69.9875 69.972-75.2249 63.3601-75.2249C57.1965-75.2249 52.522-70.8088 51.7019-65.4565C51.5719-64.7017 52.1305-64.1919 52.8862-64.1847C53.4549-64.2403 53.7795-64.6769 53.9117-65.249C54.7233-69.4714 58.3913-72.8864 63.3601-72.8864C68.7073-72.8864 72.5033-68.661 72.5033-63.5575C72.5033-58.0212 68.523-54.2282 62.551-54.2282C52.5359-54.2282 46.7344-56.1554 35.5351-56.1554C27.8072-56.1554 19.8941-54.352 13.161-51.2435C12.5266-50.9294 12.3346-50.359 12.586-49.7271C12.8373-49.2194 13.4683-48.9639 14.1659-49.2784ZM93.1468-28.6993C104.24-28.6993 110.979-35.0615 110.979-43.9804C110.979-52.2808 104.428-59.1372 95.9454-59.1372C87.5928-59.1372 81.3598-52.5986 80.7326-44.808C80.6682-44.1117 81.2335-43.5425 81.8658-43.5404C82.4986-43.5383 82.944-43.9799 83.0092-44.6169C83.5716-51.1471 88.7972-56.861 95.9454-56.861C103.163-56.861 108.702-51.0157 108.702-43.9804C108.702-36.3266 102.852-30.9755 93.1468-30.9755C77.4523-30.9755 61.0691-39.4489 41.1346-39.4489C30.5474-39.4489 21.6976-37.3967 13.161-33.9729C12.5889-33.7203 12.3346-33.0265 12.586-32.4565C12.8373-31.8246 13.4688-31.631 14.104-31.9463C22.1409-35.9258 30.8602-37.1727 41.1346-37.1727C60.574-37.1727 76.7598-28.6993 93.1468-28.6993ZM62.737 4.64255C69.1014 4.64255 73.9072-0.284569 73.9072-6.90023C73.9072-17.0668 62.7501-22.8043 42.9835-22.8043C32.7752-22.8043 21.7565-20.3803 13.2229-17.2668C12.5889-17.0761 12.3346-16.3204 12.586-15.7504C12.8373-15.2423 13.4688-14.9249 14.104-15.1783C22.5101-18.5377 33.2101-20.4662 42.9835-20.4662C61.296-20.4662 71.631-15.4242 71.631-6.90023C71.631-1.54918 67.8359 2.30445 62.737 2.30445C57.9471 2.30445 54.344-0.621342 53.6586-5.72191C53.5942-6.41652 53.0895-6.92295 52.3928-6.98357C51.6948-6.98231 51.1934-6.28728 51.3193-5.59183C52.1297 0.82892 56.7436 4.64255 62.737 4.64255Z"/>
  </g>
  <g id="Black-S" transform="matrix(1 0 0 1 2883.35 696)">
   <path d="M15.7227-46.7773C21.2402-48.3398 26.9531-49.1211 32.4219-49.1211C39.209-49.1211 44.4824-48.0957 51.123-48.0957C58.6426-48.0957 64.209-53.4668 64.209-60.7422C64.209-67.9199 58.7402-73.3398 51.6113-73.3398C47.0215-73.3398 42.5293-70.6543 40.3809-66.5527C39.209-64.3066 39.7461-61.8652 41.7969-60.5957C43.9941-59.2285 46.7773-60.0586 48.1445-62.5C48.8281-63.7207 50.2441-64.5508 51.6113-64.5508C53.9062-64.5508 55.4199-63.0859 55.4199-60.7422C55.4199-58.3496 53.8086-56.8848 51.123-56.8848C45.166-56.8848 39.5996-57.9102 32.4219-57.9102C26.2695-57.9102 19.6777-56.9336 13.1836-55.2246C10.6445-54.541 9.27734-52.1484 9.96094-49.707C10.6445-47.2168 13.0371-45.9961 15.7227-46.7773ZM76.5625-26.3672C86.377-26.3672 93.5547-32.9102 93.5547-41.8457C93.5547-50.5859 86.8652-57.2266 78.1738-57.2266C71.9238-57.2266 66.0156-53.2715 63.7695-47.5098C62.8418-45.1172 63.6719-42.627 65.8691-41.6992C68.2617-40.6738 70.9473-41.7969 72.0215-44.4336C72.998-46.7773 75.5859-48.4375 78.1738-48.4375C81.9824-48.4375 84.7656-45.7031 84.7656-41.8457C84.7656-37.8418 81.543-35.1562 76.5625-35.1562C65.0879-35.1562 51.8066-41.7969 36.3281-41.7969C28.2715-41.7969 20.6055-40.5762 13.1348-38.2324C10.5957-37.4023 9.27734-35.1074 9.96094-32.7148C10.6934-30.1758 13.1836-28.9551 15.8203-29.8828C22.4121-32.0801 29.0527-33.0078 36.3281-33.0078C51.123-33.0078 62.9395-26.3672 76.5625-26.3672ZM51.1719 2.7832C58.2031 2.7832 63.5254-2.58789 63.5254-9.7168C63.5254-19.9707 53.0273-25.6836 34.8145-25.6836C27.7832-25.6836 19.9707-24.3652 13.1348-22.168C10.5957-21.3379 9.27734-19.043 9.96094-16.6504C10.6934-14.1113 13.1836-12.8906 15.8203-13.8184C21.7773-15.8691 28.2227-16.8945 34.8145-16.8945C47.2168-16.8945 54.7363-14.0137 54.7363-9.7168C54.7363-7.42188 53.3203-6.00586 51.1719-6.00586C49.6094-6.00586 48.3398-6.93359 47.4609-8.69141C46.3379-10.9863 43.7988-11.8652 41.5527-10.791C39.3066-9.7168 38.4766-7.03125 39.6973-4.54102C41.8457-0.146484 46.2402 2.7832 51.1719 2.7832Z"/>
  </g>
  <g id="Heavy-S" transform="matrix(1 0 0 1 2587.09 696)">
   <path d="M15.2502-46.6275C20.7793-48.2131 26.4921-48.9943 31.9263-48.9943C38.7134-48.9943 43.9638-47.9689 50.5468-47.9689C57.9857-47.9689 63.264-53.2248 63.264-60.2466C63.264-67.263 57.922-72.4755 51.0466-72.4755C46.5259-72.4755 42.1836-69.813 40.1158-65.8497C39.0476-63.7996 39.5041-61.531 41.4281-60.3652C43.4294-59.1478 45.9706-59.8742 47.2456-62.1543C47.9638-63.4787 49.5066-64.424 51.0466-64.424C53.4914-64.424 55.224-62.8324 55.224-60.2466C55.224-57.6351 53.4513-56.0204 50.5468-56.0204C44.5783-56.0204 39.058-57.0458 31.9263-57.0458C25.7394-57.0458 19.2283-56.0577 12.907-54.3603C10.5408-53.7113 9.32344-51.5146 9.94941-49.2922C10.5754-47.0439 12.7375-45.8924 15.2502-46.6275ZM75.7558-26.7244C85.3743-26.7244 92.3792-33.0945 92.3792-41.8227C92.3792-50.4131 85.8165-56.8347 77.3671-56.8347C70.9442-56.8347 65.2089-52.6953 63.2625-46.7837C62.4845-44.5294 63.3492-42.2927 65.3966-41.5264C67.6048-40.6854 69.9907-41.7738 70.9036-44.2838C71.7995-46.9617 74.5257-48.7948 77.3671-48.7948C81.3486-48.7948 84.3392-45.9336 84.3392-41.8227C84.3392-37.6113 80.9552-34.7644 75.7558-34.7644C64.2581-34.7644 51.1613-41.405 35.7289-41.405C27.7414-41.405 20.1791-40.1959 12.8697-37.8521C10.515-37.0797 9.32344-34.9691 9.94941-32.784C10.6127-30.4869 12.8609-29.3354 15.3248-30.2055C21.8359-32.4028 28.4304-33.3651 35.7289-33.3651C50.639-33.3651 62.2941-26.7244 75.7558-26.7244ZM50.5957 1.95344C57.3964 1.95344 62.5804-3.19869 62.5804-10.1778C62.5804-20.1897 52.3704-25.7643 34.365-25.7643C27.3683-25.7643 19.6134-24.469 12.8697-22.2602C10.515-21.4877 9.32344-19.3772 9.94941-17.192C10.6127-14.895 12.8609-13.7434 15.3248-14.6135C21.2933-16.6643 27.7502-17.7243 34.365-17.7243C47.09-17.7243 54.5404-14.7167 54.5404-10.1778C54.5404-7.62932 52.9054-6.08653 50.5957-6.08653C48.722-6.08653 47.3718-7.2678 46.5736-9.32525C45.6464-11.4588 43.4416-12.4415 41.2877-11.5862C39.0992-10.7309 38.2922-8.28742 39.2824-5.98157C41.0851-1.34503 45.3874 1.95344 50.5957 1.95344Z"/>
  </g>
  <g id="Bold-S" transform="matrix(1 0 0 1 2290.88 696)">
   <path d="M14.7217-46.46C20.2637-48.0713 25.9766-48.8525 31.3721-48.8525C38.1592-48.8525 43.3838-47.8271 49.9023-47.8271C57.251-47.8271 62.207-52.9541 62.207-59.6924C62.207-66.5283 57.0068-71.5088 50.415-71.5088C45.9717-71.5088 41.7969-68.8721 39.8193-65.0635C38.8672-63.2324 39.2334-61.1572 41.0156-60.1074C42.7979-59.0576 45.0684-59.668 46.2402-61.7676C46.9971-63.208 48.6816-64.2822 50.415-64.2822C53.0273-64.2822 55.0049-62.5488 55.0049-59.6924C55.0049-56.8359 53.0518-55.0537 49.9023-55.0537C43.9209-55.0537 38.4521-56.0791 31.3721-56.0791C25.1465-56.0791 18.7256-55.0781 12.5977-53.3936C10.4248-52.7832 9.375-50.8057 9.93652-48.8281C10.498-46.8506 12.4023-45.7764 14.7217-46.46ZM74.8535-27.124C84.2529-27.124 91.0645-33.3008 91.0645-41.7969C91.0645-50.2197 84.6436-56.3965 76.4648-56.3965C69.8486-56.3965 64.3066-52.0508 62.6953-45.9717C62.085-43.8721 62.9883-41.9189 64.8682-41.333C66.8701-40.6982 68.9209-41.748 69.6533-44.1162C70.459-47.168 73.3398-49.1943 76.4648-49.1943C80.6396-49.1943 83.8623-46.1914 83.8623-41.7969C83.8623-37.3535 80.2979-34.3262 74.8535-34.3262C63.3301-34.3262 50.4395-40.9668 35.0586-40.9668C27.1484-40.9668 19.7021-39.7705 12.5732-37.4268C10.4248-36.7188 9.375-34.8145 9.93652-32.8613C10.5225-30.835 12.5-29.7607 14.7705-30.5664C21.1914-32.7637 27.7344-33.7646 35.0586-33.7646C50.0977-33.7646 61.5723-27.124 74.8535-27.124ZM49.9512 1.02539C56.4941 1.02539 61.5234-3.88184 61.5234-10.6934C61.5234-20.4346 51.6357-25.8545 33.8623-25.8545C26.9043-25.8545 19.2139-24.585 12.5732-22.3633C10.4248-21.6553 9.375-19.751 9.93652-17.7979C10.5225-15.7715 12.5-14.6973 14.7705-15.5029C20.752-17.5537 27.2217-18.6523 33.8623-18.6523C46.9482-18.6523 54.3213-15.5029 54.3213-10.6934C54.3213-7.86133 52.4414-6.17676 49.9512-6.17676C47.7295-6.17676 46.2891-7.6416 45.5811-10.0342C44.873-11.9873 43.042-13.0859 40.9912-12.4756C38.8672-11.8652 38.0859-9.69238 38.8184-7.59277C40.2344-2.68555 44.4336 1.02539 49.9512 1.02539Z"/>
  </g>
  <g id="Semibold-S" transform="matrix(1 0 0 1 1994.52 696)">
   <path d="M14.3573-46.3444C19.9082-47.9735 25.6211-48.7548 30.9899-48.7548C37.7771-48.7548 42.9839-47.7294 49.458-47.7294C56.7444-47.7294 61.4783-52.7675 61.4783-59.3103C61.4783-66.0218 56.3759-70.8423 49.9796-70.8423C45.5896-70.8423 41.5303-68.2233 39.6149-64.5214C38.7428-62.8414 39.0468-60.8995 40.7313-59.9297C42.3624-58.9954 44.4463-59.5258 45.5471-61.501C46.3306-63.0214 48.1129-64.1845 49.9796-64.1845C52.7074-64.1845 54.8538-62.3533 54.8538-59.3103C54.8538-56.285 52.7763-54.3872 49.458-54.3872C43.4677-54.3872 38.0345-55.4126 30.9899-55.4126C24.7377-55.4126 18.379-54.4027 12.3844-52.7271C10.3448-52.1434 9.41055-50.3169 9.92764-48.5082C10.4447-46.7173 12.1713-45.6964 14.3573-46.3444ZM74.2314-27.3995C83.4798-27.3995 90.158-33.443 90.158-41.7791C90.158-50.0864 83.8349-56.0943 75.8428-56.0943C69.0933-56.0943 63.6846-51.6064 62.3043-45.4118C61.8095-43.4188 62.7395-41.6612 64.5038-41.1997C66.3636-40.7071 68.1833-41.7303 68.7913-44.0007C69.5348-47.3102 72.5223-49.4698 75.8428-49.4698C80.1509-49.4698 83.5335-46.3691 83.5335-41.7791C83.5335-37.1758 79.8446-34.024 74.2314-34.024C62.6902-34.024 49.9418-40.6646 34.5965-40.6646C26.7396-40.6646 19.3733-39.4772 12.3688-37.1335C10.3626-36.4699 9.41055-34.7078 9.92764-32.9146C10.4603-31.0749 12.2512-30.054 14.3884-30.8152C20.7471-33.0125 27.2545-34.0401 34.5965-34.0401C49.7244-34.0401 61.0746-27.3995 74.2314-27.3995ZM49.5068 0.385547C55.8721 0.385547 60.7947-4.35283 60.7947-11.0488C60.7947-20.6034 51.1292-25.9167 33.5157-25.9167C26.5844-25.9167 18.9384-24.6649 12.3688-22.4344C10.3626-21.7708 9.41055-20.0087 9.92764-18.2155C10.4603-16.3758 12.2512-15.3549 14.3884-16.1161C20.3787-18.1669 26.8573-19.2922 33.5157-19.2922C46.8505-19.2922 54.1702-16.045 54.1702-11.0488C54.1702-8.02129 52.1215-6.23896 49.5068-6.23896C47.0452-6.23896 45.5426-7.89932 44.8968-10.5229C44.3398-12.3517 42.7665-13.5303 40.7868-13.0888C38.7072-12.6473 37.9438-10.661 38.4984-8.70361C39.6479-3.60977 43.776 0.385547 49.5068 0.385547Z"/>
  </g>
  <g id="Medium-S" transform="matrix(1 0 0 1 1698.07 696)">
   <path d="M14.0811-46.2568C19.6387-47.8994 25.3516-48.6807 30.7002-48.6807C37.4873-48.6807 42.6807-47.6553 49.1211-47.6553C56.3604-47.6553 60.9258-52.626 60.9258-59.0205C60.9258-65.6377 55.8975-70.3369 49.6494-70.3369C45.2998-70.3369 41.3281-67.7314 39.46-64.1104C38.6484-62.5449 38.9053-60.7041 40.5156-59.7949C42.0322-58.9482 43.9746-59.418 45.0215-61.2988C45.8252-62.8799 47.6816-64.1104 49.6494-64.1104C52.4648-64.1104 54.7393-62.2051 54.7393-59.0205C54.7393-55.8672 52.5674-53.8818 49.1211-53.8818C43.124-53.8818 37.7178-54.9072 30.7002-54.9072C24.4277-54.9072 18.1162-53.8906 12.2227-52.2217C10.2842-51.6582 9.4375-49.9463 9.9209-48.2656C10.4043-46.6162 11.9961-45.6357 14.0811-46.2568ZM73.7598-27.6084C82.8936-27.6084 89.4707-33.5508 89.4707-41.7656C89.4707-49.9854 83.2217-55.8652 75.3711-55.8652C68.5205-55.8652 63.2129-51.2695 62.0078-44.9873C61.6006-43.0752 62.5508-41.4658 64.2275-41.0986C65.9795-40.7139 67.624-41.7168 68.1377-43.9131C68.834-47.418 71.9023-49.6787 75.3711-49.6787C79.7803-49.6787 83.2842-46.5039 83.2842-41.7656C83.2842-37.041 79.501-33.7949 73.7598-33.7949C62.2051-33.7949 49.5645-40.4355 34.2461-40.4355C26.4297-40.4355 19.124-39.2549 12.2139-36.9111C10.3154-36.2812 9.4375-34.627 9.9209-32.9551C10.4131-31.2568 12.0625-30.2764 14.0986-31.0039C20.4102-33.2012 26.8906-34.249 34.2461-34.249C49.4414-34.249 60.6973-27.6084 73.7598-27.6084ZM49.1699-0.0996094C55.4004-0.0996094 60.2422-4.70996 60.2422-11.3184C60.2422-20.7314 50.7451-25.9639 33.2529-25.9639C26.3418-25.9639 18.7295-24.7256 12.2139-22.4883C10.3154-21.8584 9.4375-20.2041 9.9209-18.5322C10.4131-16.834 12.0625-15.8535 14.0986-16.5811C20.0957-18.6318 26.5811-19.7773 33.2529-19.7773C46.7764-19.7773 54.0557-16.4561 54.0557-11.3184C54.0557-8.14258 51.8789-6.28613 49.1699-6.28613C46.5264-6.28613 44.9766-8.09473 44.3779-10.8936C43.9355-12.6279 42.5576-13.8672 40.6318-13.5537C38.5859-13.2402 37.8359-11.3955 38.2559-9.5459C39.2031-4.31055 43.2773-0.0996094 49.1699-0.0996094Z"/>
  </g>
  <g id="Regular-S" transform="matrix(1 0 0 1 1401.7 696)">
   <path d="M13.7207-46.1426C19.2871-47.8027 25-48.584 30.3223-48.584C37.1094-48.584 42.2852-47.5586 48.6816-47.5586C55.8594-47.5586 60.2051-52.4414 60.2051-58.6426C60.2051-65.1367 55.2734-69.6777 49.2188-69.6777C44.9219-69.6777 41.0645-67.0898 39.2578-63.5742C38.5254-62.1582 38.7207-60.4492 40.2344-59.6191C41.6016-58.8867 43.3594-59.2773 44.3359-61.0352C45.166-62.6953 47.1191-64.0137 49.2188-64.0137C52.1484-64.0137 54.5898-62.0117 54.5898-58.6426C54.5898-55.3223 52.2949-53.2227 48.6816-53.2227C42.6758-53.2227 37.3047-54.248 30.3223-54.248C24.0234-54.248 17.7734-53.2227 12.0117-51.5625C10.2051-51.0254 9.47266-49.4629 9.91211-47.9492C10.3516-46.4844 11.7676-45.5566 13.7207-46.1426ZM73.1445-27.8809C82.1289-27.8809 88.5742-33.6914 88.5742-41.748C88.5742-49.8535 82.4219-55.5664 74.7559-55.5664C67.7734-55.5664 62.5977-50.8301 61.6211-44.4336C61.3281-42.627 62.3047-41.2109 63.8672-40.9668C65.4785-40.7227 66.8945-41.6992 67.2852-43.7988C67.9199-47.5586 71.0938-49.9512 74.7559-49.9512C79.2969-49.9512 82.959-46.6797 82.959-41.748C82.959-36.8652 79.0527-33.4961 73.1445-33.4961C61.5723-33.4961 49.0723-40.1367 33.7891-40.1367C26.0254-40.1367 18.7988-38.9648 12.0117-36.6211C10.2539-36.0352 9.47266-34.5215 9.91211-33.0078C10.3516-31.4941 11.8164-30.5664 13.7207-31.25C19.9707-33.4473 26.416-34.5215 33.7891-34.5215C49.0723-34.5215 60.2051-27.8809 73.1445-27.8809ZM48.7305-0.732422C54.7852-0.732422 59.5215-5.17578 59.5215-11.6699C59.5215-20.8984 50.2441-26.0254 32.9102-26.0254C26.0254-26.0254 18.457-24.8047 12.0117-22.5586C10.2539-21.9727 9.47266-20.459 9.91211-18.9453C10.3516-17.4316 11.8164-16.5039 13.7207-17.1875C19.7266-19.2383 26.2207-20.4102 32.9102-20.4102C46.6797-20.4102 53.9062-16.9922 53.9062-11.6699C53.9062-8.30078 51.5625-6.34766 48.7305-6.34766C45.8496-6.34766 44.2383-8.34961 43.7012-11.377C43.4082-12.9883 42.2852-14.3066 40.4297-14.1602C38.4277-14.0137 37.6953-12.3535 37.9395-10.6445C38.623-5.22461 42.627-0.732422 48.7305-0.732422Z"/>
  </g>
  <g id="Light-S" transform="matrix(1 0 0 1 1105.53 696)">
   <path d="M12.9033-46.1729C18.3184-48.0298 24.0767-48.9775 29.5503-48.9775C36.8521-48.9775 41.9673-47.7856 48.7876-47.7856C55.481-47.7856 59.7056-52.3355 59.7056-58.2642C59.7056-64.3042 55.1372-68.709 49.355-68.709C44.8916-68.709 41.0947-65.8486 39.6514-62.1211C39.1157-60.9624 39.3867-59.6621 40.6128-59.0894C41.6924-58.5991 42.981-58.9746 43.6851-60.3237C44.4546-62.4985 46.6953-64.2407 49.355-64.2407C52.6782-64.2407 55.2861-61.8301 55.2861-58.2642C55.2861-54.626 52.7339-52.2539 48.7876-52.2539C42.2065-52.2539 37.0928-53.4307 29.5503-53.4307C23.3272-53.4307 17.0923-52.2842 11.4819-50.3818C10.084-49.9356 9.5332-48.7212 9.89697-47.5254C10.2607-46.3936 11.3892-45.6929 12.9033-46.1729ZM73.0991-28.5771C81.9927-28.5771 88.0747-34.1304 88.0747-41.854C88.0747-49.46 82.2402-55.0669 74.8921-55.0669C68.0459-55.0669 62.9609-50.2095 62.1357-43.9038C61.9185-42.4907 62.7285-41.3774 63.958-41.209C65.2212-41.0405 66.3042-41.8203 66.5889-43.4204C67.1631-47.604 70.6245-50.6475 74.8921-50.6475C79.7812-50.6475 83.6553-46.9673 83.6553-41.854C83.6553-36.623 79.5371-32.9966 73.0991-32.9966C61.2998-32.9966 48.6939-39.6372 33.3047-39.6372C25.3745-39.6372 18.2388-38.3291 11.4819-35.8794C10.1328-35.4146 9.5332-34.2036 9.89697-33.0229C10.2607-31.8271 11.4229-31.1416 12.8882-31.689C19.1533-34.1738 25.7197-35.2178 33.3047-35.2178C48.5728-35.2178 60.1899-28.5771 73.0991-28.5771ZM48.8667-1.74657C54.5884-1.74657 59.022-6.00829 59.022-12.0937C59.022-20.9287 49.9111-25.8589 33.1523-25.8589C25.9194-25.8589 18.0181-24.4263 11.4971-22.1196C10.1328-21.6699 9.5332-20.4438 9.89697-19.2632C10.2607-18.0977 11.4229-17.3818 12.8882-17.9141C19.0757-20.1465 26.1602-21.4243 33.1523-21.4243C47.1035-21.4243 54.6025-17.8398 54.6025-12.0937C54.6025-8.46728 52.062-6.18115 48.8667-6.18115C45.7134-6.18115 43.7236-8.27393 43.1865-11.604C42.9692-12.8823 42.0732-13.9131 40.6265-13.8272C39.0786-13.7261 38.4521-12.4141 38.6509-11.0684C39.3193-5.76953 43.2021-1.74657 48.8667-1.74657Z"/>
  </g>
  <g id="Thin-S" transform="matrix(1 0 0 1 809.543 696)">
   <path d="M11.8223-46.2129C17.0371-48.3301 22.8555-49.498 28.5293-49.498C36.5117-49.498 41.5469-48.0859 48.9277-48.0859C54.9805-48.0859 59.0449-52.1953 59.0449-57.7637C59.0449-63.2031 54.957-67.4278 49.5352-67.4278C44.8516-67.4278 41.1348-64.2071 40.1719-60.1992C39.8965-59.3809 40.2676-58.6211 41.1133-58.3887C41.8125-58.2188 42.4805-58.5742 42.8242-59.3828C43.5137-62.2383 46.1348-64.541 49.5352-64.541C53.3789-64.541 56.207-61.5898 56.207-57.7637C56.207-53.7051 53.3144-50.9727 48.9277-50.9727C41.5859-50.9727 36.8125-52.3496 28.5293-52.3496C22.4063-52.3496 16.1914-51.043 10.7813-48.8203C9.92383-48.4942 9.61328-47.7402 9.87695-46.9649C10.1406-46.2734 10.8887-45.873 11.8223-46.2129ZM73.0391-29.498C81.8125-29.498 87.4141-34.7109 87.4141-41.9941C87.4141-48.9395 82-54.4063 75.0723-54.4063C68.4062-54.4063 63.4414-49.3887 62.8164-43.2031C62.6992-42.3105 63.2891-41.5977 64.0781-41.5293C64.8809-41.4609 65.5234-41.9805 65.668-42.9199C66.1621-47.6641 70.0039-51.5683 75.0723-51.5683C80.4219-51.5683 84.5762-47.3477 84.5762-41.9941C84.5762-36.3027 80.1777-32.3359 73.0391-32.3359C60.9395-32.3359 48.1934-38.9766 32.6641-38.9766C24.5137-38.9766 17.4981-37.4883 10.7813-34.8985C9.97266-34.5938 9.61328-33.7832 9.87695-33.043C10.1406-32.2676 10.9024-31.9023 11.7871-32.2695C18.0723-35.1348 24.7988-36.1387 32.6641-36.1387C47.9121-36.1387 60.1699-29.498 73.0391-29.498ZM49.0469-3.08787C54.3281-3.08787 58.3613-7.10936 58.3613-12.6543C58.3613-20.9687 49.4707-25.6387 33.4727-25.6387C25.7793-25.6387 17.4375-23.9258 10.8164-21.5391C9.97266-21.2695 9.61328-20.4238 9.87695-19.6836C10.1406-18.9785 10.9024-18.543 11.7871-18.875C18.2149-21.3476 26.0801-22.7656 33.4727-22.7656C47.6641-22.7656 55.5234-18.9609 55.5234-12.6543C55.5234-8.6875 52.7226-5.96094 49.0469-5.96094C45.5332-5.96094 43.043-8.17383 42.5059-11.9043C42.3887-12.7422 41.793-13.3926 40.8867-13.3867C39.9394-13.3457 39.4531-12.4941 39.5918-11.6289C40.2402-6.49022 43.9629-3.08787 49.0469-3.08787Z"/>
  </g>
  <g id="Ultralight-S" transform="matrix(1 0 0 1 513.201 696)">
   <path d="M11.2686-46.2334C16.3809-48.4839 22.23-49.7646 28.0064-49.7646C36.3374-49.7646 41.3316-48.2397 48.9995-48.2397C54.7241-48.2397 58.7066-52.1235 58.7066-57.5073C58.7066-62.6392 54.8647-66.7715 49.6274-66.7715C44.8311-66.7715 41.1553-63.3662 40.4385-59.2149C40.2964-58.5708 40.7187-58.0879 41.3696-58.0298C41.874-58.0239 42.2241-58.3691 42.3833-58.9009C43.0318-62.105 45.8477-64.6948 49.6274-64.6948C53.7378-64.6948 56.6787-61.4668 56.6787-57.5073C56.6787-53.2334 53.6118-50.3164 48.9995-50.3164C41.2681-50.3164 36.669-51.7959 28.0064-51.7959C21.9346-51.7959 15.73-50.4072 10.4224-48.0205C9.8418-47.7559 9.6543-47.2378 9.8667-46.6777C10.0791-46.2119 10.6323-45.9653 11.2686-46.2334ZM73.0083-29.9697C81.7202-29.9697 87.0757-35.0083 87.0757-42.0659C87.0757-48.6729 81.877-54.0679 75.1645-54.0679C68.5908-54.0679 63.6875-48.9683 63.165-42.8443C63.0991-42.2183 63.5762-41.7104 64.1396-41.6934C64.7065-41.6763 65.1235-42.0625 65.1963-42.6636C65.6494-47.6948 69.686-52.04 75.1645-52.04C80.75-52.04 85.0478-47.5425 85.0478-42.0659C85.0478-36.1387 80.5058-31.9976 73.0083-31.9976C60.7549-31.9976 47.937-38.6382 32.3359-38.6382C24.0728-38.6382 17.1187-37.0576 10.4224-34.396C9.89063-34.1734 9.6543-33.5679 9.8667-33.0532C10.0791-32.4932 10.6358-32.292 11.2232-32.5669C17.5186-35.6269 24.3272-36.6103 32.3359-36.6103C47.5737-36.6103 60.1597-29.9697 73.0083-29.9697ZM49.1392-3.77488C54.1948-3.77488 58.023-7.67332 58.023-12.9414C58.023-20.9893 49.2451-25.5259 33.6367-25.5259C25.7075-25.5259 17.1401-23.6694 10.4678-21.2417C9.89063-21.0645 9.6543-20.4136 9.8667-19.8989C10.0791-19.4297 10.6358-19.1377 11.2232-19.3672C17.7739-21.9629 26.0391-23.4526 33.6367-23.4526C47.9512-23.4526 55.9951-19.5351 55.9951-12.9414C55.9951-8.80029 53.061-5.84815 49.1392-5.84815C45.4409-5.84815 42.6943-8.12256 42.1572-12.0581C42.0913-12.6704 41.6494-13.126 41.02-13.1611C40.3804-13.1509 39.9658-12.5352 40.0737-11.916C40.7119-6.85936 44.3525-3.77488 49.1392-3.77488Z"/>
  </g>
 </g>
</svg>
