<?xml version="1.0" encoding="UTF-8"?>
<!--Generator: Apple Native CoreSVG 341-->
<!DOCTYPE svg
PUBLIC "-//W3C//DTD SVG 1.1//EN"
       "http://www.w3.org/Graphics/SVG/1.1/DTD/svg11.dtd">
<svg version="1.1" xmlns="http://www.w3.org/2000/svg" xmlns:xlink="http://www.w3.org/1999/xlink" viewBox="0 0 3300 2200">
 <g id="Notes">
  <rect height="2200" id="artboard" style="fill:white;opacity:1" width="3300" x="0" y="0"/>
  <line style="fill:none;stroke:black;opacity:1;stroke-width:0.5;" x1="263" x2="3036" y1="292" y2="292"/>
  <text style="stroke:none;fill:black;font-family:sans-serif;font-size:13;font-weight:bold;" transform="matrix(1 0 0 1 263 322)">Weight/Scale Variations</text>
  <text style="stroke:none;fill:black;font-family:sans-serif;font-size:13;text-anchor:middle;" transform="matrix(1 0 0 1 559.711 322)">Ultralight</text>
  <text style="stroke:none;fill:black;font-family:sans-serif;font-size:13;text-anchor:middle;" transform="matrix(1 0 0 1 856.422 322)">Thin</text>
  <text style="stroke:none;fill:black;font-family:sans-serif;font-size:13;text-anchor:middle;" transform="matrix(1 0 0 1 1153.13 322)">Light</text>
  <text style="stroke:none;fill:black;font-family:sans-serif;font-size:13;text-anchor:middle;" transform="matrix(1 0 0 1 1449.84 322)">Regular</text>
  <text style="stroke:none;fill:black;font-family:sans-serif;font-size:13;text-anchor:middle;" transform="matrix(1 0 0 1 1746.56 322)">Medium</text>
  <text style="stroke:none;fill:black;font-family:sans-serif;font-size:13;text-anchor:middle;" transform="matrix(1 0 0 1 2043.27 322)">Semibold</text>
  <text style="stroke:none;fill:black;font-family:sans-serif;font-size:13;text-anchor:middle;" transform="matrix(1 0 0 1 2339.98 322)">Bold</text>
  <text style="stroke:none;fill:black;font-family:sans-serif;font-size:13;text-anchor:middle;" transform="matrix(1 0 0 1 2636.69 322)">Heavy</text>
  <text style="stroke:none;fill:black;font-family:sans-serif;font-size:13;text-anchor:middle;" transform="matrix(1 0 0 1 2933.4 322)">Black</text>
  <line style="fill:none;stroke:black;opacity:1;stroke-width:0.5;" x1="263" x2="3036" y1="1903" y2="1903"/>
  <g transform="matrix(0.2 0 0 0.2 263 1933)">
   <path d="m46.2402 4.15039c21.7773 0 39.4531-17.627 39.4531-39.4043s-17.6758-39.4043-39.4531-39.4043c-21.7285 0-39.4043 17.627-39.4043 39.4043s17.6758 39.4043 39.4043 39.4043Zm0-7.42188c-17.6758 0-31.9336-14.3066-31.9336-31.9824s14.2578-31.9824 31.9336-31.9824 31.9824 14.3066 31.9824 31.9824-14.3066 31.9824-31.9824 31.9824Zm3.61328-17.7734v-28.4668c0-2.24609-1.46484-3.75977-3.71094-3.75977-2.14844 0-3.61328 1.51367-3.61328 3.75977v28.4668c0 2.19727 1.46484 3.71094 3.61328 3.71094 2.24609 0 3.71094-1.51367 3.71094-3.71094Zm-17.8223-10.5957h28.418c2.19727 0 3.71094-1.46484 3.71094-3.61328 0-2.19727-1.51367-3.71094-3.71094-3.71094h-28.418c-2.24609 0-3.75977 1.51367-3.75977 3.71094 0 2.14844 1.51367 3.61328 3.75977 3.61328Z"/>
  </g>
  <g transform="matrix(0.2 0 0 0.2 281.506 1933)">
   <path d="m58.5449 14.5508c27.4902 0 49.8047-22.3145 49.8047-49.8047s-22.3145-49.8047-49.8047-49.8047-49.8047 22.3145-49.8047 49.8047 22.3145 49.8047 49.8047 49.8047Zm0-8.30078c-22.9492 0-41.5039-18.5547-41.5039-41.5039s18.5547-41.5039 41.5039-41.5039 41.5039 18.5547 41.5039 41.5039-18.5547 41.5039-41.5039 41.5039Zm4.05273-23.0957v-36.9141c0-2.49023-1.70898-4.19922-4.15039-4.19922-2.39258 0-4.05273 1.70898-4.05273 4.19922v36.9141c0 2.44141 1.66016 4.15039 4.05273 4.15039 2.44141 0 4.15039-1.66016 4.15039-4.15039Zm-22.5586-14.4043h36.9629c2.44141 0 4.15039-1.61133 4.15039-4.00391 0-2.44141-1.70898-4.15039-4.15039-4.15039h-36.9629c-2.49023 0-4.15039 1.70898-4.15039 4.15039 0 2.39258 1.66016 4.00391 4.15039 4.00391Z"/>
  </g>
  <g transform="matrix(0.2 0 0 0.2 304.924 1933)">
   <path d="m74.8535 28.3203c35.1074 0 63.623-28.4668 63.623-63.5742s-28.5156-63.623-63.623-63.623-63.5742 28.5156-63.5742 63.623 28.4668 63.5742 63.5742 63.5742Zm0-9.08203c-30.127 0-54.4922-24.3652-54.4922-54.4922s24.3652-54.4922 54.4922-54.4922 54.4922 24.3652 54.4922 54.4922-24.3652 54.4922-54.4922 54.4922Zm4.44336-30.3223v-48.4863c0-2.73438-1.85547-4.63867-4.54102-4.63867-2.58789 0-4.44336 1.9043-4.44336 4.63867v48.4863c0 2.68555 1.85547 4.58984 4.44336 4.58984 2.68555 0 4.54102-1.85547 4.54102-4.58984Zm-28.7109-19.7754h48.4863c2.68555 0 4.58984-1.80664 4.58984-4.39453 0-2.73438-1.85547-4.58984-4.58984-4.58984h-48.4863c-2.73438 0-4.58984 1.85547-4.58984 4.58984 0 2.58789 1.85547 4.39453 4.58984 4.39453Z"/>
  </g>
  <text style="stroke:none;fill:black;font-family:sans-serif;font-size:13;font-weight:bold;" transform="matrix(1 0 0 1 263 1953)">Design Variations</text>
  <text style="stroke:none;fill:black;font-family:sans-serif;font-size:13;" transform="matrix(1 0 0 1 263 1971)">Symbols are supported in up to nine weights and three scales.</text>
  <text style="stroke:none;fill:black;font-family:sans-serif;font-size:13;" transform="matrix(1 0 0 1 263 1989)">For optimal layout with text and other symbols, vertically align</text>
  <text style="stroke:none;fill:black;font-family:sans-serif;font-size:13;" transform="matrix(1 0 0 1 263 2007)">symbols with the adjacent text.</text>
  <line style="fill:none;stroke:#00AEEF;stroke-width:0.5;opacity:1.0;" x1="776" x2="776" y1="1919" y2="1933"/>
  <g transform="matrix(0.2 0 0 0.2 776 1933)">
   <path d="m16.5527 0.78125c2.58789 0 3.85742-0.976562 4.78516-3.71094l20.5566-57.5195h0.244141l20.6055 57.5195c0.927734 2.73438 2.19727 3.71094 4.73633 3.71094 2.58789 0 4.24805-1.5625 4.24805-4.00391 0-0.830078-0.146484-1.61133-0.537109-2.63672l-22.9004-60.9863c-1.12305-2.97852-3.125-4.49219-6.25-4.49219-3.02734 0-5.07812 1.46484-6.15234 4.44336l-22.9004 61.084c-0.390625 1.02539-0.537109 1.80664-0.537109 2.63672 0 2.44141 1.5625 3.95508 4.10156 3.95508Zm10.2051-20.9473h30.6641c2.00195 0 3.66211-1.66016 3.66211-3.66211 0-2.05078-1.66016-3.66211-3.66211-3.66211h-30.6641c-2.00195 0-3.66211 1.61133-3.66211 3.66211 0 2.00195 1.66016 3.66211 3.66211 3.66211Z"/>
  </g>
  <line style="fill:none;stroke:#00AEEF;stroke-width:0.5;opacity:1.0;" x1="792.836" x2="792.836" y1="1919" y2="1933"/>
  <text style="stroke:none;fill:black;font-family:sans-serif;font-size:13;font-weight:bold;" transform="matrix(1 0 0 1 776 1953)">Margins</text>
  <text style="stroke:none;fill:black;font-family:sans-serif;font-size:13;" transform="matrix(1 0 0 1 776 1971)">Leading and trailing margins on the left and right side of each symbol</text>
  <text style="stroke:none;fill:black;font-family:sans-serif;font-size:13;" transform="matrix(1 0 0 1 776 1989)">can be adjusted by modifying the x-location of the margin guidelines.</text>
  <text style="stroke:none;fill:black;font-family:sans-serif;font-size:13;" transform="matrix(1 0 0 1 776 2007)">Modifications are automatically applied proportionally to all</text>
  <text style="stroke:none;fill:black;font-family:sans-serif;font-size:13;" transform="matrix(1 0 0 1 776 2025)">scales and weights.</text>
  <g transform="matrix(0.2 0 0 0.2 1289 1933)">
   <path d="m14.209 13.1348 7.86133 7.86133c4.29688 4.39453 9.32617 4.10156 13.8672-1.02539l60.6934-68.2129-4.88281-4.88281-60.2539 67.6758c-1.80664 1.95312-3.4668 2.44141-5.81055 0.0976562l-5.17578-5.12695c-2.29492-2.29492-1.80664-3.95508 0.195312-5.81055l67.4805-62.1582-4.88281-4.83398-68.0664 62.5977c-4.98047 4.58984-5.32227 9.47266-1.02539 13.8184Zm44.873-97.4609c-2.05078 2.00195-2.24609 4.88281-1.07422 6.78711 1.12305 1.80664 3.4668 3.02734 6.5918 2.24609 5.85938-1.66016 12.5977-2.39258 18.8965 0.927734l-2.68555 7.12891c-1.61133 4.00391-0.732422 6.88477 1.70898 9.42383l10.2539 10.3027c2.34375 2.39258 4.54102 2.44141 7.08008 1.95312l4.44336-0.732422 2.58789 2.53906-0.195312 2.24609c-0.0976562 2.29492 0.537109 4.29688 2.7832 6.49414l3.36914 3.32031c2.29492 2.29492 5.51758 2.49023 7.8125 0.195312l12.9883-13.0371c2.29492-2.34375 2.14844-5.37109-0.195312-7.66602l-3.41797-3.41797c-2.19727-2.19727-4.05273-3.02734-6.34766-2.88086l-2.34375 0.244141-2.44141-2.44141 1.02539-4.6875c0.634766-2.73438-0.244141-4.98047-2.88086-7.61719l-11.2793-11.1816c-12.9395-12.8418-35.5957-11.0352-46.6797-0.146484Zm7.08008 2.05078c8.78906-6.39648 25.9766-5.66406 33.6914 1.95312l12.3047 12.207c1.02539 1.02539 1.2207 1.80664 0.927734 3.32031l-1.46484 6.64062 6.73828 6.68945 4.39453-0.244141c1.12305-0.0488281 1.51367 0.0488281 2.34375 0.878906l2.53906 2.49023-10.8398 10.8398-2.49023-2.49023c-0.830078-0.878906-0.976562-1.2207-0.927734-2.39258l0.292969-4.3457-6.68945-6.73828-6.83594 1.17188c-1.41602 0.292969-2.05078 0.195312-3.17383-0.878906l-8.93555-8.88672c-1.07422-1.02539-1.17188-1.70898-0.488281-3.36914l4.58984-11.4746c-6.10352-6.34766-17.041-7.51953-25.5859-4.58984-0.683594 0.244141-0.927734-0.390625-0.390625-0.78125Z"/>
  </g>
  <text style="stroke:none;fill:black;font-family:sans-serif;font-size:13;font-weight:bold;" transform="matrix(1 0 0 1 1289 1953)">Exporting</text>
  <text style="stroke:none;fill:black;font-family:sans-serif;font-size:13;" transform="matrix(1 0 0 1 1289 1971)">Symbols should be outlined when exporting to ensure the</text>
  <text style="stroke:none;fill:black;font-family:sans-serif;font-size:13;" transform="matrix(1 0 0 1 1289 1989)">design is preserved when submitting to Xcode.</text>
  <text id="template-version" style="stroke:none;fill:black;font-family:sans-serif;font-size:13;text-anchor:end;" transform="matrix(1 0 0 1 3036 1933)">Template v.2.0</text>
  <text style="stroke:none;fill:black;font-family:sans-serif;font-size:13;text-anchor:end;" transform="matrix(1 0 0 1 3036 1951)">Requires Xcode 12 or greater</text>
  <text id="descriptive-name" style="stroke:none;fill:black;font-family:sans-serif;font-size:13;text-anchor:end;" transform="matrix(1 0 0 1 3036 1969)">Generated from alwaysondisplay</text>
  <text style="stroke:none;fill:black;font-family:sans-serif;font-size:13;text-anchor:end;" transform="matrix(1 0 0 1 3036 1987)">Typeset at 100.0 points</text>
  <text style="stroke:none;fill:black;font-family:sans-serif;font-size:13;" transform="matrix(1 0 0 1 263 726)">Small</text>
  <text style="stroke:none;fill:black;font-family:sans-serif;font-size:13;" transform="matrix(1 0 0 1 263 1156)">Medium</text>
  <text style="stroke:none;fill:black;font-family:sans-serif;font-size:13;" transform="matrix(1 0 0 1 263 1586)">Large</text>
 </g>
 <g id="Guides">
  <g id="H-reference" style="fill:#27AAE1;stroke:none;" transform="matrix(1 0 0 1 339 696)">
   <path d="M0.993654 0L3.63775 0L29.3281-67.1323L30.0303-67.1323L30.0303-70.459L28.1226-70.459ZM11.6885-24.4799L46.9815-24.4799L46.2315-26.7285L12.4385-26.7285ZM55.1196 0L57.7637 0L30.6382-70.459L29.4326-70.459L29.4326-67.1323Z"/>
  </g>
  <line id="Baseline-S" style="fill:none;stroke:#27AAE1;opacity:1;stroke-width:0.5;" x1="263" x2="3036" y1="696" y2="696"/>
  <line id="Capline-S" style="fill:none;stroke:#27AAE1;opacity:1;stroke-width:0.5;" x1="263" x2="3036" y1="625.541" y2="625.541"/>
  <g id="H-reference" style="fill:#27AAE1;stroke:none;" transform="matrix(1 0 0 1 339 1126)">
   <path d="M0.993654 0L3.63775 0L29.3281-67.1323L30.0303-67.1323L30.0303-70.459L28.1226-70.459ZM11.6885-24.4799L46.9815-24.4799L46.2315-26.7285L12.4385-26.7285ZM55.1196 0L57.7637 0L30.6382-70.459L29.4326-70.459L29.4326-67.1323Z"/>
  </g>
  <line id="Baseline-M" style="fill:none;stroke:#27AAE1;opacity:1;stroke-width:0.5;" x1="263" x2="3036" y1="1126" y2="1126"/>
  <line id="Capline-M" style="fill:none;stroke:#27AAE1;opacity:1;stroke-width:0.5;" x1="263" x2="3036" y1="1055.54" y2="1055.54"/>
  <g id="H-reference" style="fill:#27AAE1;stroke:none;" transform="matrix(1 0 0 1 339 1556)">
   <path d="M0.993654 0L3.63775 0L29.3281-67.1323L30.0303-67.1323L30.0303-70.459L28.1226-70.459ZM11.6885-24.4799L46.9815-24.4799L46.2315-26.7285L12.4385-26.7285ZM55.1196 0L57.7637 0L30.6382-70.459L29.4326-70.459L29.4326-67.1323Z"/>
  </g>
  <line id="Baseline-L" style="fill:none;stroke:#27AAE1;opacity:1;stroke-width:0.5;" x1="263" x2="3036" y1="1556" y2="1556"/>
  <line id="Capline-L" style="fill:none;stroke:#27AAE1;opacity:1;stroke-width:0.5;" x1="263" x2="3036" y1="1485.54" y2="1485.54"/>
  <line id="right-margin" style="fill:none;stroke:#00AEEF;stroke-width:0.5;opacity:1.0;" x1="1511.36" x2="1511.36" y1="1030.79" y2="1150.12"/>
  <line id="left-margin" style="fill:none;stroke:#00AEEF;stroke-width:0.5;opacity:1.0;" x1="1388.33" x2="1388.33" y1="1030.79" y2="1150.12"/>
 </g>
 <g id="Symbols">
  <g id="Black-L" transform="matrix(1 0 0 1 2845.51 1556)">
   <path d="M87.864-81.8978C92.8411-81.8978 97.024-86.1016 97.024-91.0788L97.024-102.582C97.024-107.558 92.8411-111.8 87.864-111.8C82.8672-111.8 78.6843-107.558 78.6843-102.582L78.6843-91.0788C78.6843-86.1016 82.8672-81.8978 87.864-81.8978ZM120.932-67.9494C124.371-64.513 130.389-64.5494 133.905-68.1246L142.022-76.2783C145.439-79.7158 145.379-85.7552 141.847-89.3108C138.408-92.746 132.389-92.6304 128.895-89.1357L120.756-80.9392C117.341-77.5223 117.4-71.5038 120.932-67.9494ZM134.626-35.2697C134.626-30.2937 138.831-26.0888 143.807-26.0888L155.269-26.0888C160.266-26.0888 164.508-30.2937 164.508-35.2697C164.508-40.2457 160.266-44.4506 155.269-44.4506L143.807-44.4506C138.831-44.4506 134.626-40.2457 134.626-35.2697ZM120.756-2.33558C117.342 1.10205 117.399 7.04135 120.932 10.5957L129.128 18.7338C132.565 22.1702 138.583 22.0898 142.139 18.5378C145.554 15.099 145.497 9.08043 141.964 5.58444L133.767-2.51082C130.331-5.94838 124.312-5.88881 120.756-2.33558ZM87.864 11.3584C82.8672 11.3584 78.6843 15.5622 78.6843 20.5393L78.6843 32.043C78.6843 37.0189 82.8672 41.2603 87.864 41.2603C92.8411 41.2603 97.024 37.0189 97.024 32.043L97.024 20.5393C97.024 15.5622 92.8411 11.3584 87.864 11.3584ZM54.9519-2.33558C51.3963-5.88881 45.3569-5.94838 41.9204-2.51082L33.7657 5.56364C30.2112 9.05961 30.154 15.0782 33.5697 18.517C37.124 22.069 43.1438 22.1494 46.5802 18.713L54.7558 10.5957C58.309 7.04135 58.3662 1.10205 54.9519-2.33558ZM41.1398-35.2697C41.1398-40.2457 36.8984-44.4506 31.9018-44.4506L20.4397-44.4506C15.4417-44.4506 11.2588-40.2457 11.2588-35.2697C11.2588-30.2937 15.4417-26.0888 20.4397-26.0888L31.9018-26.0888C36.8984-26.0888 41.1398-30.2937 41.1398-35.2697ZM54.7558-67.9494C58.3078-71.483 58.3674-77.5223 54.9519-80.9392L46.8346-89.1357C43.3606-92.6095 37.3201-92.746 33.9032-89.3108C30.3501-85.7552 30.2905-79.7158 33.7072-76.2991L41.8037-68.1246C45.2985-64.5702 51.3171-64.513 54.7558-67.9494ZM73.1476-29.2647C71.0238-29.2647 69.3723-30.9273 69.3723-33.0406C69.3723-35.1627 71.0238-36.8259 73.1476-36.8259L84.0699-36.8259L84.0699-52.5302C84.0699-54.6534 85.7331-56.3155 87.8446-56.3155C89.9678-56.3155 91.631-54.6534 91.631-52.5302L91.631-33.0406C91.631-30.9273 89.9678-29.2647 87.8446-29.2647L73.1476-29.2647ZM87.8411 0.50974C107.603 0.50974 123.624-15.5124 123.624-35.2623C123.624-55.0121 107.603-71.0343 87.8411-71.0343C68.0913-71.0343 52.0691-55.0121 52.0691-35.2623C52.0691-15.5124 68.0913 0.50974 87.8411 0.50974Z"/>
  </g>
  <g id="Heavy-L" transform="matrix(1 0 0 1 2550.84 1556)">
   <path d="M85.8332-81.3015C90.2919-81.3015 94.0203-85.0602 94.0203-89.5189L94.0203-101.589C94.0203-106.042 90.2919-109.815 85.8332-109.815C81.3499-109.815 77.6214-106.042 77.6214-101.589L77.6214-89.5189C77.6214-85.0602 81.3499-81.3015 85.8332-81.3015ZM118.431-67.5851C121.529-64.4984 126.893-64.5072 130.054-67.719L138.584-76.2577C141.646-79.3499 141.596-84.744 138.45-87.9312C135.352-91.0123 129.988-90.9286 126.857-87.7974L118.297-79.1927C115.24-76.1305 115.291-70.7667 118.431-67.5851ZM131.938-35.2697C131.938-30.8166 135.703-27.0524 140.156-27.0524L152.166-27.0524C156.654-27.0524 160.427-30.8166 160.427-35.2697C160.427-39.7228 156.654-43.487 152.166-43.487L140.156-43.487C135.703-43.487 131.938-39.7228 131.938-35.2697ZM118.297-2.74561C115.246 0.346729 115.285 5.63578 118.431 8.81732L127.035 17.3774C130.122 20.4641 135.486 20.3837 138.673 17.2133C141.73 14.1154 141.691 8.7515 138.539 5.61457L129.935-2.87949C126.848-5.97179 121.484-5.92158 118.297-2.74561ZM85.8332 10.7621C81.3499 10.7621 77.6214 14.5208 77.6214 18.9794L77.6214 31.0496C77.6214 35.5027 81.3499 39.2758 85.8332 39.2758C90.2919 39.2758 94.0203 35.5027 94.0203 31.0496L94.0203 18.9794C94.0203 14.5208 90.2919 10.7621 85.8332 10.7621ZM53.3449-2.74561C50.1577-5.92158 44.7637-5.97179 41.6769-2.87949L33.1327 5.58441C29.9511 8.72132 29.9121 14.0852 32.9686 17.1831C36.1502 20.3535 41.5197 20.4339 44.6064 17.3472L53.1808 8.81732C56.3568 5.63578 56.3958 0.346729 53.3449-2.74561ZM39.7423-35.2697C39.7423-39.7228 35.9692-43.487 31.486-43.487L19.4761-43.487C14.9873-43.487 11.2588-39.7228 11.2588-35.2697C11.2588-30.8166 14.9873-27.0524 19.4761-27.0524L31.486-27.0524C35.9692-27.0524 39.7423-30.8166 39.7423-35.2697ZM53.1808-67.5851C56.3512-70.7365 56.4014-76.1305 53.3449-79.1927L44.815-87.7974C41.7139-90.8985 36.3143-91.0123 33.2521-87.9312C30.0761-84.744 30.0259-79.3499 33.088-76.2878L41.5877-67.719C44.7191-64.5374 50.0829-64.4984 53.1808-67.5851ZM70.7243-29.9085C68.823-29.9085 67.3586-31.3909 67.3586-33.2769C67.3586-35.1701 68.823-36.6551 70.7243-36.6551L82.4837-36.6551L82.4837-53.1927C82.4837-55.0912 83.9688-56.5709 85.8467-56.5709C87.7453-56.5709 89.2303-55.0912 89.2303-53.1927L89.2303-33.2769C89.2303-31.3909 87.7453-29.9085 85.8467-29.9085L70.7243-29.9085ZM85.7964-0.43064C105.043-0.43064 120.643-16.0362 120.643-35.2621C120.643-54.4881 105.043-70.0936 85.7964-70.0936C66.5705-70.0936 50.9645-54.4881 50.9645-35.2621C50.9645-16.0362 66.5705-0.43064 85.7964-0.43064Z"/>
  </g>
  <g id="Bold-L" transform="matrix(1 0 0 1 2256.48 1556)">
   <path d="M83.4918-80.7576C87.2903-80.7576 90.4354-83.9407 90.4354-87.7391L90.4354-100.561C90.4354-104.346 87.2903-107.52 83.4918-107.52C79.6686-107.52 76.5235-104.346 76.5235-100.561L76.5235-87.7391C76.5235-83.9407 79.6686-80.7576 83.4918-80.7576ZM115.655-67.266C118.315-64.632 122.842-64.61 125.543-67.3536L134.618-76.406C137.227-79.0531 137.184-83.6182 134.53-86.3371C131.87-88.9578 127.342-88.9126 124.679-86.2495L115.567-77.1079C112.971-74.4987 113.013-69.9715 115.655-67.266ZM128.991-35.2697C128.991-31.4845 132.188-28.2882 135.973-28.2882L148.719-28.2882C152.555-28.2882 155.729-31.4845 155.729-35.2697C155.729-39.0549 152.555-42.2512 148.719-42.2512L135.973-42.2512C132.188-42.2512 128.991-39.0549 128.991-35.2697ZM115.567-3.11862C112.984-0.471441 113 3.98849 115.655 6.69408L124.796 15.8065C127.43 18.4404 131.957 18.36 134.676 15.6809C137.272 13.0204 137.256 8.49329 134.588 5.81691L125.447-3.20624C122.813-5.85344 118.286-5.81103 115.567-3.11862ZM83.4918 10.2182C79.6686 10.2182 76.5235 13.4013 76.5235 17.1997L76.5235 30.0214C76.5235 33.8066 79.6686 36.9809 83.4918 36.9809C87.2903 36.9809 90.4354 33.8066 90.4354 30.0214L90.4354 17.1997C90.4354 13.4013 87.2903 10.2182 83.4918 10.2182ZM51.392-3.11862C48.6732-5.81103 44.1081-5.85344 41.474-3.20624L32.4085 5.77895C29.7029 8.4553 29.6869 12.9824 32.2829 15.6429C34.9885 18.322 39.5289 18.4024 42.1628 15.7685L51.2664 6.69408C53.9588 3.98849 53.9747-0.471441 51.392-3.11862ZM37.9835-35.2697C37.9835-39.0549 34.8092-42.2512 30.986-42.2512L18.2403-42.2512C14.4039-42.2512 11.2588-39.0549 11.2588-35.2697C11.2588-31.4845 14.4039-28.2882 18.2403-28.2882L30.986-28.2882C34.8092-28.2882 37.9835-31.4845 37.9835-35.2697ZM51.2664-67.266C53.9456-69.9336 53.988-74.4987 51.392-77.1079L42.3176-86.2495C39.6924-88.8746 35.1142-88.9578 32.5049-86.3371C29.8125-83.6182 29.7701-79.0531 32.3793-76.4439L41.4157-67.3536C44.0789-64.648 48.606-64.632 51.2664-67.266ZM67.9315-30.6751C66.3115-30.6751 65.0826-31.9294 65.0826-33.5303C65.0826-35.1314 66.3115-36.392 67.9315-36.392L80.729-36.392L80.729-53.9763C80.729-55.59 81.9896-56.838 83.5716-56.838C85.1853-56.838 86.4459-55.59 86.4459-53.9763L86.4459-33.5303C86.4459-31.9294 85.1853-30.6751 83.5716-30.6751L67.9315-30.6751ZM83.4361-1.61202C102.036-1.61202 117.105-16.6935 117.105-35.2624C117.105-53.8312 102.036-68.9128 83.4361-68.9128C64.8673-68.9128 49.7848-53.8312 49.7848-35.2624C49.7848-16.6935 64.8673-1.61202 83.4361-1.61202Z"/>
  </g>
  <g id="Semibold-L" transform="matrix(1 0 0 1 1961.39 1556)">
   <path d="M81.8777-80.3826C85.221-80.3826 87.964-83.1689 87.964-86.5122L87.964-99.852C87.964-103.177 85.221-105.938 81.8777-105.938C78.5096-105.938 75.7666-103.177 75.7666-99.852L75.7666-86.5122C75.7666-83.1689 78.5096-80.3826 81.8777-80.3826ZM113.741-67.046C116.099-64.7241 120.05-64.6808 122.434-67.1017L131.883-76.5082C134.18-78.8484 134.143-82.8421 131.828-85.2381C129.469-87.5414 125.518-87.5227 123.178-85.1824L113.685-75.6707C111.406-73.3737 111.443-69.4234 113.741-67.046ZM126.96-35.2697C126.96-31.9449 129.764-29.1401 133.089-29.1401L146.342-29.1401C149.729-29.1401 152.49-31.9449 152.49-35.2697C152.49-38.5945 149.729-41.3993 146.342-41.3993L133.089-41.3993C129.764-41.3993 126.96-38.5945 126.96-35.2697ZM113.685-3.37578C111.425-1.03548 111.425 2.85286 113.741 5.23033L123.252 14.7235C125.574 17.0453 129.524 16.9649 131.92 14.6244C134.199 12.2656 134.199 8.31528 131.865 5.9564L122.353-3.43151C120.031-5.77185 116.081-5.73481 113.685-3.37578ZM81.8777 9.8432C78.5096 9.8432 75.7666 12.6295 75.7666 15.9728L75.7666 29.3125C75.7666 32.6373 78.5096 35.3988 81.8777 35.3988C85.221 35.3988 87.964 32.6373 87.964 29.3125L87.964 15.9728C87.964 12.6295 85.221 9.8432 81.8777 9.8432ZM50.0457-3.37578C47.6497-5.73481 43.6561-5.77185 41.3342-3.43151L31.9093 5.91306C29.5318 8.27192 29.5317 12.2222 31.8102 14.581C34.1877 16.9215 38.1564 17.0019 40.4783 14.6801L49.9466 5.23033C52.3056 2.85286 52.3057-1.03548 50.0457-3.37578ZM36.771-35.2697C36.771-38.5945 34.0095-41.3993 30.6414-41.3993L17.3884-41.3993C14.0018-41.3993 11.2588-38.5945 11.2588-35.2697C11.2588-31.9449 14.0018-29.1401 17.3884-29.1401L30.6414-29.1401C34.0095-29.1401 36.771-31.9449 36.771-35.2697ZM49.9466-67.046C52.2871-69.3801 52.3242-73.3737 50.0457-75.6707L40.5959-85.1824C38.2988-87.4794 34.2868-87.5414 31.9898-85.2381C29.6308-82.8421 29.5937-78.8484 31.8907-76.5515L41.2971-67.1017C43.6375-64.7242 47.5878-64.7241 49.9466-67.046ZM66.0063-31.2036C64.5801-31.2036 63.5136-32.3007 63.5136-33.705C63.5136-35.1048 64.5801-36.2107 66.0063-36.2107L79.5193-36.2107L79.5193-54.5165C79.5193-55.9339 80.6251-57.0222 82.0031-57.0222C83.4205-57.0222 84.5264-55.9339 84.5264-54.5165L84.5264-33.705C84.5264-32.3007 83.4205-31.2036 82.0031-31.2036L66.0063-31.2036ZM81.809-2.42646C99.9631-2.42646 114.666-17.1467 114.666-35.2626C114.666-53.3784 99.9631-68.0987 81.809-68.0987C63.6932-68.0987 48.9715-53.3784 48.9715-35.2626C48.9715-17.1467 63.6932-2.42646 81.809-2.42646Z"/>
  </g>
  <g id="Medium-L" transform="matrix(1 0 0 1 1665.91 1556)">
   <path d="M80.6538-80.0983C83.652-80.0983 86.09-82.5837 86.09-85.5819L86.09-99.3145C86.09-102.29 83.652-104.739 80.6538-104.739C77.6307-104.739 75.1927-102.29 75.1927-99.3145L75.1927-85.5819C75.1927-82.5837 77.6307-80.0983 80.6538-80.0983ZM112.289-66.8792C114.42-64.7939 117.932-64.7345 120.076-66.9107L129.81-76.5857C131.87-78.6933 131.837-82.2536 129.778-84.4048C127.648-86.4675 124.135-86.4689 122.04-84.3732L112.258-74.5809C110.22-72.5207 110.253-69.0078 112.289-66.8792ZM125.419-35.2697C125.419-32.294 127.927-29.7861 130.903-29.7861L144.54-29.7861C147.586-29.7861 150.034-32.294 150.034-35.2697C150.034-38.2454 147.586-40.7533 144.54-40.7533L130.903-40.7533C127.927-40.7533 125.419-38.2454 125.419-35.2697ZM112.258-3.57077C110.243-1.46316 110.231 1.99178 112.289 4.12045L122.082 13.9023C124.167 15.9875 127.68 15.9071 129.831 13.8233C131.869 11.6932 131.881 8.18031 129.799 6.06216L120.007-3.60231C117.922-5.70998 114.409-5.67702 112.258-3.57077ZM80.6538 9.55887C77.6307 9.55887 75.1927 12.0444 75.1927 15.0425L75.1927 28.775C75.1927 31.7507 77.6307 34.1992 80.6538 34.1992C83.652 34.1992 86.09 31.7507 86.09 28.775L86.09 15.0425C86.09 12.0444 83.652 9.55887 80.6538 9.55887ZM49.0248-3.57077C46.8737-5.67702 43.3134-5.70998 41.2282-3.60231L31.5308 6.01475C29.4021 8.13286 29.414 11.6458 31.4518 13.7759C33.5804 15.8596 37.1158 15.94 39.201 13.8549L48.9459 4.12045C51.0521 1.99178 51.0402-1.46316 49.0248-3.57077ZM35.8517-35.2697C35.8517-38.2454 33.4031-40.7533 30.38-40.7533L16.7424-40.7533C13.6968-40.7533 11.2588-38.2454 11.2588-35.2697C11.2588-32.294 13.6968-29.7861 16.7424-29.7861L30.38-29.7861C33.4031-29.7861 35.8517-32.294 35.8517-35.2697ZM48.9459-66.8792C51.0297-68.9604 51.0626-72.5207 49.0248-74.5809L39.2904-84.3732C37.2422-86.4215 33.6595-86.4675 31.5992-84.4048C29.493-82.2536 29.46-78.6933 31.5202-76.6331L41.2072-66.9107C43.3029-64.782 46.8158-64.7939 48.9459-66.8792ZM64.5464-31.6043C63.2672-31.6043 62.3239-32.5822 62.3239-33.8374C62.3239-35.0846 63.2672-36.0731 64.5464-36.0731L78.602-36.0731L78.602-54.9261C78.602-56.1946 79.5905-57.1618 80.8138-57.1618C82.0823-57.1618 83.0709-56.1946 83.0709-54.9261L83.0709-33.8374C83.0709-32.5822 82.0823-31.6043 80.8138-31.6043L64.5464-31.6043ZM80.5752-3.044C98.3915-3.044 112.817-17.4903 112.817-35.2627C112.817-53.0351 98.3915-67.4814 80.5752-67.4814C62.8029-67.4814 48.3548-53.0351 48.3548-35.2627C48.3548-17.4903 62.8029-3.044 80.5752-3.044Z"/>
  </g>
  <g id="Regular-L" transform="matrix(1 0 0 1 1370.8 1556)">
   <path d="M79.0575-79.7274C81.6054-79.7274 83.6457-81.8205 83.6457-84.3684L83.6457-98.6134C83.6457-101.134 81.6054-103.174 79.0575-103.174C76.4844-103.174 74.4441-101.134 74.4441-98.6134L74.4441-84.3684C74.4441-81.8205 76.4844-79.7274 79.0575-79.7274ZM110.397-66.6616C112.228-64.885 115.171-64.8046 117-66.6616L127.106-76.6868C128.857-78.4909 128.829-81.486 127.106-83.3179C125.274-85.0666 122.331-85.0943 120.555-83.3179L110.397-73.1594C108.673-71.408 108.7-68.4657 110.397-66.6616ZM123.41-35.2697C123.41-32.7494 125.53-30.6287 128.051-30.6287L142.19-30.6287C144.791-30.6287 146.831-32.7494 146.831-35.2697C146.831-37.79 144.791-39.9107 142.19-39.9107L128.051-39.9107C125.53-39.9107 123.41-37.79 123.41-35.2697ZM110.397-3.8251C108.7-2.02101 108.673 0.868635 110.397 2.67278L120.555 12.8312C122.331 14.6077 125.274 14.5273 127.106 12.7785C128.829 10.9467 128.857 8.00426 127.106 6.20012L116.947-3.8251C115.171-5.62929 112.228-5.60164 110.397-3.8251ZM79.0575 9.18801C76.4844 9.18801 74.4441 11.2811 74.4441 13.829L74.4441 28.0739C74.4441 30.5942 76.4844 32.6345 79.0575 32.6345C81.6054 32.6345 83.6457 30.5942 83.6457 28.0739L83.6457 13.829C83.6457 11.2811 81.6054 9.18801 79.0575 9.18801ZM47.6933-3.8251C45.8615-5.60164 42.8664-5.62929 41.0899-3.8251L31.037 6.14739C29.2329 7.95149 29.2605 10.8939 30.9842 12.7257C32.7884 14.4745 35.7584 14.5549 37.5349 12.7785L47.6406 2.67278C49.4171 0.868635 49.3895-2.02101 47.6933-3.8251ZM34.6525-35.2697C34.6525-37.79 32.6122-39.9107 30.0392-39.9107L15.8998-39.9107C13.2991-39.9107 11.2588-37.79 11.2588-35.2697C11.2588-32.7494 13.2991-30.6287 15.8998-30.6287L30.0392-30.6287C32.6122-30.6287 34.6525-32.7494 34.6525-35.2697ZM47.6406-66.6616C49.3895-68.4129 49.4171-71.408 47.6933-73.1594L37.5877-83.3179C35.8639-85.0416 32.8412-85.0666 31.0897-83.3179C29.3133-81.486 29.2856-78.4909 31.037-76.7395L41.0899-66.6616C42.8664-64.8574 45.8088-64.885 47.6406-66.6616ZM62.6423-32.1269C61.5548-32.1269 60.7722-32.9493 60.7722-34.0102C60.7722-35.0582 61.5548-35.8938 62.6423-35.8938L77.4056-35.8938L77.4056-55.4604C77.4056-56.5347 78.2411-57.3439 79.2626-57.3439C80.3369-57.3439 81.1724-56.5347 81.1724-55.4604L81.1724-34.0102C81.1724-32.9493 80.3369-32.1269 79.2626-32.1269L62.6423-32.1269ZM78.9659-3.84948C96.3415-3.84948 110.405-17.9385 110.405-35.2629C110.405-52.5873 96.3415-66.6763 78.9659-66.6763C61.6416-66.6763 47.5505-52.5873 47.5505-35.2629C47.5505-17.9385 61.6416-3.84948 78.9659-3.84948Z"/>
  </g>
  <g id="Light-L" transform="matrix(1 0 0 1 1074.56 1556)">
   <path d="M78.5612-80.6054C80.5366-80.6054 82.0426-82.1449 82.0426-84.1203L82.0426-99.205C82.0426-101.134 80.5366-102.64 78.5612-102.64C76.5989-102.64 75.093-101.134 75.093-99.205L75.093-84.1203C75.093-82.1449 76.5989-80.6054 78.5612-80.6054ZM110.549-67.2914C111.98-65.9538 114.178-65.8733 115.55-67.2914L126.247-77.9082C127.597-79.2924 127.551-81.5242 126.247-82.9552C124.816-84.246 122.618-84.2927 121.28-82.9552L110.549-72.2243C109.245-70.8736 109.292-68.6756 110.549-67.2914ZM123.83-35.2697C123.83-33.341 125.416-31.7547 127.345-31.7547L142.362-31.7547C144.371-31.7547 145.877-33.341 145.877-35.2697C145.877-37.1984 144.371-38.7847 142.362-38.7847L127.345-38.7847C125.416-38.7847 123.83-37.1984 123.83-35.2697ZM110.549-3.21437C109.292-1.83015 109.245 0.334236 110.549 1.71856L121.28 12.4495C122.618 13.787 124.816 13.7066 126.247 12.4158C127.551 10.9848 127.597 8.78675 126.247 7.40248L115.516-3.21437C114.178-4.59865 111.98-4.55192 110.549-3.21437ZM78.5612 10.0659C76.5989 10.0659 75.093 11.6055 75.093 13.5809L75.093 28.6656C75.093 30.5942 76.5989 32.1001 78.5612 32.1001C80.5366 32.1001 82.0426 30.5942 82.0426 28.6656L82.0426 13.5809C82.0426 11.6055 80.5366 10.0659 78.5612 10.0659ZM46.5864-3.21437C45.1553-4.55192 42.9237-4.59865 41.5861-3.21437L30.9225 7.36883C29.5382 8.75307 29.5849 10.9511 30.8888 12.3822C32.2731 13.673 34.5179 13.7534 35.8554 12.4158L46.5527 1.71856C47.8903 0.334236 47.8436-1.83015 46.5864-3.21437ZM33.2593-35.2697C33.2593-37.1984 31.7534-38.7847 29.7911-38.7847L14.7737-38.7847C12.7647-38.7847 11.2588-37.1984 11.2588-35.2697C11.2588-33.341 12.7647-31.7547 14.7737-31.7547L29.7911-31.7547C31.7534-31.7547 33.2593-33.341 33.2593-35.2697ZM46.5527-67.2914C47.8436-68.6419 47.8903-70.8736 46.5864-72.2243L35.889-82.9552C34.5852-84.2591 32.3068-84.246 30.9562-82.9552C29.6187-81.5242 29.5718-79.2924 30.9225-77.9419L41.5861-67.2914C42.9237-65.9071 45.1217-65.9538 46.5527-67.2914ZM62.0589-32.4578C61.2011-32.4578 60.6063-33.0917 60.6063-33.9326C60.6063-34.7237 61.2011-35.3798 62.0589-35.3798L77.5452-35.3798L77.5452-55.7639C77.5452-56.5996 78.2012-57.2111 78.9755-57.2111C79.8111-57.2111 80.4672-56.5996 80.4672-55.7639L80.4672-33.9326C80.4672-33.0917 79.8111-32.4578 78.9755-32.4578L62.0589-32.4578ZM78.4462-4.77237C95.3232-4.77237 108.955-18.4471 108.955-35.2656C108.955-52.0842 95.3232-65.7589 78.4462-65.7589C61.6277-65.7589 47.9495-52.0842 47.9495-35.2656C47.9495-18.4471 61.6277-4.77237 78.4462-4.77237Z"/>
  </g>
  <g id="Thin-L" transform="matrix(1 0 0 1 778.485 1556)">
   <path d="M77.9049-81.7665C79.1231-81.7665 79.9222-82.5741 79.9222-83.7922L79.9222-99.9875C79.9222-101.134 79.1231-101.933 77.9049-101.933C76.7503-101.933 75.9512-101.134 75.9512-99.9875L75.9512-83.7922C75.9512-82.5741 76.7503-81.7665 77.9049-81.7665ZM110.751-68.1243C111.652-67.3674 112.866-67.2869 113.631-68.1243L125.111-79.5237C125.932-80.3526 125.859-81.5747 125.111-82.4756C124.21-83.1606 122.996-83.2326 122.239-82.4756L110.751-70.9875C110.003-70.1668 110.075-68.9532 110.751-68.1243ZM124.385-35.2697C124.385-34.1235 125.264-33.244 126.411-33.244L142.589-33.244C143.816-33.244 144.615-34.1235 144.615-35.2697C144.615-36.4159 143.816-37.2954 142.589-37.2954L126.411-37.2954C125.264-37.2954 124.385-36.4159 124.385-35.2697ZM110.751-2.40664C110.075-1.57773 110.003-0.372549 110.751 0.456517L122.239 11.9447C122.996 12.7016 124.21 12.6212 125.111 11.9362C125.859 11.0353 125.932 9.82167 125.111 8.99271L113.623-2.40664C112.866-3.23556 111.652-3.16359 110.751-2.40664ZM77.9049 11.2271C76.7503 11.2271 75.9512 12.0346 75.9512 13.2528L75.9512 29.4481C75.9512 30.5942 76.7503 31.3934 77.9049 31.3934C79.1231 31.3934 79.9222 30.5942 79.9222 29.4481L79.9222 13.2528C79.9222 12.0346 79.1231 11.2271 77.9049 11.2271ZM45.1224-2.40664C44.2214-3.16359 42.9994-3.23556 42.2424-2.40664L30.7711 8.98429C29.942 9.81323 30.014 11.0269 30.7625 11.9278C31.5916 12.6128 32.8772 12.6932 33.6341 11.9362L45.114 0.456517C45.8709-0.372549 45.799-1.57773 45.1224-2.40664ZM31.4167-35.2697C31.4167-36.4159 30.6175-37.2954 29.4629-37.2954L13.2845-37.2954C12.0579-37.2954 11.2588-36.4159 11.2588-35.2697C11.2588-34.1235 12.0579-33.244 13.2845-33.244L29.4629-33.244C30.6175-33.244 31.4167-34.1235 31.4167-35.2697ZM45.114-68.1243C45.799-68.9448 45.8709-70.1668 45.1224-70.9875L33.6425-82.4756C32.894-83.2242 31.6-83.1606 30.7795-82.4756C30.0226-81.5747 29.9504-80.3526 30.7711-79.5321L42.2424-68.1243C42.9994-67.2954 44.213-67.3674 45.114-68.1243ZM61.2872-32.8955C60.7331-32.8955 60.387-33.2799 60.387-33.8299C60.387-34.2813 60.7331-34.7 61.2872-34.7L77.7299-34.7L77.7299-56.1654C77.7299-56.6853 78.1485-57.0355 78.5958-57.0355C79.1158-57.0355 79.5344-56.6853 79.5344-56.1654L79.5344-33.8299C79.5344-33.2799 79.1158-32.8955 78.5958-32.8955L61.2872-32.8955ZM77.7588-5.99297C93.9765-5.99297 107.037-19.1197 107.037-35.2693C107.037-51.4189 93.9765-64.5456 77.7588-64.5456C61.6094-64.5456 48.4771-51.4189 48.4771-35.2693C48.4771-19.1197 61.6094-5.99297 77.7588-5.99297Z"/>
  </g>
  <g id="Ultralight-L" transform="matrix(1 0 0 1 482.098 1556)">
   <path d="M77.5688-82.3613C78.399-82.3613 78.8362-82.7939 78.8362-83.6241L78.8362-100.388C78.8362-101.134 78.399-101.571 77.5688-101.571C76.8279-101.571 76.3908-101.134 76.3908-100.388L76.3908-83.6241C76.3908-82.7939 76.8279-82.3613 77.5688-82.3613ZM110.855-68.551C111.484-68.0914 112.193-68.0109 112.649-68.551L124.529-80.3511C125.078-80.8956 124.993-81.6006 124.529-82.23C123.9-82.6047 123.19-82.6896 122.731-82.23L110.855-70.354C110.39-69.8048 110.475-69.0955 110.855-68.551ZM124.669-35.2697C124.669-34.5243 125.187-34.0068 125.932-34.0068L142.705-34.0068C143.531-34.0068 143.968-34.5243 143.968-35.2697C143.968-36.0151 143.531-36.5326 142.705-36.5326L125.932-36.5326C125.187-36.5326 124.669-36.0151 124.669-35.2697ZM110.855-1.99293C110.475-1.44845 110.39-0.734561 110.855-0.189894L122.731 11.6861C123.19 12.1457 123.9 12.0653 124.529 11.6906C124.993 11.0612 125.078 10.3517 124.529 9.80722L112.653-1.99293C112.193-2.53738 111.484-2.45249 110.855-1.99293ZM77.5688 11.8218C76.8279 11.8218 76.3908 12.2544 76.3908 13.0847L76.3908 29.8489C76.3908 30.5942 76.8279 31.0314 77.5688 31.0314C78.399 31.0314 78.8362 30.5942 78.8362 29.8489L78.8362 13.0847C78.8362 12.2544 78.399 11.8218 77.5688 11.8218ZM44.3725-1.99293C43.743-2.45249 43.0381-2.53738 42.5786-1.99293L30.6935 9.81172C30.1489 10.3562 30.2338 11.0657 30.6979 11.6951C31.2425 12.0698 32.0368 12.1502 32.4964 11.6906L44.3771-0.189894C44.8366-0.734561 44.7517-1.44845 44.3725-1.99293ZM30.4729-35.2697C30.4729-36.0151 30.0357-36.5326 29.2949-36.5326L12.5217-36.5326C11.6959-36.5326 11.2588-36.0151 11.2588-35.2697C11.2588-34.5243 11.6959-34.0068 12.5217-34.0068L29.2949-34.0068C30.0357-34.0068 30.4729-34.5243 30.4729-35.2697ZM44.3771-68.551C44.7517-69.1 44.8366-69.8048 44.3725-70.354L32.4918-82.23C32.0277-82.6941 31.238-82.6047 30.689-82.23C30.2294-81.6006 30.1444-80.8956 30.6935-80.3466L42.5786-68.551C43.0381-68.0065 43.7475-68.0914 44.3771-68.551ZM60.892-33.1197C60.4935-33.1197 60.2746-33.3764 60.2746-33.7773C60.2746-34.0547 60.4935-34.3518 60.892-34.3518L77.8245-34.3518L77.8245-56.371C77.8245-56.7292 78.1215-56.9455 78.4014-56.9455C78.7596-56.9455 79.0567-56.7292 79.0567-56.371L79.0567-33.7773C79.0567-33.3764 78.7596-33.1197 78.4014-33.1197L60.892-33.1197ZM77.4067-6.61815C93.2867-6.61815 106.054-19.4642 106.054-35.2712C106.054-51.0781 93.2867-63.9242 77.4067-63.9242C61.6-63.9242 48.7474-51.0781 48.7474-35.2712C48.7474-19.4642 61.6-6.61815 77.4067-6.61815Z"/>
  </g>
  <g id="Black-M" transform="matrix(1 0 0 1 2863.62 1126)">
   <path d="M69.75-72.0168C73.974-72.0168 77.5329-75.5812 77.5329-79.8052L77.5329-88.3446C77.5329-92.5687 73.974-96.1848 69.75-96.1848C65.5202-96.1848 61.9614-92.5687 61.9614-88.3446L61.9614-79.8052C61.9614-75.5812 65.5202-72.0168 69.75-72.0168ZM95.8609-60.9773C98.7638-58.074 103.888-58.1259 106.854-61.1486L112.869-67.2149C115.766-70.1179 115.709-75.2481 112.697-78.2651C109.795-81.1688 104.67-81.0543 101.709-78.0939L95.6896-72.0169C92.7917-69.1193 92.8485-63.9946 95.8609-60.9773ZM106.666-35.2606C106.666-31.0363 110.231-27.4723 114.455-27.4723L122.983-27.4723C127.212-27.4723 130.829-31.0363 130.829-35.2606C130.829-39.4849 127.212-43.049 122.983-43.049L114.455-43.049C110.231-43.049 106.666-39.4849 106.666-35.2606ZM95.6896-9.31007C92.7915-6.40692 92.8488-1.34491 95.8609 1.67238L101.938 7.69222C104.841 10.5956 109.966 10.5333 112.983 7.51543C115.881 4.61261 115.823-0.512031 112.812-3.47222L106.735-9.48138C103.831-12.3844 98.7066-12.3276 95.6896-9.31007ZM69.75 1.49554C65.5202 1.49554 61.9614 5.05994 61.9614 9.28392L61.9614 17.8232C61.9614 22.0475 65.5202 25.6635 69.75 25.6635C73.974 25.6635 77.5329 22.0475 77.5329 17.8232L77.5329 9.28392C77.5329 5.05994 73.974 1.49554 69.75 1.49554ZM43.8046-9.31007C40.7876-12.3276 35.6575-12.3844 32.754-9.48138L26.6882-3.47771C23.6708-0.517523 23.6135 4.60712 26.5114 7.50994C29.5287 10.5278 34.6531 10.5901 37.5564 7.68673L43.6278 1.67238C46.6454-1.34491 46.7028-6.40692 43.8046-9.31007ZM32.8851-35.2606C32.8851-39.4849 29.2691-43.049 25.0394-43.049L16.5111-43.049C12.2816-43.049 8.72266-39.4849 8.72266-35.2606C8.72266-31.0363 12.2816-27.4723 16.5111-27.4723L25.0394-27.4723C29.2691-27.4723 32.8851-31.0363 32.8851-35.2606ZM43.6278-60.9773C46.6457-63.9891 46.7025-69.1193 43.8046-72.0169L37.7903-78.0939C34.8353-81.0488 29.7055-81.1688 26.8078-78.2651C23.7903-75.2481 23.7335-70.1179 26.631-67.2204L32.6399-61.1486C35.6004-58.1314 40.7251-58.074 43.6278-60.9773ZM58.6742-30.0999C56.8686-30.0999 55.4538-31.5173 55.4538-33.3201C55.4538-35.1261 56.8686-36.5434 58.6742-36.5434L66.5146-36.5434L66.5146-48.1049C66.5146-49.9105 67.9319-51.3282 69.735-51.3282C71.5407-51.3282 72.958-49.9105 72.958-48.1049L72.958-33.3201C72.958-31.5173 71.5407-30.0999 69.735-30.0999L58.6742-30.0999ZM69.7411-6.85766C85.4265-6.85766 98.1416-19.5725 98.1416-35.2553C98.1416-50.9382 85.4265-63.6531 69.7411-63.6531C54.0583-63.6531 41.3435-50.9382 41.3435-35.2553C41.3435-19.5725 54.0583-6.85766 69.7411-6.85766Z"/>
  </g>
  <g id="Heavy-M" transform="matrix(1 0 0 1 2568.86 1126)">
   <path d="M67.8105-71.3529C71.5805-71.3529 74.7444-74.5332 74.7444-78.3033L74.7444-87.3189C74.7444-91.0865 71.5805-94.2941 67.8105-94.2941C64.0264-94.2941 60.8625-91.0865 60.8625-87.3189L60.8625-78.3033C60.8625-74.5332 64.0264-71.3529 67.8105-71.3529ZM93.402-60.5632C96.0086-57.9612 100.562-57.9861 103.224-60.694L109.587-67.0821C112.175-69.6863 112.129-74.256 109.456-76.9499C106.85-79.5497 102.296-79.4647 99.6506-76.8191L93.2711-70.3959C90.6855-67.808 90.7314-63.2547 93.402-60.5632ZM104.001-35.2606C104.001-31.4929 107.183-28.3103 110.951-28.3103L119.934-28.3103C123.72-28.3103 126.928-31.4929 126.928-35.2606C126.928-39.0284 123.72-42.2109 119.934-42.2109L110.951-42.2109C107.183-42.2109 104.001-39.0284 104.001-35.2606ZM93.2711-9.76724C90.6878-7.1629 90.7291-2.66965 93.402 0.0218828L99.8251 6.40141C102.427 9.00344 106.98 8.94113 109.674 6.25413C112.26 3.64755 112.219-0.905765 109.543-3.55368L103.12-9.89812C100.518-12.5024 95.9649-12.4565 93.2711-9.76724ZM67.8105 0.831623C64.0264 0.831623 60.8625 4.01195 60.8625 7.78193L60.8625 16.7976C60.8625 20.5653 64.0264 23.7728 67.8105 23.7728C71.5805 23.7728 74.7444 20.5653 74.7444 16.7976L74.7444 7.78193C74.7444 4.01195 71.5805 0.831623 67.8105 0.831623ZM42.3358-9.76724C39.642-12.4565 35.0723-12.5024 32.4702-9.89812L26.08-3.57008C23.3883-0.922175 23.347 3.63114 25.9327 6.23772C28.6242 8.92473 33.1798 8.98703 35.7818 6.385L42.1885 0.0218828C44.8778-2.66965 44.9191-7.1629 42.3358-9.76724ZM31.6474-35.2606C31.6474-39.0284 28.4399-42.2109 24.6558-42.2109L15.673-42.2109C11.8866-42.2109 8.72266-39.0284 8.72266-35.2606C8.72266-31.4929 11.8866-28.3103 15.673-28.3103L24.6558-28.3103C28.4399-28.3103 31.6474-31.4929 31.6474-35.2606ZM42.1885-60.5632C44.8755-63.2383 44.9214-67.808 42.3358-70.3959L35.9727-76.8191C33.3434-79.4483 28.7715-79.5497 26.1836-76.9499C23.4943-74.256 23.4484-69.6863 26.0363-67.0985L32.383-60.694C35.0287-58.0025 39.582-57.9612 42.1885-60.5632ZM56.359-30.6987C54.7498-30.6987 53.5006-31.9573 53.5006-33.5582C53.5006-35.1642 54.7498-36.4239 56.359-36.4239L64.9511-36.4239L64.9511-48.7245C64.9511-50.3325 66.2109-51.5901 67.8085-51.5901C69.4166-51.5901 70.6763-50.3325 70.6763-48.7245L70.6763-33.5582C70.6763-31.9573 69.4166-30.6987 67.8085-30.6987L56.359-30.6987ZM67.7902-7.6918C83.0178-7.6918 95.3616-20.0377 95.3616-35.255C95.3616-50.4723 83.0178-62.8182 67.7902-62.8182C52.5729-62.8182 40.2268-50.4723 40.2268-35.255C40.2268-20.0377 52.5729-7.6918 67.7902-7.6918Z"/>
  </g>
  <g id="Bold-M" transform="matrix(1 0 0 1 2274.33 1126)">
   <path d="M65.641-70.6102C68.9031-70.6102 71.6252-73.3609 71.6252-76.6231L71.6252-86.1715C71.6252-89.4284 68.9031-92.1791 65.641-92.1791C62.3553-92.1791 59.6333-89.4284 59.6333-86.1715L59.6333-76.6231C59.6333-73.3609 62.3553-70.6102 65.641-70.6102ZM90.6513-60.0998C92.9266-57.8349 96.8407-57.8297 99.1629-60.1855L105.916-66.9335C108.157-69.2035 108.124-73.1463 105.83-75.4786C103.555-77.7384 99.641-77.6864 97.3476-75.393L90.5657-68.5826C88.3294-66.3412 88.3631-62.427 90.6513-60.0998ZM101.019-35.2606C101.019-32.0036 103.775-29.2478 107.032-29.2478L116.523-29.2478C119.813-29.2478 122.564-32.0036 122.564-35.2606C122.564-38.5177 119.813-41.2734 116.523-41.2734L107.032-41.2734C103.775-41.2734 101.019-38.5177 101.019-35.2606ZM90.5657-10.2786C88.3345-8.00858 88.3579-4.15157 90.6513-1.82443L97.4618 4.95745C99.7267 7.22237 103.641 7.16006 105.973 4.84318C108.209 2.56798 108.186-1.34621 105.888-3.64481L99.0771-10.3643C96.8122-12.6344 92.898-12.6007 90.5657-10.2786ZM65.641 0.0889336C62.3553 0.0889336 59.6333 2.83962 59.6333 6.10175L59.6333 15.6502C59.6333 18.9072 62.3553 21.6578 65.641 21.6578C68.9031 21.6578 71.6252 18.9072 71.6252 15.6502L71.6252 6.10175C71.6252 2.83962 68.9031 0.0889336 65.641 0.0889336ZM40.6927-10.2786C38.3604-12.6007 34.4176-12.6344 32.1527-10.3643L25.3996-3.67342C23.0724-1.37484 23.049 2.53936 25.2853 4.81455C27.6124 7.13145 31.5318 7.19375 33.7967 4.92882L40.5784-1.82443C42.9005-4.15157 42.9239-8.00858 40.6927-10.2786ZM30.2629-35.2606C30.2629-38.5177 27.5123-41.2734 24.2267-41.2734L14.7355-41.2734C11.4447-41.2734 8.72266-38.5177 8.72266-35.2606C8.72266-32.0036 11.4447-29.2478 14.7355-29.2478L24.2267-29.2478C27.5123-29.2478 30.2629-32.0036 30.2629-35.2606ZM40.5784-60.0998C42.8954-62.3984 42.929-66.3412 40.6927-68.5826L33.9395-75.393C31.6746-77.6578 27.7267-77.7384 25.4852-75.4786C23.1632-73.1463 23.1296-69.2035 25.371-66.9621L32.0956-60.1855C34.3891-57.8583 38.3033-57.8349 40.5784-60.0998ZM53.7691-31.3686C52.3797-31.3686 51.3156-32.4496 51.3156-33.8246C51.3156-35.2067 52.3797-36.2902 53.7691-36.2902L63.2022-36.2902L63.2022-49.4176C63.2022-50.8046 64.2856-51.8832 65.6533-51.8832C67.0404-51.8832 68.1238-50.8046 68.1238-49.4176L68.1238-33.8246C68.1238-32.4496 67.0404-31.3686 65.6533-31.3686L53.7691-31.3686ZM65.6078-8.62492C80.3233-8.62492 92.2517-20.5581 92.2517-35.2546C92.2517-49.9511 80.3233-61.8842 65.6078-61.8842C50.9113-61.8842 38.9777-49.9511 38.9777-35.2546C38.9777-20.5581 50.9113-8.62492 65.6078-8.62492Z"/>
  </g>
  <g id="Semibold-M" transform="matrix(1 0 0 1 1979.13 1126)">
   <path d="M64.1453-70.0982C67.0573-70.0982 69.4747-72.5527 69.4747-75.4647L69.4747-85.3806C69.4747-88.2854 67.0573-90.721 64.1453-90.721C61.2033-90.721 58.7859-88.2854 58.7859-85.3806L58.7859-75.4647C58.7859-72.5527 61.2033-70.0982 64.1453-70.0982ZM88.7551-59.7804C90.8019-57.7479 94.2754-57.7219 96.3632-59.8349L103.385-66.8311C105.388-68.8707 105.363-72.3813 103.331-74.4644C101.284-76.4898 97.8105-76.4606 95.7599-74.4099L88.7006-67.3325C86.7051-65.3299 86.7304-61.8563 88.7551-59.7804ZM98.9632-35.2606C98.9632-32.3557 101.425-29.8941 104.33-29.8941L114.171-29.8941C117.12-29.8941 119.556-32.3557 119.556-35.2606C119.556-38.1656 117.12-40.6271 114.171-40.6271L104.33-40.6271C101.425-40.6271 98.9632-38.1656 98.9632-35.2606ZM88.7006-10.6312C86.7122-8.59159 86.7233-5.17319 88.7551-3.09727L95.8325 3.96199C97.865 5.99451 101.339 5.9322 103.422 3.87047C105.417 1.82374 105.406-1.64986 103.367-3.70763L96.2898-10.6857C94.2573-12.7253 90.7837-12.7001 88.7006-10.6312ZM64.1453-0.423072C61.2033-0.423072 58.7859 2.03143 58.7859 4.94344L58.7859 14.8592C58.7859 17.7641 61.2033 20.1997 64.1453 20.1997C67.0573 20.1997 69.4747 17.7641 69.4747 14.8592L69.4747 4.94344C69.4747 2.03143 67.0573-0.423072 64.1453-0.423072ZM39.56-10.6312C37.4769-12.7001 33.9663-12.7253 31.9337-10.6857L24.9305-3.74465C22.8545-1.6869 22.8435 1.78669 24.839 3.83343C26.9149 5.89517 30.3956 5.95747 32.4281 3.92495L39.4685-3.09727C41.5373-5.17319 41.5484-8.59159 39.56-10.6312ZM29.3084-35.2606C29.3084-38.1656 26.8728-40.6271 23.9309-40.6271L14.0892-40.6271C11.1401-40.6271 8.72266-38.1656 8.72266-35.2606C8.72266-32.3557 11.1401-29.8941 14.0892-29.8941L23.9309-29.8941C26.8728-29.8941 29.3084-32.3557 29.3084-35.2606ZM39.4685-59.7804C41.5302-61.8193 41.5555-65.3299 39.56-67.3325L32.5378-74.4099C30.5241-76.4235 27.0065-76.4898 25.0038-74.4644C22.935-72.3813 22.9097-68.8707 24.9123-66.8681L31.8975-59.8349C33.9482-57.7589 37.4218-57.7479 39.4685-59.7804ZM51.9837-31.8304C50.7457-31.8304 49.8092-32.7889 49.8092-34.0082C49.8092-35.2361 50.7457-36.198 51.9837-36.198L61.9965-36.198L61.9965-49.8954C61.9965-51.13 62.9584-52.0852 64.1676-52.0852C65.4022-52.0852 66.3642-51.13 66.3642-49.8954L66.3642-34.0082C66.3642-32.7889 65.4022-31.8304 64.1676-31.8304L51.9837-31.8304ZM64.1032-9.2682C78.4657-9.2682 90.1078-20.9168 90.1078-35.2543C90.1078-49.5918 78.4657-61.2404 64.1032-61.2404C49.7658-61.2404 38.1166-49.5918 38.1166-35.2543C38.1166-20.9168 49.7658-9.2682 64.1032-9.2682Z"/>
  </g>
  <g id="Medium-M" transform="matrix(1 0 0 1 1683.55 1126)">
   <path d="M63.0112-69.71C65.6577-69.71 67.8442-71.9399 67.8442-74.5865L67.8442-84.7808C67.8442-87.4186 65.6577-89.6154 63.0112-89.6154C60.3298-89.6154 58.1433-87.4186 58.1433-84.7808L58.1433-74.5865C58.1433-71.9399 60.3298-69.71 63.0112-69.71ZM87.3172-59.5382C89.1908-57.6819 92.3303-57.6402 94.2403-59.5691L101.466-66.7534C103.288-68.6183 103.269-71.8012 101.436-73.6953C99.562-75.543 96.4225-75.531 94.556-73.6645L87.2864-66.3847C85.4735-64.5632 85.4924-61.4237 87.3172-59.5382ZM97.4045-35.2606C97.4045-32.6227 99.6431-30.3842 102.281-30.3842L112.388-30.3842C115.078-30.3842 117.275-32.6227 117.275-35.2606C117.275-37.8986 115.078-40.1371 112.388-40.1371L102.281-40.1371C99.6431-40.1371 97.4045-37.8986 97.4045-35.2606ZM87.2864-10.8985C85.4821-9.03364 85.4838-5.94783 87.3172-4.06239L94.5971 3.20719C96.4534 5.0635 99.5929 5.00119 101.487 3.13293C103.3 1.25942 103.298-1.88009 101.456-3.75527L94.1763-10.9294C92.32-12.7943 89.1805-12.7754 87.2864-10.8985ZM63.0112-0.811296C60.3298-0.811296 58.1433 1.41862 58.1433 4.06516L58.1433 14.2595C58.1433 16.8974 60.3298 19.0942 63.0112 19.0942C65.6577 19.0942 67.8442 16.8974 67.8442 14.2595L67.8442 4.06516C67.8442 1.41862 65.6577-0.811296 63.0112-0.811296ZM38.7011-10.8985C36.807-12.7754 33.6241-12.7943 31.7678-10.9294L24.5748-3.79867C22.6894-1.92352 22.6877 1.21599 24.5006 3.0895C26.386 4.95777 29.5341 5.02007 31.3905 3.16376L38.6268-4.06239C40.5037-5.94783 40.5054-9.03364 38.7011-10.8985ZM28.5847-35.2606C28.5847-37.8986 26.3879-40.1371 23.7066-40.1371L13.5991-40.1371C10.9092-40.1371 8.72266-37.8986 8.72266-35.2606C8.72266-32.6227 10.9092-30.3842 13.5991-30.3842L23.7066-30.3842C26.3879-30.3842 28.5847-32.6227 28.5847-35.2606ZM38.6268-59.5382C40.4951-61.3803 40.514-64.5632 38.7011-66.3847L31.475-73.6645C29.6518-75.4876 26.4603-75.543 24.6388-73.6953C22.7619-71.8012 22.7431-68.6183 24.5645-66.7968L31.7472-59.5691C33.6139-57.6836 36.7534-57.6819 38.6268-59.5382ZM50.6299-32.1805C49.5067-32.1805 48.667-33.0462 48.667-34.1475C48.667-35.2584 49.5067-36.1282 50.6299-36.1282L61.0823-36.1282L61.0823-50.2577C61.0823-51.3768 61.952-52.2384 63.041-52.2384C64.1601-52.2384 65.0299-51.3768 65.0299-50.2577L65.0299-34.1475C65.0299-33.0462 64.1601-32.1805 63.041-32.1805L50.6299-32.1805ZM62.9624-9.75596C77.0572-9.75596 88.4821-21.1888 88.4821-35.2541C88.4821-49.3193 77.0572-60.7522 62.9624-60.7522C48.8972-60.7522 37.4637-49.3193 37.4637-35.2541C37.4637-21.1888 48.8972-9.75596 62.9624-9.75596Z"/>
  </g>
  <g id="Regular-M" transform="matrix(1 0 0 1 1388.33 1126)">
   <path d="M61.5319-69.2036C63.8322-69.2036 65.7174-71.1406 65.7174-73.4409L65.7174-83.9985C65.7174-86.2881 63.8322-88.1734 61.5319-88.1734C59.1905-88.1734 57.3052-86.2881 57.3052-83.9985L57.3052-73.4409C57.3052-71.1406 59.1905-69.2036 61.5319-69.2036ZM85.4418-59.2223C87.0894-57.5958 89.7932-57.5335 91.4714-59.2223L98.9635-66.6522C100.549-68.2891 100.538-71.0446 98.9635-72.6922C97.3159-74.3081 94.6121-74.3186 92.9857-72.6922L85.4418-65.1483C83.8671-63.563 83.8776-60.8593 85.4418-59.2223ZM95.3713-35.2606C95.3713-32.9709 97.319-31.0234 99.6086-31.0234L110.063-31.0234C112.415-31.0234 114.3-32.9709 114.3-35.2606C114.3-37.5504 112.415-39.4979 110.063-39.4979L99.6086-39.4979C97.319-39.4979 95.3713-37.5504 95.3713-35.2606ZM85.4418-11.2472C83.8776-9.61024 83.8671-6.95823 85.4418-5.32124L92.9857 2.22267C94.6121 3.84913 97.3159 3.78683 98.9635 2.17092C100.538 0.523351 100.549-2.1804 98.9635-3.8174L91.4196-11.2472C89.7932-12.8843 87.0894-12.8737 85.4418-11.2472ZM61.5319-1.31768C59.1905-1.31768 57.3052 0.619311 57.3052 2.91957L57.3052 13.4772C57.3052 15.7669 59.1905 17.6521 61.5319 17.6521C63.8322 17.6521 65.7174 15.7669 65.7174 13.4772L65.7174 2.91957C65.7174 0.619311 63.8322-1.31768 61.5319-1.31768ZM37.5808-11.2472C35.9332-12.8737 33.1778-12.8843 31.5513-11.2472L24.1109-3.86912C22.4739-2.23215 22.4845 0.471595 24.0592 2.11916C25.6962 3.73508 28.4104 3.79738 30.037 2.17092L37.5291-5.32124C39.1556-6.95823 39.145-9.61024 37.5808-11.2472ZM27.6407-35.2606C27.6407-37.5504 25.7554-39.4979 23.414-39.4979L12.9599-39.4979C10.6079-39.4979 8.72266-37.5504 8.72266-35.2606C8.72266-32.9709 10.6079-31.0234 12.9599-31.0234L23.414-31.0234C25.7554-31.0234 27.6407-32.9709 27.6407-35.2606ZM37.5291-59.2223C39.145-60.8076 39.1556-63.563 37.5808-65.1483L30.0887-72.6922C28.514-74.2669 25.748-74.3081 24.1626-72.6922C22.5362-71.0446 22.5256-68.2891 24.1109-66.7039L31.5513-59.2223C33.1778-57.5853 35.8815-57.5958 37.5291-59.2223ZM48.8641-32.6372C47.8907-32.6372 47.1773-33.3818 47.1773-34.3291C47.1773-35.2874 47.8907-36.037 48.8641-36.037L59.8898-36.037L59.8898-50.7303C59.8898-51.6986 60.6394-52.4381 61.5716-52.4381C62.54-52.4381 63.2896-51.6986 63.2896-50.7303L63.2896-34.3291C63.2896-33.3818 62.54-32.6372 61.5716-32.6372L48.8641-32.6372ZM61.4744-10.3922C75.2201-10.3922 86.3618-21.5436 86.3618-35.2538C86.3618-48.9639 75.2201-60.1154 61.4744-60.1154C47.7643-60.1154 36.612-48.9639 36.612-35.2538C36.612-21.5436 47.7643-10.3922 61.4744-10.3922Z"/>
  </g>
  <g id="Light-M" transform="matrix(1 0 0 1 1092.05 1126)">
   <path d="M61.087-69.9907C62.874-69.9907 64.2801-71.4315 64.2801-73.2184L64.2801-84.529C64.2801-86.2881 62.874-87.6943 61.087-87.6943C59.2931-87.6943 57.887-86.2881 57.887-84.529L57.887-73.2184C57.887-71.4315 59.2931-69.9907 61.087-69.9907ZM85.5787-59.787C86.8669-58.5541 88.9034-58.4917 90.171-59.787L98.1935-67.7472C99.4195-69.0078 99.3917-71.0788 98.1935-72.3671C96.9052-73.5723 94.8688-73.6 93.6359-72.3671L85.5787-64.3099C84.3804-63.0839 84.4081-61.0475 85.5787-59.787ZM95.7478-35.2606C95.7478-33.5013 97.2163-32.0329 98.9755-32.0329L110.217-32.0329C112.038-32.0329 113.444-33.5013 113.444-35.2606C113.444-37.0199 112.038-38.4883 110.217-38.4883L98.9755-38.4883C97.2163-38.4883 95.7478-37.0199 95.7478-35.2606ZM85.5787-10.6997C84.4081-9.43913 84.3804-7.43735 85.5787-6.17676L93.6359 1.88045C94.8688 3.11336 96.9052 3.05106 98.1935 1.84581C99.3917 0.557573 99.4195-1.47885 98.1935-2.73942L90.1363-10.6997C88.9034-11.9603 86.8669-11.9326 85.5787-10.6997ZM61.087-0.530573C59.2931-0.530573 57.887 0.910198 57.887 2.69713L57.887 14.0076C57.887 15.7669 59.2931 17.173 61.087 17.173C62.874 17.173 64.2801 15.7669 64.2801 14.0076L64.2801 2.69713C64.2801 0.910198 62.874-0.530573 61.087-0.530573ZM36.5884-10.6997C35.3001-11.9326 33.2291-11.9603 31.9962-10.6997L24.0083-2.77404C22.7477-1.51349 22.7753 0.522929 23.9736 1.81117C25.2342 3.01642 27.2982 3.07872 28.5312 1.84581L36.5538-6.17676C37.7867-7.43735 37.759-9.43913 36.5884-10.6997ZM26.3916-35.2606C26.3916-37.0199 24.9855-38.4883 23.1915-38.4883L11.9503-38.4883C10.1288-38.4883 8.72266-37.0199 8.72266-35.2606C8.72266-33.5013 10.1288-32.0329 11.9503-32.0329L23.1915-32.0329C24.9855-32.0329 26.3916-33.5013 26.3916-35.2606ZM36.5538-59.787C37.759-61.0129 37.7867-63.0839 36.5884-64.3099L28.5658-72.3671C27.3675-73.5654 25.2689-73.5723 24.0429-72.3671C22.81-71.0788 22.7823-69.0078 24.0083-67.7819L31.9962-59.787C33.2291-58.5264 35.2655-58.5541 36.5538-59.787ZM48.341-32.9339C47.5735-32.9339 47.0286-33.5095 47.0286-34.2595C47.0286-34.9875 47.5735-35.5762 48.341-35.5762L60.015-35.5762L60.015-51.0024C60.015-51.7567 60.6036-52.3191 61.3142-52.3191C62.0686-52.3191 62.6573-51.7567 62.6573-51.0024L62.6573-34.2595C62.6573-33.5095 62.0686-32.9339 61.3142-32.9339L48.341-32.9339ZM61.0084-11.2196C74.3071-11.2196 85.0615-21.9996 85.0615-35.2563C85.0615-48.5129 74.3071-59.2929 61.0084-59.2929C47.7518-59.2929 36.9697-48.5129 36.9697-35.2563C36.9697-21.9996 47.7518-11.2196 61.0084-11.2196Z"/>
  </g>
  <g id="Thin-M" transform="matrix(1 0 0 1 795.904 1126)">
   <path d="M60.4986-71.0318C61.6066-71.0318 62.3791-71.8162 62.3791-72.9243L62.3791-85.2305C62.3791-86.2881 61.6066-87.0607 60.4986-87.0607C59.4289-87.0607 58.6564-86.2881 58.6564-85.2305L58.6564-72.9243C58.6564-71.8162 59.4289-71.0318 60.4986-71.0318ZM85.7597-60.5338C86.5727-59.8214 87.7266-59.759 88.451-60.5338L97.1751-69.1956C97.9259-69.9583 97.8755-71.1241 97.1751-71.9371C96.3621-72.5992 95.2083-72.6495 94.4959-71.9371L85.7597-63.201C85.0593-62.4503 85.1096-61.2965 85.7597-60.5338ZM96.2457-35.2606C96.2457-34.2029 97.0805-33.3681 98.1382-33.3681L110.42-33.3681C111.54-33.3681 112.313-34.2029 112.313-35.2606C112.313-36.3184 111.54-37.1531 110.42-37.1531L98.1382-37.1531C97.0805-37.1531 96.2457-36.3184 96.2457-35.2606ZM85.7597-9.97549C85.1096-9.21283 85.0593-8.07102 85.7597-7.30824L94.4959 1.42784C95.2083 2.14025 96.3621 2.07794 97.1751 1.41583C97.8755 0.602835 97.9259-0.550996 97.1751-1.3137L88.439-9.97549C87.7266-10.7382 86.5727-10.6879 85.7597-9.97549ZM60.4986 0.510434C59.4289 0.510434 58.6564 1.29492 58.6564 2.40293L58.6564 14.7092C58.6564 15.7669 59.4289 16.5394 60.4986 16.5394C61.6066 16.5394 62.3791 15.7669 62.3791 14.7092L62.3791 2.40293C62.3791 1.29492 61.6066 0.510434 60.4986 0.510434ZM35.2758-9.97549C34.4628-10.6879 33.297-10.7382 32.5846-9.97549L23.8725-1.3257C23.1097-0.563011 23.16 0.590821 23.8604 1.40382C24.6232 2.06594 25.8273 2.12823 26.5397 1.41583L35.2638-7.30824C35.9762-8.07102 35.926-9.21283 35.2758-9.97549ZM24.7396-35.2606C24.7396-36.3184 23.9671-37.1531 22.8974-37.1531L10.6152-37.1531C9.49513-37.1531 8.72266-36.3184 8.72266-35.2606C8.72266-34.2029 9.49513-33.3681 10.6152-33.3681L22.8974-33.3681C23.9671-33.3681 24.7396-34.2029 24.7396-35.2606ZM35.2638-60.5338C35.926-61.2845 35.9762-62.4503 35.2758-63.201L26.5517-71.9371C25.8513-72.6375 24.6352-72.5992 23.8845-71.9371C23.1721-71.1241 23.1217-69.9583 23.8725-69.2076L32.5846-60.5338C33.297-59.7711 34.4508-59.8214 35.2638-60.5338ZM47.6492-33.3263C47.154-33.3263 46.8319-33.6782 46.8319-34.1675C46.8319-34.5909 47.154-34.9668 47.6492-34.9668L60.1806-34.9668L60.1806-51.3623C60.1806-51.8336 60.5564-52.1616 60.9739-52.1616C61.4452-52.1616 61.821-51.8336 61.821-51.3623L61.821-34.1675C61.821-33.6782 61.4452-33.3263 60.9739-33.3263L47.6492-33.3263ZM60.3922-12.3139C73.0997-12.3139 83.3419-22.6026 83.3419-35.2595C83.3419-47.9164 73.0997-58.2051 60.3922-58.2051C47.7354-58.2051 37.4428-47.9164 37.4428-35.2595C37.4428-22.6026 47.7354-12.3139 60.3922-12.3139Z"/>
  </g>
  <g id="Ultralight-M" transform="matrix(1 0 0 1 499.483 1126)">
   <path d="M60.1972-71.565C60.9575-71.565 61.4054-72.0133 61.4054-72.7736L61.4054-85.5898C61.4054-86.2881 60.9575-86.7362 60.1972-86.7362C59.4984-86.7362 59.0505-86.2881 59.0505-85.5898L59.0505-72.7736C59.0505-72.0133 59.4984-71.565 60.1972-71.565ZM85.8525-60.9163C86.422-60.4705 87.1239-60.4081 87.5701-60.9163L96.6534-69.9374C97.1608-70.4451 97.0988-71.1473 96.6534-71.7169C96.0839-72.1008 95.3822-72.1627 94.9364-71.7169L85.8525-62.6331C85.4071-62.1257 85.469-61.424 85.8525-60.9163ZM96.5008-35.2606C96.5008-34.5622 97.0109-34.052 97.7094-34.052L110.525-34.052C111.285-34.052 111.733-34.5622 111.733-35.2606C111.733-35.9591 111.285-36.4692 110.525-36.4692L97.7094-36.4692C97.0109-36.4692 96.5008-35.9591 96.5008-35.2606ZM85.8525-9.60457C85.469-9.09691 85.4071-8.39558 85.8525-7.88778L94.9364 1.19601C95.3822 1.64182 96.0839 1.57952 96.6534 1.1956C97.0988 0.626018 97.1608-0.0757543 96.6534-0.583454L87.5697-9.60457C87.1239-10.1122 86.422-10.0504 85.8525-9.60457ZM60.1972 1.04363C59.4984 1.04363 59.0505 1.49197 59.0505 2.25224L59.0505 15.0685C59.0505 15.7669 59.4984 16.2148 60.1972 16.2148C60.9575 16.2148 61.4054 15.7669 61.4054 15.0685L61.4054 2.25224C61.4054 1.49197 60.9575 1.04363 60.1972 1.04363ZM34.6036-9.60457C34.0339-10.0504 33.3318-10.1122 32.886-9.60457L23.803-0.583866C23.2952-0.0761772 23.3571 0.625595 23.8024 1.19518C24.3102 1.57911 25.0738 1.6414 25.5196 1.1956L34.6032-7.88778C35.0489-8.39558 34.9871-9.09691 34.6036-9.60457ZM23.8934-35.2606C23.8934-35.9591 23.4455-36.4692 22.7467-36.4692L9.93127-36.4692C9.17058-36.4692 8.72266-35.9591 8.72266-35.2606C8.72266-34.5622 9.17058-34.052 9.93127-34.052L22.7467-34.052C23.4455-34.052 23.8934-34.5622 23.8934-35.2606ZM34.6032-60.9163C34.9871-61.4236 35.0489-62.1257 34.6036-62.6331L25.52-71.7169C25.0746-72.1623 24.3106-72.1008 23.8034-71.7169C23.3576-71.1473 23.2956-70.4451 23.803-69.9378L32.886-60.9163C33.3318-60.4086 34.0335-60.4705 34.6032-60.9163ZM47.2948-33.5273C46.9392-33.5273 46.7312-33.7647 46.7312-34.1203C46.7312-34.3877 46.9392-34.6546 47.2948-34.6546L60.2654-34.6546L60.2654-51.5467C60.2654-51.873 60.5322-52.0809 60.7995-52.0809C61.1258-52.0809 61.3927-51.873 61.3927-51.5467L61.3927-34.1203C61.3927-33.7647 61.1258-33.5273 60.7995-33.5273L47.2948-33.5273ZM60.0765-12.8744C72.4813-12.8744 82.4611-22.9115 82.4611-35.2612C82.4611-47.6109 72.4813-57.648 60.0765-57.648C47.7269-57.648 37.6851-47.6109 37.6851-35.2612C37.6851-22.9115 47.7269-12.8744 60.0765-12.8744Z"/>
  </g>
  <g id="Black-S" transform="matrix(1 0 0 1 2878.15 696)">
   <path d="M55.2246-64.3066C58.6426-64.3066 61.5234-67.1875 61.5234-70.6055L61.5234-77.1973C61.5234-80.6152 58.6426-83.5449 55.2246-83.5449C51.8066-83.5449 48.9258-80.6152 48.9258-77.1973L48.9258-70.6055C48.9258-67.1875 51.8066-64.3066 55.2246-64.3066ZM75.8789-55.5664C78.2227-53.2227 82.373-53.2715 84.7656-55.7129L89.4043-60.4004C91.748-62.7441 91.6992-66.8945 89.2578-69.3359C86.9141-71.6797 82.7637-71.582 80.3711-69.1895L75.7324-64.502C73.3887-62.1582 73.4375-58.0078 75.8789-55.5664ZM84.4238-35.2539C84.4238-31.8359 87.3047-28.9551 90.7227-28.9551L97.3145-28.9551C100.732-28.9551 103.662-31.8359 103.662-35.2539C103.662-38.6719 100.732-41.5527 97.3145-41.5527L90.7227-41.5527C87.3047-41.5527 84.4238-38.6719 84.4238-35.2539ZM75.7324-14.7461C73.3887-12.4023 73.4375-8.30078 75.8789-5.85938L80.5664-1.2207C82.9102 1.12305 87.0605 1.07422 89.502-1.36719C91.8457-3.71094 91.7969-7.86133 89.3555-10.2539L84.668-14.8926C82.3242-17.2363 78.1738-17.1875 75.7324-14.7461ZM55.2246-6.20117C51.8066-6.20117 48.9258-3.32031 48.9258 0.0976562L48.9258 6.68945C48.9258 10.1074 51.8066 13.0371 55.2246 13.0371C58.6426 13.0371 61.5234 10.1074 61.5234 6.68945L61.5234 0.0976562C61.5234-3.32031 58.6426-6.20117 55.2246-6.20117ZM34.7168-14.7461C32.2754-17.1875 28.125-17.2363 25.7812-14.8926L21.0938-10.2539C18.6523-7.86133 18.6035-3.71094 20.9473-1.36719C23.3887 1.07422 27.5391 1.12305 29.8828-1.2207L34.5703-5.85938C37.0117-8.30078 37.0605-12.4023 34.7168-14.7461ZM26.0742-35.2539C26.0742-38.6719 23.1445-41.5527 19.7266-41.5527L13.1348-41.5527C9.7168-41.5527 6.83594-38.6719 6.83594-35.2539C6.83594-31.8359 9.7168-28.9551 13.1348-28.9551L19.7266-28.9551C23.1445-28.9551 26.0742-31.8359 26.0742-35.2539ZM34.5703-55.5664C37.0117-58.0078 37.0605-62.1582 34.7168-64.502L30.0781-69.1895C27.6855-71.582 23.5352-71.6797 21.1914-69.3359C18.75-66.8945 18.7012-62.7441 21.0449-60.4004L25.6836-55.7129C28.0762-53.2715 32.2266-53.2227 34.5703-55.5664ZM46.6538-31.0453C45.1912-31.0453 44.0422-32.1944 44.0422-33.6569C44.0422-35.1195 45.1912-36.2685 46.6538-36.2685L52.6083-36.2685L52.6083-45.1481C52.6083-46.6106 53.7574-47.7597 55.2199-47.7597C56.6824-47.7597 57.8315-46.6106 57.8315-45.1481L57.8315-33.6569C57.8315-32.1944 56.6824-31.0453 55.2199-31.0453L46.6538-31.0453ZM55.2199-12.79C67.6252-12.79 77.6799-22.8448 77.6799-35.25C77.6799-47.6553 67.6252-57.71 55.2199-57.71C42.8147-57.71 32.7599-47.6553 32.7599-35.25C32.7599-22.8448 42.8147-12.79 55.2199-12.79Z"/>
  </g>
  <g id="Heavy-S" transform="matrix(1 0 0 1 2583.05 696)">
   <path d="M53.6227-63.6382C56.718-63.6382 59.3222-66.254 59.3222-69.3493L59.3222-76.2523C59.3222-79.3475 56.718-81.9891 53.6227-81.9891C50.5159-81.9891 47.9116-79.3475 47.9116-76.2523L47.9116-69.3493C47.9116-66.254 50.5159-63.6382 53.6227-63.6382ZM73.7584-55.14C75.8948-53.0037 79.6417-53.0295 81.8269-55.2519L86.6961-60.1469C88.8208-62.2831 88.7835-66.0417 86.5841-68.2526C84.4478-70.3889 80.7008-70.3143 78.5272-68.1408L73.6465-63.2228C71.5217-61.0979 71.559-57.3509 73.7584-55.14ZM82.0959-35.2539C82.0959-32.1586 84.7117-29.5428 87.807-29.5428L94.6869-29.5428C97.7933-29.5428 100.435-32.1586 100.435-35.2539C100.435-38.3492 97.7933-40.965 94.6869-40.965L87.807-40.965C84.7117-40.965 82.0959-38.3492 82.0959-35.2539ZM73.6465-15.2071C71.5217-13.0707 71.559-9.37256 73.7584-7.16165L78.6764-2.28095C80.8127-0.144643 84.5597-0.193473 86.7707-2.40439C88.8954-4.5407 88.8582-8.28774 86.6588-10.4613L81.7408-15.319C79.6044-17.4553 75.8574-17.418 73.6465-15.2071ZM53.6227-6.86959C50.5159-6.86959 47.9116-4.25379 47.9116-1.15851L47.9116 5.74445C47.9116 8.83971 50.5159 11.4813 53.6227 11.4813C56.718 11.4813 59.3222 8.83971 59.3222 5.74445L59.3222-1.15851C59.3222-4.25379 56.718-6.86959 53.6227-6.86959ZM33.5874-15.2071C31.3765-17.418 27.6179-17.4553 25.4816-15.319L20.5867-10.4729C18.3757-8.29926 18.3384-4.55223 20.4633-2.41592C22.6742-0.204995 26.4212-0.156168 28.5575-2.29248L33.464-7.16165C35.6749-9.37256 35.7122-13.0707 33.5874-15.2071ZM25.1753-35.2539C25.1753-38.3492 22.5337-40.965 19.4269-40.965L12.547-40.965C9.44021-40.965 6.83594-38.3492 6.83594-35.2539C6.83594-32.1586 9.44021-29.5428 12.547-29.5428L19.4269-29.5428C22.5337-29.5428 25.1753-32.1586 25.1753-35.2539ZM33.464-55.14C35.6749-57.3394 35.7122-61.0979 33.5874-63.2228L28.7182-68.1408C26.5561-70.3028 22.7976-70.3889 20.6728-68.2526C18.4619-66.0417 18.4246-62.2831 20.5494-60.1584L25.407-55.2519C27.5807-53.041 31.3277-53.0037 33.464-55.14ZM44.7405-31.5195C43.4197-31.5195 42.3906-32.5544 42.3906-33.8695C42.3906-35.1903 43.4197-36.2252 44.7405-36.2252L51.2551-36.2252L51.2551-45.6432C51.2551-46.9641 52.29-47.999 53.6051-47.999C54.9259-47.999 55.9608-46.9641 55.9608-45.6432L55.9608-33.8695C55.9608-32.5544 54.9259-31.5195 53.6051-31.5195L44.7405-31.5195ZM53.6109-13.3977C65.6817-13.3977 75.4684-23.1843 75.4684-35.2494C75.4684-47.3144 65.6817-57.1011 53.6109-57.1011C41.5459-57.1011 31.7592-47.3144 31.7592-35.2494C31.7592-23.1843 41.5459-13.3977 53.6109-13.3977Z"/>
  </g>
  <g id="Bold-S" transform="matrix(1 0 0 1 2288.15 696)">
   <path d="M51.831-62.8906C54.5654-62.8906 56.8603-65.2099 56.8603-67.9443L56.8603-75.1954C56.8603-77.9296 54.5654-80.249 51.831-80.249C49.0722-80.249 46.7773-77.9296 46.7773-75.1954L46.7773-67.9443C46.7773-65.2099 49.0722-62.8906 51.831-62.8906ZM71.3867-54.6631C73.291-52.7588 76.5869-52.7588 78.54-54.7364L83.667-59.8633C85.5468-61.7676 85.5224-65.0879 83.5937-67.041C81.6894-68.9453 78.3935-68.8965 76.4648-66.9678L71.3134-61.792C69.4336-59.9121 69.458-56.6162 71.3867-54.6631ZM79.4921-35.2539C79.4921-32.5195 81.8116-30.2002 84.5459-30.2002L91.748-30.2002C94.5066-30.2002 96.8261-32.5195 96.8261-35.2539C96.8261-37.9883 94.5066-40.3076 91.748-40.3076L84.5459-40.3076C81.8116-40.3076 79.4921-37.9883 79.4921-35.2539ZM71.3134-15.7226C69.4336-13.8184 69.458-10.5713 71.3867-8.61819L76.5625-3.46679C78.4668-1.5625 81.7626-1.61133 83.7158-3.56445C85.5957-5.46875 85.5713-8.76465 83.6426-10.6934L78.4668-15.7959C76.5625-17.7002 73.2666-17.6758 71.3134-15.7226ZM51.831-7.61719C49.0722-7.61719 46.7773-5.29785 46.7773-2.56348L46.7773 4.6875C46.7773 7.42186 49.0722 9.74121 51.831 9.74121C54.5654 9.74121 56.8603 7.42186 56.8603 4.6875L56.8603-2.56348C56.8603-5.29785 54.5654-7.61719 51.831-7.61719ZM32.3242-15.7226C30.3711-17.6758 27.0508-17.7002 25.1464-15.7959L20.0195-10.7178C18.0664-8.78906 18.042-5.49316 19.9219-3.58887C21.875-1.63574 25.1709-1.58691 27.0752-3.49121L32.2265-8.61819C34.1797-10.5713 34.2041-13.8184 32.3242-15.7226ZM24.1699-35.2539C24.1699-37.9883 21.8505-40.3076 19.0918-40.3076L11.8896-40.3076C9.13086-40.3076 6.83594-37.9883 6.83594-35.2539C6.83594-32.5195 9.13086-30.2002 11.8896-30.2002L19.0918-30.2002C21.8505-30.2002 24.1699-32.5195 24.1699-35.2539ZM32.2265-54.6631C34.1797-56.5918 34.2041-59.9121 32.3242-61.792L27.1972-66.9678C25.2929-68.8721 21.9727-68.9453 20.0927-67.041C18.1396-65.0879 18.1152-61.7676 19.9951-59.8877L25.0976-54.7364C27.0264-52.7832 30.3223-52.7588 32.2265-54.6631ZM42.6006-32.0499C41.4382-32.0499 40.5434-32.9571 40.5434-34.1072C40.5434-35.2696 41.4382-36.1768 42.6006-36.1768L49.7417-36.1768L49.7417-46.197C49.7417-47.3594 50.6489-48.2666 51.7989-48.2666C52.9614-48.2666 53.8685-47.3594 53.8685-46.197L53.8685-34.1072C53.8685-32.9571 52.9614-32.0499 51.7989-32.0499L42.6006-32.0499ZM51.8113-14.0773C63.5081-14.0773 72.9949-23.5641 72.9949-35.2487C72.9949-46.9332 63.5081-56.42 51.8113-56.42C40.1268-56.42 30.6399-46.9332 30.6399-35.2487C30.6399-23.5641 40.1268-14.0773 51.8113-14.0773Z"/>
  </g>
  <g id="Semibold-S" transform="matrix(1 0 0 1 1992.68 696)">
   <path d="M50.5958-62.3752C53.0814-62.3752 55.163-64.4901 55.163-66.9757L55.163-74.4666C55.163-76.9521 53.0814-79.0493 50.5958-79.0493C48.0769-79.0493 45.9953-76.9521 45.9953-74.4666L45.9953-66.9757C45.9953-64.4901 48.0769-62.3752 50.5958-62.3752ZM69.7515-54.3343C71.4959-52.5899 74.4808-52.5722 76.2739-54.3809L81.5786-59.6678C83.2896-61.4121 83.2741-64.4302 81.532-66.2057C79.7877-67.95 76.8028-67.9189 75.043-66.1591L69.705-60.8056C67.9939-59.0945 68.0095-56.1097 69.7515-54.3343ZM77.697-35.2539C77.697-32.7683 79.812-30.6534 82.2975-30.6534L89.7219-30.6534C92.2406-30.6534 94.3378-32.7683 94.3378-35.2539C94.3378-37.7395 92.2406-39.8544 89.7219-39.8544L82.2975-39.8544C79.812-39.8544 77.697-37.7395 77.697-35.2539ZM69.705-16.0781C67.9939-14.3338 68.0095-11.3978 69.7515-9.6224L75.1051-4.28437C76.8494-2.54004 79.8342-2.58887 81.6097-4.36426C83.3207-6.10859 83.3052-9.09346 81.5631-10.8533L76.2096-16.1247C74.4652-17.8691 71.4804-17.8535 69.705-16.0781ZM50.5958-8.13261C48.0769-8.13261 45.9953-6.01767 45.9953-3.53213L45.9953 3.95879C45.9953 6.44433 48.0769 8.5415 50.5958 8.5415C53.0814 8.5415 55.163 6.44433 55.163 3.95879L55.163-3.53213C55.163-6.01767 53.0814-8.13261 50.5958-8.13261ZM31.4533-16.0781C29.6779-17.8535 26.6598-17.8691 24.9154-16.1247L19.6285-10.8866C17.8531-9.12676 17.8376-6.14189 19.5487-4.39756C21.324-2.62217 24.3089-2.57334 26.0532-4.31768L31.3734-9.6224C33.1489-11.3978 33.1644-14.3338 31.4533-16.0781ZM23.4767-35.2539C23.4767-37.7395 21.3796-39.8544 18.8607-39.8544L11.4364-39.8544C8.91758-39.8544 6.83594-37.7395 6.83594-35.2539C6.83594-32.7683 8.91758-30.6534 11.4364-30.6534L18.8607-30.6534C21.3796-30.6534 23.4767-32.7683 23.4767-35.2539ZM31.3734-54.3343C33.1489-56.0764 33.1644-59.0945 31.4533-60.8056L26.1486-66.1591C24.4221-67.8856 21.4039-67.95 19.6928-66.2057C17.9175-64.4302 17.902-61.4121 19.613-59.7011L24.8844-54.3809C26.6443-52.6055 29.6291-52.5899 31.3734-54.3343ZM41.1253-32.4156C40.0721-32.4156 39.2698-33.2347 39.2698-34.2711C39.2698-35.3243 40.0721-36.1434 41.1253-36.1434L48.6982-36.1434L48.6982-46.5788C48.6982-47.632 49.5173-48.4511 50.5537-48.4511C51.6069-48.4511 52.426-47.632 52.426-46.5788L52.426-34.2711C52.426-33.2347 51.6069-32.4156 50.5537-32.4156L41.1253-32.4156ZM50.5705-14.5459C62.0095-14.5459 71.2896-23.826 71.2896-35.2482C71.2896-46.6704 62.0095-55.9505 50.5705-55.9505C39.1483-55.9505 29.8683-46.6704 29.8683-35.2482C29.8683-23.826 39.1483-14.5459 50.5705-14.5459Z"/>
  </g>
  <g id="Medium-S" transform="matrix(1 0 0 1 1696.91 696)">
   <path d="M49.6592-61.9844C51.9561-61.9844 53.876-63.9443 53.876-66.2412L53.876-73.9141C53.876-76.2109 51.9561-78.1396 49.6592-78.1396C47.3223-78.1396 45.4023-76.2109 45.4023-73.9141L45.4023-66.2412C45.4023-63.9443 47.3223-61.9844 49.6592-61.9844ZM68.5117-54.085C70.1348-52.4619 72.8838-52.4307 74.5557-54.1114L79.9951-59.5196C81.5781-61.1426 81.5693-63.9316 79.9688-65.5723C78.3457-67.1953 75.5967-67.1777 73.9648-65.5459L68.4853-60.0576C66.9023-58.4746 66.9111-55.7256 68.5117-54.085ZM76.3359-35.2539C76.3359-32.957 78.2959-30.9971 80.5927-30.9971L88.1855-30.9971C90.5223-30.9971 92.4511-32.957 92.4511-35.2539C92.4511-37.5508 90.5223-39.5107 88.1855-39.5107L80.5927-39.5107C78.2959-39.5107 76.3359-37.5508 76.3359-35.2539ZM68.4853-16.3476C66.9023-14.7246 66.9111-12.0244 68.5117-10.3838L74-4.9043C75.623-3.28125 78.372-3.33008 80.0127-4.9707C81.5957-6.59375 81.5869-9.34277 79.9863-10.9746L74.498-16.374C72.875-17.9971 70.126-17.9883 68.4853-16.3476ZM49.6592-8.52343C47.3223-8.52343 45.4023-6.56348 45.4023-4.2666L45.4023 3.40625C45.4023 5.70312 47.3223 7.63183 49.6592 7.63183C51.9561 7.63183 53.876 5.70312 53.876 3.40625L53.876-4.2666C53.876-6.56348 51.9561-8.52343 49.6592-8.52343ZM30.7929-16.3476C29.1523-17.9883 26.3633-17.9971 24.7402-16.374L19.332-11.0146C17.6914-9.38282 17.6826-6.63379 19.2656-5.01075C20.9062-3.37011 23.6553-3.32129 25.2783-4.94434L30.7265-10.3838C32.3672-12.0244 32.376-14.7246 30.7929-16.3476ZM22.9511-35.2539C22.9511-37.5508 21.0224-39.5107 18.6855-39.5107L11.0928-39.5107C8.75586-39.5107 6.83594-37.5508 6.83594-35.2539C6.83594-32.957 8.75586-30.9971 11.0928-30.9971L18.6855-30.9971C21.0224-30.9971 22.9511-32.957 22.9511-35.2539ZM30.7265-54.085C32.3672-55.6856 32.376-58.4746 30.7929-60.0576L25.3535-65.5459C23.7617-67.1377 20.9727-67.1953 19.3896-65.5723C17.749-63.9316 17.7402-61.1426 19.3232-59.5596L24.7226-54.1114C26.3545-52.4707 29.1035-52.4619 30.7265-54.085ZM40.0067-32.6929C39.0363-32.6929 38.3042-33.4452 38.3042-34.3954C38.3042-35.3657 39.0363-36.1181 40.0067-36.1181L47.9071-36.1181L47.9071-46.8683C47.9071-47.8387 48.6594-48.591 49.6095-48.591C50.5799-48.591 51.3322-47.8387 51.3322-46.8683L51.3322-34.3954C51.3322-33.4452 50.5799-32.6929 49.6095-32.6929L40.0067-32.6929ZM49.6297-14.9012C60.8732-14.9012 69.9965-24.0246 69.9965-35.2478C69.9965-46.4711 60.8732-55.5944 49.6297-55.5944C38.4065-55.5944 29.2831-46.4711 29.2831-35.2478C29.2831-24.0246 38.4065-14.9012 49.6297-14.9012Z"/>
  </g>
  <g id="Regular-S" transform="matrix(1 0 0 1 1401.43 696)">
   <path d="M48.4375-61.4746C50.4883-61.4746 52.1973-63.2324 52.1973-65.2832L52.1973-73.1934C52.1973-75.2441 50.4883-76.9531 48.4375-76.9531C46.3379-76.9531 44.6289-75.2441 44.6289-73.1934L44.6289-65.2832C44.6289-63.2324 46.3379-61.4746 48.4375-61.4746ZM66.8945-53.7598C68.3594-52.2949 70.8008-52.2461 72.3145-53.7598L77.9297-59.3262C79.3457-60.791 79.3457-63.2812 77.9297-64.7461C76.4648-66.2109 74.0234-66.2109 72.5586-64.7461L66.8945-59.082C65.4785-57.666 65.4785-55.2246 66.8945-53.7598ZM74.5605-35.2539C74.5605-33.2031 76.3184-31.4453 78.3691-31.4453L86.1816-31.4453C88.2812-31.4453 89.9902-33.2031 89.9902-35.2539C89.9902-37.3047 88.2812-39.0625 86.1816-39.0625L78.3691-39.0625C76.3184-39.0625 74.5605-37.3047 74.5605-35.2539ZM66.8945-16.6992C65.4785-15.2344 65.4785-12.8418 66.8945-11.377L72.5586-5.71289C74.0234-4.24805 76.4648-4.29688 77.9297-5.76172C79.3457-7.22656 79.3457-9.66797 77.9297-11.1328L72.2656-16.6992C70.8008-18.1641 68.3594-18.1641 66.8945-16.6992ZM48.4375-9.0332C46.3379-9.0332 44.6289-7.27539 44.6289-5.22461L44.6289 2.68555C44.6289 4.73633 46.3379 6.44531 48.4375 6.44531C50.4883 6.44531 52.1973 4.73633 52.1973 2.68555L52.1973-5.22461C52.1973-7.27539 50.4883-9.0332 48.4375-9.0332ZM29.9316-16.6992C28.4668-18.1641 25.9766-18.1641 24.5117-16.6992L18.9453-11.1816C17.4805-9.7168 17.4805-7.27539 18.8965-5.81055C20.3613-4.3457 22.8027-4.29688 24.2676-5.76172L29.8828-11.377C31.3477-12.8418 31.3477-15.2344 29.9316-16.6992ZM22.2656-35.2539C22.2656-37.3047 20.5566-39.0625 18.457-39.0625L10.6445-39.0625C8.54492-39.0625 6.83594-37.3047 6.83594-35.2539C6.83594-33.2031 8.54492-31.4453 10.6445-31.4453L18.457-31.4453C20.5566-31.4453 22.2656-33.2031 22.2656-35.2539ZM29.8828-53.7598C31.3477-55.1758 31.3477-57.666 29.9316-59.082L24.3164-64.7461C22.9004-66.1621 20.4102-66.2109 18.9941-64.7461C17.5293-63.2812 17.5293-60.791 18.9453-59.375L24.5117-53.7598C25.9766-52.2949 28.418-52.2949 29.8828-53.7598ZM38.5475-33.0546C37.6852-33.0546 37.0446-33.7198 37.0446-34.5575C37.0446-35.4198 37.6852-36.085 38.5475-36.085L46.8751-36.085L46.8751-47.2459C46.8751-48.1083 47.5403-48.7734 48.378-48.7734C49.2403-48.7734 49.9056-48.1083 49.9056-47.2459L49.9056-34.5575C49.9056-33.7198 49.2403-33.0546 48.378-33.0546L38.5475-33.0546ZM48.4026-15.3647C59.3911-15.3647 68.31-24.2835 68.31-35.2473C68.31-46.2111 59.3911-55.13 48.4026-55.13C37.4388-55.13 28.52-46.2111 28.52-35.2473C28.52-24.2835 37.4388-15.3647 48.4026-15.3647Z"/>
  </g>
  <g id="Light-S" transform="matrix(1 0 0 1 1105.1 696)">
   <path d="M48.0439-62.1709C49.6406-62.1709 50.9258-63.4897 50.9258-65.0864L50.9258-73.6626C50.9258-75.2441 49.6406-76.5293 48.0439-76.5293C46.4287-76.5293 45.1435-75.2441 45.1435-73.6626L45.1435-65.0864C45.1435-63.4897 46.4287-62.1709 48.0439-62.1709ZM67.0156-54.2593C68.1626-53.1426 70.0137-53.0937 71.1641-54.2593L77.2485-60.2949C78.3467-61.4267 78.3315-63.3115 77.2485-64.4585C76.1015-65.56 74.2505-65.5752 73.1338-64.4585L67.0156-58.3403C65.9326-57.2422 65.9477-55.3911 67.0156-54.2593ZM74.8935-35.2539C74.8935-33.6723 76.2276-32.3384 77.8091-32.3384L86.3178-32.3384C87.9482-32.3384 89.2334-33.6723 89.2334-35.2539C89.2334-36.8355 87.9482-38.1694 86.3178-38.1694L77.8091-38.1694C76.2276-38.1694 74.8935-36.8355 74.8935-35.2539ZM67.0156-16.2148C65.9477-15.083 65.9326-13.2656 67.0156-12.1338L73.1338-6.01562C74.2505-4.89892 76.1015-4.94775 77.2485-6.04931C78.3315-7.19629 78.3467-9.04737 77.2485-10.1792L71.1304-16.2148C70.0137-17.3467 68.1626-17.3316 67.0156-16.2148ZM48.0439-8.33692C46.4287-8.33692 45.1435-7.01807 45.1435-5.42139L45.1435 3.15478C45.1435 4.73633 46.4287 6.02149 48.0439 6.02149C49.6406 6.02149 50.9258 4.73633 50.9258 3.15478L50.9258-5.42139C50.9258-7.01807 49.6406-8.33692 48.0439-8.33692ZM29.0537-16.2148C27.9067-17.3316 26.022-17.3467 24.9053-16.2148L18.8545-10.2129C17.7227-9.08106 17.7378-7.22998 18.8208-6.08301C19.9526-4.98144 21.8188-4.93262 22.9356-6.04931L29.02-12.1338C30.1368-13.2656 30.1216-15.083 29.0537-16.2148ZM21.1606-35.2539C21.1606-36.8355 19.8755-38.1694 18.2602-38.1694L9.75145-38.1694C8.1211-38.1694 6.83594-36.8355 6.83594-35.2539C6.83594-33.6723 8.1211-32.3384 9.75145-32.3384L18.2602-32.3384C19.8755-32.3384 21.1606-33.6723 21.1606-35.2539ZM29.02-54.2593C30.1216-55.3574 30.1368-57.2422 29.0537-58.3403L22.9692-64.4585C21.8862-65.5415 19.9864-65.56 18.8882-64.4585C17.7715-63.3115 17.7563-61.4267 18.8545-60.3286L24.9053-54.2593C26.022-53.1274 27.8731-53.1426 29.02-54.2593ZM38.0848-33.317C37.4046-33.317 36.9131-33.8327 36.9131-34.4959C36.9131-35.1545 37.4046-35.6774 38.0848-35.6774L46.9858-35.6774L46.9858-47.4867C46.9858-48.1597 47.5087-48.6681 48.1503-48.6681C48.8233-48.6681 49.3462-48.1597 49.3462-47.4867L49.3462-34.4959C49.3462-33.8327 48.8233-33.317 48.1503-33.317L38.0848-33.317ZM47.9904-16.0966C58.5835-16.0966 67.1598-24.6869 67.1598-35.2495C67.1598-45.8122 58.5835-54.4024 47.9904-54.4024C37.4278-54.4024 28.8364-45.8122 28.8364-35.2495C28.8364-24.6869 37.4278-16.0966 47.9904-16.0966Z"/>
  </g>
  <g id="Thin-S" transform="matrix(1 0 0 1 808.887 696)">
   <path d="M47.5234-63.0918C48.5195-63.0918 49.2441-63.8301 49.2441-64.8262L49.2441-74.2832C49.2441-75.2441 48.5195-75.9688 47.5234-75.9688C46.5488-75.9688 45.8242-75.2441 45.8242-74.2832L45.8242-64.8262C45.8242-63.8301 46.5488-63.0918 47.5234-63.0918ZM67.1758-54.9199C67.9023-54.2637 68.9727-54.2148 69.6426-54.9199L76.3476-61.5762C77.0254-62.2675 76.9902-63.3516 76.3476-64.0781C75.6211-64.6992 74.5508-64.7344 73.8945-64.0781L67.1758-57.3594C66.5332-56.6816 66.5683-55.6113 67.1758-54.9199ZM75.334-35.2539C75.334-34.2929 76.1074-33.5195 77.0684-33.5195L86.498-33.5195C87.5078-33.5195 88.2324-34.2929 88.2324-35.2539C88.2324-36.2149 87.5078-36.9883 86.498-36.9883L77.0684-36.9883C76.1074-36.9883 75.334-36.2149 75.334-35.2539ZM67.1758-15.5742C66.5683-14.8828 66.5332-13.8262 67.1758-13.1347L73.8945-6.41601C74.5508-5.75976 75.6211-5.80859 76.3476-6.42968C76.9902-7.15625 77.0254-8.22658 76.3476-8.91799L69.6289-15.5742C68.9727-16.2656 67.9023-16.2305 67.1758-15.5742ZM47.5234-7.41603C46.5488-7.41603 45.8242-6.67774 45.8242-5.68164L45.8242 3.77538C45.8242 4.73633 46.5488 5.46095 47.5234 5.46095C48.5195 5.46095 49.2441 4.73633 49.2441 3.77538L49.2441-5.68164C49.2441-6.67774 48.5195-7.41603 47.5234-7.41603ZM27.8926-15.5742C27.166-16.2305 26.082-16.2656 25.4258-15.5742L18.7344-8.93165C18.043-8.24025 18.0781-7.16992 18.7207-6.44335C19.4121-5.82225 20.5176-5.77343 21.1738-6.42968L27.879-13.1347C28.5352-13.8262 28.5001-14.8828 27.8926-15.5742ZM19.6992-35.2539C19.6992-36.2149 18.9746-36.9883 18-36.9883L8.57032-36.9883C7.56056-36.9883 6.83594-36.2149 6.83594-35.2539C6.83594-34.2929 7.56056-33.5195 8.57032-33.5195L18-33.5195C18.9746-33.5195 19.6992-34.2929 19.6992-35.2539ZM27.879-54.9199C28.5001-55.5977 28.5352-56.6816 27.8926-57.3594L21.1875-64.0781C20.5449-64.7207 19.4258-64.6992 18.7481-64.0781C18.0918-63.3516 18.0566-62.2675 18.7344-61.5898L25.4258-54.9199C26.082-54.2285 27.1523-54.2637 27.879-54.9199ZM37.4728-33.6641C37.0335-33.6641 36.7391-33.982 36.7391-34.4145C36.7391-34.8037 37.0335-35.1383 37.4728-35.1383L47.1323-35.1383L47.1323-47.805C47.1323-48.2277 47.4669-48.5288 47.8492-48.5288C48.2718-48.5288 48.6064-48.2277 48.6064-47.805L48.6064-34.4145C48.6064-33.982 48.2718-33.6641 47.8492-33.6641L37.4728-33.6641ZM47.4452-17.0647C57.5154-17.0647 65.6386-25.2204 65.6386-35.2524C65.6386-45.2845 57.5154-53.4402 47.4452-53.4402C37.4133-53.4402 29.2549-45.2845 29.2549-35.2524C29.2549-25.2204 37.4133-17.0647 47.4452-17.0647Z"/>
  </g>
  <g id="Ultralight-S" transform="matrix(1 0 0 1 512.433 696)">
   <path d="M47.2568-63.5635C47.9453-63.5635 48.3828-64.0044 48.3828-64.6929L48.3828-74.6011C48.3828-75.2441 47.9453-75.6817 47.2568-75.6817C46.6103-75.6817 46.1728-75.2441 46.1728-74.6011L46.1728-64.6929C46.1728-64.0044 46.6103-63.5635 47.2568-63.5635ZM67.2578-55.2583C67.769-54.8379 68.4395-54.789 68.8633-55.2583L75.8862-62.2324C76.3487-62.6982 76.3032-63.3721 75.8862-63.8833C75.375-64.2583 74.7046-64.3037 74.2842-63.8833L67.2578-56.857C66.8408-56.3945 66.8862-55.7241 67.2578-55.2583ZM75.5596-35.2539C75.5596-34.6108 76.0459-34.1245 76.689-34.1245L86.5903-34.1245C87.2822-34.1245 87.7197-34.6108 87.7197-35.2539C87.7197-35.897 87.2822-36.3833 86.5903-36.3833L76.689-36.3833C76.0459-36.3833 75.5596-35.897 75.5596-35.2539ZM67.2578-15.2461C66.8862-14.7803 66.8408-14.1133 67.2578-13.6474L74.2842-6.62109C74.7046-6.20067 75.375-6.2495 75.8862-6.6245C76.3032-7.13574 76.3487-7.80617 75.8862-8.272L68.8599-15.2461C68.4395-15.7119 67.769-15.6665 67.2578-15.2461ZM47.2568-6.94435C46.6103-6.94435 46.1728-6.50342 46.1728-5.81494L46.1728 4.09325C46.1728 4.73633 46.6103 5.17384 47.2568 5.17384C47.9453 5.17384 48.3828 4.73633 48.3828 4.09325L48.3828-5.81494C48.3828-6.50342 47.9453-6.94435 47.2568-6.94435ZM27.2979-15.2461C26.7866-15.6665 26.1128-15.7119 25.6924-15.2461L18.6729-8.27541C18.207-7.80959 18.2524-7.13916 18.6694-6.62792C19.1353-6.25291 19.8511-6.20409 20.2715-6.6245L27.2945-13.6474C27.7149-14.1133 27.6695-14.7803 27.2979-15.2461ZM18.9507-35.2539C18.9507-35.897 18.5132-36.3833 17.8667-36.3833L7.96535-36.3833C7.27345-36.3833 6.83594-35.897 6.83594-35.2539C6.83594-34.6108 7.27345-34.1245 7.96535-34.1245L17.8667-34.1245C18.5132-34.1245 18.9507-34.6108 18.9507-35.2539ZM27.2945-55.2583C27.6695-55.7207 27.7149-56.3945 27.2979-56.857L20.2749-63.8833C19.8579-64.3003 19.1387-64.2583 18.6763-63.8833C18.2559-63.3721 18.2104-62.6982 18.6729-62.2358L25.6924-55.2583C26.1128-54.7925 26.7832-54.8379 27.2945-55.2583ZM37.1593-33.8419C36.8434-33.8419 36.65-34.0585 36.65-34.3728C36.65-34.6239 36.8434-34.8621 37.1593-34.8621L47.2073-34.8621L47.2073-47.9681C47.2073-48.2625 47.4454-48.4574 47.695-48.4574C47.9893-48.4574 48.2275-48.2625 48.2275-47.9681L48.2275-34.3728C48.2275-34.0585 47.9893-33.8419 47.695-33.8419L37.1593-33.8419ZM47.166-17.5605C56.9683-17.5605 64.8594-25.4936 64.8594-35.2539C64.8594-45.0142 56.9683-52.9473 47.166-52.9473C37.4058-52.9473 29.4692-45.0142 29.4692-35.2539C29.4692-25.4936 37.4058-17.5605 47.166-17.5605Z"/>
  </g>
 </g>
</svg>
