<?xml version="1.0" encoding="UTF-8"?>
<!--Generator: Apple Native CoreSVG 232.5-->
<!DOCTYPE svg
PUBLIC "-//W3C//DTD SVG 1.1//EN"
       "http://www.w3.org/Graphics/SVG/1.1/DTD/svg11.dtd">
<svg version="1.1" xmlns="http://www.w3.org/2000/svg" xmlns:xlink="http://www.w3.org/1999/xlink" width="3300" height="2200">
 <g id="Notes">
  <rect height="2200" id="artboard" style="fill:white;opacity:1" width="3300" x="0" y="0"/>
  <line style="fill:none;stroke:black;opacity:1;stroke-width:0.5;" x1="263" x2="3036" y1="292" y2="292"/>
  <text style="stroke:none;fill:black;font-family:sans-serif;font-size:13;font-weight:bold;" transform="matrix(1 0 0 1 263 322)">Weight/Scale Variations</text>
  <text style="stroke:none;fill:black;font-family:sans-serif;font-size:13;text-anchor:middle;" transform="matrix(1 0 0 1 559.711 322)">Ultralight</text>
  <text style="stroke:none;fill:black;font-family:sans-serif;font-size:13;text-anchor:middle;" transform="matrix(1 0 0 1 856.422 322)">Thin</text>
  <text style="stroke:none;fill:black;font-family:sans-serif;font-size:13;text-anchor:middle;" transform="matrix(1 0 0 1 1153.13 322)">Light</text>
  <text style="stroke:none;fill:black;font-family:sans-serif;font-size:13;text-anchor:middle;" transform="matrix(1 0 0 1 1449.84 322)">Regular</text>
  <text style="stroke:none;fill:black;font-family:sans-serif;font-size:13;text-anchor:middle;" transform="matrix(1 0 0 1 1746.56 322)">Medium</text>
  <text style="stroke:none;fill:black;font-family:sans-serif;font-size:13;text-anchor:middle;" transform="matrix(1 0 0 1 2043.27 322)">Semibold</text>
  <text style="stroke:none;fill:black;font-family:sans-serif;font-size:13;text-anchor:middle;" transform="matrix(1 0 0 1 2339.98 322)">Bold</text>
  <text style="stroke:none;fill:black;font-family:sans-serif;font-size:13;text-anchor:middle;" transform="matrix(1 0 0 1 2636.69 322)">Heavy</text>
  <text style="stroke:none;fill:black;font-family:sans-serif;font-size:13;text-anchor:middle;" transform="matrix(1 0 0 1 2933.4 322)">Black</text>
  <line style="fill:none;stroke:black;opacity:1;stroke-width:0.5;" x1="263" x2="3036" y1="1903" y2="1903"/>
  <g transform="matrix(0.2 0 0 0.2 263 1933)">
   <path d="m46.2402 4.15039c21.5332 0 39.4531-17.8711 39.4531-39.4043s-17.9688-39.4043-39.502-39.4043c-21.4844 0-39.3555 17.8711-39.3555 39.4043s17.9199 39.4043 39.4043 39.4043Zm0-7.42188c-17.7246 0-31.8848-14.209-31.8848-31.9824s14.1113-31.9824 31.8359-31.9824c17.7734 0 32.0312 14.209 32.0312 31.9824s-14.209 31.9824-31.9824 31.9824Zm-17.9688-31.9824c0 2.14844 1.51367 3.61328 3.75977 3.61328h10.498v10.5957c0 2.19727 1.46484 3.71094 3.61328 3.71094 2.24609 0 3.71094-1.51367 3.71094-3.71094v-10.5957h10.5957c2.19727 0 3.71094-1.46484 3.71094-3.61328 0-2.19727-1.51367-3.71094-3.71094-3.71094h-10.5957v-10.5469c0-2.24609-1.46484-3.75977-3.71094-3.75977-2.14844 0-3.61328 1.51367-3.61328 3.75977v10.5469h-10.498c-2.24609 0-3.75977 1.51367-3.75977 3.71094Z"/>
  </g>
  <g transform="matrix(0.2 0 0 0.2 281.506 1933)">
   <path d="m58.5449 14.5508c27.2461 0 49.8047-22.6074 49.8047-49.8047 0-27.2461-22.6074-49.8047-49.8535-49.8047-27.1973 0-49.7559 22.5586-49.7559 49.8047 0 27.1973 22.6074 49.8047 49.8047 49.8047Zm0-8.30078c-23.0469 0-41.4551-18.457-41.4551-41.5039s18.3594-41.5039 41.4062-41.5039 41.5527 18.457 41.5527 41.5039-18.457 41.5039-41.5039 41.5039Zm-22.6562-41.5039c0 2.39258 1.66016 4.00391 4.15039 4.00391h14.3555v14.4043c0 2.44141 1.66016 4.15039 4.05273 4.15039 2.44141 0 4.15039-1.66016 4.15039-4.15039v-14.4043h14.4043c2.44141 0 4.15039-1.61133 4.15039-4.00391 0-2.44141-1.70898-4.15039-4.15039-4.15039h-14.4043v-14.3555c0-2.49023-1.70898-4.19922-4.15039-4.19922-2.39258 0-4.05273 1.70898-4.05273 4.19922v14.3555h-14.3555c-2.49023 0-4.15039 1.70898-4.15039 4.15039Z"/>
  </g>
  <g transform="matrix(0.2 0 0 0.2 304.924 1933)">
   <path d="m74.8535 28.3203c34.8145 0 63.623-28.8086 63.623-63.5742 0-34.8145-28.8574-63.623-63.6719-63.623-34.7656 0-63.5254 28.8086-63.5254 63.623 0 34.7656 28.8086 63.5742 63.5742 63.5742Zm0-9.08203c-30.1758 0-54.4434-24.3164-54.4434-54.4922 0-30.2246 24.2188-54.4922 54.3945-54.4922 30.2246 0 54.541 24.2676 54.541 54.4922 0 30.1758-24.2676 54.4922-54.4922 54.4922Zm-28.8574-54.4922c0 2.58789 1.85547 4.39453 4.58984 4.39453h19.7266v19.7754c0 2.68555 1.85547 4.58984 4.44336 4.58984 2.68555 0 4.54102-1.85547 4.54102-4.58984v-19.7754h19.7754c2.68555 0 4.58984-1.80664 4.58984-4.39453 0-2.73438-1.85547-4.58984-4.58984-4.58984h-19.7754v-19.7266c0-2.73438-1.85547-4.63867-4.54102-4.63867-2.58789 0-4.44336 1.9043-4.44336 4.63867v19.7266h-19.7266c-2.73438 0-4.58984 1.85547-4.58984 4.58984Z"/>
  </g>
  <text style="stroke:none;fill:black;font-family:sans-serif;font-size:13;font-weight:bold;" transform="matrix(1 0 0 1 263 1953)">Design Variations</text>
  <text style="stroke:none;fill:black;font-family:sans-serif;font-size:13;" transform="matrix(1 0 0 1 263 1971)">Symbols are supported in up to nine weights and three scales.</text>
  <text style="stroke:none;fill:black;font-family:sans-serif;font-size:13;" transform="matrix(1 0 0 1 263 1989)">For optimal layout with text and other symbols, vertically align</text>
  <text style="stroke:none;fill:black;font-family:sans-serif;font-size:13;" transform="matrix(1 0 0 1 263 2007)">symbols with the adjacent text.</text>
  <line style="fill:none;stroke:#00AEEF;stroke-width:0.5;opacity:1.0;" x1="776" x2="776" y1="1919" y2="1933"/>
  <g transform="matrix(0.2 0 0 0.2 776 1933)">
   <path d="m16.5527 0.78125c2.58789 0 3.85742-0.976562 4.78516-3.71094l6.29883-17.2363h28.8086l6.29883 17.2363c0.927734 2.73438 2.19727 3.71094 4.73633 3.71094 2.58789 0 4.24805-1.5625 4.24805-4.00391 0-0.830078-0.146484-1.61133-0.537109-2.63672l-22.9004-60.9863c-1.12305-2.97852-3.125-4.49219-6.25-4.49219-3.02734 0-5.07812 1.46484-6.15234 4.44336l-22.9004 61.084c-0.390625 1.02539-0.537109 1.80664-0.537109 2.63672 0 2.44141 1.5625 3.95508 4.10156 3.95508Zm13.4766-28.3691 11.8652-32.8613h0.244141l11.8652 32.8613Z"/>
  </g>
  <line style="fill:none;stroke:#00AEEF;stroke-width:0.5;opacity:1.0;" x1="792.836" x2="792.836" y1="1919" y2="1933"/>
  <text style="stroke:none;fill:black;font-family:sans-serif;font-size:13;font-weight:bold;" transform="matrix(1 0 0 1 776 1953)">Margins</text>
  <text style="stroke:none;fill:black;font-family:sans-serif;font-size:13;" transform="matrix(1 0 0 1 776 1971)">Leading and trailing margins on the left and right side of each symbol</text>
  <text style="stroke:none;fill:black;font-family:sans-serif;font-size:13;" transform="matrix(1 0 0 1 776 1989)">can be adjusted by modifying the x-location of the margin guidelines.</text>
  <text style="stroke:none;fill:black;font-family:sans-serif;font-size:13;" transform="matrix(1 0 0 1 776 2007)">Modifications are automatically applied proportionally to all</text>
  <text style="stroke:none;fill:black;font-family:sans-serif;font-size:13;" transform="matrix(1 0 0 1 776 2025)">scales and weights.</text>
  <g transform="matrix(0.2 0 0 0.2 1289 1933)">
   <path d="m14.209 9.32617 8.49609 8.54492c4.29688 4.3457 9.22852 4.05273 13.8672-1.07422l53.4668-58.9355-4.83398-4.88281-53.0762 58.3984c-1.75781 2.00195-3.41797 2.49023-5.76172 0.146484l-5.85938-5.81055c-2.34375-2.29492-1.80664-4.00391 0.195312-5.81055l57.373-54.0039-4.88281-4.83398-57.959 54.4434c-4.93164 4.58984-5.32227 9.47266-1.02539 13.8184Zm32.0801-90.9668c-2.09961 2.05078-2.24609 4.93164-1.07422 6.88477 1.17188 1.80664 3.4668 2.97852 6.68945 2.14844 7.32422-1.70898 14.9414-2.00195 22.0703 2.68555l-2.92969 7.27539c-1.70898 4.15039-0.830078 7.08008 1.85547 9.81445l11.4746 11.5723c2.44141 2.44141 4.49219 2.53906 7.32422 2.05078l5.32227-0.976562 3.32031 3.36914-0.195312 2.7832c-0.195312 2.49023 0.439453 4.39453 2.88086 6.78711l3.80859 3.71094c2.39258 2.39258 5.46875 2.53906 7.8125 0.195312l14.5508-14.5996c2.34375-2.34375 2.24609-5.32227-0.146484-7.71484l-3.85742-3.80859c-2.39258-2.39258-4.24805-3.17383-6.64062-2.97852l-2.88086 0.244141-3.22266-3.17383 1.2207-5.61523c0.634766-2.83203-0.146484-5.0293-3.07617-7.95898l-10.9863-10.9375c-16.6992-16.6016-38.8672-16.2109-53.3203-1.75781Zm7.4707 1.85547c12.1582-8.88672 28.6133-7.37305 39.7461 3.75977l12.1582 12.0605c1.17188 1.17188 1.36719 2.09961 1.02539 3.80859l-1.61133 7.42188 7.51953 7.42188 4.93164-0.292969c1.26953-0.0488281 1.66016 0.0488281 2.63672 1.02539l2.88086 2.88086-12.207 12.207-2.88086-2.88086c-0.976562-0.976562-1.12305-1.36719-1.07422-2.68555l0.341797-4.88281-7.4707-7.42188-7.61719 1.26953c-1.61133 0.341797-2.34375 0.195312-3.56445-0.976562l-10.0098-10.0098c-1.26953-1.17188-1.41602-2.00195-0.634766-3.85742l4.39453-10.4492c-7.8125-7.27539-17.9688-10.4004-28.125-7.42188-0.78125 0.195312-1.07422-0.439453-0.439453-0.976562Z"/>
  </g>
  <text style="stroke:none;fill:black;font-family:sans-serif;font-size:13;font-weight:bold;" transform="matrix(1 0 0 1 1289 1953)">Exporting</text>
  <text style="stroke:none;fill:black;font-family:sans-serif;font-size:13;" transform="matrix(1 0 0 1 1289 1971)">Symbols should be outlined when exporting to ensure the</text>
  <text style="stroke:none;fill:black;font-family:sans-serif;font-size:13;" transform="matrix(1 0 0 1 1289 1989)">design is preserved when submitting to Xcode.</text>
  <text id="template-version" style="stroke:none;fill:black;font-family:sans-serif;font-size:13;text-anchor:end;" transform="matrix(1 0 0 1 3036 1933)">Template v.2.0</text>
  <text style="stroke:none;fill:black;font-family:sans-serif;font-size:13;text-anchor:end;" transform="matrix(1 0 0 1 3036 1951)">Requires Xcode 12 or greater</text>
  <text id="descriptive-name" style="stroke:none;fill:black;font-family:sans-serif;font-size:13;text-anchor:end;" transform="matrix(1 0 0 1 3036 1969)">Generated from thermometer.medium</text>
  <text style="stroke:none;fill:black;font-family:sans-serif;font-size:13;text-anchor:end;" transform="matrix(1 0 0 1 3036 1987)">Typeset at 100.0 points</text>
  <text style="stroke:none;fill:black;font-family:sans-serif;font-size:13;" transform="matrix(1 0 0 1 263 726)">Small</text>
  <text style="stroke:none;fill:black;font-family:sans-serif;font-size:13;" transform="matrix(1 0 0 1 263 1156)">Medium</text>
  <text style="stroke:none;fill:black;font-family:sans-serif;font-size:13;" transform="matrix(1 0 0 1 263 1586)">Large</text>
 </g>
 <g id="Guides">
  <g id="H-reference" style="fill:#27AAE1;stroke:none;" transform="matrix(1 0 0 1 339 696)">
   <path d="M0.993654 0L3.63775 0L29.3281-67.1323L30.0303-67.1323L30.0303-70.459L28.1226-70.459ZM11.6885-24.4799L46.9815-24.4799L46.2315-26.7285L12.4385-26.7285ZM55.1196 0L57.7637 0L30.6382-70.459L29.4326-70.459L29.4326-67.1323Z"/>
  </g>
  <line id="Baseline-S" style="fill:none;stroke:#27AAE1;opacity:1;stroke-width:0.5;" x1="263" x2="3036" y1="696" y2="696"/>
  <line id="Capline-S" style="fill:none;stroke:#27AAE1;opacity:1;stroke-width:0.5;" x1="263" x2="3036" y1="625.541" y2="625.541"/>
  <g id="H-reference" style="fill:#27AAE1;stroke:none;" transform="matrix(1 0 0 1 339 1126)">
   <path d="M0.993654 0L3.63775 0L29.3281-67.1323L30.0303-67.1323L30.0303-70.459L28.1226-70.459ZM11.6885-24.4799L46.9815-24.4799L46.2315-26.7285L12.4385-26.7285ZM55.1196 0L57.7637 0L30.6382-70.459L29.4326-70.459L29.4326-67.1323Z"/>
  </g>
  <line id="Baseline-M" style="fill:none;stroke:#27AAE1;opacity:1;stroke-width:0.5;" x1="263" x2="3036" y1="1126" y2="1126"/>
  <line id="Capline-M" style="fill:none;stroke:#27AAE1;opacity:1;stroke-width:0.5;" x1="263" x2="3036" y1="1055.54" y2="1055.54"/>
  <g id="H-reference" style="fill:#27AAE1;stroke:none;" transform="matrix(1 0 0 1 339 1556)">
   <path d="M0.993654 0L3.63775 0L29.3281-67.1323L30.0303-67.1323L30.0303-70.459L28.1226-70.459ZM11.6885-24.4799L46.9815-24.4799L46.2315-26.7285L12.4385-26.7285ZM55.1196 0L57.7637 0L30.6382-70.459L29.4326-70.459L29.4326-67.1323Z"/>
  </g>
  <line id="Baseline-L" style="fill:none;stroke:#27AAE1;opacity:1;stroke-width:0.5;" x1="263" x2="3036" y1="1556" y2="1556"/>
  <line id="Capline-L" style="fill:none;stroke:#27AAE1;opacity:1;stroke-width:0.5;" x1="263" x2="3036" y1="1485.54" y2="1485.54"/>
  <line id="left-margin" style="fill:none;stroke:#00AEEF;stroke-width:0.5;opacity:1.0;" x1="1411.87" x2="1411.87" y1="1030.79" y2="1150.12"/>
  <line id="right-margin" style="fill:none;stroke:#FF3B30;stroke-width:0.5;opacity:1.0;" x1="1487.82" x2="1487.82" y1="1030.79" y2="1150.12"/>
 </g>
 <g id="Symbols">
  <g id="Black-L" transform="matrix(1 0 0 1 2877.81 1556)">
   <path d="M55.658 39.045C77.3954 39.045 95.0943 21.8705 95.0943 0.0770942C95.0943-10.4582 91.0793-19.5549 83.5967-26.8679C82.3588-28.0789 82.1151-28.6711 82.1735-30.317L82.1735-81.1167C82.1735-98.1166 71.4027-109.548 55.658-109.548C39.7172-109.548 28.984-98.1166 28.984-81.1167L28.984-30.317C28.984-28.6711 28.7987-28.0205 27.5816-26.8679C19.9238-19.7885 16.084-10.4582 16.084 0.0770942C16.084 21.8705 33.7829 39.045 55.658 39.045ZM55.658 22.5714C42.8997 22.5714 32.638 12.2293 32.638-0.506972C32.638-8.83695 36.469-15.3334 43.0146-19.6321C44.8714-20.8455 45.5976-21.8481 45.5976-24.3471L45.5976-80.6414C45.5976-88.0728 49.6609-92.9928 55.658-92.9928C61.5173-92.9928 65.5599-88.0728 65.5599-80.6414L65.5599-24.3471C65.5599-21.8481 66.3069-20.8455 68.1637-19.6321C74.6885-15.3334 78.5403-8.83695 78.5403-0.506972C78.5403 12.2293 68.2786 22.5714 55.658 22.5714ZM55.5787 14.0481C63.6154 14.0481 70.095 7.56732 70.095-0.527789C70.095-6.12151 66.9258-10.7454 62.3215-13.248C60.3635-14.3179 59.7177-15.0452 59.7177-17.9511L59.7177-51.1743C59.7177-54.207 57.8633-56.0847 55.5787-56.0847C53.315-56.0847 51.4606-54.207 51.4606-51.1743L51.4606-17.9511C51.4606-15.0452 50.8148-14.3179 48.8567-13.248C44.2317-10.7454 41.0833-6.12151 41.0833-0.527789C41.0833 7.56732 47.5629 14.0481 55.5787 14.0481ZM94.7899-80.2707L109.208-80.2707C111.969-80.2707 113.741-82.24 113.741-84.7623C113.741-87.2649 111.969-89.2342 109.208-89.2342L94.7899-89.2342C92.0276-89.2342 90.2363-87.2649 90.2363-84.7623C90.2363-82.24 92.0276-80.2707 94.7899-80.2707ZM94.7899-63.4544L109.208-63.4544C111.969-63.4544 113.741-65.4237 113.741-67.946C113.741-70.4486 111.969-72.418 109.208-72.418L94.7899-72.418C92.0276-72.418 90.2363-70.4486 90.2363-67.946C90.2363-65.4237 92.0276-63.4544 94.7899-63.4544ZM94.7899-46.3461L109.208-46.3461C111.969-46.3461 113.741-48.3154 113.741-50.8377C113.741-53.3403 111.969-55.3096 109.208-55.3096L94.7899-55.3096C92.0276-55.3096 90.2363-53.3403 90.2363-50.8377C90.2363-48.3154 92.0276-46.3461 94.7899-46.3461ZM94.7899-29.2378L109.208-29.2378C111.969-29.2378 113.741-31.2071 113.741-33.7294C113.741-36.232 111.969-38.2013 109.208-38.2013L94.7899-38.2013C92.0276-38.2013 90.2363-36.232 90.2363-33.7294C90.2363-31.2071 92.0276-29.2378 94.7899-29.2378Z"/>
  </g>
  <g id="Heavy-L" transform="matrix(1 0 0 1 2582.72 1556)">
   <path d="M54.0262 37.9907C74.8813 37.9907 91.849 21.419 91.849 0.530505C91.849-9.76328 87.8561-18.6779 80.3602-25.8502C79.0732-27.079 78.8207-27.7114 78.8653-29.4286L78.8653-81.8195C78.8653-97.7748 68.7756-108.521 54.0262-108.521C39.1128-108.521 29.0375-97.7748 29.0375-81.8195L29.0375-29.4286C29.0375-27.7114 28.8296-27.0344 27.5728-25.8502C19.943-18.8564 16.084-9.76328 16.084 0.530505C16.084 21.419 33.0517 37.9907 54.0262 37.9907ZM54.0262 23.384C41.1438 23.384 30.7711 12.9309 30.7711 0.0842786C30.7711-8.1349 34.5618-14.7825 41.1565-19.1479C43.0399-20.3878 43.7749-21.4617 43.7749-23.9827L43.7749-81.3706C43.7749-88.8556 47.9271-93.8285 54.0262-93.8285C60.0059-93.8285 64.128-88.8556 64.128-81.3706L64.128-23.9827C64.128-21.4617 64.8931-20.3878 66.7765-19.1479C73.341-14.7825 77.1619-8.1349 77.1619 0.0842786C77.1619 12.9309 66.7893 23.384 54.0262 23.384ZM53.9514 14.8651C62.1305 14.8651 68.7122 8.27782 68.7122 0.0540942C68.7122-5.63732 65.4895-10.3413 60.8101-12.8792C58.8162-13.9717 58.1616-14.7123 58.1616-17.6579L58.1616-50.9979C58.1616-54.0124 56.2895-55.926 53.9514-55.926C51.6435-55.926 49.7714-54.0124 49.7714-50.9979L49.7714-17.6579C49.7714-14.7123 49.1168-13.9717 47.1229-12.8792C42.4134-10.3413 39.2208-5.63732 39.2208 0.0540942C39.2208 8.27782 45.8025 14.8651 53.9514 14.8651ZM91.2577-80.7245L105.477-80.7245C108.08-80.7245 109.767-82.6094 109.767-84.9832C109.767-87.3325 108.08-89.2174 105.477-89.2174L91.2577-89.2174C88.6482-89.2174 86.9375-87.3325 86.9375-84.9832C86.9375-82.6094 88.6482-80.7245 91.2577-80.7245ZM91.2577-63.7014L105.477-63.7014C108.08-63.7014 109.767-65.5863 109.767-67.9602C109.767-70.3094 108.08-72.1943 105.477-72.1943L91.2577-72.1943C88.6482-72.1943 86.9375-70.3094 86.9375-67.9602C86.9375-65.5863 88.6482-63.7014 91.2577-63.7014ZM91.2577-46.4553L105.477-46.4553C108.08-46.4553 109.767-48.3402 109.767-50.714C109.767-53.0633 108.08-54.9482 105.477-54.9482L91.2577-54.9482C88.6482-54.9482 86.9375-53.0633 86.9375-50.714C86.9375-48.3402 88.6482-46.4553 91.2577-46.4553ZM91.2577-29.2091L105.477-29.2091C108.08-29.2091 109.767-31.094 109.767-33.4678C109.767-35.8171 108.08-37.702 105.477-37.702L91.2577-37.702C88.6482-37.702 86.9375-35.8171 86.9375-33.4678C86.9375-31.094 88.6482-29.2091 91.2577-29.2091Z"/>
  </g>
  <g id="Bold-L" transform="matrix(1 0 0 1 2287.95 1556)">
   <path d="M52.0724 36.7739C71.8736 36.7739 87.9644 20.9327 87.9644 1.12872C87.9644-8.86541 84.0096-17.5497 76.4908-24.5379C75.1275-25.7971 74.8598-26.4906 74.889-28.3223L74.889-82.7474C74.889-97.4193 65.6146-107.335 52.0724-107.335C38.4046-107.335 29.1215-97.4193 29.1215-82.7474L29.1215-28.3223C29.1215-26.4906 28.8829-25.7679 27.5576-24.5379C19.9512-17.6665 16.084-8.86541 16.084 1.12872C16.084 20.9327 32.1748 36.7739 52.0724 36.7739ZM52.0724 24.5098C38.9841 24.5098 28.4285 13.8738 28.4285 0.836682C28.4285-7.26657 32.158-14.0912 38.8291-18.5634C40.7581-19.8491 41.5084-21.0373 41.5084-23.5965L41.5084-82.3443C41.5084-89.9132 45.8055-94.9776 52.0724-94.9776C58.2429-94.9776 62.502-89.9132 62.502-82.3443L62.502-23.5965C62.502-21.0373 63.2903-19.8491 65.2193-18.5634C71.8524-14.0912 75.6199-7.26657 75.6199 0.836682C75.6199 13.8738 65.0643 24.5098 52.0724 24.5098ZM52.0052 15.9985C60.4132 15.9985 67.1626 9.23589 67.1626 0.798696C67.1626-5.05287 63.856-9.88647 59.0471-12.4853C56.9997-13.6085 56.3298-14.3719 56.3298-17.3861L56.3298-50.8274C56.3298-53.8189 54.4273-55.7859 52.0052-55.7859C49.6212-55.7859 47.7186-53.8189 47.7186-50.8274L47.7186-17.3861C47.7186-14.3719 47.0488-13.6085 45.0013-12.4853C40.1545-9.88647 36.8858-5.05287 36.8858 0.798696C36.8858 9.23589 43.6352 15.9985 52.0052 15.9985ZM86.9451-81.2482L100.896-81.2482C103.27-81.2482 104.834-82.9958 104.834-85.1554C104.834-87.2903 103.27-89.0379 100.896-89.0379L86.9451-89.0379C84.5574-89.0379 82.9689-87.2903 82.9689-85.1554C82.9689-82.9958 84.5574-81.2482 86.9451-81.2482ZM86.9451-63.9938L100.896-63.9938C103.27-63.9938 104.834-65.7414 104.834-67.9011C104.834-70.0359 103.27-71.7835 100.896-71.7835L86.9451-71.7835C84.5574-71.7835 82.9689-70.0359 82.9689-67.9011C82.9689-65.7414 84.5574-63.9938 86.9451-63.9938ZM86.9451-46.5935L100.896-46.5935C103.27-46.5935 104.834-48.3411 104.834-50.5007C104.834-52.6356 103.27-54.3832 100.896-54.3832L86.9451-54.3832C84.5574-54.3832 82.9689-52.6356 82.9689-50.5007C82.9689-48.3411 84.5574-46.5935 86.9451-46.5935ZM86.9451-29.1931L100.896-29.1931C103.27-29.1931 104.834-30.9407 104.834-33.1004C104.834-35.2352 103.27-36.9828 100.896-36.9828L86.9451-36.9828C84.5574-36.9828 82.9689-35.2352 82.9689-33.1004C82.9689-30.9407 84.5574-29.1931 86.9451-29.1931Z"/>
  </g>
  <g id="Semibold-L" transform="matrix(1 0 0 1 1992.58 1556)">
   <path d="M50.7255 35.935C69.8001 35.935 85.2864 20.5974 85.2864 1.54112C85.2864-8.24642 81.3578-16.7719 73.8233-23.6332C72.4073-24.9134 72.1291-25.6491 72.1477-27.5596L72.1477-83.3872C72.1477-97.1741 63.4354-106.518 50.7255-106.518C37.9164-106.518 29.1794-97.1741 29.1794-83.3872L29.1794-27.5596C29.1794-25.6491 28.9197-24.8948 27.5471-23.6332C19.9569-16.8461 16.084-8.24642 16.084 1.54112C16.084 20.5974 31.5703 35.935 50.7255 35.935ZM50.7255 25.286C37.4952 25.286 26.8135 14.5238 26.8135 1.35538C26.8135-6.66795 30.5009-13.6146 37.2246-18.1605C39.1851-19.4777 39.9459-20.7448 39.9459-23.3303L39.9459-83.0155C39.9459-90.6423 44.3429-95.7697 50.7255-95.7697C57.0275-95.7697 61.3812-90.6423 61.3812-83.0155L61.3812-23.3303C61.3812-20.7448 62.1853-19.4777 64.1458-18.1605C70.8262-13.6146 74.5569-6.66795 74.5569 1.35538C74.5569 14.5238 63.8752 25.286 50.7255 25.286ZM50.6635 16.7799C59.2293 16.7799 66.0944 9.89637 66.0944 1.31202C66.0944-4.64995 62.7298-9.57295 57.8317-12.2138C55.7474-13.3581 55.067-14.1373 55.067-17.1988L55.067-50.7098C55.067-53.6854 53.1435-55.6893 50.6635-55.6893C48.2269-55.6893 46.3034-53.6854 46.3034-50.7098L46.3034-17.1988C46.3034-14.1373 45.623-13.3581 43.5387-12.2138C38.5972-9.57295 35.276-4.64995 35.276 1.31202C35.276 9.89637 42.1411 16.7799 50.6635 16.7799ZM83.972-81.6092L97.7376-81.6092C99.9538-81.6092 101.433-83.2622 101.433-85.2741C101.433-87.2612 99.9538-88.9141 97.7376-88.9141L83.972-88.9141C81.7372-88.9141 80.233-87.2612 80.233-85.2741C80.233-83.2622 81.7372-81.6092 83.972-81.6092ZM83.972-64.1954L97.7376-64.1954C99.9538-64.1954 101.433-65.8484 101.433-67.8603C101.433-69.8474 99.9538-71.5004 97.7376-71.5004L83.972-71.5004C81.7372-71.5004 80.233-69.8474 80.233-67.8603C80.233-65.8484 81.7372-64.1954 83.972-64.1954ZM83.972-46.6888L97.7376-46.6888C99.9538-46.6888 101.433-48.3417 101.433-50.3537C101.433-52.3408 99.9538-53.9937 97.7376-53.9937L83.972-53.9937C81.7372-53.9937 80.233-52.3408 80.233-50.3537C80.233-48.3417 81.7372-46.6888 83.972-46.6888ZM83.972-29.1821L97.7376-29.1821C99.9538-29.1821 101.433-30.8351 101.433-32.847C101.433-34.8341 99.9538-36.4871 97.7376-36.4871L83.972-36.4871C81.7372-36.4871 80.233-34.8341 80.233-32.847C80.233-30.8351 81.7372-29.1821 83.972-29.1821Z"/>
  </g>
  <g id="Medium-L" transform="matrix(1 0 0 1 1696.89 1556)">
   <path d="M49.7041 35.2989C68.2279 35.2989 83.2558 20.3431 83.2558 1.85382C83.2558-7.77708 79.3471-16.1821 71.8007-22.9472C70.3448-24.2433 70.0586-25.0109 70.0691-26.9813L70.0691-83.8722C70.0691-96.9883 61.7831-105.898 49.7041-105.898C37.5462-105.898 29.2232-96.9883 29.2232-83.8722L29.2232-26.9813C29.2232-25.0109 28.9476-24.2328 27.5391-22.9472C19.9611-16.2241 16.084-7.77708 16.084 1.85382C16.084 20.3431 31.1119 35.2989 49.7041 35.2989ZM49.7041 25.8745C36.3663 25.8745 25.5889 15.0166 25.5889 1.74869C25.5889-6.21405 29.2444-13.2533 36.008-17.855C37.9924-19.1961 38.7611-20.523 38.7611-23.1284L38.7611-83.5245C38.7611-91.1952 43.2339-96.3704 49.7041-96.3704C56.1059-96.3704 60.5312-91.1952 60.5312-83.5245L60.5312-23.1284C60.5312-20.523 61.3474-19.1961 63.3318-17.855C70.048-13.2533 73.7509-6.21405 73.7509 1.74869C73.7509 15.0166 62.9735 25.8745 49.7041 25.8745ZM49.6462 17.3724C58.3316 17.3724 65.2844 10.3972 65.2844 1.70124C65.2844-4.34444 61.8759-9.33523 56.9101-12.0079C54.7978-13.1682 54.1095-13.9594 54.1095-17.0567L54.1095-50.6206C54.1095-53.5842 52.17-55.6161 49.6462-55.6161C47.1698-55.6161 45.2303-53.5842 45.2303-50.6206L45.2303-17.0567C45.2303-13.9594 44.542-13.1682 42.4297-12.0079C37.4164-9.33523 34.0554-4.34444 34.0554 1.70124C34.0554 10.3972 41.0082 17.3724 49.6462 17.3724ZM81.7176-81.883L95.343-81.883C97.4393-81.883 98.8546-83.4641 98.8546-85.3641C98.8546-87.2391 97.4393-88.8203 95.343-88.8203L81.7176-88.8203C79.5988-88.8203 78.1586-87.2391 78.1586-85.3641C78.1586-83.4641 79.5988-81.883 81.7176-81.883ZM81.7176-64.3483L95.343-64.3483C97.4393-64.3483 98.8546-65.9295 98.8546-67.8295C98.8546-69.7045 97.4393-71.2856 95.343-71.2856L81.7176-71.2856C79.5988-71.2856 78.1586-69.7045 78.1586-67.8295C78.1586-65.9295 79.5988-64.3483 81.7176-64.3483ZM81.7176-46.761L95.343-46.761C97.4393-46.761 98.8546-48.3422 98.8546-50.2422C98.8546-52.1172 97.4393-53.6984 95.343-53.6984L81.7176-53.6984C79.5988-53.6984 78.1586-52.1172 78.1586-50.2422C78.1586-48.3422 79.5988-46.761 81.7176-46.761ZM81.7176-29.1738L95.343-29.1738C97.4393-29.1738 98.8546-30.755 98.8546-32.6549C98.8546-34.53 97.4393-36.1111 95.343-36.1111L81.7176-36.1111C79.5988-36.1111 78.1586-34.53 78.1586-32.6549C78.1586-30.755 79.5988-29.1738 81.7176-29.1738Z"/>
  </g>
  <g id="Regular-L" transform="matrix(1 0 0 1 1401.5 1556)">
   <path d="M48.372 34.4693C66.1772 34.4693 80.6072 20.0115 80.6072 2.26169C80.6072-7.1649 76.7245-15.4128 69.1625-22.0524C67.6545-23.3693 67.358-24.1786 67.358-26.227L67.358-84.5049C67.358-96.7458 59.6278-105.089 48.372-105.089C37.0634-105.089 29.2805-96.7458 29.2805-84.5049L29.2805-26.227C29.2805-24.1786 28.9839-23.3693 27.5287-22.0524C19.9667-15.4128 16.084-7.1649 16.084 2.26169C16.084 20.0115 30.5141 34.4693 48.372 34.4693ZM48.372 26.6421C34.8938 26.6421 23.9916 15.6595 23.9916 2.26169C23.9916-5.62201 27.6054-12.7819 34.4211-17.4565C36.4367-18.8287 37.2158-20.2337 37.2158-22.865L37.2158-84.1884C37.2158-91.9163 41.7874-97.1538 48.372-97.1538C54.9039-97.1538 59.4227-91.9163 59.4227-84.1884L59.4227-22.865C59.4227-20.2337 60.2545-18.8287 62.2701-17.4565C69.033-12.7819 72.6996-5.62201 72.6996 2.26169C72.6996 15.6595 61.7974 26.6421 48.372 26.6421ZM48.3192 18.1452C57.1607 18.1452 64.2279 11.0504 64.2279 2.20893C64.2279-3.94595 60.7622-9.02515 55.7081-11.7394C53.5593-12.9206 52.8606-13.7274 52.8606-16.8714L52.8606-50.5044C52.8606-53.4523 50.9003-55.5206 48.3192-55.5206C45.7909-55.5206 43.8306-53.4523 43.8306-50.5044L43.8306-16.8714C43.8306-13.7274 43.1319-12.9206 40.9832-11.7394C35.8763-9.02515 32.4634-3.94595 32.4634 2.20893C32.4634 11.0504 39.5305 18.1452 48.3192 18.1452ZM78.7772-82.24L92.2197-82.24C94.1596-82.24 95.4914-83.7276 95.4914-85.4815C95.4914-87.2104 94.1596-88.6979 92.2197-88.6979L78.7772-88.6979C76.8096-88.6979 75.4527-87.2104 75.4527-85.4815C75.4527-83.7276 76.8096-82.24 78.7772-82.24ZM78.7772-64.5477L92.2197-64.5477C94.1596-64.5477 95.4914-66.0352 95.4914-67.7892C95.4914-69.518 94.1596-71.0056 92.2197-71.0056L78.7772-71.0056C76.8096-71.0056 75.4527-69.518 75.4527-67.7892C75.4527-66.0352 76.8096-64.5477 78.7772-64.5477ZM78.7772-46.8553L92.2197-46.8553C94.1596-46.8553 95.4914-48.3428 95.4914-50.0968C95.4914-51.8256 94.1596-53.3132 92.2197-53.3132L78.7772-53.3132C76.8096-53.3132 75.4527-51.8256 75.4527-50.0968C75.4527-48.3428 76.8096-46.8553 78.7772-46.8553ZM78.7772-29.1629L92.2197-29.1629C94.1596-29.1629 95.4914-30.6505 95.4914-32.4044C95.4914-34.1332 94.1596-35.6208 92.2197-35.6208L78.7772-35.6208C76.8096-35.6208 75.4527-34.1332 75.4527-32.4044C75.4527-30.6505 76.8096-29.1629 78.7772-29.1629Z"/>
  </g>
  <g id="Light-L" transform="matrix(1 0 0 1 1105.69 1556)">
   <path d="M47.4559 34.2021C64.7839 34.2021 78.7941 20.1451 78.7941 2.91059C78.7941-6.30606 75.0068-14.3632 67.3876-20.8118C65.7269-22.2051 65.3922-23.1289 65.3922-25.4254L65.3922-85.5165C65.3922-96.9367 58.0438-104.822 47.4559-104.822C36.8344-104.822 29.4523-96.9367 29.4523-85.5165L29.4523-25.4254C29.4523-23.1289 29.1175-22.2051 27.4905-20.8118C19.8713-14.3632 16.084-6.30606 16.084 2.91059C16.084 20.1451 30.0942 34.2021 47.4559 34.2021ZM47.4559 28.188C33.5006 28.188 22.1785 16.7855 22.1785 2.91059C22.1785-5.03037 25.6778-12.2475 32.6462-17.1511C34.7763-18.6379 35.5935-20.291 35.5935-23.0177L35.5935-85.3144C35.5935-93.2141 40.4896-98.6806 47.4559-98.6806C54.3886-98.6806 59.2509-93.2141 59.2509-85.3144L59.2509-23.0177C59.2509-20.291 60.1018-18.6379 62.232-17.1511C69.1666-12.2475 72.6996-5.03037 72.6996 2.91059C72.6996 16.7855 61.3775 28.188 47.4559 28.188ZM47.4222 19.7102C56.7599 19.7102 64.2088 12.2146 64.2088 2.87691C64.2088-3.64058 60.5713-9.00607 55.1928-11.873C52.9485-13.0924 52.2117-13.9564 52.2117-17.2722L52.2117-50.6952C52.2117-53.624 50.1751-55.7878 47.4222-55.7878C44.703-55.7878 42.6664-53.624 42.6664-50.6952L42.6664-17.2722C42.6664-13.9564 41.9296-13.0924 39.6854-11.873C34.2731-9.00607 30.6693-3.64058 30.6693 2.87691C30.6693 12.2146 38.1182 19.7102 47.4222 19.7102ZM76.2007-82.3545L89.3187-82.3545C90.8769-82.3545 92.0179-83.5368 92.0179-84.9472C92.0179-86.3706 90.8769-87.5528 89.3187-87.5528L76.2007-87.5528C74.5958-87.5528 73.4678-86.3706 73.4678-84.9472C73.4678-83.5368 74.5958-82.3545 76.2007-82.3545ZM76.2007-64.6622L89.3187-64.6622C90.8769-64.6622 92.0179-65.8444 92.0179-67.2548C92.0179-68.6782 90.8769-69.8604 89.3187-69.8604L76.2007-69.8604C74.5958-69.8604 73.4678-68.6782 73.4678-67.2548C73.4678-65.8444 74.5958-64.6622 76.2007-64.6622ZM76.2007-46.9698L89.3187-46.9698C90.8769-46.9698 92.0179-48.152 92.0179-49.5624C92.0179-50.9859 90.8769-52.1681 89.3187-52.1681L76.2007-52.1681C74.5958-52.1681 73.4678-50.9859 73.4678-49.5624C73.4678-48.152 74.5958-46.9698 76.2007-46.9698ZM76.2007-29.2774L89.3187-29.2774C90.8769-29.2774 92.0179-30.4596 92.0179-31.87C92.0179-33.2935 90.8769-34.4757 89.3187-34.4757L76.2007-34.4757C74.5958-34.4757 73.4678-33.2935 73.4678-31.87C73.4678-30.4596 74.5958-29.2774 76.2007-29.2774Z"/>
  </g>
  <g id="Thin-L" transform="matrix(1 0 0 1 810.182 1556)">
   <path d="M46.2443 33.8487C62.9413 33.8487 76.3962 20.3218 76.3962 3.76881C76.3962-5.17018 72.7351-12.9749 65.0401-19.1711C63.1775-20.6654 62.7923-21.7406 62.7923-24.3652L62.7923-86.8543C62.7923-97.1891 55.9487-104.469 46.2443-104.469C36.5315-104.469 29.6794-97.1891 29.6794-86.8543L29.6794-24.3652C29.6794-21.7406 29.2942-20.6654 27.4401-19.1711C19.7451-12.9749 16.084-5.17018 16.084 3.76881C16.084 20.3218 29.5389 33.8487 46.2443 33.8487ZM46.2443 30.2326C31.6579 30.2326 19.7805 18.2748 19.7805 3.76881C19.7805-4.24787 23.1284-11.5408 30.2987-16.7473C32.5802-18.3855 33.448-20.3667 33.448-23.2196L33.448-86.8037C33.448-94.9306 38.7731-100.7 46.2443-100.7C53.707-100.7 59.0237-94.9306 59.0237-86.8037L59.0237-23.2196C59.0237-20.3667 59.8999-18.3855 62.1815-16.7473C69.3433-11.5408 72.6996-4.24787 72.6996 3.76881C72.6996 18.2748 60.8222 30.2326 46.2443 30.2326ZM46.2359 21.78C56.2298 21.78 64.1835 13.7544 64.1835 3.76037C64.1835-3.23671 60.3189-8.98082 54.5112-12.0497C52.1408-13.3196 51.3535-14.2593 51.3535-17.8023L51.3535-50.9476C51.3535-53.8512 49.2159-56.1412 46.2359-56.1412C43.2643-56.1412 41.1267-53.8512 41.1267-50.9476L41.1267-17.8023C41.1267-14.2593 40.3393-13.3196 37.9689-12.0497C32.1528-8.98082 28.2966-3.23671 28.2966 3.76037C28.2966 13.7544 36.2503 21.78 46.2359 21.78ZM72.793-82.506L85.482-82.506C86.5353-82.506 87.4239-83.2843 87.4239-84.2404C87.4239-85.26 86.5353-86.0383 85.482-86.0383L72.793-86.0383C71.6677-86.0383 70.8427-85.26 70.8427-84.2404C70.8427-83.2843 71.6677-82.506 72.793-82.506ZM72.793-64.8136L85.482-64.8136C86.5353-64.8136 87.4239-65.592 87.4239-66.548C87.4239-67.5676 86.5353-68.3459 85.482-68.3459L72.793-68.3459C71.6677-68.3459 70.8427-67.5676 70.8427-66.548C70.8427-65.592 71.6677-64.8136 72.793-64.8136ZM72.793-47.1212L85.482-47.1212C86.5353-47.1212 87.4239-47.8996 87.4239-48.8556C87.4239-49.8752 86.5353-50.6536 85.482-50.6536L72.793-50.6536C71.6677-50.6536 70.8427-49.8752 70.8427-48.8556C70.8427-47.8996 71.6677-47.1212 72.793-47.1212ZM72.793-29.4289L85.482-29.4289C86.5353-29.4289 87.4239-30.2072 87.4239-31.1632C87.4239-32.1828 86.5353-32.9612 85.482-32.9612L72.793-32.9612C71.6677-32.9612 70.8427-32.1828 70.8427-31.1632C70.8427-30.2072 71.6677-29.4289 72.793-29.4289Z"/>
  </g>
  <g id="Ultralight-L" transform="matrix(1 0 0 1 514.085 1556)">
   <path d="M45.6237 33.6677C61.9975 33.6677 75.1679 20.4123 75.1679 4.20839C75.1679-4.58839 71.5715-12.2638 63.8377-18.3308C61.8717-19.8767 61.4606-21.0295 61.4606-23.8222L61.4606-87.5395C61.4606-97.3184 54.8756-104.288 45.6237-104.288C36.3763-104.288 29.7958-97.3184 29.7958-87.5395L29.7958-23.8222C29.7958-21.0295 29.3847-19.8767 27.4142-18.3308C19.6804-12.2638 16.084-4.58839 16.084 4.20839C16.084 20.4123 29.2544 33.6677 45.6237 33.6677ZM45.6237 31.2798C30.7141 31.2798 18.5523 19.0375 18.5523 4.20839C18.5523-3.84708 21.8226-11.1788 29.0963-16.5404C31.4554-18.2562 32.349-20.4055 32.349-23.3231L32.349-87.5665C32.349-95.8097 37.894-101.734 45.6237-101.734C53.3579-101.734 58.9074-95.8097 58.9074-87.5665L58.9074-23.3231C58.9074-20.4055 59.7965-18.2562 62.1556-16.5404C69.4338-11.1788 72.6996-3.84708 72.6996 4.20839C72.6996 19.0375 60.5378 31.2798 45.6237 31.2798ZM45.6282 22.8402C55.9583 22.8402 64.1706 14.543 64.1706 4.21288C64.1706-3.02985 60.1896-8.9679 54.1621-12.1402C51.7271-13.4359 50.9139-14.4144 50.9139-18.0738L50.9139-51.0769C50.9139-53.9676 48.7246-56.3222 45.6282-56.3222C42.5273-56.3222 40.338-53.9676 40.338-51.0769L40.338-18.0738C40.338-14.4144 39.5248-13.4359 37.0898-12.1402C31.0668-8.9679 27.0813-3.02985 27.0813 4.21288C27.0813 14.543 35.2936 22.8402 45.6282 22.8402ZM71.0477-82.5836L83.5168-82.5836C84.3116-82.5836 85.0708-83.155 85.0708-83.8784C85.0708-84.6911 84.3116-85.2626 83.5168-85.2626L71.0477-85.2626C70.168-85.2626 69.4981-84.6911 69.4981-83.8784C69.4981-83.155 70.168-82.5836 71.0477-82.5836ZM71.0477-64.8912L83.5168-64.8912C84.3116-64.8912 85.0708-65.4627 85.0708-66.186C85.0708-66.9987 84.3116-67.5702 83.5168-67.5702L71.0477-67.5702C70.168-67.5702 69.4981-66.9987 69.4981-66.186C69.4981-65.4627 70.168-64.8912 71.0477-64.8912ZM71.0477-47.1988L83.5168-47.1988C84.3116-47.1988 85.0708-47.7703 85.0708-48.4936C85.0708-49.3064 84.3116-49.8778 83.5168-49.8778L71.0477-49.8778C70.168-49.8778 69.4981-49.3064 69.4981-48.4936C69.4981-47.7703 70.168-47.1988 71.0477-47.1988ZM71.0477-29.5064L83.5168-29.5064C84.3116-29.5064 85.0708-30.0779 85.0708-30.8012C85.0708-31.614 84.3116-32.1855 83.5168-32.1855L71.0477-32.1855C70.168-32.1855 69.4981-31.614 69.4981-30.8012C69.4981-30.0779 70.168-29.5064 71.0477-29.5064Z"/>
  </g>
  <g id="Black-M" transform="matrix(1 0 0 1 2889.06 1126)">
   <path d="M44.3988 23.1839C61.9334 23.1839 76.217 9.41446 76.217-8.17776C76.217-16.5191 73.1003-23.6972 67.3069-29.4579C66.3693-30.3913 66.183-30.831 66.2401-32.0786L66.2401-70.3134C66.2401-84.2704 57.3619-93.6533 44.3988-93.6533C31.2589-93.6533 22.4323-84.2704 22.4323-70.3134L22.4323-32.0786C22.4323-30.831 22.3031-30.3342 21.3711-29.4579C15.4063-23.9256 12.4609-16.5191 12.4609-8.17776C12.4609 9.41446 26.7446 23.1839 44.3988 23.1839ZM44.3988 9.06233C34.5565 9.06233 26.6449 1.08835 26.6449-8.74872C26.6449-15.3053 29.632-20.2163 34.6816-23.5203C36.1129-24.4531 36.6731-25.2023 36.6731-27.1323L36.6731-69.9378C36.6731-75.6725 39.7887-79.4697 44.3988-79.4697C48.8892-79.4697 51.9994-75.6725 51.9994-69.9378L51.9994-27.1323C51.9994-25.2023 52.565-24.4531 53.9963-23.5203C59.0405-20.2163 62.0331-15.3053 62.0331-8.74872C62.0331 1.08835 54.1214 9.06233 44.3988 9.06233ZM44.3362 2.45775C50.5074 2.45775 55.4914-2.52589 55.4914-8.75421C55.4914-13.0531 53.0588-16.6054 49.5123-18.5346C48.0132-19.3492 47.5153-19.9091 47.5153-22.1495L47.5153-47.76C47.5153-50.1227 46.0834-51.5595 44.3362-51.5595C42.5945-51.5595 41.1626-50.1227 41.1626-47.76L41.1626-22.1495C41.1626-19.9091 40.6648-19.3492 39.1657-18.5346C35.6136-16.6054 33.1866-13.0531 33.1866-8.75421C33.1866-2.52589 38.1705 2.45775 44.3362 2.45775ZM76.1243-69.7503L87.4217-69.7503C89.6443-69.7503 91.0645-71.3072 91.0645-73.3423C91.0645-75.3717 89.6443-76.9286 87.4217-76.9286L76.1243-76.9286C73.902-76.9286 72.4761-75.3717 72.4761-73.3423C72.4761-71.3072 73.902-69.7503 76.1243-69.7503ZM76.1243-56.8997L87.4217-56.8997C89.6443-56.8997 91.0645-58.4566 91.0645-60.4917C91.0645-62.5211 89.6443-64.078 87.4217-64.078L76.1243-64.078C73.902-64.078 72.4761-62.5211 72.4761-60.4917C72.4761-58.4566 73.902-56.8997 76.1243-56.8997ZM76.1243-43.7636L87.4217-43.7636C89.6443-43.7636 91.0645-45.3206 91.0645-47.3557C91.0645-49.385 89.6443-50.942 87.4217-50.942L76.1243-50.942C73.902-50.942 72.4761-49.385 72.4761-47.3557C72.4761-45.3206 73.902-43.7636 76.1243-43.7636ZM76.1243-30.6276L87.4217-30.6276C89.6443-30.6276 91.0645-32.1845 91.0645-34.2196C91.0645-36.2489 89.6443-37.8059 87.4217-37.8059L76.1243-37.8059C73.902-37.8059 72.4761-36.2489 72.4761-34.2196C72.4761-32.1845 73.902-30.6276 76.1243-30.6276Z"/>
  </g>
  <g id="Heavy-M" transform="matrix(1 0 0 1 2593.85 1126)">
   <path d="M42.8882 22.178C59.6042 22.178 73.2118 8.96074 73.2118-7.79438C73.2118-15.9189 70.1079-22.9367 64.3067-28.5775C63.3353-29.5212 63.1438-29.9897 63.1875-31.284L63.1875-70.907C63.1875-83.9187 54.9398-92.6743 42.8882-92.6743C30.6893-92.6743 22.4688-83.9187 22.4688-70.907L22.4688-31.284C22.4688-29.9897 22.321-29.4776 21.366-28.5775C15.4339-23.1112 12.4609-15.9189 12.4609-7.79438C12.4609 8.96074 26.0685 22.178 42.8882 22.178ZM42.8882 9.7141C32.9685 9.7141 24.9871 1.67039 24.9871-8.23059C24.9871-14.6736 27.9454-19.727 33.029-23.0751C34.4756-24.0233 35.0409-24.8192 35.0409-26.762L35.0409-70.5468C35.0409-76.318 38.2135-80.1459 42.8882-80.1459C47.4592-80.1459 50.6154-76.318 50.6154-70.5468L50.6154-26.762C50.6154-24.8192 51.1971-24.0233 52.6437-23.0751C57.7109-19.727 60.6856-14.6736 60.6856-8.23059C60.6856 1.67039 52.7042 9.7141 42.8882 9.7141ZM42.8282 3.11207C49.0928 3.11207 54.1413-1.93873 54.1413-8.247C54.1413-12.6079 51.6723-16.2121 48.0823-18.1617C46.5569-18.9949 46.0539-19.5625 46.0539-21.8259L46.0539-47.57C46.0539-49.9166 44.6118-51.3797 42.8282-51.3797C41.0609-51.3797 39.6188-49.9166 39.6188-47.57L39.6188-21.8259C39.6188-19.5625 39.1158-18.9949 37.5904-18.1617C33.984-16.2121 31.5314-12.6079 31.5314-8.247C31.5314-1.93873 36.5799 3.11207 42.8282 3.11207ZM72.9091-70.1833L84.0417-70.1833C86.1458-70.1833 87.5-71.6859 87.5-73.6076C87.5-75.5152 86.1458-77.0177 84.0417-77.0177L72.9091-77.0177C70.8027-77.0177 69.4343-75.5152 69.4343-73.6076C69.4343-71.6859 70.8027-70.1833 72.9091-70.1833ZM72.9091-57.1306L84.0417-57.1306C86.1458-57.1306 87.5-58.6332 87.5-60.5549C87.5-62.4625 86.1458-63.965 84.0417-63.965L72.9091-63.965C70.8027-63.965 69.4343-62.4625 69.4343-60.5549C69.4343-58.6332 70.8027-57.1306 72.9091-57.1306ZM72.9091-43.8598L84.0417-43.8598C86.1458-43.8598 87.5-45.3624 87.5-47.2841C87.5-49.1917 86.1458-50.6942 84.0417-50.6942L72.9091-50.6942C70.8027-50.6942 69.4343-49.1917 69.4343-47.2841C69.4343-45.3624 70.8027-43.8598 72.9091-43.8598ZM72.9091-30.589L84.0417-30.589C86.1458-30.589 87.5-32.0916 87.5-34.0133C87.5-35.9208 86.1458-37.4234 84.0417-37.4234L72.9091-37.4234C70.8027-37.4234 69.4343-35.9208 69.4343-34.0133C69.4343-32.0916 70.8027-30.589 72.9091-30.589Z"/>
  </g>
  <g id="Bold-M" transform="matrix(1 0 0 1 2298.82 1126)">
   <path d="M41.1983 21.0526C56.9988 21.0526 69.85 8.45319 69.85-7.36552C69.85-15.2476 66.7604-22.086 60.9507-27.5927C59.9413-28.5478 59.7441-29.0485 59.7727-30.3951L59.7727-71.5711C59.7727-83.5252 52.2304-91.5791 41.1983-91.5791C30.052-91.5791 22.5096-83.5252 22.5096-71.5711L22.5096-30.3951C22.5096-29.0485 22.341-28.5193 21.3602-27.5927C15.4649-22.2002 12.4609-15.2476 12.4609-7.36552C12.4609 8.45319 25.3122 21.0526 41.1983 21.0526ZM41.1983 10.4432C31.1921 10.4432 23.1327 2.32149 23.1327-7.651C23.1327-13.9669 26.0587-19.1796 31.1803-22.5771C32.6441-23.5425 33.2151-24.3907 33.2151-26.3478L33.2151-71.2281C33.2151-77.0401 36.4513-80.9023 41.1983-80.9023C45.8596-80.9023 49.0672-77.0401 49.0672-71.2281L49.0672-26.3478C49.0672-24.3907 49.6669-23.5425 51.1307-22.5771C56.2236-19.1796 59.1783-13.9669 59.1783-7.651C59.1783 2.32149 51.1189 10.4432 41.1983 10.4432ZM41.1412 3.84403C47.5103 3.84403 52.6311-1.28191 52.6311-7.67962C52.6311-12.1099 50.1213-15.7721 46.4826-17.7446C44.9279-18.5986 44.4192-19.1747 44.4192-21.4639L44.4192-47.3574C44.4192-49.6861 42.9657-51.1785 41.1412-51.1785C39.3453-51.1785 37.8917-49.6861 37.8917-47.3574L37.8917-21.4639C37.8917-19.1747 37.383-18.5986 35.8283-17.7446C32.161-15.7721 29.6798-12.1099 29.6798-7.67962C29.6798-1.28191 34.8006 3.84403 41.1412 3.84403ZM69.3123-70.6678L80.2606-70.6678C82.2322-70.6678 83.5126-72.1095 83.5126-73.9044C83.5126-75.6757 82.2322-77.1174 80.2606-77.1174L69.3123-77.1174C67.3356-77.1174 66.0318-75.6757 66.0318-73.9044C66.0318-72.1095 67.3356-70.6678 69.3123-70.6678ZM69.3123-57.389L80.2606-57.389C82.2322-57.389 83.5126-58.8307 83.5126-60.6256C83.5126-62.3969 82.2322-63.8386 80.2606-63.8386L69.3123-63.8386C67.3356-63.8386 66.0318-62.3969 66.0318-60.6256C66.0318-58.8307 67.3356-57.389 69.3123-57.389ZM69.3123-43.9674L80.2606-43.9674C82.2322-43.9674 83.5126-45.4091 83.5126-47.204C83.5126-48.9754 82.2322-50.4171 80.2606-50.4171L69.3123-50.4171C67.3356-50.4171 66.0318-48.9754 66.0318-47.204C66.0318-45.4091 67.3356-43.9674 69.3123-43.9674ZM69.3123-30.5459L80.2606-30.5459C82.2322-30.5459 83.5126-31.9876 83.5126-33.7825C83.5126-35.5538 82.2322-36.9955 80.2606-36.9955L69.3123-36.9955C67.3356-36.9955 66.0318-35.5538 66.0318-33.7825C66.0318-31.9876 67.3356-30.5459 69.3123-30.5459Z"/>
  </g>
  <g id="Semibold-M" transform="matrix(1 0 0 1 2003.27 1126)">
   <path d="M40.0334 20.2768C55.2026 20.2768 67.5324 8.10329 67.5324-7.06986C67.5324-14.7848 64.4527-21.4996 58.6371-26.9138C57.6015-27.8768 57.4004-28.3997 57.4185-29.7823L57.4185-72.0289C57.4185-83.254 50.3625-90.8241 40.0334-90.8241C29.6127-90.8241 22.5378-83.254 22.5378-72.0289L22.5378-29.7823C22.5378-28.3997 22.3548-27.8586 21.3563-26.9138C15.4862-21.5722 12.4609-14.7848 12.4609-7.06986C12.4609 8.10329 24.7908 20.2768 40.0334 20.2768ZM40.0334 10.9458C29.9674 10.9458 21.8542 2.77036 21.8542-7.25143C21.8542-13.4797 24.7581-18.8023 29.9058-22.2338C31.3814-23.211 31.9564-24.0952 31.9564-26.0622L31.9564-71.6977C31.9564-77.5378 35.2365-81.4237 40.0334-81.4237C44.7568-81.4237 47.9999-77.5378 47.9999-71.6977L47.9999-26.0622C47.9999-24.0952 48.6119-23.211 50.0876-22.2338C55.1982-18.8023 58.1391-13.4797 58.1391-7.25143C58.1391 2.77036 50.0259 10.9458 40.0334 10.9458ZM39.9782 4.34864C46.4194 4.34864 51.59-0.829102 51.59-7.28847C51.59-11.7667 49.052-15.4688 45.3799-17.457C43.8049-18.3254 43.2922-18.9074 43.2922-21.2143L43.2922-47.2109C43.2922-49.5272 41.8308-51.0399 39.9782-51.0399C38.1626-51.0399 36.7011-49.5272 36.7011-47.2109L36.7011-21.2143C36.7011-18.9074 36.1885-18.3254 34.6135-17.457C30.9043-15.4688 28.4033-11.7667 28.4033-7.28847C28.4033-0.829102 33.574 4.34864 39.9782 4.34864ZM66.8327-71.0018L77.654-71.0018C79.5341-71.0018 80.7636-72.4015 80.7636-74.1089C80.7636-75.7864 79.5341-77.1862 77.654-77.1862L66.8327-77.1862C64.9455-77.1862 63.686-75.7864 63.686-74.1089C63.686-72.4015 64.9455-71.0018 66.8327-71.0018ZM66.8327-57.5671L77.654-57.5671C79.5341-57.5671 80.7636-58.9668 80.7636-60.6743C80.7636-62.3517 79.5341-63.7515 77.654-63.7515L66.8327-63.7515C64.9455-63.7515 63.686-62.3517 63.686-60.6743C63.686-58.9668 64.9455-57.5671 66.8327-57.5671ZM66.8327-44.0416L77.654-44.0416C79.5341-44.0416 80.7636-45.4414 80.7636-47.1488C80.7636-48.8263 79.5341-50.226 77.654-50.226L66.8327-50.226C64.9455-50.226 63.686-48.8263 63.686-47.1488C63.686-45.4414 64.9455-44.0416 66.8327-44.0416ZM66.8327-30.5161L77.654-30.5161C79.5341-30.5161 80.7636-31.9159 80.7636-33.6233C80.7636-35.3008 79.5341-36.7006 77.654-36.7006L66.8327-36.7006C64.9455-36.7006 63.686-35.3008 63.686-33.6233C63.686-31.9159 64.9455-30.5161 66.8327-30.5161Z"/>
  </g>
  <g id="Medium-M" transform="matrix(1 0 0 1 1707.44 1126)">
   <path d="M39.15 19.6886C53.8406 19.6886 65.7751 7.83798 65.7751-6.84568C65.7751-14.4338 62.7029-21.0549 56.8828-26.399C55.8273-27.368 55.6232-27.9078 55.6335-29.3177L55.6335-72.376C55.6335-83.0483 48.9462-90.2516 39.15-90.2516C29.2796-90.2516 22.5591-83.0483 22.5591-72.376L22.5591-29.3177C22.5591-27.9078 22.3653-27.3577 21.3533-26.399C15.5023-21.096 12.4609-14.4338 12.4609-6.84568C12.4609 7.83798 24.3955 19.6886 39.15 19.6886ZM39.15 11.327C29.0388 11.327 20.8849 3.11071 20.8849-6.94846C20.8849-13.1103 23.7719-18.5162 28.9394-21.9735C30.424-22.9597 31.002-23.8712 31.002-25.8457L31.002-72.0538C31.002-77.9153 34.3154-81.8191 39.15-81.8191C43.9206-81.8191 47.1907-77.9153 47.1907-72.0538L47.1907-25.8457C47.1907-23.8712 47.8121-22.9597 49.2967-21.9735C54.4208-18.5162 57.3512-13.1103 57.3512-6.94846C57.3512 3.11071 49.1972 11.327 39.15 11.327ZM39.0963 4.73126C45.5922 4.73126 50.8006-0.485763 50.8006-6.99188C50.8006-11.5064 48.2413-15.2388 44.5437-17.239C42.9533-18.1182 42.4377-18.7047 42.4377-21.0251L42.4377-47.0998C42.4377-49.4067 40.9703-50.9348 39.0963-50.9348C37.2658-50.9348 35.7984-49.4067 35.7984-47.0998L35.7984-21.0251C35.7984-18.7047 35.2827-18.1182 33.6924-17.239C29.9514-15.2388 27.4355-11.5064 27.4355-6.99188C27.4355-0.485763 32.6439 4.73126 39.0963 4.73126ZM64.9526-71.255L75.6776-71.255C77.4884-71.255 78.6793-72.623 78.6793-74.2641C78.6793-75.8703 77.4884-77.2383 75.6776-77.2383L64.9526-77.2383C63.1331-77.2383 61.9074-75.8703 61.9074-74.2641C61.9074-72.623 63.1331-71.255 64.9526-71.255ZM64.9526-57.7021L75.6776-57.7021C77.4884-57.7021 78.6793-59.0701 78.6793-60.7112C78.6793-62.3175 77.4884-63.6854 75.6776-63.6854L64.9526-63.6854C63.1331-63.6854 61.9074-62.3175 61.9074-60.7112C61.9074-59.0701 63.1331-57.7021 64.9526-57.7021ZM64.9526-44.0979L75.6776-44.0979C77.4884-44.0979 78.6793-45.4658 78.6793-47.1069C78.6793-48.7132 77.4884-50.0812 75.6776-50.0812L64.9526-50.0812C63.1331-50.0812 61.9074-48.7132 61.9074-47.1069C61.9074-45.4658 63.1331-44.0979 64.9526-44.0979ZM64.9526-30.4936L75.6776-30.4936C77.4884-30.4936 78.6793-31.8616 78.6793-33.5027C78.6793-35.1089 77.4884-36.4769 75.6776-36.4769L64.9526-36.4769C63.1331-36.4769 61.9074-35.1089 61.9074-33.5027C61.9074-31.8616 63.1331-30.4936 64.9526-30.4936Z"/>
  </g>
  <g id="Regular-M" transform="matrix(1 0 0 1 1411.87 1126)">
   <path d="M37.9978 18.9213C52.0641 18.9213 63.483 7.49192 63.483-6.55328C63.483-13.9761 60.4205-20.4749 54.5945-25.7276C53.5133-26.7043 53.3052-27.2661 53.3052-28.7116L53.3052-72.8288C53.3052-82.78 47.0989-89.5049 37.9978-89.5049C28.8451-89.5049 22.587-82.78 22.587-72.8288L22.587-28.7116C22.587-27.2661 22.3789-26.7043 21.3494-25.7276C15.5234-20.4749 12.4609-13.9761 12.4609-6.55328C12.4609 7.49192 23.8798 18.9213 37.9978 18.9213ZM37.9978 11.8241C27.8276 11.8241 19.6205 3.55464 19.6205-6.55328C19.6205-12.6285 22.4855-18.1429 27.6789-21.634C29.1752-22.6319 29.7571-23.579 29.7571-25.5632L29.7571-72.5183C29.7571-78.4076 33.114-82.3348 37.9978-82.3348C42.83-82.3348 46.1351-78.4076 46.1351-72.5183L46.1351-25.5632C46.1351-23.579 46.7687-22.6319 48.265-21.634C53.4067-18.1429 56.3234-12.6285 56.3234-6.55328C56.3234 3.55464 48.1163 11.8241 37.9978 11.8241ZM37.9461 5.23032C44.5132 5.23032 49.7709-0.0379297 49.7709-6.60503C49.7709-11.1668 47.1837-14.9388 43.453-16.9546C41.8426-17.848 41.3231-18.4404 41.3231-20.7783L41.3231-46.9548C41.3231-49.2495 39.8479-50.7976 37.9461-50.7976C36.0961-50.7976 34.6208-49.2495 34.6208-46.9548L34.6208-20.7783C34.6208-18.4404 34.1013-17.848 32.4909-16.9546C28.7084-14.9388 26.173-11.1668 26.173-6.60503C26.173-0.0379297 31.4307 5.23032 37.9461 5.23032ZM62.5002-71.5853L73.0996-71.5853C74.82-71.5853 75.9606-72.9118 75.9606-74.4664C75.9606-75.9798 74.82-77.3063 73.0996-77.3063L62.5002-77.3063C60.7692-77.3063 59.5875-75.9798 59.5875-74.4664C59.5875-72.9118 60.7692-71.5853 62.5002-71.5853ZM62.5002-57.8782L73.0996-57.8782C74.82-57.8782 75.9606-59.2047 75.9606-60.7594C75.9606-62.2728 74.82-63.5993 73.0996-63.5993L62.5002-63.5993C60.7692-63.5993 59.5875-62.2728 59.5875-60.7594C59.5875-59.2047 60.7692-57.8782 62.5002-57.8782ZM62.5002-44.1712L73.0996-44.1712C74.82-44.1712 75.9606-45.4977 75.9606-47.0523C75.9606-48.5657 74.82-49.8922 73.0996-49.8922L62.5002-49.8922C60.7692-49.8922 59.5875-48.5657 59.5875-47.0523C59.5875-45.4977 60.7692-44.1712 62.5002-44.1712ZM62.5002-30.4642L73.0996-30.4642C74.82-30.4642 75.9606-31.7907 75.9606-33.3453C75.9606-34.8587 74.82-36.1852 73.0996-36.1852L62.5002-36.1852C60.7692-36.1852 59.5875-34.8587 59.5875-33.3453C59.5875-31.7907 60.7692-30.4642 62.5002-30.4642Z"/>
  </g>
  <g id="Light-M" transform="matrix(1 0 0 1 1115.97 1126)">
   <path d="M37.1765 18.6818C50.8151 18.6818 61.8575 7.6117 61.8575-5.9715C61.8575-13.2061 58.8805-19.5338 53.0032-24.6154C51.785-25.6606 51.5428-26.325 51.5428-27.993L51.5428-73.7357C51.5428-82.9511 45.6787-89.2654 37.1765-89.2654C28.6397-89.2654 22.7409-82.9511 22.7409-73.7357L22.7409-27.993C22.7409-26.325 22.4987-25.6606 21.3152-24.6154C15.4379-19.5338 12.4609-13.2061 12.4609-5.9715C12.4609 7.6117 23.5034 18.6818 37.1765 18.6818ZM37.1765 13.2101C26.5785 13.2101 17.995 4.56419 17.995-5.9715C17.995-12.098 20.7573-17.6638 26.0876-21.3602C27.6866-22.4608 28.3026-23.6303 28.3026-25.7001L28.3026-73.5279C28.3026-79.5712 31.9504-83.7037 37.1765-83.7037C42.368-83.7037 45.9811-79.5712 45.9811-73.5279L45.9811-25.7001C45.9811-23.6303 46.6318-22.4608 48.2308-21.3602C53.5264-17.6638 56.3234-12.098 56.3234-5.9715C56.3234 4.56419 47.7399 13.2101 37.1765 13.2101ZM37.1419 6.63342C44.1539 6.63342 49.7538 1.00584 49.7538-6.00615C49.7538-10.8931 47.0126-14.9217 42.991-17.0744C41.2951-18.002 40.7413-18.6457 40.7413-21.1376L40.7413-47.1259C40.7413-49.4035 39.1977-51.0372 37.1419-51.0372C35.1207-51.0372 33.5771-49.4035 33.5771-47.1259L33.5771-21.1376C33.5771-18.6457 33.0233-18.002 31.3274-17.0744C27.2711-14.9217 24.5646-10.8931 24.5646-6.00615C24.5646 1.00584 30.1645 6.63342 37.1419 6.63342ZM60.1902-71.6879L70.4987-71.6879C71.8769-71.6879 72.8464-72.7407 72.8464-73.9873C72.8464-75.2269 71.8769-76.2796 70.4987-76.2796L60.1902-76.2796C58.7844-76.2796 57.8079-75.2269 57.8079-73.9873C57.8079-72.7407 58.7844-71.6879 60.1902-71.6879ZM60.1902-57.9809L70.4987-57.9809C71.8769-57.9809 72.8464-59.0336 72.8464-60.2802C72.8464-61.5199 71.8769-62.5726 70.4987-62.5726L60.1902-62.5726C58.7844-62.5726 57.8079-61.5199 57.8079-60.2802C57.8079-59.0336 58.7844-57.9809 60.1902-57.9809ZM60.1902-44.2739L70.4987-44.2739C71.8769-44.2739 72.8464-45.3266 72.8464-46.5732C72.8464-47.8129 71.8769-48.8656 70.4987-48.8656L60.1902-48.8656C58.7844-48.8656 57.8079-47.8129 57.8079-46.5732C57.8079-45.3266 58.7844-44.2739 60.1902-44.2739ZM60.1902-30.5669L70.4987-30.5669C71.8769-30.5669 72.8464-31.6196 72.8464-32.8662C72.8464-34.1058 71.8769-35.1585 70.4987-35.1585L60.1902-35.1585C58.7844-35.1585 57.8079-34.1058 57.8079-32.8662C57.8079-31.6196 58.7844-30.5669 60.1902-30.5669Z"/>
  </g>
  <g id="Thin-M" transform="matrix(1 0 0 1 820.338 1126)">
   <path d="M36.0903 18.3649C49.163 18.3649 59.7076 7.77011 59.7076-5.20206C59.7076-12.1877 56.8438-18.2891 50.8986-23.1444C49.4994-24.2801 49.2119-25.0803 49.2119-27.0425L49.2119-74.9351C49.2119-83.1774 43.8003-88.9485 36.0903-88.9485C28.3682-88.9485 22.9446-83.1774 22.9446-74.9351L22.9446-27.0425C22.9446-25.0803 22.6571-24.2801 21.2699-23.1444C15.3247-18.2891 12.4609-12.1877 12.4609-5.20206C12.4609 7.77011 23.0055 18.3649 36.0903 18.3649ZM36.0903 15.0431C24.9265 15.0431 15.8451 5.89939 15.8451-5.20206C15.8451-11.3965 18.4716-17.0302 23.9829-20.9982C25.7177-22.2345 26.379-23.6982 26.379-25.8811L26.379-74.8631C26.379-81.11 30.4116-85.5141 36.0903-85.5141C41.7569-85.5141 45.7774-81.11 45.7774-74.8631L45.7774-25.8811C45.7774-23.6982 46.4508-22.2345 48.1855-20.9982C53.6849-17.0302 56.3234-11.3965 56.3234-5.20206C56.3234 5.89939 47.242 15.0431 36.0903 15.0431ZM36.0782 8.48913C43.6786 8.48913 49.7312 2.3863 49.7312-5.21408C49.7312-10.531 46.7863-14.899 42.38-17.2328C40.5709-18.2057 39.9719-18.9173 39.9719-21.6129L39.9719-47.3522C39.9719-49.6072 38.3377-51.354 36.0782-51.354C33.8308-51.354 32.1966-49.6072 32.1966-47.3522L32.1966-21.6129C32.1966-18.9173 31.5976-18.2057 29.7885-17.2328C25.3702-14.899 22.4373-10.531 22.4373-5.21408C22.4373 2.3863 28.4899 8.48913 36.0782 8.48913ZM57.1351-71.8237L67.0588-71.8237C67.9844-71.8237 68.7276-72.5144 68.7276-73.3536C68.7276-74.2312 67.9844-74.9218 67.0588-74.9218L57.1351-74.9218C56.1592-74.9218 55.4543-74.2312 55.4543-73.3536C55.4543-72.5144 56.1592-71.8237 57.1351-71.8237ZM57.1351-58.1167L67.0588-58.1167C67.9844-58.1167 68.7276-58.8073 68.7276-59.6466C68.7276-60.5241 67.9844-61.2148 67.0588-61.2148L57.1351-61.2148C56.1592-61.2148 55.4543-60.5241 55.4543-59.6466C55.4543-58.8073 56.1592-58.1167 57.1351-58.1167ZM57.1351-44.4097L67.0588-44.4097C67.9844-44.4097 68.7276-45.1003 68.7276-45.9396C68.7276-46.8171 67.9844-47.5077 67.0588-47.5077L57.1351-47.5077C56.1592-47.5077 55.4543-46.8171 55.4543-45.9396C55.4543-45.1003 56.1592-44.4097 57.1351-44.4097ZM57.1351-30.7026L67.0588-30.7026C67.9844-30.7026 68.7276-31.3933 68.7276-32.2325C68.7276-33.1101 67.9844-33.8007 67.0588-33.8007L57.1351-33.8007C56.1592-33.8007 55.4543-33.1101 55.4543-32.2325C55.4543-31.3933 56.1592-30.7026 57.1351-30.7026Z"/>
  </g>
  <g id="Ultralight-M" transform="matrix(1 0 0 1 524.177 1126)">
   <path d="M35.5339 18.2027C48.3169 18.2027 58.6064 7.85125 58.6064-4.80796C58.6064-11.6661 55.8006-17.6516 49.8206-22.3909C48.3286-23.573 48.018-24.4428 48.018-26.5557L48.018-75.5495C48.018-83.2934 42.8382-88.7863 35.5339-88.7863C28.2291-88.7863 23.0489-83.2934 23.0489-75.5495L23.0489-26.5557C23.0489-24.4428 22.7383-23.573 21.2467-22.3909C15.2668-17.6516 12.4609-11.6661 12.4609-4.80796C12.4609 7.85125 22.7505 18.2027 35.5339 18.2027ZM35.5339 15.982C24.0803 15.982 14.7439 6.58328 14.7439-4.80796C14.7439-11.0372 17.3009-16.7056 22.905-20.8127C24.7093-22.1186 25.3938-23.733 25.3938-25.9739L25.3938-75.5469C25.3938-81.8982 29.6233-86.4414 35.5339-86.4414C41.444-86.4414 45.6731-81.8982 45.6731-75.5469L45.6731-25.9739C45.6731-23.733 46.3581-22.1186 48.1624-20.8127C53.766-16.7056 56.3234-11.0372 56.3234-4.80796C56.3234 6.58328 46.987 15.982 35.5339 15.982ZM35.5335 9.43961C43.4352 9.43961 49.7196 3.09337 49.7196-4.80838C49.7196-10.3455 46.6704-14.8874 42.067-17.3139C40.2-18.31 39.5778-19.0564 39.5778-21.8563L39.5778-47.4682C39.5778-49.7115 37.8972-51.5163 35.5335-51.5163C33.1701-51.5163 31.4895-49.7115 31.4895-47.4682L31.4895-21.8563C31.4895-19.0564 30.8673-18.31 29.0003-17.3139C24.3965-14.8874 21.3478-10.3455 21.3478-4.80838C21.3478 3.09337 27.6321 9.43961 35.5335 9.43961ZM55.5703-71.8933L65.297-71.8933C65.9907-71.8933 66.618-72.3984 66.618-73.0291C66.618-73.7212 65.9907-74.2263 65.297-74.2263L55.5703-74.2263C54.8146-74.2263 54.2488-73.7212 54.2488-73.0291C54.2488-72.3984 54.8146-71.8933 55.5703-71.8933ZM55.5703-58.1862L65.297-58.1862C65.9907-58.1862 66.618-58.6914 66.618-59.322C66.618-60.0141 65.9907-60.5193 65.297-60.5193L55.5703-60.5193C54.8146-60.5193 54.2488-60.0141 54.2488-59.322C54.2488-58.6914 54.8146-58.1862 55.5703-58.1862ZM55.5703-44.4792L65.297-44.4792C65.9907-44.4792 66.618-44.9844 66.618-45.615C66.618-46.3071 65.9907-46.8123 65.297-46.8123L55.5703-46.8123C54.8146-46.8123 54.2488-46.3071 54.2488-45.615C54.2488-44.9844 54.8146-44.4792 55.5703-44.4792ZM55.5703-30.7722L65.297-30.7722C65.9907-30.7722 66.618-31.2774 66.618-31.908C66.618-32.6001 65.9907-33.1052 65.297-33.1052L55.5703-33.1052C54.8146-33.1052 54.2488-32.6001 54.2488-31.908C54.2488-31.2774 54.8146-30.7722 55.5703-30.7722Z"/>
  </g>
  <g id="Black-S" transform="matrix(1 0 0 1 2898.24 696)">
   <path d="M35.2051 10.8398C49.1699 10.8398 60.5469-0.0976562 60.5469-14.1113C60.5469-20.7031 58.1055-26.3672 53.5645-30.9082C52.832-31.6406 52.6855-31.9824 52.7344-32.959L52.7344-62.5977C52.7344-73.7793 45.6055-81.2988 35.2051-81.2988C24.6582-81.2988 17.5781-73.7793 17.5781-62.5977L17.5781-32.959C17.5781-31.9824 17.4805-31.5918 16.748-30.9082C12.0605-26.5625 9.76562-20.7031 9.76562-14.1113C9.76562-0.0976562 21.1426 10.8398 35.2051 10.8398ZM35.2051-0.634766C27.4902-0.634766 21.2891-6.88477 21.2891-14.5996C21.2891-19.7754 23.6328-23.584 27.5879-26.1719C28.7109-26.9043 29.1504-27.4902 29.1504-29.0039L29.1504-62.3047C29.1504-66.7969 31.5918-69.7754 35.2051-69.7754C38.7207-69.7754 41.1621-66.7969 41.1621-62.3047L41.1621-29.0039C41.1621-27.4902 41.6016-26.9043 42.7246-26.1719C46.6797-23.584 49.0234-19.7754 49.0234-14.5996C49.0234-6.88477 42.8223-0.634766 35.2051-0.634766ZM35.1562-5.81055C39.9902-5.81055 43.8965-9.7168 43.8965-14.5996C43.8965-17.9688 41.9922-20.752 39.209-22.2656C38.0371-22.9004 37.6465-23.3398 37.6465-25.0977L37.6465-45.1172C37.6465-46.9727 36.5234-48.0957 35.1562-48.0957C33.7891-48.0957 32.666-46.9727 32.666-45.1172L32.666-25.0977C32.666-23.3398 32.2754-22.9004 31.1035-22.2656C28.3203-20.752 26.416-17.9688 26.416-14.5996C26.416-9.7168 30.3223-5.81055 35.1562-5.81055ZM60.498-62.1582L69.3848-62.1582C71.1426-62.1582 72.2656-63.3789 72.2656-64.9902C72.2656-66.6016 71.1426-67.8223 69.3848-67.8223L60.498-67.8223C58.7402-67.8223 57.6172-66.6016 57.6172-64.9902C57.6172-63.3789 58.7402-62.1582 60.498-62.1582ZM60.498-52.1484L69.3848-52.1484C71.1426-52.1484 72.2656-53.3691 72.2656-54.9805C72.2656-56.5918 71.1426-57.8125 69.3848-57.8125L60.498-57.8125C58.7402-57.8125 57.6172-56.5918 57.6172-54.9805C57.6172-53.3691 58.7402-52.1484 60.498-52.1484ZM60.498-41.8945L69.3848-41.8945C71.1426-41.8945 72.2656-43.1152 72.2656-44.7266C72.2656-46.3379 71.1426-47.5586 69.3848-47.5586L60.498-47.5586C58.7402-47.5586 57.6172-46.3379 57.6172-44.7266C57.6172-43.1152 58.7402-41.8945 60.498-41.8945ZM60.498-31.6406L69.3848-31.6406C71.1426-31.6406 72.2656-32.8613 72.2656-34.4727C72.2656-36.084 71.1426-37.3047 69.3848-37.3047L60.498-37.3047C58.7402-37.3047 57.6172-36.084 57.6172-34.4727C57.6172-32.8613 58.7402-31.6406 60.498-31.6406Z"/>
  </g>
  <g id="Heavy-S" transform="matrix(1 0 0 1 2602.71 696)">
   <path d="M34.0181 10.0101C47.3375 10.0101 58.1844-0.501013 58.1844-13.8578C58.1844-20.2882 55.743-25.8371 51.2019-30.2974C50.458-31.0298 50.3115-31.3831 50.3488-32.3712L50.3488-62.9895C50.3488-73.4566 43.7155-80.4921 34.0181-80.4921C24.1972-80.4921 17.5896-73.4566 17.5896-62.9895L17.5896-32.3712C17.5896-31.3831 17.4805-30.9925 16.748-30.2974C12.0951-25.9863 9.76562-20.2882 9.76562-13.8578C9.76562-0.501013 20.6125 10.0101 34.0181 10.0101ZM34.0181-0.254458C26.2917-0.254458 20.079-6.51598 20.079-14.2308C20.079-19.3029 22.4112-23.2267 26.3778-25.8261C27.5009-26.5586 27.9403-27.156 27.9403-28.6697L27.9403-62.6965C27.9403-67.2002 30.3933-70.1787 34.0181-70.1787C37.5567-70.1787 39.9981-67.2002 39.9981-62.6965L39.9981-28.6697C39.9981-27.156 40.4491-26.5586 41.5722-25.8261C45.5272-23.2267 47.871-19.3029 47.871-14.2308C47.871-6.51598 41.6583-0.254458 34.0181-0.254458ZM33.9692-5.43024C38.8263-5.43024 42.744-9.34801 42.744-14.2424C42.744-17.623 40.8282-20.4177 38.045-21.9314C36.8616-22.5777 36.471-23.0172 36.471-24.775L36.471-44.9328C36.471-46.7767 35.3479-47.9113 33.9692-47.9113C32.602-47.9113 31.479-46.7767 31.479-44.9328L31.479-24.775C31.479-23.0172 31.0884-22.5777 29.905-21.9314C27.1102-20.4177 25.2059-17.623 25.2059-14.2424C25.2059-9.34801 29.1237-5.43024 33.9692-5.43024ZM58.0433-62.5155L66.8263-62.5155C68.5265-62.5155 69.615-63.7246 69.615-65.2783C69.615-66.8205 68.5265-68.0297 66.8263-68.0297L58.0433-68.0297C56.3431-68.0297 55.2431-66.8205 55.2431-65.2783C55.2431-63.7246 56.3431-62.5155 58.0433-62.5155ZM58.0433-52.3328L66.8263-52.3328C68.5265-52.3328 69.615-53.542 69.615-55.0957C69.615-56.6379 68.5265-57.8471 66.8263-57.8471L58.0433-57.8471C56.3431-57.8471 55.2431-56.6379 55.2431-55.0957C55.2431-53.542 56.3431-52.3328 58.0433-52.3328ZM58.0433-41.9637L66.8263-41.9637C68.5265-41.9637 69.615-43.1729 69.615-44.7266C69.615-46.2687 68.5265-47.4779 66.8263-47.4779L58.0433-47.4779C56.3431-47.4779 55.2431-46.2687 55.2431-44.7266C55.2431-43.1729 56.3431-41.9637 58.0433-41.9637ZM58.0433-31.5945L66.8263-31.5945C68.5265-31.5945 69.615-32.8037 69.615-34.3574C69.615-35.8996 68.5265-37.1088 66.8263-37.1088L58.0433-37.1088C56.3431-37.1088 55.2431-35.8996 55.2431-34.3574C55.2431-32.8037 56.3431-31.5945 58.0433-31.5945Z"/>
  </g>
  <g id="Bold-S" transform="matrix(1 0 0 1 2307.32 696)">
   <path d="M32.6904 9.08203C45.2881 9.08203 55.542-0.952148 55.542-13.5742C55.542-19.8242 53.1006-25.2441 48.5596-29.6143C47.8027-30.3467 47.6562-30.7129 47.6807-31.7139L47.6807-63.4277C47.6807-73.0957 41.6016-79.5898 32.6904-79.5898C23.6816-79.5898 17.6025-73.0957 17.6025-63.4277L17.6025-31.7139C17.6025-30.7129 17.4805-30.3223 16.748-29.6143C12.1338-25.3418 9.76562-19.8242 9.76562-13.5742C9.76562-0.952148 20.0195 9.08203 32.6904 9.08203ZM32.6904 0.170898C24.9512 0.170898 18.7256-6.10352 18.7256-13.8184C18.7256-18.7744 21.0449-22.8271 25.0244-25.4395C26.1475-26.1719 26.5869-26.7822 26.5869-28.2959L26.5869-63.1348C26.5869-67.6514 29.0527-70.6299 32.6904-70.6299C36.2549-70.6299 38.6963-67.6514 38.6963-63.1348L38.6963-28.2959C38.6963-26.7822 39.1602-26.1719 40.2832-25.4395C44.2383-22.8271 46.582-18.7744 46.582-13.8184C46.582-6.10352 40.3564 0.170898 32.6904 0.170898ZM32.6416-5.00488C37.5244-5.00488 41.4551-8.93555 41.4551-13.8428C41.4551-17.2363 39.5264-20.0439 36.7432-21.5576C35.5469-22.2168 35.1562-22.6562 35.1562-24.4141L35.1562-44.7266C35.1562-46.5576 34.0332-47.7051 32.6416-47.7051C31.2744-47.7051 30.1514-46.5576 30.1514-44.7266L30.1514-24.4141C30.1514-22.6562 29.7607-22.2168 28.5645-21.5576C25.7568-20.0439 23.8525-17.2363 23.8525-13.8428C23.8525-8.93555 27.7832-5.00488 32.6416-5.00488ZM55.2979-62.915L63.9648-62.915C65.6006-62.915 66.6504-64.1113 66.6504-65.6006C66.6504-67.0654 65.6006-68.2617 63.9648-68.2617L55.2979-68.2617C53.6621-68.2617 52.5879-67.0654 52.5879-65.6006C52.5879-64.1113 53.6621-62.915 55.2979-62.915ZM55.2979-52.5391L63.9648-52.5391C65.6006-52.5391 66.6504-53.7354 66.6504-55.2246C66.6504-56.6895 65.6006-57.8857 63.9648-57.8857L55.2979-57.8857C53.6621-57.8857 52.5879-56.6895 52.5879-55.2246C52.5879-53.7354 53.6621-52.5391 55.2979-52.5391ZM55.2979-42.041L63.9648-42.041C65.6006-42.041 66.6504-43.2373 66.6504-44.7266C66.6504-46.1914 65.6006-47.3877 63.9648-47.3877L55.2979-47.3877C53.6621-47.3877 52.5879-46.1914 52.5879-44.7266C52.5879-43.2373 53.6621-42.041 55.2979-42.041ZM55.2979-31.543L63.9648-31.543C65.6006-31.543 66.6504-32.7393 66.6504-34.2285C66.6504-35.6934 65.6006-36.8896 63.9648-36.8896L55.2979-36.8896C53.6621-36.8896 52.5879-35.6934 52.5879-34.2285C52.5879-32.7393 53.6621-31.543 55.2979-31.543Z"/>
  </g>
  <g id="Semibold-S" transform="matrix(1 0 0 1 2011.52 696)">
   <path d="M31.7751 8.44219C43.8751 8.44219 53.7202-1.26318 53.7202-13.3787C53.7202-19.5043 51.2788-24.8354 46.7378-29.1433C45.9721-29.8757 45.8256-30.2508 45.8411-31.2606L45.8411-63.7299C45.8411-72.8469 40.1441-78.9678 31.7751-78.9678C23.3262-78.9678 17.6114-72.8469 17.6114-63.7299L17.6114-31.2606C17.6114-30.2508 17.4805-29.8602 16.748-29.1433C12.1604-24.8975 9.76562-19.5043 9.76562-13.3787C9.76562-1.26318 19.6107 8.44219 31.7751 8.44219ZM31.7751 0.46416C24.027 0.46416 17.7925-5.81914 17.7925-13.534C17.7925-18.4101 20.1029-22.5517 24.0913-25.1729C25.2144-25.9053 25.6538-26.5245 25.6538-28.0382L25.6538-63.4369C25.6538-67.9624 28.1285-70.9409 31.7751-70.9409C35.3573-70.9409 37.7987-67.9624 37.7987-63.4369L37.7987-28.0382C37.7987-26.5245 38.2715-25.9053 39.3945-25.1729C43.3496-22.5517 45.6934-18.4101 45.6934-13.534C45.6934-5.81914 39.4589 0.46416 31.7751 0.46416ZM31.7263-4.71162C36.6269-4.71162 40.5664-8.65117 40.5664-13.5673C40.5664-16.9697 38.6288-19.7862 35.8456-21.2999C34.6404-21.968 34.2498-22.4074 34.2498-24.1652L34.2498-44.5844C34.2498-46.4065 33.1268-47.5629 31.7263-47.5629C30.3591-47.5629 29.236-46.4065 29.236-44.5844L29.236-24.1652C29.236-22.4074 28.8454-21.968 27.6402-21.2999C24.8237-19.7862 22.9194-16.9697 22.9194-13.5673C22.9194-8.65117 26.859-4.71162 31.7263-4.71162ZM53.405-63.1905L61.992-63.1905C63.5833-63.1905 64.6064-64.3779 64.6064-65.8228C64.6064-67.2343 63.5833-68.4217 61.992-68.4217L53.405-68.4217C51.8137-68.4217 50.7572-67.2343 50.7572-65.8228C50.7572-64.3779 51.8137-63.1905 53.405-63.1905ZM53.405-52.6812L61.992-52.6812C63.5833-52.6812 64.6064-53.8687 64.6064-55.3135C64.6064-56.725 63.5833-57.9124 61.992-57.9124L53.405-57.9124C51.8137-57.9124 50.7572-56.725 50.7572-55.3135C50.7572-53.8687 51.8137-52.6812 53.405-52.6812ZM53.405-42.0943L61.992-42.0943C63.5833-42.0943 64.6064-43.2817 64.6064-44.7266C64.6064-46.1381 63.5833-47.3255 61.992-47.3255L53.405-47.3255C51.8137-47.3255 50.7572-46.1381 50.7572-44.7266C50.7572-43.2817 51.8137-42.0943 53.405-42.0943ZM53.405-31.5074L61.992-31.5074C63.5833-31.5074 64.6064-32.6948 64.6064-34.1396C64.6064-35.5512 63.5833-36.7386 61.992-36.7386L53.405-36.7386C51.8137-36.7386 50.7572-35.5512 50.7572-34.1396C50.7572-32.6948 51.8137-31.5074 53.405-31.5074Z"/>
  </g>
  <g id="Medium-S" transform="matrix(1 0 0 1 1715.5 696)">
   <path d="M31.0811 7.95703C42.8037 7.95703 52.3389-1.49902 52.3389-13.2305C52.3389-19.2617 49.8975-24.5254 45.3564-28.7861C44.584-29.5186 44.4375-29.9004 44.4463-30.917L44.4463-63.959C44.4463-72.6582 39.0391-78.4961 31.0811-78.4961C23.0566-78.4961 17.6182-72.6582 17.6182-63.959L17.6182-30.917C17.6182-29.9004 17.4805-29.5098 16.748-28.7861C12.1807-24.5605 9.76562-19.2617 9.76562-13.2305C9.76562-1.49902 19.3008 7.95703 31.0811 7.95703ZM31.0811 0.686523C23.3262 0.686523 17.085-5.60352 17.085-13.3184C17.085-18.1338 19.3887-22.3428 23.3838-24.9707C24.5068-25.7031 24.9463-26.3291 24.9463-27.8428L24.9463-63.666C24.9463-68.1982 27.4277-71.1768 31.0811-71.1768C34.6768-71.1768 37.1182-68.1982 37.1182-63.666L37.1182-27.8428C37.1182-26.3291 37.5977-25.7031 38.7207-24.9707C42.6758-22.3428 45.0195-18.1338 45.0195-13.3184C45.0195-5.60352 38.7783 0.686523 31.0811 0.686523ZM31.0322-4.48926C35.9463-4.48926 39.8926-8.43555 39.8926-13.3584C39.8926-16.7676 37.9482-19.5908 35.165-21.1045C33.9531-21.7793 33.5625-22.2188 33.5625-23.9766L33.5625-44.4766C33.5625-46.292 32.4395-47.4551 31.0322-47.4551C29.665-47.4551 28.542-46.292 28.542-44.4766L28.542-23.9766C28.542-22.2188 28.1514-21.7793 26.9395-21.1045C24.1162-19.5908 22.2119-16.7676 22.2119-13.3584C22.2119-8.43555 26.1582-4.48926 31.0322-4.48926ZM51.9697-63.3994L60.4961-63.3994C62.0537-63.3994 63.0566-64.5801 63.0566-65.9912C63.0566-67.3623 62.0537-68.543 60.4961-68.543L51.9697-68.543C50.4121-68.543 49.3691-67.3623 49.3691-65.9912C49.3691-64.5801 50.4121-63.3994 51.9697-63.3994ZM51.9697-52.7891L60.4961-52.7891C62.0537-52.7891 63.0566-53.9697 63.0566-55.3809C63.0566-56.752 62.0537-57.9326 60.4961-57.9326L51.9697-57.9326C50.4121-57.9326 49.3691-56.752 49.3691-55.3809C49.3691-53.9697 50.4121-52.7891 51.9697-52.7891ZM51.9697-42.1348L60.4961-42.1348C62.0537-42.1348 63.0566-43.3154 63.0566-44.7266C63.0566-46.0977 62.0537-47.2783 60.4961-47.2783L51.9697-47.2783C50.4121-47.2783 49.3691-46.0977 49.3691-44.7266C49.3691-43.3154 50.4121-42.1348 51.9697-42.1348ZM51.9697-31.4805L60.4961-31.4805C62.0537-31.4805 63.0566-32.6611 63.0566-34.0723C63.0566-35.4434 62.0537-36.624 60.4961-36.624L51.9697-36.624C50.4121-36.624 49.3691-35.4434 49.3691-34.0723C49.3691-32.6611 50.4121-31.4805 51.9697-31.4805Z"/>
  </g>
  <g id="Regular-S" transform="matrix(1 0 0 1 1419.69 696)">
   <path d="M30.1758 7.32422C41.4062 7.32422 50.5371-1.80664 50.5371-13.0371C50.5371-18.9453 48.0957-24.1211 43.5547-28.3203C42.7734-29.0527 42.627-29.4434 42.627-30.4688L42.627-64.2578C42.627-72.4121 37.5977-77.8809 30.1758-77.8809C22.7051-77.8809 17.627-72.4121 17.627-64.2578L17.627-30.4688C17.627-29.4434 17.4805-29.0527 16.748-28.3203C12.207-24.1211 9.76562-18.9453 9.76562-13.0371C9.76562-1.80664 18.8965 7.32422 30.1758 7.32422ZM30.1758 0.976562C22.4121 0.976562 16.1621-5.32227 16.1621-13.0371C16.1621-17.7734 18.457-22.0703 22.4609-24.707C23.584-25.4395 24.0234-26.0742 24.0234-27.5879L24.0234-63.9648C24.0234-68.5059 26.5137-71.4844 30.1758-71.4844C33.7891-71.4844 36.2305-68.5059 36.2305-63.9648L36.2305-27.5879C36.2305-26.0742 36.7188-25.4395 37.8418-24.707C41.7969-22.0703 44.1406-17.7734 44.1406-13.0371C44.1406-5.32227 37.8906 0.976562 30.1758 0.976562ZM30.127-4.19922C35.0586-4.19922 39.0137-8.1543 39.0137-13.0859C39.0137-16.5039 37.0605-19.3359 34.2773-20.8496C33.0566-21.5332 32.666-21.9727 32.666-23.7305L32.666-44.3359C32.666-46.1426 31.543-47.3145 30.127-47.3145C28.7598-47.3145 27.6367-46.1426 27.6367-44.3359L27.6367-23.7305C27.6367-21.9727 27.2461-21.5332 26.0254-20.8496C23.1934-19.3359 21.2891-16.5039 21.2891-13.0859C21.2891-8.1543 25.2441-4.19922 30.127-4.19922ZM50.0977-63.6719L58.5449-63.6719C60.0586-63.6719 61.0352-64.8438 61.0352-66.2109C61.0352-67.5293 60.0586-68.7012 58.5449-68.7012L50.0977-68.7012C48.584-68.7012 47.5586-67.5293 47.5586-66.2109C47.5586-64.8438 48.584-63.6719 50.0977-63.6719ZM50.0977-52.9297L58.5449-52.9297C60.0586-52.9297 61.0352-54.1016 61.0352-55.4688C61.0352-56.7871 60.0586-57.959 58.5449-57.959L50.0977-57.959C48.584-57.959 47.5586-56.7871 47.5586-55.4688C47.5586-54.1016 48.584-52.9297 50.0977-52.9297ZM50.0977-42.1875L58.5449-42.1875C60.0586-42.1875 61.0352-43.3594 61.0352-44.7266C61.0352-46.0449 60.0586-47.2168 58.5449-47.2168L50.0977-47.2168C48.584-47.2168 47.5586-46.0449 47.5586-44.7266C47.5586-43.3594 48.584-42.1875 50.0977-42.1875ZM50.0977-31.4453L58.5449-31.4453C60.0586-31.4453 61.0352-32.6172 61.0352-33.9844C61.0352-35.3027 60.0586-36.4746 58.5449-36.4746L50.0977-36.4746C48.584-36.4746 47.5586-35.3027 47.5586-33.9844C47.5586-32.6172 48.584-31.4453 50.0977-31.4453Z"/>
  </g>
  <g id="Light-S" transform="matrix(1 0 0 1 1123.7 696)">
   <path d="M29.4492 7.11231C40.3013 7.11231 49.0991-1.70068 49.0991-12.5225C49.0991-18.2642 46.7334-23.2886 42.147-27.3364C41.2446-28.1294 41.0679-28.6108 41.0679-29.833L41.0679-65.0601C41.0679-72.5635 36.3413-77.6689 29.4492-77.6689C22.5234-77.6689 17.7632-72.5635 17.7632-65.0601L17.7632-29.833C17.7632-28.6108 17.5864-28.1294 16.7178-27.3364C12.1313-23.2886 9.76562-18.2642 9.76562-12.5225C9.76562-1.70068 18.5635 7.11231 29.4492 7.11231ZM29.4492 2.20263C21.3071 2.20263 14.7241-4.42921 14.7241-12.5225C14.7241-17.3042 16.9282-21.6465 21.0532-24.4648C22.2671-25.2881 22.7368-26.1196 22.7368-27.709L22.7368-64.8579C22.7368-69.5351 25.4844-72.6953 29.4492-72.6953C33.3804-72.6953 36.0942-69.5351 36.0942-64.8579L36.0942-27.709C36.0942-26.1196 36.5977-25.2881 37.8115-24.4648C41.9028-21.6465 44.1406-17.3042 44.1406-12.5225C44.1406-4.42921 37.5576 2.20263 29.4492 2.20263ZM29.4155-2.95802C34.7407-2.95802 38.9985-7.23096 38.9985-12.5562C38.9985-16.2617 36.9092-19.3208 33.8687-20.9556C32.5723-21.6694 32.1514-22.1543 32.1514-24.0483L32.1514-44.4873C32.1514-46.2788 30.9678-47.5264 29.4155-47.5264C27.897-47.5264 26.7134-46.2788 26.7134-44.4873L26.7134-24.0483C26.7134-22.1543 26.2925-21.6694 24.9961-20.9556C21.9219-19.3208 19.8662-16.2617 19.8662-12.5562C19.8662-7.23096 24.124-2.95802 29.4155-2.95802ZM48.0542-63.7627L56.2442-63.7627C57.4551-63.7627 58.2803-64.6924 58.2803-65.7871C58.2803-66.8633 57.4551-67.793 56.2442-67.793L48.0542-67.793C46.8281-67.793 45.9844-66.8633 45.9844-65.7871C45.9844-64.6924 46.8281-63.7627 48.0542-63.7627ZM48.0542-53.0205L56.2442-53.0205C57.4551-53.0205 58.2803-53.9502 58.2803-55.0449C58.2803-56.1211 57.4551-57.0508 56.2442-57.0508L48.0542-57.0508C46.8281-57.0508 45.9844-56.1211 45.9844-55.0449C45.9844-53.9502 46.8281-53.0205 48.0542-53.0205ZM48.0542-42.2783L56.2442-42.2783C57.4551-42.2783 58.2803-43.208 58.2803-44.3027C58.2803-45.3789 57.4551-46.3086 56.2442-46.3086L48.0542-46.3086C46.8281-46.3086 45.9844-45.3789 45.9844-44.3027C45.9844-43.208 46.8281-42.2783 48.0542-42.2783ZM48.0542-31.5361L56.2442-31.5361C57.4551-31.5361 58.2803-32.4658 58.2803-33.5606C58.2803-34.6367 57.4551-35.5664 56.2442-35.5664L48.0542-35.5664C46.8281-35.5664 45.9844-34.6367 45.9844-33.5606C45.9844-32.4658 46.8281-31.5361 48.0542-31.5361Z"/>
  </g>
  <g id="Thin-S" transform="matrix(1 0 0 1 827.941 696)">
   <path d="M28.4883 6.83204C38.8399 6.83204 47.1973-1.56055 47.1973-11.8418C47.1973-17.3633 44.9317-22.1875 40.2852-26.0352C39.2227-26.9082 39.0059-27.5098 39.0059-28.9922L39.0059-66.1211C39.0059-72.7637 34.6797-77.3887 28.4883-77.3887C22.2832-77.3887 17.9434-72.7637 17.9434-66.1211L17.9434-28.9922C17.9434-27.5098 17.7266-26.9082 16.6777-26.0352C12.0313-22.1875 9.76562-17.3633 9.76562-11.8418C9.76562-1.56055 18.1231 6.83204 28.4883 6.83204ZM28.4883 3.8242C19.8457 3.8242 12.8223-3.24806 12.8223-11.8418C12.8223-16.6836 14.9063-21.0859 19.1914-24.1445C20.5254-25.0879 21.0352-26.1797 21.0352-27.8691L21.0352-66.039C21.0352-70.8965 24.1231-74.2969 28.4883-74.2969C32.8399-74.2969 35.9141-70.8965 35.9141-66.039L35.9141-27.8691C35.9141-26.1797 36.4375-25.0879 37.7715-24.1445C42.043-21.0859 44.1406-16.6836 44.1406-11.8418C44.1406-3.24806 37.1172 3.8242 28.4883 3.8242ZM28.4746-1.31643C34.3203-1.31643 38.9785-6.00978 38.9785-11.8555C38.9785-15.9414 36.709-19.3008 33.3281-21.0957C31.9316-21.8496 31.4707-22.3945 31.4707-24.4687L31.4707-44.6875C31.4707-46.459 30.207-47.8066 28.4746-47.8066C26.7559-47.8066 25.4922-46.459 25.4922-44.6875L25.4922-24.4687C25.4922-22.3945 25.0313-21.8496 23.6348-21.0957C20.2403-19.3008 17.9844-15.9414 17.9844-11.8555C17.9844-6.00978 22.6426-1.31643 28.4746-1.31643ZM45.3516-63.8828L53.2012-63.8828C54.0118-63.8828 54.6368-64.4922 54.6368-65.2266C54.6368-65.9824 54.0118-66.5918 53.2012-66.5918L45.3516-66.5918C44.5059-66.5918 43.9024-65.9824 43.9024-65.2266C43.9024-64.4922 44.5059-63.8828 45.3516-63.8828ZM45.3516-53.1406L53.2012-53.1406C54.0118-53.1406 54.6368-53.75 54.6368-54.4844C54.6368-55.2402 54.0118-55.8496 53.2012-55.8496L45.3516-55.8496C44.5059-55.8496 43.9024-55.2402 43.9024-54.4844C43.9024-53.75 44.5059-53.1406 45.3516-53.1406ZM45.3516-42.3984L53.2012-42.3984C54.0118-42.3984 54.6368-43.0078 54.6368-43.7422C54.6368-44.4981 54.0118-45.1074 53.2012-45.1074L45.3516-45.1074C44.5059-45.1074 43.9024-44.4981 43.9024-43.7422C43.9024-43.0078 44.5059-42.3984 45.3516-42.3984ZM45.3516-31.6562L53.2012-31.6562C54.0118-31.6562 54.6368-32.2656 54.6368-33C54.6368-33.7559 54.0118-34.3653 53.2012-34.3653L45.3516-34.3653C44.5059-34.3653 43.9024-33.7559 43.9024-33C43.9024-32.2656 44.5059-31.6562 45.3516-31.6562Z"/>
  </g>
  <g id="Ultralight-S" transform="matrix(1 0 0 1 531.717 696)">
   <path d="M27.9961 6.68848C38.0913 6.68848 46.2232-1.48877 46.2232-11.4932C46.2232-16.9019 44.0088-21.6236 39.3316-25.3687C38.187-26.2827 37.9497-26.9458 37.9497-28.5615L37.9497-66.6645C37.9497-72.8662 33.8286-77.2451 27.9961-77.2451C22.1602-77.2451 18.0356-72.8662 18.0356-66.6645L18.0356-28.5615C18.0356-26.9458 17.7983-26.2827 16.6572-25.3687C11.98-21.6236 9.76562-16.9019 9.76562-11.4932C9.76562-1.48877 17.8975 6.68848 27.9961 6.68848ZM27.9961 4.65476C19.0972 4.65476 11.8482-2.64309 11.8482-11.4932C11.8482-16.3657 13.8706-20.7988 18.2378-23.9805C19.6333-24.9854 20.1636-26.2104 20.1636-27.9512L20.1636-66.644C20.1636-71.5937 23.4258-75.1172 27.9961-75.1172C32.563-75.1172 35.8218-71.5937 35.8218-66.644L35.8218-27.9512C35.8218-26.2104 36.3555-24.9854 37.751-23.9805C42.1147-20.7988 44.1406-16.3657 44.1406-11.4932C44.1406-2.64309 36.8916 4.65476 27.9961 4.65476ZM27.9927-0.475615C34.105-0.475615 38.9683-5.3843 38.9683-11.4966C38.9683-15.7773 36.6064-19.2905 33.0513-21.1675C31.6035-21.9419 31.1221-22.5176 31.1221-24.6841L31.1221-44.79C31.1221-46.5513 29.8174-47.9502 27.9927-47.9502C26.1714-47.9502 24.8667-46.5513 24.8667-44.79L24.8667-24.6841C24.8667-22.5176 24.3853-21.9419 22.9375-21.1675C19.3789-19.2905 17.0205-15.7773 17.0205-11.4966C17.0205-5.3843 21.8838-0.475615 27.9927-0.475615ZM43.9673-63.9443L51.6426-63.9443C52.2481-63.9443 52.7706-64.3897 52.7706-64.9395C52.7706-65.5313 52.2481-65.9766 51.6426-65.9766L43.9673-65.9766C43.3164-65.9766 42.836-65.5313 42.836-64.9395C42.836-64.3897 43.3164-63.9443 43.9673-63.9443ZM43.9673-53.2021L51.6426-53.2021C52.2481-53.2021 52.7706-53.6475 52.7706-54.1973C52.7706-54.7891 52.2481-55.2344 51.6426-55.2344L43.9673-55.2344C43.3164-55.2344 42.836-54.7891 42.836-54.1973C42.836-53.6475 43.3164-53.2021 43.9673-53.2021ZM43.9673-42.46L51.6426-42.46C52.2481-42.46 52.7706-42.9053 52.7706-43.4551C52.7706-44.0469 52.2481-44.4922 51.6426-44.4922L43.9673-44.4922C43.3164-44.4922 42.836-44.0469 42.836-43.4551C42.836-42.9053 43.3164-42.46 43.9673-42.46ZM43.9673-31.7178L51.6426-31.7178C52.2481-31.7178 52.7706-32.1631 52.7706-32.7129C52.7706-33.3047 52.2481-33.75 51.6426-33.75L43.9673-33.75C43.3164-33.75 42.836-33.3047 42.836-32.7129C42.836-32.1631 43.3164-31.7178 43.9673-31.7178Z"/>
  </g>
 </g>
</svg>
