<?xml version="1.0" encoding="UTF-8"?>
<!--Generator: Apple Native CoreSVG 232.5-->
<!DOCTYPE svg
PUBLIC "-//W3C//DTD SVG 1.1//EN"
       "http://www.w3.org/Graphics/SVG/1.1/DTD/svg11.dtd">
<svg version="1.1" xmlns="http://www.w3.org/2000/svg" xmlns:xlink="http://www.w3.org/1999/xlink" width="3300" height="2200">
 <!--glyph: "uni100AF4.medium", point size: 100.0, font version: "19.2d2e1", template writer version: "128"-->
 <style>.monochrome-0 {-sfsymbols-motion-group:1}
.monochrome-1 {-sfsymbols-motion-group:0}

.multicolor-0:tintColor {-sfsymbols-motion-group:1}
.multicolor-1:tintColor {-sfsymbols-motion-group:0}

.hierarchical-0:primary {-sfsymbols-motion-group:1}
.hierarchical-1:secondary {-sfsymbols-motion-group:0}

.SFSymbolsPreviewWireframe {fill:none;opacity:1.0;stroke:black;stroke-width:0.5}
</style>
 <g id="Notes">
  <rect height="2200" id="artboard" style="fill:white;opacity:1" width="3300" x="0" y="0"/>
  <line style="fill:none;stroke:black;opacity:1;stroke-width:0.5;" x1="263" x2="3036" y1="292" y2="292"/>
  <text style="stroke:none;fill:black;font-family:sans-serif;font-size:13;font-weight:bold;" transform="matrix(1 0 0 1 263 322)">Weight/Scale Variations</text>
  <text style="stroke:none;fill:black;font-family:sans-serif;font-size:13;text-anchor:middle;" transform="matrix(1 0 0 1 559.711 322)">Ultralight</text>
  <text style="stroke:none;fill:black;font-family:sans-serif;font-size:13;text-anchor:middle;" transform="matrix(1 0 0 1 856.422 322)">Thin</text>
  <text style="stroke:none;fill:black;font-family:sans-serif;font-size:13;text-anchor:middle;" transform="matrix(1 0 0 1 1153.13 322)">Light</text>
  <text style="stroke:none;fill:black;font-family:sans-serif;font-size:13;text-anchor:middle;" transform="matrix(1 0 0 1 1449.84 322)">Regular</text>
  <text style="stroke:none;fill:black;font-family:sans-serif;font-size:13;text-anchor:middle;" transform="matrix(1 0 0 1 1746.56 322)">Medium</text>
  <text style="stroke:none;fill:black;font-family:sans-serif;font-size:13;text-anchor:middle;" transform="matrix(1 0 0 1 2043.27 322)">Semibold</text>
  <text style="stroke:none;fill:black;font-family:sans-serif;font-size:13;text-anchor:middle;" transform="matrix(1 0 0 1 2339.98 322)">Bold</text>
  <text style="stroke:none;fill:black;font-family:sans-serif;font-size:13;text-anchor:middle;" transform="matrix(1 0 0 1 2636.69 322)">Heavy</text>
  <text style="stroke:none;fill:black;font-family:sans-serif;font-size:13;text-anchor:middle;" transform="matrix(1 0 0 1 2933.4 322)">Black</text>
  <line style="fill:none;stroke:black;opacity:1;stroke-width:0.5;" x1="263" x2="3036" y1="1903" y2="1903"/>
  <g transform="matrix(0.2 0 0 0.2 263 1933)">
   <path d="m46.2402 4.15039c21.5332 0 39.4531-17.8711 39.4531-39.4043s-17.9688-39.4043-39.502-39.4043c-21.4844 0-39.3555 17.8711-39.3555 39.4043s17.9199 39.4043 39.4043 39.4043Zm0-7.42188c-17.7246 0-31.8848-14.209-31.8848-31.9824s14.1113-31.9824 31.8359-31.9824c17.7734 0 32.0312 14.209 32.0312 31.9824s-14.209 31.9824-31.9824 31.9824Zm-17.9688-31.9824c0 2.14844 1.51367 3.61328 3.75977 3.61328h10.498v10.5957c0 2.19727 1.46484 3.71094 3.61328 3.71094 2.24609 0 3.71094-1.51367 3.71094-3.71094v-10.5957h10.5957c2.19727 0 3.71094-1.46484 3.71094-3.61328 0-2.19727-1.51367-3.71094-3.71094-3.71094h-10.5957v-10.5469c0-2.24609-1.46484-3.75977-3.71094-3.75977-2.14844 0-3.61328 1.51367-3.61328 3.75977v10.5469h-10.498c-2.24609 0-3.75977 1.51367-3.75977 3.71094Z"/>
  </g>
  <g transform="matrix(0.2 0 0 0.2 281.506 1933)">
   <path d="m58.5449 14.5508c27.2461 0 49.8047-22.6074 49.8047-49.8047 0-27.2461-22.6074-49.8047-49.8535-49.8047-27.1973 0-49.7559 22.5586-49.7559 49.8047 0 27.1973 22.6074 49.8047 49.8047 49.8047Zm0-8.30078c-23.0469 0-41.4551-18.457-41.4551-41.5039s18.3594-41.5039 41.4062-41.5039 41.5527 18.457 41.5527 41.5039-18.457 41.5039-41.5039 41.5039Zm-22.6562-41.5039c0 2.39258 1.66016 4.00391 4.15039 4.00391h14.3555v14.4043c0 2.44141 1.66016 4.15039 4.05273 4.15039 2.44141 0 4.15039-1.66016 4.15039-4.15039v-14.4043h14.4043c2.44141 0 4.15039-1.61133 4.15039-4.00391 0-2.44141-1.70898-4.15039-4.15039-4.15039h-14.4043v-14.3555c0-2.49023-1.70898-4.19922-4.15039-4.19922-2.39258 0-4.05273 1.70898-4.05273 4.19922v14.3555h-14.3555c-2.49023 0-4.15039 1.70898-4.15039 4.15039Z"/>
  </g>
  <g transform="matrix(0.2 0 0 0.2 304.924 1933)">
   <path d="m74.8535 28.3203c34.8145 0 63.623-28.8086 63.623-63.5742 0-34.8145-28.8574-63.623-63.6719-63.623-34.7656 0-63.5254 28.8086-63.5254 63.623 0 34.7656 28.8086 63.5742 63.5742 63.5742Zm0-9.08203c-30.1758 0-54.4434-24.3164-54.4434-54.4922 0-30.2246 24.2188-54.4922 54.3945-54.4922 30.2246 0 54.541 24.2676 54.541 54.4922 0 30.1758-24.2676 54.4922-54.4922 54.4922Zm-28.8574-54.4922c0 2.58789 1.85547 4.39453 4.58984 4.39453h19.7266v19.7754c0 2.68555 1.85547 4.58984 4.44336 4.58984 2.68555 0 4.54102-1.85547 4.54102-4.58984v-19.7754h19.7754c2.68555 0 4.58984-1.80664 4.58984-4.39453 0-2.73438-1.85547-4.58984-4.58984-4.58984h-19.7754v-19.7266c0-2.73438-1.85547-4.63867-4.54102-4.63867-2.58789 0-4.44336 1.9043-4.44336 4.63867v19.7266h-19.7266c-2.73438 0-4.58984 1.85547-4.58984 4.58984Z"/>
  </g>
  <text style="stroke:none;fill:black;font-family:sans-serif;font-size:13;font-weight:bold;" transform="matrix(1 0 0 1 263 1953)">Design Variations</text>
  <text style="stroke:none;fill:black;font-family:sans-serif;font-size:13;" transform="matrix(1 0 0 1 263 1971)">Symbols are supported in up to nine weights and three scales.</text>
  <text style="stroke:none;fill:black;font-family:sans-serif;font-size:13;" transform="matrix(1 0 0 1 263 1989)">For optimal layout with text and other symbols, vertically align</text>
  <text style="stroke:none;fill:black;font-family:sans-serif;font-size:13;" transform="matrix(1 0 0 1 263 2007)">symbols with the adjacent text.</text>
  <line style="fill:none;stroke:#00AEEF;stroke-width:0.5;opacity:1.0;" x1="776" x2="776" y1="1919" y2="1933"/>
  <g transform="matrix(0.2 0 0 0.2 776 1933)">
   <path d="m16.5527 0.78125c2.58789 0 3.85742-0.976562 4.78516-3.71094l6.29883-17.2363h28.8086l6.29883 17.2363c0.927734 2.73438 2.19727 3.71094 4.73633 3.71094 2.58789 0 4.24805-1.5625 4.24805-4.00391 0-0.830078-0.146484-1.61133-0.537109-2.63672l-22.9004-60.9863c-1.12305-2.97852-3.125-4.49219-6.25-4.49219-3.02734 0-5.07812 1.46484-6.15234 4.44336l-22.9004 61.084c-0.390625 1.02539-0.537109 1.80664-0.537109 2.63672 0 2.44141 1.5625 3.95508 4.10156 3.95508Zm13.4766-28.3691 11.8652-32.8613h0.244141l11.8652 32.8613Z"/>
  </g>
  <line style="fill:none;stroke:#00AEEF;stroke-width:0.5;opacity:1.0;" x1="792.836" x2="792.836" y1="1919" y2="1933"/>
  <text style="stroke:none;fill:black;font-family:sans-serif;font-size:13;font-weight:bold;" transform="matrix(1 0 0 1 776 1953)">Margins</text>
  <text style="stroke:none;fill:black;font-family:sans-serif;font-size:13;" transform="matrix(1 0 0 1 776 1971)">Leading and trailing margins on the left and right side of each symbol</text>
  <text style="stroke:none;fill:black;font-family:sans-serif;font-size:13;" transform="matrix(1 0 0 1 776 1989)">can be adjusted by modifying the x-location of the margin guidelines.</text>
  <text style="stroke:none;fill:black;font-family:sans-serif;font-size:13;" transform="matrix(1 0 0 1 776 2007)">Modifications are automatically applied proportionally to all</text>
  <text style="stroke:none;fill:black;font-family:sans-serif;font-size:13;" transform="matrix(1 0 0 1 776 2025)">scales and weights.</text>
  <g transform="matrix(0.2 0 0 0.2 1289 1933)">
   <path d="m14.209 9.32617 8.49609 8.54492c4.29688 4.3457 9.22852 4.05273 13.8672-1.07422l53.4668-58.9355-4.83398-4.88281-53.0762 58.3984c-1.75781 2.00195-3.41797 2.49023-5.76172 0.146484l-5.85938-5.81055c-2.34375-2.29492-1.80664-4.00391 0.195312-5.81055l57.373-54.0039-4.88281-4.83398-57.959 54.4434c-4.93164 4.58984-5.32227 9.47266-1.02539 13.8184Zm32.0801-90.9668c-2.09961 2.05078-2.24609 4.93164-1.07422 6.88477 1.17188 1.80664 3.4668 2.97852 6.68945 2.14844 7.32422-1.70898 14.9414-2.00195 22.0703 2.68555l-2.92969 7.27539c-1.70898 4.15039-0.830078 7.08008 1.85547 9.81445l11.4746 11.5723c2.44141 2.44141 4.49219 2.53906 7.32422 2.05078l5.32227-0.976562 3.32031 3.36914-0.195312 2.7832c-0.195312 2.49023 0.439453 4.39453 2.88086 6.78711l3.80859 3.71094c2.39258 2.39258 5.46875 2.53906 7.8125 0.195312l14.5508-14.5996c2.34375-2.34375 2.24609-5.32227-0.146484-7.71484l-3.85742-3.80859c-2.39258-2.39258-4.24805-3.17383-6.64062-2.97852l-2.88086 0.244141-3.22266-3.17383 1.2207-5.61523c0.634766-2.83203-0.146484-5.0293-3.07617-7.95898l-10.9863-10.9375c-16.6992-16.6016-38.8672-16.2109-53.3203-1.75781Zm7.4707 1.85547c12.1582-8.88672 28.6133-7.37305 39.7461 3.75977l12.1582 12.0605c1.17188 1.17188 1.36719 2.09961 1.02539 3.80859l-1.61133 7.42188 7.51953 7.42188 4.93164-0.292969c1.26953-0.0488281 1.66016 0.0488281 2.63672 1.02539l2.88086 2.88086-12.207 12.207-2.88086-2.88086c-0.976562-0.976562-1.12305-1.36719-1.07422-2.68555l0.341797-4.88281-7.4707-7.42188-7.61719 1.26953c-1.61133 0.341797-2.34375 0.195312-3.56445-0.976562l-10.0098-10.0098c-1.26953-1.17188-1.41602-2.00195-0.634766-3.85742l4.39453-10.4492c-7.8125-7.27539-17.9688-10.4004-28.125-7.42188-0.78125 0.195312-1.07422-0.439453-0.439453-0.976562Z"/>
  </g>
  <text style="stroke:none;fill:black;font-family:sans-serif;font-size:13;font-weight:bold;" transform="matrix(1 0 0 1 1289 1953)">Exporting</text>
  <text style="stroke:none;fill:black;font-family:sans-serif;font-size:13;" transform="matrix(1 0 0 1 1289 1971)">Symbols should be outlined when exporting to ensure the</text>
  <text style="stroke:none;fill:black;font-family:sans-serif;font-size:13;" transform="matrix(1 0 0 1 1289 1989)">design is preserved when submitting to Xcode.</text>
  <text id="template-version" style="stroke:none;fill:black;font-family:sans-serif;font-size:13;text-anchor:end;" transform="matrix(1 0 0 1 3036 1933)">Template v.5.0</text>
  <text style="stroke:none;fill:black;font-family:sans-serif;font-size:13;text-anchor:end;" transform="matrix(1 0 0 1 3036 1951)">Requires Xcode 15 or greater</text>
  <text id="descriptive-name" style="stroke:none;fill:black;font-family:sans-serif;font-size:13;text-anchor:end;" transform="matrix(1 0 0 1 3036 1969)">Generated from squareshape.squareshape.dotted</text>
  <text style="stroke:none;fill:black;font-family:sans-serif;font-size:13;text-anchor:end;" transform="matrix(1 0 0 1 3036 1987)">Typeset at 100.0 points</text>
  <text style="stroke:none;fill:black;font-family:sans-serif;font-size:13;" transform="matrix(1 0 0 1 263 726)">Small</text>
  <text style="stroke:none;fill:black;font-family:sans-serif;font-size:13;" transform="matrix(1 0 0 1 263 1156)">Medium</text>
  <text style="stroke:none;fill:black;font-family:sans-serif;font-size:13;" transform="matrix(1 0 0 1 263 1586)">Large</text>
 </g>
 <g id="Guides">
  <g id="H-reference" style="fill:#27AAE1;stroke:none;" transform="matrix(1 0 0 1 339 696)">
   <path d="M0.993654 0L3.63775 0L29.3281-67.1323L30.0303-67.1323L30.0303-70.459L28.1226-70.459ZM11.6885-24.4799L46.9815-24.4799L46.2315-26.7285L12.4385-26.7285ZM55.1196 0L57.7637 0L30.6382-70.459L29.4326-70.459L29.4326-67.1323Z"/>
  </g>
  <line id="Baseline-S" style="fill:none;stroke:#27AAE1;opacity:1;stroke-width:0.5;" x1="263" x2="3036" y1="696" y2="696"/>
  <line id="Capline-S" style="fill:none;stroke:#27AAE1;opacity:1;stroke-width:0.5;" x1="263" x2="3036" y1="625.541" y2="625.541"/>
  <g id="H-reference" style="fill:#27AAE1;stroke:none;" transform="matrix(1 0 0 1 339 1126)">
   <path d="M0.993654 0L3.63775 0L29.3281-67.1323L30.0303-67.1323L30.0303-70.459L28.1226-70.459ZM11.6885-24.4799L46.9815-24.4799L46.2315-26.7285L12.4385-26.7285ZM55.1196 0L57.7637 0L30.6382-70.459L29.4326-70.459L29.4326-67.1323Z"/>
  </g>
  <line id="Baseline-M" style="fill:none;stroke:#27AAE1;opacity:1;stroke-width:0.5;" x1="263" x2="3036" y1="1126" y2="1126"/>
  <line id="Capline-M" style="fill:none;stroke:#27AAE1;opacity:1;stroke-width:0.5;" x1="263" x2="3036" y1="1055.54" y2="1055.54"/>
  <g id="H-reference" style="fill:#27AAE1;stroke:none;" transform="matrix(1 0 0 1 339 1556)">
   <path d="M0.993654 0L3.63775 0L29.3281-67.1323L30.0303-67.1323L30.0303-70.459L28.1226-70.459ZM11.6885-24.4799L46.9815-24.4799L46.2315-26.7285L12.4385-26.7285ZM55.1196 0L57.7637 0L30.6382-70.459L29.4326-70.459L29.4326-67.1323Z"/>
  </g>
  <line id="Baseline-L" style="fill:none;stroke:#27AAE1;opacity:1;stroke-width:0.5;" x1="263" x2="3036" y1="1556" y2="1556"/>
  <line id="Capline-L" style="fill:none;stroke:#27AAE1;opacity:1;stroke-width:0.5;" x1="263" x2="3036" y1="1485.54" y2="1485.54"/>
  <line id="left-margin-Ultralight-S" style="fill:none;stroke:#00AEEF;stroke-width:0.5;opacity:1.0;" x1="516.715" x2="516.715" y1="600.785" y2="720.121"/>
  <line id="right-margin-Ultralight-S" style="fill:none;stroke:#00AEEF;stroke-width:0.5;opacity:1.0;" x1="602.708" x2="602.708" y1="600.785" y2="720.121"/>
  <line id="left-margin-Regular-S" style="fill:none;stroke:#00AEEF;stroke-width:0.5;opacity:1.0;" x1="1404.53" x2="1404.53" y1="600.785" y2="720.121"/>
  <line id="right-margin-Regular-S" style="fill:none;stroke:#00AEEF;stroke-width:0.5;opacity:1.0;" x1="1495.16" x2="1495.16" y1="600.785" y2="720.121"/>
  <line id="left-margin-Black-S" style="fill:none;stroke:#00AEEF;stroke-width:0.5;opacity:1.0;" x1="2885.5" x2="2885.5" y1="600.785" y2="720.121"/>
  <line id="right-margin-Black-S" style="fill:none;stroke:#00AEEF;stroke-width:0.5;opacity:1.0;" x1="2981.3" x2="2981.3" y1="600.785" y2="720.121"/>
 </g>
 <g id="Symbols">
  <g id="Black-S" transform="matrix(1 0 0 1 2885.5 696)">
   <path class="monochrome-0 multicolor-0:tintColor hierarchical-0:primary SFSymbolsPreviewWireframe" d="M25.9277-17.7734C25.9277-15.1367 27.6855-13.3789 30.3223-13.3789L65.5273-13.3789C68.1641-13.3789 69.9219-15.1367 69.9219-17.7734L69.9219-52.7344C69.9219-55.3711 68.1641-57.1289 65.5273-57.1289L30.3223-57.1289C27.6855-57.1289 25.9277-55.3711 25.9277-52.7344ZM37.6465-26.123L37.6465-44.3848C37.6465-44.9707 38.0371-45.4102 38.6719-45.4102L57.1777-45.4102C57.8125-45.4102 58.2031-44.9707 58.2031-44.3848L58.2031-26.123C58.2031-25.5371 57.8125-25.0977 57.1777-25.0977L38.6719-25.0977C38.0371-25.0977 37.6465-25.5371 37.6465-26.123Z"/>
   <path class="monochrome-1 multicolor-1:tintColor hierarchical-1:secondary SFSymbolsPreviewWireframe" d="M14.5508 2.92969C17.1875 2.92969 19.3359 0.78125 19.3359-1.85547C19.3359-4.49219 17.1875-6.64062 14.5508-6.64062C11.9141-6.64062 9.76562-4.49219 9.76562-1.85547C9.76562 0.78125 11.9141 2.92969 14.5508 2.92969ZM14.5508-8.25195C17.1875-8.25195 19.3359-10.4004 19.3359-13.0371C19.3359-15.6738 17.1875-17.8223 14.5508-17.8223C11.9141-17.8223 9.76562-15.6738 9.76562-13.0371C9.76562-10.4004 11.9141-8.25195 14.5508-8.25195ZM14.5508-19.3359C17.1875-19.3359 19.3359-21.4844 19.3359-24.1211C19.3359-26.7578 17.1875-28.9062 14.5508-28.9062C11.9141-28.9062 9.76562-26.7578 9.76562-24.1211C9.76562-21.4844 11.9141-19.3359 14.5508-19.3359ZM14.5508-30.4688C17.1875-30.4688 19.3359-32.6172 19.3359-35.2539C19.3359-37.8906 17.1875-40.0391 14.5508-40.0391C11.9141-40.0391 9.76562-37.8906 9.76562-35.2539C9.76562-32.6172 11.9141-30.4688 14.5508-30.4688ZM14.5508-41.6016C17.1875-41.6016 19.3359-43.75 19.3359-46.3867C19.3359-49.0234 17.1875-51.1719 14.5508-51.1719C11.9141-51.1719 9.76562-49.0234 9.76562-46.3867C9.76562-43.75 11.9141-41.6016 14.5508-41.6016ZM14.5508-52.6367C17.1875-52.6367 19.3359-54.7852 19.3359-57.4219C19.3359-60.0586 17.1875-62.207 14.5508-62.207C11.9141-62.207 9.76562-60.0586 9.76562-57.4219C9.76562-54.7852 11.9141-52.6367 14.5508-52.6367ZM14.5508-63.7695C17.1875-63.7695 19.3359-65.918 19.3359-68.5547C19.3359-71.1914 17.1875-73.3398 14.5508-73.3398C11.9141-73.3398 9.76562-71.1914 9.76562-68.5547C9.76562-65.918 11.9141-63.7695 14.5508-63.7695ZM25.6836-63.7695C28.3203-63.7695 30.4688-65.918 30.4688-68.5547C30.4688-71.1914 28.3203-73.3398 25.6836-73.3398C23.0469-73.3398 20.8984-71.1914 20.8984-68.5547C20.8984-65.918 23.0469-63.7695 25.6836-63.7695ZM36.7676-63.7695C39.4043-63.7695 41.5527-65.918 41.5527-68.5547C41.5527-71.1914 39.4043-73.3398 36.7676-73.3398C34.1309-73.3398 31.9824-71.1914 31.9824-68.5547C31.9824-65.918 34.1309-63.7695 36.7676-63.7695ZM47.9004-63.7695C50.5371-63.7695 52.6855-65.918 52.6855-68.5547C52.6855-71.1914 50.5371-73.3398 47.9004-73.3398C45.2637-73.3398 43.1152-71.1914 43.1152-68.5547C43.1152-65.918 45.2637-63.7695 47.9004-63.7695ZM59.0332-63.7695C61.6699-63.7695 63.8184-65.918 63.8184-68.5547C63.8184-71.1914 61.6699-73.3398 59.0332-73.3398C56.3965-73.3398 54.248-71.1914 54.248-68.5547C54.248-65.918 56.3965-63.7695 59.0332-63.7695ZM70.1172-63.7695C72.7539-63.7695 74.9023-65.918 74.9023-68.5547C74.9023-71.1914 72.7539-73.3398 70.1172-73.3398C67.4805-73.3398 65.332-71.1914 65.332-68.5547C65.332-65.918 67.4805-63.7695 70.1172-63.7695ZM81.25-63.7695C83.8867-63.7695 86.0352-65.918 86.0352-68.5547C86.0352-71.1914 83.8867-73.3398 81.25-73.3398C78.6133-73.3398 76.4648-71.1914 76.4648-68.5547C76.4648-65.918 78.6133-63.7695 81.25-63.7695ZM81.25-52.5879C83.8867-52.5879 86.0352-54.7363 86.0352-57.373C86.0352-60.0098 83.8867-62.1582 81.25-62.1582C78.6133-62.1582 76.4648-60.0098 76.4648-57.373C76.4648-54.7363 78.6133-52.5879 81.25-52.5879ZM81.25-41.5527C83.8867-41.5527 86.0352-43.7012 86.0352-46.3379C86.0352-48.9746 83.8867-51.123 81.25-51.123C78.6133-51.123 76.4648-48.9746 76.4648-46.3379C76.4648-43.7012 78.6133-41.5527 81.25-41.5527ZM81.25-30.4199C83.8867-30.4199 86.0352-32.5684 86.0352-35.2051C86.0352-37.8418 83.8867-39.9902 81.25-39.9902C78.6133-39.9902 76.4648-37.8418 76.4648-35.2051C76.4648-32.5684 78.6133-30.4199 81.25-30.4199ZM81.25-19.2871C83.8867-19.2871 86.0352-21.4355 86.0352-24.0723C86.0352-26.709 83.8867-28.8574 81.25-28.8574C78.6133-28.8574 76.4648-26.709 76.4648-24.0723C76.4648-21.4355 78.6133-19.2871 81.25-19.2871ZM81.25-8.20312C83.8867-8.20312 86.0352-10.3516 86.0352-12.9883C86.0352-15.625 83.8867-17.7734 81.25-17.7734C78.6133-17.7734 76.4648-15.625 76.4648-12.9883C76.4648-10.3516 78.6133-8.20312 81.25-8.20312ZM81.25 2.92969C83.8867 2.92969 86.0352 0.78125 86.0352-1.85547C86.0352-4.49219 83.8867-6.64062 81.25-6.64062C78.6133-6.64062 76.4648-4.49219 76.4648-1.85547C76.4648 0.78125 78.6133 2.92969 81.25 2.92969ZM70.1172 2.92969C72.7539 2.92969 74.9023 0.78125 74.9023-1.85547C74.9023-4.49219 72.7539-6.64062 70.1172-6.64062C67.4805-6.64062 65.332-4.49219 65.332-1.85547C65.332 0.78125 67.4805 2.92969 70.1172 2.92969ZM59.0332 2.92969C61.6699 2.92969 63.8184 0.78125 63.8184-1.85547C63.8184-4.49219 61.6699-6.64062 59.0332-6.64062C56.3965-6.64062 54.248-4.49219 54.248-1.85547C54.248 0.78125 56.3965 2.92969 59.0332 2.92969ZM47.9004 2.92969C50.5371 2.92969 52.6855 0.78125 52.6855-1.85547C52.6855-4.49219 50.5371-6.64062 47.9004-6.64062C45.2637-6.64062 43.1152-4.49219 43.1152-1.85547C43.1152 0.78125 45.2637 2.92969 47.9004 2.92969ZM36.7676 2.92969C39.4043 2.92969 41.5527 0.78125 41.5527-1.85547C41.5527-4.49219 39.4043-6.64062 36.7676-6.64062C34.1309-6.64062 31.9824-4.49219 31.9824-1.85547C31.9824 0.78125 34.1309 2.92969 36.7676 2.92969ZM25.6836 2.92969C28.3203 2.92969 30.4688 0.78125 30.4688-1.85547C30.4688-4.49219 28.3203-6.64062 25.6836-6.64062C23.0469-6.64062 20.8984-4.49219 20.8984-1.85547C20.8984 0.78125 23.0469 2.92969 25.6836 2.92969Z"/>
  </g>
  <g id="Regular-S" transform="matrix(1 0 0 1 1404.53 696)">
   <path class="monochrome-0 multicolor-0:tintColor hierarchical-0:primary SFSymbolsPreviewWireframe" d="M23.4375-16.8457C23.4375-14.8438 24.7559-13.5254 26.7578-13.5254L63.8672-13.5254C65.8691-13.5254 67.1875-14.8438 67.1875-16.8457L67.1875-53.6621C67.1875-55.6641 65.8691-56.9824 63.8672-56.9824L26.7578-56.9824C24.7559-56.9824 23.4375-55.6641 23.4375-53.6621ZM30.4688-21.7773L30.4688-48.7305C30.4688-49.6582 30.7617-49.9512 31.6895-49.9512L58.9844-49.9512C59.8633-49.9512 60.1562-49.6582 60.1562-48.7305L60.1562-21.7773C60.1562-20.8496 59.8633-20.5566 58.9844-20.5566L31.6895-20.5566C30.7617-20.5566 30.4688-20.8496 30.4688-21.7773Z"/>
   <path class="monochrome-1 multicolor-1:tintColor hierarchical-1:secondary SFSymbolsPreviewWireframe" d="M13.4277 0.341797C15.4785 0.341797 17.0898-1.31836 17.0898-3.32031C17.0898-5.32227 15.4785-6.98242 13.4277-6.98242C11.4258-6.98242 9.76562-5.32227 9.76562-3.32031C9.76562-1.31836 11.4258 0.341797 13.4277 0.341797ZM13.4277-10.3516C15.4785-10.3516 17.0898-12.0117 17.0898-14.0137C17.0898-16.0156 15.4785-17.6758 13.4277-17.6758C11.4258-17.6758 9.76562-16.0156 9.76562-14.0137C9.76562-12.0117 11.4258-10.3516 13.4277-10.3516ZM13.4277-20.9473C15.4785-20.9473 17.0898-22.6074 17.0898-24.6094C17.0898-26.6113 15.4785-28.2715 13.4277-28.2715C11.4258-28.2715 9.76562-26.6113 9.76562-24.6094C9.76562-22.6074 11.4258-20.9473 13.4277-20.9473ZM13.4277-31.5918C15.4785-31.5918 17.0898-33.252 17.0898-35.2539C17.0898-37.2559 15.4785-38.916 13.4277-38.916C11.4258-38.916 9.76562-37.2559 9.76562-35.2539C9.76562-33.252 11.4258-31.5918 13.4277-31.5918ZM13.4277-42.2363C15.4785-42.2363 17.0898-43.8965 17.0898-45.8984C17.0898-47.9004 15.4785-49.5605 13.4277-49.5605C11.4258-49.5605 9.76562-47.9004 9.76562-45.8984C9.76562-43.8965 11.4258-42.2363 13.4277-42.2363ZM13.4277-52.7832C15.4785-52.7832 17.0898-54.4434 17.0898-56.4453C17.0898-58.4473 15.4785-60.1074 13.4277-60.1074C11.4258-60.1074 9.76562-58.4473 9.76562-56.4453C9.76562-54.4434 11.4258-52.7832 13.4277-52.7832ZM13.4277-63.4277C15.4785-63.4277 17.0898-65.0879 17.0898-67.0898C17.0898-69.0918 15.4785-70.752 13.4277-70.752C11.4258-70.752 9.76562-69.0918 9.76562-67.0898C9.76562-65.0879 11.4258-63.4277 13.4277-63.4277ZM24.0723-63.4277C26.123-63.4277 27.7344-65.0879 27.7344-67.0898C27.7344-69.0918 26.123-70.752 24.0723-70.752C22.0703-70.752 20.4102-69.0918 20.4102-67.0898C20.4102-65.0879 22.0703-63.4277 24.0723-63.4277ZM34.668-63.4277C36.7188-63.4277 38.3301-65.0879 38.3301-67.0898C38.3301-69.0918 36.7188-70.752 34.668-70.752C32.666-70.752 31.0059-69.0918 31.0059-67.0898C31.0059-65.0879 32.666-63.4277 34.668-63.4277ZM45.3125-63.4277C47.3633-63.4277 48.9746-65.0879 48.9746-67.0898C48.9746-69.0918 47.3633-70.752 45.3125-70.752C43.3105-70.752 41.6504-69.0918 41.6504-67.0898C41.6504-65.0879 43.3105-63.4277 45.3125-63.4277ZM55.957-63.4277C58.0078-63.4277 59.6191-65.0879 59.6191-67.0898C59.6191-69.0918 58.0078-70.752 55.957-70.752C53.9551-70.752 52.2949-69.0918 52.2949-67.0898C52.2949-65.0879 53.9551-63.4277 55.957-63.4277ZM66.5527-63.4277C68.6035-63.4277 70.2148-65.0879 70.2148-67.0898C70.2148-69.0918 68.6035-70.752 66.5527-70.752C64.5508-70.752 62.8906-69.0918 62.8906-67.0898C62.8906-65.0879 64.5508-63.4277 66.5527-63.4277ZM77.1973-63.4277C79.248-63.4277 80.8594-65.0879 80.8594-67.0898C80.8594-69.0918 79.248-70.752 77.1973-70.752C75.1953-70.752 73.5352-69.0918 73.5352-67.0898C73.5352-65.0879 75.1953-63.4277 77.1973-63.4277ZM77.1973-52.7344C79.248-52.7344 80.8594-54.3945 80.8594-56.3965C80.8594-58.4473 79.248-60.0586 77.1973-60.0586C75.1953-60.0586 73.5352-58.4473 73.5352-56.3965C73.5352-54.3945 75.1953-52.7344 77.1973-52.7344ZM77.1973-42.1875C79.248-42.1875 80.8594-43.8477 80.8594-45.8496C80.8594-47.9004 79.248-49.5117 77.1973-49.5117C75.1953-49.5117 73.5352-47.9004 73.5352-45.8496C73.5352-43.8477 75.1953-42.1875 77.1973-42.1875ZM77.1973-31.543C79.248-31.543 80.8594-33.2031 80.8594-35.2051C80.8594-37.2559 79.248-38.8672 77.1973-38.8672C75.1953-38.8672 73.5352-37.2559 73.5352-35.2051C73.5352-33.2031 75.1953-31.543 77.1973-31.543ZM77.1973-20.8984C79.248-20.8984 80.8594-22.5586 80.8594-24.5605C80.8594-26.6113 79.248-28.2227 77.1973-28.2227C75.1953-28.2227 73.5352-26.6113 73.5352-24.5605C73.5352-22.5586 75.1953-20.8984 77.1973-20.8984ZM77.1973-10.3027C79.248-10.3027 80.8594-11.9629 80.8594-13.9648C80.8594-16.0156 79.248-17.627 77.1973-17.627C75.1953-17.627 73.5352-16.0156 73.5352-13.9648C73.5352-11.9629 75.1953-10.3027 77.1973-10.3027ZM77.1973 0.341797C79.248 0.341797 80.8594-1.31836 80.8594-3.32031C80.8594-5.32227 79.248-6.98242 77.1973-6.98242C75.1953-6.98242 73.5352-5.32227 73.5352-3.32031C73.5352-1.31836 75.1953 0.341797 77.1973 0.341797ZM66.5527 0.341797C68.6035 0.341797 70.2148-1.31836 70.2148-3.32031C70.2148-5.32227 68.6035-6.98242 66.5527-6.98242C64.5508-6.98242 62.8906-5.32227 62.8906-3.32031C62.8906-1.31836 64.5508 0.341797 66.5527 0.341797ZM55.957 0.341797C58.0078 0.341797 59.6191-1.31836 59.6191-3.32031C59.6191-5.32227 58.0078-6.98242 55.957-6.98242C53.9551-6.98242 52.2949-5.32227 52.2949-3.32031C52.2949-1.31836 53.9551 0.341797 55.957 0.341797ZM45.3125 0.341797C47.3633 0.341797 48.9746-1.31836 48.9746-3.32031C48.9746-5.32227 47.3633-6.98242 45.3125-6.98242C43.3105-6.98242 41.6504-5.32227 41.6504-3.32031C41.6504-1.31836 43.3105 0.341797 45.3125 0.341797ZM34.668 0.341797C36.7188 0.341797 38.3301-1.31836 38.3301-3.32031C38.3301-5.32227 36.7188-6.98242 34.668-6.98242C32.666-6.98242 31.0059-5.32227 31.0059-3.32031C31.0059-1.31836 32.666 0.341797 34.668 0.341797ZM24.0723 0.341797C26.123 0.341797 27.7344-1.31836 27.7344-3.32031C27.7344-5.32227 26.123-6.98242 24.0723-6.98242C22.0703-6.98242 20.4102-5.32227 20.4102-3.32031C20.4102-1.31836 22.0703 0.341797 24.0723 0.341797Z"/>
  </g>
  <g id="Ultralight-S" transform="matrix(1 0 0 1 516.715 696)">
   <path class="monochrome-0 multicolor-0:tintColor hierarchical-0:primary SFSymbolsPreviewWireframe" d="M23.5283-17.7993C23.5283-16.7056 24.2109-16.0229 25.3047-16.0229L60.6431-16.0229C61.7823-16.0229 62.4649-16.7056 62.4649-17.7993L62.4649-52.7085C62.4649-53.8023 61.7823-54.4849 60.6431-54.4849L25.3047-54.4849C24.2109-54.4849 23.5283-53.8023 23.5283-52.7085ZM25.7461-19.0073L25.7461-51.5005C25.7461-51.9741 26.0391-52.2671 26.5127-52.2671L59.4839-52.2671C59.9541-52.2671 60.2471-51.9741 60.2471-51.5005L60.2471-19.0073C60.2471-18.5337 59.9541-18.2407 59.4839-18.2407L26.5127-18.2407C26.0391-18.2407 25.7461-18.5337 25.7461-19.0073Z"/>
   <path class="monochrome-1 multicolor-1:tintColor hierarchical-1:secondary SFSymbolsPreviewWireframe" d="M11.1118-1.9741C11.8457-1.9741 12.458-2.58983 12.458-3.32031C12.458-4.05079 11.8457-4.66652 11.1118-4.66652C10.3359-4.66652 9.76562-4.05079 9.76562-3.32031C9.76562-2.58983 10.3359-1.9741 11.1118-1.9741ZM11.1118-12.6675C11.8457-12.6675 12.458-13.2832 12.458-14.0137C12.458-14.7442 11.8457-15.3599 11.1118-15.3599C10.3359-15.3599 9.76562-14.7442 9.76562-14.0137C9.76562-13.2832 10.3359-12.6675 11.1118-12.6675ZM11.1118-23.2632C11.8457-23.2632 12.458-23.8789 12.458-24.6094C12.458-25.3399 11.8457-25.9556 11.1118-25.9556C10.3359-25.9556 9.76562-25.3399 9.76562-24.6094C9.76562-23.8789 10.3359-23.2632 11.1118-23.2632ZM11.1118-33.9077C11.8457-33.9077 12.458-34.5234 12.458-35.2539C12.458-35.9844 11.8457-36.6001 11.1118-36.6001C10.3359-36.6001 9.76562-35.9844 9.76562-35.2539C9.76562-34.5234 10.3359-33.9077 11.1118-33.9077ZM11.1118-44.5522C11.8457-44.5522 12.458-45.168 12.458-45.8984C12.458-46.6289 11.8457-47.2446 11.1118-47.2446C10.3359-47.2446 9.76562-46.6289 9.76562-45.8984C9.76562-45.168 10.3359-44.5522 11.1118-44.5522ZM11.1118-55.0991C11.8457-55.0991 12.458-55.7148 12.458-56.4453C12.458-57.1758 11.8457-57.7915 11.1118-57.7915C10.3359-57.7915 9.76562-57.1758 9.76562-56.4453C9.76562-55.7148 10.3359-55.0991 11.1118-55.0991ZM11.1118-65.7436C11.8457-65.7436 12.458-66.3594 12.458-67.0898C12.458-67.8203 11.8457-68.4361 11.1118-68.4361C10.3359-68.4361 9.76562-67.8203 9.76562-67.0898C9.76562-66.3594 10.3359-65.7436 11.1118-65.7436ZM21.7564-65.7436C22.4903-65.7436 23.1026-66.3594 23.1026-67.0898C23.1026-67.8203 22.4903-68.4361 21.7564-68.4361C20.9805-68.4361 20.4102-67.8203 20.4102-67.0898C20.4102-66.3594 20.9805-65.7436 21.7564-65.7436ZM32.3521-65.7436C33.086-65.7436 33.6983-66.3594 33.6983-67.0898C33.6983-67.8203 33.086-68.4361 32.3521-68.4361C31.5762-68.4361 31.0059-67.8203 31.0059-67.0898C31.0059-66.3594 31.5762-65.7436 32.3521-65.7436ZM42.9966-65.7436C43.7305-65.7436 44.3428-66.3594 44.3428-67.0898C44.3428-67.8203 43.7305-68.4361 42.9966-68.4361C42.2207-68.4361 41.6504-67.8203 41.6504-67.0898C41.6504-66.3594 42.2207-65.7436 42.9966-65.7436ZM53.6411-65.7436C54.375-65.7436 54.9873-66.3594 54.9873-67.0898C54.9873-67.8203 54.375-68.4361 53.6411-68.4361C52.8652-68.4361 52.2949-67.8203 52.2949-67.0898C52.2949-66.3594 52.8652-65.7436 53.6411-65.7436ZM64.2368-65.7436C64.9707-65.7436 65.583-66.3594 65.583-67.0898C65.583-67.8203 64.9707-68.4361 64.2368-68.4361C63.4609-68.4361 62.8906-67.8203 62.8906-67.0898C62.8906-66.3594 63.4609-65.7436 64.2368-65.7436ZM74.8814-65.7436C75.6153-65.7436 76.2276-66.3594 76.2276-67.0898C76.2276-67.8203 75.6153-68.4361 74.8814-68.4361C74.1055-68.4361 73.5352-67.8203 73.5352-67.0898C73.5352-66.3594 74.1055-65.7436 74.8814-65.7436ZM74.8814-55.0957C75.6153-55.0957 76.2276-55.7114 76.2276-56.4419C76.2276-57.1758 75.6153-57.7881 74.8814-57.7881C74.1055-57.7881 73.5352-57.1758 73.5352-56.4419C73.5352-55.7114 74.1055-55.0957 74.8814-55.0957ZM74.8814-44.5488C75.6153-44.5488 76.2276-45.1645 76.2276-45.895C76.2276-46.6289 75.6153-47.2412 74.8814-47.2412C74.1055-47.2412 73.5352-46.6289 73.5352-45.895C73.5352-45.1645 74.1055-44.5488 74.8814-44.5488ZM74.8814-33.9043C75.6153-33.9043 76.2276-34.52 76.2276-35.2505C76.2276-35.9844 75.6153-36.5967 74.8814-36.5967C74.1055-36.5967 73.5352-35.9844 73.5352-35.2505C73.5352-34.52 74.1055-33.9043 74.8814-33.9043ZM74.8814-23.2597C75.6153-23.2597 76.2276-23.8755 76.2276-24.606C76.2276-25.3399 75.6153-25.9522 74.8814-25.9522C74.1055-25.9522 73.5352-25.3399 73.5352-24.606C73.5352-23.8755 74.1055-23.2597 74.8814-23.2597ZM74.8814-12.664C75.6153-12.664 76.2276-13.2798 76.2276-14.0103C76.2276-14.7442 75.6153-15.3565 74.8814-15.3565C74.1055-15.3565 73.5352-14.7442 73.5352-14.0103C73.5352-13.2798 74.1055-12.664 74.8814-12.664ZM74.8814-1.9741C75.6153-1.9741 76.2276-2.58983 76.2276-3.32031C76.2276-4.05079 75.6153-4.66652 74.8814-4.66652C74.1055-4.66652 73.5352-4.05079 73.5352-3.32031C73.5352-2.58983 74.1055-1.9741 74.8814-1.9741ZM64.2368-1.9741C64.9707-1.9741 65.583-2.58983 65.583-3.32031C65.583-4.05079 64.9707-4.66652 64.2368-4.66652C63.4609-4.66652 62.8906-4.05079 62.8906-3.32031C62.8906-2.58983 63.4609-1.9741 64.2368-1.9741ZM53.6411-1.9741C54.375-1.9741 54.9873-2.58983 54.9873-3.32031C54.9873-4.05079 54.375-4.66652 53.6411-4.66652C52.8652-4.66652 52.2949-4.05079 52.2949-3.32031C52.2949-2.58983 52.8652-1.9741 53.6411-1.9741ZM42.9966-1.9741C43.7305-1.9741 44.3428-2.58983 44.3428-3.32031C44.3428-4.05079 43.7305-4.66652 42.9966-4.66652C42.2207-4.66652 41.6504-4.05079 41.6504-3.32031C41.6504-2.58983 42.2207-1.9741 42.9966-1.9741ZM32.3521-1.9741C33.086-1.9741 33.6983-2.58983 33.6983-3.32031C33.6983-4.05079 33.086-4.66652 32.3521-4.66652C31.5762-4.66652 31.0059-4.05079 31.0059-3.32031C31.0059-2.58983 31.5762-1.9741 32.3521-1.9741ZM21.7564-1.9741C22.4903-1.9741 23.1026-2.58983 23.1026-3.32031C23.1026-4.05079 22.4903-4.66652 21.7564-4.66652C20.9805-4.66652 20.4102-4.05079 20.4102-3.32031C20.4102-2.58983 20.9805-1.9741 21.7564-1.9741Z"/>
  </g>
 </g>
</svg>
