<?xml version="1.0" encoding="UTF-8"?>
<!--Generator: Apple Native CoreSVG 232.5-->
<!DOCTYPE svg
PUBLIC "-//W3C//DTD SVG 1.1//EN"
       "http://www.w3.org/Graphics/SVG/1.1/DTD/svg11.dtd">
<svg version="1.1" xmlns="http://www.w3.org/2000/svg" xmlns:xlink="http://www.w3.org/1999/xlink" width="3300" height="2200">
 <!--glyph: "", point size: 100.0, font version: "19.2d2e1", template writer version: "128"-->
 <style>.monochrome-0 {-sfsymbols-motion-group:0}

.multicolor-0:tintColor {-sfsymbols-motion-group:0}

.hierarchical-0:primary {-sfsymbols-motion-group:0}

.SFSymbolsPreviewWireframe {fill:none;opacity:1.0;stroke:black;stroke-width:0.5}
</style>
 <g id="Notes">
  <rect height="2200" id="artboard" style="fill:white;opacity:1" width="3300" x="0" y="0"/>
  <line style="fill:none;stroke:black;opacity:1;stroke-width:0.5;" x1="263" x2="3036" y1="292" y2="292"/>
  <text style="stroke:none;fill:black;font-family:sans-serif;font-size:13;font-weight:bold;" transform="matrix(1 0 0 1 263 322)">Weight/Scale Variations</text>
  <text style="stroke:none;fill:black;font-family:sans-serif;font-size:13;text-anchor:middle;" transform="matrix(1 0 0 1 559.711 322)">Ultralight</text>
  <text style="stroke:none;fill:black;font-family:sans-serif;font-size:13;text-anchor:middle;" transform="matrix(1 0 0 1 856.422 322)">Thin</text>
  <text style="stroke:none;fill:black;font-family:sans-serif;font-size:13;text-anchor:middle;" transform="matrix(1 0 0 1 1153.13 322)">Light</text>
  <text style="stroke:none;fill:black;font-family:sans-serif;font-size:13;text-anchor:middle;" transform="matrix(1 0 0 1 1449.84 322)">Regular</text>
  <text style="stroke:none;fill:black;font-family:sans-serif;font-size:13;text-anchor:middle;" transform="matrix(1 0 0 1 1746.56 322)">Medium</text>
  <text style="stroke:none;fill:black;font-family:sans-serif;font-size:13;text-anchor:middle;" transform="matrix(1 0 0 1 2043.27 322)">Semibold</text>
  <text style="stroke:none;fill:black;font-family:sans-serif;font-size:13;text-anchor:middle;" transform="matrix(1 0 0 1 2339.98 322)">Bold</text>
  <text style="stroke:none;fill:black;font-family:sans-serif;font-size:13;text-anchor:middle;" transform="matrix(1 0 0 1 2636.69 322)">Heavy</text>
  <text style="stroke:none;fill:black;font-family:sans-serif;font-size:13;text-anchor:middle;" transform="matrix(1 0 0 1 2933.4 322)">Black</text>
  <line style="fill:none;stroke:black;opacity:1;stroke-width:0.5;" x1="263" x2="3036" y1="1903" y2="1903"/>
  <g transform="matrix(0.2 0 0 0.2 263 1933)">
   <path d="m46.2402 4.15039c21.5332 0 39.4531-17.8711 39.4531-39.4043s-17.9688-39.4043-39.502-39.4043c-21.4844 0-39.3555 17.8711-39.3555 39.4043s17.9199 39.4043 39.4043 39.4043Zm0-7.42188c-17.7246 0-31.8848-14.209-31.8848-31.9824s14.1113-31.9824 31.8359-31.9824c17.7734 0 32.0312 14.209 32.0312 31.9824s-14.209 31.9824-31.9824 31.9824Zm-17.9688-31.9824c0 2.14844 1.51367 3.61328 3.75977 3.61328h10.498v10.5957c0 2.19727 1.46484 3.71094 3.61328 3.71094 2.24609 0 3.71094-1.51367 3.71094-3.71094v-10.5957h10.5957c2.19727 0 3.71094-1.46484 3.71094-3.61328 0-2.19727-1.51367-3.71094-3.71094-3.71094h-10.5957v-10.5469c0-2.24609-1.46484-3.75977-3.71094-3.75977-2.14844 0-3.61328 1.51367-3.61328 3.75977v10.5469h-10.498c-2.24609 0-3.75977 1.51367-3.75977 3.71094Z"/>
  </g>
  <g transform="matrix(0.2 0 0 0.2 281.506 1933)">
   <path d="m58.5449 14.5508c27.2461 0 49.8047-22.6074 49.8047-49.8047 0-27.2461-22.6074-49.8047-49.8535-49.8047-27.1973 0-49.7559 22.5586-49.7559 49.8047 0 27.1973 22.6074 49.8047 49.8047 49.8047Zm0-8.30078c-23.0469 0-41.4551-18.457-41.4551-41.5039s18.3594-41.5039 41.4062-41.5039 41.5527 18.457 41.5527 41.5039-18.457 41.5039-41.5039 41.5039Zm-22.6562-41.5039c0 2.39258 1.66016 4.00391 4.15039 4.00391h14.3555v14.4043c0 2.44141 1.66016 4.15039 4.05273 4.15039 2.44141 0 4.15039-1.66016 4.15039-4.15039v-14.4043h14.4043c2.44141 0 4.15039-1.61133 4.15039-4.00391 0-2.44141-1.70898-4.15039-4.15039-4.15039h-14.4043v-14.3555c0-2.49023-1.70898-4.19922-4.15039-4.19922-2.39258 0-4.05273 1.70898-4.05273 4.19922v14.3555h-14.3555c-2.49023 0-4.15039 1.70898-4.15039 4.15039Z"/>
  </g>
  <g transform="matrix(0.2 0 0 0.2 304.924 1933)">
   <path d="m74.8535 28.3203c34.8145 0 63.623-28.8086 63.623-63.5742 0-34.8145-28.8574-63.623-63.6719-63.623-34.7656 0-63.5254 28.8086-63.5254 63.623 0 34.7656 28.8086 63.5742 63.5742 63.5742Zm0-9.08203c-30.1758 0-54.4434-24.3164-54.4434-54.4922 0-30.2246 24.2188-54.4922 54.3945-54.4922 30.2246 0 54.541 24.2676 54.541 54.4922 0 30.1758-24.2676 54.4922-54.4922 54.4922Zm-28.8574-54.4922c0 2.58789 1.85547 4.39453 4.58984 4.39453h19.7266v19.7754c0 2.68555 1.85547 4.58984 4.44336 4.58984 2.68555 0 4.54102-1.85547 4.54102-4.58984v-19.7754h19.7754c2.68555 0 4.58984-1.80664 4.58984-4.39453 0-2.73438-1.85547-4.58984-4.58984-4.58984h-19.7754v-19.7266c0-2.73438-1.85547-4.63867-4.54102-4.63867-2.58789 0-4.44336 1.9043-4.44336 4.63867v19.7266h-19.7266c-2.73438 0-4.58984 1.85547-4.58984 4.58984Z"/>
  </g>
  <text style="stroke:none;fill:black;font-family:sans-serif;font-size:13;font-weight:bold;" transform="matrix(1 0 0 1 263 1953)">Design Variations</text>
  <text style="stroke:none;fill:black;font-family:sans-serif;font-size:13;" transform="matrix(1 0 0 1 263 1971)">Symbols are supported in up to nine weights and three scales.</text>
  <text style="stroke:none;fill:black;font-family:sans-serif;font-size:13;" transform="matrix(1 0 0 1 263 1989)">For optimal layout with text and other symbols, vertically align</text>
  <text style="stroke:none;fill:black;font-family:sans-serif;font-size:13;" transform="matrix(1 0 0 1 263 2007)">symbols with the adjacent text.</text>
  <line style="fill:none;stroke:#00AEEF;stroke-width:0.5;opacity:1.0;" x1="776" x2="776" y1="1919" y2="1933"/>
  <g transform="matrix(0.2 0 0 0.2 776 1933)">
   <path d="m16.5527 0.78125c2.58789 0 3.85742-0.976562 4.78516-3.71094l6.29883-17.2363h28.8086l6.29883 17.2363c0.927734 2.73438 2.19727 3.71094 4.73633 3.71094 2.58789 0 4.24805-1.5625 4.24805-4.00391 0-0.830078-0.146484-1.61133-0.537109-2.63672l-22.9004-60.9863c-1.12305-2.97852-3.125-4.49219-6.25-4.49219-3.02734 0-5.07812 1.46484-6.15234 4.44336l-22.9004 61.084c-0.390625 1.02539-0.537109 1.80664-0.537109 2.63672 0 2.44141 1.5625 3.95508 4.10156 3.95508Zm13.4766-28.3691 11.8652-32.8613h0.244141l11.8652 32.8613Z"/>
  </g>
  <line style="fill:none;stroke:#00AEEF;stroke-width:0.5;opacity:1.0;" x1="792.836" x2="792.836" y1="1919" y2="1933"/>
  <text style="stroke:none;fill:black;font-family:sans-serif;font-size:13;font-weight:bold;" transform="matrix(1 0 0 1 776 1953)">Margins</text>
  <text style="stroke:none;fill:black;font-family:sans-serif;font-size:13;" transform="matrix(1 0 0 1 776 1971)">Leading and trailing margins on the left and right side of each symbol</text>
  <text style="stroke:none;fill:black;font-family:sans-serif;font-size:13;" transform="matrix(1 0 0 1 776 1989)">can be adjusted by modifying the x-location of the margin guidelines.</text>
  <text style="stroke:none;fill:black;font-family:sans-serif;font-size:13;" transform="matrix(1 0 0 1 776 2007)">Modifications are automatically applied proportionally to all</text>
  <text style="stroke:none;fill:black;font-family:sans-serif;font-size:13;" transform="matrix(1 0 0 1 776 2025)">scales and weights.</text>
  <g transform="matrix(0.2 0 0 0.2 1289 1933)">
   <path d="m14.209 9.32617 8.49609 8.54492c4.29688 4.3457 9.22852 4.05273 13.8672-1.07422l53.4668-58.9355-4.83398-4.88281-53.0762 58.3984c-1.75781 2.00195-3.41797 2.49023-5.76172 0.146484l-5.85938-5.81055c-2.34375-2.29492-1.80664-4.00391 0.195312-5.81055l57.373-54.0039-4.88281-4.83398-57.959 54.4434c-4.93164 4.58984-5.32227 9.47266-1.02539 13.8184Zm32.0801-90.9668c-2.09961 2.05078-2.24609 4.93164-1.07422 6.88477 1.17188 1.80664 3.4668 2.97852 6.68945 2.14844 7.32422-1.70898 14.9414-2.00195 22.0703 2.68555l-2.92969 7.27539c-1.70898 4.15039-0.830078 7.08008 1.85547 9.81445l11.4746 11.5723c2.44141 2.44141 4.49219 2.53906 7.32422 2.05078l5.32227-0.976562 3.32031 3.36914-0.195312 2.7832c-0.195312 2.49023 0.439453 4.39453 2.88086 6.78711l3.80859 3.71094c2.39258 2.39258 5.46875 2.53906 7.8125 0.195312l14.5508-14.5996c2.34375-2.34375 2.24609-5.32227-0.146484-7.71484l-3.85742-3.80859c-2.39258-2.39258-4.24805-3.17383-6.64062-2.97852l-2.88086 0.244141-3.22266-3.17383 1.2207-5.61523c0.634766-2.83203-0.146484-5.0293-3.07617-7.95898l-10.9863-10.9375c-16.6992-16.6016-38.8672-16.2109-53.3203-1.75781Zm7.4707 1.85547c12.1582-8.88672 28.6133-7.37305 39.7461 3.75977l12.1582 12.0605c1.17188 1.17188 1.36719 2.09961 1.02539 3.80859l-1.61133 7.42188 7.51953 7.42188 4.93164-0.292969c1.26953-0.0488281 1.66016 0.0488281 2.63672 1.02539l2.88086 2.88086-12.207 12.207-2.88086-2.88086c-0.976562-0.976562-1.12305-1.36719-1.07422-2.68555l0.341797-4.88281-7.4707-7.42188-7.61719 1.26953c-1.61133 0.341797-2.34375 0.195312-3.56445-0.976562l-10.0098-10.0098c-1.26953-1.17188-1.41602-2.00195-0.634766-3.85742l4.39453-10.4492c-7.8125-7.27539-17.9688-10.4004-28.125-7.42188-0.78125 0.195312-1.07422-0.439453-0.439453-0.976562Z"/>
  </g>
  <text style="stroke:none;fill:black;font-family:sans-serif;font-size:13;font-weight:bold;" transform="matrix(1 0 0 1 1289 1953)">Exporting</text>
  <text style="stroke:none;fill:black;font-family:sans-serif;font-size:13;" transform="matrix(1 0 0 1 1289 1971)">Symbols should be outlined when exporting to ensure the</text>
  <text style="stroke:none;fill:black;font-family:sans-serif;font-size:13;" transform="matrix(1 0 0 1 1289 1989)">design is preserved when submitting to Xcode.</text>
  <text id="template-version" style="stroke:none;fill:black;font-family:sans-serif;font-size:13;text-anchor:end;" transform="matrix(1 0 0 1 3036 1933)">Template v.5.0</text>
  <text style="stroke:none;fill:black;font-family:sans-serif;font-size:13;text-anchor:end;" transform="matrix(1 0 0 1 3036 1951)">Requires Xcode 15 or greater</text>
  <text id="descriptive-name" style="stroke:none;fill:black;font-family:sans-serif;font-size:13;text-anchor:end;" transform="matrix(1 0 0 1 3036 1969)">Generated from applepay</text>
  <text style="stroke:none;fill:black;font-family:sans-serif;font-size:13;text-anchor:end;" transform="matrix(1 0 0 1 3036 1987)">Typeset at 100.0 points</text>
  <text style="stroke:none;fill:black;font-family:sans-serif;font-size:13;" transform="matrix(1 0 0 1 263 726)">Small</text>
  <text style="stroke:none;fill:black;font-family:sans-serif;font-size:13;" transform="matrix(1 0 0 1 263 1156)">Medium</text>
  <text style="stroke:none;fill:black;font-family:sans-serif;font-size:13;" transform="matrix(1 0 0 1 263 1586)">Large</text>
 </g>
 <g id="Guides">
  <g id="H-reference" style="fill:#27AAE1;stroke:none;" transform="matrix(1 0 0 1 339 696)">
   <path d="M0.993654 0L3.63775 0L29.3281-67.1323L30.0303-67.1323L30.0303-70.459L28.1226-70.459ZM11.6885-24.4799L46.9815-24.4799L46.2315-26.7285L12.4385-26.7285ZM55.1196 0L57.7637 0L30.6382-70.459L29.4326-70.459L29.4326-67.1323Z"/>
  </g>
  <line id="Baseline-S" style="fill:none;stroke:#27AAE1;opacity:1;stroke-width:0.5;" x1="263" x2="3036" y1="696" y2="696"/>
  <line id="Capline-S" style="fill:none;stroke:#27AAE1;opacity:1;stroke-width:0.5;" x1="263" x2="3036" y1="625.541" y2="625.541"/>
  <g id="H-reference" style="fill:#27AAE1;stroke:none;" transform="matrix(1 0 0 1 339 1126)">
   <path d="M0.993654 0L3.63775 0L29.3281-67.1323L30.0303-67.1323L30.0303-70.459L28.1226-70.459ZM11.6885-24.4799L46.9815-24.4799L46.2315-26.7285L12.4385-26.7285ZM55.1196 0L57.7637 0L30.6382-70.459L29.4326-70.459L29.4326-67.1323Z"/>
  </g>
  <line id="Baseline-M" style="fill:none;stroke:#27AAE1;opacity:1;stroke-width:0.5;" x1="263" x2="3036" y1="1126" y2="1126"/>
  <line id="Capline-M" style="fill:none;stroke:#27AAE1;opacity:1;stroke-width:0.5;" x1="263" x2="3036" y1="1055.54" y2="1055.54"/>
  <g id="H-reference" style="fill:#27AAE1;stroke:none;" transform="matrix(1 0 0 1 339 1556)">
   <path d="M0.993654 0L3.63775 0L29.3281-67.1323L30.0303-67.1323L30.0303-70.459L28.1226-70.459ZM11.6885-24.4799L46.9815-24.4799L46.2315-26.7285L12.4385-26.7285ZM55.1196 0L57.7637 0L30.6382-70.459L29.4326-70.459L29.4326-67.1323Z"/>
  </g>
  <line id="Baseline-L" style="fill:none;stroke:#27AAE1;opacity:1;stroke-width:0.5;" x1="263" x2="3036" y1="1556" y2="1556"/>
  <line id="Capline-L" style="fill:none;stroke:#27AAE1;opacity:1;stroke-width:0.5;" x1="263" x2="3036" y1="1485.54" y2="1485.54"/>
  <line id="left-margin-Ultralight-S" style="fill:none;stroke:#00AEEF;stroke-width:0.5;opacity:1.0;" x1="515.649" x2="515.649" y1="600.785" y2="720.121"/>
  <line id="right-margin-Ultralight-S" style="fill:none;stroke:#00AEEF;stroke-width:0.5;opacity:1.0;" x1="603.773" x2="603.773" y1="600.785" y2="720.121"/>
  <line id="left-margin-Regular-S" style="fill:none;stroke:#00AEEF;stroke-width:0.5;opacity:1.0;" x1="1403.58" x2="1403.58" y1="600.785" y2="720.121"/>
  <line id="right-margin-Regular-S" style="fill:none;stroke:#00AEEF;stroke-width:0.5;opacity:1.0;" x1="1496.11" x2="1496.11" y1="600.785" y2="720.121"/>
  <line id="left-margin-Black-S" style="fill:none;stroke:#00AEEF;stroke-width:0.5;opacity:1.0;" x1="2884.57" x2="2884.57" y1="600.785" y2="720.121"/>
  <line id="right-margin-Black-S" style="fill:none;stroke:#00AEEF;stroke-width:0.5;opacity:1.0;" x1="2982.23" x2="2982.23" y1="600.785" y2="720.121"/>
 </g>
 <g id="Symbols">
  <g id="Black-S" transform="matrix(1 0 0 1 2884.57 696)">
   <path class="monochrome-0 multicolor-0:tintColor hierarchical-0:primary SFSymbolsPreviewWireframe" d="M84.7735-7.44749L12.5553-7.44749C9.48829-7.44749 7-9.93578 7-13.0027L7-57.4447C7-60.5117 9.48829-63 12.5553-63L84.7735-63C87.8405-63 90.3288-60.5117 90.3288-57.4447L90.3288-13.0027C90.3288-9.93578 87.8405-7.44749 84.7735-7.44749ZM71.3321-23.9049L71.3321-21.3356C71.7002-21.2847 72.1237-21.2546 72.5543-21.2546L72.5913-21.2546L72.589-21.2546C75.8157-21.2546 77.348-22.5092 78.6674-26.2242L84.4865-42.5428L81.1209-42.5428L77.2184-29.937L77.1489-29.937L73.2464-42.5428L69.7836-42.5428L75.3967-27.0043L75.0958-26.0599C74.8921-24.7891 73.8019-23.8309 72.4918-23.8309C72.427-23.8309 72.3622-23.8332 72.2973-23.8378L72.3066-23.8378C72.0474-23.8494 71.5381-23.8795 71.3344-23.9049L71.3321-23.9049ZM20.2238-44.3575L20.1636-44.3575C18.1128-44.2996 16.3421-43.1562 15.4-41.485L15.3861-41.4572C13.4325-38.0963 14.6755-32.953 16.8374-29.8213C17.8513-28.3399 18.9623-26.8909 20.4275-26.8909L20.5062-26.8909C21.1196-26.9302 21.6867-27.0899 22.1982-27.3469L22.1728-27.3353C22.7908-27.6455 23.5176-27.8283 24.2861-27.8353L24.2884-27.8353C25.0314-27.8306 25.7328-27.6501 26.3508-27.3353L26.3253-27.3469C26.823-27.0876 27.4086-26.9302 28.0313-26.9163L28.0359-26.9163L28.0984-26.9163C29.7302-26.9464 30.7533-28.444 31.6584-29.7634C32.3042-30.6985 32.8389-31.7749 33.2138-32.9253L33.2393-33.0132L33.2393-33.0364L33.1976-33.0549C31.3922-33.8766 30.1585-35.6589 30.1469-37.7329L30.1469-37.7352C30.1654-39.5777 31.1353-41.1887 32.5889-42.103L32.6097-42.1146L32.6514-42.1423C31.7047-43.5034 30.1654-44.3969 28.4155-44.4431L28.4085-44.4431C28.3275-44.4431 28.2442-44.4431 28.1632-44.4431C27.1308-44.3876 26.1679-44.1399 25.2953-43.7325L25.3439-43.7534C24.9458-43.5589 24.4828-43.4177 23.9944-43.3576L23.9736-43.3552C23.4459-43.4131 22.9644-43.5566 22.5246-43.7742L22.5501-43.7626C21.8719-44.0913 21.0779-44.3066 20.2423-44.3621L20.2238-44.3621L20.2238-44.3575ZM62.1498-40.154C64.1867-40.154 65.3116-39.2004 65.3116-37.4713L65.3116-36.2931L61.1776-36.0478C57.3005-35.814 55.252-34.2423 55.252-31.504C55.2798-28.9394 57.363-26.8724 59.9323-26.8724C60.1267-26.8724 60.3165-26.8839 60.504-26.9071L60.4809-26.9048C60.5248-26.9024 60.5781-26.9024 60.6313-26.9024C62.6428-26.9024 64.4019-27.9857 65.3556-29.6037L65.3695-29.6291L65.4389-29.6291L65.4389-27.0784L68.5059-27.0784L68.5059-37.6935C68.5059-40.7721 66.05-42.7581 62.2493-42.7581C58.7448-42.7581 56.1385-40.7489 56.0343-37.9829L59.0203-37.9829C59.3536-39.2536 60.4901-40.1749 61.8419-40.1749C61.9507-40.1749 62.0595-40.1679 62.166-40.1563L62.1521-40.1587L62.1498-40.154ZM39.4056-48.4082L39.4056-27.076L42.7179-27.076L42.7179-34.3719L47.2941-34.3719C47.4006-34.365 47.5279-34.3627 47.6529-34.3627C51.398-34.3627 54.4326-37.3972 54.4326-41.1424C54.4326-41.2373 54.4303-41.3299 54.428-41.4225L54.428-41.4086C54.4326-41.4965 54.4349-41.5984 54.4349-41.7026C54.4349-45.4107 51.4304-48.4152 47.7223-48.4152C47.6112-48.4152 47.5001-48.4128 47.3913-48.4082L47.4075-48.4082L39.4056-48.4082ZM28.4178-50.0377C27.0429-49.9035 25.8439-49.2508 24.999-48.2786L24.9944-48.2716C24.2236-47.4083 23.7537-46.2625 23.7537-45.0079C23.7537-44.8991 23.7583-44.7904 23.7653-44.6839L23.7653-44.6978C23.844-44.6978 23.9273-44.6885 24.0199-44.6885C25.3161-44.7626 26.4526-45.3829 27.2095-46.325L27.2165-46.3342C27.9734-47.23 28.434-48.3966 28.434-49.6743C28.434-49.8016 28.4294-49.929 28.4201-50.0563L28.4201-50.0401L28.4178-50.0377ZM61.3697-29.4347C59.6152-29.4347 58.4787-30.2796 58.4787-31.5851C58.4787-32.9322 59.5666-33.7076 61.6266-33.8303L65.307-34.0618L65.307-32.8558C65.226-30.9393 63.652-29.4185 61.7239-29.4185C61.5989-29.4185 61.4762-29.4255 61.3535-29.437L61.3697-29.4347ZM46.514-37.1426L42.7087-37.1426L42.7087-45.6167L46.5279-45.6167C46.69-45.6398 46.8774-45.6537 47.0696-45.6537C49.2708-45.6537 51.0555-43.8691 51.0555-41.6678C51.0555-41.5706 51.0508-41.4711 51.0439-41.3762L51.0439-41.3901C51.0508-41.3067 51.0531-41.2072 51.0531-41.1077C51.0531-38.8995 49.2616-37.1079 47.0534-37.1079C46.8636-37.1079 46.6738-37.1218 46.4909-37.1473L46.5117-37.1449L46.514-37.1426Z"/>
  </g>
  <g id="Regular-S" transform="matrix(1 0 0 1 1403.58 696)">
   <path class="monochrome-0 multicolor-0:tintColor hierarchical-0:primary SFSymbolsPreviewWireframe" d="M79.2895-10.0789L13.0921-10.0789C10.2808-10.0789 8-12.3597 8-15.171L8-55.9079C8-58.7192 10.2808-61 13.0921-61L79.2895-61C82.1008-61 84.3816-58.7192 84.3816-55.9079L84.3816-15.171C84.3816-12.3597 82.1008-10.0789 79.2895-10.0789ZM66.9687-25.1643L66.9687-22.8092C67.3061-22.7625 67.6944-22.7349 68.089-22.7349L68.123-22.7349L68.1208-22.7349C71.0785-22.7349 72.4831-23.8849 73.6925-27.2902L79.0264-42.2483L75.9415-42.2483L72.3643-30.6935L72.3006-30.6935L68.7234-42.2483L65.5493-42.2483L70.6945-28.0053L70.4187-27.1396C70.2319-25.9748 69.2326-25.0964 68.0317-25.0964C67.9723-25.0964 67.9129-25.0985 67.8535-25.1027L67.862-25.1027C67.6244-25.1134 67.1576-25.1409 66.9709-25.1643L66.9687-25.1643ZM20.1213-43.9117L20.0662-43.9117C18.1863-43.8587 16.5632-42.8106 15.6997-41.2787L15.687-41.2532C13.8962-38.1725 15.0356-33.4581 17.0173-30.5874C17.9466-29.2295 18.965-27.9013 20.3081-27.9013L20.3802-27.9013C20.9424-27.9374 21.4623-28.0838 21.9312-28.3193L21.9078-28.3087C22.4743-28.593 23.1405-28.7606 23.8449-28.7669L23.8471-28.7669C24.5281-28.7627 25.171-28.5972 25.7375-28.3087L25.7142-28.3193C26.1703-28.0816 26.7071-27.9374 27.2779-27.9246L27.2821-27.9246L27.3394-27.9246C28.8352-27.9522 29.773-29.325 30.6026-30.5343C31.1946-31.3915 31.6847-32.3781 32.0284-33.4326L32.0517-33.5132L32.0517-33.5344L32.0135-33.5514C30.3586-34.3046 29.2277-35.9383 29.2171-37.8394L29.2171-37.8415C29.2341-39.5304 30.1231-41.0071 31.4555-41.8452L31.4746-41.8558L31.5128-41.8813C30.645-43.1288 29.2341-43.9478 27.6301-43.9902L27.6237-43.9902C27.5495-43.9902 27.4731-43.9902 27.3988-43.9902C26.4525-43.9393 25.5699-43.7123 24.77-43.3389L24.8146-43.358C24.4496-43.1797 24.0253-43.0503 23.5776-42.9951L23.5585-42.993C23.0748-43.0461 22.6334-43.1776 22.2303-43.3771L22.2537-43.3664C21.632-43.6677 20.9043-43.8651 20.1383-43.916L20.1213-43.916L20.1213-43.9117ZM58.5519-40.0587C60.419-40.0587 61.4502-39.1846 61.4502-37.5996L61.4502-36.5197L57.6608-36.2948C54.1069-36.0805 52.2292-34.6398 52.2292-32.1299C52.2547-29.779 54.1642-27.8843 56.5193-27.8843C56.6975-27.8843 56.8715-27.8949 57.0434-27.9161L57.0222-27.914C57.0625-27.9119 57.1113-27.9119 57.1601-27.9119C59.0038-27.9119 60.6163-28.9049 61.4905-30.3879L61.5032-30.4113L61.5669-30.4113L61.5669-28.0731L64.3781-28.0731L64.3781-37.8033C64.3781-40.6252 62.127-42.4456 58.6432-42.4456C55.4309-42.4456 53.0418-40.604 52.9464-38.0685L55.6834-38.0685C55.9889-39.2334 57.0306-40.0778 58.2697-40.0778C58.3694-40.0778 58.4692-40.0714 58.5668-40.0608L58.554-40.0629L58.5519-40.0587ZM37.704-47.6247L37.704-28.071L40.7401-28.071L40.7401-34.7587L44.9348-34.7587C45.0324-34.7523 45.1491-34.7502 45.2636-34.7502C48.6966-34.7502 51.4781-37.5317 51.4781-40.9647C51.4781-41.0517 51.476-41.1365 51.4739-41.2214L51.4739-41.2087C51.4781-41.2893 51.4802-41.3826 51.4802-41.4781C51.4802-44.8771 48.7263-47.6311 45.3273-47.6311C45.2254-47.6311 45.1236-47.629 45.0239-47.6247L45.0387-47.6247L37.704-47.6247ZM27.6322-49.1184C26.3719-48.9954 25.2729-48.397 24.4984-47.5059L24.4942-47.4995C23.7877-46.7081 23.357-45.6579 23.357-44.5079C23.357-44.4082 23.3612-44.3085 23.3676-44.2109L23.3676-44.2236C23.4397-44.2236 23.5161-44.2151 23.601-44.2151C24.7891-44.283 25.8309-44.8516 26.5247-45.7152L26.531-45.7237C27.2248-46.5448 27.6471-47.6141 27.6471-48.7853C27.6471-48.902 27.6428-49.0187 27.6343-49.1354L27.6343-49.1205L27.6322-49.1184ZM57.8369-30.2331C56.2286-30.2331 55.1869-31.0075 55.1869-32.2041C55.1869-33.439 56.1841-34.1497 58.0724-34.2622L61.4459-34.4744L61.4459-33.3689C61.3717-31.6122 59.9289-30.2182 58.1615-30.2182C58.0469-30.2182 57.9345-30.2246 57.822-30.2352L57.8369-30.2331ZM44.2198-37.2984L40.7317-37.2984L40.7317-45.0659L44.2325-45.0659C44.381-45.0872 44.5529-45.0999 44.729-45.0999C46.7467-45.0999 48.3826-43.464 48.3826-41.4463C48.3826-41.3572 48.3783-41.266 48.3719-41.179L48.3719-41.1917C48.3783-41.1153 48.3804-41.0241 48.3804-40.9328C48.3804-38.9087 46.7382-37.2665 44.7141-37.2665C44.5401-37.2665 44.3661-37.2793 44.1985-37.3026L44.2176-37.3005L44.2198-37.2984Z"/>
  </g>
  <g id="Ultralight-S" transform="matrix(1 0 0 1 515.649 696)">
   <path class="monochrome-0 multicolor-0:tintColor hierarchical-0:primary SFSymbolsPreviewWireframe" d="M77.6405-10.0789L11.4431-10.0789C8.63184-10.0789 6.351-12.3597 6.351-15.171L6.351-55.9079C6.351-58.7192 8.63184-61 11.4431-61L77.6405-61C80.4518-61 82.7326-58.7192 82.7326-55.9079L82.7326-15.171C82.7326-12.3597 80.4518-10.0789 77.6405-10.0789ZM65.3197-25.1643L65.3197-22.8092C65.6571-22.7625 66.0454-22.7349 66.44-22.7349L66.474-22.7349L66.4718-22.7349C69.4295-22.7349 70.8341-23.8849 72.0435-27.2902L77.3774-42.2483L74.2925-42.2483L70.7153-30.6935L70.6516-30.6935L67.0744-42.2483L63.9003-42.2483L69.0455-28.0053L68.7697-27.1396C68.5829-25.9748 67.5836-25.0964 66.3827-25.0964C66.3233-25.0964 66.2639-25.0985 66.2045-25.1027L66.213-25.1027C65.9754-25.1134 65.5086-25.1409 65.3219-25.1643L65.3197-25.1643ZM18.4723-43.9117L18.4172-43.9117C16.5373-43.8587 14.9142-42.8106 14.0507-41.2787L14.038-41.2532C12.2472-38.1725 13.3866-33.4581 15.3683-30.5874C16.2976-29.2295 17.316-27.9013 18.6591-27.9013L18.7312-27.9013C19.2934-27.9374 19.8133-28.0838 20.2822-28.3193L20.2588-28.3087C20.8253-28.593 21.4915-28.7606 22.1959-28.7669L22.1981-28.7669C22.8791-28.7627 23.522-28.5972 24.0885-28.3087L24.0652-28.3193C24.5213-28.0816 25.0581-27.9374 25.6289-27.9246L25.6331-27.9246L25.6904-27.9246C27.1862-27.9522 28.124-29.325 28.9536-30.5343C29.5456-31.3915 30.0357-32.3781 30.3794-33.4326L30.4027-33.5132L30.4027-33.5344L30.3645-33.5514C28.7096-34.3046 27.5787-35.9383 27.5681-37.8394L27.5681-37.8415C27.5851-39.5304 28.4741-41.0071 29.8065-41.8452L29.8256-41.8558L29.8638-41.8813C28.996-43.1288 27.5851-43.9478 25.9811-43.9902L25.9747-43.9902C25.9005-43.9902 25.8241-43.9902 25.7498-43.9902C24.8035-43.9393 23.9209-43.7123 23.121-43.3389L23.1656-43.358C22.8006-43.1797 22.3763-43.0503 21.9286-42.9951L21.9095-42.993C21.4258-43.0461 20.9844-43.1776 20.5813-43.3771L20.6047-43.3664C19.983-43.6677 19.2553-43.8651 18.4893-43.916L18.4723-43.916L18.4723-43.9117ZM56.9029-40.0587C58.77-40.0587 59.8012-39.1846 59.8012-37.5996L59.8012-36.5197L56.0118-36.2948C52.4579-36.0805 50.5802-34.6398 50.5802-32.1299C50.6057-29.779 52.5152-27.8843 54.8703-27.8843C55.0485-27.8843 55.2225-27.8949 55.3944-27.9161L55.3732-27.914C55.4135-27.9119 55.4623-27.9119 55.5111-27.9119C57.3548-27.9119 58.9673-28.9049 59.8415-30.3879L59.8542-30.4113L59.9179-30.4113L59.9179-28.0731L62.7291-28.0731L62.7291-37.8033C62.7291-40.6252 60.478-42.4456 56.9942-42.4456C53.7819-42.4456 51.3928-40.604 51.2974-38.0685L54.0344-38.0685C54.3399-39.2334 55.3816-40.0778 56.6207-40.0778C56.7204-40.0778 56.8202-40.0714 56.9178-40.0608L56.905-40.0629L56.9029-40.0587ZM36.055-47.6247L36.055-28.071L39.0911-28.071L39.0911-34.7587L43.2858-34.7587C43.3834-34.7523 43.5001-34.7502 43.6146-34.7502C47.0476-34.7502 49.8291-37.5317 49.8291-40.9647C49.8291-41.0517 49.827-41.1365 49.8249-41.2214L49.8249-41.2087C49.8291-41.2893 49.8312-41.3826 49.8312-41.4781C49.8312-44.8771 47.0773-47.6311 43.6783-47.6311C43.5764-47.6311 43.4746-47.629 43.3749-47.6247L43.3897-47.6247L36.055-47.6247ZM25.9832-49.1184C24.7229-48.9954 23.6239-48.397 22.8494-47.5059L22.8452-47.4995C22.1387-46.7081 21.708-45.6579 21.708-44.5079C21.708-44.4082 21.7122-44.3085 21.7186-44.2109L21.7186-44.2236C21.7907-44.2236 21.8671-44.2151 21.952-44.2151C23.1401-44.283 24.1819-44.8516 24.8757-45.7152L24.882-45.7237C25.5758-46.5448 25.9981-47.6141 25.9981-48.7853C25.9981-48.902 25.9938-49.0187 25.9853-49.1354L25.9853-49.1205L25.9832-49.1184ZM56.1879-30.2331C54.5796-30.2331 53.5379-31.0075 53.5379-32.2041C53.5379-33.439 54.5351-34.1497 56.4234-34.2622L59.7969-34.4744L59.7969-33.3689C59.7227-31.6122 58.2799-30.2182 56.5125-30.2182C56.3979-30.2182 56.2855-30.2246 56.173-30.2352L56.1879-30.2331ZM42.5708-37.2984L39.0827-37.2984L39.0827-45.0659L42.5835-45.0659C42.732-45.0872 42.9039-45.0999 43.08-45.0999C45.0977-45.0999 46.7336-43.464 46.7336-41.4463C46.7336-41.3572 46.7293-41.266 46.7229-41.179L46.7229-41.1917C46.7293-41.1153 46.7314-41.0241 46.7314-40.9328C46.7314-38.9087 45.0892-37.2665 43.0651-37.2665C42.8911-37.2665 42.7171-37.2793 42.5495-37.3026L42.5686-37.3005L42.5708-37.2984Z"/>
  </g>
 </g>
</svg>
