<?xml version="1.0" encoding="UTF-8"?>
<!--Generator: Apple Native CoreSVG 232.5-->
<!DOCTYPE svg
PUBLIC "-//W3C//DTD SVG 1.1//EN"
       "http://www.w3.org/Graphics/SVG/1.1/DTD/svg11.dtd">
<svg version="1.1" xmlns="http://www.w3.org/2000/svg" xmlns:xlink="http://www.w3.org/1999/xlink" width="3300" height="2200">
 <g id="Notes">
  <rect height="2200" id="artboard" style="fill:white;opacity:1" width="3300" x="0" y="0"/>
  <line style="fill:none;stroke:black;opacity:1;stroke-width:0.5;" x1="263" x2="3036" y1="292" y2="292"/>
  <text style="stroke:none;fill:black;font-family:sans-serif;font-size:13;font-weight:bold;" transform="matrix(1 0 0 1 263 322)">Weight/Scale Variations</text>
  <text style="stroke:none;fill:black;font-family:sans-serif;font-size:13;text-anchor:middle;" transform="matrix(1 0 0 1 559.711 322)">Ultralight</text>
  <text style="stroke:none;fill:black;font-family:sans-serif;font-size:13;text-anchor:middle;" transform="matrix(1 0 0 1 856.422 322)">Thin</text>
  <text style="stroke:none;fill:black;font-family:sans-serif;font-size:13;text-anchor:middle;" transform="matrix(1 0 0 1 1153.13 322)">Light</text>
  <text style="stroke:none;fill:black;font-family:sans-serif;font-size:13;text-anchor:middle;" transform="matrix(1 0 0 1 1449.84 322)">Regular</text>
  <text style="stroke:none;fill:black;font-family:sans-serif;font-size:13;text-anchor:middle;" transform="matrix(1 0 0 1 1746.56 322)">Medium</text>
  <text style="stroke:none;fill:black;font-family:sans-serif;font-size:13;text-anchor:middle;" transform="matrix(1 0 0 1 2043.27 322)">Semibold</text>
  <text style="stroke:none;fill:black;font-family:sans-serif;font-size:13;text-anchor:middle;" transform="matrix(1 0 0 1 2339.98 322)">Bold</text>
  <text style="stroke:none;fill:black;font-family:sans-serif;font-size:13;text-anchor:middle;" transform="matrix(1 0 0 1 2636.69 322)">Heavy</text>
  <text style="stroke:none;fill:black;font-family:sans-serif;font-size:13;text-anchor:middle;" transform="matrix(1 0 0 1 2933.4 322)">Black</text>
  <line style="fill:none;stroke:black;opacity:1;stroke-width:0.5;" x1="263" x2="3036" y1="1903" y2="1903"/>
  <g transform="matrix(0.2 0 0 0.2 263 1933)">
   <path d="m46.2402 4.15039c21.5332 0 39.4531-17.8711 39.4531-39.4043s-17.9688-39.4043-39.502-39.4043c-21.4844 0-39.3555 17.8711-39.3555 39.4043s17.9199 39.4043 39.4043 39.4043Zm0-7.42188c-17.7246 0-31.8848-14.209-31.8848-31.9824s14.1113-31.9824 31.8359-31.9824c17.7734 0 32.0312 14.209 32.0312 31.9824s-14.209 31.9824-31.9824 31.9824Zm-17.9688-31.9824c0 2.14844 1.51367 3.61328 3.75977 3.61328h10.498v10.5957c0 2.19727 1.46484 3.71094 3.61328 3.71094 2.24609 0 3.71094-1.51367 3.71094-3.71094v-10.5957h10.5957c2.19727 0 3.71094-1.46484 3.71094-3.61328 0-2.19727-1.51367-3.71094-3.71094-3.71094h-10.5957v-10.5469c0-2.24609-1.46484-3.75977-3.71094-3.75977-2.14844 0-3.61328 1.51367-3.61328 3.75977v10.5469h-10.498c-2.24609 0-3.75977 1.51367-3.75977 3.71094Z"/>
  </g>
  <g transform="matrix(0.2 0 0 0.2 281.506 1933)">
   <path d="m58.5449 14.5508c27.2461 0 49.8047-22.6074 49.8047-49.8047 0-27.2461-22.6074-49.8047-49.8535-49.8047-27.1973 0-49.7559 22.5586-49.7559 49.8047 0 27.1973 22.6074 49.8047 49.8047 49.8047Zm0-8.30078c-23.0469 0-41.4551-18.457-41.4551-41.5039s18.3594-41.5039 41.4062-41.5039 41.5527 18.457 41.5527 41.5039-18.457 41.5039-41.5039 41.5039Zm-22.6562-41.5039c0 2.39258 1.66016 4.00391 4.15039 4.00391h14.3555v14.4043c0 2.44141 1.66016 4.15039 4.05273 4.15039 2.44141 0 4.15039-1.66016 4.15039-4.15039v-14.4043h14.4043c2.44141 0 4.15039-1.61133 4.15039-4.00391 0-2.44141-1.70898-4.15039-4.15039-4.15039h-14.4043v-14.3555c0-2.49023-1.70898-4.19922-4.15039-4.19922-2.39258 0-4.05273 1.70898-4.05273 4.19922v14.3555h-14.3555c-2.49023 0-4.15039 1.70898-4.15039 4.15039Z"/>
  </g>
  <g transform="matrix(0.2 0 0 0.2 304.924 1933)">
   <path d="m74.8535 28.3203c34.8145 0 63.623-28.8086 63.623-63.5742 0-34.8145-28.8574-63.623-63.6719-63.623-34.7656 0-63.5254 28.8086-63.5254 63.623 0 34.7656 28.8086 63.5742 63.5742 63.5742Zm0-9.08203c-30.1758 0-54.4434-24.3164-54.4434-54.4922 0-30.2246 24.2188-54.4922 54.3945-54.4922 30.2246 0 54.541 24.2676 54.541 54.4922 0 30.1758-24.2676 54.4922-54.4922 54.4922Zm-28.8574-54.4922c0 2.58789 1.85547 4.39453 4.58984 4.39453h19.7266v19.7754c0 2.68555 1.85547 4.58984 4.44336 4.58984 2.68555 0 4.54102-1.85547 4.54102-4.58984v-19.7754h19.7754c2.68555 0 4.58984-1.80664 4.58984-4.39453 0-2.73438-1.85547-4.58984-4.58984-4.58984h-19.7754v-19.7266c0-2.73438-1.85547-4.63867-4.54102-4.63867-2.58789 0-4.44336 1.9043-4.44336 4.63867v19.7266h-19.7266c-2.73438 0-4.58984 1.85547-4.58984 4.58984Z"/>
  </g>
  <text style="stroke:none;fill:black;font-family:sans-serif;font-size:13;font-weight:bold;" transform="matrix(1 0 0 1 263 1953)">Design Variations</text>
  <text style="stroke:none;fill:black;font-family:sans-serif;font-size:13;" transform="matrix(1 0 0 1 263 1971)">Symbols are supported in up to nine weights and three scales.</text>
  <text style="stroke:none;fill:black;font-family:sans-serif;font-size:13;" transform="matrix(1 0 0 1 263 1989)">For optimal layout with text and other symbols, vertically align</text>
  <text style="stroke:none;fill:black;font-family:sans-serif;font-size:13;" transform="matrix(1 0 0 1 263 2007)">symbols with the adjacent text.</text>
  <line style="fill:none;stroke:#00AEEF;stroke-width:0.5;opacity:1.0;" x1="776" x2="776" y1="1919" y2="1933"/>
  <g transform="matrix(0.2 0 0 0.2 776 1933)">
   <path d="m16.5527 0.78125c2.58789 0 3.85742-0.976562 4.78516-3.71094l6.29883-17.2363h28.8086l6.29883 17.2363c0.927734 2.73438 2.19727 3.71094 4.73633 3.71094 2.58789 0 4.24805-1.5625 4.24805-4.00391 0-0.830078-0.146484-1.61133-0.537109-2.63672l-22.9004-60.9863c-1.12305-2.97852-3.125-4.49219-6.25-4.49219-3.02734 0-5.07812 1.46484-6.15234 4.44336l-22.9004 61.084c-0.390625 1.02539-0.537109 1.80664-0.537109 2.63672 0 2.44141 1.5625 3.95508 4.10156 3.95508Zm13.4766-28.3691 11.8652-32.8613h0.244141l11.8652 32.8613Z"/>
  </g>
  <line style="fill:none;stroke:#00AEEF;stroke-width:0.5;opacity:1.0;" x1="792.836" x2="792.836" y1="1919" y2="1933"/>
  <text style="stroke:none;fill:black;font-family:sans-serif;font-size:13;font-weight:bold;" transform="matrix(1 0 0 1 776 1953)">Margins</text>
  <text style="stroke:none;fill:black;font-family:sans-serif;font-size:13;" transform="matrix(1 0 0 1 776 1971)">Leading and trailing margins on the left and right side of each symbol</text>
  <text style="stroke:none;fill:black;font-family:sans-serif;font-size:13;" transform="matrix(1 0 0 1 776 1989)">can be adjusted by modifying the x-location of the margin guidelines.</text>
  <text style="stroke:none;fill:black;font-family:sans-serif;font-size:13;" transform="matrix(1 0 0 1 776 2007)">Modifications are automatically applied proportionally to all</text>
  <text style="stroke:none;fill:black;font-family:sans-serif;font-size:13;" transform="matrix(1 0 0 1 776 2025)">scales and weights.</text>
  <g transform="matrix(0.2 0 0 0.2 1289 1933)">
   <path d="m14.209 9.32617 8.49609 8.54492c4.29688 4.3457 9.22852 4.05273 13.8672-1.07422l53.4668-58.9355-4.83398-4.88281-53.0762 58.3984c-1.75781 2.00195-3.41797 2.49023-5.76172 0.146484l-5.85938-5.81055c-2.34375-2.29492-1.80664-4.00391 0.195312-5.81055l57.373-54.0039-4.88281-4.83398-57.959 54.4434c-4.93164 4.58984-5.32227 9.47266-1.02539 13.8184Zm32.0801-90.9668c-2.09961 2.05078-2.24609 4.93164-1.07422 6.88477 1.17188 1.80664 3.4668 2.97852 6.68945 2.14844 7.32422-1.70898 14.9414-2.00195 22.0703 2.68555l-2.92969 7.27539c-1.70898 4.15039-0.830078 7.08008 1.85547 9.81445l11.4746 11.5723c2.44141 2.44141 4.49219 2.53906 7.32422 2.05078l5.32227-0.976562 3.32031 3.36914-0.195312 2.7832c-0.195312 2.49023 0.439453 4.39453 2.88086 6.78711l3.80859 3.71094c2.39258 2.39258 5.46875 2.53906 7.8125 0.195312l14.5508-14.5996c2.34375-2.34375 2.24609-5.32227-0.146484-7.71484l-3.85742-3.80859c-2.39258-2.39258-4.24805-3.17383-6.64062-2.97852l-2.88086 0.244141-3.22266-3.17383 1.2207-5.61523c0.634766-2.83203-0.146484-5.0293-3.07617-7.95898l-10.9863-10.9375c-16.6992-16.6016-38.8672-16.2109-53.3203-1.75781Zm7.4707 1.85547c12.1582-8.88672 28.6133-7.37305 39.7461 3.75977l12.1582 12.0605c1.17188 1.17188 1.36719 2.09961 1.02539 3.80859l-1.61133 7.42188 7.51953 7.42188 4.93164-0.292969c1.26953-0.0488281 1.66016 0.0488281 2.63672 1.02539l2.88086 2.88086-12.207 12.207-2.88086-2.88086c-0.976562-0.976562-1.12305-1.36719-1.07422-2.68555l0.341797-4.88281-7.4707-7.42188-7.61719 1.26953c-1.61133 0.341797-2.34375 0.195312-3.56445-0.976562l-10.0098-10.0098c-1.26953-1.17188-1.41602-2.00195-0.634766-3.85742l4.39453-10.4492c-7.8125-7.27539-17.9688-10.4004-28.125-7.42188-0.78125 0.195312-1.07422-0.439453-0.439453-0.976562Z"/>
  </g>
  <text style="stroke:none;fill:black;font-family:sans-serif;font-size:13;font-weight:bold;" transform="matrix(1 0 0 1 1289 1953)">Exporting</text>
  <text style="stroke:none;fill:black;font-family:sans-serif;font-size:13;" transform="matrix(1 0 0 1 1289 1971)">Symbols should be outlined when exporting to ensure the</text>
  <text style="stroke:none;fill:black;font-family:sans-serif;font-size:13;" transform="matrix(1 0 0 1 1289 1989)">design is preserved when submitting to Xcode.</text>
  <text id="template-version" style="stroke:none;fill:black;font-family:sans-serif;font-size:13;text-anchor:end;" transform="matrix(1 0 0 1 3036 1933)">Template v.2.0</text>
  <text style="stroke:none;fill:black;font-family:sans-serif;font-size:13;text-anchor:end;" transform="matrix(1 0 0 1 3036 1951)">Requires Xcode 12 or greater</text>
  <text id="descriptive-name" style="stroke:none;fill:black;font-family:sans-serif;font-size:13;text-anchor:end;" transform="matrix(1 0 0 1 3036 1969)">Generated from cable.connector.lightning</text>
  <text style="stroke:none;fill:black;font-family:sans-serif;font-size:13;text-anchor:end;" transform="matrix(1 0 0 1 3036 1987)">Typeset at 100.0 points</text>
  <text style="stroke:none;fill:black;font-family:sans-serif;font-size:13;" transform="matrix(1 0 0 1 263 726)">Small</text>
  <text style="stroke:none;fill:black;font-family:sans-serif;font-size:13;" transform="matrix(1 0 0 1 263 1156)">Medium</text>
  <text style="stroke:none;fill:black;font-family:sans-serif;font-size:13;" transform="matrix(1 0 0 1 263 1586)">Large</text>
 </g>
 <g id="Guides">
  <g id="H-reference" style="fill:#27AAE1;stroke:none;" transform="matrix(1 0 0 1 339 696)">
   <path d="M0.993654 0L3.63775 0L29.3281-67.1323L30.0303-67.1323L30.0303-70.459L28.1226-70.459ZM11.6885-24.4799L46.9815-24.4799L46.2315-26.7285L12.4385-26.7285ZM55.1196 0L57.7637 0L30.6382-70.459L29.4326-70.459L29.4326-67.1323Z"/>
  </g>
  <line id="Baseline-S" style="fill:none;stroke:#27AAE1;opacity:1;stroke-width:0.5;" x1="263" x2="3036" y1="696" y2="696"/>
  <line id="Capline-S" style="fill:none;stroke:#27AAE1;opacity:1;stroke-width:0.5;" x1="263" x2="3036" y1="625.541" y2="625.541"/>
  <g id="H-reference" style="fill:#27AAE1;stroke:none;" transform="matrix(1 0 0 1 339 1126)">
   <path d="M0.993654 0L3.63775 0L29.3281-67.1323L30.0303-67.1323L30.0303-70.459L28.1226-70.459ZM11.6885-24.4799L46.9815-24.4799L46.2315-26.7285L12.4385-26.7285ZM55.1196 0L57.7637 0L30.6382-70.459L29.4326-70.459L29.4326-67.1323Z"/>
  </g>
  <line id="Baseline-M" style="fill:none;stroke:#27AAE1;opacity:1;stroke-width:0.5;" x1="263" x2="3036" y1="1126" y2="1126"/>
  <line id="Capline-M" style="fill:none;stroke:#27AAE1;opacity:1;stroke-width:0.5;" x1="263" x2="3036" y1="1055.54" y2="1055.54"/>
  <g id="H-reference" style="fill:#27AAE1;stroke:none;" transform="matrix(1 0 0 1 339 1556)">
   <path d="M0.993654 0L3.63775 0L29.3281-67.1323L30.0303-67.1323L30.0303-70.459L28.1226-70.459ZM11.6885-24.4799L46.9815-24.4799L46.2315-26.7285L12.4385-26.7285ZM55.1196 0L57.7637 0L30.6382-70.459L29.4326-70.459L29.4326-67.1323Z"/>
  </g>
  <line id="Baseline-L" style="fill:none;stroke:#27AAE1;opacity:1;stroke-width:0.5;" x1="263" x2="3036" y1="1556" y2="1556"/>
  <line id="Capline-L" style="fill:none;stroke:#27AAE1;opacity:1;stroke-width:0.5;" x1="263" x2="3036" y1="1485.54" y2="1485.54"/>
  <line id="left-margin" style="fill:none;stroke:#00AEEF;stroke-width:0.5;opacity:1.0;" x1="1421.45" x2="1421.45" y1="1030.79" y2="1150.12"/>
  <line id="right-margin" style="fill:none;stroke:#00AEEF;stroke-width:0.5;opacity:1.0;" x1="1478.24" x2="1478.24" y1="1030.79" y2="1150.12"/>
 </g>
 <g id="Symbols">
  <g id="Black-L" transform="matrix(1 0 0 1 2894.06 1556)">
   <path d="M64.8378-80.7173C69.7239-79.5593 73.359-75.1682 73.359-69.9281L73.359-66.2798C73.359-60.1562 68.3949-55.1921 62.2713-55.1921L16.2283-55.1921C10.1047-55.1921 5.14055-60.1562 5.14055-66.2798L5.14055-69.9281C5.14055-75.1732 8.78251-79.5676 13.6756-80.7205L13.6756-104.345C13.6756-109.056 17.4941-112.874 22.2046-112.874L56.3088-112.874C61.0192-112.874 64.8378-109.056 64.8378-104.345L64.8378-80.7173L64.8378-80.7173ZM27.951 12.3209L50.919 12.3209L50.919 30.9453C50.919 37.2099 45.7769 42.2893 39.435 42.2893C33.0931 42.2893 27.951 37.2099 27.951 30.9453L27.951 12.3209ZM19.038 8.93468C11.4963 8.93468 5.32575 3.00874 5.32575-4.44102L5.32575-58.9597C8.411-54.8962 13.3817-52.1872 19.038-52.1872L59.6606-52.1872C65.3169-52.1872 70.2876-54.8962 73.3728-58.9597L73.3728-4.61033C73.3728 2.83943 67.2023 8.93468 59.6606 8.93468L19.038 8.93468ZM22.9563-110.559C19.188-110.559 16.1331-107.504 16.1331-103.736L16.1331-66.9973L62.3803-66.9973L62.3803-103.736C62.3803-107.504 59.3254-110.559 55.557-110.559L22.9563-110.559ZM23.1364-107.822L55.377-107.822C58.2032-107.822 60.4944-105.531 60.4944-102.704L60.4944-94.1753C60.4944-91.349 58.2032-89.0578 55.377-89.0578L23.1364-89.0578C20.3101-89.0578 18.019-91.349 18.019-94.1753L18.019-102.704C18.019-105.531 20.3101-107.822 23.1364-107.822ZM21.4092-103.455L21.4092-94.1511L22.5075-94.1959L23.5908-94.2409L23.5908-103.365L22.5075-103.41L21.4092-103.455ZM26.2579-94.2863C26.3182-94.2265 26.8147-94.1966 27.3562-94.2263L28.3343-94.2713L28.3793-98.8637L28.4094-103.471L26.1525-103.471L26.1525-98.9385C26.1525-96.4404 26.1977-94.3462 26.2579-94.2863ZM31.0218-94.3608C31.0669-94.2262 31.428-94.1664 32.1502-94.1662L33.2034-94.1662L33.2034-103.456L32.1201-103.411L31.0218-103.366L30.9767-98.953C30.9617-96.5297 30.9767-94.4654 31.0218-94.3608ZM35.765-103.471L35.765-94.1963L37.8715-94.1963L37.8715-103.471L35.765-103.471ZM40.4331-103.455L40.4331-94.1511L41.5315-94.1959L42.6147-94.2409L42.6147-103.365L41.5315-103.41L40.4331-103.455ZM45.1764-103.455L45.1764-94.1511L46.2747-94.1959L47.358-94.2409L47.358-103.365L46.2747-103.41L45.1764-103.455ZM50.01-94.3014C50.0703-94.2416 50.5669-94.2116 51.1085-94.2414L52.1016-94.2713L52.1467-98.8637L52.1768-103.471L49.9196-103.471L49.9196-98.9385C49.9196-96.4404 49.9649-94.3462 50.01-94.3014ZM54.7891-94.3608C54.8342-94.2262 55.1953-94.1664 55.9175-94.1662L56.9707-94.1662L56.9707-103.456L55.8874-103.411L54.7891-103.366L54.744-98.953C54.729-96.5297 54.744-94.4654 54.7891-94.3608Z"/>
  </g>
  <g id="Heavy-L" transform="matrix(1 0 0 1 2598.01 1556)">
   <path d="M63.7288-80.1399C68.5429-78.999 72.1245-74.6725 72.1245-69.5095L72.1245-65.915C72.1245-59.8815 67.2335-54.9905 61.2-54.9905L15.835-54.9905C9.80153-54.9905 4.91047-59.8815 4.91047-65.915L4.91047-69.5095C4.91047-74.6774 8.49881-79.0071 13.3198-80.1431L13.3198-103.42C13.3198-108.061 17.0822-111.823 21.7233-111.823L55.3253-111.823C59.9664-111.823 63.7288-108.061 63.7288-103.42L63.7288-80.1399L63.7288-80.1399ZM27.385 11.5285L50.0149 11.5285L50.0149 29.8787C50.0149 36.051 44.9485 41.0556 38.7 41.0556C32.4514 41.0556 27.385 36.051 27.385 29.8787L27.385 11.5285ZM18.6033 8.19212C11.1726 8.19212 5.09293 2.35343 5.09293-4.98664L5.09293-58.7026C8.13277-54.6989 13.0303-52.0298 18.6033-52.0298L58.6278-52.0298C64.2008-52.0298 69.0983-54.6989 72.1381-58.7026L72.1381-5.15346C72.1381 2.18661 66.0585 8.19212 58.6278 8.19212L18.6033 8.19212ZM22.4639-109.542C18.7511-109.542 15.7412-106.533 15.7412-102.82L15.7412-66.6218L61.3074-66.6218L61.3074-102.82C61.3074-106.533 58.2975-109.542 54.5846-109.542L22.4639-109.542ZM22.6414-106.845L54.4072-106.845C57.1919-106.845 59.4493-104.588 59.4493-101.803L59.4493-93.3997C59.4493-90.615 57.1919-88.3576 54.4072-88.3576L22.6414-88.3576C19.8567-88.3576 17.5993-90.615 17.5993-93.3997L17.5993-101.803C17.5993-104.588 19.8567-106.845 22.6414-106.845ZM20.9396-102.543L20.9396-93.3759L22.0218-93.42L23.0891-93.4644L23.0891-102.455L22.0218-102.499L20.9396-102.543ZM25.7169-93.5091C25.7763-93.4502 26.2655-93.4207 26.799-93.45L27.7627-93.4943L27.8071-98.019L27.8367-102.558L25.613-102.558L25.613-98.0928C25.613-95.6315 25.6576-93.5681 25.7169-93.5091ZM30.4106-93.5825C30.4551-93.4498 30.8108-93.3909 31.5224-93.3908L32.5601-93.3908L32.5601-102.543L31.4928-102.499L30.4106-102.455L30.3662-98.107C30.3514-95.7195 30.3662-93.6856 30.4106-93.5825ZM35.0841-102.558L35.0841-93.4204L37.1595-93.4204L37.1595-102.558L35.0841-102.558ZM39.6834-102.543L39.6834-93.3759L40.7656-93.42L41.8329-93.4644L41.8329-102.455L40.7656-102.499L39.6834-102.543ZM44.3568-102.543L44.3568-93.3759L45.439-93.42L46.5063-93.4644L46.5063-102.455L45.439-102.499L44.3568-102.543ZM49.1193-93.5239C49.1787-93.4651 49.6679-93.4354 50.2016-93.4649L51.1801-93.4943L51.2245-98.019L51.2541-102.558L49.0303-102.558L49.0303-98.0928C49.0303-95.6315 49.0749-93.5681 49.1193-93.5239ZM53.828-93.5825C53.8725-93.4498 54.2283-93.3909 54.9398-93.3908L55.9775-93.3908L55.9775-102.543L54.9102-102.499L53.828-102.455L53.7836-98.107C53.7688-95.7195 53.7836-93.6856 53.828-93.5825Z"/>
  </g>
  <g id="Bold-L" transform="matrix(1 0 0 1 2302.1 1556)">
   <path d="M62.3813-79.3199C67.0967-78.2024 70.6048-73.9647 70.6048-68.9077L70.6048-65.3869C70.6048-59.4773 65.8141-54.6867 59.9045-54.6867L15.4705-54.6867C9.56093-54.6867 4.77025-59.4773 4.77025-65.3869L4.77025-68.9077C4.77025-73.9695 8.28494-78.2104 13.007-79.323L13.007-102.122C13.007-106.668 16.6921-110.353 21.238-110.353L54.1503-110.353C58.6962-110.353 62.3813-106.668 62.3813-102.122L62.3813-79.3199L62.3813-79.3199ZM26.7835 10.467L48.9489 10.467L48.9489 28.4406C48.9489 34.4862 43.9865 39.3881 37.8662 39.3881C31.7459 39.3881 26.7835 34.4862 26.7835 28.4406L26.7835 10.467ZM18.182 7.19911C10.9039 7.19911 4.94898 1.48025 4.94898-5.70916L4.94898-58.3226C7.92642-54.4011 12.7234-51.7868 18.182-51.7868L57.385-51.7868C62.8436-51.7868 67.6406-54.4011 70.6181-58.3226L70.6181-5.87256C70.6181 1.31686 64.6632 7.19911 57.385 7.19911L18.182 7.19911ZM21.9634-108.119C18.3268-108.119 15.3787-105.171 15.3787-101.534L15.3787-66.0793L60.0097-66.0793L60.0097-101.534C60.0097-105.171 57.0615-108.119 53.4249-108.119L21.9634-108.119ZM22.1372-105.477L53.2511-105.477C55.9786-105.477 58.1897-103.266 58.1897-100.539L58.1897-92.3075C58.1897-89.58 55.9786-87.369 53.2511-87.369L22.1372-87.369C19.4097-87.369 17.1987-89.58 17.1987-92.3075L17.1987-100.539C17.1987-103.266 19.4097-105.477 22.1372-105.477ZM20.4704-101.263L20.4704-92.2842L21.5303-92.3275L22.5758-92.3709L22.5758-101.177L21.5303-101.22L20.4704-101.263ZM25.1496-92.4147C25.2078-92.357 25.687-92.3281 26.2095-92.3568L27.1534-92.4002L27.1969-96.8321L27.226-101.278L25.0479-101.278L25.0479-96.9043C25.0479-94.4935 25.0916-92.4725 25.1496-92.4147ZM29.747-92.4866C29.7906-92.3566 30.139-92.299 30.836-92.2988L31.8524-92.2988L31.8524-101.264L30.807-101.22L29.747-101.177L29.7035-96.9183C29.689-94.5797 29.7035-92.5876 29.747-92.4866ZM34.3245-101.278L34.3245-92.3278L36.3574-92.3278L36.3574-101.278L34.3245-101.278ZM38.8295-101.263L38.8295-92.2842L39.8894-92.3275L40.9349-92.3709L40.9349-101.177L39.8894-101.22L38.8295-101.263ZM43.407-101.263L43.407-92.2842L44.4669-92.3275L45.5124-92.3709L45.5124-101.177L44.4669-101.22L43.407-101.263ZM48.0717-92.4292C48.1299-92.3716 48.6091-92.3426 49.1318-92.3714L50.0902-92.4002L50.1337-96.8321L50.1627-101.278L47.9845-101.278L47.9845-96.9043C47.9845-94.4935 48.0282-92.4725 48.0717-92.4292ZM52.6838-92.4866C52.7273-92.3566 53.0758-92.299 53.7727-92.2988L54.7892-92.2988L54.7892-101.264L53.7437-101.22L52.6838-101.177L52.6403-96.9183C52.6258-94.5797 52.6403-92.5876 52.6838-92.4866Z"/>
  </g>
  <g id="Semibold-L" transform="matrix(1 0 0 1 2005.93 1556)">
   <path d="M61.4524-78.7546C66.0996-77.6532 69.557-73.4768 69.557-68.4928L69.557-65.0229C69.557-59.1987 64.8356-54.4772 59.0113-54.4772L15.2193-54.4772C9.39506-54.4772 4.67359-59.1987 4.67359-65.0229L4.67359-68.4928C4.67359-73.4815 8.13751-77.6611 12.7913-78.7577L12.7913-101.227C12.7913-105.707 16.4232-109.339 20.9034-109.339L53.3403-109.339C57.8205-109.339 61.4524-105.707 61.4524-101.227L61.4524-78.7546L61.4524-78.7546ZM26.3689 9.73523L48.214 9.73523L48.214 27.4491C48.214 33.4074 43.3233 38.2385 37.2915 38.2385C31.2596 38.2385 26.3689 33.4074 26.3689 27.4491L26.3689 9.73523ZM17.8916 6.51453C10.7186 6.51453 4.84973 0.87829 4.84973-6.20727L4.84973-58.0607C7.78416-54.1958 12.5118-51.6192 17.8916-51.6192L56.5283-51.6192C61.908-51.6192 66.6357-54.1958 69.5701-58.0607L69.5701-6.3683C69.5701 0.717254 63.7013 6.51453 56.5283 6.51453L17.8916 6.51453ZM21.6184-107.138C18.0343-107.138 15.1288-104.232 15.1288-100.648L15.1288-65.7053L59.115-65.7053L59.115-100.648C59.115-104.232 56.2095-107.138 52.6253-107.138L21.6184-107.138ZM21.7897-104.534L52.4541-104.534C55.1422-104.534 57.3213-102.355 57.3213-99.6667L57.3213-91.5546C57.3213-88.8665 55.1422-86.6874 52.4541-86.6874L21.7897-86.6874C19.1016-86.6874 16.9224-88.8665 16.9224-91.5546L16.9224-99.6667C16.9224-102.355 19.1016-104.534 21.7897-104.534ZM20.1469-100.381L20.1469-91.5316L21.1915-91.5743L22.2219-91.6171L22.2219-100.296L21.1915-100.338L20.1469-100.381ZM24.7585-91.6602C24.8159-91.6033 25.2882-91.5749 25.8032-91.6032L26.7334-91.646L26.7763-96.0138L26.8049-100.396L24.6583-100.396L24.6583-96.085C24.6583-93.709 24.7013-91.7172 24.7585-91.6602ZM29.2896-91.7311C29.3324-91.603 29.6759-91.5462 30.3628-91.546L31.3645-91.546L31.3645-100.381L30.3342-100.338L29.2896-100.296L29.2467-96.0987C29.2324-93.7939 29.2467-91.8306 29.2896-91.7311ZM33.8009-100.395L33.8009-91.5746L35.8044-91.5746L35.8044-100.395L33.8009-100.395ZM38.2408-100.381L38.2408-91.5316L39.2854-91.5743L40.3158-91.6171L40.3158-100.296L39.2854-100.338L38.2408-100.381ZM42.7522-100.381L42.7522-91.5316L43.7968-91.5743L44.8271-91.6171L44.8271-100.296L43.7968-100.338L42.7522-100.381ZM47.3495-91.6746C47.4068-91.6177 47.8791-91.5891 48.3943-91.6176L49.3388-91.646L49.3817-96.0138L49.4103-100.396L47.2635-100.396L47.2635-96.085C47.2635-93.709 47.3066-91.7172 47.3495-91.6746ZM51.895-91.7311C51.9379-91.603 52.2813-91.5462 52.9682-91.546L53.9699-91.546L53.9699-100.381L52.9396-100.338L51.895-100.296L51.8521-96.0987C51.8378-93.7939 51.8521-91.8306 51.895-91.7311Z"/>
  </g>
  <g id="Medium-L" transform="matrix(1 0 0 1 1709.64 1556)">
   <path d="M60.748-78.3259C65.3436-77.2368 68.7626-73.1068 68.7626-68.1782L68.7626-64.7469C68.7626-58.9874 64.0936-54.3184 58.3341-54.3184L15.0288-54.3184C9.26929-54.3184 4.6003-58.9874 4.6003-64.7469L4.6003-68.1782C4.6003-73.1114 8.02572-77.2446 12.6278-78.329L12.6278-100.549C12.6278-104.979 16.2194-108.571 20.6497-108.571L52.7261-108.571C57.1565-108.571 60.748-104.979 60.748-100.549L60.748-78.3259L60.748-78.3259ZM26.0544 9.18036L47.6568 9.18036L47.6568 26.6974C47.6568 32.5895 42.8205 37.3668 36.8556 37.3668C30.8908 37.3668 26.0544 32.5895 26.0544 26.6974L26.0544 9.18036ZM17.6714 5.99545C10.5781 5.99545 4.77448 0.421856 4.77448-6.58495L4.77448-57.862C7.6763-54.0401 12.3514-51.4922 17.6714-51.4922L55.8786-51.4922C61.1986-51.4922 65.8738-54.0401 68.7756-57.862L68.7756-6.74419C68.7756 0.262611 62.9719 5.99545 55.8786 5.99545L17.6714 5.99545ZM21.3568-106.394C17.8125-106.394 14.9393-103.52 14.9393-99.976L14.9393-65.4217L58.4366-65.4217L58.4366-99.976C58.4366-103.52 55.5634-106.394 52.0191-106.394L21.3568-106.394ZM21.5262-103.819L51.8497-103.819C54.5079-103.819 56.6629-101.664 56.6629-99.0056L56.6629-90.9837C56.6629-88.3255 54.5079-86.1706 51.8497-86.1706L21.5262-86.1706C18.8679-86.1706 16.713-88.3255 16.713-90.9837L16.713-99.0056C16.713-101.664 18.8679-103.819 21.5262-103.819ZM19.9017-99.7121L19.9017-90.961L20.9347-91.0031L21.9535-91.0455L21.9535-99.6275L20.9347-99.6698L19.9017-99.7121ZM24.462-91.0881C24.5187-91.0319 24.9857-91.0038 25.495-91.0317L26.4149-91.0741L26.4573-95.3933L26.4856-99.7265L24.3629-99.7265L24.3629-95.4638C24.3629-93.1142 24.4055-91.1445 24.462-91.0881ZM28.9427-91.1582C28.9851-91.0316 29.3247-90.9754 30.004-90.9752L30.9946-90.9752L30.9946-99.7123L29.9757-99.67L28.9427-99.6276L28.9003-95.4773C28.8861-93.1982 28.9003-91.2566 28.9427-91.1582ZM33.4039-99.7263L33.4039-91.0035L35.3851-91.0035L35.3851-99.7263L33.4039-99.7263ZM37.7944-99.7121L37.7944-90.961L38.8274-91.0031L39.8463-91.0455L39.8463-99.6275L38.8274-99.6698L37.7944-99.7121ZM42.2557-99.7121L42.2557-90.961L43.2887-91.0031L44.3076-91.0455L44.3076-99.6275L43.2887-99.6698L42.2557-99.7121ZM46.8019-91.1023C46.8586-91.0461 47.3256-91.0178 47.835-91.046L48.7691-91.0741L48.8115-95.3933L48.8398-99.7265L46.7169-99.7265L46.7169-95.4638C46.7169-93.1142 46.7595-91.1445 46.8019-91.1023ZM51.2968-91.1582C51.3392-91.0316 51.6789-90.9754 52.3581-90.9752L53.3487-90.9752L53.3487-99.7123L52.3299-99.67L51.2968-99.6276L51.2544-95.4773C51.2403-93.1982 51.2544-91.2566 51.2968-91.1582Z"/>
  </g>
  <g id="Regular-L" transform="matrix(1 0 0 1 1413.47 1556)">
   <path d="M59.8293-77.7668C64.3575-76.6937 67.7264-72.6242 67.7264-67.7679L67.7264-64.3869C67.7264-58.7118 63.1258-54.1113 57.4508-54.1113L14.7803-54.1113C9.10524-54.1113 4.5047-58.7118 4.5047-64.3869L4.5047-67.7679C4.5047-72.6288 7.8799-76.7014 12.4145-77.7699L12.4145-99.664C12.4145-104.029 15.9534-107.568 20.3189-107.568L51.925-107.568C56.2904-107.568 59.8293-104.029 59.8293-99.664L59.8293-77.7668L59.8293-77.7668ZM25.6443 8.45662L46.93 8.45662L46.93 25.7168C46.93 31.5225 42.1646 36.2299 36.2872 36.2299C30.4098 36.2299 25.6443 31.5225 25.6443 25.7168L25.6443 8.45662ZM17.3842 5.31839C10.3949 5.31839 4.67633-0.173492 4.67633-7.07758L4.67633-57.6029C7.5356-53.8371 12.1422-51.3265 17.3842-51.3265L55.0313-51.3265C60.2733-51.3265 64.8799-53.8371 67.7392-57.6029L67.7392-7.23449C67.7392-0.330403 62.0206 5.31839 55.0313 5.31839L17.3842 5.31839ZM21.0155-105.423C17.5232-105.423 14.6921-102.592 14.6921-99.0995L14.6921-65.0518L57.5518-65.0518L57.5518-99.0995C57.5518-102.592 54.7207-105.423 51.2283-105.423L21.0155-105.423ZM21.1824-102.886L51.0614-102.886C53.6807-102.886 55.804-100.763 55.804-98.1434L55.804-90.2391C55.804-87.6198 53.6807-85.4965 51.0614-85.4965L21.1824-85.4965C18.5632-85.4965 16.4398-87.6198 16.4398-90.2391L16.4398-98.1434C16.4398-100.763 18.5632-102.886 21.1824-102.886ZM19.5817-98.8395L19.5817-90.2167L20.5996-90.2582L21.6036-90.2999L21.6036-98.7561L20.5996-98.7978L19.5817-98.8395ZM24.0752-90.3419C24.1311-90.2865 24.5913-90.2588 25.0931-90.2864L25.9995-90.3281L26.0413-94.584L26.0692-98.8537L23.9776-98.8537L23.9776-94.6534C23.9776-92.3383 24.0195-90.3975 24.0752-90.3419ZM28.4902-90.411C28.532-90.2862 28.8667-90.2308 29.5359-90.2307L30.512-90.2307L30.512-98.8397L29.5081-98.798L28.4902-98.7563L28.4484-94.6668C28.4345-92.421 28.4484-90.508 28.4902-90.411ZM32.886-98.8535L32.886-90.2585L34.8382-90.2585L34.8382-98.8535L32.886-98.8535ZM37.2122-98.8395L37.2122-90.2167L38.2301-90.2582L39.234-90.2999L39.234-98.7561L38.2301-98.7978L37.2122-98.8395ZM41.608-98.8395L41.608-90.2167L42.6259-90.2582L43.6299-90.2999L43.6299-98.7561L42.6259-98.7978L41.608-98.8395ZM46.0876-90.3559C46.1435-90.3006 46.6037-90.2727 47.1056-90.3004L48.026-90.3281L48.0678-94.584L48.0956-98.8537L46.0039-98.8537L46.0039-94.6534C46.0039-92.3383 46.0458-90.3975 46.0876-90.3559ZM50.5167-90.411C50.5585-90.2862 50.8931-90.2308 51.5624-90.2307L52.5385-90.2307L52.5385-98.8397L51.5345-98.798L50.5167-98.7563L50.4749-94.6668C50.4609-92.421 50.4749-90.508 50.5167-90.411Z"/>
  </g>
  <g id="Light-L" transform="matrix(1 0 0 1 1117.13 1556)">
   <path d="M59.0675-76.5258C63.465-75.4836 66.7366-71.5316 66.7366-66.8155L66.7366-63.5321C66.7366-58.0209 62.2689-53.5532 56.7577-53.5532L15.3191-53.5532C9.8079-53.5532 5.34018-58.0209 5.34018-63.5321L5.34018-66.8155C5.34018-71.5361 8.61793-75.4911 13.0217-76.5287L13.0217-97.7907C13.0217-102.03 16.4584-105.467 20.6978-105.467L51.3914-105.467C55.6308-105.467 59.0675-102.03 59.0675-97.7907L59.0675-76.5258L59.0675-76.5258ZM25.8695 7.20834L46.5407 7.20834L46.5407 23.9702C46.5407 29.6083 41.9128 34.1798 36.2051 34.1798C30.4974 34.1798 25.8695 29.6083 25.8695 23.9702L25.8695 7.20834ZM17.8478 4.16072C11.0603 4.16072 5.50685-1.17261 5.50685-7.87737L5.50685-56.944C8.28358-53.2869 12.7572-50.8488 17.8478-50.8488L54.408-50.8488C59.4987-50.8488 63.9723-53.2869 66.749-56.944L66.749-8.02975C66.749-1.32499 61.1956 4.16072 54.408 4.16072L17.8478 4.16072ZM21.3743-103.383C17.9828-103.383 15.2335-100.634 15.2335-97.2426L15.2335-64.1778L56.8558-64.1778L56.8558-97.2426C56.8558-100.634 54.1064-103.383 50.7149-103.383L21.3743-103.383ZM21.5364-100.92L50.5528-100.92C53.0964-100.92 55.1585-98.8577 55.1585-96.314L55.1585-88.6379C55.1585-86.0943 53.0964-84.0323 50.5528-84.0323L21.5364-84.0323C18.9928-84.0323 16.9307-86.0943 16.9307-88.6379L16.9307-96.314C16.9307-98.8577 18.9928-100.92 21.5364-100.92ZM19.9819-96.9901L19.9819-88.6162L20.9704-88.6565L21.9454-88.697L21.9454-96.9091L20.9704-96.9496L19.9819-96.9901ZM24.3457-88.7378C24.4-88.684 24.8469-88.6571 25.3342-88.6839L26.2144-88.7244L26.255-92.8575L26.2821-97.0038L24.2508-97.0038L24.2508-92.9249C24.2508-90.6765 24.2916-88.7918 24.3457-88.7378ZM28.6332-88.8049C28.6738-88.6837 28.9988-88.6299 29.6488-88.6298L30.5967-88.6298L30.5967-96.9902L29.6217-96.9497L28.6332-96.9092L28.5926-92.9378C28.5791-90.7569 28.5926-88.8991 28.6332-88.8049ZM32.9021-97.0037L32.9021-88.6568L34.7979-88.6568L34.7979-97.0037L32.9021-97.0037ZM37.1034-96.9901L37.1034-88.6162L38.0919-88.6565L39.0668-88.697L39.0668-96.9091L38.0919-96.9496L37.1034-96.9901ZM41.3723-96.9901L41.3723-88.6162L42.3608-88.6565L43.3358-88.697L43.3358-96.9091L42.3608-96.9496L41.3723-96.9901ZM45.7226-88.7514C45.7768-88.6976 46.2237-88.6706 46.7112-88.6975L47.605-88.7244L47.6456-92.8575L47.6726-97.0038L45.6412-97.0038L45.6412-92.9249C45.6412-90.6765 45.682-88.7918 45.7226-88.7514ZM50.0237-88.8049C50.0643-88.6837 50.3893-88.6299 51.0393-88.6298L51.9872-88.6298L51.9872-96.9902L51.0122-96.9497L50.0237-96.9092L49.9832-92.9378C49.9696-90.7569 49.9832-88.8991 50.0237-88.8049Z"/>
  </g>
  <g id="Thin-L" transform="matrix(1 0 0 1 820.912 1556)">
   <path d="M58.06-74.8844C62.2846-73.8832 65.4276-70.0866 65.4276-65.5559L65.4276-62.4016C65.4276-57.1071 61.1355-52.815 55.841-52.815L16.0317-52.815C10.7372-52.815 6.44517-57.1071 6.44517-62.4016L6.44517-65.5559C6.44517-70.0909 9.59404-73.8903 13.8246-74.8872L13.8246-95.3132C13.8246-99.3859 17.1262-102.688 21.1989-102.688L50.6857-102.688C54.7584-102.688 58.06-99.3859 58.06-95.3132L58.06-74.8844L58.06-74.8844ZM26.1673 5.5574L46.0257 5.5574L46.0257 21.6602C46.0257 27.0766 41.5798 31.4683 36.0965 31.4683C30.6132 31.4683 26.1673 27.0766 26.1673 21.6602L26.1673 5.5574ZM18.461 2.62961C11.9404 2.62961 6.60529-2.49402 6.60529-8.93515L6.60529-56.0726C9.27283-52.5592 13.5705-50.217 18.461-50.217L53.5837-50.217C58.4742-50.217 62.7719-52.5592 65.4395-56.0726L65.4395-9.08154C65.4395-2.64041 60.1044 2.62961 53.5837 2.62961L18.461 2.62961ZM21.8489-100.686C18.5907-100.686 15.9494-98.0448 15.9494-94.7866L15.9494-63.0219L55.9352-63.0219L55.9352-94.7866C55.9352-98.0448 53.2939-100.686 50.0358-100.686L21.8489-100.686ZM22.0046-98.3191L49.8801-98.3191C52.3237-98.3191 54.3046-96.3382 54.3046-93.8946L54.3046-86.5203C54.3046-84.0767 52.3237-82.0957 49.8801-82.0957L22.0046-82.0957C19.561-82.0957 17.58-84.0767 17.58-86.5203L17.58-93.8946C17.58-96.3382 19.561-98.3191 22.0046-98.3191ZM20.5112-94.544L20.5112-86.4994L21.4608-86.5381L22.3975-86.5771L22.3975-94.4662L21.4608-94.5051L20.5112-94.544ZM24.7034-86.6163C24.7555-86.5646 25.1849-86.5387 25.653-86.5644L26.4987-86.6033L26.5377-90.5739L26.5637-94.5573L24.6123-94.5573L24.6123-90.6387C24.6123-88.4787 24.6514-86.6681 24.7034-86.6163ZM28.8223-86.6807C28.8613-86.5643 29.1735-86.5126 29.798-86.5125L30.7086-86.5125L30.7086-94.5442L29.772-94.5053L28.8223-94.4664L28.7834-90.6511C28.7704-88.556 28.7834-86.7712 28.8223-86.6807ZM32.9234-94.5571L32.9234-86.5384L34.7447-86.5384L34.7447-94.5571L32.9234-94.5571ZM36.9595-94.544L36.9595-86.4994L37.9091-86.5381L38.8457-86.5771L38.8457-94.4662L37.9091-94.5051L36.9595-94.544ZM41.0606-94.544L41.0606-86.4994L42.0102-86.5381L42.9468-86.5771L42.9468-94.4662L42.0102-94.5051L41.0606-94.544ZM45.2397-86.6293C45.2919-86.5776 45.7212-86.5517 46.1895-86.5775L47.0482-86.6033L47.0871-90.5739L47.1131-94.5573L45.1616-94.5573L45.1616-90.6387C45.1616-88.4787 45.2008-86.6681 45.2397-86.6293ZM49.3718-86.6807C49.4108-86.5643 49.723-86.5126 50.3474-86.5125L51.2581-86.5125L51.2581-94.5442L50.3214-94.5053L49.3718-94.4664L49.3328-90.6511C49.3198-88.556 49.3328-86.7712 49.3718-86.6807Z"/>
  </g>
  <g id="Ultralight-L" transform="matrix(1 0 0 1 524.454 1556)">
   <path d="M57.544-74.0437C61.68-73.0635 64.7571-69.3465 64.7571-64.9108L64.7571-61.8226C64.7571-56.639 60.555-52.437 55.3715-52.437L16.3967-52.437C11.2132-52.437 7.01114-56.639 7.01114-61.8226L7.01114-64.9108C7.01114-69.3506 10.094-73.0705 14.2359-74.0464L14.2359-94.0442C14.2359-98.0316 17.4683-101.264 21.4556-101.264L50.3243-101.264C54.3116-101.264 57.544-98.0316 57.544-94.0442L57.544-74.0437L57.544-74.0437ZM26.3198 4.7118L45.7619 4.7118L45.7619 20.4771C45.7619 25.7799 41.4092 30.0796 36.0409 30.0796C30.6725 30.0796 26.3198 25.7799 26.3198 20.4771L26.3198 4.7118ZM18.7751 1.84538C12.3912 1.84538 7.1679-3.17084 7.1679-9.47695L7.1679-55.6262C9.77953-52.1865 13.9871-49.8934 18.7751-49.8934L53.1615-49.8934C57.9495-49.8934 62.1571-52.1865 64.7687-55.6262L64.7687-9.62027C64.7687-3.31416 59.5455 1.84538 53.1615 1.84538L18.7751 1.84538ZM22.0919-99.3044C18.9021-99.3044 16.3162-96.7185 16.3162-93.5287L16.3162-62.4299L55.4637-62.4299L55.4637-93.5287C55.4637-96.7185 52.8778-99.3044 49.6879-99.3044L22.0919-99.3044ZM22.2444-96.9872L49.5355-96.9872C51.9279-96.9872 53.8673-95.0477 53.8673-92.6553L53.8673-85.4356C53.8673-83.0432 51.9279-81.1038 49.5355-81.1038L22.2444-81.1038C19.852-81.1038 17.9126-83.0432 17.9126-85.4356L17.9126-92.6553C17.9126-95.0477 19.852-96.9872 22.2444-96.9872ZM20.7823-93.2912L20.7823-85.4152L21.712-85.4531L22.629-85.4912L22.629-93.215L21.712-93.2531L20.7823-93.2912ZM24.8866-85.5296C24.9377-85.479 25.358-85.4537 25.8163-85.4789L26.6443-85.517L26.6824-89.4043L26.7079-93.3041L24.7974-93.3041L24.7974-89.4677C24.7974-87.353 24.8357-85.5803 24.8866-85.5296ZM28.9192-85.5927C28.9574-85.4787 29.263-85.4281 29.8744-85.428L30.7659-85.428L30.7659-93.2913L29.8489-93.2532L28.9192-93.2151L28.881-89.4799C28.8683-87.4286 28.881-85.6813 28.9192-85.5927ZM32.9343-93.304L32.9343-85.4534L34.7174-85.4534L34.7174-93.304L32.9343-93.304ZM36.8858-93.2912L36.8858-85.4152L37.8155-85.4531L38.7325-85.4912L38.7325-93.215L37.8155-93.2531L36.8858-93.2912ZM40.9009-93.2912L40.9009-85.4152L41.8306-85.4531L42.7476-85.4912L42.7476-93.215L41.8306-93.2531L40.9009-93.2912ZM44.9925-85.5424C45.0435-85.4918 45.4638-85.4664 45.9223-85.4917L46.763-85.517L46.8011-89.4043L46.8266-93.3041L44.916-93.3041L44.916-89.4677C44.916-87.353 44.9543-85.5803 44.9925-85.5424ZM49.0379-85.5927C49.0761-85.4787 49.3817-85.4281 49.9931-85.428L50.8846-85.428L50.8846-93.2913L49.9676-93.2532L49.0379-93.2151L48.9997-89.4799C48.987-87.4286 48.9997-85.6813 49.0379-85.5927Z"/>
  </g>
  <g id="Black-M" transform="matrix(1 0 0 1 2902.4 1126)">
   <path d="M51.0825-70.7989C54.9121-69.8913 57.7612-66.4497 57.7612-62.3426L57.7612-59.4832C57.7612-54.6838 53.8704-50.793 49.0709-50.793L12.9838-50.793C8.1843-50.793 4.29354-54.6838 4.29354-59.4832L4.29354-62.3426C4.29354-66.4536 7.148-69.8978 10.983-70.8015L10.983-89.3177C10.983-93.0096 13.9759-96.0025 17.6678-96.0025L44.3977-96.0025C48.0896-96.0025 51.0825-93.0096 51.0825-89.3177L51.0825-70.7989L51.0825-70.7989ZM22.1717 2.12172L40.1733 2.12172L40.1733 16.719C40.1733 21.629 36.1431 25.61 31.1725 25.61C26.2019 25.61 22.1717 21.629 22.1717 16.719L22.1717 2.12172ZM15.186-0.532327C9.27496-0.532327 4.43869-5.17691 4.43869-11.0158L4.43869-53.746C6.85682-50.5611 10.7527-48.4379 15.186-48.4379L47.0247-48.4379C51.458-48.4379 55.3539-50.5611 57.772-53.746L57.772-11.1485C57.772-5.30961 52.9357-0.532327 47.0247-0.532327L15.186-0.532327ZM18.257-94.1882C15.3035-94.1882 12.9092-91.7939 12.9092-88.8403L12.9092-60.0456L49.1563-60.0456L49.1563-88.8403C49.1563-91.7939 46.762-94.1882 43.8085-94.1882L18.257-94.1882ZM18.3982-92.0426L43.6674-92.0426C45.8825-92.0426 47.6782-90.2468 47.6782-88.0317L47.6782-81.3469C47.6782-79.1317 45.8825-77.336 43.6674-77.336L18.3982-77.336C16.183-77.336 14.3873-79.1317 14.3873-81.3469L14.3873-88.0317C14.3873-90.2468 16.183-92.0426 18.3982-92.0426ZM17.0444-88.6204L17.0444-81.3279L17.9053-81.3631L18.7543-81.3983L18.7543-88.5499L17.9053-88.5852L17.0444-88.6204ZM20.8447-81.4339C20.8919-81.387 21.2811-81.3636 21.7055-81.3869L22.4721-81.4222L22.5074-85.0215L22.531-88.6324L20.7621-88.6324L20.7621-85.0802C20.7621-83.1222 20.7975-81.4809 20.8447-81.4339ZM24.5785-81.4923C24.6138-81.3868 24.8969-81.3399 25.4629-81.3398L26.2884-81.3398L26.2884-88.6206L25.4393-88.5853L24.5785-88.55L24.5431-85.0915C24.5314-83.1922 24.5431-81.5743 24.5785-81.4923ZM28.2961-88.6323L28.2961-81.3633L29.9471-81.3633L29.9471-88.6323L28.2961-88.6323ZM31.9548-88.6204L31.9548-81.3279L32.8157-81.3631L33.6647-81.3983L33.6647-88.5499L32.8157-88.5852L31.9548-88.6204ZM35.6725-88.6204L35.6725-81.3279L36.5333-81.3631L37.3823-81.3983L37.3823-88.5499L36.5333-88.5852L35.6725-88.6204ZM39.4609-81.4457C39.5082-81.3989 39.8973-81.3753 40.3219-81.3987L41.1002-81.4222L41.1356-85.0215L41.1591-88.6324L39.3901-88.6324L39.3901-85.0802C39.3901-83.1222 39.4256-81.4809 39.4609-81.4457ZM43.2066-81.4923C43.242-81.3868 43.525-81.3399 44.091-81.3398L44.9165-81.3398L44.9165-88.6206L44.0675-88.5853L43.2066-88.55L43.1713-85.0915C43.1595-83.1922 43.1713-81.5743 43.2066-81.4923Z"/>
  </g>
  <g id="Heavy-M" transform="matrix(1 0 0 1 2606.3 1126)">
   <path d="M50.0686-70.3489C53.8399-69.4552 56.6457-66.0659 56.6457-62.0213L56.6457-59.2054C56.6457-54.479 52.8141-50.6474 48.0877-50.6474L12.5496-50.6474C7.8231-50.6474 3.99154-54.479 3.99154-59.2054L3.99154-62.0213C3.99154-66.0697 6.80257-69.4615 10.5793-70.3514L10.5793-88.5859C10.5793-92.2217 13.5266-95.169 17.1624-95.169L43.4855-95.169C47.1213-95.169 50.0686-92.2217 50.0686-88.5859L50.0686-70.3489L50.0686-70.3489ZM21.5977 1.46224L39.3254 1.46224L39.3254 15.8374C39.3254 20.6727 35.3565 24.5932 30.4616 24.5932C25.5666 24.5932 21.5977 20.6727 21.5977 15.8374L21.5977 1.46224ZM14.7182-1.15143C8.89717-1.15143 4.13448-5.72534 4.13448-11.4754L4.13448-53.5554C6.51583-50.419 10.3524-48.3281 14.7182-48.3281L46.0726-48.3281C50.4384-48.3281 54.275-50.419 56.6563-53.5554L56.6563-11.6061C56.6563-5.85603 51.8936-1.15143 46.0726-1.15143L14.7182-1.15143ZM17.7426-93.3823C14.834-93.3823 12.4761-91.0244 12.4761-88.1158L12.4761-59.7592L48.1718-59.7592L48.1718-88.1158C48.1718-91.0244 45.8139-93.3823 42.9053-93.3823L17.7426-93.3823ZM17.8816-91.2694L42.7663-91.2694C44.9477-91.2694 46.7162-89.501 46.7162-87.3195L46.7162-80.7364C46.7162-78.555 44.9477-76.7865 42.7663-76.7865L17.8816-76.7865C15.7001-76.7865 13.9317-78.555 13.9317-80.7364L13.9317-87.3195C13.9317-89.501 15.7001-91.2694 17.8816-91.2694ZM16.5484-87.8993L16.5484-80.7178L17.3962-80.7524L18.2323-80.7871L18.2323-87.8298L17.3962-87.8646L16.5484-87.8993ZM20.2908-80.8221C20.3374-80.7759 20.7206-80.7529 21.1386-80.7758L21.8935-80.8106L21.9283-84.3551L21.9515-87.9111L20.2095-87.9111L20.2095-84.4129C20.2095-82.4847 20.2444-80.8684 20.2908-80.8221ZM23.9679-80.8796C24.0027-80.7757 24.2814-80.7295 24.8388-80.7294L25.6517-80.7294L25.6517-87.8994L24.8156-87.8647L23.9679-87.83L23.9331-84.4241C23.9215-82.5537 23.9331-80.9604 23.9679-80.8796ZM27.6289-87.911L27.6289-80.7526L29.2548-80.7526L29.2548-87.911L27.6289-87.911ZM31.232-87.8993L31.232-80.7178L32.0797-80.7524L32.9158-80.7871L32.9158-87.8298L32.0797-87.8646L31.232-87.8993ZM34.893-87.8993L34.893-80.7178L35.7408-80.7524L36.5769-80.7871L36.5769-87.8298L35.7408-87.8646L34.893-87.8993ZM38.6238-80.8338C38.6704-80.7876 39.0536-80.7644 39.4717-80.7875L40.2382-80.8106L40.273-84.3551L40.2962-87.9111L38.5541-87.9111L38.5541-84.4129C38.5541-82.4847 38.589-80.8684 38.6238-80.8338ZM42.3126-80.8796C42.3474-80.7757 42.6261-80.7295 43.1835-80.7294L43.9965-80.7294L43.9965-87.8994L43.1603-87.8647L42.3126-87.83L42.2778-84.4241C42.2662-82.5537 42.2778-80.9604 42.3126-80.8796Z"/>
  </g>
  <g id="Bold-M" transform="matrix(1 0 0 1 2310.28 1126)">
   <path d="M48.9344-69.8455C52.6406-68.9672 55.3978-65.6365 55.3978-61.6619L55.3978-58.8946C55.3978-54.2499 51.6325-50.4845 46.9877-50.4845L12.0638-50.4845C7.41905-50.4845 3.65371-54.2499 3.65371-58.8946L3.65371-61.6619C3.65371-65.6403 6.41616-68.9735 10.1276-69.848L10.1276-87.7674C10.1276-91.3403 13.024-94.2367 16.5969-94.2367L42.4651-94.2367C46.038-94.2367 48.9344-91.3403 48.9344-87.7674L48.9344-69.8455L48.9344-69.8455ZM20.9556 0.724508L38.3769 0.724508L38.3769 14.8512C38.3769 19.6029 34.4766 23.4557 29.6662 23.4557C24.8559 23.4557 20.9556 19.6029 20.9556 14.8512L20.9556 0.724508ZM14.195-1.84399C8.47456-1.84399 3.79418-6.33885 3.79418-11.9895L3.79418-53.3423C6.13437-50.2601 9.90467-48.2053 14.195-48.2053L45.0075-48.2053C49.2978-48.2053 53.0681-50.2601 55.4083-53.3423L55.4083-12.118C55.4083-6.46727 50.7279-1.84399 45.0075-1.84399L14.195-1.84399ZM17.1671-92.4809C14.3088-92.4809 11.9916-90.1637 11.9916-87.3054L11.9916-59.4388L47.0704-59.4388L47.0704-87.3054C47.0704-90.1637 44.7532-92.4809 41.8949-92.4809L17.1671-92.4809ZM17.3037-90.4044L41.7583-90.4044C43.9021-90.4044 45.6399-88.6666 45.6399-86.5228L45.6399-80.0535C45.6399-77.9098 43.9021-76.1719 41.7583-76.1719L17.3037-76.1719C15.1599-76.1719 13.4221-77.9098 13.4221-80.0535L13.4221-86.5228C13.4221-88.6666 15.1599-90.4044 17.3037-90.4044ZM15.9936-87.0926L15.9936-80.0352L16.8267-80.0692L17.6484-80.1033L17.6484-87.0243L16.8267-87.0585L15.9936-87.0926ZM19.6713-80.1377C19.7171-80.0924 20.0937-80.0697 20.5044-80.0922L21.2463-80.1264L21.2805-83.6097L21.3033-87.1042L19.5914-87.1042L19.5914-83.6665C19.5914-81.7716 19.6257-80.1832 19.6713-80.1377ZM23.2848-80.1942C23.319-80.0921 23.5929-80.0468 24.1407-80.0466L24.9395-80.0466L24.9395-87.0927L24.1179-87.0586L23.2848-87.0245L23.2506-83.6774C23.2392-81.8394 23.2506-80.2736 23.2848-80.1942ZM26.8826-87.1041L26.8826-80.0694L28.4803-80.0694L28.4803-87.1041L26.8826-87.1041ZM30.4233-87.0926L30.4233-80.0352L31.2564-80.0692L32.0781-80.1033L32.0781-87.0243L31.2564-87.0585L30.4233-87.0926ZM34.0211-87.0926L34.0211-80.0352L34.8542-80.0692L35.6759-80.1033L35.6759-87.0243L34.8542-87.0585L34.0211-87.0926ZM37.6875-80.1492C37.7332-80.1038 38.1098-80.081 38.5207-80.1037L39.2739-80.1264L39.3082-83.6097L39.331-87.1042L37.6189-87.1042L37.6189-83.6665C37.6189-81.7716 37.6533-80.1832 37.6875-80.1492ZM41.3125-80.1942C41.3467-80.0921 41.6206-80.0468 42.1683-80.0466L42.9672-80.0466L42.9672-87.0927L42.1455-87.0586L41.3125-87.0245L41.2783-83.6774C41.2668-81.8394 41.2783-80.2736 41.3125-80.1942Z"/>
  </g>
  <g id="Semibold-M" transform="matrix(1 0 0 1 2014.04 1126)">
   <path d="M48.1526-69.4985C51.8138-68.6309 54.5376-65.3406 54.5376-61.4141L54.5376-58.6804C54.5376-54.0919 50.8179-50.3722 46.2294-50.3722L11.729-50.3722C7.1405-50.3722 3.42081-54.0919 3.42081-58.6804L3.42081-61.4141C3.42081-65.3442 6.14977-68.637 9.81618-69.501L9.81618-87.2031C9.81618-90.7327 12.6775-93.5939 16.2071-93.5939L41.7617-93.5939C45.2913-93.5939 48.1526-90.7327 48.1526-87.2031L48.1526-69.4985L48.1526-69.4985ZM20.5129 0.215923L37.7231 0.215923L37.7231 14.1714C37.7231 18.8655 33.87 22.6715 29.118 22.6715C24.3659 22.6715 20.5129 18.8655 20.5129 14.1714L20.5129 0.215923ZM13.8343-2.32143C8.18321-2.32143 3.55958-6.7618 3.55958-12.344L3.55958-53.1953C5.8714-50.1505 9.59598-48.1206 13.8343-48.1206L44.2732-48.1206C48.5115-48.1206 52.2361-50.1505 54.5479-53.1953L54.5479-12.4708C54.5479-6.88866 49.9243-2.32143 44.2732-2.32143L13.8343-2.32143ZM16.7704-91.8594C13.9467-91.8594 11.6576-89.5704 11.6576-86.7467L11.6576-59.218L46.3111-59.218L46.3111-86.7467C46.3111-89.5704 44.022-91.8594 41.1984-91.8594L16.7704-91.8594ZM16.9053-89.8081L41.0634-89.8081C43.1812-89.8081 44.898-88.0914 44.898-85.9736L44.898-79.5827C44.898-77.465 43.1812-75.7482 41.0634-75.7482L16.9053-75.7482C14.7875-75.7482 13.0708-77.465 13.0708-79.5827L13.0708-85.9736C13.0708-88.0914 14.7875-89.8081 16.9053-89.8081ZM15.6111-86.5365L15.6111-79.5646L16.4341-79.5982L17.2458-79.6319L17.2458-86.469L16.4341-86.5027L15.6111-86.5365ZM19.2442-79.6659C19.2894-79.6211 19.6615-79.5987 20.0672-79.621L20.8001-79.6547L20.8339-83.0958L20.8564-86.5479L19.1652-86.5479L19.1652-83.1519C19.1652-81.28 19.1992-79.7108 19.2442-79.6659ZM22.8139-79.7218C22.8477-79.6208 23.1182-79.5761 23.6594-79.5759L24.4486-79.5759L24.4486-86.5366L23.6369-86.5029L22.8139-86.4691L22.7801-83.1627C22.7688-81.3469 22.7801-79.8001 22.8139-79.7218ZM26.368-86.5478L26.368-79.5985L27.9464-79.5985L27.9464-86.5478L26.368-86.5478ZM29.8659-86.5365L29.8659-79.5646L30.6889-79.5982L31.5006-79.6319L31.5006-86.469L30.6889-86.5027L29.8659-86.5365ZM33.4201-86.5365L33.4201-79.5646L34.243-79.5982L35.0548-79.6319L35.0548-86.469L34.243-86.5027L33.4201-86.5365ZM37.0419-79.6772C37.0871-79.6324 37.4592-79.6099 37.865-79.6323L38.6092-79.6547L38.643-83.0958L38.6655-86.5479L36.9742-86.5479L36.9742-83.1519C36.9742-81.28 37.0081-79.7108 37.0419-79.6772ZM40.623-79.7218C40.6568-79.6208 40.9273-79.5761 41.4685-79.5759L42.2577-79.5759L42.2577-86.5366L41.446-86.5029L40.623-86.4691L40.5892-83.1627C40.5779-81.3469 40.5892-79.8001 40.623-79.7218Z"/>
  </g>
  <g id="Medium-M" transform="matrix(1 0 0 1 1717.69 1126)">
   <path d="M47.5597-69.2354C51.1868-68.3758 53.8853-65.1161 53.8853-61.2262L53.8853-58.5179C53.8853-53.9722 50.2002-50.2871 45.6545-50.2871L11.4751-50.2871C6.92929-50.2871 3.24422-53.9722 3.24422-58.5179L3.24422-61.2262C3.24422-65.1198 5.94778-68.3819 9.58007-69.2378L9.58007-86.7752C9.58007-90.2719 12.4147-93.1066 15.9115-93.1066L41.2283-93.1066C44.725-93.1066 47.5597-90.2719 47.5597-86.7752L47.5597-69.2354L47.5597-69.2354ZM20.1772-0.169708L37.2272-0.169708L37.2272 13.6559C37.2272 18.3063 33.4101 22.0769 28.7022 22.0769C23.9944 22.0769 20.1772 18.3063 20.1772 13.6559L20.1772-0.169708ZM13.5608-2.68345C7.9623-2.68345 3.3817-7.08249 3.3817-12.6127L3.3817-53.0839C5.672-50.0674 9.36193-48.0565 13.5608-48.0565L43.7164-48.0565C47.9153-48.0565 51.6052-50.0674 53.8955-53.0839L53.8955-12.7384C53.8955-7.20818 49.3149-2.68345 43.7164-2.68345L13.5608-2.68345ZM16.4695-91.3882C13.6721-91.3882 11.4044-89.1204 11.4044-86.323L11.4044-59.0505L45.7354-59.0505L45.7354-86.323C45.7354-89.1204 43.4676-91.3882 40.6702-91.3882L16.4695-91.3882ZM16.6032-89.356L40.5365-89.356C42.6346-89.356 44.3354-87.6552 44.3354-85.5572L44.3354-79.2257C44.3354-77.1277 42.6346-75.4269 40.5365-75.4269L16.6032-75.4269C14.5052-75.4269 12.8044-77.1277 12.8044-79.2257L12.8044-85.5572C12.8044-87.6552 14.5052-89.356 16.6032-89.356ZM15.321-86.1148L15.321-79.2078L16.1364-79.2411L16.9405-79.2745L16.9405-86.048L16.1364-86.0814L15.321-86.1148ZM18.9204-79.3081C18.9651-79.2638 19.3337-79.2416 19.7357-79.2636L20.4618-79.2971L20.4952-82.7061L20.5175-86.1261L18.8421-86.1261L18.8421-82.7617C18.8421-80.9072 18.8757-79.3526 18.9204-79.3081ZM22.4568-79.3635C22.4903-79.2635 22.7583-79.2191 23.2945-79.219L24.0763-79.219L24.0763-86.1149L23.2721-86.0815L22.4568-86.0481L22.4233-82.7724C22.4122-80.9735 22.4233-79.4411 22.4568-79.3635ZM25.9779-86.126L25.9779-79.2413L27.5416-79.2413L27.5416-86.126L25.9779-86.126ZM29.4432-86.1148L29.4432-79.2078L30.2585-79.2411L31.0627-79.2745L31.0627-86.048L30.2585-86.0814L29.4432-86.1148ZM32.9643-86.1148L32.9643-79.2078L33.7796-79.2411L34.5838-79.2745L34.5838-86.048L33.7796-86.0814L32.9643-86.1148ZM36.5525-79.3194C36.5972-79.275 36.9658-79.2527 37.3679-79.2749L38.1051-79.2971L38.1386-82.7061L38.1609-86.1261L36.4854-86.1261L36.4854-82.7617C36.4854-80.9072 36.519-79.3526 36.5525-79.3194ZM40.1002-79.3635C40.1337-79.2635 40.4017-79.2191 40.9378-79.219L41.7197-79.219L41.7197-86.1149L40.9155-86.0815L40.1002-86.0481L40.0667-82.7724C40.0555-80.9735 40.0667-79.4411 40.1002-79.3635Z"/>
  </g>
  <g id="Regular-M" transform="matrix(1 0 0 1 1421.45 1126)">
   <path d="M46.7864-68.8922C50.3691-68.0431 53.0345-64.8234 53.0345-60.9811L53.0345-58.306C53.0345-53.816 49.3946-50.176 44.9045-50.176L11.1439-50.176C6.65381-50.176 3.01388-53.816 3.01388-58.306L3.01388-60.9811C3.01388-64.827 5.68432-68.0492 9.27211-68.8946L9.27211-86.2171C9.27211-89.671 12.072-92.4709 15.5259-92.4709L40.5325-92.4709C43.9864-92.4709 46.7864-89.671 46.7864-86.2171L46.7864-68.8922L46.7864-68.8922ZM19.7394-0.672704L36.5805-0.672704L36.5805 12.9835C36.5805 17.5769 32.8101 21.3013 28.16 21.3013C23.5098 21.3013 19.7394 17.5769 19.7394 12.9835L19.7394-0.672704ZM13.2041-3.15565C7.67415-3.15565 3.14968-7.50079 3.14968-12.9633L3.14968-52.9386C5.41191-49.9591 9.05663-47.9727 13.2041-47.9727L42.9902-47.9727C47.1377-47.9727 50.7824-49.9591 53.0446-52.9386L53.0446-13.0874C53.0446-7.62494 48.5201-3.15565 42.9902-3.15565L13.2041-3.15565ZM16.0772-90.7735C13.314-90.7735 11.0741-88.5336 11.0741-85.7705L11.0741-58.8321L44.9844-58.8321L44.9844-85.7705C44.9844-88.5336 42.7445-90.7735 39.9813-90.7735L16.0772-90.7735ZM16.2092-88.7663L39.8493-88.7663C41.9216-88.7663 43.6016-87.0863 43.6016-85.014L43.6016-78.7601C43.6016-76.6878 41.9216-75.0078 39.8493-75.0078L16.2092-75.0078C14.1369-75.0078 12.4569-76.6878 12.4569-78.7601L12.4569-85.014C12.4569-87.0863 14.1369-88.7663 16.2092-88.7663ZM14.9427-85.5648L14.9427-78.7424L15.7481-78.7753L16.5424-78.8083L16.5424-85.4988L15.7481-85.5318L14.9427-85.5648ZM18.498-78.8415C18.5422-78.7977 18.9063-78.7758 19.3033-78.7976L20.0205-78.8306L20.0535-82.1978L20.0756-85.576L18.4207-85.576L18.4207-82.2528C18.4207-80.421 18.4539-78.8855 18.498-78.8415ZM21.9911-78.8962C22.0241-78.7974 22.2889-78.7536 22.8185-78.7535L23.5907-78.7535L23.5907-85.5649L22.7964-85.5319L21.9911-85.4989L21.958-82.2633C21.947-80.4865 21.958-78.9729 21.9911-78.8962ZM25.469-85.5758L25.469-78.7755L27.0136-78.7755L27.0136-85.5758L25.469-85.5758ZM28.8919-85.5648L28.8919-78.7424L29.6972-78.7753L30.4915-78.8083L30.4915-85.4988L29.6972-85.5318L28.8919-85.5648ZM32.3698-85.5648L32.3698-78.7424L33.1752-78.7753L33.9695-78.8083L33.9695-85.4988L33.1752-85.5318L32.3698-85.5648ZM35.914-78.8526C35.9582-78.8088 36.3223-78.7867 36.7195-78.8086L37.4477-78.8306L37.4807-82.1978L37.5028-85.576L35.8478-85.576L35.8478-82.2528C35.8478-80.421 35.881-78.8855 35.914-78.8526ZM39.4183-78.8962C39.4513-78.7974 39.7161-78.7536 40.2457-78.7535L41.0179-78.7535L41.0179-85.5649L40.2236-85.5319L39.4183-85.4989L39.3852-82.2633C39.3742-80.4865 39.3852-78.9729 39.4183-78.8962Z"/>
  </g>
  <g id="Light-M" transform="matrix(1 0 0 1 1125.07 1126)">
   <path d="M46.1034-67.7795C49.5689-66.9582 52.1471-63.8438 52.1471-60.1272L52.1471-57.5397C52.1471-53.1965 48.6263-49.6757 44.2831-49.6757L11.627-49.6757C7.28377-49.6757 3.76293-53.1965 3.76293-57.5397L3.76293-60.1272C3.76293-63.8473 6.34601-66.9641 9.81642-67.7818L9.81642-84.5376C9.81642-87.8785 12.5248-90.5868 15.8657-90.5868L40.0542-90.5868C43.3951-90.5868 46.1034-87.8785 46.1034-84.5376L46.1034-67.7795L46.1034-67.7795ZM19.9413-1.79184L36.2314-1.79184L36.2314 11.4176C36.2314 15.8607 32.5844 19.4633 28.0864 19.4633C23.5883 19.4633 19.9413 15.8607 19.9413 11.4176L19.9413-1.79184ZM13.6197-4.19356C8.27074-4.19356 3.89428-8.39655 3.89428-13.6803L3.89428-52.3479C6.08251-49.4658 9.60799-47.5444 13.6197-47.5444L42.4314-47.5444C46.4432-47.5444 49.9687-49.4658 52.1569-52.3479L52.1569-13.8004C52.1569-8.51664 47.7804-4.19356 42.4314-4.19356L13.6197-4.19356ZM16.3988-88.945C13.7261-88.945 11.5594-86.7783 11.5594-84.1056L11.5594-58.0485L44.3604-58.0485L44.3604-84.1056C44.3604-86.7783 42.1937-88.945 39.521-88.945L16.3988-88.945ZM16.5266-87.0034L39.3933-87.0034C41.3978-87.0034 43.0228-85.3784 43.0228-83.3739L43.0228-77.3246C43.0228-75.3201 41.3978-73.6951 39.3933-73.6951L16.5266-73.6951C14.522-73.6951 12.897-75.3201 12.897-77.3246L12.897-83.3739C12.897-85.3784 14.522-87.0034 16.5266-87.0034ZM15.3015-83.9066L15.3015-77.3075L16.0805-77.3393L16.8489-77.3712L16.8489-83.8428L16.0805-83.8747L15.3015-83.9066ZM18.7405-77.4034C18.7832-77.361 19.1354-77.3398 19.5194-77.3608L20.2131-77.3928L20.2451-80.6499L20.2664-83.9175L18.6657-83.9175L18.6657-80.703C18.6657-78.9312 18.6978-77.4459 18.7405-77.4034ZM22.1193-77.4562C22.1513-77.3607 22.4074-77.3183 22.9196-77.3182L23.6666-77.3182L23.6666-83.9068L22.8983-83.8748L22.1193-83.8429L22.0873-80.7132C22.0766-78.9945 22.0873-77.5304 22.1193-77.4562ZM25.4834-83.9174L25.4834-77.3395L26.9775-77.3395L26.9775-83.9174L25.4834-83.9174ZM28.7943-83.9066L28.7943-77.3075L29.5733-77.3393L30.3416-77.3712L30.3416-83.8428L29.5733-83.8747L28.7943-83.9066ZM32.1585-83.9066L32.1585-77.3075L32.9375-77.3393L33.7058-77.3712L33.7058-83.8428L32.9375-83.8747L32.1585-83.9066ZM35.5867-77.4141C35.6295-77.3717 35.9817-77.3504 36.3658-77.3716L37.0702-77.3928L37.1022-80.6499L37.1235-83.9175L35.5226-83.9175L35.5226-80.703C35.5226-78.9312 35.5548-77.4459 35.5867-77.4141ZM38.9763-77.4562C39.0083-77.3607 39.2644-77.3183 39.7767-77.3182L40.5237-77.3182L40.5237-83.9068L39.7553-83.8748L38.9763-83.8429L38.9444-80.7132C38.9337-78.9945 38.9444-77.5304 38.9763-77.4562Z"/>
  </g>
  <g id="Thin-M" transform="matrix(1 0 0 1 828.804 1126)">
   <path d="M45.2001-66.3079C48.5106-65.5234 50.9735-62.5483 50.9735-58.9979L50.9735-56.5261C50.9735-52.3772 47.6101-49.0139 43.4612-49.0139L12.2659-49.0139C8.11696-49.0139 4.75361-52.3772 4.75361-56.5261L4.75361-58.9979C4.75361-62.5516 7.22114-65.529 10.5363-66.3101L10.5363-82.3164C10.5363-85.5078 13.1235-88.095 16.315-88.095L39.4215-88.095C42.6129-88.095 45.2001-85.5078 45.2001-82.3164L45.2001-66.3079L45.2001-66.3079ZM20.2083-3.272L35.7697-3.272L35.7697 9.34653C35.7697 13.5909 32.2858 17.0324 27.989 17.0324C23.6922 17.0324 20.2083 13.5909 20.2083 9.34653L20.2083-3.272ZM14.1695-5.56628C9.05978-5.56628 4.87909-9.58126 4.87909-14.6287L4.87909-51.5666C6.96943-48.8134 10.3372-46.978 14.1695-46.978L41.6924-46.978C45.5247-46.978 48.8925-48.8134 50.9828-51.5666L50.9828-14.7434C50.9828-9.69598 46.8021-5.56628 41.6924-5.56628L14.1695-5.56628ZM16.8243-86.5266C14.2711-86.5266 12.2014-84.4569 12.2014-81.9037L12.2014-57.0122L43.5351-57.0122L43.5351-81.9037C43.5351-84.4569 41.4653-86.5266 38.9121-86.5266L16.8243-86.5266ZM16.9463-84.6719L38.7901-84.6719C40.705-84.6719 42.2573-83.1196 42.2573-81.2047L42.2573-75.426C42.2573-73.5112 40.705-71.9589 38.7901-71.9589L16.9463-71.9589C15.0314-71.9589 13.4791-73.5112 13.4791-75.426L13.4791-81.2047C13.4791-83.1196 15.0314-84.6719 16.9463-84.6719ZM15.7761-81.7136L15.7761-75.4097L16.5202-75.44L17.2542-75.4705L17.2542-81.6527L16.5202-81.6831L15.7761-81.7136ZM19.0612-75.5013C19.102-75.4608 19.4384-75.4405 19.8053-75.4606L20.468-75.4911L20.4985-78.6026L20.5189-81.724L18.9898-81.724L18.9898-78.6533C18.9898-76.9607 19.0204-75.5419 19.0612-75.5013ZM22.2888-75.5518C22.3194-75.4605 22.5641-75.42 23.0534-75.4199L23.7669-75.4199L23.7669-81.7137L23.033-81.6833L22.2888-81.6528L22.2583-78.6631C22.2481-77.0212 22.2583-75.6226 22.2888-75.5518ZM25.5025-81.7239L25.5025-75.4403L26.9297-75.4403L26.9297-81.7239L25.5025-81.7239ZM28.6653-81.7136L28.6653-75.4097L29.4094-75.44L30.1434-75.4705L30.1434-81.6527L29.4094-81.6831L28.6653-81.7136ZM31.879-81.7136L31.879-75.4097L32.6231-75.44L33.3571-75.4705L33.3571-81.6527L32.6231-81.6831L31.879-81.7136ZM35.1539-75.5115C35.1947-75.471 35.5312-75.4506 35.8981-75.4709L36.571-75.4911L36.6015-78.6026L36.6219-81.724L35.0927-81.724L35.0927-78.6533C35.0927-76.9607 35.1233-75.5419 35.1539-75.5115ZM38.3919-75.5518C38.4224-75.4605 38.6671-75.42 39.1564-75.4199L39.87-75.4199L39.87-81.7137L39.136-81.6833L38.3919-81.6528L38.3613-78.6631C38.3511-77.0212 38.3613-75.6226 38.3919-75.5518Z"/>
  </g>
  <g id="Ultralight-M" transform="matrix(1 0 0 1 532.32 1126)">
   <path d="M44.7375-65.5542C47.9685-64.7884 50.3723-61.8847 50.3723-58.4195L50.3723-56.007C50.3723-51.9576 47.0897-48.6749 43.0403-48.6749L12.5931-48.6749C8.54371-48.6749 5.26103-51.9576 5.26103-56.007L5.26103-58.4195C5.26103-61.8879 7.66938-64.7939 10.905-65.5563L10.905-81.1787C10.905-84.2936 13.4302-86.8187 16.5451-86.8187L39.0974-86.8187C42.2123-86.8187 44.7375-84.2936 44.7375-81.1787L44.7375-65.5542L44.7375-65.5542ZM20.345-4.03013L35.5333-4.03013L35.5333 8.28576C35.5333 12.4284 32.1329 15.7872 27.9392 15.7872C23.7454 15.7872 20.345 12.4284 20.345 8.28576L20.345-4.03013ZM14.4511-6.26938C9.46392-6.26938 5.3835-10.1881 5.3835-15.1144L5.3835-51.1664C7.42371-48.4793 10.7107-46.6879 14.4511-46.6879L41.3139-46.6879C45.0542-46.6879 48.3413-48.4793 50.3815-51.1664L50.3815-15.2264C50.3815-10.3 46.301-6.26938 41.3139-6.26938L14.4511-6.26938ZM17.0422-85.288C14.5503-85.288 12.5302-83.2679 12.5302-80.7759L12.5302-56.4814L43.1123-56.4814L43.1123-80.7759C43.1123-83.2679 41.0922-85.288 38.6003-85.288L17.0422-85.288ZM17.1613-83.4777L38.4812-83.4777C40.3502-83.4777 41.8652-81.9626 41.8652-80.0937L41.8652-74.4536C41.8652-72.5847 40.3502-71.0696 38.4812-71.0696L17.1613-71.0696C15.2923-71.0696 13.7773-72.5847 13.7773-74.4536L13.7773-80.0937C13.7773-81.9626 15.2923-83.4777 17.1613-83.4777ZM16.0191-80.5904L16.0191-74.4376L16.7454-74.4673L17.4618-74.497L17.4618-80.5309L16.7454-80.5606L16.0191-80.5904ZM19.2254-74.527C19.2653-74.4875 19.5937-74.4677 19.9517-74.4874L20.5985-74.5171L20.6283-77.5539L20.6482-80.6005L19.1557-80.6005L19.1557-77.6034C19.1557-75.9515 19.1857-74.5667 19.2254-74.527ZM22.3757-74.5763C22.4055-74.4873 22.6443-74.4477 23.1219-74.4476L23.8183-74.4476L23.8183-80.5905L23.102-80.5607L22.3757-80.531L22.3459-77.613C22.3359-76.0105 22.3459-74.6455 22.3757-74.5763ZM25.5123-80.6004L25.5123-74.4675L26.9052-74.4675L26.9052-80.6004L25.5123-80.6004ZM28.5992-80.5904L28.5992-74.4376L29.3255-74.4673L30.0419-74.497L30.0419-80.5309L29.3255-80.5606L28.5992-80.5904ZM31.7358-80.5904L31.7358-74.4376L32.4621-74.4673L33.1785-74.497L33.1785-80.5309L32.4621-80.5606L31.7358-80.5904ZM34.9322-74.537C34.972-74.4975 35.3004-74.4776 35.6586-74.4974L36.3153-74.5171L36.3451-77.5539L36.365-80.6005L34.8724-80.6005L34.8724-77.6034C34.8724-75.9515 34.9023-74.5667 34.9322-74.537ZM38.0925-74.5763C38.1223-74.4873 38.3611-74.4477 38.8387-74.4476L39.5351-74.4476L39.5351-80.5905L38.8188-80.5607L38.0925-80.531L38.0627-77.613C38.0527-76.0105 38.0627-74.6455 38.0925-74.5763Z"/>
  </g>
  <g id="Black-S" transform="matrix(1 0 0 1 2908.94 696)">
   <path d="M40.3007-63.1767C43.3127-62.4629 45.5536-59.756 45.5536-56.5257L45.5536-54.2767C45.5536-50.5017 42.4934-47.4416 38.7185-47.4416L10.335-47.4416C6.56012-47.4416 3.49994-50.5017 3.49994-54.2767L3.49994-56.5257C3.49994-59.759 5.74505-62.468 8.7614-63.1787L8.7614-77.7422C8.7614-80.646 11.1154-83 14.0192-83L35.0429-83C37.9467-83 40.3007-80.646 40.3007-77.7422L40.3007-63.1767L40.3007-63.1767ZM17.5616-5.82278L31.7203-5.82278L31.7203 5.65834C31.7203 9.52017 28.5505 12.6514 24.6409 12.6514C20.7314 12.6514 17.5616 9.52017 17.5616 5.65834L17.5616-5.82278ZM12.0671-7.91025C7.41796-7.91025 3.61411-11.5633 3.61411-16.1558L3.61411-49.7641C5.51603-47.2592 8.58024-45.5892 12.0671-45.5892L37.1091-45.5892C40.596-45.5892 43.6602-47.2592 45.5621-49.7641L45.5621-16.2602C45.5621-11.6677 41.7583-7.91025 37.1091-7.91025L12.0671-7.91025ZM14.4826-81.573C12.1596-81.573 10.2764-79.6898 10.2764-77.3668L10.2764-54.7189L38.7857-54.7189L38.7857-77.3668C38.7857-79.6898 36.9025-81.573 34.5795-81.573L14.4826-81.573ZM14.5936-79.8854L34.4685-79.8854C36.2107-79.8854 37.6231-78.473 37.6231-76.7308L37.6231-71.473C37.6231-69.7307 36.2107-68.3183 34.4685-68.3183L14.5936-68.3183C12.8513-68.3183 11.4389-69.7307 11.4389-71.473L11.4389-76.7308C11.4389-78.473 12.8513-79.8854 14.5936-79.8854ZM13.5289-77.1938L13.5289-71.4581L14.2059-71.4857L14.8737-71.5135L14.8737-77.1383L14.2059-77.1661L13.5289-77.1938ZM16.5178-71.5414C16.555-71.5046 16.8611-71.4861 17.1949-71.5045L17.7978-71.5322L17.8256-74.3632L17.8442-77.2032L16.4529-77.2032L16.4529-74.4093C16.4529-72.8693 16.4808-71.5784 16.5178-71.5414ZM19.4546-71.5874C19.4824-71.5044 19.705-71.4675 20.1502-71.4674L20.7994-71.4674L20.7994-77.1939L20.1316-77.1662L19.4546-77.1384L19.4268-74.4182C19.4175-72.9244 19.4268-71.6519 19.4546-71.5874ZM22.3786-77.2031L22.3786-71.4859L23.6771-71.4859L23.6771-77.2031L22.3786-77.2031ZM25.2563-77.1938L25.2563-71.4581L25.9333-71.4857L26.6011-71.5135L26.6011-77.1383L25.9333-77.1661L25.2563-77.1938ZM28.1803-77.1938L28.1803-71.4581L28.8573-71.4857L29.5251-71.5135L29.5251-77.1383L28.8573-77.1661L28.1803-77.1938ZM31.16-71.5507C31.1971-71.5139 31.5032-71.4954 31.8371-71.5138L32.4494-71.5322L32.4771-74.3632L32.4957-77.2032L31.1043-77.2032L31.1043-74.4093C31.1043-72.8693 31.1322-71.5784 31.16-71.5507ZM34.1061-71.5874C34.1339-71.5044 34.3565-71.4675 34.8017-71.4674L35.451-71.4674L35.451-77.1939L34.7832-77.1662L34.1061-77.1384L34.0783-74.4182C34.069-72.9244 34.0783-71.6519 34.1061-71.5874Z"/>
  </g>
  <g id="Heavy-S" transform="matrix(1 0 0 1 2612.71 696)">
   <path d="M39.5208-62.9341C42.498-62.2285 44.713-59.5529 44.713-56.36L44.713-54.137C44.713-50.4058 41.6882-47.381 37.957-47.381L9.90194-47.381C6.17069-47.381 3.14592-50.4058 3.14592-54.137L3.14592-56.36C3.14592-59.5559 5.36505-62.2335 8.3465-62.9361L8.3465-77.331C8.3465-80.2012 10.6732-82.528 13.5434-82.528L34.3239-82.528C37.1941-82.528 39.5208-80.2012 39.5208-77.331L39.5208-62.9341L39.5208-62.9341ZM17.0448-6.24379L31.0398-6.24379L31.0398 5.10448C31.0398 8.92162 27.9066 12.0166 24.0423 12.0166C20.178 12.0166 17.0448 8.92162 17.0448 5.10448L17.0448-6.24379ZM11.614-8.30711C7.0186-8.30711 3.25877-11.9179 3.25877-16.4572L3.25877-49.6767C5.13868-47.2007 8.16744-45.55 11.614-45.55L36.3662-45.55C39.8127-45.55 42.8415-47.2007 44.7214-49.6767L44.7214-16.5604C44.7214-12.0211 40.9616-8.30711 36.3662-8.30711L11.614-8.30711ZM14.0015-81.1175C11.7053-81.1175 9.84394-79.2561 9.84394-76.9599L9.84394-54.5741L38.0234-54.5741L38.0234-76.9599C38.0234-79.2561 36.162-81.1175 33.8658-81.1175L14.0015-81.1175ZM14.1112-79.4494L33.7561-79.4494C35.4782-79.4494 36.8743-78.0534 36.8743-76.3313L36.8743-71.1343C36.8743-69.4122 35.4782-68.0162 33.7561-68.0162L14.1112-68.0162C12.3891-68.0162 10.9931-69.4122 10.9931-71.1343L10.9931-76.3313C10.9931-78.0534 12.3891-79.4494 14.1112-79.4494ZM13.0588-76.789L13.0588-71.1196L13.728-71.1469L14.3881-71.1743L14.3881-76.7341L13.728-76.7615L13.0588-76.789ZM16.0132-71.202C16.0499-71.1655 16.3525-71.1473 16.6824-71.1654L17.2784-71.1929L17.3058-73.9911L17.3242-76.7983L15.949-76.7983L15.949-74.0367C15.949-72.5145 15.9765-71.2385 16.0132-71.202ZM18.9159-71.2474C18.9434-71.1653 19.1634-71.1289 19.6035-71.1288L20.2452-71.1288L20.2452-76.7891L19.5852-76.7616L18.9159-76.7342L18.8885-74.0455C18.8793-72.5689 18.8885-71.3111 18.9159-71.2474ZM21.8061-76.7982L21.8061-71.1471L23.0896-71.1471L23.0896-76.7982L21.8061-76.7982ZM24.6505-76.789L24.6505-71.1196L25.3197-71.1469L25.9798-71.1743L25.9798-76.7341L25.3197-76.7615L24.6505-76.789ZM27.5407-76.789L27.5407-71.1196L28.2099-71.1469L28.87-71.1743L28.87-76.7341L28.2099-76.7615L27.5407-76.789ZM30.4859-71.2112C30.5226-71.1747 30.8252-71.1564 31.1552-71.1746L31.7603-71.1929L31.7878-73.9911L31.8061-76.7983L30.4308-76.7983L30.4308-74.0367C30.4308-72.5145 30.4584-71.2385 30.4859-71.2112ZM33.3979-71.2474C33.4254-71.1653 33.6454-71.1289 34.0855-71.1288L34.7272-71.1288L34.7272-76.7891L34.0672-76.7616L33.3979-76.7342L33.3704-74.0455C33.3613-72.5689 33.3704-71.3111 33.3979-71.2474Z"/>
  </g>
  <g id="Bold-S" transform="matrix(1 0 0 1 2316.54 696)">
   <path d="M38.6486-62.6627C41.5868-61.9663 43.7728-59.3258 43.7728-56.1746L43.7728-53.9808C43.7728-50.2984 40.7876-47.3132 37.1052-47.3132L9.41752-47.3132C5.73514-47.3132 2.74997-50.2984 2.74997-53.9808L2.74997-56.1746C2.74997-59.3287 4.94004-61.9713 7.88245-62.6646L7.88245-76.8711C7.88245-79.7037 10.1787-82 13.0113-82L33.5197-82C36.3523-82 38.6486-79.7037 38.6486-76.8711L38.6486-62.6627L38.6486-62.6627ZM16.4669-6.71466L30.2786-6.71466L30.2786 4.48501C30.2786 8.25217 27.1864 11.3066 23.3727 11.3066C19.5591 11.3066 16.4669 8.25217 16.4669 4.48501L16.4669-6.71466ZM11.1071-8.75097C6.57194-8.75097 2.86134-12.3145 2.86134-16.7944L2.86134-49.5789C4.71664-47.1353 7.70574-45.5063 11.1071-45.5063L35.5353-45.5063C38.9367-45.5063 41.9258-47.1353 43.7811-49.5789L43.7811-16.8962C43.7811-12.4163 40.0705-8.75097 35.5353-8.75097L11.1071-8.75097ZM13.4634-80.608C11.1973-80.608 9.36029-78.7709 9.36029-76.5049L9.36029-54.4122L37.1707-54.4122L37.1707-76.5049C37.1707-78.7709 35.3337-80.608 33.0676-80.608L13.4634-80.608ZM13.5717-78.9618L32.9593-78.9618C34.6589-78.9618 36.0367-77.584 36.0367-75.8844L36.0367-70.7556C36.0367-69.056 34.6589-67.6782 32.9593-67.6782L13.5717-67.6782C11.8721-67.6782 10.4944-69.056 10.4944-70.7556L10.4944-75.8844C10.4944-77.584 11.8721-78.9618 13.5717-78.9618ZM12.533-76.3361L12.533-70.741L13.1935-70.768L13.8449-70.795L13.8449-76.282L13.1935-76.3091L12.533-76.3361ZM15.4487-70.8223C15.485-70.7864 15.7836-70.7684 16.1092-70.7863L16.6974-70.8133L16.7245-73.5749L16.7426-76.3453L15.3854-76.3453L15.3854-73.6199C15.3854-72.1177 15.4126-70.8583 15.4487-70.8223ZM18.3135-70.8671C18.3406-70.7862 18.5578-70.7502 18.9921-70.7501L19.6254-70.7501L19.6254-76.3362L18.974-76.3092L18.3135-76.2821L18.2864-73.6286C18.2773-72.1714 18.2864-70.93 18.3135-70.8671ZM21.1658-76.3452L21.1658-70.7682L22.4325-70.7682L22.4325-76.3452L21.1658-76.3452ZM23.973-76.3361L23.973-70.741L24.6334-70.768L25.2849-70.795L25.2849-76.282L24.6334-76.3091L23.973-76.3361ZM26.8253-76.3361L26.8253-70.741L27.4858-70.768L28.1372-70.795L28.1372-76.282L27.4858-76.3091L26.8253-76.3361ZM29.732-70.8314C29.7682-70.7954 30.0668-70.7774 30.3925-70.7953L30.9897-70.8133L31.0168-73.5749L31.0349-76.3453L29.6776-76.3453L29.6776-73.6199C29.6776-72.1177 29.7048-70.8583 29.732-70.8314ZM32.6059-70.8671C32.633-70.7862 32.8501-70.7502 33.2844-70.7501L33.9178-70.7501L33.9178-76.3362L33.2663-76.3092L32.6059-76.2821L32.5787-73.6286C32.5697-72.1714 32.5787-70.93 32.6059-70.8671Z"/>
  </g>
  <g id="Semibold-S" transform="matrix(1 0 0 1 2020.2 696)">
   <path d="M38.0472-62.4755C40.9586-61.7856 43.1245-59.1692 43.1245-56.0469L43.1245-53.8731C43.1245-50.2244 40.1667-47.2665 36.518-47.2665L9.08354-47.2665C5.43484-47.2665 2.47698-50.2244 2.47698-53.8731L2.47698-56.0469C2.47698-59.1721 4.64702-61.7905 7.56251-62.4775L7.56251-76.554C7.56251-79.3607 9.83779-81.636 12.6445-81.636L32.9653-81.636C35.7719-81.636 38.0472-79.3607 38.0472-76.554L38.0472-62.4755L38.0472-62.4755ZM16.0684-7.03931L29.7538-7.03931L29.7538 4.05792C29.7538 7.79062 26.6899 10.8171 22.9111 10.8171C19.1323 10.8171 16.0684 7.79062 16.0684 4.05792L16.0684-7.03931ZM10.7577-9.05699C6.26399-9.05699 2.58733-12.5879 2.58733-17.0268L2.58733-49.5114C4.42566-47.0902 7.38742-45.4761 10.7577-45.4761L34.9624-45.4761C38.3327-45.4761 41.2944-47.0902 43.1328-49.5114L43.1328-17.1277C43.1328-12.6888 39.4561-9.05699 34.9624-9.05699L10.7577-9.05699ZM13.0924-80.2567C10.8471-80.2567 9.02683-78.4365 9.02683-76.1911L9.02683-54.3006L36.5829-54.3006L36.5829-76.1911C36.5829-78.4365 34.7627-80.2567 32.5173-80.2567L13.0924-80.2567ZM13.1997-78.6256L32.41-78.6256C34.094-78.6256 35.4592-77.2604 35.4592-75.5764L35.4592-70.4944C35.4592-68.8104 34.094-67.4452 32.41-67.4452L13.1997-67.4452C11.5157-67.4452 10.1505-68.8104 10.1505-70.4944L10.1505-75.5764C10.1505-77.2604 11.5157-78.6256 13.1997-78.6256ZM12.1706-76.024L12.1706-70.48L12.825-70.5067L13.4705-70.5335L13.4705-75.9703L12.825-75.9971L12.1706-76.024ZM15.0596-70.5605C15.0955-70.5249 15.3914-70.5071 15.714-70.5248L16.2968-70.5516L16.3237-73.2879L16.3416-76.0331L14.9968-76.0331L14.9968-73.3326C14.9968-71.8441 15.0238-70.5963 15.0596-70.5605ZM17.8982-70.605C17.925-70.5247 18.1402-70.4891 18.5705-70.489L19.1981-70.489L19.1981-76.0241L18.5526-75.9972L17.8982-75.9704L17.8713-73.3412C17.8623-71.8973 17.8713-70.6673 17.8982-70.605ZM20.7244-76.033L20.7244-70.5069L21.9795-70.5069L21.9795-76.033L20.7244-76.033ZM23.5058-76.024L23.5058-70.48L24.1603-70.5067L24.8057-70.5335L24.8057-75.9703L24.1603-75.9971L23.5058-76.024ZM26.3321-76.024L26.3321-70.48L26.9865-70.5067L27.632-70.5335L27.632-75.9703L26.9865-75.9971L26.3321-76.024ZM29.2122-70.5696C29.2481-70.5339 29.544-70.516 29.8667-70.5338L30.4584-70.5516L30.4853-73.2879L30.5032-76.0331L29.1583-76.0331L29.1583-73.3326C29.1583-71.8441 29.1853-70.5963 29.2122-70.5696ZM32.0598-70.605C32.0866-70.5247 32.3018-70.4891 32.7321-70.489L33.3597-70.489L33.3597-76.0241L32.7142-75.9972L32.0598-75.9704L32.0329-73.3412C32.0239-71.8973 32.0329-70.6673 32.0598-70.605Z"/>
  </g>
  <g id="Medium-S" transform="matrix(1 0 0 1 1723.77 696)">
   <path d="M37.5912-62.3337C40.4822-61.6485 42.633-59.0504 42.633-55.95L42.633-53.7914C42.633-50.1682 39.6959-47.2311 36.0727-47.2311L8.83031-47.2311C5.20714-47.2311 2.26999-50.1682 2.26999-53.7914L2.26999-55.95C2.26999-59.0534 4.42484-61.6534 7.31992-62.3356L7.31992-76.3136C7.31992-79.1007 9.57927-81.36 12.3663-81.36L32.5448-81.36C35.3319-81.36 37.5912-79.1007 37.5912-76.3136L37.5912-62.3337L37.5912-62.3337ZM15.7663-7.28547L29.3559-7.28547L29.3559 3.73408C29.3559 7.44066 26.3134 10.446 22.5611 10.446C18.8087 10.446 15.7663 7.44066 15.7663 3.73408L15.7663-7.28547ZM10.4927-9.28902C6.03049-9.28902 2.37956-12.7952 2.37956-17.2031L2.37956-49.4603C4.20503-47.056 7.14605-45.4532 10.4927-45.4532L34.528-45.4532C37.8747-45.4532 40.8157-47.056 42.6412-49.4603L42.6412-17.3032C42.6412-12.8954 38.9903-9.28902 34.528-9.28902L10.4927-9.28902ZM12.8111-79.9904C10.5815-79.9904 8.77399-78.1829 8.77399-75.9532L8.77399-54.2159L36.1372-54.2159L36.1372-75.9532C36.1372-78.1829 34.3297-79.9904 32.1001-79.9904L12.8111-79.9904ZM12.9177-78.3706L31.9935-78.3706C33.6657-78.3706 35.0214-77.015 35.0214-75.3428L35.0214-70.2964C35.0214-68.6242 33.6657-67.2686 31.9935-67.2686L12.9177-67.2686C11.2454-67.2686 9.88982-68.6242 9.88982-70.2964L9.88982-75.3428C9.88982-77.015 11.2454-78.3706 12.9177-78.3706ZM11.8957-75.7872L11.8957-70.2821L12.5456-70.3086L13.1865-70.3352L13.1865-75.734L12.5456-75.7606L11.8957-75.7872ZM14.7645-70.3621C14.8002-70.3267 15.094-70.309 15.4144-70.3266L15.9931-70.3532L16.0198-73.0704L16.0375-75.7963L14.7022-75.7963L14.7022-73.1147C14.7022-71.6366 14.729-70.3975 14.7645-70.3621ZM17.5832-70.4062C17.6099-70.3265 17.8235-70.2911 18.2509-70.291L18.874-70.291L18.874-75.7873L18.2331-75.7607L17.5832-75.7341L17.5565-73.1232C17.5476-71.6895 17.5565-70.4681 17.5832-70.4062ZM20.3897-75.7962L20.3897-70.3088L21.636-70.3088L21.636-75.7962L20.3897-75.7962ZM23.1517-75.7872L23.1517-70.2821L23.8015-70.3086L24.4425-70.3352L24.4425-75.734L23.8015-75.7606L23.1517-75.7872ZM25.9581-75.7872L25.9581-70.2821L26.608-70.3086L27.2489-70.3352L27.2489-75.734L26.608-75.7606L25.9581-75.7872ZM28.818-70.371C28.8537-70.3356 29.1475-70.3179 29.468-70.3355L30.0556-70.3532L30.0823-73.0704L30.1-75.7963L28.7646-75.7963L28.7646-73.1147C28.7646-71.6366 28.7913-70.3975 28.818-70.371ZM31.6457-70.4062C31.6724-70.3265 31.886-70.2911 32.3133-70.291L32.9365-70.291L32.9365-75.7873L32.2956-75.7607L31.6457-75.7341L31.619-73.1232C31.6101-71.6895 31.619-70.4681 31.6457-70.4062Z"/>
  </g>
  <g id="Regular-S" transform="matrix(1 0 0 1 1427.43 696)">
   <path d="M36.9965-62.1486C39.8609-61.4698 41.9919-58.8956 41.9919-55.8236L41.9919-53.6849C41.9919-50.095 39.0818-47.1849 35.4919-47.1849L8.5-47.1849C4.91015-47.1849 2-50.095 2-53.6849L2-55.8236C2-58.8985 4.13504-61.4746 7.0035-62.1505L7.0035-76C7.0035-78.7614 9.24208-81 12.0035-81L31.9965-81C34.7579-81 36.9965-78.7614 36.9965-76L36.9965-62.1486L36.9965-62.1486ZM15.3722-7.60655L28.8368-7.60655L28.8368 3.31169C28.8368 6.98418 25.8224 9.96188 22.1045 9.96188C18.3867 9.96188 15.3722 6.98418 15.3722 3.31169L15.3722-7.60655ZM10.1471-9.59168C5.72593-9.59168 2.10857-13.0657 2.10857-17.433L2.10857-49.3936C3.91725-47.0114 6.83123-45.4233 10.1471-45.4233L33.9614-45.4233C37.2773-45.4233 40.1913-47.0114 42-49.3936L42-17.5322C42-13.1649 38.3826-9.59168 33.9614-9.59168L10.1471-9.59168ZM12.4442-79.6429C10.2351-79.6429 8.4442-77.8521 8.4442-75.6429L8.4442-54.1055L35.5558-54.1055L35.5558-75.6429C35.5558-77.8521 33.7649-79.6429 31.5558-79.6429L12.4442-79.6429ZM12.5498-78.0381L31.4502-78.0381C33.1071-78.0381 34.4502-76.695 34.4502-75.0381L34.4502-70.0381C34.4502-68.3813 33.1071-67.0381 31.4502-67.0381L12.5498-67.0381C10.8929-67.0381 9.54977-68.3813 9.54977-70.0381L9.54977-75.0381C9.54977-76.695 10.8929-78.0381 12.5498-78.0381ZM11.5372-75.4785L11.5372-70.0239L12.1811-70.0502L12.8162-70.0766L12.8162-75.4257L12.1811-75.4521L11.5372-75.4785ZM14.3797-70.1032C14.415-70.0682 14.7061-70.0506 15.0235-70.0681L15.5969-70.0944L15.6233-72.7866L15.641-75.4874L14.3179-75.4874L14.3179-72.8305C14.3179-71.366 14.3444-70.1383 14.3797-70.1032ZM17.1724-70.1469C17.1989-70.068 17.4106-70.0329 17.8339-70.0328L18.4514-70.0328L18.4514-75.4786L17.8163-75.4522L17.1724-75.4258L17.146-72.839C17.1372-71.4184 17.146-70.2082 17.1724-70.1469ZM19.9531-75.4873L19.9531-70.0504L21.188-70.0504L21.188-75.4873L19.9531-75.4873ZM22.6897-75.4785L22.6897-70.0239L23.3335-70.0502L23.9686-70.0766L23.9686-75.4257L23.3335-75.4521L22.6897-75.4785ZM25.4703-75.4785L25.4703-70.0239L26.1142-70.0502L26.7493-70.0766L26.7493-75.4257L26.1142-75.4521L25.4703-75.4785ZM28.3039-70.1121C28.3393-70.077 28.6304-70.0594 28.9479-70.0769L29.5301-70.0944L29.5565-72.7866L29.5742-75.4874L28.251-75.4874L28.251-72.8305C28.251-71.366 28.2775-70.1383 28.3039-70.1121ZM31.1056-70.1469C31.1321-70.068 31.3437-70.0329 31.7671-70.0328L32.3846-70.0328L32.3846-75.4786L31.7495-75.4522L31.1056-75.4258L31.0792-72.839C31.0704-71.4184 31.0792-70.2082 31.1056-70.1469Z"/>
  </g>
  <g id="Light-S" transform="matrix(1 0 0 1 1131.01 696)">
   <path d="M36.3923-61.1643C39.153-60.5101 41.2069-58.029 41.2069-55.0683L41.2069-53.007C41.2069-49.5471 38.4021-46.7423 34.9422-46.7423L8.92734-46.7423C5.46743-46.7423 2.66262-49.5471 2.66262-53.007L2.66262-55.0683C2.66262-58.0318 4.72038-60.5147 7.48501-61.1662L7.48501-74.5143C7.48501-77.1758 9.64255-79.3333 12.304-79.3333L31.5733-79.3333C34.2348-79.3333 36.3923-77.1758 36.3923-74.5143L36.3923-61.1643L36.3923-61.1643ZM15.5508-8.59656L28.528-8.59656L28.528 1.92646C28.528 5.46602 25.6227 8.33593 22.0394 8.33593C18.4561 8.33593 15.5508 5.46602 15.5508 1.92646L15.5508-8.59656ZM10.5149-10.5098C6.25368-10.5098 2.76726-13.8581 2.76726-18.0673L2.76726-48.871C4.51047-46.5751 7.31897-45.0445 10.5149-45.0445L33.4671-45.0445C36.663-45.0445 39.4715-46.5751 41.2147-48.871L41.2147-18.1629C41.2147-13.9537 37.7283-10.5098 33.4671-10.5098L10.5149-10.5098ZM12.7288-78.0254C10.5996-78.0254 8.87356-76.2994 8.87356-74.1702L8.87356-53.4123L35.0038-53.4123L35.0038-74.1702C35.0038-76.2994 33.2777-78.0254 31.1486-78.0254L12.7288-78.0254ZM12.8305-76.4787L31.0468-76.4787C32.6437-76.4787 33.9382-75.1841 33.9382-73.5873L33.9382-68.7682C33.9382-67.1714 32.6437-65.8768 31.0468-65.8768L12.8305-65.8768C11.2336-65.8768 9.93911-67.1714 9.93911-68.7682L9.93911-73.5873C9.93911-75.1841 11.2336-76.4787 12.8305-76.4787ZM11.8546-74.0117L11.8546-68.7546L12.4752-68.7799L13.0873-68.8053L13.0873-73.9608L12.4752-73.9862L11.8546-74.0117ZM14.5942-68.831C14.6282-68.7972 14.9088-68.7803 15.2147-68.7971L15.7674-68.8225L15.7928-71.4172L15.8098-74.0203L14.5346-74.0203L14.5346-71.4596C14.5346-70.0481 14.5602-68.8648 14.5942-68.831ZM17.2858-68.8731C17.3113-68.797 17.5153-68.7632 17.9234-68.7631L18.5185-68.7631L18.5185-74.0118L17.9064-73.9863L17.2858-73.9609L17.2604-71.4677C17.2519-70.0985 17.2604-68.9322 17.2858-68.8731ZM19.9658-74.0202L19.9658-68.7801L21.156-68.7801L21.156-74.0202L19.9658-74.0202ZM22.6034-74.0117L22.6034-68.7546L23.2239-68.7799L23.836-68.8053L23.836-73.9608L23.2239-73.9862L22.6034-74.0117ZM25.2834-74.0117L25.2834-68.7546L25.9039-68.7799L26.516-68.8053L26.516-73.9608L25.9039-73.9862L25.2834-74.0117ZM28.0144-68.8395C28.0485-68.8057 28.329-68.7887 28.6351-68.8056L29.1962-68.8225L29.2217-71.4172L29.2387-74.0203L27.9634-74.0203L27.9634-71.4596C27.9634-70.0481 27.9889-68.8648 28.0144-68.8395ZM30.7147-68.8731C30.7402-68.797 30.9442-68.7632 31.3522-68.7631L31.9473-68.7631L31.9473-74.0118L31.3353-73.9863L30.7147-73.9609L30.6892-71.4677C30.6807-70.0985 30.6892-68.9322 30.7147-68.8731Z"/>
  </g>
  <g id="Thin-S" transform="matrix(1 0 0 1 834.695 696)">
   <path d="M35.5933-59.8625C38.2168-59.2408 40.1687-56.883 40.1687-54.0693L40.1687-52.1104C40.1687-48.8223 37.5032-46.1568 34.2152-46.1568L9.49252-46.1568C6.20448-46.1568 3.53899-48.8223 3.53899-52.1104L3.53899-54.0693C3.53899-56.8856 5.49453-59.2452 8.12184-59.8643L8.12184-72.5494C8.12184-75.0787 10.1722-77.129 12.7015-77.129L31.0136-77.129C33.5429-77.129 35.5933-75.0787 35.5933-72.5494L35.5933-59.8625L35.5933-59.8625ZM15.787-9.90592L28.1196-9.90592L28.1196 0.0943896C28.1196 3.45813 25.3586 6.18549 21.9533 6.18549C18.548 6.18549 15.787 3.45813 15.787 0.0943896L15.787-9.90592ZM11.0012-11.7242C6.95167-11.7242 3.63843-14.9061 3.63843-18.9062L3.63843-48.1798C5.29505-45.998 7.96405-44.5434 11.0012-44.5434L32.8134-44.5434C35.8505-44.5434 38.5195-45.998 40.1761-48.1798L40.1761-18.9971C40.1761-14.997 36.8629-11.7242 32.8134-11.7242L11.0012-11.7242ZM13.1051-75.8861C11.0817-75.8861 9.44141-74.2458 9.44141-72.2224L9.44141-52.4956L34.2737-52.4956L34.2737-72.2224C34.2737-74.2458 32.6334-75.8861 30.61-75.8861L13.1051-75.8861ZM13.2018-74.4162L30.5133-74.4162C32.0308-74.4162 33.2611-73.1859 33.2611-71.6684L33.2611-67.0887C33.2611-65.5712 32.0308-64.341 30.5133-64.341L13.2018-64.341C11.6843-64.341 10.454-65.5712 10.454-67.0887L10.454-71.6684C10.454-73.1859 11.6843-74.4162 13.2018-74.4162ZM12.2744-72.0717L12.2744-67.0758L12.8641-67.0998L13.4458-67.124L13.4458-72.0234L12.8641-72.0475L12.2744-72.0717ZM14.8779-67.1483C14.9102-67.1162 15.1769-67.1002 15.4676-67.1162L15.9928-67.1403L16.017-69.6062L16.0331-72.0799L14.8213-72.0799L14.8213-69.6464C14.8213-68.305 14.8456-67.1805 14.8779-67.1483ZM17.4358-67.1884C17.4601-67.1161 17.6539-67.084 18.0417-67.0839L18.6073-67.0839L18.6073-72.0718L18.0256-72.0476L17.4358-72.0235L17.4116-69.6541C17.4036-68.3529 17.4116-67.2445 17.4358-67.1884ZM19.9827-72.0798L19.9827-67.1L21.1138-67.1L21.1138-72.0798L19.9827-72.0798ZM22.4892-72.0717L22.4892-67.0758L23.079-67.0998L23.6606-67.124L23.6606-72.0234L23.079-72.0475L22.4892-72.0717ZM25.0361-72.0717L25.0361-67.0758L25.6259-67.0998L26.2075-67.124L26.2075-72.0234L25.6259-72.0475L25.0361-72.0717ZM27.6315-67.1565C27.6639-67.1244 27.9305-67.1082 28.2213-67.1243L28.7546-67.1403L28.7788-69.6062L28.7949-72.0799L27.583-72.0799L27.583-69.6464C27.583-68.305 27.6073-67.1805 27.6315-67.1565ZM30.1976-67.1884C30.2219-67.1161 30.4157-67.084 30.8035-67.0839L31.3691-67.0839L31.3691-72.0718L30.7874-72.0476L30.1976-72.0235L30.1734-69.6541C30.1654-68.3529 30.1734-67.2445 30.1976-67.1884Z"/>
  </g>
  <g id="Ultralight-S" transform="matrix(1 0 0 1 538.184 696)">
   <path d="M35.184-59.1957C37.7373-58.5906 39.6369-56.296 39.6369-53.5576L39.6369-51.6511C39.6369-48.4511 37.0428-45.857 33.8428-45.857L9.78201-45.857C6.58199-45.857 3.98786-48.4511 3.98786-51.6511L3.98786-53.5576C3.98786-56.2985 5.89105-58.5949 8.44802-59.1974L8.44802-71.543C8.44802-74.0045 10.4435-76 12.9051-76L30.7269-76C33.1885-76 35.184-74.0045 35.184-71.543L35.184-59.1957L35.184-59.1957ZM15.9079-10.5766L27.9104-10.5766L27.9104-0.843988C27.9104 2.4297 25.2233 5.08404 21.9092 5.08404C18.5951 5.08404 15.9079 2.4297 15.9079-0.843988L15.9079-10.5766ZM11.2503-12.3461C7.30918-12.3461 4.08464-15.4429 4.08464-19.3359L4.08464-47.8258C5.69691-45.7024 8.29446-44.2867 11.2503-44.2867L32.4785-44.2867C35.4343-44.2867 38.0319-45.7024 39.6441-47.8258L39.6441-19.4244C39.6441-15.5313 36.4196-12.3461 32.4785-12.3461L11.2503-12.3461ZM13.2979-74.7903C11.3287-74.7903 9.73227-73.1939 9.73227-71.2247L9.73227-52.026L33.8997-52.026L33.8997-71.2247C33.8997-73.1939 32.3033-74.7903 30.3341-74.7903L13.2979-74.7903ZM13.392-73.3598L30.24-73.3598C31.7169-73.3598 32.9142-72.1625 32.9142-70.6855L32.9142-66.2285C32.9142-64.7516 31.7169-63.5543 30.24-63.5543L13.392-63.5543C11.9151-63.5543 10.7178-64.7516 10.7178-66.2285L10.7178-70.6855C10.7178-72.1625 11.9151-73.3598 13.392-73.3598ZM12.4894-71.0781L12.4894-66.2159L13.0634-66.2393L13.6295-66.2628L13.6295-71.031L13.0634-71.0546L12.4894-71.0781ZM15.0232-66.2865C15.0547-66.2553 15.3142-66.2397 15.5971-66.2552L16.1082-66.2787L16.1318-68.6785L16.1475-71.0861L14.9681-71.0861L14.9681-68.7177C14.9681-67.4122 14.9918-66.3178 15.0232-66.2865ZM17.5127-66.3255C17.5362-66.2551 17.7249-66.2239 18.1023-66.2238L18.6527-66.2238L18.6527-71.0782L18.0866-71.0546L17.5127-71.0311L17.4891-68.7252C17.4812-67.4589 17.4891-66.3801 17.5127-66.3255ZM19.9914-71.086L19.9914-66.2395L21.0921-66.2395L21.0921-71.086L19.9914-71.086ZM22.4308-71.0781L22.4308-66.2159L23.0047-66.2393L23.5708-66.2628L23.5708-71.031L23.0047-71.0546L22.4308-71.0781ZM24.9095-71.0781L24.9095-66.2159L25.4834-66.2393L26.0495-66.2628L26.0495-71.031L25.4834-71.0546L24.9095-71.0781ZM27.4354-66.2944C27.4669-66.2632 27.7264-66.2475 28.0094-66.2631L28.5284-66.2787L28.552-68.6785L28.5677-71.0861L27.3882-71.0861L27.3882-68.7177C27.3882-67.4122 27.4118-66.3178 27.4354-66.2944ZM29.9328-66.3255C29.9564-66.2551 30.1451-66.2239 30.5225-66.2238L31.0729-66.2238L31.0729-71.0782L30.5068-71.0546L29.9328-71.0311L29.9093-68.7252C29.9014-67.4589 29.9093-66.3801 29.9328-66.3255Z"/>
  </g>
 </g>
</svg>
