<?xml version="1.0" encoding="UTF-8"?>
<!--Generator: Apple Native CoreSVG 232.5-->
<!DOCTYPE svg
PUBLIC "-//W3C//DTD SVG 1.1//EN"
       "http://www.w3.org/Graphics/SVG/1.1/DTD/svg11.dtd">
<svg version="1.1" xmlns="http://www.w3.org/2000/svg" xmlns:xlink="http://www.w3.org/1999/xlink" width="3300" height="2200">
 <g id="Notes">
  <rect height="2200" id="artboard" style="fill:white;opacity:1" width="3300" x="0" y="0"/>
  <line style="fill:none;stroke:black;opacity:1;stroke-width:0.5;" x1="263" x2="3036" y1="292" y2="292"/>
  <text style="stroke:none;fill:black;font-family:sans-serif;font-size:13;font-weight:bold;" transform="matrix(1 0 0 1 263 322)">Weight/Scale Variations</text>
  <text style="stroke:none;fill:black;font-family:sans-serif;font-size:13;text-anchor:middle;" transform="matrix(1 0 0 1 559.711 322)">Ultralight</text>
  <text style="stroke:none;fill:black;font-family:sans-serif;font-size:13;text-anchor:middle;" transform="matrix(1 0 0 1 856.422 322)">Thin</text>
  <text style="stroke:none;fill:black;font-family:sans-serif;font-size:13;text-anchor:middle;" transform="matrix(1 0 0 1 1153.13 322)">Light</text>
  <text style="stroke:none;fill:black;font-family:sans-serif;font-size:13;text-anchor:middle;" transform="matrix(1 0 0 1 1449.84 322)">Regular</text>
  <text style="stroke:none;fill:black;font-family:sans-serif;font-size:13;text-anchor:middle;" transform="matrix(1 0 0 1 1746.56 322)">Medium</text>
  <text style="stroke:none;fill:black;font-family:sans-serif;font-size:13;text-anchor:middle;" transform="matrix(1 0 0 1 2043.27 322)">Semibold</text>
  <text style="stroke:none;fill:black;font-family:sans-serif;font-size:13;text-anchor:middle;" transform="matrix(1 0 0 1 2339.98 322)">Bold</text>
  <text style="stroke:none;fill:black;font-family:sans-serif;font-size:13;text-anchor:middle;" transform="matrix(1 0 0 1 2636.69 322)">Heavy</text>
  <text style="stroke:none;fill:black;font-family:sans-serif;font-size:13;text-anchor:middle;" transform="matrix(1 0 0 1 2933.4 322)">Black</text>
  <line style="fill:none;stroke:black;opacity:1;stroke-width:0.5;" x1="263" x2="3036" y1="1903" y2="1903"/>
  <g transform="matrix(0.2 0 0 0.2 263 1933)">
   <path d="m46.2402 4.15039c21.5332 0 39.4531-17.8711 39.4531-39.4043s-17.9688-39.4043-39.502-39.4043c-21.4844 0-39.3555 17.8711-39.3555 39.4043s17.9199 39.4043 39.4043 39.4043Zm0-7.42188c-17.7246 0-31.8848-14.209-31.8848-31.9824s14.1113-31.9824 31.8359-31.9824c17.7734 0 32.0312 14.209 32.0312 31.9824s-14.209 31.9824-31.9824 31.9824Zm-17.9688-31.9824c0 2.14844 1.51367 3.61328 3.75977 3.61328h10.498v10.5957c0 2.19727 1.46484 3.71094 3.61328 3.71094 2.24609 0 3.71094-1.51367 3.71094-3.71094v-10.5957h10.5957c2.19727 0 3.71094-1.46484 3.71094-3.61328 0-2.19727-1.51367-3.71094-3.71094-3.71094h-10.5957v-10.5469c0-2.24609-1.46484-3.75977-3.71094-3.75977-2.14844 0-3.61328 1.51367-3.61328 3.75977v10.5469h-10.498c-2.24609 0-3.75977 1.51367-3.75977 3.71094Z"/>
  </g>
  <g transform="matrix(0.2 0 0 0.2 281.506 1933)">
   <path d="m58.5449 14.5508c27.2461 0 49.8047-22.6074 49.8047-49.8047 0-27.2461-22.6074-49.8047-49.8535-49.8047-27.1973 0-49.7559 22.5586-49.7559 49.8047 0 27.1973 22.6074 49.8047 49.8047 49.8047Zm0-8.30078c-23.0469 0-41.4551-18.457-41.4551-41.5039s18.3594-41.5039 41.4062-41.5039 41.5527 18.457 41.5527 41.5039-18.457 41.5039-41.5039 41.5039Zm-22.6562-41.5039c0 2.39258 1.66016 4.00391 4.15039 4.00391h14.3555v14.4043c0 2.44141 1.66016 4.15039 4.05273 4.15039 2.44141 0 4.15039-1.66016 4.15039-4.15039v-14.4043h14.4043c2.44141 0 4.15039-1.61133 4.15039-4.00391 0-2.44141-1.70898-4.15039-4.15039-4.15039h-14.4043v-14.3555c0-2.49023-1.70898-4.19922-4.15039-4.19922-2.39258 0-4.05273 1.70898-4.05273 4.19922v14.3555h-14.3555c-2.49023 0-4.15039 1.70898-4.15039 4.15039Z"/>
  </g>
  <g transform="matrix(0.2 0 0 0.2 304.924 1933)">
   <path d="m74.8535 28.3203c34.8145 0 63.623-28.8086 63.623-63.5742 0-34.8145-28.8574-63.623-63.6719-63.623-34.7656 0-63.5254 28.8086-63.5254 63.623 0 34.7656 28.8086 63.5742 63.5742 63.5742Zm0-9.08203c-30.1758 0-54.4434-24.3164-54.4434-54.4922 0-30.2246 24.2188-54.4922 54.3945-54.4922 30.2246 0 54.541 24.2676 54.541 54.4922 0 30.1758-24.2676 54.4922-54.4922 54.4922Zm-28.8574-54.4922c0 2.58789 1.85547 4.39453 4.58984 4.39453h19.7266v19.7754c0 2.68555 1.85547 4.58984 4.44336 4.58984 2.68555 0 4.54102-1.85547 4.54102-4.58984v-19.7754h19.7754c2.68555 0 4.58984-1.80664 4.58984-4.39453 0-2.73438-1.85547-4.58984-4.58984-4.58984h-19.7754v-19.7266c0-2.73438-1.85547-4.63867-4.54102-4.63867-2.58789 0-4.44336 1.9043-4.44336 4.63867v19.7266h-19.7266c-2.73438 0-4.58984 1.85547-4.58984 4.58984Z"/>
  </g>
  <text style="stroke:none;fill:black;font-family:sans-serif;font-size:13;font-weight:bold;" transform="matrix(1 0 0 1 263 1953)">Design Variations</text>
  <text style="stroke:none;fill:black;font-family:sans-serif;font-size:13;" transform="matrix(1 0 0 1 263 1971)">Symbols are supported in up to nine weights and three scales.</text>
  <text style="stroke:none;fill:black;font-family:sans-serif;font-size:13;" transform="matrix(1 0 0 1 263 1989)">For optimal layout with text and other symbols, vertically align</text>
  <text style="stroke:none;fill:black;font-family:sans-serif;font-size:13;" transform="matrix(1 0 0 1 263 2007)">symbols with the adjacent text.</text>
  <line style="fill:none;stroke:#00AEEF;stroke-width:0.5;opacity:1.0;" x1="776" x2="776" y1="1919" y2="1933"/>
  <g transform="matrix(0.2 0 0 0.2 776 1933)">
   <path d="m16.5527 0.78125c2.58789 0 3.85742-0.976562 4.78516-3.71094l6.29883-17.2363h28.8086l6.29883 17.2363c0.927734 2.73438 2.19727 3.71094 4.73633 3.71094 2.58789 0 4.24805-1.5625 4.24805-4.00391 0-0.830078-0.146484-1.61133-0.537109-2.63672l-22.9004-60.9863c-1.12305-2.97852-3.125-4.49219-6.25-4.49219-3.02734 0-5.07812 1.46484-6.15234 4.44336l-22.9004 61.084c-0.390625 1.02539-0.537109 1.80664-0.537109 2.63672 0 2.44141 1.5625 3.95508 4.10156 3.95508Zm13.4766-28.3691 11.8652-32.8613h0.244141l11.8652 32.8613Z"/>
  </g>
  <line style="fill:none;stroke:#00AEEF;stroke-width:0.5;opacity:1.0;" x1="792.836" x2="792.836" y1="1919" y2="1933"/>
  <text style="stroke:none;fill:black;font-family:sans-serif;font-size:13;font-weight:bold;" transform="matrix(1 0 0 1 776 1953)">Margins</text>
  <text style="stroke:none;fill:black;font-family:sans-serif;font-size:13;" transform="matrix(1 0 0 1 776 1971)">Leading and trailing margins on the left and right side of each symbol</text>
  <text style="stroke:none;fill:black;font-family:sans-serif;font-size:13;" transform="matrix(1 0 0 1 776 1989)">can be adjusted by modifying the x-location of the margin guidelines.</text>
  <text style="stroke:none;fill:black;font-family:sans-serif;font-size:13;" transform="matrix(1 0 0 1 776 2007)">Modifications are automatically applied proportionally to all</text>
  <text style="stroke:none;fill:black;font-family:sans-serif;font-size:13;" transform="matrix(1 0 0 1 776 2025)">scales and weights.</text>
  <g transform="matrix(0.2 0 0 0.2 1289 1933)">
   <path d="m14.209 9.32617 8.49609 8.54492c4.29688 4.3457 9.22852 4.05273 13.8672-1.07422l53.4668-58.9355-4.83398-4.88281-53.0762 58.3984c-1.75781 2.00195-3.41797 2.49023-5.76172 0.146484l-5.85938-5.81055c-2.34375-2.29492-1.80664-4.00391 0.195312-5.81055l57.373-54.0039-4.88281-4.83398-57.959 54.4434c-4.93164 4.58984-5.32227 9.47266-1.02539 13.8184Zm32.0801-90.9668c-2.09961 2.05078-2.24609 4.93164-1.07422 6.88477 1.17188 1.80664 3.4668 2.97852 6.68945 2.14844 7.32422-1.70898 14.9414-2.00195 22.0703 2.68555l-2.92969 7.27539c-1.70898 4.15039-0.830078 7.08008 1.85547 9.81445l11.4746 11.5723c2.44141 2.44141 4.49219 2.53906 7.32422 2.05078l5.32227-0.976562 3.32031 3.36914-0.195312 2.7832c-0.195312 2.49023 0.439453 4.39453 2.88086 6.78711l3.80859 3.71094c2.39258 2.39258 5.46875 2.53906 7.8125 0.195312l14.5508-14.5996c2.34375-2.34375 2.24609-5.32227-0.146484-7.71484l-3.85742-3.80859c-2.39258-2.39258-4.24805-3.17383-6.64062-2.97852l-2.88086 0.244141-3.22266-3.17383 1.2207-5.61523c0.634766-2.83203-0.146484-5.0293-3.07617-7.95898l-10.9863-10.9375c-16.6992-16.6016-38.8672-16.2109-53.3203-1.75781Zm7.4707 1.85547c12.1582-8.88672 28.6133-7.37305 39.7461 3.75977l12.1582 12.0605c1.17188 1.17188 1.36719 2.09961 1.02539 3.80859l-1.61133 7.42188 7.51953 7.42188 4.93164-0.292969c1.26953-0.0488281 1.66016 0.0488281 2.63672 1.02539l2.88086 2.88086-12.207 12.207-2.88086-2.88086c-0.976562-0.976562-1.12305-1.36719-1.07422-2.68555l0.341797-4.88281-7.4707-7.42188-7.61719 1.26953c-1.61133 0.341797-2.34375 0.195312-3.56445-0.976562l-10.0098-10.0098c-1.26953-1.17188-1.41602-2.00195-0.634766-3.85742l4.39453-10.4492c-7.8125-7.27539-17.9688-10.4004-28.125-7.42188-0.78125 0.195312-1.07422-0.439453-0.439453-0.976562Z"/>
  </g>
  <text style="stroke:none;fill:black;font-family:sans-serif;font-size:13;font-weight:bold;" transform="matrix(1 0 0 1 1289 1953)">Exporting</text>
  <text style="stroke:none;fill:black;font-family:sans-serif;font-size:13;" transform="matrix(1 0 0 1 1289 1971)">Symbols should be outlined when exporting to ensure the</text>
  <text style="stroke:none;fill:black;font-family:sans-serif;font-size:13;" transform="matrix(1 0 0 1 1289 1989)">design is preserved when submitting to Xcode.</text>
  <text id="template-version" style="stroke:none;fill:black;font-family:sans-serif;font-size:13;text-anchor:end;" transform="matrix(1 0 0 1 3036 1933)">Template v.2.0</text>
  <text style="stroke:none;fill:black;font-family:sans-serif;font-size:13;text-anchor:end;" transform="matrix(1 0 0 1 3036 1951)">Requires Xcode 12 or greater</text>
  <text id="descriptive-name" style="stroke:none;fill:black;font-family:sans-serif;font-size:13;text-anchor:end;" transform="matrix(1 0 0 1 3036 1969)">Generated from wirelesscharging</text>
  <text style="stroke:none;fill:black;font-family:sans-serif;font-size:13;text-anchor:end;" transform="matrix(1 0 0 1 3036 1987)">Typeset at 100.0 points</text>
  <text style="stroke:none;fill:black;font-family:sans-serif;font-size:13;" transform="matrix(1 0 0 1 263 726)">Small</text>
  <text style="stroke:none;fill:black;font-family:sans-serif;font-size:13;" transform="matrix(1 0 0 1 263 1156)">Medium</text>
  <text style="stroke:none;fill:black;font-family:sans-serif;font-size:13;" transform="matrix(1 0 0 1 263 1586)">Large</text>
 </g>
 <g id="Guides">
  <g id="H-reference" style="fill:#27AAE1;stroke:none;" transform="matrix(1 0 0 1 339 696)">
   <path d="M0.993654 0L3.63775 0L29.3281-67.1323L30.0303-67.1323L30.0303-70.459L28.1226-70.459ZM11.6885-24.4799L46.9815-24.4799L46.2315-26.7285L12.4385-26.7285ZM55.1196 0L57.7637 0L30.6382-70.459L29.4326-70.459L29.4326-67.1323Z"/>
  </g>
  <line id="Baseline-S" style="fill:none;stroke:#27AAE1;opacity:1;stroke-width:0.5;" x1="263" x2="3036" y1="696" y2="696"/>
  <line id="Capline-S" style="fill:none;stroke:#27AAE1;opacity:1;stroke-width:0.5;" x1="263" x2="3036" y1="625.541" y2="625.541"/>
  <g id="H-reference" style="fill:#27AAE1;stroke:none;" transform="matrix(1 0 0 1 339 1126)">
   <path d="M0.993654 0L3.63775 0L29.3281-67.1323L30.0303-67.1323L30.0303-70.459L28.1226-70.459ZM11.6885-24.4799L46.9815-24.4799L46.2315-26.7285L12.4385-26.7285ZM55.1196 0L57.7637 0L30.6382-70.459L29.4326-70.459L29.4326-67.1323Z"/>
  </g>
  <line id="Baseline-M" style="fill:none;stroke:#27AAE1;opacity:1;stroke-width:0.5;" x1="263" x2="3036" y1="1126" y2="1126"/>
  <line id="Capline-M" style="fill:none;stroke:#27AAE1;opacity:1;stroke-width:0.5;" x1="263" x2="3036" y1="1055.54" y2="1055.54"/>
  <g id="H-reference" style="fill:#27AAE1;stroke:none;" transform="matrix(1 0 0 1 339 1556)">
   <path d="M0.993654 0L3.63775 0L29.3281-67.1323L30.0303-67.1323L30.0303-70.459L28.1226-70.459ZM11.6885-24.4799L46.9815-24.4799L46.2315-26.7285L12.4385-26.7285ZM55.1196 0L57.7637 0L30.6382-70.459L29.4326-70.459L29.4326-67.1323Z"/>
  </g>
  <line id="Baseline-L" style="fill:none;stroke:#27AAE1;opacity:1;stroke-width:0.5;" x1="263" x2="3036" y1="1556" y2="1556"/>
  <line id="Capline-L" style="fill:none;stroke:#27AAE1;opacity:1;stroke-width:0.5;" x1="263" x2="3036" y1="1485.54" y2="1485.54"/>
  <line id="left-margin" style="fill:none;stroke:#00AEEF;stroke-width:0.5;opacity:1.0;" x1="1371.45" x2="1371.45" y1="1030.79" y2="1150.12"/>
  <line id="right-margin" style="fill:none;stroke:#00AEEF;stroke-width:0.5;opacity:1.0;" x1="1528.23" x2="1528.23" y1="1030.79" y2="1150.12"/>
 </g>
 <g id="Symbols">
  <g id="Black-L" transform="matrix(1 0 0 1 2819.22 1556)">
   <path d="M7.96479-35.2113C7.96479-14.2285 14.868 5.67145 27.0512 21.801C30.6225 26.5161 36.8319 26.7758 41.3677 23.0098C45.8034 19.2854 45.8878 13.5085 42.3792 8.67949C33.284-3.84251 28.1528-19.1368 28.1528-35.2113C28.1528-51.3651 33.284-66.6385 42.4375-79.1825C46.0046-84.0479 45.9397-89.7664 41.3677-93.5699C36.8915-97.3348 30.6797-96.996 27.1097-92.3404C14.868-76.1721 7.96479-56.194 7.96479-35.2113ZM213.797-35.2113C213.797-56.194 206.893-76.1721 194.651-92.3404C191.082-96.996 184.869-97.3348 180.393-93.5699C175.821-89.7664 175.756-84.0479 179.323-79.1825C188.477-66.6385 193.606-51.3651 193.606-35.2113C193.606-19.1368 188.477-3.84251 179.381 8.67949C175.873 13.5085 175.958 19.2854 180.393 23.0098C184.929 26.7758 191.138 26.5161 194.71 21.801C206.893 5.67145 213.797-14.2285 213.797-35.2113ZM47.0484-35.2113C47.0484-14.2285 53.9516 5.67145 66.1348 21.801C69.7061 26.5161 75.9155 26.7758 80.4513 23.0098C84.887 19.2854 84.9715 13.5085 81.4628 8.67949C72.3676-3.84251 67.2364-19.1368 67.2364-35.2113C67.2364-51.3651 72.3676-66.6385 81.5211-79.1825C85.0882-84.0479 85.0233-89.7664 80.4513-93.5699C75.9751-97.3348 69.7633-96.996 66.1933-92.3404C53.9516-76.1721 47.0484-56.194 47.0484-35.2113ZM173.601-35.2113C173.601-56.194 166.698-76.1721 154.456-92.3404C150.886-96.996 144.674-97.3348 140.198-93.5699C135.626-89.7664 135.561-84.0479 139.128-79.1825C148.282-66.6385 153.411-51.3651 153.411-35.2113C153.411-19.1368 148.282-3.84251 139.186 8.67949C135.678 13.5085 135.762 19.2854 140.198 23.0098C144.734 26.7758 150.943 26.5161 154.515 21.801C166.698 5.67145 173.601-14.2285 173.601-35.2113ZM86.8596-31.7981C86.8596-29.946 88.3717-28.5376 90.2833-28.5376L107.339-28.5376L98.2794-4.85688C96.5846-0.349793 101.446 2.29767 104.553-1.33079L134.011-36.8642C134.731-37.6475 135.11-38.665 135.11-39.6385C135.11-41.4696 133.599-42.9001 131.629-42.9001L114.631-42.9001L123.691-66.5224C125.386-71.0087 120.465-73.7145 117.358-70.0848L87.9015-34.5139C87.1801-33.711 86.8596-32.7726 86.8596-31.7981Z"/>
  </g>
  <g id="Heavy-L" transform="matrix(1 0 0 1 2525.82 1556)">
   <path d="M7.96479-35.2251C7.96479-14.5103 14.7666 4.99749 26.6653 20.8232C29.8312 25.0104 35.3076 25.2706 39.315 21.9464C43.2175 18.6825 43.3438 13.5889 40.2686 9.35277C31.024-3.29823 25.7614-18.8214 25.7614-35.2251C25.7614-51.7037 31.024-67.1966 40.3132-79.8833C43.433-84.1284 43.3312-89.1772 39.315-92.5159C35.3578-95.8346 29.8702-95.4996 26.71-91.3626C14.7666-75.5169 7.96479-55.9398 7.96479-35.2251ZM207.174-35.2251C207.174-55.9398 200.373-75.5169 188.429-91.3626C185.269-95.4996 179.781-95.8346 175.824-92.5159C171.807-89.1772 171.706-84.1284 174.825-79.8833C184.115-67.1966 189.371-51.7037 189.371-35.2251C189.371-18.8214 184.115-3.29823 174.87 9.35277C171.795 13.5889 171.921 18.6825 175.824 21.9464C179.831 25.2706 185.307 25.0104 188.474 20.8232C200.373 4.99749 207.174-14.5103 207.174-35.2251ZM44.3037-35.2251C44.3037-14.5103 51.1055 4.99749 63.0042 20.8232C66.1701 25.0104 71.6465 25.2706 75.654 21.9464C79.5564 18.6825 79.6827 13.5889 76.6075 9.35277C67.3629-3.29823 62.1004-18.8214 62.1004-35.2251C62.1004-51.7037 67.3629-67.1966 76.6521-79.8833C79.7719-84.1284 79.6701-89.1772 75.654-92.5159C71.6967-95.8346 66.2091-95.4996 63.0489-91.3626C51.1055-75.5169 44.3037-55.9398 44.3037-35.2251ZM169.806-35.2251C169.806-55.9398 163.005-75.5169 151.061-91.3626C147.901-95.4996 142.413-95.8346 138.456-92.5159C134.439-89.1772 134.338-84.1284 137.457-79.8833C146.747-67.1966 152.003-51.7037 152.003-35.2251C152.003-18.8214 146.747-3.29823 137.502 9.35277C134.427 13.5889 134.553 18.6825 138.456 21.9464C142.463 25.2706 147.939 25.0104 151.106 20.8232C163.005 4.99749 169.806-14.5103 169.806-35.2251ZM82.9859-31.6266C82.9859-29.86 84.4119-28.5558 86.2286-28.5558L104.093-28.5558L94.5815-3.51018C92.959 0.821443 97.6043 3.32384 100.548-0.151252L130.876-37.1228C131.583-37.8968 131.943-38.8784 131.943-39.7885C131.943-41.5248 130.523-42.8647 128.662-42.8647L110.842-42.8647L120.353-67.8657C121.976-72.1672 117.28-74.7142 114.337-71.2335L84.0145-34.2474C83.3019-33.4489 82.9859-32.5421 82.9859-31.6266Z"/>
  </g>
  <g id="Bold-L" transform="matrix(1 0 0 1 2233.26 1556)">
   <path d="M7.96479-35.2405C7.96479-14.8711 14.6585 4.15256 26.2335 19.5794C28.8924 23.0985 33.4472 23.3513 36.794 20.5801C40.0356 17.8849 40.2008 13.6441 37.656 10.138C28.212-2.65192 22.7732-18.4444 22.7732-35.2405C22.7732-52.1038 28.212-67.8583 37.6851-80.6994C40.2592-84.1835 40.1187-88.3951 36.794-91.1575C33.4896-93.9155 28.9084-93.5956 26.2628-90.1188C14.6585-74.6876 7.96479-55.6098 7.96479-35.2405ZM198.886-35.2405C198.886-55.6098 192.192-74.6876 180.588-90.1188C177.942-93.5956 173.361-93.9155 170.056-91.1575C166.731-88.3951 166.591-84.1835 169.165-80.6994C178.638-67.8583 184.064-52.1038 184.064-35.2405C184.064-18.4444 178.638-2.65192 169.194 10.138C166.65 13.6441 166.815 17.8849 170.056 20.5801C173.403 23.3513 177.958 23.0985 180.617 19.5794C192.192 4.15256 198.886-14.8711 198.886-35.2405ZM40.9387-35.2405C40.9387-14.8711 47.6324 4.15256 59.2075 19.5794C61.8663 23.0985 66.4211 23.3513 69.7679 20.5801C73.0095 17.8849 73.1747 13.6441 70.6299 10.138C61.1859-2.65192 55.7471-18.4444 55.7471-35.2405C55.7471-52.1038 61.1859-67.8583 70.6591-80.6994C73.2331-84.1835 73.0927-88.3951 69.7679-91.1575C66.4635-93.9155 61.8823-93.5956 59.2367-90.1188C47.6324-74.6876 40.9387-55.6098 40.9387-35.2405ZM164.985-35.2405C164.985-55.6098 158.291-74.6876 146.687-90.1188C144.041-93.5956 139.46-93.9155 136.155-91.1575C132.83-88.3951 132.69-84.1835 135.264-80.6994C144.737-67.8583 150.162-52.1038 150.162-35.2405C150.162-18.4444 144.737-2.65192 135.293 10.138C132.749 13.6441 132.914 17.8849 136.155 20.5801C139.502 23.3513 144.057 23.0985 146.716 19.5794C158.291 4.15256 164.985-14.8711 164.985-35.2405ZM78.1761-31.3891C78.1761-29.745 79.4871-28.5789 81.1736-28.5789L100.015-28.5789L89.9497-1.87255C88.4267 2.20659 92.7659 4.51726 95.4947 1.25656L126.906-37.4604C127.59-38.2266 127.927-39.1547 127.927-39.9804C127.927-41.5865 126.63-42.8038 124.914-42.8038L106.102-42.8038L116.167-69.4808C117.69-73.5221 113.308-75.862 110.58-72.588L79.1819-33.8798C78.4845-33.0888 78.1761-32.2279 78.1761-31.3891Z"/>
  </g>
  <g id="Semibold-L" transform="matrix(1 0 0 1 1939.4 1556)">
   <path d="M7.96479-35.2511C7.96479-15.1198 14.5839 3.57007 25.9359 18.7219C28.2453 21.7805 32.1647 22.0282 35.056 19.6383C37.8421 17.3351 38.034 13.6821 35.8548 10.6794C26.2735-2.20635 20.7131-18.1846 20.7131-35.2511C20.7131-52.3797 26.2735-68.3145 35.8734-81.2621C38.0712-84.2215 37.9041-87.8559 35.056-90.221C32.2017-92.5925 28.2453-92.2829 25.9545-89.2613C14.5839-74.1158 7.96479-55.3824 7.96479-35.2511ZM193.172-35.2511C193.172-55.3824 186.553-74.1158 175.182-89.2613C172.891-92.2829 168.935-92.5925 166.08-90.221C163.232-87.8559 163.066-84.2215 165.263-81.2621C174.863-68.3145 180.404-52.3797 180.404-35.2511C180.404-18.1846 174.863-2.20635 165.281 10.6794C163.103 13.6821 163.295 17.3351 166.08 19.6383C168.972 22.0282 172.891 21.7805 175.201 18.7219C186.553 3.57007 193.172-15.1198 193.172-35.2511ZM38.6189-35.2511C38.6189-15.1198 45.238 3.57007 56.59 18.7219C58.8993 21.7805 62.8188 22.0282 65.7101 19.6383C68.4962 17.3351 68.6881 13.6821 66.5089 10.6794C56.9276-2.20635 51.3672-18.1846 51.3672-35.2511C51.3672-52.3797 56.9276-68.3145 66.5275-81.2621C68.7253-84.2215 68.5582-87.8559 65.7101-90.221C62.8558-92.5925 58.8994-92.2829 56.6086-89.2613C45.238-74.1158 38.6189-55.3824 38.6189-35.2511ZM161.661-35.2511C161.661-55.3824 155.042-74.1158 143.671-89.2613C141.381-92.2829 137.424-92.5925 134.57-90.221C131.721-87.8559 131.555-84.2215 133.752-81.2621C143.352-68.3145 148.894-52.3797 148.894-35.2511C148.894-18.1846 143.352-2.20635 133.771 10.6794C131.592 13.6821 131.784 17.3351 134.57 19.6383C137.461 22.0282 141.38 21.7805 143.69 18.7219C155.042 3.57007 161.661-15.1198 161.661-35.2511ZM74.8602-31.2254C74.8602-29.6657 76.092-28.5948 77.6887-28.5948L97.2031-28.5948L86.7565-0.743581C85.3022 3.1615 89.4303 5.34 92.011 2.2271L124.169-37.6931C124.837-38.4539 125.159-39.3451 125.159-40.1127C125.159-41.629 123.946-42.7618 122.33-42.7618L102.835-42.7618L113.281-70.5943C114.736-74.4561 110.57-76.6532 107.99-73.5217L75.8503-33.6263C75.1634-32.8406 74.8602-32.0113 74.8602-31.2254Z"/>
  </g>
  <g id="Medium-L" transform="matrix(1 0 0 1 1644.86 1556)">
   <path d="M7.96479-35.2592C7.96479-15.3084 14.5274 3.1284 25.7102 18.0717C27.7545 20.7812 31.1922 21.0249 33.7382 18.9241C36.1789 16.9182 36.3911 13.711 34.4892 11.0899C24.8036-1.8685 19.1511-17.9876 19.1511-35.2592C19.1511-52.5889 24.8036-68.6604 34.4997-81.6887C36.4121-84.2504 36.2248-87.4471 33.7382-89.5109C31.2252-91.5893 27.7426-91.2876 25.7207-88.6112C14.5274-73.6823 7.96479-55.2099 7.96479-35.2592ZM188.839-35.2592C188.839-55.2099 182.277-73.6823 171.083-88.6112C169.061-91.2876 165.579-91.5893 163.066-89.5109C160.579-87.4471 160.392-84.2504 162.304-81.6887C172-68.6604 177.63-52.5889 177.63-35.2592C177.63-17.9876 172-1.8685 162.315 11.0899C160.413 13.711 160.625 16.9182 163.066 18.9241C165.612 21.0249 169.049 20.7812 171.094 18.0717C182.277 3.1284 188.839-15.3084 188.839-35.2592ZM36.8599-35.2592C36.8599-15.3084 43.4225 3.1284 54.6053 18.0717C56.6496 20.7812 60.0873 21.0249 62.6333 18.9241C65.074 16.9182 65.2862 13.711 63.3843 11.0899C53.6987-1.8685 48.0462-17.9876 48.0462-35.2592C48.0462-52.5889 53.6987-68.6604 63.3948-81.6887C65.3072-84.2504 65.1199-87.4471 62.6333-89.5109C60.1203-91.5893 56.6377-91.2876 54.6158-88.6112C43.4225-73.6823 36.8599-55.2099 36.8599-35.2592ZM159.141-35.2592C159.141-55.2099 152.579-73.6823 141.385-88.6112C139.363-91.2876 135.88-91.5893 133.367-89.5109C130.881-87.4471 130.694-84.2504 132.605-81.6887C142.302-68.6604 147.931-52.5889 147.931-35.2592C147.931-17.9876 142.302-1.8685 132.616 11.0899C130.715 13.711 130.927 16.9182 133.367 18.9241C135.913 21.0249 139.351 20.7812 141.395 18.0717C152.579 3.1284 159.141-15.3084 159.141-35.2592ZM72.346-31.1013C72.346-29.6056 73.5176-28.6068 75.0463-28.6068L95.0712-28.6068L84.3353 0.112453C82.9331 3.88555 86.9012 5.96383 89.3696 2.963L122.094-37.8695C122.75-38.6263 123.06-39.4895 123.06-40.213C123.06-41.6613 121.911-42.7299 120.372-42.7299L100.357-42.7299L111.093-71.4385C112.495-75.1644 108.494-77.2532 106.026-74.2298L73.3241-33.4341C72.6452-32.6524 72.346-31.8471 72.346-31.1013Z"/>
  </g>
  <g id="Regular-L" transform="matrix(1 0 0 1 1350.97 1556)">
   <path d="M7.96479-35.2697C7.96479-15.5544 14.4537 2.55231 25.4158 17.2237C27.1145 19.4776 29.9238 19.7163 32.0194 17.9926C34.0095 16.3744 34.2482 13.7486 32.7078 11.6253C22.8864-1.42783 17.1137-17.7306 17.1137-35.2697C17.1137-52.8617 22.8864-69.1116 32.7078-82.2451C34.2482-84.288 34.0345-86.9138 32.0194-88.5847C29.9514-90.2808 27.0868-89.9894 25.4158-87.7631C14.4537-73.1169 7.96479-54.985 7.96479-35.2697ZM183.188-35.2697C183.188-54.985 176.7-73.1169 165.737-87.7631C164.066-89.9894 161.201-90.2808 159.133-88.5847C157.118-86.9138 156.905-84.288 158.445-82.2451C168.266-69.1116 174.011-52.8617 174.011-35.2697C174.011-17.7306 168.266-1.42783 158.445 11.6253C156.905 13.7486 157.143 16.3744 159.133 17.9926C161.229 19.7163 164.038 19.4776 165.737 17.2237C176.7 2.55231 183.188-15.5544 183.188-35.2697ZM34.5656-35.2697C34.5656-15.5544 41.0545 2.55231 52.0166 17.2237C53.7153 19.4776 56.5245 19.7163 58.6201 17.9926C60.6102 16.3744 60.8489 13.7486 59.3086 11.6253C49.4872-1.42783 43.7144-17.7306 43.7144-35.2697C43.7144-52.8617 49.4872-69.1116 59.3086-82.2451C60.8489-84.288 60.6353-86.9138 58.6201-88.5847C56.5522-90.2808 53.6876-89.9894 52.0166-87.7631C41.0545-73.1169 34.5656-54.985 34.5656-35.2697ZM155.854-35.2697C155.854-54.985 149.365-73.1169 138.402-87.7631C136.731-89.9894 133.867-90.2808 131.799-88.5847C129.784-86.9138 129.571-84.288 131.11-82.2451C140.932-69.1116 146.677-52.8617 146.677-35.2697C146.677-17.7306 140.932-1.42783 131.11 11.6253C129.571 13.7486 129.809 16.3744 131.799 17.9926C133.894 19.7163 136.704 19.4776 138.402 17.2237C149.365 2.55231 155.854-15.5544 155.854-35.2697ZM69.0666-30.9394C69.0666-29.5272 70.1598-28.6225 71.5997-28.6225L92.2905-28.6225L81.1773 1.22902C79.843 4.82996 83.6022 6.77752 85.9243 3.92287L119.387-38.0997C120.028-38.8512 120.322-39.6778 120.322-40.3438C120.322-41.7034 119.256-42.6884 117.816-42.6884L97.1255-42.6884L108.239-72.5398C109.573-76.0882 105.786-78.0357 103.464-75.1533L70.0291-33.1835C69.3606-32.4069 69.0666-31.6329 69.0666-30.9394Z"/>
  </g>
  <g id="Light-L" transform="matrix(1 0 0 1 1057.4 1556)">
   <path d="M7.96479-35.2697C7.96479-15.8789 14.4919 1.90343 25.4158 16.1549C26.7328 17.8554 28.8168 18.0368 30.4162 16.733C31.9482 15.4965 32.1297 13.5005 30.9138 11.8543C20.8633-1.16066 14.8807-17.5588 14.8807-35.2697C14.8807-53.0144 20.8633-69.3787 30.9138-82.4741C32.1297-84.0399 31.9351-86.0359 30.4162-87.306C28.8635-88.5631 26.686-88.348 25.4158-86.6944C14.4919-72.4298 7.96479-54.6605 7.96479-35.2697ZM176.909-35.2697C176.909-54.6605 170.382-72.4298 159.458-86.6944C158.188-88.348 156.01-88.5631 154.458-87.306C152.939-86.0359 152.744-84.0399 153.96-82.4741C164.011-69.3787 169.946-53.0144 169.946-35.2697C169.946-17.5588 164.011-1.16066 153.96 11.8543C152.744 13.5005 152.926 15.4965 154.458 16.733C156.057 18.0368 158.141 17.8554 159.458 16.1549C170.382 1.90343 176.909-15.8789 176.909-35.2697ZM32.4641-35.2697C32.4641-15.8789 38.9912 1.90343 49.9152 16.1549C51.2321 17.8554 53.3161 18.0368 54.9155 16.733C56.4475 15.4965 56.629 13.5005 55.4132 11.8543C45.3627-1.16066 39.38-17.5588 39.38-35.2697C39.38-53.0144 45.3627-69.3787 55.4132-82.4741C56.629-84.0399 56.4345-86.0359 54.9155-87.306C53.3628-88.5631 51.1854-88.348 49.9152-86.6944C38.9912-72.4298 32.4641-54.6605 32.4641-35.2697ZM151.746-35.2697C151.746-54.6605 145.22-72.4298 134.295-86.6944C133.025-88.348 130.848-88.5631 129.295-87.306C127.776-86.0359 127.582-84.0399 128.797-82.4741C138.848-69.3787 144.784-53.0144 144.784-35.2697C144.784-17.5588 138.848-1.16066 128.797 11.8543C127.582 13.5005 127.763 15.4965 129.295 16.733C130.894 18.0368 132.978 17.8554 134.295 16.1549C145.22 1.90343 151.746-15.8789 151.746-35.2697ZM65.6695-30.615C65.6695-29.3936 66.6291-28.6416 67.8972-28.6416L89.1033-28.6416L77.6465 2.16421C76.4458 5.36436 79.747 7.10199 81.84 4.55267L116.085-38.4432C116.669-39.2138 116.944-39.945 116.944-40.5156C116.944-41.7034 116.031-42.5357 114.763-42.5357L93.5566-42.5357L105.013-73.3413C106.214-76.508 102.866-78.2456 100.773-75.6495L66.5747-32.6873C65.9444-31.9298 65.6695-31.2321 65.6695-30.615Z"/>
  </g>
  <g id="Thin-L" transform="matrix(1 0 0 1 764.843 1556)">
   <path d="M7.96479-35.2697C7.96479-16.308 14.5423 1.04522 25.4158 14.7414C26.2279 15.7098 27.3528 15.8155 28.2958 15.067C29.2221 14.3354 29.3278 13.1723 28.5411 12.1572C18.1877-0.807291 11.9274-17.3316 11.9274-35.2697C11.9274-53.2163 18.1877-69.7321 28.5411-82.777C29.3278-83.7117 29.1585-84.8748 28.2958-85.6148C27.4247-86.2914 26.156-86.1772 25.4158-85.2809C14.5423-71.521 7.96479-54.2314 7.96479-35.2697ZM168.604-35.2697C168.604-54.2314 162.027-71.521 151.153-85.2809C150.413-86.1772 149.145-86.2914 148.274-85.6148C147.411-84.8748 147.242-83.7117 148.028-82.777C158.382-69.7321 164.57-53.2163 164.57-35.2697C164.57-17.3316 158.382-0.807291 148.028 12.1572C147.242 13.1723 147.347 14.3354 148.274 15.067C149.217 15.8155 150.341 15.7098 151.153 14.7414C162.027 1.04522 168.604-16.308 168.604-35.2697ZM29.6848-35.2697C29.6848-16.308 36.2623 1.04522 47.1358 14.7414C47.9479 15.7098 49.0727 15.8155 50.0158 15.067C50.9421 14.3354 51.0478 13.1723 50.2611 12.1572C39.9076-0.807291 33.6473-17.3316 33.6473-35.2697C33.6473-53.2163 39.9076-69.7321 50.2611-82.777C51.0478-83.7117 50.8785-84.8748 50.0158-85.6148C49.1447-86.2914 47.876-86.1772 47.1358-85.2809C36.2623-71.521 29.6848-54.2314 29.6848-35.2697ZM146.314-35.2697C146.314-54.2314 139.737-71.521 128.864-85.2809C128.123-86.1772 126.855-86.2914 125.984-85.6148C125.121-84.8748 124.952-83.7117 125.738-82.777C136.092-69.7321 142.28-53.2163 142.28-35.2697C142.28-17.3316 136.092-0.807291 125.738 12.1572C124.952 13.1723 125.057 14.3354 125.984 15.067C126.927 15.8155 128.051 15.7098 128.864 14.7414C139.737 1.04522 146.314-16.308 146.314-35.2697ZM61.1765-30.1858C61.1765-29.2168 61.9593-28.6669 63.0003-28.6669L84.8879-28.6669L72.9768 3.40107C71.9528 6.07115 74.6482 7.53112 76.4383 5.38564L111.718-38.8976C112.226-39.6934 112.476-40.2984 112.476-40.7428C112.476-41.7034 111.765-42.3337 110.724-42.3337L88.8364-42.3337L100.748-74.4015C101.772-77.0633 99.0041-78.5233 97.2141-76.3058L62.0059-32.031C61.4261-31.2988 61.1765-30.702 61.1765-30.1858Z"/>
  </g>
  <g id="Ultralight-L" transform="matrix(1 0 0 1 470.26 1556)">
   <path d="M7.96479-35.2697C7.96479-16.5278 14.5682 0.605655 25.4158 14.0174C25.9694 14.6109 26.6029 14.6778 27.2098 14.2137C27.8258 13.7406 27.8927 13.0043 27.3258 12.3124C16.8172-0.626299 10.4147-17.2153 10.4147-35.2697C10.4147-53.3198 16.8172-69.9131 27.3258-82.9321C27.8927-83.5436 27.7364-84.2801 27.2098-84.7485C26.6878-85.1278 25.8845-85.0653 25.4158-84.5569C14.5682-71.0556 7.96479-54.0116 7.96479-35.2697ZM164.351-35.2697C164.351-54.0116 157.748-71.0556 146.9-84.5569C146.431-85.0653 145.628-85.1278 145.106-84.7485C144.579-84.2801 144.423-83.5436 144.99-82.9321C155.499-69.9131 161.816-53.3198 161.816-35.2697C161.816-17.2153 155.499-0.626299 144.99 12.3124C144.423 13.0043 144.49 13.7406 145.106 14.2137C145.713 14.6778 146.346 14.6109 146.9 14.0174C157.748 0.605655 164.351-16.5278 164.351-35.2697ZM28.2612-35.2697C28.2612-16.5278 34.8646 0.605655 45.7123 14.0174C46.2658 14.6109 46.8993 14.6778 47.5062 14.2137C48.1222 13.7406 48.1892 13.0043 47.6222 12.3124C37.1136-0.626299 30.7111-17.2153 30.7111-35.2697C30.7111-53.3198 37.1136-69.9131 47.6222-82.9321C48.1892-83.5436 48.0328-84.2801 47.5062-84.7485C46.9842-85.1278 46.1809-85.0653 45.7123-84.5569C34.8646-71.0556 28.2612-54.0116 28.2612-35.2697ZM143.532-35.2697C143.532-54.0116 136.929-71.0556 126.081-84.5569C125.613-85.0653 124.809-85.1278 124.287-84.7485C123.761-84.2801 123.604-83.5436 124.171-82.9321C134.68-69.9131 140.997-53.3198 140.997-35.2697C140.997-17.2153 134.68-0.626299 124.171 12.3124C123.604 13.0043 123.671 13.7406 124.287 14.2137C124.894 14.6778 125.528 14.6109 126.081 14.0174C136.929 0.605655 143.532-16.5278 143.532-35.2697ZM58.8752-29.966C58.8752-29.1263 59.5675-28.6798 60.4921-28.6798L82.7288-28.6798L70.585 4.03458C69.6515 6.43316 72.0367 7.75092 73.6715 5.81228L109.482-39.1303C109.951-39.9391 110.188-40.4794 110.188-40.8591C110.188-41.7034 109.58-42.2303 108.655-42.2303L86.4187-42.2303L98.5626-74.9445C99.4963-77.3478 97.026-78.6655 95.3911-76.642L59.6658-31.6949C59.1119-30.9756 58.8752-30.4305 58.8752-29.966Z"/>
  </g>
  <g id="Black-M" transform="matrix(1 0 0 1 2842.52 1126)">
   <path d="M6.17066-35.2036C6.17066-18.7609 11.6112-3.0505 21.2894 9.65006C24.3529 13.6816 29.6953 13.8746 33.5961 10.6341C37.429 7.40466 37.4507 2.42715 34.4038-1.75897C27.4548-11.3442 23.5638-23.0096 23.5638-35.2036C23.5638-47.4601 27.4548-59.12 34.4608-68.7104C37.5648-72.9484 37.5489-77.8688 33.5961-81.1609C29.752-84.4017 24.4103-84.1462 21.3466-80.1714C11.6112-67.4195 6.17066-51.6462 6.17066-35.2036ZM170.478-35.2036C170.478-51.6462 165.037-67.4195 155.302-80.1714C152.238-84.1462 146.896-84.4017 143.052-81.1609C139.099-77.8688 139.083-72.9484 142.187-68.7104C149.193-59.12 153.084-47.4601 153.084-35.2036C153.084-23.0096 149.193-11.3442 142.244-1.75897C139.197 2.42715 139.219 7.40466 143.052 10.6341C146.953 13.8746 152.295 13.6816 155.359 9.65006C165.037-3.0505 170.478-18.7609 170.478-35.2036ZM38.5245-35.2036C38.5245-18.7609 43.9651-3.0505 53.6433 9.65006C56.7068 13.6816 62.0491 13.8746 65.95 10.6341C69.7828 7.40466 69.8045 2.42715 66.7576-1.75897C59.8086-11.3442 55.9176-23.0096 55.9176-35.2036C55.9176-47.4601 59.8086-59.12 66.8147-68.7104C69.9186-72.9484 69.9027-77.8688 65.95-81.1609C62.1059-84.4017 56.7641-84.1462 53.7004-80.1714C43.9651-67.4195 38.5245-51.6462 38.5245-35.2036ZM137.201-35.2036C137.201-51.6462 131.761-67.4195 122.025-80.1714C118.962-84.1462 113.62-84.4017 109.776-81.1609C105.822-77.8688 105.807-72.9484 108.91-68.7104C115.917-59.12 119.808-47.4601 119.808-35.2036C119.808-23.0096 115.917-11.3442 108.968-1.75897C105.921 2.42715 105.943 7.40466 109.776 10.6341C113.677 13.8746 119.018 13.6816 122.083 9.65006C131.761-3.0505 137.201-18.7609 137.201-35.2036ZM70.1627-32.6746C70.1627-31.192 71.39-30.0319 72.9294-30.0319L85.5185-30.0319L78.8409-12.7292C77.4839-9.14092 81.3742-6.99358 83.8904-9.89515L106.07-36.3202C106.632-36.9376 106.939-37.7439 106.939-38.5396C106.939-40.0166 105.711-41.1819 104.115-41.1819L91.5827-41.1819L98.2602-58.4275C99.6172-62.0103 95.6701-64.2147 93.1539-61.3134L70.9736-34.8368C70.4122-34.2136 70.1627-33.4699 70.1627-32.6746Z"/>
  </g>
  <g id="Heavy-M" transform="matrix(1 0 0 1 2548.76 1126)">
   <path d="M6.17066-35.217C6.17066-19.0065 11.5085-3.64949 20.9121 8.79272C23.6146 12.3594 28.3073 12.5582 31.7374 9.71081C35.0912 6.89628 35.1591 2.52866 32.506-1.12192C25.4321-10.8368 21.4321-22.7171 21.4321-35.217C21.4321-47.777 25.4321-59.6409 32.5496-69.3744C35.2463-73.05 35.1925-77.3739 31.7374-80.2485C28.3531-83.0936 23.6559-82.8348 20.9558-79.314C11.5085-66.8423 6.17066-51.4275 6.17066-35.217ZM164.583-35.217C164.583-51.4275 159.246-66.8423 149.798-79.314C147.098-82.8348 142.401-83.0936 139.016-80.2485C135.561-77.3739 135.507-73.05 138.204-69.3744C145.322-59.6409 149.319-47.777 149.319-35.217C149.319-22.7171 145.322-10.8368 138.247-1.12192C135.595 2.52866 135.663 6.89628 139.016 9.71081C142.447 12.5582 147.139 12.3594 149.842 8.79272C159.246-3.64949 164.583-19.0065 164.583-35.217ZM36.0353-35.217C36.0353-19.0065 41.3731-3.64949 50.7767 8.79272C53.4792 12.3594 58.1719 12.5582 61.6021 9.71081C64.9558 6.89628 65.0237 2.52866 62.3706-1.12192C55.2967-10.8368 51.2967-22.7171 51.2967-35.217C51.2967-47.777 55.2967-59.6409 62.4142-69.3744C65.1109-73.05 65.0571-77.3739 61.6021-80.2485C58.2177-83.0936 53.5205-82.8348 50.8204-79.314C41.3731-66.8423 36.0353-51.4275 36.0353-35.217ZM133.87-35.217C133.87-51.4275 128.533-66.8423 119.085-79.314C116.385-82.8348 111.688-83.0936 108.303-80.2485C104.848-77.3739 104.794-73.05 107.491-69.3744C114.608-59.6409 118.606-47.777 118.606-35.217C118.606-22.7171 114.608-10.8368 107.534-1.12192C104.882 2.52866 104.95 6.89628 108.303 9.71081C111.734 12.5582 116.426 12.3594 119.129 8.79272C128.533-3.64949 133.87-19.0065 133.87-35.217ZM66.6893-32.5368C66.6893-31.1202 67.8448-30.048 69.3072-30.048L82.6391-30.048L75.5517-11.499C74.253-8.04525 77.9741-6.02036 80.3518-8.80017L103.31-36.5414C103.864-37.1479 104.155-37.9279 104.155-38.6704C104.155-40.0705 103.002-41.1614 101.496-41.1614L88.2075-41.1614L95.2948-59.6667C96.5936-63.1042 92.8265-65.1726 90.4488-62.3905L67.4925-34.6221C66.9362-34.0014 66.6893-33.2815 66.6893-32.5368Z"/>
  </g>
  <g id="Bold-M" transform="matrix(1 0 0 1 2255.34 1126)">
   <path d="M6.17066-35.2321C6.17066-19.2812 11.3937-4.31954 20.4901 7.83365C22.7886 10.8802 26.7546 11.0855 29.6582 8.67792C32.4761 6.32758 32.5957 2.64221 30.3831-0.40929C23.1693-10.2692 19.0475-22.3899 19.0475-35.2321C19.0475-48.1315 23.1693-60.2235 30.4116-70.1172C32.6527-73.1635 32.5566-76.8203 29.6582-79.2278C26.7883-81.6303 22.812-81.3679 20.5187-78.3549C11.3937-66.1967 6.17066-51.183 6.17066-35.2321ZM157.99-35.2321C157.99-51.183 152.767-66.1967 143.641-78.3549C141.348-81.3679 137.372-81.6303 134.502-79.2278C131.603-76.8203 131.507-73.1635 133.748-70.1172C140.991-60.2235 145.107-48.1315 145.107-35.2321C145.107-22.3899 140.991-10.2692 133.777-0.40929C131.565 2.64221 131.684 6.32758 134.502 8.67792C137.406 11.0855 141.371 10.8802 143.67 7.83365C152.767-4.31954 157.99-19.2812 157.99-35.2321ZM33.2507-35.2321C33.2507-19.2812 38.4737-4.31954 47.5701 7.83365C49.8686 10.8802 53.8347 11.0855 56.7383 8.67792C59.5561 6.32758 59.6757 2.64221 57.4631-0.40929C50.2494-10.2692 46.1275-22.3899 46.1275-35.2321C46.1275-48.1315 50.2494-60.2235 57.4917-70.1172C59.7328-73.1635 59.6366-76.8203 56.7383-79.2278C53.8683-81.6303 49.892-81.3679 47.5987-78.3549C38.4737-66.1967 33.2507-51.183 33.2507-35.2321ZM130.144-35.2321C130.144-51.183 124.921-66.1967 115.796-78.3549C113.503-81.3679 109.526-81.6303 106.656-79.2278C103.758-76.8203 103.662-73.1635 105.902-70.1172C113.145-60.2235 117.261-48.1315 117.261-35.2321C117.261-22.3899 113.145-10.2692 105.931-0.40929C103.719 2.64221 103.839 6.32758 106.656 8.67792C109.56 11.0855 113.526 10.8802 115.824 7.83365C124.921-4.31954 130.144-19.2812 130.144-35.2321ZM62.8037-32.3826C62.8037-31.0399 63.8789-30.0659 65.2553-30.0659L79.418-30.0659L71.8722-10.1229C70.6387-6.8196 74.1706-4.93168 76.3935-7.57528L100.223-36.7888C100.768-37.3832 101.041-38.1337 101.041-38.8168C101.041-40.1308 99.971-41.1385 98.5661-41.1385L84.4319-41.1385L91.9776-61.053C93.2112-64.3277 89.6455-66.2442 87.4227-63.5954L63.5983-34.382C63.0478-33.7641 62.8037-33.0707 62.8037-32.3826Z"/>
  </g>
  <g id="Semibold-M" transform="matrix(1 0 0 1 1960.91 1126)">
   <path d="M6.17066-35.2425C6.17066-19.4706 11.3145-4.78147 20.1991 7.17248C22.2192 9.86054 25.6842 10.0703 28.2248 7.96586C30.6732 5.93552 30.8285 2.72049 28.9196 0.0819914C21.6094-9.8779 17.4035-22.1643 17.4035-35.2425C17.4035-48.3759 21.6094-60.6252 28.9377-70.6293C30.8648-73.2418 30.7394-76.4386 28.2248-78.5242C25.7095-80.6215 22.2302-80.3566 20.2173-77.6938C11.3145-65.7516 6.17066-51.0144 6.17066-35.2425ZM153.444-35.2425C153.444-51.0144 148.3-65.7516 139.397-77.6938C137.384-80.3566 133.905-80.6215 131.39-78.5242C128.875-76.4386 128.75-73.2418 130.676-70.6293C138.005-60.6252 142.203-48.3759 142.203-35.2425C142.203-22.1643 138.005-9.8779 130.695 0.0819914C128.786 2.72049 128.941 5.93552 131.39 7.96586C133.93 10.0703 137.395 9.86054 139.415 7.17248C148.3-4.78147 153.444-19.4706 153.444-35.2425ZM31.331-35.2425C31.331-19.4706 36.4749-4.78147 45.3595 7.17248C47.3795 9.86054 50.8446 10.0703 53.3852 7.96586C55.8336 5.93552 55.9888 2.72049 54.08 0.0819914C46.7698-9.8779 42.5639-22.1643 42.5639-35.2425C42.5639-48.3759 46.7698-60.6252 54.0981-70.6293C56.0251-73.2418 55.8998-76.4386 53.3852-78.5242C50.8699-80.6215 47.3906-80.3566 45.3777-77.6938C36.4749-65.7516 31.331-51.0144 31.331-35.2425ZM127.575-35.2425C127.575-51.0144 122.432-65.7516 113.528-77.6938C111.516-80.3566 108.036-80.6215 105.521-78.5242C103.006-76.4386 102.881-73.2418 104.808-70.6293C112.136-60.6252 116.335-48.3759 116.335-35.2425C116.335-22.1643 112.136-9.8779 104.826 0.0819914C102.918 2.72049 103.073 5.93552 105.521 7.96586C108.061 10.0703 111.526 9.86054 113.547 7.17248C122.432-4.78147 127.575-19.4706 127.575-35.2425ZM60.125-32.2764C60.125-30.9845 61.1448-30.0783 62.4619-30.0783L77.1975-30.0783L69.3356-9.17413C68.1471-5.97464 71.5485-4.18115 73.6646-6.73085L98.0946-36.9593C98.634-37.5454 98.8942-38.2756 98.8942-38.9176C98.8942-40.1724 97.8816-41.1228 96.5464-41.1228L81.8289-41.1228L89.6908-62.0087C90.8794-65.1713 87.4526-66.9829 85.3366-64.426L60.9137-34.2164C60.3671-33.6005 60.125-32.9254 60.125-32.2764Z"/>
  </g>
  <g id="Medium-M" transform="matrix(1 0 0 1 1665.92 1126)">
   <path d="M6.17066-35.2504C6.17066-19.6142 11.2545-5.13172 19.9785 6.67115C21.7874 9.08735 24.8726 9.30049 27.138 7.42594C29.3062 5.63824 29.4885 2.77985 27.8099 0.454502C20.4267-9.58119 16.157-21.9933 16.157-35.2504C16.157-48.5612 20.4267-60.9298 27.8202-71.0175C29.509-73.3012 29.3615-76.1492 27.138-77.9906C24.8915-79.8566 21.7891-79.5898 19.9888-77.1924C11.2545-65.4142 6.17066-50.8865 6.17066-35.2504ZM149.997-35.2504C149.997-50.8865 144.914-65.4142 136.179-77.1924C134.379-79.5898 131.276-79.8566 129.03-77.9906C126.806-76.1492 126.659-73.3012 128.347-71.0175C135.741-60.9298 140.002-48.5612 140.002-35.2504C140.002-21.9933 135.741-9.58119 128.358 0.454502C126.68 2.77985 126.862 5.63824 129.03 7.42594C131.295 9.30049 134.38 9.08735 136.189 6.67115C144.914-5.13172 149.997-19.6142 149.997-35.2504ZM29.8755-35.2504C29.8755-19.6142 34.9593-5.13172 43.6833 6.67115C45.4922 9.08735 48.5774 9.30049 50.8428 7.42594C53.011 5.63824 53.1933 2.77985 51.5147 0.454502C44.1315-9.58119 39.8618-21.9933 39.8618-35.2504C39.8618-48.5612 44.1315-60.9298 51.525-71.0175C53.2138-73.3012 53.0663-76.1492 50.8428-77.9906C48.5963-79.8566 45.4939-79.5898 43.6936-77.1924C34.9593-65.4142 29.8755-50.8865 29.8755-35.2504ZM125.627-35.2504C125.627-50.8865 120.544-65.4142 111.809-77.1924C110.009-79.5898 106.906-79.8566 104.66-77.9906C102.436-76.1492 102.289-73.3012 103.977-71.0175C111.371-60.9298 115.632-48.5612 115.632-35.2504C115.632-21.9933 111.371-9.58119 103.988 0.454502C102.31 2.77985 102.492 5.63824 104.66 7.42594C106.925 9.30049 110.01 9.08735 111.819 6.67115C120.544-5.13172 125.627-19.6142 125.627-35.2504ZM58.0939-32.1958C58.0939-30.9426 59.0718-30.0877 60.3439-30.0877L75.5137-30.0877L67.4122-8.45477C66.2578-5.33395 69.5603-3.61207 71.5954-6.09056L96.4807-37.0887C97.0156-37.6683 97.2665-38.3832 97.2665-38.9941C97.2665-40.2039 96.2973-41.1108 95.0149-41.1108L79.8553-41.1108L87.9568-62.7334C89.1113-65.8109 85.7898-67.543 83.7548-65.0559L58.8781-34.0909C58.3345-33.4764 58.0939-32.8152 58.0939-32.1958Z"/>
  </g>
  <g id="Regular-M" transform="matrix(1 0 0 1 1371.45 1126)">
   <path d="M6.17066-35.2606C6.17066-19.8015 11.1761-5.58858 19.6907 6.01724C21.2242 8.07884 23.814 8.29641 25.7203 6.7217C27.5231 5.25049 27.7407 2.85727 26.3625 0.940385C18.8839-9.19418 14.5311-21.7702 14.5311-35.2606C14.5311-48.8029 18.8839-61.3271 26.3625-71.5239C27.7407-73.3786 27.5643-75.7718 25.7203-77.2947C23.8245-78.8589 21.2137-78.5896 19.6907-76.5385C11.1761-64.974 6.17066-50.7198 6.17066-35.2606ZM145.502-35.2606C145.502-50.7198 140.496-64.974 131.981-76.5385C130.459-78.5896 127.847-78.8589 125.952-77.2947C124.108-75.7718 123.932-73.3786 125.309-71.5239C132.788-61.3271 137.13-48.8029 137.13-35.2606C137.13-21.7702 132.788-9.19418 125.309 0.940385C123.932 2.85727 124.149 5.25049 125.952 6.7217C127.858 8.29641 130.448 8.07884 131.981 6.01724C140.496-5.58858 145.502-19.8015 145.502-35.2606ZM27.9769-35.2606C27.9769-19.8015 32.9824-5.58858 41.497 6.01724C43.0305 8.07884 45.6202 8.29641 47.5266 6.7217C49.3294 5.25049 49.5469 2.85727 48.1687 0.940385C40.6901-9.19418 36.3374-21.7702 36.3374-35.2606C36.3374-48.8029 40.6901-61.3271 48.1687-71.5239C49.5469-73.3786 49.3706-75.7718 47.5266-77.2947C45.6308-78.8589 43.0199-78.5896 41.497-76.5385C32.9824-64.974 27.9769-50.7198 27.9769-35.2606ZM123.087-35.2606C123.087-50.7198 118.082-64.974 109.566-76.5385C108.044-78.5896 105.433-78.8589 103.537-77.2947C101.693-75.7718 101.517-73.3786 102.895-71.5239C110.373-61.3271 114.715-48.8029 114.715-35.2606C114.715-21.7702 110.373-9.19418 102.895 0.940385C101.517 2.85727 101.734 5.25049 103.537 6.7217C105.443 8.29641 108.033 8.07884 109.566 6.01724C118.082-5.58858 123.087-19.8015 123.087-35.2606ZM55.4447-32.0907C55.4447-30.8878 56.3678-30.0999 57.5812-30.0999L73.3176-30.0999L64.9034-7.51647C63.7936-4.49828 66.967-2.86979 68.8966-5.25541L94.3756-37.2574C94.9047-37.8287 95.1433-38.5236 95.1433-39.0939C95.1433-40.2451 94.2309-41.0952 93.0174-41.0952L77.281-41.0952L85.6951-63.6785C86.8051-66.6451 83.621-68.2736 81.6915-65.8774L56.223-33.9271C55.6833-33.3146 55.4447-32.6714 55.4447-32.0907Z"/>
  </g>
  <g id="Light-M" transform="matrix(1 0 0 1 1077.56 1126)">
   <path d="M6.17066-35.2606C6.17066-20.0924 11.2104-6.17034 19.6907 5.05904C20.882 6.62442 22.8215 6.79065 24.283 5.59237C25.6751 4.46339 25.8414 2.63483 24.754 1.14572C17.0701-8.95464 12.5291-21.6162 12.5291-35.2606C12.5291-48.9398 17.0701-61.5666 24.754-71.7293C25.8414-73.1561 25.6821-74.9847 24.283-76.1483C22.8492-77.3189 20.8544-77.118 19.6907-75.5803C11.2104-64.358 6.17066-50.4289 6.17066-35.2606ZM139.872-35.2606C139.872-50.4289 134.833-64.358 126.352-75.5803C125.188-77.118 123.193-77.3189 121.76-76.1483C120.361-74.9847 120.202-73.1561 121.289-71.7293C128.973-61.5666 133.486-48.9398 133.486-35.2606C133.486-21.6162 128.973-8.95464 121.289 1.14572C120.202 2.63483 120.368 4.46339 121.76 5.59237C123.221 6.79065 125.161 6.62442 126.352 5.05904C134.833-6.17034 139.872-20.0924 139.872-35.2606ZM26.0928-35.2606C26.0928-20.0924 31.1325-6.17034 39.6129 5.05904C40.8042 6.62442 42.7437 6.79065 44.2052 5.59237C45.5973 4.46339 45.7636 2.63483 44.6762 1.14572C36.9923-8.95464 32.4513-21.6162 32.4513-35.2606C32.4513-48.9398 36.9923-61.5666 44.6762-71.7293C45.7636-73.1561 45.6043-74.9847 44.2052-76.1483C42.7714-77.3189 40.7766-77.118 39.6129-75.5803C31.1325-64.358 26.0928-50.4289 26.0928-35.2606ZM119.404-35.2606C119.404-50.4289 114.365-64.358 105.884-75.5803C104.721-77.118 102.726-77.3189 101.292-76.1483C99.893-74.9847 99.734-73.1561 100.821-71.7293C108.505-61.5666 113.018-48.9398 113.018-35.2606C113.018-21.6162 108.505-8.95464 100.821 1.14572C99.734 2.63483 99.9001 4.46339 101.292 5.59237C102.753 6.79065 104.693 6.62442 105.884 5.05904C114.365-6.17034 119.404-20.0924 119.404-35.2606ZM52.399-31.7998C52.399-30.768 53.2022-30.117 54.2617-30.117L70.4601-30.117L61.7379-6.67803C60.7478-4.01916 63.5107-2.57889 65.2348-4.69076L91.4154-37.5654C91.8931-38.1538 92.1147-38.7631 92.1147-39.2479C92.1147-40.2451 91.3391-40.9583 90.2797-40.9583L74.0812-40.9583L82.8034-64.3972C83.7936-67.0216 81.003-68.4619 79.2789-66.3223L53.1259-33.4823C52.6205-32.8868 52.399-32.3121 52.399-31.7998Z"/>
  </g>
  <g id="Thin-M" transform="matrix(1 0 0 1 784.571 1126)">
   <path d="M6.17066-35.2606C6.17066-20.4771 11.2556-6.93976 19.6907 3.79173C20.4294 4.70082 21.509 4.79915 22.382 4.09875C23.231 3.42238 23.3294 2.34064 22.6268 1.41729C14.6712-8.63783 9.88135-21.4125 9.88135-35.2606C9.88135-49.1208 14.6712-61.8834 22.6268-72.0008C23.3294-72.8619 23.1927-73.9437 22.382-74.632C21.5592-75.2821 20.3791-75.1718 19.6907-74.3131C11.2556-63.5432 6.17066-50.0442 6.17066-35.2606ZM132.427-35.2606C132.427-50.0442 127.342-63.5432 118.907-74.3131C118.218-75.1718 117.038-75.2821 116.215-74.632C115.405-73.9437 115.268-72.8619 115.971-72.0008C123.926-61.8834 128.665-49.1208 128.665-35.2606C128.665-21.4125 123.926-8.63783 115.971 1.41729C115.268 2.34064 115.366 3.42238 116.215 4.09875C117.088 4.79915 118.168 4.70082 118.907 3.79173C127.342-6.93976 132.427-20.4771 132.427-35.2606ZM23.601-35.2606C23.601-20.4771 28.686-6.93976 37.1211 3.79173C37.8598 4.70082 38.9393 4.79915 39.8123 4.09875C40.6614 3.42238 40.7597 2.34064 40.0571 1.41729C32.1016-8.63783 27.3117-21.4125 27.3117-35.2606C27.3117-49.1208 32.1016-61.8834 40.0571-72.0008C40.7597-72.8619 40.6231-73.9437 39.8123-74.632C38.9896-75.2821 37.8095-75.1718 37.1211-74.3131C28.686-63.5432 23.601-50.0442 23.601-35.2606ZM114.534-35.2606C114.534-50.0442 109.45-63.5432 101.014-74.3131C100.326-75.1718 99.1459-75.2821 98.3232-74.632C97.5124-73.9437 97.3759-72.8619 98.0784-72.0008C106.034-61.8834 110.773-49.1208 110.773-35.2606C110.773-21.4125 106.034-8.63783 98.0784 1.41729C97.3759 2.34064 97.4742 3.42238 98.3232 4.09875C99.1962 4.79915 100.276 4.70082 101.014 3.79173C109.45-6.93976 114.534-20.4771 114.534-35.2606ZM48.3707-31.4151C48.3707-30.6096 49.0156-30.1397 49.8714-30.1397L66.6808-30.1397L57.5513-5.56912C56.7196-3.38549 58.9393-2.19415 60.3919-3.94396L87.5003-37.9727C87.9102-38.5838 88.1091-39.0799 88.1091-39.4516C88.1091-40.2451 87.5145-40.7773 86.6588-40.7773L69.8493-40.7773L78.9788-65.3477C79.8106-67.5194 77.5405-68.7108 76.088-66.9107L49.0298-32.8939C48.5697-32.3211 48.3707-31.8369 48.3707-31.4151Z"/>
  </g>
  <g id="Ultralight-M" transform="matrix(1 0 0 1 489.767 1126)">
   <path d="M6.17066-35.2606C6.17066-20.6742 11.2788-7.33385 19.6907 3.14262C20.1976 3.71556 20.8367 3.77912 21.4083 3.33373C21.9791 2.88918 22.0427 2.18995 21.5372 1.55638C13.4425-8.47556 8.52516-21.3082 8.52516-35.2606C8.52516-49.2136 13.4425-62.0457 21.5372-72.1399C22.0427-72.7112 21.9177-73.4105 21.4083-73.8554C20.8985-74.2389 20.1357-74.1749 19.6907-73.664C11.2788-63.1259 6.17066-49.8471 6.17066-35.2606ZM128.613-35.2606C128.613-49.8471 123.505-63.1259 115.093-73.664C114.648-74.1749 113.885-74.2389 113.376-73.8554C112.866-73.4105 112.741-72.7112 113.247-72.1399C121.341-62.0457 126.197-49.2136 126.197-35.2606C126.197-21.3082 121.341-8.47556 113.247 1.55638C112.741 2.18995 112.805 2.88918 113.376 3.33373C113.947 3.77912 114.586 3.71556 115.093 3.14262C123.505-7.33385 128.613-20.6742 128.613-35.2606ZM22.3247-35.2606C22.3247-20.6742 27.4329-7.33385 35.8448 3.14262C36.3517 3.71556 36.9907 3.77912 37.5624 3.33373C38.1332 2.88918 38.1968 2.18995 37.6913 1.55638C29.5966-8.47556 24.6792-21.3082 24.6792-35.2606C24.6792-49.2136 29.5966-62.0457 37.6913-72.1399C38.1968-72.7112 38.0717-73.4105 37.5624-73.8554C37.0526-74.2389 36.2898-74.1749 35.8448-73.664C27.4329-63.1259 22.3247-49.8471 22.3247-35.2606ZM112.04-35.2606C112.04-49.8471 106.932-63.1259 98.5201-73.664C98.0751-74.1749 97.3123-74.2389 96.8025-73.8554C96.2932-73.4105 96.168-72.7112 96.6736-72.1399C104.768-62.0457 109.624-49.2136 109.624-35.2606C109.624-21.3082 104.768-8.47556 96.6736 1.55638C96.168 2.18995 96.2317 2.88918 96.8025 3.33373C97.3742 3.77912 98.0132 3.71556 98.5201 3.14262C106.932-7.33385 112.04-20.6742 112.04-35.2606ZM46.3075-31.218C46.3075-30.5284 46.8712-30.1513 47.6227-30.1513L64.745-30.1513L55.4069-5.00114C54.6564-3.06093 56.5979-1.99709 57.9113-3.56145L85.495-38.1814C85.8701-38.8041 86.0574-39.2422 86.0574-39.5559C86.0574-40.2451 85.5556-40.6845 84.8042-40.6845L67.6818-40.6845L77.0199-65.8345C77.7706-67.7745 75.767-68.8383 74.4536-67.2121L46.9318-32.5925C46.4948-32.0313 46.3075-31.5935 46.3075-31.218Z"/>
  </g>
  <g id="Black-S" transform="matrix(1 0 0 1 2861.45 696)">
   <path d="M4.83594-35.2051C4.83594-22.2656 9.1328-9.86328 16.7988 0.146484C19.2891 3.41797 23.6348 3.56445 26.8086 0.927734C29.9336-1.70898 29.9336-5.76172 27.4434-9.17969C22.0234-16.6504 18.9961-25.7324 18.9961-35.2051C18.9961-44.7266 22.0234-53.8086 27.4922-61.2793C30.0312-64.7461 30.0312-68.75 26.8086-71.4355C23.6836-74.0723 19.3379-73.877 16.8477-70.6543C9.1328-60.5957 4.83594-48.1445 4.83594-35.2051ZM135.061-35.2051C135.061-48.1445 130.764-60.5957 123.049-70.6543C120.559-73.877 116.213-74.0723 113.088-71.4355C109.865-68.75 109.865-64.7461 112.404-61.2793C117.873-53.8086 120.9-44.7266 120.9-35.2051C120.9-25.7324 117.873-16.6504 112.453-9.17969C109.963-5.76172 109.963-1.70898 113.088 0.927734C116.262 3.56445 120.607 3.41797 123.098 0.146484C130.764-9.86328 135.061-22.2656 135.061-35.2051ZM30.8359-35.2051C30.8359-22.2656 35.1328-9.86328 42.7988 0.146484C45.2891 3.41797 49.6348 3.56445 52.8086 0.927734C55.9336-1.70898 55.9336-5.76172 53.4434-9.17969C48.0234-16.6504 44.9961-25.7324 44.9961-35.2051C44.9961-44.7266 48.0234-53.8086 53.4922-61.2793C56.0312-64.7461 56.0312-68.75 52.8086-71.4355C49.6836-74.0723 45.3379-73.877 42.8477-70.6543C35.1328-60.5957 30.8359-48.1445 30.8359-35.2051ZM108.319-35.2051C108.319-48.1445 104.022-60.5957 96.3073-70.6543C93.8173-73.877 89.4713-74.0723 86.3463-71.4355C83.1233-68.75 83.1233-64.7461 85.6623-61.2793C91.1313-53.8086 94.1583-44.7266 94.1583-35.2051C94.1583-25.7324 91.1313-16.6504 85.7113-9.17969C83.2213-5.76172 83.2213-1.70898 86.3463 0.927734C89.5203 3.56445 93.8653 3.41797 96.3563 0.146484C104.022-9.86328 108.319-22.2656 108.319-35.2051ZM55.8613-33.252C55.8613-32.0801 56.8379-31.1523 58.0586-31.1523L67.7266-31.1523L62.5996-17.9199C61.5254-15.0879 64.6016-13.3789 66.6035-15.6738L83.791-36.0352C84.2305-36.5234 84.4746-37.1582 84.4746-37.793C84.4746-38.9648 83.498-39.8926 82.2285-39.8926L72.6094-39.8926L77.7363-53.0762C78.8105-55.9082 75.6855-57.666 73.6836-55.3711L56.4961-34.9609C56.0566-34.4727 55.8613-33.8867 55.8613-33.252Z"/>
  </g>
  <g id="Heavy-S" transform="matrix(1 0 0 1 2566.9 696)">
   <path d="M4.83594-35.2166C4.83594-22.4385 9.04061-10.3012 16.4761-0.464313C18.7013 2.47296 22.5745 2.63097 25.4026 0.282364C28.1704-2.04319 28.2165-5.64648 26.0259-8.66109C20.5252-16.247 17.4288-25.5019 17.4288-35.2166C17.4288-44.9801 20.5252-54.2235 26.0632-61.8209C28.291-64.8613 28.2564-68.4273 25.4026-70.8017C22.6118-73.1503 18.7386-72.9435 16.5135-70.0435C9.04061-60.1808 4.83594-47.9947 4.83594-35.2166ZM130.739-35.2166C130.739-47.9947 126.535-60.1808 119.061-70.0435C116.836-72.9435 112.963-73.1503 110.172-70.8017C107.318-68.4273 107.284-64.8613 109.511-61.8209C115.049-54.2235 118.146-44.9801 118.146-35.2166C118.146-25.5019 115.049-16.247 109.549-8.66109C107.359-5.64648 107.405-2.04319 110.172 0.282364C113 2.63097 116.873 2.47296 119.099-0.464313C126.535-10.3012 130.739-22.4385 130.739-35.2166ZM28.9478-35.2166C28.9478-22.4385 33.1524-10.3012 40.5879-0.464313C42.8132 2.47296 46.6864 2.63097 49.5145 0.282364C52.2822-2.04319 52.3283-5.64648 50.1377-8.66109C44.6371-16.247 41.5406-25.5019 41.5406-35.2166C41.5406-44.9801 44.6371-54.2235 50.175-61.8209C52.4028-64.8613 52.3683-68.4273 49.5145-70.8017C46.7237-73.1503 42.8505-72.9435 40.6253-70.0435C33.1524-60.1808 28.9478-47.9947 28.9478-35.2166ZM105.941-35.2166C105.941-47.9947 101.736-60.1808 94.2632-70.0435C92.0382-72.9435 88.1647-73.1503 85.3739-70.8017C82.5198-68.4273 82.4854-64.8613 84.7131-61.8209C90.2512-54.2235 93.3474-44.9801 93.3474-35.2166C93.3474-25.5019 90.2512-16.247 84.7505-8.66109C82.5602-5.64648 82.6063-2.04319 85.3739 0.282364C88.2022 2.63097 92.0749 2.47296 94.3006-0.464313C101.736-10.3012 105.941-22.4385 105.941-35.2166ZM53.2798-33.1713C53.2798-32.034 54.2103-31.1638 55.3849-31.1638L65.6291-31.1638L60.191-16.9749C59.1514-14.212 62.1353-12.5837 64.0451-14.8095L81.8088-36.185C82.2483-36.6617 82.4809-37.285 82.4809-37.8852C82.4809-39.0109 81.5504-39.8926 80.3385-39.8926L70.1316-39.8926L75.5697-54.0442C76.6093-56.7956 73.5881-58.4612 71.6783-56.2354L53.9146-34.8341C53.4751-34.3459 53.2798-33.7715 53.2798-33.1713Z"/>
  </g>
  <g id="Bold-S" transform="matrix(1 0 0 1 2272.61 696)">
   <path d="M4.83594-35.2295C4.83594-22.6318 8.9375-10.791 16.1152-1.14746C18.0439 1.41602 21.3887 1.58691 23.8301-0.439453C26.1982-2.41699 26.2959-5.51758 24.4405-8.08105C18.8496-15.7959 15.6758-25.2441 15.6758-35.2295C15.6758-45.2637 18.8496-54.6875 24.4649-62.4268C26.3447-64.9903 26.2714-68.0664 23.8301-70.0928C21.4131-72.1192 18.0684-71.8995 16.1396-69.3604C8.9375-59.7168 4.83594-47.8272 4.83594-35.2295ZM125.906-35.2295C125.906-47.8272 121.804-59.7168 114.601-69.3604C112.673-71.8995 109.328-72.1192 106.911-70.0928C104.469-68.0664 104.396-64.9903 106.276-62.4268C111.892-54.6875 115.065-45.2637 115.065-35.2295C115.065-25.2441 111.892-15.7959 106.3-8.08105C104.446-5.51758 104.543-2.41699 106.911-0.439453C109.353 1.58691 112.697 1.41602 114.626-1.14746C121.804-10.791 125.906-22.6318 125.906-35.2295ZM26.8359-35.2295C26.8359-22.6318 30.9375-10.791 38.1152-1.14746C40.0439 1.41602 43.3887 1.58691 45.8301-0.439453C48.1982-2.41699 48.2959-5.51758 46.4405-8.08105C40.8496-15.7959 37.6758-25.2441 37.6758-35.2295C37.6758-45.2637 40.8496-54.6875 46.4649-62.4268C48.3447-64.9903 48.2714-68.0664 45.8301-70.0928C43.4131-72.1192 40.0684-71.8995 38.1396-69.3604C30.9375-59.7168 26.8359-47.8272 26.8359-35.2295ZM103.281-35.2295C103.281-47.8272 99.1794-59.7168 91.9769-69.3604C90.0484-71.8995 86.7034-72.1192 84.2864-70.0928C81.8449-68.0664 81.7719-64.9903 83.6514-62.4268C89.2669-54.6875 92.4404-45.2637 92.4404-35.2295C92.4404-25.2441 89.2669-15.7959 83.6759-8.08105C81.8209-5.51758 81.9184-2.41699 84.2864-0.439453C86.7279 1.58691 90.0724 1.41602 92.0014-1.14746C99.1794-10.791 103.281-22.6318 103.281-35.2295ZM50.3926-33.0811C50.3926-31.9825 51.2715-31.1767 52.3945-31.1767L63.2832-31.1767L57.4971-15.9179C56.4961-13.2324 59.3769-11.6944 61.1836-13.8428L79.5918-36.3526C80.0313-36.8164 80.2509-37.4267 80.2509-37.9883C80.2509-39.0625 79.3721-39.8926 78.2246-39.8926L67.3603-39.8926L73.1465-55.1269C74.1475-57.7881 71.2422-59.3506 69.4355-57.2021L51.0273-34.6924C50.5879-34.2041 50.3926-33.6426 50.3926-33.0811Z"/>
  </g>
  <g id="Semibold-S" transform="matrix(1 0 0 1 1977.56 696)">
   <path d="M4.83594-35.2384C4.83594-22.7651 8.86641-11.1287 15.8664-1.61846C17.5907 0.687305 20.5711 0.867089 22.7459-0.937109C24.8386-2.67471 24.9718-5.42871 23.3474-7.68115C17.6943-15.4849 14.4672-25.0664 14.4672-35.2384C14.4672-45.4592 17.6943-55.0074 23.3629-62.8444C25.0028-65.0791 24.9029-67.8176 22.7459-69.604C20.5866-71.4082 17.6062-71.1796 15.8819-68.8894C8.86641-59.3969 4.83594-47.7116 4.83594-35.2384ZM122.573-35.2384C122.573-47.7116 118.543-59.3969 111.527-68.8894C109.802-71.1796 106.822-71.4082 104.663-69.604C102.506-67.8176 102.406-65.0791 104.045-62.8444C109.714-55.0074 112.941-45.4592 112.941-35.2384C112.941-25.0664 109.714-15.4849 104.061-7.68115C102.437-5.42871 102.57-2.67471 104.663-0.937109C106.837 0.867089 109.818 0.687305 111.542-1.61846C118.543-11.1287 122.573-22.7651 122.573-35.2384ZM25.3799-35.2384C25.3799-22.7651 29.4104-11.1287 36.4104-1.61846C38.1347 0.687305 41.1151 0.867089 43.2899-0.937109C45.3826-2.67471 45.5158-5.42871 43.8914-7.68115C38.2383-15.4849 35.0112-25.0664 35.0112-35.2384C35.0112-45.4592 38.2383-55.0074 43.9069-62.8444C45.5468-65.0791 45.4469-67.8176 43.2899-69.604C41.1306-71.4082 38.1502-71.1796 36.4259-68.8894C29.4104-59.3969 25.3799-47.7116 25.3799-35.2384ZM101.447-35.2384C101.447-47.7116 97.4165-59.3969 90.4006-68.8894C88.6765-71.1796 85.6958-71.4082 83.5365-69.604C81.3795-67.8176 81.2799-65.0791 82.9194-62.8444C88.5882-55.0074 91.815-45.4592 91.815-35.2384C91.815-25.0664 88.5882-15.4849 82.935-7.68115C81.3111-5.42871 81.4441-2.67471 83.5365-0.937109C85.7114 0.867089 88.6917 0.687305 90.4162-1.61846C97.4165-11.1287 101.447-22.7651 101.447-35.2384ZM48.4019-33.0189C48.4019-31.9469 49.2453-31.1856 50.3328-31.1856L61.6658-31.1856L55.6397-15.1892C54.6654-12.5571 57.4752-11.0812 59.2108-13.1762L78.0633-36.4681C78.5027-36.9231 78.7135-37.5245 78.7135-38.0594C78.7135-39.0981 77.8702-39.8926 76.7672-39.8926L65.4497-39.8926L71.4757-55.8734C72.4501-58.4724 69.6248-59.9638 67.8893-57.8687L49.0367-34.5946C48.5972-34.1063 48.4019-33.5537 48.4019-33.0189Z"/>
  </g>
  <g id="Medium-S" transform="matrix(1 0 0 1 1682.11 696)">
   <path d="M4.83594-35.2451C4.83594-22.8662 8.81251-11.3848 15.6777-1.97559C17.2471 0.134765 19.9512 0.321288 21.9239-1.31445C23.8076-2.87012 23.9678-5.36133 22.5186-7.37793C16.8184-15.249 13.5508-24.9317 13.5508-35.2451C13.5508-45.6074 16.8184-55.25 22.5273-63.1611C23.9853-65.1465 23.8652-67.6289 21.9239-69.2334C19.96-70.8691 17.2558-70.6338 15.6865-68.5322C8.81251-59.1543 4.83594-47.624 4.83594-35.2451ZM120.046-35.2451C120.046-47.624 116.07-59.1543 109.195-68.5322C107.626-70.6338 104.922-70.8691 102.958-69.2334C101.016-67.6289 100.897-65.1465 102.354-63.1611C108.063-55.25 111.331-45.6074 111.331-35.2451C111.331-24.9317 108.063-15.249 102.363-7.37793C100.914-5.36133 101.074-2.87012 102.958-1.31445C104.93 0.321288 107.635 0.134765 109.204-1.97559C116.07-11.3848 120.046-22.8662 120.046-35.2451ZM24.2759-35.2451C24.2759-22.8662 28.2525-11.3848 35.1177-1.97559C36.6871 0.134765 39.3912 0.321288 41.3639-1.31445C43.2476-2.87012 43.4078-5.36133 41.9586-7.37793C36.2584-15.249 32.9908-24.9317 32.9908-35.2451C32.9908-45.6074 36.2584-55.25 41.9673-63.1611C43.4253-65.1465 43.3052-67.6289 41.3639-69.2334C39.4-70.8691 36.6958-70.6338 35.1265-68.5322C28.2525-59.1543 24.2759-47.624 24.2759-35.2451ZM100.056-35.2451C100.056-47.624 96.0799-59.1543 89.2054-68.5322C87.6362-70.6338 84.9319-70.8691 82.968-69.2334C81.0267-67.6289 80.9069-65.1465 82.3644-63.1611C88.0736-55.25 91.3409-45.6074 91.3409-35.2451C91.3409-24.9317 88.0736-15.249 82.3732-7.37793C80.9246-5.36133 81.0845-2.87012 82.968-1.31445C84.9407 0.321288 87.6449 0.134765 89.2142-1.97559C96.0799-11.3848 100.056-22.8662 100.056-35.2451ZM46.8926-32.9717C46.8926-31.92 47.709-31.1924 48.7696-31.1924L60.4394-31.1924L54.2314-14.6367C53.2773-12.045 56.0332-10.6162 57.7149-12.6709L76.9043-36.5557C77.3437-37.0039 77.5478-37.5986 77.5478-38.1133C77.5478-39.125 76.7314-39.8926 75.6621-39.8926L64.001-39.8926L70.2089-56.4394C71.1631-58.9912 68.3984-60.4287 66.7168-58.374L47.5274-34.5205C47.0879-34.0322 46.8926-33.4863 46.8926-32.9717Z"/>
  </g>
  <g id="Regular-S" transform="matrix(1 0 0 1 1387.05 696)">
   <path d="M4.83594-35.2539C4.83594-22.998 8.7422-11.7188 15.4316-2.44141C16.7988-0.585938 19.1426-0.390625 20.8516-1.80664C22.4629-3.125 22.6582-5.27344 21.4375-6.98242C15.6758-14.9414 12.3555-24.7559 12.3555-35.2539C12.3555-45.8008 15.6758-55.5664 21.4375-63.5742C22.6582-65.2344 22.5117-67.3828 20.8516-68.75C19.1426-70.166 16.7988-69.9219 15.4316-68.0664C8.7422-58.8379 4.83594-47.5098 4.83594-35.2539ZM116.75-35.2539C116.75-47.5098 112.844-58.8379 106.154-68.0664C104.787-69.9219 102.443-70.166 100.734-68.75C99.074-67.3828 98.928-65.2344 100.148-63.5742C105.91-55.5664 109.23-45.8008 109.23-35.2539C109.23-24.7559 105.91-14.9414 100.148-6.98242C98.928-5.27344 99.123-3.125 100.734-1.80664C102.443-0.390625 104.787-0.585938 106.154-2.44141C112.844-11.7188 116.75-22.998 116.75-35.2539ZM22.8359-35.2539C22.8359-22.998 26.7422-11.7188 33.4316-2.44141C34.7988-0.585938 37.1426-0.390625 38.8516-1.80664C40.4629-3.125 40.6582-5.27344 39.4375-6.98242C33.6758-14.9414 30.3555-24.7559 30.3555-35.2539C30.3555-45.8008 33.6758-55.5664 39.4375-63.5742C40.6582-65.2344 40.5117-67.3828 38.8516-68.75C37.1426-70.166 34.7988-69.9219 33.4316-68.0664C26.7422-58.8379 22.8359-47.5098 22.8359-35.2539ZM98.2424-35.2539C98.2424-47.5098 94.3364-58.8379 87.6464-68.0664C86.2794-69.9219 83.9354-70.166 82.2264-68.75C80.5664-67.3828 80.4204-65.2344 81.6404-63.5742C87.4024-55.5664 90.7224-45.8008 90.7224-35.2539C90.7224-24.7559 87.4024-14.9414 81.6404-6.98242C80.4204-5.27344 80.6154-3.125 82.2264-1.80664C83.9354-0.390625 86.2794-0.585938 87.6464-2.44141C94.3364-11.7188 98.2424-22.998 98.2424-35.2539ZM44.9238-32.9102C44.9238-31.8848 45.7051-31.2012 46.7305-31.2012L58.8398-31.2012L52.3945-13.916C51.4668-11.377 54.1523-10.0098 55.7637-12.0117L75.3926-36.6699C75.832-37.1094 76.0273-37.6953 76.0273-38.1836C76.0273-39.1602 75.2461-39.8926 74.2207-39.8926L62.1113-39.8926L68.5566-57.1777C69.4844-59.668 66.7988-61.0352 65.1875-59.0332L45.5586-34.4238C45.1191-33.9355 44.9238-33.3984 44.9238-32.9102Z"/>
  </g>
  <g id="Light-S" transform="matrix(1 0 0 1 1092.83 696)">
   <path d="M4.83594-35.2539C4.83594-23.2553 8.77247-12.2334 15.4316-3.28906C16.4961-1.87255 18.2647-1.72265 19.5801-2.80566C20.8281-3.82128 20.978-5.47021 20.0147-6.80078C14.0713-14.7295 10.5845-24.6197 10.5845-35.2539C10.5845-45.9219 14.0713-55.7783 20.0147-63.7558C20.978-65.0376 20.8467-66.6865 19.5801-67.7358C18.2798-68.8037 16.4809-68.6201 15.4316-67.2188C8.77247-58.293 4.83594-47.2525 4.83594-35.2539ZM111.77-35.2539C111.77-47.2525 107.834-58.293 101.174-67.2188C100.125-68.6201 98.326-68.8037 97.0257-67.7358C95.7592-66.6865 95.6281-65.0376 96.591-63.7558C102.535-55.7783 106.006-45.9219 106.006-35.2539C106.006-24.6197 102.535-14.7295 96.591-6.80078C95.6281-5.47021 95.7778-3.82128 97.0257-2.80566C98.3411-1.72265 100.11-1.87255 101.174-3.28906C107.834-12.2334 111.77-23.2553 111.77-35.2539ZM21.1693-35.2539C21.1693-23.2553 25.1058-12.2334 31.7649-3.28906C32.8294-1.87255 34.598-1.72265 35.9134-2.80566C37.1615-3.82128 37.3114-5.47021 36.348-6.80078C30.4046-14.7295 26.9178-24.6197 26.9178-35.2539C26.9178-45.9219 30.4046-55.7783 36.348-63.7558C37.3114-65.0376 37.18-66.6865 35.9134-67.7358C34.6131-68.8037 32.8143-68.6201 31.7649-67.2188C25.1058-58.293 21.1693-47.2525 21.1693-35.2539ZM94.985-35.2539C94.985-47.2525 91.0487-58.293 84.3892-67.2188C83.34-68.6201 81.541-68.8037 80.2407-67.7358C78.9742-66.6865 78.8432-65.0376 79.8061-63.7558C85.7496-55.7783 89.221-45.9219 89.221-35.2539C89.221-24.6197 85.7496-14.7295 79.8061-6.80078C78.8432-5.47021 78.9929-3.82128 80.2407-2.80566C81.5561-1.72265 83.3249-1.87255 84.3892-3.28906C91.0487-12.2334 94.985-23.2553 94.985-35.2539ZM42.2295-32.6529C42.2295-31.7788 42.9048-31.2163 43.794-31.2163L56.312-31.2163L49.5942-13.1743C48.7725-10.9532 51.0947-9.75247 52.5245-11.5122L72.774-36.9424C73.168-37.397 73.3481-37.9072 73.3481-38.3198C73.3481-39.1602 72.688-39.7715 71.7988-39.7715L59.2808-39.7715L65.9985-57.8134C66.8204-60.001 64.4829-61.2017 63.0532-59.4268L42.8189-34.0303C42.4097-33.5571 42.2295-33.0805 42.2295-32.6529Z"/>
  </g>
  <g id="Thin-S" transform="matrix(1 0 0 1 799.412 696)">
   <path d="M4.83594-35.2539C4.83594-23.5957 8.8125-12.9141 15.4316-4.41014C16.0957-3.5742 17.1035-3.48435 17.8984-4.12694C18.666-4.74217 18.7559-5.73046 18.1329-6.56055C11.9492-14.4492 8.24223-24.4395 8.24223-35.2539C8.24223-46.0821 11.9492-56.0586 18.1329-63.9961C18.7559-64.7773 18.6445-65.7657 17.8984-66.3945C17.1387-67.0019 16.0605-66.8984 15.4316-66.0977C8.8125-57.5722 4.83594-46.9121 4.83594-35.2539ZM105.184-35.2539C105.184-46.9121 101.207-57.5722 94.5879-66.0977C93.9591-66.8984 92.8809-67.0019 92.1211-66.3945C91.375-65.7657 91.2638-64.7773 91.8867-63.9961C98.0704-56.0586 101.742-46.0821 101.742-35.2539C101.742-24.4395 98.0704-14.4492 91.8867-6.56055C91.2638-5.73046 91.3536-4.74217 92.1211-4.12694C92.916-3.48435 93.9239-3.5742 94.5879-4.41014C101.207-12.9141 105.184-23.5957 105.184-35.2539ZM18.965-35.2539C18.965-23.5957 22.9415-12.9141 29.5606-4.41014C30.2247-3.5742 31.2326-3.48435 32.0275-4.12694C32.7951-4.74217 32.8849-5.73046 32.2619-6.56055C26.0783-14.4492 22.3713-24.4395 22.3713-35.2539C22.3713-46.0821 26.0783-56.0586 32.2619-63.9961C32.8849-64.7773 32.7736-65.7657 32.0275-66.3945C31.2677-67.0019 30.1896-66.8984 29.5606-66.0977C22.9415-57.5722 18.965-46.9121 18.965-35.2539ZM90.6769-35.2539C90.6769-46.9121 86.7005-57.5722 80.0812-66.0977C79.4524-66.8984 78.3742-67.0019 77.6144-66.3945C76.8683-65.7657 76.7571-64.7773 77.38-63.9961C83.5637-56.0586 87.2353-46.0821 87.2353-35.2539C87.2353-24.4395 83.5637-14.4492 77.38-6.56055C76.7571-5.73046 76.8469-4.74217 77.6144-4.12694C78.4093-3.48435 79.4172-3.5742 80.0812-4.41014C86.7005-12.9141 90.6769-23.5957 90.6769-35.2539ZM38.6661-32.3125C38.6661-31.6387 39.2013-31.2363 39.9102-31.2363L52.9688-31.2363L45.8907-12.1933C45.2091-10.3926 47.0509-9.41212 48.2403-10.8516L69.3106-37.3027C69.6446-37.7774 69.8047-38.1875 69.8047-38.5C69.8047-39.1602 69.3047-39.6113 68.5957-39.6113L55.5372-39.6113L62.6153-58.6542C63.297-60.4414 61.4199-61.4219 60.2305-59.9473L39.1953-33.5098C38.8262-33.0566 38.6661-32.6601 38.6661-32.3125Z"/>
  </g>
  <g id="Ultralight-S" transform="matrix(1 0 0 1 504.388 696)">
   <path d="M4.83594-35.2539C4.83594-23.77 8.833-13.2627 15.4316-4.98435C15.8906-4.44577 16.5088-4.38669 17.0371-4.80369C17.5586-5.21385 17.6177-5.86376 17.169-6.4375C10.8623-14.3057 7.04252-24.3472 7.04252-35.2539C7.04252-46.1641 10.8623-56.2021 17.169-64.1191C17.6177-64.644 17.5166-65.294 17.0371-65.7075C16.5542-66.0791 15.8452-66.0166 15.4316-65.5235C8.833-57.2031 4.83594-46.7378 4.83594-35.2539ZM101.81-35.2539C101.81-46.7378 97.8131-57.2031 91.2145-65.5235C90.8009-66.0166 90.0919-66.0791 89.609-65.7075C89.1295-65.294 89.0284-64.644 89.4771-64.1191C95.7838-56.2021 99.558-46.1641 99.558-35.2539C99.558-24.3472 95.7838-14.3057 89.4771-6.4375C89.0284-5.86376 89.0875-5.21385 89.609-4.80369C90.1373-4.38669 90.7555-4.44577 91.2145-4.98435C97.8131-13.2627 101.81-23.77 101.81-35.2539ZM17.8359-35.2539C17.8359-23.77 21.833-13.2627 28.4316-4.98435C28.8906-4.44577 29.5088-4.38669 30.0371-4.80369C30.5586-5.21385 30.6177-5.86376 30.169-6.4375C23.8623-14.3057 20.0425-24.3472 20.0425-35.2539C20.0425-46.1641 23.8623-56.2021 30.169-64.1191C30.6177-64.644 30.5166-65.294 30.0371-65.7075C29.5542-66.0791 28.8452-66.0166 28.4316-65.5235C21.833-57.2031 17.8359-46.7378 17.8359-35.2539ZM88.4702-35.2539C88.4702-46.7378 84.4733-57.2031 77.8747-65.5235C77.4611-66.0166 76.7521-66.0791 76.2692-65.7075C75.7897-65.294 75.6886-64.644 76.1373-64.1191C82.444-56.2021 86.2182-46.1641 86.2182-35.2539C86.2182-24.3472 82.444-14.3057 76.1373-6.4375C75.6886-5.86376 75.7477-5.21385 76.2692-4.80369C76.7975-4.38669 77.4157-4.44577 77.8747-4.98435C84.4733-13.2627 88.4702-23.77 88.4702-35.2539ZM36.8409-32.1382C36.8409-31.5669 37.3043-31.2466 37.921-31.2466L51.2564-31.2466L43.9937-11.6909C43.3839-10.1055 44.9796-9.2378 46.046-10.5132L67.5367-37.4873C67.8399-37.9722 67.9898-38.331 67.9898-38.5923C67.9898-39.1602 67.5718-39.5293 66.9551-39.5293L53.6197-39.5293L60.8824-59.0849C61.4923-60.667 59.8511-61.5347 58.7847-60.2139L37.3394-33.2432C36.9908-32.8003 36.8409-32.4448 36.8409-32.1382Z"/>
  </g>
 </g>
</svg>
