<?xml version="1.0" encoding="UTF-8"?>
<!--Generator: Apple Native CoreSVG 232.5-->
<!DOCTYPE svg
PUBLIC "-//W3C//DTD SVG 1.1//EN"
       "http://www.w3.org/Graphics/SVG/1.1/DTD/svg11.dtd">
<svg version="1.1" xmlns="http://www.w3.org/2000/svg" xmlns:xlink="http://www.w3.org/1999/xlink" width="3300" height="2200">
 <g id="Notes">
  <rect height="2200" id="artboard" style="fill:white;opacity:1" width="3300" x="0" y="0"/>
  <line style="fill:none;stroke:black;opacity:1;stroke-width:0.5;" x1="263" x2="3036" y1="292" y2="292"/>
  <text style="stroke:none;fill:black;font-family:sans-serif;font-size:13;font-weight:bold;" transform="matrix(1 0 0 1 263 322)">Weight/Scale Variations</text>
  <text style="stroke:none;fill:black;font-family:sans-serif;font-size:13;text-anchor:middle;" transform="matrix(1 0 0 1 559.711 322)">Ultralight</text>
  <text style="stroke:none;fill:black;font-family:sans-serif;font-size:13;text-anchor:middle;" transform="matrix(1 0 0 1 856.422 322)">Thin</text>
  <text style="stroke:none;fill:black;font-family:sans-serif;font-size:13;text-anchor:middle;" transform="matrix(1 0 0 1 1153.13 322)">Light</text>
  <text style="stroke:none;fill:black;font-family:sans-serif;font-size:13;text-anchor:middle;" transform="matrix(1 0 0 1 1449.84 322)">Regular</text>
  <text style="stroke:none;fill:black;font-family:sans-serif;font-size:13;text-anchor:middle;" transform="matrix(1 0 0 1 1746.56 322)">Medium</text>
  <text style="stroke:none;fill:black;font-family:sans-serif;font-size:13;text-anchor:middle;" transform="matrix(1 0 0 1 2043.27 322)">Semibold</text>
  <text style="stroke:none;fill:black;font-family:sans-serif;font-size:13;text-anchor:middle;" transform="matrix(1 0 0 1 2339.98 322)">Bold</text>
  <text style="stroke:none;fill:black;font-family:sans-serif;font-size:13;text-anchor:middle;" transform="matrix(1 0 0 1 2636.69 322)">Heavy</text>
  <text style="stroke:none;fill:black;font-family:sans-serif;font-size:13;text-anchor:middle;" transform="matrix(1 0 0 1 2933.4 322)">Black</text>
  <line style="fill:none;stroke:black;opacity:1;stroke-width:0.5;" x1="263" x2="3036" y1="1903" y2="1903"/>
  <g transform="matrix(0.2 0 0 0.2 263 1933)">
   <path d="m46.2402 4.15039c21.5332 0 39.4531-17.8711 39.4531-39.4043s-17.9688-39.4043-39.502-39.4043c-21.4844 0-39.3555 17.8711-39.3555 39.4043s17.9199 39.4043 39.4043 39.4043Zm0-7.42188c-17.7246 0-31.8848-14.209-31.8848-31.9824s14.1113-31.9824 31.8359-31.9824c17.7734 0 32.0312 14.209 32.0312 31.9824s-14.209 31.9824-31.9824 31.9824Zm-17.9688-31.9824c0 2.14844 1.51367 3.61328 3.75977 3.61328h10.498v10.5957c0 2.19727 1.46484 3.71094 3.61328 3.71094 2.24609 0 3.71094-1.51367 3.71094-3.71094v-10.5957h10.5957c2.19727 0 3.71094-1.46484 3.71094-3.61328 0-2.19727-1.51367-3.71094-3.71094-3.71094h-10.5957v-10.5469c0-2.24609-1.46484-3.75977-3.71094-3.75977-2.14844 0-3.61328 1.51367-3.61328 3.75977v10.5469h-10.498c-2.24609 0-3.75977 1.51367-3.75977 3.71094Z"/>
  </g>
  <g transform="matrix(0.2 0 0 0.2 281.506 1933)">
   <path d="m58.5449 14.5508c27.2461 0 49.8047-22.6074 49.8047-49.8047 0-27.2461-22.6074-49.8047-49.8535-49.8047-27.1973 0-49.7559 22.5586-49.7559 49.8047 0 27.1973 22.6074 49.8047 49.8047 49.8047Zm0-8.30078c-23.0469 0-41.4551-18.457-41.4551-41.5039s18.3594-41.5039 41.4062-41.5039 41.5527 18.457 41.5527 41.5039-18.457 41.5039-41.5039 41.5039Zm-22.6562-41.5039c0 2.39258 1.66016 4.00391 4.15039 4.00391h14.3555v14.4043c0 2.44141 1.66016 4.15039 4.05273 4.15039 2.44141 0 4.15039-1.66016 4.15039-4.15039v-14.4043h14.4043c2.44141 0 4.15039-1.61133 4.15039-4.00391 0-2.44141-1.70898-4.15039-4.15039-4.15039h-14.4043v-14.3555c0-2.49023-1.70898-4.19922-4.15039-4.19922-2.39258 0-4.05273 1.70898-4.05273 4.19922v14.3555h-14.3555c-2.49023 0-4.15039 1.70898-4.15039 4.15039Z"/>
  </g>
  <g transform="matrix(0.2 0 0 0.2 304.924 1933)">
   <path d="m74.8535 28.3203c34.8145 0 63.623-28.8086 63.623-63.5742 0-34.8145-28.8574-63.623-63.6719-63.623-34.7656 0-63.5254 28.8086-63.5254 63.623 0 34.7656 28.8086 63.5742 63.5742 63.5742Zm0-9.08203c-30.1758 0-54.4434-24.3164-54.4434-54.4922 0-30.2246 24.2188-54.4922 54.3945-54.4922 30.2246 0 54.541 24.2676 54.541 54.4922 0 30.1758-24.2676 54.4922-54.4922 54.4922Zm-28.8574-54.4922c0 2.58789 1.85547 4.39453 4.58984 4.39453h19.7266v19.7754c0 2.68555 1.85547 4.58984 4.44336 4.58984 2.68555 0 4.54102-1.85547 4.54102-4.58984v-19.7754h19.7754c2.68555 0 4.58984-1.80664 4.58984-4.39453 0-2.73438-1.85547-4.58984-4.58984-4.58984h-19.7754v-19.7266c0-2.73438-1.85547-4.63867-4.54102-4.63867-2.58789 0-4.44336 1.9043-4.44336 4.63867v19.7266h-19.7266c-2.73438 0-4.58984 1.85547-4.58984 4.58984Z"/>
  </g>
  <text style="stroke:none;fill:black;font-family:sans-serif;font-size:13;font-weight:bold;" transform="matrix(1 0 0 1 263 1953)">Design Variations</text>
  <text style="stroke:none;fill:black;font-family:sans-serif;font-size:13;" transform="matrix(1 0 0 1 263 1971)">Symbols are supported in up to nine weights and three scales.</text>
  <text style="stroke:none;fill:black;font-family:sans-serif;font-size:13;" transform="matrix(1 0 0 1 263 1989)">For optimal layout with text and other symbols, vertically align</text>
  <text style="stroke:none;fill:black;font-family:sans-serif;font-size:13;" transform="matrix(1 0 0 1 263 2007)">symbols with the adjacent text.</text>
  <line style="fill:none;stroke:#00AEEF;stroke-width:0.5;opacity:1.0;" x1="776" x2="776" y1="1919" y2="1933"/>
  <g transform="matrix(0.2 0 0 0.2 776 1933)">
   <path d="m16.5527 0.78125c2.58789 0 3.85742-0.976562 4.78516-3.71094l6.29883-17.2363h28.8086l6.29883 17.2363c0.927734 2.73438 2.19727 3.71094 4.73633 3.71094 2.58789 0 4.24805-1.5625 4.24805-4.00391 0-0.830078-0.146484-1.61133-0.537109-2.63672l-22.9004-60.9863c-1.12305-2.97852-3.125-4.49219-6.25-4.49219-3.02734 0-5.07812 1.46484-6.15234 4.44336l-22.9004 61.084c-0.390625 1.02539-0.537109 1.80664-0.537109 2.63672 0 2.44141 1.5625 3.95508 4.10156 3.95508Zm13.4766-28.3691 11.8652-32.8613h0.244141l11.8652 32.8613Z"/>
  </g>
  <line style="fill:none;stroke:#00AEEF;stroke-width:0.5;opacity:1.0;" x1="792.836" x2="792.836" y1="1919" y2="1933"/>
  <text style="stroke:none;fill:black;font-family:sans-serif;font-size:13;font-weight:bold;" transform="matrix(1 0 0 1 776 1953)">Margins</text>
  <text style="stroke:none;fill:black;font-family:sans-serif;font-size:13;" transform="matrix(1 0 0 1 776 1971)">Leading and trailing margins on the left and right side of each symbol</text>
  <text style="stroke:none;fill:black;font-family:sans-serif;font-size:13;" transform="matrix(1 0 0 1 776 1989)">can be adjusted by modifying the x-location of the margin guidelines.</text>
  <text style="stroke:none;fill:black;font-family:sans-serif;font-size:13;" transform="matrix(1 0 0 1 776 2007)">Modifications are automatically applied proportionally to all</text>
  <text style="stroke:none;fill:black;font-family:sans-serif;font-size:13;" transform="matrix(1 0 0 1 776 2025)">scales and weights.</text>
  <g transform="matrix(0.2 0 0 0.2 1289 1933)">
   <path d="m14.209 9.32617 8.49609 8.54492c4.29688 4.3457 9.22852 4.05273 13.8672-1.07422l53.4668-58.9355-4.83398-4.88281-53.0762 58.3984c-1.75781 2.00195-3.41797 2.49023-5.76172 0.146484l-5.85938-5.81055c-2.34375-2.29492-1.80664-4.00391 0.195312-5.81055l57.373-54.0039-4.88281-4.83398-57.959 54.4434c-4.93164 4.58984-5.32227 9.47266-1.02539 13.8184Zm32.0801-90.9668c-2.09961 2.05078-2.24609 4.93164-1.07422 6.88477 1.17188 1.80664 3.4668 2.97852 6.68945 2.14844 7.32422-1.70898 14.9414-2.00195 22.0703 2.68555l-2.92969 7.27539c-1.70898 4.15039-0.830078 7.08008 1.85547 9.81445l11.4746 11.5723c2.44141 2.44141 4.49219 2.53906 7.32422 2.05078l5.32227-0.976562 3.32031 3.36914-0.195312 2.7832c-0.195312 2.49023 0.439453 4.39453 2.88086 6.78711l3.80859 3.71094c2.39258 2.39258 5.46875 2.53906 7.8125 0.195312l14.5508-14.5996c2.34375-2.34375 2.24609-5.32227-0.146484-7.71484l-3.85742-3.80859c-2.39258-2.39258-4.24805-3.17383-6.64062-2.97852l-2.88086 0.244141-3.22266-3.17383 1.2207-5.61523c0.634766-2.83203-0.146484-5.0293-3.07617-7.95898l-10.9863-10.9375c-16.6992-16.6016-38.8672-16.2109-53.3203-1.75781Zm7.4707 1.85547c12.1582-8.88672 28.6133-7.37305 39.7461 3.75977l12.1582 12.0605c1.17188 1.17188 1.36719 2.09961 1.02539 3.80859l-1.61133 7.42188 7.51953 7.42188 4.93164-0.292969c1.26953-0.0488281 1.66016 0.0488281 2.63672 1.02539l2.88086 2.88086-12.207 12.207-2.88086-2.88086c-0.976562-0.976562-1.12305-1.36719-1.07422-2.68555l0.341797-4.88281-7.4707-7.42188-7.61719 1.26953c-1.61133 0.341797-2.34375 0.195312-3.56445-0.976562l-10.0098-10.0098c-1.26953-1.17188-1.41602-2.00195-0.634766-3.85742l4.39453-10.4492c-7.8125-7.27539-17.9688-10.4004-28.125-7.42188-0.78125 0.195312-1.07422-0.439453-0.439453-0.976562Z"/>
  </g>
  <text style="stroke:none;fill:black;font-family:sans-serif;font-size:13;font-weight:bold;" transform="matrix(1 0 0 1 1289 1953)">Exporting</text>
  <text style="stroke:none;fill:black;font-family:sans-serif;font-size:13;" transform="matrix(1 0 0 1 1289 1971)">Symbols should be outlined when exporting to ensure the</text>
  <text style="stroke:none;fill:black;font-family:sans-serif;font-size:13;" transform="matrix(1 0 0 1 1289 1989)">design is preserved when submitting to Xcode.</text>
  <text id="template-version" style="stroke:none;fill:black;font-family:sans-serif;font-size:13;text-anchor:end;" transform="matrix(1 0 0 1 3036 1933)">Template v.2.0</text>
  <text style="stroke:none;fill:black;font-family:sans-serif;font-size:13;text-anchor:end;" transform="matrix(1 0 0 1 3036 1951)">Requires Xcode 12 or greater</text>
  <text id="descriptive-name" style="stroke:none;fill:black;font-family:sans-serif;font-size:13;text-anchor:end;" transform="matrix(1 0 0 1 3036 1969)">Generated from barometer</text>
  <text style="stroke:none;fill:black;font-family:sans-serif;font-size:13;text-anchor:end;" transform="matrix(1 0 0 1 3036 1987)">Typeset at 100.0 points</text>
  <text style="stroke:none;fill:black;font-family:sans-serif;font-size:13;" transform="matrix(1 0 0 1 263 726)">Small</text>
  <text style="stroke:none;fill:black;font-family:sans-serif;font-size:13;" transform="matrix(1 0 0 1 263 1156)">Medium</text>
  <text style="stroke:none;fill:black;font-family:sans-serif;font-size:13;" transform="matrix(1 0 0 1 263 1586)">Large</text>
 </g>
 <g id="Guides">
  <g id="H-reference" style="fill:#27AAE1;stroke:none;" transform="matrix(1 0 0 1 339 696)">
   <path d="M0.993654 0L3.63775 0L29.3281-67.1323L30.0303-67.1323L30.0303-70.459L28.1226-70.459ZM11.6885-24.4799L46.9815-24.4799L46.2315-26.7285L12.4385-26.7285ZM55.1196 0L57.7637 0L30.6382-70.459L29.4326-70.459L29.4326-67.1323Z"/>
  </g>
  <line id="Baseline-S" style="fill:none;stroke:#27AAE1;opacity:1;stroke-width:0.5;" x1="263" x2="3036" y1="696" y2="696"/>
  <line id="Capline-S" style="fill:none;stroke:#27AAE1;opacity:1;stroke-width:0.5;" x1="263" x2="3036" y1="625.541" y2="625.541"/>
  <g id="H-reference" style="fill:#27AAE1;stroke:none;" transform="matrix(1 0 0 1 339 1126)">
   <path d="M0.993654 0L3.63775 0L29.3281-67.1323L30.0303-67.1323L30.0303-70.459L28.1226-70.459ZM11.6885-24.4799L46.9815-24.4799L46.2315-26.7285L12.4385-26.7285ZM55.1196 0L57.7637 0L30.6382-70.459L29.4326-70.459L29.4326-67.1323Z"/>
  </g>
  <line id="Baseline-M" style="fill:none;stroke:#27AAE1;opacity:1;stroke-width:0.5;" x1="263" x2="3036" y1="1126" y2="1126"/>
  <line id="Capline-M" style="fill:none;stroke:#27AAE1;opacity:1;stroke-width:0.5;" x1="263" x2="3036" y1="1055.54" y2="1055.54"/>
  <g id="H-reference" style="fill:#27AAE1;stroke:none;" transform="matrix(1 0 0 1 339 1556)">
   <path d="M0.993654 0L3.63775 0L29.3281-67.1323L30.0303-67.1323L30.0303-70.459L28.1226-70.459ZM11.6885-24.4799L46.9815-24.4799L46.2315-26.7285L12.4385-26.7285ZM55.1196 0L57.7637 0L30.6382-70.459L29.4326-70.459L29.4326-67.1323Z"/>
  </g>
  <line id="Baseline-L" style="fill:none;stroke:#27AAE1;opacity:1;stroke-width:0.5;" x1="263" x2="3036" y1="1556" y2="1556"/>
  <line id="Capline-L" style="fill:none;stroke:#27AAE1;opacity:1;stroke-width:0.5;" x1="263" x2="3036" y1="1485.54" y2="1485.54"/>
  <line id="left-margin" style="fill:none;stroke:#00AEEF;stroke-width:0.5;opacity:1.0;" x1="1391.32" x2="1391.32" y1="1030.79" y2="1150.12"/>
  <line id="right-margin" style="fill:none;stroke:#00AEEF;stroke-width:0.5;opacity:1.0;" x1="1508.37" x2="1508.37" y1="1030.79" y2="1150.12"/>
 </g>
 <g id="Symbols">
  <g id="Black-L" transform="matrix(1 0 0 1 2854.19 1556)">
   <path d="M79.1542-20.6335C87.2807-20.6335 93.9072-27.2392 93.9072-35.3865C93.9072-43.5338 87.2807-50.1395 79.1542-50.1395C70.9484-50.1395 64.3803-43.5338 64.3803-35.3865C64.3803-27.2392 70.9484-20.6335 79.1542-20.6335ZM79.1542-31.225C76.7991-31.225 74.973-33.0899 74.973-35.3865C74.973-37.6832 76.7991-39.5481 79.1542-39.5481C81.43-39.5481 83.3157-37.6832 83.3157-35.3865C83.3157-33.0899 81.43-31.225 79.1542-31.225ZM78.4667-24.0341L67.7265-34.307L61.2787-27.8968C58.4084-25.0485 58.35-20.2593 61.2787-17.3526C64.2062-14.4239 68.9746-14.4239 71.8437-17.3526ZM80.5489-47.167L91.3099-36.798L108.035-53.5435C110.963-56.471 110.963-61.181 108.035-64.1085C105.107-67.0372 100.397-67.0372 97.4696-64.1085ZM79.1958 32.7257C116.56 32.7257 147.154 2.15259 147.154-35.2113C147.154-72.5752 116.539-103.148 79.175-103.148C41.8307-103.148 11.2588-72.5752 11.2588-35.2113C11.2588 2.15259 41.8515 32.7257 79.1958 32.7257ZM79.1958 12.5782C52.765 12.5782 31.4468-8.75969 31.4468-35.2113C31.4468-61.6629 52.7442-83.0007 79.175-83.0007C105.627-83.0007 126.985-61.6629 126.985-35.2113C126.985-8.75969 105.647 12.5782 79.1958 12.5782Z"/>
  </g>
  <g id="Heavy-L" transform="matrix(1 0 0 1 2558.42 1556)">
   <path d="M78.1929-20.8637C86.1726-20.8637 92.6881-27.3491 92.6881-35.3589C92.6881-43.3688 86.1726-49.8542 78.1929-49.8542C70.1384-49.8542 63.6674-43.3688 63.6674-35.3589C63.6674-27.3491 70.1384-20.8637 78.1929-20.8637ZM78.1929-30.7192C75.5781-30.7192 73.5286-32.7888 73.5286-35.3589C73.5286-37.9291 75.5781-39.9987 78.1929-39.9987C80.7329-39.9987 82.8326-37.9291 82.8326-35.3589C82.8326-32.7888 80.7329-30.7192 78.1929-30.7192ZM76.9246-24.3353L67.1404-33.7626L60.1006-26.7373C57.4703-24.1427 57.4257-19.7563 60.1006-17.1171C62.77-14.4421 67.1263-14.4421 69.751-17.1171ZM80.0538-46.6904L89.8682-37.2041L107.972-55.3381C110.647-58.0075 110.647-62.3192 107.972-64.9885C105.303-67.6635 100.991-67.6635 98.3217-64.9885ZM78.2532 31.7694C115.056 31.7694 145.278 1.57794 145.278-35.2251C145.278-72.0281 115.026-102.22 78.2231-102.22C41.4446-102.22 11.2588-72.0281 11.2588-35.2251C11.2588 1.57794 41.4748 31.7694 78.2532 31.7694ZM78.2532 14.0275C51.0062 14.0275 29.0554-7.9479 29.0554-35.2251C29.0554-62.5023 50.9761-84.4777 78.2231-84.4777C105.5-84.4777 127.506-62.5023 127.506-35.2251C127.506-7.9479 105.53 14.0275 78.2532 14.0275Z"/>
  </g>
  <g id="Bold-L" transform="matrix(1 0 0 1 2262.89 1556)">
   <path d="M76.9944-21.2524C84.7376-21.2524 91.0702-27.5469 91.0702-35.3281C91.0702-43.1093 84.7376-49.4039 76.9944-49.4039C69.184-49.4039 62.8807-43.1093 62.8807-35.3281C62.8807-27.5469 69.184-21.2524 76.9944-21.2524ZM76.9944-30.0893C74.0569-30.0893 71.7308-32.4198 71.7308-35.3281C71.7308-38.2364 74.0569-40.567 76.9944-40.567C79.8647-40.567 82.2333-38.2364 82.2333-35.3281C82.2333-32.4198 79.8647-30.0893 76.9944-30.0893ZM74.9667-24.7713L66.4552-33.0492L58.8792-25.4644C56.5708-23.2072 56.5416-19.3649 58.8792-17.0785C61.2035-14.7409 65.0079-14.7409 67.303-17.0785ZM79.4838-46.069L88.0333-37.7707L107.806-57.5812C110.143-59.9056 110.143-63.6807 107.806-66.0051C105.481-68.3427 101.706-68.3427 99.3819-66.0051ZM77.0704 30.5711C113.182 30.5711 142.92 0.870872 142.92-35.2405C142.92-71.3519 113.144-101.052 77.0324-101.052C40.9458-101.052 11.2588-71.3519 11.2588-35.2405C11.2588 0.870872 40.9838 30.5711 77.0704 30.5711ZM77.0704 15.8255C48.8167 15.8255 26.0672-6.94878 26.0672-35.2405C26.0672-63.5322 48.7787-86.3065 77.0324-86.3065C105.324-86.3065 128.136-63.5322 128.136-35.2405C128.136-6.94878 105.362 15.8255 77.0704 15.8255Z"/>
  </g>
  <g id="Semibold-L" transform="matrix(1 0 0 1 1966.99 1556)">
   <path d="M76.1682-21.5203C83.7484-21.5203 89.9548-27.6833 89.9548-35.3068C89.9548-42.9304 83.7484-49.0934 76.1682-49.0934C68.5261-49.0934 62.3383-42.9304 62.3383-35.3068C62.3383-27.6833 68.5261-21.5203 76.1682-21.5203ZM76.1682-29.655C73.0082-29.655 70.4914-32.1654 70.4914-35.3068C70.4914-38.4482 73.0082-40.9587 76.1682-40.9587C79.2662-40.9587 81.8201-38.4482 81.8201-35.3068C81.8201-32.1654 79.2662-29.655 76.1682-29.655ZM73.6169-25.0719L65.9829-32.5574L58.0371-24.5868C55.9507-22.5622 55.9321-19.095 58.0371-17.0519C60.1236-14.9469 63.5475-14.9469 65.6154-17.0519ZM79.0909-45.6406L86.7683-38.1613L107.691-59.1276C109.796-61.2141 109.796-64.6194 107.691-66.7059C105.605-68.8109 102.199-68.8109 100.113-66.7059ZM76.2549 29.745C111.889 29.745 141.294 0.383422 141.294-35.2511C141.294-70.8857 111.846-100.247 76.2116-100.247C40.6019-100.247 11.2588-70.8857 11.2588-35.2511C11.2588 0.383422 40.6453 29.745 76.2549 29.745ZM76.2549 17.065C47.3072 17.065 24.0071-6.26 24.0071-35.2511C24.0071-64.2423 47.2638-87.5672 76.2116-87.5672C105.203-87.5672 128.571-64.2423 128.571-35.2511C128.571-6.26 105.246 17.065 76.2549 17.065Z"/>
  </g>
  <g id="Medium-L" transform="matrix(1 0 0 1 1670.9 1556)">
   <path d="M75.5417-21.7235C82.9983-21.7235 89.109-27.7868 89.109-35.2907C89.109-42.7947 82.9983-48.858 75.5417-48.858C68.0273-48.858 61.927-42.7947 61.927-35.2907C61.927-27.7868 68.0273-21.7235 75.5417-21.7235ZM75.5417-29.3257C72.2131-29.3257 69.5517-31.9726 69.5517-35.2907C69.5517-38.6089 72.2131-41.2558 75.5417-41.2558C78.8124-41.2558 81.5068-38.6089 81.5068-35.2907C81.5068-31.9726 78.8124-29.3257 75.5417-29.3257ZM72.5935-25.2999L65.6247-32.1845L57.3986-23.9214C55.4805-22.0732 55.47-18.8904 57.3986-17.0317C59.3048-15.103 62.4401-15.103 64.3358-17.0317ZM78.7929-45.3157L85.8091-38.4575L107.604-60.3001C109.533-62.2063 109.533-65.3311 107.604-67.2373C105.698-69.1659 102.573-69.1659 100.667-67.2373ZM75.6366 29.1187C110.91 29.1187 140.062 0.0138167 140.062-35.2592C140.062-70.5322 110.862-99.637 75.5892-99.637C40.3412-99.637 11.2588-70.5322 11.2588-35.2592C11.2588 0.0138167 40.3886 29.1187 75.6366 29.1187ZM75.6366 18.0048C46.1626 18.0048 22.4451-5.73774 22.4451-35.2592C22.4451-64.7806 46.1152-88.5232 75.5892-88.5232C105.111-88.5232 128.901-64.7806 128.901-35.2592C128.901-5.73774 105.158 18.0048 75.6366 18.0048Z"/>
  </g>
  <g id="Regular-L" transform="matrix(1 0 0 1 1374.99 1556)">
   <path d="M74.7246-21.9885C82.0199-21.9885 88.0059-27.9217 88.0059-35.2697C88.0059-42.6177 82.0199-48.551 74.7246-48.551C67.3766-48.551 61.3906-42.6177 61.3906-35.2697C61.3906-27.9217 67.3766-21.9885 74.7246-21.9885ZM74.7246-28.8961C71.1759-28.8961 68.3259-31.721 68.3259-35.2697C68.3259-38.8184 71.1759-41.6433 74.7246-41.6433C78.2205-41.6433 81.0982-38.8184 81.0982-35.2697C81.0982-31.721 78.2205-28.8961 74.7246-28.8961ZM71.2585-25.5971L65.1576-31.6981L56.5658-23.0535C54.8672-21.4353 54.8672-18.6236 56.5658-17.0054C58.2368-15.3067 60.9958-15.3067 62.6667-17.0054ZM78.4043-44.892L84.558-38.8439L107.491-61.8295C109.189-63.5004 109.189-66.2594 107.491-67.9304C105.82-69.629 103.061-69.629 101.39-67.9304ZM74.8301 28.3017C109.632 28.3017 138.454-0.468277 138.454-35.2697C138.454-70.0711 109.579-98.8411 74.7774-98.8411C40.0011-98.8411 11.2588-70.0711 11.2588-35.2697C11.2588-0.468277 40.0538 28.3017 74.8301 28.3017ZM74.8301 19.2307C44.6697 19.2307 20.4076-5.05652 20.4076-35.2697C20.4076-65.4829 44.617-89.7701 74.7774-89.7701C104.991-89.7701 129.331-65.4829 129.331-35.2697C129.331-5.05652 105.043 19.2307 74.8301 19.2307Z"/>
  </g>
  <g id="Light-L" transform="matrix(1 0 0 1 1079.2 1556)">
   <path d="M73.8467-22.9236C80.6267-22.9236 86.1928-28.4561 86.1928-35.2697C86.1928-42.0833 80.6267-47.6158 73.8467-47.6158C67.0331-47.6158 61.4669-42.0833 61.4669-35.2697C61.4669-28.4561 67.0331-22.9236 73.8467-22.9236ZM73.8467-28.4381C70.069-28.4381 67.0281-31.492 67.0281-35.2697C67.0281-39.0474 70.069-42.1013 73.8467-42.1013C77.5907-42.1013 80.6783-39.0474 80.6783-35.2697C80.6783-31.492 77.5907-28.4381 73.8467-28.4381ZM69.5981-26.3033L64.9477-30.9537L57.2529-23.2253C55.936-21.9888 55.936-19.845 57.2529-18.6085C58.5231-17.2916 60.6331-17.2916 61.9033-18.6085ZM78.2898-44.2622L82.9739-39.6455L106.804-63.509C108.121-64.7791 108.121-66.8892 106.804-68.1594C105.534-69.4763 103.423-69.4763 102.153-68.1594ZM73.9141 27.3856C108.257 27.3856 136.603-0.926323 136.603-35.2697C136.603-69.6131 108.224-97.925 73.8804-97.925C39.5239-97.925 11.2588-69.6131 11.2588-35.2697C11.2588-0.926323 39.5576 27.3856 73.9141 27.3856ZM73.9141 20.4903C43.0857 20.4903 18.1746-4.40762 18.1746-35.2697C18.1746-66.1318 43.052-91.0297 73.8804-91.0297C104.742-91.0297 129.674-66.1318 129.674-35.2697C129.674-4.40762 104.776 20.4903 73.9141 20.4903Z"/>
  </g>
  <g id="Thin-L" transform="matrix(1 0 0 1 783.716 1556)">
   <path d="M72.6856-24.1605C78.784-24.1605 83.7948-29.1628 83.7948-35.2697C83.7948-41.3766 78.784-46.3789 72.6856-46.3789C66.5787-46.3789 61.5679-41.3766 61.5679-35.2697C61.5679-29.1628 66.5787-24.1605 72.6856-24.1605ZM72.6856-27.8323C68.605-27.8323 65.3117-31.1891 65.3117-35.2697C65.3117-39.3503 68.605-42.7071 72.6856-42.7071C76.7577-42.7071 80.123-39.3503 80.123-35.2697C80.123-31.1891 76.7577-27.8323 72.6856-27.8323ZM67.4021-27.2373L64.67-29.9693L58.1616-23.4525C57.3495-22.7208 57.3495-21.4605 58.1616-20.7288C58.9017-19.9168 60.1535-19.9168 60.8936-20.7288ZM78.1384-43.4292L80.8789-40.7056L105.895-65.7303C106.707-66.4703 106.707-67.7222 105.895-68.4623C105.155-69.2744 103.903-69.2744 103.163-68.4623ZM72.7024 26.174C106.44 26.174 134.155-1.53213 134.155-35.2697C134.155-69.0073 106.432-96.7134 72.694-96.7134C38.8929-96.7134 11.2588-69.0073 11.2588-35.2697C11.2588-1.53213 38.9013 26.174 72.7024 26.174ZM72.7024 22.1563C40.9906 22.1563 15.2214-3.5494 15.2214-35.2697C15.2214-66.99 40.9821-92.6957 72.694-92.6957C104.414-92.6957 130.128-66.99 130.128-35.2697C130.128-3.5494 104.423 22.1563 72.7024 22.1563Z"/>
  </g>
  <g id="Ultralight-L" transform="matrix(1 0 0 1 487.631 1556)">
   <path d="M72.0909-24.794C77.8402-24.794 82.5666-29.5248 82.5666-35.2697C82.5666-41.0146 77.8402-45.7454 72.0909-45.7454C66.346-45.7454 61.6196-41.0146 61.6196-35.2697C61.6196-29.5248 66.346-24.794 72.0909-24.794ZM72.0909-27.522C67.8551-27.522 64.4325-31.034 64.4325-35.2697C64.4325-39.5054 67.8551-43.0174 72.0909-43.0174C76.3311-43.0174 79.8386-39.5054 79.8386-35.2697C79.8386-31.034 76.3311-27.522 72.0909-27.522ZM66.2773-27.7156L64.5278-29.4651L58.627-23.5688C58.0735-23.0957 58.0735-22.2879 58.627-21.8149C59.0956-21.2613 59.9079-21.2613 60.3765-21.8149ZM78.0608-43.0026L79.8058-41.2486L105.43-66.868C105.983-67.3366 105.983-68.1489 105.43-68.6175C104.961-69.171 104.149-69.171 103.68-68.6175ZM72.0819 25.5534C105.509 25.5534 132.9-1.84242 132.9-35.2697C132.9-68.697 105.514-96.0928 72.0864-96.0928C38.5697-96.0928 11.2588-68.697 11.2588-35.2697C11.2588-1.84242 38.5652 25.5534 72.0819 25.5534ZM72.0819 23.0096C39.9175 23.0096 13.7087-3.10983 13.7087-35.2697C13.7087-67.4296 39.922-93.549 72.0864-93.549C104.246-93.549 130.361-67.4296 130.361-35.2697C130.361-3.10983 104.242 23.0096 72.0819 23.0096Z"/>
  </g>
  <g id="Black-M" transform="matrix(1 0 0 1 2871.36 1126)">
   <path d="M62.0312-23.8502C68.3836-23.8502 73.5559-29.017 73.5559-35.3748C73.5559-41.7326 68.3836-46.8994 62.0312-46.8994C55.6164-46.8994 50.5011-41.7326 50.5011-35.3748C50.5011-29.017 55.6164-23.8502 62.0312-23.8502ZM62.0312-32.4996C60.3989-32.4996 59.1502-33.7996 59.1502-35.3748C59.1502-36.9501 60.3989-38.2501 62.0312-38.2501C63.601-38.2501 64.9065-36.9501 64.9065-35.3748C64.9065-33.7996 63.601-32.4996 62.0312-32.4996ZM61.8918-26.3927L52.9459-34.8818L48.5807-30.5683C46.2024-28.1952 46.1453-24.2292 48.5807-21.7991C51.0163-19.3638 54.9768-19.3638 57.3553-21.7991ZM62.8147-44.8022L71.7661-36.2044L83.6595-48.1033C86.0949-50.5389 86.0949-54.4423 83.6595-56.878C81.2239-59.3133 77.3205-59.3133 74.8849-56.878ZM62.0422 18.116C91.4096 18.116 115.367-5.83621 115.367-35.2035C115.367-64.5709 91.4041-88.5231 62.0367-88.5231C32.6752-88.5231 8.72266-64.5709 8.72266-35.2035C8.72266-5.83621 32.6807 18.116 62.0422 18.116ZM62.0422 0.73415C42.1762 0.73415 26.1158-15.332 26.1158-35.2035C26.1158-55.0751 42.1707-71.1412 62.0367-71.1412C81.9083-71.1412 97.9799-55.0751 97.9799-35.2035C97.9799-15.332 81.9138 0.73415 62.0422 0.73415Z"/>
  </g>
  <g id="Heavy-M" transform="matrix(1 0 0 1 2575.48 1126)">
   <path d="M61.1725-23.989C67.4288-23.989 72.5314-29.0752 72.5314-35.3479C72.5314-41.6206 67.4288-46.7068 61.1725-46.7068C54.8562-46.7068 49.7972-41.6206 49.7972-35.3479C49.7972-29.0752 54.8562-23.989 61.1725-23.989ZM61.1725-32.0475C59.3074-32.0475 57.858-33.5264 57.858-35.3479C57.858-37.1694 59.3074-38.6483 61.1725-38.6483C62.9776-38.6483 64.4729-37.1694 64.4729-35.3479C64.4729-33.5264 62.9776-32.0475 61.1725-32.0475ZM60.5375-26.622L52.3922-34.4183L47.3657-29.419C45.1868-27.2588 45.1432-23.6248 47.3657-21.421C49.5859-19.1985 53.2035-19.1985 55.3801-21.421ZM62.3412-44.3944L70.5028-36.5273L83.6618-49.7027C85.8843-51.923 85.8843-55.4969 83.6618-57.7171C81.4416-59.9396 77.8677-59.9396 75.6474-57.7171ZM61.2053 17.2657C90.0667 17.2657 113.704-6.35571 113.704-35.217C113.704-64.0783 90.0502-87.6997 61.1889-87.6997C32.3418-87.6997 8.72266-64.0783 8.72266-35.217C8.72266-6.35571 32.3582 17.2657 61.2053 17.2657ZM61.2053 2.03478C40.603 2.03478 23.9841-14.5983 23.9841-35.217C23.9841-55.8358 40.5866-72.4688 61.1889-72.4688C81.8077-72.4688 98.4571-55.8358 98.4571-35.217C98.4571-14.5983 81.8241 2.03478 61.2053 2.03478Z"/>
  </g>
  <g id="Bold-M" transform="matrix(1 0 0 1 2279.69 1126)">
   <path d="M60.2119-24.1442C66.3609-24.1442 71.3854-29.1402 71.3854-35.3177C71.3854-41.4953 66.3609-46.4913 60.2119-46.4913C54.0058-46.4913 49.0098-41.4953 49.0098-35.3177C49.0098-29.1402 54.0058-24.1442 60.2119-24.1442ZM60.2119-31.5417C58.0863-31.5417 56.4124-33.2207 56.4124-35.3177C56.4124-37.4148 58.0863-39.0938 60.2119-39.0938C62.2803-39.0938 63.988-37.4148 63.988-35.3177C63.988-33.2207 62.2803-31.5417 60.2119-31.5417ZM59.0225-26.8786L51.7729-33.8998L46.0065-28.1333C44.0507-26.2112 44.0221-22.9487 46.0065-20.998C47.9858-19.0136 51.2197-19.0136 53.1705-20.998ZM61.8115-43.9383L69.0897-36.8886L83.6644-51.4919C85.6488-53.4712 85.6488-56.6766 83.6644-58.6558C81.6851-60.6403 78.4797-60.6403 76.5004-58.6558ZM60.2692 16.3144C88.5644 16.3144 111.844-6.93686 111.844-35.2321C111.844-63.5273 88.5358-86.7786 60.2405-86.7786C31.9688-86.7786 8.72266-63.5273 8.72266-35.2321C8.72266-6.93686 31.9974 16.3144 60.2692 16.3144ZM60.2692 3.48972C38.8432 3.48972 21.5995-13.7775 21.5995-35.2321C21.5995-56.6867 38.8146-73.9539 60.2405-73.9539C81.6951-73.9539 98.991-56.6867 98.991-35.2321C98.991-13.7775 81.7238 3.48972 60.2692 3.48972Z"/>
  </g>
  <g id="Semibold-M" transform="matrix(1 0 0 1 1983.62 1126)">
   <path d="M59.5497-24.2512C65.6246-24.2512 70.5954-29.185 70.5954-35.297C70.5954-41.4089 65.6246-46.3427 59.5497-46.3427C53.4196-46.3427 48.4669-41.4089 48.4669-35.297C48.4669-29.185 53.4196-24.2512 59.5497-24.2512ZM59.5497-31.193C57.2446-31.193 55.4158-33.01 55.4158-35.297C55.4158-37.5839 57.2446-39.4009 59.5497-39.4009C61.7996-39.4009 63.6536-37.5839 63.6536-35.297C63.6536-33.01 61.7996-31.193 59.5497-31.193ZM57.978-27.0555L51.346-33.5423L45.0695-27.247C43.2674-25.489 43.2492-22.4826 45.0695-20.7064C46.8827-18.8861 49.8521-18.8861 51.6472-20.7064ZM61.4464-43.6238L68.1155-37.1377L83.6661-52.7254C85.4864-54.5386 85.4864-57.4898 83.6661-59.303C81.8529-61.1233 78.9017-61.1233 77.0885-59.303ZM59.6238 15.6586C87.5288 15.6586 110.562-7.33749 110.562-35.2425C110.562-63.1475 87.4917-86.1436 59.5867-86.1436C31.7117-86.1436 8.72266-63.1475 8.72266-35.2425C8.72266-7.33749 31.7487 15.6586 59.6238 15.6586ZM59.6238 4.49275C37.63 4.49275 19.9555-13.2117 19.9555-35.2425C19.9555-57.2733 37.5929-74.9777 59.5867-74.9777C81.6175-74.9777 99.359-57.2733 99.359-35.2425C99.359-13.2117 81.6546 4.49275 59.6238 4.49275Z"/>
  </g>
  <g id="Medium-M" transform="matrix(1 0 0 1 1687.4 1126)">
   <path d="M59.0475-24.3324C65.0663-24.3324 69.9964-29.219 69.9964-35.2812C69.9964-41.3434 65.0663-46.23 59.0475-46.23C52.975-46.23 48.0553-41.3434 48.0553-35.2812C48.0553-29.219 52.975-24.3324 59.0475-24.3324ZM59.0475-30.9286C56.6063-30.9286 54.6602-32.8502 54.6602-35.2812C54.6602-37.7122 56.6063-39.6338 59.0475-39.6338C61.4351-39.6338 63.4001-37.7122 63.4001-35.2812C63.4001-32.8502 61.4351-30.9286 59.0475-30.9286ZM57.1861-27.1896L51.0222-33.2713L44.3591-26.575C42.6735-24.9414 42.6632-22.1291 44.3591-20.4853C46.0463-18.7895 48.8152-18.7895 50.4921-20.4853ZM61.1695-43.3854L67.3768-37.3266L83.6674-53.6606C85.3633-55.3479 85.3633-58.1065 83.6674-59.7937C81.9802-61.4895 79.2216-61.4895 77.5344-59.7937ZM59.1344 15.1614C86.7435 15.1614 109.59-7.64127 109.59-35.2504C109.59-62.8595 86.7001-85.6621 59.091-85.6621C31.5167-85.6621 8.72266-62.8595 8.72266-35.2504C8.72266-7.64127 31.5601 15.1614 59.1344 15.1614ZM59.1344 5.25329C36.7101 5.25329 18.709-12.7826 18.709-35.2504C18.709-57.7181 36.6666-75.754 59.091-75.754C81.5587-75.754 99.6381-57.7181 99.6381-35.2504C99.6381-12.7826 81.6021 5.25329 59.1344 5.25329Z"/>
  </g>
  <g id="Regular-M" transform="matrix(1 0 0 1 1391.32 1126)">
   <path d="M58.3926-24.4382C64.3382-24.4382 69.215-29.2633 69.215-35.2606C69.215-41.258 64.3382-46.0831 58.3926-46.0831C52.3952-46.0831 47.5184-41.258 47.5184-35.2606C47.5184-29.2633 52.3952-24.4382 58.3926-24.4382ZM58.3926-30.5838C55.7738-30.5838 53.6745-32.6418 53.6745-35.2606C53.6745-37.8794 55.7738-39.9375 58.3926-39.9375C60.9596-39.9375 63.0694-37.8794 63.0694-35.2606C63.0694-32.6418 60.9596-30.5838 58.3926-30.5838ZM56.1532-27.3645L50.6-32.9177L43.4324-25.6984C41.8989-24.2272 41.8989-21.6681 43.4324-20.1969C44.9553-18.6634 47.4626-18.6634 48.9856-20.1969ZM60.8084-43.0744L66.4133-37.5729L83.6692-54.8805C85.2027-56.4035 85.2027-58.9108 83.6692-60.4337C82.1462-61.9673 79.6389-61.9673 78.116-60.4337ZM58.4961 14.5128C85.7192 14.5128 108.321-8.0375 108.321-35.2606C108.321-62.4838 85.6675-85.0341 58.4443-85.0341C31.2624-85.0341 8.72266-62.4838 8.72266-35.2606C8.72266-8.0375 31.3141 14.5128 58.4961 14.5128ZM58.4961 6.24529C35.5102 6.24529 17.0831-12.223 17.0831-35.2606C17.0831-58.2983 35.4584-76.7666 58.4443-76.7666C81.482-76.7666 100.002-58.2983 100.002-35.2606C100.002-12.223 81.5337 6.24529 58.4961 6.24529Z"/>
  </g>
  <g id="Light-M" transform="matrix(1 0 0 1 1095.44 1126)">
   <path d="M57.6055-25.2766C63.0891-25.2766 67.5895-29.7424 67.5895-35.2606C67.5895-40.7789 63.0891-45.2447 57.6055-45.2447C52.0872-45.2447 47.5868-40.7789 47.5868-35.2606C47.5868-29.7424 52.0872-25.2766 57.6055-25.2766ZM57.6055-30.1731C54.7813-30.1731 52.511-32.4365 52.511-35.2606C52.511-38.0848 54.7813-40.3482 57.6055-40.3482C60.395-40.3482 62.693-38.0848 62.693-35.2606C62.693-32.4365 60.395-30.1731 57.6055-30.1731ZM54.6645-27.9976L50.4117-32.2504L44.0484-25.8524C42.8571-24.7234 42.8571-22.7632 44.0484-21.6343C45.212-20.443 47.1375-20.443 48.3011-21.6343ZM60.7057-42.5097L64.9931-38.2916L83.0532-56.3863C84.2445-57.5499 84.2445-59.4754 83.0532-60.6391C81.8896-61.8304 79.9641-61.8304 78.8004-60.6391ZM57.6748 13.6915C84.4872 13.6915 106.662-8.44816 106.662-35.2606C106.662-62.0731 84.4526-84.2128 57.6401-84.2128C30.8346-84.2128 8.72266-62.0731 8.72266-35.2606C8.72266-8.44816 30.8693 13.6915 57.6748 13.6915ZM57.6748 7.37462C34.09 7.37462 15.0811-11.6412 15.0811-35.2606C15.0811-58.8801 34.0554-77.8959 57.6401-77.8959C81.2595-77.8959 100.31-58.8801 100.31-35.2606C100.31-11.6412 81.2942 7.37462 57.6748 7.37462Z"/>
  </g>
  <g id="Thin-M" transform="matrix(1 0 0 1 799.828 1126)">
   <path d="M56.5645-26.3855C61.437-26.3855 65.4396-30.3761 65.4396-35.2606C65.4396-40.1452 61.437-44.1358 56.5645-44.1358C51.6799-44.1358 47.6773-40.1452 47.6773-35.2606C47.6773-30.3761 51.6799-26.3855 56.5645-26.3855ZM56.5645-29.63C53.4688-29.63 50.9721-32.1649 50.9721-35.2606C50.9721-38.3563 53.4688-40.8913 56.5645-40.8913C59.6482-40.8913 62.1951-38.3563 62.1951-35.2606C62.1951-32.1649 59.6482-29.63 56.5645-29.63ZM52.6956-28.8349L50.1628-31.3678L44.8631-26.0561C44.1244-25.3797 44.1244-24.2116 44.8631-23.5352C45.5515-22.7965 46.7075-22.7965 47.3959-23.5352ZM60.5699-41.7629L63.1148-39.2421L82.2385-58.3778C82.9772-59.0662 82.9772-60.2223 82.2385-60.9106C81.5501-61.6493 80.394-61.6493 79.7056-60.9106ZM56.5885 12.6052C82.8578 12.6052 104.466-8.9913 104.466-35.2606C104.466-61.53 82.8458-83.1265 56.5765-83.1265C30.2689-83.1265 8.72266-61.53 8.72266-35.2606C8.72266-8.9913 30.2809 12.6052 56.5885 12.6052ZM56.5885 8.86824C32.2117 8.86824 12.4333-10.8718 12.4333-35.2606C12.4333-59.6495 32.1996-79.3895 56.5765-79.3895C80.9653-79.3895 100.717-59.6495 100.717-35.2606C100.717-10.8718 80.9773 8.86824 56.5885 8.86824Z"/>
  </g>
  <g id="Ultralight-M" transform="matrix(1 0 0 1 503.679 1126)">
   <path d="M56.0313-26.9535C60.5909-26.9535 64.3384-30.7006 64.3384-35.2606C64.3384-39.8207 60.5909-43.5678 56.0313-43.5678C51.4712-43.5678 47.7237-39.8207 47.7237-35.2606C47.7237-30.7006 51.4712-26.9535 56.0313-26.9535ZM56.0313-29.3518C52.7965-29.3518 50.1839-32.0259 50.1839-35.2606C50.1839-38.4954 52.7965-41.1695 56.0313-41.1695C59.2656-41.1695 61.9401-38.4954 61.9401-35.2606C61.9401-32.0259 59.2656-29.3518 56.0313-29.3518ZM51.6872-29.2638L50.0353-30.9157L45.2804-26.1604C44.7735-25.7158 44.7735-24.9534 45.2804-24.5089C45.7253-24.002 46.4873-24.002 46.9323-24.5089ZM60.5004-41.3804L62.1527-39.7289L81.8212-59.3978C82.3281-59.8428 82.3281-60.6048 81.8212-61.0497C81.3762-61.5566 80.6143-61.5566 80.1693-61.0497ZM56.0321 12.0488C82.0233 12.0488 103.342-9.26949 103.342-35.2606C103.342-61.2518 82.0228-82.5701 56.0317-82.5701C29.9791-82.5701 8.72266-61.2518 8.72266-35.2606C8.72266-9.26949 29.9795 12.0488 56.0321 12.0488ZM56.0321 9.63326C31.2496 9.63326 11.0772-10.4777 11.0772-35.2606C11.0772-60.0436 31.2492-80.1545 56.0317-80.1545C80.8147-80.1545 100.926-60.0436 100.926-35.2606C100.926-10.4777 80.8151 9.63326 56.0321 9.63326Z"/>
  </g>
  <g id="Black-S" transform="matrix(1 0 0 1 2884.57 696)">
   <path d="M48.8281-26.3184C53.8086-26.3184 57.8613-30.3711 57.8613-35.3516C57.8613-40.332 53.8086-44.3848 48.8281-44.3848C43.7988-44.3848 39.7949-40.332 39.7949-35.3516C39.7949-30.3711 43.7988-26.3184 48.8281-26.3184ZM48.8281-33.2031C47.6074-33.2031 46.6797-34.1797 46.6797-35.3516C46.6797-36.5234 47.6074-37.5 48.8281-37.5C50-37.5 50.9766-36.5234 50.9766-35.3516C50.9766-34.1797 50-33.2031 48.8281-33.2031ZM48.8281-28.2715L41.6504-35.0586L38.4766-31.9336C36.5723-30.0293 36.5234-26.8555 38.4766-24.9023C40.4297-22.9492 43.6035-22.9492 45.5078-24.9023ZM49.3652-42.8223L56.543-35.9375L65.5273-44.9219C67.4805-46.875 67.4805-50 65.5273-51.9531C63.5742-53.9062 60.4492-53.9062 58.4961-51.9531ZM48.8281 6.78711C71.9727 6.78711 90.8203-12.0605 90.8203-35.2051C90.8203-58.3496 71.9727-77.1973 48.8281-77.1973C25.6836-77.1973 6.83594-58.3496 6.83594-35.2051C6.83594-12.0605 25.6836 6.78711 48.8281 6.78711ZM48.8281-7.37305C33.4473-7.37305 20.9961-19.8242 20.9961-35.2051C20.9961-50.5859 33.4473-63.0371 48.8281-63.0371C64.209-63.0371 76.6602-50.5859 76.6602-35.2051C76.6602-19.8242 64.209-7.37305 48.8281-7.37305Z"/>
  </g>
  <g id="Heavy-S" transform="matrix(1 0 0 1 2588.47 696)">
   <path d="M48.1943-26.3299C53.1517-26.3299 57.1929-30.3596 57.1929-35.3285C57.1929-40.2975 53.1517-44.3271 48.1943-44.3271C43.188-44.3271 39.1841-40.2975 39.1841-35.3285C39.1841-30.3596 43.188-26.3299 48.1943-26.3299ZM48.1943-32.8689C46.8007-32.8689 45.7232-33.9722 45.7232-35.3285C45.7232-36.6848 46.8007-37.7881 48.1943-37.7881C49.539-37.7881 50.6539-36.6848 50.6539-35.3285C50.6539-33.9722 49.539-32.8689 48.1943-32.8689ZM47.8601-28.3867L41.2009-34.7474L37.3587-30.931C35.5812-29.165 35.5439-26.1986 37.3587-24.3953C39.1735-22.5804 42.1284-22.5804 43.9059-24.3953ZM48.9734-42.5457L55.6441-36.1219L65.608-46.0974C67.4228-47.9122 67.4228-50.8298 65.608-52.6446C63.7932-54.4594 60.8756-54.4594 59.0608-52.6446ZM48.2173 6.16479C70.9816 6.16479 89.6102-12.4524 89.6102-35.2166C89.6102-57.9808 70.97-76.598 48.2058-76.598C25.4531-76.598 6.83594-57.9808 6.83594-35.2166C6.83594-12.4524 25.4646 6.16479 48.2173 6.16479ZM48.2173-6.40499C32.2833-6.40499 19.4288-19.271 19.4288-35.2166C19.4288-51.1622 32.2718-64.0282 48.2058-64.0282C64.1514-64.0282 77.0289-51.1622 77.0289-35.2166C77.0289-19.271 64.1629-6.40499 48.2173-6.40499Z"/>
  </g>
  <g id="Bold-S" transform="matrix(1 0 0 1 2292.43 696)">
   <path d="M47.4854-26.3428C52.417-26.3428 56.4453-30.3467 56.4453-35.3027C56.4453-40.2588 52.417-44.2627 47.4854-44.2627C42.5049-44.2627 38.501-40.2588 38.501-35.3027C38.501-30.3467 42.5049-26.3428 47.4854-26.3428ZM47.4854-32.4951C45.8984-32.4951 44.6533-33.7402 44.6533-35.3027C44.6533-36.8652 45.8984-38.1104 47.4854-38.1104C49.0234-38.1104 50.293-36.8652 50.293-35.3027C50.293-33.7402 49.0234-32.4951 47.4854-32.4951ZM46.7773-28.5156L40.6982-34.3994L36.1084-29.8096C34.4727-28.1982 34.4482-25.4639 36.1084-23.8281C37.7686-22.168 40.4785-22.168 42.1143-23.8281ZM48.5352-42.2363L54.6387-36.3281L65.6982-47.4121C67.3584-49.0723 67.3584-51.7578 65.6982-53.418C64.0381-55.0781 61.3525-55.0781 59.6924-53.418ZM47.5342 5.46875C69.873 5.46875 88.2568-12.8906 88.2568-35.2295C88.2568-57.5684 69.8486-75.9277 47.5098-75.9277C25.1953-75.9277 6.83594-57.5684 6.83594-35.2295C6.83594-12.8906 25.2197 5.46875 47.5342 5.46875ZM47.5342-5.32227C30.9814-5.32227 17.6758-18.6523 17.6758-35.2295C17.6758-51.8066 30.957-65.1367 47.5098-65.1367C64.0869-65.1367 77.4414-51.8066 77.4414-35.2295C77.4414-18.6523 64.1113-5.32227 47.5342-5.32227Z"/>
  </g>
  <g id="Semibold-S" transform="matrix(1 0 0 1 1996.19 696)">
   <path d="M46.9966-26.3517C51.9104-26.3517 55.9299-30.3378 55.9299-35.285C55.9299-40.2321 51.9104-44.2183 46.9966-44.2183C42.0339-44.2183 38.03-40.2321 38.03-35.285C38.03-30.3378 42.0339-26.3517 46.9966-26.3517ZM46.9966-32.2374C45.2764-32.2374 43.9157-33.5803 43.9157-35.285C43.9157-36.9896 45.2764-38.3325 46.9966-38.3325C48.668-38.3325 50.0441-36.9896 50.0441-35.285C50.0441-33.5803 48.668-32.2374 46.9966-32.2374ZM46.0309-28.6045L40.3517-34.1595L35.2464-29.0364C33.7084-27.5317 33.6929-24.9573 35.2464-23.4371C36.7999-21.8836 39.341-21.8836 40.879-23.4371ZM48.233-42.023L53.9455-36.4703L65.7604-48.3186C67.314-49.8721 67.314-52.3977 65.7604-53.9512C64.2069-55.5047 61.6813-55.5047 60.1278-53.9512ZM47.0632 4.98887C69.1088 4.98887 87.3237-13.1928 87.3237-35.2384C87.3237-57.284 69.0755-75.4656 47.0299-75.4656C25.0176-75.4656 6.83594-57.284 6.83594-35.2384C6.83594-13.1928 25.0509 4.98887 47.0632 4.98887ZM47.0632-4.57578C30.0839-4.57578 16.4672-18.2258 16.4672-35.2384C16.4672-52.251 30.0506-65.901 47.0299-65.901C64.0425-65.901 77.7258-52.251 77.7258-35.2384C77.7258-18.2258 64.0758-4.57578 47.0632-4.57578Z"/>
  </g>
  <g id="Medium-S" transform="matrix(1 0 0 1 1699.83 696)">
   <path d="M46.626-26.3584C51.5264-26.3584 55.5391-30.3311 55.5391-35.2715C55.5391-40.2119 51.5264-44.1846 46.626-44.1846C41.6768-44.1846 37.6729-40.2119 37.6729-35.2715C37.6729-30.3311 41.6768-26.3584 46.626-26.3584ZM46.626-32.042C44.8047-32.042 43.3564-33.459 43.3564-35.2715C43.3564-37.084 44.8047-38.501 46.626-38.501C48.3984-38.501 49.8555-37.084 49.8555-35.2715C49.8555-33.459 48.3984-32.042 46.626-32.042ZM45.4648-28.6719L40.0889-33.9775L34.5928-28.4502C33.1289-27.0264 33.1201-24.5732 34.5928-23.1406C36.0654-21.668 38.4785-21.668 39.9424-23.1406ZM48.0039-41.8613L53.4199-36.5781L65.8076-49.0059C67.2803-50.4785 67.2803-52.8828 65.8076-54.3555C64.335-55.8281 61.9307-55.8281 60.458-54.3555ZM46.7061 4.625C68.5293 4.625 86.6162-13.4219 86.6162-35.2451C86.6162-57.0684 68.4893-75.1152 46.666-75.1152C24.8828-75.1152 6.83594-57.0684 6.83594-35.2451C6.83594-13.4219 24.9229 4.625 46.7061 4.625ZM46.7061-4.00977C29.4033-4.00977 15.5508-17.9023 15.5508-35.2451C15.5508-52.5879 29.3633-66.4805 46.666-66.4805C64.0088-66.4805 77.9414-52.5879 77.9414-35.2451C77.9414-17.9023 64.0488-4.00977 46.7061-4.00977Z"/>
  </g>
  <g id="Regular-S" transform="matrix(1 0 0 1 1403.58 696)">
   <path d="M46.1426-26.3672C51.0254-26.3672 55.0293-30.3223 55.0293-35.2539C55.0293-40.1855 51.0254-44.1406 46.1426-44.1406C41.2109-44.1406 37.207-40.1855 37.207-35.2539C37.207-30.3223 41.2109-26.3672 46.1426-26.3672ZM46.1426-31.7871C44.1895-31.7871 42.627-33.3008 42.627-35.2539C42.627-37.207 44.1895-38.7207 46.1426-38.7207C48.0469-38.7207 49.6094-37.207 49.6094-35.2539C49.6094-33.3008 48.0469-31.7871 46.1426-31.7871ZM44.7266-28.7598L39.7461-33.7402L33.7402-27.6855C32.373-26.3672 32.373-24.0723 33.7402-22.7539C35.1074-21.3867 37.3535-21.3867 38.7207-22.7539ZM47.7051-41.6504L52.7344-36.7188L65.8691-49.9023C67.2363-51.2695 67.2363-53.5156 65.8691-54.8828C64.502-56.25 62.2559-56.25 60.8887-54.8828ZM46.2402 4.15039C67.7734 4.15039 85.6934-13.7207 85.6934-35.2539C85.6934-56.7871 67.7246-74.6582 46.1914-74.6582C24.707-74.6582 6.83594-56.7871 6.83594-35.2539C6.83594-13.7207 24.7559 4.15039 46.2402 4.15039ZM46.2402-3.27148C28.5156-3.27148 14.3555-17.4805 14.3555-35.2539C14.3555-53.0273 28.4668-67.2363 46.1914-67.2363C63.9648-67.2363 78.2227-53.0273 78.2227-35.2539C78.2227-17.4805 64.0137-3.27148 46.2402-3.27148Z"/>
  </g>
  <g id="Light-S" transform="matrix(1 0 0 1 1107.6 696)">
   <path d="M45.4463-27.1089C49.9204-27.1089 53.5913-30.7461 53.5913-35.2539C53.5913-39.7617 49.9204-43.3989 45.4463-43.3989C40.9385-43.3989 37.2676-39.7617 37.2676-35.2539C37.2676-30.7461 40.9385-27.1089 45.4463-27.1089ZM45.4463-31.4238C43.3115-31.4238 41.5977-33.1191 41.5977-35.2539C41.5977-37.3887 43.3115-39.084 45.4463-39.084C47.5474-39.084 49.2764-37.3887 49.2764-35.2539C49.2764-33.1191 47.5474-31.4238 45.4463-31.4238ZM43.4097-29.3198L39.5796-33.1499L34.2852-27.8218C33.2207-26.8061 33.2207-25.041 34.2852-24.0254C35.3345-22.9609 37.0659-22.9609 38.1152-24.0254ZM47.6143-41.1509L51.478-37.3545L65.3242-51.2344C66.3887-52.2837 66.3887-54.0151 65.3242-55.0645C64.2749-56.1289 62.5435-56.1289 61.4941-55.0645ZM45.5137 3.42383C66.6836 3.42383 84.2251-14.084 84.2251-35.2539C84.2251-56.4238 66.6499-73.9316 45.48-73.9316C24.3286-73.9316 6.83594-56.4238 6.83594-35.2539C6.83594-14.084 24.3623 3.42383 45.5137 3.42383ZM45.5137-2.27247C27.2593-2.27247 12.5845-16.9658 12.5845-35.2539C12.5845-53.542 27.2256-68.2353 45.48-68.2353C63.7681-68.2353 78.4951-53.542 78.4951-35.2539C78.4951-16.9658 63.8018-2.27247 45.5137-2.27247Z"/>
  </g>
  <g id="Thin-S" transform="matrix(1 0 0 1 811.863 696)">
   <path d="M44.5254-28.0898C48.459-28.0898 51.6895-31.3066 51.6895-35.2539C51.6895-39.2012 48.459-42.418 44.5254-42.418C40.5781-42.418 37.3477-39.2012 37.3477-35.2539C37.3477-31.3066 40.5781-28.0898 44.5254-28.0898ZM44.5254-30.9434C42.1504-30.9434 40.2363-32.8789 40.2363-35.2539C40.2363-37.6289 42.1504-39.5644 44.5254-39.5644C46.8867-39.5644 48.8359-37.6289 48.8359-35.2539C48.8359-32.8789 46.8867-30.9434 44.5254-30.9434ZM41.668-30.0605L39.3594-32.3692L35.0058-28.002C34.3418-27.3867 34.3418-26.3222 35.0058-25.707C35.6348-25.0429 36.6856-25.0429 37.3145-25.707ZM47.4941-40.4902L49.8164-38.1953L64.6035-52.9961C65.2676-53.625 65.2676-54.6758 64.6035-55.3047C63.9746-55.9688 62.9238-55.9688 62.2949-55.3047ZM44.5527 2.4629C65.2422 2.4629 82.2832-14.5644 82.2832-35.2539C82.2832-55.9434 65.2285-72.9707 44.5391-72.9707C23.8281-72.9707 6.83594-55.9434 6.83594-35.2539C6.83594-14.5644 23.8418 2.4629 44.5527 2.4629ZM44.5527-0.95119C25.5977-0.95119 10.2422-16.2852 10.2422-35.2539C10.2422-54.2226 25.584-69.5566 44.5391-69.5566C63.5078-69.5566 78.8555-54.2226 78.8555-35.2539C78.8555-16.2852 63.5215-0.95119 44.5527-0.95119Z"/>
  </g>
  <g id="Ultralight-S" transform="matrix(1 0 0 1 515.649 696)">
   <path d="M44.0537-28.5923C47.7105-28.5923 50.7154-31.5937 50.7154-35.2539C50.7154-38.9141 47.7105-41.9155 44.0537-41.9155C40.3936-41.9155 37.3887-38.9141 37.3887-35.2539C37.3887-31.5937 40.3936-28.5923 44.0537-28.5923ZM44.0537-30.6973C41.5557-30.6973 39.5391-32.7559 39.5391-35.2539C39.5391-37.7519 41.5557-39.8105 44.0537-39.8105C46.5484-39.8105 48.6104-37.7519 48.6104-35.2539C48.6104-32.7559 46.5484-30.6973 44.0537-30.6973ZM40.7759-30.4399L39.2466-31.9693L35.375-28.0942C34.916-27.6841 34.916-26.9785 35.375-26.5683C35.7886-26.1093 36.4907-26.1093 36.9043-26.5683ZM47.4326-40.1519L48.9654-38.626L64.2344-53.8984C64.6934-54.312 64.6934-55.0141 64.2344-55.4277C63.8208-55.8867 63.1186-55.8867 62.7051-55.4277ZM44.0606 1.97072C64.5039 1.97072 81.2886-14.8105 81.2886-35.2539C81.2886-55.6973 64.5005-72.4785 44.0571-72.4785C23.5718-72.4785 6.83594-55.6973 6.83594-35.2539C6.83594-14.8105 23.5752 1.97072 44.0606 1.97072ZM44.0606-0.274438C24.7466-0.274438 9.04252-15.9365 9.04252-35.2539C9.04252-54.5713 24.7432-70.2334 44.0571-70.2334C63.3745-70.2334 79.04-54.5713 79.04-35.2539C79.04-15.9365 63.3779-0.274438 44.0606-0.274438Z"/>
  </g>
 </g>
</svg>
