<?xml version="1.0" encoding="UTF-8"?>
<!--Generator: Apple Native CoreSVG 232.5-->
<!DOCTYPE svg
PUBLIC "-//W3C//DTD SVG 1.1//EN"
       "http://www.w3.org/Graphics/SVG/1.1/DTD/svg11.dtd">
<svg version="1.1" xmlns="http://www.w3.org/2000/svg" xmlns:xlink="http://www.w3.org/1999/xlink" width="3300" height="2200">
 <g id="Notes">
  <rect height="2200" id="artboard" style="fill:white;opacity:1" width="3300" x="0" y="0"/>
  <line style="fill:none;stroke:black;opacity:1;stroke-width:0.5;" x1="263" x2="3036" y1="292" y2="292"/>
  <text style="stroke:none;fill:black;font-family:sans-serif;font-size:13;font-weight:bold;" transform="matrix(1 0 0 1 263 322)">Weight/Scale Variations</text>
  <text style="stroke:none;fill:black;font-family:sans-serif;font-size:13;text-anchor:middle;" transform="matrix(1 0 0 1 559.711 322)">Ultralight</text>
  <text style="stroke:none;fill:black;font-family:sans-serif;font-size:13;text-anchor:middle;" transform="matrix(1 0 0 1 856.422 322)">Thin</text>
  <text style="stroke:none;fill:black;font-family:sans-serif;font-size:13;text-anchor:middle;" transform="matrix(1 0 0 1 1153.13 322)">Light</text>
  <text style="stroke:none;fill:black;font-family:sans-serif;font-size:13;text-anchor:middle;" transform="matrix(1 0 0 1 1449.84 322)">Regular</text>
  <text style="stroke:none;fill:black;font-family:sans-serif;font-size:13;text-anchor:middle;" transform="matrix(1 0 0 1 1746.56 322)">Medium</text>
  <text style="stroke:none;fill:black;font-family:sans-serif;font-size:13;text-anchor:middle;" transform="matrix(1 0 0 1 2043.27 322)">Semibold</text>
  <text style="stroke:none;fill:black;font-family:sans-serif;font-size:13;text-anchor:middle;" transform="matrix(1 0 0 1 2339.98 322)">Bold</text>
  <text style="stroke:none;fill:black;font-family:sans-serif;font-size:13;text-anchor:middle;" transform="matrix(1 0 0 1 2636.69 322)">Heavy</text>
  <text style="stroke:none;fill:black;font-family:sans-serif;font-size:13;text-anchor:middle;" transform="matrix(1 0 0 1 2933.4 322)">Black</text>
  <line style="fill:none;stroke:black;opacity:1;stroke-width:0.5;" x1="263" x2="3036" y1="1903" y2="1903"/>
  <g transform="matrix(0.2 0 0 0.2 263 1933)">
   <path d="m46.2402 4.15039c21.5332 0 39.4531-17.8711 39.4531-39.4043s-17.9688-39.4043-39.502-39.4043c-21.4844 0-39.3555 17.8711-39.3555 39.4043s17.9199 39.4043 39.4043 39.4043Zm0-7.42188c-17.7246 0-31.8848-14.209-31.8848-31.9824s14.1113-31.9824 31.8359-31.9824c17.7734 0 32.0312 14.209 32.0312 31.9824s-14.209 31.9824-31.9824 31.9824Zm-17.9688-31.9824c0 2.14844 1.51367 3.61328 3.75977 3.61328h10.498v10.5957c0 2.19727 1.46484 3.71094 3.61328 3.71094 2.24609 0 3.71094-1.51367 3.71094-3.71094v-10.5957h10.5957c2.19727 0 3.71094-1.46484 3.71094-3.61328 0-2.19727-1.51367-3.71094-3.71094-3.71094h-10.5957v-10.5469c0-2.24609-1.46484-3.75977-3.71094-3.75977-2.14844 0-3.61328 1.51367-3.61328 3.75977v10.5469h-10.498c-2.24609 0-3.75977 1.51367-3.75977 3.71094Z"/>
  </g>
  <g transform="matrix(0.2 0 0 0.2 281.506 1933)">
   <path d="m58.5449 14.5508c27.2461 0 49.8047-22.6074 49.8047-49.8047 0-27.2461-22.6074-49.8047-49.8535-49.8047-27.1973 0-49.7559 22.5586-49.7559 49.8047 0 27.1973 22.6074 49.8047 49.8047 49.8047Zm0-8.30078c-23.0469 0-41.4551-18.457-41.4551-41.5039s18.3594-41.5039 41.4062-41.5039 41.5527 18.457 41.5527 41.5039-18.457 41.5039-41.5039 41.5039Zm-22.6562-41.5039c0 2.39258 1.66016 4.00391 4.15039 4.00391h14.3555v14.4043c0 2.44141 1.66016 4.15039 4.05273 4.15039 2.44141 0 4.15039-1.66016 4.15039-4.15039v-14.4043h14.4043c2.44141 0 4.15039-1.61133 4.15039-4.00391 0-2.44141-1.70898-4.15039-4.15039-4.15039h-14.4043v-14.3555c0-2.49023-1.70898-4.19922-4.15039-4.19922-2.39258 0-4.05273 1.70898-4.05273 4.19922v14.3555h-14.3555c-2.49023 0-4.15039 1.70898-4.15039 4.15039Z"/>
  </g>
  <g transform="matrix(0.2 0 0 0.2 304.924 1933)">
   <path d="m74.8535 28.3203c34.8145 0 63.623-28.8086 63.623-63.5742 0-34.8145-28.8574-63.623-63.6719-63.623-34.7656 0-63.5254 28.8086-63.5254 63.623 0 34.7656 28.8086 63.5742 63.5742 63.5742Zm0-9.08203c-30.1758 0-54.4434-24.3164-54.4434-54.4922 0-30.2246 24.2188-54.4922 54.3945-54.4922 30.2246 0 54.541 24.2676 54.541 54.4922 0 30.1758-24.2676 54.4922-54.4922 54.4922Zm-28.8574-54.4922c0 2.58789 1.85547 4.39453 4.58984 4.39453h19.7266v19.7754c0 2.68555 1.85547 4.58984 4.44336 4.58984 2.68555 0 4.54102-1.85547 4.54102-4.58984v-19.7754h19.7754c2.68555 0 4.58984-1.80664 4.58984-4.39453 0-2.73438-1.85547-4.58984-4.58984-4.58984h-19.7754v-19.7266c0-2.73438-1.85547-4.63867-4.54102-4.63867-2.58789 0-4.44336 1.9043-4.44336 4.63867v19.7266h-19.7266c-2.73438 0-4.58984 1.85547-4.58984 4.58984Z"/>
  </g>
  <text style="stroke:none;fill:black;font-family:sans-serif;font-size:13;font-weight:bold;" transform="matrix(1 0 0 1 263 1953)">Design Variations</text>
  <text style="stroke:none;fill:black;font-family:sans-serif;font-size:13;" transform="matrix(1 0 0 1 263 1971)">Symbols are supported in up to nine weights and three scales.</text>
  <text style="stroke:none;fill:black;font-family:sans-serif;font-size:13;" transform="matrix(1 0 0 1 263 1989)">For optimal layout with text and other symbols, vertically align</text>
  <text style="stroke:none;fill:black;font-family:sans-serif;font-size:13;" transform="matrix(1 0 0 1 263 2007)">symbols with the adjacent text.</text>
  <line style="fill:none;stroke:#00AEEF;stroke-width:0.5;opacity:1.0;" x1="776" x2="776" y1="1919" y2="1933"/>
  <g transform="matrix(0.2 0 0 0.2 776 1933)">
   <path d="m16.5527 0.78125c2.58789 0 3.85742-0.976562 4.78516-3.71094l6.29883-17.2363h28.8086l6.29883 17.2363c0.927734 2.73438 2.19727 3.71094 4.73633 3.71094 2.58789 0 4.24805-1.5625 4.24805-4.00391 0-0.830078-0.146484-1.61133-0.537109-2.63672l-22.9004-60.9863c-1.12305-2.97852-3.125-4.49219-6.25-4.49219-3.02734 0-5.07812 1.46484-6.15234 4.44336l-22.9004 61.084c-0.390625 1.02539-0.537109 1.80664-0.537109 2.63672 0 2.44141 1.5625 3.95508 4.10156 3.95508Zm13.4766-28.3691 11.8652-32.8613h0.244141l11.8652 32.8613Z"/>
  </g>
  <line style="fill:none;stroke:#00AEEF;stroke-width:0.5;opacity:1.0;" x1="792.836" x2="792.836" y1="1919" y2="1933"/>
  <text style="stroke:none;fill:black;font-family:sans-serif;font-size:13;font-weight:bold;" transform="matrix(1 0 0 1 776 1953)">Margins</text>
  <text style="stroke:none;fill:black;font-family:sans-serif;font-size:13;" transform="matrix(1 0 0 1 776 1971)">Leading and trailing margins on the left and right side of each symbol</text>
  <text style="stroke:none;fill:black;font-family:sans-serif;font-size:13;" transform="matrix(1 0 0 1 776 1989)">can be adjusted by modifying the x-location of the margin guidelines.</text>
  <text style="stroke:none;fill:black;font-family:sans-serif;font-size:13;" transform="matrix(1 0 0 1 776 2007)">Modifications are automatically applied proportionally to all</text>
  <text style="stroke:none;fill:black;font-family:sans-serif;font-size:13;" transform="matrix(1 0 0 1 776 2025)">scales and weights.</text>
  <g transform="matrix(0.2 0 0 0.2 1289 1933)">
   <path d="m14.209 9.32617 8.49609 8.54492c4.29688 4.3457 9.22852 4.05273 13.8672-1.07422l53.4668-58.9355-4.83398-4.88281-53.0762 58.3984c-1.75781 2.00195-3.41797 2.49023-5.76172 0.146484l-5.85938-5.81055c-2.34375-2.29492-1.80664-4.00391 0.195312-5.81055l57.373-54.0039-4.88281-4.83398-57.959 54.4434c-4.93164 4.58984-5.32227 9.47266-1.02539 13.8184Zm32.0801-90.9668c-2.09961 2.05078-2.24609 4.93164-1.07422 6.88477 1.17188 1.80664 3.4668 2.97852 6.68945 2.14844 7.32422-1.70898 14.9414-2.00195 22.0703 2.68555l-2.92969 7.27539c-1.70898 4.15039-0.830078 7.08008 1.85547 9.81445l11.4746 11.5723c2.44141 2.44141 4.49219 2.53906 7.32422 2.05078l5.32227-0.976562 3.32031 3.36914-0.195312 2.7832c-0.195312 2.49023 0.439453 4.39453 2.88086 6.78711l3.80859 3.71094c2.39258 2.39258 5.46875 2.53906 7.8125 0.195312l14.5508-14.5996c2.34375-2.34375 2.24609-5.32227-0.146484-7.71484l-3.85742-3.80859c-2.39258-2.39258-4.24805-3.17383-6.64062-2.97852l-2.88086 0.244141-3.22266-3.17383 1.2207-5.61523c0.634766-2.83203-0.146484-5.0293-3.07617-7.95898l-10.9863-10.9375c-16.6992-16.6016-38.8672-16.2109-53.3203-1.75781Zm7.4707 1.85547c12.1582-8.88672 28.6133-7.37305 39.7461 3.75977l12.1582 12.0605c1.17188 1.17188 1.36719 2.09961 1.02539 3.80859l-1.61133 7.42188 7.51953 7.42188 4.93164-0.292969c1.26953-0.0488281 1.66016 0.0488281 2.63672 1.02539l2.88086 2.88086-12.207 12.207-2.88086-2.88086c-0.976562-0.976562-1.12305-1.36719-1.07422-2.68555l0.341797-4.88281-7.4707-7.42188-7.61719 1.26953c-1.61133 0.341797-2.34375 0.195312-3.56445-0.976562l-10.0098-10.0098c-1.26953-1.17188-1.41602-2.00195-0.634766-3.85742l4.39453-10.4492c-7.8125-7.27539-17.9688-10.4004-28.125-7.42188-0.78125 0.195312-1.07422-0.439453-0.439453-0.976562Z"/>
  </g>
  <text style="stroke:none;fill:black;font-family:sans-serif;font-size:13;font-weight:bold;" transform="matrix(1 0 0 1 1289 1953)">Exporting</text>
  <text style="stroke:none;fill:black;font-family:sans-serif;font-size:13;" transform="matrix(1 0 0 1 1289 1971)">Symbols should be outlined when exporting to ensure the</text>
  <text style="stroke:none;fill:black;font-family:sans-serif;font-size:13;" transform="matrix(1 0 0 1 1289 1989)">design is preserved when submitting to Xcode.</text>
  <text id="template-version" style="stroke:none;fill:black;font-family:sans-serif;font-size:13;text-anchor:end;" transform="matrix(1 0 0 1 3036 1933)">Template v.2.0</text>
  <text style="stroke:none;fill:black;font-family:sans-serif;font-size:13;text-anchor:end;" transform="matrix(1 0 0 1 3036 1951)">Requires Xcode 12 or greater</text>
  <text id="descriptive-name" style="stroke:none;fill:black;font-family:sans-serif;font-size:13;text-anchor:end;" transform="matrix(1 0 0 1 3036 1969)">Generated from dynamicisland</text>
  <text style="stroke:none;fill:black;font-family:sans-serif;font-size:13;text-anchor:end;" transform="matrix(1 0 0 1 3036 1987)">Typeset at 100.0 points</text>
  <text style="stroke:none;fill:black;font-family:sans-serif;font-size:13;" transform="matrix(1 0 0 1 263 726)">Small</text>
  <text style="stroke:none;fill:black;font-family:sans-serif;font-size:13;" transform="matrix(1 0 0 1 263 1156)">Medium</text>
  <text style="stroke:none;fill:black;font-family:sans-serif;font-size:13;" transform="matrix(1 0 0 1 263 1586)">Large</text>
 </g>
 <g id="Guides">
  <g id="H-reference" style="fill:#27AAE1;stroke:none;" transform="matrix(1 0 0 1 339 696)">
   <path d="M0.993654 0L3.63775 0L29.3281-67.1323L30.0303-67.1323L30.0303-70.459L28.1226-70.459ZM11.6885-24.4799L46.9815-24.4799L46.2315-26.7285L12.4385-26.7285ZM55.1196 0L57.7637 0L30.6382-70.459L29.4326-70.459L29.4326-67.1323Z"/>
  </g>
  <line id="Baseline-S" style="fill:none;stroke:#27AAE1;opacity:1;stroke-width:0.5;" x1="263" x2="3036" y1="696" y2="696"/>
  <line id="Capline-S" style="fill:none;stroke:#27AAE1;opacity:1;stroke-width:0.5;" x1="263" x2="3036" y1="625.541" y2="625.541"/>
  <g id="H-reference" style="fill:#27AAE1;stroke:none;" transform="matrix(1 0 0 1 339 1126)">
   <path d="M0.993654 0L3.63775 0L29.3281-67.1323L30.0303-67.1323L30.0303-70.459L28.1226-70.459ZM11.6885-24.4799L46.9815-24.4799L46.2315-26.7285L12.4385-26.7285ZM55.1196 0L57.7637 0L30.6382-70.459L29.4326-70.459L29.4326-67.1323Z"/>
  </g>
  <line id="Baseline-M" style="fill:none;stroke:#27AAE1;opacity:1;stroke-width:0.5;" x1="263" x2="3036" y1="1126" y2="1126"/>
  <line id="Capline-M" style="fill:none;stroke:#27AAE1;opacity:1;stroke-width:0.5;" x1="263" x2="3036" y1="1055.54" y2="1055.54"/>
  <g id="H-reference" style="fill:#27AAE1;stroke:none;" transform="matrix(1 0 0 1 339 1556)">
   <path d="M0.993654 0L3.63775 0L29.3281-67.1323L30.0303-67.1323L30.0303-70.459L28.1226-70.459ZM11.6885-24.4799L46.9815-24.4799L46.2315-26.7285L12.4385-26.7285ZM55.1196 0L57.7637 0L30.6382-70.459L29.4326-70.459L29.4326-67.1323Z"/>
  </g>
  <line id="Baseline-L" style="fill:none;stroke:#27AAE1;opacity:1;stroke-width:0.5;" x1="263" x2="3036" y1="1556" y2="1556"/>
  <line id="Capline-L" style="fill:none;stroke:#27AAE1;opacity:1;stroke-width:0.5;" x1="263" x2="3036" y1="1485.54" y2="1485.54"/>
  <line id="left-margin" style="fill:none;stroke:#00AEEF;stroke-width:0.5;opacity:1.0;" x1="1367" x2="1367" y1="1030.79" y2="1150.12"/>
  <line id="right-margin" style="fill:none;stroke:#00AEEF;stroke-width:0.5;opacity:1.0;" x1="1532.69" x2="1532.69" y1="1030.79" y2="1150.12"/>
 </g>
 <g id="Symbols">
  <g id="Black-L" transform="matrix(1 0 0 1 2817.97 1556)">
   <path d="M191.812-5.70572L170.78-5.70572L170.78-37.1559C170.78-46.7711 162.986-54.5658 153.37-54.5658L77.2436-54.5658C67.6284-54.5658 59.8337-46.7711 59.8337-37.1559L59.8337-5.70572L39.0541-5.70572L39.0541-45.0184C39.0541-60.837 51.8776-73.6605 67.6962-73.6605L163.17-73.6605C178.989-73.6605 191.812-60.837 191.812-45.0184L191.812-5.70572ZM101.393-45.58L130.035-45.58C134.998-45.58 139.021-41.557 139.021-36.5943C139.021-31.6316 134.998-27.6085 130.035-27.6085L101.393-27.6085C96.4301-27.6085 92.4071-31.6316 92.4071-36.5943C92.4071-41.557 96.4301-45.58 101.393-45.58Z"/>
  </g>
  <g id="Heavy-L" transform="matrix(1 0 0 1 2523.44 1556)">
   <path d="M187.981-7.85296L167.409-7.85296L167.409-38.6157C167.409-48.0207 159.784-55.645 150.379-55.645L75.9164-55.645C66.5114-55.645 58.8871-48.0207 58.8871-38.6157L58.8871-7.85296L38.5617-7.85296L38.5617-46.3063C38.5617-61.7792 51.1049-74.3224 66.5778-74.3224L159.965-74.3224C175.437-74.3224 187.981-61.7792 187.981-46.3063L187.981-7.85296ZM99.5378-46.8557L127.554-46.8557C132.408-46.8557 136.343-42.9206 136.343-38.0663C136.343-33.2121 132.408-29.277 127.554-29.277L99.5378-29.277C94.6836-29.277 90.7485-33.2121 90.7485-38.0663C90.7485-42.9206 94.6836-46.8557 99.5378-46.8557Z"/>
  </g>
  <g id="Bold-L" transform="matrix(1 0 0 1 2229.48 1556)">
   <path d="M183.193-10.4736L163.185-10.4736L163.185-40.3934C163.185-49.5407 155.769-56.9561 146.622-56.9561L74.1994-56.9561C65.052-56.9561 57.6367-49.5407 57.6367-40.3934L57.6367-10.4736L37.8682-10.4736L37.8682-47.8733C37.8682-62.9222 50.0677-75.1217 65.1166-75.1217L155.945-75.1217C170.993-75.1217 183.193-62.9222 183.193-47.8733L183.193-10.4736ZM97.1735-48.4076L124.422-48.4076C129.143-48.4076 132.97-44.5803 132.97-39.8591C132.97-35.1379 129.143-31.3106 124.422-31.3106L97.1735-31.3106C92.4523-31.3106 88.625-35.1379 88.625-39.8591C88.625-44.5803 92.4523-48.4076 97.1735-48.4076Z"/>
  </g>
  <g id="Semibold-L" transform="matrix(1 0 0 1 1934.66 1556)">
   <path d="M179.892-12.2802L160.273-12.2802L160.273-41.6189C160.273-50.5886 153.001-57.86 144.032-57.86L73.0157-57.86C64.046-57.86 56.7746-50.5886 56.7746-41.6189L56.7746-12.2802L37.3901-12.2802L37.3901-48.9536C37.3901-63.7102 49.3527-75.6727 64.1093-75.6727L153.173-75.6727C167.93-75.6727 179.892-63.7102 179.892-48.9536L179.892-12.2802ZM95.5436-49.4775L122.263-49.4775C126.892-49.4775 130.645-45.7245 130.645-41.095C130.645-36.4655 126.892-32.7125 122.263-32.7125L95.5436-32.7125C90.9141-32.7125 87.1611-36.4655 87.1611-41.095C87.1611-45.7245 90.9141-49.4775 95.5436-49.4775Z"/>
  </g>
  <g id="Medium-L" transform="matrix(1 0 0 1 1639.39 1556)">
   <path d="M177.39-13.6501L158.065-13.6501L158.065-42.5482C158.065-51.3832 150.902-58.5453 142.067-58.5453L72.1181-58.5453C63.2831-58.5453 56.121-51.3832 56.121-42.5482L56.121-13.6501L37.0276-13.6501L37.0276-49.7727C37.0276-64.3077 48.8105-76.0906 63.3455-76.0906L151.072-76.0906C165.607-76.0906 177.39-64.3077 177.39-49.7727L177.39-13.6501ZM94.3077-50.2887L120.626-50.2887C125.186-50.2887 128.882-46.5921 128.882-42.0321C128.882-37.4721 125.186-33.7755 120.626-33.7755L94.3077-33.7755C89.7477-33.7755 86.0511-37.4721 86.0511-42.0321C86.0511-46.5921 89.7477-50.2887 94.3077-50.2887Z"/>
  </g>
  <g id="Regular-L" transform="matrix(1 0 0 1 1344.55 1556)">
   <path d="M174.125-15.4369L155.185-15.4369L155.185-43.7602C155.185-52.4195 148.165-59.4392 139.506-59.4392L70.9474-59.4392C62.2881-59.4392 55.2684-52.4195 55.2684-43.7602L55.2684-15.4369L36.5548-15.4369L36.5548-50.8411C36.5548-65.087 48.1033-76.6356 62.3492-76.6356L148.331-76.6356C162.577-76.6356 174.125-65.087 174.125-50.8411L174.125-15.4369ZM92.6957-51.3469L118.49-51.3469C122.959-51.3469 126.583-47.7238 126.583-43.2545C126.583-38.7852 122.959-35.1621 118.49-35.1621L92.6957-35.1621C88.2264-35.1621 84.6033-38.7852 84.6033-43.2545C84.6033-47.7238 88.2264-51.3469 92.6957-51.3469Z"/>
  </g>
  <g id="Light-L" transform="matrix(1 0 0 1 1050.07 1556)">
   <path d="M170.548-16.9958L151.96-16.9958L151.96-44.7922C151.96-53.2904 145.071-60.1795 136.573-60.1795L69.29-60.1795C60.7918-60.1795 53.9027-53.2904 53.9027-44.7922L53.9027-16.9958L35.5372-16.9958L35.5372-51.7413C35.5372-65.7221 46.8709-77.0559 60.8518-77.0559L145.234-77.0559C159.215-77.0559 170.548-65.7221 170.548-51.7413L170.548-16.9958ZM90.6336-52.2377L115.948-52.2377C120.334-52.2377 123.89-48.682 123.89-44.2958C123.89-39.9097 120.334-36.354 115.948-36.354L90.6336-36.354C86.2475-36.354 82.6918-39.9097 82.6918-44.2958C82.6918-48.682 86.2475-52.2377 90.6336-52.2377Z"/>
  </g>
  <g id="Thin-L" transform="matrix(1 0 0 1 756.318 1556)">
   <path d="M165.817-19.0576L147.695-19.0576L147.695-46.157C147.695-54.4421 140.979-61.1585 132.693-61.1585L67.0979-61.1585C58.8128-61.1585 52.0964-54.4421 52.0964-46.157L52.0964-19.0576L34.1914-19.0576L34.1914-52.9319C34.1914-66.5622 45.241-77.6117 58.8713-77.6117L141.137-77.6117C154.768-77.6117 165.817-66.5622 165.817-52.9319L165.817-19.0576ZM87.9064-53.4158L112.586-53.4158C116.862-53.4158 120.329-49.9493 120.329-45.6731C120.329-41.3969 116.862-37.9304 112.586-37.9304L87.9064-37.9304C83.6302-37.9304 80.1637-41.3969 80.1637-45.6731C80.1637-49.9493 83.6302-53.4158 87.9064-53.4158Z"/>
  </g>
  <g id="Ultralight-L" transform="matrix(1 0 0 1 461.12 1556)">
   <path d="M163.394-20.1137L145.51-20.1137L145.51-46.8561C145.51-55.032 138.883-61.6599 130.707-61.6599L65.9751-61.6599C57.7992-61.6599 51.1712-55.032 51.1712-46.8561L51.1712-20.1137L33.5021-20.1137L33.5021-53.5417C33.5021-66.9925 44.4061-77.8964 57.8569-77.8964L139.039-77.8964C152.49-77.8964 163.394-66.9925 163.394-53.5417L163.394-20.1137ZM86.5095-54.0193L110.864-54.0193C115.084-54.0193 118.505-50.5984 118.505-46.3786C118.505-42.1587 115.084-38.7379 110.864-38.7379L86.5095-38.7379C82.2896-38.7379 78.8688-42.1587 78.8688-46.3786C78.8688-50.5984 82.2896-54.0193 86.5095-54.0193Z"/>
  </g>
  <g id="Black-M" transform="matrix(1 0 0 1 2842.4 1126)">
   <path d="M151.413-10.722L134.771-10.722L134.771-35.6072C134.771-43.2153 128.604-49.3829 120.996-49.3829L60.7599-49.3829C53.1518-49.3829 46.9842-43.2153 46.9842-35.6072L46.9842-10.722L30.5422-10.722L30.5422-41.8285C30.5422-54.3451 40.6889-64.4918 53.2055-64.4918L128.75-64.4918C141.266-64.4918 151.413-54.3451 151.413-41.8285L151.413-10.722ZM79.8681-42.2729L102.531-42.2729C106.458-42.2729 109.641-39.0896 109.641-35.1628C109.641-31.236 106.458-28.0528 102.531-28.0528L79.8681-28.0528C75.9414-28.0528 72.7581-31.236 72.7581-35.1628C72.7581-39.0896 75.9414-42.2729 79.8681-42.2729Z"/>
  </g>
  <g id="Heavy-M" transform="matrix(1 0 0 1 2547.62 1126)">
   <path d="M147.998-12.6773L131.773-12.6773L131.773-36.939C131.773-44.3565 125.76-50.3696 118.342-50.3696L59.6154-50.3696C52.1979-50.3696 46.1848-44.3565 46.1848-36.939L46.1848-12.6773L30.1547-12.6773L30.1547-43.0045C30.1547-55.2075 40.0472-65.1 52.2502-65.1L125.902-65.1C138.105-65.1 147.998-55.2075 147.998-43.0045L147.998-12.6773ZM78.245-43.4377L100.341-43.4377C104.169-43.4377 107.272-40.3342 107.272-36.5058C107.272-32.6774 104.169-29.5738 100.341-29.5738L78.245-29.5738C74.4166-29.5738 71.313-32.6774 71.313-36.5058C71.313-40.3342 74.4166-43.4377 78.245-43.4377Z"/>
  </g>
  <g id="Bold-M" transform="matrix(1 0 0 1 2253.06 1126)">
   <path d="M144.177-14.8645L128.419-14.8645L128.419-38.4289C128.419-45.6332 122.578-51.4734 115.374-51.4734L58.3351-51.4734C51.1308-51.4734 45.2906-45.6332 45.2906-38.4289L45.2906-14.8645L29.7213-14.8645L29.7213-44.32C29.7213-56.1722 39.3294-65.7804 51.1817-65.7804L122.716-65.7804C134.569-65.7804 144.177-56.1722 144.177-44.32L144.177-14.8645ZM76.4292-44.7408L97.8896-44.7408C101.608-44.7408 104.622-41.7264 104.622-38.0081C104.622-34.2897 101.608-31.2754 97.8896-31.2754L76.4292-31.2754C72.7109-31.2754 69.6965-34.2897 69.6965-38.0081C69.6965-41.7264 72.7109-44.7408 76.4292-44.7408Z"/>
  </g>
  <g id="Semibold-M" transform="matrix(1 0 0 1 1957.83 1126)">
   <path d="M141.543-16.3724L126.106-16.3724L126.106-39.456C126.106-46.5133 120.385-52.2344 113.328-52.2344L57.4525-52.2344C50.3952-52.2344 44.6741-46.5133 44.6741-39.456L44.6741-16.3724L29.4225-16.3724L29.4225-45.2269C29.4225-56.8373 38.8346-66.2494 50.445-66.2494L120.52-66.2494C132.131-66.2494 141.543-56.8373 141.543-45.2269L141.543-16.3724ZM75.1775-45.6391L96.2-45.6391C99.8425-45.6391 102.795-42.6863 102.795-39.0438C102.795-35.4013 99.8425-32.4484 96.2-32.4484L75.1775-32.4484C71.535-32.4484 68.5821-35.4013 68.5821-39.0438C68.5821-42.6863 71.535-45.6391 75.1775-45.6391Z"/>
  </g>
  <g id="Medium-M" transform="matrix(1 0 0 1 1662.24 1126)">
   <path d="M139.546-17.5157L124.353-17.5157L124.353-40.2348C124.353-47.1806 118.722-52.8114 111.776-52.8114L56.7833-52.8114C49.8374-52.8114 44.2067-47.1806 44.2067-40.2348L44.2067-17.5157L29.1959-17.5157L29.1959-45.9145C29.1959-57.3416 38.4594-66.6051 49.8865-66.6051L118.855-66.6051C130.282-66.6051 139.546-57.3416 139.546-45.9145L139.546-17.5157ZM74.2283-46.3202L94.9189-46.3202C98.5039-46.3202 101.41-43.414 101.41-39.8291C101.41-36.2441 98.5039-33.3379 94.9189-33.3379L74.2283-33.3379C70.6434-33.3379 67.7372-36.2441 67.7372-39.8291C67.7372-43.414 70.6434-46.3202 74.2283-46.3202Z"/>
  </g>
  <g id="Regular-M" transform="matrix(1 0 0 1 1367 1126)">
   <path d="M136.941-19.007L122.066-19.007L122.066-41.2506C122.066-48.0511 116.553-53.564 109.752-53.564L55.9104-53.564C49.1099-53.564 43.597-48.0511 43.597-41.2506L43.597-19.007L28.9004-19.007L28.9004-46.8115C28.9004-57.9994 37.97-67.069 49.1579-67.069L116.683-67.069C127.871-67.069 136.941-57.9994 136.941-46.8115L136.941-19.007ZM72.9903-47.2087L93.2479-47.2087C96.7578-47.2087 99.6032-44.3633 99.6032-40.8534C99.6032-37.3434 96.7578-34.4981 93.2479-34.4981L72.9903-34.4981C69.4804-34.4981 66.635-37.3434 66.635-40.8534C66.635-44.3633 69.4804-47.2087 72.9903-47.2087Z"/>
  </g>
  <g id="Light-M" transform="matrix(1 0 0 1 1072.29 1126)">
   <path d="M133.734-20.4046L119.174-20.4046L119.174-42.1758C119.174-48.8318 113.779-54.2276 107.123-54.2276L54.4244-54.2276C47.7684-54.2276 42.3726-48.8318 42.3726-42.1758L42.3726-20.4046L27.9881-20.4046L27.9881-47.6185C27.9881-58.5688 36.865-67.4458 47.8154-67.4458L113.906-67.4458C124.857-67.4458 133.734-58.5688 133.734-47.6185L133.734-20.4046ZM71.1416-48.0073L90.9688-48.0073C94.4042-48.0073 97.1892-45.2224 97.1892-41.787C97.1892-38.3516 94.4042-35.5667 90.9688-35.5667L71.1416-35.5667C67.7062-35.5667 64.9212-38.3516 64.9212-41.787C64.9212-45.2224 67.7062-48.0073 71.1416-48.0073Z"/>
  </g>
  <g id="Thin-M" transform="matrix(1 0 0 1 778.226 1126)">
   <path d="M129.492-22.2531L115.351-22.2531L115.351-43.3994C115.351-49.8644 110.11-55.1054 103.645-55.1054L52.4591-55.1054C45.9941-55.1054 40.7532-49.8644 40.7532-43.3994L40.7532-22.2531L26.7815-22.2531L26.7815-48.686C26.7815-59.322 35.4037-67.9442 46.0397-67.9442L110.234-67.9442C120.87-67.9442 129.492-59.322 129.492-48.686L129.492-22.2531ZM68.6964-49.0636L87.9546-49.0636C91.2914-49.0636 93.9964-46.3586 93.9964-43.0218C93.9964-39.685 91.2914-36.98 87.9546-36.98L68.6964-36.98C65.3596-36.98 62.6546-39.685 62.6546-43.0218C62.6546-46.3586 65.3596-49.0636 68.6964-49.0636Z"/>
  </g>
  <g id="Ultralight-M" transform="matrix(1 0 0 1 482.872 1126)">
   <path d="M127.319-23.1999L113.392-23.1999L113.392-44.0262C113.392-50.3933 108.231-55.555 101.863-55.555L51.4525-55.555C45.0853-55.555 39.9237-50.3933 39.9237-44.0262L39.9237-23.1999L26.1635-23.1999L26.1635-49.2327C26.1635-59.7078 34.6552-68.1994 45.1302-68.1994L108.353-68.1994C118.828-68.1994 127.319-59.7078 127.319-49.2327L127.319-23.1999ZM67.4441-49.6046L86.4108-49.6046C89.6971-49.6046 92.3611-46.9405 92.3611-43.6543C92.3611-40.368 89.6971-37.7039 86.4108-37.7039L67.4441-37.7039C64.1578-37.7039 61.4937-40.368 61.4937-43.6543C61.4937-46.9405 64.1578-49.6046 67.4441-49.6046Z"/>
  </g>
  <g id="Black-S" transform="matrix(1 0 0 1 2861.62 696)">
   <path d="M119.51-15.5121L106.36-15.5121L106.36-35.1759C106.36-41.1877 101.487-46.0612 95.4749-46.0612L47.8776-46.0612C41.8658-46.0612 36.9923-41.1877 36.9923-35.1759L36.9923-15.5121L24.0001-15.5121L24.0001-40.0919C24.0001-49.9823 32.0179-58 41.9082-58L101.602-58C111.492-58 119.51-49.9823 119.51-40.0919L119.51-15.5121ZM62.9766-40.443L80.8848-40.443C83.9876-40.443 86.503-37.9276 86.503-34.8248C86.503-31.7219 83.9876-29.2065 80.8848-29.2065L62.9766-29.2065C59.8738-29.2065 57.3584-31.7219 57.3584-34.8248C57.3584-37.9276 59.8738-40.443 62.9766-40.443Z"/>
  </g>
  <g id="Heavy-S" transform="matrix(1 0 0 1 2566.3 696)">
   <path d="M116.999-17.0057L104.165-17.0057L104.165-36.1968C104.165-42.064 99.4088-46.8204 93.5416-46.8204L47.0887-46.8204C41.2214-46.8204 36.4651-42.064 36.4651-36.1968L36.4651-17.0057L23.7853-17.0057L23.7853-40.9945C23.7853-50.6471 31.6103-58.472 41.2629-58.472L99.5213-58.472C109.174-58.472 116.999-50.6471 116.999-40.9945L116.999-17.0057ZM61.8247-41.3372L79.3022-41.3372C82.3305-41.3372 84.7853-38.8823 84.7853-35.8541C84.7853-32.8258 82.3305-30.3709 79.3022-30.3709L61.8247-30.3709C58.7964-30.3709 56.3415-32.8258 56.3415-35.8541C56.3415-38.8823 58.7964-41.3372 61.8247-41.3372Z"/>
  </g>
  <g id="Bold-S" transform="matrix(1 0 0 1 2271.14 696)">
   <path d="M114.19-18.6763L101.71-18.6763L101.71-37.3385C101.71-43.0441 97.0848-47.6694 91.3792-47.6694L46.2063-47.6694C40.5007-47.6694 35.8755-43.0441 35.8755-37.3385L35.8755-18.6763L23.5451-18.6763L23.5451-42.0041C23.5451-51.3907 31.1544-59 40.541-59L97.1941-59C106.581-59 114.19-51.3907 114.19-42.0041L114.19-18.6763ZM60.5362-42.3373L77.5322-42.3373C80.477-42.3373 82.8642-39.9501 82.8642-37.0053C82.8642-34.0604 80.477-31.6732 77.5322-31.6732L60.5362-31.6732C57.5914-31.6732 55.2042-34.0604 55.2042-37.0053C55.2042-39.9501 57.5914-42.3373 60.5362-42.3373Z"/>
  </g>
  <g id="Semibold-S" transform="matrix(1 0 0 1 1975.5 696)">
   <path d="M112.254-19.8281L100.017-19.8281L100.017-38.1257C100.017-43.7198 95.4824-48.2547 89.8883-48.2547L45.598-48.2547C40.0039-48.2547 35.4689-43.7198 35.4689-38.1257L35.4689-19.8281L23.3794-19.8281L23.3794-42.7001C23.3794-51.9033 30.8401-59.364 40.0433-59.364L95.5897-59.364C104.793-59.364 112.254-51.9033 112.254-42.7001L112.254-19.8281ZM59.6479-43.0268L76.3118-43.0268C79.1991-43.0268 81.5397-40.6862 81.5397-37.799C81.5397-34.9117 79.1991-32.5711 76.3118-32.5711L59.6479-32.5711C56.7607-32.5711 54.42-34.9117 54.42-37.799C54.42-40.6862 56.7607-43.0268 59.6479-43.0268Z"/>
  </g>
  <g id="Medium-S" transform="matrix(1 0 0 1 1679.6 696)">
   <path d="M110.785-20.7014L98.7339-20.7014L98.7339-38.7226C98.7339-44.2322 94.2675-48.6986 88.7579-48.6986L45.1367-48.6986C39.6271-48.6986 35.1607-44.2322 35.1607-38.7226L35.1607-20.7014L23.2539-20.7014L23.2539-43.2279C23.2539-52.292 30.6018-59.64 39.666-59.64L94.3731-59.64C103.437-59.64 110.785-52.292 110.785-43.2279L110.785-20.7014ZM58.9744-43.5497L75.3865-43.5497C78.2302-43.5497 80.5354-41.2444 80.5354-38.4008C80.5354-35.5571 78.2302-33.2519 75.3865-33.2519L58.9744-33.2519C56.1307-33.2519 53.8255-35.5571 53.8255-38.4008C53.8255-41.2444 56.1307-43.5497 58.9744-43.5497Z"/>
  </g>
  <g id="Regular-S" transform="matrix(1 0 0 1 1383.95 696)">
   <path d="M108.87-21.8405L97.0598-21.8405L97.0598-39.5011C97.0598-44.9005 92.6828-49.2775 87.2834-49.2775L44.535-49.2775C39.1357-49.2775 34.7586-44.9005 34.7586-39.5011L34.7586-21.8405L23.09-21.8405L23.09-43.9163C23.09-52.7991 30.291-60 39.1738-60L92.7863-60C101.669-60 108.87-52.7991 108.87-43.9163L108.87-21.8405ZM58.0958-44.2316L74.1796-44.2316C76.9664-44.2316 79.2255-41.9725 79.2255-39.1857C79.2255-36.399 76.9664-34.1399 74.1796-34.1399L58.0958-34.1399C55.3091-34.1399 53.05-36.399 53.05-39.1857C53.05-41.9725 55.3091-44.2316 58.0958-44.2316Z"/>
  </g>
  <g id="Light-S" transform="matrix(1 0 0 1 1089.01 696)">
   <path d="M106.033-23.0769L94.5023-23.0769L94.5023-40.3195C94.5023-45.5911 90.2288-49.8646 84.9573-49.8646L43.2205-49.8646C37.9489-49.8646 33.6755-45.5911 33.6755-40.3195L33.6755-23.0769L22.283-23.0769L22.283-44.6302C22.283-53.3028 29.3136-60.3333 37.9861-60.3333L90.3299-60.3333C99.0025-60.3333 106.033-53.3028 106.033-44.6302L106.033-23.0769ZM56.4604-44.9381L72.1635-44.9381C74.8844-44.9381 77.09-42.7325 77.09-40.0116C77.09-37.2908 74.8844-35.0852 72.1635-35.0852L56.4604-35.0852C53.7396-35.0852 51.5339-37.2908 51.5339-40.0116C51.5339-42.7325 53.7396-44.9381 56.4604-44.9381Z"/>
  </g>
  <g id="Thin-S" transform="matrix(1 0 0 1 794.642 696)">
   <path d="M102.281-24.7121L91.1198-24.7121L91.1198-41.402C91.1198-46.5046 86.9833-50.641 81.8807-50.641L41.482-50.641C36.3794-50.641 32.2429-46.5046 32.2429-41.402L32.2429-24.7121L21.2157-24.7121L21.2157-45.5745C21.2157-53.969 28.0208-60.7742 36.4154-60.7742L87.0811-60.7742C95.4757-60.7742 102.281-53.969 102.281-45.5745L102.281-24.7121ZM54.2974-45.8725L69.4971-45.8725C72.1307-45.8725 74.2657-43.7376 74.2657-41.104C74.2657-38.4704 72.1307-36.3354 69.4971-36.3354L54.2974-36.3354C51.6638-36.3354 49.5289-38.4704 49.5289-41.104C49.5289-43.7376 51.6638-45.8725 54.2974-45.8725Z"/>
  </g>
  <g id="Ultralight-S" transform="matrix(1 0 0 1 499.131 696)">
   <path d="M100.359-25.5497L89.3873-25.5497L89.3873-41.9564C89.3873-46.9725 85.321-51.0387 80.3049-51.0387L40.5915-51.0387C35.5755-51.0387 31.5092-46.9725 31.5092-41.9564L31.5092-25.5497L20.669-25.5497L20.669-46.0581C20.669-54.3103 27.3587-61 35.6109-61L85.4171-61C93.6693-61 100.359-54.3103 100.359-46.0581L100.359-25.5497ZM53.1895-46.3511L68.1314-46.3511C70.7203-46.3511 72.8191-44.2524 72.8191-41.6635C72.8191-39.0745 70.7203-36.9758 68.1314-36.9758L53.1895-36.9758C50.6006-36.9758 48.5019-39.0745 48.5019-41.6635C48.5019-44.2524 50.6006-46.3511 53.1895-46.3511Z"/>
  </g>
 </g>
</svg>
