<?xml version="1.0" encoding="UTF-8"?>
<!--Generator: Apple Native CoreSVG 341-->
<!DOCTYPE svg
PUBLIC "-//W3C//DTD SVG 1.1//EN"
       "http://www.w3.org/Graphics/SVG/1.1/DTD/svg11.dtd">
<svg version="1.1" xmlns="http://www.w3.org/2000/svg" xmlns:xlink="http://www.w3.org/1999/xlink" viewBox="0 0 3300 2200">
 <!--glyph: "", point size: 100.0, font version: "21.1d1e1", template writer version: "138.0.0"-->
 <style>.defaults {-sfsymbols-variable-value-mode:color;-sfsymbols-draw-reverses-motion-groups:true}

.monochrome-0 {-sfsymbols-layer-tags:-8d69bf2765c9081}
.monochrome-1 {-sfsymbols-layer-tags:-8d69bf2765c9081}
.monochrome-2 {-sfsymbols-layer-tags:-8d69bf2765c9081}

.multicolor-0:systemGrayColor {-sfsymbols-layer-tags:-8d69bf2765c9081}
.multicolor-1:systemBlueColor {-sfsymbols-layer-tags:-8d69bf2765c9081}
.multicolor-2:systemGreenColor {-sfsymbols-layer-tags:-8d69bf2765c9081}

.hierarchical-0:tertiary {-sfsymbols-layer-tags:-8d69bf2765c9081}
.hierarchical-1:secondary {-sfsymbols-layer-tags:-8d69bf2765c9081}
.hierarchical-2:primary {-sfsymbols-layer-tags:-8d69bf2765c9081}

.SFSymbolsPreview007AFF {fill:#007AFF;opacity:1.0}
.SFSymbolsPreview28CD41 {fill:#28CD41;opacity:1.0}
.SFSymbolsPreview8E8E93 {fill:#8E8E93;opacity:1.0}
</style>
 <g id="Notes">
  <rect height="2200" id="artboard" style="fill:white;opacity:1" width="3300" x="0" y="0"/>
  <line style="fill:none;stroke:black;opacity:1;stroke-width:0.5;" x1="263" x2="3036" y1="292" y2="292"/>
  <text style="stroke:none;fill:black;font-family:sans-serif;font-size:13;font-weight:bold;" transform="matrix(1 0 0 1 263 322)">Weight/Scale Variations</text>
  <text style="stroke:none;fill:black;font-family:sans-serif;font-size:13;text-anchor:middle;" transform="matrix(1 0 0 1 559.711 322)">Ultralight</text>
  <text style="stroke:none;fill:black;font-family:sans-serif;font-size:13;text-anchor:middle;" transform="matrix(1 0 0 1 856.422 322)">Thin</text>
  <text style="stroke:none;fill:black;font-family:sans-serif;font-size:13;text-anchor:middle;" transform="matrix(1 0 0 1 1153.13 322)">Light</text>
  <text style="stroke:none;fill:black;font-family:sans-serif;font-size:13;text-anchor:middle;" transform="matrix(1 0 0 1 1449.84 322)">Regular</text>
  <text style="stroke:none;fill:black;font-family:sans-serif;font-size:13;text-anchor:middle;" transform="matrix(1 0 0 1 1746.56 322)">Medium</text>
  <text style="stroke:none;fill:black;font-family:sans-serif;font-size:13;text-anchor:middle;" transform="matrix(1 0 0 1 2043.27 322)">Semibold</text>
  <text style="stroke:none;fill:black;font-family:sans-serif;font-size:13;text-anchor:middle;" transform="matrix(1 0 0 1 2339.98 322)">Bold</text>
  <text style="stroke:none;fill:black;font-family:sans-serif;font-size:13;text-anchor:middle;" transform="matrix(1 0 0 1 2636.69 322)">Heavy</text>
  <text style="stroke:none;fill:black;font-family:sans-serif;font-size:13;text-anchor:middle;" transform="matrix(1 0 0 1 2933.4 322)">Black</text>
  <line style="fill:none;stroke:black;opacity:1;stroke-width:0.5;" x1="263" x2="3036" y1="1903" y2="1903"/>
  <g transform="matrix(0.2 0 0 0.2 263 1933)">
   <path d="m46.2402 4.15039c21.7773 0 39.4531-17.627 39.4531-39.4043s-17.6758-39.4043-39.4531-39.4043c-21.7285 0-39.4043 17.627-39.4043 39.4043s17.6758 39.4043 39.4043 39.4043Zm0-7.42188c-17.6758 0-31.9336-14.3066-31.9336-31.9824s14.2578-31.9824 31.9336-31.9824 31.9824 14.3066 31.9824 31.9824-14.3066 31.9824-31.9824 31.9824Zm3.61328-17.7734v-28.4668c0-2.24609-1.46484-3.75977-3.71094-3.75977-2.14844 0-3.61328 1.51367-3.61328 3.75977v28.4668c0 2.19727 1.46484 3.71094 3.61328 3.71094 2.24609 0 3.71094-1.51367 3.71094-3.71094Zm-17.8223-10.5957h28.418c2.19727 0 3.71094-1.46484 3.71094-3.61328 0-2.19727-1.51367-3.71094-3.71094-3.71094h-28.418c-2.24609 0-3.75977 1.51367-3.75977 3.71094 0 2.14844 1.51367 3.61328 3.75977 3.61328Z"/>
  </g>
  <g transform="matrix(0.2 0 0 0.2 281.506 1933)">
   <path d="m58.5449 14.5508c27.4902 0 49.8047-22.3145 49.8047-49.8047s-22.3145-49.8047-49.8047-49.8047-49.8047 22.3145-49.8047 49.8047 22.3145 49.8047 49.8047 49.8047Zm0-8.30078c-22.9492 0-41.5039-18.5547-41.5039-41.5039s18.5547-41.5039 41.5039-41.5039 41.5039 18.5547 41.5039 41.5039-18.5547 41.5039-41.5039 41.5039Zm4.05273-23.0957v-36.9141c0-2.49023-1.70898-4.19922-4.15039-4.19922-2.39258 0-4.05273 1.70898-4.05273 4.19922v36.9141c0 2.44141 1.66016 4.15039 4.05273 4.15039 2.44141 0 4.15039-1.66016 4.15039-4.15039Zm-22.5586-14.4043h36.9629c2.44141 0 4.15039-1.61133 4.15039-4.00391 0-2.44141-1.70898-4.15039-4.15039-4.15039h-36.9629c-2.49023 0-4.15039 1.70898-4.15039 4.15039 0 2.39258 1.66016 4.00391 4.15039 4.00391Z"/>
  </g>
  <g transform="matrix(0.2 0 0 0.2 304.924 1933)">
   <path d="m74.8535 28.3203c35.1074 0 63.623-28.4668 63.623-63.5742s-28.5156-63.623-63.623-63.623-63.5742 28.5156-63.5742 63.623 28.4668 63.5742 63.5742 63.5742Zm0-9.08203c-30.127 0-54.4922-24.3652-54.4922-54.4922s24.3652-54.4922 54.4922-54.4922 54.4922 24.3652 54.4922 54.4922-24.3652 54.4922-54.4922 54.4922Zm4.44336-30.3223v-48.4863c0-2.73438-1.85547-4.63867-4.54102-4.63867-2.58789 0-4.44336 1.9043-4.44336 4.63867v48.4863c0 2.68555 1.85547 4.58984 4.44336 4.58984 2.68555 0 4.54102-1.85547 4.54102-4.58984Zm-28.7109-19.7754h48.4863c2.68555 0 4.58984-1.80664 4.58984-4.39453 0-2.73438-1.85547-4.58984-4.58984-4.58984h-48.4863c-2.73438 0-4.58984 1.85547-4.58984 4.58984 0 2.58789 1.85547 4.39453 4.58984 4.39453Z"/>
  </g>
  <text style="stroke:none;fill:black;font-family:sans-serif;font-size:13;font-weight:bold;" transform="matrix(1 0 0 1 263 1953)">Design Variations</text>
  <text style="stroke:none;fill:black;font-family:sans-serif;font-size:13;" transform="matrix(1 0 0 1 263 1971)">Symbols are supported in up to nine weights and three scales.</text>
  <text style="stroke:none;fill:black;font-family:sans-serif;font-size:13;" transform="matrix(1 0 0 1 263 1989)">For optimal layout with text and other symbols, vertically align</text>
  <text style="stroke:none;fill:black;font-family:sans-serif;font-size:13;" transform="matrix(1 0 0 1 263 2007)">symbols with the adjacent text.</text>
  <line style="fill:none;stroke:#00AEEF;stroke-width:0.5;opacity:1.0;" x1="776" x2="776" y1="1919" y2="1933"/>
  <g transform="matrix(0.2 0 0 0.2 776 1933)">
   <path d="m16.5527 0.78125c2.58789 0 3.85742-0.976562 4.78516-3.71094l20.5566-57.5195h0.244141l20.6055 57.5195c0.927734 2.73438 2.19727 3.71094 4.73633 3.71094 2.58789 0 4.24805-1.5625 4.24805-4.00391 0-0.830078-0.146484-1.61133-0.537109-2.63672l-22.9004-60.9863c-1.12305-2.97852-3.125-4.49219-6.25-4.49219-3.02734 0-5.07812 1.46484-6.15234 4.44336l-22.9004 61.084c-0.390625 1.02539-0.537109 1.80664-0.537109 2.63672 0 2.44141 1.5625 3.95508 4.10156 3.95508Zm10.2051-20.9473h30.6641c2.00195 0 3.66211-1.66016 3.66211-3.66211 0-2.05078-1.66016-3.66211-3.66211-3.66211h-30.6641c-2.00195 0-3.66211 1.61133-3.66211 3.66211 0 2.00195 1.66016 3.66211 3.66211 3.66211Z"/>
  </g>
  <line style="fill:none;stroke:#00AEEF;stroke-width:0.5;opacity:1.0;" x1="792.836" x2="792.836" y1="1919" y2="1933"/>
  <text style="stroke:none;fill:black;font-family:sans-serif;font-size:13;font-weight:bold;" transform="matrix(1 0 0 1 776 1953)">Margins</text>
  <text style="stroke:none;fill:black;font-family:sans-serif;font-size:13;" transform="matrix(1 0 0 1 776 1971)">Leading and trailing margins on the left and right side of each symbol</text>
  <text style="stroke:none;fill:black;font-family:sans-serif;font-size:13;" transform="matrix(1 0 0 1 776 1989)">can be adjusted by modifying the x-location of the margin guidelines.</text>
  <text style="stroke:none;fill:black;font-family:sans-serif;font-size:13;" transform="matrix(1 0 0 1 776 2007)">Modifications are automatically applied proportionally to all</text>
  <text style="stroke:none;fill:black;font-family:sans-serif;font-size:13;" transform="matrix(1 0 0 1 776 2025)">scales and weights.</text>
  <g transform="matrix(0.2 0 0 0.2 1289 1933)">
   <path d="m14.209 13.1348 7.86133 7.86133c4.29688 4.39453 9.32617 4.10156 13.8672-1.02539l60.6934-68.2129-4.88281-4.88281-60.2539 67.6758c-1.80664 1.95312-3.4668 2.44141-5.81055 0.0976562l-5.17578-5.12695c-2.29492-2.29492-1.80664-3.95508 0.195312-5.81055l67.4805-62.1582-4.88281-4.83398-68.0664 62.5977c-4.98047 4.58984-5.32227 9.47266-1.02539 13.8184Zm44.873-97.4609c-2.05078 2.00195-2.24609 4.88281-1.07422 6.78711 1.12305 1.80664 3.4668 3.02734 6.5918 2.24609 5.85938-1.66016 12.5977-2.39258 18.8965 0.927734l-2.68555 7.12891c-1.61133 4.00391-0.732422 6.88477 1.70898 9.42383l10.2539 10.3027c2.34375 2.39258 4.54102 2.44141 7.08008 1.95312l4.44336-0.732422 2.58789 2.53906-0.195312 2.24609c-0.0976562 2.29492 0.537109 4.29688 2.7832 6.49414l3.36914 3.32031c2.29492 2.29492 5.51758 2.49023 7.8125 0.195312l12.9883-13.0371c2.29492-2.34375 2.14844-5.37109-0.195312-7.66602l-3.41797-3.41797c-2.19727-2.19727-4.05273-3.02734-6.34766-2.88086l-2.34375 0.244141-2.44141-2.44141 1.02539-4.6875c0.634766-2.73438-0.244141-4.98047-2.88086-7.61719l-11.2793-11.1816c-12.9395-12.8418-35.5957-11.0352-46.6797-0.146484Zm7.08008 2.05078c8.78906-6.39648 25.9766-5.66406 33.6914 1.95312l12.3047 12.207c1.02539 1.02539 1.2207 1.80664 0.927734 3.32031l-1.46484 6.64062 6.73828 6.68945 4.39453-0.244141c1.12305-0.0488281 1.51367 0.0488281 2.34375 0.878906l2.53906 2.49023-10.8398 10.8398-2.49023-2.49023c-0.830078-0.878906-0.976562-1.2207-0.927734-2.39258l0.292969-4.3457-6.68945-6.73828-6.83594 1.17188c-1.41602 0.292969-2.05078 0.195312-3.17383-0.878906l-8.93555-8.88672c-1.07422-1.02539-1.17188-1.70898-0.488281-3.36914l4.58984-11.4746c-6.10352-6.34766-17.041-7.51953-25.5859-4.58984-0.683594 0.244141-0.927734-0.390625-0.390625-0.78125Z"/>
  </g>
  <text style="stroke:none;fill:black;font-family:sans-serif;font-size:13;font-weight:bold;" transform="matrix(1 0 0 1 1289 1953)">Exporting</text>
  <text style="stroke:none;fill:black;font-family:sans-serif;font-size:13;" transform="matrix(1 0 0 1 1289 1971)">Symbols should be outlined when exporting to ensure the</text>
  <text style="stroke:none;fill:black;font-family:sans-serif;font-size:13;" transform="matrix(1 0 0 1 1289 1989)">design is preserved when submitting to Xcode.</text>
  <text id="template-version" style="stroke:none;fill:black;font-family:sans-serif;font-size:13;text-anchor:end;" transform="matrix(1 0 0 1 3036 1933)">Template v.4.0</text>
  <text style="stroke:none;fill:black;font-family:sans-serif;font-size:13;text-anchor:end;" transform="matrix(1 0 0 1 3036 1951)">Requires Xcode 14 or greater</text>
  <text id="descriptive-name" style="stroke:none;fill:black;font-family:sans-serif;font-size:13;text-anchor:end;" transform="matrix(1 0 0 1 3036 1969)">Generated from fast.bolt.battery</text>
  <text style="stroke:none;fill:black;font-family:sans-serif;font-size:13;text-anchor:end;" transform="matrix(1 0 0 1 3036 1987)">Typeset at 100.0 points</text>
  <text style="stroke:none;fill:black;font-family:sans-serif;font-size:13;" transform="matrix(1 0 0 1 263 726)">Small</text>
  <text style="stroke:none;fill:black;font-family:sans-serif;font-size:13;" transform="matrix(1 0 0 1 263 1156)">Medium</text>
  <text style="stroke:none;fill:black;font-family:sans-serif;font-size:13;" transform="matrix(1 0 0 1 263 1586)">Large</text>
 </g>
 <g id="Guides">
  <g id="H-reference" style="fill:#27AAE1;stroke:none;" transform="matrix(1 0 0 1 339 696)">
   <path d="M0.993654 0L3.63775 0L29.3281-67.1323L30.0303-67.1323L30.0303-70.459L28.1226-70.459ZM11.6885-24.4799L46.9815-24.4799L46.2315-26.7285L12.4385-26.7285ZM55.1196 0L57.7637 0L30.6382-70.459L29.4326-70.459L29.4326-67.1323Z"/>
  </g>
  <line id="Baseline-S" style="fill:none;stroke:#27AAE1;opacity:1;stroke-width:0.5;" x1="263" x2="3036" y1="696" y2="696"/>
  <line id="Capline-S" style="fill:none;stroke:#27AAE1;opacity:1;stroke-width:0.5;" x1="263" x2="3036" y1="625.541" y2="625.541"/>
  <g id="H-reference" style="fill:#27AAE1;stroke:none;" transform="matrix(1 0 0 1 339 1126)">
   <path d="M0.993654 0L3.63775 0L29.3281-67.1323L30.0303-67.1323L30.0303-70.459L28.1226-70.459ZM11.6885-24.4799L46.9815-24.4799L46.2315-26.7285L12.4385-26.7285ZM55.1196 0L57.7637 0L30.6382-70.459L29.4326-70.459L29.4326-67.1323Z"/>
  </g>
  <line id="Baseline-M" style="fill:none;stroke:#27AAE1;opacity:1;stroke-width:0.5;" x1="263" x2="3036" y1="1126" y2="1126"/>
  <line id="Capline-M" style="fill:none;stroke:#27AAE1;opacity:1;stroke-width:0.5;" x1="263" x2="3036" y1="1055.54" y2="1055.54"/>
  <g id="H-reference" style="fill:#27AAE1;stroke:none;" transform="matrix(1 0 0 1 339 1556)">
   <path d="M0.993654 0L3.63775 0L29.3281-67.1323L30.0303-67.1323L30.0303-70.459L28.1226-70.459ZM11.6885-24.4799L46.9815-24.4799L46.2315-26.7285L12.4385-26.7285ZM55.1196 0L57.7637 0L30.6382-70.459L29.4326-70.459L29.4326-67.1323Z"/>
  </g>
  <line id="Baseline-L" style="fill:none;stroke:#27AAE1;opacity:1;stroke-width:0.5;" x1="263" x2="3036" y1="1556" y2="1556"/>
  <line id="Capline-L" style="fill:none;stroke:#27AAE1;opacity:1;stroke-width:0.5;" x1="263" x2="3036" y1="1485.54" y2="1485.54"/>
  <line id="right-margin-Black-S" style="fill:none;stroke:#00AEEF;stroke-width:0.5;opacity:1.0;" x1="3004.98" x2="3004.98" y1="600.785" y2="720.121"/>
  <line id="left-margin-Black-S" style="fill:none;stroke:#00AEEF;stroke-width:0.5;opacity:1.0;" x1="2861.82" x2="2861.82" y1="600.785" y2="720.121"/>
  <line id="right-margin-Regular-S" style="fill:none;stroke:#00AEEF;stroke-width:0.5;opacity:1.0;" x1="1517.28" x2="1517.28" y1="600.785" y2="720.121"/>
  <line id="left-margin-Regular-S" style="fill:none;stroke:#00AEEF;stroke-width:0.5;opacity:1.0;" x1="1382.41" x2="1382.41" y1="600.785" y2="720.121"/>
  <line id="right-margin-Ultralight-S" style="fill:none;stroke:#00AEEF;stroke-width:0.5;opacity:1.0;" x1="621.421" x2="621.421" y1="600.785" y2="720.121"/>
  <line id="left-margin-Ultralight-S" style="fill:none;stroke:#00AEEF;stroke-width:0.5;opacity:1.0;" x1="498.001" x2="498.001" y1="600.785" y2="720.121"/>
 </g>
 <g id="Symbols">
  <g id="Black-S" transform="matrix(1 0 0 1 2861.82 696)">
   <path class="monochrome-0 multicolor-0:systemGrayColor hierarchical-0:tertiary SFSymbolsPreview8E8E93" d="M93.6312-66C102.789-66 107.98-64.4863 112.094-60.4336C116.159-56.4297 117.628-51.3027 117.628-42.0742L117.628-27.8164C117.628-18.5879 116.159-13.5098 112.094-9.45702C108.029-5.40429 102.789-3.89062 93.6312-3.89062L65.1922-3.89062L65.1922-5.91053L75.4362-18.0508L94.7086-18.0508C98.8713-18.0508 100.487-18.6367 101.663-19.8574C102.838-21.0781 103.425-22.543 103.425-26.7422L103.425-43.1484C103.425-47.3476 102.887-48.8613 101.663-50.0332C100.438-51.2051 98.8713-51.8398 94.7086-51.8398L78.3102-51.8398L80.0781-56.3965C81.547-60.2015 80.7837-63.6088 78.8692-66L93.6312-66ZM124.974-22.1523L124.974-47.7383C128.891-47.4941 134.18-42.4648 134.18-34.9453C134.18-27.4258 128.891-22.3965 124.974-22.1523Z"/>
   <path class="monochrome-1 multicolor-1:systemBlueColor hierarchical-1:secondary SFSymbolsPreview007AFF" d="M50.0107-66L50.0107-59L9.95906-59L9.95906-66L50.0107-66ZM42.18-11L42.18-4L9.95906-4L9.95906-11L42.18-11ZM41.18-52.25L41.18-45.25L9.95906-45.25L9.95906-52.25L41.18-52.25ZM36.18-24.75L36.18-17.75L9.95906-17.75L9.95906-24.75L36.18-24.75ZM35.18-38.5L35.18-31.5L9.95906-31.5L9.95906-38.5L35.18-38.5Z"/>
   <path class="monochrome-2 multicolor-2:systemGreenColor hierarchical-2:primary SFSymbolsPreview28CD41" d="M44.9707-32.2266C44.9707-30.6641 46.2891-29.3945 47.9492-29.3945L60.791-29.3945L53.9551-11.8164C52.4902-8.00781 56.6895-5.66406 59.3262-8.78906L82.2754-35.9863C82.8125-36.6211 83.1543-37.4512 83.1543-38.2812C83.1543-39.8438 81.8359-41.1133 80.1758-41.1133L67.334-41.1133L74.1699-58.6914C75.6348-62.5 71.4355-64.8438 68.7988-61.7188L45.8496-34.5215C45.3125-33.8867 44.9707-33.0566 44.9707-32.2266Z"/>
  </g>
  <g id="Regular-S" transform="matrix(1 0 0 1 1382.41 696)">
   <path class="monochrome-0 multicolor-0:systemGrayColor hierarchical-0:tertiary SFSymbolsPreview8E8E93" d="M90.2109-61.8164C96.5098-61.8164 102.32-61.2793 106.471-57.1289C110.572-53.0273 111.061-47.2168 111.061-40.9668L111.061-29.541C111.061-23.291 110.572-17.4805 106.471-13.3301C102.37-9.1797 96.5098-8.69141 90.2109-8.69141L61.2963-8.69141L62.5178-10.2276L66.887-15.7227L91.2852-15.7227C94.8496-15.7227 99.049-16.1621 101.344-18.457C103.639-20.752 104.029-24.9023 104.029-28.4668L104.029-41.9922C104.029-45.6055 103.639-49.707 101.344-52.0508C99.049-54.3946 94.8496-54.7363 91.2852-54.7363L73.7558-54.7363L74.2441-56.0547C75.0333-58.1916 74.953-60.1655 74.2998-61.8164L90.2109-61.8164ZM116.773-25L116.773-45.5078C119.898-45.3125 124.098-41.3086 124.098-35.2539C124.098-29.1992 119.898-25.1953 116.773-25Z"/>
   <path class="monochrome-1 multicolor-1:systemBlueColor hierarchical-1:secondary SFSymbolsPreview007AFF" d="M47.0172-62L47.0172-57L7.32523-57L7.32523-62L47.0172-62ZM42.1987-14L42.1987-9L7.32523-9L7.32523-14L42.1987-14ZM37.9498-50L37.9498-45L7.32523-45L7.32523-50L37.9498-50ZM35.59-26L35.59-21L7.32523-21L7.32523-26L35.59-26ZM33.1313-38L33.1313-33L7.32523-33L7.32523-38L33.1313-38Z"/>
   <path class="monochrome-2 multicolor-2:systemGreenColor hierarchical-2:primary SFSymbolsPreview28CD41" d="M43.9707-32.4707C43.9707-31.4453 44.8496-30.6641 45.9238-30.6641L58.6191-30.6641L51.8809-12.5C50.9043-9.86328 53.7363-8.44727 55.3965-10.5469L76.0508-36.4258C76.4414-36.9629 76.6855-37.5 76.6855-38.0371C76.6855-39.0625 75.8555-39.8438 74.7812-39.8438L62.0859-39.8438L68.8242-57.959C69.8008-60.5957 66.9688-62.0605 65.3086-59.9609L44.6543-34.082C44.2637-33.5449 43.9707-33.0078 43.9707-32.4707Z"/>
  </g>
  <g id="Ultralight-S" transform="matrix(1 0 0 1 498.001 696)">
   <path class="monochrome-0 multicolor-0:systemGrayColor hierarchical-0:tertiary SFSymbolsPreview8E8E93" d="M89.6921-58.0705C95.991-58.0705 100.783-55.2111 102.174-52.6587C103.565-50.1063 104.244-48.0846 104.399-45.1549L104.399-26.9348C104.399-23.1983 103.156-18.4646 100.816-16.1677C98.476-13.8707 94.1098-12.2583 90.3752-12.2583L58.0718-12.2583L58.0618-13.1102L59.1197-14.2052L89.6921-14.5765C93.2565-14.5765 96.645-15.6863 98.94-17.9812C101.235-20.2762 102.174-23.964 102.174-27.5285L102.174-42.6038C102.174-46.2171 102.174-47.6029 99.8392-51.1662C97.5044-54.7294 92.3296-55.8968 88.7652-55.8968L68.1591-55.8968L68.5559-56.9818C69.3451-59.1187 69.6923-56.4195 69.039-58.0705L89.6921-58.0705ZM107.692-26.8618L107.692-43.4644C110.227-43.3145 113.654-40.0371 113.654-35.1631C113.654-30.2891 110.227-27.0117 107.692-26.8618Z"/>
   <path class="monochrome-1 multicolor-1:systemBlueColor hierarchical-1:secondary SFSymbolsPreview007AFF" d="M48.999-58L48.999-55L10-55L10-58L48.999-58ZM41.999-15L41.999-12L10-12L10-15L41.999-15ZM40.999-47.25L40.999-44.25L10-44.25L10-47.25L40.999-47.25ZM35.999-25.75L35.999-22.75L10-22.75L10-25.75L35.999-25.75ZM33.999-36.5L33.999-33.5L10-33.5L10-36.5L33.999-36.5Z"/>
   <path class="monochrome-2 multicolor-2:systemGreenColor hierarchical-2:primary SFSymbolsPreview28CD41" d="M41.2017-31.7896C41.2017-31.1729 41.6719-30.8003 42.3374-30.8003L56.3042-30.8003L48.7032-10.2749C48.0899-8.59181 49.7867-7.72071 50.8565-9.04835L73.418-37.3794C73.8086-37.8711 73.9165-38.2266 73.9165-38.5366C73.9165-39.1533 73.4497-39.5259 72.8296-39.5259L58.8174-39.5259L66.4185-60.0478C67.0318-61.7309 65.3804-62.6055 64.2652-61.2778L41.7036-32.9014C41.313-32.4097 41.2017-32.0996 41.2017-31.7896Z"/>
  </g>
 </g>
</svg>
