<?xml version="1.0" encoding="UTF-8"?>
<!--Generator: Apple Native CoreSVG 232.5-->
<!DOCTYPE svg
PUBLIC "-//W3C//DTD SVG 1.1//EN"
       "http://www.w3.org/Graphics/SVG/1.1/DTD/svg11.dtd">
<svg version="1.1" xmlns="http://www.w3.org/2000/svg" xmlns:xlink="http://www.w3.org/1999/xlink" width="3300" height="2200">
 <!--glyph: "", point size: 100.0, font version: "19.2d2e1", template writer version: "128"-->
 <style>.monochrome-0 {-sfsymbols-motion-group:0}
.monochrome-1 {-sfsymbols-motion-group:0}
.monochrome-2 {opacity:0.0;-sfsymbols-clear-behind:true;-sfsymbols-motion-group:0}
.monochrome-3 {-sfsymbols-motion-group:0}
.monochrome-4 {opacity:0.0;-sfsymbols-clear-behind:true;-sfsymbols-motion-group:0}

.multicolor-0:tintColor {opacity:0.6;-sfsymbols-motion-group:0}
.multicolor-1:tintColor {-sfsymbols-motion-group:0}
.multicolor-2:custom {fill:#CBCBCB;-sfsymbols-motion-group:0}
.multicolor-3:white {-sfsymbols-motion-group:0}
.multicolor-4:systemYellowColor {-sfsymbols-motion-group:0}

.hierarchical-0:tertiary {-sfsymbols-motion-group:0}
.hierarchical-1:secondary {-sfsymbols-motion-group:0}
.hierarchical-2:primary {opacity:0.0;-sfsymbols-clear-behind:true;-sfsymbols-motion-group:0}
.hierarchical-3:primary {-sfsymbols-motion-group:0}
.hierarchical-4:primary {opacity:0.0;-sfsymbols-clear-behind:true;-sfsymbols-motion-group:0}

.SFSymbolsPreviewWireframe {fill:none;opacity:1.0;stroke:black;stroke-width:0.5}
</style>
 <g id="Notes">
  <rect height="2200" id="artboard" style="fill:white;opacity:1" width="3300" x="0" y="0"/>
  <line style="fill:none;stroke:black;opacity:1;stroke-width:0.5;" x1="263" x2="3036" y1="292" y2="292"/>
  <text style="stroke:none;fill:black;font-family:sans-serif;font-size:13;font-weight:bold;" transform="matrix(1 0 0 1 263 322)">Weight/Scale Variations</text>
  <text style="stroke:none;fill:black;font-family:sans-serif;font-size:13;text-anchor:middle;" transform="matrix(1 0 0 1 559.711 322)">Ultralight</text>
  <text style="stroke:none;fill:black;font-family:sans-serif;font-size:13;text-anchor:middle;" transform="matrix(1 0 0 1 856.422 322)">Thin</text>
  <text style="stroke:none;fill:black;font-family:sans-serif;font-size:13;text-anchor:middle;" transform="matrix(1 0 0 1 1153.13 322)">Light</text>
  <text style="stroke:none;fill:black;font-family:sans-serif;font-size:13;text-anchor:middle;" transform="matrix(1 0 0 1 1449.84 322)">Regular</text>
  <text style="stroke:none;fill:black;font-family:sans-serif;font-size:13;text-anchor:middle;" transform="matrix(1 0 0 1 1746.56 322)">Medium</text>
  <text style="stroke:none;fill:black;font-family:sans-serif;font-size:13;text-anchor:middle;" transform="matrix(1 0 0 1 2043.27 322)">Semibold</text>
  <text style="stroke:none;fill:black;font-family:sans-serif;font-size:13;text-anchor:middle;" transform="matrix(1 0 0 1 2339.98 322)">Bold</text>
  <text style="stroke:none;fill:black;font-family:sans-serif;font-size:13;text-anchor:middle;" transform="matrix(1 0 0 1 2636.69 322)">Heavy</text>
  <text style="stroke:none;fill:black;font-family:sans-serif;font-size:13;text-anchor:middle;" transform="matrix(1 0 0 1 2933.4 322)">Black</text>
  <line style="fill:none;stroke:black;opacity:1;stroke-width:0.5;" x1="263" x2="3036" y1="1903" y2="1903"/>
  <g transform="matrix(0.2 0 0 0.2 263 1933)">
   <path d="m46.2402 4.15039c21.5332 0 39.4531-17.8711 39.4531-39.4043s-17.9688-39.4043-39.502-39.4043c-21.4844 0-39.3555 17.8711-39.3555 39.4043s17.9199 39.4043 39.4043 39.4043Zm0-7.42188c-17.7246 0-31.8848-14.209-31.8848-31.9824s14.1113-31.9824 31.8359-31.9824c17.7734 0 32.0312 14.209 32.0312 31.9824s-14.209 31.9824-31.9824 31.9824Zm-17.9688-31.9824c0 2.14844 1.51367 3.61328 3.75977 3.61328h10.498v10.5957c0 2.19727 1.46484 3.71094 3.61328 3.71094 2.24609 0 3.71094-1.51367 3.71094-3.71094v-10.5957h10.5957c2.19727 0 3.71094-1.46484 3.71094-3.61328 0-2.19727-1.51367-3.71094-3.71094-3.71094h-10.5957v-10.5469c0-2.24609-1.46484-3.75977-3.71094-3.75977-2.14844 0-3.61328 1.51367-3.61328 3.75977v10.5469h-10.498c-2.24609 0-3.75977 1.51367-3.75977 3.71094Z"/>
  </g>
  <g transform="matrix(0.2 0 0 0.2 281.506 1933)">
   <path d="m58.5449 14.5508c27.2461 0 49.8047-22.6074 49.8047-49.8047 0-27.2461-22.6074-49.8047-49.8535-49.8047-27.1973 0-49.7559 22.5586-49.7559 49.8047 0 27.1973 22.6074 49.8047 49.8047 49.8047Zm0-8.30078c-23.0469 0-41.4551-18.457-41.4551-41.5039s18.3594-41.5039 41.4062-41.5039 41.5527 18.457 41.5527 41.5039-18.457 41.5039-41.5039 41.5039Zm-22.6562-41.5039c0 2.39258 1.66016 4.00391 4.15039 4.00391h14.3555v14.4043c0 2.44141 1.66016 4.15039 4.05273 4.15039 2.44141 0 4.15039-1.66016 4.15039-4.15039v-14.4043h14.4043c2.44141 0 4.15039-1.61133 4.15039-4.00391 0-2.44141-1.70898-4.15039-4.15039-4.15039h-14.4043v-14.3555c0-2.49023-1.70898-4.19922-4.15039-4.19922-2.39258 0-4.05273 1.70898-4.05273 4.19922v14.3555h-14.3555c-2.49023 0-4.15039 1.70898-4.15039 4.15039Z"/>
  </g>
  <g transform="matrix(0.2 0 0 0.2 304.924 1933)">
   <path d="m74.8535 28.3203c34.8145 0 63.623-28.8086 63.623-63.5742 0-34.8145-28.8574-63.623-63.6719-63.623-34.7656 0-63.5254 28.8086-63.5254 63.623 0 34.7656 28.8086 63.5742 63.5742 63.5742Zm0-9.08203c-30.1758 0-54.4434-24.3164-54.4434-54.4922 0-30.2246 24.2188-54.4922 54.3945-54.4922 30.2246 0 54.541 24.2676 54.541 54.4922 0 30.1758-24.2676 54.4922-54.4922 54.4922Zm-28.8574-54.4922c0 2.58789 1.85547 4.39453 4.58984 4.39453h19.7266v19.7754c0 2.68555 1.85547 4.58984 4.44336 4.58984 2.68555 0 4.54102-1.85547 4.54102-4.58984v-19.7754h19.7754c2.68555 0 4.58984-1.80664 4.58984-4.39453 0-2.73438-1.85547-4.58984-4.58984-4.58984h-19.7754v-19.7266c0-2.73438-1.85547-4.63867-4.54102-4.63867-2.58789 0-4.44336 1.9043-4.44336 4.63867v19.7266h-19.7266c-2.73438 0-4.58984 1.85547-4.58984 4.58984Z"/>
  </g>
  <text style="stroke:none;fill:black;font-family:sans-serif;font-size:13;font-weight:bold;" transform="matrix(1 0 0 1 263 1953)">Design Variations</text>
  <text style="stroke:none;fill:black;font-family:sans-serif;font-size:13;" transform="matrix(1 0 0 1 263 1971)">Symbols are supported in up to nine weights and three scales.</text>
  <text style="stroke:none;fill:black;font-family:sans-serif;font-size:13;" transform="matrix(1 0 0 1 263 1989)">For optimal layout with text and other symbols, vertically align</text>
  <text style="stroke:none;fill:black;font-family:sans-serif;font-size:13;" transform="matrix(1 0 0 1 263 2007)">symbols with the adjacent text.</text>
  <line style="fill:none;stroke:#00AEEF;stroke-width:0.5;opacity:1.0;" x1="776" x2="776" y1="1919" y2="1933"/>
  <g transform="matrix(0.2 0 0 0.2 776 1933)">
   <path d="m16.5527 0.78125c2.58789 0 3.85742-0.976562 4.78516-3.71094l6.29883-17.2363h28.8086l6.29883 17.2363c0.927734 2.73438 2.19727 3.71094 4.73633 3.71094 2.58789 0 4.24805-1.5625 4.24805-4.00391 0-0.830078-0.146484-1.61133-0.537109-2.63672l-22.9004-60.9863c-1.12305-2.97852-3.125-4.49219-6.25-4.49219-3.02734 0-5.07812 1.46484-6.15234 4.44336l-22.9004 61.084c-0.390625 1.02539-0.537109 1.80664-0.537109 2.63672 0 2.44141 1.5625 3.95508 4.10156 3.95508Zm13.4766-28.3691 11.8652-32.8613h0.244141l11.8652 32.8613Z"/>
  </g>
  <line style="fill:none;stroke:#00AEEF;stroke-width:0.5;opacity:1.0;" x1="792.836" x2="792.836" y1="1919" y2="1933"/>
  <text style="stroke:none;fill:black;font-family:sans-serif;font-size:13;font-weight:bold;" transform="matrix(1 0 0 1 776 1953)">Margins</text>
  <text style="stroke:none;fill:black;font-family:sans-serif;font-size:13;" transform="matrix(1 0 0 1 776 1971)">Leading and trailing margins on the left and right side of each symbol</text>
  <text style="stroke:none;fill:black;font-family:sans-serif;font-size:13;" transform="matrix(1 0 0 1 776 1989)">can be adjusted by modifying the x-location of the margin guidelines.</text>
  <text style="stroke:none;fill:black;font-family:sans-serif;font-size:13;" transform="matrix(1 0 0 1 776 2007)">Modifications are automatically applied proportionally to all</text>
  <text style="stroke:none;fill:black;font-family:sans-serif;font-size:13;" transform="matrix(1 0 0 1 776 2025)">scales and weights.</text>
  <g transform="matrix(0.2 0 0 0.2 1289 1933)">
   <path d="m14.209 9.32617 8.49609 8.54492c4.29688 4.3457 9.22852 4.05273 13.8672-1.07422l53.4668-58.9355-4.83398-4.88281-53.0762 58.3984c-1.75781 2.00195-3.41797 2.49023-5.76172 0.146484l-5.85938-5.81055c-2.34375-2.29492-1.80664-4.00391 0.195312-5.81055l57.373-54.0039-4.88281-4.83398-57.959 54.4434c-4.93164 4.58984-5.32227 9.47266-1.02539 13.8184Zm32.0801-90.9668c-2.09961 2.05078-2.24609 4.93164-1.07422 6.88477 1.17188 1.80664 3.4668 2.97852 6.68945 2.14844 7.32422-1.70898 14.9414-2.00195 22.0703 2.68555l-2.92969 7.27539c-1.70898 4.15039-0.830078 7.08008 1.85547 9.81445l11.4746 11.5723c2.44141 2.44141 4.49219 2.53906 7.32422 2.05078l5.32227-0.976562 3.32031 3.36914-0.195312 2.7832c-0.195312 2.49023 0.439453 4.39453 2.88086 6.78711l3.80859 3.71094c2.39258 2.39258 5.46875 2.53906 7.8125 0.195312l14.5508-14.5996c2.34375-2.34375 2.24609-5.32227-0.146484-7.71484l-3.85742-3.80859c-2.39258-2.39258-4.24805-3.17383-6.64062-2.97852l-2.88086 0.244141-3.22266-3.17383 1.2207-5.61523c0.634766-2.83203-0.146484-5.0293-3.07617-7.95898l-10.9863-10.9375c-16.6992-16.6016-38.8672-16.2109-53.3203-1.75781Zm7.4707 1.85547c12.1582-8.88672 28.6133-7.37305 39.7461 3.75977l12.1582 12.0605c1.17188 1.17188 1.36719 2.09961 1.02539 3.80859l-1.61133 7.42188 7.51953 7.42188 4.93164-0.292969c1.26953-0.0488281 1.66016 0.0488281 2.63672 1.02539l2.88086 2.88086-12.207 12.207-2.88086-2.88086c-0.976562-0.976562-1.12305-1.36719-1.07422-2.68555l0.341797-4.88281-7.4707-7.42188-7.61719 1.26953c-1.61133 0.341797-2.34375 0.195312-3.56445-0.976562l-10.0098-10.0098c-1.26953-1.17188-1.41602-2.00195-0.634766-3.85742l4.39453-10.4492c-7.8125-7.27539-17.9688-10.4004-28.125-7.42188-0.78125 0.195312-1.07422-0.439453-0.439453-0.976562Z"/>
  </g>
  <text style="stroke:none;fill:black;font-family:sans-serif;font-size:13;font-weight:bold;" transform="matrix(1 0 0 1 1289 1953)">Exporting</text>
  <text style="stroke:none;fill:black;font-family:sans-serif;font-size:13;" transform="matrix(1 0 0 1 1289 1971)">Symbols should be outlined when exporting to ensure the</text>
  <text style="stroke:none;fill:black;font-family:sans-serif;font-size:13;" transform="matrix(1 0 0 1 1289 1989)">design is preserved when submitting to Xcode.</text>
  <text id="template-version" style="stroke:none;fill:black;font-family:sans-serif;font-size:13;text-anchor:end;" transform="matrix(1 0 0 1 3036 1933)">Template v.5.0</text>
  <text style="stroke:none;fill:black;font-family:sans-serif;font-size:13;text-anchor:end;" transform="matrix(1 0 0 1 3036 1951)">Requires Xcode 15 or greater</text>
  <text id="descriptive-name" style="stroke:none;fill:black;font-family:sans-serif;font-size:13;text-anchor:end;" transform="matrix(1 0 0 1 3036 1969)">Generated from cable.connector.lightning</text>
  <text style="stroke:none;fill:black;font-family:sans-serif;font-size:13;text-anchor:end;" transform="matrix(1 0 0 1 3036 1987)">Typeset at 100.0 points</text>
  <text style="stroke:none;fill:black;font-family:sans-serif;font-size:13;" transform="matrix(1 0 0 1 263 726)">Small</text>
  <text style="stroke:none;fill:black;font-family:sans-serif;font-size:13;" transform="matrix(1 0 0 1 263 1156)">Medium</text>
  <text style="stroke:none;fill:black;font-family:sans-serif;font-size:13;" transform="matrix(1 0 0 1 263 1586)">Large</text>
 </g>
 <g id="Guides">
  <g id="H-reference" style="fill:#27AAE1;stroke:none;" transform="matrix(1 0 0 1 339 696)">
   <path d="M0.993654 0L3.63775 0L29.3281-67.1323L30.0303-67.1323L30.0303-70.459L28.1226-70.459ZM11.6885-24.4799L46.9815-24.4799L46.2315-26.7285L12.4385-26.7285ZM55.1196 0L57.7637 0L30.6382-70.459L29.4326-70.459L29.4326-67.1323Z"/>
  </g>
  <line id="Baseline-S" style="fill:none;stroke:#27AAE1;opacity:1;stroke-width:0.5;" x1="263" x2="3036" y1="696" y2="696"/>
  <line id="Capline-S" style="fill:none;stroke:#27AAE1;opacity:1;stroke-width:0.5;" x1="263" x2="3036" y1="625.541" y2="625.541"/>
  <g id="H-reference" style="fill:#27AAE1;stroke:none;" transform="matrix(1 0 0 1 339 1126)">
   <path d="M0.993654 0L3.63775 0L29.3281-67.1323L30.0303-67.1323L30.0303-70.459L28.1226-70.459ZM11.6885-24.4799L46.9815-24.4799L46.2315-26.7285L12.4385-26.7285ZM55.1196 0L57.7637 0L30.6382-70.459L29.4326-70.459L29.4326-67.1323Z"/>
  </g>
  <line id="Baseline-M" style="fill:none;stroke:#27AAE1;opacity:1;stroke-width:0.5;" x1="263" x2="3036" y1="1126" y2="1126"/>
  <line id="Capline-M" style="fill:none;stroke:#27AAE1;opacity:1;stroke-width:0.5;" x1="263" x2="3036" y1="1055.54" y2="1055.54"/>
  <g id="H-reference" style="fill:#27AAE1;stroke:none;" transform="matrix(1 0 0 1 339 1556)">
   <path d="M0.993654 0L3.63775 0L29.3281-67.1323L30.0303-67.1323L30.0303-70.459L28.1226-70.459ZM11.6885-24.4799L46.9815-24.4799L46.2315-26.7285L12.4385-26.7285ZM55.1196 0L57.7637 0L30.6382-70.459L29.4326-70.459L29.4326-67.1323Z"/>
  </g>
  <line id="Baseline-L" style="fill:none;stroke:#27AAE1;opacity:1;stroke-width:0.5;" x1="263" x2="3036" y1="1556" y2="1556"/>
  <line id="Capline-L" style="fill:none;stroke:#27AAE1;opacity:1;stroke-width:0.5;" x1="263" x2="3036" y1="1485.54" y2="1485.54"/>
  <line id="left-margin-Ultralight-S" style="fill:none;stroke:#00AEEF;stroke-width:0.5;opacity:1.0;" x1="538.184" x2="538.184" y1="600.785" y2="720.121"/>
  <line id="right-margin-Ultralight-S" style="fill:none;stroke:#00AEEF;stroke-width:0.5;opacity:1.0;" x1="581.238" x2="581.238" y1="600.785" y2="720.121"/>
  <line id="left-margin-Regular-S" style="fill:none;stroke:#00AEEF;stroke-width:0.5;opacity:1.0;" x1="1427.43" x2="1427.43" y1="600.785" y2="720.121"/>
  <line id="right-margin-Regular-S" style="fill:none;stroke:#00AEEF;stroke-width:0.5;opacity:1.0;" x1="1472.26" x2="1472.26" y1="600.785" y2="720.121"/>
  <line id="left-margin-Black-S" style="fill:none;stroke:#00AEEF;stroke-width:0.5;opacity:1.0;" x1="2908.94" x2="2908.94" y1="600.785" y2="720.121"/>
  <line id="right-margin-Black-S" style="fill:none;stroke:#00AEEF;stroke-width:0.5;opacity:1.0;" x1="2957.86" x2="2957.86" y1="600.785" y2="720.121"/>
 </g>
 <g id="Symbols">
  <g id="Black-S" transform="matrix(1 0 0 1 2908.94 696)">
   <path class="monochrome-0 multicolor-0:tintColor hierarchical-0:tertiary SFSymbolsPreviewWireframe" d="M17.5616-5.82278L31.7203-5.82278L31.7203 5.65834C31.7203 9.52017 28.5505 12.6514 24.6409 12.6514C20.7314 12.6514 17.5616 9.52017 17.5616 5.65834L17.5616-5.82278Z"/>
   <path class="monochrome-1 multicolor-1:tintColor hierarchical-1:secondary SFSymbolsPreviewWireframe" d="M40.3007-63.1767C43.3127-62.4629 45.5536-59.756 45.5536-56.5257L45.5536-54.2767C45.5536-50.5017 42.4934-47.4416 38.7185-47.4416L10.335-47.4416C6.56012-47.4416 3.49994-50.5017 3.49994-54.2767L3.49994-56.5257C3.49994-59.759 5.74505-62.468 8.7614-63.1787L8.7614-77.7422C8.7614-80.646 11.1154-83 14.0192-83L35.0429-83C37.9467-83 40.3007-80.646 40.3007-77.7422L40.3007-63.1767L40.3007-63.1767ZM12.0671-7.91025C7.41796-7.91025 3.61411-11.5633 3.61411-16.1558L3.61411-49.7641C5.51603-47.2592 8.58024-45.5892 12.0671-45.5892L37.1091-45.5892C40.596-45.5892 43.6602-47.2592 45.5621-49.7641L45.5621-16.2602C45.5621-11.6677 41.7583-7.91025 37.1091-7.91025L12.0671-7.91025Z"/>
   <path class="monochrome-1 monochrome-2 multicolor-1:tintColor multicolor-2:custom hierarchical-1:secondary hierarchical-2:primary SFSymbolsPreviewWireframe" d="M14.4826-81.573C12.1596-81.573 10.2764-79.6898 10.2764-77.3668L10.2764-54.7189L38.7857-54.7189L38.7857-77.3668C38.7857-79.6898 36.9025-81.573 34.5795-81.573L14.4826-81.573Z"/>
   <path class="monochrome-3 multicolor-3:white hierarchical-3:primary SFSymbolsPreviewWireframe" d="M14.5936-79.8854L34.4685-79.8854C36.2107-79.8854 37.6231-78.473 37.6231-76.7308L37.6231-71.473C37.6231-69.7307 36.2107-68.3183 34.4685-68.3183L14.5936-68.3183C12.8513-68.3183 11.4389-69.7307 11.4389-71.473L11.4389-76.7308C11.4389-78.473 12.8513-79.8854 14.5936-79.8854Z"/>
   <path class="monochrome-4 multicolor-4:systemYellowColor hierarchical-4:primary SFSymbolsPreviewWireframe" d="M13.5289-77.1938L13.5289-71.4581L14.2059-71.4857L14.8737-71.5135L14.8737-77.1383L14.2059-77.1661L13.5289-77.1938ZM16.5178-71.5414C16.555-71.5046 16.8611-71.4861 17.1949-71.5045L17.7978-71.5322L17.8256-74.3632L17.8442-77.2032L16.4529-77.2032L16.4529-74.4093C16.4529-72.8693 16.4808-71.5784 16.5178-71.5414ZM19.4546-71.5874C19.4824-71.5044 19.705-71.4675 20.1502-71.4674L20.7994-71.4674L20.7994-77.1939L20.1316-77.1662L19.4546-77.1384L19.4268-74.4182C19.4175-72.9244 19.4268-71.6519 19.4546-71.5874ZM22.3786-77.2031L22.3786-71.4859L23.6771-71.4859L23.6771-77.2031L22.3786-77.2031ZM25.2563-77.1938L25.2563-71.4581L25.9333-71.4857L26.6011-71.5135L26.6011-77.1383L25.9333-77.1661L25.2563-77.1938ZM28.1803-77.1938L28.1803-71.4581L28.8573-71.4857L29.5251-71.5135L29.5251-77.1383L28.8573-77.1661L28.1803-77.1938ZM31.16-71.5507C31.1971-71.5139 31.5032-71.4954 31.8371-71.5138L32.4494-71.5322L32.4771-74.3632L32.4957-77.2032L31.1043-77.2032L31.1043-74.4093C31.1043-72.8693 31.1322-71.5784 31.16-71.5507ZM34.1061-71.5874C34.1339-71.5044 34.3565-71.4675 34.8017-71.4674L35.451-71.4674L35.451-77.1939L34.7832-77.1662L34.1061-77.1384L34.0783-74.4182C34.069-72.9244 34.0783-71.6519 34.1061-71.5874Z"/>
  </g>
  <g id="Regular-S" transform="matrix(1 0 0 1 1427.43 696)">
   <path class="monochrome-0 multicolor-0:tintColor hierarchical-0:tertiary SFSymbolsPreviewWireframe" d="M15.3722-7.60655L28.8368-7.60655L28.8368 3.31169C28.8368 6.98418 25.8224 9.96188 22.1045 9.96188C18.3867 9.96188 15.3722 6.98418 15.3722 3.31169L15.3722-7.60655Z"/>
   <path class="monochrome-1 multicolor-1:tintColor hierarchical-1:secondary SFSymbolsPreviewWireframe" d="M36.9965-62.1486C39.8609-61.4698 41.9919-58.8956 41.9919-55.8236L41.9919-53.6849C41.9919-50.095 39.0818-47.1849 35.4919-47.1849L8.5-47.1849C4.91015-47.1849 2-50.095 2-53.6849L2-55.8236C2-58.8985 4.13504-61.4746 7.0035-62.1505L7.0035-76C7.0035-78.7614 9.24208-81 12.0035-81L31.9965-81C34.7579-81 36.9965-78.7614 36.9965-76L36.9965-62.1486L36.9965-62.1486ZM10.1471-9.59168C5.72593-9.59168 2.10857-13.0657 2.10857-17.433L2.10857-49.3936C3.91725-47.0114 6.83123-45.4233 10.1471-45.4233L33.9614-45.4233C37.2773-45.4233 40.1913-47.0114 42-49.3936L42-17.5322C42-13.1649 38.3826-9.59168 33.9614-9.59168L10.1471-9.59168Z"/>
   <path class="monochrome-1 monochrome-2 multicolor-1:tintColor multicolor-2:custom hierarchical-1:secondary hierarchical-2:primary SFSymbolsPreviewWireframe" d="M12.4442-79.6429C10.2351-79.6429 8.4442-77.8521 8.4442-75.6429L8.4442-54.1055L35.5558-54.1055L35.5558-75.6429C35.5558-77.8521 33.7649-79.6429 31.5558-79.6429L12.4442-79.6429Z"/>
   <path class="monochrome-3 multicolor-3:white hierarchical-3:primary SFSymbolsPreviewWireframe" d="M12.5498-78.0381L31.4502-78.0381C33.1071-78.0381 34.4502-76.695 34.4502-75.0381L34.4502-70.0381C34.4502-68.3813 33.1071-67.0381 31.4502-67.0381L12.5498-67.0381C10.8929-67.0381 9.54977-68.3813 9.54977-70.0381L9.54977-75.0381C9.54977-76.695 10.8929-78.0381 12.5498-78.0381Z"/>
   <path class="monochrome-4 multicolor-4:systemYellowColor hierarchical-4:primary SFSymbolsPreviewWireframe" d="M11.5372-75.4785L11.5372-70.0239L12.1811-70.0502L12.8162-70.0766L12.8162-75.4257L12.1811-75.4521L11.5372-75.4785ZM14.3797-70.1032C14.415-70.0682 14.7061-70.0506 15.0235-70.0681L15.5969-70.0944L15.6233-72.7866L15.641-75.4874L14.3179-75.4874L14.3179-72.8305C14.3179-71.366 14.3444-70.1383 14.3797-70.1032ZM17.1724-70.1469C17.1989-70.068 17.4106-70.0329 17.8339-70.0328L18.4514-70.0328L18.4514-75.4786L17.8163-75.4522L17.1724-75.4258L17.146-72.839C17.1372-71.4184 17.146-70.2082 17.1724-70.1469ZM19.9531-75.4873L19.9531-70.0504L21.188-70.0504L21.188-75.4873L19.9531-75.4873ZM22.6897-75.4785L22.6897-70.0239L23.3335-70.0502L23.9686-70.0766L23.9686-75.4257L23.3335-75.4521L22.6897-75.4785ZM25.4703-75.4785L25.4703-70.0239L26.1142-70.0502L26.7493-70.0766L26.7493-75.4257L26.1142-75.4521L25.4703-75.4785ZM28.3039-70.1121C28.3393-70.077 28.6304-70.0594 28.9479-70.0769L29.5301-70.0944L29.5565-72.7866L29.5742-75.4874L28.251-75.4874L28.251-72.8305C28.251-71.366 28.2775-70.1383 28.3039-70.1121ZM31.1056-70.1469C31.1321-70.068 31.3437-70.0329 31.7671-70.0328L32.3846-70.0328L32.3846-75.4786L31.7495-75.4522L31.1056-75.4258L31.0792-72.839C31.0704-71.4184 31.0792-70.2082 31.1056-70.1469Z"/>
  </g>
  <g id="Ultralight-S" transform="matrix(1 0 0 1 538.184 696)">
   <path class="monochrome-0 multicolor-0:tintColor hierarchical-0:tertiary SFSymbolsPreviewWireframe" d="M15.9079-10.5766L27.9104-10.5766L27.9104-0.843988C27.9104 2.4297 25.2233 5.08404 21.9092 5.08404C18.5951 5.08404 15.9079 2.4297 15.9079-0.843988L15.9079-10.5766Z"/>
   <path class="monochrome-1 multicolor-1:tintColor hierarchical-1:secondary SFSymbolsPreviewWireframe" d="M35.184-59.1957C37.7373-58.5906 39.6369-56.296 39.6369-53.5576L39.6369-51.6511C39.6369-48.4511 37.0428-45.857 33.8428-45.857L9.78201-45.857C6.58199-45.857 3.98786-48.4511 3.98786-51.6511L3.98786-53.5576C3.98786-56.2985 5.89105-58.5949 8.44802-59.1974L8.44802-71.543C8.44802-74.0045 10.4435-76 12.9051-76L30.7269-76C33.1885-76 35.184-74.0045 35.184-71.543L35.184-59.1957L35.184-59.1957ZM11.2503-12.3461C7.30918-12.3461 4.08464-15.4429 4.08464-19.3359L4.08464-47.8258C5.69691-45.7024 8.29446-44.2867 11.2503-44.2867L32.4785-44.2867C35.4343-44.2867 38.0319-45.7024 39.6441-47.8258L39.6441-19.4244C39.6441-15.5313 36.4196-12.3461 32.4785-12.3461L11.2503-12.3461Z"/>
   <path class="monochrome-1 monochrome-2 multicolor-1:tintColor multicolor-2:custom hierarchical-1:secondary hierarchical-2:primary SFSymbolsPreviewWireframe" d="M13.2979-74.7903C11.3287-74.7903 9.73227-73.1939 9.73227-71.2247L9.73227-52.026L33.8997-52.026L33.8997-71.2247C33.8997-73.1939 32.3033-74.7903 30.3341-74.7903L13.2979-74.7903Z"/>
   <path class="monochrome-3 multicolor-3:white hierarchical-3:primary SFSymbolsPreviewWireframe" d="M13.392-73.3598L30.24-73.3598C31.7169-73.3598 32.9142-72.1625 32.9142-70.6855L32.9142-66.2285C32.9142-64.7516 31.7169-63.5543 30.24-63.5543L13.392-63.5543C11.9151-63.5543 10.7178-64.7516 10.7178-66.2285L10.7178-70.6855C10.7178-72.1625 11.9151-73.3598 13.392-73.3598Z"/>
   <path class="monochrome-4 multicolor-4:systemYellowColor hierarchical-4:primary SFSymbolsPreviewWireframe" d="M12.4894-71.0781L12.4894-66.2159L13.0634-66.2393L13.6295-66.2628L13.6295-71.031L13.0634-71.0546L12.4894-71.0781ZM15.0232-66.2865C15.0547-66.2553 15.3142-66.2397 15.5971-66.2552L16.1082-66.2787L16.1318-68.6785L16.1475-71.0861L14.9681-71.0861L14.9681-68.7177C14.9681-67.4122 14.9918-66.3178 15.0232-66.2865ZM17.5127-66.3255C17.5362-66.2551 17.7249-66.2239 18.1023-66.2238L18.6527-66.2238L18.6527-71.0782L18.0866-71.0546L17.5127-71.0311L17.4891-68.7252C17.4812-67.4589 17.4891-66.3801 17.5127-66.3255ZM19.9914-71.086L19.9914-66.2395L21.0921-66.2395L21.0921-71.086L19.9914-71.086ZM22.4308-71.0781L22.4308-66.2159L23.0047-66.2393L23.5708-66.2628L23.5708-71.031L23.0047-71.0546L22.4308-71.0781ZM24.9095-71.0781L24.9095-66.2159L25.4834-66.2393L26.0495-66.2628L26.0495-71.031L25.4834-71.0546L24.9095-71.0781ZM27.4354-66.2944C27.4669-66.2632 27.7264-66.2475 28.0094-66.2631L28.5284-66.2787L28.552-68.6785L28.5677-71.0861L27.3882-71.0861L27.3882-68.7177C27.3882-67.4122 27.4118-66.3178 27.4354-66.2944ZM29.9328-66.3255C29.9564-66.2551 30.1451-66.2239 30.5225-66.2238L31.0729-66.2238L31.0729-71.0782L30.5068-71.0546L29.9328-71.0311L29.9093-68.7252C29.9014-67.4589 29.9093-66.3801 29.9328-66.3255Z"/>
  </g>
 </g>
</svg>
