<?xml version="1.0" encoding="UTF-8"?>
<!--Generator: Apple Native CoreSVG 232.5-->
<!DOCTYPE svg
PUBLIC "-//W3C//DTD SVG 1.1//EN"
       "http://www.w3.org/Graphics/SVG/1.1/DTD/svg11.dtd">
<svg version="1.1" xmlns="http://www.w3.org/2000/svg" xmlns:xlink="http://www.w3.org/1999/xlink" width="3300" height="2200">
 <!--glyph: "", point size: 100.0, font version: "19.2d2e1", template writer version: "128"-->
 <style>.monochrome-0 {-sfsymbols-motion-group:2}
.monochrome-1 {-sfsymbols-motion-group:1}
.monochrome-2 {-sfsymbols-motion-group:0}

.multicolor-0:tintColor {-sfsymbols-motion-group:2}
.multicolor-1:systemGrayColor {-sfsymbols-motion-group:1}
.multicolor-2:systemOrangeColor {-sfsymbols-motion-group:0}

.hierarchical-0:tertiary {-sfsymbols-motion-group:2}
.hierarchical-1:primary {-sfsymbols-motion-group:1}
.hierarchical-2:secondary {-sfsymbols-motion-group:0}

.SFSymbolsPreviewWireframe {fill:none;opacity:1.0;stroke:black;stroke-width:0.5}
</style>
 <g id="Notes">
  <rect height="2200" id="artboard" style="fill:white;opacity:1" width="3300" x="0" y="0"/>
  <line style="fill:none;stroke:black;opacity:1;stroke-width:0.5;" x1="263" x2="3036" y1="292" y2="292"/>
  <text style="stroke:none;fill:black;font-family:sans-serif;font-size:13;font-weight:bold;" transform="matrix(1 0 0 1 263 322)">Weight/Scale Variations</text>
  <text style="stroke:none;fill:black;font-family:sans-serif;font-size:13;text-anchor:middle;" transform="matrix(1 0 0 1 559.711 322)">Ultralight</text>
  <text style="stroke:none;fill:black;font-family:sans-serif;font-size:13;text-anchor:middle;" transform="matrix(1 0 0 1 856.422 322)">Thin</text>
  <text style="stroke:none;fill:black;font-family:sans-serif;font-size:13;text-anchor:middle;" transform="matrix(1 0 0 1 1153.13 322)">Light</text>
  <text style="stroke:none;fill:black;font-family:sans-serif;font-size:13;text-anchor:middle;" transform="matrix(1 0 0 1 1449.84 322)">Regular</text>
  <text style="stroke:none;fill:black;font-family:sans-serif;font-size:13;text-anchor:middle;" transform="matrix(1 0 0 1 1746.56 322)">Medium</text>
  <text style="stroke:none;fill:black;font-family:sans-serif;font-size:13;text-anchor:middle;" transform="matrix(1 0 0 1 2043.27 322)">Semibold</text>
  <text style="stroke:none;fill:black;font-family:sans-serif;font-size:13;text-anchor:middle;" transform="matrix(1 0 0 1 2339.98 322)">Bold</text>
  <text style="stroke:none;fill:black;font-family:sans-serif;font-size:13;text-anchor:middle;" transform="matrix(1 0 0 1 2636.69 322)">Heavy</text>
  <text style="stroke:none;fill:black;font-family:sans-serif;font-size:13;text-anchor:middle;" transform="matrix(1 0 0 1 2933.4 322)">Black</text>
  <line style="fill:none;stroke:black;opacity:1;stroke-width:0.5;" x1="263" x2="3036" y1="1903" y2="1903"/>
  <g transform="matrix(0.2 0 0 0.2 263 1933)">
   <path d="m46.2402 4.15039c21.5332 0 39.4531-17.8711 39.4531-39.4043s-17.9688-39.4043-39.502-39.4043c-21.4844 0-39.3555 17.8711-39.3555 39.4043s17.9199 39.4043 39.4043 39.4043Zm0-7.42188c-17.7246 0-31.8848-14.209-31.8848-31.9824s14.1113-31.9824 31.8359-31.9824c17.7734 0 32.0312 14.209 32.0312 31.9824s-14.209 31.9824-31.9824 31.9824Zm-17.9688-31.9824c0 2.14844 1.51367 3.61328 3.75977 3.61328h10.498v10.5957c0 2.19727 1.46484 3.71094 3.61328 3.71094 2.24609 0 3.71094-1.51367 3.71094-3.71094v-10.5957h10.5957c2.19727 0 3.71094-1.46484 3.71094-3.61328 0-2.19727-1.51367-3.71094-3.71094-3.71094h-10.5957v-10.5469c0-2.24609-1.46484-3.75977-3.71094-3.75977-2.14844 0-3.61328 1.51367-3.61328 3.75977v10.5469h-10.498c-2.24609 0-3.75977 1.51367-3.75977 3.71094Z"/>
  </g>
  <g transform="matrix(0.2 0 0 0.2 281.506 1933)">
   <path d="m58.5449 14.5508c27.2461 0 49.8047-22.6074 49.8047-49.8047 0-27.2461-22.6074-49.8047-49.8535-49.8047-27.1973 0-49.7559 22.5586-49.7559 49.8047 0 27.1973 22.6074 49.8047 49.8047 49.8047Zm0-8.30078c-23.0469 0-41.4551-18.457-41.4551-41.5039s18.3594-41.5039 41.4062-41.5039 41.5527 18.457 41.5527 41.5039-18.457 41.5039-41.5039 41.5039Zm-22.6562-41.5039c0 2.39258 1.66016 4.00391 4.15039 4.00391h14.3555v14.4043c0 2.44141 1.66016 4.15039 4.05273 4.15039 2.44141 0 4.15039-1.66016 4.15039-4.15039v-14.4043h14.4043c2.44141 0 4.15039-1.61133 4.15039-4.00391 0-2.44141-1.70898-4.15039-4.15039-4.15039h-14.4043v-14.3555c0-2.49023-1.70898-4.19922-4.15039-4.19922-2.39258 0-4.05273 1.70898-4.05273 4.19922v14.3555h-14.3555c-2.49023 0-4.15039 1.70898-4.15039 4.15039Z"/>
  </g>
  <g transform="matrix(0.2 0 0 0.2 304.924 1933)">
   <path d="m74.8535 28.3203c34.8145 0 63.623-28.8086 63.623-63.5742 0-34.8145-28.8574-63.623-63.6719-63.623-34.7656 0-63.5254 28.8086-63.5254 63.623 0 34.7656 28.8086 63.5742 63.5742 63.5742Zm0-9.08203c-30.1758 0-54.4434-24.3164-54.4434-54.4922 0-30.2246 24.2188-54.4922 54.3945-54.4922 30.2246 0 54.541 24.2676 54.541 54.4922 0 30.1758-24.2676 54.4922-54.4922 54.4922Zm-28.8574-54.4922c0 2.58789 1.85547 4.39453 4.58984 4.39453h19.7266v19.7754c0 2.68555 1.85547 4.58984 4.44336 4.58984 2.68555 0 4.54102-1.85547 4.54102-4.58984v-19.7754h19.7754c2.68555 0 4.58984-1.80664 4.58984-4.39453 0-2.73438-1.85547-4.58984-4.58984-4.58984h-19.7754v-19.7266c0-2.73438-1.85547-4.63867-4.54102-4.63867-2.58789 0-4.44336 1.9043-4.44336 4.63867v19.7266h-19.7266c-2.73438 0-4.58984 1.85547-4.58984 4.58984Z"/>
  </g>
  <text style="stroke:none;fill:black;font-family:sans-serif;font-size:13;font-weight:bold;" transform="matrix(1 0 0 1 263 1953)">Design Variations</text>
  <text style="stroke:none;fill:black;font-family:sans-serif;font-size:13;" transform="matrix(1 0 0 1 263 1971)">Symbols are supported in up to nine weights and three scales.</text>
  <text style="stroke:none;fill:black;font-family:sans-serif;font-size:13;" transform="matrix(1 0 0 1 263 1989)">For optimal layout with text and other symbols, vertically align</text>
  <text style="stroke:none;fill:black;font-family:sans-serif;font-size:13;" transform="matrix(1 0 0 1 263 2007)">symbols with the adjacent text.</text>
  <line style="fill:none;stroke:#00AEEF;stroke-width:0.5;opacity:1.0;" x1="776" x2="776" y1="1919" y2="1933"/>
  <g transform="matrix(0.2 0 0 0.2 776 1933)">
   <path d="m16.5527 0.78125c2.58789 0 3.85742-0.976562 4.78516-3.71094l6.29883-17.2363h28.8086l6.29883 17.2363c0.927734 2.73438 2.19727 3.71094 4.73633 3.71094 2.58789 0 4.24805-1.5625 4.24805-4.00391 0-0.830078-0.146484-1.61133-0.537109-2.63672l-22.9004-60.9863c-1.12305-2.97852-3.125-4.49219-6.25-4.49219-3.02734 0-5.07812 1.46484-6.15234 4.44336l-22.9004 61.084c-0.390625 1.02539-0.537109 1.80664-0.537109 2.63672 0 2.44141 1.5625 3.95508 4.10156 3.95508Zm13.4766-28.3691 11.8652-32.8613h0.244141l11.8652 32.8613Z"/>
  </g>
  <line style="fill:none;stroke:#00AEEF;stroke-width:0.5;opacity:1.0;" x1="792.836" x2="792.836" y1="1919" y2="1933"/>
  <text style="stroke:none;fill:black;font-family:sans-serif;font-size:13;font-weight:bold;" transform="matrix(1 0 0 1 776 1953)">Margins</text>
  <text style="stroke:none;fill:black;font-family:sans-serif;font-size:13;" transform="matrix(1 0 0 1 776 1971)">Leading and trailing margins on the left and right side of each symbol</text>
  <text style="stroke:none;fill:black;font-family:sans-serif;font-size:13;" transform="matrix(1 0 0 1 776 1989)">can be adjusted by modifying the x-location of the margin guidelines.</text>
  <text style="stroke:none;fill:black;font-family:sans-serif;font-size:13;" transform="matrix(1 0 0 1 776 2007)">Modifications are automatically applied proportionally to all</text>
  <text style="stroke:none;fill:black;font-family:sans-serif;font-size:13;" transform="matrix(1 0 0 1 776 2025)">scales and weights.</text>
  <g transform="matrix(0.2 0 0 0.2 1289 1933)">
   <path d="m14.209 9.32617 8.49609 8.54492c4.29688 4.3457 9.22852 4.05273 13.8672-1.07422l53.4668-58.9355-4.83398-4.88281-53.0762 58.3984c-1.75781 2.00195-3.41797 2.49023-5.76172 0.146484l-5.85938-5.81055c-2.34375-2.29492-1.80664-4.00391 0.195312-5.81055l57.373-54.0039-4.88281-4.83398-57.959 54.4434c-4.93164 4.58984-5.32227 9.47266-1.02539 13.8184Zm32.0801-90.9668c-2.09961 2.05078-2.24609 4.93164-1.07422 6.88477 1.17188 1.80664 3.4668 2.97852 6.68945 2.14844 7.32422-1.70898 14.9414-2.00195 22.0703 2.68555l-2.92969 7.27539c-1.70898 4.15039-0.830078 7.08008 1.85547 9.81445l11.4746 11.5723c2.44141 2.44141 4.49219 2.53906 7.32422 2.05078l5.32227-0.976562 3.32031 3.36914-0.195312 2.7832c-0.195312 2.49023 0.439453 4.39453 2.88086 6.78711l3.80859 3.71094c2.39258 2.39258 5.46875 2.53906 7.8125 0.195312l14.5508-14.5996c2.34375-2.34375 2.24609-5.32227-0.146484-7.71484l-3.85742-3.80859c-2.39258-2.39258-4.24805-3.17383-6.64062-2.97852l-2.88086 0.244141-3.22266-3.17383 1.2207-5.61523c0.634766-2.83203-0.146484-5.0293-3.07617-7.95898l-10.9863-10.9375c-16.6992-16.6016-38.8672-16.2109-53.3203-1.75781Zm7.4707 1.85547c12.1582-8.88672 28.6133-7.37305 39.7461 3.75977l12.1582 12.0605c1.17188 1.17188 1.36719 2.09961 1.02539 3.80859l-1.61133 7.42188 7.51953 7.42188 4.93164-0.292969c1.26953-0.0488281 1.66016 0.0488281 2.63672 1.02539l2.88086 2.88086-12.207 12.207-2.88086-2.88086c-0.976562-0.976562-1.12305-1.36719-1.07422-2.68555l0.341797-4.88281-7.4707-7.42188-7.61719 1.26953c-1.61133 0.341797-2.34375 0.195312-3.56445-0.976562l-10.0098-10.0098c-1.26953-1.17188-1.41602-2.00195-0.634766-3.85742l4.39453-10.4492c-7.8125-7.27539-17.9688-10.4004-28.125-7.42188-0.78125 0.195312-1.07422-0.439453-0.439453-0.976562Z"/>
  </g>
  <text style="stroke:none;fill:black;font-family:sans-serif;font-size:13;font-weight:bold;" transform="matrix(1 0 0 1 1289 1953)">Exporting</text>
  <text style="stroke:none;fill:black;font-family:sans-serif;font-size:13;" transform="matrix(1 0 0 1 1289 1971)">Symbols should be outlined when exporting to ensure the</text>
  <text style="stroke:none;fill:black;font-family:sans-serif;font-size:13;" transform="matrix(1 0 0 1 1289 1989)">design is preserved when submitting to Xcode.</text>
  <text id="template-version" style="stroke:none;fill:black;font-family:sans-serif;font-size:13;text-anchor:end;" transform="matrix(1 0 0 1 3036 1933)">Template v.5.0</text>
  <text style="stroke:none;fill:black;font-family:sans-serif;font-size:13;text-anchor:end;" transform="matrix(1 0 0 1 3036 1951)">Requires Xcode 15 or greater</text>
  <text id="descriptive-name" style="stroke:none;fill:black;font-family:sans-serif;font-size:13;text-anchor:end;" transform="matrix(1 0 0 1 3036 1969)">Generated from magsafe1</text>
  <text style="stroke:none;fill:black;font-family:sans-serif;font-size:13;text-anchor:end;" transform="matrix(1 0 0 1 3036 1987)">Typeset at 100.0 points</text>
  <text style="stroke:none;fill:black;font-family:sans-serif;font-size:13;" transform="matrix(1 0 0 1 263 726)">Small</text>
  <text style="stroke:none;fill:black;font-family:sans-serif;font-size:13;" transform="matrix(1 0 0 1 263 1156)">Medium</text>
  <text style="stroke:none;fill:black;font-family:sans-serif;font-size:13;" transform="matrix(1 0 0 1 263 1586)">Large</text>
 </g>
 <g id="Guides">
  <g id="H-reference" style="fill:#27AAE1;stroke:none;" transform="matrix(1 0 0 1 339 696)">
   <path d="M0.993654 0L3.63775 0L29.3281-67.1323L30.0303-67.1323L30.0303-70.459L28.1226-70.459ZM11.6885-24.4799L46.9815-24.4799L46.2315-26.7285L12.4385-26.7285ZM55.1196 0L57.7637 0L30.6382-70.459L29.4326-70.459L29.4326-67.1323Z"/>
  </g>
  <line id="Baseline-S" style="fill:none;stroke:#27AAE1;opacity:1;stroke-width:0.5;" x1="263" x2="3036" y1="696" y2="696"/>
  <line id="Capline-S" style="fill:none;stroke:#27AAE1;opacity:1;stroke-width:0.5;" x1="263" x2="3036" y1="625.541" y2="625.541"/>
  <g id="H-reference" style="fill:#27AAE1;stroke:none;" transform="matrix(1 0 0 1 339 1126)">
   <path d="M0.993654 0L3.63775 0L29.3281-67.1323L30.0303-67.1323L30.0303-70.459L28.1226-70.459ZM11.6885-24.4799L46.9815-24.4799L46.2315-26.7285L12.4385-26.7285ZM55.1196 0L57.7637 0L30.6382-70.459L29.4326-70.459L29.4326-67.1323Z"/>
  </g>
  <line id="Baseline-M" style="fill:none;stroke:#27AAE1;opacity:1;stroke-width:0.5;" x1="263" x2="3036" y1="1126" y2="1126"/>
  <line id="Capline-M" style="fill:none;stroke:#27AAE1;opacity:1;stroke-width:0.5;" x1="263" x2="3036" y1="1055.54" y2="1055.54"/>
  <g id="H-reference" style="fill:#27AAE1;stroke:none;" transform="matrix(1 0 0 1 339 1556)">
   <path d="M0.993654 0L3.63775 0L29.3281-67.1323L30.0303-67.1323L30.0303-70.459L28.1226-70.459ZM11.6885-24.4799L46.9815-24.4799L46.2315-26.7285L12.4385-26.7285ZM55.1196 0L57.7637 0L30.6382-70.459L29.4326-70.459L29.4326-67.1323Z"/>
  </g>
  <line id="Baseline-L" style="fill:none;stroke:#27AAE1;opacity:1;stroke-width:0.5;" x1="263" x2="3036" y1="1556" y2="1556"/>
  <line id="Capline-L" style="fill:none;stroke:#27AAE1;opacity:1;stroke-width:0.5;" x1="263" x2="3036" y1="1485.54" y2="1485.54"/>
  <line id="left-margin-Ultralight-S" style="fill:none;stroke:#00AEEF;stroke-width:0.5;opacity:1.0;" x1="498.001" x2="498.001" y1="600.785" y2="720.121"/>
  <line id="right-margin-Ultralight-S" style="fill:none;stroke:#00AEEF;stroke-width:0.5;opacity:1.0;" x1="621.421" x2="621.421" y1="600.785" y2="720.121"/>
  <line id="left-margin-Regular-S" style="fill:none;stroke:#00AEEF;stroke-width:0.5;opacity:1.0;" x1="1382.41" x2="1382.41" y1="600.785" y2="720.121"/>
  <line id="right-margin-Regular-S" style="fill:none;stroke:#00AEEF;stroke-width:0.5;opacity:1.0;" x1="1517.28" x2="1517.28" y1="600.785" y2="720.121"/>
  <line id="left-margin-Black-S" style="fill:none;stroke:#00AEEF;stroke-width:0.5;opacity:1.0;" x1="2861.82" x2="2861.82" y1="600.785" y2="720.121"/>
  <line id="right-margin-Black-S" style="fill:none;stroke:#00AEEF;stroke-width:0.5;opacity:1.0;" x1="3004.98" x2="3004.98" y1="600.785" y2="720.121"/>
 </g>
 <g id="Symbols">
  <g id="Black-S" transform="matrix(1 0 0 1 2861.82 696)">
   <path class="monochrome-0 multicolor-0:tintColor hierarchical-0:tertiary SFSymbolsPreviewWireframe" d="M9.73238-57.2428L9.73238-70.931L9.91629-70.931L15.473-57.7945L17.7062-57.7945L23.2629-70.931L23.4468-70.931L23.4468-57.2428L26.1792-57.2428L26.1792-76.1987L22.7375-76.1987L16.6947-61.8011L16.4714-61.8011L10.4417-76.1987L7-76.1987L7-57.2428L9.73238-57.2428ZM35.2828-59.384C37.4109-59.384 38.9872-60.7371 38.9872-62.5105L38.9872-63.7059L35.4929-63.4826C33.5225-63.3512 32.6292-62.6813 32.6292-61.4202C32.6292-60.1328 33.7458-59.384 35.2828-59.384ZM34.5603-57.0063C31.8016-57.0063 29.7917-58.6747 29.7917-61.2888C29.7917-63.8636 31.7096-65.348 35.112-65.5582L38.9872-65.7815L38.9872-67.0163C38.9872-68.527 37.9889-69.3809 36.0578-69.3809C34.4814-69.3809 33.3911-68.8029 33.0758-67.7914L30.3435-67.7914C30.6325-70.2479 32.9445-71.8242 36.1892-71.8242C39.7754-71.8242 41.7984-70.0377 41.7984-67.0163L41.7984-57.2428L39.0792-57.2428L39.0792-59.2527L38.8559-59.2527C38.002-57.8208 36.4388-57.0063 34.5603-57.0063ZM55.6837-64.5729C55.6837-67.4235 54.2124-69.2495 51.8084-69.2495C49.3782-69.2495 48.012-67.4235 48.012-64.5729C48.012-61.7223 49.3782-59.8964 51.8084-59.8964C54.2255-59.8964 55.6837-61.7092 55.6837-64.5729ZM51.8478-51.778C48.2747-51.778 45.9627-53.3807 45.6606-55.8109L48.5506-55.8109C48.787-54.7731 49.9824-54.1032 51.8872-54.1032C54.2386-54.1032 55.6311-55.2198 55.6311-57.1114L55.6311-59.8569L55.4209-59.8569C54.5539-58.3068 52.9775-57.453 51.0071-57.453C47.3552-57.453 45.0957-60.2773 45.0957-64.5598C45.0957-68.9211 47.3814-71.7848 51.0334-71.7848C53.0038-71.7848 54.7247-70.8127 55.526-69.2626L55.7493-69.2626L55.7493-71.5484L58.4554-71.5484L58.4554-57.1246C58.4554-53.8536 55.8938-51.778 51.8478-51.778ZM61.9891-62.3397C62.1993-58.9505 65.0237-56.783 69.2273-56.783C73.72-56.783 76.5312-59.0556 76.5312-62.6813C76.5312-65.5319 74.9285-67.1083 71.0402-68.0147L68.9515-68.527C66.4818-69.105 65.4834-69.88 65.4834-71.2331C65.4834-72.9408 67.0335-74.0574 69.3587-74.0574C71.5656-74.0574 73.0894-72.9671 73.3653-71.22L76.2291-71.22C76.0583-74.4121 73.2471-76.6585 69.3981-76.6585C65.2601-76.6585 62.5015-74.4121 62.5015-71.0361C62.5015-68.2511 64.0647-66.5959 67.4933-65.7946L69.9367-65.2035C72.4458-64.6123 73.5492-63.7453 73.5492-62.3003C73.5492-60.6189 71.8152-59.3972 69.4506-59.3972C66.9153-59.3972 65.155-60.54 64.9054-62.3397L61.9891-62.3397ZM84.6758-59.384C86.8039-59.384 88.3803-60.7371 88.3803-62.5105L88.3803-63.7059L84.886-63.4826C82.9155-63.3512 82.0222-62.6813 82.0222-61.4202C82.0222-60.1328 83.1388-59.384 84.6758-59.384ZM83.9533-57.0063C81.1946-57.0063 79.1848-58.6747 79.1848-61.2888C79.1848-63.8636 81.1027-65.348 84.505-65.5582L88.3803-65.7815L88.3803-67.0163C88.3803-68.527 87.3819-69.3809 85.4508-69.3809C83.8745-69.3809 82.7841-68.8029 82.4689-67.7914L79.7365-67.7914C80.0255-70.2479 82.3375-71.8242 85.5822-71.8242C89.1684-71.8242 91.1915-70.0377 91.1915-67.0163L91.1915-57.2428L88.4722-57.2428L88.4722-59.2527L88.2489-59.2527C87.395-57.8208 85.8318-57.0063 83.9533-57.0063ZM96.2227-57.2428L99.0471-57.2428L99.0471-69.105L102.2-69.105L102.2-71.4827L99.0076-71.4827L99.0076-72.6912C99.0076-74.0968 99.717-74.7143 101.07-74.7143C101.543-74.7143 102.042-74.6617 102.318-74.6092L102.318-76.8686C101.766-76.9606 101.346-77 100.794-77C97.8122-77 96.2227-75.7914 96.2227-72.8752L96.2227-71.4827L93.8713-71.4827L93.8713-69.105L96.2227-69.105L96.2227-57.2428ZM110.712-69.4203C108.624-69.4203 107.165-67.949 107.008-65.7158L114.233-65.7158C114.167-67.9621 112.801-69.4203 110.712-69.4203ZM114.22-61.1049L116.939-61.1049C116.295-58.5433 114.009-56.9669 110.738-56.9669C106.64-56.9669 104.131-59.7781 104.131-64.3496C104.131-68.9211 106.692-71.8242 110.725-71.8242C114.706-71.8242 117.11-69.105 117.11-64.6123L117.11-63.6271L107.008-63.6271L107.008-63.4695C107.1-60.9604 108.558-59.3709 110.817-59.3709C112.525-59.3709 113.694-59.9883 114.22-61.1049ZM132.4-57.2428L135.343-57.2428L135.343-76.1987L132.414-76.1987L127.422-72.6781L127.422-69.6699L132.177-73.0328L132.4-73.0328L132.4-57.2428Z"/>
   <path class="monochrome-1 multicolor-1:systemGrayColor hierarchical-1:primary SFSymbolsPreviewWireframe" d="M16.7288-45.1362L127.033-45.1362C130.748-45.1362 133.759-42.125 133.759-38.4104L133.759 0.599593C133.759 4.31418 130.748 7.32545 127.033 7.32545L16.7288 7.32545C13.0143 7.32545 10.003 4.31418 10.003 0.599593L10.003-38.4104C10.003-42.125 13.0143-45.1362 16.7288-45.1362ZM35.9843-35.6024C26.7628-35.6024 19.2873-28.1269 19.2873-18.9054C19.2873-9.6839 26.7628-2.2084 35.9843-2.2084L107.778-2.2084C116.999-2.2084 124.475-9.6839 124.475-18.9054C124.475-28.1269 116.999-35.6024 107.778-35.6024L35.9843-35.6024Z"/>
   <path class="monochrome-2 multicolor-2:systemOrangeColor hierarchical-2:secondary SFSymbolsPreviewWireframe" d="M35.5613-12.8521C32.2181-12.8521 29.508-15.5623 29.508-18.9054C29.508-22.2485 32.2181-24.9587 35.5613-24.9587C38.9044-24.9587 41.6145-22.2485 41.6145-18.9054C41.6145-15.5623 38.9044-12.8521 35.5613-12.8521ZM53.7211-12.8521C50.3779-12.8521 47.6678-15.5623 47.6678-18.9054C47.6678-22.2485 50.3779-24.9587 53.7211-24.9587C57.0642-24.9587 59.7743-22.2485 59.7743-18.9054C59.7743-15.5623 57.0642-12.8521 53.7211-12.8521ZM108.201-12.8521C104.857-12.8521 102.147-15.5623 102.147-18.9054C102.147-22.2485 104.857-24.9587 108.201-24.9587C111.544-24.9587 114.254-22.2485 114.254-18.9054C114.254-15.5623 111.544-12.8521 108.201-12.8521ZM90.0407-12.8521C86.6976-12.8521 83.9874-15.5623 83.9874-18.9054C83.9874-22.2485 86.6976-24.9587 90.0407-24.9587C93.3838-24.9587 96.094-22.2485 96.094-18.9054C96.094-15.5623 93.3838-12.8521 90.0407-12.8521ZM71.8809-15.5425C70.0236-15.5425 68.518-17.0481 68.518-18.9054C68.518-20.7627 70.0236-22.2683 71.8809-22.2683C73.7382-22.2683 75.2438-20.7627 75.2438-18.9054C75.2438-17.0481 73.7382-15.5425 71.8809-15.5425Z"/>
  </g>
  <g id="Regular-S" transform="matrix(1 0 0 1 1382.41 696)">
   <path class="monochrome-0 multicolor-0:tintColor hierarchical-0:tertiary SFSymbolsPreviewWireframe" d="M9.54964-56.5641L9.54964-69.3368L9.72126-69.3368L14.9063-57.0789L16.9902-57.0789L22.1753-69.3368L22.3469-69.3368L22.3469-56.5641L24.8965-56.5641L24.8965-74.2523L21.685-74.2523L16.0463-60.8176L15.838-60.8176L10.2116-74.2523L7-74.2523L7-56.5641L9.54964-56.5641ZM33.3913-58.5621C35.3771-58.5621 36.848-59.8247 36.848-61.4795L36.848-62.595L33.5874-62.3866C31.7487-62.264 30.9152-61.6389 30.9152-60.4621C30.9152-59.2608 31.9571-58.5621 33.3913-58.5621ZM32.7171-56.3435C30.1429-56.3435 28.2675-57.9002 28.2675-60.3395C28.2675-62.7421 30.0571-64.1272 33.2319-64.3234L36.848-64.5317L36.848-65.684C36.848-67.0937 35.9164-67.8904 34.1145-67.8904C32.6435-67.8904 31.6261-67.3511 31.3319-66.4072L28.7823-66.4072C29.052-68.6994 31.2094-70.1704 34.2371-70.1704C37.5835-70.1704 39.4712-68.5033 39.4712-65.684L39.4712-56.5641L36.9338-56.5641L36.9338-58.4396L36.7254-58.4396C35.9287-57.1035 34.47-56.3435 32.7171-56.3435ZM52.4278-63.404C52.4278-66.064 51.0549-67.7678 48.8117-67.7678C46.544-67.7678 45.2692-66.064 45.2692-63.404C45.2692-60.7441 46.544-59.0402 48.8117-59.0402C51.0672-59.0402 52.4278-60.7318 52.4278-63.404ZM48.8485-51.4648C45.5143-51.4648 43.3569-52.9603 43.075-55.228L45.7718-55.228C45.9924-54.2596 47.1079-53.6345 48.8853-53.6345C51.0794-53.6345 52.3788-54.6764 52.3788-56.4415L52.3788-59.0034L52.1826-59.0034C51.3736-57.557 49.9027-56.7602 48.064-56.7602C44.6563-56.7602 42.5479-59.3957 42.5479-63.3918C42.5479-67.4614 44.6808-70.1336 48.0885-70.1336C49.9272-70.1336 51.533-69.2265 52.2807-67.7801L52.4891-67.7801L52.4891-69.913L55.0142-69.913L55.0142-56.4538C55.0142-53.4016 52.6239-51.4648 48.8485-51.4648ZM58.3116-61.3202C58.5077-58.1576 61.1432-56.1351 65.0657-56.1351C69.2579-56.1351 71.8811-58.2557 71.8811-61.6389C71.8811-64.2988 70.3856-65.7698 66.7573-66.6156L64.8083-67.0937C62.5038-67.633 61.5722-68.3562 61.5722-69.6188C61.5722-71.2123 63.0186-72.2542 65.1883-72.2542C67.2476-72.2542 68.6695-71.2368 68.9269-69.6065L71.5992-69.6065C71.4398-72.5852 68.8166-74.6813 65.2251-74.6813C61.3638-74.6813 58.7897-72.5852 58.7897-69.4349C58.7897-66.8362 60.2483-65.2917 63.4477-64.544L65.7276-63.9924C68.0689-63.4408 69.0986-62.6318 69.0986-61.2834C69.0986-59.7144 67.4805-58.5744 65.2741-58.5744C62.9083-58.5744 61.2657-59.6408 61.0328-61.3202L58.3116-61.3202ZM79.481-58.5621C81.4668-58.5621 82.9377-59.8247 82.9377-61.4795L82.9377-62.595L79.6771-62.3866C77.8384-62.264 77.0049-61.6389 77.0049-60.4621C77.0049-59.2608 78.0468-58.5621 79.481-58.5621ZM78.8068-56.3435C76.2327-56.3435 74.3572-57.9002 74.3572-60.3395C74.3572-62.7421 76.1468-64.1272 79.3216-64.3234L82.9377-64.5317L82.9377-65.684C82.9377-67.0937 82.0061-67.8904 80.2042-67.8904C78.7333-67.8904 77.7159-67.3511 77.4217-66.4072L74.872-66.4072C75.1417-68.6994 77.2991-70.1704 80.3268-70.1704C83.6732-70.1704 85.5609-68.5033 85.5609-65.684L85.5609-56.5641L83.0235-56.5641L83.0235-58.4396L82.8151-58.4396C82.0184-57.1035 80.5597-56.3435 78.8068-56.3435ZM90.2557-56.5641L92.8911-56.5641L92.8911-67.633L95.833-67.633L95.833-69.8517L92.8544-69.8517L92.8544-70.9794C92.8544-72.291 93.5163-72.8671 94.7789-72.8671C95.2201-72.8671 95.6859-72.8181 95.9434-72.7691L95.9434-74.8774C95.4285-74.9632 95.0363-75 94.5214-75C91.7389-75 90.2557-73.8723 90.2557-71.151L90.2557-69.8517L88.0615-69.8517L88.0615-67.633L90.2557-67.633L90.2557-56.5641ZM103.776-67.9272C101.827-67.9272 100.467-66.5543 100.319-64.4705L107.061-64.4705C107-66.5666 105.725-67.9272 103.776-67.9272ZM107.049-60.1679L109.586-60.1679C108.986-57.7776 106.853-56.3067 103.801-56.3067C99.9762-56.3067 97.635-58.9299 97.635-63.1956C97.635-67.4614 100.025-70.1704 103.788-70.1704C107.503-70.1704 109.746-67.633 109.746-63.4408L109.746-62.5215L100.319-62.5215L100.319-62.3744C100.405-60.0331 101.766-58.5499 103.874-58.5499C105.468-58.5499 106.559-59.126 107.049-60.1679ZM124.014-56.5641L126.76-56.5641L126.76-74.2523L124.026-74.2523L119.368-70.9671L119.368-68.1601L123.806-71.2981L124.014-71.2981L124.014-56.5641Z"/>
   <path class="monochrome-1 multicolor-1:systemGrayColor hierarchical-1:primary SFSymbolsPreviewWireframe" d="M16.0782-45.2672L119.005-45.2672C122.472-45.2672 125.281-42.4573 125.281-38.9912L125.281-2.5901C125.281 0.876066 122.472 3.68595 119.005 3.68595L16.0782 3.68595C12.612 3.68595 9.80216 0.876066 9.80216-2.5901L9.80216-38.9912C9.80216-42.4573 12.612-45.2672 16.0782-45.2672ZM34.0459-36.371C25.4411-36.371 18.4655-29.3954 18.4655-20.7906C18.4655-12.1859 25.4411-5.2103 34.0459-5.2103L101.038-5.2103C109.643-5.2103 116.618-12.1859 116.618-20.7906C116.618-29.3954 109.643-36.371 101.038-36.371L34.0459-36.371Z"/>
   <path class="monochrome-2 multicolor-2:systemOrangeColor hierarchical-2:secondary SFSymbolsPreviewWireframe" d="M33.6511-15.1422C30.5316-15.1422 28.0027-17.6711 28.0027-20.7906C28.0027-23.9102 30.5316-26.4391 33.6511-26.4391C36.7707-26.4391 39.2996-23.9102 39.2996-20.7906C39.2996-17.6711 36.7707-15.1422 33.6511-15.1422ZM50.5965-15.1422C47.4769-15.1422 44.948-17.6711 44.948-20.7906C44.948-23.9102 47.4769-26.4391 50.5965-26.4391C53.716-26.4391 56.2449-23.9102 56.2449-20.7906C56.2449-17.6711 53.716-15.1422 50.5965-15.1422ZM101.432-15.1422C98.3129-15.1422 95.784-17.6711 95.784-20.7906C95.784-23.9102 98.3129-26.4391 101.432-26.4391C104.552-26.4391 107.081-23.9102 107.081-20.7906C107.081-17.6711 104.552-15.1422 101.432-15.1422ZM84.4871-15.1422C81.3676-15.1422 78.8387-17.6711 78.8387-20.7906C78.8387-23.9102 81.3676-26.4391 84.4871-26.4391C87.6067-26.4391 90.1356-23.9102 90.1356-20.7906C90.1356-17.6711 87.6067-15.1422 84.4871-15.1422ZM67.5418-17.6526C65.8087-17.6526 64.4038-19.0576 64.4038-20.7906C64.4038-22.5237 65.8087-23.9287 67.5418-23.9287C69.2749-23.9287 70.6798-22.5237 70.6798-20.7906C70.6798-19.0576 69.2749-17.6526 67.5418-17.6526Z"/>
  </g>
  <g id="Ultralight-S" transform="matrix(1 0 0 1 498.001 696)">
   <path class="monochrome-0 multicolor-0:tintColor hierarchical-0:tertiary SFSymbolsPreviewWireframe" d="M8.35251-55.9823L8.35251-67.7725L8.51092-67.7725L13.2971-56.4575L15.2207-56.4575L20.0069-67.7725L20.1653-67.7725L20.1653-55.9823L22.5188-55.9823L22.5188-72.3098L19.5543-72.3098L14.3494-59.9086L14.1571-59.9086L8.96352-72.3098L5.999-72.3098L5.999-55.9823L8.35251-55.9823ZM30.3601-57.8267C32.1931-57.8267 33.5509-58.9921 33.5509-60.5196L33.5509-61.5493L30.5411-61.3569C28.8439-61.2438 28.0745-60.6667 28.0745-59.5805C28.0745-58.4716 29.0362-57.8267 30.3601-57.8267ZM29.7378-55.7786C27.3616-55.7786 25.6304-57.2156 25.6304-59.4673C25.6304-61.6851 27.2824-62.9636 30.213-63.1447L33.5509-63.337L33.5509-64.4006C33.5509-65.7019 32.691-66.4373 31.0277-66.4373C29.6699-66.4373 28.7307-65.9395 28.4592-65.0682L26.1057-65.0682C26.3546-67.1841 28.346-68.5419 31.1408-68.5419C34.2298-68.5419 35.9723-67.0031 35.9723-64.4006L35.9723-55.9823L33.6301-55.9823L33.6301-57.7135L33.4377-57.7135C32.7023-56.4802 31.3558-55.7786 29.7378-55.7786ZM47.9322-62.2961C47.9322-64.7514 46.6649-66.3242 44.5943-66.3242C42.501-66.3242 41.3243-64.7514 41.3243-62.2961C41.3243-59.8407 42.501-58.2679 44.5943-58.2679C46.6762-58.2679 47.9322-59.8294 47.9322-62.2961ZM44.6282-51.2753C41.5506-51.2753 39.5591-52.6557 39.2989-54.749L41.7882-54.749C41.9918-53.8551 43.0215-53.278 44.6622-53.278C46.6876-53.278 47.8869-54.2398 47.8869-55.8692L47.8869-58.234L47.7059-58.234C46.9591-56.8988 45.6013-56.1634 43.9041-56.1634C40.7585-56.1634 38.8123-58.5961 38.8123-62.2847C38.8123-66.0413 40.7811-68.508 43.9267-68.508C45.6239-68.508 47.1062-67.6707 47.7964-66.3355L47.9888-66.3355L47.9888-68.3043L50.3196-68.3043L50.3196-55.8805C50.3196-53.0631 48.1132-51.2753 44.6282-51.2753ZM53.3634-60.3725C53.5444-57.4533 55.9771-55.5863 59.5979-55.5863C63.4676-55.5863 65.889-57.5438 65.889-60.6667C65.889-63.1221 64.5086-64.4798 61.1594-65.2606L59.3603-65.7019C57.2331-66.1997 56.3731-66.8673 56.3731-68.0327C56.3731-69.5037 57.7083-70.4655 59.7111-70.4655C61.612-70.4655 62.9245-69.5263 63.1621-68.0214L65.6288-68.0214C65.4817-70.771 63.0603-72.7058 59.745-72.7058C56.1808-72.7058 53.8047-70.771 53.8047-67.863C53.8047-65.4642 55.1511-64.0386 58.1043-63.3483L60.2089-62.8392C62.3701-62.33 63.3205-61.5832 63.3205-60.3386C63.3205-58.8903 61.827-57.838 59.7903-57.838C57.6065-57.838 56.0903-58.8224 55.8753-60.3725L53.3634-60.3725ZM72.9043-57.8267C74.7373-57.8267 76.0951-58.9921 76.0951-60.5196L76.0951-61.5493L73.0853-61.3569C71.3881-61.2438 70.6187-60.6667 70.6187-59.5805C70.6187-58.4716 71.5804-57.8267 72.9043-57.8267ZM72.282-55.7786C69.9058-55.7786 68.1746-57.2156 68.1746-59.4673C68.1746-61.6851 69.8266-62.9636 72.7572-63.1447L76.0951-63.337L76.0951-64.4006C76.0951-65.7019 75.2352-66.4373 73.5719-66.4373C72.2141-66.4373 71.2749-65.9395 71.0034-65.0682L68.6499-65.0682C68.8988-67.1841 70.8902-68.5419 73.685-68.5419C76.774-68.5419 78.5165-67.0031 78.5165-64.4006L78.5165-55.9823L76.1743-55.9823L76.1743-57.7135L75.982-57.7135C75.2465-56.4802 73.9-55.7786 72.282-55.7786ZM82.8501-55.9823L85.2828-55.9823L85.2828-66.1997L87.9984-66.1997L87.9984-68.2477L85.2489-68.2477L85.2489-69.2887C85.2489-70.4994 85.8599-71.0312 87.0253-71.0312C87.4327-71.0312 87.8626-70.9859 88.1003-70.9407L88.1003-72.8869C87.625-72.9661 87.263-73 86.7877-73C84.2192-73 82.8501-71.959 82.8501-69.4471L82.8501-68.2477L80.8247-68.2477L80.8247-66.1997L82.8501-66.1997L82.8501-55.9823ZM95.3305-66.4713C93.5314-66.4713 92.2755-65.204 92.1397-63.2805L98.3629-63.2805C98.3063-65.2153 97.1296-66.4713 95.3305-66.4713ZM98.3516-59.3089L100.694-59.3089C100.139-57.1025 98.1706-55.7447 95.3531-55.7447C91.8229-55.7447 89.6617-58.1661 89.6617-62.1037C89.6617-66.0413 91.8681-68.5419 95.3418-68.5419C98.7703-68.5419 100.841-66.1997 100.841-62.33L100.841-61.4814L92.1397-61.4814L92.1397-61.3456C92.2189-59.1844 93.4749-57.8153 95.421-57.8153C96.892-57.8153 97.899-58.3471 98.3516-59.3089ZM114.011-55.9823L116.546-55.9823L116.546-72.3098L114.023-72.3098L109.723-69.2774L109.723-66.6863L113.819-69.5829L114.011-69.5829L114.011-55.9823Z"/>
   <path class="monochrome-1 multicolor-1:systemGrayColor hierarchical-1:primary SFSymbolsPreviewWireframe" d="M14.3789-45.5545L109.388-45.5545C112.588-45.5545 115.181-42.9607 115.181-39.7612L115.181-6.16034C115.181-2.96082 112.588-0.367088 109.388-0.367088L14.3789-0.367088C11.1793-0.367088 8.5856-2.96082 8.5856-6.16034L8.5856-39.7612C8.5856-42.9607 11.1793-45.5545 14.3789-45.5545ZM30.9643-37.3426C23.0215-37.3426 16.5825-30.9036 16.5825-22.9608C16.5825-15.0179 23.0215-8.57898 30.9643-8.57898L92.8027-8.57898C100.746-8.57898 107.185-15.0179 107.185-22.9608C107.185-30.9036 100.746-37.3426 92.8027-37.3426L30.9643-37.3426Z"/>
   <path class="monochrome-2 multicolor-2:systemOrangeColor hierarchical-2:secondary SFSymbolsPreviewWireframe" d="M30.6-17.7468C27.7204-17.7468 25.386-20.0812 25.386-22.9608C25.386-25.8403 27.7204-28.1747 30.6-28.1747C33.4795-28.1747 35.8139-25.8403 35.8139-22.9608C35.8139-20.0812 33.4795-17.7468 30.6-17.7468ZM46.2417-17.7468C43.3622-17.7468 41.0278-20.0812 41.0278-22.9608C41.0278-25.8403 43.3622-28.1747 46.2417-28.1747C49.1213-28.1747 51.4557-25.8403 51.4557-22.9608C51.4557-20.0812 49.1213-17.7468 46.2417-17.7468ZM93.1671-17.7468C90.2875-17.7468 87.9532-20.0812 87.9532-22.9608C87.9532-25.8403 90.2875-28.1747 93.1671-28.1747C96.0467-28.1747 98.381-25.8403 98.381-22.9608C98.381-20.0812 96.0467-17.7468 93.1671-17.7468ZM77.5253-17.7468C74.6457-17.7468 72.3114-20.0812 72.3114-22.9608C72.3114-25.8403 74.6457-28.1747 77.5253-28.1747C80.4049-28.1747 82.7392-25.8403 82.7392-22.9608C82.7392-20.0812 80.4049-17.7468 77.5253-17.7468ZM61.8835-20.0641C60.2838-20.0641 58.9869-21.361 58.9869-22.9608C58.9869-24.5605 60.2838-25.8574 61.8835-25.8574C63.4833-25.8574 64.7802-24.5605 64.7802-22.9608C64.7802-21.361 63.4833-20.0641 61.8835-20.0641Z"/>
  </g>
 </g>
</svg>
