<?xml version="1.0" encoding="UTF-8"?>
<!--Generator: Apple Native CoreSVG 232.5-->
<!DOCTYPE svg
PUBLIC "-//W3C//DTD SVG 1.1//EN"
       "http://www.w3.org/Graphics/SVG/1.1/DTD/svg11.dtd">
<svg version="1.1" xmlns="http://www.w3.org/2000/svg" xmlns:xlink="http://www.w3.org/1999/xlink" width="3300" height="2200">
 <!--glyph: "", point size: 100.0, font version: "19.2d2e1", template writer version: "128"-->
 <style>.monochrome-0 {-sfsymbols-motion-group:0}
.monochrome-1 {-sfsymbols-motion-group:0}
.monochrome-2 {opacity:0.0;-sfsymbols-clear-behind:true;-sfsymbols-motion-group:0}
.monochrome-3 {-sfsymbols-motion-group:0}
.monochrome-4 {-sfsymbols-motion-group:0}

.multicolor-0:tintColor {opacity:0.6;-sfsymbols-motion-group:0}
.multicolor-1:tintColor {-sfsymbols-motion-group:0}
.multicolor-2:custom {fill:#CBCBCB;-sfsymbols-motion-group:0}
.multicolor-3:custom {fill:#CBCBCB;-sfsymbols-motion-group:0}
.multicolor-4:labelColor {-sfsymbols-motion-group:0}

.hierarchical-0:tertiary {-sfsymbols-motion-group:0}
.hierarchical-1:secondary {-sfsymbols-motion-group:0}
.hierarchical-2:primary {opacity:0.0;-sfsymbols-clear-behind:true;-sfsymbols-motion-group:0}
.hierarchical-3:primary {-sfsymbols-motion-group:0}
.hierarchical-4:primary {-sfsymbols-motion-group:0}

.SFSymbolsPreviewWireframe {fill:none;opacity:1.0;stroke:black;stroke-width:0.5}
</style>
 <g id="Notes">
  <rect height="2200" id="artboard" style="fill:white;opacity:1" width="3300" x="0" y="0"/>
  <line style="fill:none;stroke:black;opacity:1;stroke-width:0.5;" x1="263" x2="3036" y1="292" y2="292"/>
  <text style="stroke:none;fill:black;font-family:sans-serif;font-size:13;font-weight:bold;" transform="matrix(1 0 0 1 263 322)">Weight/Scale Variations</text>
  <text style="stroke:none;fill:black;font-family:sans-serif;font-size:13;text-anchor:middle;" transform="matrix(1 0 0 1 559.711 322)">Ultralight</text>
  <text style="stroke:none;fill:black;font-family:sans-serif;font-size:13;text-anchor:middle;" transform="matrix(1 0 0 1 856.422 322)">Thin</text>
  <text style="stroke:none;fill:black;font-family:sans-serif;font-size:13;text-anchor:middle;" transform="matrix(1 0 0 1 1153.13 322)">Light</text>
  <text style="stroke:none;fill:black;font-family:sans-serif;font-size:13;text-anchor:middle;" transform="matrix(1 0 0 1 1449.84 322)">Regular</text>
  <text style="stroke:none;fill:black;font-family:sans-serif;font-size:13;text-anchor:middle;" transform="matrix(1 0 0 1 1746.56 322)">Medium</text>
  <text style="stroke:none;fill:black;font-family:sans-serif;font-size:13;text-anchor:middle;" transform="matrix(1 0 0 1 2043.27 322)">Semibold</text>
  <text style="stroke:none;fill:black;font-family:sans-serif;font-size:13;text-anchor:middle;" transform="matrix(1 0 0 1 2339.98 322)">Bold</text>
  <text style="stroke:none;fill:black;font-family:sans-serif;font-size:13;text-anchor:middle;" transform="matrix(1 0 0 1 2636.69 322)">Heavy</text>
  <text style="stroke:none;fill:black;font-family:sans-serif;font-size:13;text-anchor:middle;" transform="matrix(1 0 0 1 2933.4 322)">Black</text>
  <line style="fill:none;stroke:black;opacity:1;stroke-width:0.5;" x1="263" x2="3036" y1="1903" y2="1903"/>
  <g transform="matrix(0.2 0 0 0.2 263 1933)">
   <path d="m46.2402 4.15039c21.5332 0 39.4531-17.8711 39.4531-39.4043s-17.9688-39.4043-39.502-39.4043c-21.4844 0-39.3555 17.8711-39.3555 39.4043s17.9199 39.4043 39.4043 39.4043Zm0-7.42188c-17.7246 0-31.8848-14.209-31.8848-31.9824s14.1113-31.9824 31.8359-31.9824c17.7734 0 32.0312 14.209 32.0312 31.9824s-14.209 31.9824-31.9824 31.9824Zm-17.9688-31.9824c0 2.14844 1.51367 3.61328 3.75977 3.61328h10.498v10.5957c0 2.19727 1.46484 3.71094 3.61328 3.71094 2.24609 0 3.71094-1.51367 3.71094-3.71094v-10.5957h10.5957c2.19727 0 3.71094-1.46484 3.71094-3.61328 0-2.19727-1.51367-3.71094-3.71094-3.71094h-10.5957v-10.5469c0-2.24609-1.46484-3.75977-3.71094-3.75977-2.14844 0-3.61328 1.51367-3.61328 3.75977v10.5469h-10.498c-2.24609 0-3.75977 1.51367-3.75977 3.71094Z"/>
  </g>
  <g transform="matrix(0.2 0 0 0.2 281.506 1933)">
   <path d="m58.5449 14.5508c27.2461 0 49.8047-22.6074 49.8047-49.8047 0-27.2461-22.6074-49.8047-49.8535-49.8047-27.1973 0-49.7559 22.5586-49.7559 49.8047 0 27.1973 22.6074 49.8047 49.8047 49.8047Zm0-8.30078c-23.0469 0-41.4551-18.457-41.4551-41.5039s18.3594-41.5039 41.4062-41.5039 41.5527 18.457 41.5527 41.5039-18.457 41.5039-41.5039 41.5039Zm-22.6562-41.5039c0 2.39258 1.66016 4.00391 4.15039 4.00391h14.3555v14.4043c0 2.44141 1.66016 4.15039 4.05273 4.15039 2.44141 0 4.15039-1.66016 4.15039-4.15039v-14.4043h14.4043c2.44141 0 4.15039-1.61133 4.15039-4.00391 0-2.44141-1.70898-4.15039-4.15039-4.15039h-14.4043v-14.3555c0-2.49023-1.70898-4.19922-4.15039-4.19922-2.39258 0-4.05273 1.70898-4.05273 4.19922v14.3555h-14.3555c-2.49023 0-4.15039 1.70898-4.15039 4.15039Z"/>
  </g>
  <g transform="matrix(0.2 0 0 0.2 304.924 1933)">
   <path d="m74.8535 28.3203c34.8145 0 63.623-28.8086 63.623-63.5742 0-34.8145-28.8574-63.623-63.6719-63.623-34.7656 0-63.5254 28.8086-63.5254 63.623 0 34.7656 28.8086 63.5742 63.5742 63.5742Zm0-9.08203c-30.1758 0-54.4434-24.3164-54.4434-54.4922 0-30.2246 24.2188-54.4922 54.3945-54.4922 30.2246 0 54.541 24.2676 54.541 54.4922 0 30.1758-24.2676 54.4922-54.4922 54.4922Zm-28.8574-54.4922c0 2.58789 1.85547 4.39453 4.58984 4.39453h19.7266v19.7754c0 2.68555 1.85547 4.58984 4.44336 4.58984 2.68555 0 4.54102-1.85547 4.54102-4.58984v-19.7754h19.7754c2.68555 0 4.58984-1.80664 4.58984-4.39453 0-2.73438-1.85547-4.58984-4.58984-4.58984h-19.7754v-19.7266c0-2.73438-1.85547-4.63867-4.54102-4.63867-2.58789 0-4.44336 1.9043-4.44336 4.63867v19.7266h-19.7266c-2.73438 0-4.58984 1.85547-4.58984 4.58984Z"/>
  </g>
  <text style="stroke:none;fill:black;font-family:sans-serif;font-size:13;font-weight:bold;" transform="matrix(1 0 0 1 263 1953)">Design Variations</text>
  <text style="stroke:none;fill:black;font-family:sans-serif;font-size:13;" transform="matrix(1 0 0 1 263 1971)">Symbols are supported in up to nine weights and three scales.</text>
  <text style="stroke:none;fill:black;font-family:sans-serif;font-size:13;" transform="matrix(1 0 0 1 263 1989)">For optimal layout with text and other symbols, vertically align</text>
  <text style="stroke:none;fill:black;font-family:sans-serif;font-size:13;" transform="matrix(1 0 0 1 263 2007)">symbols with the adjacent text.</text>
  <line style="fill:none;stroke:#00AEEF;stroke-width:0.5;opacity:1.0;" x1="776" x2="776" y1="1919" y2="1933"/>
  <g transform="matrix(0.2 0 0 0.2 776 1933)">
   <path d="m16.5527 0.78125c2.58789 0 3.85742-0.976562 4.78516-3.71094l6.29883-17.2363h28.8086l6.29883 17.2363c0.927734 2.73438 2.19727 3.71094 4.73633 3.71094 2.58789 0 4.24805-1.5625 4.24805-4.00391 0-0.830078-0.146484-1.61133-0.537109-2.63672l-22.9004-60.9863c-1.12305-2.97852-3.125-4.49219-6.25-4.49219-3.02734 0-5.07812 1.46484-6.15234 4.44336l-22.9004 61.084c-0.390625 1.02539-0.537109 1.80664-0.537109 2.63672 0 2.44141 1.5625 3.95508 4.10156 3.95508Zm13.4766-28.3691 11.8652-32.8613h0.244141l11.8652 32.8613Z"/>
  </g>
  <line style="fill:none;stroke:#00AEEF;stroke-width:0.5;opacity:1.0;" x1="792.836" x2="792.836" y1="1919" y2="1933"/>
  <text style="stroke:none;fill:black;font-family:sans-serif;font-size:13;font-weight:bold;" transform="matrix(1 0 0 1 776 1953)">Margins</text>
  <text style="stroke:none;fill:black;font-family:sans-serif;font-size:13;" transform="matrix(1 0 0 1 776 1971)">Leading and trailing margins on the left and right side of each symbol</text>
  <text style="stroke:none;fill:black;font-family:sans-serif;font-size:13;" transform="matrix(1 0 0 1 776 1989)">can be adjusted by modifying the x-location of the margin guidelines.</text>
  <text style="stroke:none;fill:black;font-family:sans-serif;font-size:13;" transform="matrix(1 0 0 1 776 2007)">Modifications are automatically applied proportionally to all</text>
  <text style="stroke:none;fill:black;font-family:sans-serif;font-size:13;" transform="matrix(1 0 0 1 776 2025)">scales and weights.</text>
  <g transform="matrix(0.2 0 0 0.2 1289 1933)">
   <path d="m14.209 9.32617 8.49609 8.54492c4.29688 4.3457 9.22852 4.05273 13.8672-1.07422l53.4668-58.9355-4.83398-4.88281-53.0762 58.3984c-1.75781 2.00195-3.41797 2.49023-5.76172 0.146484l-5.85938-5.81055c-2.34375-2.29492-1.80664-4.00391 0.195312-5.81055l57.373-54.0039-4.88281-4.83398-57.959 54.4434c-4.93164 4.58984-5.32227 9.47266-1.02539 13.8184Zm32.0801-90.9668c-2.09961 2.05078-2.24609 4.93164-1.07422 6.88477 1.17188 1.80664 3.4668 2.97852 6.68945 2.14844 7.32422-1.70898 14.9414-2.00195 22.0703 2.68555l-2.92969 7.27539c-1.70898 4.15039-0.830078 7.08008 1.85547 9.81445l11.4746 11.5723c2.44141 2.44141 4.49219 2.53906 7.32422 2.05078l5.32227-0.976562 3.32031 3.36914-0.195312 2.7832c-0.195312 2.49023 0.439453 4.39453 2.88086 6.78711l3.80859 3.71094c2.39258 2.39258 5.46875 2.53906 7.8125 0.195312l14.5508-14.5996c2.34375-2.34375 2.24609-5.32227-0.146484-7.71484l-3.85742-3.80859c-2.39258-2.39258-4.24805-3.17383-6.64062-2.97852l-2.88086 0.244141-3.22266-3.17383 1.2207-5.61523c0.634766-2.83203-0.146484-5.0293-3.07617-7.95898l-10.9863-10.9375c-16.6992-16.6016-38.8672-16.2109-53.3203-1.75781Zm7.4707 1.85547c12.1582-8.88672 28.6133-7.37305 39.7461 3.75977l12.1582 12.0605c1.17188 1.17188 1.36719 2.09961 1.02539 3.80859l-1.61133 7.42188 7.51953 7.42188 4.93164-0.292969c1.26953-0.0488281 1.66016 0.0488281 2.63672 1.02539l2.88086 2.88086-12.207 12.207-2.88086-2.88086c-0.976562-0.976562-1.12305-1.36719-1.07422-2.68555l0.341797-4.88281-7.4707-7.42188-7.61719 1.26953c-1.61133 0.341797-2.34375 0.195312-3.56445-0.976562l-10.0098-10.0098c-1.26953-1.17188-1.41602-2.00195-0.634766-3.85742l4.39453-10.4492c-7.8125-7.27539-17.9688-10.4004-28.125-7.42188-0.78125 0.195312-1.07422-0.439453-0.439453-0.976562Z"/>
  </g>
  <text style="stroke:none;fill:black;font-family:sans-serif;font-size:13;font-weight:bold;" transform="matrix(1 0 0 1 1289 1953)">Exporting</text>
  <text style="stroke:none;fill:black;font-family:sans-serif;font-size:13;" transform="matrix(1 0 0 1 1289 1971)">Symbols should be outlined when exporting to ensure the</text>
  <text style="stroke:none;fill:black;font-family:sans-serif;font-size:13;" transform="matrix(1 0 0 1 1289 1989)">design is preserved when submitting to Xcode.</text>
  <text id="template-version" style="stroke:none;fill:black;font-family:sans-serif;font-size:13;text-anchor:end;" transform="matrix(1 0 0 1 3036 1933)">Template v.5.0</text>
  <text style="stroke:none;fill:black;font-family:sans-serif;font-size:13;text-anchor:end;" transform="matrix(1 0 0 1 3036 1951)">Requires Xcode 15 or greater</text>
  <text id="descriptive-name" style="stroke:none;fill:black;font-family:sans-serif;font-size:13;text-anchor:end;" transform="matrix(1 0 0 1 3036 1969)">Generated from cable.connector.30.pin</text>
  <text style="stroke:none;fill:black;font-family:sans-serif;font-size:13;text-anchor:end;" transform="matrix(1 0 0 1 3036 1987)">Typeset at 100.0 points</text>
  <text style="stroke:none;fill:black;font-family:sans-serif;font-size:13;" transform="matrix(1 0 0 1 263 726)">Small</text>
  <text style="stroke:none;fill:black;font-family:sans-serif;font-size:13;" transform="matrix(1 0 0 1 263 1156)">Medium</text>
  <text style="stroke:none;fill:black;font-family:sans-serif;font-size:13;" transform="matrix(1 0 0 1 263 1586)">Large</text>
 </g>
 <g id="Guides">
  <g id="H-reference" style="fill:#27AAE1;stroke:none;" transform="matrix(1 0 0 1 339 696)">
   <path d="M0.993654 0L3.63775 0L29.3281-67.1323L30.0303-67.1323L30.0303-70.459L28.1226-70.459ZM11.6885-24.4799L46.9815-24.4799L46.2315-26.7285L12.4385-26.7285ZM55.1196 0L57.7637 0L30.6382-70.459L29.4326-70.459L29.4326-67.1323Z"/>
  </g>
  <line id="Baseline-S" style="fill:none;stroke:#27AAE1;opacity:1;stroke-width:0.5;" x1="263" x2="3036" y1="696" y2="696"/>
  <line id="Capline-S" style="fill:none;stroke:#27AAE1;opacity:1;stroke-width:0.5;" x1="263" x2="3036" y1="625.541" y2="625.541"/>
  <g id="H-reference" style="fill:#27AAE1;stroke:none;" transform="matrix(1 0 0 1 339 1126)">
   <path d="M0.993654 0L3.63775 0L29.3281-67.1323L30.0303-67.1323L30.0303-70.459L28.1226-70.459ZM11.6885-24.4799L46.9815-24.4799L46.2315-26.7285L12.4385-26.7285ZM55.1196 0L57.7637 0L30.6382-70.459L29.4326-70.459L29.4326-67.1323Z"/>
  </g>
  <line id="Baseline-M" style="fill:none;stroke:#27AAE1;opacity:1;stroke-width:0.5;" x1="263" x2="3036" y1="1126" y2="1126"/>
  <line id="Capline-M" style="fill:none;stroke:#27AAE1;opacity:1;stroke-width:0.5;" x1="263" x2="3036" y1="1055.54" y2="1055.54"/>
  <g id="H-reference" style="fill:#27AAE1;stroke:none;" transform="matrix(1 0 0 1 339 1556)">
   <path d="M0.993654 0L3.63775 0L29.3281-67.1323L30.0303-67.1323L30.0303-70.459L28.1226-70.459ZM11.6885-24.4799L46.9815-24.4799L46.2315-26.7285L12.4385-26.7285ZM55.1196 0L57.7637 0L30.6382-70.459L29.4326-70.459L29.4326-67.1323Z"/>
  </g>
  <line id="Baseline-L" style="fill:none;stroke:#27AAE1;opacity:1;stroke-width:0.5;" x1="263" x2="3036" y1="1556" y2="1556"/>
  <line id="Capline-L" style="fill:none;stroke:#27AAE1;opacity:1;stroke-width:0.5;" x1="263" x2="3036" y1="1485.54" y2="1485.54"/>
  <line id="left-margin-Ultralight-S" style="fill:none;stroke:#FF3B30;stroke-width:0.5;opacity:1.0;" x1="538.184" x2="538.184" y1="600.785" y2="720.121"/>
  <line id="right-margin-Ultralight-S" style="fill:none;stroke:#FF3B30;stroke-width:0.5;opacity:1.0;" x1="581.238" x2="581.238" y1="600.785" y2="720.121"/>
  <line id="left-margin-Regular-S" style="fill:none;stroke:#FF3B30;stroke-width:0.5;opacity:1.0;" x1="1427.43" x2="1427.43" y1="600.785" y2="720.121"/>
  <line id="right-margin-Regular-S" style="fill:none;stroke:#FF3B30;stroke-width:0.5;opacity:1.0;" x1="1472.26" x2="1472.26" y1="600.785" y2="720.121"/>
  <line id="left-margin-Black-S" style="fill:none;stroke:#FF3B30;stroke-width:0.5;opacity:1.0;" x1="2908.94" x2="2908.94" y1="600.785" y2="720.121"/>
  <line id="right-margin-Black-S" style="fill:none;stroke:#FF3B30;stroke-width:0.5;opacity:1.0;" x1="2957.86" x2="2957.86" y1="600.785" y2="720.121"/>
 </g>
 <g id="Symbols">
  <g id="Black-S" transform="matrix(1 0 0 1 2908.94 696)">
   <path class="monochrome-0 multicolor-0:tintColor hierarchical-0:tertiary SFSymbolsPreviewWireframe" d="M17.2208-5.44501L30.982-5.44501L30.982 5.83944C30.982 9.63512 27.9011 12.7127 24.1014 12.7127C20.3016 12.7127 17.2208 9.63512 17.2208 5.83944L17.2208-5.44501Z"/>
   <path class="monochrome-1 multicolor-1:tintColor hierarchical-1:secondary SFSymbolsPreviewWireframe" d="M-15.3966-62.5888L-15.3966-83L64.1847-83L64.1847-62.5888L64.7311-62.5888C69.1808-62.5888 72.7881-58.9815 72.7881-54.5317C72.7881-50.0819 69.1808-46.4747 64.7311-46.4747L-15.9429-46.4747C-20.3927-46.4747-24-50.0819-24-54.5317C-24-58.9815-20.3927-62.5888-15.9429-62.5888L-15.3966-62.5888ZM72.7881-48.3589L72.7881-17.2313C72.7881-11.8859 68.4548-7.55253 63.1093-7.55253L-14.3212-7.55253C-19.6666-7.55253-24-11.8859-24-17.2313L-24-48.3589C-22.6075-45.9483-20.0024-44.3261-17.0184-44.3261L65.8065-44.3261C68.7905-44.3261 71.3956-45.9483 72.7881-48.3589L72.7881-48.3589Z"/>
   <path class="monochrome-2 multicolor-2:custom hierarchical-2:primary SFSymbolsPreviewWireframe" d="M-13.8504-81.1633L-13.8504-76.1618L62.6385-76.1618L62.6385-81.1633L-13.8504-81.1633ZM-13.8504-74.9112L-13.8504-53.3371L62.6385-53.3371L62.6385-74.9112L-13.8504-74.9112Z"/>
   <path class="monochrome-1 monochrome-3 multicolor-1:tintColor multicolor-3:custom hierarchical-1:secondary hierarchical-3:primary SFSymbolsPreviewWireframe" d="M-15.3966-73.3315L-15.3966-68.8248L-19.6983-68.8248L-15.3966-73.3315ZM64.1847-73.3315L68.4864-68.8248L64.1847-68.8248L64.1847-73.3315Z"/>
   <path class="monochrome-4 multicolor-4:labelColor hierarchical-4:primary SFSymbolsPreviewWireframe" d="M-12.8584-80.3353L61.6466-80.3353L61.6466-76.9897L-12.8584-76.9897L-12.8584-80.3353Z"/>
   <path class="monochrome-1 monochrome-4 multicolor-1:tintColor multicolor-4:labelColor hierarchical-1:secondary hierarchical-4:primary SFSymbolsPreviewWireframe" d="M-5.7178-67.9602L-4.64238-67.9602L-4.64238-59.366L-5.7178-59.366L-5.7178-67.9602ZM-2.49153-67.9602L-1.41611-67.9602L-1.41611-59.366L-2.49153-59.366L-2.49153-67.9602ZM50.2042-67.9602L51.2796-67.9602L51.2796-59.366L50.2042-59.366L50.2042-67.9602ZM53.4305-67.9602L54.5059-67.9602L54.5059-59.366L53.4305-59.366L53.4305-67.9602Z"/>
  </g>
  <g id="Regular-S" transform="matrix(1 0 0 1 1427.43 696)">
   <path class="monochrome-0 multicolor-0:tintColor hierarchical-0:tertiary SFSymbolsPreviewWireframe" d="M15.3298-7.88424L28.1259-7.88424L28.1259 2.6088C28.1259 6.13827 25.2611 9 21.7279 9C18.1946 9 15.3298 6.13827 15.3298 2.6088L15.3298-7.88424Z"/>
   <path class="monochrome-1 multicolor-1:tintColor hierarchical-1:secondary SFSymbolsPreviewWireframe" d="M-15-61.0203L-15-80L59-80L59-61.0203L59.508-61.0203C63.6457-61.0203 67-57.666 67-53.5283C67-49.3906 63.6457-46.0363 59.508-46.0363L-15.508-46.0363C-19.6457-46.0363-23-49.3906-23-53.5283C-23-57.666-19.6457-61.0203-15.508-61.0203L-15-61.0203ZM67-47.7884L67-18.8439C67-13.8734 62.9706-9.84395 58-9.84395L-14-9.84395C-18.9706-9.84395-23-13.8734-23-18.8439L-23-47.7884C-21.7052-45.5469-19.2827-44.0385-16.508-44.0385L60.508-44.0385C63.2827-44.0385 65.7052-45.5469 67-47.7884L67-47.7884Z"/>
   <path class="monochrome-2 multicolor-2:custom hierarchical-2:primary SFSymbolsPreviewWireframe" d="M-13.5622-78.2921L-13.5622-73.6414L57.5622-73.6414L57.5622-78.2921L-13.5622-78.2921ZM-13.5622-72.4785L-13.5622-52.4175L57.5622-52.4175L57.5622-72.4785L-13.5622-72.4785Z"/>
   <path class="monochrome-1 monochrome-3 multicolor-1:tintColor multicolor-3:custom hierarchical-1:secondary hierarchical-3:primary SFSymbolsPreviewWireframe" d="M-15-71.0096L-15-66.8189L-19-66.8189L-15-71.0096ZM59-71.0096L63-66.8189L59-66.8189L59-71.0096Z"/>
   <path class="monochrome-4 multicolor-4:labelColor hierarchical-4:primary SFSymbolsPreviewWireframe" d="M-12.6398-77.5222L56.6398-77.5222L56.6398-74.4113L-12.6398-74.4113L-12.6398-77.5222Z"/>
   <path class="monochrome-1 monochrome-4 multicolor-1:tintColor multicolor-4:labelColor hierarchical-1:secondary hierarchical-4:primary SFSymbolsPreviewWireframe" d="M-6-66.015L-5-66.015L-5-58.0235L-6-58.0235L-6-66.015ZM-3-66.015L-2-66.015L-2-58.0235L-3-58.0235L-3-66.015ZM46-66.015L47-66.015L47-58.0235L46-58.0235L46-66.015ZM49-66.015L50-66.015L50-58.0235L49-58.0235L49-66.015Z"/>
  </g>
  <g id="Ultralight-S" transform="matrix(1 0 0 1 538.184 696)">
   <path class="monochrome-0 multicolor-0:tintColor hierarchical-0:tertiary SFSymbolsPreviewWireframe" d="M15.9055-10.1084L27.5972-10.1084L27.5972-0.520993C27.5972 2.70386 24.9796 5.3186 21.7514 5.3186C18.523 5.3186 15.9055 2.70386 15.9055-0.520993L15.9055-10.1084Z"/>
   <path class="monochrome-1 multicolor-1:tintColor hierarchical-1:secondary SFSymbolsPreviewWireframe" d="M-11.8066-58.6584L-11.8066-76L55.8066-76L55.8066-58.6584L56.2708-58.6584C60.0514-58.6584 63.1161-55.5936 63.1161-51.813C63.1161-48.0324 60.0514-44.9677 56.2708-44.9677L-12.2708-44.9677C-16.0514-44.9677-19.1161-48.0324-19.1161-51.813C-19.1161-55.5936-16.0514-58.6584-12.2708-58.6584L-11.8066-58.6584ZM63.1161-46.5685L63.1161-20.1222C63.1161-15.5806 59.4345-11.899 54.8929-11.899L-10.8929-11.899C-15.4345-11.899-19.1161-15.5806-19.1161-20.1222L-19.1161-46.5685C-17.9331-44.5205-15.7197-43.1422-13.1845-43.1422L57.1845-43.1422C59.7197-43.1422 61.9331-44.5205 63.1161-46.5685L63.1161-46.5685Z"/>
   <path class="monochrome-2 multicolor-2:custom hierarchical-2:primary SFSymbolsPreviewWireframe" d="M-10.4929-74.4395L-10.4929-70.1902L54.4929-70.1902L54.4929-74.4395L-10.4929-74.4395ZM-10.4929-69.1277L-10.4929-50.798L54.4929-50.798L54.4929-69.1277L-10.4929-69.1277Z"/>
   <path class="monochrome-1 monochrome-3 multicolor-1:tintColor multicolor-3:custom hierarchical-1:secondary hierarchical-3:primary SFSymbolsPreviewWireframe" d="M-11.8066-67.7856L-11.8066-63.9566L-15.4614-63.9566L-11.8066-67.7856ZM55.8066-67.7856L59.4614-63.9566L55.8066-63.9566L55.8066-67.7856Z"/>
   <path class="monochrome-4 multicolor-4:labelColor hierarchical-4:primary SFSymbolsPreviewWireframe" d="M-9.65016-73.736L53.6502-73.736L53.6502-70.8936L-9.65016-70.8936L-9.65016-73.736Z"/>
   <path class="monochrome-1 monochrome-4 multicolor-1:tintColor multicolor-4:labelColor hierarchical-1:secondary hierarchical-4:primary SFSymbolsPreviewWireframe" d="M-3.58338-63.222L-2.66969-63.222L-2.66969-55.9203L-3.58338-55.9203L-3.58338-63.222ZM-0.842303-63.222L0.0713891-63.222L0.0713891-55.9203L-0.842303-55.9203L-0.842303-63.222ZM43.9286-63.222L44.8423-63.222L44.8423-55.9203L43.9286-55.9203L43.9286-63.222ZM46.6697-63.222L47.5834-63.222L47.5834-55.9203L46.6697-55.9203L46.6697-63.222Z"/>
  </g>
 </g>
</svg>
