<?xml version="1.0" encoding="UTF-8"?>
<!--Generator: Apple Native CoreSVG 341-->
<!DOCTYPE svg
PUBLIC "-//W3C//DTD SVG 1.1//EN"
       "http://www.w3.org/Graphics/SVG/1.1/DTD/svg11.dtd">
<svg version="1.1" xmlns="http://www.w3.org/2000/svg" xmlns:xlink="http://www.w3.org/1999/xlink" viewBox="0 0 3300 2200">
 <g id="Notes">
  <rect height="2200" id="artboard" style="fill:white;opacity:1" width="3300" x="0" y="0"/>
  <line style="fill:none;stroke:black;opacity:1;stroke-width:0.5;" x1="263" x2="3036" y1="292" y2="292"/>
  <text style="stroke:none;fill:black;font-family:sans-serif;font-size:13;font-weight:bold;" transform="matrix(1 0 0 1 263 322)">Weight/Scale Variations</text>
  <text style="stroke:none;fill:black;font-family:sans-serif;font-size:13;text-anchor:middle;" transform="matrix(1 0 0 1 559.711 322)">Ultralight</text>
  <text style="stroke:none;fill:black;font-family:sans-serif;font-size:13;text-anchor:middle;" transform="matrix(1 0 0 1 856.422 322)">Thin</text>
  <text style="stroke:none;fill:black;font-family:sans-serif;font-size:13;text-anchor:middle;" transform="matrix(1 0 0 1 1153.13 322)">Light</text>
  <text style="stroke:none;fill:black;font-family:sans-serif;font-size:13;text-anchor:middle;" transform="matrix(1 0 0 1 1449.84 322)">Regular</text>
  <text style="stroke:none;fill:black;font-family:sans-serif;font-size:13;text-anchor:middle;" transform="matrix(1 0 0 1 1746.56 322)">Medium</text>
  <text style="stroke:none;fill:black;font-family:sans-serif;font-size:13;text-anchor:middle;" transform="matrix(1 0 0 1 2043.27 322)">Semibold</text>
  <text style="stroke:none;fill:black;font-family:sans-serif;font-size:13;text-anchor:middle;" transform="matrix(1 0 0 1 2339.98 322)">Bold</text>
  <text style="stroke:none;fill:black;font-family:sans-serif;font-size:13;text-anchor:middle;" transform="matrix(1 0 0 1 2636.69 322)">Heavy</text>
  <text style="stroke:none;fill:black;font-family:sans-serif;font-size:13;text-anchor:middle;" transform="matrix(1 0 0 1 2933.4 322)">Black</text>
  <line style="fill:none;stroke:black;opacity:1;stroke-width:0.5;" x1="263" x2="3036" y1="1903" y2="1903"/>
  <g transform="matrix(0.2 0 0 0.2 263 1933)">
   <path d="m46.2402 4.15039c21.7773 0 39.4531-17.627 39.4531-39.4043s-17.6758-39.4043-39.4531-39.4043c-21.7285 0-39.4043 17.627-39.4043 39.4043s17.6758 39.4043 39.4043 39.4043Zm0-7.42188c-17.6758 0-31.9336-14.3066-31.9336-31.9824s14.2578-31.9824 31.9336-31.9824 31.9824 14.3066 31.9824 31.9824-14.3066 31.9824-31.9824 31.9824Zm3.61328-17.7734v-28.4668c0-2.24609-1.46484-3.75977-3.71094-3.75977-2.14844 0-3.61328 1.51367-3.61328 3.75977v28.4668c0 2.19727 1.46484 3.71094 3.61328 3.71094 2.24609 0 3.71094-1.51367 3.71094-3.71094Zm-17.8223-10.5957h28.418c2.19727 0 3.71094-1.46484 3.71094-3.61328 0-2.19727-1.51367-3.71094-3.71094-3.71094h-28.418c-2.24609 0-3.75977 1.51367-3.75977 3.71094 0 2.14844 1.51367 3.61328 3.75977 3.61328Z"/>
  </g>
  <g transform="matrix(0.2 0 0 0.2 281.506 1933)">
   <path d="m58.5449 14.5508c27.4902 0 49.8047-22.3145 49.8047-49.8047s-22.3145-49.8047-49.8047-49.8047-49.8047 22.3145-49.8047 49.8047 22.3145 49.8047 49.8047 49.8047Zm0-8.30078c-22.9492 0-41.5039-18.5547-41.5039-41.5039s18.5547-41.5039 41.5039-41.5039 41.5039 18.5547 41.5039 41.5039-18.5547 41.5039-41.5039 41.5039Zm4.05273-23.0957v-36.9141c0-2.49023-1.70898-4.19922-4.15039-4.19922-2.39258 0-4.05273 1.70898-4.05273 4.19922v36.9141c0 2.44141 1.66016 4.15039 4.05273 4.15039 2.44141 0 4.15039-1.66016 4.15039-4.15039Zm-22.5586-14.4043h36.9629c2.44141 0 4.15039-1.61133 4.15039-4.00391 0-2.44141-1.70898-4.15039-4.15039-4.15039h-36.9629c-2.49023 0-4.15039 1.70898-4.15039 4.15039 0 2.39258 1.66016 4.00391 4.15039 4.00391Z"/>
  </g>
  <g transform="matrix(0.2 0 0 0.2 304.924 1933)">
   <path d="m74.8535 28.3203c35.1074 0 63.623-28.4668 63.623-63.5742s-28.5156-63.623-63.623-63.623-63.5742 28.5156-63.5742 63.623 28.4668 63.5742 63.5742 63.5742Zm0-9.08203c-30.127 0-54.4922-24.3652-54.4922-54.4922s24.3652-54.4922 54.4922-54.4922 54.4922 24.3652 54.4922 54.4922-24.3652 54.4922-54.4922 54.4922Zm4.44336-30.3223v-48.4863c0-2.73438-1.85547-4.63867-4.54102-4.63867-2.58789 0-4.44336 1.9043-4.44336 4.63867v48.4863c0 2.68555 1.85547 4.58984 4.44336 4.58984 2.68555 0 4.54102-1.85547 4.54102-4.58984Zm-28.7109-19.7754h48.4863c2.68555 0 4.58984-1.80664 4.58984-4.39453 0-2.73438-1.85547-4.58984-4.58984-4.58984h-48.4863c-2.73438 0-4.58984 1.85547-4.58984 4.58984 0 2.58789 1.85547 4.39453 4.58984 4.39453Z"/>
  </g>
  <text style="stroke:none;fill:black;font-family:sans-serif;font-size:13;font-weight:bold;" transform="matrix(1 0 0 1 263 1953)">Design Variations</text>
  <text style="stroke:none;fill:black;font-family:sans-serif;font-size:13;" transform="matrix(1 0 0 1 263 1971)">Symbols are supported in up to nine weights and three scales.</text>
  <text style="stroke:none;fill:black;font-family:sans-serif;font-size:13;" transform="matrix(1 0 0 1 263 1989)">For optimal layout with text and other symbols, vertically align</text>
  <text style="stroke:none;fill:black;font-family:sans-serif;font-size:13;" transform="matrix(1 0 0 1 263 2007)">symbols with the adjacent text.</text>
  <line style="fill:none;stroke:#00AEEF;stroke-width:0.5;opacity:1.0;" x1="776" x2="776" y1="1919" y2="1933"/>
  <g transform="matrix(0.2 0 0 0.2 776 1933)">
   <path d="m16.5527 0.78125c2.58789 0 3.85742-0.976562 4.78516-3.71094l20.5566-57.5195h0.244141l20.6055 57.5195c0.927734 2.73438 2.19727 3.71094 4.73633 3.71094 2.58789 0 4.24805-1.5625 4.24805-4.00391 0-0.830078-0.146484-1.61133-0.537109-2.63672l-22.9004-60.9863c-1.12305-2.97852-3.125-4.49219-6.25-4.49219-3.02734 0-5.07812 1.46484-6.15234 4.44336l-22.9004 61.084c-0.390625 1.02539-0.537109 1.80664-0.537109 2.63672 0 2.44141 1.5625 3.95508 4.10156 3.95508Zm10.2051-20.9473h30.6641c2.00195 0 3.66211-1.66016 3.66211-3.66211 0-2.05078-1.66016-3.66211-3.66211-3.66211h-30.6641c-2.00195 0-3.66211 1.61133-3.66211 3.66211 0 2.00195 1.66016 3.66211 3.66211 3.66211Z"/>
  </g>
  <line style="fill:none;stroke:#00AEEF;stroke-width:0.5;opacity:1.0;" x1="792.836" x2="792.836" y1="1919" y2="1933"/>
  <text style="stroke:none;fill:black;font-family:sans-serif;font-size:13;font-weight:bold;" transform="matrix(1 0 0 1 776 1953)">Margins</text>
  <text style="stroke:none;fill:black;font-family:sans-serif;font-size:13;" transform="matrix(1 0 0 1 776 1971)">Leading and trailing margins on the left and right side of each symbol</text>
  <text style="stroke:none;fill:black;font-family:sans-serif;font-size:13;" transform="matrix(1 0 0 1 776 1989)">can be adjusted by modifying the x-location of the margin guidelines.</text>
  <text style="stroke:none;fill:black;font-family:sans-serif;font-size:13;" transform="matrix(1 0 0 1 776 2007)">Modifications are automatically applied proportionally to all</text>
  <text style="stroke:none;fill:black;font-family:sans-serif;font-size:13;" transform="matrix(1 0 0 1 776 2025)">scales and weights.</text>
  <g transform="matrix(0.2 0 0 0.2 1289 1933)">
   <path d="m14.209 13.1348 7.86133 7.86133c4.29688 4.39453 9.32617 4.10156 13.8672-1.02539l60.6934-68.2129-4.88281-4.88281-60.2539 67.6758c-1.80664 1.95312-3.4668 2.44141-5.81055 0.0976562l-5.17578-5.12695c-2.29492-2.29492-1.80664-3.95508 0.195312-5.81055l67.4805-62.1582-4.88281-4.83398-68.0664 62.5977c-4.98047 4.58984-5.32227 9.47266-1.02539 13.8184Zm44.873-97.4609c-2.05078 2.00195-2.24609 4.88281-1.07422 6.78711 1.12305 1.80664 3.4668 3.02734 6.5918 2.24609 5.85938-1.66016 12.5977-2.39258 18.8965 0.927734l-2.68555 7.12891c-1.61133 4.00391-0.732422 6.88477 1.70898 9.42383l10.2539 10.3027c2.34375 2.39258 4.54102 2.44141 7.08008 1.95312l4.44336-0.732422 2.58789 2.53906-0.195312 2.24609c-0.0976562 2.29492 0.537109 4.29688 2.7832 6.49414l3.36914 3.32031c2.29492 2.29492 5.51758 2.49023 7.8125 0.195312l12.9883-13.0371c2.29492-2.34375 2.14844-5.37109-0.195312-7.66602l-3.41797-3.41797c-2.19727-2.19727-4.05273-3.02734-6.34766-2.88086l-2.34375 0.244141-2.44141-2.44141 1.02539-4.6875c0.634766-2.73438-0.244141-4.98047-2.88086-7.61719l-11.2793-11.1816c-12.9395-12.8418-35.5957-11.0352-46.6797-0.146484Zm7.08008 2.05078c8.78906-6.39648 25.9766-5.66406 33.6914 1.95312l12.3047 12.207c1.02539 1.02539 1.2207 1.80664 0.927734 3.32031l-1.46484 6.64062 6.73828 6.68945 4.39453-0.244141c1.12305-0.0488281 1.51367 0.0488281 2.34375 0.878906l2.53906 2.49023-10.8398 10.8398-2.49023-2.49023c-0.830078-0.878906-0.976562-1.2207-0.927734-2.39258l0.292969-4.3457-6.68945-6.73828-6.83594 1.17188c-1.41602 0.292969-2.05078 0.195312-3.17383-0.878906l-8.93555-8.88672c-1.07422-1.02539-1.17188-1.70898-0.488281-3.36914l4.58984-11.4746c-6.10352-6.34766-17.041-7.51953-25.5859-4.58984-0.683594 0.244141-0.927734-0.390625-0.390625-0.78125Z"/>
  </g>
  <text style="stroke:none;fill:black;font-family:sans-serif;font-size:13;font-weight:bold;" transform="matrix(1 0 0 1 1289 1953)">Exporting</text>
  <text style="stroke:none;fill:black;font-family:sans-serif;font-size:13;" transform="matrix(1 0 0 1 1289 1971)">Symbols should be outlined when exporting to ensure the</text>
  <text style="stroke:none;fill:black;font-family:sans-serif;font-size:13;" transform="matrix(1 0 0 1 1289 1989)">design is preserved when submitting to Xcode.</text>
  <text id="template-version" style="stroke:none;fill:black;font-family:sans-serif;font-size:13;text-anchor:end;" transform="matrix(1 0 0 1 3036 1933)">Template v.2.0</text>
  <text style="stroke:none;fill:black;font-family:sans-serif;font-size:13;text-anchor:end;" transform="matrix(1 0 0 1 3036 1951)">Requires Xcode 12 or greater</text>
  <text id="descriptive-name" style="stroke:none;fill:black;font-family:sans-serif;font-size:13;text-anchor:end;" transform="matrix(1 0 0 1 3036 1969)">Generated from firewire</text>
  <text style="stroke:none;fill:black;font-family:sans-serif;font-size:13;text-anchor:end;" transform="matrix(1 0 0 1 3036 1987)">Typeset at 100.0 points</text>
  <text style="stroke:none;fill:black;font-family:sans-serif;font-size:13;" transform="matrix(1 0 0 1 263 726)">Small</text>
  <text style="stroke:none;fill:black;font-family:sans-serif;font-size:13;" transform="matrix(1 0 0 1 263 1156)">Medium</text>
  <text style="stroke:none;fill:black;font-family:sans-serif;font-size:13;" transform="matrix(1 0 0 1 263 1586)">Large</text>
 </g>
 <g id="Guides">
  <g id="H-reference" style="fill:#27AAE1;stroke:none;" transform="matrix(1 0 0 1 339 696)">
   <path d="M0.993654 0L3.63775 0L29.3281-67.1323L30.0303-67.1323L30.0303-70.459L28.1226-70.459ZM11.6885-24.4799L46.9815-24.4799L46.2315-26.7285L12.4385-26.7285ZM55.1196 0L57.7637 0L30.6382-70.459L29.4326-70.459L29.4326-67.1323Z"/>
  </g>
  <line id="Baseline-S" style="fill:none;stroke:#27AAE1;opacity:1;stroke-width:0.5;" x1="263" x2="3036" y1="696" y2="696"/>
  <line id="Capline-S" style="fill:none;stroke:#27AAE1;opacity:1;stroke-width:0.5;" x1="263" x2="3036" y1="625.541" y2="625.541"/>
  <g id="H-reference" style="fill:#27AAE1;stroke:none;" transform="matrix(1 0 0 1 339 1126)">
   <path d="M0.993654 0L3.63775 0L29.3281-67.1323L30.0303-67.1323L30.0303-70.459L28.1226-70.459ZM11.6885-24.4799L46.9815-24.4799L46.2315-26.7285L12.4385-26.7285ZM55.1196 0L57.7637 0L30.6382-70.459L29.4326-70.459L29.4326-67.1323Z"/>
  </g>
  <line id="Baseline-M" style="fill:none;stroke:#27AAE1;opacity:1;stroke-width:0.5;" x1="263" x2="3036" y1="1126" y2="1126"/>
  <line id="Capline-M" style="fill:none;stroke:#27AAE1;opacity:1;stroke-width:0.5;" x1="263" x2="3036" y1="1055.54" y2="1055.54"/>
  <g id="H-reference" style="fill:#27AAE1;stroke:none;" transform="matrix(1 0 0 1 339 1556)">
   <path d="M0.993654 0L3.63775 0L29.3281-67.1323L30.0303-67.1323L30.0303-70.459L28.1226-70.459ZM11.6885-24.4799L46.9815-24.4799L46.2315-26.7285L12.4385-26.7285ZM55.1196 0L57.7637 0L30.6382-70.459L29.4326-70.459L29.4326-67.1323Z"/>
  </g>
  <line id="Baseline-L" style="fill:none;stroke:#27AAE1;opacity:1;stroke-width:0.5;" x1="263" x2="3036" y1="1556" y2="1556"/>
  <line id="Capline-L" style="fill:none;stroke:#27AAE1;opacity:1;stroke-width:0.5;" x1="263" x2="3036" y1="1485.54" y2="1485.54"/>
  <line id="right-margin" style="fill:none;stroke:#00AEEF;stroke-width:0.5;opacity:1.0;" x1="1508.37" x2="1508.37" y1="1030.79" y2="1150.12"/>
  <line id="left-margin" style="fill:none;stroke:#00AEEF;stroke-width:0.5;opacity:1.0;" x1="1391.32" x2="1391.32" y1="1030.79" y2="1150.12"/>
 </g>
 <g id="Symbols">
  <g id="Black-L" transform="matrix(1 0 0 1 2854.19 1556)">
   <path d="M70.9371-27.5319C79.6876-27.5319 86.7812-34.6042 86.7812-43.3267C86.7812-52.0475 79.6876-59.1181 70.9371-59.1181C62.1898-59.1181 55.0962-52.0475 55.0962-43.3267C55.0962-34.6042 62.1898-27.5319 70.9371-27.5319ZM42.6498-43.3267C42.6498-58.8991 55.3153-71.525 70.9387-71.525C86.5638-71.525 99.2325-58.8991 99.2325-43.3267C99.2325-27.751 86.5654-15.1251 70.9387-15.1251C55.3153-15.1267 42.6498-27.751 42.6498-43.3267ZM89.6124 9.69025L89.6124-2.72154L52.2667-2.72154L52.2667 9.69025L89.6124 9.69025ZM89.6124 34.5072L89.6124 22.0971L52.2667 22.0971L52.2667 34.5072L89.6124 34.5072ZM20.1271-67.6529L28.9303-58.8793L55.335-85.2L46.5351-93.9752L20.1271-67.6529ZM2.52232-85.0551L11.3255-76.2815L37.7302-102.749L28.9303-111.377L2.52232-85.0551L2.52232-85.0551ZM117.132-112.502L88.1433-83.6074L111.201-60.7668L140.193-89.3719L117.132-112.502L117.132-112.502Z"/>
  </g>
  <g id="Heavy-L" transform="matrix(1 0 0 1 2558.42 1556)">
   <path d="M71.4044-26.4905C80.1549-26.4905 87.2485-33.5628 87.2485-42.2853C87.2485-51.0061 80.1549-58.0767 71.4044-58.0767C62.6572-58.0767 55.5635-51.0061 55.5635-42.2853C55.5635-33.5628 62.6572-26.4905 71.4044-26.4905ZM43.1172-42.2853C43.1172-57.8577 55.7826-70.4836 71.406-70.4836C87.0311-70.4836 99.6998-57.8577 99.6998-42.2853C99.6998-26.7096 87.0328-14.0837 71.406-14.0837C55.7826-14.0853 43.1172-26.7096 43.1172-42.2853ZM90.0797 10.7317L90.0797-1.68013L52.734-1.68013L52.734 10.7317L90.0797 10.7317ZM90.0797 35.5487L90.0797 23.1385L52.734 23.1385L52.734 35.5487L90.0797 35.5487ZM20.5944-66.6115L29.3976-57.8379L55.8024-84.1586L47.0024-92.9338L20.5944-66.6115ZM2.98965-84.0137L11.7929-75.2401L38.1976-101.707L29.3976-110.336L2.98965-84.0137L2.98965-84.0137ZM117.599-111.461L88.6106-82.566L111.669-59.7254L140.661-88.3305L117.599-111.461L117.599-111.461Z"/>
  </g>
  <g id="Bold-L" transform="matrix(1 0 0 1 2262.89 1556)">
   <path d="M71.8682-25.2077C80.6187-25.2077 87.7124-32.2799 87.7124-41.0024C87.7124-49.7233 80.6187-56.7939 71.8682-56.7939C63.121-56.7939 56.0274-49.7233 56.0274-41.0024C56.0274-32.2799 63.121-25.2077 71.8682-25.2077ZM43.581-41.0024C43.581-56.5748 56.2464-69.2007 71.8699-69.2007C87.495-69.2007 100.164-56.5748 100.164-41.0024C100.164-25.4267 87.4966-12.8008 71.8699-12.8008C56.2464-12.8025 43.581-25.4267 43.581-41.0024ZM90.5435 12.0145L90.5435-0.397283L53.1978-0.397283L53.1978 12.0145L90.5435 12.0145ZM90.5435 36.8315L90.5435 24.4214L53.1978 24.4214L53.1978 36.8315L90.5435 36.8315ZM21.0583-65.3286L29.8615-56.555L56.2662-82.8757L47.4663-91.651L21.0583-65.3286ZM3.45348-82.7308L12.2567-73.9572L38.6614-100.425L29.8615-109.053L3.45348-82.7308L3.45348-82.7308ZM118.063-110.178L89.0744-81.2831L112.132-58.4425L141.125-87.0476L118.063-110.178L118.063-110.178Z"/>
  </g>
  <g id="Semibold-L" transform="matrix(1 0 0 1 1966.99 1556)">
   <path d="M72.188-24.3233C80.9385-24.3233 88.0321-31.3955 88.0321-40.118C88.0321-48.8389 80.9385-55.9095 72.188-55.9095C63.4408-55.9095 56.3471-48.8389 56.3471-40.118C56.3471-31.3955 63.4408-24.3233 72.188-24.3233ZM43.9008-40.118C43.9008-55.6904 56.5662-68.3163 72.1896-68.3163C87.8147-68.3163 100.483-55.6904 100.483-40.118C100.483-24.5424 87.8164-11.9165 72.1896-11.9165C56.5662-11.9181 43.9008-24.5424 43.9008-40.118ZM90.8633 12.8989L90.8633 0.487106L53.5176 0.487106L53.5176 12.8989L90.8633 12.8989ZM90.8633 37.7159L90.8633 25.3057L53.5176 25.3057L53.5176 37.7159L90.8633 37.7159ZM21.378-64.4442L30.1812-55.6707L56.5859-81.9914L47.786-90.7666L21.378-64.4442ZM3.77325-81.8464L12.5765-73.0729L38.9812-99.5401L30.1812-108.169L3.77325-81.8464L3.77325-81.8464ZM118.383-109.294L89.3942-80.3987L112.452-57.5581L141.444-86.1632L118.383-109.294L118.383-109.294Z"/>
  </g>
  <g id="Medium-L" transform="matrix(1 0 0 1 1670.89 1556)">
   <path d="M72.4304-23.6527C81.1809-23.6527 88.2746-30.7249 88.2746-39.4475C88.2746-48.1683 81.1809-55.2389 72.4304-55.2389C63.6832-55.2389 56.5896-48.1683 56.5896-39.4475C56.5896-30.7249 63.6832-23.6527 72.4304-23.6527ZM44.1432-39.4475C44.1432-55.0198 56.8086-67.6457 72.4321-67.6457C88.0572-67.6457 100.726-55.0198 100.726-39.4475C100.726-23.8718 88.0588-11.2459 72.4321-11.2459C56.8086-11.2475 44.1432-23.8718 44.1432-39.4475ZM91.1058 13.5695L91.1058 1.15769L53.76 1.15769L53.76 13.5695L91.1058 13.5695ZM91.1058 38.3865L91.1058 25.9763L53.76 25.9763L53.76 38.3865L91.1058 38.3865ZM21.6205-63.7736L30.4237-55.0001L56.8284-81.3208L48.0285-90.096L21.6205-63.7736ZM4.0157-81.1758L12.8189-72.4023L39.2236-98.8696L30.4237-107.498L4.0157-81.1758L4.0157-81.1758ZM118.625-108.623L89.6366-79.7281L112.695-56.8875L141.687-85.4926L118.625-108.623L118.625-108.623Z"/>
  </g>
  <g id="Regular-L" transform="matrix(1 0 0 1 1374.99 1556)">
   <path d="M72.7467-22.778C81.4972-22.778 88.5908-29.8503 88.5908-38.5728C88.5908-47.2936 81.4972-54.3642 72.7467-54.3642C63.9995-54.3642 56.9058-47.2936 56.9058-38.5728C56.9058-29.8503 63.9995-22.778 72.7467-22.778ZM44.4595-38.5728C44.4595-54.1452 57.1249-66.7711 72.7483-66.7711C88.3734-66.7711 101.042-54.1452 101.042-38.5728C101.042-22.9971 88.3751-10.3712 72.7483-10.3712C57.1249-10.3728 44.4595-22.9971 44.4595-38.5728ZM91.422 14.4442L91.422 2.03236L54.0763 2.03236L54.0763 14.4442L91.422 14.4442ZM91.422 39.2611L91.422 26.851L54.0763 26.851L54.0763 39.2611L91.422 39.2611ZM21.9367-62.899L30.74-54.1254L57.1447-80.4461L48.3447-89.2213L21.9367-62.899ZM4.33195-80.3012L13.1352-71.5276L39.5399-97.9949L30.74-106.624L4.33195-80.3012L4.33195-80.3012ZM118.942-107.748L89.9529-78.8535L113.011-56.0129L142.003-84.618L118.942-107.748L118.942-107.748Z"/>
  </g>
  <g id="Light-L" transform="matrix(1 0 0 1 1079.2 1556)">
   <path d="M72.3264-21.9375C81.0769-21.9375 88.1705-29.0097 88.1705-37.7322C88.1705-46.4531 81.0769-53.5236 72.3264-53.5236C63.5792-53.5236 56.4856-46.4531 56.4856-37.7322C56.4856-29.0097 63.5792-21.9375 72.3264-21.9375ZM44.0392-37.7322C44.0392-53.3046 56.7046-65.9305 72.328-65.9305C87.9531-65.9305 100.622-53.3046 100.622-37.7322C100.622-22.1565 87.9548-9.53062 72.328-9.53062C56.7046-9.53227 44.0392-22.1565 44.0392-37.7322ZM91.0017 15.2847L91.0017 2.87294L53.656 2.87294L53.656 15.2847L91.0017 15.2847ZM91.0017 40.1017L91.0017 27.6916L53.656 27.6916L53.656 40.1017L91.0017 40.1017ZM21.5164-62.0584L30.3197-53.2848L56.7244-79.6055L47.9244-88.3807L21.5164-62.0584ZM3.91166-79.4606L12.7149-70.687L39.1196-97.1543L30.3197-105.783L3.91166-79.4606L3.91166-79.4606ZM118.521-106.908L89.5326-78.0129L112.591-55.1723L141.583-83.7774L118.521-106.908L118.521-106.908Z"/>
  </g>
  <g id="Thin-L" transform="matrix(1 0 0 1 783.716 1556)">
   <path d="M71.7705-20.8257C80.521-20.8257 87.6147-27.898 87.6147-36.6205C87.6147-45.3413 80.521-52.4119 71.7705-52.4119C63.0233-52.4119 55.9297-45.3413 55.9297-36.6205C55.9297-27.898 63.0233-20.8257 71.7705-20.8257ZM43.4833-36.6205C43.4833-52.1928 56.1487-64.8188 71.7722-64.8188C87.3973-64.8188 100.066-52.1928 100.066-36.6205C100.066-21.0448 87.3989-8.41888 71.7722-8.41888C56.1487-8.42053 43.4833-21.0448 43.4833-36.6205ZM90.4459 16.3965L90.4459 3.98467L53.1001 3.98467L53.1001 16.3965L90.4459 16.3965ZM90.4459 41.2135L90.4459 28.8033L53.1001 28.8033L53.1001 41.2135L90.4459 41.2135ZM20.9606-60.9467L29.7638-52.1731L56.1685-78.4938L47.3686-87.269L20.9606-60.9467ZM3.3558-78.3489L12.159-69.5753L38.5637-96.0426L29.7638-104.671L3.3558-78.3489L3.3558-78.3489ZM117.966-105.796L88.9767-76.9011L112.035-54.0605L141.027-82.6656L117.966-105.796L117.966-105.796Z"/>
  </g>
  <g id="Ultralight-L" transform="matrix(1 0 0 1 487.632 1556)">
   <path d="M71.4858-20.2563C80.2363-20.2563 87.33-27.3285 87.33-36.051C87.33-44.7719 80.2363-51.8425 71.4858-51.8425C62.7386-51.8425 55.645-44.7719 55.645-36.051C55.645-27.3285 62.7386-20.2563 71.4858-20.2563ZM43.1986-36.051C43.1986-51.6234 55.864-64.2493 71.4875-64.2493C87.1126-64.2493 99.7813-51.6234 99.7813-36.051C99.7813-20.4754 87.1142-7.84946 71.4875-7.84946C55.864-7.85111 43.1986-20.4754 43.1986-36.051ZM90.1612 16.9659L90.1612 4.5541L52.8154 4.5541L52.8154 16.9659L90.1612 16.9659ZM90.1612 41.7829L90.1612 29.3727L52.8154 29.3727L52.8154 41.7829L90.1612 41.7829ZM20.6759-60.3772L29.4791-51.6037L55.8838-77.9244L47.0839-86.6996L20.6759-60.3772ZM3.07108-77.7794L11.8743-69.0059L38.279-95.4732L29.4791-104.102L3.07108-77.7794L3.07108-77.7794ZM117.681-105.227L88.692-76.3317L111.75-53.4911L140.742-82.0962L117.681-105.227L117.681-105.227Z"/>
  </g>
  <g id="Black-M" transform="matrix(1 0 0 1 2871.35 1126)">
   <path d="M54.4993-30.047C61.2787-30.047 66.7745-35.5262 66.7745-42.2839C66.7745-49.0403 61.2787-54.5181 54.4993-54.5181C47.7225-54.5181 42.2268-49.0403 42.2268-42.2839C42.2268-35.5262 47.7225-30.047 54.4993-30.047ZM32.584-42.2839C32.584-54.3484 42.3965-64.1302 54.5006-64.1302C66.606-64.1302 76.421-54.3484 76.421-42.2839C76.421-30.2167 66.6073-20.4349 54.5006-20.4349C42.3965-20.4362 32.584-30.2167 32.584-42.2839ZM68.9679-1.20941L68.9679-10.8253L40.0346-10.8253L40.0346-1.20941L68.9679-1.20941ZM68.9679 18.0174L68.9679 8.4027L40.0346 8.4027L40.0346 18.0174L68.9679 18.0174ZM15.1347-61.1304L21.955-54.3331L42.4118-74.7249L35.5941-81.5234L15.1347-61.1304ZM1.49557-74.6126L8.31579-67.8153L28.7726-88.3207L21.955-95.0056L1.49557-74.6126L1.49557-74.6126ZM90.2886-95.8771L67.8297-73.491L85.6937-55.7954L108.155-77.957L90.2886-95.8771L90.2886-95.8771Z"/>
  </g>
  <g id="Heavy-M" transform="matrix(1 0 0 1 2575.47 1126)">
   <path d="M54.995-29.1065C61.7743-29.1065 67.2701-34.5857 67.2701-41.3434C67.2701-48.0998 61.7743-53.5776 54.995-53.5776C48.2181-53.5776 42.7224-48.0998 42.7224-41.3434C42.7224-34.5857 48.2181-29.1065 54.995-29.1065ZM33.0797-41.3434C33.0797-53.4079 42.8921-63.1897 54.9962-63.1897C67.1016-63.1897 76.9166-53.4079 76.9166-41.3434C76.9166-29.2762 67.1029-19.4944 54.9962-19.4944C42.8921-19.4957 33.0797-29.2762 33.0797-41.3434ZM69.4635-0.268911L69.4635-9.88485L40.5302-9.88485L40.5302-0.268911L69.4635-0.268911ZM69.4635 18.9579L69.4635 9.3432L40.5302 9.3432L40.5302 18.9579L69.4635 18.9579ZM15.6304-60.1899L22.4506-53.3926L42.9074-73.7844L36.0897-80.5829L15.6304-60.1899ZM1.99119-73.6721L8.81141-66.8748L29.2682-87.3802L22.4506-94.0651L1.99119-73.6721L1.99119-73.6721ZM90.7842-94.9366L68.3253-72.5505L86.1893-54.8549L108.651-77.0165L90.7842-94.9366L90.7842-94.9366Z"/>
  </g>
  <g id="Bold-M" transform="matrix(1 0 0 1 2279.69 1126)">
   <path d="M55.5494-28.0544C62.3288-28.0544 67.8245-33.5336 67.8245-40.2913C67.8245-47.0477 62.3288-52.5256 55.5494-52.5256C48.7725-52.5256 43.2768-47.0477 43.2768-40.2913C43.2768-33.5336 48.7725-28.0544 55.5494-28.0544ZM33.6341-40.2913C33.6341-52.3558 43.4465-62.1377 55.5506-62.1377C67.6561-62.1377 77.4711-52.3558 77.4711-40.2913C77.4711-28.2241 67.6573-18.4423 55.5506-18.4423C43.4465-18.4436 33.6341-28.2241 33.6341-40.2913ZM70.0179 0.783174L70.0179-8.83276L41.0846-8.83276L41.0846 0.783174L70.0179 0.783174ZM70.0179 20.0099L70.0179 10.3953L41.0846 10.3953L41.0846 20.0099L70.0179 20.0099ZM16.1848-59.1378L23.005-52.3405L43.4618-72.7323L36.6442-79.5308L16.1848-59.1378ZM2.54561-72.62L9.36583-65.8228L29.8227-86.3281L23.005-93.013L2.54561-72.62L2.54561-72.62ZM91.3386-93.8845L68.8797-71.4984L86.7437-53.8028L109.205-75.9644L91.3386-93.8845L91.3386-93.8845Z"/>
  </g>
  <g id="Semibold-M" transform="matrix(1 0 0 1 1983.62 1126)">
   <path d="M55.9316-27.3291C62.711-27.3291 68.2067-32.8083 68.2067-39.566C68.2067-46.3224 62.711-51.8003 55.9316-51.8003C49.1548-51.8003 43.659-46.3224 43.659-39.566C43.659-32.8083 49.1548-27.3291 55.9316-27.3291ZM34.0163-39.566C34.0163-51.6305 43.8287-61.4124 55.9329-61.4124C68.0383-61.4124 77.8533-51.6305 77.8533-39.566C77.8533-27.4988 68.0396-17.717 55.9329-17.717C43.8287-17.7183 34.0163-27.4988 34.0163-39.566ZM70.4002 1.50847L70.4002-8.10746L41.4669-8.10746L41.4669 1.50847L70.4002 1.50847ZM70.4002 20.7352L70.4002 11.1206L41.4669 11.1206L41.4669 20.7352L70.4002 20.7352ZM16.567-58.4125L23.3872-51.6152L43.844-72.007L37.0264-78.8055L16.567-58.4125ZM2.92782-71.8947L9.74804-65.0974L30.2049-85.6028L23.3872-92.2877L2.92782-71.8947L2.92782-71.8947ZM91.7208-93.1592L69.262-70.7731L87.126-53.0775L109.587-75.2391L91.7208-93.1592L91.7208-93.1592Z"/>
  </g>
  <g id="Medium-M" transform="matrix(1 0 0 1 1687.4 1126)">
   <path d="M56.2214-26.7792C63.0008-26.7792 68.4965-32.2583 68.4965-39.016C68.4965-45.7724 63.0008-51.2503 56.2214-51.2503C49.4446-51.2503 43.9488-45.7724 43.9488-39.016C43.9488-32.2583 49.4446-26.7792 56.2214-26.7792ZM34.3061-39.016C34.3061-51.0806 44.1185-60.8624 56.2227-60.8624C68.3281-60.8624 78.1431-51.0806 78.1431-39.016C78.1431-26.9489 68.3294-17.1671 56.2227-17.1671C44.1185-17.1683 34.3061-26.9489 34.3061-39.016ZM70.69 2.05843L70.69-7.55751L41.7567-7.55751L41.7567 2.05843L70.69 2.05843ZM70.69 21.2852L70.69 11.6705L41.7567 11.6705L41.7567 21.2852L70.69 21.2852ZM16.8568-57.8625L23.677-51.0653L44.1338-71.457L37.3162-78.2556L16.8568-57.8625ZM3.21763-71.3447L10.0379-64.5475L30.4947-85.0528L23.677-91.7378L3.21763-71.3447L3.21763-71.3447ZM92.0106-92.6093L69.5518-70.2231L87.4158-52.5276L109.877-74.6891L92.0106-92.6093L92.0106-92.6093Z"/>
  </g>
  <g id="Regular-M" transform="matrix(1 0 0 1 1391.32 1126)">
   <path d="M56.5994-26.0618C63.3788-26.0618 68.8745-31.541 68.8745-38.2987C68.8745-45.0551 63.3788-50.533 56.5994-50.533C49.8226-50.533 44.3268-45.0551 44.3268-38.2987C44.3268-31.541 49.8226-26.0618 56.5994-26.0618ZM34.6841-38.2987C34.6841-50.3633 44.4966-60.1451 56.6007-60.1451C68.7061-60.1451 78.5211-50.3633 78.5211-38.2987C78.5211-26.2315 68.7074-16.4497 56.6007-16.4497C44.4966-16.451 34.6841-26.2315 34.6841-38.2987ZM71.068 2.77576L71.068-6.84018L42.1347-6.84018L42.1347 2.77576L71.068 2.77576ZM71.068 22.0025L71.068 12.3879L42.1347 12.3879L42.1347 22.0025L71.068 22.0025ZM17.2348-57.1452L24.055-50.3479L44.5119-70.7397L37.6942-77.5382L17.2348-57.1452ZM3.59565-70.6274L10.4159-63.8302L30.8727-84.3355L24.055-91.0204L3.59565-70.6274L3.59565-70.6274ZM92.3887-91.892L69.9298-69.5058L87.7938-51.8102L110.255-73.9718L92.3887-91.892L92.3887-91.892Z"/>
  </g>
  <g id="Light-M" transform="matrix(1 0 0 1 1095.44 1126)">
   <path d="M56.2226-25.3082C63.002-25.3082 68.4977-30.7874 68.4977-37.5451C68.4977-44.3015 63.002-49.7793 56.2226-49.7793C49.4458-49.7793 43.95-44.3015 43.95-37.5451C43.95-30.7874 49.4458-25.3082 56.2226-25.3082ZM34.3073-37.5451C34.3073-49.6096 44.1197-59.3915 56.2239-59.3915C68.3293-59.3915 78.1443-49.6096 78.1443-37.5451C78.1443-25.4779 68.3306-15.6961 56.2239-15.6961C44.1197-15.6974 34.3073-25.4779 34.3073-37.5451ZM70.6912 3.52938L70.6912-6.08655L41.7579-6.08655L41.7579 3.52938L70.6912 3.52938ZM70.6912 22.7562L70.6912 13.1415L41.7579 13.1415L41.7579 22.7562L70.6912 22.7562ZM16.858-56.3916L23.6782-49.5943L44.1351-69.9861L37.3174-76.7846L16.858-56.3916ZM3.21884-69.8738L10.0391-63.0765L30.4959-83.5819L23.6782-90.2668L3.21884-69.8738L3.21884-69.8738ZM92.0118-91.1383L69.553-68.7522L87.417-51.0566L109.878-73.2182L92.0118-91.1383L92.0118-91.1383Z"/>
  </g>
  <g id="Thin-M" transform="matrix(1 0 0 1 799.828 1126)">
   <path d="M55.7242-24.3115C62.5036-24.3115 67.9994-29.7906 67.9994-36.5483C67.9994-43.3048 62.5036-48.7826 55.7242-48.7826C48.9474-48.7826 43.4517-43.3048 43.4517-36.5483C43.4517-29.7906 48.9474-24.3115 55.7242-24.3115ZM33.8089-36.5483C33.8089-48.6129 43.6214-58.3947 55.7255-58.3947C67.8309-58.3947 77.6459-48.6129 77.6459-36.5483C77.6459-24.4812 67.8322-14.6994 55.7255-14.6994C43.6214-14.7007 33.8089-24.4812 33.8089-36.5483ZM70.1928 4.52611L70.1928-5.08983L41.2595-5.08983L41.2595 4.52611L70.1928 4.52611ZM70.1928 23.7529L70.1928 14.1382L41.2595 14.1382L41.2595 23.7529L70.1928 23.7529ZM16.3596-55.3949L23.1799-48.5976L43.6367-68.9894L36.819-75.7879L16.3596-55.3949ZM2.72047-68.8771L9.54069-62.0798L29.9975-82.5851L23.1799-89.2701L2.72047-68.8771L2.72047-68.8771ZM91.5135-90.1416L69.0546-67.7555L86.9186-50.0599L109.38-72.2215L91.5135-90.1416L91.5135-90.1416Z"/>
  </g>
  <g id="Ultralight-M" transform="matrix(1 0 0 1 503.679 1126)">
   <path d="M55.469-23.801C62.2484-23.801 67.7441-29.2801 67.7441-36.0378C67.7441-42.7942 62.2484-48.2721 55.469-48.2721C48.6921-48.2721 43.1964-42.7942 43.1964-36.0378C43.1964-29.2801 48.6921-23.801 55.469-23.801ZM33.5537-36.0378C33.5537-48.1024 43.3661-57.8842 55.4703-57.8842C67.5757-57.8842 77.3907-48.1024 77.3907-36.0378C77.3907-23.9707 67.5769-14.1889 55.4703-14.1889C43.3661-14.1901 33.5537-23.9707 33.5537-36.0378ZM69.9375 5.03663L69.9375-4.57931L41.0042-4.57931L41.0042 5.03663L69.9375 5.03663ZM69.9375 24.2634L69.9375 14.6487L41.0042 14.6487L41.0042 24.2634L69.9375 24.2634ZM16.1044-54.8843L22.9246-48.0871L43.3814-68.4788L36.5638-75.2774L16.1044-54.8843ZM2.46521-68.3665L9.28543-61.5693L29.7423-82.0746L22.9246-88.7596L2.46521-68.3665L2.46521-68.3665ZM91.2582-89.6311L68.7993-67.2449L86.6633-49.5494L109.125-71.7109L91.2582-89.6311L91.2582-89.6311Z"/>
  </g>
  <g id="Black-S" transform="matrix(1 0 0 1 2884.57 696)">
   <path d="M42.539-31.409C47.852-31.409 52.159-35.703 52.159-40.999C52.159-46.294 47.852-50.587 42.539-50.587C37.228-50.587 32.921-46.294 32.921-40.999C32.921-35.703 37.228-31.409 42.539-31.409ZM25.364-40.999C25.364-50.454 33.054-58.12 42.54-58.12C52.027-58.12 59.719-50.454 59.719-40.999C59.719-31.542 52.028-23.876 42.54-23.876C33.054-23.877 25.364-31.542 25.364-40.999ZM53.878-8.809L53.878-16.345L31.203-16.345L31.203-8.809L53.878-8.809ZM53.878 6.259L53.878-1.276L31.203-1.276L31.203 6.259L53.878 6.259ZM11.689-55.769L17.034-50.442L33.066-66.423L27.723-71.751L11.689-55.769ZM1-66.335L6.345-61.008L22.377-77.078L17.034-82.317L1-66.335L1-66.335ZM70.587-83L52.986-65.456L66.986-51.588L84.589-68.956L70.587-83L70.587-83Z"/>
  </g>
  <g id="Heavy-S" transform="matrix(1 0 0 1 2588.46 696)">
   <path d="M43.011-30.7009C48.324-30.7009 52.631-34.9949 52.631-40.2909C52.631-45.5859 48.324-49.8789 43.011-49.8789C37.7-49.8789 33.393-45.5859 33.393-40.2909C33.393-34.9949 37.7-30.7009 43.011-30.7009ZM25.836-40.2909C25.836-49.7459 33.526-57.4119 43.012-57.4119C52.499-57.4119 60.191-49.7459 60.191-40.2909C60.191-30.8339 52.5-23.1679 43.012-23.1679C33.526-23.1689 25.836-30.8339 25.836-40.2909ZM54.35-8.10094L54.35-15.6369L31.675-15.6369L31.675-8.10094L54.35-8.10094ZM54.35 6.96706L54.35-0.567937L31.675-0.567937L31.675 6.96706L54.35 6.96706ZM12.161-55.0609L17.506-49.7339L33.538-65.7149L28.195-71.0429L12.161-55.0609ZM1.47204-65.6269L6.81704-60.2999L22.849-76.3699L17.506-81.6089L1.47204-65.6269L1.47204-65.6269ZM71.059-82.2919L53.458-64.7479L67.458-50.8799L85.061-68.2479L71.059-82.2919L71.059-82.2919Z"/>
  </g>
  <g id="Bold-S" transform="matrix(1 0 0 1 2292.43 696)">
   <path d="M43.539-29.909C48.852-29.909 53.159-34.203 53.159-39.499C53.159-44.794 48.852-49.087 43.539-49.087C38.228-49.087 33.921-44.794 33.921-39.499C33.921-34.203 38.228-29.909 43.539-29.909ZM26.364-39.499C26.364-48.954 34.054-56.62 43.54-56.62C53.027-56.62 60.719-48.954 60.719-39.499C60.719-30.042 53.028-22.376 43.54-22.376C34.054-22.377 26.364-30.042 26.364-39.499ZM54.878-7.309L54.878-14.845L32.203-14.845L32.203-7.309L54.878-7.309ZM54.878 7.759L54.878 0.224L32.203 0.224L32.203 7.759L54.878 7.759ZM12.689-54.269L18.034-48.942L34.066-64.923L28.723-70.251L12.689-54.269ZM2-64.835L7.345-59.508L23.377-75.578L18.034-80.817L2-64.835L2-64.835ZM71.587-81.5L53.986-63.956L67.986-50.088L85.589-67.456L71.587-81.5L71.587-81.5Z"/>
  </g>
  <g id="Semibold-S" transform="matrix(1 0 0 1 1996.19 696)">
   <path d="M43.903-29.363C49.216-29.363 53.523-33.657 53.523-38.953C53.523-44.248 49.216-48.541 43.903-48.541C38.592-48.541 34.285-44.248 34.285-38.953C34.285-33.657 38.592-29.363 43.903-29.363ZM26.728-38.953C26.728-48.408 34.418-56.074 43.904-56.074C53.391-56.074 61.083-48.408 61.083-38.953C61.083-29.496 53.392-21.83 43.904-21.83C34.418-21.831 26.728-29.496 26.728-38.953ZM55.242-6.763L55.242-14.299L32.567-14.299L32.567-6.763L55.242-6.763ZM55.242 8.305L55.242 0.77L32.567 0.77L32.567 8.305L55.242 8.305ZM13.053-53.723L18.398-48.396L34.43-64.377L29.087-69.705L13.053-53.723ZM2.364-64.289L7.709-58.962L23.741-75.032L18.398-80.271L2.364-64.289L2.364-64.289ZM71.951-80.954L54.35-63.41L68.35-49.542L85.953-66.91L71.951-80.954L71.951-80.954Z"/>
  </g>
  <g id="Medium-S" transform="matrix(1 0 0 1 1699.83 696)">
   <path d="M44.179-28.949C49.492-28.949 53.799-33.243 53.799-38.539C53.799-43.834 49.492-48.127 44.179-48.127C38.868-48.127 34.561-43.834 34.561-38.539C34.561-33.243 38.868-28.949 44.179-28.949ZM27.004-38.539C27.004-47.994 34.694-55.66 44.18-55.66C53.667-55.66 61.359-47.994 61.359-38.539C61.359-29.082 53.668-21.416 44.18-21.416C34.694-21.417 27.004-29.082 27.004-38.539ZM55.518-6.349L55.518-13.885L32.843-13.885L32.843-6.349L55.518-6.349ZM55.518 8.719L55.518 1.184L32.843 1.184L32.843 8.719L55.518 8.719ZM13.329-53.309L18.674-47.982L34.706-63.963L29.363-69.291L13.329-53.309ZM2.64-63.875L7.985-58.548L24.017-74.618L18.674-79.857L2.64-63.875L2.64-63.875ZM72.227-80.54L54.626-62.996L68.626-49.128L86.229-66.496L72.227-80.54L72.227-80.54Z"/>
  </g>
  <g id="Regular-S" transform="matrix(1 0 0 1 1403.58 696)">
   <path d="M44.539-28.409C49.852-28.409 54.159-32.703 54.159-37.999C54.159-43.294 49.852-47.587 44.539-47.587C39.228-47.587 34.921-43.294 34.921-37.999C34.921-32.703 39.228-28.409 44.539-28.409ZM27.364-37.999C27.364-47.454 35.054-55.12 44.54-55.12C54.027-55.12 61.719-47.454 61.719-37.999C61.719-28.542 54.028-20.876 44.54-20.876C35.054-20.877 27.364-28.542 27.364-37.999ZM55.878-5.809L55.878-13.345L33.203-13.345L33.203-5.809L55.878-5.809ZM55.878 9.259L55.878 1.724L33.203 1.724L33.203 9.259L55.878 9.259ZM13.689-52.769L19.034-47.442L35.066-63.423L29.723-68.751L13.689-52.769ZM3-63.335L8.345-58.008L24.377-74.078L19.034-79.317L3-63.335L3-63.335ZM72.587-80L54.986-62.456L68.986-48.588L86.589-65.956L72.587-80L72.587-80Z"/>
  </g>
  <g id="Light-S" transform="matrix(1 0 0 1 1107.6 696)">
   <path d="M44.2057-27.7423C49.5187-27.7423 53.8257-32.0363 53.8257-37.3323C53.8257-42.6273 49.5187-46.9203 44.2057-46.9203C38.8947-46.9203 34.5877-42.6273 34.5877-37.3323C34.5877-32.0363 38.8947-27.7423 44.2057-27.7423ZM27.0307-37.3323C27.0307-46.7873 34.7207-54.4533 44.2067-54.4533C53.6937-54.4533 61.3857-46.7873 61.3857-37.3323C61.3857-27.8753 53.6947-20.2093 44.2067-20.2093C34.7207-20.2103 27.0307-27.8753 27.0307-37.3323ZM55.5447-5.14233L55.5447-12.6783L32.8697-12.6783L32.8697-5.14233L55.5447-5.14233ZM55.5447 9.92567L55.5447 2.39067L32.8697 2.39067L32.8697 9.92567L55.5447 9.92567ZM13.3557-52.1023L18.7007-46.7753L34.7327-62.7563L29.3897-68.0843L13.3557-52.1023ZM2.66667-62.6683L8.01167-57.3413L24.0437-73.4113L18.7007-78.6503L2.66667-62.6683L2.66667-62.6683ZM72.2537-79.3333L54.6527-61.7893L68.6527-47.9213L86.2557-65.2893L72.2537-79.3333L72.2537-79.3333Z"/>
  </g>
  <g id="Thin-S" transform="matrix(1 0 0 1 811.863 696)">
   <path d="M43.7648-26.8606C49.0778-26.8606 53.3848-31.1546 53.3848-36.4506C53.3848-41.7456 49.0778-46.0386 43.7648-46.0386C38.4538-46.0386 34.1468-41.7456 34.1468-36.4506C34.1468-31.1546 38.4538-26.8606 43.7648-26.8606ZM26.5898-36.4506C26.5898-45.9056 34.2798-53.5716 43.7658-53.5716C53.2528-53.5716 60.9448-45.9056 60.9448-36.4506C60.9448-26.9936 53.2538-19.3276 43.7658-19.3276C34.2798-19.3286 26.5898-26.9936 26.5898-36.4506ZM55.1038-4.26061L55.1038-11.7966L32.4288-11.7966L32.4288-4.26061L55.1038-4.26061ZM55.1038 10.8074L55.1038 3.27239L32.4288 3.27239L32.4288 10.8074L55.1038 10.8074ZM12.9148-51.2206L18.2598-45.8936L34.2918-61.8746L28.9488-67.2026L12.9148-51.2206ZM2.22581-61.7866L7.57081-56.4596L23.6028-72.5296L18.2598-77.7686L2.22581-61.7866L2.22581-61.7866ZM71.8128-78.4516L54.2118-60.9076L68.2118-47.0396L85.8148-64.4076L71.8128-78.4516L71.8128-78.4516Z"/>
  </g>
  <g id="Ultralight-S" transform="matrix(1 0 0 1 515.649 696)">
   <path d="M43.539-26.409C48.852-26.409 53.159-30.703 53.159-35.999C53.159-41.294 48.852-45.587 43.539-45.587C38.228-45.587 33.921-41.294 33.921-35.999C33.921-30.703 38.228-26.409 43.539-26.409ZM26.364-35.999C26.364-45.454 34.054-53.12 43.54-53.12C53.027-53.12 60.719-45.454 60.719-35.999C60.719-26.542 53.028-18.876 43.54-18.876C34.054-18.877 26.364-26.542 26.364-35.999ZM54.878-3.809L54.878-11.345L32.203-11.345L32.203-3.809L54.878-3.809ZM54.878 11.259L54.878 3.724L32.203 3.724L32.203 11.259L54.878 11.259ZM12.689-50.769L18.034-45.442L34.066-61.423L28.723-66.751L12.689-50.769ZM2-61.335L7.345-56.008L23.377-72.078L18.034-77.317L2-61.335L2-61.335ZM71.587-78L53.986-60.456L67.986-46.588L85.589-63.956L71.587-78L71.587-78Z"/>
  </g>
 </g>
</svg>
