<?xml version="1.0" encoding="UTF-8"?>
<!--Generator: Apple Native CoreSVG 341-->
<!DOCTYPE svg
PUBLIC "-//W3C//DTD SVG 1.1//EN"
       "http://www.w3.org/Graphics/SVG/1.1/DTD/svg11.dtd">
<svg version="1.1" xmlns="http://www.w3.org/2000/svg" xmlns:xlink="http://www.w3.org/1999/xlink" viewBox="0 0 3300 2200">
 <g id="Notes">
  <rect height="2200" id="artboard" style="fill:white;opacity:1" width="3300" x="0" y="0"/>
  <line style="fill:none;stroke:black;opacity:1;stroke-width:0.5;" x1="263" x2="3036" y1="292" y2="292"/>
  <text style="stroke:none;fill:black;font-family:sans-serif;font-size:13;font-weight:bold;" transform="matrix(1 0 0 1 263 322)">Weight/Scale Variations</text>
  <text style="stroke:none;fill:black;font-family:sans-serif;font-size:13;text-anchor:middle;" transform="matrix(1 0 0 1 559.711 322)">Ultralight</text>
  <text style="stroke:none;fill:black;font-family:sans-serif;font-size:13;text-anchor:middle;" transform="matrix(1 0 0 1 856.422 322)">Thin</text>
  <text style="stroke:none;fill:black;font-family:sans-serif;font-size:13;text-anchor:middle;" transform="matrix(1 0 0 1 1153.13 322)">Light</text>
  <text style="stroke:none;fill:black;font-family:sans-serif;font-size:13;text-anchor:middle;" transform="matrix(1 0 0 1 1449.84 322)">Regular</text>
  <text style="stroke:none;fill:black;font-family:sans-serif;font-size:13;text-anchor:middle;" transform="matrix(1 0 0 1 1746.56 322)">Medium</text>
  <text style="stroke:none;fill:black;font-family:sans-serif;font-size:13;text-anchor:middle;" transform="matrix(1 0 0 1 2043.27 322)">Semibold</text>
  <text style="stroke:none;fill:black;font-family:sans-serif;font-size:13;text-anchor:middle;" transform="matrix(1 0 0 1 2339.98 322)">Bold</text>
  <text style="stroke:none;fill:black;font-family:sans-serif;font-size:13;text-anchor:middle;" transform="matrix(1 0 0 1 2636.69 322)">Heavy</text>
  <text style="stroke:none;fill:black;font-family:sans-serif;font-size:13;text-anchor:middle;" transform="matrix(1 0 0 1 2933.4 322)">Black</text>
  <line style="fill:none;stroke:black;opacity:1;stroke-width:0.5;" x1="263" x2="3036" y1="1903" y2="1903"/>
  <g transform="matrix(0.2 0 0 0.2 263 1933)">
   <path d="m46.2402 4.15039c21.7773 0 39.4531-17.627 39.4531-39.4043s-17.6758-39.4043-39.4531-39.4043c-21.7285 0-39.4043 17.627-39.4043 39.4043s17.6758 39.4043 39.4043 39.4043Zm0-7.42188c-17.6758 0-31.9336-14.3066-31.9336-31.9824s14.2578-31.9824 31.9336-31.9824 31.9824 14.3066 31.9824 31.9824-14.3066 31.9824-31.9824 31.9824Zm-17.9688-31.9824c0 2.14844 1.51367 3.61328 3.75977 3.61328h10.498v10.5957c0 2.19727 1.46484 3.71094 3.61328 3.71094 2.24609 0 3.71094-1.51367 3.71094-3.71094v-10.5957h10.5957c2.19727 0 3.71094-1.46484 3.71094-3.61328 0-2.19727-1.51367-3.71094-3.71094-3.71094h-10.5957v-10.5469c0-2.24609-1.46484-3.75977-3.71094-3.75977-2.14844 0-3.61328 1.51367-3.61328 3.75977v10.5469h-10.498c-2.24609 0-3.75977 1.51367-3.75977 3.71094Z"/>
  </g>
  <g transform="matrix(0.2 0 0 0.2 281.506 1933)">
   <path d="m58.5449 14.5508c27.4902 0 49.8047-22.3145 49.8047-49.8047s-22.3145-49.8047-49.8047-49.8047-49.8047 22.3145-49.8047 49.8047 22.3145 49.8047 49.8047 49.8047Zm0-8.30078c-22.9492 0-41.5039-18.5547-41.5039-41.5039s18.5547-41.5039 41.5039-41.5039 41.5039 18.5547 41.5039 41.5039-18.5547 41.5039-41.5039 41.5039Zm-22.6562-41.5039c0 2.39258 1.66016 4.00391 4.15039 4.00391h14.3555v14.4043c0 2.44141 1.66016 4.15039 4.05273 4.15039 2.44141 0 4.15039-1.66016 4.15039-4.15039v-14.4043h14.4043c2.44141 0 4.15039-1.61133 4.15039-4.00391 0-2.44141-1.70898-4.15039-4.15039-4.15039h-14.4043v-14.3555c0-2.49023-1.70898-4.19922-4.15039-4.19922-2.39258 0-4.05273 1.70898-4.05273 4.19922v14.3555h-14.3555c-2.49023 0-4.15039 1.70898-4.15039 4.15039Z"/>
  </g>
  <g transform="matrix(0.2 0 0 0.2 304.924 1933)">
   <path d="m74.8535 28.3203c35.1074 0 63.623-28.4668 63.623-63.5742s-28.5156-63.623-63.623-63.623-63.5742 28.5156-63.5742 63.623 28.4668 63.5742 63.5742 63.5742Zm0-9.08203c-30.127 0-54.4922-24.3652-54.4922-54.4922s24.3652-54.4922 54.4922-54.4922 54.4922 24.3652 54.4922 54.4922-24.3652 54.4922-54.4922 54.4922Zm-28.8574-54.4922c0 2.58789 1.85547 4.39453 4.58984 4.39453h19.7266v19.7754c0 2.68555 1.85547 4.58984 4.44336 4.58984 2.68555 0 4.54102-1.85547 4.54102-4.58984v-19.7754h19.7754c2.68555 0 4.58984-1.80664 4.58984-4.39453 0-2.73438-1.85547-4.58984-4.58984-4.58984h-19.7754v-19.7266c0-2.73438-1.85547-4.63867-4.54102-4.63867-2.58789 0-4.44336 1.9043-4.44336 4.63867v19.7266h-19.7266c-2.73438 0-4.58984 1.85547-4.58984 4.58984Z"/>
  </g>
  <text style="stroke:none;fill:black;font-family:sans-serif;font-size:13;font-weight:bold;" transform="matrix(1 0 0 1 263 1953)">Design Variations</text>
  <text style="stroke:none;fill:black;font-family:sans-serif;font-size:13;" transform="matrix(1 0 0 1 263 1971)">Symbols are supported in up to nine weights and three scales.</text>
  <text style="stroke:none;fill:black;font-family:sans-serif;font-size:13;" transform="matrix(1 0 0 1 263 1989)">For optimal layout with text and other symbols, vertically align</text>
  <text style="stroke:none;fill:black;font-family:sans-serif;font-size:13;" transform="matrix(1 0 0 1 263 2007)">symbols with the adjacent text.</text>
  <line style="fill:none;stroke:#00AEEF;stroke-width:0.5;opacity:1.0;" x1="776" x2="776" y1="1919" y2="1933"/>
  <g transform="matrix(0.2 0 0 0.2 776 1933)">
   <path d="m16.5527 0.78125c2.58789 0 3.85742-0.976562 4.78516-3.71094l6.29883-17.2363h28.8086l6.29883 17.2363c0.927734 2.73438 2.19727 3.71094 4.73633 3.71094 2.58789 0 4.24805-1.5625 4.24805-4.00391 0-0.830078-0.146484-1.61133-0.537109-2.63672l-22.9004-60.9863c-1.12305-2.97852-3.125-4.49219-6.25-4.49219-3.02734 0-5.07812 1.46484-6.15234 4.44336l-22.9004 61.084c-0.390625 1.02539-0.537109 1.80664-0.537109 2.63672 0 2.44141 1.5625 3.95508 4.10156 3.95508Zm13.4766-28.3691 11.8652-32.8613h0.244141l11.8652 32.8613Z"/>
  </g>
  <line style="fill:none;stroke:#00AEEF;stroke-width:0.5;opacity:1.0;" x1="792.836" x2="792.836" y1="1919" y2="1933"/>
  <text style="stroke:none;fill:black;font-family:sans-serif;font-size:13;font-weight:bold;" transform="matrix(1 0 0 1 776 1953)">Margins</text>
  <text style="stroke:none;fill:black;font-family:sans-serif;font-size:13;" transform="matrix(1 0 0 1 776 1971)">Leading and trailing margins on the left and right side of each symbol</text>
  <text style="stroke:none;fill:black;font-family:sans-serif;font-size:13;" transform="matrix(1 0 0 1 776 1989)">can be adjusted by modifying the x-location of the margin guidelines.</text>
  <text style="stroke:none;fill:black;font-family:sans-serif;font-size:13;" transform="matrix(1 0 0 1 776 2007)">Modifications are automatically applied proportionally to all</text>
  <text style="stroke:none;fill:black;font-family:sans-serif;font-size:13;" transform="matrix(1 0 0 1 776 2025)">scales and weights.</text>
  <g transform="matrix(0.2 0 0 0.2 1289 1933)">
   <path d="m14.209 9.32617 8.49609 8.54492c4.29688 4.3457 9.22852 4.05273 13.8672-1.07422l53.4668-58.9355-4.83398-4.88281-53.0762 58.3984c-1.75781 2.00195-3.41797 2.49023-5.76172 0.146484l-5.85938-5.81055c-2.34375-2.29492-1.80664-4.00391 0.195312-5.81055l57.373-54.0039-4.88281-4.83398-57.959 54.4434c-4.93164 4.58984-5.32227 9.47266-1.02539 13.8184Zm32.0801-90.9668c-2.09961 2.05078-2.24609 4.93164-1.07422 6.88477 1.17188 1.80664 3.4668 2.97852 6.68945 2.14844 7.32422-1.70898 14.9414-2.00195 22.0703 2.68555l-2.92969 7.27539c-1.70898 4.15039-0.830078 7.08008 1.85547 9.81445l11.4746 11.5723c2.44141 2.44141 4.49219 2.53906 7.32422 2.05078l5.32227-0.976562 3.32031 3.36914-0.195312 2.7832c-0.195312 2.49023 0.439453 4.39453 2.88086 6.78711l3.80859 3.71094c2.39258 2.39258 5.46875 2.53906 7.8125 0.195312l14.5508-14.5996c2.34375-2.34375 2.24609-5.32227-0.146484-7.71484l-3.85742-3.80859c-2.39258-2.39258-4.24805-3.17383-6.64062-2.97852l-2.88086 0.244141-3.22266-3.17383 1.2207-5.61523c0.634766-2.83203-0.146484-5.0293-3.07617-7.95898l-10.9863-10.9375c-16.6992-16.6016-38.8672-16.2109-53.3203-1.75781Zm7.4707 1.85547c12.1582-8.88672 28.6133-7.37305 39.7461 3.75977l12.1582 12.0605c1.17188 1.17188 1.36719 2.09961 1.02539 3.80859l-1.61133 7.42188 7.51953 7.42188 4.93164-0.292969c1.26953-0.0488281 1.66016 0.0488281 2.63672 1.02539l2.88086 2.88086-12.207 12.207-2.88086-2.88086c-0.976562-0.976562-1.12305-1.36719-1.07422-2.68555l0.341797-4.88281-7.4707-7.42188-7.61719 1.26953c-1.61133 0.341797-2.34375 0.195312-3.56445-0.976562l-10.0098-10.0098c-1.26953-1.17188-1.41602-2.00195-0.634766-3.85742l4.39453-10.4492c-7.8125-7.27539-17.9688-10.4004-28.125-7.42188-0.78125 0.195312-1.07422-0.439453-0.439453-0.976562Z"/>
  </g>
  <text style="stroke:none;fill:black;font-family:sans-serif;font-size:13;font-weight:bold;" transform="matrix(1 0 0 1 1289 1953)">Exporting</text>
  <text style="stroke:none;fill:black;font-family:sans-serif;font-size:13;" transform="matrix(1 0 0 1 1289 1971)">Symbols should be outlined when exporting to ensure the</text>
  <text style="stroke:none;fill:black;font-family:sans-serif;font-size:13;" transform="matrix(1 0 0 1 1289 1989)">design is preserved when submitting to Xcode.</text>
  <text id="template-version" style="stroke:none;fill:black;font-family:sans-serif;font-size:13;text-anchor:end;" transform="matrix(1 0 0 1 3036 1933)">Template v.2.0</text>
  <text style="stroke:none;fill:black;font-family:sans-serif;font-size:13;text-anchor:end;" transform="matrix(1 0 0 1 3036 1951)">Requires Xcode 12 or greater</text>
  <text id="descriptive-name" style="stroke:none;fill:black;font-family:sans-serif;font-size:13;text-anchor:end;" transform="matrix(1 0 0 1 3036 1969)">Generated from carplay</text>
  <text style="stroke:none;fill:black;font-family:sans-serif;font-size:13;text-anchor:end;" transform="matrix(1 0 0 1 3036 1987)">Typeset at 100.0 points</text>
  <text style="stroke:none;fill:black;font-family:sans-serif;font-size:13;" transform="matrix(1 0 0 1 263 726)">Small</text>
  <text style="stroke:none;fill:black;font-family:sans-serif;font-size:13;" transform="matrix(1 0 0 1 263 1156)">Medium</text>
  <text style="stroke:none;fill:black;font-family:sans-serif;font-size:13;" transform="matrix(1 0 0 1 263 1586)">Large</text>
 </g>
 <g id="Guides">
  <g id="H-reference" style="fill:#27AAE1;stroke:none;" transform="matrix(1 0 0 1 339 696)">
   <path d="M0.993654 0L3.63775 0L29.3281-67.1323L30.0303-67.1323L30.0303-70.459L28.1226-70.459ZM11.6885-24.4799L46.9815-24.4799L46.2315-26.7285L12.4385-26.7285ZM55.1196 0L57.7637 0L30.6382-70.459L29.4326-70.459L29.4326-67.1323Z"/>
  </g>
  <line id="Baseline-S" style="fill:none;stroke:#27AAE1;opacity:1;stroke-width:0.5;" x1="263" x2="3036" y1="696" y2="696"/>
  <line id="Capline-S" style="fill:none;stroke:#27AAE1;opacity:1;stroke-width:0.5;" x1="263" x2="3036" y1="625.541" y2="625.541"/>
  <g id="H-reference" style="fill:#27AAE1;stroke:none;" transform="matrix(1 0 0 1 339 1126)">
   <path d="M0.993654 0L3.63775 0L29.3281-67.1323L30.0303-67.1323L30.0303-70.459L28.1226-70.459ZM11.6885-24.4799L46.9815-24.4799L46.2315-26.7285L12.4385-26.7285ZM55.1196 0L57.7637 0L30.6382-70.459L29.4326-70.459L29.4326-67.1323Z"/>
  </g>
  <line id="Baseline-M" style="fill:none;stroke:#27AAE1;opacity:1;stroke-width:0.5;" x1="263" x2="3036" y1="1126" y2="1126"/>
  <line id="Capline-M" style="fill:none;stroke:#27AAE1;opacity:1;stroke-width:0.5;" x1="263" x2="3036" y1="1055.54" y2="1055.54"/>
  <g id="H-reference" style="fill:#27AAE1;stroke:none;" transform="matrix(1 0 0 1 339 1556)">
   <path d="M0.993654 0L3.63775 0L29.3281-67.1323L30.0303-67.1323L30.0303-70.459L28.1226-70.459ZM11.6885-24.4799L46.9815-24.4799L46.2315-26.7285L12.4385-26.7285ZM55.1196 0L57.7637 0L30.6382-70.459L29.4326-70.459L29.4326-67.1323Z"/>
  </g>
  <line id="Baseline-L" style="fill:none;stroke:#27AAE1;opacity:1;stroke-width:0.5;" x1="263" x2="3036" y1="1556" y2="1556"/>
  <line id="Capline-L" style="fill:none;stroke:#27AAE1;opacity:1;stroke-width:0.5;" x1="263" x2="3036" y1="1485.54" y2="1485.54"/>
  <line id="right-margin" style="fill:none;stroke:#00AEEF;stroke-width:0.5;opacity:1.0;" x1="1508.37" x2="1508.37" y1="1030.79" y2="1150.12"/>
  <line id="left-margin" style="fill:none;stroke:#00AEEF;stroke-width:0.5;opacity:1.0;" x1="1391.32" x2="1391.32" y1="1030.79" y2="1150.12"/>
 </g>
 <g id="Symbols">
  <g id="Black-L" transform="matrix(1 0 0 1 2854.19 1556)">
   <path d="M121.226-61.6455C117.559-59.4799 117.559-59.4799 121.226-61.6455C112.725-79.3052 94.6655-91.4805 73.7389-91.4805C44.6271-91.4805 21.1443-67.9175 21.1443-38.8055C21.1443-9.69346 44.6271 13.8695 73.7389 13.8695C90.5337 13.8695 105.482 6.02747 115.124-6.19801L125.79 0.100747C113.92 15.7482 95.1364 25.8457 74.0091 25.8457C38.2223 25.8457 9.11032-3.25649 9.11032-39.2108C9.11032-75.1651 38.2223-104.267 74.0091-104.267C99.5057-104.267 121.589-89.5615 132.227-68.1423C128.56-65.9767 124.893-63.8111 121.226-61.6455ZM62.0782-14.197C58.9418-12.2669 55.4032-13.795 55.4032-17.0117L55.4032-60.5189C55.4032-63.7356 59.2634-65.0224 62.0782-63.3336L97.865-42.2635C100.599-40.7356 100.68-36.795 97.865-35.2671L62.0782-14.197Z"/>
  </g>
  <g id="Heavy-L" transform="matrix(1 0 0 1 2558.42 1556)">
   <path d="M121.693-60.6041C118.026-58.4384 118.026-58.4384 121.693-60.6041C113.192-78.2638 95.1328-90.4391 74.2063-90.4391C45.0944-90.4391 21.6116-66.8761 21.6116-37.7641C21.6116-8.65205 45.0944 14.911 74.2063 14.911C91.001 14.911 105.949 7.06887 115.591-5.1566L126.257 1.14215C114.387 16.7897 95.6037 26.8871 74.4765 26.8871C38.6896 26.8871 9.57765-2.21508 9.57765-38.1694C9.57765-74.1237 38.6896-103.226 74.4765-103.226C99.973-103.226 122.056-88.5201 132.695-67.1009C129.028-64.9353 125.36-62.7697 121.693-60.6041ZM62.5455-13.1556C59.4091-11.2255 55.8705-12.7536 55.8705-15.9703L55.8705-59.4775C55.8705-62.6942 59.7308-63.981 62.5455-62.2922L98.3323-41.2221C101.067-39.6942 101.147-35.7536 98.3323-34.2257L62.5455-13.1556Z"/>
  </g>
  <g id="Bold-L" transform="matrix(1 0 0 1 2262.89 1556)">
   <path d="M122.157-59.3212C118.49-57.1556 118.49-57.1556 122.157-59.3212C113.656-76.9809 95.5966-89.1563 74.6701-89.1563C45.5582-89.1563 22.0755-65.5933 22.0755-36.4812C22.0755-7.3692 45.5582 16.1938 74.6701 16.1938C91.4648 16.1938 106.413 8.35173 116.055-3.87375L126.721 2.42501C114.851 18.0725 96.0675 28.1699 74.9403 28.1699C39.1535 28.1699 10.0415-0.932233 10.0415-36.8866C10.0415-72.8409 39.1535-101.943 74.9403-101.943C100.437-101.943 122.52-87.2373 133.158-65.818C129.491-63.6524 125.824-61.4868 122.157-59.3212ZM63.0093-11.8728C59.873-9.94264 56.3344-11.4707 56.3344-14.6875L56.3344-58.1946C56.3344-61.4114 60.1946-62.6982 63.0093-61.0094L98.7962-39.9393C101.53-38.4114 101.611-34.4707 98.7962-32.9428L63.0093-11.8728Z"/>
  </g>
  <g id="Semibold-L" transform="matrix(1 0 0 1 1966.99 1556)">
   <path d="M122.477-58.4368C118.81-56.2712 118.81-56.2712 122.477-58.4368C113.976-76.0966 95.9164-88.2719 74.9899-88.2719C45.878-88.2719 22.3952-64.7089 22.3952-35.5969C22.3952-6.48481 45.878 17.0782 74.9899 17.0782C91.7846 17.0782 106.733 9.23612 116.375-2.98936L127.041 3.3094C115.171 18.9569 96.3873 29.0543 75.2601 29.0543C39.4732 29.0543 10.3612-0.0478431 10.3612-36.0022C10.3612-71.9565 39.4732-101.059 75.2601-101.059C100.757-101.059 122.84-86.3529 133.478-64.9337C129.811-62.768 126.144-60.6024 122.477-58.4368ZM63.3291-10.9884C60.1927-9.05825 56.6541-10.5863 56.6541-13.8031L56.6541-57.3102C56.6541-60.527 60.5144-61.8138 63.3291-60.125L99.1159-39.0549C101.85-37.527 101.931-33.5864 99.1159-32.0584L63.3291-10.9884Z"/>
  </g>
  <g id="Medium-L" transform="matrix(1 0 0 1 1670.89 1556)">
   <path d="M122.719-57.7662C119.052-55.6006 119.052-55.6006 122.719-57.7662C114.218-75.426 96.1589-87.6013 75.2323-87.6013C46.1204-87.6013 22.6377-64.0383 22.6377-34.9263C22.6377-5.81423 46.1204 17.7488 75.2323 17.7488C92.027 17.7488 106.975 9.9067 116.618-2.31878L127.283 3.97998C115.413 19.6275 96.6297 29.7249 75.5025 29.7249C39.7157 29.7249 10.6037 0.622738 10.6037-35.3316C10.6037-71.2859 39.7157-100.388 75.5025-100.388C100.999-100.388 123.082-85.6823 133.721-64.2631C130.054-62.0975 126.386-59.9318 122.719-57.7662ZM63.5716-10.3178C60.4352-8.38767 56.8966-9.91575 56.8966-13.1325L56.8966-56.6397C56.8966-59.8564 60.7568-61.1432 63.5716-59.4544L99.3584-38.3843C102.093-36.8564 102.173-32.9158 99.3584-31.3879L63.5716-10.3178Z"/>
  </g>
  <g id="Regular-L" transform="matrix(1 0 0 1 1374.99 1556)">
   <path d="M123.036-56.8916C119.369-54.726 119.369-54.726 123.036-56.8916C114.534-74.5513 96.4751-86.7266 75.5486-86.7266C46.4367-86.7266 22.9539-63.1636 22.9539-34.0516C22.9539-4.93956 46.4367 18.6234 75.5486 18.6234C92.3433 18.6234 107.291 10.7814 116.934-1.44411L127.6 4.85465C115.729 20.5021 96.946 30.5996 75.8188 30.5996C40.0319 30.5996 10.92 1.49741 10.92-34.4569C10.92-70.4112 40.0319-99.5134 75.8188-99.5134C101.315-99.5134 123.398-84.8076 134.037-63.3884C130.37-61.2228 126.703-59.0572 123.036-56.8916ZM63.8878-9.44311C60.7514-7.51299 57.2128-9.04108 57.2128-12.2578L57.2128-55.765C57.2128-58.9817 61.0731-60.2685 63.8878-58.5797L99.6746-37.5096C102.409-35.9817 102.489-32.0411 99.6746-30.5132L63.8878-9.44311Z"/>
  </g>
  <g id="Light-L" transform="matrix(1 0 0 1 1079.2 1556)">
   <path d="M122.615-56.051C118.948-53.8854 118.948-53.8854 122.615-56.051C114.114-73.7107 96.0548-85.886 75.1283-85.886C46.0164-85.886 22.5336-62.3231 22.5336-33.211C22.5336-4.09898 46.0164 19.464 75.1283 19.464C91.923 19.464 106.871 11.6219 116.513-0.603532L127.179 5.69523C115.309 21.3427 96.5257 31.4402 75.3985 31.4402C39.6116 31.4402 10.4997 2.33799 10.4997-33.6163C10.4997-69.5707 39.6116-98.6728 75.3985-98.6728C100.895-98.6728 122.978-83.9671 133.617-62.5478C129.95-60.3822 126.282-58.2166 122.615-56.051ZM63.4675-8.60253C60.3311-6.67241 56.7926-8.2005 56.7926-11.4173L56.7926-54.9244C56.7926-58.1412 60.6528-59.428 63.4675-57.7391L99.2544-36.6691C101.989-35.1411 102.069-31.2005 99.2544-29.6726L63.4675-8.60253Z"/>
  </g>
  <g id="Thin-L" transform="matrix(1 0 0 1 783.716 1556)">
   <path d="M122.059-54.9392C118.392-52.7736 118.392-52.7736 122.059-54.9392C113.558-72.599 95.499-84.7743 74.5724-84.7743C45.4605-84.7743 21.9778-61.2113 21.9778-32.0993C21.9778-2.98724 45.4605 20.5758 74.5724 20.5758C91.3671 20.5758 106.315 12.7337 115.958 0.508203L126.624 6.80696C114.753 22.4545 95.9698 32.5519 74.8426 32.5519C39.0558 32.5519 9.9438 3.44972 9.9438-32.5046C9.9438-68.4589 39.0558-97.5611 74.8426-97.5611C100.339-97.5611 122.422-82.8553 133.061-61.4361C129.394-59.2705 125.727-57.1049 122.059-54.9392ZM62.9116-7.4908C59.7753-5.56068 56.2367-7.08877 56.2367-10.3055L56.2367-53.8127C56.2367-57.0294 60.0969-58.3162 62.9116-56.6274L98.6985-35.5573C101.433-34.0294 101.513-30.0888 98.6985-28.5609L62.9116-7.4908Z"/>
  </g>
  <g id="Ultralight-L" transform="matrix(1 0 0 1 487.632 1556)">
   <path d="M121.775-54.3698C118.108-52.2042 118.108-52.2042 121.775-54.3698C113.274-72.0296 95.2142-84.2049 74.2877-84.2049C45.1758-84.2049 21.6931-60.6419 21.6931-31.5299C21.6931-2.41782 45.1758 21.1452 74.2877 21.1452C91.0824 21.1452 106.03 13.3031 115.673 1.07763L126.339 7.37639C114.468 23.0239 95.6851 33.1213 74.5579 33.1213C38.7711 33.1213 9.65908 4.01915 9.65908-31.9352C9.65908-67.8895 38.7711-96.9917 74.5579-96.9917C100.054-96.9917 122.137-82.2859 132.776-60.8667C129.109-58.701 125.442-56.5354 121.775-54.3698ZM62.6269-6.92137C59.4906-4.99126 55.952-6.51934 55.952-9.7361L55.952-53.2432C55.952-56.46 59.8122-57.7468 62.6269-56.058L98.4138-34.9879C101.148-33.46 101.228-29.5194 98.4138-27.9914L62.6269-6.92137Z"/>
  </g>
  <g id="Black-M" transform="matrix(1 0 0 1 2871.35 1126)">
   <path d="M93.4603-56.4762C90.6192-54.7984 90.6192-54.7984 93.4603-56.4762C86.8741-70.1579 72.8827-79.5906 56.6701-79.5906C34.1159-79.5906 15.9228-61.3354 15.9228-38.7811C15.9228-16.2268 34.1159 2.02846 56.6701 2.02846C69.6816 2.02846 81.2625-4.04712 88.7329-13.5187L96.9962-8.6388C87.7998 3.48397 73.2475 11.3069 56.8794 11.3069C29.1538 11.3069 6.59957-11.2398 6.59957-39.0951C6.59957-66.9504 29.1538-89.4971 56.8794-89.4971C76.6326-89.4971 93.7412-78.1039 101.983-61.5096C99.1424-59.8318 96.3013-58.154 93.4603-56.4762ZM47.636-19.7159C45.2061-18.2205 42.4646-19.4044 42.4646-21.8966L42.4646-55.6034C42.4646-58.0955 45.4553-59.0925 47.636-57.7841L75.3615-41.4602C77.4798-40.2764 77.5422-37.2235 75.3615-36.0397L47.636-19.7159Z"/>
  </g>
  <g id="Heavy-M" transform="matrix(1 0 0 1 2575.47 1126)">
   <path d="M93.9559-55.5357C91.1148-53.8579 91.1148-53.8579 93.9559-55.5357C87.3697-69.2174 73.3784-78.6501 57.1657-78.6501C34.6115-78.6501 16.4184-60.3949 16.4184-37.8406C16.4184-15.2863 34.6115 2.96896 57.1657 2.96896C70.1773 2.96896 81.7581-3.10662 89.2285-12.5782L97.4919-7.6983C88.2954 4.42447 73.7432 12.2474 57.375 12.2474C29.6495 12.2474 7.09519-10.2993 7.09519-38.1546C7.09519-66.0099 29.6495-88.5566 57.375-88.5566C77.1283-88.5566 94.2368-77.1634 102.479-60.5691C99.638-58.8913 96.797-57.2135 93.9559-55.5357ZM48.1316-18.7754C45.7017-17.28 42.9602-18.4639 42.9602-20.9561L42.9602-54.6629C42.9602-57.155 45.9509-58.152 48.1316-56.8436L75.8572-40.5197C77.9755-39.3359 78.0379-36.283 75.8572-35.0992L48.1316-18.7754Z"/>
  </g>
  <g id="Bold-M" transform="matrix(1 0 0 1 2279.69 1126)">
   <path d="M94.5103-54.4836C91.6693-52.8058 91.6693-52.8058 94.5103-54.4836C87.9241-68.1653 73.9328-77.5981 57.7201-77.5981C35.1659-77.5981 16.9728-59.3428 16.9728-36.7885C16.9728-14.2342 35.1659 4.02105 57.7201 4.02105C70.7317 4.02105 82.3125-2.05454 89.783-11.5261L98.0463-6.64622C88.8498 5.47656 74.2976 13.2995 57.9294 13.2995C30.2039 13.2995 7.64961-9.24721 7.64961-37.1025C7.64961-64.9579 30.2039-87.5045 57.9294-87.5045C77.6827-87.5045 94.7913-76.1113 103.034-59.517C100.192-57.8392 97.3514-56.1614 94.5103-54.4836ZM48.686-17.7233C46.2561-16.2279 43.5147-17.4118 43.5147-19.904L43.5147-53.6108C43.5147-56.1029 46.5053-57.0999 48.686-55.7915L76.4116-39.4676C78.5299-38.2839 78.5923-35.2309 76.4116-34.0472L48.686-17.7233Z"/>
  </g>
  <g id="Semibold-M" transform="matrix(1 0 0 1 1983.62 1126)">
   <path d="M94.8925-53.7583C92.0515-52.0805 92.0515-52.0805 94.8925-53.7583C88.3063-67.44 74.315-76.8728 58.1023-76.8728C35.5481-76.8728 17.355-58.6175 17.355-36.0632C17.355-13.5089 35.5481 4.74635 58.1023 4.74635C71.1139 4.74635 82.6947-1.32924 90.1652-10.8008L98.4285-5.92092C89.2321 6.20186 74.6798 14.0248 58.3117 14.0248C30.5861 14.0248 8.03182-8.52191 8.03182-36.3772C8.03182-64.2326 30.5861-86.7792 58.3117-86.7792C78.0649-86.7792 95.1735-75.386 103.416-58.7917C100.575-57.1139 97.7336-55.4361 94.8925-53.7583ZM49.0682-16.998C46.6384-15.5026 43.8969-16.6865 43.8969-19.1787L43.8969-52.8855C43.8969-55.3776 46.8876-56.3746 49.0682-55.0662L76.7938-38.7423C78.9121-37.5586 78.9745-34.5056 76.7938-33.3219L49.0682-16.998Z"/>
  </g>
  <g id="Medium-M" transform="matrix(1 0 0 1 1687.4 1126)">
   <path d="M95.1824-53.2083C92.3413-51.5306 92.3413-51.5306 95.1824-53.2083C88.5961-66.8901 74.6048-76.3228 58.3921-76.3228C35.8379-76.3228 17.6449-58.0676 17.6449-35.5133C17.6449-12.9589 35.8379 5.2963 58.3921 5.2963C71.4037 5.2963 82.9845-0.779283 90.455-10.2509L98.7183-5.37096C89.5219 6.75181 74.9696 14.5747 58.6015 14.5747C30.8759 14.5747 8.32163-7.97196 8.32163-35.8273C8.32163-63.6826 30.8759-86.2293 58.6015-86.2293C78.3547-86.2293 95.4633-74.8361 103.706-58.2417C100.864-56.5639 98.0234-54.8861 95.1824-53.2083ZM49.358-16.448C46.9282-14.9527 44.1867-16.1366 44.1867-18.6287L44.1867-52.3355C44.1867-54.8277 47.1774-55.8246 49.358-54.5162L77.0836-38.1924C79.2019-37.0086 79.2643-33.9557 77.0836-32.7719L49.358-16.448Z"/>
  </g>
  <g id="Regular-M" transform="matrix(1 0 0 1 1391.32 1126)">
   <path d="M95.5604-52.491C92.7193-50.8132 92.7193-50.8132 95.5604-52.491C88.9742-66.1728 74.9828-75.6055 58.7701-75.6055C36.216-75.6055 18.0229-57.3503 18.0229-34.7959C18.0229-12.2416 36.216 6.01363 58.7701 6.01363C71.7817 6.01363 83.3625-0.0619527 90.833-9.53354L99.0963-4.65363C89.8999 7.46914 75.3476 15.292 58.9795 15.292C31.2539 15.292 8.69965-7.25462 8.69965-35.11C8.69965-62.9653 31.2539-85.512 58.9795-85.512C78.7327-85.512 95.8413-74.1188 104.084-57.5244C101.242-55.8466 98.4014-54.1688 95.5604-52.491ZM49.7361-15.7307C47.3062-14.2354 44.5647-15.4192 44.5647-17.9114L44.5647-51.6182C44.5647-54.1104 47.5554-55.1073 49.7361-53.7989L77.4616-37.475C79.5799-36.2913 79.6423-33.2383 77.4616-32.0546L49.7361-15.7307Z"/>
  </g>
  <g id="Light-M" transform="matrix(1 0 0 1 1095.44 1126)">
   <path d="M95.1836-51.7374C92.3425-50.0596 92.3425-50.0596 95.1836-51.7374C88.5973-65.4191 74.606-74.8519 58.3933-74.8519C35.8391-74.8519 17.6461-56.5966 17.6461-34.0423C17.6461-11.488 35.8391 6.76726 58.3933 6.76726C71.4049 6.76726 82.9857 0.69167 90.4562-8.77992L98.7195-3.90001C89.5231 8.22277 74.9708 16.0457 58.6027 16.0457C30.8771 16.0457 8.32284-6.501 8.32284-34.3563C8.32284-62.2117 30.8771-84.7583 58.6027-84.7583C78.3559-84.7583 95.4645-73.3651 103.707-56.7708C100.866-55.093 98.0246-53.4152 95.1836-51.7374ZM49.3593-14.9771C46.9294-13.4817 44.1879-14.6656 44.1879-17.1578L44.1879-50.8646C44.1879-53.3567 47.1786-54.3537 49.3593-53.0453L77.0848-36.7214C79.2031-35.5377 79.2655-32.4847 77.0848-31.301L49.3593-14.9771Z"/>
  </g>
  <g id="Thin-M" transform="matrix(1 0 0 1 799.828 1126)">
   <path d="M94.6852-50.7407C91.8441-49.0629 91.8441-49.0629 94.6852-50.7407C88.099-64.4224 74.1076-73.8551 57.895-73.8551C35.3408-73.8551 17.1477-55.5999 17.1477-33.0456C17.1477-10.4913 35.3408 7.76399 57.895 7.76399C70.9065 7.76399 82.4874 1.6884 89.9578-7.78319L98.2211-2.90328C89.0247 9.2195 74.4724 17.0424 58.1043 17.0424C30.3787 17.0424 7.82447-5.50427 7.82447-33.3596C7.82447-61.2149 30.3787-83.7616 58.1043-83.7616C77.8575-83.7616 94.9661-72.3684 103.208-55.774C100.367-54.0962 97.5263-52.4185 94.6852-50.7407ZM48.8609-13.9804C46.431-12.485 43.6895-13.6689 43.6895-16.161L43.6895-49.8679C43.6895-52.36 46.6802-53.357 48.8609-52.0485L76.5865-35.7247C78.7047-34.5409 78.7671-31.488 76.5865-30.3042L48.8609-13.9804Z"/>
  </g>
  <g id="Ultralight-M" transform="matrix(1 0 0 1 503.679 1126)">
   <path d="M94.4299-50.2301C91.5889-48.5524 91.5889-48.5524 94.4299-50.2301C87.8437-63.9119 73.8524-73.3446 57.6397-73.3446C35.0855-73.3446 16.8924-55.0894 16.8924-32.5351C16.8924-9.98074 35.0855 8.2745 57.6397 8.2745C70.6513 8.2745 82.2321 2.19892 89.7026-7.27267L97.9659-2.39276C88.7694 9.73001 74.2172 17.5529 57.849 17.5529C30.1235 17.5529 7.56921-4.99376 7.56921-32.8491C7.56921-60.7044 30.1235-83.2511 57.849-83.2511C77.6023-83.2511 94.7109-71.8579 102.953-55.2635C100.112-53.5857 97.271-51.9079 94.4299-50.2301ZM48.6056-13.4698C46.1757-11.9745 43.4343-13.1584 43.4343-15.6505L43.4343-49.3573C43.4343-51.8495 46.4249-52.8464 48.6056-51.538L76.3312-35.2142C78.4495-34.0304 78.5119-30.9775 76.3312-29.7937L48.6056-13.4698Z"/>
  </g>
  <g id="Black-S" transform="matrix(1 0 0 1 2884.57 696)">
   <path d="M73.0727-52.1215C70.8461-50.8066 70.8461-50.8066 73.0727-52.1215C67.9111-62.8439 56.9461-70.2363 44.2402-70.2363C26.5645-70.2363 12.3066-55.9297 12.3066-38.2539C12.3066-20.5781 26.5645-6.27148 44.2402-6.27148C54.4374-6.27148 63.5132-11.0329 69.3678-18.4558L75.8438-14.6314C68.6365-5.1308 57.232 1 44.4043 1C22.6758 1 5-16.6698 5-38.5C5-60.3302 22.6758-78 44.4043-78C59.8849-78 73.2928-69.0712 79.7523-56.0662C77.5257-54.7513 75.2992-53.4364 73.0727-52.1215ZM37.1602-23.3125C35.2559-22.1406 33.1074-23.0684 33.1074-25.0215L33.1074-51.4375C33.1074-53.3906 35.4512-54.1719 37.1602-53.1465L58.8887-40.3535C60.5488-39.4258 60.5977-37.0332 58.8887-36.1055L37.1602-23.3125Z"/>
  </g>
  <g id="Heavy-S" transform="matrix(1 0 0 1 2588.46 696)">
   <path d="M73.5447-51.4135C71.3182-50.0986 71.3182-50.0986 73.5447-51.4135C68.3831-62.1358 57.4181-69.5282 44.7122-69.5282C27.0365-69.5282 12.7786-55.2216 12.7786-37.5458C12.7786-19.87 27.0365-5.56342 44.7122-5.56342C54.9094-5.56342 63.9853-10.3248 69.8399-17.7477L76.3158-13.9233C69.1086-4.42273 57.704 1.70806 44.8763 1.70806C23.1478 1.70806 5.47204-15.9617 5.47204-37.7919C5.47204-59.6221 23.1478-77.2919 44.8763-77.2919C60.3569-77.2919 73.7649-68.3631 80.2243-55.3581C77.9978-54.0432 75.7712-52.7283 73.5447-51.4135ZM37.6322-22.6044C35.7279-21.4325 33.5794-22.3603 33.5794-24.3134L33.5794-50.7294C33.5794-52.6825 35.9232-53.4638 37.6322-52.4384L59.3607-39.6454C61.0208-38.7177 61.0697-36.3251 59.3607-35.3974L37.6322-22.6044Z"/>
  </g>
  <g id="Bold-S" transform="matrix(1 0 0 1 2292.43 696)">
   <path d="M74.0727-50.6215C71.8461-49.3066 71.8461-49.3066 74.0727-50.6215C68.9111-61.3439 57.9461-68.7363 45.2402-68.7363C27.5645-68.7363 13.3066-54.4297 13.3066-36.7539C13.3066-19.0781 27.5645-4.77148 45.2402-4.77148C55.4374-4.77148 64.5132-9.53291 70.3678-16.9558L76.8438-13.1314C69.6365-3.6308 58.232 2.5 45.4043 2.5C23.6758 2.5 6-15.1698 6-37C6-58.8302 23.6758-76.5 45.4043-76.5C60.8849-76.5 74.2928-67.5712 80.7523-54.5662C78.5257-53.2513 76.2992-51.9364 74.0727-50.6215ZM38.1602-21.8125C36.2559-20.6406 34.1074-21.5684 34.1074-23.5215L34.1074-49.9375C34.1074-51.8906 36.4512-52.6719 38.1602-51.6465L59.8887-38.8535C61.5488-37.9258 61.5977-35.5332 59.8887-34.6055L38.1602-21.8125Z"/>
  </g>
  <g id="Semibold-S" transform="matrix(1 0 0 1 1996.19 696)">
   <path d="M74.4367-50.0755C72.2101-48.7606 72.2101-48.7606 74.4367-50.0755C69.2751-60.7979 58.3101-68.1903 45.6042-68.1903C27.9285-68.1903 13.6706-53.8837 13.6706-36.2079C13.6706-18.5321 27.9285-4.22548 45.6042-4.22548C55.8014-4.22548 64.8772-8.98691 70.7318-16.4098L77.2078-12.5854C70.0005-3.0848 58.596 3.046 45.7683 3.046C24.0398 3.046 6.364-14.6238 6.364-36.454C6.364-58.2842 24.0398-75.954 45.7683-75.954C61.2489-75.954 74.6568-67.0252 81.1163-54.0202C78.8897-52.7053 76.6632-51.3904 74.4367-50.0755ZM38.5242-21.2665C36.6199-20.0946 34.4714-21.0224 34.4714-22.9755L34.4714-49.3915C34.4714-51.3446 36.8152-52.1259 38.5242-51.1005L60.2527-38.3075C61.9128-37.3798 61.9617-34.9872 60.2527-34.0595L38.5242-21.2665Z"/>
  </g>
  <g id="Medium-S" transform="matrix(1 0 0 1 1699.83 696)">
   <path d="M74.7127-49.6615C72.4861-48.3466 72.4861-48.3466 74.7127-49.6615C69.5511-60.3839 58.5861-67.7763 45.8802-67.7763C28.2045-67.7763 13.9466-53.4697 13.9466-35.7939C13.9466-18.1181 28.2045-3.81148 45.8802-3.81148C56.0774-3.81148 65.1532-8.57291 71.0078-15.9958L77.4838-12.1714C70.2765-2.6708 58.872 3.46 46.0443 3.46C24.3158 3.46 6.64-14.2098 6.64-36.04C6.64-57.8702 24.3158-75.54 46.0443-75.54C61.5249-75.54 74.9328-66.6112 81.3923-53.6062C79.1657-52.2913 76.9392-50.9764 74.7127-49.6615ZM38.8002-20.8525C36.8959-19.6806 34.7474-20.6084 34.7474-22.5615L34.7474-48.9775C34.7474-50.9306 37.0912-51.7119 38.8002-50.6865L60.5287-37.8935C62.1888-36.9658 62.2377-34.5732 60.5287-33.6455L38.8002-20.8525Z"/>
  </g>
  <g id="Regular-S" transform="matrix(1 0 0 1 1403.58 696)">
   <path d="M75.0727-49.1215C72.8461-47.8066 72.8461-47.8066 75.0727-49.1215C69.9111-59.8439 58.9461-67.2363 46.2402-67.2363C28.5645-67.2363 14.3066-52.9297 14.3066-35.2539C14.3066-17.5781 28.5645-3.27148 46.2402-3.27148C56.4374-3.27148 65.5132-8.03291 71.3678-15.4558L77.8438-11.6314C70.6365-2.1308 59.232 4 46.4043 4C24.6758 4 7-13.6698 7-35.5C7-57.3302 24.6758-75 46.4043-75C61.8849-75 75.2928-66.0712 81.7523-53.0662C79.5257-51.7513 77.2992-50.4364 75.0727-49.1215ZM39.1602-20.3125C37.2559-19.1406 35.1074-20.0684 35.1074-22.0215L35.1074-48.4375C35.1074-50.3906 37.4512-51.1719 39.1602-50.1465L60.8887-37.3535C62.5488-36.4258 62.5977-34.0332 60.8887-33.1055L39.1602-20.3125Z"/>
  </g>
  <g id="Light-S" transform="matrix(1 0 0 1 1107.6 696)">
   <path d="M74.7393-48.4549C72.5128-47.14 72.5128-47.14 74.7393-48.4549C69.5777-59.1772 58.6127-66.5696 45.9069-66.5696C28.2312-66.5696 13.9733-52.263 13.9733-34.5872C13.9733-16.9114 28.2312-2.60481 45.9069-2.60481C56.104-2.60481 65.1799-7.36625 71.0345-14.7891L77.5105-10.9647C70.3032-1.46413 58.8986 4.66667 46.0709 4.66667C24.3424 4.66667 6.66667-13.0031 6.66667-34.8333C6.66667-56.6635 24.3424-74.3333 46.0709-74.3333C61.5515-74.3333 74.9595-65.4045 81.4189-52.3995C79.1924-51.0846 76.9659-49.7697 74.7393-48.4549ZM38.8269-19.6458C36.9226-18.4739 34.7741-19.4017 34.7741-21.3548L34.7741-47.7708C34.7741-49.7239 37.1179-50.5052 38.8269-49.4798L60.5554-36.6868C62.2155-35.7591 62.2644-33.3665 60.5554-32.4388L38.8269-19.6458Z"/>
  </g>
  <g id="Thin-S" transform="matrix(1 0 0 1 811.863 696)">
   <path d="M74.2985-47.5731C72.0719-46.2582 72.0719-46.2582 74.2985-47.5731C69.1369-58.2955 58.1719-65.6879 45.466-65.6879C27.7903-65.6879 13.5324-51.3813 13.5324-33.7055C13.5324-16.0297 27.7903-1.72309 45.466-1.72309C55.6632-1.72309 64.7391-6.48452 70.5936-13.9074L77.0696-10.083C69.8623-0.582411 58.4578 5.54839 45.6301 5.54839C23.9016 5.54839 6.22581-12.1214 6.22581-33.9516C6.22581-55.7818 23.9016-73.4516 45.6301-73.4516C61.1107-73.4516 74.5186-64.5228 80.9781-51.5178C78.7515-50.2029 76.525-48.888 74.2985-47.5731ZM38.386-18.7641C36.4817-17.5922 34.3332-18.52 34.3332-20.4731L34.3332-46.8891C34.3332-48.8422 36.677-49.6235 38.386-48.5981L60.1145-35.8051C61.7746-34.8774 61.8235-32.4848 60.1145-31.5571L38.386-18.7641Z"/>
  </g>
  <g id="Ultralight-S" transform="matrix(1 0 0 1 515.649 696)">
   <path d="M74.0727-47.1215C71.8461-45.8066 71.8461-45.8066 74.0727-47.1215C68.9111-57.8439 57.9461-65.2363 45.2402-65.2363C27.5645-65.2363 13.3066-50.9297 13.3066-33.2539C13.3066-15.5781 27.5645-1.27148 45.2402-1.27148C55.4374-1.27148 64.5132-6.03291 70.3678-13.4558L76.8438-9.63141C69.6365-0.130798 58.232 6 45.4043 6C23.6758 6 6-11.6698 6-33.5C6-55.3302 23.6758-73 45.4043-73C60.8849-73 74.2928-64.0712 80.7523-51.0662C78.5257-49.7513 76.2992-48.4364 74.0727-47.1215ZM38.1602-18.3125C36.2559-17.1406 34.1074-18.0684 34.1074-20.0215L34.1074-46.4375C34.1074-48.3906 36.4512-49.1719 38.1602-48.1465L59.8887-35.3535C61.5488-34.4258 61.5977-32.0332 59.8887-31.1055L38.1602-18.3125Z"/>
  </g>
 </g>
</svg>
