<?xml version="1.0" encoding="UTF-8"?>
<!--Generator: Apple Native CoreSVG 232.5-->
<!DOCTYPE svg
PUBLIC "-//W3C//DTD SVG 1.1//EN"
       "http://www.w3.org/Graphics/SVG/1.1/DTD/svg11.dtd">
<svg version="1.1" xmlns="http://www.w3.org/2000/svg" xmlns:xlink="http://www.w3.org/1999/xlink" width="3300" height="2200">
 <g id="Notes">
  <rect height="2200" id="artboard" style="fill:white;opacity:1" width="3300" x="0" y="0"/>
  <line style="fill:none;stroke:black;opacity:1;stroke-width:0.5;" x1="263" x2="3036" y1="292" y2="292"/>
  <text style="stroke:none;fill:black;font-family:sans-serif;font-size:13;font-weight:bold;" transform="matrix(1 0 0 1 263 322)">Weight/Scale Variations</text>
  <text style="stroke:none;fill:black;font-family:sans-serif;font-size:13;text-anchor:middle;" transform="matrix(1 0 0 1 559.711 322)">Ultralight</text>
  <text style="stroke:none;fill:black;font-family:sans-serif;font-size:13;text-anchor:middle;" transform="matrix(1 0 0 1 856.422 322)">Thin</text>
  <text style="stroke:none;fill:black;font-family:sans-serif;font-size:13;text-anchor:middle;" transform="matrix(1 0 0 1 1153.13 322)">Light</text>
  <text style="stroke:none;fill:black;font-family:sans-serif;font-size:13;text-anchor:middle;" transform="matrix(1 0 0 1 1449.84 322)">Regular</text>
  <text style="stroke:none;fill:black;font-family:sans-serif;font-size:13;text-anchor:middle;" transform="matrix(1 0 0 1 1746.56 322)">Medium</text>
  <text style="stroke:none;fill:black;font-family:sans-serif;font-size:13;text-anchor:middle;" transform="matrix(1 0 0 1 2043.27 322)">Semibold</text>
  <text style="stroke:none;fill:black;font-family:sans-serif;font-size:13;text-anchor:middle;" transform="matrix(1 0 0 1 2339.98 322)">Bold</text>
  <text style="stroke:none;fill:black;font-family:sans-serif;font-size:13;text-anchor:middle;" transform="matrix(1 0 0 1 2636.69 322)">Heavy</text>
  <text style="stroke:none;fill:black;font-family:sans-serif;font-size:13;text-anchor:middle;" transform="matrix(1 0 0 1 2933.4 322)">Black</text>
  <line style="fill:none;stroke:black;opacity:1;stroke-width:0.5;" x1="263" x2="3036" y1="1903" y2="1903"/>
  <g transform="matrix(0.2 0 0 0.2 263 1933)">
   <path d="m46.2402 4.15039c21.5332 0 39.4531-17.8711 39.4531-39.4043s-17.9688-39.4043-39.502-39.4043c-21.4844 0-39.3555 17.8711-39.3555 39.4043s17.9199 39.4043 39.4043 39.4043Zm0-7.42188c-17.7246 0-31.8848-14.209-31.8848-31.9824s14.1113-31.9824 31.8359-31.9824c17.7734 0 32.0312 14.209 32.0312 31.9824s-14.209 31.9824-31.9824 31.9824Zm-17.9688-31.9824c0 2.14844 1.51367 3.61328 3.75977 3.61328h10.498v10.5957c0 2.19727 1.46484 3.71094 3.61328 3.71094 2.24609 0 3.71094-1.51367 3.71094-3.71094v-10.5957h10.5957c2.19727 0 3.71094-1.46484 3.71094-3.61328 0-2.19727-1.51367-3.71094-3.71094-3.71094h-10.5957v-10.5469c0-2.24609-1.46484-3.75977-3.71094-3.75977-2.14844 0-3.61328 1.51367-3.61328 3.75977v10.5469h-10.498c-2.24609 0-3.75977 1.51367-3.75977 3.71094Z"/>
  </g>
  <g transform="matrix(0.2 0 0 0.2 281.506 1933)">
   <path d="m58.5449 14.5508c27.2461 0 49.8047-22.6074 49.8047-49.8047 0-27.2461-22.6074-49.8047-49.8535-49.8047-27.1973 0-49.7559 22.5586-49.7559 49.8047 0 27.1973 22.6074 49.8047 49.8047 49.8047Zm0-8.30078c-23.0469 0-41.4551-18.457-41.4551-41.5039s18.3594-41.5039 41.4062-41.5039 41.5527 18.457 41.5527 41.5039-18.457 41.5039-41.5039 41.5039Zm-22.6562-41.5039c0 2.39258 1.66016 4.00391 4.15039 4.00391h14.3555v14.4043c0 2.44141 1.66016 4.15039 4.05273 4.15039 2.44141 0 4.15039-1.66016 4.15039-4.15039v-14.4043h14.4043c2.44141 0 4.15039-1.61133 4.15039-4.00391 0-2.44141-1.70898-4.15039-4.15039-4.15039h-14.4043v-14.3555c0-2.49023-1.70898-4.19922-4.15039-4.19922-2.39258 0-4.05273 1.70898-4.05273 4.19922v14.3555h-14.3555c-2.49023 0-4.15039 1.70898-4.15039 4.15039Z"/>
  </g>
  <g transform="matrix(0.2 0 0 0.2 304.924 1933)">
   <path d="m74.8535 28.3203c34.8145 0 63.623-28.8086 63.623-63.5742 0-34.8145-28.8574-63.623-63.6719-63.623-34.7656 0-63.5254 28.8086-63.5254 63.623 0 34.7656 28.8086 63.5742 63.5742 63.5742Zm0-9.08203c-30.1758 0-54.4434-24.3164-54.4434-54.4922 0-30.2246 24.2188-54.4922 54.3945-54.4922 30.2246 0 54.541 24.2676 54.541 54.4922 0 30.1758-24.2676 54.4922-54.4922 54.4922Zm-28.8574-54.4922c0 2.58789 1.85547 4.39453 4.58984 4.39453h19.7266v19.7754c0 2.68555 1.85547 4.58984 4.44336 4.58984 2.68555 0 4.54102-1.85547 4.54102-4.58984v-19.7754h19.7754c2.68555 0 4.58984-1.80664 4.58984-4.39453 0-2.73438-1.85547-4.58984-4.58984-4.58984h-19.7754v-19.7266c0-2.73438-1.85547-4.63867-4.54102-4.63867-2.58789 0-4.44336 1.9043-4.44336 4.63867v19.7266h-19.7266c-2.73438 0-4.58984 1.85547-4.58984 4.58984Z"/>
  </g>
  <text style="stroke:none;fill:black;font-family:sans-serif;font-size:13;font-weight:bold;" transform="matrix(1 0 0 1 263 1953)">Design Variations</text>
  <text style="stroke:none;fill:black;font-family:sans-serif;font-size:13;" transform="matrix(1 0 0 1 263 1971)">Symbols are supported in up to nine weights and three scales.</text>
  <text style="stroke:none;fill:black;font-family:sans-serif;font-size:13;" transform="matrix(1 0 0 1 263 1989)">For optimal layout with text and other symbols, vertically align</text>
  <text style="stroke:none;fill:black;font-family:sans-serif;font-size:13;" transform="matrix(1 0 0 1 263 2007)">symbols with the adjacent text.</text>
  <line style="fill:none;stroke:#00AEEF;stroke-width:0.5;opacity:1.0;" x1="776" x2="776" y1="1919" y2="1933"/>
  <g transform="matrix(0.2 0 0 0.2 776 1933)">
   <path d="m16.5527 0.78125c2.58789 0 3.85742-0.976562 4.78516-3.71094l6.29883-17.2363h28.8086l6.29883 17.2363c0.927734 2.73438 2.19727 3.71094 4.73633 3.71094 2.58789 0 4.24805-1.5625 4.24805-4.00391 0-0.830078-0.146484-1.61133-0.537109-2.63672l-22.9004-60.9863c-1.12305-2.97852-3.125-4.49219-6.25-4.49219-3.02734 0-5.07812 1.46484-6.15234 4.44336l-22.9004 61.084c-0.390625 1.02539-0.537109 1.80664-0.537109 2.63672 0 2.44141 1.5625 3.95508 4.10156 3.95508Zm13.4766-28.3691 11.8652-32.8613h0.244141l11.8652 32.8613Z"/>
  </g>
  <line style="fill:none;stroke:#00AEEF;stroke-width:0.5;opacity:1.0;" x1="792.836" x2="792.836" y1="1919" y2="1933"/>
  <text style="stroke:none;fill:black;font-family:sans-serif;font-size:13;font-weight:bold;" transform="matrix(1 0 0 1 776 1953)">Margins</text>
  <text style="stroke:none;fill:black;font-family:sans-serif;font-size:13;" transform="matrix(1 0 0 1 776 1971)">Leading and trailing margins on the left and right side of each symbol</text>
  <text style="stroke:none;fill:black;font-family:sans-serif;font-size:13;" transform="matrix(1 0 0 1 776 1989)">can be adjusted by modifying the x-location of the margin guidelines.</text>
  <text style="stroke:none;fill:black;font-family:sans-serif;font-size:13;" transform="matrix(1 0 0 1 776 2007)">Modifications are automatically applied proportionally to all</text>
  <text style="stroke:none;fill:black;font-family:sans-serif;font-size:13;" transform="matrix(1 0 0 1 776 2025)">scales and weights.</text>
  <g transform="matrix(0.2 0 0 0.2 1289 1933)">
   <path d="m14.209 9.32617 8.49609 8.54492c4.29688 4.3457 9.22852 4.05273 13.8672-1.07422l53.4668-58.9355-4.83398-4.88281-53.0762 58.3984c-1.75781 2.00195-3.41797 2.49023-5.76172 0.146484l-5.85938-5.81055c-2.34375-2.29492-1.80664-4.00391 0.195312-5.81055l57.373-54.0039-4.88281-4.83398-57.959 54.4434c-4.93164 4.58984-5.32227 9.47266-1.02539 13.8184Zm32.0801-90.9668c-2.09961 2.05078-2.24609 4.93164-1.07422 6.88477 1.17188 1.80664 3.4668 2.97852 6.68945 2.14844 7.32422-1.70898 14.9414-2.00195 22.0703 2.68555l-2.92969 7.27539c-1.70898 4.15039-0.830078 7.08008 1.85547 9.81445l11.4746 11.5723c2.44141 2.44141 4.49219 2.53906 7.32422 2.05078l5.32227-0.976562 3.32031 3.36914-0.195312 2.7832c-0.195312 2.49023 0.439453 4.39453 2.88086 6.78711l3.80859 3.71094c2.39258 2.39258 5.46875 2.53906 7.8125 0.195312l14.5508-14.5996c2.34375-2.34375 2.24609-5.32227-0.146484-7.71484l-3.85742-3.80859c-2.39258-2.39258-4.24805-3.17383-6.64062-2.97852l-2.88086 0.244141-3.22266-3.17383 1.2207-5.61523c0.634766-2.83203-0.146484-5.0293-3.07617-7.95898l-10.9863-10.9375c-16.6992-16.6016-38.8672-16.2109-53.3203-1.75781Zm7.4707 1.85547c12.1582-8.88672 28.6133-7.37305 39.7461 3.75977l12.1582 12.0605c1.17188 1.17188 1.36719 2.09961 1.02539 3.80859l-1.61133 7.42188 7.51953 7.42188 4.93164-0.292969c1.26953-0.0488281 1.66016 0.0488281 2.63672 1.02539l2.88086 2.88086-12.207 12.207-2.88086-2.88086c-0.976562-0.976562-1.12305-1.36719-1.07422-2.68555l0.341797-4.88281-7.4707-7.42188-7.61719 1.26953c-1.61133 0.341797-2.34375 0.195312-3.56445-0.976562l-10.0098-10.0098c-1.26953-1.17188-1.41602-2.00195-0.634766-3.85742l4.39453-10.4492c-7.8125-7.27539-17.9688-10.4004-28.125-7.42188-0.78125 0.195312-1.07422-0.439453-0.439453-0.976562Z"/>
  </g>
  <text style="stroke:none;fill:black;font-family:sans-serif;font-size:13;font-weight:bold;" transform="matrix(1 0 0 1 1289 1953)">Exporting</text>
  <text style="stroke:none;fill:black;font-family:sans-serif;font-size:13;" transform="matrix(1 0 0 1 1289 1971)">Symbols should be outlined when exporting to ensure the</text>
  <text style="stroke:none;fill:black;font-family:sans-serif;font-size:13;" transform="matrix(1 0 0 1 1289 1989)">design is preserved when submitting to Xcode.</text>
  <text id="template-version" style="stroke:none;fill:black;font-family:sans-serif;font-size:13;text-anchor:end;" transform="matrix(1 0 0 1 3036 1933)">Template v.2.0</text>
  <text style="stroke:none;fill:black;font-family:sans-serif;font-size:13;text-anchor:end;" transform="matrix(1 0 0 1 3036 1951)">Requires Xcode 12 or greater</text>
  <text id="descriptive-name" style="stroke:none;fill:black;font-family:sans-serif;font-size:13;text-anchor:end;" transform="matrix(1 0 0 1 3036 1969)">Generated from thermometer.medium.slash</text>
  <text style="stroke:none;fill:black;font-family:sans-serif;font-size:13;text-anchor:end;" transform="matrix(1 0 0 1 3036 1987)">Typeset at 100.0 points</text>
  <text style="stroke:none;fill:black;font-family:sans-serif;font-size:13;" transform="matrix(1 0 0 1 263 726)">Small</text>
  <text style="stroke:none;fill:black;font-family:sans-serif;font-size:13;" transform="matrix(1 0 0 1 263 1156)">Medium</text>
  <text style="stroke:none;fill:black;font-family:sans-serif;font-size:13;" transform="matrix(1 0 0 1 263 1586)">Large</text>
 </g>
 <g id="Guides">
  <g id="H-reference" style="fill:#27AAE1;stroke:none;" transform="matrix(1 0 0 1 339 696)">
   <path d="M0.993654 0L3.63775 0L29.3281-67.1323L30.0303-67.1323L30.0303-70.459L28.1226-70.459ZM11.6885-24.4799L46.9815-24.4799L46.2315-26.7285L12.4385-26.7285ZM55.1196 0L57.7637 0L30.6382-70.459L29.4326-70.459L29.4326-67.1323Z"/>
  </g>
  <line id="Baseline-S" style="fill:none;stroke:#27AAE1;opacity:1;stroke-width:0.5;" x1="263" x2="3036" y1="696" y2="696"/>
  <line id="Capline-S" style="fill:none;stroke:#27AAE1;opacity:1;stroke-width:0.5;" x1="263" x2="3036" y1="625.541" y2="625.541"/>
  <g id="H-reference" style="fill:#27AAE1;stroke:none;" transform="matrix(1 0 0 1 339 1126)">
   <path d="M0.993654 0L3.63775 0L29.3281-67.1323L30.0303-67.1323L30.0303-70.459L28.1226-70.459ZM11.6885-24.4799L46.9815-24.4799L46.2315-26.7285L12.4385-26.7285ZM55.1196 0L57.7637 0L30.6382-70.459L29.4326-70.459L29.4326-67.1323Z"/>
  </g>
  <line id="Baseline-M" style="fill:none;stroke:#27AAE1;opacity:1;stroke-width:0.5;" x1="263" x2="3036" y1="1126" y2="1126"/>
  <line id="Capline-M" style="fill:none;stroke:#27AAE1;opacity:1;stroke-width:0.5;" x1="263" x2="3036" y1="1055.54" y2="1055.54"/>
  <g id="H-reference" style="fill:#27AAE1;stroke:none;" transform="matrix(1 0 0 1 339 1556)">
   <path d="M0.993654 0L3.63775 0L29.3281-67.1323L30.0303-67.1323L30.0303-70.459L28.1226-70.459ZM11.6885-24.4799L46.9815-24.4799L46.2315-26.7285L12.4385-26.7285ZM55.1196 0L57.7637 0L30.6382-70.459L29.4326-70.459L29.4326-67.1323Z"/>
  </g>
  <line id="Baseline-L" style="fill:none;stroke:#27AAE1;opacity:1;stroke-width:0.5;" x1="263" x2="3036" y1="1556" y2="1556"/>
  <line id="Capline-L" style="fill:none;stroke:#27AAE1;opacity:1;stroke-width:0.5;" x1="263" x2="3036" y1="1485.54" y2="1485.54"/>
  <line id="left-margin" style="fill:none;stroke:#00AEEF;stroke-width:0.5;opacity:1.0;" x1="1411.87" x2="1411.87" y1="1030.79" y2="1150.12"/>
  <line id="right-margin" style="fill:none;stroke:#FF3B30;stroke-width:0.5;opacity:1.0;" x1="1487.82" x2="1487.82" y1="1030.79" y2="1150.12"/>
 </g>
 <g id="Symbols">
  <g id="Black-L" transform="matrix(1 0 0 1 2877.81 1556)">
   <path d="M55.658-109.548C43.7944-109.548 34.6135-103.241 31.0779-92.8771L30.9403-91.962L45.5976-77.3035L45.5976-80.6414C45.5976-88.0728 49.6586-92.9928 55.658-92.9928C61.5173-92.9928 65.5599-88.0728 65.5599-80.6414L65.5599-57.3412L82.1735-40.7848L82.1735-81.072C82.1735-98.0922 71.4027-109.548 55.658-109.548ZM55.658 39.045C72.7669 39.045 87.3084 28.3091 92.6499 13.1629C92.7708 12.714 92.866 12.1858 92.9137 11.7197L77.8756-3.28087C78.313-2.34839 78.5403-1.26586 78.5403-0.214939C78.5403 12.3461 68.2202 22.5714 55.658 22.5714C42.8997 22.5714 32.638 12.2293 32.638-0.506972C32.638-8.83695 36.469-15.3334 43.0146-19.6321C44.8714-20.8455 45.5976-21.8481 45.5976-24.3471L45.5976-35.5571L28.9828-52.172L28.9828-30.317C28.9828-28.6711 28.7987-28.0205 27.5816-26.8679C19.9238-19.7885 16.084-10.4582 16.084 0.0770942C16.084 21.8705 33.7829 39.045 55.658 39.045ZM55.5787 14.0481C63.6154 14.0481 70.095 7.56732 70.095-0.527789C70.095-6.12151 66.9258-10.7454 62.3215-13.248C60.3635-14.3179 59.7177-15.0452 59.7177-17.9511L59.7177-21.4954L51.4606-29.7746L51.4606-17.9511C51.4606-15.0452 50.8148-14.3179 48.8567-13.248C44.2317-10.7454 41.0833-6.12151 41.0833-0.527789C41.0833 7.56732 47.5629 14.0481 55.5787 14.0481ZM94.7899-80.2707L109.208-80.2707C111.969-80.2707 113.741-82.24 113.741-84.7623C113.741-87.2649 111.969-89.2342 109.208-89.2342L94.7899-89.2342C92.0276-89.2342 90.2363-87.2649 90.2363-84.7623C90.2363-82.24 92.0276-80.2707 94.7899-80.2707ZM94.7899-63.4544L109.208-63.4544C111.969-63.4544 113.741-65.4237 113.741-67.946C113.741-70.4486 111.969-72.418 109.208-72.418L94.7899-72.418C92.0276-72.418 90.2363-70.4486 90.2363-67.946C90.2363-65.4237 92.0276-63.4544 94.7899-63.4544ZM94.7899-46.3461L109.208-46.3461C111.969-46.3461 113.741-48.3154 113.741-50.8377C113.741-53.3403 111.969-55.3096 109.208-55.3096L94.7899-55.3096C92.0276-55.3096 90.2363-53.3403 90.2363-50.8377C90.2363-48.3154 92.0276-46.3461 94.7899-46.3461ZM110.568 16.4327C112.775 18.5813 116.413 18.6397 118.54 16.4327C120.668 14.2245 120.725 10.6879 118.54 8.4821L11.0972-98.8819C8.89256-101.088 5.27436-101.09 3.06735-98.8819C0.939559-96.7553 0.918742-93.0579 3.06735-90.9313Z"/>
  </g>
  <g id="Heavy-L" transform="matrix(1 0 0 1 2582.72 1556)">
   <path d="M54.0262-108.521C42.5613-108.521 33.7907-102.157 30.7515-91.8564L30.6321-89.8573L43.7749-76.7089L43.7749-81.3706C43.7749-88.8556 47.9159-93.8285 54.0262-93.8285C60.0059-93.8285 64.128-88.8556 64.128-81.3706L64.128-56.3558L78.8653-41.6574L78.8653-81.677C78.8653-97.7278 68.7756-108.521 54.0262-108.521ZM54.0262 37.9907C70.9786 37.9907 85.2912 26.9046 89.8673 11.6039C90.0024 10.9013 90.085 10.1238 90.0791 9.40779L76.0003-4.65659C76.7702-3.14291 77.1619-1.42457 77.1619 0.307392C77.1619 13.0202 66.7446 23.384 54.0262 23.384C41.1438 23.384 30.7711 12.9309 30.7711 0.0842786C30.7711-8.1349 34.5618-14.7825 41.1565-19.1479C43.0399-20.3878 43.7749-21.4617 43.7749-23.9827L43.7749-37.0359L29.0319-51.7789L29.0319-29.4286C29.0319-27.7114 28.8296-27.0344 27.5728-25.8502C19.943-18.8564 16.084-9.76328 16.084 0.530505C16.084 21.419 33.0517 37.9907 54.0262 37.9907ZM53.9514 14.8651C62.1305 14.8651 68.7122 8.27782 68.7122 0.0540942C68.7122-5.63732 65.4895-10.3413 60.8101-12.8792C58.8162-13.9717 58.1616-14.7123 58.1616-17.6579L58.1616-22.6938L49.7714-31.1198L49.7714-17.6579C49.7714-14.7123 49.1168-13.9717 47.1229-12.8792C42.4134-10.3413 39.2208-5.63732 39.2208 0.0540942C39.2208 8.27782 45.8025 14.8651 53.9514 14.8651ZM91.2577-80.7245L105.477-80.7245C108.08-80.7245 109.767-82.6094 109.767-84.9832C109.767-87.3325 108.08-89.2174 105.477-89.2174L91.2577-89.2174C88.6482-89.2174 86.9375-87.3325 86.9375-84.9832C86.9375-82.6094 88.6482-80.7245 91.2577-80.7245ZM91.2577-63.7014L105.477-63.7014C108.08-63.7014 109.767-65.5863 109.767-67.9602C109.767-70.3094 108.08-72.1943 105.477-72.1943L91.2577-72.1943C88.6482-72.1943 86.9375-70.3094 86.9375-67.9602C86.9375-65.5863 88.6482-63.7014 91.2577-63.7014ZM91.2577-46.4553L105.477-46.4553C108.08-46.4553 109.767-48.3402 109.767-50.714C109.767-53.0633 108.08-54.9482 105.477-54.9482L91.2577-54.9482C88.6482-54.9482 86.9375-53.0633 86.9375-50.714C86.9375-48.3402 88.6482-46.4553 91.2577-46.4553ZM108.55 15.4469C110.659 17.5116 114.137 17.5562 116.172 15.4469C118.206 13.332 118.245 9.96432 116.172 7.86061L10.8784-97.358C8.78026-99.4618 5.32654-99.473 3.21723-97.358C1.18272-95.3292 1.15254-91.8006 3.21723-89.7717Z"/>
  </g>
  <g id="Bold-L" transform="matrix(1 0 0 1 2287.95 1556)">
   <path d="M52.0724-107.335C41.0695-107.335 32.8061-100.879 30.3891-90.6558L30.2927-86.8872L41.5084-75.6582L41.5084-82.3443C41.5084-89.9132 45.779-94.9776 52.0724-94.9776C58.2429-94.9776 62.502-89.9132 62.502-82.3443L62.502-54.6646L74.889-42.2936L74.889-82.4448C74.889-97.3416 65.6146-107.335 52.0724-107.335ZM52.0724 36.7739C68.855 36.7739 82.8983 25.2424 86.5216 9.74228C86.6648 8.70223 86.717 7.595 86.6272 6.55666L73.8436-6.23569C75.0284-4.03704 75.6199-1.56464 75.6199 0.982699C75.6199 13.9322 65.0351 24.5098 52.0724 24.5098C38.9841 24.5098 28.4285 13.8738 28.4285 0.836682C28.4285-7.26657 32.158-14.0912 38.8291-18.5634C40.7581-19.8491 41.5084-21.0373 41.5084-23.5965L41.5084-38.9766L29.1082-51.3767L29.1082-28.3223C29.1082-26.4906 28.8829-25.7679 27.5576-24.5379C19.9512-17.6665 16.084-8.86541 16.084 1.12872C16.084 20.9327 32.1748 36.7739 52.0724 36.7739ZM52.0052 15.9985C60.4132 15.9985 67.1626 9.23589 67.1626 0.798696C67.1626-5.05287 63.856-9.88647 59.0471-12.4853C56.9997-13.6085 56.3298-14.3719 56.3298-17.3861L56.3298-24.1843L47.7186-32.8468L47.7186-17.3861C47.7186-14.3719 47.0488-13.6085 45.0013-12.4853C40.1545-9.88647 36.8858-5.05287 36.8858 0.798696C36.8858 9.23589 43.6352 15.9985 52.0052 15.9985ZM86.9451-81.2482L100.896-81.2482C103.27-81.2482 104.834-82.9958 104.834-85.1554C104.834-87.2903 103.27-89.0379 100.896-89.0379L86.9451-89.0379C84.5574-89.0379 82.9689-87.2903 82.9689-85.1554C82.9689-82.9958 84.5574-81.2482 86.9451-81.2482ZM86.9451-63.9938L100.896-63.9938C103.27-63.9938 104.834-65.7414 104.834-67.9011C104.834-70.0359 103.27-71.7835 100.896-71.7835L86.9451-71.7835C84.5574-71.7835 82.9689-70.0359 82.9689-67.9011C82.9689-65.7414 84.5574-63.9938 86.9451-63.9938ZM86.9451-46.5935L100.896-46.5935C103.27-46.5935 104.834-48.3411 104.834-50.5007C104.834-52.6356 103.27-54.3832 100.896-54.3832L86.9451-54.3832C84.5574-54.3832 82.9689-52.6356 82.9689-50.5007C82.9689-48.3411 84.5574-46.5935 86.9451-46.5935ZM105.963 14.106C107.912 16.0259 111.124 16.0551 113.006 14.106C114.888 12.1436 114.904 9.05047 113.006 7.11453L10.4007-95.4232C8.47798-97.3591 5.29123-97.3856 3.34206-95.4232C1.46008-93.5544 1.4221-90.3005 3.34206-88.4317Z"/>
  </g>
  <g id="Semibold-L" transform="matrix(1 0 0 1 1992.58 1556)">
   <path d="M50.7255-106.518C40.0411-106.518 32.1273-99.9983 30.1392-89.828L30.0587-84.8396L39.9459-74.934L39.9459-83.0155C39.9459-90.6423 44.3059-95.7697 50.7255-95.7697C57.0275-95.7697 61.3812-90.6423 61.3812-83.0155L61.3812-53.4987L72.1477-42.7323L72.1477-82.9742C72.1477-97.0753 63.4354-106.518 50.7255-106.518ZM50.7255 35.935C67.391 35.935 81.2485 24.0965 84.2151 8.45885C84.3638 7.18622 84.3952 5.85166 84.2474 4.59111L72.3568-7.32431C73.8276-4.65346 74.5569-1.6612 74.5569 1.44825C74.5569 14.5609 63.8566 25.286 50.7255 25.286C37.4952 25.286 26.8135 14.5238 26.8135 1.35538C26.8135-6.66795 30.5009-13.6146 37.2246-18.1605C39.1851-19.4777 39.9459-20.7448 39.9459-23.3303L39.9459-40.3145L29.1609-51.0995L29.1609-27.5596C29.1609-25.6491 28.9197-24.8948 27.5471-23.6332C19.9569-16.8461 16.084-8.24642 16.084 1.54112C16.084 20.5974 31.5703 35.935 50.7255 35.935ZM50.6635 16.7799C59.2293 16.7799 66.0944 9.89637 66.0944 1.31202C66.0944-4.64995 62.7298-9.57295 57.8317-12.2138C55.7474-13.3581 55.067-14.1373 55.067-17.1988L55.067-25.2119L46.3034-34.0374L46.3034-17.1988C46.3034-14.1373 45.623-13.3581 43.5387-12.2138C38.5972-9.57295 35.276-4.64995 35.276 1.31202C35.276 9.89637 42.1411 16.7799 50.6635 16.7799ZM83.972-81.6092L97.7376-81.6092C99.9538-81.6092 101.433-83.2622 101.433-85.2741C101.433-87.2612 99.9538-88.9141 97.7376-88.9141L83.972-88.9141C81.7372-88.9141 80.233-87.2612 80.233-85.2741C80.233-83.2622 81.7372-81.6092 83.972-81.6092ZM83.972-64.1954L97.7376-64.1954C99.9538-64.1954 101.433-65.8484 101.433-67.8603C101.433-69.8474 99.9538-71.5004 97.7376-71.5004L83.972-71.5004C81.7372-71.5004 80.233-69.8474 80.233-67.8603C80.233-65.8484 81.7372-64.1954 83.972-64.1954ZM83.972-46.6888L97.7376-46.6888C99.9538-46.6888 101.433-48.3417 101.433-50.3537C101.433-52.3408 99.9538-53.9937 97.7376-53.9937L83.972-53.9937C81.7372-53.9937 80.233-52.3408 80.233-50.3537C80.233-48.3417 81.7372-46.6888 83.972-46.6888ZM104.18 13.1815C106.018 15.0017 109.046 15.0203 110.823 13.1815C112.6 11.3243 112.6 8.42047 110.823 6.60019L10.0714-94.0893C8.26959-95.9096 5.26689-95.9465 3.42812-94.0893C1.65129-92.3309 1.60793-89.2663 3.42812-87.5079Z"/>
  </g>
  <g id="Medium-L" transform="matrix(1 0 0 1 1696.89 1556)">
   <path d="M49.7041-105.898C39.2613-105.898 31.6126-99.3304 29.9497-89.2004L29.8813-83.2871L38.7611-74.3848L38.7611-83.5245C38.7611-91.1952 43.189-96.3704 49.7041-96.3704C56.1059-96.3704 60.5312-91.1952 60.5312-83.5245L60.5312-52.6146L70.0691-43.0648L70.0691-83.3755C70.0691-96.8734 61.7831-105.898 49.7041-105.898ZM49.7041 35.2989C66.2809 35.2989 79.9977 23.2277 82.4663 7.4857C82.6191 6.03672 82.6347 4.52978 82.443 3.10074L71.2294-8.14974C72.9171-5.12085 73.7509-1.73442 73.7509 1.80125C73.7509 15.0376 62.963 25.8745 49.7041 25.8745C36.3663 25.8745 25.5889 15.0166 25.5889 1.74869C25.5889-6.21405 29.2444-13.2533 36.008-17.855C37.9924-19.1961 38.7611-20.523 38.7611-23.1284L38.7611-41.3289L29.2008-50.8892L29.2008-26.9813C29.2008-25.0109 28.9476-24.2328 27.5391-22.9472C19.9611-16.2241 16.084-7.77708 16.084 1.85382C16.084 20.3431 31.1119 35.2989 49.7041 35.2989ZM49.6462 17.3724C58.3316 17.3724 65.2844 10.3972 65.2844 1.70124C65.2844-4.34444 61.8759-9.33523 56.9101-12.0079C54.7978-13.1682 54.1095-13.9594 54.1095-17.0567L54.1095-25.991L45.2303-34.9401L45.2303-17.0567C45.2303-13.9594 44.542-13.1682 42.4297-12.0079C37.4164-9.33523 34.0554-4.34444 34.0554 1.70124C34.0554 10.3972 41.0082 17.3724 49.6462 17.3724ZM81.7176-81.883L95.343-81.883C97.4393-81.883 98.8546-83.4641 98.8546-85.3641C98.8546-87.2391 97.4393-88.8203 95.343-88.8203L81.7176-88.8203C79.5988-88.8203 78.1586-87.2391 78.1586-85.3641C78.1586-83.4641 79.5988-81.883 81.7176-81.883ZM81.7176-64.3483L95.343-64.3483C97.4393-64.3483 98.8546-65.9295 98.8546-67.8295C98.8546-69.7045 97.4393-71.2856 95.343-71.2856L81.7176-71.2856C79.5988-71.2856 78.1586-69.7045 78.1586-67.8295C78.1586-65.9295 79.5988-64.3483 81.7176-64.3483ZM81.7176-46.761L95.343-46.761C97.4393-46.761 98.8546-48.3422 98.8546-50.2422C98.8546-52.1172 97.4393-53.6984 95.343-53.6984L81.7176-53.6984C79.5988-53.6984 78.1586-52.1172 78.1586-50.2422C78.1586-48.3422 79.5988-46.761 81.7176-46.761ZM102.827 12.4806C104.582 14.2251 107.471 14.2356 109.168 12.4806C110.865 10.703 110.853 7.94278 109.168 6.21019L9.8217-93.0779C8.11157-94.8104 5.24843-94.8554 3.49338-93.0779C1.79628-91.4032 1.74884-88.4821 3.49338-86.8075Z"/>
  </g>
  <g id="Regular-L" transform="matrix(1 0 0 1 1401.5 1556)">
   <path d="M48.372-105.089C38.2442-105.089 30.9413-98.4594 29.7026-88.3818L29.6498-81.262L37.2158-73.6684L37.2158-84.1884C37.2158-91.9163 41.7321-97.1538 48.372-97.1538C54.9039-97.1538 59.4227-91.9163 59.4227-84.1884L59.4227-51.4616L67.358-43.4986L67.358-83.899C67.358-96.6101 59.6278-105.089 48.372-105.089ZM48.372 34.4693C64.833 34.4693 78.3661 22.0944 80.1851 6.21638C80.3434 4.53737 80.3383 2.8056 80.0894 1.15679L69.759-9.2264C71.7295-5.73048 72.6996-1.82992 72.6996 2.26169C72.6996 15.6595 61.7974 26.6421 48.372 26.6421C34.8938 26.6421 23.9916 15.6595 23.9916 2.26169C23.9916-5.62201 27.6054-12.7819 34.4211-17.4565C36.4367-18.8287 37.2158-20.2337 37.2158-22.865L37.2158-42.6521L29.2528-50.615L29.2528-26.227C29.2528-24.1786 28.9839-23.3693 27.5287-22.0524C19.9667-15.4128 16.084-7.1649 16.084 2.26169C16.084 20.0115 30.5141 34.4693 48.372 34.4693ZM48.3192 18.1452C57.1607 18.1452 64.2279 11.0504 64.2279 2.20893C64.2279-3.94595 60.7622-9.02515 55.7081-11.7394C53.5593-12.9206 52.8606-13.7274 52.8606-16.8714L52.8606-27.0072L43.8306-36.1176L43.8306-16.8714C43.8306-13.7274 43.1319-12.9206 40.9832-11.7394C35.8763-9.02515 32.4634-3.94595 32.4634 2.20893C32.4634 11.0504 39.5305 18.1452 48.3192 18.1452ZM78.7772-82.24L92.2197-82.24C94.1596-82.24 95.4914-83.7276 95.4914-85.4815C95.4914-87.2104 94.1596-88.6979 92.2197-88.6979L78.7772-88.6979C76.8096-88.6979 75.4527-87.2104 75.4527-85.4815C75.4527-83.7276 76.8096-82.24 78.7772-82.24ZM78.7772-64.5477L92.2197-64.5477C94.1596-64.5477 95.4914-66.0352 95.4914-67.7892C95.4914-69.518 94.1596-71.0056 92.2197-71.0056L78.7772-71.0056C76.8096-71.0056 75.4527-69.518 75.4527-67.7892C75.4527-66.0352 76.8096-64.5477 78.7772-64.5477ZM78.7772-46.8553L92.2197-46.8553C94.1596-46.8553 95.4914-48.3428 95.4914-50.0968C95.4914-51.8256 94.1596-53.3132 92.2197-53.3132L78.7772-53.3132C76.8096-53.3132 75.4527-51.8256 75.4527-50.0968C75.4527-48.3428 76.8096-46.8553 78.7772-46.8553ZM101.064 11.5663C102.71 13.2121 105.416 13.2121 107.009 11.5663C108.602 9.89275 108.574 7.31971 107.009 5.7015L9.49602-91.7586C7.90547-93.3768 5.22435-93.4321 3.57849-91.7586C1.98539-90.1932 1.93263-87.4593 3.57849-85.8938Z"/>
  </g>
  <g id="Light-L" transform="matrix(1 0 0 1 1105.69 1556)">
   <path d="M47.4559-104.822C37.4426-104.822 30.4832-98.0013 29.7217-87.9619L29.688-76.8724L35.5935-70.9202L35.5935-85.3144C35.5935-93.2141 40.3961-98.6806 47.4559-98.6806C54.3886-98.6806 59.2509-93.2141 59.2509-85.3144L59.2509-47.2628L65.3922-41.0748L65.3922-84.5479C65.3922-96.7628 58.0438-104.822 47.4559-104.822ZM47.4559 34.2021C63.955 34.2021 77.3927 21.4455 78.5247 5.37663C78.6257 3.31591 78.5061 1.22152 78.0855-0.732653L69.3391-9.51268C71.615-5.76865 72.6996-1.56273 72.6996 2.91059C72.6996 16.7855 61.3775 28.188 47.4559 28.188C33.5006 28.188 22.1785 16.7855 22.1785 2.91059C22.1785-5.03037 25.6778-12.2475 32.6462-17.1511C34.7763-18.6379 35.5935-20.291 35.5935-23.0177L35.5935-44.6942L29.4055-50.8822L29.4055-25.4254C29.4055-23.1289 29.1175-22.2051 27.4905-20.8118C19.8713-14.3632 16.084-6.30606 16.084 2.91059C16.084 20.1451 30.0942 34.2021 47.4559 34.2021ZM47.4222 19.7102C56.7599 19.7102 64.2088 12.2146 64.2088 2.87691C64.2088-3.64058 60.5713-9.00607 55.1928-11.873C52.9485-13.0924 52.2117-13.9564 52.2117-17.2722L52.2117-28.076L42.6664-37.7017L42.6664-17.2722C42.6664-13.9564 41.9296-13.0924 39.6854-11.873C34.2731-9.00607 30.6693-3.64058 30.6693 2.87691C30.6693 12.2146 38.1182 19.7102 47.4222 19.7102ZM76.2007-82.3545L89.3187-82.3545C90.8769-82.3545 92.0179-83.5368 92.0179-84.9472C92.0179-86.3706 90.8769-87.5528 89.3187-87.5528L76.2007-87.5528C74.5958-87.5528 73.4678-86.3706 73.4678-84.9472C73.4678-83.5368 74.5958-82.3545 76.2007-82.3545ZM76.2007-64.6622L89.3187-64.6622C90.8769-64.6622 92.0179-65.8444 92.0179-67.2548C92.0179-68.6782 90.8769-69.8604 89.3187-69.8604L76.2007-69.8604C74.5958-69.8604 73.4678-68.6782 73.4678-67.2548C73.4678-65.8444 74.5958-64.6622 76.2007-64.6622ZM76.2007-46.9698L89.3187-46.9698C90.8769-46.9698 92.0179-48.152 92.0179-49.5624C92.0179-50.9859 90.8769-52.1681 89.3187-52.1681L76.2007-52.1681C74.5958-52.1681 73.4678-50.9859 73.4678-49.5624C73.4678-48.152 74.5958-46.9698 76.2007-46.9698ZM98.7162 9.86768C99.9995 11.1509 102.076 11.1509 103.325 9.86768C104.575 8.53769 104.528 6.57538 103.325 5.33888L7.8356-90.1173C6.64584-91.3538 4.55637-91.4473 3.27312-90.1173C2.02356-88.9145 1.98988-86.7913 3.27312-85.5885Z"/>
  </g>
  <g id="Thin-L" transform="matrix(1 0 0 1 810.182 1556)">
   <path d="M46.2443-104.469C36.3824-104.469 29.8774-97.3955 29.7469-87.4066L29.7385-71.0668L33.448-67.2853L33.448-86.8037C33.448-94.9306 38.6292-100.7 46.2443-100.7C53.707-100.7 59.0237-94.9306 59.0237-86.8037L59.0237-41.7096L62.7923-37.8691L62.7923-85.4062C62.7923-96.9647 55.9487-104.469 46.2443-104.469ZM46.2443 33.8487C62.7939 33.8487 76.1054 20.5873 76.3287 4.26599C76.354 1.70044 76.0829-0.873554 75.4351-3.23159L68.7838-9.8913C71.4635-5.81914 72.6996-1.20934 72.6996 3.76881C72.6996 18.2748 60.8222 30.2326 46.2443 30.2326C31.6579 30.2326 19.7805 18.2748 19.7805 3.76881C19.7805-4.24787 23.1284-11.5408 30.2987-16.7473C32.5802-18.3855 33.448-20.3667 33.448-23.2196L33.448-47.3951L29.6075-51.2356L29.6075-24.3652C29.6075-21.7406 29.2942-20.6654 27.4401-19.1711C19.7451-12.9749 16.084-5.17018 16.084 3.76881C16.084 20.3218 29.5389 33.8487 46.2443 33.8487ZM46.2359 21.78C56.2298 21.78 64.1835 13.7544 64.1835 3.76037C64.1835-3.23671 60.3189-8.98082 54.5112-12.0497C52.1408-13.3196 51.3535-14.2593 51.3535-17.8023L51.3535-29.4896L41.1267-39.7968L41.1267-17.8023C41.1267-14.2593 40.3393-13.3196 37.9689-12.0497C32.1528-8.98082 28.2966-3.23671 28.2966 3.76037C28.2966 13.7544 36.2503 21.78 46.2359 21.78ZM72.793-82.506L85.482-82.506C86.5353-82.506 87.4239-83.2843 87.4239-84.2404C87.4239-85.26 86.5353-86.0383 85.482-86.0383L72.793-86.0383C71.6677-86.0383 70.8427-85.26 70.8427-84.2404C70.8427-83.2843 71.6677-82.506 72.793-82.506ZM72.793-64.8136L85.482-64.8136C86.5353-64.8136 87.4239-65.592 87.4239-66.548C87.4239-67.5676 86.5353-68.3459 85.482-68.3459L72.793-68.3459C71.6677-68.3459 70.8427-67.5676 70.8427-66.548C70.8427-65.592 71.6677-64.8136 72.793-64.8136ZM72.793-47.1212L85.482-47.1212C86.5353-47.1212 87.4239-47.8996 87.4239-48.8556C87.4239-49.8752 86.5353-50.6536 85.482-50.6536L72.793-50.6536C71.6677-50.6536 70.8427-49.8752 70.8427-48.8556C70.8427-47.8996 71.6677-47.1212 72.793-47.1212ZM95.6115 7.62115C96.4151 8.4248 97.6586 8.4248 98.4538 7.62115C99.249 6.74552 99.177 5.59095 98.4538 4.85929L5.63956-87.9465C4.97988-88.6781 3.6729-88.8221 2.86926-87.9465C2.07405-87.2233 2.06561-85.9078 2.86926-85.1846Z"/>
  </g>
  <g id="Ultralight-L" transform="matrix(1 0 0 1 514.085 1556)">
   <path d="M45.6237-104.288C35.8394-104.288 29.5671-97.0852 29.7599-87.1221L29.7644-68.0932L32.349-65.4236L32.349-87.5665C32.349-95.8097 37.7241-101.734 45.6237-101.734C53.3579-101.734 58.9074-95.8097 58.9074-87.5665L58.9074-38.8653L61.4606-36.2271L61.4606-85.8457C61.4606-97.0681 54.8756-104.288 45.6237-104.288ZM45.6237 33.6677C62.1992 33.6677 75.446 20.1477 75.2039 3.69713C75.1904 0.872997 74.8418-1.94664 74.0775-4.51154L68.4994-10.0852C71.3859-5.845 72.6996-1.02834 72.6996 4.20839C72.6996 19.0375 60.5378 31.2798 45.6237 31.2798C30.7141 31.2798 18.5523 19.0375 18.5523 4.20839C18.5523-3.84708 21.8226-11.1788 29.0963-16.5404C31.4554-18.2562 32.349-20.4055 32.349-23.3231L32.349-48.7784L29.7109-51.4166L29.7109-23.8222C29.7109-21.0295 29.3847-19.8767 27.4142-18.3308C19.6804-12.2638 16.084-4.58839 16.084 4.20839C16.084 20.4123 29.2544 33.6677 45.6237 33.6677ZM45.6282 22.8402C55.9583 22.8402 64.1706 14.543 64.1706 4.21288C64.1706-3.02985 60.1896-8.9679 54.1621-12.1402C51.7271-13.4359 50.9139-14.4144 50.9139-18.0738L50.9139-30.2136L40.338-40.8699L40.338-18.0738C40.338-14.4144 39.5248-13.4359 37.0898-12.1402C31.0668-8.9679 27.0813-3.02985 27.0813 4.21288C27.0813 14.543 35.2936 22.8402 45.6282 22.8402ZM71.0477-82.5836L83.5168-82.5836C84.3116-82.5836 85.0708-83.155 85.0708-83.8784C85.0708-84.6911 84.3116-85.2626 83.5168-85.2626L71.0477-85.2626C70.168-85.2626 69.4981-84.6911 69.4981-83.8784C69.4981-83.155 70.168-82.5836 71.0477-82.5836ZM71.0477-64.8912L83.5168-64.8912C84.3116-64.8912 85.0708-65.4627 85.0708-66.186C85.0708-66.9987 84.3116-67.5702 83.5168-67.5702L71.0477-67.5702C70.168-67.5702 69.4981-66.9987 69.4981-66.186C69.4981-65.4627 70.168-64.8912 71.0477-64.8912ZM71.0477-47.1988L83.5168-47.1988C84.3116-47.1988 85.0708-47.7703 85.0708-48.4936C85.0708-49.3064 84.3116-49.8778 83.5168-49.8778L71.0477-49.8778C70.168-49.8778 69.4981-49.3064 69.4981-48.4936C69.4981-47.7703 70.168-47.1988 71.0477-47.1988ZM94.0212 6.4705C94.5792 7.0285 95.396 7.0285 95.9585 6.4705C96.521 5.82758 96.4361 5.08673 95.9585 4.61364L4.51476-86.8346C4.12659-87.3077 3.2204-87.4775 2.6624-86.8346C2.0999-86.357 2.1044-85.4553 2.6624-84.9778Z"/>
  </g>
  <g id="Black-M" transform="matrix(1 0 0 1 2889.06 1126)">
   <path d="M44.3988-93.6533C34.8805-93.6533 27.4615-88.7912 24.3605-80.7119L24.2408-80.3967L36.6731-67.9647L36.6731-69.9378C36.6731-75.6725 39.7893-79.4697 44.3988-79.4697C48.8892-79.4697 51.9994-75.6725 51.9994-69.9378L51.9994-52.6384L66.2401-38.4551L66.2401-70.3135C66.2401-84.2657 57.3619-93.6533 44.3988-93.6533ZM44.3988 23.1839C57.7936 23.1839 69.2432 15.1156 73.9463 3.48814C74.0199 3.30669 74.0891 3.06265 74.1487 2.87487L61.8883-9.334C61.9827-9.07746 62.0331-8.74384 62.0331-8.46324C62.0331 1.20254 54.0643 9.06233 44.3988 9.06233C34.5565 9.06233 26.6449 1.08835 26.6449-8.74872C26.6449-15.3053 29.632-20.2163 34.6816-23.5203C36.1129-24.4531 36.6731-25.2023 36.6731-27.1323L36.6731-34.4891L22.4326-48.7295L22.4326-32.0786C22.4326-30.831 22.3031-30.3342 21.3711-29.4579C15.4063-23.9256 12.4609-16.5191 12.4609-8.17776C12.4609 9.41446 26.7446 23.1839 44.3988 23.1839ZM44.3362 2.45775C50.5074 2.45775 55.4914-2.52589 55.4914-8.75421C55.4914-13.0531 53.0588-16.6054 49.5123-18.5346C48.0132-19.3492 47.5153-19.9091 47.5153-22.1495L47.5153-23.704L41.1626-30.0618L41.1626-22.1495C41.1626-19.9091 40.6648-19.3492 39.1657-18.5346C35.6136-16.6054 33.1866-13.0531 33.1866-8.75421C33.1866-2.52589 38.1705 2.45775 44.3362 2.45775ZM76.1243-69.7503L87.4217-69.7503C89.6443-69.7503 91.0645-71.3072 91.0645-73.3423C91.0645-75.3717 89.6443-76.9286 87.4217-76.9286L76.1243-76.9286C73.902-76.9286 72.4761-75.3717 72.4761-73.3423C72.4761-71.3072 73.902-69.7503 76.1243-69.7503ZM76.1243-56.8997L87.4217-56.8997C89.6443-56.8997 91.0645-58.4566 91.0645-60.4917C91.0645-62.5211 89.6443-64.078 87.4217-64.078L76.1243-64.078C73.902-64.078 72.4761-62.5211 72.4761-60.4917C72.4761-58.4566 73.902-56.8997 76.1243-56.8997ZM76.1243-43.7636L87.4217-43.7636C89.6443-43.7636 91.0645-45.3206 91.0645-47.3557C91.0645-49.385 89.6443-50.942 87.4217-50.942L76.1243-50.942C73.902-50.942 72.4761-49.385 72.4761-47.3557C72.4761-45.3206 73.902-43.7636 76.1243-43.7636ZM87.0779 5.41246C88.8226 7.10007 91.6928 7.15717 93.3749 5.41246C95.057 3.66805 95.1144 0.865694 93.3749-0.87929L8.56056-85.631C6.8153-87.376 3.95092-87.3754 2.20622-85.631C0.524108-83.9486 0.518617-81.0217 2.20622-79.3393Z"/>
  </g>
  <g id="Heavy-M" transform="matrix(1 0 0 1 2593.85 1126)">
   <path d="M42.8882-92.6743C33.749-92.6743 26.6995-87.7731 24.0396-79.7528L23.936-78.7441L35.0409-67.6369L35.0409-70.5468C35.0409-76.318 38.2089-80.1459 42.8882-80.1459C47.4592-80.1459 50.6154-76.318 50.6154-70.5468L50.6154-52.0624L63.1875-39.5317L63.1875-70.8451C63.1875-83.8954 54.9398-92.6743 42.8882-92.6743ZM42.8882 22.178C56.1263 22.178 67.3611 13.8025 71.3793 2.04164C71.4721 1.64736 71.5394 1.19304 71.5626 0.789173L60.0938-10.6525C60.4851-9.85064 60.6856-8.92364 60.6856-8.01249C60.6856 1.75763 52.6606 9.7141 42.8882 9.7141C32.9685 9.7141 24.9871 1.67039 24.9871-8.23059C24.9871-14.6736 27.9454-19.727 33.029-23.0751C34.4756-24.0233 35.0409-24.8192 35.0409-26.762L35.0409-35.7463L22.4666-48.3207L22.4666-31.284C22.4666-29.9897 22.321-29.4776 21.366-28.5775C15.4339-23.1112 12.4609-15.9189 12.4609-7.79438C12.4609 8.96074 26.0685 22.178 42.8882 22.178ZM42.8282 3.11207C49.0928 3.11207 54.1413-1.93873 54.1413-8.247C54.1413-12.6079 51.6723-16.2121 48.0823-18.1617C46.5569-18.9949 46.0539-19.5625 46.0539-21.8259L46.0539-24.7769L39.6188-31.2307L39.6188-21.8259C39.6188-19.5625 39.1158-18.9949 37.5904-18.1617C33.984-16.2121 31.5314-12.6079 31.5314-8.247C31.5314-1.93873 36.5799 3.11207 42.8282 3.11207ZM72.9091-70.1833L84.0417-70.1833C86.1458-70.1833 87.5-71.6859 87.5-73.6076C87.5-75.5152 86.1458-77.0177 84.0417-77.0177L72.9091-77.0177C70.8027-77.0177 69.4343-75.5152 69.4343-73.6076C69.4343-71.6859 70.8027-70.1833 72.9091-70.1833ZM72.9091-57.1306L84.0417-57.1306C86.1458-57.1306 87.5-58.6332 87.5-60.5549C87.5-62.4625 86.1458-63.965 84.0417-63.965L72.9091-63.965C70.8027-63.965 69.4343-62.4625 69.4343-60.5549C69.4343-58.6332 70.8027-57.1306 72.9091-57.1306ZM72.9091-43.8598L84.0417-43.8598C86.1458-43.8598 87.5-45.3624 87.5-47.2841C87.5-49.1917 86.1458-50.6942 84.0417-50.6942L72.9091-50.6942C70.8027-50.6942 69.4343-49.1917 69.4343-47.2841C69.4343-45.3624 70.8027-43.8598 72.9091-43.8598ZM85.3216 4.60549C87.0043 6.24452 89.7766 6.28814 91.3992 4.60549C93.0218 2.92057 93.0631 0.226988 91.3992-1.45338L8.49981-84.2927C6.82172-85.9731 4.06355-85.9776 2.38091-84.2927C0.758293-82.6724 0.741883-79.8542 2.38091-78.2338Z"/>
  </g>
  <g id="Bold-M" transform="matrix(1 0 0 1 2298.82 1126)">
   <path d="M41.1983-91.5791C32.4833-91.5791 25.847-86.6343 23.6807-78.68L23.595-76.8955L33.2151-67.2703L33.2151-71.2281C33.2151-77.0401 36.4411-80.9023 41.1983-80.9023C45.8596-80.9023 49.0672-77.0401 49.0672-71.2281L49.0672-51.4181L59.7727-40.7361L59.7727-71.4398C59.7727-83.4812 52.2304-91.5791 41.1983-91.5791ZM41.1983 21.0526C54.2613 21.0526 65.2557 12.3336 68.5076 0.423519C68.6221-0.208849 68.6873-0.898387 68.6697-1.54397L58.0864-12.1273C58.8099-10.7155 59.1783-9.12477 59.1783-7.50826C59.1783 2.37859 51.0903 10.4432 41.1983 10.4432C31.1921 10.4432 23.1327 2.32149 23.1327-7.651C23.1327-13.9669 26.0587-19.1796 31.1803-22.5771C32.6441-23.5425 33.2151-24.3907 33.2151-26.3478L33.2151-37.1527L22.5045-47.8633L22.5045-30.3951C22.5045-29.0485 22.341-28.5193 21.3602-27.5927C15.4649-22.2002 12.4609-15.2476 12.4609-7.36552C12.4609 8.45319 25.3122 21.0526 41.1983 21.0526ZM41.1412 3.84403C47.5103 3.84403 52.6311-1.28191 52.6311-7.67962C52.6311-12.1099 50.1213-15.7721 46.4826-17.7446C44.9279-18.5986 44.4192-19.1747 44.4192-21.4639L44.4192-25.9772L37.8917-32.5384L37.8917-21.4639C37.8917-19.1747 37.383-18.5986 35.8283-17.7446C32.161-15.7721 29.6798-12.1099 29.6798-7.67962C29.6798-1.28191 34.8006 3.84403 41.1412 3.84403ZM69.3123-70.6678L80.2606-70.6678C82.2322-70.6678 83.5126-72.1095 83.5126-73.9044C83.5126-75.6757 82.2322-77.1174 80.2606-77.1174L69.3123-77.1174C67.3356-77.1174 66.0318-75.6757 66.0318-73.9044C66.0318-72.1095 67.3356-70.6678 69.3123-70.6678ZM69.3123-57.389L80.2606-57.389C82.2322-57.389 83.5126-58.8307 83.5126-60.6256C83.5126-62.3969 82.2322-63.8386 80.2606-63.8386L69.3123-63.8386C67.3356-63.8386 66.0318-62.3969 66.0318-60.6256C66.0318-58.8307 67.3356-57.389 69.3123-57.389ZM69.3123-43.9674L80.2606-43.9674C82.2322-43.9674 83.5126-45.4091 83.5126-47.204C83.5126-48.9754 82.2322-50.4171 80.2606-50.4171L69.3123-50.4171C67.3356-50.4171 66.0318-48.9754 66.0318-47.204C66.0318-45.4091 67.3356-43.9674 69.3123-43.9674ZM83.357 3.70278C84.9702 5.28746 87.633 5.316 89.1891 3.70278C90.7451 2.08441 90.7686-0.487498 89.1891-2.09559L8.43186-82.7957C6.8289-84.4037 4.18955-84.414 2.57632-82.7957C1.02026-81.2447 0.991639-78.5482 2.57632-76.9973Z"/>
  </g>
  <g id="Semibold-M" transform="matrix(1 0 0 1 2003.27 1126)">
   <path d="M40.0334-90.8241C31.6108-90.8241 25.2593-85.8491 23.4333-77.9403L23.3599-75.621L31.9564-67.0175L31.9564-71.6977C31.9564-77.5378 35.2223-81.4237 40.0334-81.4237C44.7568-81.4237 47.9999-77.5378 47.9999-71.6977L47.9999-50.9739L57.4185-41.5664L57.4185-71.8498C57.4185-83.1956 50.3625-90.8241 40.0334-90.8241ZM40.0334 20.2768C52.9756 20.2768 63.8042 11.3209 66.528-0.692003C66.6572-1.4885 66.7211-2.34021 66.6753-3.15243L56.7025-13.1441C57.655-11.3118 58.1391-9.26343 58.1391-7.16064C58.1391 2.80667 50.0078 10.9458 40.0334 10.9458C29.9674 10.9458 21.8542 2.77036 21.8542-7.25143C21.8542-13.4797 24.7581-18.8023 29.9058-22.2338C31.3814-23.211 31.9564-24.0952 31.9564-26.0622L31.9564-38.1223L22.5307-47.548L22.5307-29.7823C22.5307-28.3997 22.3548-27.8586 21.3563-26.9138C15.4862-21.5722 12.4609-14.7848 12.4609-7.06986C12.4609 8.10329 24.7908 20.2768 40.0334 20.2768ZM39.9782 4.34864C46.4194 4.34864 51.59-0.829102 51.59-7.28847C51.59-11.7667 49.052-15.4688 45.3799-17.457C43.8049-18.3254 43.2922-18.9074 43.2922-21.2143L43.2922-26.8046L36.7011-33.4398L36.7011-21.2143C36.7011-18.9074 36.1885-18.3254 34.6135-17.457C30.9043-15.4688 28.4033-11.7667 28.4033-7.28847C28.4033-0.829102 33.574 4.34864 39.9782 4.34864ZM66.8327-71.0018L77.654-71.0018C79.5341-71.0018 80.7636-72.4015 80.7636-74.1089C80.7636-75.7864 79.5341-77.1862 77.654-77.1862L66.8327-77.1862C64.9455-77.1862 63.686-75.7864 63.686-74.1089C63.686-72.4015 64.9455-71.0018 66.8327-71.0018ZM66.8327-57.5671L77.654-57.5671C79.5341-57.5671 80.7636-58.9668 80.7636-60.6743C80.7636-62.3517 79.5341-63.7515 77.654-63.7515L66.8327-63.7515C64.9455-63.7515 63.686-62.3517 63.686-60.6743C63.686-58.9668 64.9455-57.5671 66.8327-57.5671ZM66.8327-44.0416L77.654-44.0416C79.5341-44.0416 80.7636-45.4414 80.7636-47.1488C80.7636-48.8263 79.5341-50.226 77.654-50.226L66.8327-50.226C64.9455-50.226 63.686-48.8263 63.686-47.1488C63.686-45.4414 64.9455-44.0416 66.8327-44.0416ZM82.0025 3.08045C83.5679 4.62767 86.1553 4.64582 87.6655 3.08045C89.1756 1.50797 89.1867-0.98006 87.6655-2.53833L8.38501-81.7636C6.83385-83.3218 4.27641-83.3361 2.71104-81.7636C1.20086-80.2605 1.16382-77.6479 2.71104-76.1448Z"/>
  </g>
  <g id="Medium-M" transform="matrix(1 0 0 1 1707.44 1126)">
   <path d="M39.15-90.2516C30.9491-90.2516 24.8137-85.2538 23.2457-77.3795L23.1817-74.6547L31.002-66.8259L31.002-72.0538C31.002-77.9153 34.2982-81.8191 39.15-81.8191C43.9206-81.8191 47.1907-77.9153 47.1907-72.0538L47.1907-50.6371L55.6335-42.196L55.6335-72.1606C55.6335-82.9791 48.9462-90.2516 39.15-90.2516ZM39.15 19.6886C52.0007 19.6886 62.7037 10.5531 65.0269-1.53784C65.1675-2.45879 65.2302-3.43345 65.163-4.37203L55.6532-13.9151C56.7793-11.7639 57.3512-9.36857 57.3512-6.89707C57.3512 3.13126 49.187 11.327 39.15 11.327C29.0388 11.327 20.8849 3.11071 20.8849-6.94846C20.8849-13.1103 23.7719-18.5162 28.9394-21.9735C30.424-22.9597 31.002-23.8712 31.002-25.8457L31.002-38.8575L22.5505-47.3089L22.5505-29.3177C22.5505-27.9078 22.3653-27.3577 21.3533-26.399C15.5023-21.096 12.4609-14.4338 12.4609-6.84568C12.4609 7.83798 24.3955 19.6886 39.15 19.6886ZM39.0963 4.73126C45.5922 4.73126 50.8006-0.485763 50.8006-6.99188C50.8006-11.5064 48.2413-15.2388 44.5437-17.239C42.9533-18.1182 42.4377-18.7047 42.4377-21.0251L42.4377-27.432L35.7984-34.1233L35.7984-21.0251C35.7984-18.7047 35.2827-18.1182 33.6924-17.239C29.9514-15.2388 27.4355-11.5064 27.4355-6.99188C27.4355-0.485763 32.6439 4.73126 39.0963 4.73126ZM64.9526-71.255L75.6776-71.255C77.4884-71.255 78.6793-72.623 78.6793-74.2641C78.6793-75.8703 77.4884-77.2383 75.6776-77.2383L64.9526-77.2383C63.1331-77.2383 61.9074-75.8703 61.9074-74.2641C61.9074-72.623 63.1331-71.255 64.9526-71.255ZM64.9526-57.7021L75.6776-57.7021C77.4884-57.7021 78.6793-59.0701 78.6793-60.7112C78.6793-62.3175 77.4884-63.6854 75.6776-63.6854L64.9526-63.6854C63.1331-63.6854 61.9074-62.3175 61.9074-60.7112C61.9074-59.0701 63.1331-57.7021 64.9526-57.7021ZM64.9526-44.0979L75.6776-44.0979C77.4884-44.0979 78.6793-45.4658 78.6793-47.1069C78.6793-48.7132 77.4884-50.0812 75.6776-50.0812L64.9526-50.0812C63.1331-50.0812 61.9074-48.7132 61.9074-47.1069C61.9074-45.4658 63.1331-44.0979 64.9526-44.0979ZM80.9756 2.60857C82.5046 4.12738 85.0348 4.13766 86.5102 2.60857C87.9856 1.07089 87.9872-1.35354 86.5102-2.87403L8.34949-80.981C6.8376-82.5015 4.34227-82.5187 2.81318-80.981C1.3378-79.5142 1.29437-76.9652 2.81318-75.4984Z"/>
  </g>
  <g id="Regular-M" transform="matrix(1 0 0 1 1411.87 1126)">
   <path d="M37.9978-89.5049C30.0862-89.5049 24.2325-84.4773 23.001-76.6481L22.9492-73.3943L29.7571-66.5759L29.7571-72.5183C29.7571-78.4076 33.0929-82.3348 37.9978-82.3348C42.83-82.3348 46.1351-78.4076 46.1351-72.5183L46.1351-50.1978L53.3052-43.0171L53.3052-72.5661C53.3052-82.6966 47.0989-89.5049 37.9978-89.5049ZM37.9978 18.9213C50.7291 18.9213 61.2681 9.55152 63.069-2.6411C63.2242-3.72439 63.2855-4.85943 63.1906-5.96281L54.2845-14.9207C55.6371-12.3536 56.3234-9.5057 56.3234-6.55328C56.3234 3.55464 48.1163 11.8241 37.9978 11.8241C27.8276 11.8241 19.6205 3.55464 19.6205-6.55328C19.6205-12.6285 22.4855-18.1429 27.6789-21.634C29.1752-22.6319 29.7571-23.579 29.7571-25.5632L29.7571-39.8164L22.5764-46.997L22.5764-28.7116C22.5764-27.2661 22.3789-26.7043 21.3494-25.7276C15.5234-20.4749 12.4609-13.9761 12.4609-6.55328C12.4609 7.49192 23.8798 18.9213 37.9978 18.9213ZM37.9461 5.23032C44.5132 5.23032 49.7709-0.0379297 49.7709-6.60503C49.7709-11.1668 47.1837-14.9388 43.453-16.9546C41.8426-17.848 41.3231-18.4404 41.3231-20.7783L41.3231-28.2503L34.6208-35.0149L34.6208-20.7783C34.6208-18.4404 34.1013-17.848 32.4909-16.9546C28.7084-14.9388 26.173-11.1668 26.173-6.60503C26.173-0.0379297 31.4307 5.23032 37.9461 5.23032ZM62.5002-71.5853L73.0996-71.5853C74.82-71.5853 75.9606-72.9118 75.9606-74.4664C75.9606-75.9798 74.82-77.3063 73.0996-77.3063L62.5002-77.3063C60.7692-77.3063 59.5875-75.9798 59.5875-74.4664C59.5875-72.9118 60.7692-71.5853 62.5002-71.5853ZM62.5002-57.8782L73.0996-57.8782C74.82-57.8782 75.9606-59.2047 75.9606-60.7594C75.9606-62.2728 74.82-63.5993 73.0996-63.5993L62.5002-63.5993C60.7692-63.5993 59.5875-62.2728 59.5875-60.7594C59.5875-59.2047 60.7692-57.8782 62.5002-57.8782ZM62.5002-44.1712L73.0996-44.1712C74.82-44.1712 75.9606-45.4977 75.9606-47.0523C75.9606-48.5657 74.82-49.8922 73.0996-49.8922L62.5002-49.8922C60.7692-49.8922 59.5875-48.5657 59.5875-47.0523C59.5875-45.4977 60.7692-44.1712 62.5002-44.1712ZM79.636 1.99309C81.1178 3.47484 83.5733 3.47484 85.0033 1.99309C86.4333 0.500779 86.4228-1.84069 85.0033-3.3119L8.30315-79.9603C6.8425-81.4315 4.42817-81.4526 2.94642-79.9603C1.51641-78.5408 1.46466-76.0748 2.94642-74.6553Z"/>
  </g>
  <g id="Light-M" transform="matrix(1 0 0 1 1115.97 1126)">
   <path d="M37.1765-89.2654C29.3675-89.2654 23.8219-84.0667 23.0181-76.2716L22.9834-69.4587L28.3026-64.1119L28.3026-73.5279C28.3026-79.5712 31.8951-83.7037 37.1765-83.7037C42.368-83.7037 45.9811-79.5712 45.9811-73.5279L45.9811-46.4334L51.5428-40.8441L51.5428-73.1478C51.5428-82.8335 45.6787-89.2654 37.1765-89.2654ZM37.1765 18.6818C49.942 18.6818 60.3955 8.96975 61.5803-3.39398C61.6843-4.81949 61.6429-6.27964 61.3939-7.6568L53.908-15.1773C55.5344-12.3878 56.3234-9.26615 56.3234-5.9715C56.3234 4.56419 47.7399 13.2101 37.1765 13.2101C26.5785 13.2101 17.995 4.56419 17.995-5.9715C17.995-12.098 20.7573-17.6638 26.0876-21.3602C27.6866-22.4608 28.3026-23.6303 28.3026-25.7001L28.3026-41.6472L22.7133-47.2366L22.7133-27.993C22.7133-26.325 22.4987-25.6606 21.3152-24.6154C15.4379-19.5338 12.4609-13.2061 12.4609-5.9715C12.4609 7.6117 23.5034 18.6818 37.1765 18.6818ZM37.1419 6.63342C44.1539 6.63342 49.7538 1.00584 49.7538-6.00615C49.7538-10.8931 47.0126-14.9217 42.991-17.0744C41.2951-18.002 40.7413-18.6457 40.7413-21.1376L40.7413-29.2085L33.5771-36.4351L33.5771-21.1376C33.5771-18.6457 33.0233-18.002 31.3274-17.0744C27.2711-14.9217 24.5646-10.8931 24.5646-6.00615C24.5646 1.00584 30.1645 6.63342 37.1419 6.63342ZM60.1902-71.6879L70.4987-71.6879C71.8769-71.6879 72.8464-72.7407 72.8464-73.9873C72.8464-75.2269 71.8769-76.2796 70.4987-76.2796L60.1902-76.2796C58.7844-76.2796 57.8079-75.2269 57.8079-73.9873C57.8079-72.7407 58.7844-71.6879 60.1902-71.6879ZM60.1902-57.9809L70.4987-57.9809C71.8769-57.9809 72.8464-59.0336 72.8464-60.2802C72.8464-61.5199 71.8769-62.5726 70.4987-62.5726L60.1902-62.5726C58.7844-62.5726 57.8079-61.5199 57.8079-60.2802C57.8079-59.0336 58.7844-57.9809 60.1902-57.9809ZM60.1902-44.2739L70.4987-44.2739C71.8769-44.2739 72.8464-45.3266 72.8464-46.5732C72.8464-47.8129 71.8769-48.8656 70.4987-48.8656L60.1902-48.8656C58.7844-48.8656 57.8079-47.8129 57.8079-46.5732C57.8079-45.3266 58.7844-44.2739 60.1902-44.2739ZM77.5314 0.470213C78.688 1.62686 80.5789 1.62686 81.7009 0.470213C82.8229-0.714098 82.7952-2.50802 81.7009-3.637L6.8145-78.4887C5.71318-79.6177 3.82929-79.6731 2.67264-78.4887C1.55064-77.3944 1.51599-75.4759 2.67264-74.3815Z"/>
  </g>
  <g id="Thin-M" transform="matrix(1 0 0 1 820.338 1126)">
   <path d="M36.0903-88.9485C28.417-88.9485 23.2787-83.5235 23.0407-75.7737L23.0287-64.2537L26.379-60.8531L26.379-74.8631C26.379-81.11 30.311-85.5141 36.0903-85.5141C41.7569-85.5141 45.7774-81.11 45.7774-74.8631L45.7774-41.4547L49.2119-37.97L49.2119-73.9173C49.2119-83.0145 43.8003-88.9485 36.0903-88.9485ZM36.0903 18.3649C48.901 18.3649 59.2413 8.20031 59.6115-4.38973C59.6475-6.26785 59.4704-8.15797 59.0177-9.89723L53.4102-15.5168C55.3986-12.4331 56.3234-8.94932 56.3234-5.20206C56.3234 5.89939 47.242 15.0431 36.0903 15.0431C24.9265 15.0431 15.8451 5.89939 15.8451-5.20206C15.8451-11.3965 18.4716-17.0302 23.9829-20.9982C25.7177-22.2345 26.379-23.6982 26.379-25.8811L26.379-44.0687L22.8943-47.5534L22.8943-27.0425C22.8943-25.0803 22.6571-24.2801 21.2699-23.1444C15.3247-18.2891 12.4609-12.1877 12.4609-5.20206C12.4609 7.77011 23.0055 18.3649 36.0903 18.3649ZM36.0782 8.48913C43.6786 8.48913 49.7312 2.3863 49.7312-5.21408C49.7312-10.531 46.7863-14.899 42.38-17.2328C40.5709-18.2057 39.9719-18.9173 39.9719-21.6129L39.9719-30.4759L32.1966-38.3134L32.1966-21.6129C32.1966-18.9173 31.5976-18.2057 29.7885-17.2328C25.3702-14.899 22.4373-10.531 22.4373-5.21408C22.4373 2.3863 28.4899 8.48913 36.0782 8.48913ZM57.1351-71.8237L67.0588-71.8237C67.9844-71.8237 68.7276-72.5144 68.7276-73.3536C68.7276-74.2312 67.9844-74.9218 67.0588-74.9218L57.1351-74.9218C56.1592-74.9218 55.4543-74.2312 55.4543-73.3536C55.4543-72.5144 56.1592-71.8237 57.1351-71.8237ZM57.1351-58.1167L67.0588-58.1167C67.9844-58.1167 68.7276-58.8073 68.7276-59.6466C68.7276-60.5241 67.9844-61.2148 67.0588-61.2148L57.1351-61.2148C56.1592-61.2148 55.4543-60.5241 55.4543-59.6466C55.4543-58.8073 56.1592-58.1167 57.1351-58.1167ZM57.1351-44.4097L67.0588-44.4097C67.9844-44.4097 68.7276-45.1003 68.7276-45.9396C68.7276-46.8171 67.9844-47.5077 67.0588-47.5077L57.1351-47.5077C56.1592-47.5077 55.4543-46.8171 55.4543-45.9396C55.4543-45.1003 56.1592-44.4097 57.1351-44.4097ZM74.7478-1.54391C75.4745-0.817242 76.6185-0.817242 77.3332-1.54391C78.0478-2.32087 77.9975-3.39061 77.3332-4.06698L4.84564-76.5425C4.21956-77.2189 3.03722-77.3195 2.31055-76.5425C1.5959-75.8782 1.58389-74.6838 2.31055-74.0194Z"/>
  </g>
  <g id="Ultralight-M" transform="matrix(1 0 0 1 524.177 1126)">
   <path d="M35.5339-88.7863C27.9302-88.7863 23.0005-83.2454 23.0523-75.5187L23.0519-61.5877L25.3938-59.1839L25.3938-75.5469C25.3938-81.8982 29.4996-86.4414 35.5339-86.4414C41.444-86.4414 45.6731-81.8982 45.6731-75.5469L45.6731-38.9046L48.018-36.4979L48.018-74.3114C48.018-83.1073 42.8382-88.7863 35.5339-88.7863ZM35.5339 18.2027C48.3678 18.2027 58.6502 7.8062 58.603-4.89975C58.6043-7.00969 58.3576-9.12005 57.8006-11.0448L53.1552-15.6907C55.3291-12.4563 56.3234-8.78704 56.3234-4.80796C56.3234 6.58328 46.987 15.982 35.5339 15.982C24.0803 15.982 14.7439 6.58328 14.7439-4.80796C14.7439-11.0372 17.3009-16.7056 22.905-20.8127C24.7093-22.1186 25.3938-23.733 25.3938-25.9739L25.3938-45.309L22.9871-47.7157L22.9871-26.5557C22.9871-24.4428 22.7383-23.573 21.2467-22.3909C15.2668-17.6516 12.4609-11.6661 12.4609-4.80796C12.4609 7.85125 22.7505 18.2027 35.5339 18.2027ZM35.5335 9.43961C43.4352 9.43961 49.7196 3.09337 49.7196-4.80838C49.7196-10.3455 46.6704-14.8874 42.067-17.3139C40.2-18.31 39.5778-19.0564 39.5778-21.8563L39.5778-31.125L31.4895-39.2755L31.4895-21.8563C31.4895-19.0564 30.8673-18.31 29.0003-17.3139C24.3965-14.8874 21.3478-10.3455 21.3478-4.80838C21.3478 3.09337 27.6321 9.43961 35.5335 9.43961ZM55.5703-71.8933L65.297-71.8933C65.9907-71.8933 66.618-72.3984 66.618-73.0291C66.618-73.7212 65.9907-74.2263 65.297-74.2263L55.5703-74.2263C54.8146-74.2263 54.2488-73.7212 54.2488-73.0291C54.2488-72.3984 54.8146-71.8933 55.5703-71.8933ZM55.5703-58.1862L65.297-58.1862C65.9907-58.1862 66.618-58.6914 66.618-59.322C66.618-60.0141 65.9907-60.5193 65.297-60.5193L55.5703-60.5193C54.8146-60.5193 54.2488-60.0141 54.2488-59.322C54.2488-58.6914 54.8146-58.1862 55.5703-58.1862ZM55.5703-44.4792L65.297-44.4792C65.9907-44.4792 66.618-44.9844 66.618-45.615C66.618-46.3071 65.9907-46.8123 65.297-46.8123L55.5703-46.8123C54.8146-46.8123 54.2488-46.3071 54.2488-45.615C54.2488-44.9844 54.8146-44.4792 55.5703-44.4792ZM73.3221-2.57553C73.8285-2.0691 74.5901-2.0691 75.0961-2.57553C75.6021-3.14385 75.5402-3.84267 75.0961-4.28722L3.8372-75.5457C3.45453-75.9902 2.63153-76.114 2.12509-75.5457C1.61908-75.1015 1.61866-74.2781 2.12509-73.834Z"/>
  </g>
  <g id="Black-S" transform="matrix(1 0 0 1 2898.24 696)">
   <path d="M35.2051-81.2988C27.6367-81.2988 21.7285-77.4902 19.1895-71.1426L19.0918-70.8984L29.1504-60.8398L29.1504-62.3047C29.1504-66.7969 31.5918-69.7754 35.2051-69.7754C38.7207-69.7754 41.1621-66.7969 41.1621-62.3047L41.1621-48.8281L52.7344-37.3047L52.7344-62.5977C52.7344-73.7793 45.6055-81.2988 35.2051-81.2988ZM35.2051 10.8398C45.752 10.8398 54.7852 4.58984 58.6426-4.49219C58.6914-4.58984 58.7402-4.73633 58.7891-4.83398L49.0234-14.5508C49.0234-14.502 49.0234-14.4043 49.0234-14.3555C49.0234-6.78711 42.7734-0.634766 35.2051-0.634766C27.4902-0.634766 21.2891-6.88477 21.2891-14.5996C21.2891-19.7754 23.6328-23.584 27.5879-26.1719C28.7109-26.9043 29.1504-27.4902 29.1504-29.0039L29.1504-34.375L17.5781-45.9473L17.5781-32.959C17.5781-31.9824 17.4805-31.5918 16.748-30.9082C12.0605-26.5625 9.76562-20.7031 9.76562-14.1113C9.76562-0.0976562 21.1426 10.8398 35.2051 10.8398ZM35.1562-5.81055C39.9902-5.81055 43.8965-9.7168 43.8965-14.5996C43.8965-17.9688 41.9922-20.752 39.209-22.2656C38.0371-22.9004 37.6465-23.3398 37.6465-25.0977L37.6465-25.9277L32.666-30.9082L32.666-25.0977C32.666-23.3398 32.2754-22.9004 31.1035-22.2656C28.3203-20.752 26.416-17.9688 26.416-14.5996C26.416-9.7168 30.3223-5.81055 35.1562-5.81055ZM60.498-62.1582L69.3848-62.1582C71.1426-62.1582 72.2656-63.3789 72.2656-64.9902C72.2656-66.6016 71.1426-67.8223 69.3848-67.8223L60.498-67.8223C58.7402-67.8223 57.6172-66.6016 57.6172-64.9902C57.6172-63.3789 58.7402-62.1582 60.498-62.1582ZM60.498-52.1484L69.3848-52.1484C71.1426-52.1484 72.2656-53.3691 72.2656-54.9805C72.2656-56.5918 71.1426-57.8125 69.3848-57.8125L60.498-57.8125C58.7402-57.8125 57.6172-56.5918 57.6172-54.9805C57.6172-53.3691 58.7402-52.1484 60.498-52.1484ZM60.498-41.8945L69.3848-41.8945C71.1426-41.8945 72.2656-43.1152 72.2656-44.7266C72.2656-46.3379 71.1426-47.5586 69.3848-47.5586L60.498-47.5586C58.7402-47.5586 57.6172-46.3379 57.6172-44.7266C57.6172-43.1152 58.7402-41.8945 60.498-41.8945ZM68.6523-3.22266C70.0195-1.9043 72.2656-1.85547 73.584-3.22266C74.9023-4.58984 74.9512-6.78711 73.584-8.1543L6.64062-75.0488C5.27344-76.416 3.02734-76.416 1.66016-75.0488C0.341797-73.7305 0.341797-71.4355 1.66016-70.1172Z"/>
  </g>
  <g id="Heavy-S" transform="matrix(1 0 0 1 2602.71 696)">
   <path d="M34.0181-80.4921C26.7609-80.4921 21.1292-76.672 18.9129-70.3704L18.8267-69.988L27.9403-60.8744L27.9403-62.6965C27.9403-67.2002 30.3933-70.1787 34.0181-70.1787C37.5567-70.1787 39.9981-67.2002 39.9981-62.6965L39.9981-48.8166L50.3488-38.5032L50.3488-62.978C50.3488-73.4451 43.7155-80.4921 34.0181-80.4921ZM34.0181 10.0101C44.4266 10.0101 53.287 3.54112 56.6373-5.63311C56.7092-5.86906 56.7696-6.15384 56.8069-6.40131L47.5368-15.6456C47.7557-15.1588 47.871-14.5887 47.871-14.0443C47.871-6.44138 41.621-0.254458 34.0181-0.254458C26.2917-0.254458 20.079-6.51598 20.079-14.2308C20.079-19.3029 22.4112-23.2267 26.3778-25.8261C27.5009-26.5586 27.9403-27.156 27.9403-28.6697L27.9403-35.2163L17.5896-45.567L17.5896-32.3712C17.5896-31.3831 17.4805-30.9925 16.748-30.2974C12.0951-25.9863 9.76562-20.2882 9.76562-13.8578C9.76562-0.501013 20.6125 10.0101 34.0181 10.0101ZM33.9692-5.43024C38.8263-5.43024 42.744-9.34801 42.744-14.2424C42.744-17.623 40.8282-20.4177 38.045-21.9314C36.8616-22.5777 36.471-23.0172 36.471-24.775L36.471-26.7229L31.479-31.7264L31.479-24.775C31.479-23.0172 31.0884-22.5777 29.905-21.9314C27.1102-20.4177 25.2059-17.623 25.2059-14.2424C25.2059-9.34801 29.1237-5.43024 33.9692-5.43024ZM58.0433-62.5155L66.8263-62.5155C68.5265-62.5155 69.615-63.7246 69.615-65.2783C69.615-66.8205 68.5265-68.0297 66.8263-68.0297L58.0433-68.0297C56.3431-68.0297 55.2431-66.8205 55.2431-65.2783C55.2431-63.7246 56.3431-62.5155 58.0433-62.5155ZM58.0433-52.3328L66.8263-52.3328C68.5265-52.3328 69.615-53.542 69.615-55.0957C69.615-56.6379 68.5265-57.8471 66.8263-57.8471L58.0433-57.8471C56.3431-57.8471 55.2431-56.6379 55.2431-55.0957C55.2431-53.542 56.3431-52.3328 58.0433-52.3328ZM58.0433-41.9637L66.8263-41.9637C68.5265-41.9637 69.615-43.1729 69.615-44.7266C69.615-46.2687 68.5265-47.4779 66.8263-47.4779L58.0433-47.4779C56.3431-47.4779 55.2431-46.2687 55.2431-44.7266C55.2431-43.1729 56.3431-41.9637 58.0433-41.9637ZM67.4192-3.71821C68.7749-2.39985 71.0095-2.36255 72.3163-3.71821C73.6231-5.07387 73.6604-7.24809 72.3163-8.60375L6.77892-74.0923C5.42326-75.448 3.20021-75.448 1.84455-74.0923C0.537713-72.7855 0.526188-70.5136 1.84455-69.2068Z"/>
  </g>
  <g id="Bold-S" transform="matrix(1 0 0 1 2307.32 696)">
   <path d="M32.6904-79.5898C25.7812-79.5898 20.459-75.7568 18.6035-69.5068L18.5303-68.9697L26.5869-60.9131L26.5869-63.1348C26.5869-67.6514 29.0527-70.6299 32.6904-70.6299C36.2549-70.6299 38.6963-67.6514 38.6963-63.1348L38.6963-48.8037L47.6807-39.8438L47.6807-63.4033C47.6807-73.0713 41.6016-79.5898 32.6904-79.5898ZM32.6904 9.08203C42.9443 9.08203 51.6113 2.36816 54.3945-6.90918C54.4922-7.2998 54.5654-7.73926 54.5898-8.1543L45.874-16.8701C46.3379-15.8936 46.582-14.7949 46.582-13.6963C46.582-6.05469 40.332 0.170898 32.6904 0.170898C24.9512 0.170898 18.7256-6.10352 18.7256-13.8184C18.7256-18.7744 21.0449-22.8271 25.0244-25.4395C26.1475-26.1719 26.5869-26.7822 26.5869-28.2959L26.5869-36.1572L17.6025-45.1416L17.6025-31.7139C17.6025-30.7129 17.4805-30.3223 16.748-29.6143C12.1338-25.3418 9.76562-19.8242 9.76562-13.5742C9.76562-0.952148 20.0195 9.08203 32.6904 9.08203ZM32.6416-5.00488C37.5244-5.00488 41.4551-8.93555 41.4551-13.8428C41.4551-17.2363 39.5264-20.0439 36.7432-21.5576C35.5469-22.2168 35.1562-22.6562 35.1562-24.4141L35.1562-27.6123L30.1514-32.6416L30.1514-24.4141C30.1514-22.6562 29.7607-22.2168 28.5645-21.5576C25.7568-20.0439 23.8525-17.2363 23.8525-13.8428C23.8525-8.93555 27.7832-5.00488 32.6416-5.00488ZM55.2979-62.915L63.9648-62.915C65.6006-62.915 66.6504-64.1113 66.6504-65.6006C66.6504-67.0654 65.6006-68.2617 63.9648-68.2617L55.2979-68.2617C53.6621-68.2617 52.5879-67.0654 52.5879-65.6006C52.5879-64.1113 53.6621-62.915 55.2979-62.915ZM55.2979-52.5391L63.9648-52.5391C65.6006-52.5391 66.6504-53.7354 66.6504-55.2246C66.6504-56.6895 65.6006-57.8857 63.9648-57.8857L55.2979-57.8857C53.6621-57.8857 52.5879-56.6895 52.5879-55.2246C52.5879-53.7354 53.6621-52.5391 55.2979-52.5391ZM55.2979-42.041L63.9648-42.041C65.6006-42.041 66.6504-43.2373 66.6504-44.7266C66.6504-46.1914 65.6006-47.3877 63.9648-47.3877L55.2979-47.3877C53.6621-47.3877 52.5879-46.1914 52.5879-44.7266C52.5879-43.2373 53.6621-42.041 55.2979-42.041ZM66.04-4.27246C67.3828-2.9541 69.6045-2.92969 70.8984-4.27246C72.1924-5.61523 72.2168-7.76367 70.8984-9.10645L6.93359-73.0225C5.59082-74.3652 3.39355-74.3652 2.05078-73.0225C0.756836-71.7285 0.732422-69.4824 2.05078-68.1885Z"/>
  </g>
  <g id="Semibold-S" transform="matrix(1 0 0 1 2011.52 696)">
   <path d="M31.7751-78.9678C25.1059-78.9678 19.9969-75.1259 18.3902-68.9114L18.3259-68.2677L25.6538-60.9397L25.6538-63.4369C25.6538-67.9624 28.1285-70.9409 31.7751-70.9409C35.3573-70.9409 37.7987-67.9624 37.7987-63.4369L37.7987-48.7948L45.8411-40.768L45.8411-63.6966C45.8411-72.8136 40.1441-78.9678 31.7751-78.9678ZM31.7751 8.44219C41.9224 8.44219 50.4561 1.55947 52.8482-7.78896C52.9637-8.28623 53.0458-8.83232 53.0613-9.36289L44.7276-17.7144C45.3604-16.4001 45.6934-14.9371 45.6934-13.4563C45.6934-5.78809 39.4434 0.46416 31.7751 0.46416C24.027 0.46416 17.7925-5.81914 17.7925-13.534C17.7925-18.4101 20.1029-22.5517 24.0913-25.1729C25.2144-25.9053 25.6538-26.5245 25.6538-28.0382L25.6538-36.806L17.6114-44.8483L17.6114-31.2606C17.6114-30.2508 17.4805-29.8602 16.748-29.1433C12.1604-24.8975 9.76562-19.5043 9.76562-13.3787C9.76562-1.26318 19.6107 8.44219 31.7751 8.44219ZM31.7263-4.71162C36.6269-4.71162 40.5664-8.65117 40.5664-13.5673C40.5664-16.9697 38.6288-19.7862 35.8456-21.2999C34.6404-21.968 34.2498-22.4074 34.2498-24.1652L34.2498-28.2255L29.236-33.2726L29.236-24.1652C29.236-22.4074 28.8454-21.968 27.6402-21.2999C24.8237-19.7862 22.9194-16.9697 22.9194-13.5673C22.9194-8.65117 26.859-4.71162 31.7263-4.71162ZM53.405-63.1905L61.992-63.1905C63.5833-63.1905 64.6064-64.3779 64.6064-65.8228C64.6064-67.2343 63.5833-68.4217 61.992-68.4217L53.405-68.4217C51.8137-68.4217 50.7572-67.2343 50.7572-65.8228C50.7572-64.3779 51.8137-63.1905 53.405-63.1905ZM53.405-52.6812L61.992-52.6812C63.5833-52.6812 64.6064-53.8687 64.6064-55.3135C64.6064-56.725 63.5833-57.9124 61.992-57.9124L53.405-57.9124C51.8137-57.9124 50.7572-56.725 50.7572-55.3135C50.7572-53.8687 51.8137-52.6812 53.405-52.6812ZM53.405-42.0943L61.992-42.0943C63.5833-42.0943 64.6064-43.2817 64.6064-44.7266C64.6064-46.1381 63.5833-47.3255 61.992-47.3255L53.405-47.3255C51.8137-47.3255 50.7572-46.1381 50.7572-44.7266C50.7572-43.2817 51.8137-42.0943 53.405-42.0943ZM65.0892-4.65459C66.423-3.33623 68.6358-3.3207 69.9209-4.65459C71.206-5.98848 71.2215-8.11914 69.9209-9.45303L7.04023-72.2849C5.70635-73.6188 3.52686-73.6188 2.19297-72.2849C0.90791-70.9998 0.874609-68.7715 2.19297-67.4864Z"/>
  </g>
  <g id="Medium-S" transform="matrix(1 0 0 1 1715.5 696)">
   <path d="M31.0811-78.4961C24.5938-78.4961 19.6465-74.6475 18.2285-68.46L18.1709-67.7354L24.9463-60.96L24.9463-63.666C24.9463-68.1982 27.4277-71.1768 31.0811-71.1768C34.6768-71.1768 37.1182-68.1982 37.1182-63.666L37.1182-48.7881L44.4463-41.4688L44.4463-63.9189C44.4463-72.6182 39.0391-78.4961 31.0811-78.4961ZM31.0811 7.95703C41.1475 7.95703 49.5801 0.946289 51.6758-8.45605C51.8047-9.03418 51.8936-9.66113 51.9023-10.2793L43.8584-18.3545C44.6191-16.7842 45.0195-15.0449 45.0195-13.2744C45.0195-5.58594 38.7695 0.686523 31.0811 0.686523C23.3262 0.686523 17.085-5.60352 17.085-13.3184C17.085-18.1338 19.3887-22.3428 23.3838-24.9707C24.5068-25.7031 24.9463-26.3291 24.9463-27.8428L24.9463-37.2979L17.6182-44.626L17.6182-30.917C17.6182-29.9004 17.4805-29.5098 16.748-28.7861C12.1807-24.5605 9.76562-19.2617 9.76562-13.2305C9.76562-1.49902 19.3008 7.95703 31.0811 7.95703ZM31.0322-4.48926C35.9463-4.48926 39.8926-8.43555 39.8926-13.3584C39.8926-16.7676 37.9482-19.5908 35.165-21.1045C33.9531-21.7793 33.5625-22.2188 33.5625-23.9766L33.5625-28.6904L28.542-33.751L28.542-23.9766C28.542-22.2188 28.1514-21.7793 26.9395-21.1045C24.1162-19.5908 22.2119-16.7676 22.2119-13.3584C22.2119-8.43555 26.1582-4.48926 31.0322-4.48926ZM51.9697-63.3994L60.4961-63.3994C62.0537-63.3994 63.0566-64.5801 63.0566-65.9912C63.0566-67.3623 62.0537-68.543 60.4961-68.543L51.9697-68.543C50.4121-68.543 49.3691-67.3623 49.3691-65.9912C49.3691-64.5801 50.4121-63.3994 51.9697-63.3994ZM51.9697-52.7891L60.4961-52.7891C62.0537-52.7891 63.0566-53.9697 63.0566-55.3809C63.0566-56.752 62.0537-57.9326 60.4961-57.9326L51.9697-57.9326C50.4121-57.9326 49.3691-56.752 49.3691-55.3809C49.3691-53.9697 50.4121-52.7891 51.9697-52.7891ZM51.9697-42.1348L60.4961-42.1348C62.0537-42.1348 63.0566-43.3154 63.0566-44.7266C63.0566-46.0977 62.0537-47.2783 60.4961-47.2783L51.9697-47.2783C50.4121-47.2783 49.3691-46.0977 49.3691-44.7266C49.3691-43.3154 50.4121-42.1348 51.9697-42.1348ZM64.3682-4.94434C65.6953-3.62598 67.9014-3.61719 69.1797-4.94434C70.458-6.27148 70.4668-8.38867 69.1797-9.71582L7.12109-71.7256C5.79395-73.0527 3.62793-73.0527 2.30078-71.7256C1.02246-70.4473 0.982422-68.2324 2.30078-66.9541Z"/>
  </g>
  <g id="Regular-S" transform="matrix(1 0 0 1 1419.69 696)">
   <path d="M30.1758-77.8809C23.9258-77.8809 19.1895-74.0234 18.0176-67.8711L17.9688-67.041L24.0234-60.9863L24.0234-63.9648C24.0234-68.5059 26.5137-71.4844 30.1758-71.4844C33.7891-71.4844 36.2305-68.5059 36.2305-63.9648L36.2305-48.7793L42.627-42.3828L42.627-64.209C42.627-72.3633 37.5977-77.8809 30.1758-77.8809ZM30.1758 7.32422C40.1367 7.32422 48.4375 0.146484 50.1465-9.32617C50.293-10.0098 50.3906-10.7422 50.3906-11.4746L42.7246-19.1895C43.6523-17.2852 44.1406-15.1855 44.1406-13.0371C44.1406-5.32227 37.8906 0.976562 30.1758 0.976562C22.4121 0.976562 16.1621-5.32227 16.1621-13.0371C16.1621-17.7734 18.457-22.0703 22.4609-24.707C23.584-25.4395 24.0234-26.0742 24.0234-27.5879L24.0234-37.9395L17.627-44.3359L17.627-30.4688C17.627-29.4434 17.4805-29.0527 16.748-28.3203C12.207-24.1211 9.76562-18.9453 9.76562-13.0371C9.76562-1.80664 18.8965 7.32422 30.1758 7.32422ZM30.127-4.19922C35.0586-4.19922 39.0137-8.1543 39.0137-13.0859C39.0137-16.5039 37.0605-19.3359 34.2773-20.8496C33.0566-21.5332 32.666-21.9727 32.666-23.7305L32.666-29.2969L27.6367-34.375L27.6367-23.7305C27.6367-21.9727 27.2461-21.5332 26.0254-20.8496C23.1934-19.3359 21.2891-16.5039 21.2891-13.0859C21.2891-8.1543 25.2441-4.19922 30.127-4.19922ZM50.0977-63.6719L58.5449-63.6719C60.0586-63.6719 61.0352-64.8438 61.0352-66.2109C61.0352-67.5293 60.0586-68.7012 58.5449-68.7012L50.0977-68.7012C48.584-68.7012 47.5586-67.5293 47.5586-66.2109C47.5586-64.8438 48.584-63.6719 50.0977-63.6719ZM50.0977-52.9297L58.5449-52.9297C60.0586-52.9297 61.0352-54.1016 61.0352-55.4688C61.0352-56.7871 60.0586-57.959 58.5449-57.959L50.0977-57.959C48.584-57.959 47.5586-56.7871 47.5586-55.4688C47.5586-54.1016 48.584-52.9297 50.0977-52.9297ZM50.0977-42.1875L58.5449-42.1875C60.0586-42.1875 61.0352-43.3594 61.0352-44.7266C61.0352-46.0449 60.0586-47.2168 58.5449-47.2168L50.0977-47.2168C48.584-47.2168 47.5586-46.0449 47.5586-44.7266C47.5586-43.3594 48.584-42.1875 50.0977-42.1875ZM63.4277-5.32227C64.7461-4.00391 66.9434-4.00391 68.2129-5.32227C69.4824-6.64062 69.4824-8.74023 68.2129-10.0586L7.22656-70.9961C5.9082-72.3145 3.75977-72.3145 2.44141-70.9961C1.17188-69.7266 1.12305-67.5293 2.44141-66.2598Z"/>
  </g>
  <g id="Light-S" transform="matrix(1 0 0 1 1123.7 696)">
   <path d="M29.4492-77.6689C23.29-77.6689 18.8262-73.6602 18.0327-67.5381L17.999-63.5596L22.7368-58.8067L22.7368-64.8579C22.7368-69.5351 25.4541-72.6953 29.4492-72.6953C33.3804-72.6953 36.0942-69.5351 36.0942-64.8579L36.0942-45.4492L41.0679-40.4605L41.0679-64.7236C41.0679-72.4844 36.3413-77.6689 29.4492-77.6689ZM29.4492 7.11231C39.4404 7.11231 47.6655-0.36816 48.8296-9.99218C48.9307-10.9785 48.9375-11.9985 48.8013-12.9731L42.3916-19.4165C43.5615-17.3154 44.1406-14.9736 44.1406-12.5225C44.1406-4.42921 37.5576 2.20263 29.4492 2.20263C21.3071 2.20263 14.7241-4.42921 14.7241-12.5225C14.7241-17.3042 16.9282-21.6465 21.0532-24.4648C22.2671-25.2881 22.7368-26.1196 22.7368-27.709L22.7368-39.5591L17.748-44.5478L17.748-29.833C17.748-28.6108 17.5864-28.1294 16.7178-27.3364C12.1313-23.2886 9.76562-18.2642 9.76562-12.5225C9.76562-1.70068 18.5635 7.11231 29.4492 7.11231ZM29.4155-2.95802C34.7407-2.95802 38.9985-7.23096 38.9985-12.5562C38.9985-16.2617 36.9092-19.3208 33.8687-20.9556C32.5723-21.6694 32.1514-22.1543 32.1514-24.0483L32.1514-30.1445L26.7134-35.6313L26.7134-24.0483C26.7134-22.1543 26.2925-21.6694 24.9961-20.9556C21.9219-19.3208 19.8662-16.2617 19.8662-12.5562C19.8662-7.23096 24.124-2.95802 29.4155-2.95802ZM48.0542-63.7627L56.2442-63.7627C57.4551-63.7627 58.2803-64.6924 58.2803-65.7871C58.2803-66.8633 57.4551-67.793 56.2442-67.793L48.0542-67.793C46.8281-67.793 45.9844-66.8633 45.9844-65.7871C45.9844-64.6924 46.8281-63.7627 48.0542-63.7627ZM48.0542-53.0205L56.2442-53.0205C57.4551-53.0205 58.2803-53.9502 58.2803-55.0449C58.2803-56.1211 57.4551-57.0508 56.2442-57.0508L48.0542-57.0508C46.8281-57.0508 45.9844-56.1211 45.9844-55.0449C45.9844-53.9502 46.8281-53.0205 48.0542-53.0205ZM48.0542-42.2783L56.2442-42.2783C57.4551-42.2783 58.2803-43.208 58.2803-44.3027C58.2803-45.3789 57.4551-46.3086 56.2442-46.3086L48.0542-46.3086C46.8281-46.3086 45.9844-45.3789 45.9844-44.3027C45.9844-43.208 46.8281-42.2783 48.0542-42.2783ZM61.5659-6.66942C62.5967-5.63866 64.2945-5.63866 65.2915-6.66942C66.2886-7.71532 66.2735-9.33056 65.2915-10.3462L5.90968-69.6943C4.90919-70.71 3.22998-70.7402 2.19922-69.6943C1.20215-68.7124 1.16846-66.9995 2.19922-66.0176Z"/>
  </g>
  <g id="Thin-S" transform="matrix(1 0 0 1 827.941 696)">
   <path d="M28.4883-77.3887C22.4492-77.3887 18.3457-73.1797 18.0527-67.0977L18.0391-58.9551L21.0352-55.9239L21.0352-66.039C21.0352-70.8965 24.0528-74.2969 28.4883-74.2969C32.8399-74.2969 35.9141-70.8965 35.9141-66.039L35.9141-41.045L39.0059-37.918L39.0059-65.4043C39.0059-72.6445 34.6797-77.3887 28.4883-77.3887ZM28.4883 6.83204C38.5195 6.83204 46.6445-1.04882 47.0879-10.873C47.1289-12.2597 47.0157-13.6601 46.6992-14.9551L41.9512-19.7168C43.4414-17.3555 44.1406-14.6934 44.1406-11.8418C44.1406-3.24806 37.1172 3.8242 28.4883 3.8242C19.8457 3.8242 12.8223-3.24806 12.8223-11.8418C12.8223-16.6836 14.9063-21.0859 19.1914-24.1445C20.5254-25.0879 21.0352-26.1797 21.0352-27.8691L21.0352-41.7011L17.9082-44.8281L17.9082-28.9922C17.9082-27.5098 17.7266-26.9082 16.6777-26.0352C12.0313-22.1875 9.76562-17.3633 9.76562-11.8418C9.76562-1.56055 18.1231 6.83204 28.4883 6.83204ZM28.4746-1.31643C34.3203-1.31643 38.9785-6.00978 38.9785-11.8555C38.9785-15.9414 36.709-19.3008 33.3281-21.0957C31.9316-21.8496 31.4707-22.3945 31.4707-24.4687L31.4707-31.2656L25.4922-37.2929L25.4922-24.4687C25.4922-22.3945 25.0313-21.8496 23.6348-21.0957C20.2403-19.3008 17.9844-15.9414 17.9844-11.8555C17.9844-6.00978 22.6426-1.31643 28.4746-1.31643ZM45.3516-63.8828L53.2012-63.8828C54.0118-63.8828 54.6368-64.4922 54.6368-65.2266C54.6368-65.9824 54.0118-66.5918 53.2012-66.5918L45.3516-66.5918C44.5059-66.5918 43.9024-65.9824 43.9024-65.2266C43.9024-64.4922 44.5059-63.8828 45.3516-63.8828ZM45.3516-53.1406L53.2012-53.1406C54.0118-53.1406 54.6368-53.75 54.6368-54.4844C54.6368-55.2402 54.0118-55.8496 53.2012-55.8496L45.3516-55.8496C44.5059-55.8496 43.9024-55.2402 43.9024-54.4844C43.9024-53.75 44.5059-53.1406 45.3516-53.1406ZM45.3516-42.3984L53.2012-42.3984C54.0118-42.3984 54.6368-43.0078 54.6368-43.7422C54.6368-44.4981 54.0118-45.1074 53.2012-45.1074L45.3516-45.1074C44.5059-45.1074 43.9024-44.4981 43.9024-43.7422C43.9024-43.0078 44.5059-42.3984 45.3516-42.3984ZM59.1035-8.45115C59.7539-7.80075 60.7911-7.80075 61.4278-8.45115C62.0645-9.1367 62.0294-10.1113 61.4278-10.7266L4.16799-67.9727C3.58791-68.5879 2.52931-68.6582 1.87891-67.9727C1.24219-67.3711 1.22851-66.2988 1.87891-65.6973Z"/>
  </g>
  <g id="Ultralight-S" transform="matrix(1 0 0 1 531.717 696)">
   <path d="M27.9961-77.2451C22.0186-77.2451 18.0996-72.9336 18.063-66.8721L18.0596-56.5968L20.1636-54.4473L20.1636-66.644C20.1636-71.5937 23.335-75.1172 27.9961-75.1172C32.563-75.1172 35.8218-71.5937 35.8218-66.644L35.8218-38.7891L37.9497-36.6158L37.9497-65.7529C37.9497-72.7266 33.8286-77.2451 27.9961-77.2451ZM27.9961 6.68848C38.0479 6.68848 46.1216-1.39745 46.1958-11.3242C46.2061-12.916 46.0313-14.5112 45.6226-15.9702L41.7256-19.8706C43.3799-17.376 44.1406-14.5498 44.1406-11.4932C44.1406-2.64309 36.8916 4.65476 27.9961 4.65476C19.0972 4.65476 11.8482-2.64309 11.8482-11.4932C11.8482-16.3657 13.8706-20.7988 18.2378-23.9805C19.6333-24.9854 20.1636-26.2104 20.1636-27.9512L20.1636-42.7983L17.9902-44.9717L17.9902-28.5615C17.9902-26.9458 17.7983-26.2827 16.6572-25.3687C11.98-21.6236 9.76562-16.9019 9.76562-11.4932C9.76562-1.48877 17.8975 6.68848 27.9961 6.68848ZM27.9927-0.475615C34.105-0.475615 38.9683-5.3843 38.9683-11.4966C38.9683-15.7773 36.6064-19.2905 33.0513-21.1675C31.6035-21.9419 31.1221-22.5176 31.1221-24.6841L31.1221-31.8398L24.8667-38.144L24.8667-24.6841C24.8667-22.5176 24.3853-21.9419 22.9375-21.1675C19.3789-19.2905 17.0205-15.7773 17.0205-11.4966C17.0205-5.3843 21.8838-0.475615 27.9927-0.475615ZM43.9673-63.9443L51.6426-63.9443C52.2481-63.9443 52.7706-64.3897 52.7706-64.9395C52.7706-65.5313 52.2481-65.9766 51.6426-65.9766L43.9673-65.9766C43.3164-65.9766 42.836-65.5313 42.836-64.9395C42.836-64.3897 43.3164-63.9443 43.9673-63.9443ZM43.9673-53.2021L51.6426-53.2021C52.2481-53.2021 52.7706-53.6475 52.7706-54.1973C52.7706-54.7891 52.2481-55.2344 51.6426-55.2344L43.9673-55.2344C43.3164-55.2344 42.836-54.7891 42.836-54.1973C42.836-53.6475 43.3164-53.2021 43.9673-53.2021ZM43.9673-42.46L51.6426-42.46C52.2481-42.46 52.7706-42.9053 52.7706-43.4551C52.7706-44.0469 52.2481-44.4922 51.6426-44.4922L43.9673-44.4922C43.3164-44.4922 42.836-44.0469 42.836-43.4551C42.836-42.9053 43.3164-42.46 43.9673-42.46ZM57.8423-9.36374C58.2979-8.90816 58.9966-8.90816 59.4488-9.36374C59.901-9.86472 59.8555-10.5112 59.4488-10.9214L3.27591-67.0909C2.91116-67.501 2.17042-67.5918 1.71485-67.0909C1.26269-66.6841 1.25928-65.94 1.71485-65.5332Z"/>
  </g>
 </g>
</svg>
