<?xml version="1.0" encoding="UTF-8"?>
<!--Generator: Apple Native CoreSVG 232.5-->
<!DOCTYPE svg
PUBLIC "-//W3C//DTD SVG 1.1//EN"
       "http://www.w3.org/Graphics/SVG/1.1/DTD/svg11.dtd">
<svg version="1.1" xmlns="http://www.w3.org/2000/svg" xmlns:xlink="http://www.w3.org/1999/xlink" width="3300" height="2200">
 <g id="Notes">
  <rect height="2200" id="artboard" style="fill:white;opacity:1" width="3300" x="0" y="0"/>
  <line style="fill:none;stroke:black;opacity:1;stroke-width:0.5;" x1="263" x2="3036" y1="292" y2="292"/>
  <text style="stroke:none;fill:black;font-family:sans-serif;font-size:13;font-weight:bold;" transform="matrix(1 0 0 1 263 322)">Weight/Scale Variations</text>
  <text style="stroke:none;fill:black;font-family:sans-serif;font-size:13;text-anchor:middle;" transform="matrix(1 0 0 1 559.711 322)">Ultralight</text>
  <text style="stroke:none;fill:black;font-family:sans-serif;font-size:13;text-anchor:middle;" transform="matrix(1 0 0 1 856.422 322)">Thin</text>
  <text style="stroke:none;fill:black;font-family:sans-serif;font-size:13;text-anchor:middle;" transform="matrix(1 0 0 1 1153.13 322)">Light</text>
  <text style="stroke:none;fill:black;font-family:sans-serif;font-size:13;text-anchor:middle;" transform="matrix(1 0 0 1 1449.84 322)">Regular</text>
  <text style="stroke:none;fill:black;font-family:sans-serif;font-size:13;text-anchor:middle;" transform="matrix(1 0 0 1 1746.56 322)">Medium</text>
  <text style="stroke:none;fill:black;font-family:sans-serif;font-size:13;text-anchor:middle;" transform="matrix(1 0 0 1 2043.27 322)">Semibold</text>
  <text style="stroke:none;fill:black;font-family:sans-serif;font-size:13;text-anchor:middle;" transform="matrix(1 0 0 1 2339.98 322)">Bold</text>
  <text style="stroke:none;fill:black;font-family:sans-serif;font-size:13;text-anchor:middle;" transform="matrix(1 0 0 1 2636.69 322)">Heavy</text>
  <text style="stroke:none;fill:black;font-family:sans-serif;font-size:13;text-anchor:middle;" transform="matrix(1 0 0 1 2933.4 322)">Black</text>
  <line style="fill:none;stroke:black;opacity:1;stroke-width:0.5;" x1="263" x2="3036" y1="1903" y2="1903"/>
  <g transform="matrix(0.2 0 0 0.2 263 1933)">
   <path d="m46.2402 4.15039c21.5332 0 39.4531-17.8711 39.4531-39.4043s-17.9688-39.4043-39.502-39.4043c-21.4844 0-39.3555 17.8711-39.3555 39.4043s17.9199 39.4043 39.4043 39.4043Zm0-7.42188c-17.7246 0-31.8848-14.209-31.8848-31.9824s14.1113-31.9824 31.8359-31.9824c17.7734 0 32.0312 14.209 32.0312 31.9824s-14.209 31.9824-31.9824 31.9824Zm-17.9688-31.9824c0 2.14844 1.51367 3.61328 3.75977 3.61328h10.498v10.5957c0 2.19727 1.46484 3.71094 3.61328 3.71094 2.24609 0 3.71094-1.51367 3.71094-3.71094v-10.5957h10.5957c2.19727 0 3.71094-1.46484 3.71094-3.61328 0-2.19727-1.51367-3.71094-3.71094-3.71094h-10.5957v-10.5469c0-2.24609-1.46484-3.75977-3.71094-3.75977-2.14844 0-3.61328 1.51367-3.61328 3.75977v10.5469h-10.498c-2.24609 0-3.75977 1.51367-3.75977 3.71094Z"/>
  </g>
  <g transform="matrix(0.2 0 0 0.2 281.506 1933)">
   <path d="m58.5449 14.5508c27.2461 0 49.8047-22.6074 49.8047-49.8047 0-27.2461-22.6074-49.8047-49.8535-49.8047-27.1973 0-49.7559 22.5586-49.7559 49.8047 0 27.1973 22.6074 49.8047 49.8047 49.8047Zm0-8.30078c-23.0469 0-41.4551-18.457-41.4551-41.5039s18.3594-41.5039 41.4062-41.5039 41.5527 18.457 41.5527 41.5039-18.457 41.5039-41.5039 41.5039Zm-22.6562-41.5039c0 2.39258 1.66016 4.00391 4.15039 4.00391h14.3555v14.4043c0 2.44141 1.66016 4.15039 4.05273 4.15039 2.44141 0 4.15039-1.66016 4.15039-4.15039v-14.4043h14.4043c2.44141 0 4.15039-1.61133 4.15039-4.00391 0-2.44141-1.70898-4.15039-4.15039-4.15039h-14.4043v-14.3555c0-2.49023-1.70898-4.19922-4.15039-4.19922-2.39258 0-4.05273 1.70898-4.05273 4.19922v14.3555h-14.3555c-2.49023 0-4.15039 1.70898-4.15039 4.15039Z"/>
  </g>
  <g transform="matrix(0.2 0 0 0.2 304.924 1933)">
   <path d="m74.8535 28.3203c34.8145 0 63.623-28.8086 63.623-63.5742 0-34.8145-28.8574-63.623-63.6719-63.623-34.7656 0-63.5254 28.8086-63.5254 63.623 0 34.7656 28.8086 63.5742 63.5742 63.5742Zm0-9.08203c-30.1758 0-54.4434-24.3164-54.4434-54.4922 0-30.2246 24.2188-54.4922 54.3945-54.4922 30.2246 0 54.541 24.2676 54.541 54.4922 0 30.1758-24.2676 54.4922-54.4922 54.4922Zm-28.8574-54.4922c0 2.58789 1.85547 4.39453 4.58984 4.39453h19.7266v19.7754c0 2.68555 1.85547 4.58984 4.44336 4.58984 2.68555 0 4.54102-1.85547 4.54102-4.58984v-19.7754h19.7754c2.68555 0 4.58984-1.80664 4.58984-4.39453 0-2.73438-1.85547-4.58984-4.58984-4.58984h-19.7754v-19.7266c0-2.73438-1.85547-4.63867-4.54102-4.63867-2.58789 0-4.44336 1.9043-4.44336 4.63867v19.7266h-19.7266c-2.73438 0-4.58984 1.85547-4.58984 4.58984Z"/>
  </g>
  <text style="stroke:none;fill:black;font-family:sans-serif;font-size:13;font-weight:bold;" transform="matrix(1 0 0 1 263 1953)">Design Variations</text>
  <text style="stroke:none;fill:black;font-family:sans-serif;font-size:13;" transform="matrix(1 0 0 1 263 1971)">Symbols are supported in up to nine weights and three scales.</text>
  <text style="stroke:none;fill:black;font-family:sans-serif;font-size:13;" transform="matrix(1 0 0 1 263 1989)">For optimal layout with text and other symbols, vertically align</text>
  <text style="stroke:none;fill:black;font-family:sans-serif;font-size:13;" transform="matrix(1 0 0 1 263 2007)">symbols with the adjacent text.</text>
  <line style="fill:none;stroke:#00AEEF;stroke-width:0.5;opacity:1.0;" x1="776" x2="776" y1="1919" y2="1933"/>
  <g transform="matrix(0.2 0 0 0.2 776 1933)">
   <path d="m16.5527 0.78125c2.58789 0 3.85742-0.976562 4.78516-3.71094l6.29883-17.2363h28.8086l6.29883 17.2363c0.927734 2.73438 2.19727 3.71094 4.73633 3.71094 2.58789 0 4.24805-1.5625 4.24805-4.00391 0-0.830078-0.146484-1.61133-0.537109-2.63672l-22.9004-60.9863c-1.12305-2.97852-3.125-4.49219-6.25-4.49219-3.02734 0-5.07812 1.46484-6.15234 4.44336l-22.9004 61.084c-0.390625 1.02539-0.537109 1.80664-0.537109 2.63672 0 2.44141 1.5625 3.95508 4.10156 3.95508Zm13.4766-28.3691 11.8652-32.8613h0.244141l11.8652 32.8613Z"/>
  </g>
  <line style="fill:none;stroke:#00AEEF;stroke-width:0.5;opacity:1.0;" x1="792.836" x2="792.836" y1="1919" y2="1933"/>
  <text style="stroke:none;fill:black;font-family:sans-serif;font-size:13;font-weight:bold;" transform="matrix(1 0 0 1 776 1953)">Margins</text>
  <text style="stroke:none;fill:black;font-family:sans-serif;font-size:13;" transform="matrix(1 0 0 1 776 1971)">Leading and trailing margins on the left and right side of each symbol</text>
  <text style="stroke:none;fill:black;font-family:sans-serif;font-size:13;" transform="matrix(1 0 0 1 776 1989)">can be adjusted by modifying the x-location of the margin guidelines.</text>
  <text style="stroke:none;fill:black;font-family:sans-serif;font-size:13;" transform="matrix(1 0 0 1 776 2007)">Modifications are automatically applied proportionally to all</text>
  <text style="stroke:none;fill:black;font-family:sans-serif;font-size:13;" transform="matrix(1 0 0 1 776 2025)">scales and weights.</text>
  <g transform="matrix(0.2 0 0 0.2 1289 1933)">
   <path d="m14.209 9.32617 8.49609 8.54492c4.29688 4.3457 9.22852 4.05273 13.8672-1.07422l53.4668-58.9355-4.83398-4.88281-53.0762 58.3984c-1.75781 2.00195-3.41797 2.49023-5.76172 0.146484l-5.85938-5.81055c-2.34375-2.29492-1.80664-4.00391 0.195312-5.81055l57.373-54.0039-4.88281-4.83398-57.959 54.4434c-4.93164 4.58984-5.32227 9.47266-1.02539 13.8184Zm32.0801-90.9668c-2.09961 2.05078-2.24609 4.93164-1.07422 6.88477 1.17188 1.80664 3.4668 2.97852 6.68945 2.14844 7.32422-1.70898 14.9414-2.00195 22.0703 2.68555l-2.92969 7.27539c-1.70898 4.15039-0.830078 7.08008 1.85547 9.81445l11.4746 11.5723c2.44141 2.44141 4.49219 2.53906 7.32422 2.05078l5.32227-0.976562 3.32031 3.36914-0.195312 2.7832c-0.195312 2.49023 0.439453 4.39453 2.88086 6.78711l3.80859 3.71094c2.39258 2.39258 5.46875 2.53906 7.8125 0.195312l14.5508-14.5996c2.34375-2.34375 2.24609-5.32227-0.146484-7.71484l-3.85742-3.80859c-2.39258-2.39258-4.24805-3.17383-6.64062-2.97852l-2.88086 0.244141-3.22266-3.17383 1.2207-5.61523c0.634766-2.83203-0.146484-5.0293-3.07617-7.95898l-10.9863-10.9375c-16.6992-16.6016-38.8672-16.2109-53.3203-1.75781Zm7.4707 1.85547c12.1582-8.88672 28.6133-7.37305 39.7461 3.75977l12.1582 12.0605c1.17188 1.17188 1.36719 2.09961 1.02539 3.80859l-1.61133 7.42188 7.51953 7.42188 4.93164-0.292969c1.26953-0.0488281 1.66016 0.0488281 2.63672 1.02539l2.88086 2.88086-12.207 12.207-2.88086-2.88086c-0.976562-0.976562-1.12305-1.36719-1.07422-2.68555l0.341797-4.88281-7.4707-7.42188-7.61719 1.26953c-1.61133 0.341797-2.34375 0.195312-3.56445-0.976562l-10.0098-10.0098c-1.26953-1.17188-1.41602-2.00195-0.634766-3.85742l4.39453-10.4492c-7.8125-7.27539-17.9688-10.4004-28.125-7.42188-0.78125 0.195312-1.07422-0.439453-0.439453-0.976562Z"/>
  </g>
  <text style="stroke:none;fill:black;font-family:sans-serif;font-size:13;font-weight:bold;" transform="matrix(1 0 0 1 1289 1953)">Exporting</text>
  <text style="stroke:none;fill:black;font-family:sans-serif;font-size:13;" transform="matrix(1 0 0 1 1289 1971)">Symbols should be outlined when exporting to ensure the</text>
  <text style="stroke:none;fill:black;font-family:sans-serif;font-size:13;" transform="matrix(1 0 0 1 1289 1989)">design is preserved when submitting to Xcode.</text>
  <text id="template-version" style="stroke:none;fill:black;font-family:sans-serif;font-size:13;text-anchor:end;" transform="matrix(1 0 0 1 3036 1933)">Template v.2.0</text>
  <text style="stroke:none;fill:black;font-family:sans-serif;font-size:13;text-anchor:end;" transform="matrix(1 0 0 1 3036 1951)">Requires Xcode 12 or greater</text>
  <text id="descriptive-name" style="stroke:none;fill:black;font-family:sans-serif;font-size:13;text-anchor:end;" transform="matrix(1 0 0 1 3036 1969)">Generated from arrow.down.backward.and.arrow.up.forward</text>
  <text style="stroke:none;fill:black;font-family:sans-serif;font-size:13;text-anchor:end;" transform="matrix(1 0 0 1 3036 1987)">Typeset at 100.0 points</text>
  <text style="stroke:none;fill:black;font-family:sans-serif;font-size:13;" transform="matrix(1 0 0 1 263 726)">Small</text>
  <text style="stroke:none;fill:black;font-family:sans-serif;font-size:13;" transform="matrix(1 0 0 1 263 1156)">Medium</text>
  <text style="stroke:none;fill:black;font-family:sans-serif;font-size:13;" transform="matrix(1 0 0 1 263 1586)">Large</text>
 </g>
 <g id="Guides">
  <g id="H-reference" style="fill:#27AAE1;stroke:none;" transform="matrix(1 0 0 1 339 696)">
   <path d="M0.993654 0L3.63775 0L29.3281-67.1323L30.0303-67.1323L30.0303-70.459L28.1226-70.459ZM11.6885-24.4799L46.9815-24.4799L46.2315-26.7285L12.4385-26.7285ZM55.1196 0L57.7637 0L30.6382-70.459L29.4326-70.459L29.4326-67.1323Z"/>
  </g>
  <line id="Baseline-S" style="fill:none;stroke:#27AAE1;opacity:1;stroke-width:0.5;" x1="263" x2="3036" y1="696" y2="696"/>
  <line id="Capline-S" style="fill:none;stroke:#27AAE1;opacity:1;stroke-width:0.5;" x1="263" x2="3036" y1="625.541" y2="625.541"/>
  <g id="H-reference" style="fill:#27AAE1;stroke:none;" transform="matrix(1 0 0 1 339 1126)">
   <path d="M0.993654 0L3.63775 0L29.3281-67.1323L30.0303-67.1323L30.0303-70.459L28.1226-70.459ZM11.6885-24.4799L46.9815-24.4799L46.2315-26.7285L12.4385-26.7285ZM55.1196 0L57.7637 0L30.6382-70.459L29.4326-70.459L29.4326-67.1323Z"/>
  </g>
  <line id="Baseline-M" style="fill:none;stroke:#27AAE1;opacity:1;stroke-width:0.5;" x1="263" x2="3036" y1="1126" y2="1126"/>
  <line id="Capline-M" style="fill:none;stroke:#27AAE1;opacity:1;stroke-width:0.5;" x1="263" x2="3036" y1="1055.54" y2="1055.54"/>
  <g id="H-reference" style="fill:#27AAE1;stroke:none;" transform="matrix(1 0 0 1 339 1556)">
   <path d="M0.993654 0L3.63775 0L29.3281-67.1323L30.0303-67.1323L30.0303-70.459L28.1226-70.459ZM11.6885-24.4799L46.9815-24.4799L46.2315-26.7285L12.4385-26.7285ZM55.1196 0L57.7637 0L30.6382-70.459L29.4326-70.459L29.4326-67.1323Z"/>
  </g>
  <line id="Baseline-L" style="fill:none;stroke:#27AAE1;opacity:1;stroke-width:0.5;" x1="263" x2="3036" y1="1556" y2="1556"/>
  <line id="Capline-L" style="fill:none;stroke:#27AAE1;opacity:1;stroke-width:0.5;" x1="263" x2="3036" y1="1485.54" y2="1485.54"/>
  <line id="left-margin" style="fill:none;stroke:#00AEEF;stroke-width:0.5;opacity:1.0;" x1="1390.88" x2="1390.88" y1="1030.79" y2="1150.12"/>
  <line id="right-margin" style="fill:none;stroke:#00AEEF;stroke-width:0.5;opacity:1.0;" x1="1508.81" x2="1508.81" y1="1030.79" y2="1150.12"/>
 </g>
 <g id="Symbols">
  <g id="Black-L" transform="matrix(1 0 0 1 2854.6 1556)">
   <path d="M130.897-39.2236C136.934-39.2236 141.525-43.4298 141.525-49.4443L141.525-82.2577C141.525-92.1401 135.791-97.8742 125.907-97.8742L91.3429-97.8742C85.3064-97.8742 81.0794-93.3408 81.0794-87.2459C81.0794-81.2093 85.3087-76.6372 91.3429-76.6372L94.4158-76.6372L107.179-78.1312L98.3756-69.9514L84.3077-55.9407C82.3344-53.9686 81.0934-51.5189 81.0934-48.7366C81.0934-42.2276 85.5152-37.5398 92.023-37.5398C94.8817-37.5398 97.6015-38.5848 99.6123-40.6165L113.559-54.6652L121.8-63.4488L120.289-50.9987L120.289-49.4443C120.289-43.4078 124.881-39.2236 130.897-39.2236ZM66.2661 27.628C72.3026 27.628 76.5296 23.0947 76.5296 16.9997C76.5284 10.9632 72.3002 6.39099 66.2661 6.39099L63.214 6.39099L50.4302 7.88499L59.2334-0.294769L73.3013-14.3043C75.2954-16.2775 76.5144-18.7273 76.5144-21.5096C76.5144-28.0186 72.0938-32.7064 65.586-32.7064C62.7273-32.7064 60.0283-31.6614 57.9967-29.6297L44.0712-15.581L35.8294-6.79736L37.3198-19.2475L37.3198-20.8019C37.3198-26.8384 32.7489-31.0226 26.7123-31.0226C20.6746-31.0226 16.084-26.8164 16.084-20.8019L16.084 12.0115C16.084 21.8939 21.8182 27.628 31.7017 27.628Z"/>
  </g>
  <g id="Heavy-L" transform="matrix(1 0 0 1 2558.56 1556)">
   <path d="M130.784-40.5002C136.143-40.5002 140.178-44.2701 140.178-49.588L140.178-83.0835C140.178-92.0414 134.975-97.245 126.011-97.245L91.1827-97.245C85.8289-97.245 82.0289-93.2488 82.0289-87.8504C82.0289-82.4966 85.8402-78.4804 91.1827-78.4804L95.1281-78.4804L110.029-79.9164L99.037-69.5962L83.6273-54.2256C81.8725-52.4763 80.7864-50.2671 80.7864-47.7799C80.7864-42.0176 84.7449-37.9177 90.5016-37.9177C93.0232-37.9177 95.4198-38.8398 97.1891-40.6392L112.487-56.0534L122.869-67.0204L121.419-52.3733L121.419-49.588C121.419-44.2343 125.46-40.5002 130.784-40.5002ZM65.0796 26.9343C70.4334 26.9343 74.2334 22.9381 74.2334 17.5397C74.2278 12.186 70.4221 8.16969 65.0796 8.16969L61.1644 8.16969L46.2338 9.60574L57.2253-0.714449L72.635-16.0795C74.42-17.8343 75.4703-20.0436 75.4703-22.5308C75.4703-28.2931 71.5174-32.393 65.7607-32.393C63.2391-32.393 60.8727-31.4709 59.0732-29.6715L43.8054-14.2573L33.4238-3.29028L34.843-17.9374L34.843-20.7227C34.843-26.0764 30.8323-29.8105 25.4786-29.8105C20.1192-29.8105 16.084-26.0406 16.084-20.7227L16.084 12.7729C16.084 21.7308 21.2875 26.9343 30.251 26.9343Z"/>
  </g>
  <g id="Bold-L" transform="matrix(1 0 0 1 2262.67 1556)">
   <path d="M130.698-42.0085C135.204-42.0085 138.541-45.2181 138.541-49.6605L138.541-84.2322C138.541-91.9632 134.035-96.4688 126.291-96.4688L90.8563-96.4688C86.3627-96.4688 83.1151-93.1484 83.1151-88.6256C83.1151-84.132 86.3891-80.8072 90.8563-80.8072L96.4067-80.8072L113.615-82.1517L99.9187-69.1507L82.8716-52.1196C81.3932-50.6544 80.4992-48.7597 80.4992-46.6561C80.4992-41.8309 83.8591-38.461 88.6711-38.461C90.7703-38.461 92.7599-39.2294 94.2295-40.737L111.165-57.8044L124.235-71.4761L122.892-54.4516L122.892-49.6605C122.892-45.1669 126.242-42.0085 130.698-42.0085ZM63.7684 26.0886C68.262 26.0886 71.5096 22.7683 71.5096 18.2455C71.4963 13.7519 68.2355 10.4271 63.7684 10.4271L58.256 10.4271L41.0095 11.7715L54.706-1.22943L71.7531-18.2473C73.2695-19.7257 74.1122-21.6205 74.1122-23.724C74.1122-28.5492 70.7655-31.9192 65.9536-31.9192C63.8544-31.9192 61.9028-31.1508 60.3952-29.6432L43.4974-12.5758L30.4275 1.09594L31.7323-15.9285L31.7323-20.7197C31.7323-25.2133 28.4207-28.3717 23.9271-28.3717C19.4203-28.3717 16.084-25.1621 16.084-20.7197L16.084 13.8521C16.084 21.5831 20.5895 26.0886 28.3338 26.0886Z"/>
  </g>
  <g id="Semibold-L" transform="matrix(1 0 0 1 1966.52 1556)">
   <path d="M130.638-43.0483C134.557-43.0483 137.412-45.8716 137.412-49.7104L137.412-85.0241C137.412-91.9093 133.387-95.9337 126.484-95.9337L90.6312-95.9337C86.7306-95.9337 83.8639-93.0793 83.8639-89.1601C83.8639-85.2595 86.7676-82.4114 90.6312-82.4114L97.2881-82.4114L116.088-83.6927L100.527-68.8436L82.3506-50.6677C81.0628-49.3984 80.3012-47.7205 80.3012-45.8814C80.3012-41.7022 83.2485-38.8354 87.4092-38.8354C89.2171-38.8354 90.9261-39.4979 92.1891-40.8043L110.254-59.0115L125.177-74.5478L123.908-55.8844L123.908-49.7104C123.908-45.8098 126.781-43.0483 130.638-43.0483ZM62.8645 25.5056C66.7651 25.5056 69.6318 22.6512 69.6318 18.732C69.6133 14.8314 66.7281 11.9833 62.8645 11.9833L56.2509 11.9833L37.4079 13.2646L52.9691-1.58445L71.1451-19.7418C72.4763-21.0297 73.176-22.7076 73.176-24.5466C73.176-28.7258 70.2472-31.5926 66.0865-31.5926C64.2786-31.5926 62.613-30.9301 61.3066-29.6237L43.2851-11.4166L28.3619 4.11978L29.5878-14.5436L29.5878-20.7177C29.5878-24.6183 26.7582-27.3797 22.8576-27.3797C18.9385-27.3797 16.084-24.5564 16.084-20.7177L16.084 14.5961C16.084 21.4813 20.1084 25.5056 27.012 25.5056Z"/>
  </g>
  <g id="Medium-L" transform="matrix(1 0 0 1 1670.24 1556)">
   <path d="M130.593-43.8368C134.066-43.8368 136.556-46.3672 136.556-49.7483L136.556-85.6246C136.556-91.8684 132.896-95.528 126.63-95.528L90.4606-95.528C87.0096-95.528 84.4317-93.0268 84.4317-89.5653C84.4317-86.1144 87.0545-83.6277 90.4606-83.6277L97.9565-83.6277L117.963-84.8611L100.987-68.6107L81.9555-49.5669C80.8122-48.446 80.1511-46.9325 80.1511-45.294C80.1511-41.6046 82.7855-39.1194 86.4524-39.1194C88.0395-39.1194 89.5357-39.7016 90.642-40.8554L109.563-59.9268L125.891-76.877L124.678-56.9708L124.678-49.7483C124.678-46.2973 127.19-43.8368 130.593-43.8368ZM62.1791 25.0636C65.6301 25.0636 68.2079 22.5625 68.2079 19.101C68.1855 15.65 65.5851 13.1633 62.1791 13.1633L54.7306 13.1633L34.677 14.3968L51.6522-1.85364L70.6841-20.875C71.8749-22.0183 72.4661-23.5319 72.4661-25.1704C72.4661-28.8597 69.8542-31.345 66.1873-31.345C64.6002-31.345 63.1514-30.7628 61.9976-29.609L43.124-10.5376L26.7957 6.41258L27.9618-13.4935L27.9618-20.7161C27.9618-24.1671 25.4976-26.6276 22.0466-26.6276C18.5732-26.6276 16.084-24.0972 16.084-20.7161L16.084 15.1602C16.084 21.4041 19.7435 25.0636 26.0099 25.0636Z"/>
  </g>
  <g id="Regular-L" transform="matrix(1 0 0 1 1374.08 1556)">
   <path d="M130.534-44.8652C133.426-44.8652 135.439-47.0136 135.439-49.7977L135.439-86.4078C135.439-91.8151 132.255-94.9988 126.82-94.9988L90.238-94.9988C87.3735-94.9988 85.1723-92.9584 85.1723-90.0939C85.1723-87.2294 87.4288-85.2142 90.238-85.2142L98.8282-85.2142L120.408-86.3852L101.589-68.307L81.4403-48.131C80.4854-47.2038 79.9553-45.9047 79.9553-44.5278C79.9553-41.4773 82.1815-39.4898 85.2043-39.4898C86.5034-39.4898 87.722-39.9672 88.6241-40.922L108.662-61.1206L126.823-79.9149L125.682-58.3879L125.682-49.7977C125.682-46.9331 127.723-44.8652 130.534-44.8652ZM61.2851 24.487C64.1496 24.487 66.3507 22.4467 66.3507 19.5822C66.3231 16.7177 64.0943 14.7025 61.2851 14.7025L52.7476 14.7025L31.115 15.8735L49.9345-2.20476L70.0828-22.3531C71.0904-23.3079 71.5402-24.607 71.5402-25.9839C71.5402-29.0344 69.3416-31.022 66.3188-31.022C65.0197-31.022 63.8538-30.5445 62.899-29.5897L42.914-9.39116L24.7529 9.40318L25.8409-12.1239L25.8409-20.7141C25.8409-23.5786 23.8533-25.6466 20.9888-25.6466C18.0966-25.6466 16.084-23.4982 16.084-20.7141L16.084 15.896C16.084 21.3034 19.2676 24.487 24.7026 24.487Z"/>
  </g>
  <g id="Light-L" transform="matrix(1 0 0 1 1077.84 1556)">
   <path d="M130.821-45.4377C133.045-45.4377 134.504-47.0708 134.504-49.1678L134.504-88.0109C134.504-92.0441 132.065-94.4835 127.985-94.4835L89.1883-94.4835C87.0109-94.4835 85.3441-92.9775 85.3441-90.8001C85.3441-88.6226 87.1044-87.1036 89.1883-87.1036L102.264-87.1036L123.252-88.0838L102.6-67.9635L81.4784-46.795C80.7526-46.116 80.356-45.1413 80.356-44.1461C80.356-41.8209 82.0097-40.3486 84.2882-40.3486C85.2628-40.3486 86.1571-40.7115 86.8492-41.4373L107.784-62.5329L128.044-83.1976L127.171-62.2431L127.171-49.1678C127.171-46.9904 128.677-45.4377 130.821-45.4377ZM61.3996 23.9908C63.577 23.9908 65.2438 22.4849 65.2438 20.3074C65.1971 18.13 63.4836 16.611 61.3996 16.611L48.358 16.611L27.3362 17.5911L47.9878-2.52921L69.1095-23.6509C69.869-24.3767 70.1851-25.3513 70.1851-26.3466C70.1851-28.6718 68.5782-30.144 66.2997-30.144C65.3251-30.144 64.4645-29.7811 63.7387-29.0553L42.8377-7.95976L22.5771 12.7049L23.417-8.24954L23.417-21.3248C23.417-23.5023 21.9448-25.0549 19.7674-25.0549C17.5432-25.0549 16.084-23.4218 16.084-21.3248L16.084 17.5183C16.084 21.5515 18.5233 23.9908 22.6033 23.9908Z"/>
  </g>
  <g id="Thin-L" transform="matrix(1 0 0 1 781.747 1556)">
   <path d="M131.199-46.195C132.54-46.195 133.267-47.1465 133.267-48.3349L133.267-90.1312C133.267-92.347 131.812-93.8019 129.524-93.8019L87.8-93.8019C86.5313-93.8019 85.5713-93.0028 85.5713-91.734C85.5713-90.4653 86.6753-89.6026 87.8-89.6026L106.807-89.6026L127.013-90.3303L103.938-67.5091L81.5289-45.0281C81.106-44.6772 80.8861-44.1317 80.8861-43.6413C80.8861-42.2752 81.7826-41.4845 83.0766-41.4845C83.6221-41.4845 84.0872-41.696 84.5017-42.1189L106.623-64.4008L129.66-87.5392L129.14-67.342L129.14-48.3349C129.14-47.0661 129.939-46.195 131.199-46.195ZM61.551 23.3345C62.8198 23.3345 63.7798 22.5353 63.7798 21.2666C63.7078 19.9979 62.6758 19.1352 61.551 19.1352L42.5524 19.1352L22.3383 19.8629L45.4131-2.95832L67.8221-25.3673C68.2535-25.7902 68.393-26.3358 68.393-26.8262C68.393-28.1922 67.5685-28.9829 66.2745-28.9829C65.7289-28.9829 65.2723-28.7715 64.8494-28.3485L42.7367-6.06662L19.6996 17.0718L20.2113-3.12545L20.2113-22.1326C20.2113-23.4013 19.4206-24.2724 18.1519-24.2724C16.8112-24.2724 16.084-23.3209 16.084-22.1326L16.084 19.6638C16.084 21.8796 17.5389 23.3345 19.8267 23.3345Z"/>
  </g>
  <g id="Ultralight-L" transform="matrix(1 0 0 1 485.352 1556)">
   <path d="M131.393-46.5828C132.281-46.5828 132.634-47.1853 132.634-47.9082L132.634-91.2172C132.634-92.5022 131.683-93.4528 130.313-93.4528L87.0889-93.4528C86.2856-93.4528 85.6877-93.0157 85.6877-92.2124C85.6877-91.4091 86.4555-90.8825 87.0889-90.8825L109.134-90.8825L128.939-91.481L104.623-67.2764L81.5548-44.1231C81.287-43.9402 81.1576-43.6145 81.1576-43.3827C81.1576-42.5079 81.6662-42.0663 82.456-42.0663C82.7818-42.0663 83.0271-42.2002 83.2993-42.468L106.028-65.3575L130.487-89.7629L130.148-69.9536L130.148-47.9082C130.148-47.1049 130.585-46.5828 131.393-46.5828ZM61.6286 22.9984C62.4319 22.9984 63.0299 22.5612 63.0299 21.7579C62.945 20.9546 62.2621 20.428 61.6286 20.428L39.5788 20.428L19.7784 21.0265L44.0944-3.17811L67.1628-26.2465C67.426-26.5143 67.475-26.84 67.475-27.0718C67.475-27.9466 67.0514-28.3882 66.2615-28.3882C65.9358-28.3882 65.686-28.2543 65.4182-27.9865L42.685-5.09697L18.2257 19.3084L18.5694-0.500921L18.5694-22.5463C18.5694-23.3496 18.1277-23.8716 17.3244-23.8716C16.4362-23.8716 16.084-23.2692 16.084-22.5463L16.084 20.7628C16.084 22.0477 17.0347 22.9984 18.4045 22.9984Z"/>
  </g>
  <g id="Black-M" transform="matrix(1 0 0 1 2871.83 1126)">
   <path d="M101.547-37.3044C106.717-37.3044 110.676-40.8682 110.676-46.0335L110.676-71.1716C110.676-79.4363 105.878-84.234 97.614-84.234L70.7626-84.234C65.5922-84.234 62.0228-80.3325 62.0228-75.1049C62.0228-69.9344 65.5916-65.9816 70.7626-65.9816L73.0012-65.9816L80.9721-67.1631L75.7843-62.3887L65.9066-52.5683C64.2212-50.8826 63.1446-48.822 63.1446-46.4645C63.1446-40.8782 66.891-36.8109 72.4776-36.8109C74.9379-36.8109 77.2789-37.7107 79.0159-39.4533L88.7806-49.2855L93.6112-54.4674L92.4234-46.7875L92.4234-46.0335C92.4234-40.863 96.382-37.3044 101.547-37.3044ZM52.3743 13.9979C57.5448 13.9979 61.1141 10.0964 61.1141 4.86883C61.1144-0.301643 57.5454-4.25445 52.3743-4.25445L50.1413-4.25445L42.1649-3.07303L47.3526-7.84737L57.2304-17.668C58.9213-19.3535 59.9927-21.4141 59.9927-23.7715C59.9927-29.3579 56.246-33.4252 50.6594-33.4252C48.1991-33.4252 45.8636-32.5254 44.1211-30.7828L34.3619-20.9506L29.5313-15.7687L30.7136-23.4486L30.7136-24.2026C30.7136-29.3731 26.7605-32.9317 21.59-32.9317C16.4198-32.9317 12.4609-29.3679 12.4609-24.2026L12.4609 0.935543C12.4609 9.20019 17.2586 13.9979 25.523 13.9979Z"/>
  </g>
  <g id="Heavy-M" transform="matrix(1 0 0 1 2575.74 1126)">
   <path d="M101.41-38.4995C105.979-38.4995 109.446-41.6843 109.446-46.2321L109.446-71.8311C109.446-79.3187 105.098-83.6664 97.6083-83.6664L70.7029-83.6664C66.1365-83.6664 62.9352-80.2407 62.9352-75.6307C62.9352-71.0643 66.141-67.6092 70.7029-67.6092L73.3806-67.6092L83.4955-68.7516L76.3376-62.0732L65.238-51.0149C63.7449-49.5242 62.8075-47.6687 62.8075-45.5645C62.8075-40.6413 66.1538-37.1012 71.0748-37.1012C73.2356-37.1012 75.2905-37.8913 76.8108-39.428L87.8141-50.5122L94.5429-57.6561L93.3909-47.7756L93.3909-46.2321C93.3909-41.6657 96.8602-38.4995 101.41-38.4995ZM51.2039 13.3655C55.7703 13.3655 58.9716 9.93982 58.9716 5.32981C58.9693 0.763422 55.7657-2.69171 51.2039-2.69171L48.5426-2.69171L38.4112-1.54934L45.5692-8.2277L56.6688-19.2837C58.1783-20.7767 59.097-22.6322 59.097-24.7364C59.097-29.6596 55.753-33.1997 50.832-33.1997C48.6712-33.1997 46.6326-32.4096 45.096-30.8729L34.1091-19.7887L27.3803-12.6449L28.5158-22.5253L28.5158-24.0689C28.5158-28.6352 25.063-31.8014 20.4966-31.8014C15.9279-31.8014 12.4609-28.6166 12.4609-24.0689L12.4609 1.53017C12.4609 9.01784 16.8086 13.3655 24.2985 13.3655Z"/>
  </g>
  <g id="Bold-M" transform="matrix(1 0 0 1 2279.71 1126)">
   <path d="M101.257-39.8364C105.153-39.8364 108.07-42.5973 108.07-46.4542L108.07-72.5688C108.07-79.1873 104.225-83.0314 97.6018-83.0314L70.636-83.0314C66.7454-83.0314 63.9558-80.1381 63.9558-76.2189C63.9558-72.3283 66.7556-69.4298 70.636-69.4298L73.805-69.4298L86.3184-70.5285L76.9564-61.7203L64.49-49.2772C63.2122-48.0045 62.4304-46.3785 62.4304-44.5577C62.4304-40.3762 65.3292-37.4258 69.5055-37.4258C71.3313-37.4258 73.0663-38.0933 74.3441-39.3997L86.7329-51.8845L95.5851-61.223L94.4732-48.8809L94.4732-46.4542C94.4732-42.5636 97.3951-39.8364 101.257-39.8364ZM49.8946 12.658C53.7852 12.658 56.5748 9.76466 56.5748 5.84548C56.5697 1.95485 53.775-0.943567 49.8946-0.943567L46.7542-0.943567L34.2122 0.155125L43.5742-8.65316L56.0406-21.091C57.347-22.3689 58.095-23.9949 58.095-25.8157C58.095-29.9972 55.2014-32.9476 51.0251-32.9476C49.1993-32.9476 47.4929-32.2801 46.1865-30.9737L33.8263-18.4889L24.9741-9.15043L26.0574-21.4925L26.0574-23.9192C26.0574-27.8098 23.1641-30.537 19.2735-30.537C15.3777-30.537 12.4609-27.7761 12.4609-23.9192L12.4609 2.19534C12.4609 8.81384 16.3051 12.658 22.9288 12.658Z"/>
  </g>
  <g id="Semibold-M" transform="matrix(1 0 0 1 1983.48 1126)">
   <path d="M101.152-40.758C104.583-40.758 107.121-43.2267 107.121-46.6074L107.121-73.0773C107.121-79.0966 103.624-82.5937 97.5974-82.5937L70.5899-82.5937C67.1651-82.5937 64.6594-80.0673 64.6594-76.6244C64.6594-73.1996 67.1793-70.685 70.5899-70.685L74.0976-70.685L88.2644-71.7536L77.3831-61.4769L63.9744-48.0793C62.8449-46.9569 62.1705-45.4891 62.1705-43.8636C62.1705-40.1935 64.7607-37.6496 68.4236-37.6496C70.0185-37.6496 71.5329-38.2325 72.6435-39.3802L85.9875-52.8306L96.3036-63.682L95.2193-49.643L95.2193-46.6074C95.2193-43.1826 97.7639-40.758 101.152-40.758ZM48.992 12.1703C52.4168 12.1703 54.9225 9.64391 54.9225 6.20098C54.9154 2.77621 52.4025 0.261592 48.992 0.261592L45.5214 0.261592L31.3174 1.33018L42.1988-8.94647L55.6075-22.337C56.774-23.4665 57.4043-24.9343 57.4043-26.5598C57.4043-30.2299 54.8212-32.7738 51.1582-32.7738C49.5633-32.7738 48.086-32.1909 46.9383-31.0432L33.6314-17.5928L23.3153-6.74139L24.3625-20.7804L24.3625-23.816C24.3625-27.2408 21.855-29.6654 18.4303-29.6654C14.9984-29.6654 12.4609-27.1967 12.4609-23.816L12.4609 2.65391C12.4609 8.67321 15.958 12.1703 21.9844 12.1703Z"/>
  </g>
  <g id="Medium-M" transform="matrix(1 0 0 1 1687.12 1126)">
   <path d="M101.072-41.4569C104.152-41.4569 106.402-43.704 106.402-46.7235L106.402-73.4629C106.402-79.0279 103.168-82.2618 97.5941-82.2618L70.5549-82.2618C67.4834-82.2618 65.1929-80.0136 65.1929-76.9318C65.1929-73.8603 67.5006-71.6367 70.5549-71.6367L74.3194-71.6367L89.74-72.6824L77.7066-61.2924L63.5834-47.1709C62.5664-46.1625 61.9734-44.8147 61.9734-43.3373C61.9734-40.0549 64.3296-37.8194 67.6033-37.8194C69.0231-37.8194 70.3703-38.3381 71.3541-39.3654L85.4223-53.5479L96.8484-65.5465L95.7851-50.2207L95.7851-46.7235C95.7851-43.652 98.0435-41.4569 101.072-41.4569ZM48.3076 11.8005C51.3791 11.8005 53.6697 9.55235 53.6697 6.47054C53.6611 3.39901 51.3619 1.17539 48.3076 1.17539L44.5865 1.17539L29.1225 2.22115L41.1559-9.16887L55.2791-23.2818C56.3395-24.2988 56.8805-25.6466 56.8805-27.124C56.8805-30.4064 54.5329-32.6419 51.2592-32.6419C49.8394-32.6419 48.5357-32.1232 47.5084-31.0959L33.4836-16.9134L22.0575-4.91476L23.0774-20.2406L23.0774-23.7378C23.0774-26.8093 20.8624-29.0044 17.7909-29.0044C14.7108-29.0044 12.4609-26.7573 12.4609-23.7378L12.4609 3.00161C12.4609 8.56658 15.6949 11.8005 21.2684 11.8005Z"/>
  </g>
  <g id="Regular-M" transform="matrix(1 0 0 1 1390.88 1126)">
   <path d="M100.967-42.3684C103.589-42.3684 105.463-44.3265 105.463-46.875L105.463-73.9659C105.463-78.9382 102.573-81.8289 97.5897-81.8289L70.5093-81.8289C67.8986-81.8289 65.8887-79.9437 65.8887-77.3329C65.8887-74.7221 67.9197-72.878 70.5093-72.878L74.6088-72.878L91.6647-73.894L78.1285-61.0518L63.0734-45.9861C62.2032-45.1264 61.7163-43.9351 61.7163-42.6508C61.7163-39.8742 63.7673-38.0407 66.5334-38.0407C67.7247-38.0407 68.8538-38.4758 69.6723-39.3461L84.6852-54.4836L97.5591-67.9785L96.523-50.9744L96.523-46.875C96.523-44.2642 98.4082-42.3684 100.967-42.3684ZM47.4149 11.3182C50.0257 11.3182 52.0355 9.43292 52.0355 6.82213C52.0249 4.21134 50.0046 2.36731 47.4149 2.36731L43.3672 2.36731L26.2595 3.38328L39.7957-9.45896L54.8508-24.5141C55.7728-25.3843 56.1974-26.5757 56.1974-27.8599C56.1974-30.6365 54.1569-32.47 51.3908-32.47C50.1995-32.47 49.1222-32.0349 48.2519-31.1646L33.2908-16.0271L20.4169-2.53219L21.4012-19.5364L21.4012-23.6358C21.4012-26.2466 19.5677-28.1424 16.957-28.1424C14.3356-28.1424 12.4609-26.1843 12.4609-23.6358L12.4609 3.45514C12.4609 8.4275 15.3516 11.3182 20.3345 11.3182Z"/>
  </g>
  <g id="Light-M" transform="matrix(1 0 0 1 1094.59 1126)">
   <path d="M101.224-42.8817C103.246-42.8817 104.625-44.3778 104.625-46.3103L104.625-75.4032C104.625-79.1436 102.402-81.3669 98.6335-81.3669L69.5682-81.3669C67.5734-81.3669 66.0427-79.9608 66.0427-77.966C66.0427-75.9712 67.6288-74.572 69.5682-74.572L77.6887-74.572L94.2142-75.4169L79.0354-60.7438L63.1077-44.7884C62.4427-44.1511 62.0756-43.2506 62.0756-42.3086C62.0756-40.1822 63.6133-38.8107 65.7121-38.8107C66.6125-38.8107 67.4507-39.1432 68.081-39.8081L83.8981-55.7498L98.6542-70.9216L97.8576-54.4308L97.8576-46.3103C97.8576-44.3155 99.2638-42.8817 101.224-42.8817ZM47.5175 10.8733C49.5123 10.8733 51.0431 9.46714 51.0431 7.47235C51.0154 5.47755 49.457 4.0784 47.5175 4.0784L39.4317 4.0784L22.8716 4.92327L38.0504-9.74984L53.9781-25.6776C54.6777-26.3425 54.9825-27.243 54.9825-28.1851C54.9825-30.3114 53.4724-31.6829 51.3737-31.6829C50.4733-31.6829 49.6698-31.3505 49.0048-30.6855L33.2224-14.7438L18.4663 0.428002L19.2281-16.0628L19.2281-24.1833C19.2281-26.1781 17.8567-27.6119 15.8619-27.6119C13.8394-27.6119 12.4609-26.1158 12.4609-24.1833L12.4609 4.90957C12.4609 8.64994 14.6843 10.8733 18.4523 10.8733Z"/>
  </g>
  <g id="Thin-M" transform="matrix(1 0 0 1 798.434 1126)">
   <path d="M101.563-43.5606C102.794-43.5606 103.516-44.4457 103.516-45.5635L103.516-77.3042C103.516-79.4151 102.175-80.7559 100.014-80.7559L68.3236-80.7559C67.1435-80.7559 66.2464-79.9834 66.2464-78.8033C66.2464-77.6232 67.244-76.8125 68.3236-76.8125L81.7622-76.8125L97.5862-77.431L80.2348-60.3364L63.1529-43.2042C62.7596-42.8612 62.5509-42.3454 62.5509-41.856C62.5509-40.5895 63.4097-39.8291 64.6258-39.8291C65.1415-39.8291 65.595-40.0258 65.9763-40.4191L82.857-57.4245L100.103-74.8141L99.6228-59.0022L99.6228-45.5635C99.6228-44.3834 100.395-43.5606 101.563-43.5606ZM47.6533 10.2849C48.8334 10.2849 49.7305 9.5124 49.7305 8.33231C49.6802 7.15222 48.7328 6.34146 47.6533 6.34146L34.2267 6.34146L18.3907 6.96002L35.742-10.1346L52.8239-27.2165C53.2293-27.6098 53.3757-28.1256 53.3757-28.615C53.3757-29.8815 52.5672-30.6419 51.3511-30.6419C50.8353-30.6419 50.3939-30.4452 50.0006-30.0519L33.1318-13.0465L15.8864 4.3431L16.3541-11.4688L16.3541-24.9075C16.3541-26.0876 15.5936-26.9104 14.4135-26.9104C13.1831-26.9104 12.4609-26.0253 12.4609-24.9075L12.4609 6.83317C12.4609 8.94414 13.8017 10.2849 15.9629 10.2849Z"/>
  </g>
  <g id="Ultralight-M" transform="matrix(1 0 0 1 502.007 1126)">
   <path d="M101.737-43.9084C102.562-43.9084 102.948-44.4805 102.948-45.181L102.948-78.2778C102.948-79.5542 102.059-80.4429 100.721-80.4429L67.686-80.4429C66.9232-80.4429 66.3507-79.995 66.3507-79.2322C66.3507-78.4694 67.047-77.96 67.686-77.96L83.8487-77.96L99.3133-78.4626L80.8492-60.1278L63.1761-42.3928C62.9218-42.2005 62.7943-41.8818 62.7943-41.6241C62.7943-40.7982 63.3054-40.3507 64.0694-40.3507C64.3881-40.3507 64.6445-40.4778 64.8983-40.7321L82.3239-58.2822L100.844-76.8078L100.527-61.3436L100.527-45.181C100.527-44.4182 100.975-43.9084 101.737-43.9084ZM47.7229 9.9835C48.4857 9.9835 49.0582 9.53558 49.0582 8.77278C48.9963 8.00997 48.3619 7.50059 47.7229 7.50059L31.5607 7.50059L16.0956 8.00324L34.5597-10.3316L52.2328-28.0047C52.4875-28.259 52.5527-28.5776 52.5527-28.8353C52.5527-29.6612 52.1036-30.1087 51.3395-30.1087C51.0208-30.1087 50.7649-29.9816 50.5106-29.7273L33.0855-12.1772L14.565 6.34839L14.882-9.1158L14.882-25.2784C14.882-26.0412 14.4345-26.551 13.6717-26.551C12.847-26.551 12.4609-25.9789 12.4609-25.2784L12.4609 7.81843C12.4609 9.09482 13.3496 9.9835 14.6879 9.9835Z"/>
  </g>
  <g id="Black-S" transform="matrix(1 0 0 1 2884.99 696)">
   <path d="M79.6387-36.5234C83.8379-36.5234 87.0605-39.4043 87.0605-43.6035L87.0605-63.2812C87.0605-69.9219 83.2031-73.7793 76.5625-73.7793L55.4199-73.7793C51.2207-73.7793 48.3398-70.6055 48.3398-66.3574C48.3398-62.1582 51.2207-58.9355 55.4199-58.9355L57.2754-58.9355L62.8418-59.8633L59.2773-56.5918L51.8555-49.2188C50.4883-47.8516 49.6094-46.1914 49.6094-44.2871C49.6094-39.7461 52.6367-36.4258 57.1777-36.4258C59.1797-36.4258 61.084-37.1582 62.5-38.5742L69.8242-45.9473L73.1445-49.5117L72.2168-44.1895L72.2168-43.6035C72.2168-39.4043 75.4395-36.5234 79.6387-36.5234ZM41.4062 3.51562C45.6055 3.51562 48.4863 0.341797 48.4863-3.90625C48.4863-8.10547 45.6055-11.3281 41.4062-11.3281L39.5508-11.3281L33.9844-10.4004L37.5488-13.6719L44.9707-21.0449C46.3379-22.4121 47.2168-24.0723 47.2168-25.9766C47.2168-30.5176 44.1895-33.8379 39.6484-33.8379C37.6465-33.8379 35.7422-33.1055 34.3262-31.6895L27.002-24.3164L23.6816-20.752L24.6094-26.0742L24.6094-26.6602C24.6094-30.8594 21.3867-33.7402 17.1875-33.7402C12.9883-33.7402 9.76562-30.8594 9.76562-26.6602L9.76562-6.98242C9.76562-0.341797 13.623 3.51562 20.2637 3.51562Z"/>
  </g>
  <g id="Heavy-S" transform="matrix(1 0 0 1 2588.75 696)">
   <path d="M79.4889-37.48C83.2501-37.48 86.1155-40.0958 86.1155-43.8455L86.1155-63.6616C86.1155-69.7951 82.5578-73.3529 76.4242-73.3529L55.4891-73.3529C51.7278-73.3529 49.1005-70.5248 49.1005-66.7262C49.1005-62.9649 51.7278-60.111 55.4891-60.111L57.2062-60.111L64.6742-61.0273L59.6346-56.3613L51.2792-48.0433C50.0504-46.8144 49.2752-45.2925 49.2752-43.5611C49.2752-39.5041 52.0259-36.5756 56.0829-36.5756C57.8659-36.5756 59.5628-37.2273 60.8174-38.4935L69.0982-46.8346L73.8014-51.8627L72.8737-44.5928L72.8737-43.8455C72.8737-40.0842 75.7391-37.48 79.4889-37.48ZM40.3921 3.0316C44.1534 3.0316 46.7807 0.203503 46.7807-3.59509C46.7807-7.35638 44.1534-10.2103 40.3921-10.2103L38.6864-10.2103L31.207-9.29404L36.2466-13.96L44.6019-22.278C45.8423-23.5069 46.606-25.0288 46.606-26.7602C46.606-30.8172 43.8552-33.7457 39.7983-33.7457C38.0153-33.7457 36.3299-33.0939 35.0637-31.8277L26.7945-23.4866L22.0913-18.4586L23.0075-25.7285L23.0075-26.4758C23.0075-30.2371 20.1536-32.8413 16.3923-32.8413C12.631-32.8413 9.76562-30.2255 9.76562-26.4758L9.76562-6.65974C9.76562-0.526188 13.3234 3.0316 19.457 3.0316Z"/>
  </g>
  <g id="Bold-S" transform="matrix(1 0 0 1 2292.57 696)">
   <path d="M79.3213-38.5498C82.5928-38.5498 85.0586-40.8691 85.0586-44.1162L85.0586-64.0869C85.0586-69.6533 81.8359-72.876 76.2695-72.876L55.5664-72.876C52.2949-72.876 49.9512-70.4346 49.9512-67.1387C49.9512-63.8672 52.2949-61.4258 55.5664-61.4258L57.1289-61.4258L66.7236-62.3291L60.0342-56.1035L50.6348-46.7285C49.5605-45.6543 48.9014-44.2871 48.9014-42.749C48.9014-39.2334 51.3428-36.7432 54.8584-36.7432C56.3965-36.7432 57.8613-37.3047 58.9355-38.4033L68.2861-47.8271L74.5361-54.4922L73.6084-45.0439L73.6084-44.1162C73.6084-40.8447 76.0742-38.5498 79.3213-38.5498ZM39.2578 2.49023C42.5293 2.49023 44.873 0.0488281 44.873-3.24707C44.873-6.51855 42.5293-8.95996 39.2578-8.95996L37.7197-8.95996L28.1006-8.05664L34.79-14.2822L44.1895-23.6572C45.2881-24.7314 45.9229-26.0986 45.9229-27.6367C45.9229-31.1523 43.4814-33.6426 39.9658-33.6426C38.4277-33.6426 36.9873-33.0811 35.8887-31.9824L26.5625-22.5586L20.3125-15.8936L21.2158-25.3418L21.2158-26.2695C21.2158-29.541 18.7744-31.8359 15.5029-31.8359C12.2314-31.8359 9.76562-29.5166 9.76562-26.2695L9.76562-6.29883C9.76562-0.732422 12.9883 2.49023 18.5547 2.49023Z"/>
  </g>
  <g id="Semibold-S" transform="matrix(1 0 0 1 1996.22 696)">
   <path d="M79.2058-39.2874C82.1396-39.2874 84.3299-41.4023 84.3299-44.3028L84.3299-64.3802C84.3299-69.5556 81.3383-72.5472 76.1629-72.5472L55.6197-72.5472C52.6859-72.5472 50.5377-70.3724 50.5377-67.423C50.5377-64.4893 52.6859-62.3322 55.6197-62.3322L57.0756-62.3322L68.1366-63.2267L60.3097-55.9258L50.1904-45.8221C49.2229-44.8545 48.6437-43.5939 48.6437-42.1892C48.6437-39.0468 50.8718-36.8587 54.0142-36.8587C55.3834-36.8587 56.6883-37.358 57.6381-38.3411L67.7263-48.5114L75.0427-56.3051L74.1149-45.355L74.1149-44.3028C74.1149-41.369 76.3053-39.2874 79.2058-39.2874ZM38.4758 2.11699C41.4096 2.11699 43.5578-0.0578125 43.5578-3.00713C43.5578-5.94092 41.4096-8.09795 38.4758-8.09795L37.0532-8.09795L25.9589-7.20352L33.7858-14.5044L43.9051-24.6081C44.906-25.5757 45.4519-26.8362 45.4519-28.241C45.4519-31.3834 43.2237-33.5715 40.0813-33.5715C38.7121-33.5715 37.4405-33.0722 36.4574-32.0891L26.4025-21.9187L19.0861-14.1251L19.9806-25.0752L19.9806-26.1273C19.9806-29.0611 17.8235-31.1428 14.8897-31.1428C11.956-31.1428 9.76562-29.0278 9.76562-26.1273L9.76562-6.05C9.76562-0.874609 12.7572 2.11699 17.9326 2.11699Z"/>
  </g>
  <g id="Medium-S" transform="matrix(1 0 0 1 1699.78 696)">
   <path d="M79.1182-39.8467C81.7959-39.8467 83.7773-41.8066 83.7773-44.4443L83.7773-64.6025C83.7773-69.4814 80.9609-72.2979 76.082-72.2979L55.6602-72.2979C52.9824-72.2979 50.9824-70.3252 50.9824-67.6387C50.9824-64.9609 52.9824-63.0195 55.6602-63.0195L57.0352-63.0195L69.208-63.9072L60.5186-55.791L49.8535-45.1348C48.9668-44.248 48.4482-43.0684 48.4482-41.7646C48.4482-38.9053 50.5146-36.9463 53.374-36.9463C54.6152-36.9463 55.7988-37.3984 56.6543-38.2939L67.3018-49.0303L75.4268-57.6797L74.499-45.5908L74.499-44.4443C74.499-41.7666 76.4805-39.8467 79.1182-39.8467ZM37.8828 1.83398C40.5605 1.83398 42.5605-0.138672 42.5605-2.8252C42.5605-5.50293 40.5605-7.44434 37.8828-7.44434L36.5479-7.44434L24.335-6.55664L33.0244-14.6729L43.6895-25.3291C44.6162-26.2158 45.0947-27.3955 45.0947-28.6992C45.0947-31.5586 43.0283-33.5176 40.1689-33.5176C38.9277-33.5176 37.7842-33.0654 36.8887-32.1699L26.2812-21.4336L18.1562-12.7842L19.0439-24.873L19.0439-26.0195C19.0439-28.6973 17.1025-30.6172 14.4248-30.6172C11.7471-30.6172 9.76562-28.6572 9.76562-26.0195L9.76562-5.86133C9.76562-0.982422 12.582 1.83398 17.4609 1.83398Z"/>
  </g>
  <g id="Regular-S" transform="matrix(1 0 0 1 1403.43 696)">
   <path d="M79.0039-40.5762C81.3477-40.5762 83.0566-42.334 83.0566-44.6289L83.0566-64.8926C83.0566-69.3848 80.4688-71.9727 75.9766-71.9727L55.7129-71.9727C53.3691-71.9727 51.5625-70.2637 51.5625-67.9199C51.5625-65.5762 53.3691-63.916 55.7129-63.916L56.9824-63.916L70.6055-64.7949L60.791-55.6152L49.4141-44.2383C48.6328-43.457 48.1934-42.3828 48.1934-41.2109C48.1934-38.7207 50.0488-37.0605 52.5391-37.0605C53.6133-37.0605 54.6387-37.4512 55.3711-38.2324L66.748-49.707L75.9277-59.4727L75-45.8984L75-44.6289C75-42.2852 76.709-40.5762 79.0039-40.5762ZM37.1094 1.46484C39.4531 1.46484 41.2598-0.244141 41.2598-2.58789C41.2598-4.93164 39.4531-6.5918 37.1094-6.5918L35.8887-6.5918L22.2168-5.71289L32.0312-14.8926L43.4082-26.2695C44.2383-27.0508 44.6289-28.125 44.6289-29.2969C44.6289-31.7871 42.7734-33.4473 40.2832-33.4473C39.209-33.4473 38.2324-33.0566 37.4512-32.2754L26.123-20.8008L16.9434-11.0352L17.8223-24.6094L17.8223-25.8789C17.8223-28.2227 16.1621-29.9316 13.8184-29.9316C11.4746-29.9316 9.76562-28.1738 9.76562-25.8789L9.76562-5.61523C9.76562-1.12305 12.3535 1.46484 16.8457 1.46484Z"/>
  </g>
  <g id="Light-S" transform="matrix(1 0 0 1 1107.09 696)">
   <path d="M79.231-41.0303C81.0449-41.0303 82.3149-42.3794 82.3149-44.1294L82.3149-66.1641C82.3149-69.5664 80.3174-71.564 76.8999-71.564L54.8804-71.564C53.0815-71.564 51.6987-70.2788 51.6987-68.48C51.6987-66.6811 53.1118-65.4145 54.8804-65.4145L59.707-65.4145L72.8608-66.1421L61.5933-55.3428L49.4443-43.1787C48.8447-42.5942 48.5112-41.7773 48.5112-40.9082C48.5112-38.9932 49.9126-37.7417 51.8125-37.7417C52.6294-37.7417 53.3975-38.0415 53.9634-38.6411L66.0518-50.8271L76.8965-62.0762L76.1807-48.956L76.1807-44.1294C76.1807-42.3306 77.4658-41.0303 79.231-41.0303ZM37.2002 1.07129C38.999 1.07129 40.3818-0.213867 40.3818-2.0127C40.3667-3.81153 38.9688-5.07814 37.2002-5.07814L32.4073-5.07814L19.2198-4.3506L30.4873-15.1499L42.6362-27.2988C43.2695-27.8984 43.5542-28.7153 43.5542-29.5845C43.5542-31.4995 42.168-32.751 40.2681-32.751C39.4512-32.751 38.7168-32.4512 38.1172-31.8516L26.0625-19.6655L15.2178-8.41652L15.8999-21.5366L15.8999-26.3633C15.8999-28.1621 14.6484-29.4624 12.8496-29.4624C11.0356-29.4624 9.76562-28.1133 9.76562-26.3633L9.76562-4.32862C9.76562-0.926271 11.7632 1.07129 15.1807 1.07129Z"/>
  </g>
  <g id="Thin-S" transform="matrix(1 0 0 1 810.872 696)">
   <path d="M79.5312-41.6309C80.6445-41.6309 81.334-42.4395 81.334-43.4688L81.334-67.8457C81.334-69.8066 80.1172-71.0234 78.1211-71.0234L53.7793-71.0234C52.7012-71.0234 51.8789-70.2988 51.8789-69.2207C51.8789-68.1426 52.7715-67.3965 53.7793-67.3965L63.3105-67.3965L75.8437-67.9238L62.6543-54.9824L49.4844-41.7774C49.125-41.4531 48.9316-40.9766 48.9316-40.5078C48.9316-39.3535 49.7324-38.6426 50.8516-38.6426C51.3281-38.6426 51.7559-38.8223 52.1016-39.1816L65.1309-52.3086L78.1777-65.5195L77.7422-52.9999L77.7422-43.4688C77.7422-42.3906 78.4668-41.6309 79.5312-41.6309ZM37.3203 0.550788C38.3984 0.550788 39.2207-0.173829 39.2207-1.25196C39.1856-2.3301 38.3281-3.0762 37.3203-3.0762L27.8028-3.0762L15.2559-2.54885L28.4453-15.4902L41.6152-28.6601C41.9883-29.0195 42.1328-29.4961 42.1328-29.9648C42.1328-31.1191 41.3672-31.8301 40.248-31.8301C39.7715-31.8301 39.3574-31.6504 38.998-31.291L25.9824-18.1641L12.9356-4.95317L13.3575-17.4727L13.3575-27.0039C13.3575-28.082 12.6465-28.8418 11.5684-28.8418C10.4551-28.8418 9.76562-28.0332 9.76562-27.0039L9.76562-2.62698C9.76562-0.666019 10.9824 0.550788 12.9785 0.550788Z"/>
  </g>
  <g id="Ultralight-S" transform="matrix(1 0 0 1 514.413 696)">
   <path d="M79.6851-41.9385C80.4395-41.9385 80.8316-42.4702 80.8316-43.1304L80.8316-68.707C80.8316-69.9297 80.0147-70.7466 78.7466-70.7466L53.2154-70.7466C52.5064-70.7466 51.9712-70.3091 51.9712-69.6001C51.9712-68.8911 52.5972-68.4116 53.2154-68.4116L65.1562-68.4116L77.3715-68.8364L63.1977-54.7979L49.5049-41.0596C49.2685-40.8687 49.147-40.5664 49.147-40.3027C49.147-39.5381 49.6401-39.104 50.3594-39.104C50.6616-39.104 50.9151-39.2222 51.148-39.4585L64.6592-53.0674L78.834-67.2831L78.542-55.0712L78.542-43.1304C78.542-42.4214 78.9795-41.9385 79.6851-41.9385ZM37.3818 0.284189C38.0908 0.284189 38.626-0.153321 38.626-0.862318C38.5806-1.57132 38-2.05082 37.3818-2.05082L25.4444-2.05082L13.2257-1.62601L27.3995-15.6645L41.0923-29.3574C41.3321-29.5937 41.4048-29.896 41.4048-30.1597C41.4048-30.9243 40.957-31.3584 40.2378-31.3584C39.9355-31.3584 39.6855-31.2402 39.4492-31.0039L25.9414-17.395L11.7666-3.17926L12.0552-15.3912L12.0552-27.332C12.0552-28.041 11.6211-28.5239 10.9121-28.5239C10.1577-28.5239 9.76562-27.9922 9.76562-27.332L9.76562-1.7554C9.76562-0.532719 10.5825 0.284189 11.8506 0.284189Z"/>
  </g>
 </g>
</svg>
