<?xml version="1.0" encoding="UTF-8"?>
<!--Generator: Apple Native CoreSVG 232.5-->
<!DOCTYPE svg
PUBLIC "-//W3C//DTD SVG 1.1//EN"
       "http://www.w3.org/Graphics/SVG/1.1/DTD/svg11.dtd">
<svg version="1.1" xmlns="http://www.w3.org/2000/svg" xmlns:xlink="http://www.w3.org/1999/xlink" width="3300" height="2200">
 <g id="Notes">
  <rect height="2200" id="artboard" style="fill:white;opacity:1" width="3300" x="0" y="0"/>
  <line style="fill:none;stroke:black;opacity:1;stroke-width:0.5;" x1="263" x2="3036" y1="292" y2="292"/>
  <text style="stroke:none;fill:black;font-family:sans-serif;font-size:13;font-weight:bold;" transform="matrix(1 0 0 1 263 322)">Weight/Scale Variations</text>
  <text style="stroke:none;fill:black;font-family:sans-serif;font-size:13;text-anchor:middle;" transform="matrix(1 0 0 1 559.711 322)">Ultralight</text>
  <text style="stroke:none;fill:black;font-family:sans-serif;font-size:13;text-anchor:middle;" transform="matrix(1 0 0 1 856.422 322)">Thin</text>
  <text style="stroke:none;fill:black;font-family:sans-serif;font-size:13;text-anchor:middle;" transform="matrix(1 0 0 1 1153.13 322)">Light</text>
  <text style="stroke:none;fill:black;font-family:sans-serif;font-size:13;text-anchor:middle;" transform="matrix(1 0 0 1 1449.84 322)">Regular</text>
  <text style="stroke:none;fill:black;font-family:sans-serif;font-size:13;text-anchor:middle;" transform="matrix(1 0 0 1 1746.56 322)">Medium</text>
  <text style="stroke:none;fill:black;font-family:sans-serif;font-size:13;text-anchor:middle;" transform="matrix(1 0 0 1 2043.27 322)">Semibold</text>
  <text style="stroke:none;fill:black;font-family:sans-serif;font-size:13;text-anchor:middle;" transform="matrix(1 0 0 1 2339.98 322)">Bold</text>
  <text style="stroke:none;fill:black;font-family:sans-serif;font-size:13;text-anchor:middle;" transform="matrix(1 0 0 1 2636.69 322)">Heavy</text>
  <text style="stroke:none;fill:black;font-family:sans-serif;font-size:13;text-anchor:middle;" transform="matrix(1 0 0 1 2933.4 322)">Black</text>
  <line style="fill:none;stroke:black;opacity:1;stroke-width:0.5;" x1="263" x2="3036" y1="1903" y2="1903"/>
  <g transform="matrix(0.2 0 0 0.2 263 1933)">
   <path d="m46.2402 4.15039c21.5332 0 39.4531-17.8711 39.4531-39.4043s-17.9688-39.4043-39.502-39.4043c-21.4844 0-39.3555 17.8711-39.3555 39.4043s17.9199 39.4043 39.4043 39.4043Zm0-7.42188c-17.7246 0-31.8848-14.209-31.8848-31.9824s14.1113-31.9824 31.8359-31.9824c17.7734 0 32.0312 14.209 32.0312 31.9824s-14.209 31.9824-31.9824 31.9824Zm-17.9688-31.9824c0 2.14844 1.51367 3.61328 3.75977 3.61328h10.498v10.5957c0 2.19727 1.46484 3.71094 3.61328 3.71094 2.24609 0 3.71094-1.51367 3.71094-3.71094v-10.5957h10.5957c2.19727 0 3.71094-1.46484 3.71094-3.61328 0-2.19727-1.51367-3.71094-3.71094-3.71094h-10.5957v-10.5469c0-2.24609-1.46484-3.75977-3.71094-3.75977-2.14844 0-3.61328 1.51367-3.61328 3.75977v10.5469h-10.498c-2.24609 0-3.75977 1.51367-3.75977 3.71094Z"/>
  </g>
  <g transform="matrix(0.2 0 0 0.2 281.506 1933)">
   <path d="m58.5449 14.5508c27.2461 0 49.8047-22.6074 49.8047-49.8047 0-27.2461-22.6074-49.8047-49.8535-49.8047-27.1973 0-49.7559 22.5586-49.7559 49.8047 0 27.1973 22.6074 49.8047 49.8047 49.8047Zm0-8.30078c-23.0469 0-41.4551-18.457-41.4551-41.5039s18.3594-41.5039 41.4062-41.5039 41.5527 18.457 41.5527 41.5039-18.457 41.5039-41.5039 41.5039Zm-22.6562-41.5039c0 2.39258 1.66016 4.00391 4.15039 4.00391h14.3555v14.4043c0 2.44141 1.66016 4.15039 4.05273 4.15039 2.44141 0 4.15039-1.66016 4.15039-4.15039v-14.4043h14.4043c2.44141 0 4.15039-1.61133 4.15039-4.00391 0-2.44141-1.70898-4.15039-4.15039-4.15039h-14.4043v-14.3555c0-2.49023-1.70898-4.19922-4.15039-4.19922-2.39258 0-4.05273 1.70898-4.05273 4.19922v14.3555h-14.3555c-2.49023 0-4.15039 1.70898-4.15039 4.15039Z"/>
  </g>
  <g transform="matrix(0.2 0 0 0.2 304.924 1933)">
   <path d="m74.8535 28.3203c34.8145 0 63.623-28.8086 63.623-63.5742 0-34.8145-28.8574-63.623-63.6719-63.623-34.7656 0-63.5254 28.8086-63.5254 63.623 0 34.7656 28.8086 63.5742 63.5742 63.5742Zm0-9.08203c-30.1758 0-54.4434-24.3164-54.4434-54.4922 0-30.2246 24.2188-54.4922 54.3945-54.4922 30.2246 0 54.541 24.2676 54.541 54.4922 0 30.1758-24.2676 54.4922-54.4922 54.4922Zm-28.8574-54.4922c0 2.58789 1.85547 4.39453 4.58984 4.39453h19.7266v19.7754c0 2.68555 1.85547 4.58984 4.44336 4.58984 2.68555 0 4.54102-1.85547 4.54102-4.58984v-19.7754h19.7754c2.68555 0 4.58984-1.80664 4.58984-4.39453 0-2.73438-1.85547-4.58984-4.58984-4.58984h-19.7754v-19.7266c0-2.73438-1.85547-4.63867-4.54102-4.63867-2.58789 0-4.44336 1.9043-4.44336 4.63867v19.7266h-19.7266c-2.73438 0-4.58984 1.85547-4.58984 4.58984Z"/>
  </g>
  <text style="stroke:none;fill:black;font-family:sans-serif;font-size:13;font-weight:bold;" transform="matrix(1 0 0 1 263 1953)">Design Variations</text>
  <text style="stroke:none;fill:black;font-family:sans-serif;font-size:13;" transform="matrix(1 0 0 1 263 1971)">Symbols are supported in up to nine weights and three scales.</text>
  <text style="stroke:none;fill:black;font-family:sans-serif;font-size:13;" transform="matrix(1 0 0 1 263 1989)">For optimal layout with text and other symbols, vertically align</text>
  <text style="stroke:none;fill:black;font-family:sans-serif;font-size:13;" transform="matrix(1 0 0 1 263 2007)">symbols with the adjacent text.</text>
  <line style="fill:none;stroke:#00AEEF;stroke-width:0.5;opacity:1.0;" x1="776" x2="776" y1="1919" y2="1933"/>
  <g transform="matrix(0.2 0 0 0.2 776 1933)">
   <path d="m16.5527 0.78125c2.58789 0 3.85742-0.976562 4.78516-3.71094l6.29883-17.2363h28.8086l6.29883 17.2363c0.927734 2.73438 2.19727 3.71094 4.73633 3.71094 2.58789 0 4.24805-1.5625 4.24805-4.00391 0-0.830078-0.146484-1.61133-0.537109-2.63672l-22.9004-60.9863c-1.12305-2.97852-3.125-4.49219-6.25-4.49219-3.02734 0-5.07812 1.46484-6.15234 4.44336l-22.9004 61.084c-0.390625 1.02539-0.537109 1.80664-0.537109 2.63672 0 2.44141 1.5625 3.95508 4.10156 3.95508Zm13.4766-28.3691 11.8652-32.8613h0.244141l11.8652 32.8613Z"/>
  </g>
  <line style="fill:none;stroke:#00AEEF;stroke-width:0.5;opacity:1.0;" x1="792.836" x2="792.836" y1="1919" y2="1933"/>
  <text style="stroke:none;fill:black;font-family:sans-serif;font-size:13;font-weight:bold;" transform="matrix(1 0 0 1 776 1953)">Margins</text>
  <text style="stroke:none;fill:black;font-family:sans-serif;font-size:13;" transform="matrix(1 0 0 1 776 1971)">Leading and trailing margins on the left and right side of each symbol</text>
  <text style="stroke:none;fill:black;font-family:sans-serif;font-size:13;" transform="matrix(1 0 0 1 776 1989)">can be adjusted by modifying the x-location of the margin guidelines.</text>
  <text style="stroke:none;fill:black;font-family:sans-serif;font-size:13;" transform="matrix(1 0 0 1 776 2007)">Modifications are automatically applied proportionally to all</text>
  <text style="stroke:none;fill:black;font-family:sans-serif;font-size:13;" transform="matrix(1 0 0 1 776 2025)">scales and weights.</text>
  <g transform="matrix(0.2 0 0 0.2 1289 1933)">
   <path d="m14.209 9.32617 8.49609 8.54492c4.29688 4.3457 9.22852 4.05273 13.8672-1.07422l53.4668-58.9355-4.83398-4.88281-53.0762 58.3984c-1.75781 2.00195-3.41797 2.49023-5.76172 0.146484l-5.85938-5.81055c-2.34375-2.29492-1.80664-4.00391 0.195312-5.81055l57.373-54.0039-4.88281-4.83398-57.959 54.4434c-4.93164 4.58984-5.32227 9.47266-1.02539 13.8184Zm32.0801-90.9668c-2.09961 2.05078-2.24609 4.93164-1.07422 6.88477 1.17188 1.80664 3.4668 2.97852 6.68945 2.14844 7.32422-1.70898 14.9414-2.00195 22.0703 2.68555l-2.92969 7.27539c-1.70898 4.15039-0.830078 7.08008 1.85547 9.81445l11.4746 11.5723c2.44141 2.44141 4.49219 2.53906 7.32422 2.05078l5.32227-0.976562 3.32031 3.36914-0.195312 2.7832c-0.195312 2.49023 0.439453 4.39453 2.88086 6.78711l3.80859 3.71094c2.39258 2.39258 5.46875 2.53906 7.8125 0.195312l14.5508-14.5996c2.34375-2.34375 2.24609-5.32227-0.146484-7.71484l-3.85742-3.80859c-2.39258-2.39258-4.24805-3.17383-6.64062-2.97852l-2.88086 0.244141-3.22266-3.17383 1.2207-5.61523c0.634766-2.83203-0.146484-5.0293-3.07617-7.95898l-10.9863-10.9375c-16.6992-16.6016-38.8672-16.2109-53.3203-1.75781Zm7.4707 1.85547c12.1582-8.88672 28.6133-7.37305 39.7461 3.75977l12.1582 12.0605c1.17188 1.17188 1.36719 2.09961 1.02539 3.80859l-1.61133 7.42188 7.51953 7.42188 4.93164-0.292969c1.26953-0.0488281 1.66016 0.0488281 2.63672 1.02539l2.88086 2.88086-12.207 12.207-2.88086-2.88086c-0.976562-0.976562-1.12305-1.36719-1.07422-2.68555l0.341797-4.88281-7.4707-7.42188-7.61719 1.26953c-1.61133 0.341797-2.34375 0.195312-3.56445-0.976562l-10.0098-10.0098c-1.26953-1.17188-1.41602-2.00195-0.634766-3.85742l4.39453-10.4492c-7.8125-7.27539-17.9688-10.4004-28.125-7.42188-0.78125 0.195312-1.07422-0.439453-0.439453-0.976562Z"/>
  </g>
  <text style="stroke:none;fill:black;font-family:sans-serif;font-size:13;font-weight:bold;" transform="matrix(1 0 0 1 1289 1953)">Exporting</text>
  <text style="stroke:none;fill:black;font-family:sans-serif;font-size:13;" transform="matrix(1 0 0 1 1289 1971)">Symbols should be outlined when exporting to ensure the</text>
  <text style="stroke:none;fill:black;font-family:sans-serif;font-size:13;" transform="matrix(1 0 0 1 1289 1989)">design is preserved when submitting to Xcode.</text>
  <text id="template-version" style="stroke:none;fill:black;font-family:sans-serif;font-size:13;text-anchor:end;" transform="matrix(1 0 0 1 3036 1933)">Template v.2.0</text>
  <text style="stroke:none;fill:black;font-family:sans-serif;font-size:13;text-anchor:end;" transform="matrix(1 0 0 1 3036 1951)">Requires Xcode 12 or greater</text>
  <text id="descriptive-name" style="stroke:none;fill:black;font-family:sans-serif;font-size:13;text-anchor:end;" transform="matrix(1 0 0 1 3036 1969)">Generated from visionpro</text>
  <text style="stroke:none;fill:black;font-family:sans-serif;font-size:13;text-anchor:end;" transform="matrix(1 0 0 1 3036 1987)">Typeset at 100.0 points</text>
  <text style="stroke:none;fill:black;font-family:sans-serif;font-size:13;" transform="matrix(1 0 0 1 263 726)">Small</text>
  <text style="stroke:none;fill:black;font-family:sans-serif;font-size:13;" transform="matrix(1 0 0 1 263 1156)">Medium</text>
  <text style="stroke:none;fill:black;font-family:sans-serif;font-size:13;" transform="matrix(1 0 0 1 263 1586)">Large</text>
 </g>
 <g id="Guides">
  <g id="H-reference" style="fill:#27AAE1;stroke:none;" transform="matrix(1 0 0 1 339 696)">
   <path d="M0.993654 0L3.63775 0L29.3281-67.1323L30.0303-67.1323L30.0303-70.459L28.1226-70.459ZM11.6885-24.4799L46.9815-24.4799L46.2315-26.7285L12.4385-26.7285ZM55.1196 0L57.7637 0L30.6382-70.459L29.4326-70.459L29.4326-67.1323Z"/>
  </g>
  <line id="Baseline-S" style="fill:none;stroke:#27AAE1;opacity:1;stroke-width:0.5;" x1="263" x2="3036" y1="696" y2="696"/>
  <line id="Capline-S" style="fill:none;stroke:#27AAE1;opacity:1;stroke-width:0.5;" x1="263" x2="3036" y1="625.541" y2="625.541"/>
  <g id="H-reference" style="fill:#27AAE1;stroke:none;" transform="matrix(1 0 0 1 339 1126)">
   <path d="M0.993654 0L3.63775 0L29.3281-67.1323L30.0303-67.1323L30.0303-70.459L28.1226-70.459ZM11.6885-24.4799L46.9815-24.4799L46.2315-26.7285L12.4385-26.7285ZM55.1196 0L57.7637 0L30.6382-70.459L29.4326-70.459L29.4326-67.1323Z"/>
  </g>
  <line id="Baseline-M" style="fill:none;stroke:#27AAE1;opacity:1;stroke-width:0.5;" x1="263" x2="3036" y1="1126" y2="1126"/>
  <line id="Capline-M" style="fill:none;stroke:#27AAE1;opacity:1;stroke-width:0.5;" x1="263" x2="3036" y1="1055.54" y2="1055.54"/>
  <g id="H-reference" style="fill:#27AAE1;stroke:none;" transform="matrix(1 0 0 1 339 1556)">
   <path d="M0.993654 0L3.63775 0L29.3281-67.1323L30.0303-67.1323L30.0303-70.459L28.1226-70.459ZM11.6885-24.4799L46.9815-24.4799L46.2315-26.7285L12.4385-26.7285ZM55.1196 0L57.7637 0L30.6382-70.459L29.4326-70.459L29.4326-67.1323Z"/>
  </g>
  <line id="Baseline-L" style="fill:none;stroke:#27AAE1;opacity:1;stroke-width:0.5;" x1="263" x2="3036" y1="1556" y2="1556"/>
  <line id="Capline-L" style="fill:none;stroke:#27AAE1;opacity:1;stroke-width:0.5;" x1="263" x2="3036" y1="1485.54" y2="1485.54"/>
  <line id="left-margin" style="fill:none;stroke:#00AEEF;stroke-width:0.5;opacity:1.0;" x1="1373.17" x2="1373.17" y1="1030.79" y2="1150.12"/>
  <line id="right-margin" style="fill:none;stroke:#00AEEF;stroke-width:0.5;opacity:1.0;" x1="1526.52" x2="1526.52" y1="1030.79" y2="1150.12"/>
 </g>
 <g id="Symbols">
  <g id="Black-L" transform="matrix(1 0 0 1 2832.29 1556)">
   <path d="M89.1409-86.2906C99.0636-86.5402 120.719-86.041 131.266-85.3545C168.023-82.7958 186.995-71.7498 193.111-49.2208C194.734-43.2298 194.734-25.1317 193.111-18.6414C190.615-8.53148 184.374 2.0153 177.696 7.56952C169.896 14.0598 162.781 16.5561 151.86 16.6185C140.252 16.6185 134.136 14.3719 120.095 4.82361C108.799-2.91485 106.552-3.91337 101.31-3.97577C96.0681-3.97577 93.759-2.91485 82.713 4.57398C73.976 10.4402 67.1737 13.9974 61.9939 15.3704C53.3817 17.617 42.8349 17.1802 35.4085 14.1223C25.4234 10.1282 16.5616 0.767158 12.0059-10.4037C6.13963-25.0069 6.26445-44.9772 12.4427-57.5834C16.6864-66.2579 22.9271-72.1242 33.2867-77.0544C45.3312-82.7958 61.8691-85.4793 89.1409-86.2906ZM132.202-72.249C110.734-73.8716 76.8468-73.4348 61.1826-71.4377C37.7176-68.3798 26.1099-60.5789 22.0534-45.1644C20.7429-40.2342 20.7429-27.9401 21.991-21.7618C25.5482-4.97429 37.8424 5.01083 53.1945 3.51307C60.5585 2.82659 65.4887 0.51753 76.5971-7.34575C86.8319-14.6474 93.6966-17.3933 101.31-17.3933C109.174-17.3933 115.165-14.8346 127.084-6.40965C135.759-0.293761 141.313 2.38974 147.367 3.32584C162.844 5.69731 175.387-3.10208 179.943-19.5775C180.505-21.637 181.129-26.8167 181.316-31.1228C181.815-44.1659 179.506-51.8419 172.766-58.8315C165.09-66.8196 153.483-70.6888 132.202-72.249Z"/>
  </g>
  <g id="Heavy-L" transform="matrix(1 0 0 1 2536.18 1556)">
   <path d="M88.5669-86.5601C98.4897-86.8097 120.145-86.3104 130.692-85.624C167.449-83.0653 186.421-72.0192 192.537-49.4903C194.16-43.4992 194.16-25.4012 192.537-18.9109C190.041-8.80096 183.8 1.74582 177.122 7.30004C169.322 13.7904 162.207 16.2866 151.286 16.3491C139.678 16.3491 133.562 14.1024 119.521 4.55413C108.225-3.18433 105.978-4.18284 100.736-4.24525C95.4941-4.24525 93.1851-3.18433 82.139 4.30451C73.402 10.1708 66.5997 13.728 61.4199 15.1009C52.8077 17.3476 42.261 16.9107 34.8345 13.8528C24.8494 9.85873 15.9876 0.497679 11.4319-10.6732C5.56564-25.2764 5.69046-45.2466 11.8687-57.8529C16.1124-66.5274 22.3531-72.3937 32.7127-77.3238C44.7572-83.0653 61.2951-85.7488 88.5669-86.5601ZM131.628-72.5185C110.16-74.1411 76.2728-73.7042 60.6086-71.7072C37.1436-68.6493 25.5359-60.8484 21.4794-45.4339C20.1689-40.5037 20.1689-28.2095 21.417-22.0312C24.9742-5.24376 37.2684 4.74135 52.6205 3.24359C59.9845 2.55711 64.9147 0.248052 76.0231-7.61523C86.2579-14.9168 93.1227-17.6628 100.736-17.6628C108.6-17.6628 114.591-15.1041 126.51-6.67912C135.185-0.563239 140.739 2.12026 146.793 3.05637C162.27 5.42783 174.813-3.37155 179.369-19.847C179.931-21.9064 180.555-27.0862 180.742-31.3923C181.241-44.4354 178.932-52.1114 172.192-59.101C164.516-67.0891 152.909-70.9583 131.628-72.5185Z"/>
  </g>
  <g id="Bold-L" transform="matrix(1 0 0 1 2240.33 1556)">
   <path d="M87.7481-86.8538C97.6708-87.1034 119.326-86.6041 129.873-85.9176C166.631-83.359 185.602-72.3129 191.718-49.784C193.341-43.7929 193.341-25.6949 191.718-19.2046C189.222-9.09464 182.981 1.45214 176.304 7.00636C168.503 13.4967 161.388 15.993 150.467 16.0554C138.859 16.0554 132.744 13.8087 118.702 4.26045C107.406-3.47802 105.16-4.47653 99.9174-4.53893C94.6752-4.53893 92.3662-3.47802 81.3202 4.01082C72.5832 9.87708 65.7808 13.4343 60.601 14.8072C51.9889 17.0539 41.4421 16.617 34.0157 13.5591C24.0305 9.56505 15.1687 0.203997 10.613-10.9669C4.74678-25.5701 4.87159-45.5403 11.0499-58.1465C15.2936-66.8211 21.5343-72.6874 31.8938-77.6175C43.9384-83.359 60.4762-86.0425 87.7481-86.8538ZM130.809-72.8122C109.341-74.4348 75.4539-73.9979 59.7897-72.0009C36.3247-68.9429 24.717-61.1421 20.6606-45.7275C19.35-40.7974 19.35-28.5032 20.5982-22.3249C24.1553-5.53745 36.4495 4.44767 51.8016 2.9499C59.1657 2.26343 64.0958-0.0456314 75.2043-7.90891C85.439-15.2105 92.3038-17.9564 99.9174-17.9564C107.781-17.9564 113.772-15.3978 125.692-6.97281C134.366-0.856922 139.92 1.82658 145.974 2.76268C161.451 5.13415 173.995-3.66524 178.55-20.1407C179.112-22.2001 179.736-27.3799 179.923-31.686C180.422-44.729 178.113-52.4051 171.373-59.3947C163.697-67.3828 152.09-71.252 130.809-72.8122Z"/>
  </g>
  <g id="Semibold-L" transform="matrix(1 0 0 1 1944.22 1556)">
   <path d="M87.1835-87.0562C97.1063-87.3058 118.761-86.8066 129.308-86.1201C166.066-83.5614 185.038-72.5154 191.154-49.9865C192.776-43.9954 192.776-25.8974 191.154-19.407C188.657-9.29711 182.417 1.24967 175.739 6.8039C167.938 13.2942 160.824 15.7905 149.903 15.8529C138.295 15.8529 132.179 13.6063 118.137 4.05799C106.842-3.68048 104.595-4.67899 99.3529-4.7414C94.1107-4.7414 91.8017-3.68048 80.7556 3.80836C72.0187 9.67462 65.2163 13.2318 60.0365 14.6048C51.4243 16.8514 40.8776 16.4146 33.4511 13.3566C23.466 9.36258 14.6042 0.00153329 10.0485-11.1693C4.18225-25.7726 4.30707-45.7428 10.4854-58.349C14.729-67.0236 20.9697-72.8898 31.3293-77.82C43.3738-83.5614 59.9117-86.2449 87.1835-87.0562ZM130.244-73.0146C108.776-74.6372 74.8894-74.2004 59.2252-72.2034C35.7602-69.1454 24.1525-61.3445 20.096-45.93C18.7855-40.9999 18.7855-28.7057 20.0336-22.5274C23.5908-5.73991 35.885 4.24521 51.2371 2.74744C58.6011 2.06096 63.5313-0.248095 74.6397-8.11138C84.8745-15.413 91.7393-18.1589 99.3529-18.1589C107.216-18.1589 113.207-15.6002 125.127-7.17527C133.802-1.05939 139.356 1.62412 145.409 2.56022C160.886 4.93169 173.43-3.8677 177.986-20.3431C178.547-22.4026 179.171-27.5824 179.359-31.8884C179.858-44.9315 177.549-52.6076 170.809-59.5971C163.133-67.5852 151.525-71.4545 130.244-73.0146Z"/>
  </g>
  <g id="Medium-L" transform="matrix(1 0 0 1 1647.95 1556)">
   <path d="M86.7555-87.2097C96.6782-87.4594 118.333-86.9601 128.88-86.2736C165.638-83.7149 184.61-72.6689 190.726-50.14C192.348-44.1489 192.348-26.0509 190.726-19.5606C188.229-9.45062 181.989 1.09616 175.311 6.65038C167.51 13.1407 160.396 15.637 149.475 15.6994C137.867 15.6994 131.751 13.4527 117.709 3.90447C106.414-3.834 104.167-4.83251 98.9249-4.89491C93.6827-4.89491 91.3736-3.834 80.3276 3.65484C71.5906 9.5211 64.7882 13.0783 59.6085 14.4513C50.9963 16.6979 40.4495 16.2611 33.0231 13.2031C23.038 9.20907 14.1762-0.151983 9.62047-11.3228C3.75421-25.9261 3.87902-45.8963 10.0573-58.5025C14.301-67.1771 20.5417-73.0433 30.9012-77.9735C42.9458-83.7149 59.4837-86.3984 86.7555-87.2097ZM129.816-73.1682C108.348-74.7907 74.4613-74.3539 58.7972-72.3569C35.3321-69.2989 23.7244-61.4981 19.668-46.0835C18.3574-41.1534 18.3574-28.8592 19.6056-22.6809C23.1628-5.89343 35.457 4.09169 50.8091 2.59392C58.1731 1.90745 63.1033-0.401611 74.2117-8.26489C84.4464-15.5665 91.3112-18.3124 98.9249-18.3124C106.788-18.3124 112.779-15.7537 124.699-7.32879C133.374-1.2129 138.928 1.4706 144.981 2.4067C160.458 4.77817 173.002-4.02122 177.558-20.4967C178.119-22.5561 178.743-27.7359 178.931-32.042C179.43-45.085 177.121-52.7611 170.381-59.7507C162.705-67.7388 151.097-71.608 129.816-73.1682Z"/>
  </g>
  <g id="Regular-L" transform="matrix(1 0 0 1 1351.83 1556)">
   <path d="M86.1972-87.41C96.1199-87.6596 117.775-87.1603 128.322-86.4739C165.08-83.9152 184.051-72.8691 190.167-50.3402C191.79-44.3491 191.79-26.2511 190.167-19.7608C187.671-9.65086 181.43 0.895919 174.753 6.45014C166.952 12.9405 159.837 15.4367 148.916 15.4992C137.309 15.4992 131.193 13.2525 117.151 3.70423C105.855-4.03423 103.609-5.03275 98.3665-5.09515C93.1244-5.09515 90.8153-4.03423 79.7693 3.45461C71.0323 9.32086 64.2299 12.8781 59.0501 14.251C50.438 16.4977 39.8912 16.0608 32.4648 13.0029C22.4796 9.00883 13.6179-0.352221 9.06215-11.5231C3.19589-26.1263 3.3207-46.0965 9.499-58.7028C13.7427-67.3773 19.9834-73.2436 30.3429-78.1737C42.3875-83.9152 58.9253-86.5987 86.1972-87.41ZM129.258-73.3684C107.79-74.991 73.903-74.5541 58.2389-72.5571C34.7738-69.4992 23.1661-61.6983 19.1097-46.2838C17.7991-41.3536 17.7991-29.0594 19.0473-22.8811C22.6045-6.09366 34.8986 3.89145 50.2508 2.39369C57.6148 1.70721 62.5449-0.601849 73.6534-8.46513C83.8881-15.7667 90.7529-18.5127 98.3665-18.5127C106.23-18.5127 112.221-15.954 124.141-7.52902C132.815-1.41314 138.369 1.27036 144.423 2.20647C159.9 4.57793 172.444-4.22145 176.999-20.6969C177.561-22.7563 178.185-27.9361 178.372-32.2422C178.872-45.2853 176.563-52.9613 169.823-59.9509C162.146-67.939 150.539-71.8082 129.258-73.3684Z"/>
  </g>
  <g id="Light-L" transform="matrix(1 0 0 1 1056.41 1556)">
   <path d="M84.9367-87.3546C94.8594-87.6042 116.515-87.105 127.061-86.4185C163.819-83.8598 182.791-72.8138 188.907-50.2848C190.529-44.2938 190.529-26.1957 188.907-19.7054C186.41-9.59548 180.17 0.951304 173.492 6.50553C165.691 12.9959 158.577 15.4921 147.656 15.5545C136.048 15.5545 129.932 13.3079 115.891 3.75962C104.595-3.97885 102.348-4.97736 97.1061-5.03977C91.8639-5.03977 89.5548-3.97885 78.5088 3.50999C69.7718 9.37625 62.9694 12.9334 57.7897 14.3064C49.1775 16.5531 38.6307 16.1162 31.2043 13.0583C21.2192 9.06421 12.3574-0.296836 7.80166-11.4677C1.9354-26.0709 2.06021-46.0412 8.2385-58.6474C12.4822-67.3219 18.7229-73.1882 29.0824-78.1184C41.127-83.8598 57.6648-86.5433 84.9367-87.3546ZM127.998-73.313C106.53-74.9356 72.6425-74.4987 56.9784-72.5017C33.5133-69.4438 21.9056-61.6429 17.8492-46.2284C16.5386-41.2982 16.5386-29.0041 17.7868-22.8258C21.344-6.03828 33.6381 3.94684 48.9903 2.44907C56.3543 1.76259 61.2844-0.546464 72.3929-8.40974C82.6276-15.7114 89.4924-18.4573 97.1061-18.4573C104.969-18.4573 110.96-15.8986 122.88-7.47364C131.555-1.35775 137.109 1.32575 143.162 2.26185C158.639 4.63332 171.183-4.16607 175.739-20.6415C176.301-22.7009 176.925-27.8807 177.112-32.1868C177.611-45.2299 175.302-52.9059 168.562-59.8955C160.886-67.8836 149.278-71.7528 127.998-73.313Z"/>
  </g>
  <g id="Thin-L" transform="matrix(1 0 0 1 761.4 1556)">
   <path d="M83.2696-87.2813C93.1923-87.531 114.848-87.0317 125.394-86.3452C162.152-83.7865 181.124-72.7405 187.24-50.2116C188.862-44.2205 188.862-26.1225 187.24-19.6322C184.743-9.52223 178.503 1.02456 171.825 6.57878C164.024 13.0691 156.91 15.5654 145.989 15.6278C134.381 15.6278 128.265 13.3811 114.223 3.83287C102.928-3.9056 100.681-4.90411 95.439-4.96652C90.1968-4.96652 87.8877-3.9056 76.8417 3.58324C68.1047 9.4495 61.3023 13.0067 56.1226 14.3797C47.5104 16.6263 36.9636 16.1895 29.5372 13.1315C19.5521 9.13746 10.6903-0.223584 6.13456-11.3944C0.268298-25.9977 0.393112-45.9679 6.5714-58.5741C10.8151-67.2487 17.0558-73.1149 27.4153-78.0451C39.4599-83.7865 55.9977-86.47 83.2696-87.2813ZM126.33-73.2398C104.862-74.8623 70.9754-74.4255 55.3113-72.4285C31.8462-69.3705 20.2385-61.5697 16.1821-46.1551C14.8715-41.225 14.8715-28.9308 16.1197-22.7525C19.6769-5.96503 31.971 4.02009 47.3232 2.52232C54.6872 1.83585 59.6173-0.473212 70.7258-8.33649C80.9605-15.6381 87.8253-18.384 95.439-18.384C103.302-18.384 109.293-15.8253 121.213-7.40039C129.888-1.2845 135.442 1.399 141.495 2.3351C156.972 4.70657 169.516-4.09282 174.072-20.5683C174.633-22.6277 175.257-27.8075 175.445-32.1136C175.944-45.1566 173.635-52.8327 166.895-59.8223C159.219-67.8104 147.611-71.6796 126.33-73.2398Z"/>
  </g>
  <g id="Ultralight-L" transform="matrix(1 0 0 1 465.562 1556)">
   <path d="M82.4157-87.2438C92.3384-87.4934 113.994-86.9942 124.54-86.3077C161.298-83.749 180.27-72.703 186.386-50.1741C188.008-44.183 188.008-26.085 186.386-19.5946C183.889-9.48471 177.649 1.06207 170.971 6.6163C163.17 13.1066 156.056 15.6029 145.135 15.6653C133.527 15.6653 127.411 13.4187 113.37 3.87039C102.074-3.86808 99.8273-4.86659 94.5851-4.929C89.3429-4.929 87.0338-3.86808 75.9878 3.62076C67.2508 9.48702 60.4485 13.0442 55.2687 14.4172C46.6565 16.6638 36.1097 16.227 28.6833 13.169C18.6982 9.17498 9.83638-0.186065 5.28067-11.3569C-0.585583-25.9602-0.460769-45.9304 5.71752-58.5366C9.9612-67.2112 16.2019-73.0774 26.5615-78.0076C38.606-83.749 55.1439-86.4325 82.4157-87.2438ZM125.477-73.2022C104.009-74.8248 70.1215-74.388 54.4574-72.391C30.9924-69.333 19.3847-61.5321 15.3282-46.1176C14.0177-41.1875 14.0177-28.8933 15.2658-22.715C18.823-5.92751 31.1172 4.05761 46.4693 2.55984C53.8333 1.87337 58.7635-0.435693 69.8719-8.29897C80.1067-15.6006 86.9714-18.3465 94.5851-18.3465C102.448-18.3465 108.439-15.7878 120.359-7.36287C129.034-1.24698 134.588 1.43652 140.641 2.37262C156.118 4.74409 168.662-4.0553 173.218-20.5307C173.78-22.5902 174.404-27.77 174.591-32.076C175.09-45.1191 172.781-52.7952 166.041-59.7847C158.365-67.7728 146.757-71.6421 125.477-73.2022Z"/>
  </g>
  <g id="Black-M" transform="matrix(1 0 0 1 2854.72 1126)">
   <path d="M69.3837-74.5496C77.0713-74.743 93.8485-74.3562 102.02-73.8243C130.497-71.842 145.195-63.2842 149.934-45.8301C151.191-41.1885 151.191-27.1672 149.934-22.1389C148-14.3063 143.165-6.13529 137.991-1.8322C131.948 3.19613 126.436 5.1301 117.975 5.17845C108.982 5.17845 104.244 3.43787 93.365-3.95957C84.6138-9.95488 82.8732-10.7285 78.8119-10.7768C74.7505-10.7768 72.9616-9.95488 64.4038-4.15297C57.6349 0.391868 52.3648 3.14778 48.3518 4.21146C41.6796 5.95204 33.5086 5.61359 27.755 3.24448C20.0191 0.150122 13.1535-7.10228 9.62399-15.7568C5.07915-27.0705 5.17585-42.5423 9.96243-52.3089C13.2502-59.0294 18.0851-63.5743 26.1111-67.3939C35.4425-71.842 48.2551-73.921 69.3837-74.5496ZM102.745-63.671C86.1126-64.9281 59.8589-64.5896 47.7232-63.0424C29.5439-60.6733 20.5509-54.6297 17.4082-42.6874C16.3929-38.8678 16.3929-29.343 17.3599-24.5564C20.1158-11.5504 29.6406-3.81452 41.5345-4.97491C47.2398-5.50675 51.0594-7.29567 59.6655-13.3877C67.5948-19.0446 72.9132-21.1719 78.8119-21.1719C84.9039-21.1719 89.5454-19.1896 98.7801-12.6624C105.501-7.92421 109.804-5.84519 114.494-5.11995C126.484-3.28268 136.202-10.0999 139.732-22.8642C140.167-24.4597 140.651-28.4727 140.796-31.8088C141.182-41.9138 139.394-47.8607 134.172-53.2759C128.225-59.4646 119.232-62.4622 102.745-63.671Z"/>
  </g>
  <g id="Heavy-M" transform="matrix(1 0 0 1 2558.48 1126)">
   <path d="M68.9389-74.8181C76.6265-75.0115 93.4037-74.6247 101.575-74.0929C130.052-72.1105 144.751-63.5527 149.489-46.0986C150.746-41.4571 150.746-27.4358 149.489-22.4075C147.555-14.5749 142.72-6.40383 137.547-2.10074C131.503 2.92759 125.991 4.86156 117.53 4.90991C108.537 4.90991 103.799 3.16933 92.9202-4.22811C84.1689-10.2234 82.4284-10.997 78.367-11.0454C74.3057-11.0454 72.5168-10.2234 63.9589-4.42151C57.19 0.123325 51.92 2.87924 47.907 3.94292C41.2348 5.6835 33.0637 5.34505 27.3102 2.97593C19.5743-0.118421 12.7087-7.37082 9.17916-16.0253C4.63432-27.3391 4.73102-42.8109 9.5176-52.5774C12.8054-59.298 17.6403-63.8428 25.6663-67.6624C34.9977-72.1105 47.8103-74.1896 68.9389-74.8181ZM102.3-63.9395C85.6678-65.1966 59.4141-64.8582 47.2784-63.311C29.0991-60.9419 20.1061-54.8982 16.9634-42.9559C15.9481-39.1363 15.9481-29.6115 16.915-24.8249C19.671-11.819 29.1958-4.08306 41.0897-5.24345C46.7949-5.77529 50.6145-7.56422 59.2207-13.6562C67.15-19.3131 72.4684-21.4405 78.367-21.4405C84.459-21.4405 89.1006-19.4581 98.3353-12.931C105.056-8.19276 109.359-6.11374 114.049-5.3885C126.039-3.55122 135.758-10.3685 139.287-23.1327C139.722-24.7282 140.206-28.7412 140.351-32.0773C140.738-42.1823 138.949-48.1293 133.727-53.5444C127.78-59.7331 118.787-62.7308 102.3-63.9395Z"/>
  </g>
  <g id="Bold-M" transform="matrix(1 0 0 1 2262.3 1126)">
   <path d="M68.4413-75.1185C76.1288-75.3119 92.9061-74.9251 101.077-74.3933C129.555-72.411 144.253-63.8531 148.991-46.399C150.248-41.7575 150.248-27.7362 148.991-22.7079C147.057-14.8753 142.222-6.70424 137.049-2.40115C131.005 2.62718 125.493 4.56115 117.032 4.6095C108.039 4.6095 103.301 2.86893 92.4226-4.52852C83.6713-10.5238 81.9308-11.2974 77.8694-11.3458C73.8081-11.3458 72.0192-10.5238 63.4613-4.72191C56.6924-0.177078 51.4223 2.57883 47.4094 3.64252C40.7371 5.38309 32.5661 5.04465 26.8125 2.67553C19.0767-0.418825 12.2111-7.67122 8.68155-16.3257C4.13672-27.6395 4.23342-43.1113 9.02-52.8778C12.3078-59.5984 17.1427-64.1432 25.1687-67.9628C34.5001-72.411 47.3127-74.49 68.4413-75.1185ZM101.802-64.2399C85.1702-65.497 58.9165-65.1586 46.7808-63.6114C28.6015-61.2423 19.6085-55.1986 16.4658-43.2563C15.4505-39.4367 15.4505-29.9119 16.4174-25.1253C19.1734-12.1194 28.6982-4.38347 40.5921-5.54385C46.2973-6.07569 50.1169-7.86462 58.7231-13.9566C66.6524-19.6135 71.9708-21.7409 77.8694-21.7409C83.9614-21.7409 88.603-19.7586 97.8377-13.2314C104.558-8.49316 108.861-6.41414 113.551-5.6889C125.542-3.85163 135.26-10.6689 138.79-23.4331C139.225-25.0286 139.708-29.0416 139.853-32.3777C140.24-42.4827 138.451-48.4297 133.229-53.8448C127.282-60.0335 118.289-63.0312 101.802-64.2399Z"/>
  </g>
  <g id="Semibold-M" transform="matrix(1 0 0 1 1965.96 1126)">
   <path d="M68.0983-75.3256C75.7858-75.519 92.563-75.1322 100.734-74.6004C129.212-72.618 143.91-64.0602 148.648-46.6061C149.905-41.9646 149.905-27.9433 148.648-22.915C146.714-15.0824 141.879-6.91133 136.706-2.60824C130.662 2.42009 125.15 4.35406 116.689 4.40241C107.696 4.40241 102.958 2.66183 92.0795-4.73561C83.3283-10.7309 81.5877-11.5045 77.5264-11.5529C73.465-11.5529 71.6761-10.7309 63.1183-4.92901C56.3494-0.384175 51.0793 2.37174 47.0663 3.43542C40.3941 5.176 32.2231 4.83755 26.4695 2.46843C18.7336-0.625921 11.868-7.87832 8.33851-16.5328C3.79367-27.8466 3.89037-43.3184 8.67695-53.0849C11.9647-59.8055 16.7996-64.3503 24.8256-68.1699C34.157-72.618 46.9696-74.6971 68.0983-75.3256ZM101.459-64.447C84.8271-65.7041 58.5734-65.3657 46.4378-63.8185C28.2584-61.4494 19.2655-55.4057 16.1227-43.4634C15.1074-39.6438 15.1074-30.119 16.0744-25.3324C18.8303-12.3265 28.3551-4.59057 40.2491-5.75095C45.9543-6.28279 49.7739-8.07172 58.38-14.1637C66.3093-19.8206 71.6278-21.948 77.5264-21.948C83.6184-21.948 88.2599-19.9656 97.4946-13.4385C104.215-8.70026 108.518-6.62124 113.208-5.896C125.199-4.05872 134.917-10.876 138.447-23.6402C138.882-25.2357 139.365-29.2487 139.51-32.5848C139.897-42.6898 138.108-48.6368 132.886-54.0519C126.939-60.2406 117.946-63.2383 101.459-64.447Z"/>
  </g>
  <g id="Medium-M" transform="matrix(1 0 0 1 1669.52 1126)">
   <path d="M67.8381-75.4826C75.5257-75.676 92.3029-75.2892 100.474-74.7574C128.952-72.7751 143.65-64.2172 148.388-46.7631C149.645-42.1216 149.645-28.1003 148.388-23.072C146.454-15.2394 141.619-7.06836 136.446-2.76527C130.402 2.26306 124.89 4.19703 116.429 4.24538C107.436 4.24538 102.698 2.5048 91.8194-4.89264C83.0682-10.888 81.3276-11.6615 77.2663-11.7099C73.2049-11.7099 71.416-10.888 62.8582-5.08604C56.0893-0.541204 50.8192 2.21471 46.8062 3.27839C40.134 5.01897 31.963 4.68052 26.2094 2.31141C18.4735-0.782951 11.6079-8.03535 8.07839-16.6899C3.53356-28.0036 3.63026-43.4754 8.41684-53.242C11.7046-59.9625 16.5395-64.5073 24.5655-68.3269C33.8969-72.7751 46.7095-74.8541 67.8381-75.4826ZM101.199-64.604C84.567-65.8611 58.3133-65.5227 46.1777-63.9755C27.9983-61.6064 19.0053-55.5627 15.8626-43.6204C14.8473-39.8008 14.8473-30.276 15.8143-25.4894C18.5702-12.4835 28.095-4.74759 39.9889-5.90798C45.6942-6.43982 49.5138-8.22874 58.1199-14.3208C66.0492-19.9776 71.3676-22.105 77.2663-22.105C83.3583-22.105 87.9998-20.1227 97.2345-13.5955C103.955-8.85729 108.258-6.77827 112.948-6.05303C124.939-4.21575 134.657-11.033 138.186-23.7972C138.622-25.3928 139.105-29.4057 139.25-32.7418C139.637-42.8469 137.848-48.7938 132.626-54.2089C126.679-60.3977 117.686-63.3953 101.199-64.604Z"/>
  </g>
  <g id="Regular-M" transform="matrix(1 0 0 1 1373.17 1126)">
   <path d="M67.4989-75.6875C75.1864-75.8809 91.9636-75.4941 100.135-74.9622C128.612-72.9799 143.311-64.4221 148.049-46.968C149.306-42.3264 149.306-28.3051 148.049-23.2768C146.115-15.4442 141.28-7.27318 136.107-2.97009C130.063 2.05824 124.551 3.99221 116.09 4.04056C107.097 4.04056 102.359 2.29998 91.4801-5.09746C82.7289-11.0928 80.9883-11.8664 76.927-11.9147C72.8656-11.9147 71.0767-11.0928 62.5189-5.29086C55.75-0.746025 50.4799 2.00989 46.4669 3.07357C39.7947 4.81415 31.6237 4.4757 25.8701 2.10658C18.1342-0.987771 11.2686-8.24017 7.73912-16.8947C3.19428-28.2084 3.29098-43.6802 8.07756-53.4468C11.3653-60.1673 16.2002-64.7122 24.2262-68.5318C33.5576-72.9799 46.3702-75.0589 67.4989-75.6875ZM100.86-64.8089C84.2277-66.0659 57.9741-65.7275 45.8384-64.1803C27.659-61.8112 18.6661-55.7675 15.5234-43.8253C14.508-40.0057 14.508-30.4809 15.475-25.6943C18.2309-12.6883 27.7557-4.95242 39.6497-6.1128C45.3549-6.64464 49.1745-8.43357 57.7807-14.5256C65.7099-20.1824 71.0284-22.3098 76.927-22.3098C83.019-22.3098 87.6605-20.3275 96.8953-13.8003C103.616-9.06211 107.919-6.98309 112.609-6.25785C124.599-4.42057 134.318-11.2378 137.847-24.002C138.282-25.5976 138.766-29.6106 138.911-32.9467C139.298-43.0517 137.509-48.9986 132.287-54.4138C126.34-60.6025 117.347-63.6001 100.86-64.8089Z"/>
  </g>
  <g id="Light-M" transform="matrix(1 0 0 1 1077.62 1126)">
   <path d="M66.3688-75.6378C74.0563-75.8312 90.8335-75.4444 99.0046-74.9126C127.482-72.9302 142.18-64.3724 146.919-46.9183C148.176-42.2768 148.176-28.2555 146.919-23.2271C144.985-15.3946 140.15-7.22353 134.976-2.92044C128.933 2.10789 123.421 4.04186 114.96 4.09021C105.967 4.09021 101.229 2.34964 90.35-5.04781C81.5988-11.0431 79.8582-11.8167 75.7969-11.8651C71.7355-11.8651 69.9466-11.0431 61.3888-5.2412C54.6199-0.696369 49.3498 2.05954 45.3368 3.12323C38.6646 4.8638 30.4936 4.52536 24.74 2.15624C17.0041-0.938115 10.1385-8.19051 6.60902-16.845C2.06419-28.1588 2.16088-43.6306 6.94747-53.3971C10.2352-60.1177 15.0702-64.6625 23.0961-68.4821C32.4276-72.9302 45.2401-75.0093 66.3688-75.6378ZM99.7298-64.7592C83.0976-66.0163 56.844-65.6778 44.7083-64.1307C26.5289-61.7616 17.536-55.7179 14.3933-43.7756C13.3779-39.956 13.3779-30.4312 14.3449-25.6446C17.1008-12.6386 26.6256-4.90276 38.5196-6.06314C44.2248-6.59499 48.0444-8.38391 56.6506-14.4759C64.5798-20.1328 69.8983-22.2602 75.7969-22.2602C81.8889-22.2602 86.5304-20.2778 95.7652-13.7507C102.486-9.01245 106.789-6.93343 111.479-6.20819C123.469-4.37092 133.188-11.1882 136.717-23.9524C137.152-25.5479 137.636-29.5609 137.781-32.897C138.168-43.002 136.379-48.949 131.157-54.3641C125.21-60.5528 116.217-63.5505 99.7298-64.7592Z"/>
  </g>
  <g id="Thin-M" transform="matrix(1 0 0 1 782.435 1126)">
   <path d="M64.8741-75.5721C72.5617-75.7655 89.3389-75.3787 97.5099-74.8469C125.988-72.8646 140.686-64.3067 145.424-46.8526C146.681-42.2111 146.681-28.1898 145.424-23.1615C143.49-15.3289 138.655-7.15785 133.482-2.85476C127.438 2.17357 121.926 4.10754 113.465 4.15589C104.472 4.15589 99.734 2.41531 88.8554-4.98213C80.1042-10.9774 78.3636-11.751 74.3022-11.7994C70.2409-11.7994 68.452-10.9774 59.8942-5.17553C53.1252-0.630695 47.8552 2.12522 43.8422 3.1889C37.17 4.92948 28.9989 4.59103 23.2454 2.22191C15.5095-0.872442 8.64388-8.12484 5.11438-16.7794C0.569543-28.0931 0.666242-43.5649 5.45282-53.3314C8.74058-60.052 13.5755-64.5968 21.6015-68.4164C30.9329-72.8646 43.7455-74.9436 64.8741-75.5721ZM98.2352-64.6935C81.603-65.9506 55.3493-65.6122 43.2136-64.065C25.0343-61.6959 16.0413-55.6522 12.8986-43.7099C11.8833-39.8903 11.8833-30.3655 12.8503-25.5789C15.6062-12.573 25.131-4.83709 37.0249-5.99747C42.7301-6.52931 46.5497-8.31824 55.1559-14.4102C63.0852-20.0671 68.4036-22.1945 74.3022-22.1945C80.3943-22.1945 85.0358-20.2122 94.2705-13.685C100.991-8.94678 105.294-6.86776 109.984-6.14252C121.975-4.30524 131.693-11.1225 135.222-23.8867C135.658-25.4822 136.141-29.4952 136.286-32.8313C136.673-42.9363 134.884-48.8833 129.662-54.2984C123.715-60.4871 114.722-63.4848 98.2352-64.6935Z"/>
  </g>
  <g id="Ultralight-M" transform="matrix(1 0 0 1 486.506 1126)">
   <path d="M64.1086-75.5385C71.7961-75.7319 88.5733-75.3451 96.7444-74.8133C125.222-72.8309 139.92-64.2731 144.659-46.819C145.916-42.1775 145.916-28.1562 144.659-23.1278C142.725-15.2952 137.89-7.12421 132.716-2.82113C126.673 2.2072 121.161 4.14118 112.7 4.18952C103.707 4.18952 98.9684 2.44895 88.0898-4.9485C79.3386-10.9438 77.598-11.7174 73.5367-11.7657C69.4754-11.7657 67.6864-10.9438 59.1286-5.14189C52.3597-0.597057 47.0896 2.15885 43.0766 3.22254C36.4044 4.96311 28.2334 4.62467 22.4798 2.25555C14.7439-0.838804 7.87833-8.0912 4.34883-16.7457C-0.196005-28.0595-0.0993067-43.5312 4.68728-53.2978C7.97503-60.0184 12.81-64.5632 20.8359-68.3828C30.1674-72.8309 42.9799-74.91 64.1086-75.5385ZM97.4696-64.6599C80.8374-65.917 54.5838-65.5785 42.4481-64.0314C24.2687-61.6622 15.2758-55.6186 12.1331-43.6763C11.1177-39.8567 11.1177-30.3319 12.0847-25.5453C14.8406-12.5393 24.3654-4.80345 36.2594-5.96383C41.9646-6.49567 45.7842-8.2846 54.3904-14.3766C62.3197-20.0335 67.6381-22.1609 73.5367-22.1609C79.6287-22.1609 84.2702-20.1785 93.505-13.6514C100.226-8.91314 104.529-6.83412 109.218-6.10888C121.209-4.27161 130.927-11.0889 134.457-23.8531C134.892-25.4486 135.375-29.4616 135.521-32.7977C135.907-42.9027 134.118-48.8497 128.897-54.2648C122.95-60.4535 113.957-63.4512 97.4696-64.6599Z"/>
  </g>
  <g id="Black-S" transform="matrix(1 0 0 1 2871.66 696)">
   <path d="M54.4449-65.9604C60.4696-66.1119 73.6179-65.8088 80.0216-65.392C102.34-63.8384 113.858-57.1317 117.572-43.4529C118.557-39.8154 118.557-28.8269 117.572-24.8862C116.056-18.7478 112.267-12.3442 108.213-8.97183C103.476-5.03113 99.1567-3.51548 92.5257-3.47759C85.4779-3.47759 81.7646-4.84167 73.239-10.639C66.3807-15.3376 65.0166-15.9438 61.8337-15.9817C58.6509-15.9817 57.2489-15.3376 50.5421-10.7906C45.2373-7.22883 41.1072-5.06902 37.9622-4.23541C32.7332-2.87133 26.3296-3.13657 21.8205-4.99324C15.7579-7.41828 10.3773-13.102 7.61126-19.8845C4.04947-28.7511 4.12525-40.8763 7.87649-48.5304C10.4531-53.7972 14.2422-57.359 20.5322-60.3524C27.8452-63.8384 37.8864-65.4678 54.4449-65.9604ZM80.5899-57.4348C67.5553-58.42 46.9803-58.1547 37.4696-56.9422C23.2225-55.0856 16.1747-50.3491 13.7118-40.99C12.916-37.9966 12.916-30.532 13.6739-26.7807C15.8337-16.588 23.2983-10.5254 32.6195-11.4348C37.0907-11.8516 40.0841-13.2535 46.8288-18.0279C53.0429-22.4611 57.211-24.1284 61.8337-24.1284C66.608-24.1284 70.2456-22.5748 77.4828-17.4595C82.7497-13.7461 86.1221-12.1168 89.7975-11.5484C99.1946-10.1086 106.811-15.4512 109.577-25.4545C109.918-26.705 110.297-29.8499 110.41-32.4644C110.714-40.3837 109.312-45.0444 105.219-49.2882C100.559-54.1383 93.5109-56.4875 80.5899-57.4348Z"/>
  </g>
  <g id="Heavy-S" transform="matrix(1 0 0 1 2575.21 696)">
   <path d="M54.2089-66.1964C60.2336-66.3479 73.3819-66.0448 79.7855-65.628C102.104-64.0745 113.622-57.3677 117.336-43.6889C118.321-40.0514 118.321-29.0629 117.336-25.1222C115.82-18.9838 112.031-12.5802 107.977-9.20785C103.24-5.26715 98.9206-3.7515 92.2897-3.71361C85.2419-3.71361 81.5285-5.0777 73.003-10.8751C66.1447-15.5736 64.7806-16.1798 61.5977-16.2177C58.4148-16.2177 57.0129-15.5736 50.3061-11.0266C45.0013-7.46485 40.8712-5.30504 37.7262-4.47143C32.4972-3.10735 26.0935-3.37259 21.5845-5.22926C15.5219-7.6543 10.1413-13.338 7.37523-20.1205C3.81345-28.9871 3.88923-41.1123 7.64047-48.7664C10.2171-54.0333 14.0062-57.5951 20.2962-60.5885C27.6092-64.0745 37.6504-65.7038 54.2089-66.1964ZM80.3539-57.6708C67.3193-58.656 46.7443-58.3908 37.2336-57.1782C22.9865-55.3216 15.9387-50.5852 13.4757-41.226C12.68-38.2326 12.68-30.768 13.4378-27.0168C15.5976-16.824 23.0622-10.7614 32.3835-11.6708C36.8547-12.0876 39.8481-13.4896 46.5927-18.2639C52.8069-22.6972 56.975-24.3644 61.5977-24.3644C66.372-24.3644 70.0096-22.8108 77.2468-17.6955C82.5137-13.9822 85.886-12.3528 89.5615-11.7845C98.9585-10.3446 106.575-15.6873 109.341-25.6906C109.682-26.941 110.061-30.086 110.174-32.7005C110.477-40.6197 109.076-45.2804 104.983-49.5242C100.323-54.3743 93.2748-56.7236 80.3539-57.6708Z"/>
  </g>
  <g id="Bold-S" transform="matrix(1 0 0 1 2278.79 696)">
   <path d="M53.9449-66.4604C59.9696-66.6119 73.1179-66.3088 79.5216-65.892C101.84-64.3384 113.358-57.6317 117.072-43.9529C118.057-40.3154 118.057-29.3269 117.072-25.3862C115.556-19.2478 111.767-12.8442 107.713-9.47183C102.976-5.53113 98.6567-4.01548 92.0257-3.97759C84.9779-3.97759 81.2646-5.34167 72.739-11.139C65.8807-15.8376 64.5166-16.4438 61.3337-16.4817C58.1509-16.4817 56.7489-15.8376 50.0421-11.2906C44.7373-7.72883 40.6072-5.56902 37.4622-4.73541C32.2332-3.37133 25.8296-3.63657 21.3205-5.49324C15.2579-7.91828 9.87732-13.602 7.11126-20.3845C3.54947-29.2511 3.62525-41.3763 7.37649-49.0304C9.9531-54.2972 13.7422-57.859 20.0322-60.8524C27.3452-64.3384 37.3864-65.9678 53.9449-66.4604ZM80.0899-57.9348C67.0553-58.92 46.4803-58.6547 36.9696-57.4422C22.7225-55.5856 15.6747-50.8491 13.2118-41.49C12.416-38.4966 12.416-31.032 13.1739-27.2807C15.3337-17.088 22.7983-11.0254 32.1195-11.9348C36.5907-12.3516 39.5841-13.7535 46.3288-18.5279C52.5429-22.9611 56.711-24.6284 61.3337-24.6284C66.108-24.6284 69.7456-23.0748 76.9828-17.9595C82.2497-14.2461 85.6221-12.6168 89.2975-12.0484C98.6946-10.6086 106.311-15.9512 109.077-25.9545C109.418-27.205 109.797-30.3499 109.91-32.9644C110.214-40.8837 108.812-45.5444 104.719-49.7882C100.059-54.6383 93.0109-56.9875 80.0899-57.9348Z"/>
  </g>
  <g id="Semibold-S" transform="matrix(1 0 0 1 1982.27 696)">
   <path d="M53.7629-66.6424C59.7876-66.7939 72.9359-66.4908 79.3396-66.074C101.658-64.5204 113.176-57.8137 116.89-44.1349C117.875-40.4974 117.875-29.5089 116.89-25.5682C115.374-19.4298 111.585-13.0262 107.531-9.65383C102.794-5.71313 98.4747-4.19748 91.8437-4.15959C84.7959-4.15959 81.0826-5.52367 72.557-11.321C65.6987-16.0196 64.3346-16.6258 61.1517-16.6637C57.9689-16.6637 56.5669-16.0196 49.8601-11.4726C44.5553-7.91083 40.4252-5.75102 37.2802-4.91741C32.0512-3.55333 25.6476-3.81857 21.1385-5.67524C15.0759-8.10028 9.69532-13.784 6.92926-20.5665C3.36747-29.4331 3.44325-41.5583 7.19449-49.2124C9.7711-54.4792 13.5602-58.041 19.8502-61.0344C27.1632-64.5204 37.2044-66.1498 53.7629-66.6424ZM79.9079-58.1168C66.8733-59.102 46.2983-58.8367 36.7876-57.6242C22.5405-55.7676 15.4927-51.0311 13.0298-41.672C12.234-38.6786 12.234-31.214 12.9919-27.4627C15.1517-17.27 22.6163-11.2074 31.9375-12.1168C36.4087-12.5336 39.4021-13.9355 46.1468-18.7099C52.3609-23.1431 56.529-24.8104 61.1517-24.8104C65.926-24.8104 69.5636-23.2568 76.8008-18.1415C82.0677-14.4281 85.4401-12.7988 89.1155-12.2304C98.5126-10.7906 106.129-16.1332 108.895-26.1365C109.236-27.387 109.615-30.5319 109.728-33.1464C110.032-41.0657 108.63-45.7264 104.537-49.9702C99.8766-54.8203 92.8289-57.1695 79.9079-58.1168Z"/>
  </g>
  <g id="Medium-S" transform="matrix(1 0 0 1 1685.71 696)">
   <path d="M53.6249-66.7804C59.6496-66.9319 72.7979-66.6288 79.2016-66.212C101.52-64.6584 113.038-57.9517 116.752-44.2729C117.737-40.6354 117.737-29.6469 116.752-25.7062C115.236-19.5678 111.447-13.1642 107.393-9.79183C102.656-5.85113 98.3367-4.33548 91.7057-4.29759C84.6579-4.29759 80.9446-5.66167 72.419-11.459C65.5607-16.1576 64.1966-16.7638 61.0137-16.8017C57.8309-16.8017 56.4289-16.1576 49.7221-11.6106C44.4173-8.04883 40.2872-5.88902 37.1422-5.05541C31.9132-3.69133 25.5096-3.95657 21.0005-5.81324C14.9379-8.23828 9.55732-13.922 6.79126-20.7045C3.22947-29.5711 3.30525-41.6963 7.05649-49.3504C9.6331-54.6172 13.4222-58.179 19.7122-61.1724C27.0252-64.6584 37.0664-66.2878 53.6249-66.7804ZM79.7699-58.2548C66.7353-59.24 46.1603-58.9747 36.6496-57.7622C22.4025-55.9056 15.3547-51.1691 12.8918-41.81C12.096-38.8166 12.096-31.352 12.8539-27.6007C15.0137-17.408 22.4783-11.3454 31.7995-12.2548C36.2707-12.6716 39.2641-14.0735 46.0088-18.8479C52.2229-23.2811 56.391-24.9484 61.0137-24.9484C65.788-24.9484 69.4256-23.3948 76.6628-18.2795C81.9297-14.5661 85.3021-12.9368 88.9775-12.3684C98.3746-10.9286 105.991-16.2712 108.757-26.2745C109.098-27.525 109.477-30.6699 109.59-33.2844C109.894-41.2037 108.492-45.8644 104.399-50.1082C99.7386-54.9583 92.6909-57.3075 79.7699-58.2548Z"/>
  </g>
  <g id="Regular-S" transform="matrix(1 0 0 1 1389.2 696)">
   <path d="M53.4449-66.9604C59.4696-67.1119 72.6179-66.8088 79.0216-66.392C101.34-64.8384 112.858-58.1317 116.572-44.4529C117.557-40.8154 117.557-29.8269 116.572-25.8862C115.056-19.7478 111.267-13.3442 107.213-9.97183C102.476-6.03113 98.1567-4.51548 91.5257-4.47759C84.4779-4.47759 80.7646-5.84167 72.239-11.639C65.3807-16.3376 64.0166-16.9438 60.8337-16.9817C57.6509-16.9817 56.2489-16.3376 49.5421-11.7906C44.2373-8.22883 40.1072-6.06902 36.9622-5.23541C31.7332-3.87133 25.3296-4.13657 20.8205-5.99324C14.7579-8.41828 9.37732-14.102 6.61126-20.8845C3.04947-29.7511 3.12525-41.8763 6.87649-49.5304C9.4531-54.7972 13.2422-58.359 19.5322-61.3524C26.8452-64.8384 36.8864-66.4678 53.4449-66.9604ZM79.5899-58.4348C66.5553-59.42 45.9803-59.1547 36.4696-57.9422C22.2225-56.0856 15.1747-51.3491 12.7118-41.99C11.916-38.9966 11.916-31.532 12.6739-27.7807C14.8337-17.588 22.2983-11.5254 31.6195-12.4348C36.0907-12.8516 39.0841-14.2535 45.8288-19.0279C52.0429-23.4611 56.211-25.1284 60.8337-25.1284C65.608-25.1284 69.2456-23.5748 76.4828-18.4595C81.7497-14.7461 85.1221-13.1168 88.7975-12.5484C98.1946-11.1086 105.811-16.4512 108.577-26.4545C108.918-27.705 109.297-30.8499 109.41-33.4644C109.714-41.3837 108.312-46.0444 104.219-50.2882C99.5586-55.1383 92.5109-57.4875 79.5899-58.4348Z"/>
  </g>
  <g id="Light-S" transform="matrix(1 0 0 1 1093.51 696)">
   <path d="M52.4452-66.9164C58.4699-67.068 71.6182-66.7649 78.0219-66.3481C100.34-64.7945 111.859-58.0878 115.572-44.409C116.557-40.7714 116.557-29.7829 115.572-25.8423C114.056-19.7039 110.267-13.3002 106.213-9.9279C101.477-5.9872 97.157-4.47155 90.526-4.43366C83.4782-4.43366 79.7649-5.79775 71.2393-11.5951C64.381-16.2936 63.0169-16.8999 59.834-16.9378C56.6512-16.9378 55.2492-16.2936 48.5424-11.7467C43.2376-8.1849 39.1075-6.0251 35.9625-5.19149C30.7335-3.8274 24.3299-4.09264 19.8208-5.94931C13.7582-8.37436 8.37762-14.0581 5.61156-20.8406C2.04977-29.7072 2.12555-41.8324 5.87679-49.4864C8.4534-54.7533 12.2425-58.3151 18.5325-61.3085C25.8455-64.7945 35.8867-66.4238 52.4452-66.9164ZM78.5902-58.3909C65.5556-59.3761 44.9806-59.1108 35.4699-57.8983C21.2228-56.0416 14.175-51.3052 11.7121-41.9461C10.9163-38.9526 10.9163-31.4881 11.6742-27.7368C13.834-17.5441 21.2986-11.4814 30.6198-12.3908C35.091-12.8076 38.0844-14.2096 44.8291-18.9839C51.0432-23.4172 55.2113-25.0844 59.834-25.0844C64.6083-25.0844 68.2459-23.5309 75.4831-18.4156C80.75-14.7022 84.1224-13.0729 87.7978-12.5045C97.1949-11.0646 104.811-16.4073 107.577-26.4106C107.918-27.661 108.297-30.806 108.411-33.4205C108.714-41.3398 107.312-46.0004 103.22-50.2443C98.5589-55.0943 91.5112-57.4436 78.5902-58.3909Z"/>
  </g>
  <g id="Thin-S" transform="matrix(1 0 0 1 798.151 696)">
   <path d="M51.123-66.8583C57.1478-67.0099 70.296-66.7068 76.6997-66.29C99.0177-64.7364 110.537-58.0297 114.25-44.3509C115.235-40.7133 115.235-29.7249 114.25-25.7842C112.734-19.6458 108.945-13.2421 104.891-9.86981C100.154-5.92911 95.8348-4.41346 89.2038-4.37557C82.156-4.37557 78.4427-5.73965 69.9171-11.537C63.0588-16.2355 61.6947-16.8418 58.5118-16.8797C55.329-16.8797 53.927-16.2355 47.2202-11.6886C41.9154-8.1268 37.7853-5.967 34.6403-5.13339C29.4113-3.7693 23.0077-4.03454 18.4986-5.89122C12.436-8.31626 7.05544-14 4.28937-20.7825C0.727589-29.6491 0.803371-41.7743 4.55461-49.4283C7.13122-54.6952 10.9204-58.257 17.2103-61.2504C24.5233-64.7364 34.5645-66.3658 51.123-66.8583ZM77.268-58.3328C64.2334-59.318 43.6584-59.0527 34.1477-57.8402C19.9006-55.9835 12.8528-51.2471 10.3899-41.888C9.59416-38.8945 9.59416-31.43 10.352-27.6787C12.5118-17.486 19.9764-11.4233 29.2976-12.3327C33.7688-12.7495 36.7622-14.1515 43.5069-18.9258C49.7211-23.3591 53.8891-25.0263 58.5118-25.0263C63.2861-25.0263 66.9237-23.4728 74.161-18.3575C79.4278-14.6441 82.8002-13.0148 86.4756-12.4464C95.8727-11.0065 103.489-16.3492 106.255-26.3525C106.596-27.6029 106.975-30.7479 107.088-33.3624C107.392-41.2817 105.99-45.9423 101.897-50.1862C97.2368-55.0362 90.189-57.3855 77.268-58.3328Z"/>
  </g>
  <g id="Ultralight-S" transform="matrix(1 0 0 1 502.132 696)">
   <path d="M50.4458-66.8286C56.4705-66.9801 69.6188-66.677 76.0225-66.2602C98.3404-64.7067 109.859-57.9999 113.573-44.3211C114.558-40.6836 114.558-29.6951 113.573-25.7544C112.057-19.616 108.268-13.2124 104.214-9.84005C99.4772-5.89935 95.1576-4.3837 88.5266-4.34581C81.4788-4.34581 77.7655-5.7099 69.2399-11.5073C62.3816-16.2058 61.0175-16.812 57.8346-16.8499C54.6518-16.8499 53.2498-16.2058 46.543-11.6588C41.2382-8.09705 37.1081-5.93724 33.9631-5.10363C28.7341-3.73955 22.3305-4.00479 17.8214-5.86146C11.7588-8.2865 6.37822-13.9702 3.61216-20.7527C0.0503726-29.6193 0.126155-41.7445 3.8774-49.3986C6.454-54.6655 10.2431-58.2273 16.5331-61.2207C23.8461-64.7067 33.8873-66.336 50.4458-66.8286ZM76.5908-58.303C63.5562-59.2882 42.9812-59.023 33.4705-57.8104C19.2234-55.9538 12.1756-51.2174 9.71266-41.8582C8.91694-38.8648 8.91694-31.4002 9.67477-27.649C11.8346-17.4562 19.2992-11.3936 28.6204-12.303C33.0916-12.7198 36.085-14.1218 42.8297-18.8961C49.0438-23.3294 53.2119-24.9966 57.8346-24.9966C62.6089-24.9966 66.2465-23.443 73.4837-18.3277C78.7506-14.6144 82.123-12.985 85.7984-12.4167C95.1955-10.9768 102.812-16.3195 105.578-26.3228C105.919-27.5732 106.298-30.7182 106.411-33.3327C106.714-41.2519 105.312-45.9126 101.22-50.1564C96.5595-55.0065 89.5118-57.3558 76.5908-58.303Z"/>
  </g>
 </g>
</svg>
