<?xml version="1.0" encoding="UTF-8"?>
<!--Generator: Apple Native CoreSVG 232.5-->
<!DOCTYPE svg
PUBLIC "-//W3C//DTD SVG 1.1//EN"
       "http://www.w3.org/Graphics/SVG/1.1/DTD/svg11.dtd">
<svg version="1.1" xmlns="http://www.w3.org/2000/svg" xmlns:xlink="http://www.w3.org/1999/xlink" width="3300" height="2200">
 <g id="Notes">
  <rect height="2200" id="artboard" style="fill:white;opacity:1" width="3300" x="0" y="0"/>
  <line style="fill:none;stroke:black;opacity:1;stroke-width:0.5;" x1="263" x2="3036" y1="292" y2="292"/>
  <text style="stroke:none;fill:black;font-family:sans-serif;font-size:13;font-weight:bold;" transform="matrix(1 0 0 1 263 322)">Weight/Scale Variations</text>
  <text style="stroke:none;fill:black;font-family:sans-serif;font-size:13;text-anchor:middle;" transform="matrix(1 0 0 1 559.711 322)">Ultralight</text>
  <text style="stroke:none;fill:black;font-family:sans-serif;font-size:13;text-anchor:middle;" transform="matrix(1 0 0 1 856.422 322)">Thin</text>
  <text style="stroke:none;fill:black;font-family:sans-serif;font-size:13;text-anchor:middle;" transform="matrix(1 0 0 1 1153.13 322)">Light</text>
  <text style="stroke:none;fill:black;font-family:sans-serif;font-size:13;text-anchor:middle;" transform="matrix(1 0 0 1 1449.84 322)">Regular</text>
  <text style="stroke:none;fill:black;font-family:sans-serif;font-size:13;text-anchor:middle;" transform="matrix(1 0 0 1 1746.56 322)">Medium</text>
  <text style="stroke:none;fill:black;font-family:sans-serif;font-size:13;text-anchor:middle;" transform="matrix(1 0 0 1 2043.27 322)">Semibold</text>
  <text style="stroke:none;fill:black;font-family:sans-serif;font-size:13;text-anchor:middle;" transform="matrix(1 0 0 1 2339.98 322)">Bold</text>
  <text style="stroke:none;fill:black;font-family:sans-serif;font-size:13;text-anchor:middle;" transform="matrix(1 0 0 1 2636.69 322)">Heavy</text>
  <text style="stroke:none;fill:black;font-family:sans-serif;font-size:13;text-anchor:middle;" transform="matrix(1 0 0 1 2933.4 322)">Black</text>
  <line style="fill:none;stroke:black;opacity:1;stroke-width:0.5;" x1="263" x2="3036" y1="1903" y2="1903"/>
  <g transform="matrix(0.2 0 0 0.2 263 1933)">
   <path d="m46.2402 4.15039c21.5332 0 39.4531-17.8711 39.4531-39.4043s-17.9688-39.4043-39.502-39.4043c-21.4844 0-39.3555 17.8711-39.3555 39.4043s17.9199 39.4043 39.4043 39.4043Zm0-7.42188c-17.7246 0-31.8848-14.209-31.8848-31.9824s14.1113-31.9824 31.8359-31.9824c17.7734 0 32.0312 14.209 32.0312 31.9824s-14.209 31.9824-31.9824 31.9824Zm-17.9688-31.9824c0 2.14844 1.51367 3.61328 3.75977 3.61328h10.498v10.5957c0 2.19727 1.46484 3.71094 3.61328 3.71094 2.24609 0 3.71094-1.51367 3.71094-3.71094v-10.5957h10.5957c2.19727 0 3.71094-1.46484 3.71094-3.61328 0-2.19727-1.51367-3.71094-3.71094-3.71094h-10.5957v-10.5469c0-2.24609-1.46484-3.75977-3.71094-3.75977-2.14844 0-3.61328 1.51367-3.61328 3.75977v10.5469h-10.498c-2.24609 0-3.75977 1.51367-3.75977 3.71094Z"/>
  </g>
  <g transform="matrix(0.2 0 0 0.2 281.506 1933)">
   <path d="m58.5449 14.5508c27.2461 0 49.8047-22.6074 49.8047-49.8047 0-27.2461-22.6074-49.8047-49.8535-49.8047-27.1973 0-49.7559 22.5586-49.7559 49.8047 0 27.1973 22.6074 49.8047 49.8047 49.8047Zm0-8.30078c-23.0469 0-41.4551-18.457-41.4551-41.5039s18.3594-41.5039 41.4062-41.5039 41.5527 18.457 41.5527 41.5039-18.457 41.5039-41.5039 41.5039Zm-22.6562-41.5039c0 2.39258 1.66016 4.00391 4.15039 4.00391h14.3555v14.4043c0 2.44141 1.66016 4.15039 4.05273 4.15039 2.44141 0 4.15039-1.66016 4.15039-4.15039v-14.4043h14.4043c2.44141 0 4.15039-1.61133 4.15039-4.00391 0-2.44141-1.70898-4.15039-4.15039-4.15039h-14.4043v-14.3555c0-2.49023-1.70898-4.19922-4.15039-4.19922-2.39258 0-4.05273 1.70898-4.05273 4.19922v14.3555h-14.3555c-2.49023 0-4.15039 1.70898-4.15039 4.15039Z"/>
  </g>
  <g transform="matrix(0.2 0 0 0.2 304.924 1933)">
   <path d="m74.8535 28.3203c34.8145 0 63.623-28.8086 63.623-63.5742 0-34.8145-28.8574-63.623-63.6719-63.623-34.7656 0-63.5254 28.8086-63.5254 63.623 0 34.7656 28.8086 63.5742 63.5742 63.5742Zm0-9.08203c-30.1758 0-54.4434-24.3164-54.4434-54.4922 0-30.2246 24.2188-54.4922 54.3945-54.4922 30.2246 0 54.541 24.2676 54.541 54.4922 0 30.1758-24.2676 54.4922-54.4922 54.4922Zm-28.8574-54.4922c0 2.58789 1.85547 4.39453 4.58984 4.39453h19.7266v19.7754c0 2.68555 1.85547 4.58984 4.44336 4.58984 2.68555 0 4.54102-1.85547 4.54102-4.58984v-19.7754h19.7754c2.68555 0 4.58984-1.80664 4.58984-4.39453 0-2.73438-1.85547-4.58984-4.58984-4.58984h-19.7754v-19.7266c0-2.73438-1.85547-4.63867-4.54102-4.63867-2.58789 0-4.44336 1.9043-4.44336 4.63867v19.7266h-19.7266c-2.73438 0-4.58984 1.85547-4.58984 4.58984Z"/>
  </g>
  <text style="stroke:none;fill:black;font-family:sans-serif;font-size:13;font-weight:bold;" transform="matrix(1 0 0 1 263 1953)">Design Variations</text>
  <text style="stroke:none;fill:black;font-family:sans-serif;font-size:13;" transform="matrix(1 0 0 1 263 1971)">Symbols are supported in up to nine weights and three scales.</text>
  <text style="stroke:none;fill:black;font-family:sans-serif;font-size:13;" transform="matrix(1 0 0 1 263 1989)">For optimal layout with text and other symbols, vertically align</text>
  <text style="stroke:none;fill:black;font-family:sans-serif;font-size:13;" transform="matrix(1 0 0 1 263 2007)">symbols with the adjacent text.</text>
  <line style="fill:none;stroke:#00AEEF;stroke-width:0.5;opacity:1.0;" x1="776" x2="776" y1="1919" y2="1933"/>
  <g transform="matrix(0.2 0 0 0.2 776 1933)">
   <path d="m16.5527 0.78125c2.58789 0 3.85742-0.976562 4.78516-3.71094l6.29883-17.2363h28.8086l6.29883 17.2363c0.927734 2.73438 2.19727 3.71094 4.73633 3.71094 2.58789 0 4.24805-1.5625 4.24805-4.00391 0-0.830078-0.146484-1.61133-0.537109-2.63672l-22.9004-60.9863c-1.12305-2.97852-3.125-4.49219-6.25-4.49219-3.02734 0-5.07812 1.46484-6.15234 4.44336l-22.9004 61.084c-0.390625 1.02539-0.537109 1.80664-0.537109 2.63672 0 2.44141 1.5625 3.95508 4.10156 3.95508Zm13.4766-28.3691 11.8652-32.8613h0.244141l11.8652 32.8613Z"/>
  </g>
  <line style="fill:none;stroke:#00AEEF;stroke-width:0.5;opacity:1.0;" x1="792.836" x2="792.836" y1="1919" y2="1933"/>
  <text style="stroke:none;fill:black;font-family:sans-serif;font-size:13;font-weight:bold;" transform="matrix(1 0 0 1 776 1953)">Margins</text>
  <text style="stroke:none;fill:black;font-family:sans-serif;font-size:13;" transform="matrix(1 0 0 1 776 1971)">Leading and trailing margins on the left and right side of each symbol</text>
  <text style="stroke:none;fill:black;font-family:sans-serif;font-size:13;" transform="matrix(1 0 0 1 776 1989)">can be adjusted by modifying the x-location of the margin guidelines.</text>
  <text style="stroke:none;fill:black;font-family:sans-serif;font-size:13;" transform="matrix(1 0 0 1 776 2007)">Modifications are automatically applied proportionally to all</text>
  <text style="stroke:none;fill:black;font-family:sans-serif;font-size:13;" transform="matrix(1 0 0 1 776 2025)">scales and weights.</text>
  <g transform="matrix(0.2 0 0 0.2 1289 1933)">
   <path d="m14.209 9.32617 8.49609 8.54492c4.29688 4.3457 9.22852 4.05273 13.8672-1.07422l53.4668-58.9355-4.83398-4.88281-53.0762 58.3984c-1.75781 2.00195-3.41797 2.49023-5.76172 0.146484l-5.85938-5.81055c-2.34375-2.29492-1.80664-4.00391 0.195312-5.81055l57.373-54.0039-4.88281-4.83398-57.959 54.4434c-4.93164 4.58984-5.32227 9.47266-1.02539 13.8184Zm32.0801-90.9668c-2.09961 2.05078-2.24609 4.93164-1.07422 6.88477 1.17188 1.80664 3.4668 2.97852 6.68945 2.14844 7.32422-1.70898 14.9414-2.00195 22.0703 2.68555l-2.92969 7.27539c-1.70898 4.15039-0.830078 7.08008 1.85547 9.81445l11.4746 11.5723c2.44141 2.44141 4.49219 2.53906 7.32422 2.05078l5.32227-0.976562 3.32031 3.36914-0.195312 2.7832c-0.195312 2.49023 0.439453 4.39453 2.88086 6.78711l3.80859 3.71094c2.39258 2.39258 5.46875 2.53906 7.8125 0.195312l14.5508-14.5996c2.34375-2.34375 2.24609-5.32227-0.146484-7.71484l-3.85742-3.80859c-2.39258-2.39258-4.24805-3.17383-6.64062-2.97852l-2.88086 0.244141-3.22266-3.17383 1.2207-5.61523c0.634766-2.83203-0.146484-5.0293-3.07617-7.95898l-10.9863-10.9375c-16.6992-16.6016-38.8672-16.2109-53.3203-1.75781Zm7.4707 1.85547c12.1582-8.88672 28.6133-7.37305 39.7461 3.75977l12.1582 12.0605c1.17188 1.17188 1.36719 2.09961 1.02539 3.80859l-1.61133 7.42188 7.51953 7.42188 4.93164-0.292969c1.26953-0.0488281 1.66016 0.0488281 2.63672 1.02539l2.88086 2.88086-12.207 12.207-2.88086-2.88086c-0.976562-0.976562-1.12305-1.36719-1.07422-2.68555l0.341797-4.88281-7.4707-7.42188-7.61719 1.26953c-1.61133 0.341797-2.34375 0.195312-3.56445-0.976562l-10.0098-10.0098c-1.26953-1.17188-1.41602-2.00195-0.634766-3.85742l4.39453-10.4492c-7.8125-7.27539-17.9688-10.4004-28.125-7.42188-0.78125 0.195312-1.07422-0.439453-0.439453-0.976562Z"/>
  </g>
  <text style="stroke:none;fill:black;font-family:sans-serif;font-size:13;font-weight:bold;" transform="matrix(1 0 0 1 1289 1953)">Exporting</text>
  <text style="stroke:none;fill:black;font-family:sans-serif;font-size:13;" transform="matrix(1 0 0 1 1289 1971)">Symbols should be outlined when exporting to ensure the</text>
  <text style="stroke:none;fill:black;font-family:sans-serif;font-size:13;" transform="matrix(1 0 0 1 1289 1989)">design is preserved when submitting to Xcode.</text>
  <text id="template-version" style="stroke:none;fill:black;font-family:sans-serif;font-size:13;text-anchor:end;" transform="matrix(1 0 0 1 3036 1933)">Template v.2.0</text>
  <text style="stroke:none;fill:black;font-family:sans-serif;font-size:13;text-anchor:end;" transform="matrix(1 0 0 1 3036 1951)">Requires Xcode 12 or greater</text>
  <text id="descriptive-name" style="stroke:none;fill:black;font-family:sans-serif;font-size:13;text-anchor:end;" transform="matrix(1 0 0 1 3036 1969)">Generated from roundedcorners</text>
  <text style="stroke:none;fill:black;font-family:sans-serif;font-size:13;text-anchor:end;" transform="matrix(1 0 0 1 3036 1987)">Typeset at 100.0 points</text>
  <text style="stroke:none;fill:black;font-family:sans-serif;font-size:13;" transform="matrix(1 0 0 1 263 726)">Small</text>
  <text style="stroke:none;fill:black;font-family:sans-serif;font-size:13;" transform="matrix(1 0 0 1 263 1156)">Medium</text>
  <text style="stroke:none;fill:black;font-family:sans-serif;font-size:13;" transform="matrix(1 0 0 1 263 1586)">Large</text>
 </g>
 <g id="Guides">
  <g id="H-reference" style="fill:#27AAE1;stroke:none;" transform="matrix(1 0 0 1 339 696)">
   <path d="M0.993654 0L3.63775 0L29.3281-67.1323L30.0303-67.1323L30.0303-70.459L28.1226-70.459ZM11.6885-24.4799L46.9815-24.4799L46.2315-26.7285L12.4385-26.7285ZM55.1196 0L57.7637 0L30.6382-70.459L29.4326-70.459L29.4326-67.1323Z"/>
  </g>
  <line id="Baseline-S" style="fill:none;stroke:#27AAE1;opacity:1;stroke-width:0.5;" x1="263" x2="3036" y1="696" y2="696"/>
  <line id="Capline-S" style="fill:none;stroke:#27AAE1;opacity:1;stroke-width:0.5;" x1="263" x2="3036" y1="625.541" y2="625.541"/>
  <g id="H-reference" style="fill:#27AAE1;stroke:none;" transform="matrix(1 0 0 1 339 1126)">
   <path d="M0.993654 0L3.63775 0L29.3281-67.1323L30.0303-67.1323L30.0303-70.459L28.1226-70.459ZM11.6885-24.4799L46.9815-24.4799L46.2315-26.7285L12.4385-26.7285ZM55.1196 0L57.7637 0L30.6382-70.459L29.4326-70.459L29.4326-67.1323Z"/>
  </g>
  <line id="Baseline-M" style="fill:none;stroke:#27AAE1;opacity:1;stroke-width:0.5;" x1="263" x2="3036" y1="1126" y2="1126"/>
  <line id="Capline-M" style="fill:none;stroke:#27AAE1;opacity:1;stroke-width:0.5;" x1="263" x2="3036" y1="1055.54" y2="1055.54"/>
  <g id="H-reference" style="fill:#27AAE1;stroke:none;" transform="matrix(1 0 0 1 339 1556)">
   <path d="M0.993654 0L3.63775 0L29.3281-67.1323L30.0303-67.1323L30.0303-70.459L28.1226-70.459ZM11.6885-24.4799L46.9815-24.4799L46.2315-26.7285L12.4385-26.7285ZM55.1196 0L57.7637 0L30.6382-70.459L29.4326-70.459L29.4326-67.1323Z"/>
  </g>
  <line id="Baseline-L" style="fill:none;stroke:#27AAE1;opacity:1;stroke-width:0.5;" x1="263" x2="3036" y1="1556" y2="1556"/>
  <line id="Capline-L" style="fill:none;stroke:#27AAE1;opacity:1;stroke-width:0.5;" x1="263" x2="3036" y1="1485.54" y2="1485.54"/>
  <line id="left-margin" style="fill:none;stroke:#00AEEF;stroke-width:0.5;opacity:1.0;" x1="1379.41" x2="1379.41" y1="1030.79" y2="1150.12"/>
  <line id="right-margin" style="fill:none;stroke:#00AEEF;stroke-width:0.5;opacity:1.0;" x1="1520.28" x2="1520.28" y1="1030.79" y2="1150.12"/>
 </g>
 <g id="Symbols">
  <g id="Black-L" transform="matrix(1 0 0 1 2837.09 1556)">
   <path d="M37.3608-48.9115L70.2941-48.9115C96.0154-48.9115 110.031-34.8403 110.031-9.09191L110.031 22.5782L37.3608 22.5782L37.3608-48.9115L37.3608-48.9115ZM37.3608-90.8455L72.1226-90.8455C124.29-90.8455 151.965-62.4453 151.965-11.085L151.965 22.5782L37.3608 22.5782L37.3608-90.8455ZM37.3608-73.1084L37.3608 22.5782L134.256 22.5782L134.256-10.1683C134.256-51.7661 111.381-73.1084 71.3425-73.1084L37.3608-73.1084L37.3608-73.1084Z"/>
  </g>
  <g id="Heavy-L" transform="matrix(1 0 0 1 2541.65 1556)">
   <path d="M36.8225-48.9271L69.7319-48.9271C95.4346-48.9271 109.44-34.8662 109.44-9.13639L109.44 22.5108L36.8225 22.5108L36.8225-48.9271L36.8225-48.9271ZM36.8225-90.8308L71.5592-90.8308C123.689-90.8308 151.343-62.4511 151.343-11.128L151.343 22.5108L36.8225 22.5108L36.8225-90.8308ZM36.8225-73.1065L36.8225 22.5108L133.647 22.5108L133.647-10.212C133.647-51.7797 110.789-73.1065 70.7796-73.1065L36.8225-73.1065L36.8225-73.1065Z"/>
  </g>
  <g id="Bold-L" transform="matrix(1 0 0 1 2246.34 1556)">
   <path d="M36.0652-48.9499L68.9368-48.9499C94.6098-48.9499 108.6-34.9051 108.6-9.20498L108.6 22.4058L36.0652 22.4058L36.0652-48.9499L36.0652-48.9499ZM36.0652-90.8053L70.7619-90.8053C122.832-90.8053 150.454-62.4583 150.454-11.1943L150.454 22.4058L36.0652 22.4058L36.0652-90.8053ZM36.0652-73.1015L36.0652 22.4058L132.778 22.4058L132.778-10.2793C132.778-51.7992 109.947-73.1015 69.9832-73.1015L36.0652-73.1015L36.0652-73.1015Z"/>
  </g>
  <g id="Semibold-L" transform="matrix(1 0 0 1 1950.59 1556)">
   <path d="M35.5432-48.9656L68.3886-48.9656C94.0412-48.9656 108.02-34.932 108.02-9.25226L108.02 22.3334L35.5432 22.3334L35.5432-48.9656L35.5432-48.9656ZM35.5432-90.7877L70.2122-90.7877C122.241-90.7877 149.841-62.4633 149.841-11.24L149.841 22.3334L35.5432 22.3334L35.5432-90.7877ZM35.5432-73.098L35.5432 22.3334L132.179 22.3334L132.179-10.3258C132.179-51.8126 109.366-73.098 69.4342-73.098L35.5432-73.098L35.5432-73.098Z"/>
  </g>
  <g id="Medium-L" transform="matrix(1 0 0 1 1654.61 1556)">
   <path d="M35.1473-48.9775L67.9729-48.9775C93.6101-48.9775 107.58-34.9524 107.58-9.28812L107.58 22.2785L35.1473 22.2785L35.1473-48.9775L35.1473-48.9775ZM35.1473-90.7744L69.7955-90.7744C121.793-90.7744 149.376-62.467 149.376-11.2747L149.376 22.2785L35.1473 22.2785L35.1473-90.7744ZM35.1473-73.0953L35.1473 22.2785L131.725 22.2785L131.725-10.361C131.725-51.8228 108.925-73.0953 69.0179-73.0953L35.1473-73.0953L35.1473-73.0953Z"/>
  </g>
  <g id="Regular-L" transform="matrix(1 0 0 1 1358.85 1556)">
   <path d="M34.631-48.993L67.4307-48.993C93.0477-48.993 107.007-34.9789 107.007-9.33488L107.007 22.2069L34.631 22.2069L34.631-48.993L34.631-48.993ZM34.631-90.7571L69.2519-90.7571C121.208-90.7571 148.77-62.472 148.77-11.3199L148.77 22.2069L34.631 22.2069L34.631-90.7571ZM34.631-73.0919L34.631 22.2069L131.133 22.2069L131.133-10.4069C131.133-51.8361 108.351-73.0919 68.4749-73.0919L34.631-73.0919L34.631-73.0919Z"/>
  </g>
  <g id="Light-L" transform="matrix(1 0 0 1 1062.04 1556)">
   <path d="M33.5248-49.0309L66.2447-49.0309C91.7994-49.0309 105.725-35.0508 105.725-9.46917L105.725 21.9959L33.5248 21.9959L33.5248-49.0309L33.5248-49.0309ZM33.5248-90.6933L68.0615-90.6933C119.891-90.6933 147.386-62.477 147.386-11.4493L147.386 21.9959L33.5248 21.9959L33.5248-90.6933ZM33.5248-73.0711L33.5248 21.9959L129.792 21.9959L129.792-10.5386C129.792-51.867 107.065-73.0711 67.2864-73.0711L33.5248-73.0711L33.5248-73.0711Z"/>
  </g>
  <g id="Thin-L" transform="matrix(1 0 0 1 765.192 1556)">
   <path d="M32.0617-49.0809L64.6761-49.0809C90.1484-49.0809 104.029-35.1459 104.029-9.64679L104.029 21.7168L32.0617 21.7168L32.0617-49.0809L32.0617-49.0809ZM32.0617-90.6089L66.487-90.6089C118.15-90.6089 145.556-62.4836 145.556-11.6205L145.556 21.7168L32.0617 21.7168L32.0617-90.6089ZM32.0617-73.0435L32.0617 21.7168L128.018 21.7168L128.018-10.7127C128.018-51.9079 105.365-73.0435 65.7144-73.0435L32.0617-73.0435L32.0617-73.0435Z"/>
  </g>
  <g id="Ultralight-L" transform="matrix(1 0 0 1 468.411 1556)">
   <path d="M31.3124-49.1065L63.8727-49.1065C89.3028-49.1065 103.16-35.1946 103.16-9.73776L103.16 21.5738L31.3124 21.5738L31.3124-49.1065L31.3124-49.1065ZM31.3124-90.5657L65.6806-90.5657C117.257-90.5657 144.619-62.487 144.619-11.7082L144.619 21.5738L31.3124 21.5738L31.3124-90.5657ZM31.3124-73.0294L31.3124 21.5738L127.11 21.5738L127.11-10.8019C127.11-51.9288 104.494-73.0294 64.9093-73.0294L31.3124-73.0294L31.3124-73.0294Z"/>
  </g>
  <g id="Black-M" transform="matrix(1 0 0 1 2857.69 1126)">
   <path d="M29.2577-45.8212L54.7822-45.8212C74.7171-45.8212 85.5801-34.9155 85.5801-14.9596L85.5801 9.58595L29.2577 9.58595L29.2577-45.8212L29.2577-45.8212ZM29.2577-78.3216L56.1994-78.3216C96.6312-78.3216 118.08-56.3104 118.08-16.5043L118.08 9.58595L29.2577 9.58595L29.2577-78.3216ZM29.2577-64.5747L29.2577 9.58595L104.355 9.58595L104.355-15.7938C104.355-48.0337 86.626-64.5747 55.5948-64.5747L29.2577-64.5747L29.2577-64.5747Z"/>
  </g>
  <g id="Heavy-M" transform="matrix(1 0 0 1 2562.22 1126)">
   <path d="M28.8336-45.833L54.3421-45.833C74.2645-45.833 85.1207-34.9342 85.1207-14.9907L85.1207 9.5395L28.8336 9.5395L28.8336-45.833L28.8336-45.833ZM28.8336-78.3131L55.7584-78.3131C96.1649-78.3131 117.6-56.3156 117.6-16.5344L117.6 9.5395L28.8336 9.5395L28.8336-78.3131ZM28.8336-64.5748L28.8336 9.5395L103.884 9.5395L103.884-15.8244C103.884-48.0441 86.1659-64.5748 55.1541-64.5748L28.8336-64.5748L28.8336-64.5748Z"/>
  </g>
  <g id="Bold-M" transform="matrix(1 0 0 1 2266.9 1126)">
   <path d="M28.3591-45.8462L53.8497-45.8462C73.7582-45.8462 84.6068-34.955 84.6068-15.0255L84.6068 9.48754L28.3591 9.48754L28.3591-45.8462L28.3591-45.8462ZM28.3591-78.3035L55.2651-78.3035C95.6433-78.3035 117.064-56.3214 117.064-16.5681L117.064 9.48754L28.3591 9.48754L28.3591-78.3035ZM28.3591-64.5748L28.3591 9.48754L103.356 9.48754L103.356-15.8586C103.356-48.0557 85.6513-64.5748 54.6612-64.5748L28.3591-64.5748L28.3591-64.5748Z"/>
  </g>
  <g id="Semibold-M" transform="matrix(1 0 0 1 1971.15 1126)">
   <path d="M28.032-45.8553L53.5103-45.8553C73.4092-45.8553 84.2525-34.9693 84.2525-15.0494L84.2525 9.45172L28.032 9.45172L28.032-45.8553L28.032-45.8553ZM28.032-78.2969L54.925-78.2969C95.2836-78.2969 116.694-56.3255 116.694-16.5913L116.694 9.45172L28.032 9.45172L28.032-78.2969ZM28.032-64.5749L28.032 9.45172L102.993 9.45172L102.993-15.8822C102.993-48.0637 85.2965-64.5749 54.3214-64.5749L28.032-64.5749L28.032-64.5749Z"/>
  </g>
  <g id="Medium-M" transform="matrix(1 0 0 1 1675.17 1126)">
   <path d="M27.784-45.8622L53.253-45.8622C73.1445-45.8622 83.9839-34.9802 83.9839-15.0676L83.9839 9.42456L27.784 9.42456L27.784-45.8622L27.784-45.8622ZM27.784-78.2919L54.6671-78.2919C95.011-78.2919 116.413-56.3285 116.413-16.6089L116.413 9.42456L27.784 9.42456L27.784-78.2919ZM27.784-64.5749L27.784 9.42456L102.718 9.42456L102.718-15.9C102.718-48.0698 85.0275-64.5749 54.0638-64.5749L27.784-64.5749L27.784-64.5749Z"/>
  </g>
  <g id="Regular-M" transform="matrix(1 0 0 1 1379.41 1126)">
   <path d="M27.4604-45.8712L52.9173-45.8712C72.7993-45.8712 83.6335-34.9944 83.6335-15.0913L83.6335 9.38913L27.4604 9.38913L27.4604-45.8712L27.4604-45.8712ZM27.4604-78.2854L54.3307-78.2854C94.6553-78.2854 116.047-56.3325 116.047-16.6319L116.047 9.38913L27.4604 9.38913L27.4604-78.2854ZM27.4604-64.5749L27.4604 9.38913L102.358 9.38913L102.358-15.9233C102.358-48.0777 84.6766-64.5749 53.7277-64.5749L27.4604-64.5749L27.4604-64.5749Z"/>
  </g>
  <g id="Light-M" transform="matrix(1 0 0 1 1082.61 1126)">
   <path d="M26.4687-45.905L51.8539-45.905C71.6802-45.905 82.4839-35.0589 82.4839-15.2117L82.4839 9.19994L26.4687 9.19994L26.4687-45.905L26.4687-45.905ZM26.4687-78.2282L53.2634-78.2282C93.4747-78.2282 114.806-56.337 114.806-16.748L114.806 9.19994L26.4687 9.19994L26.4687-78.2282ZM26.4687-64.5563L26.4687 9.19994L101.156 9.19994L101.156-16.0414C101.156-48.1054 83.5241-64.5563 52.6621-64.5563L26.4687-64.5563L26.4687-64.5563Z"/>
  </g>
  <g id="Thin-M" transform="matrix(1 0 0 1 785.772 1126)">
   <path d="M25.157-45.9499L50.4476-45.9499C70.1999-45.9499 80.9634-35.1441 80.9634-15.371L80.9634 8.94971L25.157 8.94971L25.157-45.9499L25.157-45.9499ZM25.157-78.1525L51.8519-78.1525C91.9132-78.1525 113.165-56.343 113.165-16.9015L113.165 8.94971L25.157 8.94971L25.157-78.1525ZM25.157-64.5316L25.157 8.94971L99.5659 8.94971L99.5659-16.1976C99.5659-48.1421 81.9997-64.5316 51.2528-64.5316L25.157-64.5316L25.157-64.5316Z"/>
  </g>
  <g id="Ultralight-M" transform="matrix(1 0 0 1 488.998 1126)">
   <path d="M24.4851-45.9728L49.7273-45.9728C69.4418-45.9728 80.1846-35.1878 80.1846-15.4525L80.1846 8.82154L24.4851 8.82154L24.4851-45.9728L24.4851-45.9728ZM24.4851-78.1138L51.1289-78.1138C91.1135-78.1138 112.325-56.346 112.325-16.9801L112.325 8.82154L24.4851 8.82154L24.4851-78.1138ZM24.4851-64.5189L24.4851 8.82154L98.7515 8.82154L98.7515-16.2775C98.7515-48.1608 81.2189-64.5189 50.5309-64.5189L24.4851-64.5189L24.4851-64.5189Z"/>
  </g>
  <g id="Black-S" transform="matrix(1 0 0 1 2873.68 696)">
   <path d="M23-43.5286L43.0042-43.5286C58.6277-43.5286 67.1413-34.9816 67.1413-19.3416L67.1413-0.104622L23-0.104622L23-43.5286L23-43.5286ZM23-69L44.1149-69C75.8023-69 92.6122-51.7492 92.6122-20.5522L92.6122-0.104622L23-0.104622L23-69ZM23-58.2262L23-0.104622L81.8554-0.104622L81.8554-19.9954C81.8554-45.2626 67.961-58.2262 43.641-58.2262L23-58.2262L23-58.2262Z"/>
  </g>
  <g id="Heavy-S" transform="matrix(1 0 0 1 2578.05 696)">
   <path d="M22.764-43.5344L42.7636-43.5344C58.3836-43.5344 66.8953-34.9892 66.8953-19.3528L66.8953-0.120167L22.764-0.120167L22.764-43.5344L22.764-43.5344ZM22.764-69L43.8741-69C75.5544-69 92.3604-51.7531 92.3604-20.5631L92.3604-0.120167L22.764-0.120167L22.764-69ZM22.764-58.2287L22.764-0.120167L81.6061-0.120167L81.6061-20.0064C81.6061-45.2679 67.7148-58.2287 43.4003-58.2287L22.764-58.2287L22.764-58.2287Z"/>
  </g>
  <g id="Bold-S" transform="matrix(1 0 0 1 2282.54 696)">
   <path d="M22.5-43.5408L42.4946-43.5408C58.1107-43.5408 66.6202-34.9978 66.6202-19.3653L66.6202-0.137554L22.5-0.137554L22.5-43.5408L22.5-43.5408ZM22.5-69L43.6048-69C75.2771-69 92.0789-51.7575 92.0789-20.5753L92.0789-0.137554L22.5-0.137554L22.5-69ZM22.5-58.2314L22.5-0.137554L81.3272-0.137554L81.3272-20.0188C81.3272-45.2739 67.4395-58.2314 43.1311-58.2314L22.5-58.2314L22.5-58.2314Z"/>
  </g>
  <g id="Semibold-S" transform="matrix(1 0 0 1 1986.66 696)">
   <path d="M22.318-43.5452L42.3091-43.5452C57.9225-43.5452 66.4305-35.0038 66.4305-19.374L66.4305-0.149541L22.318-0.149541L22.318-43.5452L22.318-43.5452ZM22.318-69L43.4191-69C75.0859-69 91.8848-51.7605 91.8848-20.5838L91.8848-0.149541L22.318-0.149541L22.318-69ZM22.318-58.2332L22.318-0.149541L81.135-0.149541L81.135-20.0273C81.135-45.278 67.2496-58.2332 42.9456-58.2332L22.318-58.2332L22.318-58.2332Z"/>
  </g>
  <g id="Medium-S" transform="matrix(1 0 0 1 1690.58 696)">
   <path d="M22.18-43.5486L42.1685-43.5486C57.7798-43.5486 66.2867-35.0082 66.2867-19.3805L66.2867-0.15863L22.18-0.15863L22.18-43.5486L22.18-43.5486ZM22.18-69L43.2783-69C74.9409-69 91.7376-51.7628 91.7376-20.5902L91.7376-0.15863L22.18-0.15863L22.18-69ZM22.18-58.2347L22.18-0.15863L80.9892-0.15863L80.9892-20.0338C80.9892-45.2812 67.1057-58.2347 42.8048-58.2347L22.18-58.2347L22.18-58.2347Z"/>
  </g>
  <g id="Regular-S" transform="matrix(1 0 0 1 1394.69 696)">
   <path d="M22-43.553L41.9851-43.553C57.5936-43.553 66.0991-35.0141 66.0991-19.389L66.0991-0.170486L22-0.170486L22-43.553L22-43.553ZM22-69L43.0947-69C74.7518-69 91.5456-51.7657 91.5456-20.5985L91.5456-0.170486L22-0.170486L22-69ZM22-58.2365L22-0.170486L80.7991-0.170486L80.7991-20.0422C80.7991-45.2853 66.918-58.2365 42.6213-58.2365L22-58.2365L22-58.2365Z"/>
  </g>
  <g id="Light-S" transform="matrix(1 0 0 1 1097.9 696)">
   <path d="M21.1227-43.583L41.0444-43.583C56.6036-43.583 65.0821-35.0711 65.0821-19.4956L65.0821-0.337854L21.1227-0.337854L21.1227-43.583L21.1227-43.583ZM21.1227-68.9494L42.1506-68.9494C73.7074-68.9494 90.448-51.7697 90.448-20.7012L90.448-0.337854L21.1227-0.337854L21.1227-68.9494ZM21.1227-58.22L21.1227-0.337854L79.7356-0.337854L79.7356-20.1467C79.7356-45.3098 65.8984-58.22 41.6786-58.22L21.1227-58.22L21.1227-58.22Z"/>
  </g>
  <g id="Thin-S" transform="matrix(1 0 0 1 801.077 696)">
   <path d="M19.9623-43.6226L39.8004-43.6226C55.2941-43.6226 63.737-35.1465 63.737-19.6364L63.737-0.559212L19.9623-0.559212L19.9623-43.6226L19.9623-43.6226ZM19.9623-68.8825L40.9019-68.8825C72.3261-68.8825 88.9964-51.775 88.9964-20.837L88.9964-0.559212L19.9623-0.559212L19.9623-68.8825ZM19.9623-58.1982L19.9623-0.559212L78.3289-0.559212L78.3289-20.2848C78.3289-45.3422 64.5499-58.1982 40.4319-58.1982L19.9623-58.1982L19.9623-58.1982Z"/>
  </g>
  <g id="Ultralight-S" transform="matrix(1 0 0 1 504.31 696)">
   <path d="M19.368-43.6429L39.1632-43.6429C54.6235-43.6429 63.0481-35.1852 63.0481-19.7086L63.0481-0.672591L19.368-0.672591L19.368-43.6429L19.368-43.6429ZM19.368-68.8482L40.2623-68.8482C71.6186-68.8482 88.2529-51.7777 88.2529-20.9065L88.2529-0.672591L19.368-0.672591L19.368-68.8482ZM19.368-58.187L19.368-0.672591L77.6085-0.672591L77.6085-20.3555C77.6085-45.3588 63.8592-58.187 39.7934-58.187L19.368-58.187L19.368-58.187Z"/>
  </g>
 </g>
</svg>
