<?xml version="1.0" encoding="UTF-8"?>
<!--Generator: Apple Native CoreSVG 232.5-->
<!DOCTYPE svg
PUBLIC "-//W3C//DTD SVG 1.1//EN"
       "http://www.w3.org/Graphics/SVG/1.1/DTD/svg11.dtd">
<svg version="1.1" xmlns="http://www.w3.org/2000/svg" xmlns:xlink="http://www.w3.org/1999/xlink" width="3300" height="2200">
 <g id="Notes">
  <rect height="2200" id="artboard" style="fill:white;opacity:1" width="3300" x="0" y="0"/>
  <line style="fill:none;stroke:black;opacity:1;stroke-width:0.5;" x1="263" x2="3036" y1="292" y2="292"/>
  <text style="stroke:none;fill:black;font-family:sans-serif;font-size:13;font-weight:bold;" transform="matrix(1 0 0 1 263 322)">Weight/Scale Variations</text>
  <text style="stroke:none;fill:black;font-family:sans-serif;font-size:13;text-anchor:middle;" transform="matrix(1 0 0 1 559.711 322)">Ultralight</text>
  <text style="stroke:none;fill:black;font-family:sans-serif;font-size:13;text-anchor:middle;" transform="matrix(1 0 0 1 856.422 322)">Thin</text>
  <text style="stroke:none;fill:black;font-family:sans-serif;font-size:13;text-anchor:middle;" transform="matrix(1 0 0 1 1153.13 322)">Light</text>
  <text style="stroke:none;fill:black;font-family:sans-serif;font-size:13;text-anchor:middle;" transform="matrix(1 0 0 1 1449.84 322)">Regular</text>
  <text style="stroke:none;fill:black;font-family:sans-serif;font-size:13;text-anchor:middle;" transform="matrix(1 0 0 1 1746.56 322)">Medium</text>
  <text style="stroke:none;fill:black;font-family:sans-serif;font-size:13;text-anchor:middle;" transform="matrix(1 0 0 1 2043.27 322)">Semibold</text>
  <text style="stroke:none;fill:black;font-family:sans-serif;font-size:13;text-anchor:middle;" transform="matrix(1 0 0 1 2339.98 322)">Bold</text>
  <text style="stroke:none;fill:black;font-family:sans-serif;font-size:13;text-anchor:middle;" transform="matrix(1 0 0 1 2636.69 322)">Heavy</text>
  <text style="stroke:none;fill:black;font-family:sans-serif;font-size:13;text-anchor:middle;" transform="matrix(1 0 0 1 2933.4 322)">Black</text>
  <line style="fill:none;stroke:black;opacity:1;stroke-width:0.5;" x1="263" x2="3036" y1="1903" y2="1903"/>
  <g transform="matrix(0.2 0 0 0.2 263 1933)">
   <path d="m46.2402 4.15039c21.5332 0 39.4531-17.8711 39.4531-39.4043s-17.9688-39.4043-39.502-39.4043c-21.4844 0-39.3555 17.8711-39.3555 39.4043s17.9199 39.4043 39.4043 39.4043Zm0-7.42188c-17.7246 0-31.8848-14.209-31.8848-31.9824s14.1113-31.9824 31.8359-31.9824c17.7734 0 32.0312 14.209 32.0312 31.9824s-14.209 31.9824-31.9824 31.9824Zm-17.9688-31.9824c0 2.14844 1.51367 3.61328 3.75977 3.61328h10.498v10.5957c0 2.19727 1.46484 3.71094 3.61328 3.71094 2.24609 0 3.71094-1.51367 3.71094-3.71094v-10.5957h10.5957c2.19727 0 3.71094-1.46484 3.71094-3.61328 0-2.19727-1.51367-3.71094-3.71094-3.71094h-10.5957v-10.5469c0-2.24609-1.46484-3.75977-3.71094-3.75977-2.14844 0-3.61328 1.51367-3.61328 3.75977v10.5469h-10.498c-2.24609 0-3.75977 1.51367-3.75977 3.71094Z"/>
  </g>
  <g transform="matrix(0.2 0 0 0.2 281.506 1933)">
   <path d="m58.5449 14.5508c27.2461 0 49.8047-22.6074 49.8047-49.8047 0-27.2461-22.6074-49.8047-49.8535-49.8047-27.1973 0-49.7559 22.5586-49.7559 49.8047 0 27.1973 22.6074 49.8047 49.8047 49.8047Zm0-8.30078c-23.0469 0-41.4551-18.457-41.4551-41.5039s18.3594-41.5039 41.4062-41.5039 41.5527 18.457 41.5527 41.5039-18.457 41.5039-41.5039 41.5039Zm-22.6562-41.5039c0 2.39258 1.66016 4.00391 4.15039 4.00391h14.3555v14.4043c0 2.44141 1.66016 4.15039 4.05273 4.15039 2.44141 0 4.15039-1.66016 4.15039-4.15039v-14.4043h14.4043c2.44141 0 4.15039-1.61133 4.15039-4.00391 0-2.44141-1.70898-4.15039-4.15039-4.15039h-14.4043v-14.3555c0-2.49023-1.70898-4.19922-4.15039-4.19922-2.39258 0-4.05273 1.70898-4.05273 4.19922v14.3555h-14.3555c-2.49023 0-4.15039 1.70898-4.15039 4.15039Z"/>
  </g>
  <g transform="matrix(0.2 0 0 0.2 304.924 1933)">
   <path d="m74.8535 28.3203c34.8145 0 63.623-28.8086 63.623-63.5742 0-34.8145-28.8574-63.623-63.6719-63.623-34.7656 0-63.5254 28.8086-63.5254 63.623 0 34.7656 28.8086 63.5742 63.5742 63.5742Zm0-9.08203c-30.1758 0-54.4434-24.3164-54.4434-54.4922 0-30.2246 24.2188-54.4922 54.3945-54.4922 30.2246 0 54.541 24.2676 54.541 54.4922 0 30.1758-24.2676 54.4922-54.4922 54.4922Zm-28.8574-54.4922c0 2.58789 1.85547 4.39453 4.58984 4.39453h19.7266v19.7754c0 2.68555 1.85547 4.58984 4.44336 4.58984 2.68555 0 4.54102-1.85547 4.54102-4.58984v-19.7754h19.7754c2.68555 0 4.58984-1.80664 4.58984-4.39453 0-2.73438-1.85547-4.58984-4.58984-4.58984h-19.7754v-19.7266c0-2.73438-1.85547-4.63867-4.54102-4.63867-2.58789 0-4.44336 1.9043-4.44336 4.63867v19.7266h-19.7266c-2.73438 0-4.58984 1.85547-4.58984 4.58984Z"/>
  </g>
  <text style="stroke:none;fill:black;font-family:sans-serif;font-size:13;font-weight:bold;" transform="matrix(1 0 0 1 263 1953)">Design Variations</text>
  <text style="stroke:none;fill:black;font-family:sans-serif;font-size:13;" transform="matrix(1 0 0 1 263 1971)">Symbols are supported in up to nine weights and three scales.</text>
  <text style="stroke:none;fill:black;font-family:sans-serif;font-size:13;" transform="matrix(1 0 0 1 263 1989)">For optimal layout with text and other symbols, vertically align</text>
  <text style="stroke:none;fill:black;font-family:sans-serif;font-size:13;" transform="matrix(1 0 0 1 263 2007)">symbols with the adjacent text.</text>
  <line style="fill:none;stroke:#00AEEF;stroke-width:0.5;opacity:1.0;" x1="776" x2="776" y1="1919" y2="1933"/>
  <g transform="matrix(0.2 0 0 0.2 776 1933)">
   <path d="m16.5527 0.78125c2.58789 0 3.85742-0.976562 4.78516-3.71094l6.29883-17.2363h28.8086l6.29883 17.2363c0.927734 2.73438 2.19727 3.71094 4.73633 3.71094 2.58789 0 4.24805-1.5625 4.24805-4.00391 0-0.830078-0.146484-1.61133-0.537109-2.63672l-22.9004-60.9863c-1.12305-2.97852-3.125-4.49219-6.25-4.49219-3.02734 0-5.07812 1.46484-6.15234 4.44336l-22.9004 61.084c-0.390625 1.02539-0.537109 1.80664-0.537109 2.63672 0 2.44141 1.5625 3.95508 4.10156 3.95508Zm13.4766-28.3691 11.8652-32.8613h0.244141l11.8652 32.8613Z"/>
  </g>
  <line style="fill:none;stroke:#00AEEF;stroke-width:0.5;opacity:1.0;" x1="792.836" x2="792.836" y1="1919" y2="1933"/>
  <text style="stroke:none;fill:black;font-family:sans-serif;font-size:13;font-weight:bold;" transform="matrix(1 0 0 1 776 1953)">Margins</text>
  <text style="stroke:none;fill:black;font-family:sans-serif;font-size:13;" transform="matrix(1 0 0 1 776 1971)">Leading and trailing margins on the left and right side of each symbol</text>
  <text style="stroke:none;fill:black;font-family:sans-serif;font-size:13;" transform="matrix(1 0 0 1 776 1989)">can be adjusted by modifying the x-location of the margin guidelines.</text>
  <text style="stroke:none;fill:black;font-family:sans-serif;font-size:13;" transform="matrix(1 0 0 1 776 2007)">Modifications are automatically applied proportionally to all</text>
  <text style="stroke:none;fill:black;font-family:sans-serif;font-size:13;" transform="matrix(1 0 0 1 776 2025)">scales and weights.</text>
  <g transform="matrix(0.2 0 0 0.2 1289 1933)">
   <path d="m14.209 9.32617 8.49609 8.54492c4.29688 4.3457 9.22852 4.05273 13.8672-1.07422l53.4668-58.9355-4.83398-4.88281-53.0762 58.3984c-1.75781 2.00195-3.41797 2.49023-5.76172 0.146484l-5.85938-5.81055c-2.34375-2.29492-1.80664-4.00391 0.195312-5.81055l57.373-54.0039-4.88281-4.83398-57.959 54.4434c-4.93164 4.58984-5.32227 9.47266-1.02539 13.8184Zm32.0801-90.9668c-2.09961 2.05078-2.24609 4.93164-1.07422 6.88477 1.17188 1.80664 3.4668 2.97852 6.68945 2.14844 7.32422-1.70898 14.9414-2.00195 22.0703 2.68555l-2.92969 7.27539c-1.70898 4.15039-0.830078 7.08008 1.85547 9.81445l11.4746 11.5723c2.44141 2.44141 4.49219 2.53906 7.32422 2.05078l5.32227-0.976562 3.32031 3.36914-0.195312 2.7832c-0.195312 2.49023 0.439453 4.39453 2.88086 6.78711l3.80859 3.71094c2.39258 2.39258 5.46875 2.53906 7.8125 0.195312l14.5508-14.5996c2.34375-2.34375 2.24609-5.32227-0.146484-7.71484l-3.85742-3.80859c-2.39258-2.39258-4.24805-3.17383-6.64062-2.97852l-2.88086 0.244141-3.22266-3.17383 1.2207-5.61523c0.634766-2.83203-0.146484-5.0293-3.07617-7.95898l-10.9863-10.9375c-16.6992-16.6016-38.8672-16.2109-53.3203-1.75781Zm7.4707 1.85547c12.1582-8.88672 28.6133-7.37305 39.7461 3.75977l12.1582 12.0605c1.17188 1.17188 1.36719 2.09961 1.02539 3.80859l-1.61133 7.42188 7.51953 7.42188 4.93164-0.292969c1.26953-0.0488281 1.66016 0.0488281 2.63672 1.02539l2.88086 2.88086-12.207 12.207-2.88086-2.88086c-0.976562-0.976562-1.12305-1.36719-1.07422-2.68555l0.341797-4.88281-7.4707-7.42188-7.61719 1.26953c-1.61133 0.341797-2.34375 0.195312-3.56445-0.976562l-10.0098-10.0098c-1.26953-1.17188-1.41602-2.00195-0.634766-3.85742l4.39453-10.4492c-7.8125-7.27539-17.9688-10.4004-28.125-7.42188-0.78125 0.195312-1.07422-0.439453-0.439453-0.976562Z"/>
  </g>
  <text style="stroke:none;fill:black;font-family:sans-serif;font-size:13;font-weight:bold;" transform="matrix(1 0 0 1 1289 1953)">Exporting</text>
  <text style="stroke:none;fill:black;font-family:sans-serif;font-size:13;" transform="matrix(1 0 0 1 1289 1971)">Symbols should be outlined when exporting to ensure the</text>
  <text style="stroke:none;fill:black;font-family:sans-serif;font-size:13;" transform="matrix(1 0 0 1 1289 1989)">design is preserved when submitting to Xcode.</text>
  <text id="template-version" style="stroke:none;fill:black;font-family:sans-serif;font-size:13;text-anchor:end;" transform="matrix(1 0 0 1 3036 1933)">Template v.2.0</text>
  <text style="stroke:none;fill:black;font-family:sans-serif;font-size:13;text-anchor:end;" transform="matrix(1 0 0 1 3036 1951)">Requires Xcode 12 or greater</text>
  <text id="descriptive-name" style="stroke:none;fill:black;font-family:sans-serif;font-size:13;text-anchor:end;" transform="matrix(1 0 0 1 3036 1969)">Generated from button.horizontal.top.press</text>
  <text style="stroke:none;fill:black;font-family:sans-serif;font-size:13;text-anchor:end;" transform="matrix(1 0 0 1 3036 1987)">Typeset at 100.0 points</text>
  <text style="stroke:none;fill:black;font-family:sans-serif;font-size:13;" transform="matrix(1 0 0 1 263 726)">Small</text>
  <text style="stroke:none;fill:black;font-family:sans-serif;font-size:13;" transform="matrix(1 0 0 1 263 1156)">Medium</text>
  <text style="stroke:none;fill:black;font-family:sans-serif;font-size:13;" transform="matrix(1 0 0 1 263 1586)">Large</text>
 </g>
 <g id="Guides">
  <g id="H-reference" style="fill:#27AAE1;stroke:none;" transform="matrix(1 0 0 1 339 696)">
   <path d="M0.993654 0L3.63775 0L29.3281-67.1323L30.0303-67.1323L30.0303-70.459L28.1226-70.459ZM11.6885-24.4799L46.9815-24.4799L46.2315-26.7285L12.4385-26.7285ZM55.1196 0L57.7637 0L30.6382-70.459L29.4326-70.459L29.4326-67.1323Z"/>
  </g>
  <line id="Baseline-S" style="fill:none;stroke:#27AAE1;opacity:1;stroke-width:0.5;" x1="263" x2="3036" y1="696" y2="696"/>
  <line id="Capline-S" style="fill:none;stroke:#27AAE1;opacity:1;stroke-width:0.5;" x1="263" x2="3036" y1="625.541" y2="625.541"/>
  <g id="H-reference" style="fill:#27AAE1;stroke:none;" transform="matrix(1 0 0 1 339 1126)">
   <path d="M0.993654 0L3.63775 0L29.3281-67.1323L30.0303-67.1323L30.0303-70.459L28.1226-70.459ZM11.6885-24.4799L46.9815-24.4799L46.2315-26.7285L12.4385-26.7285ZM55.1196 0L57.7637 0L30.6382-70.459L29.4326-70.459L29.4326-67.1323Z"/>
  </g>
  <line id="Baseline-M" style="fill:none;stroke:#27AAE1;opacity:1;stroke-width:0.5;" x1="263" x2="3036" y1="1126" y2="1126"/>
  <line id="Capline-M" style="fill:none;stroke:#27AAE1;opacity:1;stroke-width:0.5;" x1="263" x2="3036" y1="1055.54" y2="1055.54"/>
  <g id="H-reference" style="fill:#27AAE1;stroke:none;" transform="matrix(1 0 0 1 339 1556)">
   <path d="M0.993654 0L3.63775 0L29.3281-67.1323L30.0303-67.1323L30.0303-70.459L28.1226-70.459ZM11.6885-24.4799L46.9815-24.4799L46.2315-26.7285L12.4385-26.7285ZM55.1196 0L57.7637 0L30.6382-70.459L29.4326-70.459L29.4326-67.1323Z"/>
  </g>
  <line id="Baseline-L" style="fill:none;stroke:#27AAE1;opacity:1;stroke-width:0.5;" x1="263" x2="3036" y1="1556" y2="1556"/>
  <line id="Capline-L" style="fill:none;stroke:#27AAE1;opacity:1;stroke-width:0.5;" x1="263" x2="3036" y1="1485.54" y2="1485.54"/>
  <line id="left-margin" style="fill:none;stroke:#00AEEF;stroke-width:0.5;opacity:1.0;" x1="1377.8" x2="1377.8" y1="1030.79" y2="1150.12"/>
  <line id="right-margin" style="fill:none;stroke:#00AEEF;stroke-width:0.5;opacity:1.0;" x1="1521.89" x2="1521.89" y1="1030.79" y2="1150.12"/>
 </g>
 <g id="Symbols">
  <g id="Black-L" transform="matrix(1 0 0 1 2836.71 1556)">
   <path d="M101.366-49.2445L121.293-71.8838C125.602-76.767 123.003-83.3091 116.211-83.3091L105.379-83.3091L105.379-114.134C105.379-119.444 101.508-122.828 96.6487-122.828C91.7456-122.828 87.8963-119.444 87.8963-114.134L87.8963-83.3091L76.8484-83.3091C70.4683-83.3091 67.7084-76.6919 71.9403-71.8838L91.8091-49.2445C94.5166-46.1581 98.6368-46.1558 101.366-49.2445ZM58.1128 13.509L135.259 13.509C160.784 13.509 177.287-1.60649 177.287-25.0472C177.287-48.4879 160.784-63.6046 135.259-63.6046L127.551-63.6046L109.898-43.6819L135.259-43.6819C148.508-43.6819 157.345-36.2709 157.345-25.0472C157.345-13.8235 148.508-6.41246 135.259-6.41246L58.1128-6.41246C44.843-6.41246 36.0066-13.8235 36.0066-25.0472C36.0066-36.2709 44.843-43.6819 58.1128-43.6819L83.3937-43.6819L65.858-63.6046L58.1128-63.6046C32.5885-63.6046 16.084-48.4879 16.084-25.0472C16.084-1.60649 32.5885 13.509 58.1128 13.509ZM58.1128 42.8507L135.259 42.8507C161.074 42.8507 177.287 26.2456 177.287-0.245103L177.287-25.1056L157.345-25.1056L157.345-0.245103C157.345 13.8922 148.799 22.8697 135.259 22.8697L58.1128 22.8697C44.5528 22.8697 36.0066 13.8922 36.0066-0.245103L36.0066-25.1056L16.084-25.1056L16.084-0.245103C16.084 26.2456 32.297 42.8507 58.1128 42.8507Z"/>
  </g>
  <g id="Heavy-L" transform="matrix(1 0 0 1 2541.1 1556)">
   <path d="M100.046-47.5186L119.183-69.2717C123.216-73.8295 120.807-80.03 114.421-80.03L103.422-80.03L103.422-111.534C103.422-116.277 99.9415-119.37 95.5777-119.37C91.1422-119.37 87.6972-116.277 87.6972-111.534L87.6972-80.03L76.5103-80.03C70.4762-80.03 67.8779-73.8006 71.8764-69.2717L90.9681-47.5186C93.5498-44.5762 97.4289-44.565 100.046-47.5186ZM55.9623 11.7296L135.216 11.7296C159.243 11.7296 175.095-2.59068 175.095-24.8247C175.095-47.0587 159.243-61.3845 135.216-61.3845L125.208-61.3845L109.753-43.9287L135.216-43.9287C148.484-43.9287 157.614-36.3506 157.614-24.8247C157.614-13.2988 148.484-5.72059 135.216-5.72059L55.9623-5.72059C42.6639-5.72059 33.5398-13.2988 33.5398-24.8247C33.5398-36.3506 42.6639-43.9287 55.9623-43.9287L81.3507-43.9287L65.9846-61.3845L55.9623-61.3845C31.9414-61.3845 16.084-47.0587 16.084-24.8247C16.084-2.59068 31.9414 11.7296 55.9623 11.7296ZM55.9623 39.1674L135.216 39.1674C159.66 39.1674 175.095 23.3101 175.095-1.85747L175.095-24.8693L157.614-24.8693L157.614-1.85747C157.614 12.4882 148.907 21.667 135.216 21.667L55.9623 21.667C42.247 21.667 33.5398 12.4882 33.5398-1.85747L33.5398-24.8693L16.084-24.8693L16.084-1.85747C16.084 23.3101 31.5188 39.1674 55.9623 39.1674Z"/>
  </g>
  <g id="Bold-L" transform="matrix(1 0 0 1 2246.02 1556)">
   <path d="M98.1043-45.77L116.227-66.4541C119.877-70.5674 117.722-76.2708 111.917-76.2708L100.674-76.2708L100.674-108.397C100.674-112.417 97.6995-115.12 93.9727-115.12C90.1435-115.12 87.2203-112.417 87.2203-108.397L87.2203-76.2708L75.827-76.2708C70.2976-76.2708 67.9364-70.585 71.5909-66.4541L89.6847-45.77C92.0828-43.0341 95.6549-43.0077 98.1043-45.77ZM53.2141 9.41253L134.7 9.41253C156.86 9.41253 171.831-3.95394 171.831-24.6748C171.831-45.3956 156.86-58.7753 134.7-58.7753L121.611-58.7753L108.876-44.3627L134.7-44.3627C147.977-44.3627 157.393-36.5547 157.393-24.6748C157.393-12.7948 147.977-4.98679 134.7-4.98679L53.2141-4.98679C39.8997-4.98679 30.4965-12.7948 30.4965-24.6748C30.4965-36.5547 39.8997-44.3627 53.2141-44.3627L78.9717-44.3627L66.2949-58.7753L53.2141-58.7753C31.0677-58.7753 16.084-45.3956 16.084-24.6748C16.084-3.95394 31.0677 9.41253 53.2141 9.41253ZM53.2141 34.4019L134.7 34.4019C157.379 34.4019 171.831 19.4669 171.831-4.01178L171.831-24.704L157.393-24.704L157.393-4.01178C157.393 10.5429 148.509 19.9602 134.7 19.9602L53.2141 19.9602C39.3812 19.9602 30.4965 10.5429 30.4965-4.01178L30.4965-24.704L16.084-24.704L16.084-4.01178C16.084 19.4669 30.5359 34.4019 53.2141 34.4019Z"/>
  </g>
  <g id="Semibold-L" transform="matrix(1 0 0 1 1950.43 1556)">
   <path d="M96.7654-44.5644L114.19-64.5116C117.576-68.3186 115.595-73.6793 110.191-73.6793L98.7791-73.6793L98.7791-106.234C98.7791-109.757 96.1538-112.19 92.8662-112.19C89.4549-112.19 86.8915-109.757 86.8915-106.234L86.8915-73.6793L75.3559-73.6793C70.1745-73.6793 67.9768-68.3682 71.394-64.5116L88.7999-44.5644C91.0715-41.971 94.4319-41.9341 96.7654-44.5644ZM51.3195 7.81518L134.345 7.81518C155.218 7.81518 169.58-4.89376 169.58-24.5714C169.58-44.2491 155.218-56.9765 134.345-56.9765L119.131-56.9765L108.271-44.6619L134.345-44.6619C147.627-44.6619 157.241-36.6955 157.241-24.5714C157.241-12.4473 147.627-4.48091 134.345-4.48091L51.3195-4.48091C37.9941-4.48091 28.3986-12.4473 28.3986-24.5714C28.3986-36.6955 37.9941-44.6619 51.3195-44.6619L77.3316-44.6619L66.5088-56.9765L51.3195-56.9765C30.4653-56.9765 16.084-44.2491 16.084-24.5714C16.084-4.89376 30.4653 7.81518 51.3195 7.81518ZM51.3195 31.1167L134.345 31.1167C155.806 31.1167 169.58 16.8174 169.58-5.49694L169.58-24.59L157.241-24.59L157.241-5.49694C157.241 9.20177 148.234 18.7835 134.345 18.7835L51.3195 18.7835C37.4055 18.7835 28.3986 9.20177 28.3986-5.49694L28.3986-24.59L16.084-24.59L16.084-5.49694C16.084 16.8174 29.8582 31.1167 51.3195 31.1167Z"/>
  </g>
  <g id="Medium-L" transform="matrix(1 0 0 1 1654.58 1556)">
   <path d="M95.7501-43.6503L112.645-63.0388C115.831-66.6135 113.982-71.7143 108.882-71.7143L97.3424-71.7143L97.3424-104.594C97.3424-107.739 94.9819-109.968 92.0273-109.968C88.9328-109.968 86.6422-107.739 86.6422-104.594L86.6422-71.7143L74.9987-71.7143C70.0812-71.7143 68.0073-66.6873 71.2447-63.0388L88.1291-43.6503C90.3047-41.165 93.5046-41.12 95.7501-43.6503ZM49.8829 6.604L134.075 6.604C153.972 6.604 167.874-5.60637 167.874-24.4931C167.874-43.3797 153.972-55.6126 134.075-55.6126L117.25-55.6126L107.812-44.8888L134.075-44.8888C147.362-44.8888 157.125-36.8022 157.125-24.4931C157.125-12.1839 147.362-4.09733 134.075-4.09733L49.8829-4.09733C36.5492-4.09733 26.8078-12.1839 26.8078-24.4931C26.8078-36.8022 36.5492-44.8888 49.8829-44.8888L76.088-44.8888L66.671-55.6126L49.8829-55.6126C30.0086-55.6126 16.084-43.3797 16.084-24.4931C16.084-5.60637 30.0086 6.604 49.8829 6.604ZM49.8829 28.6257L134.075 28.6257C154.614 28.6257 167.874 14.8084 167.874-6.62305L167.874-24.5036L157.125-24.5036L157.125-6.62305C157.125 8.18491 148.026 17.8914 134.075 17.8914L49.8829 17.8914C35.9074 17.8914 26.8078 8.18491 26.8078-6.62305L26.8078-24.5036L16.084-24.5036L16.084-6.62305C16.084 14.8084 29.3444 28.6257 49.8829 28.6257Z"/>
  </g>
  <g id="Regular-L" transform="matrix(1 0 0 1 1358.98 1556)">
   <path d="M94.4259-42.4581L110.63-61.1176C113.555-64.3894 111.879-69.1512 107.175-69.1512L95.4684-69.1512L95.4684-102.454C95.4684-105.108 93.4532-107.07 90.933-107.07C88.2518-107.07 86.3171-105.108 86.3171-102.454L86.3171-69.1512L74.5328-69.1512C69.9594-69.1512 68.0472-64.4949 71.05-61.1176L87.254-42.4581C89.3045-40.1135 92.295-40.0582 94.4259-42.4581ZM48.0091 5.0242L133.724 5.0242C152.347 5.0242 165.649-6.53587 165.649-24.3909C165.649-42.2458 152.347-53.8336 133.724-53.8336L114.797-53.8336L107.214-45.1847L133.724-45.1847C147.015-45.1847 156.975-36.9415 156.975-24.3909C156.975-11.8402 147.015-3.597 133.724-3.597L48.0091-3.597C34.6645-3.597 24.7328-11.8402 24.7328-24.3909C24.7328-36.9415 34.6645-45.1847 48.0091-45.1847L74.4659-45.1847L66.8825-53.8336L48.0091-53.8336C29.4129-53.8336 16.084-42.2458 16.084-24.3909C16.084-6.53587 29.4129 5.0242 48.0091 5.0242ZM48.0091 25.3765L133.724 25.3765C153.059 25.3765 165.649 12.188 165.649-8.0919L165.649-24.3909L156.975-24.3909L156.975-8.0919C156.975 6.85856 147.754 16.7277 133.724 16.7277L48.0091 16.7277C33.9535 16.7277 24.7328 6.85856 24.7328-8.0919L24.7328-24.3909L16.084-24.3909L16.084-8.0919C16.084 12.188 28.6742 25.3765 48.0091 25.3765Z"/>
  </g>
  <g id="Light-L" transform="matrix(1 0 0 1 1065.16 1556)">
   <path d="M91.1051-43.7559L106.393-61.862C108.784-64.5611 107.394-68.5023 103.606-68.5023L91.4796-68.5023L91.4796-100.813C91.4796-102.856 89.9606-104.341 88.032-104.341C85.9425-104.341 84.5039-102.856 84.5039-100.813L84.5039-68.5023L72.3571-68.5023C68.6235-68.5023 67.112-64.6285 69.5232-61.862L84.8111-43.7559C86.5563-41.7358 89.2795-41.6423 91.1051-43.7559ZM45.5662 2.6958L130.384 2.6958C147.653 2.6958 159.866-8.40622 159.866-25.097C159.866-41.7878 147.653-52.9366 130.384-52.9366L107.831-52.9366L102.118-46.3107L130.384-46.3107C143.58-46.3107 153.253-37.7621 153.253-25.097C153.253-12.4319 143.58-3.88328 130.384-3.88328L45.5662-3.88328C32.3361-3.88328 22.7098-12.4319 22.7098-25.097C22.7098-37.7621 32.3361-46.3107 45.5662-46.3107L73.7979-46.3107L68.0849-52.9366L45.5662-52.9366C28.3441-52.9366 16.084-41.7878 16.084-25.097C16.084-8.40622 28.3441 2.6958 45.5662 2.6958ZM45.5662 20.777L130.384 20.777C148.077 20.777 159.866 8.19922 159.866-10.5921L159.866-25.097L153.253-25.097L153.253-10.5921C153.253 4.18662 144.052 14.1511 130.384 14.1511L45.5662 14.1511C31.9114 14.1511 22.7098 4.18662 22.7098-10.5921L22.7098-25.097L16.084-25.097L16.084-10.5921C16.084 8.19922 27.8726 20.777 45.5662 20.777Z"/>
  </g>
  <g id="Thin-L" transform="matrix(1 0 0 1 772.271 1556)">
   <path d="M86.713-45.4723L100.789-62.8464C102.473-64.7883 101.462-67.6441 98.8857-67.6441L86.2041-67.6441L86.2041-98.6423C86.2041-99.8773 85.3414-100.732 84.1952-100.732C82.8883-100.732 82.106-99.8773 82.106-98.6423L82.106-67.6441L69.4795-67.6441C66.8565-67.6441 65.8752-64.8052 67.5038-62.8464L81.5802-45.4723C82.9214-43.8813 85.2913-43.7374 86.713-45.4723ZM42.3352-0.383704L125.966-0.383704C141.443-0.383704 152.218-10.8799 152.218-26.031C152.218-41.182 141.443-51.7502 125.966-51.7502L98.6181-51.7502L95.3787-47.8L125.966-47.8C139.037-47.8 148.331-38.8475 148.331-26.031C148.331-13.2144 139.037-4.26191 125.966-4.26191L42.3352-4.26191C29.2566-4.26191 20.0342-13.2144 20.0342-26.031C20.0342-38.8475 29.2566-47.8 42.3352-47.8L72.9145-47.8L69.6751-51.7502L42.3352-51.7502C26.9306-51.7502 16.084-41.182 16.084-26.031C16.084-10.8799 26.9306-0.383704 42.3352-0.383704ZM42.3352 14.6937L125.966 14.6937C141.489 14.6937 152.218 2.92368 152.218-13.8987L152.218-26.031L148.331-26.031L148.331-13.8987C148.331 0.652766 139.155 10.7435 125.966 10.7435L42.3352 10.7435C29.2105 10.7435 20.0342 0.652766 20.0342-13.8987L20.0342-26.031L16.084-26.031L16.084-13.8987C16.084 2.92368 26.8125 14.6937 42.3352 14.6937Z"/>
  </g>
  <g id="Ultralight-L" transform="matrix(1 0 0 1 477.519 1556)">
   <path d="M84.4634-46.3515L97.9192-63.3506C99.2409-64.9047 98.4237-67.2045 96.468-67.2045L83.502-67.2045L83.502-97.5305C83.502-98.3517 82.9754-98.8828 82.2301-98.8828C81.3239-98.8828 80.8777-98.3517 80.8777-97.5305L80.8777-67.2045L68.0056-67.2045C65.9515-67.2045 65.2417-64.8957 66.4695-63.3506L79.9253-46.3515C81.0597-44.9803 83.2486-44.8105 84.4634-46.3515ZM40.6804-1.96101L123.704-1.96101C138.263-1.96101 148.3-12.1469 148.3-26.5093C148.3-40.8717 138.263-51.1425 123.704-51.1425L93.8991-51.1425L91.9268-48.5628L123.704-48.5628C136.709-48.5628 145.81-39.4035 145.81-26.5093C145.81-13.6152 136.709-4.45584 123.704-4.45584L40.6804-4.45584C27.6793-4.45584 18.6637-13.6152 18.6637-26.5093C18.6637-39.4035 27.6793-48.5628 40.6804-48.5628L72.4619-48.5628L70.4896-51.1425L40.6804-51.1425C26.2066-51.1425 16.084-40.8717 16.084-26.5093C16.084-12.1469 26.2066-1.96101 40.6804-1.96101ZM40.6804 11.5779L123.704 11.5779C138.115 11.5779 148.3 0.221573 148.3-15.5924L148.3-26.5093L145.81-26.5093L145.81-15.5924C145.81-1.15726 136.647 8.99812 123.704 8.99812L40.6804 8.99812C27.8271 8.99812 18.6637-1.15726 18.6637-15.5924L18.6637-26.5093L16.084-26.5093L16.084-15.5924C16.084 0.221573 26.2695 11.5779 40.6804 11.5779Z"/>
  </g>
  <g id="Black-M" transform="matrix(1 0 0 1 2857.94 1126)">
   <path d="M79.2171-47.7467L95.2111-65.9729C98.7131-69.9583 96.5751-75.2091 91.0893-75.2091L82.783-75.2091L82.783-98.3711C82.783-102.892 79.5153-105.697 75.4053-105.697C71.2848-105.697 68.0223-102.892 68.0223-98.3711L68.0223-75.2091L59.5334-75.2091C54.407-75.2091 52.1841-69.8551 55.5832-65.9729L71.5202-47.7467C73.6845-45.2757 77.0475-45.2763 79.2171-47.7467ZM46.5396 3.74401L104.374 3.74401C125.255 3.74401 138.453-8.58792 138.453-27.6278C138.453-46.6676 125.255-58.9993 104.374-58.9993L99.8886-58.9993L84.5775-41.7184L104.374-41.7184C114.609-41.7184 121.166-36.0791 121.166-27.6278C121.166-19.1765 114.609-13.5371 104.374-13.5371L46.5396-13.5371C36.2991-13.5371 29.7418-19.1765 29.7418-27.6278C29.7418-36.0791 36.2991-41.7184 46.5396-41.7184L66.2739-41.7184L51.077-58.9993L46.5396-58.9993C25.659-58.9993 12.4609-46.6676 12.4609-27.6278C12.4609-8.58792 25.659 3.74401 46.5396 3.74401ZM46.5396 27.8049L104.374 27.8049C125.332 27.8049 138.453 14.3803 138.453-7.07864L138.453-27.6849L121.166-27.6849L121.166-7.07864C121.166 3.67176 114.686 10.467 104.374 10.467L46.5396 10.467C36.222 10.467 29.7418 3.67176 29.7418-7.07864L29.7418-27.6849L12.4609-27.6849L12.4609-7.07864C12.4609 14.3803 25.5821 27.8049 46.5396 27.8049Z"/>
  </g>
  <g id="Heavy-M" transform="matrix(1 0 0 1 2562.04 1126)">
   <path d="M78.2332-45.9397L93.5386-63.3507C96.8208-67.0708 94.8424-72.0634 89.668-72.0634L81.238-72.0634L81.238-95.9817C81.238-100.003 78.3063-102.569 74.6259-102.569C70.908-102.569 67.995-100.003 67.995-95.9817L67.995-72.0634L59.4037-72.0634C54.5379-72.0634 52.4361-67.0163 55.6616-63.3507L70.9234-45.9397C72.9929-43.5796 76.145-43.5751 78.2332-45.9397ZM44.6627 2.21934L104.641 2.21934C124.181 2.21934 136.843-9.37748 136.843-27.3451C136.843-45.3127 124.181-56.9118 104.641-56.9118L98.2412-56.9118L84.9055-41.8558L104.641-41.8558C114.904-41.8558 121.773-36.0812 121.773-27.3451C121.773-18.609 114.904-12.8344 104.641-12.8344L44.6627-12.8344C34.3837-12.8344 27.5169-18.609 27.5169-27.3451C27.5169-36.0812 34.3837-41.8558 44.6627-41.8558L64.3384-41.8558L51.0899-56.9118L44.6627-56.9118C25.125-56.9118 12.4609-45.3127 12.4609-27.3451C12.4609-9.37748 25.125 2.21934 44.6627 2.21934ZM44.6627 24.6285L104.641 24.6285C124.409 24.6285 136.843 11.8786 136.843-8.42419L136.843-27.3887L121.773-27.3887L121.773-8.42419C121.773 2.54574 115.133 9.52889 104.641 9.52889L44.6627 9.52889C34.1562 9.52889 27.5169 2.54574 27.5169-8.42419L27.5169-27.3887L12.4609-27.3887L12.4609-8.42419C12.4609 11.8786 24.8953 24.6285 44.6627 24.6285Z"/>
  </g>
  <g id="Bold-M" transform="matrix(1 0 0 1 2266.23 1126)">
   <path d="M77.1326-43.9184L91.6676-60.4174C94.7039-63.8406 92.9041-68.5445 88.078-68.5445L79.5097-68.5445L79.5097-93.3089C79.5097-96.771 76.9539-99.0699 73.754-99.0699C70.4866-99.0699 67.9645-96.771 67.9645-93.3089L67.9645-68.5445L59.2585-68.5445C54.6844-68.5445 52.718-63.8408 55.7493-60.4174L70.2558-43.9184C72.2193-41.6823 75.1353-41.6721 77.1326-43.9184ZM42.5632 0.51379L104.939 0.51379C122.98 0.51379 135.042-10.2607 135.042-27.0289C135.042-43.797 122.98-54.5766 104.939-54.5766L96.3983-54.5766L85.2723-42.0095L104.939-42.0095C115.233-42.0095 122.451-36.0836 122.451-27.0289C122.451-17.9741 115.233-12.0482 104.939-12.0482L42.5632-12.0482C32.241-12.0482 25.0281-17.9741 25.0281-27.0289C25.0281-36.0836 32.241-42.0095 42.5632-42.0095L62.1732-42.0095L51.1043-54.5766L42.5632-54.5766C24.5277-54.5766 12.4609-43.797 12.4609-27.0289C12.4609-10.2607 24.5277 0.51379 42.5632 0.51379ZM42.5632 21.0752L104.939 21.0752C123.376 21.0752 135.042 9.08009 135.042-9.92939L135.042-27.0574L122.451-27.0574L122.451-9.92939C122.451 1.28612 115.634 8.47954 104.939 8.47954L42.5632 8.47954C31.8454 8.47954 25.0281 1.28612 25.0281-9.92939L25.0281-27.0574L12.4609-27.0574L12.4609-9.92939C12.4609 9.08009 24.127 21.0752 42.5632 21.0752Z"/>
  </g>
  <g id="Semibold-M" transform="matrix(1 0 0 1 1970.14 1126)">
   <path d="M76.3738-42.525L90.3778-58.3953C93.2445-61.6138 91.5678-66.1185 86.9818-66.1185L78.3182-66.1185L78.3182-91.4663C78.3182-94.5432 76.0215-96.6576 73.1529-96.6576C70.196-96.6576 67.9434-94.5432 67.9434-91.4663L67.9434-66.1185L59.1584-66.1185C54.7854-66.1185 52.9124-61.6516 55.8098-58.3953L69.7956-42.525C71.686-40.3743 74.4393-40.3601 76.3738-42.525ZM41.1158-0.662009L105.145-0.662009C122.152-0.662009 133.8-10.8696 133.8-26.8109C133.8-42.7521 122.152-52.9668 105.145-52.9668L95.1279-52.9668L85.5252-42.1154L105.145-42.1154C115.46-42.1154 122.919-36.0853 122.919-26.8109C122.919-17.5364 115.46-11.5063 105.145-11.5063L41.1158-11.5063C30.7639-11.5063 23.3123-17.5364 23.3123-26.8109C23.3123-36.0853 30.7639-42.1154 41.1158-42.1154L60.6806-42.1154L51.1142-52.9668L41.1158-52.9668C24.1159-52.9668 12.4609-42.7521 12.4609-26.8109C12.4609-10.8696 24.1159-0.662009 41.1158-0.662009ZM41.1158 18.6256L105.145 18.6256C122.664 18.6256 133.8 7.15082 133.8-10.9671L133.8-26.829L122.919-26.829L122.919-10.9671C122.919 0.417754 115.979 7.75611 105.145 7.75611L41.1158 7.75611C30.2524 7.75611 23.3123 0.417754 23.3123-10.9671L23.3123-26.829L12.4609-26.829L12.4609-10.9671C12.4609 7.15082 23.5973 18.6256 41.1158 18.6256Z"/>
  </g>
  <g id="Medium-M" transform="matrix(1 0 0 1 1673.9 1126)">
   <path d="M75.7985-41.4684L89.3997-56.8619C92.138-59.9253 90.5546-64.2791 86.1507-64.2791L77.4148-64.2791L77.4148-90.0692C77.4148-92.8539 75.3145-94.8286 72.6972-94.8286C69.9757-94.8286 67.9275-92.8539 67.9275-90.0692L67.9275-64.2791L59.0825-64.2791C54.8619-64.2791 53.0597-59.9916 55.8557-56.8619L69.4466-41.4684C71.2816-39.3825 73.9116-39.3653 75.7985-41.4684ZM40.0183-1.55355L105.301-1.55355C121.524-1.55355 132.858-11.3313 132.858-26.6455C132.858-41.9598 121.524-51.7462 105.301-51.7462L94.1646-51.7462L85.7169-42.1958L105.301-42.1958C115.632-42.1958 123.273-36.0865 123.273-26.6455C123.273-17.2046 115.632-11.0953 105.301-11.0953L40.0183-11.0953C29.6438-11.0953 22.0113-17.2046 22.0113-26.6455C22.0113-36.0865 29.6438-42.1958 40.0183-42.1958L59.5488-42.1958L51.1217-51.7462L40.0183-51.7462C23.8037-51.7462 12.4609-41.9598 12.4609-26.6455C12.4609-11.3313 23.8037-1.55355 40.0183-1.55355ZM40.0183 16.7683L105.301 16.7683C122.124 16.7683 132.858 5.68796 132.858-11.7539L132.858-26.6558L123.273-26.6558L123.273-11.7539C123.273-0.240681 116.24 7.20759 105.301 7.20759L40.0183 7.20759C29.0444 7.20759 22.0113-0.240681 22.0113-11.7539L22.0113-26.6558L12.4609-26.6558L12.4609-11.7539C12.4609 5.68796 23.1957 16.7683 40.0183 16.7683Z"/>
  </g>
  <g id="Regular-M" transform="matrix(1 0 0 1 1377.8 1126)">
   <path d="M75.0481-40.0902L88.1241-54.862C90.6947-57.723 89.233-61.8798 85.0666-61.8798L76.2364-61.8798L76.2364-88.2468C76.2364-90.6506 74.3924-92.4429 72.1027-92.4429C69.6884-92.4429 67.9066-90.6506 67.9066-88.2468L67.9066-61.8798L58.9835-61.8798C54.9618-61.8798 53.2519-57.8265 55.9155-54.862L68.9915-40.0902C70.7541-38.0889 73.2232-38.0678 75.0481-40.0902ZM38.5868-2.71643L105.505-2.71643C120.705-2.71643 131.63-11.9335 131.63-26.4299C131.63-40.9264 120.705-50.154 105.505-50.154L92.9081-50.154L85.9671-42.3005L105.505-42.3005C115.857-42.3005 123.736-36.0882 123.736-26.4299C123.736-16.7717 115.857-10.5593 105.505-10.5593L38.5868-10.5593C28.1829-10.5593 20.3144-16.7717 20.3144-26.4299C20.3144-36.0882 28.1829-42.3005 38.5868-42.3005L58.0725-42.3005L51.1315-50.154L38.5868-50.154C23.3964-50.154 12.4609-40.9264 12.4609-26.4299C12.4609-11.9335 23.3964-2.71643 38.5868-2.71643ZM38.5868 14.3456L105.505 14.3456C121.419 14.3456 131.63 3.77989 131.63-12.7801L131.63-26.4299L123.736-26.4299L123.736-12.7801C123.736-1.09951 116.581 6.49211 105.505 6.49211L38.5868 6.49211C27.4689 6.49211 20.3144-1.09951 20.3144-12.7801L20.3144-26.4299L12.4609-26.4299L12.4609-12.7801C12.4609 3.77989 22.6719 14.3456 38.5868 14.3456Z"/>
  </g>
  <g id="Light-M" transform="matrix(1 0 0 1 1083.68 1126)">
   <path d="M72.0708-41.2538L84.3254-55.5293C86.4169-57.877 85.2119-61.2981 81.8669-61.2981L72.6602-61.2981L72.6602-86.7753C72.6602-88.6315 71.2611-89.996 69.5018-89.996C67.6179-89.996 66.2811-88.6315 66.2811-86.7753L66.2811-61.2981L57.0329-61.2981C53.7641-61.2981 52.4135-57.9463 54.5466-55.5293L66.8013-41.2538C68.2901-39.5434 70.5196-39.488 72.0708-41.2538ZM36.3966-4.80396L102.51-4.80396C116.496-4.80396 126.446-13.6104 126.446-27.063C126.446-40.5157 116.496-49.3498 102.51-49.3498L86.6626-49.3498L81.3984-43.3101L102.51-43.3101C112.777-43.3101 120.399-36.8239 120.399-27.063C120.399-17.3022 112.777-10.816 102.51-10.816L36.3966-10.816C26.0954-10.816 18.5006-17.3022 18.5006-27.063C18.5006-36.8239 26.0954-43.3101 36.3966-43.3101L57.4736-43.3101L52.2095-49.3498L36.3966-49.3498C22.4382-49.3498 12.4609-40.5157 12.4609-27.063C12.4609-13.6104 22.4382-4.80396 36.3966-4.80396ZM36.3966 10.2218L102.51 10.2218C116.953 10.2218 126.446 0.203706 126.446-15.0217L126.446-27.063L120.399-27.063L120.399-15.0217C120.399-3.49504 113.262 4.18214 102.51 4.18214L36.3966 4.18214C25.638 4.18214 18.5006-3.49504 18.5006-15.0217L18.5006-27.063L12.4609-27.063L12.4609-15.0217C12.4609 0.203706 21.9532 10.2218 36.3966 10.2218Z"/>
  </g>
  <g id="Thin-M" transform="matrix(1 0 0 1 790.397 1126)">
   <path d="M68.1331-42.7926L79.3015-56.4119C80.7593-58.0807 79.8937-60.5286 77.6349-60.5286L67.9305-60.5286L67.9305-84.829C67.9305-85.9611 67.1197-86.7598 66.062-86.7598C64.8796-86.7598 64.1312-85.9611 64.1312-84.829L64.1312-60.5286L54.453-60.5286C52.1799-60.5286 51.3046-58.1047 52.7362-56.4119L63.9045-42.7926C65.0313-41.467 66.944-41.3664 68.1331-42.7926ZM33.4999-7.56489L98.5498-7.56489C110.929-7.56489 119.589-15.8282 119.589-27.9004C119.589-39.9726 110.929-48.2862 98.5498-48.2862L78.4024-48.2862L75.3561-44.6453L98.5498-44.6453C108.703-44.6453 115.986-37.7971 115.986-27.9004C115.986-18.0037 108.703-11.1555 98.5498-11.1555L33.4999-11.1555C23.3344-11.1555 16.1018-18.0037 16.1018-27.9004C16.1018-37.7971 23.3344-44.6453 33.4999-44.6453L56.6816-44.6453L53.6352-48.2862L33.4999-48.2862C21.1709-48.2862 12.4609-39.9726 12.4609-27.9004C12.4609-15.8282 21.1709-7.56489 33.4999-7.56489ZM33.4999 4.76787L98.5498 4.76787C111.047 4.76787 119.589-4.52609 119.589-17.9863L119.589-27.9004L115.986-27.9004L115.986-17.9863C115.986-6.66332 108.871 1.12701 98.5498 1.12701L33.4999 1.12701C23.2165 1.12701 16.1018-6.66332 16.1018-17.9863L16.1018-27.9004L12.4609-27.9004L12.4609-17.9863C12.4609-4.52609 21.0028 4.76787 33.4999 4.76787Z"/>
  </g>
  <g id="Ultralight-M" transform="matrix(1 0 0 1 495.442 1126)">
   <path d="M66.1162-43.5809L76.7282-56.864C77.8615-58.185 77.1698-60.1345 75.4674-60.1345L65.5079-60.1345L65.5079-83.8322C65.5079-84.5933 64.9985-85.1023 64.3001-85.1023C63.4771-85.1023 63.03-84.5933 63.03-83.8322L63.03-60.1345L53.1316-60.1345C51.3685-60.1345 50.7366-58.1858 51.8089-56.864L62.4209-43.5809C63.3622-42.4522 65.1126-42.3284 66.1162-43.5809ZM32.0162-8.97903L96.5213-8.97903C108.078-8.97903 116.077-16.9641 116.077-28.3293C116.077-39.6944 108.078-47.7414 96.5213-47.7414L74.1716-47.7414L72.2612-45.3292L96.5213-45.3292C106.617-45.3292 113.726-38.2955 113.726-28.3293C113.726-18.363 106.617-11.3293 96.5213-11.3293L32.0162-11.3293C21.9203-11.3293 14.8731-18.363 14.8731-28.3293C14.8731-38.2955 21.9203-45.3292 32.0162-45.3292L56.2759-45.3292L54.3655-47.7414L32.0162-47.7414C20.5218-47.7414 12.4609-39.6944 12.4609-28.3293C12.4609-16.9641 20.5218-8.97903 32.0162-8.97903ZM32.0162 1.97437L96.5213 1.97437C108.022 1.97437 116.077-6.94867 116.077-19.5047L116.077-28.3293L113.726-28.3293L113.726-19.5047C113.726-8.2861 106.623-0.437816 96.5213-0.437816L32.0162-0.437816C21.9763-0.437816 14.8731-8.2861 14.8731-19.5047L14.8731-28.3293L12.4609-28.3293L12.4609-19.5047C12.4609-6.94867 20.5159 1.97437 32.0162 1.97437Z"/>
  </g>
  <g id="Black-S" transform="matrix(1 0 0 1 2874.17 696)">
   <path d="M62.207-45.6543L74.9023-60.1562C77.6855-63.3301 75.9766-67.4805 71.6309-67.4805L65.1367-67.4805L65.1367-85.3516C65.1367-89.0137 62.5-91.2598 59.1797-91.2598C55.8594-91.2598 53.2227-89.0137 53.2227-85.3516L53.2227-67.4805L46.582-67.4805C42.5293-67.4805 40.7715-63.2324 43.457-60.1562L56.1035-45.6543C57.8125-43.7012 60.498-43.7012 62.207-45.6543ZM36.9141-4.3457L81.543-4.3457C98.2422-4.3457 108.691-14.209 108.691-29.3945C108.691-44.5801 98.2422-54.4434 81.543-54.4434L78.418-54.4434L65.918-40.332L81.543-40.332C89.5508-40.332 94.5801-35.9375 94.5801-29.3945C94.5801-22.8516 89.5508-18.457 81.543-18.457L36.9141-18.457C28.9062-18.457 23.877-22.8516 23.877-29.3945C23.877-35.9375 28.9062-40.332 36.9141-40.332L52.4902-40.332L40.0879-54.4434L36.9141-54.4434C20.2148-54.4434 9.76562-44.5801 9.76562-29.3945C9.76562-14.209 20.2148-4.3457 36.9141-4.3457ZM36.9141 14.8926L81.543 14.8926C98.2422 14.8926 108.691 4.19922 108.691-12.8906L108.691-29.4434L94.5801-29.4434L94.5801-12.8906C94.5801-4.54102 89.5508 0.732422 81.543 0.732422L36.9141 0.732422C28.9062 0.732422 23.877-4.54102 23.877-12.8906L23.877-29.4434L9.76562-29.4434L9.76562-12.8906C9.76562 4.19922 20.2148 14.8926 36.9141 14.8926Z"/>
  </g>
  <g id="Heavy-S" transform="matrix(1 0 0 1 2577.82 696)">
   <path d="M61.7461-43.9602L73.9573-57.8283C76.6138-60.8408 75.0085-64.8644 70.8241-64.8644L64.2724-64.8644L64.2724-83.4961C64.2724-86.801 61.8662-88.8973 58.8455-88.8973C55.8018-88.8973 53.407-86.801 53.407-83.4961L53.407-64.8644L46.7203-64.8644C42.7944-64.8644 41.0942-60.7892 43.699-57.8283L55.873-43.9602C57.5359-42.0647 60.0716-42.0647 61.7461-43.9602ZM35.5887-5.38291L82.1538-5.38291C97.8619-5.38291 107.977-14.67 107.977-29.0718C107.977-43.4737 97.8619-52.7608 82.1538-52.7608L77.8072-52.7608L66.7823-40.3205L82.1538-40.3205C90.1962-40.3205 95.5251-35.8453 95.5251-29.0718C95.5251-22.2984 90.1962-17.8232 82.1538-17.8232L35.5887-17.8232C27.5348-17.8232 22.2059-22.2984 22.2059-29.0718C22.2059-35.8453 27.5348-40.3205 35.5887-40.3205L50.9114-40.3205L39.9611-52.7608L35.5887-52.7608C19.8806-52.7608 9.76562-43.4737 9.76562-29.0718C9.76562-14.67 19.8806-5.38291 35.5887-5.38291ZM35.5887 12.7029L82.1538 12.7029C98.0232 12.7029 107.977 2.51665 107.977-13.755L107.977-29.1091L95.5251-29.1091L95.5251-13.755C95.5251-5.19791 90.3575 0.225345 82.1538 0.225345L35.5887 0.225345C27.3735 0.225345 22.2059-5.19791 22.2059-13.755L22.2059-29.1091L9.76562-29.1091L9.76562-13.755C9.76562 2.51665 19.7193 12.7029 35.5887 12.7029Z"/>
  </g>
  <g id="Bold-S" transform="matrix(1 0 0 1 2281.51 696)">
   <path d="M61.2305-42.0654L72.9004-55.2246C75.415-58.0566 73.9258-61.9385 69.9219-61.9385L63.3057-61.9385L63.3057-81.4209C63.3057-84.3262 61.1572-86.2549 58.4717-86.2549C55.7373-86.2549 53.6133-84.3262 53.6133-81.4209L53.6133-61.9385L46.875-61.9385C43.0908-61.9385 41.4551-58.0566 43.9697-55.2246L55.6152-42.0654C57.2266-40.2344 59.5947-40.2344 61.2305-42.0654ZM34.1064-6.54297L82.8369-6.54297C97.4365-6.54297 107.178-15.1855 107.178-28.7109C107.178-42.2363 97.4365-50.8789 82.8369-50.8789L77.124-50.8789L67.749-40.3076L82.8369-40.3076C90.918-40.3076 96.582-35.7422 96.582-28.7109C96.582-21.6797 90.918-17.1143 82.8369-17.1143L34.1064-17.1143C26.001-17.1143 20.3369-21.6797 20.3369-28.7109C20.3369-35.7422 26.001-40.3076 34.1064-40.3076L49.1455-40.3076L39.8193-50.8789L34.1064-50.8789C19.5068-50.8789 9.76562-42.2363 9.76562-28.7109C9.76562-15.1855 19.5068-6.54297 34.1064-6.54297ZM34.1064 10.2539L82.8369 10.2539C97.7783 10.2539 107.178 0.634766 107.178-14.7217L107.178-28.7354L96.582-28.7354L96.582-14.7217C96.582-5.93262 91.2598-0.341797 82.8369-0.341797L34.1064-0.341797C25.6592-0.341797 20.3369-5.93262 20.3369-14.7217L20.3369-28.7354L9.76562-28.7354L9.76562-14.7217C9.76562 0.634766 19.165 10.2539 34.1064 10.2539Z"/>
  </g>
  <g id="Semibold-S" transform="matrix(1 0 0 1 1985.07 696)">
   <path d="M60.875-40.7591L72.1717-53.4295C74.5886-56.1371 73.1793-59.9212 69.2998-59.9212L62.6392-59.9212L62.6392-79.9901C62.6392-82.6199 60.6685-84.4331 58.214-84.4331C55.6929-84.4331 53.7555-82.6199 53.7555-79.9901L53.7555-59.9212L46.9816-59.9212C43.2952-59.9212 41.7039-56.1727 44.1563-53.4295L55.4375-40.7591C57.0133-38.9725 59.2659-38.9725 60.875-40.7591ZM33.0845-7.34277L83.3079-7.34277C97.1433-7.34277 106.627-15.541 106.627-28.4621C106.627-41.3832 97.1433-49.5814 83.3079-49.5814L76.653-49.5814L68.4155-40.2987L83.3079-40.2987C91.4156-40.2987 97.3107-35.6711 97.3107-28.4621C97.3107-21.2531 91.4156-16.6255 83.3079-16.6255L33.0845-16.6255C24.9435-16.6255 19.0483-21.2531 19.0483-28.4621C19.0483-35.6711 24.9435-40.2987 33.0845-40.2987L47.928-40.2987L39.7216-49.5814L33.0845-49.5814C19.2491-49.5814 9.76562-41.3832 9.76562-28.4621C9.76562-15.541 19.2491-7.34277 33.0845-7.34277ZM33.0845 8.56543L83.3079 8.56543C97.6095 8.56543 106.627-0.662695 106.627-15.3882L106.627-28.4776L97.3107-28.4776L97.3107-15.3882C97.3107-6.43916 91.8818-0.732812 83.3079-0.732812L33.0845-0.732812C24.4772-0.732812 19.0483-6.43916 19.0483-15.3882L19.0483-28.4776L9.76562-28.4776L9.76562-15.3882C9.76562-0.662695 18.7829 8.56543 33.0845 8.56543Z"/>
  </g>
  <g id="Medium-S" transform="matrix(1 0 0 1 1688.57 696)">
   <path d="M60.6055-39.7686L71.6191-52.0684C73.9619-54.6816 72.6133-58.3916 68.8281-58.3916L62.1338-58.3916L62.1338-78.9053C62.1338-81.3262 60.2979-83.0518 58.0186-83.0518C55.6592-83.0518 53.8633-81.3262 53.8633-78.9053L53.8633-58.3916L47.0625-58.3916C43.4502-58.3916 41.8926-54.7441 44.2979-52.0684L55.3027-39.7686C56.8516-38.0156 59.0166-38.0156 60.6055-39.7686ZM32.3096-7.94922L83.665-7.94922C96.9209-7.94922 106.209-15.8105 106.209-28.2734C106.209-40.7363 96.9209-48.5977 83.665-48.5977L76.2959-48.5977L68.9209-40.292L83.665-40.292C91.793-40.292 97.8633-35.6172 97.8633-28.2734C97.8633-20.9297 91.793-16.2549 83.665-16.2549L32.3096-16.2549C24.1416-16.2549 18.0713-20.9297 18.0713-28.2734C18.0713-35.6172 24.1416-40.292 32.3096-40.292L47.0049-40.292L39.6475-48.5977L32.3096-48.5977C19.0537-48.5977 9.76562-40.7363 9.76562-28.2734C9.76562-15.8105 19.0537-7.94922 32.3096-7.94922ZM32.3096 7.28516L83.665 7.28516C97.4814 7.28516 106.209-1.64648 106.209-15.8936L106.209-28.2822L97.8633-28.2822L97.8633-15.8936C97.8633-6.82324 92.3535-1.0293 83.665-1.0293L32.3096-1.0293C23.5811-1.0293 18.0713-6.82324 18.0713-15.8936L18.0713-28.2822L9.76562-28.2822L9.76562-15.8936C9.76562-1.64648 18.4932 7.28516 32.3096 7.28516Z"/>
  </g>
  <g id="Regular-S" transform="matrix(1 0 0 1 1392.13 696)">
   <path d="M60.2539-38.4766L70.8984-50.293C73.1445-52.7832 71.875-56.3965 68.2129-56.3965L61.4746-56.3965L61.4746-77.4902C61.4746-79.6387 59.8145-81.25 57.7637-81.25C55.6152-81.25 54.0039-79.6387 54.0039-77.4902L54.0039-56.3965L47.168-56.3965C43.6523-56.3965 42.1387-52.8809 44.4824-50.293L55.127-38.4766C56.6406-36.7676 58.6914-36.7676 60.2539-38.4766ZM31.2988-8.74023L84.1309-8.74023C96.6309-8.74023 105.664-16.1621 105.664-28.0273C105.664-39.8926 96.6309-47.3145 84.1309-47.3145L75.8301-47.3145L69.5801-40.2832L84.1309-40.2832C92.2852-40.2832 98.584-35.5469 98.584-28.0273C98.584-20.5078 92.2852-15.7715 84.1309-15.7715L31.2988-15.7715C23.0957-15.7715 16.7969-20.5078 16.7969-28.0273C16.7969-35.5469 23.0957-40.2832 31.2988-40.2832L45.8008-40.2832L39.5508-47.3145L31.2988-47.3145C18.7988-47.3145 9.76562-39.8926 9.76562-28.0273C9.76562-16.1621 18.7988-8.74023 31.2988-8.74023ZM31.2988 5.61523L84.1309 5.61523C97.3145 5.61523 105.664-2.92969 105.664-16.5527L105.664-28.0273L98.584-28.0273L98.584-16.5527C98.584-7.32422 92.9688-1.41602 84.1309-1.41602L31.2988-1.41602C22.4121-1.41602 16.7969-7.32422 16.7969-16.5527L16.7969-28.0273L9.76562-28.0273L9.76562-16.5527C9.76562-2.92969 18.1152 5.61523 31.2988 5.61523Z"/>
  </g>
  <g id="Light-S" transform="matrix(1 0 0 1 1097.71 696)">
   <path d="M57.6201-39.5059L67.5381-50.8833C69.3604-52.9194 68.3179-55.8818 65.3823-55.8818L58.3111-55.8818L58.3111-76.1885C58.3111-77.8526 57.0445-79.0855 55.4629-79.0855C53.7837-79.0855 52.5659-77.8526 52.5659-76.1885L52.5659-55.8818L45.4424-55.8818C42.5928-55.8818 41.397-52.9868 43.2715-50.8833L53.1895-39.5059C54.461-38.0542 56.2998-38.0239 57.6201-39.5059ZM29.3613-10.5869L81.482-10.5869C92.9073-10.5869 101.078-17.6455 101.078-28.5874C101.078-39.5293 92.9073-46.603 81.482-46.603L70.3052-46.603L65.5386-41.1763L81.482-41.1763C89.5606-41.1763 95.6323-36.1977 95.6323-28.5874C95.6323-20.977 89.5606-15.9985 81.482-15.9985L29.3613-15.9985C21.249-15.9985 15.1924-20.977 15.1924-28.5874C15.1924-36.1977 21.249-41.1763 29.3613-41.1763L45.271-41.1763L40.5044-46.603L29.3613-46.603C17.9512-46.603 9.76562-39.5293 9.76562-28.5874C9.76562-17.6455 17.9512-10.5869 29.3613-10.5869ZM29.3613 1.96731L81.482 1.96731C93.3638 1.96731 101.078-6.09324 101.078-18.5356L101.078-28.5874L95.6323-28.5874L95.6323-18.5356C95.6323-9.44334 90.0322-3.45946 81.482-3.45946L29.3613-3.45946C20.7925-3.45946 15.1924-9.44334 15.1924-18.5356L15.1924-28.5874L9.76562-28.5874L9.76562-18.5356C9.76562-6.09324 17.4795 1.96731 29.3613 1.96731Z"/>
  </g>
  <g id="Thin-S" transform="matrix(1 0 0 1 804.034 696)">
   <path d="M54.1368-40.8672L63.0938-51.6641C64.3555-53.0996 63.6133-55.2012 61.6387-55.2012L54.127-55.2012L54.127-74.4668C54.127-75.4903 53.3809-76.2227 52.42-76.2227C51.3614-76.2227 50.6641-75.4903 50.6641-74.4668L50.6641-55.2012L43.1602-55.2012C41.1914-55.2012 40.416-53.127 41.6699-51.6641L50.627-40.8672C51.5782-39.7558 53.1368-39.6855 54.1368-40.8672ZM26.7989-13.0293L77.9786-13.0293C87.9825-13.0293 95.0118-19.6074 95.0118-29.3281C95.0118-39.0488 87.9825-45.6621 77.9786-45.6621L62.9981-45.6621L60.1934-42.3574L77.9786-42.3574C85.9571-42.3574 91.7286-37.0586 91.7286-29.3281C91.7286-21.5976 85.9571-16.2988 77.9786-16.2988L26.7989-16.2988C18.8067-16.2988 13.0703-21.5976 13.0703-29.3281C13.0703-37.0586 18.8067-42.3574 26.7989-42.3574L44.5703-42.3574L41.7656-45.6621L26.7989-45.6621C16.8301-45.6621 9.76562-39.0488 9.76562-29.3281C9.76562-19.6074 16.8301-13.0293 26.7989-13.0293ZM26.7989-2.85736L77.9786-2.85736C88.1387-2.85736 95.0118-10.2773 95.0118-21.1582L95.0118-29.3281L91.7286-29.3281L91.7286-21.1582C91.7286-12.2461 86.1485-6.16207 77.9786-6.16207L26.7989-6.16207C18.6504-6.16207 13.0703-12.2461 13.0703-21.1582L13.0703-29.3281L9.76562-29.3281L9.76562-21.1582C9.76562-10.2773 16.6387-2.85736 26.7989-2.85736Z"/>
  </g>
  <g id="Ultralight-S" transform="matrix(1 0 0 1 508.876 696)">
   <path d="M52.3526-41.5644L60.8175-52.064C61.7921-53.1919 61.2037-54.8526 59.7213-54.8526L51.984-54.8526L51.984-73.585C51.984-74.2803 51.5045-74.7564 50.8614-74.7564C50.1206-74.7564 49.69-74.2803 49.69-73.585L49.69-54.8526L41.9913-54.8526C40.4737-54.8526 39.9136-53.1987 40.8496-52.064L49.3145-41.5644C50.1016-40.6274 51.5167-40.5366 52.3526-41.5644ZM25.4864-14.2802L76.1841-14.2802C85.46-14.2802 91.9049-20.6123 91.9049-29.7075C91.9049-38.8027 85.46-45.1802 76.1841-45.1802L59.2555-45.1802L57.4557-42.9624L76.1841-42.9624C84.1114-42.9624 89.7291-37.4995 89.7291-29.7075C89.7291-21.9155 84.1114-16.4526 76.1841-16.4526L25.4864-16.4526C17.5557-16.4526 11.9834-21.9155 11.9834-29.7075C11.9834-37.4995 17.5557-42.9624 25.4864-42.9624L44.2114-42.9624L42.4116-45.1802L25.4864-45.1802C16.2559-45.1802 9.76562-38.8027 9.76562-29.7075C9.76562-20.6123 16.2559-14.2802 25.4864-14.2802ZM25.4864-5.32853L76.1841-5.32853C85.4625-5.32853 91.9049-12.4203 91.9049-22.5014L91.9049-29.7075L89.7291-29.7075L89.7291-22.5014C89.7291-13.6816 84.1592-7.54634 76.1841-7.54634L25.4864-7.54634C17.5533-7.54634 11.9834-13.6816 11.9834-22.5014L11.9834-29.7075L9.76562-29.7075L9.76562-22.5014C9.76562-12.4203 16.208-5.32853 25.4864-5.32853Z"/>
  </g>
 </g>
</svg>
