<?xml version="1.0" encoding="UTF-8"?>
<!--Generator: Apple Native CoreSVG 341-->
<!DOCTYPE svg
PUBLIC "-//W3C//DTD SVG 1.1//EN"
       "http://www.w3.org/Graphics/SVG/1.1/DTD/svg11.dtd">
<svg version="1.1" xmlns="http://www.w3.org/2000/svg" xmlns:xlink="http://www.w3.org/1999/xlink" viewBox="0 0 3300 2200">
 <g id="Notes">
  <rect height="2200" id="artboard" style="fill:white;opacity:1" width="3300" x="0" y="0"/>
  <line style="fill:none;stroke:black;opacity:1;stroke-width:0.5;" x1="263" x2="3036" y1="292" y2="292"/>
  <text style="stroke:none;fill:black;font-family:sans-serif;font-size:13;font-weight:bold;" transform="matrix(1 0 0 1 263 322)">Weight/Scale Variations</text>
  <text style="stroke:none;fill:black;font-family:sans-serif;font-size:13;text-anchor:middle;" transform="matrix(1 0 0 1 559.711 322)">Ultralight</text>
  <text style="stroke:none;fill:black;font-family:sans-serif;font-size:13;text-anchor:middle;" transform="matrix(1 0 0 1 856.422 322)">Thin</text>
  <text style="stroke:none;fill:black;font-family:sans-serif;font-size:13;text-anchor:middle;" transform="matrix(1 0 0 1 1153.13 322)">Light</text>
  <text style="stroke:none;fill:black;font-family:sans-serif;font-size:13;text-anchor:middle;" transform="matrix(1 0 0 1 1449.84 322)">Regular</text>
  <text style="stroke:none;fill:black;font-family:sans-serif;font-size:13;text-anchor:middle;" transform="matrix(1 0 0 1 1746.56 322)">Medium</text>
  <text style="stroke:none;fill:black;font-family:sans-serif;font-size:13;text-anchor:middle;" transform="matrix(1 0 0 1 2043.27 322)">Semibold</text>
  <text style="stroke:none;fill:black;font-family:sans-serif;font-size:13;text-anchor:middle;" transform="matrix(1 0 0 1 2339.98 322)">Bold</text>
  <text style="stroke:none;fill:black;font-family:sans-serif;font-size:13;text-anchor:middle;" transform="matrix(1 0 0 1 2636.69 322)">Heavy</text>
  <text style="stroke:none;fill:black;font-family:sans-serif;font-size:13;text-anchor:middle;" transform="matrix(1 0 0 1 2933.4 322)">Black</text>
  <line style="fill:none;stroke:black;opacity:1;stroke-width:0.5;" x1="263" x2="3036" y1="1903" y2="1903"/>
  <g transform="matrix(0.2 0 0 0.2 263 1933)">
   <path d="m46.2402 4.15039c21.7773 0 39.4531-17.627 39.4531-39.4043s-17.6758-39.4043-39.4531-39.4043c-21.7285 0-39.4043 17.627-39.4043 39.4043s17.6758 39.4043 39.4043 39.4043Zm0-7.42188c-17.6758 0-31.9336-14.3066-31.9336-31.9824s14.2578-31.9824 31.9336-31.9824 31.9824 14.3066 31.9824 31.9824-14.3066 31.9824-31.9824 31.9824Zm3.61328-17.7734v-28.4668c0-2.24609-1.46484-3.75977-3.71094-3.75977-2.14844 0-3.61328 1.51367-3.61328 3.75977v28.4668c0 2.19727 1.46484 3.71094 3.61328 3.71094 2.24609 0 3.71094-1.51367 3.71094-3.71094Zm-17.8223-10.5957h28.418c2.19727 0 3.71094-1.46484 3.71094-3.61328 0-2.19727-1.51367-3.71094-3.71094-3.71094h-28.418c-2.24609 0-3.75977 1.51367-3.75977 3.71094 0 2.14844 1.51367 3.61328 3.75977 3.61328Z"/>
  </g>
  <g transform="matrix(0.2 0 0 0.2 281.506 1933)">
   <path d="m58.5449 14.5508c27.4902 0 49.8047-22.3145 49.8047-49.8047s-22.3145-49.8047-49.8047-49.8047-49.8047 22.3145-49.8047 49.8047 22.3145 49.8047 49.8047 49.8047Zm0-8.30078c-22.9492 0-41.5039-18.5547-41.5039-41.5039s18.5547-41.5039 41.5039-41.5039 41.5039 18.5547 41.5039 41.5039-18.5547 41.5039-41.5039 41.5039Zm4.05273-23.0957v-36.9141c0-2.49023-1.70898-4.19922-4.15039-4.19922-2.39258 0-4.05273 1.70898-4.05273 4.19922v36.9141c0 2.44141 1.66016 4.15039 4.05273 4.15039 2.44141 0 4.15039-1.66016 4.15039-4.15039Zm-22.5586-14.4043h36.9629c2.44141 0 4.15039-1.61133 4.15039-4.00391 0-2.44141-1.70898-4.15039-4.15039-4.15039h-36.9629c-2.49023 0-4.15039 1.70898-4.15039 4.15039 0 2.39258 1.66016 4.00391 4.15039 4.00391Z"/>
  </g>
  <g transform="matrix(0.2 0 0 0.2 304.924 1933)">
   <path d="m74.8535 28.3203c35.1074 0 63.623-28.4668 63.623-63.5742s-28.5156-63.623-63.623-63.623-63.5742 28.5156-63.5742 63.623 28.4668 63.5742 63.5742 63.5742Zm0-9.08203c-30.127 0-54.4922-24.3652-54.4922-54.4922s24.3652-54.4922 54.4922-54.4922 54.4922 24.3652 54.4922 54.4922-24.3652 54.4922-54.4922 54.4922Zm4.44336-30.3223v-48.4863c0-2.73438-1.85547-4.63867-4.54102-4.63867-2.58789 0-4.44336 1.9043-4.44336 4.63867v48.4863c0 2.68555 1.85547 4.58984 4.44336 4.58984 2.68555 0 4.54102-1.85547 4.54102-4.58984Zm-28.7109-19.7754h48.4863c2.68555 0 4.58984-1.80664 4.58984-4.39453 0-2.73438-1.85547-4.58984-4.58984-4.58984h-48.4863c-2.73438 0-4.58984 1.85547-4.58984 4.58984 0 2.58789 1.85547 4.39453 4.58984 4.39453Z"/>
  </g>
  <text style="stroke:none;fill:black;font-family:sans-serif;font-size:13;font-weight:bold;" transform="matrix(1 0 0 1 263 1953)">Design Variations</text>
  <text style="stroke:none;fill:black;font-family:sans-serif;font-size:13;" transform="matrix(1 0 0 1 263 1971)">Symbols are supported in up to nine weights and three scales.</text>
  <text style="stroke:none;fill:black;font-family:sans-serif;font-size:13;" transform="matrix(1 0 0 1 263 1989)">For optimal layout with text and other symbols, vertically align</text>
  <text style="stroke:none;fill:black;font-family:sans-serif;font-size:13;" transform="matrix(1 0 0 1 263 2007)">symbols with the adjacent text.</text>
  <line style="fill:none;stroke:#00AEEF;stroke-width:0.5;opacity:1.0;" x1="776" x2="776" y1="1919" y2="1933"/>
  <g transform="matrix(0.2 0 0 0.2 776 1933)">
   <path d="m16.5527 0.78125c2.58789 0 3.85742-0.976562 4.78516-3.71094l20.5566-57.5195h0.244141l20.6055 57.5195c0.927734 2.73438 2.19727 3.71094 4.73633 3.71094 2.58789 0 4.24805-1.5625 4.24805-4.00391 0-0.830078-0.146484-1.61133-0.537109-2.63672l-22.9004-60.9863c-1.12305-2.97852-3.125-4.49219-6.25-4.49219-3.02734 0-5.07812 1.46484-6.15234 4.44336l-22.9004 61.084c-0.390625 1.02539-0.537109 1.80664-0.537109 2.63672 0 2.44141 1.5625 3.95508 4.10156 3.95508Zm10.2051-20.9473h30.6641c2.00195 0 3.66211-1.66016 3.66211-3.66211 0-2.05078-1.66016-3.66211-3.66211-3.66211h-30.6641c-2.00195 0-3.66211 1.61133-3.66211 3.66211 0 2.00195 1.66016 3.66211 3.66211 3.66211Z"/>
  </g>
  <line style="fill:none;stroke:#00AEEF;stroke-width:0.5;opacity:1.0;" x1="792.836" x2="792.836" y1="1919" y2="1933"/>
  <text style="stroke:none;fill:black;font-family:sans-serif;font-size:13;font-weight:bold;" transform="matrix(1 0 0 1 776 1953)">Margins</text>
  <text style="stroke:none;fill:black;font-family:sans-serif;font-size:13;" transform="matrix(1 0 0 1 776 1971)">Leading and trailing margins on the left and right side of each symbol</text>
  <text style="stroke:none;fill:black;font-family:sans-serif;font-size:13;" transform="matrix(1 0 0 1 776 1989)">can be adjusted by modifying the x-location of the margin guidelines.</text>
  <text style="stroke:none;fill:black;font-family:sans-serif;font-size:13;" transform="matrix(1 0 0 1 776 2007)">Modifications are automatically applied proportionally to all</text>
  <text style="stroke:none;fill:black;font-family:sans-serif;font-size:13;" transform="matrix(1 0 0 1 776 2025)">scales and weights.</text>
  <g transform="matrix(0.2 0 0 0.2 1289 1933)">
   <path d="m14.209 13.1348 7.86133 7.86133c4.29688 4.39453 9.32617 4.10156 13.8672-1.02539l60.6934-68.2129-4.88281-4.88281-60.2539 67.6758c-1.80664 1.95312-3.4668 2.44141-5.81055 0.0976562l-5.17578-5.12695c-2.29492-2.29492-1.80664-3.95508 0.195312-5.81055l67.4805-62.1582-4.88281-4.83398-68.0664 62.5977c-4.98047 4.58984-5.32227 9.47266-1.02539 13.8184Zm44.873-97.4609c-2.05078 2.00195-2.24609 4.88281-1.07422 6.78711 1.12305 1.80664 3.4668 3.02734 6.5918 2.24609 5.85938-1.66016 12.5977-2.39258 18.8965 0.927734l-2.68555 7.12891c-1.61133 4.00391-0.732422 6.88477 1.70898 9.42383l10.2539 10.3027c2.34375 2.39258 4.54102 2.44141 7.08008 1.95312l4.44336-0.732422 2.58789 2.53906-0.195312 2.24609c-0.0976562 2.29492 0.537109 4.29688 2.7832 6.49414l3.36914 3.32031c2.29492 2.29492 5.51758 2.49023 7.8125 0.195312l12.9883-13.0371c2.29492-2.34375 2.14844-5.37109-0.195312-7.66602l-3.41797-3.41797c-2.19727-2.19727-4.05273-3.02734-6.34766-2.88086l-2.34375 0.244141-2.44141-2.44141 1.02539-4.6875c0.634766-2.73438-0.244141-4.98047-2.88086-7.61719l-11.2793-11.1816c-12.9395-12.8418-35.5957-11.0352-46.6797-0.146484Zm7.08008 2.05078c8.78906-6.39648 25.9766-5.66406 33.6914 1.95312l12.3047 12.207c1.02539 1.02539 1.2207 1.80664 0.927734 3.32031l-1.46484 6.64062 6.73828 6.68945 4.39453-0.244141c1.12305-0.0488281 1.51367 0.0488281 2.34375 0.878906l2.53906 2.49023-10.8398 10.8398-2.49023-2.49023c-0.830078-0.878906-0.976562-1.2207-0.927734-2.39258l0.292969-4.3457-6.68945-6.73828-6.83594 1.17188c-1.41602 0.292969-2.05078 0.195312-3.17383-0.878906l-8.93555-8.88672c-1.07422-1.02539-1.17188-1.70898-0.488281-3.36914l4.58984-11.4746c-6.10352-6.34766-17.041-7.51953-25.5859-4.58984-0.683594 0.244141-0.927734-0.390625-0.390625-0.78125Z"/>
  </g>
  <text style="stroke:none;fill:black;font-family:sans-serif;font-size:13;font-weight:bold;" transform="matrix(1 0 0 1 1289 1953)">Exporting</text>
  <text style="stroke:none;fill:black;font-family:sans-serif;font-size:13;" transform="matrix(1 0 0 1 1289 1971)">Symbols should be outlined when exporting to ensure the</text>
  <text style="stroke:none;fill:black;font-family:sans-serif;font-size:13;" transform="matrix(1 0 0 1 1289 1989)">design is preserved when submitting to Xcode.</text>
  <text id="template-version" style="stroke:none;fill:black;font-family:sans-serif;font-size:13;text-anchor:end;" transform="matrix(1 0 0 1 3036 1933)">Template v.2.0</text>
  <text style="stroke:none;fill:black;font-family:sans-serif;font-size:13;text-anchor:end;" transform="matrix(1 0 0 1 3036 1951)">Requires Xcode 12 or greater</text>
  <text id="descriptive-name" style="stroke:none;fill:black;font-family:sans-serif;font-size:13;text-anchor:end;" transform="matrix(1 0 0 1 3036 1969)">Generated from usb</text>
  <text style="stroke:none;fill:black;font-family:sans-serif;font-size:13;text-anchor:end;" transform="matrix(1 0 0 1 3036 1987)">Typeset at 100.0 points</text>
  <text style="stroke:none;fill:black;font-family:sans-serif;font-size:13;" transform="matrix(1 0 0 1 263 726)">Small</text>
  <text style="stroke:none;fill:black;font-family:sans-serif;font-size:13;" transform="matrix(1 0 0 1 263 1156)">Medium</text>
  <text style="stroke:none;fill:black;font-family:sans-serif;font-size:13;" transform="matrix(1 0 0 1 263 1586)">Large</text>
 </g>
 <g id="Guides">
  <g id="H-reference" style="fill:#27AAE1;stroke:none;" transform="matrix(1 0 0 1 339 696)">
   <path d="M0.993654 0L3.63775 0L29.3281-67.1323L30.0303-67.1323L30.0303-70.459L28.1226-70.459ZM11.6885-24.4799L46.9815-24.4799L46.2315-26.7285L12.4385-26.7285ZM55.1196 0L57.7637 0L30.6382-70.459L29.4326-70.459L29.4326-67.1323Z"/>
  </g>
  <line id="Baseline-S" style="fill:none;stroke:#27AAE1;opacity:1;stroke-width:0.5;" x1="263" x2="3036" y1="696" y2="696"/>
  <line id="Capline-S" style="fill:none;stroke:#27AAE1;opacity:1;stroke-width:0.5;" x1="263" x2="3036" y1="625.541" y2="625.541"/>
  <g id="H-reference" style="fill:#27AAE1;stroke:none;" transform="matrix(1 0 0 1 339 1126)">
   <path d="M0.993654 0L3.63775 0L29.3281-67.1323L30.0303-67.1323L30.0303-70.459L28.1226-70.459ZM11.6885-24.4799L46.9815-24.4799L46.2315-26.7285L12.4385-26.7285ZM55.1196 0L57.7637 0L30.6382-70.459L29.4326-70.459L29.4326-67.1323Z"/>
  </g>
  <line id="Baseline-M" style="fill:none;stroke:#27AAE1;opacity:1;stroke-width:0.5;" x1="263" x2="3036" y1="1126" y2="1126"/>
  <line id="Capline-M" style="fill:none;stroke:#27AAE1;opacity:1;stroke-width:0.5;" x1="263" x2="3036" y1="1055.54" y2="1055.54"/>
  <g id="H-reference" style="fill:#27AAE1;stroke:none;" transform="matrix(1 0 0 1 339 1556)">
   <path d="M0.993654 0L3.63775 0L29.3281-67.1323L30.0303-67.1323L30.0303-70.459L28.1226-70.459ZM11.6885-24.4799L46.9815-24.4799L46.2315-26.7285L12.4385-26.7285ZM55.1196 0L57.7637 0L30.6382-70.459L29.4326-70.459L29.4326-67.1323Z"/>
  </g>
  <line id="Baseline-L" style="fill:none;stroke:#27AAE1;opacity:1;stroke-width:0.5;" x1="263" x2="3036" y1="1556" y2="1556"/>
  <line id="Capline-L" style="fill:none;stroke:#27AAE1;opacity:1;stroke-width:0.5;" x1="263" x2="3036" y1="1485.54" y2="1485.54"/>
  <line id="right-margin" style="fill:none;stroke:#00AEEF;stroke-width:0.5;opacity:1.0;" x1="1511.36" x2="1511.36" y1="1030.79" y2="1150.12"/>
  <line id="left-margin" style="fill:none;stroke:#00AEEF;stroke-width:0.5;opacity:1.0;" x1="1388.33" x2="1388.33" y1="1030.79" y2="1150.12"/>
 </g>
 <g id="Symbols">
  <g id="Black-L" transform="matrix(1 0 0 1 2845.51 1556)">
   <path d="M89.5202-30.3227L89.5202-86.8261L94.5764-86.8261L87.3418-99.5617L80.1072-86.8261L85.1275-86.8261L85.1275-10.2354C83.5786-12.377 81.6558-14.3814 78.9949-16.8008C79.2322-16.585 75.3722-20.0345 74.4343-20.9326C72.5122-22.7733 71.31-24.2422 70.6083-25.6866C69.5222-27.9226 68.8282-30.9031 68.4698-34.5268C68.1889-37.3672 68.1312-39.9318 68.1812-43.9538C71.1075-44.9868 73.2044-47.7769 73.2044-51.0567C73.2044-55.2156 69.8329-58.5871 65.674-58.5871C61.515-58.5871 58.1436-55.2156 58.1436-51.0567C58.1436-47.5498 60.5408-44.6028 63.7859-43.765C63.7393-39.7262 63.8032-37.0791 64.0984-34.0945C64.5034-29.9989 65.3076-26.5455 66.6571-23.7673C67.6317-21.7609 69.1306-19.9295 71.3961-17.76C72.3984-16.8002 76.3307-13.2862 76.0397-13.5508C82.124-8.01851 84.9251-3.75594 85.1275 2.21673L85.1275 3.65527C85.1266 3.68331 85.1257 3.71138 85.1247 3.73949L85.1275 3.7396L85.1275 4.43095C79.7479 5.58366 75.7145 10.3655 75.7145 16.0894C75.7145 22.6744 81.0527 28.0125 87.6376 28.0125C94.2226 28.0125 99.5608 22.6744 99.5608 16.0894C99.5608 10.145 95.2107 5.21666 89.5202 4.31404L89.5202 3.72065C89.5339 3.24477 89.5338 2.77499 89.5202 2.31105L89.5202-18.1827L90.6833-18.2242C90.4401-25.0456 92.9453-29.019 99.3042-34.3287C99.6712-34.6351 101.62-36.2374 102.165-36.6957C105.303-39.3368 107.106-41.2905 108.296-43.7414C109.543-46.3088 110.269-49.3493 110.592-52.8417C110.849-55.6104 110.851-58.2323 110.679-61.7248L115.877-61.7248L115.877-76.1581L101.443-76.1581L101.443-61.7248L106.281-61.7248C106.454-58.3156 106.457-55.8205 106.218-53.2472C105.94-50.2392 105.332-47.6932 104.345-45.6607C103.493-43.9078 102.038-42.3299 99.3366-40.0567C98.816-39.6187 96.8756-38.0236 96.4887-37.7005C93.2376-34.9858 91.1858-32.9056 89.5202-30.3227Z"/>
  </g>
  <g id="Heavy-L" transform="matrix(1 0 0 1 2550.84 1556)">
   <path d="M87.4926-30.7023L87.4926-87.2057L92.5487-87.2057L85.3141-99.9413L78.0796-87.2057L83.0998-87.2057L83.0998-10.6149C81.551-12.7566 79.6281-14.7609 76.9672-17.1804C77.2045-16.9646 73.3446-20.414 72.4066-21.3122C70.4845-23.1528 69.2823-24.6217 68.5807-26.0662C67.4945-28.3021 66.8005-31.2827 66.4421-34.9064C66.1612-37.7468 66.1036-40.3114 66.1536-44.3334C69.0799-45.3663 71.1767-48.1564 71.1767-51.4363C71.1767-55.5952 67.8052-58.9667 63.6463-58.9667C59.4874-58.9667 56.1159-55.5952 56.1159-51.4363C56.1159-47.9294 58.5131-44.9824 61.7583-44.1445C61.7116-40.1057 61.7755-37.4586 62.0707-34.474C62.4758-30.3784 63.2799-26.925 64.6294-24.1468C65.6041-22.1404 67.1029-20.3091 69.3685-18.1396C70.3707-17.1798 74.303-13.6657 74.012-13.9303C80.0963-8.39807 82.8974-4.1355 83.0998 1.83717L83.0998 3.27572C83.0989 3.30375 83.098 3.33183 83.097 3.35994L83.0998 3.36004L83.0998 4.05139C77.7202 5.20411 73.6868 9.98595 73.6868 15.7098C73.6868 22.2948 79.025 27.633 85.61 27.633C92.1949 27.633 97.5331 22.2948 97.5331 15.7098C97.5331 9.76546 93.183 4.8371 87.4926 3.93449L87.4926 3.34109C87.5062 2.86521 87.5062 2.39543 87.4926 1.93149L87.4926-18.5623L88.6557-18.6037C88.4124-25.4252 90.9177-29.3986 97.2766-34.7083C97.6435-35.0147 99.5927-36.617 100.137-37.0752C103.276-39.7163 105.078-41.67 106.268-44.121C107.516-46.6884 108.241-49.7289 108.565-53.2212C108.821-55.9899 108.823-58.6119 108.651-62.1043L113.849-62.1043L113.849-76.5376L99.4157-76.5376L99.4157-62.1043L104.253-62.1043C104.426-58.6951 104.429-56.2 104.191-53.6267C103.912-50.6188 103.304-48.0727 102.317-46.0403C101.466-44.2874 100.01-42.7094 97.3089-40.4363C96.7884-39.9982 94.848-38.4032 94.4611-38.0801C91.2099-35.3654 89.1581-33.2852 87.4926-30.7023Z"/>
  </g>
  <g id="Bold-L" transform="matrix(1 0 0 1 2256.48 1556)">
   <path d="M85.022-31.1858L85.022-87.6892L90.0781-87.6892L82.8436-100.425L75.609-87.6892L80.6292-87.6892L80.6292-11.0985C79.0804-13.2401 77.1575-15.2444 74.4966-17.6639C74.734-17.4481 70.874-20.8975 69.9361-21.7957C68.0139-23.6364 66.8117-25.1053 66.1101-26.5497C65.0239-28.7857 64.3299-31.7662 63.9715-35.3899C63.6906-38.2303 63.633-40.7949 63.683-44.8169C66.6093-45.8498 68.7061-48.64 68.7061-51.9198C68.7061-56.0787 65.3346-59.4502 61.1757-59.4502C57.0168-59.4502 53.6453-56.0787 53.6453-51.9198C53.6453-48.4129 56.0425-45.4659 59.2877-44.628C59.241-40.5892 59.3049-37.9422 59.6001-34.9576C60.0052-30.862 60.8093-27.4086 62.1588-24.6304C63.1335-22.6239 64.6323-20.7926 66.8979-18.6231C67.9001-17.6633 71.8324-14.1492 71.5414-14.4139C77.6257-8.8816 80.4268-4.61903 80.6292 1.35364L80.6292 2.79219C80.6283 2.82022 80.6274 2.84829 80.6264 2.87641L80.6292 2.87651L80.6292 3.56786C75.2496 4.72058 71.2162 9.50242 71.2162 15.2263C71.2162 21.8113 76.5544 27.1495 83.1394 27.1495C89.7244 27.1495 95.0625 21.8113 95.0625 15.2263C95.0625 9.28193 90.7124 4.35357 85.022 3.45096L85.022 2.85756C85.0356 2.38168 85.0356 1.9119 85.022 1.44796L85.022-19.0458L86.1851-19.0873C85.9418-25.9087 88.4471-29.8821 94.806-35.1918C95.1729-35.4982 97.1221-37.1005 97.6667-37.5588C100.805-40.1999 102.607-42.1535 103.798-44.6045C105.045-47.1719 105.77-50.2124 106.094-53.7048C106.351-56.4735 106.353-59.0954 106.181-62.5879L111.378-62.5879L111.378-77.0212L96.9451-77.0212L96.9451-62.5879L101.782-62.5879C101.955-59.1786 101.959-56.6836 101.72-54.1102C101.441-51.1023 100.834-48.5563 99.8466-46.5238C98.9951-44.7709 97.5396-43.193 94.8383-40.9198C94.3178-40.4818 92.3774-38.8867 91.9905-38.5636C88.7393-35.8489 86.6876-33.7687 85.022-31.1858Z"/>
  </g>
  <g id="Semibold-L" transform="matrix(1 0 0 1 1961.39 1556)">
   <path d="M83.3188-31.5192L83.3188-88.0226L88.3749-88.0226L81.1403-100.758L73.9058-88.0226L78.926-88.0226L78.926-11.4318C77.3772-13.5735 75.4543-15.5778 72.7934-17.9973C73.0307-17.7815 69.1708-21.2309 68.2328-22.1291C66.3107-23.9697 65.1085-25.4386 64.4069-26.8831C63.3207-29.119 62.6267-32.0996 62.2683-35.7233C61.9874-38.5637 61.9298-41.1283 61.9798-45.1502C64.9061-46.1832 67.0029-48.9733 67.0029-52.2531C67.0029-56.4121 63.6314-59.7835 59.4725-59.7835C55.3136-59.7835 51.9421-56.4121 51.9421-52.2531C51.9421-48.7462 54.3393-45.7992 57.5844-44.9614C57.5378-40.9226 57.6017-38.2755 57.8969-35.2909C58.302-31.1953 59.1061-27.7419 60.4556-24.9637C61.4303-22.9573 62.9291-21.126 65.1947-18.9564C66.1969-17.9966 70.1292-14.4826 69.8382-14.7472C75.9225-9.21494 78.7236-4.95237 78.926 1.0203L78.926 2.45884C78.9251 2.48688 78.9242 2.51495 78.9232 2.54306L78.926 2.54316L78.926 3.23452C73.5464 4.38723 69.513 9.16908 69.513 14.893C69.513 21.4779 74.8512 26.8161 81.4362 26.8161C88.0211 26.8161 93.3593 21.4779 93.3593 14.893C93.3593 8.94859 89.0092 4.02022 83.3188 3.11761L83.3188 2.52422C83.3324 2.04834 83.3324 1.57856 83.3188 1.11462L83.3188-19.3791L84.4819-19.4206C84.2386-26.2421 86.7439-30.2154 93.1027-35.5252C93.4697-35.8316 95.4189-37.4339 95.9635-37.8921C99.102-40.5332 100.904-42.4869 102.095-44.9378C103.342-47.5053 104.067-50.5457 104.391-54.0381C104.648-56.8068 104.65-59.4288 104.477-62.9212L109.675-62.9212L109.675-77.3545L95.2419-77.3545L95.2419-62.9212L100.079-62.9212C100.252-59.512 100.255-57.0169 100.017-54.4436C99.738-51.4356 99.1307-48.8896 98.1434-46.8572C97.2919-45.1043 95.8364-43.5263 93.1351-41.2532C92.6146-40.8151 90.6742-39.2201 90.2873-38.897C87.0361-36.1822 84.9843-34.1021 83.3188-31.5192Z"/>
  </g>
  <g id="Medium-L" transform="matrix(1 0 0 1 1665.91 1556)">
   <path d="M82.0273-31.7719L82.0273-88.2753L87.0835-88.2753L79.8489-101.011L72.6143-88.2753L77.6346-88.2753L77.6346-11.6846C76.0857-13.8262 74.1629-15.8305 71.5019-18.25C71.7393-18.0342 67.8793-21.4836 66.9414-22.3818C65.0193-24.2225 63.8171-25.6914 63.1154-27.1358C62.0293-29.3717 61.3353-32.3523 60.9769-35.976C60.696-38.8164 60.6383-41.381 60.6883-45.403C63.6146-46.4359 65.7114-49.2261 65.7114-52.5059C65.7114-56.6648 62.34-60.0363 58.181-60.0363C54.0221-60.0363 50.6506-56.6648 50.6506-52.5059C50.6506-48.999 53.0478-46.052 56.293-45.2141C56.2463-41.1753 56.3103-38.5283 56.6055-35.5437C57.0105-31.4481 57.8146-27.9947 59.1642-25.2165C60.1388-23.21 61.6377-21.3787 63.9032-19.2092C64.9055-18.2494 68.8378-14.7353 68.5468-15C74.6311-9.4677 77.4321-5.20513 77.6346 0.767541L77.6346 2.20609C77.6337 2.23412 77.6327 2.2622 77.6317 2.29031L77.6346 2.29041L77.6346 2.98176C72.2549 4.13448 68.2216 8.91632 68.2216 14.6402C68.2216 21.2252 73.5598 26.5634 80.1447 26.5634C86.7297 26.5634 92.0679 21.2252 92.0679 14.6402C92.0679 8.69583 87.7178 3.76747 82.0273 2.86486L82.0273 2.27146C82.041 1.79558 82.0409 1.3258 82.0273 0.861861L82.0273-19.6319L83.1904-19.6734C82.9472-26.4948 85.4524-30.4682 91.8113-35.7779C92.1782-36.0843 94.1274-37.6866 94.672-38.1449C97.8106-40.786 99.6126-42.7396 100.803-45.1906C102.05-47.758 102.776-50.7985 103.099-54.2908C103.356-57.0596 103.358-59.6815 103.186-63.174L108.384-63.174L108.384-77.6072L93.9505-77.6072L93.9505-63.174L98.7877-63.174C98.9608-59.7647 98.964-57.2697 98.7255-54.6963C98.4466-51.6884 97.8392-49.1424 96.852-47.1099C96.0005-45.357 94.545-43.7791 91.8437-41.5059C91.3231-41.0679 89.3827-39.4728 88.9958-39.1497C85.7447-36.435 83.6929-34.3548 82.0273-31.7719Z"/>
  </g>
  <g id="Regular-L" transform="matrix(1 0 0 1 1370.8 1556)">
   <path d="M80.3428-32.1016L80.3428-88.605L85.399-88.605L78.1644-101.341L70.9298-88.605L75.9501-88.605L75.9501-12.0142C74.4012-14.1559 72.4784-16.1602 69.8174-18.5797C70.0548-18.3639 66.1948-21.8133 65.2569-22.7115C63.3348-24.5521 62.1326-26.021 61.4309-27.4655C60.3448-29.7014 59.6508-32.682 59.2924-36.3057C59.0115-39.1461 58.9538-41.7107 59.0038-45.7327C61.9301-46.7656 64.027-49.5557 64.027-52.8356C64.027-56.9945 60.6555-60.366 56.4965-60.366C52.3376-60.366 48.9661-56.9945 48.9661-52.8356C48.9661-49.3287 51.3634-46.3817 54.6085-45.5438C54.5619-41.505 54.6258-38.858 54.921-35.8733C55.326-31.7777 56.1301-28.3243 57.4797-25.5462C58.4543-23.5397 59.9532-21.7084 62.2187-19.5389C63.221-18.5791 67.1533-15.065 66.8623-15.3296C72.9466-9.79738 75.7477-5.53481 75.9501 0.437861L75.9501 1.87641C75.9492 1.90444 75.9482 1.93251 75.9472 1.96063L75.9501 1.96073L75.9501 2.65208C70.5705 3.8048 66.5371 8.58664 66.5371 14.3105C66.5371 20.8955 71.8753 26.2337 78.4602 26.2337C85.0452 26.2337 90.3834 20.8955 90.3834 14.3105C90.3834 8.36615 86.0333 3.43779 80.3428 2.53518L80.3428 1.94178C80.3565 1.4659 80.3564 0.996123 80.3428 0.532181L80.3428-19.9616L81.5059-20.0031C81.2627-26.8245 83.7679-30.7979 90.1268-36.1076C90.4938-36.414 92.443-38.0163 92.9875-38.4746C96.1261-41.1157 97.9281-43.0693 99.1187-45.5203C100.366-48.0877 101.091-51.1282 101.415-54.6205C101.672-57.3893 101.674-60.0112 101.501-63.5037L106.699-63.5037L106.699-77.9369L92.266-77.9369L92.266-63.5037L97.1032-63.5037C97.2763-60.0944 97.2795-57.5994 97.041-55.026C96.7621-52.0181 96.1547-49.472 95.1675-47.4396C94.316-45.6867 92.8605-44.1087 90.1592-41.8356C89.6386-41.3976 87.6982-39.8025 87.3113-39.4794C84.0602-36.7647 82.0084-34.6845 80.3428-32.1016Z"/>
  </g>
  <g id="Light-L" transform="matrix(1 0 0 1 1074.56 1556)">
   <path d="M78.9-32.5219L78.9-89.0253L83.9561-89.0253L76.7216-101.761L69.487-89.0253L74.5072-89.0253L74.5072-12.4345C72.9584-14.5762 71.0355-16.5805 68.3746-19C68.6119-18.7842 64.752-22.2336 63.814-23.1318C61.8919-24.9724 60.6897-26.4413 59.9881-27.8858C58.9019-30.1217 58.2079-33.1023 57.8495-36.726C57.5686-39.5664 57.511-42.131 57.561-46.153C60.4873-47.1859 62.5841-49.976 62.5841-53.2559C62.5841-57.4148 59.2126-60.7863 55.0537-60.7863C50.8948-60.7863 47.5233-57.4148 47.5233-53.2559C47.5233-49.749 49.9205-46.802 53.1657-45.9641C53.119-41.9253 53.1829-39.2782 53.4781-36.2936C53.8832-32.198 54.6873-28.7446 56.0368-25.9664C57.0115-23.96 58.5103-22.1287 60.7759-19.9592C61.7781-18.9994 65.7104-15.4853 65.4194-15.7499C71.5037-10.2177 74.3048-5.9551 74.5072 0.0175707L74.5072 1.45612C74.5063 1.48415 74.5054 1.51222 74.5044 1.54034L74.5072 1.54044L74.5072 2.23179C69.1276 3.38451 65.0942 8.16635 65.0942 13.8902C65.0942 20.4752 70.4324 25.8134 77.0174 25.8134C83.6023 25.8134 88.9405 20.4752 88.9405 13.8902C88.9405 7.94586 84.5904 3.0175 78.9 2.11489L78.9 1.52149C78.9136 1.04561 78.9136 0.575833 78.9 0.111891L78.9-20.3819L80.0631-20.4233C79.8198-27.2448 82.3251-31.2182 88.684-36.5279C89.0509-36.8343 91.0001-38.4366 91.5447-38.8948C94.6832-41.5359 96.4853-43.4896 97.6758-45.9406C98.923-48.508 99.6483-51.5485 99.9721-55.0408C100.229-57.8095 100.231-60.4315 100.059-63.9239L105.256-63.9239L105.256-78.3572L90.8231-78.3572L90.8231-63.9239L95.6603-63.9239C95.8334-60.5147 95.8367-58.0196 95.5981-55.4463C95.3192-52.4384 94.7119-49.8923 93.7246-47.8599C92.8731-46.107 91.4176-44.529 88.7163-42.2559C88.1958-41.8178 86.2554-40.2228 85.8685-39.8997C82.6173-37.185 80.5655-35.1048 78.9-32.5219Z"/>
  </g>
  <g id="Thin-L" transform="matrix(1 0 0 1 778.485 1556)">
   <path d="M76.9917-33.0778L76.9917-89.5812L82.0478-89.5812L74.8133-102.317L67.5787-89.5812L72.5989-89.5812L72.5989-12.9904C71.0501-15.132 69.1272-17.1364 66.4663-19.5559C66.7037-19.3401 62.8437-22.7895 61.9058-23.6876C59.9837-25.5283 58.7814-26.9972 58.0798-28.4417C56.9936-30.6776 56.2996-33.6582 55.9412-37.2818C55.6603-40.1223 55.6027-42.6869 55.6527-46.7088C58.579-47.7418 60.6758-50.5319 60.6758-53.8117C60.6758-57.9707 57.3043-61.3421 53.1454-61.3421C48.9865-61.3421 45.615-57.9707 45.615-53.8117C45.615-50.3048 48.0122-47.3578 51.2574-46.52C51.2107-42.4812 51.2746-39.8341 51.5698-36.8495C51.9749-32.7539 52.779-29.3005 54.1285-26.5223C55.1032-24.5159 56.602-22.6845 58.8676-20.515C59.8698-19.5552 63.8021-16.0412 63.5111-16.3058C69.5954-10.7735 72.3965-6.51097 72.5989-0.538297L72.5989 0.90025C72.598 0.928285 72.5971 0.956357 72.5961 0.98447L72.5989 0.984572L72.5989 1.67592C67.2193 2.82864 63.1859 7.61049 63.1859 13.3344C63.1859 19.9193 68.5241 25.2575 75.1091 25.2575C81.6941 25.2575 87.0322 19.9193 87.0322 13.3344C87.0322 7.38999 82.6821 2.46163 76.9917 1.55902L76.9917 0.965624C77.0053 0.489746 77.0053 0.0199657 76.9917-0.443976L76.9917-20.9377L78.1548-20.9792C77.9115-27.8007 80.4168-31.774 86.7757-37.0838C87.1426-37.3902 89.0918-38.9925 89.6364-39.4507C92.7749-42.0918 94.577-44.0455 95.7676-46.4964C97.0147-49.0639 97.74-52.1043 98.0638-55.5967C98.3205-58.3654 98.3225-60.9874 98.1503-64.4798L103.348-64.4798L103.348-78.9131L88.9148-78.9131L88.9148-64.4798L93.752-64.4798C93.9251-61.0706 93.9284-58.5755 93.6898-56.0022C93.411-52.9942 92.8036-50.4482 91.8163-48.4158C90.9648-46.6629 89.5093-45.0849 86.808-42.8118C86.2875-42.3737 84.3471-40.7786 83.9602-40.4556C80.709-37.7408 78.6573-35.6606 76.9917-33.0778Z"/>
  </g>
  <g id="Ultralight-L" transform="matrix(1 0 0 1 482.098 1556)">
   <path d="M76.0143-33.3625L76.0143-89.8659L81.0704-89.8659L73.8358-102.601L66.6013-89.8659L71.6215-89.8659L71.6215-13.2751C70.0727-15.4168 68.1498-17.4211 65.4889-19.8406C65.7262-19.6248 61.8662-23.0742 60.9283-23.9724C59.0062-25.813 57.804-27.2819 57.1023-28.7264C56.0162-30.9623 55.3222-33.9429 54.9638-37.5666C54.6829-40.407 54.6253-42.9716 54.6753-46.9935C57.6016-48.0265 59.6984-50.8166 59.6984-54.0964C59.6984-58.2554 56.3269-61.6269 52.168-61.6269C48.0091-61.6269 44.6376-58.2554 44.6376-54.0964C44.6376-50.5895 47.0348-47.6425 50.2799-46.8047C50.2333-42.7659 50.2972-40.1188 50.5924-37.1342C50.9975-33.0386 51.8016-29.5852 53.1511-26.807C54.1258-24.8006 55.6246-22.9693 57.8902-20.7997C58.8924-19.8399 62.8247-16.3259 62.5337-16.5905C68.618-11.0582 71.4191-6.79568 71.6215-0.823009L71.6215 0.615538C71.6206 0.643572 71.6197 0.671645 71.6187 0.699757L71.6215 0.699859L71.6215 1.39121C66.2419 2.54393 62.2085 7.32577 62.2085 13.0497C62.2085 19.6346 67.5467 24.9728 74.1317 24.9728C80.7166 24.9728 86.0548 19.6346 86.0548 13.0497C86.0548 7.10528 81.7047 2.17692 76.0143 1.27431L76.0143 0.680912C76.0279 0.205034 76.0279-0.264747 76.0143-0.728689L76.0143-21.2224L77.1774-21.2639C76.9341-28.0854 79.4394-32.0587 85.7982-37.3685C86.1652-37.6749 88.1144-39.2772 88.659-39.7354C91.7975-42.3765 93.5996-44.3302 94.7901-46.7811C96.0373-49.3486 96.7626-52.389 97.0864-55.8814C97.3431-58.6501 97.3451-61.2721 97.1729-64.7645L102.371-64.7645L102.371-79.1978L87.9374-79.1978L87.9374-64.7645L92.7746-64.7645C92.9477-61.3553 92.951-58.8602 92.7124-56.2869C92.4335-53.2789 91.8262-50.7329 90.8389-48.7005C89.9874-46.9476 88.5319-45.3696 85.8306-43.0965C85.3101-42.6584 83.3697-41.0634 82.9827-40.7403C79.7316-38.0255 77.6798-35.9454 76.0143-33.3625Z"/>
  </g>
  <g id="Black-M" transform="matrix(1 0 0 1 2863.62 1126)">
   <path d="M70.9022-31.1588L70.9022-74.9343L74.8195-74.9343L69.2145-84.8011L63.6096-74.9343L67.499-74.9343L67.499-15.5962C66.299-17.2555 64.8093-18.8083 62.7478-20.6828C62.9317-20.5156 59.9412-23.188 59.2145-23.8839C57.7254-25.3099 56.794-26.4479 56.2504-27.567C55.4089-29.2993 54.8712-31.6084 54.5936-34.4158C54.3759-36.6164 54.3313-38.6033 54.37-41.7193C56.6371-42.5196 58.2616-44.6812 58.2616-47.2222C58.2616-50.4443 55.6496-53.0564 52.4275-53.0564C49.2054-53.0564 46.5934-50.4443 46.5934-47.2222C46.5934-44.5053 48.4506-42.2221 50.9648-41.573C50.9286-38.444 50.9782-36.3932 51.2069-34.0809C51.5207-30.9079 52.1437-28.2324 53.1892-26.08C53.9443-24.5255 55.1055-23.1067 56.8607-21.4259C57.6372-20.6823 60.6837-17.9598 60.4583-18.1648C65.172-13.8787 67.3422-10.5764 67.499-5.94908L67.499-4.83457C67.4983-4.81286 67.4976-4.79111 67.4968-4.76933L67.499-4.76925L67.499-4.23363C63.3312-3.34057 60.2063 0.364127 60.2063 4.79866C60.2063 9.90032 64.3421 14.036 69.4437 14.036C74.5454 14.036 78.6811 9.90032 78.6811 4.79866C78.6811 0.193302 75.3109-3.62491 70.9022-4.3242L70.9022-4.78393C70.9128-5.15261 70.9128-5.51657 70.9022-5.876L70.9022-21.7534L71.8033-21.7855C71.6149-27.0704 73.5558-30.1487 78.4823-34.2624C78.7666-34.4998 80.2767-35.7411 80.6986-36.0962C83.1302-38.1423 84.5263-39.6559 85.4487-41.5548C86.4149-43.5439 86.9768-45.8995 87.2277-48.6051C87.4265-50.7502 87.4281-52.7815 87.2947-55.4873L91.3217-55.4873L91.3217-66.6693L80.1396-66.6693L80.1396-55.4873L83.8872-55.4873C84.0213-52.846 84.0238-50.9129 83.839-48.9193C83.6229-46.5889 83.1524-44.6164 82.3875-43.0418C81.7278-41.6837 80.6002-40.4612 78.5074-38.7001C78.1041-38.3607 76.6008-37.125 76.301-36.8747C73.7822-34.7714 72.1926-33.1598 70.9022-31.1588Z"/>
  </g>
  <g id="Heavy-M" transform="matrix(1 0 0 1 2568.86 1126)">
   <path d="M69.0532-31.491L69.0532-75.2666L72.9704-75.2666L67.3654-85.1334L61.7605-75.2666L65.6499-75.2666L65.6499-15.9285C64.45-17.5877 62.9602-19.1406 60.8987-21.0151C61.0826-20.8479 58.0921-23.5203 57.3655-24.2161C55.8763-25.6422 54.9449-26.7802 54.4013-27.8992C53.5598-29.6315 53.0222-31.9407 52.7445-34.7481C52.5269-36.9487 52.4822-38.9356 52.5209-42.0516C54.7881-42.8519 56.4126-45.0135 56.4126-47.5545C56.4126-50.7766 53.8005-53.3886 50.5784-53.3886C47.3563-53.3886 44.7443-50.7766 44.7443-47.5545C44.7443-44.8376 46.6015-42.5544 49.1157-41.9053C49.0796-38.7763 49.1291-36.7255 49.3578-34.4132C49.6716-31.2401 50.2946-28.5646 51.3401-26.4123C52.0952-24.8578 53.2564-23.439 55.0117-21.7582C55.7882-21.0146 58.8347-18.2921 58.6092-18.4971C63.323-14.211 65.4931-10.9086 65.6499-6.28135L65.6499-5.16684C65.6492-5.14512 65.6485-5.12337 65.6477-5.10159L65.6499-5.10152L65.6499-4.5659C61.4821-3.67284 58.3573 0.0318579 58.3573 4.46639C58.3573 9.56805 62.493 13.7038 67.5946 13.7038C72.6963 13.7038 76.832 9.56805 76.832 4.46639C76.832-0.138967 73.4618-3.95718 69.0532-4.65647L69.0532-5.1162C69.0637-5.48488 69.0637-5.84884 69.0532-6.20827L69.0532-22.0856L69.9543-22.1178C69.7658-27.4026 71.7067-30.481 76.6332-34.5946C76.9175-34.832 78.4276-36.0734 78.8495-36.4284C81.2811-38.4746 82.6772-39.9882 83.5996-41.887C84.5658-43.8761 85.1278-46.2317 85.3786-48.9374C85.5775-51.0824 85.579-53.1138 85.4456-55.8195L89.4726-55.8195L89.4726-67.0016L78.2905-67.0016L78.2905-55.8195L82.0381-55.8195C82.1722-53.1782 82.1747-51.2452 81.9899-49.2515C81.7739-46.9212 81.3033-44.9486 80.5384-43.374C79.8787-42.016 78.7511-40.7935 76.6583-39.0324C76.255-38.693 74.7517-37.4572 74.4519-37.2069C71.9331-35.1037 70.3435-33.4921 69.0532-31.491Z"/>
  </g>
  <g id="Bold-M" transform="matrix(1 0 0 1 2274.33 1126)">
   <path d="M66.9847-31.8627L66.9847-75.6383L70.9019-75.6383L65.297-85.5051L59.6921-75.6383L63.5815-75.6383L63.5815-16.3002C62.3815-17.9594 60.8918-19.5123 58.8302-21.3867C59.0141-21.2195 56.0236-23.892 55.297-24.5878C53.8079-26.0138 52.8765-27.1519 52.3328-28.2709C51.4914-30.0032 50.9537-32.3124 50.676-35.1198C50.4584-37.3204 50.4137-39.3073 50.4525-42.4233C52.7196-43.2236 54.3441-45.3852 54.3441-47.9262C54.3441-51.1483 51.7321-53.7603 48.51-53.7603C45.2879-53.7603 42.6759-51.1483 42.6759-47.9262C42.6759-45.2093 44.5331-42.9261 47.0472-42.277C47.0111-39.1479 47.0606-37.0972 47.2893-34.7849C47.6031-31.6118 48.2261-28.9363 49.2717-26.7839C50.0268-25.2295 51.188-23.8107 52.9432-22.1298C53.7197-21.3862 56.7662-18.6638 56.5407-18.8688C61.2545-14.5827 63.4246-11.2803 63.5815-6.65304L63.5815-5.53853C63.5808-5.51681 63.58-5.49507 63.5793-5.47329L63.5815-5.47321L63.5815-4.93759C59.4136-4.04453 56.2888-0.339833 56.2888 4.0947C56.2888 9.19636 60.4245 13.3321 65.5262 13.3321C70.6278 13.3321 74.7635 9.19636 74.7635 4.0947C74.7635-0.510657 71.3933-4.32887 66.9847-5.02816L66.9847-5.48789C66.9953-5.85657 66.9952-6.22053 66.9847-6.57996L66.9847-22.4573L67.8858-22.4895C67.6974-27.7743 69.6383-30.8527 74.5648-34.9663C74.8491-35.2037 76.3592-36.4451 76.7811-36.8001C79.2126-38.8463 80.6088-40.3599 81.5312-42.2587C82.4974-44.2478 83.0593-46.6034 83.3102-49.3091C83.509-51.4541 83.5106-53.4855 83.3772-56.1912L87.4041-56.1912L87.4041-67.3733L76.2221-67.3733L76.2221-56.1912L79.9696-56.1912C80.1038-53.5499 80.1063-51.6169 79.9214-49.6232C79.7054-47.2928 79.2348-45.3203 78.47-43.7457C77.8103-42.3877 76.6826-41.1652 74.5898-39.4041C74.1865-39.0647 72.6832-37.8289 72.3835-37.5786C69.8647-35.4754 68.2751-33.8638 66.9847-31.8627Z"/>
  </g>
  <g id="Semibold-M" transform="matrix(1 0 0 1 1979.13 1126)">
   <path d="M65.5587-32.119L65.5587-75.8945L69.4759-75.8945L63.871-85.7613L58.2661-75.8945L62.1555-75.8945L62.1555-16.5564C60.9555-18.2157 59.4658-19.7685 57.4043-21.643C57.5882-21.4758 54.5977-24.1482 53.871-24.8441C52.3819-26.2701 51.4505-27.4081 50.9069-28.5272C50.0654-30.2595 49.5277-32.5686 49.2501-35.376C49.0324-37.5766 48.9878-39.5635 49.0265-42.6795C51.2936-43.4798 52.9181-45.6414 52.9181-48.1824C52.9181-51.4045 50.3061-54.0166 47.084-54.0166C43.8619-54.0166 41.2499-51.4045 41.2499-48.1824C41.2499-45.4655 43.1071-43.1823 45.6213-42.5332C45.5851-39.4042 45.6347-37.3534 45.8633-35.0411C46.1772-31.8681 46.8001-29.1926 47.8457-27.0402C48.6008-25.4857 49.762-24.0669 51.5172-22.3861C52.2937-21.6425 55.3402-18.92 55.1148-19.125C59.8285-14.8389 61.9986-11.5366 62.1555-6.90928L62.1555-5.79477C62.1548-5.77306 62.1541-5.75131 62.1533-5.72953L62.1555-5.72945L62.1555-5.19383C57.9877-4.30077 54.8628-0.596074 54.8628 3.83846C54.8628 8.94011 58.9985 13.0758 64.1002 13.0758C69.2018 13.0758 73.3376 8.94011 73.3376 3.83846C73.3376-0.766898 69.9674-4.58511 65.5587-5.2844L65.5587-5.74413C65.5693-6.11281 65.5693-6.47677 65.5587-6.8362L65.5587-22.7136L66.4598-22.7457C66.2714-28.0306 68.2123-31.1089 73.1388-35.2226C73.4231-35.46 74.9332-36.7013 75.3551-37.0564C77.7867-39.1025 79.1828-40.6161 80.1052-42.515C81.0714-44.5041 81.6333-46.8597 81.8842-49.5653C82.083-51.7104 82.0846-53.7417 81.9512-56.4475L85.9781-56.4475L85.9781-67.6295L74.7961-67.6295L74.7961-56.4475L78.5437-56.4475C78.6778-53.8062 78.6803-51.8731 78.4955-49.8795C78.2794-47.5491 77.8089-45.5766 77.044-44.002C76.3843-42.6439 75.2567-41.4214 73.1639-39.6603C72.7606-39.3209 71.2573-38.0852 70.9575-37.8349C68.4387-35.7316 66.8491-34.12 65.5587-32.119Z"/>
  </g>
  <g id="Medium-M" transform="matrix(1 0 0 1 1683.55 1126)">
   <path d="M64.4775-32.3133L64.4775-76.0888L68.3947-76.0888L62.7898-85.9556L57.1848-76.0888L61.0742-76.0888L61.0742-16.7507C59.8743-18.41 58.3846-19.9628 56.323-21.8373C56.5069-21.6701 53.5164-24.3425 52.7898-25.0383C51.3006-26.4644 50.3692-27.6024 49.8256-28.7215C48.9842-30.4537 48.4465-32.7629 48.1688-35.5703C47.9512-37.7709 47.9065-39.7578 47.9453-42.8738C50.2124-43.6741 51.8369-45.8357 51.8369-48.3767C51.8369-51.5988 49.2249-54.2109 46.0028-54.2109C42.7807-54.2109 40.1686-51.5988 40.1686-48.3767C40.1686-45.6598 42.0259-43.3766 44.54-42.7275C44.5039-39.5985 44.5534-37.5477 44.7821-35.2354C45.0959-32.0623 45.7189-29.3869 46.7644-27.2345C47.5195-25.68 48.6808-24.2612 50.436-22.5804C51.2125-21.8368 54.259-19.1143 54.0335-19.3193C58.7473-15.0332 60.9174-11.7308 61.0742-7.10357L61.0742-5.98907C61.0736-5.96735 61.0728-5.9456 61.072-5.92382L61.0742-5.92374L61.0742-5.38812C56.9064-4.49506 53.7816-0.790366 53.7816 3.64417C53.7816 8.74582 57.9173 12.8815 63.019 12.8815C68.1206 12.8815 72.2563 8.74582 72.2563 3.64417C72.2563-0.961191 68.8861-4.7794 64.4775-5.47869L64.4775-5.93842C64.4881-6.3071 64.488-6.67106 64.4775-7.0305L64.4775-22.9079L65.3786-22.94C65.1901-28.2249 67.1311-31.3032 72.0575-35.4169C72.3418-35.6543 73.852-36.8956 74.2739-37.2506C76.7054-39.2968 78.1016-40.8104 79.0239-42.7093C79.9902-44.6984 80.5521-47.0539 80.8029-49.7596C81.0018-51.9047 81.0033-53.936 80.8699-56.6417L84.8969-56.6417L84.8969-67.8238L73.7148-67.8238L73.7148-56.6417L77.4624-56.6417C77.5965-54.0005 77.599-52.0674 77.4142-50.0738C77.1982-47.7434 76.7276-45.7709 75.9628-44.1963C75.3031-42.8382 74.1754-41.6157 72.0826-39.8546C71.6793-39.5152 70.176-38.2795 69.8763-38.0292C67.3575-35.9259 65.7679-34.3143 64.4775-32.3133Z"/>
  </g>
  <g id="Regular-M" transform="matrix(1 0 0 1 1388.33 1126)">
   <path d="M63.0672-32.5667L63.0672-76.3422L66.9844-76.3422L61.3795-86.209L55.7745-76.3422L59.6639-76.3422L59.6639-17.0042C58.464-18.6634 56.9742-20.2162 54.9127-22.0907C55.0966-21.9235 52.1061-24.5959 51.3795-25.2918C49.8903-26.7178 48.9589-27.8558 48.4153-28.9749C47.5739-30.7072 47.0362-33.0164 46.7585-35.8238C46.5409-38.0244 46.4962-40.0113 46.535-43.1272C48.8021-43.9275 50.4266-46.0891 50.4266-48.6302C50.4266-51.8523 47.8146-54.4643 44.5925-54.4643C41.3704-54.4643 38.7583-51.8523 38.7583-48.6302C38.7583-45.9132 40.6156-43.63 43.1297-42.9809C43.0936-39.8519 43.1431-37.8011 43.3718-35.4888C43.6856-32.3158 44.3086-29.6403 45.3541-27.4879C46.1092-25.9334 47.2705-24.5146 49.0257-22.8338C49.8022-22.0902 52.8487-19.3677 52.6232-19.5727C57.337-15.2867 59.5071-11.9843 59.6639-7.357L59.6639-6.24249C59.6632-6.22077 59.6625-6.19902 59.6617-6.17724L59.6639-6.17717L59.6639-5.64155C55.4961-4.74849 52.3713-1.04379 52.3713 3.39074C52.3713 8.4924 56.507 12.6281 61.6086 12.6281C66.7103 12.6281 70.846 8.4924 70.846 3.39074C70.846-1.21462 67.4758-5.03283 63.0672-5.73212L63.0672-6.19184C63.0778-6.56053 63.0777-6.92449 63.0672-7.28392L63.0672-23.1613L63.9683-23.1934C63.7798-28.4783 65.7207-31.5566 70.6472-35.6703C70.9315-35.9077 72.4416-37.149 72.8635-37.5041C75.2951-39.5502 76.6912-41.0638 77.6136-42.9627C78.5799-44.9518 79.1418-47.3074 79.3926-50.013C79.5915-52.1581 79.593-54.1894 79.4596-56.8952L83.4866-56.8952L83.4866-68.0772L72.3045-68.0772L72.3045-56.8952L76.0521-56.8952C76.1862-54.2539 76.1887-52.3209 76.0039-50.3272C75.7879-47.9968 75.3173-46.0243 74.5524-44.4497C73.8928-43.0916 72.7651-41.8691 70.6723-40.108C70.269-39.7686 68.7657-38.5329 68.4659-38.2826C65.9472-36.1794 64.3576-34.5678 63.0672-32.5667Z"/>
  </g>
  <g id="Light-M" transform="matrix(1 0 0 1 1092.05 1126)">
   <path d="M61.7736-32.9435L61.7736-76.7191L65.6908-76.7191L60.0859-86.5858L54.4809-76.7191L58.3703-76.7191L58.3703-17.381C57.1704-19.0402 55.6806-20.593 53.6191-22.4675C53.803-22.3003 50.8125-24.9727 50.0859-25.6686C48.5967-27.0946 47.6653-28.2326 47.1217-29.3517C46.2803-31.084 45.7426-33.3932 45.4649-36.2006C45.2473-38.4012 45.2026-40.3881 45.2414-43.5041C47.5085-44.3043 49.133-46.4659 49.133-49.007C49.133-52.2291 46.521-54.8411 43.2989-54.8411C40.0768-54.8411 37.4647-52.2291 37.4647-49.007C37.4647-46.29 39.322-44.0069 41.8361-43.3577C41.8-40.2287 41.8495-38.1779 42.0782-35.8656C42.392-32.6926 43.015-30.0171 44.0605-27.8647C44.8156-26.3102 45.9769-24.8914 47.7321-23.2106C48.5086-22.467 51.5551-19.7445 51.3296-19.9495C56.0434-15.6635 58.2135-12.3611 58.3703-7.73381L58.3703-6.6193C58.3696-6.59759 58.3689-6.57584 58.3681-6.55406L58.3703-6.55398L58.3703-6.01836C54.2025-5.1253 51.0777-1.4206 51.0777 3.01393C51.0777 8.11559 55.2134 12.2513 60.315 12.2513C65.4167 12.2513 69.5524 8.11559 69.5524 3.01393C69.5524-1.59143 66.1822-5.40964 61.7736-6.10893L61.7736-6.56866C61.7842-6.93734 61.7841-7.3013 61.7736-7.66073L61.7736-23.5381L62.6747-23.5702C62.4862-28.8551 64.4272-31.9334 69.3536-36.0471C69.6379-36.2845 71.1481-37.5259 71.5699-37.8809C74.0015-39.9271 75.3977-41.4406 76.32-43.3395C77.2863-45.3286 77.8482-47.6842 78.099-50.3899C78.2979-52.5349 78.2994-54.5662 78.166-57.272L82.193-57.272L82.193-68.454L71.0109-68.454L71.0109-57.272L74.7585-57.272C74.8926-54.6307 74.8951-52.6977 74.7103-50.704C74.4943-48.3736 74.0237-46.4011 73.2588-44.8265C72.5992-43.4684 71.4715-42.2459 69.3787-40.4848C68.9754-40.1455 67.4721-38.9097 67.1724-38.6594C64.6536-36.5562 63.064-34.9446 61.7736-32.9435Z"/>
  </g>
  <g id="Thin-M" transform="matrix(1 0 0 1 795.904 1126)">
   <path d="M60.0627-33.4419L60.0627-77.2174L63.9799-77.2174L58.375-87.0842L52.77-77.2174L56.6595-77.2174L56.6595-17.8793C55.4595-19.5386 53.9698-21.0914 51.9082-22.9659C52.0921-22.7987 49.1016-25.4711 48.375-26.1669C46.8859-27.593 45.9544-28.731 45.4108-29.8501C44.5694-31.5823 44.0317-33.8915 43.754-36.6989C43.5364-38.8995 43.4917-40.8864 43.5305-44.0024C45.7976-44.8027 47.4221-46.9643 47.4221-49.5053C47.4221-52.7274 44.8101-55.3395 41.588-55.3395C38.3659-55.3395 35.7539-52.7274 35.7539-49.5053C35.7539-46.7884 37.6111-44.5052 40.1252-43.8561C40.0891-40.7271 40.1386-38.6763 40.3673-36.364C40.6811-33.1909 41.3041-30.5155 42.3497-28.3631C43.1047-26.8086 44.266-25.3898 46.0212-23.709C46.7977-22.9654 49.8442-20.2429 49.6187-20.4479C54.3325-16.1618 56.5026-12.8594 56.6595-8.23217L56.6595-7.11767C56.6588-7.09595 56.658-7.0742 56.6572-7.05242L56.6595-7.05234L56.6595-6.51672C52.4916-5.62366 49.3668-1.91897 49.3668 2.51557C49.3668 7.61722 53.5025 11.7529 58.6042 11.7529C63.7058 11.7529 67.8415 7.61722 67.8415 2.51557C67.8415-2.08979 64.4713-5.908 60.0627-6.60729L60.0627-7.06702C60.0733-7.4357 60.0732-7.79966 60.0627-8.1591L60.0627-24.0365L60.9638-24.0686C60.7753-29.3535 62.7163-32.4318 67.6428-36.5455C67.927-36.7829 69.4372-38.0242 69.8591-38.3792C72.2906-40.4254 73.6868-41.939 74.6092-43.8379C75.5754-45.827 76.1373-48.1825 76.3881-50.8882C76.587-53.0333 76.5886-55.0646 76.4552-57.7703L80.4821-57.7703L80.4821-68.9524L69.3001-68.9524L69.3001-57.7703L73.0476-57.7703C73.1818-55.1291 73.1843-53.196 72.9994-51.2024C72.7834-48.872 72.3128-46.8995 71.548-45.3249C70.8883-43.9668 69.7606-42.7443 67.6678-40.9832C67.2645-40.6438 65.7612-39.4081 65.4615-39.1578C62.9427-37.0545 61.3531-35.4429 60.0627-33.4419Z"/>
  </g>
  <g id="Ultralight-M" transform="matrix(1 0 0 1 499.483 1126)">
   <path d="M59.1864-33.6971L59.1864-77.4727L63.1036-77.4727L57.4987-87.3394L51.8937-77.4727L55.7832-77.4727L55.7832-18.1346C54.5832-19.7938 53.0935-21.3467 51.0319-23.2211C51.2158-23.0539 48.2253-25.7264 47.4987-26.4222C46.0096-27.8482 45.0781-28.9862 44.5345-30.1053C43.6931-31.8376 43.1554-34.1468 42.8777-36.9542C42.6601-39.1548 42.6154-41.1417 42.6542-44.2577C44.9213-45.058 46.5458-47.2196 46.5458-49.7606C46.5458-52.9827 43.9338-55.5947 40.7117-55.5947C37.4896-55.5947 34.8776-52.9827 34.8776-49.7606C34.8776-47.0437 36.7348-44.7605 39.2489-44.1114C39.2128-40.9823 39.2623-38.9315 39.491-36.6192C39.8048-33.4462 40.4278-30.7707 41.4733-28.6183C42.2284-27.0639 43.3897-25.6451 45.1449-23.9642C45.9214-23.2206 48.9679-20.4982 48.7424-20.7032C53.4562-16.4171 55.6263-13.1147 55.7832-8.48743L55.7832-7.37293C55.7825-7.35121 55.7817-7.32946 55.7809-7.30768L55.7832-7.3076L55.7832-6.77198C51.6153-5.87892 48.4905-2.17423 48.4905 2.26031C48.4905 7.36196 52.6262 11.4977 57.7279 11.4977C62.8295 11.4977 66.9652 7.36196 66.9652 2.26031C66.9652-2.34505 63.595-6.16326 59.1864-6.86255L59.1864-7.32228C59.197-7.69096 59.1969-8.05492 59.1864-8.41436L59.1864-24.2917L60.0875-24.3239C59.899-29.6087 61.84-32.6871 66.7664-36.8007C67.0507-37.0381 68.5609-38.2795 68.9828-38.6345C71.4143-40.6807 72.8105-42.1943 73.7328-44.0931C74.6991-46.0822 75.261-48.4378 75.5118-51.1435C75.7107-53.2885 75.7122-55.3199 75.5789-58.0256L79.6058-58.0256L79.6058-69.2077L68.4237-69.2077L68.4237-58.0256L72.1713-58.0256C72.3055-55.3843 72.308-53.4513 72.1231-51.4576C71.9071-49.1272 71.4365-47.1547 70.6717-45.5801C70.012-44.2221 68.8843-42.9996 66.7915-41.2385C66.3882-40.8991 64.8849-39.6633 64.5852-39.413C62.0664-37.3098 60.4768-35.6982 59.1864-33.6971Z"/>
  </g>
  <g id="Black-S" transform="matrix(1 0 0 1 2878.15 696)">
   <path d="M56.0508-31.9606L56.0508-66.2674L59.1207-66.2674L54.7281-74L50.3356-66.2674L53.3837-66.2674L53.3837-19.7642C52.4433-21.0646 51.2758-22.2815 49.6602-23.7505C49.8043-23.6195 47.4606-25.7139 46.8912-26.2592C45.7241-27.3768 44.9942-28.2687 44.5682-29.1457C43.9087-30.5033 43.4873-32.313 43.2697-34.5131C43.0992-36.2377 43.0642-37.7949 43.0945-40.2369C44.8713-40.864 46.1444-42.5581 46.1444-44.5495C46.1444-47.0746 44.0973-49.1217 41.5722-49.1217C39.047-49.1217 37-47.0746 37-44.5495C37-42.4202 38.4555-40.6309 40.4258-40.1222C40.3975-37.67 40.4363-36.0628 40.6156-34.2506C40.8615-31.7639 41.3497-29.6671 42.1691-27.9803C42.7609-26.7621 43.6709-25.6502 45.0465-24.3329C45.655-23.7502 48.0426-21.6166 47.8659-21.7772C51.5601-18.4182 53.2608-15.8301 53.3837-12.2037L53.3837-11.3303C53.3832-11.3133 53.3826-11.2962 53.382-11.2792L53.3837-11.2791L53.3837-10.8594C50.1174-10.1595 47.6685-7.2561 47.6685-3.78075C47.6685 0.217405 50.9096 3.45855 54.9078 3.45855C58.9059 3.45855 62.1471 0.217405 62.1471-3.78075C62.1471-7.38997 59.5059-10.3823 56.0508-10.9303L56.0508-11.2906C56.0591-11.5796 56.0591-11.8648 56.0508-12.1465L56.0508-24.5896L56.757-24.6147C56.6093-28.7565 58.1304-31.169 61.9913-34.3929C62.2141-34.5789 63.3976-35.5518 63.7282-35.83C65.6338-37.4336 66.728-38.6198 67.4509-40.1079C68.2081-41.6668 68.6485-43.5128 68.845-45.6333C69.0009-47.3143 69.0021-48.9063 68.8976-51.0268L72.0535-51.0268L72.0535-59.7901L63.2901-59.7901L63.2901-51.0268L66.2271-51.0268C66.3322-48.9568 66.3342-47.4419 66.1893-45.8795C66.02-44.0531 65.6512-42.5073 65.0518-41.2733C64.5348-40.2089 63.6511-39.2509 62.0109-37.8707C61.6949-37.6047 60.5168-36.6363 60.2818-36.4401C58.3079-34.7918 57.0621-33.5288 56.0508-31.9606Z"/>
  </g>
  <g id="Heavy-S" transform="matrix(1 0 0 1 2583.05 696)">
   <path d="M54.6347-32.1966L54.6347-66.5034L57.7046-66.5034L53.312-74.236L48.9194-66.5034L51.9676-66.5034L51.9676-20.0002C51.0272-21.3006 49.8597-22.5175 48.244-23.9866C48.3882-23.8555 46.0445-25.9499 45.475-26.4952C44.308-27.6128 43.5781-28.5047 43.152-29.3817C42.4926-30.7393 42.0712-32.549 41.8536-34.7492C41.683-36.4738 41.648-38.0309 41.6784-40.4729C43.4551-41.1001 44.7283-42.7941 44.7283-44.7855C44.7283-47.3107 42.6812-49.3577 40.1561-49.3577C37.6309-49.3577 35.5839-47.3107 35.5839-44.7855C35.5839-42.6562 37.0394-40.8669 39.0097-40.3582C38.9814-37.906 39.0202-36.2988 39.1994-34.4866C39.4454-31.9999 39.9336-29.9032 40.753-28.2163C41.3448-26.9981 42.2548-25.8862 43.6304-24.5689C44.2389-23.9862 46.6265-21.8526 46.4498-22.0132C50.1439-18.6542 51.8447-16.0662 51.9676-12.4398L51.9676-11.5663C51.967-11.5493 51.9664-11.5323 51.9658-11.5152L51.9676-11.5151L51.9676-11.0954C48.7012-10.3955 46.2523-7.49212 46.2523-4.01678C46.2523-0.0186163 49.4935 3.22253 53.4916 3.22253C57.4898 3.22253 60.7309-0.0186163 60.7309-4.01678C60.7309-7.62599 58.0897-10.6183 54.6347-11.1664L54.6347-11.5266C54.643-11.8156 54.6429-12.1008 54.6347-12.3825L54.6347-24.8256L55.3409-24.8508C55.1932-28.9925 56.7143-31.405 60.5752-34.6289C60.798-34.8149 61.9815-35.7878 62.3121-36.066C64.2177-37.6696 65.3119-38.8558 66.0347-40.3439C66.792-41.9028 67.2323-43.7488 67.4289-45.8693C67.5848-47.5503 67.586-49.1423 67.4814-51.2628L70.6374-51.2628L70.6374-60.0262L61.874-60.0262L61.874-51.2628L64.811-51.2628C64.9161-49.1928 64.918-47.6779 64.7732-46.1155C64.6039-44.2892 64.2351-42.7433 63.6357-41.5093C63.1187-40.445 62.2349-39.4869 60.5948-38.1067C60.2788-37.8407 59.1006-36.8723 58.8657-36.6761C56.8917-35.0278 55.646-33.7648 54.6347-32.1966Z"/>
  </g>
  <g id="Bold-S" transform="matrix(1 0 0 1 2288.15 696)">
   <path d="M53.0508-32.4606L53.0508-66.7674L56.1207-66.7674L51.7281-74.5L47.3356-66.7674L50.3837-66.7674L50.3837-20.2642C49.4433-21.5646 48.2758-22.7815 46.6602-24.2505C46.8043-24.1195 44.4606-26.2139 43.8912-26.7592C42.7241-27.8768 41.9942-28.7687 41.5682-29.6457C40.9087-31.0033 40.4873-32.813 40.2697-35.0131C40.0992-36.7377 40.0642-38.2949 40.0945-40.7369C41.8713-41.364 43.1444-43.0581 43.1444-45.0495C43.1444-47.5746 41.0973-49.6217 38.5722-49.6217C36.047-49.6217 34-47.5746 34-45.0495C34-42.9202 35.4555-41.1309 37.4258-40.6222C37.3975-38.17 37.4363-36.5628 37.6156-34.7506C37.8615-32.2639 38.3497-30.1671 39.1691-28.4803C39.7609-27.2621 40.6709-26.1502 42.0465-24.8329C42.655-24.2502 45.0426-22.1166 44.8659-22.2772C48.5601-18.9182 50.2608-16.3301 50.3837-12.7037L50.3837-11.8303C50.3832-11.8133 50.3826-11.7962 50.382-11.7792L50.3837-11.7791L50.3837-11.3594C47.1174-10.6595 44.6685-7.7561 44.6685-4.28075C44.6685-0.282595 47.9096 2.95855 51.9078 2.95855C55.9059 2.95855 59.1471-0.282595 59.1471-4.28075C59.1471-7.88997 56.5059-10.8823 53.0508-11.4303L53.0508-11.7906C53.0591-12.0796 53.0591-12.3648 53.0508-12.6465L53.0508-25.0896L53.757-25.1147C53.6093-29.2565 55.1304-31.669 58.9913-34.8929C59.2141-35.0789 60.3976-36.0518 60.7282-36.33C62.6338-37.9336 63.728-39.1198 64.4509-40.6079C65.2081-42.1668 65.6485-44.0128 65.845-46.1333C66.0009-47.8143 66.0021-49.4063 65.8976-51.5268L69.0535-51.5268L69.0535-60.2901L60.2901-60.2901L60.2901-51.5268L63.2271-51.5268C63.3322-49.4568 63.3342-47.9419 63.1893-46.3795C63.02-44.5531 62.6512-43.0073 62.0518-41.7733C61.5348-40.7089 60.6511-39.7509 59.0109-38.3707C58.6949-38.1047 57.5168-37.1363 57.2818-36.9401C55.3079-35.2918 54.0621-34.0288 53.0508-32.4606Z"/>
  </g>
  <g id="Semibold-S" transform="matrix(1 0 0 1 1992.68 696)">
   <path d="M51.9588-32.6426L51.9588-66.9494L55.0287-66.9494L50.6361-74.682L46.2436-66.9494L49.2917-66.9494L49.2917-20.4462C48.3513-21.7466 47.1838-22.9635 45.5682-24.4325C45.7123-24.3015 43.3686-26.3959 42.7992-26.9412C41.6321-28.0588 40.9022-28.9507 40.4762-29.8277C39.8167-31.1853 39.3953-32.995 39.1777-35.1951C39.0072-36.9197 38.9722-38.4769 39.0025-40.9189C40.7793-41.546 42.0524-43.2401 42.0524-45.2315C42.0524-47.7566 40.0053-49.8037 37.4802-49.8037C34.955-49.8037 32.908-47.7566 32.908-45.2315C32.908-43.1022 34.3635-41.3129 36.3338-40.8042C36.3055-38.352 36.3443-36.7448 36.5236-34.9326C36.7695-32.4459 37.2577-30.3491 38.0771-28.6623C38.6689-27.4441 39.5789-26.3322 40.9545-25.0149C41.563-24.4322 43.9506-22.2986 43.7739-22.4592C47.4681-19.1002 49.1688-16.5121 49.2917-12.8857L49.2917-12.0123C49.2912-11.9953 49.2906-11.9782 49.29-11.9612L49.2917-11.9611L49.2917-11.5414C46.0254-10.8415 43.5765-7.9381 43.5765-4.46275C43.5765-0.464595 46.8176 2.77655 50.8158 2.77655C54.8139 2.77655 58.0551-0.464595 58.0551-4.46275C58.0551-8.07197 55.4139-11.0643 51.9588-11.6123L51.9588-11.9726C51.9671-12.2616 51.9671-12.5468 51.9588-12.8285L51.9588-25.2716L52.665-25.2967C52.5173-29.4385 54.0384-31.851 57.8993-35.0749C58.1221-35.2609 59.3056-36.2338 59.6362-36.512C61.5418-38.1156 62.636-39.3018 63.3589-40.7899C64.1161-42.3488 64.5565-44.1948 64.753-46.3153C64.9089-47.9963 64.9101-49.5883 64.8056-51.7088L67.9615-51.7088L67.9615-60.4721L59.1981-60.4721L59.1981-51.7088L62.1351-51.7088C62.2402-49.6388 62.2422-48.1239 62.0973-46.5615C61.928-44.7351 61.5592-43.1893 60.9598-41.9553C60.4428-40.8909 59.5591-39.9329 57.9189-38.5527C57.6029-38.2867 56.4248-37.3183 56.1898-37.1221C54.2159-35.4738 52.9701-34.2108 51.9588-32.6426Z"/>
  </g>
  <g id="Medium-S" transform="matrix(1 0 0 1 1696.91 696)">
   <path d="M51.1308-32.7806L51.1308-67.0874L54.2007-67.0874L49.8081-74.82L45.4156-67.0874L48.4637-67.0874L48.4637-20.5842C47.5233-21.8846 46.3558-23.1015 44.7402-24.5705C44.8843-24.4395 42.5406-26.5339 41.9712-27.0792C40.8041-28.1968 40.0742-29.0887 39.6482-29.9657C38.9887-31.3233 38.5673-33.133 38.3497-35.3331C38.1792-37.0577 38.1442-38.6149 38.1745-41.0569C39.9513-41.684 41.2244-43.3781 41.2244-45.3695C41.2244-47.8946 39.1773-49.9417 36.6522-49.9417C34.127-49.9417 32.08-47.8946 32.08-45.3695C32.08-43.2402 33.5355-41.4509 35.5058-40.9422C35.4775-38.49 35.5163-36.8828 35.6956-35.0706C35.9415-32.5839 36.4297-30.4871 37.2491-28.8003C37.8409-27.5821 38.7509-26.4702 40.1265-25.1529C40.735-24.5702 43.1226-22.4366 42.9459-22.5972C46.6401-19.2382 48.3408-16.6501 48.4637-13.0237L48.4637-12.1503C48.4632-12.1333 48.4626-12.1162 48.462-12.0992L48.4637-12.0991L48.4637-11.6794C45.1974-10.9795 42.7485-8.0761 42.7485-4.60075C42.7485-0.602595 45.9896 2.63855 49.9878 2.63855C53.9859 2.63855 57.2271-0.602595 57.2271-4.60075C57.2271-8.20997 54.5859-11.2023 51.1308-11.7503L51.1308-12.1106C51.1391-12.3996 51.1391-12.6848 51.1308-12.9665L51.1308-25.4096L51.837-25.4347C51.6893-29.5765 53.2104-31.989 57.0713-35.2129C57.2941-35.3989 58.4776-36.3718 58.8082-36.65C60.7138-38.2536 61.808-39.4398 62.5309-40.9279C63.2881-42.4868 63.7285-44.3328 63.925-46.4533C64.0809-48.1343 64.0821-49.7263 63.9776-51.8468L67.1335-51.8468L67.1335-60.6101L58.3701-60.6101L58.3701-51.8468L61.3071-51.8468C61.4122-49.7768 61.4142-48.2619 61.2693-46.6995C61.1-44.8731 60.7312-43.3273 60.1318-42.0933C59.6148-41.0289 58.7311-40.0709 57.0909-38.6907C56.7749-38.4247 55.5968-37.4563 55.3618-37.2601C53.3879-35.6118 52.1421-34.3488 51.1308-32.7806Z"/>
  </g>
  <g id="Regular-S" transform="matrix(1 0 0 1 1401.43 696)">
   <path d="M50.0508-32.9606L50.0508-67.2674L53.1207-67.2674L48.7281-75L44.3356-67.2674L47.3837-67.2674L47.3837-20.7642C46.4433-22.0646 45.2758-23.2815 43.6602-24.7505C43.8043-24.6195 41.4606-26.7139 40.8912-27.2592C39.7241-28.3768 38.9942-29.2687 38.5682-30.1457C37.9087-31.5033 37.4873-33.313 37.2697-35.5131C37.0992-37.2377 37.0642-38.7949 37.0945-41.2369C38.8713-41.864 40.1444-43.5581 40.1444-45.5495C40.1444-48.0746 38.0973-50.1217 35.5722-50.1217C33.047-50.1217 31-48.0746 31-45.5495C31-43.4202 32.4555-41.6309 34.4258-41.1222C34.3975-38.67 34.4363-37.0628 34.6156-35.2506C34.8615-32.7639 35.3497-30.6671 36.1691-28.9803C36.7609-27.7621 37.6709-26.6502 39.0465-25.3329C39.655-24.7502 42.0426-22.6166 41.8659-22.7772C45.5601-19.4182 47.2608-16.8301 47.3837-13.2037L47.3837-12.3303C47.3832-12.3133 47.3826-12.2962 47.382-12.2792L47.3837-12.2791L47.3837-11.8594C44.1174-11.1595 41.6685-8.2561 41.6685-4.78075C41.6685-0.782595 44.9096 2.45855 48.9078 2.45855C52.9059 2.45855 56.1471-0.782595 56.1471-4.78075C56.1471-8.38997 53.5059-11.3823 50.0508-11.9303L50.0508-12.2906C50.0591-12.5796 50.0591-12.8648 50.0508-13.1465L50.0508-25.5896L50.757-25.6147C50.6093-29.7565 52.1304-32.169 55.9913-35.3929C56.2141-35.5789 57.3976-36.5518 57.7282-36.83C59.6338-38.4336 60.728-39.6198 61.4509-41.1079C62.2081-42.6668 62.6485-44.5128 62.845-46.6333C63.0009-48.3143 63.0021-49.9063 62.8976-52.0268L66.0535-52.0268L66.0535-60.7901L57.2901-60.7901L57.2901-52.0268L60.2271-52.0268C60.3322-49.9568 60.3342-48.4419 60.1893-46.8795C60.02-45.0531 59.6512-43.5073 59.0518-42.2733C58.5348-41.2089 57.6511-40.2509 56.0109-38.8707C55.6949-38.6047 54.5168-37.6363 54.2818-37.4401C52.3079-35.7918 51.0621-34.5288 50.0508-32.9606Z"/>
  </g>
  <g id="Light-S" transform="matrix(1 0 0 1 1105.1 696)">
   <path d="M48.9065-33.2939L48.9065-67.6008L51.9764-67.6008L47.5838-75.3333L43.1912-67.6008L46.2394-67.6008L46.2394-21.0976C45.299-22.3979 44.1315-23.6149 42.5158-25.0839C42.66-24.9528 40.3163-27.0472 39.7468-27.5925C38.5798-28.7101 37.8499-29.602 37.4238-30.479C36.7644-31.8366 36.343-33.6463 36.1254-35.8465C35.9548-37.5711 35.9198-39.1282 35.9502-41.5702C37.7269-42.1974 39.0001-43.8914 39.0001-45.8828C39.0001-48.408 36.953-50.455 34.4279-50.455C31.9027-50.455 29.8557-48.408 29.8557-45.8828C29.8557-43.7536 31.3112-41.9642 33.2815-41.4555C33.2532-39.0033 33.292-37.3961 33.4712-35.584C33.7172-33.0973 34.2054-31.0005 35.0248-29.3137C35.6165-28.0954 36.5266-26.9835 37.9022-25.6662C38.5107-25.0835 40.8982-22.9499 40.7216-23.1105C44.4157-19.7516 46.1165-17.1635 46.2394-13.5371L46.2394-12.6636C46.2388-12.6466 46.2382-12.6296 46.2376-12.6125L46.2394-12.6125L46.2394-12.1927C42.973-11.4928 40.5241-8.58943 40.5241-5.11409C40.5241-1.11593 43.7653 2.12522 47.7634 2.12522C51.7616 2.12522 55.0027-1.11593 55.0027-5.11409C55.0027-8.72331 52.3615-11.7156 48.9065-12.2637L48.9065-12.624C48.9148-12.9129 48.9147-13.1981 48.9065-13.4798L48.9065-25.9229L49.6127-25.9481C49.465-30.0898 50.9861-32.5023 54.847-35.7262C55.0698-35.9122 56.2532-36.8851 56.5839-37.1633C58.4895-38.7669 59.5837-39.9531 60.3065-41.4412C61.0638-43.0001 61.5041-44.8462 61.7007-46.9666C61.8566-48.6477 61.8578-50.2396 61.7532-52.3601L64.9092-52.3601L64.9092-61.1235L56.1458-61.1235L56.1458-52.3601L59.0828-52.3601C59.1879-50.2901 59.1898-48.7752 59.045-47.2128C58.8757-45.3865 58.5069-43.8406 57.9075-42.6066C57.3905-41.5423 56.5067-40.5842 54.8666-39.204C54.5506-38.9381 53.3724-37.9696 53.1375-37.7734C51.1635-36.1251 49.9178-34.8621 48.9065-33.2939Z"/>
  </g>
  <g id="Thin-S" transform="matrix(1 0 0 1 808.887 696)">
   <path d="M47.393-33.7348L47.393-68.0416L50.4629-68.0416L46.0703-75.7742L41.6778-68.0416L44.7259-68.0416L44.7259-21.5384C43.7855-22.8388 42.618-24.0557 41.0024-25.5247C41.1465-25.3937 38.8028-27.4881 38.2334-28.0334C37.0663-29.151 36.3364-30.0428 35.9104-30.9199C35.2509-32.2775 34.8295-34.0872 34.6119-36.2873C34.4414-38.0119 34.4064-39.5691 34.4367-42.011C36.2135-42.6382 37.4866-44.3323 37.4866-46.3237C37.4866-48.8488 35.4395-50.8959 32.9144-50.8959C30.3892-50.8959 28.3422-48.8488 28.3422-46.3237C28.3422-44.1944 29.7977-42.4051 31.768-41.8964C31.7397-39.4442 31.7785-37.837 31.9578-36.0248C32.2037-33.5381 32.6919-31.4413 33.5113-29.7545C34.1031-28.5363 35.0131-27.4244 36.3887-26.1071C36.9972-25.5243 39.3848-23.3907 39.2081-23.5514C42.9023-20.1924 44.603-17.6043 44.7259-13.9779L44.7259-13.1045C44.7253-13.0875 44.7248-13.0704 44.7242-13.0534L44.7259-13.0533L44.7259-12.6335C41.4596-11.9337 39.0106-9.03029 39.0106-5.55495C39.0106-1.55679 42.2518 1.68436 46.25 1.68436C50.2481 1.68436 53.4893-1.55679 53.4893-5.55495C53.4893-9.16417 50.848-12.1565 47.393-12.7045L47.393-13.0648C47.4013-13.3538 47.4013-13.639 47.393-13.9207L47.393-26.3638L48.0992-26.3889C47.9515-30.5307 49.4726-32.9432 53.3335-36.167C53.5563-36.3531 54.7398-37.3259 55.0704-37.6042C56.976-39.2078 58.0702-40.394 58.793-41.8821C59.5503-43.441 59.9907-45.287 60.1872-47.4074C60.3431-49.0885 60.3443-50.6805 60.2398-52.801L63.3957-52.801L63.3957-61.5643L54.6323-61.5643L54.6323-52.801L57.5693-52.801C57.6744-50.731 57.6764-49.2161 57.5315-47.6536C57.3622-45.8273 56.9934-44.2815 56.394-43.0474C55.877-41.9831 54.9933-41.0251 53.3531-39.6449C53.0371-39.3789 51.8589-38.4105 51.624-38.2143C49.65-36.566 48.4043-35.303 47.393-33.7348Z"/>
  </g>
  <g id="Ultralight-S" transform="matrix(1 0 0 1 512.433 696)">
   <path d="M46.6178-33.9606L46.6178-68.2674L49.6877-68.2674L45.2951-76L40.9026-68.2674L43.9507-68.2674L43.9507-21.7642C43.0103-23.0646 41.8428-24.2815 40.2272-25.7505C40.3713-25.6195 38.0276-27.7139 37.4582-28.2592C36.2911-29.3768 35.5612-30.2687 35.1352-31.1457C34.4757-32.5033 34.0543-34.313 33.8367-36.5131C33.6662-38.2377 33.6312-39.7949 33.6615-42.2369C35.4383-42.864 36.7114-44.5581 36.7114-46.5495C36.7114-49.0746 34.6643-51.1217 32.1392-51.1217C29.614-51.1217 27.567-49.0746 27.567-46.5495C27.567-44.4202 29.0225-42.6309 30.9928-42.1222C30.9645-39.67 31.0033-38.0628 31.1826-36.2506C31.4285-33.7639 31.9167-31.6671 32.7361-29.9803C33.3279-28.7621 34.2379-27.6502 35.6135-26.3329C36.222-25.7502 38.6096-23.6166 38.4329-23.7772C42.1271-20.4182 43.8278-17.8301 43.9507-14.2037L43.9507-13.3303C43.9502-13.3133 43.9496-13.2962 43.949-13.2792L43.9507-13.2791L43.9507-12.8594C40.6844-12.1595 38.2355-9.2561 38.2355-5.78075C38.2355-1.7826 41.4766 1.45855 45.4748 1.45855C49.4729 1.45855 52.7141-1.7826 52.7141-5.78075C52.7141-9.38997 50.0729-12.3823 46.6178-12.9303L46.6178-13.2906C46.6261-13.5796 46.6261-13.8648 46.6178-14.1465L46.6178-26.5896L47.324-26.6147C47.1763-30.7565 48.6974-33.169 52.5583-36.3929C52.7811-36.5789 53.9646-37.5518 54.2952-37.83C56.2008-39.4336 57.295-40.6198 58.0179-42.1079C58.7751-43.6668 59.2155-45.5128 59.412-47.6333C59.5679-49.3143 59.5691-50.9063 59.4646-53.0268L62.6205-53.0268L62.6205-61.7901L53.8571-61.7901L53.8571-53.0268L56.7941-53.0268C56.8992-50.9568 56.9012-49.4419 56.7563-47.8795C56.587-46.0531 56.2182-44.5073 55.6188-43.2733C55.1018-42.2089 54.2181-41.2509 52.5779-39.8707C52.2619-39.6047 51.0838-38.6363 50.8488-38.4401C48.8749-36.7918 47.6291-35.5288 46.6178-33.9606Z"/>
  </g>
 </g>
</svg>
